<?xml version="1.0" encoding="UTF-8" standalone="no"?>
<!DOCTYPE svg PUBLIC "-//W3C//DTD SVG 1.1//EN"
 "http://www.w3.org/Graphics/SVG/1.1/DTD/svg11.dtd">
<!-- Generated by graphviz version 12.1.2 (0)
 -->
<!-- Title: drivers/at86rf2xx/include/at86rf2xx_params.h Pages: 1 -->
<svg width="1384pt" height="496pt"
 viewBox="0.00 0.00 1383.75 495.50" xmlns="http://www.w3.org/2000/svg" xmlns:xlink="http://www.w3.org/1999/xlink">
<g id="graph0" class="graph" transform="scale(1 1) rotate(0) translate(4 491.5)">
<title>drivers/at86rf2xx/include/at86rf2xx_params.h</title>
<!-- Node1 -->
<g id="Node000001" class="node">
<title>Node1</title>
<g id="a_Node000001"><a xlink:title="Default configuration for the AT86RF2xx driver.">
<polygon fill="#999999" stroke="#666666" points="966.5,-487.5 828.25,-487.5 828.25,-454 966.5,-454 966.5,-487.5"/>
<text text-anchor="start" x="836.25" y="-474" font-family="Helvetica,sans-Serif" font-size="10.00">drivers/at86rf2xx/include</text>
<text text-anchor="middle" x="897.38" y="-461.25" font-family="Helvetica,sans-Serif" font-size="10.00">/at86rf2xx_params.h</text>
</a>
</g>
</g>
<!-- Node2 -->
<g id="Node000002" class="node">
<title>Node2</title>
<g id="a_Node000002"><a xlink:href="at86rf2xx_8h.html" target="_top" xlink:title="Interface definition for AT86RF2xx based drivers.">
<polygon fill="white" stroke="#666666" points="901.5,-418 829.25,-418 829.25,-397.25 901.5,-397.25 901.5,-418"/>
<text text-anchor="middle" x="865.38" y="-404.5" font-family="Helvetica,sans-Serif" font-size="10.00">at86rf2xx.h</text>
</a>
</g>
</g>
<!-- Node1&#45;&gt;Node2 -->
<g id="edge1_Node000001_Node000002" class="edge">
<title>Node1&#45;&gt;Node2</title>
<g id="a_edge1_Node000001_Node000002"><a xlink:title=" ">
<path fill="none" stroke="#63b8ff" d="M888.97,-453.69C884.94,-446.01 880.09,-436.73 875.83,-428.59"/>
<polygon fill="#63b8ff" stroke="#63b8ff" points="878.97,-427.04 871.23,-419.81 872.77,-430.29 878.97,-427.04"/>
</a>
</g>
</g>
<!-- Node5 -->
<g id="Node000005" class="node">
<title>Node5</title>
<g id="a_Node000005"><a xlink:title=" ">
<polygon fill="#e0e0e0" stroke="#999999" points="1375.75,-361.25 1323,-361.25 1323,-340.5 1375.75,-340.5 1375.75,-361.25"/>
<text text-anchor="middle" x="1349.38" y="-347.75" font-family="Helvetica,sans-Serif" font-size="10.00">board.h</text>
</a>
</g>
</g>
<!-- Node1&#45;&gt;Node5 -->
<g id="edge66_Node000001_Node000005" class="edge">
<title>Node1&#45;&gt;Node5</title>
<g id="a_edge66_Node000001_Node000005"><a xlink:title=" ">
<path fill="none" stroke="#63b8ff" d="M959.28,-453.61C1054.57,-428.76 1234.3,-381.88 1312.01,-361.62"/>
<polygon fill="#63b8ff" stroke="#63b8ff" points="1312.46,-365.12 1321.25,-359.21 1310.69,-358.35 1312.46,-365.12"/>
</a>
</g>
</g>
<!-- Node3 -->
<g id="Node000003" class="node">
<title>Node3</title>
<g id="a_Node000003"><a xlink:title=" ">
<polygon fill="#e0e0e0" stroke="#999999" points="844.75,-20.75 792,-20.75 792,0 844.75,0 844.75,-20.75"/>
<text text-anchor="middle" x="818.38" y="-7.25" font-family="Helvetica,sans-Serif" font-size="10.00">stdint.h</text>
</a>
</g>
</g>
<!-- Node2&#45;&gt;Node3 -->
<g id="edge2_Node000002_Node000003" class="edge">
<title>Node2&#45;&gt;Node3</title>
<g id="a_edge2_Node000002_Node000003"><a xlink:title=" ">
<path fill="none" stroke="#63b8ff" d="M901.67,-404.98C1005.33,-399.31 1295.38,-376.2 1295.38,-295.12 1295.38,-295.12 1295.38,-295.12 1295.38,-122.88 1295.38,-32.92 969.66,-15.5 856.54,-12.16"/>
<polygon fill="#63b8ff" stroke="#63b8ff" points="856.65,-8.66 846.56,-11.89 856.46,-15.66 856.65,-8.66"/>
</a>
</g>
</g>
<!-- Node4 -->
<g id="Node000004" class="node">
<title>Node4</title>
<g id="a_Node000004"><a xlink:title=" ">
<polygon fill="#e0e0e0" stroke="#999999" points="392.88,-134.25 331.88,-134.25 331.88,-113.5 392.88,-113.5 392.88,-134.25"/>
<text text-anchor="middle" x="362.38" y="-120.75" font-family="Helvetica,sans-Serif" font-size="10.00">stdbool.h</text>
</a>
</g>
</g>
<!-- Node2&#45;&gt;Node4 -->
<g id="edge3_Node000002_Node000004" class="edge">
<title>Node2&#45;&gt;Node4</title>
<g id="a_edge3_Node000002_Node000004"><a xlink:title=" ">
<path fill="none" stroke="#63b8ff" d="M828.84,-406.41C712.36,-404.74 357.38,-391.74 357.38,-295.12 357.38,-295.12 357.38,-295.12 357.38,-236.38 357.38,-204.95 359.38,-168.59 360.85,-146.17"/>
<polygon fill="#63b8ff" stroke="#63b8ff" points="364.34,-146.44 361.53,-136.22 357.36,-145.96 364.34,-146.44"/>
</a>
</g>
</g>
<!-- Node2&#45;&gt;Node5 -->
<g id="edge4_Node000002_Node000005" class="edge">
<title>Node2&#45;&gt;Node5</title>
<g id="a_edge4_Node000002_Node000005"><a xlink:title=" ">
<path fill="none" stroke="#63b8ff" d="M901.84,-404.49C977.98,-399.68 1159.21,-386.41 1309.38,-361.25 1310.19,-361.11 1311.02,-360.97 1311.85,-360.82"/>
<polygon fill="#63b8ff" stroke="#63b8ff" points="1312.2,-364.32 1321.31,-358.91 1310.81,-357.46 1312.2,-364.32"/>
</a>
</g>
</g>
<!-- Node6 -->
<g id="Node000006" class="node">
<title>Node6</title>
<g id="a_Node000006"><a xlink:href="kernel__defines_8h.html" target="_top" xlink:title="Common macros and compiler attributes/pragmas configuration.">
<polygon fill="white" stroke="#666666" points="1085.5,-191 989.25,-191 989.25,-170.25 1085.5,-170.25 1085.5,-191"/>
<text text-anchor="middle" x="1037.38" y="-177.5" font-family="Helvetica,sans-Serif" font-size="10.00">kernel_defines.h</text>
</a>
</g>
</g>
<!-- Node2&#45;&gt;Node6 -->
<g id="edge5_Node000002_Node000006" class="edge">
<title>Node2&#45;&gt;Node6</title>
<g id="a_edge5_Node000002_Node000006"><a xlink:title=" ">
<path fill="none" stroke="#63b8ff" d="M901.98,-397.24C962.33,-379.57 1080.94,-335.03 1130.38,-247.75 1144.07,-223.57 1114.84,-206.03 1085.6,-195.12"/>
<polygon fill="#63b8ff" stroke="#63b8ff" points="1086.94,-191.88 1076.34,-191.9 1084.64,-198.49 1086.94,-191.88"/>
</a>
</g>
</g>
<!-- Node13 -->
<g id="Node000013" class="node">
<title>Node13</title>
<g id="a_Node000013"><a xlink:href="drivers_2include_2net_2netdev_8h.html" target="_top" xlink:title="Definitions low&#45;level network driver interface.">
<polygon fill="white" stroke="#666666" points="580.75,-247.75 504,-247.75 504,-227 580.75,-227 580.75,-247.75"/>
<text text-anchor="middle" x="542.38" y="-234.25" font-family="Helvetica,sans-Serif" font-size="10.00">net/netdev.h</text>
</a>
</g>
</g>
<!-- Node2&#45;&gt;Node13 -->
<g id="edge16_Node000002_Node000013" class="edge">
<title>Node2&#45;&gt;Node13</title>
<g id="a_edge16_Node000002_Node000013"><a xlink:title=" ">
<path fill="none" stroke="#63b8ff" d="M829.12,-405.43C784.3,-402.57 706.92,-392.99 649.38,-361.25 604.77,-336.65 569.97,-285.85 553.25,-257.89"/>
<polygon fill="#63b8ff" stroke="#63b8ff" points="556.37,-256.29 548.33,-249.38 550.31,-259.79 556.37,-256.29"/>
</a>
</g>
</g>
<!-- Node17 -->
<g id="Node000017" class="node">
<title>Node17</title>
<g id="a_Node000017"><a xlink:href="drivers_2include_2net_2netdev_2ieee802154_8h.html" target="_top" xlink:title="Definitions for netdev common IEEE 802.15.4 code.">
<polygon fill="white" stroke="#666666" points="796.12,-361.25 658.62,-361.25 658.62,-340.5 796.12,-340.5 796.12,-361.25"/>
<text text-anchor="middle" x="727.38" y="-347.75" font-family="Helvetica,sans-Serif" font-size="10.00">net/netdev/ieee802154.h</text>
</a>
</g>
</g>
<!-- Node2&#45;&gt;Node17 -->
<g id="edge24_Node000002_Node000017" class="edge">
<title>Node2&#45;&gt;Node17</title>
<g id="a_edge24_Node000002_Node000017"><a xlink:title=" ">
<path fill="none" stroke="#63b8ff" d="M840.7,-396.84C818.92,-388.19 786.92,-375.5 762.47,-365.8"/>
<polygon fill="#63b8ff" stroke="#63b8ff" points="763.83,-362.57 753.24,-362.14 761.24,-369.08 763.83,-362.57"/>
</a>
</g>
</g>
<!-- Node27 -->
<g id="Node000027" class="node">
<title>Node27</title>
<g id="a_Node000027"><a xlink:href="nettype_8h.html" target="_top" xlink:title="Protocol type definitions.">
<polygon fill="white" stroke="#666666" points="1006,-304.5 900.75,-304.5 900.75,-283.75 1006,-283.75 1006,-304.5"/>
<text text-anchor="middle" x="953.38" y="-291" font-family="Helvetica,sans-Serif" font-size="10.00">net/gnrc/nettype.h</text>
</a>
</g>
</g>
<!-- Node2&#45;&gt;Node27 -->
<g id="edge52_Node000002_Node000027" class="edge">
<title>Node2&#45;&gt;Node27</title>
<g id="a_edge52_Node000002_Node000027"><a xlink:title=" ">
<path fill="none" stroke="#63b8ff" d="M872.88,-397.12C887.42,-378.7 919.66,-337.84 938.64,-313.8"/>
<polygon fill="#63b8ff" stroke="#63b8ff" points="941.25,-316.13 944.7,-306.11 935.76,-311.79 941.25,-316.13"/>
</a>
</g>
</g>
<!-- Node31 -->
<g id="Node000031" class="node">
<title>Node31</title>
<g id="a_Node000031"><a xlink:href="spi_8h.html" target="_top" xlink:title="Low&#45;level SPI peripheral driver interface definition.">
<polygon fill="white" stroke="#666666" points="328.88,-191 255.88,-191 255.88,-170.25 328.88,-170.25 328.88,-191"/>
<text text-anchor="middle" x="292.38" y="-177.5" font-family="Helvetica,sans-Serif" font-size="10.00">periph/spi.h</text>
</a>
</g>
</g>
<!-- Node2&#45;&gt;Node31 -->
<g id="edge53_Node000002_Node000031" class="edge">
<title>Node2&#45;&gt;Node31</title>
<g id="a_edge53_Node000002_Node000031"><a xlink:title=" ">
<path fill="none" stroke="#63b8ff" d="M828.91,-405.82C716.5,-403 380.68,-392.06 343.38,-361.25 295.65,-321.83 290.75,-241.28 291.34,-202.89"/>
<polygon fill="#63b8ff" stroke="#63b8ff" points="294.83,-203.02 291.65,-192.92 287.84,-202.8 294.83,-203.02"/>
</a>
</g>
</g>
<!-- Node34 -->
<g id="Node000034" class="node">
<title>Node34</title>
<g id="a_Node000034"><a xlink:href="drivers_2include_2periph_2gpio_8h.html" target="_top" xlink:title="Low&#45;level GPIO peripheral driver interface definitions.">
<polygon fill="white" stroke="#666666" points="161.25,-134.25 81.5,-134.25 81.5,-113.5 161.25,-113.5 161.25,-134.25"/>
<text text-anchor="middle" x="121.38" y="-120.75" font-family="Helvetica,sans-Serif" font-size="10.00">periph/gpio.h</text>
</a>
</g>
</g>
<!-- Node2&#45;&gt;Node34 -->
<g id="edge65_Node000002_Node000034" class="edge">
<title>Node2&#45;&gt;Node34</title>
<g id="a_edge65_Node000002_Node000034"><a xlink:title=" ">
<path fill="none" stroke="#63b8ff" d="M829.01,-405.22C723.24,-400.86 417.09,-386.38 320.38,-361.25 251.43,-343.34 174.38,-366.36 174.38,-295.12 174.38,-295.12 174.38,-295.12 174.38,-236.38 174.38,-200.85 152.16,-164.59 136.49,-143.43"/>
<polygon fill="#63b8ff" stroke="#63b8ff" points="139.46,-141.55 130.58,-135.78 133.92,-145.83 139.46,-141.55"/>
</a>
</g>
</g>
<!-- Node7 -->
<g id="Node000007" class="node">
<title>Node7</title>
<g id="a_Node000007"><a xlink:href="modules_8h.html" target="_top" xlink:title="Common macros and compiler attributes/pragmas configuration.">
<polygon fill="white" stroke="#666666" points="1266.88,-134.25 1199.88,-134.25 1199.88,-113.5 1266.88,-113.5 1266.88,-134.25"/>
<text text-anchor="middle" x="1233.38" y="-120.75" font-family="Helvetica,sans-Serif" font-size="10.00">modules.h</text>
</a>
</g>
</g>
<!-- Node6&#45;&gt;Node7 -->
<g id="edge6_Node000006_Node000007" class="edge">
<title>Node6&#45;&gt;Node7</title>
<g id="a_edge6_Node000006_Node000007"><a xlink:title=" ">
<path fill="none" stroke="#63b8ff" d="M1072.42,-169.84C1104.91,-160.76 1153.41,-147.21 1188.67,-137.36"/>
<polygon fill="#63b8ff" stroke="#63b8ff" points="1189.47,-140.77 1198.16,-134.71 1187.59,-134.03 1189.47,-140.77"/>
</a>
</g>
</g>
<!-- Node8 -->
<g id="Node000008" class="node">
<title>Node8</title>
<g id="a_Node000008"><a xlink:href="riot__version_8h.html" target="_top" xlink:title="Common macros and compiler attributes/pragmas configuration.">
<polygon fill="white" stroke="#666666" points="1066.75,-134.25 984,-134.25 984,-113.5 1066.75,-113.5 1066.75,-134.25"/>
<text text-anchor="middle" x="1025.38" y="-120.75" font-family="Helvetica,sans-Serif" font-size="10.00">riot_version.h</text>
</a>
</g>
</g>
<!-- Node6&#45;&gt;Node8 -->
<g id="edge7_Node000006_Node000008" class="edge">
<title>Node6&#45;&gt;Node8</title>
<g id="a_edge7_Node000006_Node000008"><a xlink:title=" ">
<path fill="none" stroke="#63b8ff" d="M1035.23,-169.84C1033.76,-163.14 1031.76,-154.01 1029.95,-145.73"/>
<polygon fill="#63b8ff" stroke="#63b8ff" points="1033.39,-145.08 1027.83,-136.06 1026.55,-146.57 1033.39,-145.08"/>
</a>
</g>
</g>
<!-- Node9 -->
<g id="Node000009" class="node">
<title>Node9</title>
<g id="a_Node000009"><a xlink:href="compiler__hints_8h.html" target="_top" xlink:title="Common macros and compiler attributes/pragmas configuration.">
<polygon fill="white" stroke="#666666" points="1181.88,-134.25 1084.88,-134.25 1084.88,-113.5 1181.88,-113.5 1181.88,-134.25"/>
<text text-anchor="middle" x="1133.38" y="-120.75" font-family="Helvetica,sans-Serif" font-size="10.00">compiler_hints.h</text>
</a>
</g>
</g>
<!-- Node6&#45;&gt;Node9 -->
<g id="edge9_Node000006_Node000009" class="edge">
<title>Node6&#45;&gt;Node9</title>
<g id="a_edge9_Node000006_Node000009"><a xlink:title=" ">
<path fill="none" stroke="#63b8ff" d="M1054.54,-169.84C1069.01,-161.58 1089.96,-149.63 1106.63,-140.13"/>
<polygon fill="#63b8ff" stroke="#63b8ff" points="1108.09,-143.32 1115.05,-135.33 1104.63,-137.24 1108.09,-143.32"/>
</a>
</g>
</g>
<!-- Node11 -->
<g id="Node000011" class="node">
<title>Node11</title>
<g id="a_Node000011"><a xlink:href="container_8h.html" target="_top" xlink:title="Common macros and compiler attributes/pragmas configuration.">
<polygon fill="white" stroke="#666666" points="965.75,-134.25 895,-134.25 895,-113.5 965.75,-113.5 965.75,-134.25"/>
<text text-anchor="middle" x="930.38" y="-120.75" font-family="Helvetica,sans-Serif" font-size="10.00">container.h</text>
</a>
</g>
</g>
<!-- Node6&#45;&gt;Node11 -->
<g id="edge13_Node000006_Node000011" class="edge">
<title>Node6&#45;&gt;Node11</title>
<g id="a_edge13_Node000006_Node000011"><a xlink:title=" ">
<path fill="none" stroke="#63b8ff" d="M1018.25,-169.84C1001.89,-161.47 978.1,-149.29 959.4,-139.72"/>
<polygon fill="#63b8ff" stroke="#63b8ff" points="961.18,-136.71 950.69,-135.27 957.99,-142.94 961.18,-136.71"/>
</a>
</g>
</g>
<!-- Node8&#45;&gt;Node3 -->
<g id="edge8_Node000008_Node000003" class="edge">
<title>Node8&#45;&gt;Node3</title>
<g id="a_edge8_Node000008_Node000003"><a xlink:title=" ">
<path fill="none" stroke="#63b8ff" d="M1024.02,-113.2C1021.48,-98.71 1014.59,-71.53 997.38,-56.75 957.71,-22.71 895.98,-13.62 856.36,-11.51"/>
<polygon fill="#63b8ff" stroke="#63b8ff" points="856.72,-8.03 846.59,-11.13 856.44,-15.02 856.72,-8.03"/>
</a>
</g>
</g>
<!-- Node9&#45;&gt;Node3 -->
<g id="edge12_Node000009_Node000003" class="edge">
<title>Node9&#45;&gt;Node3</title>
<g id="a_edge12_Node000009_Node000003"><a xlink:title=" ">
<path fill="none" stroke="#63b8ff" d="M1119.68,-113.07C1098.95,-98.67 1057.93,-71.87 1019.38,-56.75 964.7,-35.3 897.48,-22.7 856.3,-16.42"/>
<polygon fill="#63b8ff" stroke="#63b8ff" points="857.05,-13 846.65,-15 856.03,-19.92 857.05,-13"/>
</a>
</g>
</g>
<!-- Node10 -->
<g id="Node000010" class="node">
<title>Node10</title>
<g id="a_Node000010"><a xlink:href="assert_8h.html" target="_top" xlink:title="POSIX.1&#45;2008 compliant version of the assert macro.">
<polygon fill="white" stroke="#666666" points="1160.88,-77.5 1105.88,-77.5 1105.88,-56.75 1160.88,-56.75 1160.88,-77.5"/>
<text text-anchor="middle" x="1133.38" y="-64" font-family="Helvetica,sans-Serif" font-size="10.00">assert.h</text>
</a>
</g>
</g>
<!-- Node9&#45;&gt;Node10 -->
<g id="edge10_Node000009_Node000010" class="edge">
<title>Node9&#45;&gt;Node10</title>
<g id="a_edge10_Node000009_Node000010"><a xlink:title=" ">
<path fill="none" stroke="#63b8ff" d="M1133.38,-113.09C1133.38,-106.47 1133.38,-97.47 1133.38,-89.27"/>
<polygon fill="#63b8ff" stroke="#63b8ff" points="1136.88,-89.34 1133.38,-79.34 1129.88,-89.34 1136.88,-89.34"/>
</a>
</g>
</g>
<!-- Node10&#45;&gt;Node3 -->
<g id="edge11_Node000010_Node000003" class="edge">
<title>Node10&#45;&gt;Node3</title>
<g id="a_edge11_Node000010_Node000003"><a xlink:title=" ">
<path fill="none" stroke="#63b8ff" d="M1105.41,-59.66C1100.73,-58.64 1095.92,-57.63 1091.38,-56.75 1007.85,-40.5 909.23,-25.02 856.38,-17.02"/>
<polygon fill="#63b8ff" stroke="#63b8ff" points="857.11,-13.59 846.7,-15.56 856.06,-20.51 857.11,-13.59"/>
</a>
</g>
</g>
<!-- Node11&#45;&gt;Node3 -->
<g id="edge15_Node000011_Node000003" class="edge">
<title>Node11&#45;&gt;Node3</title>
<g id="a_edge15_Node000011_Node000003"><a xlink:title=" ">
<path fill="none" stroke="#63b8ff" d="M947.42,-113.05C967.59,-100.17 996.63,-76.84 981.38,-56.75 966.32,-36.93 899.77,-23.47 856.5,-16.63"/>
<polygon fill="#63b8ff" stroke="#63b8ff" points="857.15,-13.19 846.74,-15.14 856.1,-20.11 857.15,-13.19"/>
</a>
</g>
</g>
<!-- Node12 -->
<g id="Node000012" class="node">
<title>Node12</title>
<g id="a_Node000012"><a xlink:title=" ">
<polygon fill="#e0e0e0" stroke="#999999" points="972.88,-77.5 917.88,-77.5 917.88,-56.75 972.88,-56.75 972.88,-77.5"/>
<text text-anchor="middle" x="945.38" y="-64" font-family="Helvetica,sans-Serif" font-size="10.00">stddef.h</text>
</a>
</g>
</g>
<!-- Node11&#45;&gt;Node12 -->
<g id="edge14_Node000011_Node000012" class="edge">
<title>Node11&#45;&gt;Node12</title>
<g id="a_edge14_Node000011_Node000012"><a xlink:title=" ">
<path fill="none" stroke="#63b8ff" d="M933.06,-113.09C934.91,-106.31 937.45,-97.05 939.74,-88.69"/>
<polygon fill="#63b8ff" stroke="#63b8ff" points="943.05,-89.86 942.32,-79.29 936.3,-88.01 943.05,-89.86"/>
</a>
</g>
</g>
<!-- Node13&#45;&gt;Node3 -->
<g id="edge17_Node000013_Node000003" class="edge">
<title>Node13&#45;&gt;Node3</title>
<g id="a_edge17_Node000013_Node000003"><a xlink:title=" ">
<path fill="none" stroke="#63b8ff" d="M538.58,-226.75C527.67,-197.26 499.59,-107.15 542.38,-56.75 572.47,-21.31 711.98,-13.5 780.38,-11.81"/>
<polygon fill="#63b8ff" stroke="#63b8ff" points="780.45,-15.31 790.37,-11.6 780.3,-8.32 780.45,-15.31"/>
</a>
</g>
</g>
<!-- Node13&#45;&gt;Node6 -->
<g id="edge23_Node000013_Node000006" class="edge">
<title>Node13&#45;&gt;Node6</title>
<g id="a_edge23_Node000013_Node000006"><a xlink:title=" ">
<path fill="none" stroke="#63b8ff" d="M581.1,-228.5C584.23,-227.96 587.35,-227.45 590.38,-227 728.33,-206.57 891.61,-192.55 977.56,-185.94"/>
<polygon fill="#63b8ff" stroke="#63b8ff" points="977.69,-189.44 987.4,-185.19 977.16,-182.46 977.69,-189.44"/>
</a>
</g>
</g>
<!-- Node14 -->
<g id="Node000014" class="node">
<title>Node14</title>
<g id="a_Node000014"><a xlink:href="errno_8h.html" target="_top" xlink:title=" ">
<polygon fill="white" stroke="#666666" points="499.62,-134.25 449.12,-134.25 449.12,-113.5 499.62,-113.5 499.62,-134.25"/>
<text text-anchor="middle" x="474.38" y="-120.75" font-family="Helvetica,sans-Serif" font-size="10.00">errno.h</text>
</a>
</g>
</g>
<!-- Node13&#45;&gt;Node14 -->
<g id="edge18_Node000013_Node000014" class="edge">
<title>Node13&#45;&gt;Node14</title>
<g id="a_edge18_Node000013_Node000014"><a xlink:title=" ">
<path fill="none" stroke="#63b8ff" d="M536.05,-226.7C530.11,-217.56 521.01,-203.43 513.38,-191 503.78,-175.38 493.24,-157.47 485.54,-144.23"/>
<polygon fill="#63b8ff" stroke="#63b8ff" points="488.62,-142.56 480.58,-135.67 482.57,-146.07 488.62,-142.56"/>
</a>
</g>
</g>
<!-- Node15 -->
<g id="Node000015" class="node">
<title>Node15</title>
<g id="a_Node000015"><a xlink:href="iolist_8h.html" target="_top" xlink:title="iolist scatter / gather IO">
<polygon fill="white" stroke="#666666" points="604.88,-191 555.88,-191 555.88,-170.25 604.88,-170.25 604.88,-191"/>
<text text-anchor="middle" x="580.38" y="-177.5" font-family="Helvetica,sans-Serif" font-size="10.00">iolist.h</text>
</a>
</g>
</g>
<!-- Node13&#45;&gt;Node15 -->
<g id="edge19_Node000013_Node000015" class="edge">
<title>Node13&#45;&gt;Node15</title>
<g id="a_edge19_Node000013_Node000015"><a xlink:title=" ">
<path fill="none" stroke="#63b8ff" d="M549.17,-226.59C554.14,-219.42 561.04,-209.48 567.1,-200.76"/>
<polygon fill="#63b8ff" stroke="#63b8ff" points="569.95,-202.78 572.78,-192.57 564.2,-198.79 569.95,-202.78"/>
</a>
</g>
</g>
<!-- Node16 -->
<g id="Node000016" class="node">
<title>Node16</title>
<g id="a_Node000016"><a xlink:href="netopt_8h.html" target="_top" xlink:title="Definition of global configuration options.">
<polygon fill="white" stroke="#666666" points="461,-191 385.75,-191 385.75,-170.25 461,-170.25 461,-191"/>
<text text-anchor="middle" x="423.38" y="-177.5" font-family="Helvetica,sans-Serif" font-size="10.00">net/netopt.h</text>
</a>
</g>
</g>
<!-- Node13&#45;&gt;Node16 -->
<g id="edge20_Node000013_Node000016" class="edge">
<title>Node13&#45;&gt;Node16</title>
<g id="a_edge20_Node000013_Node000016"><a xlink:title=" ">
<path fill="none" stroke="#63b8ff" d="M521.1,-226.59C502.66,-218.1 475.71,-205.7 454.78,-196.08"/>
<polygon fill="#63b8ff" stroke="#63b8ff" points="456.39,-192.96 445.84,-191.96 453.46,-199.32 456.39,-192.96"/>
</a>
</g>
</g>
<!-- Node16&#45;&gt;Node3 -->
<g id="edge21_Node000016_Node000003" class="edge">
<title>Node16&#45;&gt;Node3</title>
<g id="a_edge21_Node000016_Node000003"><a xlink:title=" ">
<path fill="none" stroke="#63b8ff" d="M424.6,-169.76C426.54,-156.43 431.09,-132.18 440.38,-113.5 454.7,-84.67 457.41,-72.69 485.38,-56.75 535.06,-28.44 703.89,-16.88 780.28,-13.02"/>
<polygon fill="#63b8ff" stroke="#63b8ff" points="780.38,-16.52 790.2,-12.54 780.04,-9.53 780.38,-16.52"/>
</a>
</g>
</g>
<!-- Node16&#45;&gt;Node4 -->
<g id="edge22_Node000016_Node000004" class="edge">
<title>Node16&#45;&gt;Node4</title>
<g id="a_edge22_Node000016_Node000004"><a xlink:title=" ">
<path fill="none" stroke="#63b8ff" d="M412.47,-169.84C403.88,-162.13 391.7,-151.2 381.5,-142.04"/>
<polygon fill="#63b8ff" stroke="#63b8ff" points="384.09,-139.66 374.31,-135.59 379.42,-144.87 384.09,-139.66"/>
</a>
</g>
</g>
<!-- Node17&#45;&gt;Node13 -->
<g id="edge51_Node000017_Node000013" class="edge">
<title>Node17&#45;&gt;Node13</title>
<g id="a_edge51_Node000017_Node000013"><a xlink:title=" ">
<path fill="none" stroke="#63b8ff" d="M701.76,-340.01C681.29,-331.68 652.18,-318.85 628.38,-304.5 604.15,-289.89 578.75,-269.67 561.89,-255.44"/>
<polygon fill="#63b8ff" stroke="#63b8ff" points="564.49,-253.06 554.62,-249.21 559.94,-258.37 564.49,-253.06"/>
</a>
</g>
</g>
<!-- Node17&#45;&gt;Node16 -->
<g id="edge50_Node000017_Node000016" class="edge">
<title>Node17&#45;&gt;Node16</title>
<g id="a_edge50_Node000017_Node000016"><a xlink:title=" ">
<path fill="none" stroke="#63b8ff" d="M692.79,-340.07C665.53,-331.87 626.83,-319.18 594.38,-304.5 548.16,-283.61 536.3,-277.7 495.38,-247.75 475.19,-232.98 454.37,-213.29 440.35,-199.25"/>
<polygon fill="#63b8ff" stroke="#63b8ff" points="443.13,-197.09 433.63,-192.41 438.14,-202 443.13,-197.09"/>
</a>
</g>
</g>
<!-- Node18 -->
<g id="Node000018" class="node">
<title>Node18</title>
<g id="a_Node000018"><a xlink:href="eui__provider_8h.html" target="_top" xlink:title="EUI&#45;48 and EUI&#45;64 address provider.">
<polygon fill="white" stroke="#666666" points="741.62,-304.5 637.12,-304.5 637.12,-283.75 741.62,-283.75 741.62,-304.5"/>
<text text-anchor="middle" x="689.38" y="-291" font-family="Helvetica,sans-Serif" font-size="10.00">net/eui_provider.h</text>
</a>
</g>
</g>
<!-- Node17&#45;&gt;Node18 -->
<g id="edge25_Node000017_Node000018" class="edge">
<title>Node17&#45;&gt;Node18</title>
<g id="a_edge25_Node000017_Node000018"><a xlink:title=" ">
<path fill="none" stroke="#63b8ff" d="M720.58,-340.09C715.61,-332.92 708.71,-322.98 702.65,-314.26"/>
<polygon fill="#63b8ff" stroke="#63b8ff" points="705.55,-312.29 696.97,-306.07 699.8,-316.28 705.55,-312.29"/>
</a>
</g>
</g>
<!-- Node25 -->
<g id="Node000025" class="node">
<title>Node25</title>
<g id="a_Node000025"><a xlink:href="sys_2include_2net_2ieee802154_8h.html" target="_top" xlink:title="IEEE 802.15.4 header definitions.">
<polygon fill="white" stroke="#666666" points="825.75,-247.75 725,-247.75 725,-227 825.75,-227 825.75,-247.75"/>
<text text-anchor="middle" x="775.38" y="-234.25" font-family="Helvetica,sans-Serif" font-size="10.00">net/ieee802154.h</text>
</a>
</g>
</g>
<!-- Node17&#45;&gt;Node25 -->
<g id="edge39_Node000017_Node000025" class="edge">
<title>Node17&#45;&gt;Node25</title>
<g id="a_edge39_Node000017_Node000025"><a xlink:title=" ">
<path fill="none" stroke="#63b8ff" d="M732.62,-340.28C737.49,-331.2 744.82,-317.11 750.38,-304.5 757.05,-289.37 763.62,-271.85 768.35,-258.64"/>
<polygon fill="#63b8ff" stroke="#63b8ff" points="771.61,-259.94 771.63,-249.35 765,-257.62 771.61,-259.94"/>
</a>
</g>
</g>
<!-- Node17&#45;&gt;Node27 -->
<g id="edge45_Node000017_Node000027" class="edge">
<title>Node17&#45;&gt;Node27</title>
<g id="a_edge45_Node000017_Node000027"><a xlink:title=" ">
<path fill="none" stroke="#63b8ff" d="M768.04,-340.02C805.44,-330.96 861.09,-317.48 901.65,-307.66"/>
<polygon fill="#63b8ff" stroke="#63b8ff" points="902.29,-311.1 911.18,-305.35 900.64,-304.3 902.29,-311.1"/>
</a>
</g>
</g>
<!-- Node18&#45;&gt;Node13 -->
<g id="edge38_Node000018_Node000013" class="edge">
<title>Node18&#45;&gt;Node13</title>
<g id="a_edge38_Node000018_Node000013"><a xlink:title=" ">
<path fill="none" stroke="#63b8ff" d="M663.09,-283.34C639.68,-274.62 605.19,-261.77 579.06,-252.04"/>
<polygon fill="#63b8ff" stroke="#63b8ff" points="580.44,-248.82 569.85,-248.61 578,-255.38 580.44,-248.82"/>
</a>
</g>
</g>
<!-- Node19 -->
<g id="Node000019" class="node">
<title>Node19</title>
<g id="a_Node000019"><a xlink:href="eui48_8h.html" target="_top" xlink:title="Definition and IPv6 IID conversion for IEEE EUI&#45;48 identifiers.">
<polygon fill="white" stroke="#666666" points="669.75,-247.75 599,-247.75 599,-227 669.75,-227 669.75,-247.75"/>
<text text-anchor="middle" x="634.38" y="-234.25" font-family="Helvetica,sans-Serif" font-size="10.00">net/eui48.h</text>
</a>
</g>
</g>
<!-- Node18&#45;&gt;Node19 -->
<g id="edge26_Node000018_Node000019" class="edge">
<title>Node18&#45;&gt;Node19</title>
<g id="a_edge26_Node000018_Node000019"><a xlink:title=" ">
<path fill="none" stroke="#63b8ff" d="M679.54,-283.34C671.96,-275.78 661.26,-265.14 652.18,-256.1"/>
<polygon fill="#63b8ff" stroke="#63b8ff" points="654.75,-253.72 645.2,-249.15 649.81,-258.68 654.75,-253.72"/>
</a>
</g>
</g>
<!-- Node20 -->
<g id="Node000020" class="node">
<title>Node20</title>
<g id="a_Node000020"><a xlink:href="eui64_8h.html" target="_top" xlink:title="EUI&#45;64 data type definition.">
<polygon fill="white" stroke="#666666" points="731.75,-191 661,-191 661,-170.25 731.75,-170.25 731.75,-191"/>
<text text-anchor="middle" x="696.38" y="-177.5" font-family="Helvetica,sans-Serif" font-size="10.00">net/eui64.h</text>
</a>
</g>
</g>
<!-- Node18&#45;&gt;Node20 -->
<g id="edge37_Node000018_Node000020" class="edge">
<title>Node18&#45;&gt;Node20</title>
<g id="a_edge37_Node000018_Node000020"><a xlink:title=" ">
<path fill="none" stroke="#63b8ff" d="M689.97,-283.62C691.09,-265.77 693.54,-226.86 695.06,-202.59"/>
<polygon fill="#63b8ff" stroke="#63b8ff" points="698.53,-203.14 695.66,-192.94 691.55,-202.7 698.53,-203.14"/>
</a>
</g>
</g>
<!-- Node19&#45;&gt;Node3 -->
<g id="edge27_Node000019_Node000003" class="edge">
<title>Node19&#45;&gt;Node3</title>
<g id="a_edge27_Node000019_Node000003"><a xlink:title=" ">
<path fill="none" stroke="#63b8ff" d="M632.09,-226.69C628.82,-213.55 622.2,-189.53 613.38,-170.25 589.88,-118.92 520.02,-99.94 556.38,-56.75 584.57,-23.25 714.84,-14.48 780.42,-12.19"/>
<polygon fill="#63b8ff" stroke="#63b8ff" points="780.48,-15.69 790.37,-11.88 780.26,-8.69 780.48,-15.69"/>
</a>
</g>
</g>
<!-- Node19&#45;&gt;Node20 -->
<g id="edge28_Node000019_Node000020" class="edge">
<title>Node19&#45;&gt;Node20</title>
<g id="a_edge28_Node000019_Node000020"><a xlink:title=" ">
<path fill="none" stroke="#63b8ff" d="M645.46,-226.59C654.19,-218.88 666.57,-207.95 676.94,-198.79"/>
<polygon fill="#63b8ff" stroke="#63b8ff" points="679.07,-201.57 684.25,-192.33 674.44,-196.33 679.07,-201.57"/>
</a>
</g>
</g>
<!-- Node20&#45;&gt;Node3 -->
<g id="edge29_Node000020_Node000003" class="edge">
<title>Node20&#45;&gt;Node3</title>
<g id="a_edge29_Node000020_Node000003"><a xlink:title=" ">
<path fill="none" stroke="#63b8ff" d="M689.68,-169.93C675.21,-147.64 644.32,-91.99 670.38,-56.75 695.5,-22.77 745.59,-13.42 780.5,-11.25"/>
<polygon fill="#63b8ff" stroke="#63b8ff" points="780.35,-14.76 790.19,-10.84 780.05,-7.77 780.35,-14.76"/>
</a>
</g>
</g>
<!-- Node21 -->
<g id="Node000021" class="node">
<title>Node21</title>
<g id="a_Node000021"><a xlink:href="byteorder_8h.html" target="_top" xlink:title="Functions to work with different byte orders.">
<polygon fill="white" stroke="#666666" points="764.5,-134.25 692.25,-134.25 692.25,-113.5 764.5,-113.5 764.5,-134.25"/>
<text text-anchor="middle" x="728.38" y="-120.75" font-family="Helvetica,sans-Serif" font-size="10.00">byteorder.h</text>
</a>
</g>
</g>
<!-- Node20&#45;&gt;Node21 -->
<g id="edge30_Node000020_Node000021" class="edge">
<title>Node20&#45;&gt;Node21</title>
<g id="a_edge30_Node000020_Node000021"><a xlink:title=" ">
<path fill="none" stroke="#63b8ff" d="M702.1,-169.84C706.24,-162.75 711.97,-152.94 717.03,-144.29"/>
<polygon fill="#63b8ff" stroke="#63b8ff" points="719.92,-146.28 721.94,-135.89 713.87,-142.75 719.92,-146.28"/>
</a>
</g>
</g>
<!-- Node21&#45;&gt;Node3 -->
<g id="edge32_Node000021_Node000003" class="edge">
<title>Node21&#45;&gt;Node3</title>
<g id="a_edge32_Node000021_Node000003"><a xlink:title=" ">
<path fill="none" stroke="#63b8ff" d="M764.97,-117.11C788.28,-111.34 816.75,-99.92 831.38,-77.5 840.35,-63.74 835.57,-45.17 829.42,-31.22"/>
<polygon fill="#63b8ff" stroke="#63b8ff" points="832.69,-29.94 825.1,-22.55 826.42,-33.06 832.69,-29.94"/>
</a>
</g>
</g>
<!-- Node22 -->
<g id="Node000022" class="node">
<title>Node22</title>
<g id="a_Node000022"><a xlink:title=" ">
<polygon fill="#e0e0e0" stroke="#999999" points="731.75,-77.5 679,-77.5 679,-56.75 731.75,-56.75 731.75,-77.5"/>
<text text-anchor="middle" x="705.38" y="-64" font-family="Helvetica,sans-Serif" font-size="10.00">string.h</text>
</a>
</g>
</g>
<!-- Node21&#45;&gt;Node22 -->
<g id="edge31_Node000021_Node000022" class="edge">
<title>Node21&#45;&gt;Node22</title>
<g id="a_edge31_Node000021_Node000022"><a xlink:title=" ">
<path fill="none" stroke="#63b8ff" d="M724.26,-113.09C721.38,-106.24 717.44,-96.84 713.89,-88.4"/>
<polygon fill="#63b8ff" stroke="#63b8ff" points="717.14,-87.09 710.04,-79.22 710.68,-89.8 717.14,-87.09"/>
</a>
</g>
</g>
<!-- Node23 -->
<g id="Node000023" class="node">
<title>Node23</title>
<g id="a_Node000023"><a xlink:href="endian_8h.html" target="_top" xlink:title="libc header for endian conversion">
<polygon fill="white" stroke="#666666" points="623.38,-77.5 565.38,-77.5 565.38,-56.75 623.38,-56.75 623.38,-77.5"/>
<text text-anchor="middle" x="594.38" y="-64" font-family="Helvetica,sans-Serif" font-size="10.00">endian.h</text>
</a>
</g>
</g>
<!-- Node21&#45;&gt;Node23 -->
<g id="edge33_Node000021_Node000023" class="edge">
<title>Node21&#45;&gt;Node23</title>
<g id="a_edge33_Node000021_Node000023"><a xlink:title=" ">
<path fill="none" stroke="#63b8ff" d="M704.42,-113.09C683.36,-104.48 652.47,-91.86 628.77,-82.18"/>
<polygon fill="#63b8ff" stroke="#63b8ff" points="630.11,-78.94 619.53,-78.4 627.46,-85.42 630.11,-78.94"/>
</a>
</g>
</g>
<!-- Node24 -->
<g id="Node000024" class="node">
<title>Node24</title>
<g id="a_Node000024"><a xlink:href="unaligned_8h.html" target="_top" xlink:title="Unaligned but safe memory access functions.">
<polygon fill="white" stroke="#666666" points="822.88,-77.5 749.88,-77.5 749.88,-56.75 822.88,-56.75 822.88,-77.5"/>
<text text-anchor="middle" x="786.38" y="-64" font-family="Helvetica,sans-Serif" font-size="10.00">unaligned.h</text>
</a>
</g>
</g>
<!-- Node21&#45;&gt;Node24 -->
<g id="edge35_Node000021_Node000024" class="edge">
<title>Node21&#45;&gt;Node24</title>
<g id="a_edge35_Node000021_Node000024"><a xlink:title=" ">
<path fill="none" stroke="#63b8ff" d="M738.74,-113.09C746.83,-105.46 758.26,-94.67 767.9,-85.57"/>
<polygon fill="#63b8ff" stroke="#63b8ff" points="770.13,-88.28 774.99,-78.87 765.32,-83.19 770.13,-88.28"/>
</a>
</g>
</g>
<!-- Node23&#45;&gt;Node3 -->
<g id="edge34_Node000023_Node000003" class="edge">
<title>Node23&#45;&gt;Node3</title>
<g id="a_edge34_Node000023_Node000003"><a xlink:title=" ">
<path fill="none" stroke="#63b8ff" d="M623.66,-58.97C663.83,-49.15 736.07,-31.49 780.37,-20.66"/>
<polygon fill="#63b8ff" stroke="#63b8ff" points="781.18,-24.07 790.06,-18.3 779.52,-17.27 781.18,-24.07"/>
</a>
</g>
</g>
<!-- Node24&#45;&gt;Node3 -->
<g id="edge36_Node000024_Node000003" class="edge">
<title>Node24&#45;&gt;Node3</title>
<g id="a_edge36_Node000024_Node000003"><a xlink:title=" ">
<path fill="none" stroke="#63b8ff" d="M792.1,-56.34C796.24,-49.25 801.97,-39.44 807.03,-30.79"/>
<polygon fill="#63b8ff" stroke="#63b8ff" points="809.92,-32.78 811.94,-22.39 803.87,-29.25 809.92,-32.78"/>
</a>
</g>
</g>
<!-- Node25&#45;&gt;Node3 -->
<g id="edge40_Node000025_Node000003" class="edge">
<title>Node25&#45;&gt;Node3</title>
<g id="a_edge40_Node000025_Node000003"><a xlink:title=" ">
<path fill="none" stroke="#63b8ff" d="M790.83,-226.79C802.48,-218.71 817.88,-206.07 826.38,-191 856.03,-138.39 864.32,-114.72 847.38,-56.75 844.6,-47.27 839.18,-37.88 833.76,-30.13"/>
<polygon fill="#63b8ff" stroke="#63b8ff" points="836.6,-28.08 827.78,-22.21 831.02,-32.3 836.6,-28.08"/>
</a>
</g>
</g>
<!-- Node25&#45;&gt;Node7 -->
<g id="edge44_Node000025_Node000007" class="edge">
<title>Node25&#45;&gt;Node7</title>
<g id="a_edge44_Node000025_Node000007"><a xlink:title=" ">
<path fill="none" stroke="#63b8ff" d="M826.1,-228.39C829.24,-227.91 832.35,-227.45 835.38,-227 950.35,-210.03 983.05,-224.35 1094.38,-191 1135.73,-178.61 1180.25,-155.52 1207.46,-140.18"/>
<polygon fill="#63b8ff" stroke="#63b8ff" points="1209.09,-143.28 1216.03,-135.27 1205.61,-137.2 1209.09,-143.28"/>
</a>
</g>
</g>
<!-- Node25&#45;&gt;Node20 -->
<g id="edge43_Node000025_Node000020" class="edge">
<title>Node25&#45;&gt;Node20</title>
<g id="a_edge43_Node000025_Node000020"><a xlink:title=" ">
<path fill="none" stroke="#63b8ff" d="M761.25,-226.59C749.68,-218.57 733.07,-207.06 719.56,-197.69"/>
<polygon fill="#63b8ff" stroke="#63b8ff" points="721.83,-195.01 711.62,-192.19 717.85,-200.76 721.83,-195.01"/>
</a>
</g>
</g>
<!-- Node25&#45;&gt;Node21 -->
<g id="edge42_Node000025_Node000021" class="edge">
<title>Node25&#45;&gt;Node21</title>
<g id="a_edge42_Node000025_Node000021"><a xlink:title=" ">
<path fill="none" stroke="#63b8ff" d="M786.89,-226.81C801.09,-213.81 821.98,-189.94 810.38,-170.25 802.06,-156.15 787.62,-146.13 773.16,-139.15"/>
<polygon fill="#63b8ff" stroke="#63b8ff" points="774.66,-135.99 764.09,-135.2 771.86,-142.4 774.66,-135.99"/>
</a>
</g>
</g>
<!-- Node26 -->
<g id="Node000026" class="node">
<title>Node26</title>
<g id="a_Node000026"><a xlink:title=" ">
<polygon fill="#e0e0e0" stroke="#999999" points="801.38,-191 749.38,-191 749.38,-170.25 801.38,-170.25 801.38,-191"/>
<text text-anchor="middle" x="775.38" y="-177.5" font-family="Helvetica,sans-Serif" font-size="10.00">stdlib.h</text>
</a>
</g>
</g>
<!-- Node25&#45;&gt;Node26 -->
<g id="edge41_Node000025_Node000026" class="edge">
<title>Node25&#45;&gt;Node26</title>
<g id="a_edge41_Node000025_Node000026"><a xlink:title=" ">
<path fill="none" stroke="#63b8ff" d="M775.38,-226.59C775.38,-219.97 775.38,-210.97 775.38,-202.77"/>
<polygon fill="#63b8ff" stroke="#63b8ff" points="778.88,-202.84 775.38,-192.84 771.88,-202.84 778.88,-202.84"/>
</a>
</g>
</g>
<!-- Node27&#45;&gt;Node7 -->
<g id="edge47_Node000027_Node000007" class="edge">
<title>Node27&#45;&gt;Node7</title>
<g id="a_edge47_Node000027_Node000007"><a xlink:title=" ">
<path fill="none" stroke="#63b8ff" d="M1006.32,-288.2C1043.38,-282.77 1092.8,-271.42 1130.38,-247.75 1172.59,-221.16 1206.17,-171.59 1222.53,-144.23"/>
<polygon fill="#63b8ff" stroke="#63b8ff" points="1225.35,-146.34 1227.35,-135.93 1219.3,-142.82 1225.35,-146.34"/>
</a>
</g>
</g>
<!-- Node28 -->
<g id="Node000028" class="node">
<title>Node28</title>
<g id="a_Node000028"><a xlink:href="inttypes_8h.html" target="_top" xlink:title="Adds include for missing inttype definitions.">
<polygon fill="white" stroke="#666666" points="908.75,-247.75 844,-247.75 844,-227 908.75,-227 908.75,-247.75"/>
<text text-anchor="middle" x="876.38" y="-234.25" font-family="Helvetica,sans-Serif" font-size="10.00">inttypes.h</text>
</a>
</g>
</g>
<!-- Node27&#45;&gt;Node28 -->
<g id="edge46_Node000027_Node000028" class="edge">
<title>Node27&#45;&gt;Node28</title>
<g id="a_edge46_Node000027_Node000028"><a xlink:title=" ">
<path fill="none" stroke="#63b8ff" d="M939.61,-283.34C928.44,-275.4 912.46,-264.03 899.35,-254.71"/>
<polygon fill="#63b8ff" stroke="#63b8ff" points="901.43,-251.9 891.26,-248.96 897.38,-257.6 901.43,-251.9"/>
</a>
</g>
</g>
<!-- Node29 -->
<g id="Node000029" class="node">
<title>Node29</title>
<g id="a_Node000029"><a xlink:href="ethertype_8h.html" target="_top" xlink:title="Ether type definitions.">
<polygon fill="white" stroke="#666666" points="1017.88,-247.75 926.88,-247.75 926.88,-227 1017.88,-227 1017.88,-247.75"/>
<text text-anchor="middle" x="972.38" y="-234.25" font-family="Helvetica,sans-Serif" font-size="10.00">net/ethertype.h</text>
</a>
</g>
</g>
<!-- Node27&#45;&gt;Node29 -->
<g id="edge48_Node000027_Node000029" class="edge">
<title>Node27&#45;&gt;Node29</title>
<g id="a_edge48_Node000027_Node000029"><a xlink:title=" ">
<path fill="none" stroke="#63b8ff" d="M956.77,-283.34C959.12,-276.56 962.34,-267.3 965.24,-258.94"/>
<polygon fill="#63b8ff" stroke="#63b8ff" points="968.54,-260.1 968.51,-249.51 961.93,-257.81 968.54,-260.1"/>
</a>
</g>
</g>
<!-- Node30 -->
<g id="Node000030" class="node">
<title>Node30</title>
<g id="a_Node000030"><a xlink:href="protnum_8h.html" target="_top" xlink:title="Protocol number definitions.">
<polygon fill="white" stroke="#666666" points="1120.88,-247.75 1035.88,-247.75 1035.88,-227 1120.88,-227 1120.88,-247.75"/>
<text text-anchor="middle" x="1078.38" y="-234.25" font-family="Helvetica,sans-Serif" font-size="10.00">net/protnum.h</text>
</a>
</g>
</g>
<!-- Node27&#45;&gt;Node30 -->
<g id="edge49_Node000027_Node000030" class="edge">
<title>Node27&#45;&gt;Node30</title>
<g id="a_edge49_Node000027_Node000030"><a xlink:title=" ">
<path fill="none" stroke="#63b8ff" d="M975.72,-283.34C995.19,-274.81 1023.66,-262.34 1045.68,-252.69"/>
<polygon fill="#63b8ff" stroke="#63b8ff" points="1047.08,-255.9 1054.83,-248.69 1044.27,-249.49 1047.08,-255.9"/>
</a>
</g>
</g>
<!-- Node31&#45;&gt;Node3 -->
<g id="edge58_Node000031_Node000003" class="edge">
<title>Node31&#45;&gt;Node3</title>
<g id="a_edge58_Node000031_Node000003"><a xlink:title=" ">
<path fill="none" stroke="#63b8ff" d="M291,-169.88C289.59,-155.81 289.17,-129.7 302.38,-113.5 348.46,-56.96 385.5,-74.01 456.38,-56.75 572.48,-28.47 714.08,-17.23 780.52,-13.27"/>
<polygon fill="#63b8ff" stroke="#63b8ff" points="780.36,-16.79 790.14,-12.72 779.96,-9.8 780.36,-16.79"/>
</a>
</g>
</g>
<!-- Node31&#45;&gt;Node4 -->
<g id="edge56_Node000031_Node000004" class="edge">
<title>Node31&#45;&gt;Node4</title>
<g id="a_edge56_Node000031_Node000004"><a xlink:title=" ">
<path fill="none" stroke="#63b8ff" d="M304.89,-169.84C314.94,-161.97 329.29,-150.75 341.13,-141.49"/>
<polygon fill="#63b8ff" stroke="#63b8ff" points="343.06,-144.43 348.78,-135.51 338.74,-138.91 343.06,-144.43"/>
</a>
</g>
</g>
<!-- Node31&#45;&gt;Node12 -->
<g id="edge57_Node000031_Node000012" class="edge">
<title>Node31&#45;&gt;Node12</title>
<g id="a_edge57_Node000031_Node000012"><a xlink:title=" ">
<path fill="none" stroke="#63b8ff" d="M329.16,-175.35C343.84,-173.69 360.9,-171.82 376.38,-170.25 552.64,-152.42 600.82,-174.42 773.38,-134.25 824.83,-122.27 881.47,-98.23 915.19,-82.68"/>
<polygon fill="#63b8ff" stroke="#63b8ff" points="916.36,-86 923.93,-78.59 913.39,-79.66 916.36,-86"/>
</a>
</g>
</g>
<!-- Node31&#45;&gt;Node14 -->
<g id="edge55_Node000031_Node000014" class="edge">
<title>Node31&#45;&gt;Node14</title>
<g id="a_edge55_Node000031_Node000014"><a xlink:title=" ">
<path fill="none" stroke="#63b8ff" d="M324.91,-169.84C356.65,-160.29 404.84,-145.79 437.87,-135.86"/>
<polygon fill="#63b8ff" stroke="#63b8ff" points="438.85,-139.22 447.42,-132.98 436.83,-132.51 438.85,-139.22"/>
</a>
</g>
</g>
<!-- Node31&#45;&gt;Node23 -->
<g id="edge54_Node000031_Node000023" class="edge">
<title>Node31&#45;&gt;Node23</title>
<g id="a_edge54_Node000031_Node000023"><a xlink:title=" ">
<path fill="none" stroke="#63b8ff" d="M293.79,-170.23C296.53,-155.61 303.98,-127.63 322.38,-113.5 357.92,-86.19 487,-74.56 553.76,-70.28"/>
<polygon fill="#63b8ff" stroke="#63b8ff" points="553.8,-73.78 563.56,-69.68 553.37,-66.79 553.8,-73.78"/>
</a>
</g>
</g>
<!-- Node32 -->
<g id="Node000032" class="node">
<title>Node32</title>
<g id="a_Node000032"><a xlink:title=" ">
<polygon fill="#e0e0e0" stroke="#999999" points="248.5,-77.5 170.25,-77.5 170.25,-56.75 248.5,-56.75 248.5,-77.5"/>
<text text-anchor="middle" x="209.38" y="-64" font-family="Helvetica,sans-Serif" font-size="10.00">periph_cpu.h</text>
</a>
</g>
</g>
<!-- Node31&#45;&gt;Node32 -->
<g id="edge59_Node000031_Node000032" class="edge">
<title>Node31&#45;&gt;Node32</title>
<g id="a_edge59_Node000031_Node000032"><a xlink:title=" ">
<path fill="none" stroke="#63b8ff" d="M282.75,-169.95C274.1,-161.04 261.27,-147.26 251.38,-134.25 239.94,-119.22 228.55,-101.04 220.52,-87.54"/>
<polygon fill="#63b8ff" stroke="#63b8ff" points="223.71,-86.05 215.63,-79.19 217.66,-89.59 223.71,-86.05"/>
</a>
</g>
</g>
<!-- Node33 -->
<g id="Node000033" class="node">
<title>Node33</title>
<g id="a_Node000033"><a xlink:title=" ">
<polygon fill="#e0e0e0" stroke="#999999" points="152,-77.5 70.75,-77.5 70.75,-56.75 152,-56.75 152,-77.5"/>
<text text-anchor="middle" x="111.38" y="-64" font-family="Helvetica,sans-Serif" font-size="10.00">periph_conf.h</text>
</a>
</g>
</g>
<!-- Node31&#45;&gt;Node33 -->
<g id="edge60_Node000031_Node000033" class="edge">
<title>Node31&#45;&gt;Node33</title>
<g id="a_edge60_Node000031_Node000033"><a xlink:title=" ">
<path fill="none" stroke="#63b8ff" d="M276.63,-169.93C245.21,-150.57 174.48,-107 136.55,-83.63"/>
<polygon fill="#63b8ff" stroke="#63b8ff" points="138.85,-80.94 128.5,-78.68 135.18,-86.9 138.85,-80.94"/>
</a>
</g>
</g>
<!-- Node31&#45;&gt;Node34 -->
<g id="edge61_Node000031_Node000034" class="edge">
<title>Node31&#45;&gt;Node34</title>
<g id="a_edge61_Node000031_Node000034"><a xlink:title=" ">
<path fill="none" stroke="#63b8ff" d="M261.8,-169.84C234.17,-160.99 193.26,-147.89 162.71,-138.11"/>
<polygon fill="#63b8ff" stroke="#63b8ff" points="164,-134.85 153.41,-135.13 161.87,-141.51 164,-134.85"/>
</a>
</g>
</g>
<!-- Node34&#45;&gt;Node32 -->
<g id="edge63_Node000034_Node000032" class="edge">
<title>Node34&#45;&gt;Node32</title>
<g id="a_edge63_Node000034_Node000032"><a xlink:title=" ">
<path fill="none" stroke="#63b8ff" d="M137.11,-113.09C150.25,-104.91 169.22,-93.11 184.43,-83.65"/>
<polygon fill="#63b8ff" stroke="#63b8ff" points="185.85,-86.88 192.49,-78.63 182.15,-80.94 185.85,-86.88"/>
</a>
</g>
</g>
<!-- Node34&#45;&gt;Node33 -->
<g id="edge64_Node000034_Node000033" class="edge">
<title>Node34&#45;&gt;Node33</title>
<g id="a_edge64_Node000034_Node000033"><a xlink:title=" ">
<path fill="none" stroke="#63b8ff" d="M119.59,-113.09C118.36,-106.39 116.7,-97.26 115.18,-88.98"/>
<polygon fill="#63b8ff" stroke="#63b8ff" points="118.66,-88.53 113.42,-79.32 111.77,-89.78 118.66,-88.53"/>
</a>
</g>
</g>
<!-- Node35 -->
<g id="Node000035" class="node">
<title>Node35</title>
<g id="a_Node000035"><a xlink:title=" ">
<polygon fill="#e0e0e0" stroke="#999999" points="52.75,-77.5 0,-77.5 0,-56.75 52.75,-56.75 52.75,-77.5"/>
<text text-anchor="middle" x="26.38" y="-64" font-family="Helvetica,sans-Serif" font-size="10.00">limits.h</text>
</a>
</g>
</g>
<!-- Node34&#45;&gt;Node35 -->
<g id="edge62_Node000034_Node000035" class="edge">
<title>Node34&#45;&gt;Node35</title>
<g id="a_edge62_Node000034_Node000035"><a xlink:title=" ">
<path fill="none" stroke="#63b8ff" d="M104.39,-113.09C90.07,-104.83 69.33,-92.88 52.84,-83.38"/>
<polygon fill="#63b8ff" stroke="#63b8ff" points="54.94,-80.55 44.52,-78.58 51.44,-86.61 54.94,-80.55"/>
</a>
</g>
</g>
</g>
</svg>
