<?xml version="1.0" encoding="UTF-8" standalone="no"?>
<!DOCTYPE svg PUBLIC "-//W3C//DTD SVG 1.1//EN"
 "http://www.w3.org/Graphics/SVG/1.1/DTD/svg11.dtd">
<!-- Generated by graphviz version 12.1.2 (0)
 -->
<!-- Title: drivers/include/at86rf2xx.h Pages: 1 -->
<svg width="1253pt" height="426pt"
 viewBox="0.00 0.00 1252.57 426.00" xmlns="http://www.w3.org/2000/svg" xmlns:xlink="http://www.w3.org/1999/xlink">
<g id="graph0" class="graph" transform="scale(1 1) rotate(0) translate(4 422)">
<title>drivers/include/at86rf2xx.h</title>
<!-- Node1 -->
<g id="Node000001" class="node">
<title>Node1</title>
<g id="a_Node000001"><a xlink:title="Interface definition for AT86RF2xx based drivers.">
<polygon fill="#999999" stroke="#666666" points="915.96,-418 768.71,-418 768.71,-397.25 915.96,-397.25 915.96,-418"/>
<text text-anchor="middle" x="842.34" y="-404.5" font-family="Helvetica,sans-Serif" font-size="10.00">drivers/include/at86rf2xx.h</text>
</a>
</g>
</g>
<!-- Node2 -->
<g id="Node000002" class="node">
<title>Node2</title>
<g id="a_Node000002"><a xlink:title=" ">
<polygon fill="#e0e0e0" stroke="#999999" points="392.71,-20.75 339.96,-20.75 339.96,0 392.71,0 392.71,-20.75"/>
<text text-anchor="middle" x="366.34" y="-7.25" font-family="Helvetica,sans-Serif" font-size="10.00">stdint.h</text>
</a>
</g>
</g>
<!-- Node1&#45;&gt;Node2 -->
<g id="edge1_Node000001_Node000002" class="edge">
<title>Node1&#45;&gt;Node2</title>
<g id="a_edge1_Node000001_Node000002"><a xlink:title=" ">
<path fill="none" stroke="#63b8ff" d="M916.36,-398.59C1032.22,-381.46 1243.34,-329.91 1243.34,-181.62 1243.34,-181.62 1243.34,-181.62 1243.34,-122.88 1243.34,-92.3 1248.27,-75.78 1224.34,-56.75 1191.81,-30.88 565.34,-15.66 403.98,-12.16"/>
<polygon fill="#63b8ff" stroke="#63b8ff" points="404.35,-8.66 394.27,-11.95 404.2,-15.66 404.35,-8.66"/>
</a>
</g>
</g>
<!-- Node3 -->
<g id="Node000003" class="node">
<title>Node3</title>
<g id="a_Node000003"><a xlink:title=" ">
<polygon fill="#e0e0e0" stroke="#999999" points="826.84,-134.25 765.84,-134.25 765.84,-113.5 826.84,-113.5 826.84,-134.25"/>
<text text-anchor="middle" x="796.34" y="-120.75" font-family="Helvetica,sans-Serif" font-size="10.00">stdbool.h</text>
</a>
</g>
</g>
<!-- Node1&#45;&gt;Node3 -->
<g id="edge2_Node000001_Node000003" class="edge">
<title>Node1&#45;&gt;Node3</title>
<g id="a_edge2_Node000001_Node000003"><a xlink:title=" ">
<path fill="none" stroke="#63b8ff" d="M848.51,-396.9C853.93,-387.95 861.66,-374.15 866.34,-361.25 876.57,-333.01 880.34,-325.17 880.34,-295.12 880.34,-295.12 880.34,-295.12 880.34,-236.38 880.34,-195.97 844.72,-160.91 819.87,-141.36"/>
<polygon fill="#63b8ff" stroke="#63b8ff" points="822.27,-138.79 812.18,-135.56 818.06,-144.38 822.27,-138.79"/>
</a>
</g>
</g>
<!-- Node4 -->
<g id="Node000004" class="node">
<title>Node4</title>
<g id="a_Node000004"><a xlink:title=" ">
<polygon fill="#e0e0e0" stroke="#999999" points="776.71,-361.25 723.96,-361.25 723.96,-340.5 776.71,-340.5 776.71,-361.25"/>
<text text-anchor="middle" x="750.34" y="-347.75" font-family="Helvetica,sans-Serif" font-size="10.00">board.h</text>
</a>
</g>
</g>
<!-- Node1&#45;&gt;Node4 -->
<g id="edge3_Node000001_Node000004" class="edge">
<title>Node1&#45;&gt;Node4</title>
<g id="a_edge3_Node000001_Node000004"><a xlink:title=" ">
<path fill="none" stroke="#63b8ff" d="M825.89,-396.84C812.15,-388.66 792.32,-376.86 776.42,-367.4"/>
<polygon fill="#63b8ff" stroke="#63b8ff" points="778.33,-364.46 767.94,-362.35 774.75,-370.47 778.33,-364.46"/>
</a>
</g>
</g>
<!-- Node5 -->
<g id="Node000005" class="node">
<title>Node5</title>
<g id="a_Node000005"><a xlink:href="kernel__defines_8h.html" target="_top" xlink:title="Common macros and compiler attributes/pragmas configuration.">
<polygon fill="white" stroke="#666666" points="649.46,-191 553.21,-191 553.21,-170.25 649.46,-170.25 649.46,-191"/>
<text text-anchor="middle" x="601.34" y="-177.5" font-family="Helvetica,sans-Serif" font-size="10.00">kernel_defines.h</text>
</a>
</g>
</g>
<!-- Node1&#45;&gt;Node5 -->
<g id="edge4_Node000001_Node000005" class="edge">
<title>Node1&#45;&gt;Node5</title>
<g id="a_edge4_Node000001_Node000005"><a xlink:title=" ">
<path fill="none" stroke="#63b8ff" d="M844.81,-396.89C851.73,-367.1 868.03,-276.22 823.34,-227 801.99,-203.49 719.24,-191.58 661.04,-186"/>
<polygon fill="#63b8ff" stroke="#63b8ff" points="661.54,-182.53 651.27,-185.1 660.9,-189.5 661.54,-182.53"/>
</a>
</g>
</g>
<!-- Node12 -->
<g id="Node000012" class="node">
<title>Node12</title>
<g id="a_Node000012"><a xlink:href="drivers_2include_2net_2netdev_8h.html" target="_top" xlink:title="Definitions low&#45;level network driver interface.">
<polygon fill="white" stroke="#666666" points="478.71,-247.75 401.96,-247.75 401.96,-227 478.71,-227 478.71,-247.75"/>
<text text-anchor="middle" x="440.34" y="-234.25" font-family="Helvetica,sans-Serif" font-size="10.00">net/netdev.h</text>
</a>
</g>
</g>
<!-- Node1&#45;&gt;Node12 -->
<g id="edge15_Node000001_Node000012" class="edge">
<title>Node1&#45;&gt;Node12</title>
<g id="a_edge15_Node000001_Node000012"><a xlink:title=" ">
<path fill="none" stroke="#63b8ff" d="M812.84,-396.81C786.95,-388.02 748.37,-374.51 715.34,-361.25 625.37,-325.14 521.48,-276.89 471.02,-253.02"/>
<polygon fill="#63b8ff" stroke="#63b8ff" points="472.71,-249.94 462.17,-248.82 469.71,-256.27 472.71,-249.94"/>
</a>
</g>
</g>
<!-- Node16 -->
<g id="Node000016" class="node">
<title>Node16</title>
<g id="a_Node000016"><a xlink:href="drivers_2include_2net_2netdev_2ieee802154_8h.html" target="_top" xlink:title="Definitions for netdev common IEEE 802.15.4 code.">
<polygon fill="white" stroke="#666666" points="459.09,-361.25 321.59,-361.25 321.59,-340.5 459.09,-340.5 459.09,-361.25"/>
<text text-anchor="middle" x="390.34" y="-347.75" font-family="Helvetica,sans-Serif" font-size="10.00">net/netdev/ieee802154.h</text>
</a>
</g>
</g>
<!-- Node1&#45;&gt;Node16 -->
<g id="edge23_Node000001_Node000016" class="edge">
<title>Node1&#45;&gt;Node16</title>
<g id="a_edge23_Node000001_Node000016"><a xlink:title=" ">
<path fill="none" stroke="#63b8ff" d="M768.46,-397.68C686.62,-387.76 555.1,-371.83 470.73,-361.61"/>
<polygon fill="#63b8ff" stroke="#63b8ff" points="471.25,-358.15 460.9,-360.42 470.41,-365.1 471.25,-358.15"/>
</a>
</g>
</g>
<!-- Node26 -->
<g id="Node000026" class="node">
<title>Node26</title>
<g id="a_Node000026"><a xlink:href="nettype_8h.html" target="_top" xlink:title="Protocol type definitions.">
<polygon fill="white" stroke="#666666" points="707.96,-304.5 602.71,-304.5 602.71,-283.75 707.96,-283.75 707.96,-304.5"/>
<text text-anchor="middle" x="655.34" y="-291" font-family="Helvetica,sans-Serif" font-size="10.00">net/gnrc/nettype.h</text>
</a>
</g>
</g>
<!-- Node1&#45;&gt;Node26 -->
<g id="edge51_Node000001_Node000026" class="edge">
<title>Node1&#45;&gt;Node26</title>
<g id="a_edge51_Node000001_Node000026"><a xlink:title=" ">
<path fill="none" stroke="#63b8ff" d="M836.52,-397.13C827.33,-382.89 808.14,-356.02 785.34,-340.5 763.59,-325.7 736.51,-315.23 712.7,-308.12"/>
<polygon fill="#63b8ff" stroke="#63b8ff" points="713.71,-304.76 703.13,-305.4 711.79,-311.5 713.71,-304.76"/>
</a>
</g>
</g>
<!-- Node30 -->
<g id="Node000030" class="node">
<title>Node30</title>
<g id="a_Node000030"><a xlink:href="spi_8h.html" target="_top" xlink:title="Low&#45;level SPI peripheral driver interface definition.">
<polygon fill="white" stroke="#666666" points="997.84,-191 924.84,-191 924.84,-170.25 997.84,-170.25 997.84,-191"/>
<text text-anchor="middle" x="961.34" y="-177.5" font-family="Helvetica,sans-Serif" font-size="10.00">periph/spi.h</text>
</a>
</g>
</g>
<!-- Node1&#45;&gt;Node30 -->
<g id="edge52_Node000001_Node000030" class="edge">
<title>Node1&#45;&gt;Node30</title>
<g id="a_edge52_Node000001_Node000030"><a xlink:title=" ">
<path fill="none" stroke="#63b8ff" d="M856.91,-397C868.45,-388.72 884.25,-375.83 894.34,-361.25 929.75,-310.05 949.18,-237.79 957.08,-202.56"/>
<polygon fill="#63b8ff" stroke="#63b8ff" points="960.49,-203.36 959.16,-192.85 953.64,-201.9 960.49,-203.36"/>
</a>
</g>
</g>
<!-- Node33 -->
<g id="Node000033" class="node">
<title>Node33</title>
<g id="a_Node000033"><a xlink:href="drivers_2include_2periph_2gpio_8h.html" target="_top" xlink:title="Low&#45;level GPIO peripheral driver interface definitions.">
<polygon fill="white" stroke="#666666" points="1183.21,-134.25 1103.46,-134.25 1103.46,-113.5 1183.21,-113.5 1183.21,-134.25"/>
<text text-anchor="middle" x="1143.34" y="-120.75" font-family="Helvetica,sans-Serif" font-size="10.00">periph/gpio.h</text>
</a>
</g>
</g>
<!-- Node1&#45;&gt;Node33 -->
<g id="edge64_Node000001_Node000033" class="edge">
<title>Node1&#45;&gt;Node33</title>
<g id="a_edge64_Node000001_Node000033"><a xlink:title=" ">
<path fill="none" stroke="#63b8ff" d="M916.23,-399.05C1022.37,-386.08 1205.34,-355.04 1205.34,-295.12 1205.34,-295.12 1205.34,-295.12 1205.34,-236.38 1205.34,-199.69 1179.38,-163.8 1161.06,-143.03"/>
<polygon fill="#63b8ff" stroke="#63b8ff" points="1163.67,-140.7 1154.33,-135.72 1158.53,-145.45 1163.67,-140.7"/>
</a>
</g>
</g>
<!-- Node6 -->
<g id="Node000006" class="node">
<title>Node6</title>
<g id="a_Node000006"><a xlink:href="modules_8h.html" target="_top" xlink:title="Common macros and compiler attributes/pragmas configuration.">
<polygon fill="white" stroke="#666666" points="442.84,-134.25 375.84,-134.25 375.84,-113.5 442.84,-113.5 442.84,-134.25"/>
<text text-anchor="middle" x="409.34" y="-120.75" font-family="Helvetica,sans-Serif" font-size="10.00">modules.h</text>
</a>
</g>
</g>
<!-- Node5&#45;&gt;Node6 -->
<g id="edge5_Node000005_Node000006" class="edge">
<title>Node5&#45;&gt;Node6</title>
<g id="a_edge5_Node000005_Node000006"><a xlink:title=" ">
<path fill="none" stroke="#63b8ff" d="M567.01,-169.84C535.38,-160.82 488.26,-147.38 453.76,-137.54"/>
<polygon fill="#63b8ff" stroke="#63b8ff" points="455.08,-134.28 444.5,-134.9 453.16,-141.01 455.08,-134.28"/>
</a>
</g>
</g>
<!-- Node7 -->
<g id="Node000007" class="node">
<title>Node7</title>
<g id="a_Node000007"><a xlink:href="riot__version_8h.html" target="_top" xlink:title="Common macros and compiler attributes/pragmas configuration.">
<polygon fill="white" stroke="#666666" points="658.71,-134.25 575.96,-134.25 575.96,-113.5 658.71,-113.5 658.71,-134.25"/>
<text text-anchor="middle" x="617.34" y="-120.75" font-family="Helvetica,sans-Serif" font-size="10.00">riot_version.h</text>
</a>
</g>
</g>
<!-- Node5&#45;&gt;Node7 -->
<g id="edge6_Node000005_Node000007" class="edge">
<title>Node5&#45;&gt;Node7</title>
<g id="a_edge6_Node000005_Node000007"><a xlink:title=" ">
<path fill="none" stroke="#63b8ff" d="M604.2,-169.84C606.18,-163.06 608.89,-153.8 611.33,-145.44"/>
<polygon fill="#63b8ff" stroke="#63b8ff" points="614.63,-146.61 614.08,-136.03 607.91,-144.65 614.63,-146.61"/>
</a>
</g>
</g>
<!-- Node8 -->
<g id="Node000008" class="node">
<title>Node8</title>
<g id="a_Node000008"><a xlink:href="compiler__hints_8h.html" target="_top" xlink:title="Common macros and compiler attributes/pragmas configuration.">
<polygon fill="white" stroke="#666666" points="557.84,-134.25 460.84,-134.25 460.84,-113.5 557.84,-113.5 557.84,-134.25"/>
<text text-anchor="middle" x="509.34" y="-120.75" font-family="Helvetica,sans-Serif" font-size="10.00">compiler_hints.h</text>
</a>
</g>
</g>
<!-- Node5&#45;&gt;Node8 -->
<g id="edge8_Node000005_Node000008" class="edge">
<title>Node5&#45;&gt;Node8</title>
<g id="a_edge8_Node000005_Node000008"><a xlink:title=" ">
<path fill="none" stroke="#63b8ff" d="M584.89,-169.84C571.15,-161.66 551.32,-149.86 535.42,-140.4"/>
<polygon fill="#63b8ff" stroke="#63b8ff" points="537.33,-137.46 526.94,-135.35 533.75,-143.47 537.33,-137.46"/>
</a>
</g>
</g>
<!-- Node10 -->
<g id="Node000010" class="node">
<title>Node10</title>
<g id="a_Node000010"><a xlink:href="container_8h.html" target="_top" xlink:title="Common macros and compiler attributes/pragmas configuration.">
<polygon fill="white" stroke="#666666" points="747.71,-134.25 676.96,-134.25 676.96,-113.5 747.71,-113.5 747.71,-134.25"/>
<text text-anchor="middle" x="712.34" y="-120.75" font-family="Helvetica,sans-Serif" font-size="10.00">container.h</text>
</a>
</g>
</g>
<!-- Node5&#45;&gt;Node10 -->
<g id="edge12_Node000005_Node000010" class="edge">
<title>Node5&#45;&gt;Node10</title>
<g id="a_edge12_Node000005_Node000010"><a xlink:title=" ">
<path fill="none" stroke="#63b8ff" d="M621.18,-169.84C638.23,-161.43 663.06,-149.18 682.5,-139.59"/>
<polygon fill="#63b8ff" stroke="#63b8ff" points="683.89,-142.81 691.31,-135.25 680.79,-136.53 683.89,-142.81"/>
</a>
</g>
</g>
<!-- Node7&#45;&gt;Node2 -->
<g id="edge7_Node000007_Node000002" class="edge">
<title>Node7&#45;&gt;Node2</title>
<g id="a_edge7_Node000007_Node000002"><a xlink:title=" ">
<path fill="none" stroke="#63b8ff" d="M594.27,-113.03C573.67,-104.12 542.75,-90.44 516.34,-77.5 498.71,-68.86 495.12,-65.09 477.34,-56.75 452.83,-45.26 424.58,-33.73 402.71,-25.17"/>
<polygon fill="#63b8ff" stroke="#63b8ff" points="404.23,-22.01 393.64,-21.65 401.69,-28.53 404.23,-22.01"/>
</a>
</g>
</g>
<!-- Node8&#45;&gt;Node2 -->
<g id="edge11_Node000008_Node000002" class="edge">
<title>Node8&#45;&gt;Node2</title>
<g id="a_edge11_Node000008_Node000002"><a xlink:title=" ">
<path fill="none" stroke="#63b8ff" d="M471.57,-113.05C449.97,-105.94 423.45,-94.56 404.34,-77.5 390.31,-64.98 380.15,-46 373.88,-31.58"/>
<polygon fill="#63b8ff" stroke="#63b8ff" points="377.25,-30.57 370.26,-22.61 370.76,-33.19 377.25,-30.57"/>
</a>
</g>
</g>
<!-- Node9 -->
<g id="Node000009" class="node">
<title>Node9</title>
<g id="a_Node000009"><a xlink:href="assert_8h.html" target="_top" xlink:title="POSIX.1&#45;2008 compliant version of the assert macro.">
<polygon fill="white" stroke="#666666" points="468.84,-77.5 413.84,-77.5 413.84,-56.75 468.84,-56.75 468.84,-77.5"/>
<text text-anchor="middle" x="441.34" y="-64" font-family="Helvetica,sans-Serif" font-size="10.00">assert.h</text>
</a>
</g>
</g>
<!-- Node8&#45;&gt;Node9 -->
<g id="edge9_Node000008_Node000009" class="edge">
<title>Node8&#45;&gt;Node9</title>
<g id="a_edge9_Node000008_Node000009"><a xlink:title=" ">
<path fill="none" stroke="#63b8ff" d="M497.18,-113.09C487.51,-105.3 473.75,-94.22 462.31,-85.01"/>
<polygon fill="#63b8ff" stroke="#63b8ff" points="464.55,-82.32 454.57,-78.78 460.16,-87.78 464.55,-82.32"/>
</a>
</g>
</g>
<!-- Node9&#45;&gt;Node2 -->
<g id="edge10_Node000009_Node000002" class="edge">
<title>Node9&#45;&gt;Node2</title>
<g id="a_edge10_Node000009_Node000002"><a xlink:title=" ">
<path fill="none" stroke="#63b8ff" d="M427.93,-56.34C417.05,-48.4 401.48,-37.03 388.72,-27.71"/>
<polygon fill="#63b8ff" stroke="#63b8ff" points="390.99,-25.04 380.85,-21.97 386.87,-30.69 390.99,-25.04"/>
</a>
</g>
</g>
<!-- Node10&#45;&gt;Node2 -->
<g id="edge14_Node000010_Node000002" class="edge">
<title>Node10&#45;&gt;Node2</title>
<g id="a_edge14_Node000010_Node000002"><a xlink:title=" ">
<path fill="none" stroke="#63b8ff" d="M698.25,-113.22C676.49,-98.77 632.99,-71.63 592.34,-56.75 528.55,-33.4 450.01,-21.07 404.31,-15.41"/>
<polygon fill="#63b8ff" stroke="#63b8ff" points="405,-11.96 394.66,-14.26 404.17,-18.92 405,-11.96"/>
</a>
</g>
</g>
<!-- Node11 -->
<g id="Node000011" class="node">
<title>Node11</title>
<g id="a_Node000011"><a xlink:title=" ">
<polygon fill="#e0e0e0" stroke="#999999" points="788.84,-77.5 733.84,-77.5 733.84,-56.75 788.84,-56.75 788.84,-77.5"/>
<text text-anchor="middle" x="761.34" y="-64" font-family="Helvetica,sans-Serif" font-size="10.00">stddef.h</text>
</a>
</g>
</g>
<!-- Node10&#45;&gt;Node11 -->
<g id="edge13_Node000010_Node000011" class="edge">
<title>Node10&#45;&gt;Node11</title>
<g id="a_edge13_Node000010_Node000011"><a xlink:title=" ">
<path fill="none" stroke="#63b8ff" d="M721.1,-113.09C727.79,-105.61 737.19,-95.11 745.23,-86.13"/>
<polygon fill="#63b8ff" stroke="#63b8ff" points="747.58,-88.74 751.64,-78.96 742.37,-84.07 747.58,-88.74"/>
</a>
</g>
</g>
<!-- Node12&#45;&gt;Node2 -->
<g id="edge16_Node000012_Node000002" class="edge">
<title>Node12&#45;&gt;Node2</title>
<g id="a_edge16_Node000012_Node000002"><a xlink:title=" ">
<path fill="none" stroke="#63b8ff" d="M431.97,-226.52C414.05,-205.19 373.06,-154.97 366.34,-134.25 355.19,-99.86 358.8,-57.16 362.52,-32.22"/>
<polygon fill="#63b8ff" stroke="#63b8ff" points="365.96,-32.86 364.14,-22.42 359.05,-31.72 365.96,-32.86"/>
</a>
</g>
</g>
<!-- Node12&#45;&gt;Node5 -->
<g id="edge22_Node000012_Node000005" class="edge">
<title>Node12&#45;&gt;Node5</title>
<g id="a_edge22_Node000012_Node000005"><a xlink:title=" ">
<path fill="none" stroke="#63b8ff" d="M469.12,-226.59C494.91,-217.82 532.99,-204.87 561.66,-195.12"/>
<polygon fill="#63b8ff" stroke="#63b8ff" points="562.76,-198.44 571.1,-191.91 560.51,-191.81 562.76,-198.44"/>
</a>
</g>
</g>
<!-- Node13 -->
<g id="Node000013" class="node">
<title>Node13</title>
<g id="a_Node000013"><a xlink:href="errno_8h.html" target="_top" xlink:title=" ">
<polygon fill="white" stroke="#666666" points="895.59,-134.25 845.09,-134.25 845.09,-113.5 895.59,-113.5 895.59,-134.25"/>
<text text-anchor="middle" x="870.34" y="-120.75" font-family="Helvetica,sans-Serif" font-size="10.00">errno.h</text>
</a>
</g>
</g>
<!-- Node12&#45;&gt;Node13 -->
<g id="edge17_Node000012_Node000013" class="edge">
<title>Node12&#45;&gt;Node13</title>
<g id="a_edge17_Node000012_Node000013"><a xlink:title=" ">
<path fill="none" stroke="#63b8ff" d="M479.19,-229.47C523,-221.41 596.22,-207.11 658.34,-191 720.73,-174.82 792.04,-151.57 834.01,-137.39"/>
<polygon fill="#63b8ff" stroke="#63b8ff" points="835.01,-140.75 843.36,-134.22 832.76,-134.12 835.01,-140.75"/>
</a>
</g>
</g>
<!-- Node14 -->
<g id="Node000014" class="node">
<title>Node14</title>
<g id="a_Node000014"><a xlink:href="iolist_8h.html" target="_top" xlink:title="iolist scatter / gather IO">
<polygon fill="white" stroke="#666666" points="480.84,-191 431.84,-191 431.84,-170.25 480.84,-170.25 480.84,-191"/>
<text text-anchor="middle" x="456.34" y="-177.5" font-family="Helvetica,sans-Serif" font-size="10.00">iolist.h</text>
</a>
</g>
</g>
<!-- Node12&#45;&gt;Node14 -->
<g id="edge18_Node000012_Node000014" class="edge">
<title>Node12&#45;&gt;Node14</title>
<g id="a_edge18_Node000012_Node000014"><a xlink:title=" ">
<path fill="none" stroke="#63b8ff" d="M443.2,-226.59C445.18,-219.81 447.89,-210.55 450.33,-202.19"/>
<polygon fill="#63b8ff" stroke="#63b8ff" points="453.63,-203.36 453.08,-192.78 446.91,-201.4 453.63,-203.36"/>
</a>
</g>
</g>
<!-- Node15 -->
<g id="Node000015" class="node">
<title>Node15</title>
<g id="a_Node000015"><a xlink:href="netopt_8h.html" target="_top" xlink:title="Definition of global configuration options.">
<polygon fill="white" stroke="#666666" points="374.96,-191 299.71,-191 299.71,-170.25 374.96,-170.25 374.96,-191"/>
<text text-anchor="middle" x="337.34" y="-177.5" font-family="Helvetica,sans-Serif" font-size="10.00">net/netopt.h</text>
</a>
</g>
</g>
<!-- Node12&#45;&gt;Node15 -->
<g id="edge19_Node000012_Node000015" class="edge">
<title>Node12&#45;&gt;Node15</title>
<g id="a_edge19_Node000012_Node000015"><a xlink:title=" ">
<path fill="none" stroke="#63b8ff" d="M421.92,-226.59C406.25,-218.26 383.49,-206.16 365.53,-196.61"/>
<polygon fill="#63b8ff" stroke="#63b8ff" points="367.4,-193.64 356.93,-192.04 364.12,-199.82 367.4,-193.64"/>
</a>
</g>
</g>
<!-- Node15&#45;&gt;Node2 -->
<g id="edge20_Node000015_Node000002" class="edge">
<title>Node15&#45;&gt;Node2</title>
<g id="a_edge20_Node000015_Node000002"><a xlink:title=" ">
<path fill="none" stroke="#63b8ff" d="M334.8,-169.75C329.81,-148.47 320.27,-96.94 333.34,-56.75 336.55,-46.87 342.81,-37.35 349.03,-29.6"/>
<polygon fill="#63b8ff" stroke="#63b8ff" points="351.48,-32.12 355.38,-22.27 346.19,-27.53 351.48,-32.12"/>
</a>
</g>
</g>
<!-- Node15&#45;&gt;Node3 -->
<g id="edge21_Node000015_Node000003" class="edge">
<title>Node15&#45;&gt;Node3</title>
<g id="a_edge21_Node000015_Node000003"><a xlink:title=" ">
<path fill="none" stroke="#63b8ff" d="M375.42,-175.4C390.08,-173.78 406.99,-171.92 422.34,-170.25 567.14,-154.46 607.22,-159.09 754.17,-134.43"/>
<polygon fill="#63b8ff" stroke="#63b8ff" points="754.64,-137.9 763.91,-132.77 753.47,-131 754.64,-137.9"/>
</a>
</g>
</g>
<!-- Node16&#45;&gt;Node12 -->
<g id="edge50_Node000016_Node000012" class="edge">
<title>Node16&#45;&gt;Node12</title>
<g id="a_edge50_Node000016_Node000012"><a xlink:title=" ">
<path fill="none" stroke="#63b8ff" d="M394.6,-340.37C402.68,-322.36 420.38,-282.89 431.23,-258.68"/>
<polygon fill="#63b8ff" stroke="#63b8ff" points="434.43,-260.11 435.32,-249.56 428.04,-257.25 434.43,-260.11"/>
</a>
</g>
</g>
<!-- Node16&#45;&gt;Node15 -->
<g id="edge49_Node000016_Node000015" class="edge">
<title>Node16&#45;&gt;Node15</title>
<g id="a_edge49_Node000016_Node000015"><a xlink:title=" ">
<path fill="none" stroke="#63b8ff" d="M387.34,-340.35C379,-313.87 355.39,-238.93 343.85,-202.3"/>
<polygon fill="#63b8ff" stroke="#63b8ff" points="347.24,-201.4 340.89,-192.91 340.56,-203.5 347.24,-201.4"/>
</a>
</g>
</g>
<!-- Node17 -->
<g id="Node000017" class="node">
<title>Node17</title>
<g id="a_Node000017"><a xlink:href="eui__provider_8h.html" target="_top" xlink:title="EUI&#45;48 and EUI&#45;64 address provider.">
<polygon fill="white" stroke="#666666" points="327.59,-304.5 223.09,-304.5 223.09,-283.75 327.59,-283.75 327.59,-304.5"/>
<text text-anchor="middle" x="275.34" y="-291" font-family="Helvetica,sans-Serif" font-size="10.00">net/eui_provider.h</text>
</a>
</g>
</g>
<!-- Node16&#45;&gt;Node17 -->
<g id="edge24_Node000016_Node000017" class="edge">
<title>Node16&#45;&gt;Node17</title>
<g id="a_edge24_Node000016_Node000017"><a xlink:title=" ">
<path fill="none" stroke="#63b8ff" d="M369.78,-340.09C352.04,-331.64 326.15,-319.32 305.97,-309.71"/>
<polygon fill="#63b8ff" stroke="#63b8ff" points="307.62,-306.62 297.09,-305.48 304.61,-312.94 307.62,-306.62"/>
</a>
</g>
</g>
<!-- Node24 -->
<g id="Node000024" class="node">
<title>Node24</title>
<g id="a_Node000024"><a xlink:href="sys_2include_2net_2ieee802154_8h.html" target="_top" xlink:title="IEEE 802.15.4 header definitions.">
<polygon fill="white" stroke="#666666" points="152.71,-247.75 51.96,-247.75 51.96,-227 152.71,-227 152.71,-247.75"/>
<text text-anchor="middle" x="102.34" y="-234.25" font-family="Helvetica,sans-Serif" font-size="10.00">net/ieee802154.h</text>
</a>
</g>
</g>
<!-- Node16&#45;&gt;Node24 -->
<g id="edge38_Node000016_Node000024" class="edge">
<title>Node16&#45;&gt;Node24</title>
<g id="a_edge38_Node000016_Node000024"><a xlink:title=" ">
<path fill="none" stroke="#63b8ff" d="M336.32,-340.06C300.83,-332.62 253.84,-320.87 214.34,-304.5 181.74,-290.99 147.21,-269.34 125.25,-254.52"/>
<polygon fill="#63b8ff" stroke="#63b8ff" points="127.3,-251.67 117.07,-248.9 123.34,-257.45 127.3,-251.67"/>
</a>
</g>
</g>
<!-- Node16&#45;&gt;Node26 -->
<g id="edge44_Node000016_Node000026" class="edge">
<title>Node16&#45;&gt;Node26</title>
<g id="a_edge44_Node000016_Node000026"><a xlink:title=" ">
<path fill="none" stroke="#63b8ff" d="M438.02,-340.02C482.44,-330.85 548.81,-317.14 596.5,-307.28"/>
<polygon fill="#63b8ff" stroke="#63b8ff" points="597.03,-310.75 606.11,-305.3 595.61,-303.89 597.03,-310.75"/>
</a>
</g>
</g>
<!-- Node17&#45;&gt;Node12 -->
<g id="edge37_Node000017_Node000012" class="edge">
<title>Node17&#45;&gt;Node12</title>
<g id="a_edge37_Node000017_Node000012"><a xlink:title=" ">
<path fill="none" stroke="#63b8ff" d="M304.84,-283.34C331.39,-274.53 370.63,-261.5 400.07,-251.74"/>
<polygon fill="#63b8ff" stroke="#63b8ff" points="400.99,-255.12 409.38,-248.65 398.79,-248.47 400.99,-255.12"/>
</a>
</g>
</g>
<!-- Node18 -->
<g id="Node000018" class="node">
<title>Node18</title>
<g id="a_Node000018"><a xlink:href="eui48_8h.html" target="_top" xlink:title="Definition and IPv6 IID conversion for IEEE EUI&#45;48 identifiers.">
<polygon fill="white" stroke="#666666" points="306.71,-247.75 235.96,-247.75 235.96,-227 306.71,-227 306.71,-247.75"/>
<text text-anchor="middle" x="271.34" y="-234.25" font-family="Helvetica,sans-Serif" font-size="10.00">net/eui48.h</text>
</a>
</g>
</g>
<!-- Node17&#45;&gt;Node18 -->
<g id="edge25_Node000017_Node000018" class="edge">
<title>Node17&#45;&gt;Node18</title>
<g id="a_edge25_Node000017_Node000018"><a xlink:title=" ">
<path fill="none" stroke="#63b8ff" d="M274.62,-283.34C274.14,-276.72 273.48,-267.72 272.88,-259.52"/>
<polygon fill="#63b8ff" stroke="#63b8ff" points="276.38,-259.31 272.16,-249.59 269.4,-259.82 276.38,-259.31"/>
</a>
</g>
</g>
<!-- Node19 -->
<g id="Node000019" class="node">
<title>Node19</title>
<g id="a_Node000019"><a xlink:href="eui64_8h.html" target="_top" xlink:title="EUI&#45;64 data type definition.">
<polygon fill="white" stroke="#666666" points="243.71,-191 172.96,-191 172.96,-170.25 243.71,-170.25 243.71,-191"/>
<text text-anchor="middle" x="208.34" y="-177.5" font-family="Helvetica,sans-Serif" font-size="10.00">net/eui64.h</text>
</a>
</g>
</g>
<!-- Node17&#45;&gt;Node19 -->
<g id="edge36_Node000017_Node000019" class="edge">
<title>Node17&#45;&gt;Node19</title>
<g id="a_edge36_Node000017_Node000019"><a xlink:title=" ">
<path fill="none" stroke="#63b8ff" d="M261.63,-283.45C250.83,-275.15 236.16,-262.25 227.34,-247.75 218.88,-233.84 214.04,-216 211.37,-202.36"/>
<polygon fill="#63b8ff" stroke="#63b8ff" points="214.86,-202.01 209.73,-192.73 207.96,-203.18 214.86,-202.01"/>
</a>
</g>
</g>
<!-- Node18&#45;&gt;Node2 -->
<g id="edge26_Node000018_Node000002" class="edge">
<title>Node18&#45;&gt;Node2</title>
<g id="a_edge26_Node000018_Node000002"><a xlink:title=" ">
<path fill="none" stroke="#63b8ff" d="M272.67,-226.82C276.86,-198.99 291.54,-116.2 325.34,-56.75 331.06,-46.69 339.34,-36.97 346.96,-29.13"/>
<polygon fill="#63b8ff" stroke="#63b8ff" points="349.34,-31.7 354.04,-22.21 344.44,-26.7 349.34,-31.7"/>
</a>
</g>
</g>
<!-- Node18&#45;&gt;Node19 -->
<g id="edge27_Node000018_Node000019" class="edge">
<title>Node18&#45;&gt;Node19</title>
<g id="a_edge27_Node000018_Node000019"><a xlink:title=" ">
<path fill="none" stroke="#63b8ff" d="M260.08,-226.59C251.21,-218.88 238.63,-207.95 228.09,-198.79"/>
<polygon fill="#63b8ff" stroke="#63b8ff" points="230.49,-196.24 220.65,-192.32 225.9,-201.52 230.49,-196.24"/>
</a>
</g>
</g>
<!-- Node19&#45;&gt;Node2 -->
<g id="edge28_Node000019_Node000002" class="edge">
<title>Node19&#45;&gt;Node2</title>
<g id="a_edge28_Node000019_Node000002"><a xlink:title=" ">
<path fill="none" stroke="#63b8ff" d="M209.61,-169.94C213.1,-147.2 224.78,-89.8 257.34,-56.75 276.62,-37.17 305.6,-25.66 328.83,-19.13"/>
<polygon fill="#63b8ff" stroke="#63b8ff" points="329.44,-22.59 338.24,-16.69 327.69,-15.81 329.44,-22.59"/>
</a>
</g>
</g>
<!-- Node20 -->
<g id="Node000020" class="node">
<title>Node20</title>
<g id="a_Node000020"><a xlink:href="byteorder_8h.html" target="_top" xlink:title="Functions to work with different byte orders.">
<polygon fill="white" stroke="#666666" points="183.46,-134.25 111.21,-134.25 111.21,-113.5 183.46,-113.5 183.46,-134.25"/>
<text text-anchor="middle" x="147.34" y="-120.75" font-family="Helvetica,sans-Serif" font-size="10.00">byteorder.h</text>
</a>
</g>
</g>
<!-- Node19&#45;&gt;Node20 -->
<g id="edge29_Node000019_Node000020" class="edge">
<title>Node19&#45;&gt;Node20</title>
<g id="a_edge29_Node000019_Node000020"><a xlink:title=" ">
<path fill="none" stroke="#63b8ff" d="M197.43,-169.84C188.85,-162.13 176.66,-151.2 166.46,-142.04"/>
<polygon fill="#63b8ff" stroke="#63b8ff" points="169.06,-139.66 159.28,-135.59 164.38,-144.87 169.06,-139.66"/>
</a>
</g>
</g>
<!-- Node20&#45;&gt;Node2 -->
<g id="edge31_Node000020_Node000002" class="edge">
<title>Node20&#45;&gt;Node2</title>
<g id="a_edge31_Node000020_Node000002"><a xlink:title=" ">
<path fill="none" stroke="#63b8ff" d="M143.24,-113.09C138.06,-98.96 131.26,-72.77 144.34,-56.75 167.1,-28.87 270.74,-17.66 328.02,-13.54"/>
<polygon fill="#63b8ff" stroke="#63b8ff" points="328.24,-17.03 337.98,-12.86 327.76,-10.05 328.24,-17.03"/>
</a>
</g>
</g>
<!-- Node21 -->
<g id="Node000021" class="node">
<title>Node21</title>
<g id="a_Node000021"><a xlink:title=" ">
<polygon fill="#e0e0e0" stroke="#999999" points="205.71,-77.5 152.96,-77.5 152.96,-56.75 205.71,-56.75 205.71,-77.5"/>
<text text-anchor="middle" x="179.34" y="-64" font-family="Helvetica,sans-Serif" font-size="10.00">string.h</text>
</a>
</g>
</g>
<!-- Node20&#45;&gt;Node21 -->
<g id="edge30_Node000020_Node000021" class="edge">
<title>Node20&#45;&gt;Node21</title>
<g id="a_edge30_Node000020_Node000021"><a xlink:title=" ">
<path fill="none" stroke="#63b8ff" d="M153.06,-113.09C157.2,-106 162.93,-96.19 167.99,-87.54"/>
<polygon fill="#63b8ff" stroke="#63b8ff" points="170.88,-89.53 172.9,-79.14 164.84,-86 170.88,-89.53"/>
</a>
</g>
</g>
<!-- Node22 -->
<g id="Node000022" class="node">
<title>Node22</title>
<g id="a_Node000022"><a xlink:href="endian_8h.html" target="_top" xlink:title="libc header for endian conversion">
<polygon fill="white" stroke="#666666" points="583.34,-77.5 525.34,-77.5 525.34,-56.75 583.34,-56.75 583.34,-77.5"/>
<text text-anchor="middle" x="554.34" y="-64" font-family="Helvetica,sans-Serif" font-size="10.00">endian.h</text>
</a>
</g>
</g>
<!-- Node20&#45;&gt;Node22 -->
<g id="edge32_Node000020_Node000022" class="edge">
<title>Node20&#45;&gt;Node22</title>
<g id="a_edge32_Node000020_Node000022"><a xlink:title=" ">
<path fill="none" stroke="#63b8ff" d="M183.82,-117.97C259.88,-107.74 434.91,-84.19 514.11,-73.54"/>
<polygon fill="#63b8ff" stroke="#63b8ff" points="514.13,-77.07 523.58,-72.26 513.2,-70.13 514.13,-77.07"/>
</a>
</g>
</g>
<!-- Node23 -->
<g id="Node000023" class="node">
<title>Node23</title>
<g id="a_Node000023"><a xlink:href="unaligned_8h.html" target="_top" xlink:title="Unaligned but safe memory access functions.">
<polygon fill="white" stroke="#666666" points="96.84,-77.5 23.84,-77.5 23.84,-56.75 96.84,-56.75 96.84,-77.5"/>
<text text-anchor="middle" x="60.34" y="-64" font-family="Helvetica,sans-Serif" font-size="10.00">unaligned.h</text>
</a>
</g>
</g>
<!-- Node20&#45;&gt;Node23 -->
<g id="edge34_Node000020_Node000023" class="edge">
<title>Node20&#45;&gt;Node23</title>
<g id="a_edge34_Node000020_Node000023"><a xlink:title=" ">
<path fill="none" stroke="#63b8ff" d="M131.78,-113.09C118.92,-104.99 100.4,-93.33 85.43,-83.92"/>
<polygon fill="#63b8ff" stroke="#63b8ff" points="87.37,-81 77.04,-78.63 83.64,-86.92 87.37,-81"/>
</a>
</g>
</g>
<!-- Node22&#45;&gt;Node2 -->
<g id="edge33_Node000022_Node000002" class="edge">
<title>Node22&#45;&gt;Node2</title>
<g id="a_edge33_Node000022_Node000002"><a xlink:title=" ">
<path fill="none" stroke="#63b8ff" d="M524.96,-57.57C492.35,-48.07 439.61,-32.71 403.99,-22.34"/>
<polygon fill="#63b8ff" stroke="#63b8ff" points="405.11,-19.02 394.53,-19.58 403.15,-25.74 405.11,-19.02"/>
</a>
</g>
</g>
<!-- Node23&#45;&gt;Node2 -->
<g id="edge35_Node000023_Node000002" class="edge">
<title>Node23&#45;&gt;Node2</title>
<g id="a_edge35_Node000023_Node000002"><a xlink:title=" ">
<path fill="none" stroke="#63b8ff" d="M97.11,-59.34C101.89,-58.46 106.73,-57.58 111.34,-56.75 188.35,-42.82 278.51,-26.86 328.35,-18.07"/>
<polygon fill="#63b8ff" stroke="#63b8ff" points="328.8,-21.54 338.04,-16.36 327.58,-14.65 328.8,-21.54"/>
</a>
</g>
</g>
<!-- Node24&#45;&gt;Node2 -->
<g id="edge39_Node000024_Node000002" class="edge">
<title>Node24&#45;&gt;Node2</title>
<g id="a_edge39_Node000024_Node000002"><a xlink:title=" ">
<path fill="none" stroke="#63b8ff" d="M90.65,-226.78C57.11,-198.12 -34.05,-111.77 14.34,-56.75 34.84,-33.44 241.19,-18.71 328.09,-13.5"/>
<polygon fill="#63b8ff" stroke="#63b8ff" points="328.23,-17 338.01,-12.91 327.82,-10.01 328.23,-17"/>
</a>
</g>
</g>
<!-- Node24&#45;&gt;Node6 -->
<g id="edge43_Node000024_Node000006" class="edge">
<title>Node24&#45;&gt;Node6</title>
<g id="a_edge43_Node000024_Node000006"><a xlink:title=" ">
<path fill="none" stroke="#63b8ff" d="M97.04,-226.51C90.2,-212.28 80.71,-185.98 94.34,-170.25 128.66,-130.63 285.18,-124.81 363.88,-124.46"/>
<polygon fill="#63b8ff" stroke="#63b8ff" points="363.85,-127.96 373.84,-124.44 363.84,-120.96 363.85,-127.96"/>
</a>
</g>
</g>
<!-- Node24&#45;&gt;Node19 -->
<g id="edge42_Node000024_Node000019" class="edge">
<title>Node24&#45;&gt;Node19</title>
<g id="a_edge42_Node000024_Node000019"><a xlink:title=" ">
<path fill="none" stroke="#63b8ff" d="M121.29,-226.59C137.42,-218.26 160.84,-206.16 179.33,-196.61"/>
<polygon fill="#63b8ff" stroke="#63b8ff" points="180.93,-199.72 188.21,-192.02 177.72,-193.5 180.93,-199.72"/>
</a>
</g>
</g>
<!-- Node24&#45;&gt;Node20 -->
<g id="edge41_Node000024_Node000020" class="edge">
<title>Node24&#45;&gt;Node20</title>
<g id="a_edge41_Node000024_Node000020"><a xlink:title=" ">
<path fill="none" stroke="#63b8ff" d="M88.68,-226.56C72.5,-213.69 49.2,-190.38 61.34,-170.25 70.12,-155.69 85.31,-145.56 100.51,-138.63"/>
<polygon fill="#63b8ff" stroke="#63b8ff" points="101.63,-141.95 109.55,-134.9 98.97,-135.48 101.63,-141.95"/>
</a>
</g>
</g>
<!-- Node25 -->
<g id="Node000025" class="node">
<title>Node25</title>
<g id="a_Node000025"><a xlink:title=" ">
<polygon fill="#e0e0e0" stroke="#999999" points="155.34,-191 103.34,-191 103.34,-170.25 155.34,-170.25 155.34,-191"/>
<text text-anchor="middle" x="129.34" y="-177.5" font-family="Helvetica,sans-Serif" font-size="10.00">stdlib.h</text>
</a>
</g>
</g>
<!-- Node24&#45;&gt;Node25 -->
<g id="edge40_Node000024_Node000025" class="edge">
<title>Node24&#45;&gt;Node25</title>
<g id="a_edge40_Node000024_Node000025"><a xlink:title=" ">
<path fill="none" stroke="#63b8ff" d="M107.17,-226.59C110.58,-219.66 115.29,-210.12 119.48,-201.61"/>
<polygon fill="#63b8ff" stroke="#63b8ff" points="122.6,-203.2 123.88,-192.69 116.32,-200.11 122.6,-203.2"/>
</a>
</g>
</g>
<!-- Node26&#45;&gt;Node6 -->
<g id="edge46_Node000026_Node000006" class="edge">
<title>Node26&#45;&gt;Node6</title>
<g id="a_edge46_Node000026_Node000006"><a xlink:title=" ">
<path fill="none" stroke="#63b8ff" d="M602.46,-283.74C577.64,-277.12 549.04,-266.05 528.34,-247.75 499.45,-222.21 515.92,-198.19 489.34,-170.25 477,-157.28 460.12,-146.97 445.05,-139.47"/>
<polygon fill="#63b8ff" stroke="#63b8ff" points="446.89,-136.47 436.35,-135.38 443.91,-142.8 446.89,-136.47"/>
</a>
</g>
</g>
<!-- Node27 -->
<g id="Node000027" class="node">
<title>Node27</title>
<g id="a_Node000027"><a xlink:href="inttypes_8h.html" target="_top" xlink:title="Adds include for missing inttype definitions.">
<polygon fill="white" stroke="#666666" points="814.71,-247.75 749.96,-247.75 749.96,-227 814.71,-227 814.71,-247.75"/>
<text text-anchor="middle" x="782.34" y="-234.25" font-family="Helvetica,sans-Serif" font-size="10.00">inttypes.h</text>
</a>
</g>
</g>
<!-- Node26&#45;&gt;Node27 -->
<g id="edge45_Node000026_Node000027" class="edge">
<title>Node26&#45;&gt;Node27</title>
<g id="a_edge45_Node000026_Node000027"><a xlink:title=" ">
<path fill="none" stroke="#63b8ff" d="M678.04,-283.34C697.91,-274.77 727.01,-262.23 749.43,-252.56"/>
<polygon fill="#63b8ff" stroke="#63b8ff" points="750.64,-255.85 758.44,-248.68 747.87,-249.42 750.64,-255.85"/>
</a>
</g>
</g>
<!-- Node28 -->
<g id="Node000028" class="node">
<title>Node28</title>
<g id="a_Node000028"><a xlink:href="ethertype_8h.html" target="_top" xlink:title="Ether type definitions.">
<polygon fill="white" stroke="#666666" points="628.84,-247.75 537.84,-247.75 537.84,-227 628.84,-227 628.84,-247.75"/>
<text text-anchor="middle" x="583.34" y="-234.25" font-family="Helvetica,sans-Serif" font-size="10.00">net/ethertype.h</text>
</a>
</g>
</g>
<!-- Node26&#45;&gt;Node28 -->
<g id="edge47_Node000026_Node000028" class="edge">
<title>Node26&#45;&gt;Node28</title>
<g id="a_edge47_Node000026_Node000028"><a xlink:title=" ">
<path fill="none" stroke="#63b8ff" d="M642.47,-283.34C632.13,-275.47 617.37,-264.25 605.19,-254.99"/>
<polygon fill="#63b8ff" stroke="#63b8ff" points="607.38,-252.26 597.3,-248.99 603.15,-257.83 607.38,-252.26"/>
</a>
</g>
</g>
<!-- Node29 -->
<g id="Node000029" class="node">
<title>Node29</title>
<g id="a_Node000029"><a xlink:href="protnum_8h.html" target="_top" xlink:title="Protocol number definitions.">
<polygon fill="white" stroke="#666666" points="731.84,-247.75 646.84,-247.75 646.84,-227 731.84,-227 731.84,-247.75"/>
<text text-anchor="middle" x="689.34" y="-234.25" font-family="Helvetica,sans-Serif" font-size="10.00">net/protnum.h</text>
</a>
</g>
</g>
<!-- Node26&#45;&gt;Node29 -->
<g id="edge48_Node000026_Node000029" class="edge">
<title>Node26&#45;&gt;Node29</title>
<g id="a_edge48_Node000026_Node000029"><a xlink:title=" ">
<path fill="none" stroke="#63b8ff" d="M661.42,-283.34C665.82,-276.25 671.91,-266.44 677.28,-257.79"/>
<polygon fill="#63b8ff" stroke="#63b8ff" points="680.21,-259.71 682.51,-249.36 674.27,-256.01 680.21,-259.71"/>
</a>
</g>
</g>
<!-- Node30&#45;&gt;Node2 -->
<g id="edge57_Node000030_Node000002" class="edge">
<title>Node30&#45;&gt;Node2</title>
<g id="a_edge57_Node000030_Node000002"><a xlink:title=" ">
<path fill="none" stroke="#63b8ff" d="M963.96,-170C967.13,-156.06 970.65,-130.12 958.34,-113.5 913.42,-52.87 871.93,-73.42 798.34,-56.75 655.22,-24.33 480.07,-14.98 404.28,-12.36"/>
<polygon fill="#63b8ff" stroke="#63b8ff" points="404.61,-8.87 394.5,-12.04 404.39,-15.86 404.61,-8.87"/>
</a>
</g>
</g>
<!-- Node30&#45;&gt;Node3 -->
<g id="edge55_Node000030_Node000003" class="edge">
<title>Node30&#45;&gt;Node3</title>
<g id="a_edge55_Node000030_Node000003"><a xlink:title=" ">
<path fill="none" stroke="#63b8ff" d="M931.84,-169.84C905.29,-161.03 866.04,-148 836.61,-138.24"/>
<polygon fill="#63b8ff" stroke="#63b8ff" points="837.89,-134.97 827.3,-135.15 835.69,-141.62 837.89,-134.97"/>
</a>
</g>
</g>
<!-- Node30&#45;&gt;Node11 -->
<g id="edge56_Node000030_Node000011" class="edge">
<title>Node30&#45;&gt;Node11</title>
<g id="a_edge56_Node000030_Node000011"><a xlink:title=" ">
<path fill="none" stroke="#63b8ff" d="M960.61,-169.99C958.98,-155.56 953.79,-128.45 937.34,-113.5 899.77,-79.37 839.92,-70.22 800.63,-68.13"/>
<polygon fill="#63b8ff" stroke="#63b8ff" points="800.78,-64.63 790.65,-67.74 800.51,-71.62 800.78,-64.63"/>
</a>
</g>
</g>
<!-- Node30&#45;&gt;Node13 -->
<g id="edge54_Node000030_Node000013" class="edge">
<title>Node30&#45;&gt;Node13</title>
<g id="a_edge54_Node000030_Node000013"><a xlink:title=" ">
<path fill="none" stroke="#63b8ff" d="M945.07,-169.84C931.48,-161.66 911.86,-149.86 896.14,-140.4"/>
<polygon fill="#63b8ff" stroke="#63b8ff" points="898.14,-137.52 887.76,-135.36 894.53,-143.51 898.14,-137.52"/>
</a>
</g>
</g>
<!-- Node30&#45;&gt;Node22 -->
<g id="edge53_Node000030_Node000022" class="edge">
<title>Node30&#45;&gt;Node22</title>
<g id="a_edge53_Node000030_Node000022"><a xlink:title=" ">
<path fill="none" stroke="#63b8ff" d="M956.03,-169.77C947.39,-154.79 928.76,-126.65 904.34,-113.5 851.58,-85.07 675.07,-73.6 594.75,-69.76"/>
<polygon fill="#63b8ff" stroke="#63b8ff" points="595.29,-66.28 585.14,-69.32 594.96,-73.28 595.29,-66.28"/>
</a>
</g>
</g>
<!-- Node31 -->
<g id="Node000031" class="node">
<title>Node31</title>
<g id="a_Node000031"><a xlink:title=" ">
<polygon fill="#e0e0e0" stroke="#999999" points="1144.46,-77.5 1066.21,-77.5 1066.21,-56.75 1144.46,-56.75 1144.46,-77.5"/>
<text text-anchor="middle" x="1105.34" y="-64" font-family="Helvetica,sans-Serif" font-size="10.00">periph_cpu.h</text>
</a>
</g>
</g>
<!-- Node30&#45;&gt;Node31 -->
<g id="edge58_Node000030_Node000031" class="edge">
<title>Node30&#45;&gt;Node31</title>
<g id="a_edge58_Node000030_Node000031"><a xlink:title=" ">
<path fill="none" stroke="#63b8ff" d="M977.12,-169.9C991.16,-161.06 1012.08,-147.43 1029.34,-134.25 1049.6,-118.78 1071.42,-99.49 1086.46,-85.75"/>
<polygon fill="#63b8ff" stroke="#63b8ff" points="1088.79,-88.37 1093.77,-79.01 1084.04,-83.22 1088.79,-88.37"/>
</a>
</g>
</g>
<!-- Node32 -->
<g id="Node000032" class="node">
<title>Node32</title>
<g id="a_Node000032"><a xlink:title=" ">
<polygon fill="#e0e0e0" stroke="#999999" points="1047.96,-77.5 966.71,-77.5 966.71,-56.75 1047.96,-56.75 1047.96,-77.5"/>
<text text-anchor="middle" x="1007.34" y="-64" font-family="Helvetica,sans-Serif" font-size="10.00">periph_conf.h</text>
</a>
</g>
</g>
<!-- Node30&#45;&gt;Node32 -->
<g id="edge59_Node000030_Node000032" class="edge">
<title>Node30&#45;&gt;Node32</title>
<g id="a_edge59_Node000030_Node000032"><a xlink:title=" ">
<path fill="none" stroke="#63b8ff" d="M978.9,-169.86C991.07,-162.01 1006.3,-149.74 1013.34,-134.25 1019.84,-119.95 1017.72,-102.13 1014.31,-88.6"/>
<polygon fill="#63b8ff" stroke="#63b8ff" points="1017.68,-87.63 1011.47,-79.05 1010.97,-89.63 1017.68,-87.63"/>
</a>
</g>
</g>
<!-- Node30&#45;&gt;Node33 -->
<g id="edge60_Node000030_Node000033" class="edge">
<title>Node30&#45;&gt;Node33</title>
<g id="a_edge60_Node000030_Node000033"><a xlink:title=" ">
<path fill="none" stroke="#63b8ff" d="M993.88,-169.84C1023.42,-160.95 1067.22,-147.77 1099.77,-137.98"/>
<polygon fill="#63b8ff" stroke="#63b8ff" points="1100.76,-141.34 1109.33,-135.11 1098.74,-134.64 1100.76,-141.34"/>
</a>
</g>
</g>
<!-- Node33&#45;&gt;Node31 -->
<g id="edge62_Node000033_Node000031" class="edge">
<title>Node33&#45;&gt;Node31</title>
<g id="a_edge62_Node000033_Node000031"><a xlink:title=" ">
<path fill="none" stroke="#63b8ff" d="M1136.55,-113.09C1131.57,-105.92 1124.67,-95.98 1118.62,-87.26"/>
<polygon fill="#63b8ff" stroke="#63b8ff" points="1121.51,-85.29 1112.94,-79.07 1115.76,-89.28 1121.51,-85.29"/>
</a>
</g>
</g>
<!-- Node33&#45;&gt;Node32 -->
<g id="edge63_Node000033_Node000032" class="edge">
<title>Node33&#45;&gt;Node32</title>
<g id="a_edge63_Node000033_Node000032"><a xlink:title=" ">
<path fill="none" stroke="#63b8ff" d="M1119.02,-113.09C1097.56,-104.44 1066.02,-91.75 1041.92,-82.05"/>
<polygon fill="#63b8ff" stroke="#63b8ff" points="1043.43,-78.88 1032.85,-78.39 1040.82,-85.38 1043.43,-78.88"/>
</a>
</g>
</g>
<!-- Node34 -->
<g id="Node000034" class="node">
<title>Node34</title>
<g id="a_Node000034"><a xlink:title=" ">
<polygon fill="#e0e0e0" stroke="#999999" points="1215.71,-77.5 1162.96,-77.5 1162.96,-56.75 1215.71,-56.75 1215.71,-77.5"/>
<text text-anchor="middle" x="1189.34" y="-64" font-family="Helvetica,sans-Serif" font-size="10.00">limits.h</text>
</a>
</g>
</g>
<!-- Node33&#45;&gt;Node34 -->
<g id="edge61_Node000033_Node000034" class="edge">
<title>Node33&#45;&gt;Node34</title>
<g id="a_edge61_Node000033_Node000034"><a xlink:title=" ">
<path fill="none" stroke="#63b8ff" d="M1151.56,-113.09C1157.78,-105.69 1166.49,-95.32 1173.98,-86.41"/>
<polygon fill="#63b8ff" stroke="#63b8ff" points="1176.46,-88.9 1180.21,-78.99 1171.1,-84.39 1176.46,-88.9"/>
</a>
</g>
</g>
</g>
</svg>
