<?xml version="1.0" encoding="UTF-8" standalone="no"?>
<!DOCTYPE svg PUBLIC "-//W3C//DTD SVG 1.1//EN"
 "http://www.w3.org/Graphics/SVG/1.1/DTD/svg11.dtd">
<!-- Generated by graphviz version 12.1.2 (0)
 -->
<!-- Title: drivers/at86rf2xx/include/at86rf2xx_internal.h Pages: 1 -->
<svg width="1259pt" height="552pt"
 viewBox="0.00 0.00 1258.54 552.25" xmlns="http://www.w3.org/2000/svg" xmlns:xlink="http://www.w3.org/1999/xlink">
<g id="graph0" class="graph" transform="scale(1 1) rotate(0) translate(4 548.25)">
<title>drivers/at86rf2xx/include/at86rf2xx_internal.h</title>
<!-- Node1 -->
<g id="Node000001" class="node">
<title>Node1</title>
<g id="a_Node000001"><a xlink:title="Internal interfaces for AT86RF2xx drivers.">
<polygon fill="#999999" stroke="#666666" points="1018.66,-544.25 880.41,-544.25 880.41,-510.75 1018.66,-510.75 1018.66,-544.25"/>
<text text-anchor="start" x="888.41" y="-530.75" font-family="Helvetica,sans-Serif" font-size="10.00">drivers/at86rf2xx/include</text>
<text text-anchor="middle" x="949.54" y="-518" font-family="Helvetica,sans-Serif" font-size="10.00">/at86rf2xx_internal.h</text>
</a>
</g>
</g>
<!-- Node2 -->
<g id="Node000002" class="node">
<title>Node2</title>
<g id="a_Node000002"><a xlink:title=" ">
<polygon fill="#e0e0e0" stroke="#999999" points="445.91,-20.75 393.16,-20.75 393.16,0 445.91,0 445.91,-20.75"/>
<text text-anchor="middle" x="419.54" y="-7.25" font-family="Helvetica,sans-Serif" font-size="10.00">stdint.h</text>
</a>
</g>
</g>
<!-- Node1&#45;&gt;Node2 -->
<g id="edge1_Node000001_Node000002" class="edge">
<title>Node1&#45;&gt;Node2</title>
<g id="a_edge1_Node000001_Node000002"><a xlink:title=" ">
<path fill="none" stroke="#63b8ff" d="M1018.97,-513.71C1107.86,-495.31 1250.54,-458.08 1250.54,-408.62 1250.54,-408.62 1250.54,-408.62 1250.54,-122.88 1250.54,-89.62 1243.52,-74.71 1215.54,-56.75 1151.31,-15.54 607.05,-11.66 457.45,-11.37"/>
<polygon fill="#63b8ff" stroke="#63b8ff" points="457.7,-7.87 447.7,-11.36 457.69,-14.87 457.7,-7.87"/>
</a>
</g>
</g>
<!-- Node3 -->
<g id="Node000003" class="node">
<title>Node3</title>
<g id="a_Node000003"><a xlink:href="at86rf2xx_8h.html" target="_top" xlink:title="Interface definition for AT86RF2xx based drivers.">
<polygon fill="white" stroke="#666666" points="897.66,-418 825.41,-418 825.41,-397.25 897.66,-397.25 897.66,-418"/>
<text text-anchor="middle" x="861.54" y="-404.5" font-family="Helvetica,sans-Serif" font-size="10.00">at86rf2xx.h</text>
</a>
</g>
</g>
<!-- Node1&#45;&gt;Node3 -->
<g id="edge2_Node000001_Node000003" class="edge">
<title>Node1&#45;&gt;Node3</title>
<g id="a_edge2_Node000001_Node000003"><a xlink:title=" ">
<path fill="none" stroke="#63b8ff" d="M919.74,-510.28C906.01,-501.43 890.57,-489.3 880.54,-474.75 871.3,-461.35 866.51,-443.48 864.05,-429.69"/>
<polygon fill="#63b8ff" stroke="#63b8ff" points="867.54,-429.3 862.61,-419.92 860.61,-430.33 867.54,-429.3"/>
</a>
</g>
</g>
<!-- Node36 -->
<g id="Node000036" class="node">
<title>Node36</title>
<g id="a_Node000036"><a xlink:href="at86rf2xx__registers_8h.html" target="_top" xlink:title="Register and command definitions for AT86RF2xx devices.">
<polygon fill="white" stroke="#666666" points="1009.66,-474.75 889.41,-474.75 889.41,-454 1009.66,-454 1009.66,-474.75"/>
<text text-anchor="middle" x="949.54" y="-461.25" font-family="Helvetica,sans-Serif" font-size="10.00">at86rf2xx_registers.h</text>
</a>
</g>
</g>
<!-- Node1&#45;&gt;Node36 -->
<g id="edge67_Node000001_Node000036" class="edge">
<title>Node1&#45;&gt;Node36</title>
<g id="a_edge67_Node000001_Node000036"><a xlink:title=" ">
<path fill="none" stroke="#63b8ff" d="M949.54,-510.44C949.54,-503.1 949.54,-494.32 949.54,-486.46"/>
<polygon fill="#63b8ff" stroke="#63b8ff" points="953.04,-486.73 949.54,-476.73 946.04,-486.73 953.04,-486.73"/>
</a>
</g>
</g>
<!-- Node3&#45;&gt;Node2 -->
<g id="edge3_Node000003_Node000002" class="edge">
<title>Node3&#45;&gt;Node2</title>
<g id="a_edge3_Node000003_Node000002"><a xlink:title=" ">
<path fill="none" stroke="#63b8ff" d="M898.11,-401C988.01,-384.89 1212.54,-329.83 1212.54,-181.62 1212.54,-181.62 1212.54,-181.62 1212.54,-122.88 1212.54,-92.3 1217.41,-75.85 1193.54,-56.75 1135.65,-10.44 604.29,-10.23 457.15,-11.07"/>
<polygon fill="#63b8ff" stroke="#63b8ff" points="457.55,-7.57 447.57,-11.13 457.59,-14.57 457.55,-7.57"/>
</a>
</g>
</g>
<!-- Node4 -->
<g id="Node000004" class="node">
<title>Node4</title>
<g id="a_Node000004"><a xlink:title=" ">
<polygon fill="#e0e0e0" stroke="#999999" points="827.04,-134.25 766.04,-134.25 766.04,-113.5 827.04,-113.5 827.04,-134.25"/>
<text text-anchor="middle" x="796.54" y="-120.75" font-family="Helvetica,sans-Serif" font-size="10.00">stdbool.h</text>
</a>
</g>
</g>
<!-- Node3&#45;&gt;Node4 -->
<g id="edge4_Node000003_Node000004" class="edge">
<title>Node3&#45;&gt;Node4</title>
<g id="a_edge4_Node000003_Node000004"><a xlink:title=" ">
<path fill="none" stroke="#63b8ff" d="M864.34,-396.88C869.63,-377.61 880.54,-333.22 880.54,-295.12 880.54,-295.12 880.54,-295.12 880.54,-236.38 880.54,-195.97 844.92,-160.91 820.07,-141.36"/>
<polygon fill="#63b8ff" stroke="#63b8ff" points="822.47,-138.79 812.38,-135.56 818.25,-144.38 822.47,-138.79"/>
</a>
</g>
</g>
<!-- Node5 -->
<g id="Node000005" class="node">
<title>Node5</title>
<g id="a_Node000005"><a xlink:title=" ">
<polygon fill="#e0e0e0" stroke="#999999" points="776.91,-361.25 724.16,-361.25 724.16,-340.5 776.91,-340.5 776.91,-361.25"/>
<text text-anchor="middle" x="750.54" y="-347.75" font-family="Helvetica,sans-Serif" font-size="10.00">board.h</text>
</a>
</g>
</g>
<!-- Node3&#45;&gt;Node5 -->
<g id="edge5_Node000003_Node000005" class="edge">
<title>Node3&#45;&gt;Node5</title>
<g id="a_edge5_Node000003_Node000005"><a xlink:title=" ">
<path fill="none" stroke="#63b8ff" d="M841.69,-396.84C824.65,-388.43 799.81,-376.18 780.37,-366.59"/>
<polygon fill="#63b8ff" stroke="#63b8ff" points="782.08,-363.53 771.57,-362.25 778.99,-369.81 782.08,-363.53"/>
</a>
</g>
</g>
<!-- Node6 -->
<g id="Node000006" class="node">
<title>Node6</title>
<g id="a_Node000006"><a xlink:href="kernel__defines_8h.html" target="_top" xlink:title="Common macros and compiler attributes/pragmas configuration.">
<polygon fill="white" stroke="#666666" points="649.66,-191 553.41,-191 553.41,-170.25 649.66,-170.25 649.66,-191"/>
<text text-anchor="middle" x="601.54" y="-177.5" font-family="Helvetica,sans-Serif" font-size="10.00">kernel_defines.h</text>
</a>
</g>
</g>
<!-- Node3&#45;&gt;Node6 -->
<g id="edge6_Node000003_Node000006" class="edge">
<title>Node3&#45;&gt;Node6</title>
<g id="a_edge6_Node000003_Node000006"><a xlink:title=" ">
<path fill="none" stroke="#63b8ff" d="M862.8,-396.75C866.08,-366.55 871.48,-274.62 823.54,-227 801.07,-204.68 719.04,-192.49 661.26,-186.51"/>
<polygon fill="#63b8ff" stroke="#63b8ff" points="661.86,-183.05 651.56,-185.55 661.17,-190.02 661.86,-183.05"/>
</a>
</g>
</g>
<!-- Node13 -->
<g id="Node000013" class="node">
<title>Node13</title>
<g id="a_Node000013"><a xlink:href="drivers_2include_2net_2netdev_8h.html" target="_top" xlink:title="Definitions low&#45;level network driver interface.">
<polygon fill="white" stroke="#666666" points="475.91,-247.75 399.16,-247.75 399.16,-227 475.91,-227 475.91,-247.75"/>
<text text-anchor="middle" x="437.54" y="-234.25" font-family="Helvetica,sans-Serif" font-size="10.00">net/netdev.h</text>
</a>
</g>
</g>
<!-- Node3&#45;&gt;Node13 -->
<g id="edge17_Node000003_Node000013" class="edge">
<title>Node3&#45;&gt;Node13</title>
<g id="a_edge17_Node000003_Node000013"><a xlink:title=" ">
<path fill="none" stroke="#63b8ff" d="M827.36,-396.83C797.61,-388.11 753.44,-374.69 715.54,-361.25 651.48,-338.54 635.69,-331.99 573.54,-304.5 536.23,-288 494.11,-267.17 466.76,-253.35"/>
<polygon fill="#63b8ff" stroke="#63b8ff" points="468.55,-250.33 458.05,-248.92 465.38,-256.57 468.55,-250.33"/>
</a>
</g>
</g>
<!-- Node17 -->
<g id="Node000017" class="node">
<title>Node17</title>
<g id="a_Node000017"><a xlink:href="drivers_2include_2net_2netdev_2ieee802154_8h.html" target="_top" xlink:title="Definitions for netdev common IEEE 802.15.4 code.">
<polygon fill="white" stroke="#666666" points="460.29,-361.25 322.79,-361.25 322.79,-340.5 460.29,-340.5 460.29,-361.25"/>
<text text-anchor="middle" x="391.54" y="-347.75" font-family="Helvetica,sans-Serif" font-size="10.00">net/netdev/ieee802154.h</text>
</a>
</g>
</g>
<!-- Node3&#45;&gt;Node17 -->
<g id="edge25_Node000003_Node000017" class="edge">
<title>Node3&#45;&gt;Node17</title>
<g id="a_edge25_Node000003_Node000017"><a xlink:title=" ">
<path fill="none" stroke="#63b8ff" d="M825.05,-402.37C749.58,-393.58 574.81,-373.22 471.7,-361.21"/>
<polygon fill="#63b8ff" stroke="#63b8ff" points="472.26,-357.75 461.92,-360.07 471.45,-364.71 472.26,-357.75"/>
</a>
</g>
</g>
<!-- Node27 -->
<g id="Node000027" class="node">
<title>Node27</title>
<g id="a_Node000027"><a xlink:href="nettype_8h.html" target="_top" xlink:title="Protocol type definitions.">
<polygon fill="white" stroke="#666666" points="688.16,-304.5 582.91,-304.5 582.91,-283.75 688.16,-283.75 688.16,-304.5"/>
<text text-anchor="middle" x="635.54" y="-291" font-family="Helvetica,sans-Serif" font-size="10.00">net/gnrc/nettype.h</text>
</a>
</g>
</g>
<!-- Node3&#45;&gt;Node27 -->
<g id="edge53_Node000003_Node000027" class="edge">
<title>Node3&#45;&gt;Node27</title>
<g id="a_edge53_Node000003_Node000027"><a xlink:title=" ">
<path fill="none" stroke="#63b8ff" d="M853.14,-397.1C840.06,-382.82 813.4,-355.9 785.54,-340.5 758.31,-325.45 725.49,-314.8 697.5,-307.61"/>
<polygon fill="#63b8ff" stroke="#63b8ff" points="698.65,-304.29 688.1,-305.29 696.97,-311.09 698.65,-304.29"/>
</a>
</g>
</g>
<!-- Node31 -->
<g id="Node000031" class="node">
<title>Node31</title>
<g id="a_Node000031"><a xlink:href="spi_8h.html" target="_top" xlink:title="Low&#45;level SPI peripheral driver interface definition.">
<polygon fill="white" stroke="#666666" points="998.04,-191 925.04,-191 925.04,-170.25 998.04,-170.25 998.04,-191"/>
<text text-anchor="middle" x="961.54" y="-177.5" font-family="Helvetica,sans-Serif" font-size="10.00">periph/spi.h</text>
</a>
</g>
</g>
<!-- Node3&#45;&gt;Node31 -->
<g id="edge54_Node000003_Node000031" class="edge">
<title>Node3&#45;&gt;Node31</title>
<g id="a_edge54_Node000003_Node000031"><a xlink:title=" ">
<path fill="none" stroke="#63b8ff" d="M869.7,-397.05C876.94,-388.2 887.44,-374.46 894.54,-361.25 923.85,-306.67 945.96,-236.5 955.84,-202.26"/>
<polygon fill="#63b8ff" stroke="#63b8ff" points="959.16,-203.4 958.51,-192.83 952.42,-201.5 959.16,-203.4"/>
</a>
</g>
</g>
<!-- Node34 -->
<g id="Node000034" class="node">
<title>Node34</title>
<g id="a_Node000034"><a xlink:href="drivers_2include_2periph_2gpio_8h.html" target="_top" xlink:title="Low&#45;level GPIO peripheral driver interface definitions.">
<polygon fill="white" stroke="#666666" points="1183.41,-134.25 1103.66,-134.25 1103.66,-113.5 1183.41,-113.5 1183.41,-134.25"/>
<text text-anchor="middle" x="1143.54" y="-120.75" font-family="Helvetica,sans-Serif" font-size="10.00">periph/gpio.h</text>
</a>
</g>
</g>
<!-- Node3&#45;&gt;Node34 -->
<g id="edge66_Node000003_Node000034" class="edge">
<title>Node3&#45;&gt;Node34</title>
<g id="a_edge66_Node000003_Node000034"><a xlink:title=" ">
<path fill="none" stroke="#63b8ff" d="M898.05,-401.52C980.62,-388.95 1174.54,-353.24 1174.54,-295.12 1174.54,-295.12 1174.54,-295.12 1174.54,-236.38 1174.54,-203.33 1161.75,-166.73 1152.6,-144.78"/>
<polygon fill="#63b8ff" stroke="#63b8ff" points="1155.91,-143.63 1148.71,-135.86 1149.49,-146.42 1155.91,-143.63"/>
</a>
</g>
</g>
<!-- Node7 -->
<g id="Node000007" class="node">
<title>Node7</title>
<g id="a_Node000007"><a xlink:href="modules_8h.html" target="_top" xlink:title="Common macros and compiler attributes/pragmas configuration.">
<polygon fill="white" stroke="#666666" points="443.04,-134.25 376.04,-134.25 376.04,-113.5 443.04,-113.5 443.04,-134.25"/>
<text text-anchor="middle" x="409.54" y="-120.75" font-family="Helvetica,sans-Serif" font-size="10.00">modules.h</text>
</a>
</g>
</g>
<!-- Node6&#45;&gt;Node7 -->
<g id="edge7_Node000006_Node000007" class="edge">
<title>Node6&#45;&gt;Node7</title>
<g id="a_edge7_Node000006_Node000007"><a xlink:title=" ">
<path fill="none" stroke="#63b8ff" d="M567.21,-169.84C535.58,-160.82 488.45,-147.38 453.96,-137.54"/>
<polygon fill="#63b8ff" stroke="#63b8ff" points="455.28,-134.28 444.7,-134.9 453.36,-141.01 455.28,-134.28"/>
</a>
</g>
</g>
<!-- Node8 -->
<g id="Node000008" class="node">
<title>Node8</title>
<g id="a_Node000008"><a xlink:href="riot__version_8h.html" target="_top" xlink:title="Common macros and compiler attributes/pragmas configuration.">
<polygon fill="white" stroke="#666666" points="658.91,-134.25 576.16,-134.25 576.16,-113.5 658.91,-113.5 658.91,-134.25"/>
<text text-anchor="middle" x="617.54" y="-120.75" font-family="Helvetica,sans-Serif" font-size="10.00">riot_version.h</text>
</a>
</g>
</g>
<!-- Node6&#45;&gt;Node8 -->
<g id="edge8_Node000006_Node000008" class="edge">
<title>Node6&#45;&gt;Node8</title>
<g id="a_edge8_Node000006_Node000008"><a xlink:title=" ">
<path fill="none" stroke="#63b8ff" d="M604.4,-169.84C606.38,-163.06 609.08,-153.8 611.53,-145.44"/>
<polygon fill="#63b8ff" stroke="#63b8ff" points="614.83,-146.61 614.28,-136.03 608.11,-144.65 614.83,-146.61"/>
</a>
</g>
</g>
<!-- Node9 -->
<g id="Node000009" class="node">
<title>Node9</title>
<g id="a_Node000009"><a xlink:href="compiler__hints_8h.html" target="_top" xlink:title="Common macros and compiler attributes/pragmas configuration.">
<polygon fill="white" stroke="#666666" points="558.04,-134.25 461.04,-134.25 461.04,-113.5 558.04,-113.5 558.04,-134.25"/>
<text text-anchor="middle" x="509.54" y="-120.75" font-family="Helvetica,sans-Serif" font-size="10.00">compiler_hints.h</text>
</a>
</g>
</g>
<!-- Node6&#45;&gt;Node9 -->
<g id="edge10_Node000006_Node000009" class="edge">
<title>Node6&#45;&gt;Node9</title>
<g id="a_edge10_Node000006_Node000009"><a xlink:title=" ">
<path fill="none" stroke="#63b8ff" d="M585.09,-169.84C571.35,-161.66 551.52,-149.86 535.62,-140.4"/>
<polygon fill="#63b8ff" stroke="#63b8ff" points="537.53,-137.46 527.14,-135.35 533.95,-143.47 537.53,-137.46"/>
</a>
</g>
</g>
<!-- Node11 -->
<g id="Node000011" class="node">
<title>Node11</title>
<g id="a_Node000011"><a xlink:href="container_8h.html" target="_top" xlink:title="Common macros and compiler attributes/pragmas configuration.">
<polygon fill="white" stroke="#666666" points="747.91,-134.25 677.16,-134.25 677.16,-113.5 747.91,-113.5 747.91,-134.25"/>
<text text-anchor="middle" x="712.54" y="-120.75" font-family="Helvetica,sans-Serif" font-size="10.00">container.h</text>
</a>
</g>
</g>
<!-- Node6&#45;&gt;Node11 -->
<g id="edge14_Node000006_Node000011" class="edge">
<title>Node6&#45;&gt;Node11</title>
<g id="a_edge14_Node000006_Node000011"><a xlink:title=" ">
<path fill="none" stroke="#63b8ff" d="M621.38,-169.84C638.43,-161.43 663.26,-149.18 682.7,-139.59"/>
<polygon fill="#63b8ff" stroke="#63b8ff" points="684.09,-142.81 691.51,-135.25 680.99,-136.53 684.09,-142.81"/>
</a>
</g>
</g>
<!-- Node8&#45;&gt;Node2 -->
<g id="edge9_Node000008_Node000002" class="edge">
<title>Node8&#45;&gt;Node2</title>
<g id="a_edge9_Node000008_Node000002"><a xlink:title=" ">
<path fill="none" stroke="#63b8ff" d="M603.07,-113.21C582.91,-99.89 545.08,-75.42 511.54,-56.75 491.86,-45.79 469.17,-34.59 451.25,-26.06"/>
<polygon fill="#63b8ff" stroke="#63b8ff" points="452.95,-22.99 442.41,-21.88 449.96,-29.32 452.95,-22.99"/>
</a>
</g>
</g>
<!-- Node9&#45;&gt;Node2 -->
<g id="edge13_Node000009_Node000002" class="edge">
<title>Node9&#45;&gt;Node2</title>
<g id="a_edge13_Node000009_Node000002"><a xlink:title=" ">
<path fill="none" stroke="#63b8ff" d="M485.88,-113.15C470.3,-105.6 450.61,-93.68 438.54,-77.5 428.69,-64.31 423.94,-46.15 421.65,-32.21"/>
<polygon fill="#63b8ff" stroke="#63b8ff" points="425.13,-31.8 420.36,-22.34 418.19,-32.71 425.13,-31.8"/>
</a>
</g>
</g>
<!-- Node10 -->
<g id="Node000010" class="node">
<title>Node10</title>
<g id="a_Node000010"><a xlink:href="assert_8h.html" target="_top" xlink:title="POSIX.1&#45;2008 compliant version of the assert macro.">
<polygon fill="white" stroke="#666666" points="503.04,-77.5 448.04,-77.5 448.04,-56.75 503.04,-56.75 503.04,-77.5"/>
<text text-anchor="middle" x="475.54" y="-64" font-family="Helvetica,sans-Serif" font-size="10.00">assert.h</text>
</a>
</g>
</g>
<!-- Node9&#45;&gt;Node10 -->
<g id="edge11_Node000009_Node000010" class="edge">
<title>Node9&#45;&gt;Node10</title>
<g id="a_edge11_Node000009_Node000010"><a xlink:title=" ">
<path fill="none" stroke="#63b8ff" d="M503.46,-113.09C499.06,-106 492.97,-96.19 487.59,-87.54"/>
<polygon fill="#63b8ff" stroke="#63b8ff" points="490.61,-85.76 482.36,-79.11 484.66,-89.46 490.61,-85.76"/>
</a>
</g>
</g>
<!-- Node10&#45;&gt;Node2 -->
<g id="edge12_Node000010_Node000002" class="edge">
<title>Node10&#45;&gt;Node2</title>
<g id="a_edge12_Node000010_Node000002"><a xlink:title=" ">
<path fill="none" stroke="#63b8ff" d="M465.53,-56.34C457.8,-48.78 446.91,-38.14 437.66,-29.1"/>
<polygon fill="#63b8ff" stroke="#63b8ff" points="440.14,-26.62 430.54,-22.14 435.25,-31.63 440.14,-26.62"/>
</a>
</g>
</g>
<!-- Node11&#45;&gt;Node2 -->
<g id="edge16_Node000011_Node000002" class="edge">
<title>Node11&#45;&gt;Node2</title>
<g id="a_edge16_Node000011_Node000002"><a xlink:title=" ">
<path fill="none" stroke="#63b8ff" d="M702.92,-113.12C687.97,-98.53 657.61,-71.21 626.54,-56.75 571.05,-30.92 500.26,-19.5 457.49,-14.67"/>
<polygon fill="#63b8ff" stroke="#63b8ff" points="458.03,-11.21 447.71,-13.63 457.29,-18.17 458.03,-11.21"/>
</a>
</g>
</g>
<!-- Node12 -->
<g id="Node000012" class="node">
<title>Node12</title>
<g id="a_Node000012"><a xlink:title=" ">
<polygon fill="#e0e0e0" stroke="#999999" points="838.04,-77.5 783.04,-77.5 783.04,-56.75 838.04,-56.75 838.04,-77.5"/>
<text text-anchor="middle" x="810.54" y="-64" font-family="Helvetica,sans-Serif" font-size="10.00">stddef.h</text>
</a>
</g>
</g>
<!-- Node11&#45;&gt;Node12 -->
<g id="edge15_Node000011_Node000012" class="edge">
<title>Node11&#45;&gt;Node12</title>
<g id="a_edge15_Node000011_Node000012"><a xlink:title=" ">
<path fill="none" stroke="#63b8ff" d="M730.06,-113.09C744.83,-104.83 766.22,-92.88 783.24,-83.38"/>
<polygon fill="#63b8ff" stroke="#63b8ff" points="784.82,-86.5 791.85,-78.57 781.41,-80.39 784.82,-86.5"/>
</a>
</g>
</g>
<!-- Node13&#45;&gt;Node2 -->
<g id="edge18_Node000013_Node000002" class="edge">
<title>Node13&#45;&gt;Node2</title>
<g id="a_edge18_Node000013_Node000002"><a xlink:title=" ">
<path fill="none" stroke="#63b8ff" d="M429.76,-226.81C412.7,-205.6 373,-154.86 366.54,-134.25 354.51,-95.87 382.99,-53.2 402.69,-29.6"/>
<polygon fill="#63b8ff" stroke="#63b8ff" points="405.27,-31.96 409.21,-22.13 400,-27.36 405.27,-31.96"/>
</a>
</g>
</g>
<!-- Node13&#45;&gt;Node6 -->
<g id="edge24_Node000013_Node000006" class="edge">
<title>Node13&#45;&gt;Node6</title>
<g id="a_edge24_Node000013_Node000006"><a xlink:title=" ">
<path fill="none" stroke="#63b8ff" d="M466.86,-226.59C493.24,-217.78 532.25,-204.75 561.51,-194.99"/>
<polygon fill="#63b8ff" stroke="#63b8ff" points="562.38,-198.39 570.76,-191.9 560.17,-191.75 562.38,-198.39"/>
</a>
</g>
</g>
<!-- Node14 -->
<g id="Node000014" class="node">
<title>Node14</title>
<g id="a_Node000014"><a xlink:href="errno_8h.html" target="_top" xlink:title=" ">
<polygon fill="white" stroke="#666666" points="895.79,-134.25 845.29,-134.25 845.29,-113.5 895.79,-113.5 895.79,-134.25"/>
<text text-anchor="middle" x="870.54" y="-120.75" font-family="Helvetica,sans-Serif" font-size="10.00">errno.h</text>
</a>
</g>
</g>
<!-- Node13&#45;&gt;Node14 -->
<g id="edge19_Node000013_Node000014" class="edge">
<title>Node13&#45;&gt;Node14</title>
<g id="a_edge19_Node000013_Node000014"><a xlink:title=" ">
<path fill="none" stroke="#63b8ff" d="M476.13,-229.66C520.45,-221.67 595.2,-207.34 658.54,-191 720.95,-174.9 792.25,-151.63 834.22,-137.42"/>
<polygon fill="#63b8ff" stroke="#63b8ff" points="835.22,-140.78 843.56,-134.24 832.97,-134.15 835.22,-140.78"/>
</a>
</g>
</g>
<!-- Node15 -->
<g id="Node000015" class="node">
<title>Node15</title>
<g id="a_Node000015"><a xlink:href="iolist_8h.html" target="_top" xlink:title="iolist scatter / gather IO">
<polygon fill="white" stroke="#666666" points="481.04,-191 432.04,-191 432.04,-170.25 481.04,-170.25 481.04,-191"/>
<text text-anchor="middle" x="456.54" y="-177.5" font-family="Helvetica,sans-Serif" font-size="10.00">iolist.h</text>
</a>
</g>
</g>
<!-- Node13&#45;&gt;Node15 -->
<g id="edge20_Node000013_Node000015" class="edge">
<title>Node13&#45;&gt;Node15</title>
<g id="a_edge20_Node000013_Node000015"><a xlink:title=" ">
<path fill="none" stroke="#63b8ff" d="M440.93,-226.59C443.28,-219.81 446.5,-210.55 449.4,-202.19"/>
<polygon fill="#63b8ff" stroke="#63b8ff" points="452.7,-203.35 452.67,-192.76 446.09,-201.06 452.7,-203.35"/>
</a>
</g>
</g>
<!-- Node16 -->
<g id="Node000016" class="node">
<title>Node16</title>
<g id="a_Node000016"><a xlink:href="netopt_8h.html" target="_top" xlink:title="Definition of global configuration options.">
<polygon fill="white" stroke="#666666" points="375.16,-191 299.91,-191 299.91,-170.25 375.16,-170.25 375.16,-191"/>
<text text-anchor="middle" x="337.54" y="-177.5" font-family="Helvetica,sans-Serif" font-size="10.00">net/netopt.h</text>
</a>
</g>
</g>
<!-- Node13&#45;&gt;Node16 -->
<g id="edge21_Node000013_Node000016" class="edge">
<title>Node13&#45;&gt;Node16</title>
<g id="a_edge21_Node000013_Node000016"><a xlink:title=" ">
<path fill="none" stroke="#63b8ff" d="M419.66,-226.59C404.44,-218.26 382.35,-206.16 364.9,-196.61"/>
<polygon fill="#63b8ff" stroke="#63b8ff" points="367.04,-193.79 356.59,-192.06 363.68,-199.93 367.04,-193.79"/>
</a>
</g>
</g>
<!-- Node16&#45;&gt;Node2 -->
<g id="edge22_Node000016_Node000002" class="edge">
<title>Node16&#45;&gt;Node2</title>
<g id="a_edge22_Node000016_Node000002"><a xlink:title=" ">
<path fill="none" stroke="#63b8ff" d="M333.88,-169.81C326.33,-147.74 311.49,-93.31 333.54,-56.75 344.15,-39.15 364.12,-28.03 382.14,-21.2"/>
<polygon fill="#63b8ff" stroke="#63b8ff" points="383.25,-24.53 391.58,-17.98 380.98,-17.9 383.25,-24.53"/>
</a>
</g>
</g>
<!-- Node16&#45;&gt;Node4 -->
<g id="edge23_Node000016_Node000004" class="edge">
<title>Node16&#45;&gt;Node4</title>
<g id="a_edge23_Node000016_Node000004"><a xlink:title=" ">
<path fill="none" stroke="#63b8ff" d="M375.62,-175.4C390.28,-173.78 407.19,-171.92 422.54,-170.25 567.34,-154.46 607.41,-159.09 754.37,-134.43"/>
<polygon fill="#63b8ff" stroke="#63b8ff" points="754.84,-137.9 764.11,-132.77 753.67,-131 754.84,-137.9"/>
</a>
</g>
</g>
<!-- Node17&#45;&gt;Node13 -->
<g id="edge52_Node000017_Node000013" class="edge">
<title>Node17&#45;&gt;Node13</title>
<g id="a_edge52_Node000017_Node000013"><a xlink:title=" ">
<path fill="none" stroke="#63b8ff" d="M395.46,-340.37C402.89,-322.36 419.17,-282.89 429.16,-258.68"/>
<polygon fill="#63b8ff" stroke="#63b8ff" points="432.34,-260.15 432.92,-249.57 425.87,-257.48 432.34,-260.15"/>
</a>
</g>
</g>
<!-- Node17&#45;&gt;Node16 -->
<g id="edge51_Node000017_Node000016" class="edge">
<title>Node17&#45;&gt;Node16</title>
<g id="a_edge51_Node000017_Node000016"><a xlink:title=" ">
<path fill="none" stroke="#63b8ff" d="M388.48,-340.35C379.98,-313.87 355.93,-238.93 344.17,-202.3"/>
<polygon fill="#63b8ff" stroke="#63b8ff" points="347.55,-201.36 341.16,-192.91 340.88,-203.5 347.55,-201.36"/>
</a>
</g>
</g>
<!-- Node18 -->
<g id="Node000018" class="node">
<title>Node18</title>
<g id="a_Node000018"><a xlink:href="eui__provider_8h.html" target="_top" xlink:title="EUI&#45;48 and EUI&#45;64 address provider.">
<polygon fill="white" stroke="#666666" points="327.79,-304.5 223.29,-304.5 223.29,-283.75 327.79,-283.75 327.79,-304.5"/>
<text text-anchor="middle" x="275.54" y="-291" font-family="Helvetica,sans-Serif" font-size="10.00">net/eui_provider.h</text>
</a>
</g>
</g>
<!-- Node17&#45;&gt;Node18 -->
<g id="edge26_Node000017_Node000018" class="edge">
<title>Node17&#45;&gt;Node18</title>
<g id="a_edge26_Node000017_Node000018"><a xlink:title=" ">
<path fill="none" stroke="#63b8ff" d="M370.8,-340.09C352.9,-331.64 326.79,-319.32 306.43,-309.71"/>
<polygon fill="#63b8ff" stroke="#63b8ff" points="308,-306.58 297.46,-305.47 305.01,-312.91 308,-306.58"/>
</a>
</g>
</g>
<!-- Node25 -->
<g id="Node000025" class="node">
<title>Node25</title>
<g id="a_Node000025"><a xlink:href="sys_2include_2net_2ieee802154_8h.html" target="_top" xlink:title="IEEE 802.15.4 header definitions.">
<polygon fill="white" stroke="#666666" points="152.91,-247.75 52.16,-247.75 52.16,-227 152.91,-227 152.91,-247.75"/>
<text text-anchor="middle" x="102.54" y="-234.25" font-family="Helvetica,sans-Serif" font-size="10.00">net/ieee802154.h</text>
</a>
</g>
</g>
<!-- Node17&#45;&gt;Node25 -->
<g id="edge40_Node000017_Node000025" class="edge">
<title>Node17&#45;&gt;Node25</title>
<g id="a_edge40_Node000017_Node000025"><a xlink:title=" ">
<path fill="none" stroke="#63b8ff" d="M336.81,-340.02C301.17,-332.59 254.11,-320.87 214.54,-304.5 181.93,-291.02 147.4,-269.36 125.45,-254.53"/>
<polygon fill="#63b8ff" stroke="#63b8ff" points="127.49,-251.69 117.27,-248.91 123.53,-257.46 127.49,-251.69"/>
</a>
</g>
</g>
<!-- Node17&#45;&gt;Node27 -->
<g id="edge46_Node000017_Node000027" class="edge">
<title>Node17&#45;&gt;Node27</title>
<g id="a_edge46_Node000017_Node000027"><a xlink:title=" ">
<path fill="none" stroke="#63b8ff" d="M435.44,-340.02C476.08,-330.9 536.67,-317.31 580.53,-307.47"/>
<polygon fill="#63b8ff" stroke="#63b8ff" points="581.11,-310.93 590.1,-305.32 579.57,-304.1 581.11,-310.93"/>
</a>
</g>
</g>
<!-- Node18&#45;&gt;Node13 -->
<g id="edge39_Node000018_Node000013" class="edge">
<title>Node18&#45;&gt;Node13</title>
<g id="a_edge39_Node000018_Node000013"><a xlink:title=" ">
<path fill="none" stroke="#63b8ff" d="M304.5,-283.34C330.57,-274.53 369.1,-261.5 398,-251.74"/>
<polygon fill="#63b8ff" stroke="#63b8ff" points="398.77,-255.17 407.12,-248.66 396.52,-248.54 398.77,-255.17"/>
</a>
</g>
</g>
<!-- Node19 -->
<g id="Node000019" class="node">
<title>Node19</title>
<g id="a_Node000019"><a xlink:href="eui48_8h.html" target="_top" xlink:title="Definition and IPv6 IID conversion for IEEE EUI&#45;48 identifiers.">
<polygon fill="white" stroke="#666666" points="306.91,-247.75 236.16,-247.75 236.16,-227 306.91,-227 306.91,-247.75"/>
<text text-anchor="middle" x="271.54" y="-234.25" font-family="Helvetica,sans-Serif" font-size="10.00">net/eui48.h</text>
</a>
</g>
</g>
<!-- Node18&#45;&gt;Node19 -->
<g id="edge27_Node000018_Node000019" class="edge">
<title>Node18&#45;&gt;Node19</title>
<g id="a_edge27_Node000018_Node000019"><a xlink:title=" ">
<path fill="none" stroke="#63b8ff" d="M274.82,-283.34C274.34,-276.72 273.68,-267.72 273.08,-259.52"/>
<polygon fill="#63b8ff" stroke="#63b8ff" points="276.58,-259.31 272.36,-249.59 269.59,-259.82 276.58,-259.31"/>
</a>
</g>
</g>
<!-- Node20 -->
<g id="Node000020" class="node">
<title>Node20</title>
<g id="a_Node000020"><a xlink:href="eui64_8h.html" target="_top" xlink:title="EUI&#45;64 data type definition.">
<polygon fill="white" stroke="#666666" points="243.91,-191 173.16,-191 173.16,-170.25 243.91,-170.25 243.91,-191"/>
<text text-anchor="middle" x="208.54" y="-177.5" font-family="Helvetica,sans-Serif" font-size="10.00">net/eui64.h</text>
</a>
</g>
</g>
<!-- Node18&#45;&gt;Node20 -->
<g id="edge38_Node000018_Node000020" class="edge">
<title>Node18&#45;&gt;Node20</title>
<g id="a_edge38_Node000018_Node000020"><a xlink:title=" ">
<path fill="none" stroke="#63b8ff" d="M261.83,-283.45C251.02,-275.15 236.36,-262.25 227.54,-247.75 219.08,-233.84 214.24,-216 211.56,-202.36"/>
<polygon fill="#63b8ff" stroke="#63b8ff" points="215.05,-202.01 209.93,-192.73 208.15,-203.18 215.05,-202.01"/>
</a>
</g>
</g>
<!-- Node19&#45;&gt;Node2 -->
<g id="edge28_Node000019_Node000002" class="edge">
<title>Node19&#45;&gt;Node2</title>
<g id="a_edge28_Node000019_Node000002"><a xlink:title=" ">
<path fill="none" stroke="#63b8ff" d="M271.53,-226.5C272.02,-197.07 277.31,-108.8 321.54,-56.75 337,-38.55 361.35,-27.22 381.9,-20.44"/>
<polygon fill="#63b8ff" stroke="#63b8ff" points="382.85,-23.81 391.41,-17.56 380.82,-17.11 382.85,-23.81"/>
</a>
</g>
</g>
<!-- Node19&#45;&gt;Node20 -->
<g id="edge29_Node000019_Node000020" class="edge">
<title>Node19&#45;&gt;Node20</title>
<g id="a_edge29_Node000019_Node000020"><a xlink:title=" ">
<path fill="none" stroke="#63b8ff" d="M260.27,-226.59C251.4,-218.88 238.82,-207.95 228.29,-198.79"/>
<polygon fill="#63b8ff" stroke="#63b8ff" points="230.69,-196.24 220.84,-192.32 226.1,-201.52 230.69,-196.24"/>
</a>
</g>
</g>
<!-- Node20&#45;&gt;Node2 -->
<g id="edge30_Node000020_Node000002" class="edge">
<title>Node20&#45;&gt;Node2</title>
<g id="a_edge30_Node000020_Node000002"><a xlink:title=" ">
<path fill="none" stroke="#63b8ff" d="M209.51,-170.01C212.37,-146.92 222.87,-87.92 257.54,-56.75 291.94,-25.83 345.77,-15.8 381.83,-12.65"/>
<polygon fill="#63b8ff" stroke="#63b8ff" points="381.63,-16.17 391.35,-11.96 381.13,-9.19 381.63,-16.17"/>
</a>
</g>
</g>
<!-- Node21 -->
<g id="Node000021" class="node">
<title>Node21</title>
<g id="a_Node000021"><a xlink:href="byteorder_8h.html" target="_top" xlink:title="Functions to work with different byte orders.">
<polygon fill="white" stroke="#666666" points="183.66,-134.25 111.41,-134.25 111.41,-113.5 183.66,-113.5 183.66,-134.25"/>
<text text-anchor="middle" x="147.54" y="-120.75" font-family="Helvetica,sans-Serif" font-size="10.00">byteorder.h</text>
</a>
</g>
</g>
<!-- Node20&#45;&gt;Node21 -->
<g id="edge31_Node000020_Node000021" class="edge">
<title>Node20&#45;&gt;Node21</title>
<g id="a_edge31_Node000020_Node000021"><a xlink:title=" ">
<path fill="none" stroke="#63b8ff" d="M197.63,-169.84C189.04,-162.13 176.86,-151.2 166.66,-142.04"/>
<polygon fill="#63b8ff" stroke="#63b8ff" points="169.25,-139.66 159.47,-135.59 164.58,-144.87 169.25,-139.66"/>
</a>
</g>
</g>
<!-- Node21&#45;&gt;Node2 -->
<g id="edge33_Node000021_Node000002" class="edge">
<title>Node21&#45;&gt;Node2</title>
<g id="a_edge33_Node000021_Node000002"><a xlink:title=" ">
<path fill="none" stroke="#63b8ff" d="M143.36,-113.02C138.07,-98.81 131.15,-72.52 144.54,-56.75 174.44,-21.51 312.84,-13.6 381.17,-11.85"/>
<polygon fill="#63b8ff" stroke="#63b8ff" points="381.24,-15.35 391.17,-11.63 381.09,-8.35 381.24,-15.35"/>
</a>
</g>
</g>
<!-- Node22 -->
<g id="Node000022" class="node">
<title>Node22</title>
<g id="a_Node000022"><a xlink:title=" ">
<polygon fill="#e0e0e0" stroke="#999999" points="205.91,-77.5 153.16,-77.5 153.16,-56.75 205.91,-56.75 205.91,-77.5"/>
<text text-anchor="middle" x="179.54" y="-64" font-family="Helvetica,sans-Serif" font-size="10.00">string.h</text>
</a>
</g>
</g>
<!-- Node21&#45;&gt;Node22 -->
<g id="edge32_Node000021_Node000022" class="edge">
<title>Node21&#45;&gt;Node22</title>
<g id="a_edge32_Node000021_Node000022"><a xlink:title=" ">
<path fill="none" stroke="#63b8ff" d="M153.26,-113.09C157.4,-106 163.13,-96.19 168.19,-87.54"/>
<polygon fill="#63b8ff" stroke="#63b8ff" points="171.08,-89.53 173.1,-79.14 165.03,-86 171.08,-89.53"/>
</a>
</g>
</g>
<!-- Node23 -->
<g id="Node000023" class="node">
<title>Node23</title>
<g id="a_Node000023"><a xlink:href="endian_8h.html" target="_top" xlink:title="libc header for endian conversion">
<polygon fill="white" stroke="#666666" points="617.54,-77.5 559.54,-77.5 559.54,-56.75 617.54,-56.75 617.54,-77.5"/>
<text text-anchor="middle" x="588.54" y="-64" font-family="Helvetica,sans-Serif" font-size="10.00">endian.h</text>
</a>
</g>
</g>
<!-- Node21&#45;&gt;Node23 -->
<g id="edge34_Node000021_Node000023" class="edge">
<title>Node21&#45;&gt;Node23</title>
<g id="a_edge34_Node000021_Node000023"><a xlink:title=" ">
<path fill="none" stroke="#63b8ff" d="M184,-118.35C265.6,-108.22 462.43,-83.78 547.85,-73.18"/>
<polygon fill="#63b8ff" stroke="#63b8ff" points="548.14,-76.67 557.64,-71.96 547.28,-69.72 548.14,-76.67"/>
</a>
</g>
</g>
<!-- Node24 -->
<g id="Node000024" class="node">
<title>Node24</title>
<g id="a_Node000024"><a xlink:href="unaligned_8h.html" target="_top" xlink:title="Unaligned but safe memory access functions.">
<polygon fill="white" stroke="#666666" points="97.04,-77.5 24.04,-77.5 24.04,-56.75 97.04,-56.75 97.04,-77.5"/>
<text text-anchor="middle" x="60.54" y="-64" font-family="Helvetica,sans-Serif" font-size="10.00">unaligned.h</text>
</a>
</g>
</g>
<!-- Node21&#45;&gt;Node24 -->
<g id="edge36_Node000021_Node000024" class="edge">
<title>Node21&#45;&gt;Node24</title>
<g id="a_edge36_Node000021_Node000024"><a xlink:title=" ">
<path fill="none" stroke="#63b8ff" d="M131.98,-113.09C119.12,-104.99 100.59,-93.33 85.63,-83.92"/>
<polygon fill="#63b8ff" stroke="#63b8ff" points="87.56,-81 77.24,-78.63 83.84,-86.92 87.56,-81"/>
</a>
</g>
</g>
<!-- Node23&#45;&gt;Node2 -->
<g id="edge35_Node000023_Node000002" class="edge">
<title>Node23&#45;&gt;Node2</title>
<g id="a_edge35_Node000023_Node000002"><a xlink:title=" ">
<path fill="none" stroke="#63b8ff" d="M559.1,-56.59C530.8,-47.42 487.9,-33.52 457.14,-23.56"/>
<polygon fill="#63b8ff" stroke="#63b8ff" points="458.44,-20.3 447.85,-20.55 456.28,-26.96 458.44,-20.3"/>
</a>
</g>
</g>
<!-- Node24&#45;&gt;Node2 -->
<g id="edge37_Node000024_Node000002" class="edge">
<title>Node24&#45;&gt;Node2</title>
<g id="a_edge37_Node000024_Node000002"><a xlink:title=" ">
<path fill="none" stroke="#63b8ff" d="M97.28,-59.21C102.07,-58.36 106.92,-57.51 111.54,-56.75 208.57,-40.69 323.27,-24.54 381.5,-16.54"/>
<polygon fill="#63b8ff" stroke="#63b8ff" points="381.78,-20.03 391.21,-15.21 380.83,-13.1 381.78,-20.03"/>
</a>
</g>
</g>
<!-- Node25&#45;&gt;Node2 -->
<g id="edge41_Node000025_Node000002" class="edge">
<title>Node25&#45;&gt;Node2</title>
<g id="a_edge41_Node000025_Node000002"><a xlink:title=" ">
<path fill="none" stroke="#63b8ff" d="M90.81,-226.74C57.15,-197.98 -34.3,-111.37 14.54,-56.75 38.76,-29.66 284.98,-16.83 381.25,-12.81"/>
<polygon fill="#63b8ff" stroke="#63b8ff" points="381.39,-16.31 391.24,-12.41 381.1,-9.32 381.39,-16.31"/>
</a>
</g>
</g>
<!-- Node25&#45;&gt;Node7 -->
<g id="edge45_Node000025_Node000007" class="edge">
<title>Node25&#45;&gt;Node7</title>
<g id="a_edge45_Node000025_Node000007"><a xlink:title=" ">
<path fill="none" stroke="#63b8ff" d="M97.24,-226.51C90.4,-212.28 80.91,-185.98 94.54,-170.25 128.86,-130.63 285.38,-124.81 364.07,-124.46"/>
<polygon fill="#63b8ff" stroke="#63b8ff" points="364.04,-127.96 374.04,-124.44 364.03,-120.96 364.04,-127.96"/>
</a>
</g>
</g>
<!-- Node25&#45;&gt;Node20 -->
<g id="edge44_Node000025_Node000020" class="edge">
<title>Node25&#45;&gt;Node20</title>
<g id="a_edge44_Node000025_Node000020"><a xlink:title=" ">
<path fill="none" stroke="#63b8ff" d="M121.49,-226.59C137.62,-218.26 161.04,-206.16 179.53,-196.61"/>
<polygon fill="#63b8ff" stroke="#63b8ff" points="181.13,-199.72 188.41,-192.02 177.91,-193.5 181.13,-199.72"/>
</a>
</g>
</g>
<!-- Node25&#45;&gt;Node21 -->
<g id="edge43_Node000025_Node000021" class="edge">
<title>Node25&#45;&gt;Node21</title>
<g id="a_edge43_Node000025_Node000021"><a xlink:title=" ">
<path fill="none" stroke="#63b8ff" d="M88.88,-226.56C72.7,-213.69 49.4,-190.38 61.54,-170.25 70.32,-155.69 85.51,-145.56 100.7,-138.63"/>
<polygon fill="#63b8ff" stroke="#63b8ff" points="101.83,-141.95 109.74,-134.9 99.17,-135.48 101.83,-141.95"/>
</a>
</g>
</g>
<!-- Node26 -->
<g id="Node000026" class="node">
<title>Node26</title>
<g id="a_Node000026"><a xlink:title=" ">
<polygon fill="#e0e0e0" stroke="#999999" points="155.54,-191 103.54,-191 103.54,-170.25 155.54,-170.25 155.54,-191"/>
<text text-anchor="middle" x="129.54" y="-177.5" font-family="Helvetica,sans-Serif" font-size="10.00">stdlib.h</text>
</a>
</g>
</g>
<!-- Node25&#45;&gt;Node26 -->
<g id="edge42_Node000025_Node000026" class="edge">
<title>Node25&#45;&gt;Node26</title>
<g id="a_edge42_Node000025_Node000026"><a xlink:title=" ">
<path fill="none" stroke="#63b8ff" d="M107.36,-226.59C110.78,-219.66 115.48,-210.12 119.68,-201.61"/>
<polygon fill="#63b8ff" stroke="#63b8ff" points="122.8,-203.2 124.08,-192.69 116.52,-200.11 122.8,-203.2"/>
</a>
</g>
</g>
<!-- Node27&#45;&gt;Node7 -->
<g id="edge48_Node000027_Node000007" class="edge">
<title>Node27&#45;&gt;Node7</title>
<g id="a_edge48_Node000027_Node000007"><a xlink:title=" ">
<path fill="none" stroke="#63b8ff" d="M594.88,-283.27C573.09,-276.31 547.02,-265.06 528.54,-247.75 500.4,-221.39 516.12,-198.19 489.54,-170.25 477.2,-157.28 460.32,-146.97 445.25,-139.47"/>
<polygon fill="#63b8ff" stroke="#63b8ff" points="447.09,-136.47 436.55,-135.38 444.11,-142.8 447.09,-136.47"/>
</a>
</g>
</g>
<!-- Node28 -->
<g id="Node000028" class="node">
<title>Node28</title>
<g id="a_Node000028"><a xlink:href="inttypes_8h.html" target="_top" xlink:title="Adds include for missing inttype definitions.">
<polygon fill="white" stroke="#666666" points="814.91,-247.75 750.16,-247.75 750.16,-227 814.91,-227 814.91,-247.75"/>
<text text-anchor="middle" x="782.54" y="-234.25" font-family="Helvetica,sans-Serif" font-size="10.00">inttypes.h</text>
</a>
</g>
</g>
<!-- Node27&#45;&gt;Node28 -->
<g id="edge47_Node000027_Node000028" class="edge">
<title>Node27&#45;&gt;Node28</title>
<g id="a_edge47_Node000027_Node000028"><a xlink:title=" ">
<path fill="none" stroke="#63b8ff" d="M661.82,-283.34C685.23,-274.62 719.73,-261.77 745.86,-252.04"/>
<polygon fill="#63b8ff" stroke="#63b8ff" points="746.92,-255.38 755.07,-248.61 744.47,-248.82 746.92,-255.38"/>
</a>
</g>
</g>
<!-- Node29 -->
<g id="Node000029" class="node">
<title>Node29</title>
<g id="a_Node000029"><a xlink:href="ethertype_8h.html" target="_top" xlink:title="Ether type definitions.">
<polygon fill="white" stroke="#666666" points="629.04,-247.75 538.04,-247.75 538.04,-227 629.04,-227 629.04,-247.75"/>
<text text-anchor="middle" x="583.54" y="-234.25" font-family="Helvetica,sans-Serif" font-size="10.00">net/ethertype.h</text>
</a>
</g>
</g>
<!-- Node27&#45;&gt;Node29 -->
<g id="edge49_Node000027_Node000029" class="edge">
<title>Node27&#45;&gt;Node29</title>
<g id="a_edge49_Node000027_Node000029"><a xlink:title=" ">
<path fill="none" stroke="#63b8ff" d="M626.24,-283.34C619.14,-275.86 609.16,-265.36 600.64,-256.38"/>
<polygon fill="#63b8ff" stroke="#63b8ff" points="603.22,-254.02 593.8,-249.18 598.14,-258.84 603.22,-254.02"/>
</a>
</g>
</g>
<!-- Node30 -->
<g id="Node000030" class="node">
<title>Node30</title>
<g id="a_Node000030"><a xlink:href="protnum_8h.html" target="_top" xlink:title="Protocol number definitions.">
<polygon fill="white" stroke="#666666" points="732.04,-247.75 647.04,-247.75 647.04,-227 732.04,-227 732.04,-247.75"/>
<text text-anchor="middle" x="689.54" y="-234.25" font-family="Helvetica,sans-Serif" font-size="10.00">net/protnum.h</text>
</a>
</g>
</g>
<!-- Node27&#45;&gt;Node30 -->
<g id="edge50_Node000027_Node000030" class="edge">
<title>Node27&#45;&gt;Node30</title>
<g id="a_edge50_Node000027_Node000030"><a xlink:title=" ">
<path fill="none" stroke="#63b8ff" d="M645.19,-283.34C652.64,-275.78 663.14,-265.14 672.06,-256.1"/>
<polygon fill="#63b8ff" stroke="#63b8ff" points="674.37,-258.73 678.9,-249.16 669.39,-253.82 674.37,-258.73"/>
</a>
</g>
</g>
<!-- Node31&#45;&gt;Node2 -->
<g id="edge59_Node000031_Node000002" class="edge">
<title>Node31&#45;&gt;Node2</title>
<g id="a_edge59_Node000031_Node000002"><a xlink:title=" ">
<path fill="none" stroke="#63b8ff" d="M963.87,-170.2C966.68,-156.51 969.76,-130.88 958.54,-113.5 928.26,-66.63 900.05,-72.57 846.54,-56.75 707.42,-15.63 533.08,-10.8 457.45,-10.86"/>
<polygon fill="#63b8ff" stroke="#63b8ff" points="457.67,-7.36 447.69,-10.9 457.7,-14.36 457.67,-7.36"/>
</a>
</g>
</g>
<!-- Node31&#45;&gt;Node4 -->
<g id="edge57_Node000031_Node000004" class="edge">
<title>Node31&#45;&gt;Node4</title>
<g id="a_edge57_Node000031_Node000004"><a xlink:title=" ">
<path fill="none" stroke="#63b8ff" d="M932.04,-169.84C905.49,-161.03 866.24,-148 836.81,-138.24"/>
<polygon fill="#63b8ff" stroke="#63b8ff" points="838.09,-134.97 827.49,-135.15 835.88,-141.62 838.09,-134.97"/>
</a>
</g>
</g>
<!-- Node31&#45;&gt;Node12 -->
<g id="edge58_Node000031_Node000012" class="edge">
<title>Node31&#45;&gt;Node12</title>
<g id="a_edge58_Node000031_Node000012"><a xlink:title=" ">
<path fill="none" stroke="#63b8ff" d="M960.63,-170.17C958.78,-155.99 953.29,-129.18 937.54,-113.5 914.01,-90.09 877.6,-78.69 849.79,-73.18"/>
<polygon fill="#63b8ff" stroke="#63b8ff" points="850.4,-69.74 839.95,-71.43 849.18,-76.63 850.4,-69.74"/>
</a>
</g>
</g>
<!-- Node31&#45;&gt;Node14 -->
<g id="edge56_Node000031_Node000014" class="edge">
<title>Node31&#45;&gt;Node14</title>
<g id="a_edge56_Node000031_Node000014"><a xlink:title=" ">
<path fill="none" stroke="#63b8ff" d="M945.27,-169.84C931.68,-161.66 912.06,-149.86 896.34,-140.4"/>
<polygon fill="#63b8ff" stroke="#63b8ff" points="898.34,-137.52 887.96,-135.36 894.73,-143.51 898.34,-137.52"/>
</a>
</g>
</g>
<!-- Node31&#45;&gt;Node23 -->
<g id="edge55_Node000031_Node000023" class="edge">
<title>Node31&#45;&gt;Node23</title>
<g id="a_edge55_Node000031_Node000023"><a xlink:title=" ">
<path fill="none" stroke="#63b8ff" d="M956.35,-170.05C947.74,-155.19 929,-126.89 904.54,-113.5 857.87,-87.95 703.49,-75.2 629.19,-70.42"/>
<polygon fill="#63b8ff" stroke="#63b8ff" points="629.69,-66.95 619.49,-69.82 629.25,-73.94 629.69,-66.95"/>
</a>
</g>
</g>
<!-- Node32 -->
<g id="Node000032" class="node">
<title>Node32</title>
<g id="a_Node000032"><a xlink:title=" ">
<polygon fill="#e0e0e0" stroke="#999999" points="1113.66,-77.5 1035.41,-77.5 1035.41,-56.75 1113.66,-56.75 1113.66,-77.5"/>
<text text-anchor="middle" x="1074.54" y="-64" font-family="Helvetica,sans-Serif" font-size="10.00">periph_cpu.h</text>
</a>
</g>
</g>
<!-- Node31&#45;&gt;Node32 -->
<g id="edge60_Node000031_Node000032" class="edge">
<title>Node31&#45;&gt;Node32</title>
<g id="a_edge60_Node000031_Node000032"><a xlink:title=" ">
<path fill="none" stroke="#63b8ff" d="M979.64,-169.84C993.93,-161.57 1013.84,-148.76 1028.54,-134.25 1042.65,-120.31 1055.25,-101.52 1063.67,-87.53"/>
<polygon fill="#63b8ff" stroke="#63b8ff" points="1066.49,-89.64 1068.5,-79.24 1060.44,-86.12 1066.49,-89.64"/>
</a>
</g>
</g>
<!-- Node33 -->
<g id="Node000033" class="node">
<title>Node33</title>
<g id="a_Node000033"><a xlink:title=" ">
<polygon fill="#e0e0e0" stroke="#999999" points="1017.16,-77.5 935.91,-77.5 935.91,-56.75 1017.16,-56.75 1017.16,-77.5"/>
<text text-anchor="middle" x="976.54" y="-64" font-family="Helvetica,sans-Serif" font-size="10.00">periph_conf.h</text>
</a>
</g>
</g>
<!-- Node31&#45;&gt;Node33 -->
<g id="edge61_Node000031_Node000033" class="edge">
<title>Node31&#45;&gt;Node33</title>
<g id="a_edge61_Node000031_Node000033"><a xlink:title=" ">
<path fill="none" stroke="#63b8ff" d="M979.1,-169.86C991.27,-162.01 1006.5,-149.74 1013.54,-134.25 1021.31,-117.16 1008.91,-98.57 996.42,-85.47"/>
<polygon fill="#63b8ff" stroke="#63b8ff" points="999.12,-83.21 989.5,-78.77 994.25,-88.24 999.12,-83.21"/>
</a>
</g>
</g>
<!-- Node31&#45;&gt;Node34 -->
<g id="edge62_Node000031_Node000034" class="edge">
<title>Node31&#45;&gt;Node34</title>
<g id="a_edge62_Node000031_Node000034"><a xlink:title=" ">
<path fill="none" stroke="#63b8ff" d="M994.07,-169.84C1023.62,-160.95 1067.41,-147.77 1099.97,-137.98"/>
<polygon fill="#63b8ff" stroke="#63b8ff" points="1100.96,-141.34 1109.52,-135.11 1098.94,-134.64 1100.96,-141.34"/>
</a>
</g>
</g>
<!-- Node34&#45;&gt;Node32 -->
<g id="edge64_Node000034_Node000032" class="edge">
<title>Node34&#45;&gt;Node32</title>
<g id="a_edge64_Node000034_Node000032"><a xlink:title=" ">
<path fill="none" stroke="#63b8ff" d="M1131.2,-113.09C1121.29,-105.22 1107.15,-94 1095.47,-84.74"/>
<polygon fill="#63b8ff" stroke="#63b8ff" points="1097.96,-82.24 1087.95,-78.77 1093.61,-87.73 1097.96,-82.24"/>
</a>
</g>
</g>
<!-- Node34&#45;&gt;Node33 -->
<g id="edge65_Node000034_Node000033" class="edge">
<title>Node34&#45;&gt;Node33</title>
<g id="a_edge65_Node000034_Node000033"><a xlink:title=" ">
<path fill="none" stroke="#63b8ff" d="M1113.68,-113.09C1086.81,-104.28 1047.09,-91.25 1017.3,-81.49"/>
<polygon fill="#63b8ff" stroke="#63b8ff" points="1018.45,-78.18 1007.85,-78.39 1016.27,-84.83 1018.45,-78.18"/>
</a>
</g>
</g>
<!-- Node35 -->
<g id="Node000035" class="node">
<title>Node35</title>
<g id="a_Node000035"><a xlink:title=" ">
<polygon fill="#e0e0e0" stroke="#999999" points="1184.91,-77.5 1132.16,-77.5 1132.16,-56.75 1184.91,-56.75 1184.91,-77.5"/>
<text text-anchor="middle" x="1158.54" y="-64" font-family="Helvetica,sans-Serif" font-size="10.00">limits.h</text>
</a>
</g>
</g>
<!-- Node34&#45;&gt;Node35 -->
<g id="edge63_Node000034_Node000035" class="edge">
<title>Node34&#45;&gt;Node35</title>
<g id="a_edge63_Node000034_Node000035"><a xlink:title=" ">
<path fill="none" stroke="#63b8ff" d="M1146.22,-113.09C1148.07,-106.31 1150.61,-97.05 1152.9,-88.69"/>
<polygon fill="#63b8ff" stroke="#63b8ff" points="1156.21,-89.86 1155.48,-79.29 1149.46,-88.01 1156.21,-89.86"/>
</a>
</g>
</g>
<!-- Node36&#45;&gt;Node3 -->
<g id="edge68_Node000036_Node000003" class="edge">
<title>Node36&#45;&gt;Node3</title>
<g id="a_edge68_Node000036_Node000003"><a xlink:title=" ">
<path fill="none" stroke="#63b8ff" d="M933.8,-453.59C920.66,-445.41 901.69,-433.61 886.48,-424.15"/>
<polygon fill="#63b8ff" stroke="#63b8ff" points="888.76,-421.44 878.42,-419.13 885.06,-427.38 888.76,-421.44"/>
</a>
</g>
</g>
</g>
</svg>
