<?xml version="1.0" encoding="UTF-8" standalone="no"?>
<!DOCTYPE svg PUBLIC "-//W3C//DTD SVG 1.1//EN"
 "http://www.w3.org/Graphics/SVG/1.1/DTD/svg11.dtd">
<!-- Generated by graphviz version 12.1.2 (0)
 -->
<!-- Title: drivers/include/at.h Pages: 1 -->
<svg width="1825pt" height="540pt"
 viewBox="0.00 0.00 1825.38 539.50" xmlns="http://www.w3.org/2000/svg" xmlns:xlink="http://www.w3.org/1999/xlink">
<g id="graph0" class="graph" transform="scale(1 1) rotate(0) translate(4 535.5)">
<title>drivers/include/at.h</title>
<!-- Node1 -->
<g id="Node000001" class="node">
<title>Node1</title>
<g id="a_Node000001"><a xlink:title="AT (Hayes) library interface.">
<polygon fill="#999999" stroke="#666666" points="1095.88,-531.5 986.12,-531.5 986.12,-510.75 1095.88,-510.75 1095.88,-531.5"/>
<text text-anchor="middle" x="1041" y="-518" font-family="Helvetica,sans-Serif" font-size="10.00">drivers/include/at.h</text>
</a>
</g>
</g>
<!-- Node2 -->
<g id="Node000002" class="node">
<title>Node2</title>
<g id="a_Node000002"><a xlink:title=" ">
<polygon fill="#e0e0e0" stroke="#999999" points="468.38,-20.75 415.62,-20.75 415.62,0 468.38,0 468.38,-20.75"/>
<text text-anchor="middle" x="442" y="-7.25" font-family="Helvetica,sans-Serif" font-size="10.00">stdint.h</text>
</a>
</g>
</g>
<!-- Node1&#45;&gt;Node2 -->
<g id="edge1_Node000001_Node000002" class="edge">
<title>Node1&#45;&gt;Node2</title>
<g id="a_edge1_Node000001_Node000002"><a xlink:title=" ">
<path fill="none" stroke="#63b8ff" d="M1096.2,-517.09C1260.81,-507.31 1737,-473.41 1737,-408.62 1737,-408.62 1737,-408.62 1737,-122.88 1737,12.36 1574.05,-74.58 1440,-56.75 1249.19,-31.37 638.98,-15.89 480.11,-12.22"/>
<polygon fill="#63b8ff" stroke="#63b8ff" points="480.22,-8.72 470.14,-11.99 480.06,-15.72 480.22,-8.72"/>
</a>
</g>
</g>
<!-- Node3 -->
<g id="Node000003" class="node">
<title>Node3</title>
<g id="a_Node000003"><a xlink:title=" ">
<polygon fill="#e0e0e0" stroke="#999999" points="919.5,-134.25 858.5,-134.25 858.5,-113.5 919.5,-113.5 919.5,-134.25"/>
<text text-anchor="middle" x="889" y="-120.75" font-family="Helvetica,sans-Serif" font-size="10.00">stdbool.h</text>
</a>
</g>
</g>
<!-- Node1&#45;&gt;Node3 -->
<g id="edge2_Node000001_Node000003" class="edge">
<title>Node1&#45;&gt;Node3</title>
<g id="a_edge2_Node000001_Node000003"><a xlink:title=" ">
<path fill="none" stroke="#63b8ff" d="M1041,-510.28C1041,-490.85 1041,-446.18 1041,-408.62 1041,-408.62 1041,-408.62 1041,-293.12 1041,-220.78 962.67,-165.6 918.47,-140.22"/>
<polygon fill="#63b8ff" stroke="#63b8ff" points="920.32,-137.25 909.88,-135.44 916.92,-143.36 920.32,-137.25"/>
</a>
</g>
</g>
<!-- Node4 -->
<g id="Node000004" class="node">
<title>Node4</title>
<g id="a_Node000004"><a xlink:href="isrpipe_8h.html" target="_top" xlink:title="isrpipe Interface">
<polygon fill="white" stroke="#666666" points="284,-474.75 226,-474.75 226,-454 284,-454 284,-474.75"/>
<text text-anchor="middle" x="255" y="-461.25" font-family="Helvetica,sans-Serif" font-size="10.00">isrpipe.h</text>
</a>
</g>
</g>
<!-- Node1&#45;&gt;Node4 -->
<g id="edge3_Node000001_Node000004" class="edge">
<title>Node1&#45;&gt;Node4</title>
<g id="a_edge3_Node000001_Node000004"><a xlink:title=" ">
<path fill="none" stroke="#63b8ff" d="M985.96,-516.83C870.35,-509.84 593.76,-492.64 362,-474.75 339.93,-473.05 315.32,-470.91 295.27,-469.1"/>
<polygon fill="#63b8ff" stroke="#63b8ff" points="295.83,-465.64 285.56,-468.22 295.2,-472.61 295.83,-465.64"/>
</a>
</g>
</g>
<!-- Node11 -->
<g id="Node000011" class="node">
<title>Node11</title>
<g id="a_Node000011"><a xlink:href="kernel__defines_8h.html" target="_top" xlink:title="Common macros and compiler attributes/pragmas configuration.">
<polygon fill="white" stroke="#666666" points="428.12,-191 331.88,-191 331.88,-170.25 428.12,-170.25 428.12,-191"/>
<text text-anchor="middle" x="380" y="-177.5" font-family="Helvetica,sans-Serif" font-size="10.00">kernel_defines.h</text>
</a>
</g>
</g>
<!-- Node1&#45;&gt;Node11 -->
<g id="edge62_Node000001_Node000011" class="edge">
<title>Node1&#45;&gt;Node11</title>
<g id="a_edge62_Node000001_Node000011"><a xlink:title=" ">
<path fill="none" stroke="#63b8ff" d="M985.73,-516.67C826.15,-505.95 376,-470.27 376,-408.62 376,-408.62 376,-408.62 376,-293.12 376,-261.71 377.61,-225.35 378.78,-202.92"/>
<polygon fill="#63b8ff" stroke="#63b8ff" points="382.27,-203.15 379.33,-192.98 375.28,-202.77 382.27,-203.15"/>
</a>
</g>
</g>
<!-- Node19 -->
<g id="Node000019" class="node">
<title>Node19</title>
<g id="a_Node000019"><a xlink:href="clist_8h.html" target="_top" xlink:title="Circular linked list.">
<polygon fill="white" stroke="#666666" points="753.62,-191 708.38,-191 708.38,-170.25 753.62,-170.25 753.62,-191"/>
<text text-anchor="middle" x="731" y="-177.5" font-family="Helvetica,sans-Serif" font-size="10.00">clist.h</text>
</a>
</g>
</g>
<!-- Node1&#45;&gt;Node19 -->
<g id="edge61_Node000001_Node000019" class="edge">
<title>Node1&#45;&gt;Node19</title>
<g id="a_edge61_Node000001_Node000019"><a xlink:title=" ">
<path fill="none" stroke="#63b8ff" d="M1038.15,-510.34C1027.56,-475.46 987.43,-355.53 917,-283.75 873.02,-238.92 805.13,-208.51 764.68,-193.2"/>
<polygon fill="#63b8ff" stroke="#63b8ff" points="766.06,-189.97 755.46,-189.8 763.64,-196.54 766.06,-189.97"/>
</a>
</g>
</g>
<!-- Node29 -->
<g id="Node000029" class="node">
<title>Node29</title>
<g id="a_Node000029"><a xlink:href="drivers_2include_2periph_2uart_8h.html" target="_top" xlink:title="Low&#45;level UART peripheral driver interface definition.">
<polygon fill="white" stroke="#666666" points="1489.12,-247.75 1410.88,-247.75 1410.88,-227 1489.12,-227 1489.12,-247.75"/>
<text text-anchor="middle" x="1450" y="-234.25" font-family="Helvetica,sans-Serif" font-size="10.00">periph/uart.h</text>
</a>
</g>
</g>
<!-- Node1&#45;&gt;Node29 -->
<g id="edge54_Node000001_Node000029" class="edge">
<title>Node1&#45;&gt;Node29</title>
<g id="a_edge54_Node000001_Node000029"><a xlink:title=" ">
<path fill="none" stroke="#63b8ff" d="M1096.37,-513.95C1194.33,-501.46 1388,-469.13 1388,-408.62 1388,-408.62 1388,-408.62 1388,-349.88 1388,-313.19 1413.95,-277.3 1432.28,-256.53"/>
<polygon fill="#63b8ff" stroke="#63b8ff" points="1434.81,-258.95 1439.01,-249.22 1429.66,-254.2 1434.81,-258.95"/>
</a>
</g>
</g>
<!-- Node33 -->
<g id="Node000033" class="node">
<title>Node33</title>
<g id="a_Node000033"><a xlink:title=" ">
<polygon fill="#e0e0e0" stroke="#999999" points="1817.38,-474.75 1764.62,-474.75 1764.62,-454 1817.38,-454 1817.38,-474.75"/>
<text text-anchor="middle" x="1791" y="-461.25" font-family="Helvetica,sans-Serif" font-size="10.00">event.h</text>
</a>
</g>
</g>
<!-- Node1&#45;&gt;Node33 -->
<g id="edge63_Node000001_Node000033" class="edge">
<title>Node1&#45;&gt;Node33</title>
<g id="a_edge63_Node000001_Node000033"><a xlink:title=" ">
<path fill="none" stroke="#63b8ff" d="M1096.11,-519.72C1215.91,-518.15 1508.77,-510.62 1751,-474.75 1751.82,-474.63 1752.65,-474.5 1753.48,-474.36"/>
<polygon fill="#63b8ff" stroke="#63b8ff" points="1753.8,-477.87 1762.95,-472.54 1752.47,-470.99 1753.8,-477.87"/>
</a>
</g>
</g>
<!-- Node4&#45;&gt;Node2 -->
<g id="edge4_Node000004_Node000002" class="edge">
<title>Node4&#45;&gt;Node2</title>
<g id="a_edge4_Node000004_Node000002"><a xlink:title=" ">
<path fill="none" stroke="#63b8ff" d="M225.75,-463.61C158.77,-462.47 0,-449.48 0,-351.88 0,-351.88 0,-351.88 0,-122.88 0,-39.82 297.09,-18.01 404.14,-12.84"/>
<polygon fill="#63b8ff" stroke="#63b8ff" points="404,-16.35 413.83,-12.4 403.68,-9.36 404,-16.35"/>
</a>
</g>
</g>
<!-- Node5 -->
<g id="Node000005" class="node">
<title>Node5</title>
<g id="a_Node000005"><a xlink:href="mutex_8h.html" target="_top" xlink:title="Mutex for thread synchronization.">
<polygon fill="white" stroke="#666666" points="632.25,-418 575.75,-418 575.75,-397.25 632.25,-397.25 632.25,-418"/>
<text text-anchor="middle" x="604" y="-404.5" font-family="Helvetica,sans-Serif" font-size="10.00">mutex.h</text>
</a>
</g>
</g>
<!-- Node4&#45;&gt;Node5 -->
<g id="edge5_Node000004_Node000005" class="edge">
<title>Node4&#45;&gt;Node5</title>
<g id="a_edge5_Node000004_Node000005"><a xlink:title=" ">
<path fill="none" stroke="#63b8ff" d="M284.45,-458.75C347.19,-448.91 494.02,-425.88 564.66,-414.8"/>
<polygon fill="#63b8ff" stroke="#63b8ff" points="564.89,-418.3 574.23,-413.3 563.81,-411.39 564.89,-418.3"/>
</a>
</g>
</g>
<!-- Node27 -->
<g id="Node000027" class="node">
<title>Node27</title>
<g id="a_Node000027"><a xlink:href="tsrb_8h.html" target="_top" xlink:title="Thread&#45;safe ringbuffer interface definition.">
<polygon fill="white" stroke="#666666" points="94.88,-247.75 51.12,-247.75 51.12,-227 94.88,-227 94.88,-247.75"/>
<text text-anchor="middle" x="73" y="-234.25" font-family="Helvetica,sans-Serif" font-size="10.00">tsrb.h</text>
</a>
</g>
</g>
<!-- Node4&#45;&gt;Node27 -->
<g id="edge47_Node000004_Node000027" class="edge">
<title>Node4&#45;&gt;Node27</title>
<g id="a_edge47_Node000004_Node000027"><a xlink:title=" ">
<path fill="none" stroke="#63b8ff" d="M247.18,-453.71C219.35,-419.31 124.84,-302.46 87.94,-256.84"/>
<polygon fill="#63b8ff" stroke="#63b8ff" points="90.75,-254.76 81.74,-249.18 85.31,-259.16 90.75,-254.76"/>
</a>
</g>
</g>
<!-- Node5&#45;&gt;Node2 -->
<g id="edge7_Node000005_Node000002" class="edge">
<title>Node5&#45;&gt;Node2</title>
<g id="a_edge7_Node000005_Node000002"><a xlink:title=" ">
<path fill="none" stroke="#63b8ff" d="M632.56,-405.05C762.2,-397.52 1289,-362.75 1289,-295.12 1289,-295.12 1289,-295.12 1289,-122.88 1289,-40.13 645.34,-16.92 480.23,-12.32"/>
<polygon fill="#63b8ff" stroke="#63b8ff" points="480.35,-8.83 470.26,-12.05 480.16,-15.82 480.35,-8.83"/>
</a>
</g>
</g>
<!-- Node5&#45;&gt;Node3 -->
<g id="edge8_Node000005_Node000003" class="edge">
<title>Node5&#45;&gt;Node3</title>
<g id="a_edge8_Node000005_Node000003"><a xlink:title=" ">
<path fill="none" stroke="#63b8ff" d="M632.74,-407.39C696.59,-407.31 849.86,-397.03 917,-304.5 952.44,-255.65 919.32,-179.56 900.28,-144.18"/>
<polygon fill="#63b8ff" stroke="#63b8ff" points="903.59,-142.92 895.66,-135.9 897.48,-146.34 903.59,-142.92"/>
</a>
</g>
</g>
<!-- Node6 -->
<g id="Node000006" class="node">
<title>Node6</title>
<g id="a_Node000006"><a xlink:title=" ">
<polygon fill="#e0e0e0" stroke="#999999" points="612.5,-77.5 557.5,-77.5 557.5,-56.75 612.5,-56.75 612.5,-77.5"/>
<text text-anchor="middle" x="585" y="-64" font-family="Helvetica,sans-Serif" font-size="10.00">stddef.h</text>
</a>
</g>
</g>
<!-- Node5&#45;&gt;Node6 -->
<g id="edge6_Node000005_Node000006" class="edge">
<title>Node5&#45;&gt;Node6</title>
<g id="a_edge6_Node000005_Node000006"><a xlink:title=" ">
<path fill="none" stroke="#63b8ff" d="M587.19,-397.01C560.16,-380.14 510,-342.47 510,-295.12 510,-295.12 510,-295.12 510,-236.38 510,-180.46 509.47,-162.16 537,-113.5 543.12,-102.69 552.66,-92.9 561.63,-85.2"/>
<polygon fill="#63b8ff" stroke="#63b8ff" points="563.82,-87.93 569.42,-78.94 559.43,-82.48 563.82,-87.93"/>
</a>
</g>
</g>
<!-- Node7 -->
<g id="Node000007" class="node">
<title>Node7</title>
<g id="a_Node000007"><a xlink:href="architecture_8h.html" target="_top" xlink:title="Platform&#45;independent access to architecture details.">
<polygon fill="white" stroke="#666666" points="1209.75,-247.75 1126.25,-247.75 1126.25,-227 1209.75,-227 1209.75,-247.75"/>
<text text-anchor="middle" x="1168" y="-234.25" font-family="Helvetica,sans-Serif" font-size="10.00">architecture.h</text>
</a>
</g>
</g>
<!-- Node5&#45;&gt;Node7 -->
<g id="edge9_Node000005_Node000007" class="edge">
<title>Node5&#45;&gt;Node7</title>
<g id="a_edge9_Node000005_Node000007"><a xlink:title=" ">
<path fill="none" stroke="#63b8ff" d="M632.73,-406.22C691.89,-404.65 830.98,-397.1 941,-361.25 1020.76,-335.26 1105.26,-281.57 1144.91,-254.6"/>
<polygon fill="#63b8ff" stroke="#63b8ff" points="1146.71,-257.6 1152.97,-249.05 1142.75,-251.84 1146.71,-257.6"/>
</a>
</g>
</g>
<!-- Node5&#45;&gt;Node11 -->
<g id="edge14_Node000005_Node000011" class="edge">
<title>Node5&#45;&gt;Node11</title>
<g id="a_edge14_Node000005_Node000011"><a xlink:title=" ">
<path fill="none" stroke="#63b8ff" d="M575.47,-400.2C551.89,-393.69 518.71,-381.62 496,-361.25 466.67,-334.95 474.04,-317.05 453,-283.75 433.98,-253.65 409.5,-220.37 394.28,-200.23"/>
<polygon fill="#63b8ff" stroke="#63b8ff" points="397.19,-198.27 388.34,-192.43 391.61,-202.51 397.19,-198.27"/>
</a>
</g>
</g>
<!-- Node17 -->
<g id="Node000017" class="node">
<title>Node17</title>
<g id="a_Node000017"><a xlink:href="list_8h.html" target="_top" xlink:title="Intrusive linked list.">
<polygon fill="white" stroke="#666666" points="710,-134.25 670,-134.25 670,-113.5 710,-113.5 710,-134.25"/>
<text text-anchor="middle" x="690" y="-120.75" font-family="Helvetica,sans-Serif" font-size="10.00">list.h</text>
</a>
</g>
</g>
<!-- Node5&#45;&gt;Node17 -->
<g id="edge25_Node000005_Node000017" class="edge">
<title>Node5&#45;&gt;Node17</title>
<g id="a_edge25_Node000005_Node000017"><a xlink:title=" ">
<path fill="none" stroke="#63b8ff" d="M601.82,-396.89C597.51,-375.88 589.11,-324.85 599,-283.75 612.51,-227.63 652.64,-171.19 674.83,-143.12"/>
<polygon fill="#63b8ff" stroke="#63b8ff" points="677.34,-145.57 680.9,-135.59 671.9,-141.17 677.34,-145.57"/>
</a>
</g>
</g>
<!-- Node18 -->
<g id="Node000018" class="node">
<title>Node18</title>
<g id="a_Node000018"><a xlink:href="core_2include_2thread_8h.html" target="_top" xlink:title="Threading API.">
<polygon fill="white" stroke="#666666" points="688.25,-361.25 631.75,-361.25 631.75,-340.5 688.25,-340.5 688.25,-361.25"/>
<text text-anchor="middle" x="660" y="-347.75" font-family="Helvetica,sans-Serif" font-size="10.00">thread.h</text>
</a>
</g>
</g>
<!-- Node5&#45;&gt;Node18 -->
<g id="edge26_Node000005_Node000018" class="edge">
<title>Node5&#45;&gt;Node18</title>
<g id="a_edge26_Node000005_Node000018"><a xlink:title=" ">
<path fill="none" stroke="#63b8ff" d="M614.01,-396.84C621.74,-389.28 632.63,-378.64 641.87,-369.6"/>
<polygon fill="#63b8ff" stroke="#63b8ff" points="644.29,-372.13 648.99,-362.64 639.4,-367.12 644.29,-372.13"/>
</a>
</g>
</g>
<!-- Node7&#45;&gt;Node2 -->
<g id="edge10_Node000007_Node000002" class="edge">
<title>Node7&#45;&gt;Node2</title>
<g id="a_edge10_Node000007_Node000002"><a xlink:title=" ">
<path fill="none" stroke="#63b8ff" d="M1189.98,-226.67C1213.58,-214.78 1245.94,-193.37 1232,-170.25 1176.21,-77.71 1120.78,-86.84 1017,-56.75 915.62,-27.35 591.27,-15.6 479.94,-12.37"/>
<polygon fill="#63b8ff" stroke="#63b8ff" points="480.24,-8.88 470.15,-12.09 480.05,-15.87 480.24,-8.88"/>
</a>
</g>
</g>
<!-- Node8 -->
<g id="Node000008" class="node">
<title>Node8</title>
<g id="a_Node000008"><a xlink:href="inttypes_8h.html" target="_top" xlink:title="Adds include for missing inttype definitions.">
<polygon fill="white" stroke="#666666" points="1095.38,-191 1030.62,-191 1030.62,-170.25 1095.38,-170.25 1095.38,-191"/>
<text text-anchor="middle" x="1063" y="-177.5" font-family="Helvetica,sans-Serif" font-size="10.00">inttypes.h</text>
</a>
</g>
</g>
<!-- Node7&#45;&gt;Node8 -->
<g id="edge11_Node000007_Node000008" class="edge">
<title>Node7&#45;&gt;Node8</title>
<g id="a_edge11_Node000007_Node000008"><a xlink:title=" ">
<path fill="none" stroke="#63b8ff" d="M1149.23,-226.59C1133.25,-218.26 1110.05,-206.16 1091.74,-196.61"/>
<polygon fill="#63b8ff" stroke="#63b8ff" points="1093.44,-193.55 1082.95,-192.03 1090.2,-199.76 1093.44,-193.55"/>
</a>
</g>
</g>
<!-- Node9 -->
<g id="Node000009" class="node">
<title>Node9</title>
<g id="a_Node000009"><a xlink:title=" ">
<polygon fill="#e0e0e0" stroke="#999999" points="1369.38,-191 1316.62,-191 1316.62,-170.25 1369.38,-170.25 1369.38,-191"/>
<text text-anchor="middle" x="1343" y="-177.5" font-family="Helvetica,sans-Serif" font-size="10.00">limits.h</text>
</a>
</g>
</g>
<!-- Node7&#45;&gt;Node9 -->
<g id="edge12_Node000007_Node000009" class="edge">
<title>Node7&#45;&gt;Node9</title>
<g id="a_edge12_Node000007_Node000009"><a xlink:title=" ">
<path fill="none" stroke="#63b8ff" d="M1199.29,-226.59C1229.1,-217.26 1274.01,-203.21 1305.68,-193.3"/>
<polygon fill="#63b8ff" stroke="#63b8ff" points="1306.34,-196.76 1314.84,-190.44 1304.25,-190.08 1306.34,-196.76"/>
</a>
</g>
</g>
<!-- Node10 -->
<g id="Node000010" class="node">
<title>Node10</title>
<g id="a_Node000010"><a xlink:title=" ">
<polygon fill="#e0e0e0" stroke="#999999" points="1222.88,-191 1113.12,-191 1113.12,-170.25 1222.88,-170.25 1222.88,-191"/>
<text text-anchor="middle" x="1168" y="-177.5" font-family="Helvetica,sans-Serif" font-size="10.00">architecture_arch.h</text>
</a>
</g>
</g>
<!-- Node7&#45;&gt;Node10 -->
<g id="edge13_Node000007_Node000010" class="edge">
<title>Node7&#45;&gt;Node10</title>
<g id="a_edge13_Node000007_Node000010"><a xlink:title=" ">
<path fill="none" stroke="#63b8ff" d="M1168,-226.59C1168,-219.97 1168,-210.97 1168,-202.77"/>
<polygon fill="#63b8ff" stroke="#63b8ff" points="1171.5,-202.84 1168,-192.84 1164.5,-202.84 1171.5,-202.84"/>
</a>
</g>
</g>
<!-- Node12 -->
<g id="Node000012" class="node">
<title>Node12</title>
<g id="a_Node000012"><a xlink:href="modules_8h.html" target="_top" xlink:title="Common macros and compiler attributes/pragmas configuration.">
<polygon fill="white" stroke="#666666" points="413.5,-134.25 346.5,-134.25 346.5,-113.5 413.5,-113.5 413.5,-134.25"/>
<text text-anchor="middle" x="380" y="-120.75" font-family="Helvetica,sans-Serif" font-size="10.00">modules.h</text>
</a>
</g>
</g>
<!-- Node11&#45;&gt;Node12 -->
<g id="edge15_Node000011_Node000012" class="edge">
<title>Node11&#45;&gt;Node12</title>
<g id="a_edge15_Node000011_Node000012"><a xlink:title=" ">
<path fill="none" stroke="#63b8ff" d="M380,-169.84C380,-163.22 380,-154.22 380,-146.02"/>
<polygon fill="#63b8ff" stroke="#63b8ff" points="383.5,-146.09 380,-136.09 376.5,-146.09 383.5,-146.09"/>
</a>
</g>
</g>
<!-- Node13 -->
<g id="Node000013" class="node">
<title>Node13</title>
<g id="a_Node000013"><a xlink:href="riot__version_8h.html" target="_top" xlink:title="Common macros and compiler attributes/pragmas configuration.">
<polygon fill="white" stroke="#666666" points="483.38,-77.5 400.62,-77.5 400.62,-56.75 483.38,-56.75 483.38,-77.5"/>
<text text-anchor="middle" x="442" y="-64" font-family="Helvetica,sans-Serif" font-size="10.00">riot_version.h</text>
</a>
</g>
</g>
<!-- Node11&#45;&gt;Node13 -->
<g id="edge16_Node000011_Node000013" class="edge">
<title>Node11&#45;&gt;Node13</title>
<g id="a_edge16_Node000011_Node000013"><a xlink:title=" ">
<path fill="none" stroke="#63b8ff" d="M391.52,-169.91C400.95,-161.4 414,-148.22 422,-134.25 430.13,-120.07 435.27,-102.25 438.3,-88.68"/>
<polygon fill="#63b8ff" stroke="#63b8ff" points="441.68,-89.62 440.22,-79.13 434.82,-88.24 441.68,-89.62"/>
</a>
</g>
</g>
<!-- Node14 -->
<g id="Node000014" class="node">
<title>Node14</title>
<g id="a_Node000014"><a xlink:href="compiler__hints_8h.html" target="_top" xlink:title="Common macros and compiler attributes/pragmas configuration.">
<polygon fill="white" stroke="#666666" points="239.5,-134.25 142.5,-134.25 142.5,-113.5 239.5,-113.5 239.5,-134.25"/>
<text text-anchor="middle" x="191" y="-120.75" font-family="Helvetica,sans-Serif" font-size="10.00">compiler_hints.h</text>
</a>
</g>
</g>
<!-- Node11&#45;&gt;Node14 -->
<g id="edge18_Node000011_Node000014" class="edge">
<title>Node11&#45;&gt;Node14</title>
<g id="a_edge18_Node000011_Node000014"><a xlink:title=" ">
<path fill="none" stroke="#63b8ff" d="M346.21,-169.84C315.4,-160.91 269.65,-147.66 235.8,-137.85"/>
<polygon fill="#63b8ff" stroke="#63b8ff" points="236.85,-134.51 226.27,-135.09 234.9,-141.24 236.85,-134.51"/>
</a>
</g>
</g>
<!-- Node16 -->
<g id="Node000016" class="node">
<title>Node16</title>
<g id="a_Node000016"><a xlink:href="container_8h.html" target="_top" xlink:title="Common macros and compiler attributes/pragmas configuration.">
<polygon fill="white" stroke="#666666" points="328.38,-134.25 257.62,-134.25 257.62,-113.5 328.38,-113.5 328.38,-134.25"/>
<text text-anchor="middle" x="293" y="-120.75" font-family="Helvetica,sans-Serif" font-size="10.00">container.h</text>
</a>
</g>
</g>
<!-- Node11&#45;&gt;Node16 -->
<g id="edge22_Node000011_Node000016" class="edge">
<title>Node11&#45;&gt;Node16</title>
<g id="a_edge22_Node000011_Node000016"><a xlink:title=" ">
<path fill="none" stroke="#63b8ff" d="M364.45,-169.84C351.58,-161.74 333.06,-150.08 318.09,-140.67"/>
<polygon fill="#63b8ff" stroke="#63b8ff" points="320.03,-137.75 309.7,-135.38 316.3,-143.67 320.03,-137.75"/>
</a>
</g>
</g>
<!-- Node13&#45;&gt;Node2 -->
<g id="edge17_Node000013_Node000002" class="edge">
<title>Node13&#45;&gt;Node2</title>
<g id="a_edge17_Node000013_Node000002"><a xlink:title=" ">
<path fill="none" stroke="#63b8ff" d="M442,-56.34C442,-49.72 442,-40.72 442,-32.52"/>
<polygon fill="#63b8ff" stroke="#63b8ff" points="445.5,-32.59 442,-22.59 438.5,-32.59 445.5,-32.59"/>
</a>
</g>
</g>
<!-- Node14&#45;&gt;Node2 -->
<g id="edge21_Node000014_Node000002" class="edge">
<title>Node14&#45;&gt;Node2</title>
<g id="a_edge21_Node000014_Node000002"><a xlink:title=" ">
<path fill="none" stroke="#63b8ff" d="M212.84,-113.18C257.15,-93.49 357.84,-48.76 409.74,-25.71"/>
<polygon fill="#63b8ff" stroke="#63b8ff" points="410.94,-29 418.65,-21.75 408.09,-22.61 410.94,-29"/>
</a>
</g>
</g>
<!-- Node15 -->
<g id="Node000015" class="node">
<title>Node15</title>
<g id="a_Node000015"><a xlink:href="assert_8h.html" target="_top" xlink:title="POSIX.1&#45;2008 compliant version of the assert macro.">
<polygon fill="white" stroke="#666666" points="177.5,-77.5 122.5,-77.5 122.5,-56.75 177.5,-56.75 177.5,-77.5"/>
<text text-anchor="middle" x="150" y="-64" font-family="Helvetica,sans-Serif" font-size="10.00">assert.h</text>
</a>
</g>
</g>
<!-- Node14&#45;&gt;Node15 -->
<g id="edge19_Node000014_Node000015" class="edge">
<title>Node14&#45;&gt;Node15</title>
<g id="a_edge19_Node000014_Node000015"><a xlink:title=" ">
<path fill="none" stroke="#63b8ff" d="M183.67,-113.09C178.25,-105.85 170.69,-95.76 164.11,-86.97"/>
<polygon fill="#63b8ff" stroke="#63b8ff" points="166.97,-84.95 158.17,-79.04 161.37,-89.14 166.97,-84.95"/>
</a>
</g>
</g>
<!-- Node15&#45;&gt;Node2 -->
<g id="edge20_Node000015_Node000002" class="edge">
<title>Node15&#45;&gt;Node2</title>
<g id="a_edge20_Node000015_Node000002"><a xlink:title=" ">
<path fill="none" stroke="#63b8ff" d="M178,-60.88C230.72,-50.99 344.78,-29.6 404.23,-18.46"/>
<polygon fill="#63b8ff" stroke="#63b8ff" points="404.69,-21.93 413.87,-16.65 403.4,-15.05 404.69,-21.93"/>
</a>
</g>
</g>
<!-- Node16&#45;&gt;Node2 -->
<g id="edge24_Node000016_Node000002" class="edge">
<title>Node16&#45;&gt;Node2</title>
<g id="a_edge24_Node000016_Node000002"><a xlink:title=" ">
<path fill="none" stroke="#63b8ff" d="M305.96,-113.18C331.5,-94.06 388.57,-51.36 420.07,-27.79"/>
<polygon fill="#63b8ff" stroke="#63b8ff" points="421.84,-30.83 427.75,-22.04 417.65,-25.23 421.84,-30.83"/>
</a>
</g>
</g>
<!-- Node16&#45;&gt;Node6 -->
<g id="edge23_Node000016_Node000006" class="edge">
<title>Node16&#45;&gt;Node6</title>
<g id="a_edge23_Node000016_Node000006"><a xlink:title=" ">
<path fill="none" stroke="#63b8ff" d="M328.52,-115.21C331.39,-114.62 334.24,-114.05 337,-113.5 410.58,-98.93 496.78,-83.54 545.73,-74.95"/>
<polygon fill="#63b8ff" stroke="#63b8ff" points="546.32,-78.4 555.56,-73.23 545.11,-71.5 546.32,-78.4"/>
</a>
</g>
</g>
<!-- Node18&#45;&gt;Node19 -->
<g id="edge27_Node000018_Node000019" class="edge">
<title>Node18&#45;&gt;Node19</title>
<g id="a_edge27_Node000018_Node000019"><a xlink:title=" ">
<path fill="none" stroke="#63b8ff" d="M641.5,-340.05C621.59,-328.05 594.14,-306.53 605,-283.75 624.4,-243.05 668.83,-213.31 699.38,-196.74"/>
<polygon fill="#63b8ff" stroke="#63b8ff" points="700.96,-199.87 708.2,-192.14 697.72,-193.66 700.96,-199.87"/>
</a>
</g>
</g>
<!-- Node20 -->
<g id="Node000020" class="node">
<title>Node20</title>
<g id="a_Node000020"><a xlink:href="cib_8h.html" target="_top" xlink:title="Circular integer buffer interface.">
<polygon fill="white" stroke="#666666" points="443.62,-304.5 404.38,-304.5 404.38,-283.75 443.62,-283.75 443.62,-304.5"/>
<text text-anchor="middle" x="424" y="-291" font-family="Helvetica,sans-Serif" font-size="10.00">cib.h</text>
</a>
</g>
</g>
<!-- Node18&#45;&gt;Node20 -->
<g id="edge31_Node000018_Node000020" class="edge">
<title>Node18&#45;&gt;Node20</title>
<g id="a_edge31_Node000018_Node000020"><a xlink:title=" ">
<path fill="none" stroke="#63b8ff" d="M631.53,-343.27C586.99,-332.94 501.14,-313.02 455.05,-302.33"/>
<polygon fill="#63b8ff" stroke="#63b8ff" points="455.98,-298.95 445.45,-300.1 454.4,-305.77 455.98,-298.95"/>
</a>
</g>
</g>
<!-- Node21 -->
<g id="Node000021" class="node">
<title>Node21</title>
<g id="a_Node000021"><a xlink:href="core_2include_2msg_8h.html" target="_top" xlink:title="Messaging API for inter process communication.">
<polygon fill="white" stroke="#666666" points="908,-304.5 862,-304.5 862,-283.75 908,-283.75 908,-304.5"/>
<text text-anchor="middle" x="885" y="-291" font-family="Helvetica,sans-Serif" font-size="10.00">msg.h</text>
</a>
</g>
</g>
<!-- Node18&#45;&gt;Node21 -->
<g id="edge33_Node000018_Node000021" class="edge">
<title>Node18&#45;&gt;Node21</title>
<g id="a_edge33_Node000018_Node000021"><a xlink:title=" ">
<path fill="none" stroke="#63b8ff" d="M688.57,-343.67C724.28,-335.79 787.52,-321.5 850.67,-305.01"/>
<polygon fill="#63b8ff" stroke="#63b8ff" points="851.38,-308.45 860.16,-302.52 849.6,-301.68 851.38,-308.45"/>
</a>
</g>
</g>
<!-- Node22 -->
<g id="Node000022" class="node">
<title>Node22</title>
<g id="a_Node000022"><a xlink:href="sched_8h.html" target="_top" xlink:title="Scheduler API definition.">
<polygon fill="white" stroke="#666666" points="758.75,-247.75 705.25,-247.75 705.25,-227 758.75,-227 758.75,-247.75"/>
<text text-anchor="middle" x="732" y="-234.25" font-family="Helvetica,sans-Serif" font-size="10.00">sched.h</text>
</a>
</g>
</g>
<!-- Node18&#45;&gt;Node22 -->
<g id="edge42_Node000018_Node000022" class="edge">
<title>Node18&#45;&gt;Node22</title>
<g id="a_edge42_Node000018_Node000022"><a xlink:title=" ">
<path fill="none" stroke="#63b8ff" d="M676.88,-340.06C689.23,-332.02 705.44,-319.54 715,-304.5 723.67,-290.87 727.92,-273.01 730.01,-259.29"/>
<polygon fill="#63b8ff" stroke="#63b8ff" points="733.46,-259.94 731.2,-249.59 726.51,-259.09 733.46,-259.94"/>
</a>
</g>
</g>
<!-- Node24 -->
<g id="Node000024" class="node">
<title>Node24</title>
<g id="a_Node000024"><a xlink:href="thread__config_8h.html" target="_top" xlink:title="Thread configuration defines.">
<polygon fill="white" stroke="#666666" points="705.88,-304.5 614.12,-304.5 614.12,-283.75 705.88,-283.75 705.88,-304.5"/>
<text text-anchor="middle" x="660" y="-291" font-family="Helvetica,sans-Serif" font-size="10.00">thread_config.h</text>
</a>
</g>
</g>
<!-- Node18&#45;&gt;Node24 -->
<g id="edge43_Node000018_Node000024" class="edge">
<title>Node18&#45;&gt;Node24</title>
<g id="a_edge43_Node000018_Node000024"><a xlink:title=" ">
<path fill="none" stroke="#63b8ff" d="M660,-340.09C660,-333.47 660,-324.47 660,-316.27"/>
<polygon fill="#63b8ff" stroke="#63b8ff" points="663.5,-316.34 660,-306.34 656.5,-316.34 663.5,-316.34"/>
</a>
</g>
</g>
<!-- Node26 -->
<g id="Node000026" class="node">
<title>Node26</title>
<g id="a_Node000026"><a xlink:title=" ">
<polygon fill="#e0e0e0" stroke="#999999" points="844.38,-304.5 761.62,-304.5 761.62,-283.75 844.38,-283.75 844.38,-304.5"/>
<text text-anchor="middle" x="803" y="-291" font-family="Helvetica,sans-Serif" font-size="10.00">thread_arch.h</text>
</a>
</g>
</g>
<!-- Node18&#45;&gt;Node26 -->
<g id="edge46_Node000018_Node000026" class="edge">
<title>Node18&#45;&gt;Node26</title>
<g id="a_edge46_Node000018_Node000026"><a xlink:title=" ">
<path fill="none" stroke="#63b8ff" d="M685.57,-340.09C708.24,-331.41 741.6,-318.63 766.98,-308.92"/>
<polygon fill="#63b8ff" stroke="#63b8ff" points="768.15,-312.21 776.24,-305.37 765.65,-305.68 768.15,-312.21"/>
</a>
</g>
</g>
<!-- Node19&#45;&gt;Node3 -->
<g id="edge28_Node000019_Node000003" class="edge">
<title>Node19&#45;&gt;Node3</title>
<g id="a_edge28_Node000019_Node000003"><a xlink:title=" ">
<path fill="none" stroke="#63b8ff" d="M753.97,-171.66C779.13,-162.95 819.9,-148.82 850.07,-138.37"/>
<polygon fill="#63b8ff" stroke="#63b8ff" points="850.92,-141.78 859.22,-135.19 848.63,-135.16 850.92,-141.78"/>
</a>
</g>
</g>
<!-- Node19&#45;&gt;Node6 -->
<g id="edge29_Node000019_Node000006" class="edge">
<title>Node19&#45;&gt;Node6</title>
<g id="a_edge29_Node000019_Node000006"><a xlink:title=" ">
<path fill="none" stroke="#63b8ff" d="M732.08,-169.81C733.08,-155.63 732.72,-129.4 719,-113.5 695.31,-86.05 654.38,-75.17 623.97,-70.87"/>
<polygon fill="#63b8ff" stroke="#63b8ff" points="624.74,-67.44 614.39,-69.71 623.9,-74.39 624.74,-67.44"/>
</a>
</g>
</g>
<!-- Node19&#45;&gt;Node17 -->
<g id="edge30_Node000019_Node000017" class="edge">
<title>Node19&#45;&gt;Node17</title>
<g id="a_edge30_Node000019_Node000017"><a xlink:title=" ">
<path fill="none" stroke="#63b8ff" d="M723.67,-169.84C718.25,-162.6 710.69,-152.51 704.11,-143.72"/>
<polygon fill="#63b8ff" stroke="#63b8ff" points="706.97,-141.7 698.17,-135.79 701.37,-145.89 706.97,-141.7"/>
</a>
</g>
</g>
<!-- Node20&#45;&gt;Node15 -->
<g id="edge32_Node000020_Node000015" class="edge">
<title>Node20&#45;&gt;Node15</title>
<g id="a_edge32_Node000020_Node000015"><a xlink:title=" ">
<path fill="none" stroke="#63b8ff" d="M403.99,-289.41C348.76,-277.94 194.24,-237.46 133,-134.25 124.5,-119.93 130.45,-101.42 137.54,-87.63"/>
<polygon fill="#63b8ff" stroke="#63b8ff" points="140.52,-89.47 142.47,-79.06 134.45,-85.98 140.52,-89.47"/>
</a>
</g>
</g>
<!-- Node21&#45;&gt;Node2 -->
<g id="edge34_Node000021_Node000002" class="edge">
<title>Node21&#45;&gt;Node2</title>
<g id="a_edge34_Node000021_Node000002"><a xlink:title=" ">
<path fill="none" stroke="#63b8ff" d="M908.31,-283.68C942.7,-268.02 1003,-233.2 1003,-181.62 1003,-181.62 1003,-181.62 1003,-122.88 1003,-15.98 606.18,-10.02 480.02,-10.83"/>
<polygon fill="#63b8ff" stroke="#63b8ff" points="480.16,-7.33 470.19,-10.91 480.22,-14.33 480.16,-7.33"/>
</a>
</g>
</g>
<!-- Node21&#45;&gt;Node3 -->
<g id="edge35_Node000021_Node000003" class="edge">
<title>Node21&#45;&gt;Node3</title>
<g id="a_edge35_Node000021_Node000003"><a xlink:title=" ">
<path fill="none" stroke="#63b8ff" d="M885.23,-283.6C885.85,-257.23 887.62,-182.83 888.5,-146.03"/>
<polygon fill="#63b8ff" stroke="#63b8ff" points="891.99,-146.31 888.73,-136.23 884.99,-146.14 891.99,-146.31"/>
</a>
</g>
</g>
<!-- Node21&#45;&gt;Node22 -->
<g id="edge36_Node000021_Node000022" class="edge">
<title>Node21&#45;&gt;Node22</title>
<g id="a_edge36_Node000021_Node000022"><a xlink:title=" ">
<path fill="none" stroke="#63b8ff" d="M861.76,-284.81C837.3,-276.06 798.42,-262.14 769.58,-251.82"/>
<polygon fill="#63b8ff" stroke="#63b8ff" points="771.09,-248.65 760.5,-248.57 768.74,-255.24 771.09,-248.65"/>
</a>
</g>
</g>
<!-- Node22&#45;&gt;Node6 -->
<g id="edge37_Node000022_Node000006" class="edge">
<title>Node22&#45;&gt;Node6</title>
<g id="a_edge37_Node000022_Node000006"><a xlink:title=" ">
<path fill="none" stroke="#63b8ff" d="M723.68,-226.85C700.04,-199.79 632.2,-122.15 601.02,-86.46"/>
<polygon fill="#63b8ff" stroke="#63b8ff" points="603.81,-84.34 594.6,-79.11 598.54,-88.94 603.81,-84.34"/>
</a>
</g>
</g>
<!-- Node22&#45;&gt;Node8 -->
<g id="edge38_Node000022_Node000008" class="edge">
<title>Node22&#45;&gt;Node8</title>
<g id="a_edge38_Node000022_Node000008"><a xlink:title=" ">
<path fill="none" stroke="#63b8ff" d="M759.09,-231.89C816.27,-222.44 949.76,-200.36 1019.23,-188.86"/>
<polygon fill="#63b8ff" stroke="#63b8ff" points="1019.43,-192.38 1028.72,-187.29 1018.29,-185.47 1019.43,-192.38"/>
</a>
</g>
</g>
<!-- Node22&#45;&gt;Node11 -->
<g id="edge39_Node000022_Node000011" class="edge">
<title>Node22&#45;&gt;Node11</title>
<g id="a_edge39_Node000022_Node000011"><a xlink:title=" ">
<path fill="none" stroke="#63b8ff" d="M704.96,-232.17C648.5,-223.39 516.89,-202.92 439.59,-190.89"/>
<polygon fill="#63b8ff" stroke="#63b8ff" points="440.51,-187.5 430.09,-189.42 439.44,-194.41 440.51,-187.5"/>
</a>
</g>
</g>
<!-- Node22&#45;&gt;Node19 -->
<g id="edge41_Node000022_Node000019" class="edge">
<title>Node22&#45;&gt;Node19</title>
<g id="a_edge41_Node000022_Node000019"><a xlink:title=" ">
<path fill="none" stroke="#63b8ff" d="M731.82,-226.59C731.7,-219.97 731.54,-210.97 731.39,-202.77"/>
<polygon fill="#63b8ff" stroke="#63b8ff" points="734.89,-202.78 731.2,-192.84 727.89,-202.9 734.89,-202.78"/>
</a>
</g>
</g>
<!-- Node23 -->
<g id="Node000023" class="node">
<title>Node23</title>
<g id="a_Node000023"><a xlink:href="native__sched_8h.html" target="_top" xlink:title="Add definitions required on the native board.">
<polygon fill="white" stroke="#666666" points="860.75,-191 771.25,-191 771.25,-170.25 860.75,-170.25 860.75,-191"/>
<text text-anchor="middle" x="816" y="-177.5" font-family="Helvetica,sans-Serif" font-size="10.00">native_sched.h</text>
</a>
</g>
</g>
<!-- Node22&#45;&gt;Node23 -->
<g id="edge40_Node000022_Node000023" class="edge">
<title>Node22&#45;&gt;Node23</title>
<g id="a_edge40_Node000022_Node000023"><a xlink:title=" ">
<path fill="none" stroke="#63b8ff" d="M747.02,-226.59C759.44,-218.49 777.32,-206.83 791.77,-197.42"/>
<polygon fill="#63b8ff" stroke="#63b8ff" points="793.38,-200.55 799.84,-192.15 789.56,-194.68 793.38,-200.55"/>
</a>
</g>
</g>
<!-- Node24&#45;&gt;Node22 -->
<g id="edge45_Node000024_Node000022" class="edge">
<title>Node24&#45;&gt;Node22</title>
<g id="a_edge45_Node000024_Node000022"><a xlink:title=" ">
<path fill="none" stroke="#63b8ff" d="M672.87,-283.34C683.21,-275.47 697.97,-264.25 710.15,-254.99"/>
<polygon fill="#63b8ff" stroke="#63b8ff" points="712.19,-257.83 718.03,-248.99 707.96,-252.26 712.19,-257.83"/>
</a>
</g>
</g>
<!-- Node25 -->
<g id="Node000025" class="node">
<title>Node25</title>
<g id="a_Node000025"><a xlink:title=" ">
<polygon fill="#e0e0e0" stroke="#999999" points="613.88,-134.25 546.12,-134.25 546.12,-113.5 613.88,-113.5 613.88,-134.25"/>
<text text-anchor="middle" x="580" y="-120.75" font-family="Helvetica,sans-Serif" font-size="10.00">cpu_conf.h</text>
</a>
</g>
</g>
<!-- Node24&#45;&gt;Node25 -->
<g id="edge44_Node000024_Node000025" class="edge">
<title>Node24&#45;&gt;Node25</title>
<g id="a_edge44_Node000024_Node000025"><a xlink:title=" ">
<path fill="none" stroke="#63b8ff" d="M646.2,-283.46C624.45,-267.28 583.01,-232.37 567,-191 561.25,-176.15 565.29,-158.39 570.34,-145.02"/>
<polygon fill="#63b8ff" stroke="#63b8ff" points="573.49,-146.55 574.21,-135.98 567.06,-143.79 573.49,-146.55"/>
</a>
</g>
</g>
<!-- Node27&#45;&gt;Node2 -->
<g id="edge50_Node000027_Node000002" class="edge">
<title>Node27&#45;&gt;Node2</title>
<g id="a_edge50_Node000027_Node000002"><a xlink:title=" ">
<path fill="none" stroke="#63b8ff" d="M71.45,-226.75C67.04,-195.65 58.12,-97.53 113,-56.75 158.36,-23.04 327.14,-14.35 403.74,-12.13"/>
<polygon fill="#63b8ff" stroke="#63b8ff" points="403.8,-15.63 413.7,-11.87 403.61,-8.63 403.8,-15.63"/>
</a>
</g>
</g>
<!-- Node27&#45;&gt;Node6 -->
<g id="edge49_Node000027_Node000006" class="edge">
<title>Node27&#45;&gt;Node6</title>
<g id="a_edge49_Node000027_Node000006"><a xlink:title=" ">
<path fill="none" stroke="#63b8ff" d="M95.3,-235.67C164.92,-233.15 377.19,-222.98 437,-191 477.15,-169.53 468.72,-142.28 504,-113.5 518.71,-101.5 537.04,-90.93 552.54,-83.02"/>
<polygon fill="#63b8ff" stroke="#63b8ff" points="553.96,-86.22 561.38,-78.66 550.86,-79.95 553.96,-86.22"/>
</a>
</g>
</g>
<!-- Node27&#45;&gt;Node15 -->
<g id="edge48_Node000027_Node000015" class="edge">
<title>Node27&#45;&gt;Node15</title>
<g id="a_edge48_Node000027_Node000015"><a xlink:title=" ">
<path fill="none" stroke="#63b8ff" d="M73.17,-226.73C73.94,-205.03 78.1,-151.3 100,-113.5 106.43,-102.39 116.51,-92.49 125.94,-84.79"/>
<polygon fill="#63b8ff" stroke="#63b8ff" points="127.98,-87.63 133.79,-78.78 123.72,-82.08 127.98,-87.63"/>
</a>
</g>
</g>
<!-- Node28 -->
<g id="Node000028" class="node">
<title>Node28</title>
<g id="a_Node000028"><a xlink:href="irq_8h.html" target="_top" xlink:title="IRQ driver interface.">
<polygon fill="white" stroke="#666666" points="613.88,-191 576.12,-191 576.12,-170.25 613.88,-170.25 613.88,-191"/>
<text text-anchor="middle" x="595" y="-177.5" font-family="Helvetica,sans-Serif" font-size="10.00">irq.h</text>
</a>
</g>
</g>
<!-- Node27&#45;&gt;Node28 -->
<g id="edge51_Node000027_Node000028" class="edge">
<title>Node27&#45;&gt;Node28</title>
<g id="a_edge51_Node000027_Node000028"><a xlink:title=" ">
<path fill="none" stroke="#63b8ff" d="M95.1,-234.06C177.73,-225.39 468.71,-194.87 564.31,-184.84"/>
<polygon fill="#63b8ff" stroke="#63b8ff" points="564.64,-188.33 574.22,-183.8 563.91,-181.37 564.64,-188.33"/>
</a>
</g>
</g>
<!-- Node28&#45;&gt;Node3 -->
<g id="edge52_Node000028_Node000003" class="edge">
<title>Node28&#45;&gt;Node3</title>
<g id="a_edge52_Node000028_Node000003"><a xlink:title=" ">
<path fill="none" stroke="#63b8ff" d="M614.29,-176.03C661.29,-167.28 782.59,-144.69 847.14,-132.67"/>
<polygon fill="#63b8ff" stroke="#63b8ff" points="847.45,-136.17 856.64,-130.9 846.17,-129.29 847.45,-136.17"/>
</a>
</g>
</g>
<!-- Node28&#45;&gt;Node25 -->
<g id="edge53_Node000028_Node000025" class="edge">
<title>Node28&#45;&gt;Node25</title>
<g id="a_edge53_Node000028_Node000025"><a xlink:title=" ">
<path fill="none" stroke="#63b8ff" d="M592.32,-169.84C590.46,-163.06 587.92,-153.8 585.63,-145.44"/>
<polygon fill="#63b8ff" stroke="#63b8ff" points="589.08,-144.76 583.06,-136.04 582.33,-146.61 589.08,-144.76"/>
</a>
</g>
</g>
<!-- Node29&#45;&gt;Node2 -->
<g id="edge58_Node000029_Node000002" class="edge">
<title>Node29&#45;&gt;Node2</title>
<g id="a_edge58_Node000029_Node000002"><a xlink:title=" ">
<path fill="none" stroke="#63b8ff" d="M1489.19,-234.46C1548.4,-230.65 1656.29,-219.85 1680,-191 1685.86,-183.88 1685.5,-177.65 1680,-170.25 1575.61,-29.81 1475.39,-86.79 1303,-56.75 1141.28,-28.57 624.65,-15.37 479.98,-12.17"/>
<polygon fill="#63b8ff" stroke="#63b8ff" points="480.26,-8.67 470.19,-11.95 480.11,-15.67 480.26,-8.67"/>
</a>
</g>
</g>
<!-- Node29&#45;&gt;Node6 -->
<g id="edge57_Node000029_Node000006" class="edge">
<title>Node29&#45;&gt;Node6</title>
<g id="a_edge57_Node000029_Node000006"><a xlink:title=" ">
<path fill="none" stroke="#63b8ff" d="M1442.64,-226.51C1430.85,-211.51 1406.16,-183.35 1378,-170.25 1241.19,-106.59 764.8,-77.4 624.29,-70.05"/>
<polygon fill="#63b8ff" stroke="#63b8ff" points="624.56,-66.56 614.39,-69.54 624.2,-73.55 624.56,-66.56"/>
</a>
</g>
</g>
<!-- Node29&#45;&gt;Node9 -->
<g id="edge56_Node000029_Node000009" class="edge">
<title>Node29&#45;&gt;Node9</title>
<g id="a_edge56_Node000029_Node000009"><a xlink:title=" ">
<path fill="none" stroke="#63b8ff" d="M1430.87,-226.59C1414.51,-218.22 1390.72,-206.04 1372.02,-196.47"/>
<polygon fill="#63b8ff" stroke="#63b8ff" points="1373.81,-193.46 1363.31,-192.02 1370.62,-199.69 1373.81,-193.46"/>
</a>
</g>
</g>
<!-- Node30 -->
<g id="Node000030" class="node">
<title>Node30</title>
<g id="a_Node000030"><a xlink:href="errno_8h.html" target="_top" xlink:title=" ">
<polygon fill="white" stroke="#666666" points="1475.25,-191 1424.75,-191 1424.75,-170.25 1475.25,-170.25 1475.25,-191"/>
<text text-anchor="middle" x="1450" y="-177.5" font-family="Helvetica,sans-Serif" font-size="10.00">errno.h</text>
</a>
</g>
</g>
<!-- Node29&#45;&gt;Node30 -->
<g id="edge55_Node000029_Node000030" class="edge">
<title>Node29&#45;&gt;Node30</title>
<g id="a_edge55_Node000029_Node000030"><a xlink:title=" ">
<path fill="none" stroke="#63b8ff" d="M1450,-226.59C1450,-219.97 1450,-210.97 1450,-202.77"/>
<polygon fill="#63b8ff" stroke="#63b8ff" points="1453.5,-202.84 1450,-192.84 1446.5,-202.84 1453.5,-202.84"/>
</a>
</g>
</g>
<!-- Node31 -->
<g id="Node000031" class="node">
<title>Node31</title>
<g id="a_Node000031"><a xlink:title=" ">
<polygon fill="#e0e0e0" stroke="#999999" points="1571.12,-191 1492.88,-191 1492.88,-170.25 1571.12,-170.25 1571.12,-191"/>
<text text-anchor="middle" x="1532" y="-177.5" font-family="Helvetica,sans-Serif" font-size="10.00">periph_cpu.h</text>
</a>
</g>
</g>
<!-- Node29&#45;&gt;Node31 -->
<g id="edge59_Node000029_Node000031" class="edge">
<title>Node29&#45;&gt;Node31</title>
<g id="a_edge59_Node000029_Node000031"><a xlink:title=" ">
<path fill="none" stroke="#63b8ff" d="M1464.66,-226.59C1476.67,-218.57 1493.91,-207.06 1507.94,-197.69"/>
<polygon fill="#63b8ff" stroke="#63b8ff" points="1509.84,-200.63 1516.21,-192.17 1505.95,-194.81 1509.84,-200.63"/>
</a>
</g>
</g>
<!-- Node32 -->
<g id="Node000032" class="node">
<title>Node32</title>
<g id="a_Node000032"><a xlink:title=" ">
<polygon fill="#e0e0e0" stroke="#999999" points="1670.62,-191 1589.38,-191 1589.38,-170.25 1670.62,-170.25 1670.62,-191"/>
<text text-anchor="middle" x="1630" y="-177.5" font-family="Helvetica,sans-Serif" font-size="10.00">periph_conf.h</text>
</a>
</g>
</g>
<!-- Node29&#45;&gt;Node32 -->
<g id="edge60_Node000029_Node000032" class="edge">
<title>Node29&#45;&gt;Node32</title>
<g id="a_edge60_Node000029_Node000032"><a xlink:title=" ">
<path fill="none" stroke="#63b8ff" d="M1482.18,-226.59C1511.4,-217.7 1554.71,-204.52 1586.91,-194.73"/>
<polygon fill="#63b8ff" stroke="#63b8ff" points="1587.8,-198.12 1596.35,-191.86 1585.76,-191.42 1587.8,-198.12"/>
</a>
</g>
</g>
</g>
</svg>
