<?xml version="1.0" encoding="UTF-8" standalone="no"?>
<!DOCTYPE svg PUBLIC "-//W3C//DTD SVG 1.1//EN"
 "http://www.w3.org/Graphics/SVG/1.1/DTD/svg11.dtd">
<!-- Generated by graphviz version 12.1.2 (0)
 -->
<!-- Title: drivers/include/atwinc15x0.h Pages: 1 -->
<svg width="1209pt" height="313pt"
 viewBox="0.00 0.00 1208.57 312.50" xmlns="http://www.w3.org/2000/svg" xmlns:xlink="http://www.w3.org/1999/xlink">
<g id="graph0" class="graph" transform="scale(1 1) rotate(0) translate(4 308.5)">
<title>drivers/include/atwinc15x0.h</title>
<!-- Node1 -->
<g id="Node000001" class="node">
<title>Node1</title>
<g id="a_Node000001"><a xlink:title="Netdev Driver for the Microchip ATWINC15x0 WiFi Module.">
<polygon fill="#999999" stroke="#666666" points="625.32,-304.5 469.07,-304.5 469.07,-283.75 625.32,-283.75 625.32,-304.5"/>
<text text-anchor="middle" x="547.2" y="-291" font-family="Helvetica,sans-Serif" font-size="10.00">drivers/include/atwinc15x0.h</text>
</a>
</g>
</g>
<!-- Node2 -->
<g id="Node000002" class="node">
<title>Node2</title>
<g id="a_Node000002"><a xlink:title=" ">
<polygon fill="#e0e0e0" stroke="#999999" points="130.07,-247.75 8.32,-247.75 8.32,-227 130.07,-227 130.07,-247.75"/>
<text text-anchor="middle" x="69.2" y="-234.25" font-family="Helvetica,sans-Serif" font-size="10.00">bsp/include/nm_bsp.h</text>
</a>
</g>
</g>
<!-- Node1&#45;&gt;Node2 -->
<g id="edge1_Node000001_Node000002" class="edge">
<title>Node1&#45;&gt;Node2</title>
<g id="a_edge1_Node000001_Node000002"><a xlink:title=" ">
<path fill="none" stroke="#63b8ff" d="M468.92,-284.95C389.23,-276.5 261.8,-262.66 141.51,-248.01"/>
<polygon fill="#63b8ff" stroke="#63b8ff" points="142.12,-244.56 131.77,-246.82 141.27,-251.51 142.12,-244.56"/>
</a>
</g>
</g>
<!-- Node3 -->
<g id="Node000003" class="node">
<title>Node3</title>
<g id="a_Node000003"><a xlink:href="ethernet_8h.html" target="_top" xlink:title="Definitions for Ethernet.">
<polygon fill="white" stroke="#666666" points="232.7,-247.75 147.7,-247.75 147.7,-227 232.7,-227 232.7,-247.75"/>
<text text-anchor="middle" x="190.2" y="-234.25" font-family="Helvetica,sans-Serif" font-size="10.00">net/ethernet.h</text>
</a>
</g>
</g>
<!-- Node1&#45;&gt;Node3 -->
<g id="edge2_Node000001_Node000003" class="edge">
<title>Node1&#45;&gt;Node3</title>
<g id="a_edge2_Node000001_Node000003"><a xlink:title=" ">
<path fill="none" stroke="#63b8ff" d="M482.96,-283.27C414.79,-272.82 308.25,-256.48 244.23,-246.66"/>
<polygon fill="#63b8ff" stroke="#63b8ff" points="245.09,-243.25 234.67,-245.2 244.03,-250.17 245.09,-243.25"/>
</a>
</g>
</g>
<!-- Node12 -->
<g id="Node000012" class="node">
<title>Node12</title>
<g id="a_Node000012"><a xlink:href="sys_2include_2net_2wifi_8h.html" target="_top" xlink:title="Definitions for Wi&#45;Fi.">
<polygon fill="white" stroke="#666666" points="402.07,-247.75 340.32,-247.75 340.32,-227 402.07,-227 402.07,-247.75"/>
<text text-anchor="middle" x="371.2" y="-234.25" font-family="Helvetica,sans-Serif" font-size="10.00">net/wifi.h</text>
</a>
</g>
</g>
<!-- Node1&#45;&gt;Node12 -->
<g id="edge16_Node000001_Node000012" class="edge">
<title>Node1&#45;&gt;Node12</title>
<g id="a_edge16_Node000001_Node000012"><a xlink:title=" ">
<path fill="none" stroke="#63b8ff" d="M515.73,-283.34C487.08,-274.42 444.55,-261.19 413.04,-251.39"/>
<polygon fill="#63b8ff" stroke="#63b8ff" points="414.42,-248.16 403.84,-248.53 412.35,-254.84 414.42,-248.16"/>
</a>
</g>
</g>
<!-- Node13 -->
<g id="Node000013" class="node">
<title>Node13</title>
<g id="a_Node000013"><a xlink:href="drivers_2include_2net_2netdev_8h.html" target="_top" xlink:title="Definitions low&#45;level network driver interface.">
<polygon fill="white" stroke="#666666" points="585.57,-247.75 508.82,-247.75 508.82,-227 585.57,-227 585.57,-247.75"/>
<text text-anchor="middle" x="547.2" y="-234.25" font-family="Helvetica,sans-Serif" font-size="10.00">net/netdev.h</text>
</a>
</g>
</g>
<!-- Node1&#45;&gt;Node13 -->
<g id="edge18_Node000001_Node000013" class="edge">
<title>Node1&#45;&gt;Node13</title>
<g id="a_edge18_Node000001_Node000013"><a xlink:title=" ">
<path fill="none" stroke="#63b8ff" d="M547.2,-283.34C547.2,-276.72 547.2,-267.72 547.2,-259.52"/>
<polygon fill="#63b8ff" stroke="#63b8ff" points="550.7,-259.59 547.2,-249.59 543.7,-259.59 550.7,-259.59"/>
</a>
</g>
</g>
<!-- Node25 -->
<g id="Node000025" class="node">
<title>Node25</title>
<g id="a_Node000025"><a xlink:href="drivers_2include_2periph_2gpio_8h.html" target="_top" xlink:title="Low&#45;level GPIO peripheral driver interface definitions.">
<polygon fill="white" stroke="#666666" points="1119.07,-134.25 1039.32,-134.25 1039.32,-113.5 1119.07,-113.5 1119.07,-134.25"/>
<text text-anchor="middle" x="1079.2" y="-120.75" font-family="Helvetica,sans-Serif" font-size="10.00">periph/gpio.h</text>
</a>
</g>
</g>
<!-- Node1&#45;&gt;Node25 -->
<g id="edge36_Node000001_Node000025" class="edge">
<title>Node1&#45;&gt;Node25</title>
<g id="a_edge36_Node000001_Node000025"><a xlink:title=" ">
<path fill="none" stroke="#63b8ff" d="M592.28,-283.29C663.71,-267.19 806.81,-232.77 924.2,-191 968.09,-175.38 1017.34,-153.61 1048.31,-139.38"/>
<polygon fill="#63b8ff" stroke="#63b8ff" points="1049.48,-142.7 1057.09,-135.32 1046.54,-136.34 1049.48,-142.7"/>
</a>
</g>
</g>
<!-- Node29 -->
<g id="Node000029" class="node">
<title>Node29</title>
<g id="a_Node000029"><a xlink:href="spi_8h.html" target="_top" xlink:title="Low&#45;level SPI peripheral driver interface definition.">
<polygon fill="white" stroke="#666666" points="914.7,-191 841.7,-191 841.7,-170.25 914.7,-170.25 914.7,-191"/>
<text text-anchor="middle" x="878.2" y="-177.5" font-family="Helvetica,sans-Serif" font-size="10.00">periph/spi.h</text>
</a>
</g>
</g>
<!-- Node1&#45;&gt;Node29 -->
<g id="edge40_Node000001_Node000029" class="edge">
<title>Node1&#45;&gt;Node29</title>
<g id="a_edge40_Node000001_Node000029"><a xlink:title=" ">
<path fill="none" stroke="#63b8ff" d="M576.28,-283.33C635.76,-263.29 771.35,-217.62 838.71,-194.93"/>
<polygon fill="#63b8ff" stroke="#63b8ff" points="839.5,-198.35 847.86,-191.84 837.27,-191.72 839.5,-198.35"/>
</a>
</g>
</g>
<!-- Node30 -->
<g id="Node000030" class="node">
<title>Node30</title>
<g id="a_Node000030"><a xlink:href="ringbuffer_8h.html" target="_top" xlink:title="A utility for storing and retrieving byte data using a ring buffer.">
<polygon fill="white" stroke="#666666" points="1044.7,-247.75 971.7,-247.75 971.7,-227 1044.7,-227 1044.7,-247.75"/>
<text text-anchor="middle" x="1008.2" y="-234.25" font-family="Helvetica,sans-Serif" font-size="10.00">ringbuffer.h</text>
</a>
</g>
</g>
<!-- Node1&#45;&gt;Node30 -->
<g id="edge49_Node000001_Node000030" class="edge">
<title>Node1&#45;&gt;Node30</title>
<g id="a_edge49_Node000001_Node000030"><a xlink:title=" ">
<path fill="none" stroke="#63b8ff" d="M625.63,-286.13C708.31,-278.36 842.24,-264.66 957.2,-247.75 958.19,-247.6 959.2,-247.45 960.21,-247.3"/>
<polygon fill="#63b8ff" stroke="#63b8ff" points="960.41,-250.81 969.71,-245.74 959.27,-243.9 960.41,-250.81"/>
</a>
</g>
</g>
<!-- Node4 -->
<g id="Node000004" class="node">
<title>Node4</title>
<g id="a_Node000004"><a xlink:title=" ">
<polygon fill="#e0e0e0" stroke="#999999" points="381.57,-20.75 328.82,-20.75 328.82,0 381.57,0 381.57,-20.75"/>
<text text-anchor="middle" x="355.2" y="-7.25" font-family="Helvetica,sans-Serif" font-size="10.00">stdint.h</text>
</a>
</g>
</g>
<!-- Node3&#45;&gt;Node4 -->
<g id="edge3_Node000003_Node000004" class="edge">
<title>Node3&#45;&gt;Node4</title>
<g id="a_edge3_Node000003_Node000004"><a xlink:title=" ">
<path fill="none" stroke="#63b8ff" d="M149.24,-226.55C107.45,-216.12 47.82,-199.94 41.2,-191 18.45,-160.3 -45.83,-160.92 57.2,-56.75 92.84,-20.71 245.18,-13.23 317.19,-11.73"/>
<polygon fill="#63b8ff" stroke="#63b8ff" points="316.99,-15.23 326.93,-11.55 316.86,-8.23 316.99,-15.23"/>
</a>
</g>
</g>
<!-- Node5 -->
<g id="Node000005" class="node">
<title>Node5</title>
<g id="a_Node000005"><a xlink:href="net_2ethernet_2hdr_8h.html" target="_top" xlink:title="Ethernet header definitions.">
<polygon fill="white" stroke="#666666" points="242.07,-191 138.32,-191 138.32,-170.25 242.07,-170.25 242.07,-191"/>
<text text-anchor="middle" x="190.2" y="-177.5" font-family="Helvetica,sans-Serif" font-size="10.00">net/ethernet/hdr.h</text>
</a>
</g>
</g>
<!-- Node3&#45;&gt;Node5 -->
<g id="edge4_Node000003_Node000005" class="edge">
<title>Node3&#45;&gt;Node5</title>
<g id="a_edge4_Node000003_Node000005"><a xlink:title=" ">
<path fill="none" stroke="#63b8ff" d="M190.2,-226.59C190.2,-219.97 190.2,-210.97 190.2,-202.77"/>
<polygon fill="#63b8ff" stroke="#63b8ff" points="193.7,-202.84 190.2,-192.84 186.7,-202.84 193.7,-202.84"/>
</a>
</g>
</g>
<!-- Node11 -->
<g id="Node000011" class="node">
<title>Node11</title>
<g id="a_Node000011"><a xlink:href="eui64_8h.html" target="_top" xlink:title="EUI&#45;64 data type definition.">
<polygon fill="white" stroke="#666666" points="120.57,-191 49.82,-191 49.82,-170.25 120.57,-170.25 120.57,-191"/>
<text text-anchor="middle" x="85.2" y="-177.5" font-family="Helvetica,sans-Serif" font-size="10.00">net/eui64.h</text>
</a>
</g>
</g>
<!-- Node3&#45;&gt;Node11 -->
<g id="edge13_Node000003_Node000011" class="edge">
<title>Node3&#45;&gt;Node11</title>
<g id="a_edge13_Node000003_Node000011"><a xlink:title=" ">
<path fill="none" stroke="#63b8ff" d="M171.43,-226.59C155.45,-218.26 132.25,-206.16 113.93,-196.61"/>
<polygon fill="#63b8ff" stroke="#63b8ff" points="115.63,-193.55 105.15,-192.03 112.4,-199.76 115.63,-193.55"/>
</a>
</g>
</g>
<!-- Node6 -->
<g id="Node000006" class="node">
<title>Node6</title>
<g id="a_Node000006"><a xlink:href="inttypes_8h.html" target="_top" xlink:title="Adds include for missing inttype definitions.">
<polygon fill="white" stroke="#666666" points="253.57,-134.25 188.82,-134.25 188.82,-113.5 253.57,-113.5 253.57,-134.25"/>
<text text-anchor="middle" x="221.2" y="-120.75" font-family="Helvetica,sans-Serif" font-size="10.00">inttypes.h</text>
</a>
</g>
</g>
<!-- Node5&#45;&gt;Node6 -->
<g id="edge5_Node000005_Node000006" class="edge">
<title>Node5&#45;&gt;Node6</title>
<g id="a_edge5_Node000005_Node000006"><a xlink:title=" ">
<path fill="none" stroke="#63b8ff" d="M195.74,-169.84C199.71,-162.83 205.18,-153.16 210.04,-144.58"/>
<polygon fill="#63b8ff" stroke="#63b8ff" points="213.08,-146.32 214.96,-135.9 206.99,-142.87 213.08,-146.32"/>
</a>
</g>
</g>
<!-- Node7 -->
<g id="Node000007" class="node">
<title>Node7</title>
<g id="a_Node000007"><a xlink:href="byteorder_8h.html" target="_top" xlink:title="Functions to work with different byte orders.">
<polygon fill="white" stroke="#666666" points="164.32,-134.25 92.07,-134.25 92.07,-113.5 164.32,-113.5 164.32,-134.25"/>
<text text-anchor="middle" x="128.2" y="-120.75" font-family="Helvetica,sans-Serif" font-size="10.00">byteorder.h</text>
</a>
</g>
</g>
<!-- Node5&#45;&gt;Node7 -->
<g id="edge6_Node000005_Node000007" class="edge">
<title>Node5&#45;&gt;Node7</title>
<g id="a_edge6_Node000005_Node000007"><a xlink:title=" ">
<path fill="none" stroke="#63b8ff" d="M179.11,-169.84C170.39,-162.13 158,-151.2 147.64,-142.04"/>
<polygon fill="#63b8ff" stroke="#63b8ff" points="150.13,-139.58 140.32,-135.58 145.5,-144.82 150.13,-139.58"/>
</a>
</g>
</g>
<!-- Node7&#45;&gt;Node4 -->
<g id="edge8_Node000007_Node000004" class="edge">
<title>Node7&#45;&gt;Node4</title>
<g id="a_edge8_Node000007_Node000004"><a xlink:title=" ">
<path fill="none" stroke="#63b8ff" d="M112.33,-113.12C92.79,-99.9 64.04,-75.79 80.2,-56.75 110.1,-21.51 248.51,-13.6 316.83,-11.85"/>
<polygon fill="#63b8ff" stroke="#63b8ff" points="316.91,-15.35 326.83,-11.63 316.75,-8.35 316.91,-15.35"/>
</a>
</g>
</g>
<!-- Node8 -->
<g id="Node000008" class="node">
<title>Node8</title>
<g id="a_Node000008"><a xlink:title=" ">
<polygon fill="#e0e0e0" stroke="#999999" points="232.57,-77.5 179.82,-77.5 179.82,-56.75 232.57,-56.75 232.57,-77.5"/>
<text text-anchor="middle" x="206.2" y="-64" font-family="Helvetica,sans-Serif" font-size="10.00">string.h</text>
</a>
</g>
</g>
<!-- Node7&#45;&gt;Node8 -->
<g id="edge7_Node000007_Node000008" class="edge">
<title>Node7&#45;&gt;Node8</title>
<g id="a_edge7_Node000007_Node000008"><a xlink:title=" ">
<path fill="none" stroke="#63b8ff" d="M142.14,-113.09C153.57,-105.07 169.97,-93.56 183.31,-84.19"/>
<polygon fill="#63b8ff" stroke="#63b8ff" points="184.96,-87.31 191.14,-78.7 180.94,-81.58 184.96,-87.31"/>
</a>
</g>
</g>
<!-- Node9 -->
<g id="Node000009" class="node">
<title>Node9</title>
<g id="a_Node000009"><a xlink:href="endian_8h.html" target="_top" xlink:title="libc header for endian conversion">
<polygon fill="white" stroke="#666666" points="308.2,-77.5 250.2,-77.5 250.2,-56.75 308.2,-56.75 308.2,-77.5"/>
<text text-anchor="middle" x="279.2" y="-64" font-family="Helvetica,sans-Serif" font-size="10.00">endian.h</text>
</a>
</g>
</g>
<!-- Node7&#45;&gt;Node9 -->
<g id="edge9_Node000007_Node000009" class="edge">
<title>Node7&#45;&gt;Node9</title>
<g id="a_edge9_Node000007_Node000009"><a xlink:title=" ">
<path fill="none" stroke="#63b8ff" d="M155.19,-113.09C179.28,-104.36 214.78,-91.48 241.63,-81.75"/>
<polygon fill="#63b8ff" stroke="#63b8ff" points="242.55,-85.14 250.76,-78.44 240.16,-78.55 242.55,-85.14"/>
</a>
</g>
</g>
<!-- Node10 -->
<g id="Node000010" class="node">
<title>Node10</title>
<g id="a_Node000010"><a xlink:href="unaligned_8h.html" target="_top" xlink:title="Unaligned but safe memory access functions.">
<polygon fill="white" stroke="#666666" points="161.7,-77.5 88.7,-77.5 88.7,-56.75 161.7,-56.75 161.7,-77.5"/>
<text text-anchor="middle" x="125.2" y="-64" font-family="Helvetica,sans-Serif" font-size="10.00">unaligned.h</text>
</a>
</g>
</g>
<!-- Node7&#45;&gt;Node10 -->
<g id="edge11_Node000007_Node000010" class="edge">
<title>Node7&#45;&gt;Node10</title>
<g id="a_edge11_Node000007_Node000010"><a xlink:title=" ">
<path fill="none" stroke="#63b8ff" d="M127.66,-113.09C127.3,-106.47 126.81,-97.47 126.36,-89.27"/>
<polygon fill="#63b8ff" stroke="#63b8ff" points="129.85,-89.13 125.81,-79.34 122.87,-89.52 129.85,-89.13"/>
</a>
</g>
</g>
<!-- Node9&#45;&gt;Node4 -->
<g id="edge10_Node000009_Node000004" class="edge">
<title>Node9&#45;&gt;Node4</title>
<g id="a_edge10_Node000009_Node000004"><a xlink:title=" ">
<path fill="none" stroke="#63b8ff" d="M292.79,-56.34C303.81,-48.4 319.59,-37.03 332.52,-27.71"/>
<polygon fill="#63b8ff" stroke="#63b8ff" points="334.43,-30.65 340.5,-21.96 330.34,-24.97 334.43,-30.65"/>
</a>
</g>
</g>
<!-- Node10&#45;&gt;Node4 -->
<g id="edge12_Node000010_Node000004" class="edge">
<title>Node10&#45;&gt;Node4</title>
<g id="a_edge12_Node000010_Node000004"><a xlink:title=" ">
<path fill="none" stroke="#63b8ff" d="M162.15,-57.33C204.72,-47.19 274.32,-30.63 317.29,-20.4"/>
<polygon fill="#63b8ff" stroke="#63b8ff" points="318.01,-23.83 326.92,-18.11 316.38,-17.02 318.01,-23.83"/>
</a>
</g>
</g>
<!-- Node11&#45;&gt;Node4 -->
<g id="edge14_Node000011_Node000004" class="edge">
<title>Node11&#45;&gt;Node4</title>
<g id="a_edge14_Node000011_Node000004"><a xlink:title=" ">
<path fill="none" stroke="#63b8ff" d="M79.84,-169.93C68.04,-147.18 43.05,-89.75 71.2,-56.75 102.36,-20.21 247.06,-12.96 317.06,-11.62"/>
<polygon fill="#63b8ff" stroke="#63b8ff" points="316.97,-15.12 326.91,-11.46 316.86,-8.12 316.97,-15.12"/>
</a>
</g>
</g>
<!-- Node11&#45;&gt;Node7 -->
<g id="edge15_Node000011_Node000007" class="edge">
<title>Node11&#45;&gt;Node7</title>
<g id="a_edge15_Node000011_Node000007"><a xlink:title=" ">
<path fill="none" stroke="#63b8ff" d="M92.89,-169.84C98.63,-162.52 106.67,-152.29 113.62,-143.44"/>
<polygon fill="#63b8ff" stroke="#63b8ff" points="116.22,-145.8 119.64,-135.77 110.71,-141.47 116.22,-145.8"/>
</a>
</g>
</g>
<!-- Node12&#45;&gt;Node6 -->
<g id="edge17_Node000012_Node000006" class="edge">
<title>Node12&#45;&gt;Node6</title>
<g id="a_edge17_Node000012_Node000006"><a xlink:title=" ">
<path fill="none" stroke="#63b8ff" d="M352.17,-226.57C336.16,-218 312.95,-204.79 294.2,-191 273.89,-176.06 252.77,-156.4 238.5,-142.41"/>
<polygon fill="#63b8ff" stroke="#63b8ff" points="241.2,-140.16 231.64,-135.59 236.27,-145.13 241.2,-140.16"/>
</a>
</g>
</g>
<!-- Node13&#45;&gt;Node4 -->
<g id="edge19_Node000013_Node000004" class="edge">
<title>Node13&#45;&gt;Node4</title>
<g id="a_edge19_Node000013_Node000004"><a xlink:title=" ">
<path fill="none" stroke="#63b8ff" d="M508.42,-231.72C456.02,-223.06 364.95,-199.01 328.2,-134.25 309.42,-101.16 328.7,-56.2 342.94,-30.85"/>
<polygon fill="#63b8ff" stroke="#63b8ff" points="345.93,-32.68 348.02,-22.29 339.91,-29.1 345.93,-32.68"/>
</a>
</g>
</g>
<!-- Node14 -->
<g id="Node000014" class="node">
<title>Node14</title>
<g id="a_Node000014"><a xlink:href="errno_8h.html" target="_top" xlink:title=" ">
<polygon fill="white" stroke="#666666" points="831.45,-134.25 780.95,-134.25 780.95,-113.5 831.45,-113.5 831.45,-134.25"/>
<text text-anchor="middle" x="806.2" y="-120.75" font-family="Helvetica,sans-Serif" font-size="10.00">errno.h</text>
</a>
</g>
</g>
<!-- Node13&#45;&gt;Node14 -->
<g id="edge20_Node000013_Node000014" class="edge">
<title>Node13&#45;&gt;Node14</title>
<g id="a_edge20_Node000013_Node000014"><a xlink:title=" ">
<path fill="none" stroke="#63b8ff" d="M585.86,-230.78C621.98,-224.51 676.71,-212.33 720.2,-191 746.02,-178.33 771.64,-157.25 788.11,-142.29"/>
<polygon fill="#63b8ff" stroke="#63b8ff" points="790.21,-145.12 795.15,-135.74 785.45,-139.99 790.21,-145.12"/>
</a>
</g>
</g>
<!-- Node15 -->
<g id="Node000015" class="node">
<title>Node15</title>
<g id="a_Node000015"><a xlink:href="iolist_8h.html" target="_top" xlink:title="iolist scatter / gather IO">
<polygon fill="white" stroke="#666666" points="480.7,-191 431.7,-191 431.7,-170.25 480.7,-170.25 480.7,-191"/>
<text text-anchor="middle" x="456.2" y="-177.5" font-family="Helvetica,sans-Serif" font-size="10.00">iolist.h</text>
</a>
</g>
</g>
<!-- Node13&#45;&gt;Node15 -->
<g id="edge21_Node000013_Node000015" class="edge">
<title>Node13&#45;&gt;Node15</title>
<g id="a_edge21_Node000013_Node000015"><a xlink:title=" ">
<path fill="none" stroke="#63b8ff" d="M530.93,-226.59C517.34,-218.41 497.72,-206.61 482,-197.15"/>
<polygon fill="#63b8ff" stroke="#63b8ff" points="484,-194.27 473.62,-192.11 480.39,-200.26 484,-194.27"/>
</a>
</g>
</g>
<!-- Node16 -->
<g id="Node000016" class="node">
<title>Node16</title>
<g id="a_Node000016"><a xlink:href="netopt_8h.html" target="_top" xlink:title="Definition of global configuration options.">
<polygon fill="white" stroke="#666666" points="710.82,-191 635.57,-191 635.57,-170.25 710.82,-170.25 710.82,-191"/>
<text text-anchor="middle" x="673.2" y="-177.5" font-family="Helvetica,sans-Serif" font-size="10.00">net/netopt.h</text>
</a>
</g>
</g>
<!-- Node13&#45;&gt;Node16 -->
<g id="edge22_Node000013_Node000016" class="edge">
<title>Node13&#45;&gt;Node16</title>
<g id="a_edge22_Node000013_Node000016"><a xlink:title=" ">
<path fill="none" stroke="#63b8ff" d="M569.72,-226.59C589.43,-218.02 618.31,-205.48 640.55,-195.81"/>
<polygon fill="#63b8ff" stroke="#63b8ff" points="641.7,-199.13 649.48,-191.93 638.91,-192.71 641.7,-199.13"/>
</a>
</g>
</g>
<!-- Node18 -->
<g id="Node000018" class="node">
<title>Node18</title>
<g id="a_Node000018"><a xlink:href="kernel__defines_8h.html" target="_top" xlink:title="Common macros and compiler attributes/pragmas configuration.">
<polygon fill="white" stroke="#666666" points="595.32,-191 499.07,-191 499.07,-170.25 595.32,-170.25 595.32,-191"/>
<text text-anchor="middle" x="547.2" y="-177.5" font-family="Helvetica,sans-Serif" font-size="10.00">kernel_defines.h</text>
</a>
</g>
</g>
<!-- Node13&#45;&gt;Node18 -->
<g id="edge25_Node000013_Node000018" class="edge">
<title>Node13&#45;&gt;Node18</title>
<g id="a_edge25_Node000013_Node000018"><a xlink:title=" ">
<path fill="none" stroke="#63b8ff" d="M547.2,-226.59C547.2,-219.97 547.2,-210.97 547.2,-202.77"/>
<polygon fill="#63b8ff" stroke="#63b8ff" points="550.7,-202.84 547.2,-192.84 543.7,-202.84 550.7,-202.84"/>
</a>
</g>
</g>
<!-- Node16&#45;&gt;Node4 -->
<g id="edge23_Node000016_Node000004" class="edge">
<title>Node16&#45;&gt;Node4</title>
<g id="a_edge23_Node000016_Node000004"><a xlink:title=" ">
<path fill="none" stroke="#63b8ff" d="M677.67,-169.88C687.41,-146.99 707.51,-89.3 679.2,-56.75 642.5,-14.56 470.6,-10.43 393.17,-10.77"/>
<polygon fill="#63b8ff" stroke="#63b8ff" points="393.51,-7.26 383.54,-10.84 393.56,-14.26 393.51,-7.26"/>
</a>
</g>
</g>
<!-- Node17 -->
<g id="Node000017" class="node">
<title>Node17</title>
<g id="a_Node000017"><a xlink:title=" ">
<polygon fill="#e0e0e0" stroke="#999999" points="762.7,-134.25 701.7,-134.25 701.7,-113.5 762.7,-113.5 762.7,-134.25"/>
<text text-anchor="middle" x="732.2" y="-120.75" font-family="Helvetica,sans-Serif" font-size="10.00">stdbool.h</text>
</a>
</g>
</g>
<!-- Node16&#45;&gt;Node17 -->
<g id="edge24_Node000016_Node000017" class="edge">
<title>Node16&#45;&gt;Node17</title>
<g id="a_edge24_Node000016_Node000017"><a xlink:title=" ">
<path fill="none" stroke="#63b8ff" d="M683.75,-169.84C691.97,-162.21 703.6,-151.42 713.4,-142.32"/>
<polygon fill="#63b8ff" stroke="#63b8ff" points="715.68,-144.98 720.63,-135.61 710.92,-139.84 715.68,-144.98"/>
</a>
</g>
</g>
<!-- Node19 -->
<g id="Node000019" class="node">
<title>Node19</title>
<g id="a_Node000019"><a xlink:href="modules_8h.html" target="_top" xlink:title="Common macros and compiler attributes/pragmas configuration.">
<polygon fill="white" stroke="#666666" points="403.7,-134.25 336.7,-134.25 336.7,-113.5 403.7,-113.5 403.7,-134.25"/>
<text text-anchor="middle" x="370.2" y="-120.75" font-family="Helvetica,sans-Serif" font-size="10.00">modules.h</text>
</a>
</g>
</g>
<!-- Node18&#45;&gt;Node19 -->
<g id="edge26_Node000018_Node000019" class="edge">
<title>Node18&#45;&gt;Node19</title>
<g id="a_edge26_Node000018_Node000019"><a xlink:title=" ">
<path fill="none" stroke="#63b8ff" d="M515.55,-169.84C486.82,-160.95 444.23,-147.77 412.57,-137.98"/>
<polygon fill="#63b8ff" stroke="#63b8ff" points="413.9,-134.73 403.31,-135.12 411.83,-141.42 413.9,-134.73"/>
</a>
</g>
</g>
<!-- Node20 -->
<g id="Node000020" class="node">
<title>Node20</title>
<g id="a_Node000020"><a xlink:href="riot__version_8h.html" target="_top" xlink:title="Common macros and compiler attributes/pragmas configuration.">
<polygon fill="white" stroke="#666666" points="558.57,-77.5 475.82,-77.5 475.82,-56.75 558.57,-56.75 558.57,-77.5"/>
<text text-anchor="middle" x="517.2" y="-64" font-family="Helvetica,sans-Serif" font-size="10.00">riot_version.h</text>
</a>
</g>
</g>
<!-- Node18&#45;&gt;Node20 -->
<g id="edge27_Node000018_Node000020" class="edge">
<title>Node18&#45;&gt;Node20</title>
<g id="a_edge27_Node000018_Node000020"><a xlink:title=" ">
<path fill="none" stroke="#63b8ff" d="M544.64,-170.12C539.82,-152.19 529.27,-113 522.75,-88.76"/>
<polygon fill="#63b8ff" stroke="#63b8ff" points="526.21,-88.13 520.23,-79.39 519.45,-89.95 526.21,-88.13"/>
</a>
</g>
</g>
<!-- Node21 -->
<g id="Node000021" class="node">
<title>Node21</title>
<g id="a_Node000021"><a xlink:href="compiler__hints_8h.html" target="_top" xlink:title="Common macros and compiler attributes/pragmas configuration.">
<polygon fill="white" stroke="#666666" points="518.7,-134.25 421.7,-134.25 421.7,-113.5 518.7,-113.5 518.7,-134.25"/>
<text text-anchor="middle" x="470.2" y="-120.75" font-family="Helvetica,sans-Serif" font-size="10.00">compiler_hints.h</text>
</a>
</g>
</g>
<!-- Node18&#45;&gt;Node21 -->
<g id="edge29_Node000018_Node000021" class="edge">
<title>Node18&#45;&gt;Node21</title>
<g id="a_edge29_Node000018_Node000021"><a xlink:title=" ">
<path fill="none" stroke="#63b8ff" d="M533.43,-169.84C522.26,-161.9 506.28,-150.53 493.18,-141.21"/>
<polygon fill="#63b8ff" stroke="#63b8ff" points="495.26,-138.4 485.08,-135.46 491.2,-144.1 495.26,-138.4"/>
</a>
</g>
</g>
<!-- Node23 -->
<g id="Node000023" class="node">
<title>Node23</title>
<g id="a_Node000023"><a xlink:href="container_8h.html" target="_top" xlink:title="Common macros and compiler attributes/pragmas configuration.">
<polygon fill="white" stroke="#666666" points="645.57,-134.25 574.82,-134.25 574.82,-113.5 645.57,-113.5 645.57,-134.25"/>
<text text-anchor="middle" x="610.2" y="-120.75" font-family="Helvetica,sans-Serif" font-size="10.00">container.h</text>
</a>
</g>
</g>
<!-- Node18&#45;&gt;Node23 -->
<g id="edge33_Node000018_Node000023" class="edge">
<title>Node18&#45;&gt;Node23</title>
<g id="a_edge33_Node000018_Node000023"><a xlink:title=" ">
<path fill="none" stroke="#63b8ff" d="M558.46,-169.84C567.33,-162.13 579.91,-151.2 590.45,-142.04"/>
<polygon fill="#63b8ff" stroke="#63b8ff" points="592.64,-144.77 597.89,-135.57 588.05,-139.49 592.64,-144.77"/>
</a>
</g>
</g>
<!-- Node20&#45;&gt;Node4 -->
<g id="edge28_Node000020_Node000004" class="edge">
<title>Node20&#45;&gt;Node4</title>
<g id="a_edge28_Node000020_Node000004"><a xlink:title=" ">
<path fill="none" stroke="#63b8ff" d="M488.24,-56.34C461.52,-47.31 421.72,-33.86 392.61,-24.02"/>
<polygon fill="#63b8ff" stroke="#63b8ff" points="394.06,-20.81 383.46,-20.93 391.81,-27.44 394.06,-20.81"/>
</a>
</g>
</g>
<!-- Node21&#45;&gt;Node4 -->
<g id="edge32_Node000021_Node000004" class="edge">
<title>Node21&#45;&gt;Node4</title>
<g id="a_edge32_Node000021_Node000004"><a xlink:title=" ">
<path fill="none" stroke="#63b8ff" d="M447.56,-113.1C431.29,-105.24 409.59,-92.97 394.2,-77.5 380.85,-64.08 370.31,-45.2 363.57,-31.04"/>
<polygon fill="#63b8ff" stroke="#63b8ff" points="366.92,-29.96 359.62,-22.28 360.54,-32.84 366.92,-29.96"/>
</a>
</g>
</g>
<!-- Node22 -->
<g id="Node000022" class="node">
<title>Node22</title>
<g id="a_Node000022"><a xlink:href="assert_8h.html" target="_top" xlink:title="POSIX.1&#45;2008 compliant version of the assert macro.">
<polygon fill="white" stroke="#666666" points="457.7,-77.5 402.7,-77.5 402.7,-56.75 457.7,-56.75 457.7,-77.5"/>
<text text-anchor="middle" x="430.2" y="-64" font-family="Helvetica,sans-Serif" font-size="10.00">assert.h</text>
</a>
</g>
</g>
<!-- Node21&#45;&gt;Node22 -->
<g id="edge30_Node000021_Node000022" class="edge">
<title>Node21&#45;&gt;Node22</title>
<g id="a_edge30_Node000021_Node000022"><a xlink:title=" ">
<path fill="none" stroke="#63b8ff" d="M463.05,-113.09C457.76,-105.85 450.39,-95.76 443.97,-86.97"/>
<polygon fill="#63b8ff" stroke="#63b8ff" points="446.91,-85.06 438.18,-79.05 441.25,-89.19 446.91,-85.06"/>
</a>
</g>
</g>
<!-- Node22&#45;&gt;Node4 -->
<g id="edge31_Node000022_Node000004" class="edge">
<title>Node22&#45;&gt;Node4</title>
<g id="a_edge31_Node000022_Node000004"><a xlink:title=" ">
<path fill="none" stroke="#63b8ff" d="M416.79,-56.34C405.91,-48.4 390.34,-37.03 377.58,-27.71"/>
<polygon fill="#63b8ff" stroke="#63b8ff" points="379.85,-25.04 369.71,-21.97 375.73,-30.69 379.85,-25.04"/>
</a>
</g>
</g>
<!-- Node23&#45;&gt;Node4 -->
<g id="edge35_Node000023_Node000004" class="edge">
<title>Node23&#45;&gt;Node4</title>
<g id="a_edge35_Node000023_Node000004"><a xlink:title=" ">
<path fill="none" stroke="#63b8ff" d="M606.64,-113.03C600.8,-98.34 587.73,-70.87 567.2,-56.75 514.53,-20.52 438.45,-12.39 393.19,-11.02"/>
<polygon fill="#63b8ff" stroke="#63b8ff" points="393.41,-7.53 383.35,-10.83 393.28,-14.53 393.41,-7.53"/>
</a>
</g>
</g>
<!-- Node24 -->
<g id="Node000024" class="node">
<title>Node24</title>
<g id="a_Node000024"><a xlink:title=" ">
<polygon fill="#e0e0e0" stroke="#999999" points="669.7,-77.5 614.7,-77.5 614.7,-56.75 669.7,-56.75 669.7,-77.5"/>
<text text-anchor="middle" x="642.2" y="-64" font-family="Helvetica,sans-Serif" font-size="10.00">stddef.h</text>
</a>
</g>
</g>
<!-- Node23&#45;&gt;Node24 -->
<g id="edge34_Node000023_Node000024" class="edge">
<title>Node23&#45;&gt;Node24</title>
<g id="a_edge34_Node000023_Node000024"><a xlink:title=" ">
<path fill="none" stroke="#63b8ff" d="M615.92,-113.09C620.06,-106 625.79,-96.19 630.85,-87.54"/>
<polygon fill="#63b8ff" stroke="#63b8ff" points="633.74,-89.53 635.76,-79.14 627.7,-86 633.74,-89.53"/>
</a>
</g>
</g>
<!-- Node26 -->
<g id="Node000026" class="node">
<title>Node26</title>
<g id="a_Node000026"><a xlink:title=" ">
<polygon fill="#e0e0e0" stroke="#999999" points="1200.57,-77.5 1147.82,-77.5 1147.82,-56.75 1200.57,-56.75 1200.57,-77.5"/>
<text text-anchor="middle" x="1174.2" y="-64" font-family="Helvetica,sans-Serif" font-size="10.00">limits.h</text>
</a>
</g>
</g>
<!-- Node25&#45;&gt;Node26 -->
<g id="edge37_Node000025_Node000026" class="edge">
<title>Node25&#45;&gt;Node26</title>
<g id="a_edge37_Node000025_Node000026"><a xlink:title=" ">
<path fill="none" stroke="#63b8ff" d="M1096.18,-113.09C1110.5,-104.83 1131.24,-92.88 1147.73,-83.38"/>
<polygon fill="#63b8ff" stroke="#63b8ff" points="1149.13,-86.61 1156.05,-78.58 1145.64,-80.55 1149.13,-86.61"/>
</a>
</g>
</g>
<!-- Node27 -->
<g id="Node000027" class="node">
<title>Node27</title>
<g id="a_Node000027"><a xlink:title=" ">
<polygon fill="#e0e0e0" stroke="#999999" points="1030.32,-77.5 952.07,-77.5 952.07,-56.75 1030.32,-56.75 1030.32,-77.5"/>
<text text-anchor="middle" x="991.2" y="-64" font-family="Helvetica,sans-Serif" font-size="10.00">periph_cpu.h</text>
</a>
</g>
</g>
<!-- Node25&#45;&gt;Node27 -->
<g id="edge38_Node000025_Node000027" class="edge">
<title>Node25&#45;&gt;Node27</title>
<g id="a_edge38_Node000025_Node000027"><a xlink:title=" ">
<path fill="none" stroke="#63b8ff" d="M1063.47,-113.09C1050.33,-104.91 1031.35,-93.11 1016.15,-83.65"/>
<polygon fill="#63b8ff" stroke="#63b8ff" points="1018.42,-80.94 1008.08,-78.63 1014.72,-86.88 1018.42,-80.94"/>
</a>
</g>
</g>
<!-- Node28 -->
<g id="Node000028" class="node">
<title>Node28</title>
<g id="a_Node000028"><a xlink:title=" ">
<polygon fill="#e0e0e0" stroke="#999999" points="1129.82,-77.5 1048.57,-77.5 1048.57,-56.75 1129.82,-56.75 1129.82,-77.5"/>
<text text-anchor="middle" x="1089.2" y="-64" font-family="Helvetica,sans-Serif" font-size="10.00">periph_conf.h</text>
</a>
</g>
</g>
<!-- Node25&#45;&gt;Node28 -->
<g id="edge39_Node000025_Node000028" class="edge">
<title>Node25&#45;&gt;Node28</title>
<g id="a_edge39_Node000025_Node000028"><a xlink:title=" ">
<path fill="none" stroke="#63b8ff" d="M1080.99,-113.09C1082.21,-106.39 1083.88,-97.26 1085.39,-88.98"/>
<polygon fill="#63b8ff" stroke="#63b8ff" points="1088.8,-89.78 1087.15,-79.32 1081.91,-88.53 1088.8,-89.78"/>
</a>
</g>
</g>
<!-- Node29&#45;&gt;Node4 -->
<g id="edge45_Node000029_Node000004" class="edge">
<title>Node29&#45;&gt;Node4</title>
<g id="a_edge45_Node000029_Node000004"><a xlink:title=" ">
<path fill="none" stroke="#63b8ff" d="M884.52,-170.07C892.8,-156.23 904.86,-130.4 892.2,-113.5 832.14,-33.36 506.1,-15.95 393.48,-12.3"/>
<polygon fill="#63b8ff" stroke="#63b8ff" points="393.66,-8.81 383.56,-12 393.45,-15.8 393.66,-8.81"/>
</a>
</g>
</g>
<!-- Node29&#45;&gt;Node9 -->
<g id="edge41_Node000029_Node000009" class="edge">
<title>Node29&#45;&gt;Node9</title>
<g id="a_edge41_Node000029_Node000009"><a xlink:title=" ">
<path fill="none" stroke="#63b8ff" d="M875.75,-169.97C871.4,-155 860.78,-126.54 840.2,-113.5 756.21,-60.27 493.31,-85.54 394.2,-77.5 369.49,-75.5 341.79,-73.24 319.77,-71.44"/>
<polygon fill="#63b8ff" stroke="#63b8ff" points="320.26,-67.97 310.01,-70.64 319.69,-74.95 320.26,-67.97"/>
</a>
</g>
</g>
<!-- Node29&#45;&gt;Node14 -->
<g id="edge42_Node000029_Node000014" class="edge">
<title>Node29&#45;&gt;Node14</title>
<g id="a_edge42_Node000029_Node000014"><a xlink:title=" ">
<path fill="none" stroke="#63b8ff" d="M865.33,-169.84C854.99,-161.97 840.23,-150.75 828.05,-141.49"/>
<polygon fill="#63b8ff" stroke="#63b8ff" points="830.24,-138.76 820.16,-135.49 826.01,-144.33 830.24,-138.76"/>
</a>
</g>
</g>
<!-- Node29&#45;&gt;Node17 -->
<g id="edge43_Node000029_Node000017" class="edge">
<title>Node29&#45;&gt;Node17</title>
<g id="a_edge43_Node000029_Node000017"><a xlink:title=" ">
<path fill="none" stroke="#63b8ff" d="M852.1,-169.84C828.84,-161.12 794.58,-148.27 768.63,-138.54"/>
<polygon fill="#63b8ff" stroke="#63b8ff" points="770.08,-135.34 759.49,-135.11 767.63,-141.9 770.08,-135.34"/>
</a>
</g>
</g>
<!-- Node29&#45;&gt;Node24 -->
<g id="edge44_Node000029_Node000024" class="edge">
<title>Node29&#45;&gt;Node24</title>
<g id="a_edge44_Node000029_Node000024"><a xlink:title=" ">
<path fill="none" stroke="#63b8ff" d="M880.67,-170.17C883.77,-155.98 887.11,-129.17 873.2,-113.5 848.32,-85.48 740.56,-74.32 681.42,-70.24"/>
<polygon fill="#63b8ff" stroke="#63b8ff" points="681.65,-66.75 671.45,-69.6 681.2,-73.74 681.65,-66.75"/>
</a>
</g>
</g>
<!-- Node29&#45;&gt;Node25 -->
<g id="edge48_Node000029_Node000025" class="edge">
<title>Node29&#45;&gt;Node25</title>
<g id="a_edge48_Node000029_Node000025"><a xlink:title=" ">
<path fill="none" stroke="#63b8ff" d="M914.13,-169.84C947.19,-160.83 996.4,-147.43 1032.49,-137.6"/>
<polygon fill="#63b8ff" stroke="#63b8ff" points="1033.05,-141.07 1041.78,-135.07 1031.21,-134.32 1033.05,-141.07"/>
</a>
</g>
</g>
<!-- Node29&#45;&gt;Node27 -->
<g id="edge46_Node000029_Node000027" class="edge">
<title>Node29&#45;&gt;Node27</title>
<g id="a_edge46_Node000029_Node000027"><a xlink:title=" ">
<path fill="none" stroke="#63b8ff" d="M898.22,-169.9C913.43,-161.83 934.22,-149.27 949.2,-134.25 962.84,-120.57 974.27,-101.72 981.75,-87.64"/>
<polygon fill="#63b8ff" stroke="#63b8ff" points="984.77,-89.42 986.18,-78.91 978.53,-86.25 984.77,-89.42"/>
</a>
</g>
</g>
<!-- Node29&#45;&gt;Node28 -->
<g id="edge47_Node000029_Node000028" class="edge">
<title>Node29&#45;&gt;Node28</title>
<g id="a_edge47_Node000029_Node000028"><a xlink:title=" ">
<path fill="none" stroke="#63b8ff" d="M899.05,-169.87C918.01,-160.9 946.69,-147.08 971.2,-134.25 1003.09,-117.55 1039.11,-97.14 1062.87,-83.45"/>
<polygon fill="#63b8ff" stroke="#63b8ff" points="1064.34,-86.64 1071.25,-78.6 1060.84,-80.58 1064.34,-86.64"/>
</a>
</g>
</g>
</g>
</svg>
