<?xml version="1.0" encoding="UTF-8" standalone="no"?>
<!DOCTYPE svg PUBLIC "-//W3C//DTD SVG 1.1//EN"
 "http://www.w3.org/Graphics/SVG/1.1/DTD/svg11.dtd">
<!-- Generated by graphviz version 12.1.2 (0)
 -->
<!-- Title: drivers/atwinc15x0/include/atwinc15x0_internal.h Pages: 1 -->
<svg width="1334pt" height="408pt"
 viewBox="0.00 0.00 1334.24 407.50" xmlns="http://www.w3.org/2000/svg" xmlns:xlink="http://www.w3.org/1999/xlink">
<g id="graph0" class="graph" transform="scale(1 1) rotate(0) translate(4 403.5)">
<title>drivers/atwinc15x0/include/atwinc15x0_internal.h</title>
<!-- Node1 -->
<g id="Node000001" class="node">
<title>Node1</title>
<g id="a_Node000001"><a xlink:title="Internal definitions for the ATWINC15x0 WiFi netdev driver.">
<polygon fill="#999999" stroke="#666666" points="957.36,-399.5 843.86,-399.5 843.86,-353.25 957.36,-353.25 957.36,-399.5"/>
<text text-anchor="start" x="851.86" y="-386" font-family="Helvetica,sans-Serif" font-size="10.00">drivers/atwinc15x0</text>
<text text-anchor="start" x="851.86" y="-373.25" font-family="Helvetica,sans-Serif" font-size="10.00">/include/atwinc15x0</text>
<text text-anchor="middle" x="900.61" y="-360.5" font-family="Helvetica,sans-Serif" font-size="10.00">_internal.h</text>
</a>
</g>
</g>
<!-- Node2 -->
<g id="Node000002" class="node">
<title>Node2</title>
<g id="a_Node000002"><a xlink:title=" ">
<polygon fill="#e0e0e0" stroke="#999999" points="75.11,-134.25 14.11,-134.25 14.11,-113.5 75.11,-113.5 75.11,-134.25"/>
<text text-anchor="middle" x="44.61" y="-120.75" font-family="Helvetica,sans-Serif" font-size="10.00">stdbool.h</text>
</a>
</g>
</g>
<!-- Node1&#45;&gt;Node2 -->
<g id="edge1_Node000001_Node000002" class="edge">
<title>Node1&#45;&gt;Node2</title>
<g id="a_edge1_Node000001_Node000002"><a xlink:title=" ">
<path fill="none" stroke="#63b8ff" d="M843.4,-373.84C671.31,-368.2 162.31,-343.58 32.61,-247.75 3.27,-226.07 -7.07,-204.45 5.61,-170.25 9.53,-159.66 17.16,-149.89 24.63,-142.14"/>
<polygon fill="#63b8ff" stroke="#63b8ff" points="26.61,-145.09 31.4,-135.64 21.77,-140.04 26.61,-145.09"/>
</a>
</g>
</g>
<!-- Node3 -->
<g id="Node000003" class="node">
<title>Node3</title>
<g id="a_Node000003"><a xlink:title=" ">
<polygon fill="#e0e0e0" stroke="#999999" points="1136.99,-77.5 1084.24,-77.5 1084.24,-56.75 1136.99,-56.75 1136.99,-77.5"/>
<text text-anchor="middle" x="1110.61" y="-64" font-family="Helvetica,sans-Serif" font-size="10.00">string.h</text>
</a>
</g>
</g>
<!-- Node1&#45;&gt;Node3 -->
<g id="edge2_Node000001_Node000003" class="edge">
<title>Node1&#45;&gt;Node3</title>
<g id="a_edge2_Node000001_Node000003"><a xlink:title=" ">
<path fill="none" stroke="#63b8ff" d="M957.8,-372.83C1041.26,-365.7 1186.61,-338.85 1186.61,-238.38 1186.61,-238.38 1186.61,-238.38 1186.61,-179.62 1186.61,-140.71 1154.61,-105.35 1132.14,-85.32"/>
<polygon fill="#63b8ff" stroke="#63b8ff" points="1134.53,-82.76 1124.65,-78.92 1129.98,-88.08 1134.53,-82.76"/>
</a>
</g>
</g>
<!-- Node4 -->
<g id="Node000004" class="node">
<title>Node4</title>
<g id="a_Node000004"><a xlink:title=" ">
<polygon fill="#e0e0e0" stroke="#999999" points="1326.24,-317.25 1214.99,-317.25 1214.99,-283.75 1326.24,-283.75 1326.24,-317.25"/>
<text text-anchor="start" x="1222.99" y="-303.75" font-family="Helvetica,sans-Serif" font-size="10.00">driver/include/m2m</text>
<text text-anchor="middle" x="1270.61" y="-291" font-family="Helvetica,sans-Serif" font-size="10.00">_types.h</text>
</a>
</g>
</g>
<!-- Node1&#45;&gt;Node4 -->
<g id="edge3_Node000001_Node000004" class="edge">
<title>Node1&#45;&gt;Node4</title>
<g id="a_edge3_Node000001_Node000004"><a xlink:title=" ">
<path fill="none" stroke="#63b8ff" d="M957.67,-364.85C1018.09,-353.57 1116.23,-334.91 1200.61,-317.25 1201.62,-317.04 1202.64,-316.82 1203.67,-316.61"/>
<polygon fill="#63b8ff" stroke="#63b8ff" points="1204.34,-320.04 1213.38,-314.52 1202.87,-313.2 1204.34,-320.04"/>
</a>
</g>
</g>
<!-- Node5 -->
<g id="Node000005" class="node">
<title>Node5</title>
<g id="a_Node000005"><a xlink:href="atwinc15x0_8h.html" target="_top" xlink:title="Netdev Driver for the Microchip ATWINC15x0 WiFi Module.">
<polygon fill="white" stroke="#666666" points="708.24,-310.88 626.99,-310.88 626.99,-290.12 708.24,-290.12 708.24,-310.88"/>
<text text-anchor="middle" x="667.61" y="-297.38" font-family="Helvetica,sans-Serif" font-size="10.00">atwinc15x0.h</text>
</a>
</g>
</g>
<!-- Node1&#45;&gt;Node5 -->
<g id="edge4_Node000001_Node000005" class="edge">
<title>Node1&#45;&gt;Node5</title>
<g id="a_edge4_Node000001_Node000005"><a xlink:title=" ">
<path fill="none" stroke="#63b8ff" d="M843.61,-357.3C802.04,-344.12 746.66,-326.56 709.21,-314.69"/>
<polygon fill="#63b8ff" stroke="#63b8ff" points="710.7,-311.49 700.11,-311.81 708.59,-318.16 710.7,-311.49"/>
</a>
</g>
</g>
<!-- Node6 -->
<g id="Node000006" class="node">
<title>Node6</title>
<g id="a_Node000006"><a xlink:title=" ">
<polygon fill="#e0e0e0" stroke="#999999" points="163.49,-247.75 41.74,-247.75 41.74,-227 163.49,-227 163.49,-247.75"/>
<text text-anchor="middle" x="102.61" y="-234.25" font-family="Helvetica,sans-Serif" font-size="10.00">bsp/include/nm_bsp.h</text>
</a>
</g>
</g>
<!-- Node5&#45;&gt;Node6 -->
<g id="edge5_Node000005_Node000006" class="edge">
<title>Node5&#45;&gt;Node6</title>
<g id="a_edge5_Node000005_Node000006"><a xlink:title=" ">
<path fill="none" stroke="#63b8ff" d="M626.73,-295.67C543.67,-287.79 348.91,-268.84 175.32,-248.17"/>
<polygon fill="#63b8ff" stroke="#63b8ff" points="175.77,-244.7 165.42,-246.99 174.94,-251.65 175.77,-244.7"/>
</a>
</g>
</g>
<!-- Node7 -->
<g id="Node000007" class="node">
<title>Node7</title>
<g id="a_Node000007"><a xlink:href="ethernet_8h.html" target="_top" xlink:title="Definitions for Ethernet.">
<polygon fill="white" stroke="#666666" points="1021.11,-247.75 936.11,-247.75 936.11,-227 1021.11,-227 1021.11,-247.75"/>
<text text-anchor="middle" x="978.61" y="-234.25" font-family="Helvetica,sans-Serif" font-size="10.00">net/ethernet.h</text>
</a>
</g>
</g>
<!-- Node5&#45;&gt;Node7 -->
<g id="edge6_Node000005_Node000007" class="edge">
<title>Node5&#45;&gt;Node7</title>
<g id="a_edge6_Node000005_Node000007"><a xlink:title=" ">
<path fill="none" stroke="#63b8ff" d="M708.59,-291.45C764.1,-280.54 863.3,-261.04 924.77,-248.96"/>
<polygon fill="#63b8ff" stroke="#63b8ff" points="925.17,-252.44 934.31,-247.08 923.82,-245.58 925.17,-252.44"/>
</a>
</g>
</g>
<!-- Node15 -->
<g id="Node000015" class="node">
<title>Node15</title>
<g id="a_Node000015"><a xlink:href="sys_2include_2net_2wifi_8h.html" target="_top" xlink:title="Definitions for Wi&#45;Fi.">
<polygon fill="white" stroke="#666666" points="1155.49,-247.75 1093.74,-247.75 1093.74,-227 1155.49,-227 1155.49,-247.75"/>
<text text-anchor="middle" x="1124.61" y="-234.25" font-family="Helvetica,sans-Serif" font-size="10.00">net/wifi.h</text>
</a>
</g>
</g>
<!-- Node5&#45;&gt;Node15 -->
<g id="edge20_Node000005_Node000015" class="edge">
<title>Node5&#45;&gt;Node15</title>
<g id="a_edge20_Node000005_Node000015"><a xlink:title=" ">
<path fill="none" stroke="#63b8ff" d="M708.57,-294.02C794.86,-282.48 994.62,-255.76 1082.19,-244.05"/>
<polygon fill="#63b8ff" stroke="#63b8ff" points="1082.58,-247.53 1092.03,-242.73 1081.65,-240.59 1082.58,-247.53"/>
</a>
</g>
</g>
<!-- Node16 -->
<g id="Node000016" class="node">
<title>Node16</title>
<g id="a_Node000016"><a xlink:href="drivers_2include_2net_2netdev_8h.html" target="_top" xlink:title="Definitions low&#45;level network driver interface.">
<polygon fill="white" stroke="#666666" points="348.99,-247.75 272.24,-247.75 272.24,-227 348.99,-227 348.99,-247.75"/>
<text text-anchor="middle" x="310.61" y="-234.25" font-family="Helvetica,sans-Serif" font-size="10.00">net/netdev.h</text>
</a>
</g>
</g>
<!-- Node5&#45;&gt;Node16 -->
<g id="edge22_Node000005_Node000016" class="edge">
<title>Node5&#45;&gt;Node16</title>
<g id="a_edge22_Node000005_Node000016"><a xlink:title=" ">
<path fill="none" stroke="#63b8ff" d="M626.66,-292.49C560.9,-281.23 431.97,-259.15 360.79,-246.97"/>
<polygon fill="#63b8ff" stroke="#63b8ff" points="361.4,-243.52 350.95,-245.28 360.22,-250.42 361.4,-243.52"/>
</a>
</g>
</g>
<!-- Node27 -->
<g id="Node000027" class="node">
<title>Node27</title>
<g id="a_Node000027"><a xlink:href="drivers_2include_2periph_2gpio_8h.html" target="_top" xlink:title="Low&#45;level GPIO peripheral driver interface definitions.">
<polygon fill="white" stroke="#666666" points="758.49,-134.25 678.74,-134.25 678.74,-113.5 758.49,-113.5 758.49,-134.25"/>
<text text-anchor="middle" x="718.61" y="-120.75" font-family="Helvetica,sans-Serif" font-size="10.00">periph/gpio.h</text>
</a>
</g>
</g>
<!-- Node5&#45;&gt;Node27 -->
<g id="edge40_Node000005_Node000027" class="edge">
<title>Node5&#45;&gt;Node27</title>
<g id="a_edge40_Node000005_Node000027"><a xlink:title=" ">
<path fill="none" stroke="#63b8ff" d="M670.42,-289.86C678.45,-262.38 701.59,-183.16 712.62,-145.39"/>
<polygon fill="#63b8ff" stroke="#63b8ff" points="715.87,-146.73 715.32,-136.15 709.15,-144.77 715.87,-146.73"/>
</a>
</g>
</g>
<!-- Node31 -->
<g id="Node000031" class="node">
<title>Node31</title>
<g id="a_Node000031"><a xlink:href="spi_8h.html" target="_top" xlink:title="Low&#45;level SPI peripheral driver interface definition.">
<polygon fill="white" stroke="#666666" points="649.11,-191 576.11,-191 576.11,-170.25 649.11,-170.25 649.11,-191"/>
<text text-anchor="middle" x="612.61" y="-177.5" font-family="Helvetica,sans-Serif" font-size="10.00">periph/spi.h</text>
</a>
</g>
</g>
<!-- Node5&#45;&gt;Node31 -->
<g id="edge44_Node000005_Node000031" class="edge">
<title>Node5&#45;&gt;Node31</title>
<g id="a_edge44_Node000005_Node000031"><a xlink:title=" ">
<path fill="none" stroke="#63b8ff" d="M663.11,-289.85C654.17,-270.69 633.99,-227.45 622.02,-201.8"/>
<polygon fill="#63b8ff" stroke="#63b8ff" points="625.21,-200.36 617.81,-192.78 618.87,-203.32 625.21,-200.36"/>
</a>
</g>
</g>
<!-- Node32 -->
<g id="Node000032" class="node">
<title>Node32</title>
<g id="a_Node000032"><a xlink:href="ringbuffer_8h.html" target="_top" xlink:title="A utility for storing and retrieving byte data using a ring buffer.">
<polygon fill="white" stroke="#666666" points="254.11,-247.75 181.11,-247.75 181.11,-227 254.11,-227 254.11,-247.75"/>
<text text-anchor="middle" x="217.61" y="-234.25" font-family="Helvetica,sans-Serif" font-size="10.00">ringbuffer.h</text>
</a>
</g>
</g>
<!-- Node5&#45;&gt;Node32 -->
<g id="edge53_Node000005_Node000032" class="edge">
<title>Node5&#45;&gt;Node32</title>
<g id="a_edge53_Node000005_Node000032"><a xlink:title=" ">
<path fill="none" stroke="#63b8ff" d="M626.75,-295.27C555.59,-287.69 404.07,-270.59 265.69,-247.99"/>
<polygon fill="#63b8ff" stroke="#63b8ff" points="266.4,-244.56 255.97,-246.38 265.26,-251.46 266.4,-244.56"/>
</a>
</g>
</g>
<!-- Node8 -->
<g id="Node000008" class="node">
<title>Node8</title>
<g id="a_Node000008"><a xlink:title=" ">
<polygon fill="#e0e0e0" stroke="#999999" points="536.99,-20.75 484.24,-20.75 484.24,0 536.99,0 536.99,-20.75"/>
<text text-anchor="middle" x="510.61" y="-7.25" font-family="Helvetica,sans-Serif" font-size="10.00">stdint.h</text>
</a>
</g>
</g>
<!-- Node7&#45;&gt;Node8 -->
<g id="edge7_Node000007_Node000008" class="edge">
<title>Node7&#45;&gt;Node8</title>
<g id="a_edge7_Node000007_Node000008"><a xlink:title=" ">
<path fill="none" stroke="#63b8ff" d="M1019.78,-226.58C1042.77,-219.56 1070.88,-208.23 1091.61,-191 1141.06,-149.88 1189.44,-103.82 1145.61,-56.75 1104.89,-13.02 679.86,-10.79 548.84,-11.15"/>
<polygon fill="#63b8ff" stroke="#63b8ff" points="548.95,-7.65 538.97,-11.19 548.98,-14.65 548.95,-7.65"/>
</a>
</g>
</g>
<!-- Node9 -->
<g id="Node000009" class="node">
<title>Node9</title>
<g id="a_Node000009"><a xlink:href="net_2ethernet_2hdr_8h.html" target="_top" xlink:title="Ethernet header definitions.">
<polygon fill="white" stroke="#666666" points="1082.49,-191 978.74,-191 978.74,-170.25 1082.49,-170.25 1082.49,-191"/>
<text text-anchor="middle" x="1030.61" y="-177.5" font-family="Helvetica,sans-Serif" font-size="10.00">net/ethernet/hdr.h</text>
</a>
</g>
</g>
<!-- Node7&#45;&gt;Node9 -->
<g id="edge8_Node000007_Node000009" class="edge">
<title>Node7&#45;&gt;Node9</title>
<g id="a_edge8_Node000007_Node000009"><a xlink:title=" ">
<path fill="none" stroke="#63b8ff" d="M987.91,-226.59C995.01,-219.11 1004.98,-208.61 1013.51,-199.63"/>
<polygon fill="#63b8ff" stroke="#63b8ff" points="1016,-202.09 1020.35,-192.43 1010.93,-197.27 1016,-202.09"/>
</a>
</g>
</g>
<!-- Node14 -->
<g id="Node000014" class="node">
<title>Node14</title>
<g id="a_Node000014"><a xlink:href="eui64_8h.html" target="_top" xlink:title="EUI&#45;64 data type definition.">
<polygon fill="white" stroke="#666666" points="960.99,-191 890.24,-191 890.24,-170.25 960.99,-170.25 960.99,-191"/>
<text text-anchor="middle" x="925.61" y="-177.5" font-family="Helvetica,sans-Serif" font-size="10.00">net/eui64.h</text>
</a>
</g>
</g>
<!-- Node7&#45;&gt;Node14 -->
<g id="edge17_Node000007_Node000014" class="edge">
<title>Node7&#45;&gt;Node14</title>
<g id="a_edge17_Node000007_Node000014"><a xlink:title=" ">
<path fill="none" stroke="#63b8ff" d="M969.13,-226.59C961.82,-219.03 951.52,-208.39 942.77,-199.35"/>
<polygon fill="#63b8ff" stroke="#63b8ff" points="945.53,-197.17 936.06,-192.42 940.5,-202.04 945.53,-197.17"/>
</a>
</g>
</g>
<!-- Node10 -->
<g id="Node000010" class="node">
<title>Node10</title>
<g id="a_Node000010"><a xlink:href="inttypes_8h.html" target="_top" xlink:title="Adds include for missing inttype definitions.">
<polygon fill="white" stroke="#666666" points="1118.99,-134.25 1054.24,-134.25 1054.24,-113.5 1118.99,-113.5 1118.99,-134.25"/>
<text text-anchor="middle" x="1086.61" y="-120.75" font-family="Helvetica,sans-Serif" font-size="10.00">inttypes.h</text>
</a>
</g>
</g>
<!-- Node9&#45;&gt;Node10 -->
<g id="edge9_Node000009_Node000010" class="edge">
<title>Node9&#45;&gt;Node10</title>
<g id="a_edge9_Node000009_Node000010"><a xlink:title=" ">
<path fill="none" stroke="#63b8ff" d="M1040.62,-169.84C1048.35,-162.28 1059.24,-151.64 1068.48,-142.6"/>
<polygon fill="#63b8ff" stroke="#63b8ff" points="1070.9,-145.13 1075.6,-135.64 1066.01,-140.12 1070.9,-145.13"/>
</a>
</g>
</g>
<!-- Node11 -->
<g id="Node000011" class="node">
<title>Node11</title>
<g id="a_Node000011"><a xlink:href="byteorder_8h.html" target="_top" xlink:title="Functions to work with different byte orders.">
<polygon fill="white" stroke="#666666" points="1032.74,-134.25 960.49,-134.25 960.49,-113.5 1032.74,-113.5 1032.74,-134.25"/>
<text text-anchor="middle" x="996.61" y="-120.75" font-family="Helvetica,sans-Serif" font-size="10.00">byteorder.h</text>
</a>
</g>
</g>
<!-- Node9&#45;&gt;Node11 -->
<g id="edge10_Node000009_Node000011" class="edge">
<title>Node9&#45;&gt;Node11</title>
<g id="a_edge10_Node000009_Node000011"><a xlink:title=" ">
<path fill="none" stroke="#63b8ff" d="M1024.53,-169.84C1020.13,-162.75 1014.04,-152.94 1008.67,-144.29"/>
<polygon fill="#63b8ff" stroke="#63b8ff" points="1011.68,-142.51 1003.43,-135.86 1005.74,-146.21 1011.68,-142.51"/>
</a>
</g>
</g>
<!-- Node11&#45;&gt;Node3 -->
<g id="edge11_Node000011_Node000003" class="edge">
<title>Node11&#45;&gt;Node3</title>
<g id="a_edge11_Node000011_Node000003"><a xlink:title=" ">
<path fill="none" stroke="#63b8ff" d="M1016.99,-113.09C1034.58,-104.64 1060.24,-92.32 1080.24,-82.71"/>
<polygon fill="#63b8ff" stroke="#63b8ff" points="1081.54,-85.97 1089.04,-78.48 1078.51,-79.66 1081.54,-85.97"/>
</a>
</g>
</g>
<!-- Node11&#45;&gt;Node8 -->
<g id="edge12_Node000011_Node000008" class="edge">
<title>Node11&#45;&gt;Node8</title>
<g id="a_edge12_Node000011_Node000008"><a xlink:title=" ">
<path fill="none" stroke="#63b8ff" d="M991.62,-113.2C983.3,-98.19 965.08,-69.69 940.61,-56.75 872.99,-20.98 640.48,-13.4 548.5,-11.8"/>
<polygon fill="#63b8ff" stroke="#63b8ff" points="548.81,-8.31 538.75,-11.65 548.7,-15.31 548.81,-8.31"/>
</a>
</g>
</g>
<!-- Node12 -->
<g id="Node000012" class="node">
<title>Node12</title>
<g id="a_Node000012"><a xlink:href="endian_8h.html" target="_top" xlink:title="libc header for endian conversion">
<polygon fill="white" stroke="#666666" points="898.61,-77.5 840.61,-77.5 840.61,-56.75 898.61,-56.75 898.61,-77.5"/>
<text text-anchor="middle" x="869.61" y="-64" font-family="Helvetica,sans-Serif" font-size="10.00">endian.h</text>
</a>
</g>
</g>
<!-- Node11&#45;&gt;Node12 -->
<g id="edge13_Node000011_Node000012" class="edge">
<title>Node11&#45;&gt;Node12</title>
<g id="a_edge13_Node000011_Node000012"><a xlink:title=" ">
<path fill="none" stroke="#63b8ff" d="M973.9,-113.09C954.04,-104.52 924.94,-91.98 902.52,-82.31"/>
<polygon fill="#63b8ff" stroke="#63b8ff" points="904.08,-79.17 893.51,-78.43 901.31,-85.6 904.08,-79.17"/>
</a>
</g>
</g>
<!-- Node13 -->
<g id="Node000013" class="node">
<title>Node13</title>
<g id="a_Node000013"><a xlink:href="unaligned_8h.html" target="_top" xlink:title="Unaligned but safe memory access functions.">
<polygon fill="white" stroke="#666666" points="1066.11,-77.5 993.11,-77.5 993.11,-56.75 1066.11,-56.75 1066.11,-77.5"/>
<text text-anchor="middle" x="1029.61" y="-64" font-family="Helvetica,sans-Serif" font-size="10.00">unaligned.h</text>
</a>
</g>
</g>
<!-- Node11&#45;&gt;Node13 -->
<g id="edge15_Node000011_Node000013" class="edge">
<title>Node11&#45;&gt;Node13</title>
<g id="a_edge15_Node000011_Node000013"><a xlink:title=" ">
<path fill="none" stroke="#63b8ff" d="M1002.51,-113.09C1006.78,-106 1012.69,-96.19 1017.91,-87.54"/>
<polygon fill="#63b8ff" stroke="#63b8ff" points="1020.82,-89.5 1022.98,-79.12 1014.82,-85.88 1020.82,-89.5"/>
</a>
</g>
</g>
<!-- Node12&#45;&gt;Node8 -->
<g id="edge14_Node000012_Node000008" class="edge">
<title>Node12&#45;&gt;Node8</title>
<g id="a_edge14_Node000012_Node000008"><a xlink:title=" ">
<path fill="none" stroke="#63b8ff" d="M840.22,-58.56C837.32,-57.91 834.41,-57.29 831.61,-56.75 730.07,-37.1 608.92,-22.28 548.62,-15.48"/>
<polygon fill="#63b8ff" stroke="#63b8ff" points="549.23,-12.03 538.9,-14.4 548.45,-18.99 549.23,-12.03"/>
</a>
</g>
</g>
<!-- Node13&#45;&gt;Node8 -->
<g id="edge16_Node000013_Node000008" class="edge">
<title>Node13&#45;&gt;Node8</title>
<g id="a_edge16_Node000013_Node000008"><a xlink:title=" ">
<path fill="none" stroke="#63b8ff" d="M992.62,-58.94C987.92,-58.14 983.16,-57.39 978.61,-56.75 819.63,-34.47 628.73,-19.65 548.77,-13.97"/>
<polygon fill="#63b8ff" stroke="#63b8ff" points="549.08,-10.48 538.86,-13.27 548.59,-17.46 549.08,-10.48"/>
</a>
</g>
</g>
<!-- Node14&#45;&gt;Node8 -->
<g id="edge18_Node000014_Node000008" class="edge">
<title>Node14&#45;&gt;Node8</title>
<g id="a_edge18_Node000014_Node000008"><a xlink:title=" ">
<path fill="none" stroke="#63b8ff" d="M927.66,-169.92C931.94,-146.62 939.04,-87.2 907.61,-56.75 882.08,-32.01 642.9,-17.8 548.58,-13.12"/>
<polygon fill="#63b8ff" stroke="#63b8ff" points="548.98,-9.63 538.82,-12.64 548.64,-16.62 548.98,-9.63"/>
</a>
</g>
</g>
<!-- Node14&#45;&gt;Node11 -->
<g id="edge19_Node000014_Node000011" class="edge">
<title>Node14&#45;&gt;Node11</title>
<g id="a_edge19_Node000014_Node000011"><a xlink:title=" ">
<path fill="none" stroke="#63b8ff" d="M938.3,-169.84C948.5,-161.97 963.05,-150.75 975.07,-141.49"/>
<polygon fill="#63b8ff" stroke="#63b8ff" points="977.05,-144.38 982.83,-135.5 972.77,-138.84 977.05,-144.38"/>
</a>
</g>
</g>
<!-- Node15&#45;&gt;Node10 -->
<g id="edge21_Node000015_Node000010" class="edge">
<title>Node15&#45;&gt;Node10</title>
<g id="a_edge21_Node000015_Node000010"><a xlink:title=" ">
<path fill="none" stroke="#63b8ff" d="M1121.37,-226.87C1115.26,-208.94 1101.9,-169.75 1093.64,-145.51"/>
<polygon fill="#63b8ff" stroke="#63b8ff" points="1096.98,-144.44 1090.44,-136.11 1090.35,-146.7 1096.98,-144.44"/>
</a>
</g>
</g>
<!-- Node16&#45;&gt;Node8 -->
<g id="edge23_Node000016_Node000008" class="edge">
<title>Node16&#45;&gt;Node8</title>
<g id="a_edge23_Node000016_Node000008"><a xlink:title=" ">
<path fill="none" stroke="#63b8ff" d="M290.62,-226.54C262.2,-211.28 211.26,-178.95 190.61,-134.25 174.68,-99.77 194.88,-77.63 226.61,-56.75 266.45,-30.54 404.97,-18.18 472.72,-13.59"/>
<polygon fill="#63b8ff" stroke="#63b8ff" points="472.86,-17.09 482.61,-12.95 472.4,-10.11 472.86,-17.09"/>
</a>
</g>
</g>
<!-- Node17 -->
<g id="Node000017" class="node">
<title>Node17</title>
<g id="a_Node000017"><a xlink:href="errno_8h.html" target="_top" xlink:title=" ">
<polygon fill="white" stroke="#666666" points="143.86,-134.25 93.36,-134.25 93.36,-113.5 143.86,-113.5 143.86,-134.25"/>
<text text-anchor="middle" x="118.61" y="-120.75" font-family="Helvetica,sans-Serif" font-size="10.00">errno.h</text>
</a>
</g>
</g>
<!-- Node16&#45;&gt;Node17 -->
<g id="edge24_Node000016_Node000017" class="edge">
<title>Node16&#45;&gt;Node17</title>
<g id="a_edge24_Node000016_Node000017"><a xlink:title=" ">
<path fill="none" stroke="#63b8ff" d="M272.12,-228.38C224.16,-218.11 147.3,-200.47 137.61,-191 125.58,-179.25 121.04,-160.43 119.38,-145.87"/>
<polygon fill="#63b8ff" stroke="#63b8ff" points="122.88,-145.68 118.67,-135.96 115.9,-146.18 122.88,-145.68"/>
</a>
</g>
</g>
<!-- Node18 -->
<g id="Node000018" class="node">
<title>Node18</title>
<g id="a_Node000018"><a xlink:href="iolist_8h.html" target="_top" xlink:title="iolist scatter / gather IO">
<polygon fill="white" stroke="#666666" points="196.11,-191 147.11,-191 147.11,-170.25 196.11,-170.25 196.11,-191"/>
<text text-anchor="middle" x="171.61" y="-177.5" font-family="Helvetica,sans-Serif" font-size="10.00">iolist.h</text>
</a>
</g>
</g>
<!-- Node16&#45;&gt;Node18 -->
<g id="edge25_Node000016_Node000018" class="edge">
<title>Node16&#45;&gt;Node18</title>
<g id="a_edge25_Node000016_Node000018"><a xlink:title=" ">
<path fill="none" stroke="#63b8ff" d="M285.76,-226.59C263.72,-217.91 231.29,-205.13 206.63,-195.42"/>
<polygon fill="#63b8ff" stroke="#63b8ff" points="208.24,-192.29 197.65,-191.88 205.68,-198.8 208.24,-192.29"/>
</a>
</g>
</g>
<!-- Node19 -->
<g id="Node000019" class="node">
<title>Node19</title>
<g id="a_Node000019"><a xlink:href="netopt_8h.html" target="_top" xlink:title="Definition of global configuration options.">
<polygon fill="white" stroke="#666666" points="90.24,-191 14.99,-191 14.99,-170.25 90.24,-170.25 90.24,-191"/>
<text text-anchor="middle" x="52.61" y="-177.5" font-family="Helvetica,sans-Serif" font-size="10.00">net/netopt.h</text>
</a>
</g>
</g>
<!-- Node16&#45;&gt;Node19 -->
<g id="edge26_Node000016_Node000019" class="edge">
<title>Node16&#45;&gt;Node19</title>
<g id="a_edge26_Node000016_Node000019"><a xlink:title=" ">
<path fill="none" stroke="#63b8ff" d="M271.98,-228.18C226.6,-218.55 151.22,-202.55 101.73,-192.05"/>
<polygon fill="#63b8ff" stroke="#63b8ff" points="102.65,-188.67 92.14,-190.01 101.19,-195.51 102.65,-188.67"/>
</a>
</g>
</g>
<!-- Node20 -->
<g id="Node000020" class="node">
<title>Node20</title>
<g id="a_Node000020"><a xlink:href="kernel__defines_8h.html" target="_top" xlink:title="Common macros and compiler attributes/pragmas configuration.">
<polygon fill="white" stroke="#666666" points="384.74,-191 288.49,-191 288.49,-170.25 384.74,-170.25 384.74,-191"/>
<text text-anchor="middle" x="336.61" y="-177.5" font-family="Helvetica,sans-Serif" font-size="10.00">kernel_defines.h</text>
</a>
</g>
</g>
<!-- Node16&#45;&gt;Node20 -->
<g id="edge29_Node000016_Node000020" class="edge">
<title>Node16&#45;&gt;Node20</title>
<g id="a_edge29_Node000016_Node000020"><a xlink:title=" ">
<path fill="none" stroke="#63b8ff" d="M315.26,-226.59C318.55,-219.66 323.08,-210.12 327.12,-201.61"/>
<polygon fill="#63b8ff" stroke="#63b8ff" points="330.22,-203.23 331.35,-192.7 323.9,-200.23 330.22,-203.23"/>
</a>
</g>
</g>
<!-- Node19&#45;&gt;Node2 -->
<g id="edge28_Node000019_Node000002" class="edge">
<title>Node19&#45;&gt;Node2</title>
<g id="a_edge28_Node000019_Node000002"><a xlink:title=" ">
<path fill="none" stroke="#63b8ff" d="M51.18,-169.84C50.2,-163.14 48.87,-154.01 47.66,-145.73"/>
<polygon fill="#63b8ff" stroke="#63b8ff" points="51.16,-145.46 46.25,-136.08 44.23,-146.48 51.16,-145.46"/>
</a>
</g>
</g>
<!-- Node19&#45;&gt;Node8 -->
<g id="edge27_Node000019_Node000008" class="edge">
<title>Node19&#45;&gt;Node8</title>
<g id="a_edge27_Node000019_Node000008"><a xlink:title=" ">
<path fill="none" stroke="#63b8ff" d="M36.65,-169.85C17.75,-157.03 -9.49,-133.76 4.61,-113.5 58.32,-36.3 364.07,-17.04 472.49,-12.61"/>
<polygon fill="#63b8ff" stroke="#63b8ff" points="472.46,-16.11 482.32,-12.23 472.19,-9.12 472.46,-16.11"/>
</a>
</g>
</g>
<!-- Node21 -->
<g id="Node000021" class="node">
<title>Node21</title>
<g id="a_Node000021"><a xlink:href="modules_8h.html" target="_top" xlink:title="Common macros and compiler attributes/pragmas configuration.">
<polygon fill="white" stroke="#666666" points="470.11,-134.25 403.11,-134.25 403.11,-113.5 470.11,-113.5 470.11,-134.25"/>
<text text-anchor="middle" x="436.61" y="-120.75" font-family="Helvetica,sans-Serif" font-size="10.00">modules.h</text>
</a>
</g>
</g>
<!-- Node20&#45;&gt;Node21 -->
<g id="edge30_Node000020_Node000021" class="edge">
<title>Node20&#45;&gt;Node21</title>
<g id="a_edge30_Node000020_Node000021"><a xlink:title=" ">
<path fill="none" stroke="#63b8ff" d="M354.49,-169.84C369.7,-161.51 391.8,-149.41 409.24,-139.86"/>
<polygon fill="#63b8ff" stroke="#63b8ff" points="410.47,-143.18 417.56,-135.31 407.11,-137.04 410.47,-143.18"/>
</a>
</g>
</g>
<!-- Node22 -->
<g id="Node000022" class="node">
<title>Node22</title>
<g id="a_Node000022"><a xlink:href="riot__version_8h.html" target="_top" xlink:title="Common macros and compiler attributes/pragmas configuration.">
<polygon fill="white" stroke="#666666" points="517.99,-77.5 435.24,-77.5 435.24,-56.75 517.99,-56.75 517.99,-77.5"/>
<text text-anchor="middle" x="476.61" y="-64" font-family="Helvetica,sans-Serif" font-size="10.00">riot_version.h</text>
</a>
</g>
</g>
<!-- Node20&#45;&gt;Node22 -->
<g id="edge31_Node000020_Node000022" class="edge">
<title>Node20&#45;&gt;Node22</title>
<g id="a_edge31_Node000020_Node000022"><a xlink:title=" ">
<path fill="none" stroke="#63b8ff" d="M385.17,-178.2C417.62,-174.41 458.15,-163.57 479.61,-134.25 489.15,-121.21 487.31,-102.54 483.7,-88.37"/>
<polygon fill="#63b8ff" stroke="#63b8ff" points="487.17,-87.73 480.92,-79.18 480.47,-89.77 487.17,-87.73"/>
</a>
</g>
</g>
<!-- Node23 -->
<g id="Node000023" class="node">
<title>Node23</title>
<g id="a_Node000023"><a xlink:href="compiler__hints_8h.html" target="_top" xlink:title="Common macros and compiler attributes/pragmas configuration.">
<polygon fill="white" stroke="#666666" points="385.11,-134.25 288.11,-134.25 288.11,-113.5 385.11,-113.5 385.11,-134.25"/>
<text text-anchor="middle" x="336.61" y="-120.75" font-family="Helvetica,sans-Serif" font-size="10.00">compiler_hints.h</text>
</a>
</g>
</g>
<!-- Node20&#45;&gt;Node23 -->
<g id="edge33_Node000020_Node000023" class="edge">
<title>Node20&#45;&gt;Node23</title>
<g id="a_edge33_Node000020_Node000023"><a xlink:title=" ">
<path fill="none" stroke="#63b8ff" d="M336.61,-169.84C336.61,-163.22 336.61,-154.22 336.61,-146.02"/>
<polygon fill="#63b8ff" stroke="#63b8ff" points="340.11,-146.09 336.61,-136.09 333.11,-146.09 340.11,-146.09"/>
</a>
</g>
</g>
<!-- Node25 -->
<g id="Node000025" class="node">
<title>Node25</title>
<g id="a_Node000025"><a xlink:href="container_8h.html" target="_top" xlink:title="Common macros and compiler attributes/pragmas configuration.">
<polygon fill="white" stroke="#666666" points="269.99,-134.25 199.24,-134.25 199.24,-113.5 269.99,-113.5 269.99,-134.25"/>
<text text-anchor="middle" x="234.61" y="-120.75" font-family="Helvetica,sans-Serif" font-size="10.00">container.h</text>
</a>
</g>
</g>
<!-- Node20&#45;&gt;Node25 -->
<g id="edge37_Node000020_Node000025" class="edge">
<title>Node20&#45;&gt;Node25</title>
<g id="a_edge37_Node000020_Node000025"><a xlink:title=" ">
<path fill="none" stroke="#63b8ff" d="M318.37,-169.84C302.93,-161.55 280.52,-149.52 262.77,-139.99"/>
<polygon fill="#63b8ff" stroke="#63b8ff" points="264.49,-136.94 254.02,-135.29 261.18,-143.11 264.49,-136.94"/>
</a>
</g>
</g>
<!-- Node22&#45;&gt;Node8 -->
<g id="edge32_Node000022_Node000008" class="edge">
<title>Node22&#45;&gt;Node8</title>
<g id="a_edge32_Node000022_Node000008"><a xlink:title=" ">
<path fill="none" stroke="#63b8ff" d="M482.69,-56.34C487.09,-49.25 493.18,-39.44 498.55,-30.79"/>
<polygon fill="#63b8ff" stroke="#63b8ff" points="501.48,-32.71 503.79,-22.36 495.54,-29.01 501.48,-32.71"/>
</a>
</g>
</g>
<!-- Node23&#45;&gt;Node8 -->
<g id="edge36_Node000023_Node000008" class="edge">
<title>Node23&#45;&gt;Node8</title>
<g id="a_edge36_Node000023_Node000008"><a xlink:title=" ">
<path fill="none" stroke="#63b8ff" d="M336.28,-113.37C336.33,-99.12 338.58,-72.23 353.61,-56.75 384.68,-24.74 436.81,-14.93 472.41,-12.13"/>
<polygon fill="#63b8ff" stroke="#63b8ff" points="472.51,-15.63 482.28,-11.52 472.08,-8.65 472.51,-15.63"/>
</a>
</g>
</g>
<!-- Node24 -->
<g id="Node000024" class="node">
<title>Node24</title>
<g id="a_Node000024"><a xlink:href="assert_8h.html" target="_top" xlink:title="POSIX.1&#45;2008 compliant version of the assert macro.">
<polygon fill="white" stroke="#666666" points="305.11,-77.5 250.11,-77.5 250.11,-56.75 305.11,-56.75 305.11,-77.5"/>
<text text-anchor="middle" x="277.61" y="-64" font-family="Helvetica,sans-Serif" font-size="10.00">assert.h</text>
</a>
</g>
</g>
<!-- Node23&#45;&gt;Node24 -->
<g id="edge34_Node000023_Node000024" class="edge">
<title>Node23&#45;&gt;Node24</title>
<g id="a_edge34_Node000023_Node000024"><a xlink:title=" ">
<path fill="none" stroke="#63b8ff" d="M326.06,-113.09C317.84,-105.46 306.21,-94.67 296.41,-85.57"/>
<polygon fill="#63b8ff" stroke="#63b8ff" points="298.89,-83.09 289.18,-78.86 294.13,-88.23 298.89,-83.09"/>
</a>
</g>
</g>
<!-- Node24&#45;&gt;Node8 -->
<g id="edge35_Node000024_Node000008" class="edge">
<title>Node24&#45;&gt;Node8</title>
<g id="a_edge35_Node000024_Node000008"><a xlink:title=" ">
<path fill="none" stroke="#63b8ff" d="M305.25,-59.63C346.93,-49.84 425.95,-31.27 472.88,-20.24"/>
<polygon fill="#63b8ff" stroke="#63b8ff" points="473.67,-23.65 482.61,-17.96 472.07,-16.84 473.67,-23.65"/>
</a>
</g>
</g>
<!-- Node25&#45;&gt;Node8 -->
<g id="edge39_Node000025_Node000008" class="edge">
<title>Node25&#45;&gt;Node8</title>
<g id="a_edge39_Node000025_Node000008"><a xlink:title=" ">
<path fill="none" stroke="#63b8ff" d="M232.25,-113.35C229.33,-99.07 226.35,-72.14 240.61,-56.75 271.39,-23.53 405.95,-14.63 472.73,-12.24"/>
<polygon fill="#63b8ff" stroke="#63b8ff" points="472.6,-15.75 482.48,-11.93 472.37,-8.75 472.6,-15.75"/>
</a>
</g>
</g>
<!-- Node26 -->
<g id="Node000026" class="node">
<title>Node26</title>
<g id="a_Node000026"><a xlink:title=" ">
<polygon fill="#e0e0e0" stroke="#999999" points="417.11,-77.5 362.11,-77.5 362.11,-56.75 417.11,-56.75 417.11,-77.5"/>
<text text-anchor="middle" x="389.61" y="-64" font-family="Helvetica,sans-Serif" font-size="10.00">stddef.h</text>
</a>
</g>
</g>
<!-- Node25&#45;&gt;Node26 -->
<g id="edge38_Node000025_Node000026" class="edge">
<title>Node25&#45;&gt;Node26</title>
<g id="a_edge38_Node000025_Node000026"><a xlink:title=" ">
<path fill="none" stroke="#63b8ff" d="M262.32,-113.09C287.04,-104.36 323.48,-91.48 351.04,-81.75"/>
<polygon fill="#63b8ff" stroke="#63b8ff" points="352.19,-85.06 360.45,-78.42 349.86,-78.46 352.19,-85.06"/>
</a>
</g>
</g>
<!-- Node28 -->
<g id="Node000028" class="node">
<title>Node28</title>
<g id="a_Node000028"><a xlink:title=" ">
<polygon fill="#e0e0e0" stroke="#999999" points="822.99,-77.5 770.24,-77.5 770.24,-56.75 822.99,-56.75 822.99,-77.5"/>
<text text-anchor="middle" x="796.61" y="-64" font-family="Helvetica,sans-Serif" font-size="10.00">limits.h</text>
</a>
</g>
</g>
<!-- Node27&#45;&gt;Node28 -->
<g id="edge41_Node000027_Node000028" class="edge">
<title>Node27&#45;&gt;Node28</title>
<g id="a_edge41_Node000027_Node000028"><a xlink:title=" ">
<path fill="none" stroke="#63b8ff" d="M732.55,-113.09C743.98,-105.07 760.38,-93.56 773.72,-84.19"/>
<polygon fill="#63b8ff" stroke="#63b8ff" points="775.37,-87.31 781.55,-78.7 771.35,-81.58 775.37,-87.31"/>
</a>
</g>
</g>
<!-- Node29 -->
<g id="Node000029" class="node">
<title>Node29</title>
<g id="a_Node000029"><a xlink:title=" ">
<polygon fill="#e0e0e0" stroke="#999999" points="751.74,-77.5 673.49,-77.5 673.49,-56.75 751.74,-56.75 751.74,-77.5"/>
<text text-anchor="middle" x="712.61" y="-64" font-family="Helvetica,sans-Serif" font-size="10.00">periph_cpu.h</text>
</a>
</g>
</g>
<!-- Node27&#45;&gt;Node29 -->
<g id="edge42_Node000027_Node000029" class="edge">
<title>Node27&#45;&gt;Node29</title>
<g id="a_edge42_Node000027_Node000029"><a xlink:title=" ">
<path fill="none" stroke="#63b8ff" d="M717.54,-113.09C716.81,-106.47 715.83,-97.47 714.93,-89.27"/>
<polygon fill="#63b8ff" stroke="#63b8ff" points="718.41,-88.89 713.84,-79.33 711.45,-89.65 718.41,-88.89"/>
</a>
</g>
</g>
<!-- Node30 -->
<g id="Node000030" class="node">
<title>Node30</title>
<g id="a_Node000030"><a xlink:title=" ">
<polygon fill="#e0e0e0" stroke="#999999" points="655.24,-77.5 573.99,-77.5 573.99,-56.75 655.24,-56.75 655.24,-77.5"/>
<text text-anchor="middle" x="614.61" y="-64" font-family="Helvetica,sans-Serif" font-size="10.00">periph_conf.h</text>
</a>
</g>
</g>
<!-- Node27&#45;&gt;Node30 -->
<g id="edge43_Node000027_Node000030" class="edge">
<title>Node27&#45;&gt;Node30</title>
<g id="a_edge43_Node000027_Node000030"><a xlink:title=" ">
<path fill="none" stroke="#63b8ff" d="M700.02,-113.09C684.19,-104.76 661.21,-92.66 643.07,-83.11"/>
<polygon fill="#63b8ff" stroke="#63b8ff" points="644.86,-80.09 634.38,-78.53 641.6,-86.29 644.86,-80.09"/>
</a>
</g>
</g>
<!-- Node31&#45;&gt;Node2 -->
<g id="edge47_Node000031_Node000002" class="edge">
<title>Node31&#45;&gt;Node2</title>
<g id="a_edge47_Node000031_Node000002"><a xlink:title=" ">
<path fill="none" stroke="#63b8ff" d="M575.9,-178.3C491.36,-174.85 276.31,-163.86 86.82,-134.37"/>
<polygon fill="#63b8ff" stroke="#63b8ff" points="87.45,-130.93 77.03,-132.82 86.36,-137.84 87.45,-130.93"/>
</a>
</g>
</g>
<!-- Node31&#45;&gt;Node8 -->
<g id="edge49_Node000031_Node000008" class="edge">
<title>Node31&#45;&gt;Node8</title>
<g id="a_edge49_Node000031_Node000008"><a xlink:title=" ">
<path fill="none" stroke="#63b8ff" d="M606.83,-170.1C590.57,-143.27 544.16,-66.71 522.28,-30.63"/>
<polygon fill="#63b8ff" stroke="#63b8ff" points="525.54,-29.25 517.36,-22.51 519.55,-32.88 525.54,-29.25"/>
</a>
</g>
</g>
<!-- Node31&#45;&gt;Node12 -->
<g id="edge45_Node000031_Node000012" class="edge">
<title>Node31&#45;&gt;Node12</title>
<g id="a_edge45_Node000031_Node000012"><a xlink:title=" ">
<path fill="none" stroke="#63b8ff" d="M649.39,-172.04C681.49,-164.68 728.87,-152.02 767.61,-134.25 797.15,-120.7 828.06,-99.53 848,-84.8"/>
<polygon fill="#63b8ff" stroke="#63b8ff" points="850,-87.68 855.9,-78.87 845.8,-82.08 850,-87.68"/>
</a>
</g>
</g>
<!-- Node31&#45;&gt;Node17 -->
<g id="edge46_Node000031_Node000017" class="edge">
<title>Node31&#45;&gt;Node17</title>
<g id="a_edge46_Node000031_Node000017"><a xlink:title=" ">
<path fill="none" stroke="#63b8ff" d="M575.89,-175.96C502.59,-168.57 332.93,-151.16 190.61,-134.25 179.18,-132.89 166.75,-131.31 155.48,-129.84"/>
<polygon fill="#63b8ff" stroke="#63b8ff" points="156.12,-126.39 145.75,-128.55 155.21,-133.33 156.12,-126.39"/>
</a>
</g>
</g>
<!-- Node31&#45;&gt;Node26 -->
<g id="edge48_Node000031_Node000026" class="edge">
<title>Node31&#45;&gt;Node26</title>
<g id="a_edge48_Node000031_Node000026"><a xlink:title=" ">
<path fill="none" stroke="#63b8ff" d="M593.21,-169.93C554.08,-150.36 465.5,-106.07 419.14,-82.89"/>
<polygon fill="#63b8ff" stroke="#63b8ff" points="420.99,-79.9 410.48,-78.56 417.86,-86.16 420.99,-79.9"/>
</a>
</g>
</g>
<!-- Node31&#45;&gt;Node27 -->
<g id="edge52_Node000031_Node000027" class="edge">
<title>Node31&#45;&gt;Node27</title>
<g id="a_edge52_Node000031_Node000027"><a xlink:title=" ">
<path fill="none" stroke="#63b8ff" d="M631.56,-169.84C647.69,-161.51 671.11,-149.41 689.6,-139.86"/>
<polygon fill="#63b8ff" stroke="#63b8ff" points="691.2,-142.97 698.48,-135.27 687.99,-136.75 691.2,-142.97"/>
</a>
</g>
</g>
<!-- Node31&#45;&gt;Node29 -->
<g id="edge50_Node000031_Node000029" class="edge">
<title>Node31&#45;&gt;Node29</title>
<g id="a_edge50_Node000031_Node000029"><a xlink:title=" ">
<path fill="none" stroke="#63b8ff" d="M620.59,-170.09C631.49,-157.12 651.72,-133.29 669.61,-113.5 677.95,-104.28 687.43,-94.22 695.37,-85.93"/>
<polygon fill="#63b8ff" stroke="#63b8ff" points="697.79,-88.46 702.2,-78.83 692.74,-83.61 697.79,-88.46"/>
</a>
</g>
</g>
<!-- Node31&#45;&gt;Node30 -->
<g id="edge51_Node000031_Node000030" class="edge">
<title>Node31&#45;&gt;Node30</title>
<g id="a_edge51_Node000031_Node000030"><a xlink:title=" ">
<path fill="none" stroke="#63b8ff" d="M612.78,-170.12C613.1,-152.35 613.79,-113.72 614.23,-89.43"/>
<polygon fill="#63b8ff" stroke="#63b8ff" points="617.73,-89.5 614.41,-79.44 610.73,-89.37 617.73,-89.5"/>
</a>
</g>
</g>
</g>
</svg>
