<?xml version="1.0" encoding="UTF-8" standalone="no"?>
<!DOCTYPE svg PUBLIC "-//W3C//DTD SVG 1.1//EN"
 "http://www.w3.org/Graphics/SVG/1.1/DTD/svg11.dtd">
<!-- Generated by graphviz version 12.1.2 (0)
 -->
<!-- Title: boards/avsextrem/include/board.h Pages: 1 -->
<svg width="152pt" height="155pt"
 viewBox="0.00 0.00 152.25 155.00" xmlns="http://www.w3.org/2000/svg" xmlns:xlink="http://www.w3.org/1999/xlink">
<g id="graph0" class="graph" transform="scale(1 1) rotate(0) translate(4 151)">
<title>boards/avsextrem/include/board.h</title>
<!-- Node1 -->
<g id="Node000001" class="node">
<title>Node1</title>
<g id="a_Node000001"><a xlink:title="Boards specific drivers and configuration for the Avsextrem board.">
<polygon fill="#999999" stroke="#666666" points="142.75,-147 0,-147 0,-113.5 142.75,-113.5 142.75,-147"/>
<text text-anchor="start" x="8" y="-133.5" font-family="Helvetica,sans-Serif" font-size="10.00">boards/avsextrem/include</text>
<text text-anchor="middle" x="71.38" y="-120.75" font-family="Helvetica,sans-Serif" font-size="10.00">/board.h</text>
</a>
</g>
</g>
<!-- Node2 -->
<g id="Node000002" class="node">
<title>Node2</title>
<g id="a_Node000002"><a xlink:href="bitarithm_8h.html" target="_top" xlink:title="Helper functions for bit arithmetic.">
<polygon fill="white" stroke="#666666" points="106.38,-77.5 36.38,-77.5 36.38,-56.75 106.38,-56.75 106.38,-77.5"/>
<text text-anchor="middle" x="71.38" y="-64" font-family="Helvetica,sans-Serif" font-size="10.00">bitarithm.h</text>
</a>
</g>
</g>
<!-- Node1&#45;&gt;Node2 -->
<g id="edge1_Node000001_Node000002" class="edge">
<title>Node1&#45;&gt;Node2</title>
<g id="a_edge1_Node000001_Node000002"><a xlink:title=" ">
<path fill="none" stroke="#63b8ff" d="M71.38,-113.19C71.38,-105.85 71.38,-97.07 71.38,-89.21"/>
<polygon fill="#63b8ff" stroke="#63b8ff" points="74.88,-89.48 71.38,-79.48 67.88,-89.48 74.88,-89.48"/>
</a>
</g>
</g>
<!-- Node3 -->
<g id="Node000003" class="node">
<title>Node3</title>
<g id="a_Node000003"><a xlink:title=" ">
<polygon fill="#e0e0e0" stroke="#999999" points="58.75,-20.75 6,-20.75 6,0 58.75,0 58.75,-20.75"/>
<text text-anchor="middle" x="32.38" y="-7.25" font-family="Helvetica,sans-Serif" font-size="10.00">stdint.h</text>
</a>
</g>
</g>
<!-- Node2&#45;&gt;Node3 -->
<g id="edge2_Node000002_Node000003" class="edge">
<title>Node2&#45;&gt;Node3</title>
<g id="a_edge2_Node000002_Node000003"><a xlink:title=" ">
<path fill="none" stroke="#63b8ff" d="M64.4,-56.34C59.24,-49.1 52.06,-39.01 45.8,-30.22"/>
<polygon fill="#63b8ff" stroke="#63b8ff" points="48.82,-28.43 40.17,-22.31 43.12,-32.49 48.82,-28.43"/>
</a>
</g>
</g>
<!-- Node4 -->
<g id="Node000004" class="node">
<title>Node4</title>
<g id="a_Node000004"><a xlink:title=" ">
<polygon fill="#e0e0e0" stroke="#999999" points="144.25,-20.75 76.5,-20.75 76.5,0 144.25,0 144.25,-20.75"/>
<text text-anchor="middle" x="110.38" y="-7.25" font-family="Helvetica,sans-Serif" font-size="10.00">cpu_conf.h</text>
</a>
</g>
</g>
<!-- Node2&#45;&gt;Node4 -->
<g id="edge3_Node000002_Node000004" class="edge">
<title>Node2&#45;&gt;Node4</title>
<g id="a_edge3_Node000002_Node000004"><a xlink:title=" ">
<path fill="none" stroke="#63b8ff" d="M78.35,-56.34C83.51,-49.1 90.69,-39.01 96.95,-30.22"/>
<polygon fill="#63b8ff" stroke="#63b8ff" points="99.63,-32.49 102.58,-22.31 93.93,-28.43 99.63,-32.49"/>
</a>
</g>
</g>
</g>
</svg>
