<?xml version="1.0" encoding="UTF-8" standalone="no"?>
<!DOCTYPE svg PUBLIC "-//W3C//DTD SVG 1.1//EN"
 "http://www.w3.org/Graphics/SVG/1.1/DTD/svg11.dtd">
<!-- Generated by graphviz version 12.1.2 (0)
 -->
<!-- Title: sys/include/benchmark.h Pages: 1 -->
<svg width="184pt" height="142pt"
 viewBox="0.00 0.00 183.62 142.25" xmlns="http://www.w3.org/2000/svg" xmlns:xlink="http://www.w3.org/1999/xlink">
<g id="graph0" class="graph" transform="scale(1 1) rotate(0) translate(4 138.25)">
<title>sys/include/benchmark.h</title>
<!-- Node1 -->
<g id="Node000001" class="node">
<title>Node1</title>
<g id="a_Node000001"><a xlink:title="Interface for running simple benchmarks.">
<polygon fill="#999999" stroke="#666666" points="137.5,-134.25 0,-134.25 0,-113.5 137.5,-113.5 137.5,-134.25"/>
<text text-anchor="middle" x="68.75" y="-120.75" font-family="Helvetica,sans-Serif" font-size="10.00">sys/include/benchmark.h</text>
</a>
</g>
</g>
<!-- Node2 -->
<g id="Node000002" class="node">
<title>Node2</title>
<g id="a_Node000002"><a xlink:title=" ">
<polygon fill="#e0e0e0" stroke="#999999" points="64.12,-77.5 11.38,-77.5 11.38,-56.75 64.12,-56.75 64.12,-77.5"/>
<text text-anchor="middle" x="37.75" y="-64" font-family="Helvetica,sans-Serif" font-size="10.00">stdint.h</text>
</a>
</g>
</g>
<!-- Node1&#45;&gt;Node2 -->
<g id="edge1_Node000001_Node000002" class="edge">
<title>Node1&#45;&gt;Node2</title>
<g id="a_edge1_Node000001_Node000002"><a xlink:title=" ">
<path fill="none" stroke="#63b8ff" d="M63.21,-113.09C59.24,-106.08 53.76,-96.41 48.91,-87.83"/>
<polygon fill="#63b8ff" stroke="#63b8ff" points="51.96,-86.12 43.99,-79.15 45.87,-89.57 51.96,-86.12"/>
</a>
</g>
</g>
<!-- Node3 -->
<g id="Node000003" class="node">
<title>Node3</title>
<g id="a_Node000003"><a xlink:href="irq_8h.html" target="_top" xlink:title="IRQ driver interface.">
<polygon fill="white" stroke="#666666" points="119.62,-77.5 81.88,-77.5 81.88,-56.75 119.62,-56.75 119.62,-77.5"/>
<text text-anchor="middle" x="100.75" y="-64" font-family="Helvetica,sans-Serif" font-size="10.00">irq.h</text>
</a>
</g>
</g>
<!-- Node1&#45;&gt;Node3 -->
<g id="edge2_Node000001_Node000003" class="edge">
<title>Node1&#45;&gt;Node3</title>
<g id="a_edge2_Node000001_Node000003"><a xlink:title=" ">
<path fill="none" stroke="#63b8ff" d="M74.47,-113.09C78.61,-106 84.35,-96.19 89.4,-87.54"/>
<polygon fill="#63b8ff" stroke="#63b8ff" points="92.29,-89.53 94.31,-79.14 86.25,-86 92.29,-89.53"/>
</a>
</g>
</g>
<!-- Node4 -->
<g id="Node000004" class="node">
<title>Node4</title>
<g id="a_Node000004"><a xlink:title=" ">
<polygon fill="#e0e0e0" stroke="#999999" points="90.25,-20.75 29.25,-20.75 29.25,0 90.25,0 90.25,-20.75"/>
<text text-anchor="middle" x="59.75" y="-7.25" font-family="Helvetica,sans-Serif" font-size="10.00">stdbool.h</text>
</a>
</g>
</g>
<!-- Node3&#45;&gt;Node4 -->
<g id="edge3_Node000003_Node000004" class="edge">
<title>Node3&#45;&gt;Node4</title>
<g id="a_edge3_Node000003_Node000004"><a xlink:title=" ">
<path fill="none" stroke="#63b8ff" d="M93.42,-56.34C88,-49.1 80.44,-39.01 73.86,-30.22"/>
<polygon fill="#63b8ff" stroke="#63b8ff" points="76.72,-28.2 67.92,-22.29 71.12,-32.39 76.72,-28.2"/>
</a>
</g>
</g>
<!-- Node5 -->
<g id="Node000005" class="node">
<title>Node5</title>
<g id="a_Node000005"><a xlink:title=" ">
<polygon fill="#e0e0e0" stroke="#999999" points="175.62,-20.75 107.88,-20.75 107.88,0 175.62,0 175.62,-20.75"/>
<text text-anchor="middle" x="141.75" y="-7.25" font-family="Helvetica,sans-Serif" font-size="10.00">cpu_conf.h</text>
</a>
</g>
</g>
<!-- Node3&#45;&gt;Node5 -->
<g id="edge4_Node000003_Node000005" class="edge">
<title>Node3&#45;&gt;Node5</title>
<g id="a_edge4_Node000003_Node000005"><a xlink:title=" ">
<path fill="none" stroke="#63b8ff" d="M108.08,-56.34C113.5,-49.1 121.06,-39.01 127.64,-30.22"/>
<polygon fill="#63b8ff" stroke="#63b8ff" points="130.38,-32.39 133.58,-22.29 124.78,-28.2 130.38,-32.39"/>
</a>
</g>
</g>
</g>
</svg>
