<?xml version="1.0" encoding="UTF-8" standalone="no"?>
<!DOCTYPE svg PUBLIC "-//W3C//DTD SVG 1.1//EN"
 "http://www.w3.org/Graphics/SVG/1.1/DTD/svg11.dtd">
<!-- Generated by graphviz version 12.1.2 (0)
 -->
<!-- Title: core/lib/include/bitarithm.h Pages: 1 -->
<svg width="2026pt" height="307pt"
 viewBox="0.00 0.00 2025.50 306.75" xmlns="http://www.w3.org/2000/svg" xmlns:xlink="http://www.w3.org/1999/xlink">
<g id="graph0" class="graph" transform="scale(1 1) rotate(0) translate(4 302.75)">
<title>core/lib/include/bitarithm.h</title>
<!-- Node1 -->
<g id="Node000001" class="node">
<title>Node1</title>
<g id="a_Node000001"><a xlink:title="Helper functions for bit arithmetic.">
<polygon fill="#999999" stroke="#666666" points="758,-298.75 610.75,-298.75 610.75,-278 758,-278 758,-298.75"/>
<text text-anchor="middle" x="684.38" y="-285.25" font-family="Helvetica,sans-Serif" font-size="10.00">core/lib/include/bitarithm.h</text>
</a>
</g>
</g>
<!-- Node2 -->
<g id="Node000002" class="node">
<title>Node2</title>
<g id="a_Node000002"><a xlink:href="avsextrem_2include_2board_8h.html" target="_top" xlink:title="Boards specific drivers and configuration for the Avsextrem board.">
<polygon fill="white" stroke="#666666" points="142.75,-242 0,-242 0,-208.5 142.75,-208.5 142.75,-242"/>
<text text-anchor="start" x="8" y="-228.5" font-family="Helvetica,sans-Serif" font-size="10.00">boards/avsextrem/include</text>
<text text-anchor="middle" x="71.38" y="-215.75" font-family="Helvetica,sans-Serif" font-size="10.00">/board.h</text>
</a>
</g>
</g>
<!-- Node1&#45;&gt;Node2 -->
<g id="edge1_Node000001_Node000002" class="edge">
<title>Node1&#45;&gt;Node2</title>
<g id="a_edge1_Node000001_Node000002"><a xlink:title=" ">
<path fill="none" stroke="#63b8ff" d="M599.16,-283C493.66,-276.93 308.65,-264.11 151.38,-242 148.57,-241.61 145.72,-241.18 142.84,-240.72"/>
<polygon fill="#63b8ff" stroke="#63b8ff" points="598.68,-286.48 608.86,-283.55 599.07,-279.49 598.68,-286.48"/>
</a>
</g>
</g>
<!-- Node3 -->
<g id="Node000003" class="node">
<title>Node3</title>
<g id="a_Node000003"><a xlink:href="msba2_2include_2board_8h.html" target="_top" xlink:title="Basic definitions for the MSB&#45;A2 board.">
<polygon fill="white" stroke="#666666" points="284,-242 160.75,-242 160.75,-208.5 284,-208.5 284,-242"/>
<text text-anchor="start" x="168.75" y="-228.5" font-family="Helvetica,sans-Serif" font-size="10.00">boards/msba2/include</text>
<text text-anchor="middle" x="222.38" y="-215.75" font-family="Helvetica,sans-Serif" font-size="10.00">/board.h</text>
</a>
</g>
</g>
<!-- Node1&#45;&gt;Node3 -->
<g id="edge2_Node000001_Node000003" class="edge">
<title>Node1&#45;&gt;Node3</title>
<g id="a_edge2_Node000001_Node000003"><a xlink:title=" ">
<path fill="none" stroke="#63b8ff" d="M599.14,-280.03C519.69,-272.58 398.07,-259.64 293.38,-242 290.39,-241.5 287.33,-240.95 284.26,-240.37"/>
<polygon fill="#63b8ff" stroke="#63b8ff" points="598.76,-283.51 609.04,-280.95 599.41,-276.54 598.76,-283.51"/>
</a>
</g>
</g>
<!-- Node4 -->
<g id="Node000004" class="node">
<title>Node4</title>
<g id="a_Node000004"><a xlink:href="arm7__common_8h.html" target="_top" xlink:title="ARM7 CPU common declarations.">
<polygon fill="white" stroke="#666666" points="450.38,-242 302.38,-242 302.38,-208.5 450.38,-208.5 450.38,-242"/>
<text text-anchor="start" x="310.38" y="-228.5" font-family="Helvetica,sans-Serif" font-size="10.00">cpu/arm7_common/include</text>
<text text-anchor="middle" x="376.38" y="-215.75" font-family="Helvetica,sans-Serif" font-size="10.00">/arm7_common.h</text>
</a>
</g>
</g>
<!-- Node1&#45;&gt;Node4 -->
<g id="edge3_Node000001_Node000004" class="edge">
<title>Node1&#45;&gt;Node4</title>
<g id="a_edge3_Node000001_Node000004"><a xlink:title=" ">
<path fill="none" stroke="#63b8ff" d="M623.69,-275.33C574.09,-265.49 503.74,-251.53 450.75,-241.01"/>
<polygon fill="#63b8ff" stroke="#63b8ff" points="622.91,-278.75 633.4,-277.26 624.28,-271.88 622.91,-278.75"/>
</a>
</g>
</g>
<!-- Node5 -->
<g id="Node000005" class="node">
<title>Node5</title>
<g id="a_Node000005"><a xlink:href="msp430_2include_2periph__cpu__common_8h.html" target="_top" xlink:title="CPU specific definitions for internal peripheral handling.">
<polygon fill="white" stroke="#666666" points="598,-242 468.75,-242 468.75,-208.5 598,-208.5 598,-242"/>
<text text-anchor="start" x="476.75" y="-228.5" font-family="Helvetica,sans-Serif" font-size="10.00">cpu/msp430/include</text>
<text text-anchor="middle" x="533.38" y="-215.75" font-family="Helvetica,sans-Serif" font-size="10.00">/periph_cpu_common.h</text>
</a>
</g>
</g>
<!-- Node1&#45;&gt;Node5 -->
<g id="edge4_Node000001_Node000005" class="edge">
<title>Node1&#45;&gt;Node5</title>
<g id="a_edge4_Node000001_Node000005"><a xlink:title=" ">
<path fill="none" stroke="#63b8ff" d="M649.59,-273.29C626.89,-264.1 597.18,-252.08 573.48,-242.48"/>
<polygon fill="#63b8ff" stroke="#63b8ff" points="648.13,-276.48 658.71,-276.99 650.76,-269.99 648.13,-276.48"/>
</a>
</g>
</g>
<!-- Node6 -->
<g id="Node000006" class="node">
<title>Node6</title>
<g id="a_Node000006"><a xlink:href="aip31068__regs_8h.html" target="_top" xlink:title="Register definitions for the AIP31068 I2C LCD controller.">
<polygon fill="white" stroke="#666666" points="752.38,-242 616.38,-242 616.38,-208.5 752.38,-208.5 752.38,-242"/>
<text text-anchor="start" x="624.38" y="-228.5" font-family="Helvetica,sans-Serif" font-size="10.00">drivers/aip31068/include</text>
<text text-anchor="middle" x="684.38" y="-215.75" font-family="Helvetica,sans-Serif" font-size="10.00">/aip31068_regs.h</text>
</a>
</g>
</g>
<!-- Node1&#45;&gt;Node6 -->
<g id="edge5_Node000001_Node000006" class="edge">
<title>Node1&#45;&gt;Node6</title>
<g id="a_edge5_Node000001_Node000006"><a xlink:title=" ">
<path fill="none" stroke="#63b8ff" d="M684.38,-266.09C684.38,-258.35 684.38,-249.72 684.38,-242.48"/>
<polygon fill="#63b8ff" stroke="#63b8ff" points="680.88,-266.04 684.38,-276.04 687.88,-266.04 680.88,-266.04"/>
</a>
</g>
</g>
<!-- Node9 -->
<g id="Node000009" class="node">
<title>Node9</title>
<g id="a_Node000009"><a xlink:href="dose_8h.html" target="_top" xlink:title="Driver for the Differentially Operated Serial Ethernet module.">
<polygon fill="white" stroke="#666666" points="894,-235.62 770.75,-235.62 770.75,-214.88 894,-214.88 894,-235.62"/>
<text text-anchor="middle" x="832.38" y="-222.12" font-family="Helvetica,sans-Serif" font-size="10.00">drivers/include/dose.h</text>
</a>
</g>
</g>
<!-- Node1&#45;&gt;Node9 -->
<g id="edge8_Node000001_Node000009" class="edge">
<title>Node1&#45;&gt;Node9</title>
<g id="a_edge8_Node000001_Node000009"><a xlink:title=" ">
<path fill="none" stroke="#63b8ff" d="M718.53,-273.27C746.14,-261.86 784.3,-246.11 808.66,-236.05"/>
<polygon fill="#63b8ff" stroke="#63b8ff" points="717.46,-269.92 709.55,-276.98 720.13,-276.39 717.46,-269.92"/>
</a>
</g>
</g>
<!-- Node10 -->
<g id="Node000010" class="node">
<title>Node10</title>
<g id="a_Node000010"><a xlink:href="mii_8h.html" target="_top" xlink:title="Interface definition for MII/RMII h.">
<polygon fill="white" stroke="#666666" points="1028.25,-235.62 912.5,-235.62 912.5,-214.88 1028.25,-214.88 1028.25,-235.62"/>
<text text-anchor="middle" x="970.38" y="-222.12" font-family="Helvetica,sans-Serif" font-size="10.00">drivers/include/mii.h</text>
</a>
</g>
</g>
<!-- Node1&#45;&gt;Node10 -->
<g id="edge9_Node000001_Node000010" class="edge">
<title>Node1&#45;&gt;Node10</title>
<g id="a_edge9_Node000001_Node000010"><a xlink:title=" ">
<path fill="none" stroke="#63b8ff" d="M744.69,-275.33C788.73,-266.42 849.84,-253.84 903.38,-242 911.78,-240.14 920.75,-238.08 929.31,-236.08"/>
<polygon fill="#63b8ff" stroke="#63b8ff" points="744.19,-271.86 735.08,-277.27 745.58,-278.72 744.19,-271.86"/>
</a>
</g>
</g>
<!-- Node19 -->
<g id="Node000019" class="node">
<title>Node19</title>
<g id="a_Node000019"><a xlink:href="mfrc522__regs_8h.html" target="_top" xlink:title="Register definitions for the MFRC522 controller.">
<polygon fill="white" stroke="#666666" points="1554.12,-242 1422.62,-242 1422.62,-208.5 1554.12,-208.5 1554.12,-242"/>
<text text-anchor="start" x="1430.62" y="-228.5" font-family="Helvetica,sans-Serif" font-size="10.00">drivers/mfrc522/include</text>
<text text-anchor="middle" x="1488.38" y="-215.75" font-family="Helvetica,sans-Serif" font-size="10.00">/mfrc522_regs.h</text>
</a>
</g>
</g>
<!-- Node1&#45;&gt;Node19 -->
<g id="edge18_Node000001_Node000019" class="edge">
<title>Node1&#45;&gt;Node19</title>
<g id="a_edge18_Node000001_Node000019"><a xlink:title=" ">
<path fill="none" stroke="#63b8ff" d="M769.49,-280.9C930.63,-268.65 1277.08,-242.31 1422.25,-231.28"/>
<polygon fill="#63b8ff" stroke="#63b8ff" points="769.43,-277.4 759.72,-281.65 769.96,-284.38 769.43,-277.4"/>
</a>
</g>
</g>
<!-- Node22 -->
<g id="Node000022" class="node">
<title>Node22</title>
<g id="a_Node000022"><a xlink:href="pca9633__regs_8h.html" target="_top" xlink:title="Register definitions for the PCA9633 I2C PWM controller.">
<polygon fill="white" stroke="#666666" points="1862.5,-242 1730.25,-242 1730.25,-208.5 1862.5,-208.5 1862.5,-242"/>
<text text-anchor="start" x="1738.25" y="-228.5" font-family="Helvetica,sans-Serif" font-size="10.00">drivers/pca9633/include</text>
<text text-anchor="middle" x="1796.38" y="-215.75" font-family="Helvetica,sans-Serif" font-size="10.00">/pca9633_regs.h</text>
</a>
</g>
</g>
<!-- Node1&#45;&gt;Node22 -->
<g id="edge21_Node000001_Node000022" class="edge">
<title>Node1&#45;&gt;Node22</title>
<g id="a_edge21_Node000001_Node000022"><a xlink:title=" ">
<path fill="none" stroke="#63b8ff" d="M769.93,-283.41C927.11,-276.03 1272.45,-259.34 1563.38,-242 1619.53,-238.65 1683.26,-234.31 1729.86,-231.03"/>
<polygon fill="#63b8ff" stroke="#63b8ff" points="769.82,-279.91 760,-283.88 770.15,-286.91 769.82,-279.91"/>
</a>
</g>
</g>
<!-- Node7 -->
<g id="Node000007" class="node">
<title>Node7</title>
<g id="a_Node000007"><a xlink:href="aip31068__params_8h.html" target="_top" xlink:title="Default configuration for the AIP31068 I2C LCD controller.">
<polygon fill="white" stroke="#666666" points="374.38,-172.5 238.38,-172.5 238.38,-139 374.38,-139 374.38,-172.5"/>
<text text-anchor="start" x="246.38" y="-159" font-family="Helvetica,sans-Serif" font-size="10.00">drivers/aip31068/include</text>
<text text-anchor="middle" x="306.38" y="-146.25" font-family="Helvetica,sans-Serif" font-size="10.00">/aip31068_params.h</text>
</a>
</g>
</g>
<!-- Node6&#45;&gt;Node7 -->
<g id="edge6_Node000006_Node000007" class="edge">
<title>Node6&#45;&gt;Node7</title>
<g id="a_edge6_Node000006_Node000007"><a xlink:title=" ">
<path fill="none" stroke="#63b8ff" d="M604.9,-208.09C506.29,-190.39 479.08,-189.97 383.38,-172.5 380.56,-171.99 377.68,-171.45 374.78,-170.9"/>
<polygon fill="#63b8ff" stroke="#63b8ff" points="604.02,-211.49 614.48,-209.83 605.27,-204.6 604.02,-211.49"/>
</a>
</g>
</g>
<!-- Node8 -->
<g id="Node000008" class="node">
<title>Node8</title>
<g id="a_Node000008"><a xlink:href="aip31068_8h.html" target="_top" xlink:title=" ">
<polygon fill="white" stroke="#666666" points="537.88,-166.12 392.88,-166.12 392.88,-145.38 537.88,-145.38 537.88,-166.12"/>
<text text-anchor="middle" x="465.38" y="-152.62" font-family="Helvetica,sans-Serif" font-size="10.00">drivers/include/aip31068.h</text>
</a>
</g>
</g>
<!-- Node6&#45;&gt;Node8 -->
<g id="edge7_Node000006_Node000008" class="edge">
<title>Node6&#45;&gt;Node8</title>
<g id="a_edge7_Node000006_Node000008"><a xlink:title=" ">
<path fill="none" stroke="#63b8ff" d="M621.06,-204.74C580.56,-192.25 529.73,-176.59 497.4,-166.62"/>
<polygon fill="#63b8ff" stroke="#63b8ff" points="619.89,-208.04 630.47,-207.64 621.95,-201.35 619.89,-208.04"/>
</a>
</g>
</g>
<!-- Node11 -->
<g id="Node000011" class="node">
<title>Node11</title>
<g id="a_Node000011"><a xlink:href="boards_2nucleo-f207zg_2include_2periph__conf_8h.html" target="_top" xlink:title=" ">
<polygon fill="white" stroke="#666666" points="678.62,-172.5 556.12,-172.5 556.12,-139 678.62,-139 678.62,-172.5"/>
<text text-anchor="start" x="564.12" y="-159" font-family="Helvetica,sans-Serif" font-size="10.00">boards/nucleo&#45;f207zg</text>
<text text-anchor="middle" x="617.38" y="-146.25" font-family="Helvetica,sans-Serif" font-size="10.00">/include/periph_conf.h</text>
</a>
</g>
</g>
<!-- Node10&#45;&gt;Node11 -->
<g id="edge10_Node000010_Node000011" class="edge">
<title>Node10&#45;&gt;Node11</title>
<g id="a_edge10_Node000010_Node000011"><a xlink:title=" ">
<path fill="none" stroke="#63b8ff" d="M919.43,-211.91C914.02,-210.71 908.59,-209.55 903.38,-208.5 808.39,-189.4 783.48,-191 688.38,-172.5 685.28,-171.9 682.11,-171.26 678.91,-170.61"/>
<polygon fill="#63b8ff" stroke="#63b8ff" points="918.43,-215.27 928.96,-214.08 919.98,-208.45 918.43,-215.27"/>
</a>
</g>
</g>
<!-- Node12 -->
<g id="Node000012" class="node">
<title>Node12</title>
<g id="a_Node000012"><a xlink:href="boards_2nucleo-f429zi_2include_2periph__conf_8h.html" target="_top" xlink:title=" ">
<polygon fill="white" stroke="#666666" points="819.62,-172.5 697.12,-172.5 697.12,-139 819.62,-139 819.62,-172.5"/>
<text text-anchor="start" x="705.12" y="-159" font-family="Helvetica,sans-Serif" font-size="10.00">boards/nucleo&#45;f429zi</text>
<text text-anchor="middle" x="758.38" y="-146.25" font-family="Helvetica,sans-Serif" font-size="10.00">/include/periph_conf.h</text>
</a>
</g>
</g>
<!-- Node10&#45;&gt;Node12 -->
<g id="edge11_Node000010_Node000012" class="edge">
<title>Node10&#45;&gt;Node12</title>
<g id="a_edge11_Node000010_Node000012"><a xlink:title=" ">
<path fill="none" stroke="#63b8ff" d="M928.98,-211.07C894.74,-200.17 845.98,-184.64 809.34,-172.98"/>
<polygon fill="#63b8ff" stroke="#63b8ff" points="927.52,-214.28 938.11,-213.98 929.64,-207.61 927.52,-214.28"/>
</a>
</g>
</g>
<!-- Node13 -->
<g id="Node000013" class="node">
<title>Node13</title>
<g id="a_Node000013"><a xlink:href="boards_2nucleo-f439zi_2include_2periph__conf_8h.html" target="_top" xlink:title=" ">
<polygon fill="white" stroke="#666666" points="960.62,-172.5 838.12,-172.5 838.12,-139 960.62,-139 960.62,-172.5"/>
<text text-anchor="start" x="846.12" y="-159" font-family="Helvetica,sans-Serif" font-size="10.00">boards/nucleo&#45;f439zi</text>
<text text-anchor="middle" x="899.38" y="-146.25" font-family="Helvetica,sans-Serif" font-size="10.00">/include/periph_conf.h</text>
</a>
</g>
</g>
<!-- Node10&#45;&gt;Node13 -->
<g id="edge12_Node000010_Node000013" class="edge">
<title>Node10&#45;&gt;Node13</title>
<g id="a_edge12_Node000010_Node000013"><a xlink:title=" ">
<path fill="none" stroke="#63b8ff" d="M952.11,-206.89C941.1,-196.42 927.16,-183.17 916.38,-172.92"/>
<polygon fill="#63b8ff" stroke="#63b8ff" points="949.45,-209.18 959.11,-213.54 954.27,-204.11 949.45,-209.18"/>
</a>
</g>
</g>
<!-- Node14 -->
<g id="Node000014" class="node">
<title>Node14</title>
<g id="a_Node000014"><a xlink:href="boards_2nucleo-f746zg_2include_2periph__conf_8h.html" target="_top" xlink:title="Peripheral MCU configuration for the nucleo&#45;f746zg board.">
<polygon fill="white" stroke="#666666" points="1101.62,-172.5 979.12,-172.5 979.12,-139 1101.62,-139 1101.62,-172.5"/>
<text text-anchor="start" x="987.12" y="-159" font-family="Helvetica,sans-Serif" font-size="10.00">boards/nucleo&#45;f746zg</text>
<text text-anchor="middle" x="1040.38" y="-146.25" font-family="Helvetica,sans-Serif" font-size="10.00">/include/periph_conf.h</text>
</a>
</g>
</g>
<!-- Node10&#45;&gt;Node14 -->
<g id="edge13_Node000010_Node000014" class="edge">
<title>Node10&#45;&gt;Node14</title>
<g id="a_edge13_Node000010_Node000014"><a xlink:title=" ">
<path fill="none" stroke="#63b8ff" d="M988.38,-206.89C999.24,-196.42 1012.98,-183.17 1023.61,-172.92"/>
<polygon fill="#63b8ff" stroke="#63b8ff" points="986.26,-204.07 981.49,-213.53 991.12,-209.11 986.26,-204.07"/>
</a>
</g>
</g>
<!-- Node15 -->
<g id="Node000015" class="node">
<title>Node15</title>
<g id="a_Node000015"><a xlink:href="boards_2nucleo-f767zi_2include_2periph__conf_8h.html" target="_top" xlink:title="Peripheral MCU configuration for the nucleo&#45;f767zi board.">
<polygon fill="white" stroke="#666666" points="1242.62,-172.5 1120.12,-172.5 1120.12,-139 1242.62,-139 1242.62,-172.5"/>
<text text-anchor="start" x="1128.12" y="-159" font-family="Helvetica,sans-Serif" font-size="10.00">boards/nucleo&#45;f767zi</text>
<text text-anchor="middle" x="1181.38" y="-146.25" font-family="Helvetica,sans-Serif" font-size="10.00">/include/periph_conf.h</text>
</a>
</g>
</g>
<!-- Node10&#45;&gt;Node15 -->
<g id="edge14_Node000010_Node000015" class="edge">
<title>Node10&#45;&gt;Node15</title>
<g id="a_edge14_Node000010_Node000015"><a xlink:title=" ">
<path fill="none" stroke="#63b8ff" d="M1012.02,-210.93C1046.07,-200.03 1094.35,-184.59 1130.65,-172.98"/>
<polygon fill="#63b8ff" stroke="#63b8ff" points="1010.96,-207.59 1002.5,-213.97 1013.09,-214.26 1010.96,-207.59"/>
</a>
</g>
</g>
<!-- Node16 -->
<g id="Node000016" class="node">
<title>Node16</title>
<g id="a_Node000016"><a xlink:href="boards_2stm32f746g-disco_2include_2periph__conf_8h.html" target="_top" xlink:title="Configuration of CPU peripherals for STM32F746G&#45;DISCO board.">
<polygon fill="white" stroke="#666666" points="1400.25,-172.5 1260.5,-172.5 1260.5,-139 1400.25,-139 1400.25,-172.5"/>
<text text-anchor="start" x="1268.5" y="-159" font-family="Helvetica,sans-Serif" font-size="10.00">boards/stm32f746g&#45;disco</text>
<text text-anchor="middle" x="1330.38" y="-146.25" font-family="Helvetica,sans-Serif" font-size="10.00">/include/periph_conf.h</text>
</a>
</g>
</g>
<!-- Node10&#45;&gt;Node16 -->
<g id="edge15_Node000010_Node000016" class="edge">
<title>Node10&#45;&gt;Node16</title>
<g id="a_edge15_Node000010_Node000016"><a xlink:title=" ">
<path fill="none" stroke="#63b8ff" d="M1036.09,-212.43C1093.07,-202.11 1177.73,-186.62 1251.38,-172.5 1254.26,-171.95 1257.2,-171.38 1260.17,-170.8"/>
<polygon fill="#63b8ff" stroke="#63b8ff" points="1035.78,-208.93 1026.57,-214.15 1037.03,-215.82 1035.78,-208.93"/>
</a>
</g>
</g>
<!-- Node17 -->
<g id="Node000017" class="node">
<title>Node17</title>
<g id="a_Node000017"><a xlink:href="stm32f746g-disco_2include_2board_8h.html" target="_top" xlink:title="Board specific definitions for the STM32F746G&#45;DISCO.">
<polygon fill="white" stroke="#666666" points="1400.25,-103 1260.5,-103 1260.5,-69.5 1400.25,-69.5 1400.25,-103"/>
<text text-anchor="start" x="1268.5" y="-89.5" font-family="Helvetica,sans-Serif" font-size="10.00">boards/stm32f746g&#45;disco</text>
<text text-anchor="middle" x="1330.38" y="-76.75" font-family="Helvetica,sans-Serif" font-size="10.00">/include/board.h</text>
</a>
</g>
</g>
<!-- Node16&#45;&gt;Node17 -->
<g id="edge16_Node000016_Node000017" class="edge">
<title>Node16&#45;&gt;Node17</title>
<g id="a_edge16_Node000016_Node000017"><a xlink:title=" ">
<path fill="none" stroke="#63b8ff" d="M1330.38,-127.31C1330.38,-119.09 1330.38,-110.34 1330.38,-103.13"/>
<polygon fill="#63b8ff" stroke="#63b8ff" points="1326.88,-127.24 1330.38,-137.24 1333.88,-127.24 1326.88,-127.24"/>
</a>
</g>
</g>
<!-- Node18 -->
<g id="Node000018" class="node">
<title>Node18</title>
<g id="a_Node000018"><a xlink:href="stm32f746g-disco_2include_2gpio__params_8h.html" target="_top" xlink:title="Board specific configuration of direct mapped GPIOs.">
<polygon fill="white" stroke="#666666" points="1400.25,-33.5 1260.5,-33.5 1260.5,0 1400.25,0 1400.25,-33.5"/>
<text text-anchor="start" x="1268.5" y="-20" font-family="Helvetica,sans-Serif" font-size="10.00">boards/stm32f746g&#45;disco</text>
<text text-anchor="middle" x="1330.38" y="-7.25" font-family="Helvetica,sans-Serif" font-size="10.00">/include/gpio_params.h</text>
</a>
</g>
</g>
<!-- Node17&#45;&gt;Node18 -->
<g id="edge17_Node000017_Node000018" class="edge">
<title>Node17&#45;&gt;Node18</title>
<g id="a_edge17_Node000017_Node000018"><a xlink:title=" ">
<path fill="none" stroke="#63b8ff" d="M1330.38,-57.81C1330.38,-49.59 1330.38,-40.84 1330.38,-33.63"/>
<polygon fill="#63b8ff" stroke="#63b8ff" points="1326.88,-57.74 1330.38,-67.74 1333.88,-57.74 1326.88,-57.74"/>
</a>
</g>
</g>
<!-- Node20 -->
<g id="Node000020" class="node">
<title>Node20</title>
<g id="a_Node000020"><a xlink:href="mfrc522_8h.html" target="_top" xlink:title=" ">
<polygon fill="white" stroke="#666666" points="1558.62,-166.12 1418.12,-166.12 1418.12,-145.38 1558.62,-145.38 1558.62,-166.12"/>
<text text-anchor="middle" x="1488.38" y="-152.62" font-family="Helvetica,sans-Serif" font-size="10.00">drivers/include/mfrc522.h</text>
</a>
</g>
</g>
<!-- Node19&#45;&gt;Node20 -->
<g id="edge19_Node000019_Node000020" class="edge">
<title>Node19&#45;&gt;Node20</title>
<g id="a_edge19_Node000019_Node000020"><a xlink:title=" ">
<path fill="none" stroke="#63b8ff" d="M1488.38,-196.78C1488.38,-186.08 1488.38,-174.51 1488.38,-166.57"/>
<polygon fill="#63b8ff" stroke="#63b8ff" points="1484.88,-196.74 1488.38,-206.74 1491.88,-196.74 1484.88,-196.74"/>
</a>
</g>
</g>
<!-- Node21 -->
<g id="Node000021" class="node">
<title>Node21</title>
<g id="a_Node000021"><a xlink:href="mfrc522__params_8h.html" target="_top" xlink:title="Default configuration for the MFRC522 controller.">
<polygon fill="white" stroke="#666666" points="1708.12,-172.5 1576.62,-172.5 1576.62,-139 1708.12,-139 1708.12,-172.5"/>
<text text-anchor="start" x="1584.62" y="-159" font-family="Helvetica,sans-Serif" font-size="10.00">drivers/mfrc522/include</text>
<text text-anchor="middle" x="1642.38" y="-146.25" font-family="Helvetica,sans-Serif" font-size="10.00">/mfrc522_params.h</text>
</a>
</g>
</g>
<!-- Node19&#45;&gt;Node21 -->
<g id="edge20_Node000019_Node000021" class="edge">
<title>Node19&#45;&gt;Node21</title>
<g id="a_edge20_Node000019_Node000021"><a xlink:title=" ">
<path fill="none" stroke="#63b8ff" d="M1535.6,-203.55C1558.08,-193.7 1584.56,-182.09 1605.52,-172.9"/>
<polygon fill="#63b8ff" stroke="#63b8ff" points="1534.4,-200.25 1526.65,-207.47 1537.21,-206.67 1534.4,-200.25"/>
</a>
</g>
</g>
<!-- Node23 -->
<g id="Node000023" class="node">
<title>Node23</title>
<g id="a_Node000023"><a xlink:href="pca9633_8h.html" target="_top" xlink:title=" ">
<polygon fill="white" stroke="#666666" points="1867,-166.12 1725.75,-166.12 1725.75,-145.38 1867,-145.38 1867,-166.12"/>
<text text-anchor="middle" x="1796.38" y="-152.62" font-family="Helvetica,sans-Serif" font-size="10.00">drivers/include/pca9633.h</text>
</a>
</g>
</g>
<!-- Node22&#45;&gt;Node23 -->
<g id="edge22_Node000022_Node000023" class="edge">
<title>Node22&#45;&gt;Node23</title>
<g id="a_edge22_Node000022_Node000023"><a xlink:title=" ">
<path fill="none" stroke="#63b8ff" d="M1796.38,-196.78C1796.38,-186.08 1796.38,-174.51 1796.38,-166.57"/>
<polygon fill="#63b8ff" stroke="#63b8ff" points="1792.88,-196.74 1796.38,-206.74 1799.88,-196.74 1792.88,-196.74"/>
</a>
</g>
</g>
<!-- Node24 -->
<g id="Node000024" class="node">
<title>Node24</title>
<g id="a_Node000024"><a xlink:href="pca9633__params_8h.html" target="_top" xlink:title="Default configuration for the PCA9633 I2C PWM controller.">
<polygon fill="white" stroke="#666666" points="2017.5,-172.5 1885.25,-172.5 1885.25,-139 2017.5,-139 2017.5,-172.5"/>
<text text-anchor="start" x="1893.25" y="-159" font-family="Helvetica,sans-Serif" font-size="10.00">drivers/pca9633/include</text>
<text text-anchor="middle" x="1951.38" y="-146.25" font-family="Helvetica,sans-Serif" font-size="10.00">/pca9633_params.h</text>
</a>
</g>
</g>
<!-- Node22&#45;&gt;Node24 -->
<g id="edge23_Node000022_Node000024" class="edge">
<title>Node22&#45;&gt;Node24</title>
<g id="a_edge23_Node000022_Node000024"><a xlink:title=" ">
<path fill="none" stroke="#63b8ff" d="M1843.91,-203.55C1866.53,-193.7 1893.18,-182.09 1914.28,-172.9"/>
<polygon fill="#63b8ff" stroke="#63b8ff" points="1842.66,-200.28 1834.89,-207.48 1845.45,-206.69 1842.66,-200.28"/>
</a>
</g>
</g>
</g>
</svg>
