<?xml version="1.0" encoding="UTF-8" standalone="no"?>
<!DOCTYPE svg PUBLIC "-//W3C//DTD SVG 1.1//EN"
 "http://www.w3.org/Graphics/SVG/1.1/DTD/svg11.dtd">
<!-- Generated by graphviz version 12.1.2 (0)
 -->
<!-- Title: sys/include/bitfield.h Pages: 1 -->
<svg width="469pt" height="237pt"
 viewBox="0.00 0.00 468.95 237.25" xmlns="http://www.w3.org/2000/svg" xmlns:xlink="http://www.w3.org/1999/xlink">
<g id="graph0" class="graph" transform="scale(1 1) rotate(0) translate(4 233.25)">
<title>sys/include/bitfield.h</title>
<!-- Node1 -->
<g id="Node000001" class="node">
<title>Node1</title>
<g id="a_Node000001"><a xlink:title="bitfields operations on bitfields of arbitrary length">
<polygon fill="#999999" stroke="#666666" points="228.83,-229.25 111.58,-229.25 111.58,-208.5 228.83,-208.5 228.83,-229.25"/>
<text text-anchor="middle" x="170.2" y="-215.75" font-family="Helvetica,sans-Serif" font-size="10.00">sys/include/bitfield.h</text>
</a>
</g>
</g>
<!-- Node2 -->
<g id="Node000002" class="node">
<title>Node2</title>
<g id="a_Node000002"><a xlink:href="gnrc_2sixlowpan_2frag_2sfr_8h.html" target="_top" xlink:title="6LoWPAN selective fragment recovery definitions for GNRC">
<polygon fill="white" stroke="#666666" points="147.08,-103 31.33,-103 31.33,-69.5 147.08,-69.5 147.08,-103"/>
<text text-anchor="start" x="39.33" y="-89.5" font-family="Helvetica,sans-Serif" font-size="10.00">sys/include/net/gnrc</text>
<text text-anchor="middle" x="89.2" y="-76.75" font-family="Helvetica,sans-Serif" font-size="10.00">/sixlowpan/frag/sfr.h</text>
</a>
</g>
</g>
<!-- Node1&#45;&gt;Node2 -->
<g id="edge1_Node000001_Node000002" class="edge">
<title>Node1&#45;&gt;Node2</title>
<g id="a_edge1_Node000001_Node000002"><a xlink:title=" ">
<path fill="none" stroke="#63b8ff" d="M100.18,-207.14C61.11,-199.56 17.99,-187.99 6.2,-172.5 -2.81,-160.65 -1.02,-152.02 6.2,-139 15.02,-123.11 30.97,-111.47 46.54,-103.29"/>
<polygon fill="#63b8ff" stroke="#63b8ff" points="99.37,-210.55 109.84,-208.94 100.65,-203.67 99.37,-210.55"/>
</a>
</g>
</g>
<!-- Node4 -->
<g id="Node000004" class="node">
<title>Node4</title>
<g id="a_Node000004"><a xlink:href="sfr__types_8h.html" target="_top" xlink:title="6LoWPAN selective fragment recovery type definitions for GNRC">
<polygon fill="white" stroke="#666666" points="163.2,-172.5 15.2,-172.5 15.2,-139 163.2,-139 163.2,-172.5"/>
<text text-anchor="start" x="23.2" y="-159" font-family="Helvetica,sans-Serif" font-size="10.00">sys/include/net/gnrc</text>
<text text-anchor="middle" x="89.2" y="-146.25" font-family="Helvetica,sans-Serif" font-size="10.00">/sixlowpan/frag/sfr_types.h</text>
</a>
</g>
</g>
<!-- Node1&#45;&gt;Node4 -->
<g id="edge4_Node000001_Node000004" class="edge">
<title>Node1&#45;&gt;Node4</title>
<g id="a_edge4_Node000001_Node000004"><a xlink:title=" ">
<path fill="none" stroke="#63b8ff" d="M148.13,-201.22C136.49,-192.44 122.27,-181.71 110.72,-172.98"/>
<polygon fill="#63b8ff" stroke="#63b8ff" points="145.89,-203.91 155.98,-207.14 150.11,-198.33 145.89,-203.91"/>
</a>
</g>
</g>
<!-- Node5 -->
<g id="Node000005" class="node">
<title>Node5</title>
<g id="a_Node000005"><a xlink:href="sixlowpan_2sfr_8h.html" target="_top" xlink:title="6LoWPAN selective fragment recovery dispatch type and helper function definitions.">
<polygon fill="white" stroke="#666666" points="323.2,-172.5 181.2,-172.5 181.2,-139 323.2,-139 323.2,-172.5"/>
<text text-anchor="start" x="189.2" y="-159" font-family="Helvetica,sans-Serif" font-size="10.00">sys/include/net/sixlowpan</text>
<text text-anchor="middle" x="252.2" y="-146.25" font-family="Helvetica,sans-Serif" font-size="10.00">/sfr.h</text>
</a>
</g>
</g>
<!-- Node1&#45;&gt;Node5 -->
<g id="edge6_Node000001_Node000005" class="edge">
<title>Node1&#45;&gt;Node5</title>
<g id="a_edge6_Node000001_Node000005"><a xlink:title=" ">
<path fill="none" stroke="#63b8ff" d="M192.54,-201.22C204.33,-192.44 218.72,-181.71 230.42,-172.98"/>
<polygon fill="#63b8ff" stroke="#63b8ff" points="190.52,-198.37 184.59,-207.15 194.7,-203.98 190.52,-198.37"/>
</a>
</g>
</g>
<!-- Node6 -->
<g id="Node000006" class="node">
<title>Node6</title>
<g id="a_Node000006"><a xlink:href="select_8h.html" target="_top" xlink:title="Select types.">
<polygon fill="white" stroke="#666666" points="460.95,-172.5 341.45,-172.5 341.45,-139 460.95,-139 460.95,-172.5"/>
<text text-anchor="start" x="349.45" y="-159" font-family="Helvetica,sans-Serif" font-size="10.00">sys/posix/include/sys</text>
<text text-anchor="middle" x="401.2" y="-146.25" font-family="Helvetica,sans-Serif" font-size="10.00">/select.h</text>
</a>
</g>
</g>
<!-- Node1&#45;&gt;Node6 -->
<g id="edge8_Node000001_Node000006" class="edge">
<title>Node1&#45;&gt;Node6</title>
<g id="a_edge8_Node000001_Node000006"><a xlink:title=" ">
<path fill="none" stroke="#63b8ff" d="M218.41,-205.12C254.11,-195.67 302.97,-182.74 341.2,-172.63"/>
<polygon fill="#63b8ff" stroke="#63b8ff" points="217.55,-201.73 208.78,-207.67 219.34,-208.49 217.55,-201.73"/>
</a>
</g>
</g>
<!-- Node3 -->
<g id="Node000003" class="node">
<title>Node3</title>
<g id="a_Node000003"><a xlink:href="net_2gnrc_2sixlowpan_2frag_2sfr_2congure_8h.html" target="_top" xlink:title="Congure definitions for 6LoWPAN selective fragment recovery.">
<polygon fill="white" stroke="#666666" points="168.08,-33.5 10.33,-33.5 10.33,0 168.08,0 168.08,-33.5"/>
<text text-anchor="start" x="18.33" y="-20" font-family="Helvetica,sans-Serif" font-size="10.00">sys/include/net/gnrc</text>
<text text-anchor="middle" x="89.2" y="-7.25" font-family="Helvetica,sans-Serif" font-size="10.00">/sixlowpan/frag/sfr/congure.h</text>
</a>
</g>
</g>
<!-- Node2&#45;&gt;Node3 -->
<g id="edge2_Node000002_Node000003" class="edge">
<title>Node2&#45;&gt;Node3</title>
<g id="a_edge2_Node000002_Node000003"><a xlink:title=" ">
<path fill="none" stroke="#63b8ff" d="M89.2,-57.81C89.2,-49.59 89.2,-40.84 89.2,-33.63"/>
<polygon fill="#63b8ff" stroke="#63b8ff" points="85.7,-57.74 89.2,-67.74 92.7,-57.74 85.7,-57.74"/>
</a>
</g>
</g>
<!-- Node3&#45;&gt;Node3 -->
<g id="edge3_Node000003_Node000003" class="edge">
<title>Node3&#45;&gt;Node3</title>
<g id="a_edge3_Node000003_Node000003"><a xlink:title=" ">
<path fill="none" stroke="#63b8ff" d="M179.29,-25C183.57,-22.93 186.08,-20.18 186.08,-16.75 186.08,-10.98 178.96,-7.13 168.26,-5.19"/>
<polygon fill="#63b8ff" stroke="#63b8ff" points="178.28,-21.65 169.71,-27.88 180.3,-28.35 178.28,-21.65"/>
</a>
</g>
</g>
<!-- Node4&#45;&gt;Node2 -->
<g id="edge5_Node000004_Node000002" class="edge">
<title>Node4&#45;&gt;Node2</title>
<g id="a_edge5_Node000004_Node000002"><a xlink:title=" ">
<path fill="none" stroke="#63b8ff" d="M89.2,-127.31C89.2,-119.09 89.2,-110.34 89.2,-103.13"/>
<polygon fill="#63b8ff" stroke="#63b8ff" points="85.7,-127.24 89.2,-137.24 92.7,-127.24 85.7,-127.24"/>
</a>
</g>
</g>
<!-- Node5&#45;&gt;Node2 -->
<g id="edge7_Node000005_Node000002" class="edge">
<title>Node5&#45;&gt;Node2</title>
<g id="a_edge7_Node000005_Node000002"><a xlink:title=" ">
<path fill="none" stroke="#63b8ff" d="M202.54,-134.18C178.68,-124.3 150.5,-112.63 128.21,-103.4"/>
<polygon fill="#63b8ff" stroke="#63b8ff" points="201.18,-137.41 211.76,-138 203.86,-130.94 201.18,-137.41"/>
</a>
</g>
</g>
</g>
</svg>
