<?xml version="1.0" encoding="UTF-8" standalone="no"?>
<!DOCTYPE svg PUBLIC "-//W3C//DTD SVG 1.1//EN"
 "http://www.w3.org/Graphics/SVG/1.1/DTD/svg11.dtd">
<!-- Generated by graphviz version 12.1.2 (0)
 -->
<!-- Title: sys/include/event/callback.h Pages: 1 -->
<svg width="1299pt" height="320pt"
 viewBox="0.00 0.00 1298.50 319.50" xmlns="http://www.w3.org/2000/svg" xmlns:xlink="http://www.w3.org/1999/xlink">
<g id="graph0" class="graph" transform="scale(1 1) rotate(0) translate(4 315.5)">
<title>sys/include/event/callback.h</title>
<!-- Node1 -->
<g id="Node000001" class="node">
<title>Node1</title>
<g id="a_Node000001"><a xlink:title="Provides a callback&#45;with&#45;argument event type.">
<polygon fill="#999999" stroke="#666666" points="823.88,-311.5 669.88,-311.5 669.88,-290.75 823.88,-290.75 823.88,-311.5"/>
<text text-anchor="middle" x="746.88" y="-298" font-family="Helvetica,sans-Serif" font-size="10.00">sys/include/event/callback.h</text>
</a>
</g>
</g>
<!-- Node2 -->
<g id="Node000002" class="node">
<title>Node2</title>
<g id="a_Node000002"><a xlink:href="os__eventq_8h.html" target="_top" xlink:title="mynewt&#45;core event and event queue abstraction">
<polygon fill="white" stroke="#666666" points="508.75,-254.75 369,-254.75 369,-221.25 508.75,-221.25 508.75,-254.75"/>
<text text-anchor="start" x="377" y="-241.25" font-family="Helvetica,sans-Serif" font-size="10.00">pkg/mynewt&#45;core/include</text>
<text text-anchor="middle" x="438.88" y="-228.5" font-family="Helvetica,sans-Serif" font-size="10.00">/os/os_eventq.h</text>
</a>
</g>
</g>
<!-- Node1&#45;&gt;Node2 -->
<g id="edge1_Node000001_Node000002" class="edge">
<title>Node1&#45;&gt;Node2</title>
<g id="a_edge1_Node000001_Node000002"><a xlink:title=" ">
<path fill="none" stroke="#63b8ff" d="M686.27,-288.14C640.11,-279 574.98,-266.1 517.88,-254.75 514.99,-254.18 512.05,-253.59 509.09,-253"/>
<polygon fill="#63b8ff" stroke="#63b8ff" points="685.31,-291.52 695.8,-290.02 686.67,-284.65 685.31,-291.52"/>
</a>
</g>
</g>
<!-- Node9 -->
<g id="Node000009" class="node">
<title>Node9</title>
<g id="a_Node000009"><a xlink:href="scheduler__types_8h.html" target="_top" xlink:title="RIOT scheduler types variable declaration.">
<polygon fill="white" stroke="#666666" points="657.25,-254.75 526.5,-254.75 526.5,-221.25 657.25,-221.25 657.25,-254.75"/>
<text text-anchor="start" x="534.5" y="-241.25" font-family="Helvetica,sans-Serif" font-size="10.00">pkg/openwsn/scheduler</text>
<text text-anchor="middle" x="591.88" y="-228.5" font-family="Helvetica,sans-Serif" font-size="10.00">/scheduler_types.h</text>
</a>
</g>
</g>
<!-- Node1&#45;&gt;Node9 -->
<g id="edge9_Node000001_Node000009" class="edge">
<title>Node1&#45;&gt;Node9</title>
<g id="a_edge9_Node000001_Node000009"><a xlink:title=" ">
<path fill="none" stroke="#63b8ff" d="M711.49,-286.17C688.14,-276.96 657.48,-264.87 633.04,-255.23"/>
<polygon fill="#63b8ff" stroke="#63b8ff" points="709.98,-289.34 720.56,-289.75 712.54,-282.82 709.98,-289.34"/>
</a>
</g>
</g>
<!-- Node10 -->
<g id="Node000010" class="node">
<title>Node10</title>
<g id="a_Node000010"><a xlink:href="periodic__callback_8h.html" target="_top" xlink:title="Provides functionality to trigger periodic event callbacks.">
<polygon fill="white" stroke="#666666" points="818.62,-254.75 675.12,-254.75 675.12,-221.25 818.62,-221.25 818.62,-254.75"/>
<text text-anchor="start" x="683.12" y="-241.25" font-family="Helvetica,sans-Serif" font-size="10.00">sys/include/event/periodic</text>
<text text-anchor="middle" x="746.88" y="-228.5" font-family="Helvetica,sans-Serif" font-size="10.00">_callback.h</text>
</a>
</g>
</g>
<!-- Node1&#45;&gt;Node10 -->
<g id="edge10_Node000001_Node000010" class="edge">
<title>Node1&#45;&gt;Node10</title>
<g id="a_edge10_Node000001_Node000010"><a xlink:title=" ">
<path fill="none" stroke="#63b8ff" d="M746.88,-278.84C746.88,-271.1 746.88,-262.47 746.88,-255.23"/>
<polygon fill="#63b8ff" stroke="#63b8ff" points="743.38,-278.79 746.88,-288.79 750.38,-278.79 743.38,-278.79"/>
</a>
</g>
</g>
<!-- Node11 -->
<g id="Node000011" class="node">
<title>Node11</title>
<g id="a_Node000011"><a xlink:href="asymcute_8h.html" target="_top" xlink:title="Asymcute MQTT&#45;SN interface definition.">
<polygon fill="white" stroke="#666666" points="986.62,-248.38 837.12,-248.38 837.12,-227.62 986.62,-227.62 986.62,-248.38"/>
<text text-anchor="middle" x="911.88" y="-234.88" font-family="Helvetica,sans-Serif" font-size="10.00">sys/include/net/asymcute.h</text>
</a>
</g>
</g>
<!-- Node1&#45;&gt;Node11 -->
<g id="edge11_Node000001_Node000011" class="edge">
<title>Node1&#45;&gt;Node11</title>
<g id="a_edge11_Node000001_Node000011"><a xlink:title=" ">
<path fill="none" stroke="#63b8ff" d="M784.14,-286.32C814.99,-274.89 858.03,-258.95 885.43,-248.8"/>
<polygon fill="#63b8ff" stroke="#63b8ff" points="782.97,-283.02 774.8,-289.78 785.4,-289.59 782.97,-283.02"/>
</a>
</g>
</g>
<!-- Node12 -->
<g id="Node000012" class="node">
<title>Node12</title>
<g id="a_Node000012"><a xlink:href="gcoap_8h.html" target="_top" xlink:title="gcoap definition">
<polygon fill="white" stroke="#666666" points="1135.25,-248.38 1004.5,-248.38 1004.5,-227.62 1135.25,-227.62 1135.25,-248.38"/>
<text text-anchor="middle" x="1069.88" y="-234.88" font-family="Helvetica,sans-Serif" font-size="10.00">sys/include/net/gcoap.h</text>
</a>
</g>
</g>
<!-- Node1&#45;&gt;Node12 -->
<g id="edge12_Node000001_Node000012" class="edge">
<title>Node1&#45;&gt;Node12</title>
<g id="a_edge12_Node000001_Node000012"><a xlink:title=" ">
<path fill="none" stroke="#63b8ff" d="M814.36,-288.38C864.51,-279.52 934.56,-266.86 995.88,-254.75 1005.15,-252.92 1015.07,-250.87 1024.52,-248.87"/>
<polygon fill="#63b8ff" stroke="#63b8ff" points="814.06,-284.88 804.82,-290.06 815.28,-291.77 814.06,-284.88"/>
</a>
</g>
</g>
<!-- Node3 -->
<g id="Node000003" class="node">
<title>Node3</title>
<g id="a_Node000003"><a xlink:href="os_8h.html" target="_top" xlink:title="Apache Mynewt Copyright 2015&#45;2021 The Apache Software Foundation.">
<polygon fill="white" stroke="#666666" points="366.75,-178.88 227,-178.88 227,-145.38 366.75,-145.38 366.75,-178.88"/>
<text text-anchor="start" x="235" y="-165.38" font-family="Helvetica,sans-Serif" font-size="10.00">pkg/mynewt&#45;core/include</text>
<text text-anchor="middle" x="296.88" y="-152.62" font-family="Helvetica,sans-Serif" font-size="10.00">/os/os.h</text>
</a>
</g>
</g>
<!-- Node2&#45;&gt;Node3 -->
<g id="edge2_Node000002_Node000003" class="edge">
<title>Node2&#45;&gt;Node3</title>
<g id="a_edge2_Node000002_Node000003"><a xlink:title=" ">
<path fill="none" stroke="#63b8ff" d="M397.56,-215.5C375.34,-203.94 348.39,-189.92 327.96,-179.3"/>
<polygon fill="#63b8ff" stroke="#63b8ff" points="395.88,-218.58 406.37,-220.09 399.11,-212.37 395.88,-218.58"/>
</a>
</g>
</g>
<!-- Node8 -->
<g id="Node000008" class="node">
<title>Node8</title>
<g id="a_Node000008"><a xlink:href="dpl__eventq_8h.html" target="_top" xlink:title="uwb&#45;core DPL (Decawave Porting Layer) event queue wrappers">
<polygon fill="white" stroke="#666666" points="570,-103 449.75,-103 449.75,-69.5 570,-69.5 570,-103"/>
<text text-anchor="start" x="457.75" y="-89.5" font-family="Helvetica,sans-Serif" font-size="10.00">pkg/uwb&#45;core/include</text>
<text text-anchor="middle" x="509.88" y="-76.75" font-family="Helvetica,sans-Serif" font-size="10.00">/dpl/dpl_eventq.h</text>
</a>
</g>
</g>
<!-- Node2&#45;&gt;Node8 -->
<g id="edge7_Node000002_Node000008" class="edge">
<title>Node2&#45;&gt;Node8</title>
<g id="a_edge7_Node000002_Node000008"><a xlink:title=" ">
<path fill="none" stroke="#63b8ff" d="M451.26,-210.88C466,-179.79 490.14,-128.87 502.33,-103.16"/>
<polygon fill="#63b8ff" stroke="#63b8ff" points="448.24,-209.07 447.12,-219.61 454.57,-212.07 448.24,-209.07"/>
</a>
</g>
</g>
<!-- Node4 -->
<g id="Node000004" class="node">
<title>Node4</title>
<g id="a_Node000004"><a xlink:href="mynewt_8h.html" target="_top" xlink:title="mynewt&#45;core header">
<polygon fill="white" stroke="#666666" points="139.75,-103 0,-103 0,-69.5 139.75,-69.5 139.75,-103"/>
<text text-anchor="start" x="8" y="-89.5" font-family="Helvetica,sans-Serif" font-size="10.00">pkg/mynewt&#45;core/include</text>
<text text-anchor="middle" x="69.88" y="-76.75" font-family="Helvetica,sans-Serif" font-size="10.00">/os/mynewt.h</text>
</a>
</g>
</g>
<!-- Node3&#45;&gt;Node4 -->
<g id="edge3_Node000003_Node000004" class="edge">
<title>Node3&#45;&gt;Node4</title>
<g id="a_edge3_Node000003_Node000004"><a xlink:title=" ">
<path fill="none" stroke="#63b8ff" d="M236.54,-141.49C200.01,-129.6 154,-114.63 119.57,-103.42"/>
<polygon fill="#63b8ff" stroke="#63b8ff" points="235.03,-144.68 245.62,-144.44 237.19,-138.02 235.03,-144.68"/>
</a>
</g>
</g>
<!-- Node5 -->
<g id="Node000005" class="node">
<title>Node5</title>
<g id="a_Node000005"><a xlink:href="nimble__npl__os_8h.html" target="_top" xlink:title="Mynewt&#45;Nimble Porting layer wrappers.">
<polygon fill="white" stroke="#666666" points="293.5,-103 158.25,-103 158.25,-69.5 293.5,-69.5 293.5,-103"/>
<text text-anchor="start" x="166.25" y="-89.5" font-family="Helvetica,sans-Serif" font-size="10.00">pkg/nimble/npl/include</text>
<text text-anchor="middle" x="225.88" y="-76.75" font-family="Helvetica,sans-Serif" font-size="10.00">/nimble/nimble_npl_os.h</text>
</a>
</g>
</g>
<!-- Node3&#45;&gt;Node5 -->
<g id="edge4_Node000003_Node000005" class="edge">
<title>Node3&#45;&gt;Node5</title>
<g id="a_edge4_Node000003_Node000005"><a xlink:title=" ">
<path fill="none" stroke="#63b8ff" d="M273.73,-137.04C263.08,-125.96 250.73,-113.12 241.25,-103.25"/>
<polygon fill="#63b8ff" stroke="#63b8ff" points="270.97,-139.22 280.42,-144 276.01,-134.37 270.97,-139.22"/>
</a>
</g>
</g>
<!-- Node6 -->
<g id="Node000006" class="node">
<title>Node6</title>
<g id="a_Node000006"><a xlink:href="dpl__os_8h.html" target="_top" xlink:title="uwb&#45;core DPL (Decawave Porting Layer) os abstraction layer">
<polygon fill="white" stroke="#666666" points="432,-103 311.75,-103 311.75,-69.5 432,-69.5 432,-103"/>
<text text-anchor="start" x="319.75" y="-89.5" font-family="Helvetica,sans-Serif" font-size="10.00">pkg/uwb&#45;core/include</text>
<text text-anchor="middle" x="371.88" y="-76.75" font-family="Helvetica,sans-Serif" font-size="10.00">/dpl/dpl_os.h</text>
</a>
</g>
</g>
<!-- Node3&#45;&gt;Node6 -->
<g id="edge5_Node000003_Node000006" class="edge">
<title>Node3&#45;&gt;Node6</title>
<g id="a_edge5_Node000003_Node000006"><a xlink:title=" ">
<path fill="none" stroke="#63b8ff" d="M321.32,-137.04C332.57,-125.96 345.61,-113.12 355.63,-103.25"/>
<polygon fill="#63b8ff" stroke="#63b8ff" points="318.9,-134.52 314.23,-144.03 323.81,-139.51 318.9,-134.52"/>
</a>
</g>
</g>
<!-- Node7 -->
<g id="Node000007" class="node">
<title>Node7</title>
<g id="a_Node000007"><a xlink:href="dpl_8h.html" target="_top" xlink:title="Abstraction layer for RIOT adaption.">
<polygon fill="white" stroke="#666666" points="501,-33.5 380.75,-33.5 380.75,0 501,0 501,-33.5"/>
<text text-anchor="start" x="388.75" y="-20" font-family="Helvetica,sans-Serif" font-size="10.00">pkg/uwb&#45;core/include</text>
<text text-anchor="middle" x="440.88" y="-7.25" font-family="Helvetica,sans-Serif" font-size="10.00">/dpl/dpl.h</text>
</a>
</g>
</g>
<!-- Node6&#45;&gt;Node7 -->
<g id="edge6_Node000006_Node000007" class="edge">
<title>Node6&#45;&gt;Node7</title>
<g id="a_edge6_Node000006_Node000007"><a xlink:title=" ">
<path fill="none" stroke="#63b8ff" d="M396.44,-61.22C405.8,-52.06 416.24,-41.85 424.64,-33.63"/>
<polygon fill="#63b8ff" stroke="#63b8ff" points="394.01,-58.7 389.31,-68.2 398.9,-63.7 394.01,-58.7"/>
</a>
</g>
</g>
<!-- Node8&#45;&gt;Node7 -->
<g id="edge8_Node000008_Node000007" class="edge">
<title>Node8&#45;&gt;Node7</title>
<g id="a_edge8_Node000008_Node000007"><a xlink:title=" ">
<path fill="none" stroke="#63b8ff" d="M485.31,-61.22C475.95,-52.06 465.51,-41.85 457.11,-33.63"/>
<polygon fill="#63b8ff" stroke="#63b8ff" points="482.85,-63.7 492.44,-68.2 487.74,-58.7 482.85,-63.7"/>
</a>
</g>
</g>
<!-- Node13 -->
<g id="Node000013" class="node">
<title>Node13</title>
<g id="a_Node000013"><a xlink:href="gcoap_2dns_8h.html" target="_top" xlink:title="gcoap_dns definitions">
<polygon fill="white" stroke="#666666" points="990.75,-178.88 869,-178.88 869,-145.38 990.75,-145.38 990.75,-178.88"/>
<text text-anchor="start" x="877" y="-165.38" font-family="Helvetica,sans-Serif" font-size="10.00">sys/include/net/gcoap</text>
<text text-anchor="middle" x="929.88" y="-152.62" font-family="Helvetica,sans-Serif" font-size="10.00">/dns.h</text>
</a>
</g>
</g>
<!-- Node12&#45;&gt;Node13 -->
<g id="edge13_Node000012_Node000013" class="edge">
<title>Node12&#45;&gt;Node13</title>
<g id="a_edge13_Node000012_Node000013"><a xlink:title=" ">
<path fill="none" stroke="#63b8ff" d="M1041.25,-221.9C1017.79,-209.51 984.65,-192.03 960.62,-179.35"/>
<polygon fill="#63b8ff" stroke="#63b8ff" points="1039.47,-224.91 1049.95,-226.48 1042.73,-218.72 1039.47,-224.91"/>
</a>
</g>
</g>
<!-- Node15 -->
<g id="Node000015" class="node">
<title>Node15</title>
<g id="a_Node000015"><a xlink:href="forward__proxy_8h.html" target="_top" xlink:title="Definitions for the GCoAP forward proxy.">
<polygon fill="white" stroke="#666666" points="1130.75,-178.88 1009,-178.88 1009,-145.38 1130.75,-145.38 1130.75,-178.88"/>
<text text-anchor="start" x="1017" y="-165.38" font-family="Helvetica,sans-Serif" font-size="10.00">sys/include/net/gcoap</text>
<text text-anchor="middle" x="1069.88" y="-152.62" font-family="Helvetica,sans-Serif" font-size="10.00">/forward_proxy.h</text>
</a>
</g>
</g>
<!-- Node12&#45;&gt;Node15 -->
<g id="edge15_Node000012_Node000015" class="edge">
<title>Node12&#45;&gt;Node15</title>
<g id="a_edge15_Node000012_Node000015"><a xlink:title=" ">
<path fill="none" stroke="#63b8ff" d="M1069.88,-216.01C1069.88,-204.35 1069.88,-190.06 1069.88,-179.28"/>
<polygon fill="#63b8ff" stroke="#63b8ff" points="1066.38,-215.83 1069.88,-225.83 1073.38,-215.83 1066.38,-215.83"/>
</a>
</g>
</g>
<!-- Node16 -->
<g id="Node000016" class="node">
<title>Node16</title>
<g id="a_Node000016"><a xlink:href="forward__proxy__internal_8h.html" target="_top" xlink:title="Definitions for the GCoAP forward proxy internal communication.">
<polygon fill="white" stroke="#666666" points="1290.5,-185.25 1149.25,-185.25 1149.25,-139 1290.5,-139 1290.5,-185.25"/>
<text text-anchor="start" x="1157.25" y="-171.75" font-family="Helvetica,sans-Serif" font-size="10.00">sys/net/application</text>
<text text-anchor="start" x="1157.25" y="-159" font-family="Helvetica,sans-Serif" font-size="10.00">_layer/gcoap/include</text>
<text text-anchor="middle" x="1219.88" y="-146.25" font-family="Helvetica,sans-Serif" font-size="10.00">/forward_proxy_internal.h</text>
</a>
</g>
</g>
<!-- Node12&#45;&gt;Node16 -->
<g id="edge16_Node000012_Node000016" class="edge">
<title>Node12&#45;&gt;Node16</title>
<g id="a_edge16_Node000012_Node000016"><a xlink:title=" ">
<path fill="none" stroke="#63b8ff" d="M1100.12,-222.11C1121.29,-211.68 1149.97,-197.55 1173.96,-185.74"/>
<polygon fill="#63b8ff" stroke="#63b8ff" points="1098.58,-218.96 1091.15,-226.52 1101.67,-225.24 1098.58,-218.96"/>
</a>
</g>
</g>
<!-- Node14 -->
<g id="Node000014" class="node">
<title>Node14</title>
<g id="a_Node000014"><a xlink:href="dns_8h.html" target="_top" xlink:title="Generic DNS values.">
<polygon fill="white" stroke="#666666" points="989.25,-96.62 870.5,-96.62 870.5,-75.88 989.25,-75.88 989.25,-96.62"/>
<text text-anchor="middle" x="929.88" y="-83.12" font-family="Helvetica,sans-Serif" font-size="10.00">sys/include/net/dns.h</text>
</a>
</g>
</g>
<!-- Node13&#45;&gt;Node14 -->
<g id="edge14_Node000013_Node000014" class="edge">
<title>Node13&#45;&gt;Node14</title>
<g id="a_edge14_Node000013_Node000014"><a xlink:title=" ">
<path fill="none" stroke="#63b8ff" d="M929.88,-133.82C929.88,-120.79 929.88,-106.05 929.88,-96.71"/>
<polygon fill="#63b8ff" stroke="#63b8ff" points="926.38,-133.58 929.88,-143.58 933.38,-133.58 926.38,-133.58"/>
</a>
</g>
</g>
</g>
</svg>
