<?xml version="1.0" encoding="UTF-8" standalone="no"?>
<!DOCTYPE svg PUBLIC "-//W3C//DTD SVG 1.1//EN"
 "http://www.w3.org/Graphics/SVG/1.1/DTD/svg11.dtd">
<!-- Generated by graphviz version 12.1.2 (0)
 -->
<!-- Title: drivers/cc2420/include/cc2420_internal.h Pages: 1 -->
<svg width="1335pt" height="496pt"
 viewBox="0.00 0.00 1335.38 495.50" xmlns="http://www.w3.org/2000/svg" xmlns:xlink="http://www.w3.org/1999/xlink">
<g id="graph0" class="graph" transform="scale(1 1) rotate(0) translate(4 491.5)">
<title>drivers/cc2420/include/cc2420_internal.h</title>
<!-- Node1 -->
<g id="Node000001" class="node">
<title>Node1</title>
<g id="a_Node000001"><a xlink:title="Definitions and settings for the cc2420.">
<polygon fill="#999999" stroke="#666666" points="997.12,-487.5 871.62,-487.5 871.62,-454 997.12,-454 997.12,-487.5"/>
<text text-anchor="start" x="879.62" y="-474" font-family="Helvetica,sans-Serif" font-size="10.00">drivers/cc2420/include</text>
<text text-anchor="middle" x="934.38" y="-461.25" font-family="Helvetica,sans-Serif" font-size="10.00">/cc2420_internal.h</text>
</a>
</g>
</g>
<!-- Node2 -->
<g id="Node000002" class="node">
<title>Node2</title>
<g id="a_Node000002"><a xlink:title=" ">
<polygon fill="#e0e0e0" stroke="#999999" points="954.75,-20.75 902,-20.75 902,0 954.75,0 954.75,-20.75"/>
<text text-anchor="middle" x="928.38" y="-7.25" font-family="Helvetica,sans-Serif" font-size="10.00">stdint.h</text>
</a>
</g>
</g>
<!-- Node1&#45;&gt;Node2 -->
<g id="edge1_Node000001_Node000002" class="edge">
<title>Node1&#45;&gt;Node2</title>
<g id="a_edge1_Node000001_Node000002"><a xlink:title=" ">
<path fill="none" stroke="#63b8ff" d="M997.52,-463.97C1108.61,-452.04 1327.38,-419.9 1327.38,-351.88 1327.38,-351.88 1327.38,-351.88 1327.38,-122.88 1327.38,-86.56 1310.6,-75.29 1279.38,-56.75 1227.17,-25.76 1046.42,-15.58 966.68,-12.54"/>
<polygon fill="#63b8ff" stroke="#63b8ff" points="966.86,-9.05 956.74,-12.19 966.61,-16.04 966.86,-9.05"/>
</a>
</g>
</g>
<!-- Node3 -->
<g id="Node000003" class="node">
<title>Node3</title>
<g id="a_Node000003"><a xlink:href="cc2420_8h.html" target="_top" xlink:title="Interface definition for the CC2420 driver.">
<polygon fill="white" stroke="#666666" points="674.12,-418 614.62,-418 614.62,-397.25 674.12,-397.25 674.12,-418"/>
<text text-anchor="middle" x="644.38" y="-404.5" font-family="Helvetica,sans-Serif" font-size="10.00">cc2420.h</text>
</a>
</g>
</g>
<!-- Node1&#45;&gt;Node3 -->
<g id="edge2_Node000001_Node000003" class="edge">
<title>Node1&#45;&gt;Node3</title>
<g id="a_edge2_Node000001_Node000003"><a xlink:title=" ">
<path fill="none" stroke="#63b8ff" d="M871.45,-456.49C815,-444.59 733.82,-427.48 685.36,-417.26"/>
<polygon fill="#63b8ff" stroke="#63b8ff" points="686.35,-413.9 675.85,-415.26 684.91,-420.75 686.35,-413.9"/>
</a>
</g>
</g>
<!-- Node3&#45;&gt;Node2 -->
<g id="edge3_Node000003_Node000002" class="edge">
<title>Node3&#45;&gt;Node2</title>
<g id="a_edge3_Node000003_Node000002"><a xlink:title=" ">
<path fill="none" stroke="#63b8ff" d="M674.62,-404.64C802.14,-395.9 1289.38,-358.34 1289.38,-295.12 1289.38,-295.12 1289.38,-295.12 1289.38,-122.88 1289.38,-89.41 1280.89,-75.8 1253.38,-56.75 1207.58,-25.05 1042.13,-15.3 966.53,-12.47"/>
<polygon fill="#63b8ff" stroke="#63b8ff" points="966.83,-8.98 956.72,-12.12 966.59,-15.97 966.83,-8.98"/>
</a>
</g>
</g>
<!-- Node4 -->
<g id="Node000004" class="node">
<title>Node4</title>
<g id="a_Node000004"><a xlink:href="spi_8h.html" target="_top" xlink:title="Low&#45;level SPI peripheral driver interface definition.">
<polygon fill="white" stroke="#666666" points="339.88,-191 266.88,-191 266.88,-170.25 339.88,-170.25 339.88,-191"/>
<text text-anchor="middle" x="303.38" y="-177.5" font-family="Helvetica,sans-Serif" font-size="10.00">periph/spi.h</text>
</a>
</g>
</g>
<!-- Node3&#45;&gt;Node4 -->
<g id="edge4_Node000003_Node000004" class="edge">
<title>Node3&#45;&gt;Node4</title>
<g id="a_edge4_Node000003_Node000004"><a xlink:title=" ">
<path fill="none" stroke="#63b8ff" d="M629.72,-396.96C576.6,-361.91 393.78,-241.27 327.56,-197.58"/>
<polygon fill="#63b8ff" stroke="#63b8ff" points="329.51,-194.68 319.24,-192.09 325.66,-200.52 329.51,-194.68"/>
</a>
</g>
</g>
<!-- Node11 -->
<g id="Node000011" class="node">
<title>Node11</title>
<g id="a_Node000011"><a xlink:href="drivers_2include_2periph_2gpio_8h.html" target="_top" xlink:title="Low&#45;level GPIO peripheral driver interface definitions.">
<polygon fill="white" stroke="#666666" points="161.25,-134.25 81.5,-134.25 81.5,-113.5 161.25,-113.5 161.25,-134.25"/>
<text text-anchor="middle" x="121.38" y="-120.75" font-family="Helvetica,sans-Serif" font-size="10.00">periph/gpio.h</text>
</a>
</g>
</g>
<!-- Node3&#45;&gt;Node11 -->
<g id="edge17_Node000003_Node000011" class="edge">
<title>Node3&#45;&gt;Node11</title>
<g id="a_edge17_Node000003_Node000011"><a xlink:title=" ">
<path fill="none" stroke="#63b8ff" d="M614.29,-405.87C511.47,-402.51 180.38,-384.71 180.38,-295.12 180.38,-295.12 180.38,-295.12 180.38,-236.38 180.38,-200.1 155.68,-164.09 138.24,-143.19"/>
<polygon fill="#63b8ff" stroke="#63b8ff" points="141.05,-141.09 131.85,-135.84 135.77,-145.68 141.05,-141.09"/>
</a>
</g>
</g>
<!-- Node13 -->
<g id="Node000013" class="node">
<title>Node13</title>
<g id="a_Node000013"><a xlink:href="drivers_2include_2net_2netdev_8h.html" target="_top" xlink:title="Definitions low&#45;level network driver interface.">
<polygon fill="white" stroke="#666666" points="603.75,-247.75 527,-247.75 527,-227 603.75,-227 603.75,-247.75"/>
<text text-anchor="middle" x="565.38" y="-234.25" font-family="Helvetica,sans-Serif" font-size="10.00">net/netdev.h</text>
</a>
</g>
</g>
<!-- Node3&#45;&gt;Node13 -->
<g id="edge18_Node000003_Node000013" class="edge">
<title>Node3&#45;&gt;Node13</title>
<g id="a_edge18_Node000003_Node000013"><a xlink:title=" ">
<path fill="none" stroke="#63b8ff" d="M637.09,-396.89C630.6,-387.94 621.11,-374.14 614.38,-361.25 596.27,-326.62 580.58,-283.74 572.1,-258.88"/>
<polygon fill="#63b8ff" stroke="#63b8ff" points="575.51,-258.04 569.02,-249.67 568.87,-260.26 575.51,-258.04"/>
</a>
</g>
</g>
<!-- Node22 -->
<g id="Node000022" class="node">
<title>Node22</title>
<g id="a_Node000022"><a xlink:href="drivers_2include_2net_2netdev_2ieee802154_8h.html" target="_top" xlink:title="Definitions for netdev common IEEE 802.15.4 code.">
<polygon fill="white" stroke="#666666" points="761.12,-361.25 623.62,-361.25 623.62,-340.5 761.12,-340.5 761.12,-361.25"/>
<text text-anchor="middle" x="692.38" y="-347.75" font-family="Helvetica,sans-Serif" font-size="10.00">net/netdev/ieee802154.h</text>
</a>
</g>
</g>
<!-- Node3&#45;&gt;Node22 -->
<g id="edge36_Node000003_Node000022" class="edge">
<title>Node3&#45;&gt;Node22</title>
<g id="a_edge36_Node000003_Node000022"><a xlink:title=" ">
<path fill="none" stroke="#63b8ff" d="M652.96,-396.84C659.44,-389.44 668.53,-379.07 676.35,-370.16"/>
<polygon fill="#63b8ff" stroke="#63b8ff" points="678.91,-372.54 682.87,-362.72 673.65,-367.93 678.91,-372.54"/>
</a>
</g>
</g>
<!-- Node4&#45;&gt;Node2 -->
<g id="edge10_Node000004_Node000002" class="edge">
<title>Node4&#45;&gt;Node2</title>
<g id="a_edge10_Node000004_Node000002"><a xlink:title=" ">
<path fill="none" stroke="#63b8ff" d="M301.32,-169.96C298.93,-155.98 296.79,-129.99 309.38,-113.5 353.13,-56.18 391.12,-72.99 461.38,-56.75 617.64,-20.64 809.78,-13.23 890.18,-11.74"/>
<polygon fill="#63b8ff" stroke="#63b8ff" points="890.2,-15.24 900.14,-11.58 890.09,-8.24 890.2,-15.24"/>
</a>
</g>
</g>
<!-- Node5 -->
<g id="Node000005" class="node">
<title>Node5</title>
<g id="a_Node000005"><a xlink:href="endian_8h.html" target="_top" xlink:title="libc header for endian conversion">
<polygon fill="white" stroke="#666666" points="900.38,-77.5 842.38,-77.5 842.38,-56.75 900.38,-56.75 900.38,-77.5"/>
<text text-anchor="middle" x="871.38" y="-64" font-family="Helvetica,sans-Serif" font-size="10.00">endian.h</text>
</a>
</g>
</g>
<!-- Node4&#45;&gt;Node5 -->
<g id="edge5_Node000004_Node000005" class="edge">
<title>Node4&#45;&gt;Node5</title>
<g id="a_edge5_Node000004_Node000005"><a xlink:title=" ">
<path fill="none" stroke="#63b8ff" d="M308.61,-169.89C317.31,-154.8 336.31,-126.19 361.38,-113.5 443.96,-71.69 684.2,-86.05 776.38,-77.5 794.34,-75.83 814.21,-73.89 831.11,-72.2"/>
<polygon fill="#63b8ff" stroke="#63b8ff" points="831.17,-75.72 840.77,-71.24 830.47,-68.75 831.17,-75.72"/>
</a>
</g>
</g>
<!-- Node6 -->
<g id="Node000006" class="node">
<title>Node6</title>
<g id="a_Node000006"><a xlink:href="errno_8h.html" target="_top" xlink:title=" ">
<polygon fill="white" stroke="#666666" points="537.62,-134.25 487.12,-134.25 487.12,-113.5 537.62,-113.5 537.62,-134.25"/>
<text text-anchor="middle" x="512.38" y="-120.75" font-family="Helvetica,sans-Serif" font-size="10.00">errno.h</text>
</a>
</g>
</g>
<!-- Node4&#45;&gt;Node6 -->
<g id="edge7_Node000004_Node000006" class="edge">
<title>Node4&#45;&gt;Node6</title>
<g id="a_edge7_Node000004_Node000006"><a xlink:title=" ">
<path fill="none" stroke="#63b8ff" d="M340.26,-169.96C378.38,-159.98 437.55,-144.48 475.63,-134.5"/>
<polygon fill="#63b8ff" stroke="#63b8ff" points="476.47,-137.9 485.26,-131.98 474.7,-131.13 476.47,-137.9"/>
</a>
</g>
</g>
<!-- Node7 -->
<g id="Node000007" class="node">
<title>Node7</title>
<g id="a_Node000007"><a xlink:title=" ">
<polygon fill="#e0e0e0" stroke="#999999" points="430.88,-134.25 369.88,-134.25 369.88,-113.5 430.88,-113.5 430.88,-134.25"/>
<text text-anchor="middle" x="400.38" y="-120.75" font-family="Helvetica,sans-Serif" font-size="10.00">stdbool.h</text>
</a>
</g>
</g>
<!-- Node4&#45;&gt;Node7 -->
<g id="edge8_Node000004_Node000007" class="edge">
<title>Node4&#45;&gt;Node7</title>
<g id="a_edge8_Node000004_Node000007"><a xlink:title=" ">
<path fill="none" stroke="#63b8ff" d="M320.72,-169.84C335.34,-161.58 356.51,-149.63 373.35,-140.13"/>
<polygon fill="#63b8ff" stroke="#63b8ff" points="374.88,-143.29 381.87,-135.32 371.44,-137.19 374.88,-143.29"/>
</a>
</g>
</g>
<!-- Node8 -->
<g id="Node000008" class="node">
<title>Node8</title>
<g id="a_Node000008"><a xlink:title=" ">
<polygon fill="#e0e0e0" stroke="#999999" points="542.88,-77.5 487.88,-77.5 487.88,-56.75 542.88,-56.75 542.88,-77.5"/>
<text text-anchor="middle" x="515.38" y="-64" font-family="Helvetica,sans-Serif" font-size="10.00">stddef.h</text>
</a>
</g>
</g>
<!-- Node4&#45;&gt;Node8 -->
<g id="edge9_Node000004_Node000008" class="edge">
<title>Node4&#45;&gt;Node8</title>
<g id="a_edge9_Node000004_Node000008"><a xlink:title=" ">
<path fill="none" stroke="#63b8ff" d="M304.08,-169.96C305.67,-155.49 310.81,-128.32 327.38,-113.5 349.11,-94.06 427.88,-80.11 476.3,-73.15"/>
<polygon fill="#63b8ff" stroke="#63b8ff" points="476.69,-76.63 486.11,-71.78 475.72,-69.7 476.69,-76.63"/>
</a>
</g>
</g>
<!-- Node9 -->
<g id="Node000009" class="node">
<title>Node9</title>
<g id="a_Node000009"><a xlink:title=" ">
<polygon fill="#e0e0e0" stroke="#999999" points="248.5,-77.5 170.25,-77.5 170.25,-56.75 248.5,-56.75 248.5,-77.5"/>
<text text-anchor="middle" x="209.38" y="-64" font-family="Helvetica,sans-Serif" font-size="10.00">periph_cpu.h</text>
</a>
</g>
</g>
<!-- Node4&#45;&gt;Node9 -->
<g id="edge11_Node000004_Node000009" class="edge">
<title>Node4&#45;&gt;Node9</title>
<g id="a_edge11_Node000004_Node000009"><a xlink:title=" ">
<path fill="none" stroke="#63b8ff" d="M290.48,-170.08C279.35,-161.47 263.24,-148.07 251.38,-134.25 238.93,-119.76 227.5,-101.26 219.71,-87.52"/>
<polygon fill="#63b8ff" stroke="#63b8ff" points="222.92,-86.09 215.03,-79.01 216.79,-89.46 222.92,-86.09"/>
</a>
</g>
</g>
<!-- Node10 -->
<g id="Node000010" class="node">
<title>Node10</title>
<g id="a_Node000010"><a xlink:title=" ">
<polygon fill="#e0e0e0" stroke="#999999" points="152,-77.5 70.75,-77.5 70.75,-56.75 152,-56.75 152,-77.5"/>
<text text-anchor="middle" x="111.38" y="-64" font-family="Helvetica,sans-Serif" font-size="10.00">periph_conf.h</text>
</a>
</g>
</g>
<!-- Node4&#45;&gt;Node10 -->
<g id="edge12_Node000004_Node000010" class="edge">
<title>Node4&#45;&gt;Node10</title>
<g id="a_edge12_Node000004_Node000010"><a xlink:title=" ">
<path fill="none" stroke="#63b8ff" d="M286.67,-169.93C253.34,-150.57 178.32,-107 138.08,-83.63"/>
<polygon fill="#63b8ff" stroke="#63b8ff" points="139.89,-80.64 129.48,-78.64 136.37,-86.69 139.89,-80.64"/>
</a>
</g>
</g>
<!-- Node4&#45;&gt;Node11 -->
<g id="edge13_Node000004_Node000011" class="edge">
<title>Node4&#45;&gt;Node11</title>
<g id="a_edge13_Node000004_Node000011"><a xlink:title=" ">
<path fill="none" stroke="#63b8ff" d="M270.84,-169.84C241.29,-160.95 197.5,-147.77 164.94,-137.98"/>
<polygon fill="#63b8ff" stroke="#63b8ff" points="165.97,-134.64 155.39,-135.11 163.95,-141.34 165.97,-134.64"/>
</a>
</g>
</g>
<!-- Node5&#45;&gt;Node2 -->
<g id="edge6_Node000005_Node000002" class="edge">
<title>Node5&#45;&gt;Node2</title>
<g id="a_edge6_Node000005_Node000002"><a xlink:title=" ">
<path fill="none" stroke="#63b8ff" d="M881.57,-56.34C889.51,-48.71 900.74,-37.92 910.21,-28.82"/>
<polygon fill="#63b8ff" stroke="#63b8ff" points="912.39,-31.58 917.18,-22.13 907.54,-26.53 912.39,-31.58"/>
</a>
</g>
</g>
<!-- Node11&#45;&gt;Node9 -->
<g id="edge15_Node000011_Node000009" class="edge">
<title>Node11&#45;&gt;Node9</title>
<g id="a_edge15_Node000011_Node000009"><a xlink:title=" ">
<path fill="none" stroke="#63b8ff" d="M137.11,-113.09C150.25,-104.91 169.22,-93.11 184.43,-83.65"/>
<polygon fill="#63b8ff" stroke="#63b8ff" points="185.85,-86.88 192.49,-78.63 182.15,-80.94 185.85,-86.88"/>
</a>
</g>
</g>
<!-- Node11&#45;&gt;Node10 -->
<g id="edge16_Node000011_Node000010" class="edge">
<title>Node11&#45;&gt;Node10</title>
<g id="a_edge16_Node000011_Node000010"><a xlink:title=" ">
<path fill="none" stroke="#63b8ff" d="M119.59,-113.09C118.36,-106.39 116.7,-97.26 115.18,-88.98"/>
<polygon fill="#63b8ff" stroke="#63b8ff" points="118.66,-88.53 113.42,-79.32 111.77,-89.78 118.66,-88.53"/>
</a>
</g>
</g>
<!-- Node12 -->
<g id="Node000012" class="node">
<title>Node12</title>
<g id="a_Node000012"><a xlink:title=" ">
<polygon fill="#e0e0e0" stroke="#999999" points="52.75,-77.5 0,-77.5 0,-56.75 52.75,-56.75 52.75,-77.5"/>
<text text-anchor="middle" x="26.38" y="-64" font-family="Helvetica,sans-Serif" font-size="10.00">limits.h</text>
</a>
</g>
</g>
<!-- Node11&#45;&gt;Node12 -->
<g id="edge14_Node000011_Node000012" class="edge">
<title>Node11&#45;&gt;Node12</title>
<g id="a_edge14_Node000011_Node000012"><a xlink:title=" ">
<path fill="none" stroke="#63b8ff" d="M104.39,-113.09C90.07,-104.83 69.33,-92.88 52.84,-83.38"/>
<polygon fill="#63b8ff" stroke="#63b8ff" points="54.94,-80.55 44.52,-78.58 51.44,-86.61 54.94,-80.55"/>
</a>
</g>
</g>
<!-- Node13&#45;&gt;Node2 -->
<g id="edge19_Node000013_Node000002" class="edge">
<title>Node13&#45;&gt;Node2</title>
<g id="a_edge19_Node000013_Node000002"><a xlink:title=" ">
<path fill="none" stroke="#63b8ff" d="M564.37,-226.53C562.62,-204.42 561.16,-149.9 584.38,-113.5 608.8,-75.2 627.21,-73.64 669.38,-56.75 744.07,-26.82 838.7,-16.6 890.39,-13.13"/>
<polygon fill="#63b8ff" stroke="#63b8ff" points="890.38,-16.64 900.15,-12.53 889.95,-9.65 890.38,-16.64"/>
</a>
</g>
</g>
<!-- Node13&#45;&gt;Node6 -->
<g id="edge20_Node000013_Node000006" class="edge">
<title>Node13&#45;&gt;Node6</title>
<g id="a_edge20_Node000013_Node000006"><a xlink:title=" ">
<path fill="none" stroke="#63b8ff" d="M560.86,-226.87C552.26,-208.77 533.37,-169.03 521.87,-144.85"/>
<polygon fill="#63b8ff" stroke="#63b8ff" points="525.14,-143.57 517.68,-136.04 518.82,-146.58 525.14,-143.57"/>
</a>
</g>
</g>
<!-- Node14 -->
<g id="Node000014" class="node">
<title>Node14</title>
<g id="a_Node000014"><a xlink:href="iolist_8h.html" target="_top" xlink:title="iolist scatter / gather IO">
<polygon fill="white" stroke="#666666" points="642.88,-191 593.88,-191 593.88,-170.25 642.88,-170.25 642.88,-191"/>
<text text-anchor="middle" x="618.38" y="-177.5" font-family="Helvetica,sans-Serif" font-size="10.00">iolist.h</text>
</a>
</g>
</g>
<!-- Node13&#45;&gt;Node14 -->
<g id="edge21_Node000013_Node000014" class="edge">
<title>Node13&#45;&gt;Node14</title>
<g id="a_edge21_Node000013_Node000014"><a xlink:title=" ">
<path fill="none" stroke="#63b8ff" d="M574.85,-226.59C582.16,-219.03 592.47,-208.39 601.22,-199.35"/>
<polygon fill="#63b8ff" stroke="#63b8ff" points="603.49,-202.04 607.93,-192.42 598.46,-197.17 603.49,-202.04"/>
</a>
</g>
</g>
<!-- Node15 -->
<g id="Node000015" class="node">
<title>Node15</title>
<g id="a_Node000015"><a xlink:href="netopt_8h.html" target="_top" xlink:title="Definition of global configuration options.">
<polygon fill="white" stroke="#666666" points="497,-191 421.75,-191 421.75,-170.25 497,-170.25 497,-191"/>
<text text-anchor="middle" x="459.38" y="-177.5" font-family="Helvetica,sans-Serif" font-size="10.00">net/netopt.h</text>
</a>
</g>
</g>
<!-- Node13&#45;&gt;Node15 -->
<g id="edge22_Node000013_Node000015" class="edge">
<title>Node13&#45;&gt;Node15</title>
<g id="a_edge22_Node000013_Node000015"><a xlink:title=" ">
<path fill="none" stroke="#63b8ff" d="M546.42,-226.59C530.3,-218.26 506.87,-206.16 488.38,-196.61"/>
<polygon fill="#63b8ff" stroke="#63b8ff" points="490,-193.5 479.51,-192.02 486.79,-199.72 490,-193.5"/>
</a>
</g>
</g>
<!-- Node16 -->
<g id="Node000016" class="node">
<title>Node16</title>
<g id="a_Node000016"><a xlink:href="kernel__defines_8h.html" target="_top" xlink:title="Common macros and compiler attributes/pragmas configuration.">
<polygon fill="white" stroke="#666666" points="778.5,-191 682.25,-191 682.25,-170.25 778.5,-170.25 778.5,-191"/>
<text text-anchor="middle" x="730.38" y="-177.5" font-family="Helvetica,sans-Serif" font-size="10.00">kernel_defines.h</text>
</a>
</g>
</g>
<!-- Node13&#45;&gt;Node16 -->
<g id="edge25_Node000013_Node000016" class="edge">
<title>Node13&#45;&gt;Node16</title>
<g id="a_edge25_Node000013_Node000016"><a xlink:title=" ">
<path fill="none" stroke="#63b8ff" d="M594.87,-226.59C621.42,-217.78 660.67,-204.75 690.1,-194.99"/>
<polygon fill="#63b8ff" stroke="#63b8ff" points="691.03,-198.37 699.42,-191.9 688.82,-191.72 691.03,-198.37"/>
</a>
</g>
</g>
<!-- Node15&#45;&gt;Node2 -->
<g id="edge23_Node000015_Node000002" class="edge">
<title>Node15&#45;&gt;Node2</title>
<g id="a_edge23_Node000015_Node000002"><a xlink:title=" ">
<path fill="none" stroke="#63b8ff" d="M457.48,-169.87C453.57,-146.46 447.42,-86.82 479.38,-56.75 509.08,-28.79 787.59,-16.29 890.45,-12.6"/>
<polygon fill="#63b8ff" stroke="#63b8ff" points="890.43,-16.11 900.3,-12.26 890.18,-9.11 890.43,-16.11"/>
</a>
</g>
</g>
<!-- Node15&#45;&gt;Node7 -->
<g id="edge24_Node000015_Node000007" class="edge">
<title>Node15&#45;&gt;Node7</title>
<g id="a_edge24_Node000015_Node000007"><a xlink:title=" ">
<path fill="none" stroke="#63b8ff" d="M448.83,-169.84C440.6,-162.21 428.98,-151.42 419.17,-142.32"/>
<polygon fill="#63b8ff" stroke="#63b8ff" points="421.65,-139.84 411.94,-135.61 416.89,-144.98 421.65,-139.84"/>
</a>
</g>
</g>
<!-- Node17 -->
<g id="Node000017" class="node">
<title>Node17</title>
<g id="a_Node000017"><a xlink:href="modules_8h.html" target="_top" xlink:title="Common macros and compiler attributes/pragmas configuration.">
<polygon fill="white" stroke="#666666" points="964.88,-134.25 897.88,-134.25 897.88,-113.5 964.88,-113.5 964.88,-134.25"/>
<text text-anchor="middle" x="931.38" y="-120.75" font-family="Helvetica,sans-Serif" font-size="10.00">modules.h</text>
</a>
</g>
</g>
<!-- Node16&#45;&gt;Node17 -->
<g id="edge26_Node000016_Node000017" class="edge">
<title>Node16&#45;&gt;Node17</title>
<g id="a_edge26_Node000016_Node000017"><a xlink:title=" ">
<path fill="none" stroke="#63b8ff" d="M766.31,-169.84C799.98,-160.67 850.41,-146.93 886.66,-137.05"/>
<polygon fill="#63b8ff" stroke="#63b8ff" points="887.24,-140.53 895.97,-134.52 885.4,-133.77 887.24,-140.53"/>
</a>
</g>
</g>
<!-- Node18 -->
<g id="Node000018" class="node">
<title>Node18</title>
<g id="a_Node000018"><a xlink:href="riot__version_8h.html" target="_top" xlink:title="Common macros and compiler attributes/pragmas configuration.">
<polygon fill="white" stroke="#666666" points="879.75,-134.25 797,-134.25 797,-113.5 879.75,-113.5 879.75,-134.25"/>
<text text-anchor="middle" x="838.38" y="-120.75" font-family="Helvetica,sans-Serif" font-size="10.00">riot_version.h</text>
</a>
</g>
</g>
<!-- Node16&#45;&gt;Node18 -->
<g id="edge27_Node000016_Node000018" class="edge">
<title>Node16&#45;&gt;Node18</title>
<g id="a_edge27_Node000016_Node000018"><a xlink:title=" ">
<path fill="none" stroke="#63b8ff" d="M749.68,-169.84C766.19,-161.47 790.21,-149.29 809.08,-139.72"/>
<polygon fill="#63b8ff" stroke="#63b8ff" points="810.55,-142.91 817.88,-135.26 807.38,-136.66 810.55,-142.91"/>
</a>
</g>
</g>
<!-- Node19 -->
<g id="Node000019" class="node">
<title>Node19</title>
<g id="a_Node000019"><a xlink:href="compiler__hints_8h.html" target="_top" xlink:title="Common macros and compiler attributes/pragmas configuration.">
<polygon fill="white" stroke="#666666" points="778.88,-134.25 681.88,-134.25 681.88,-113.5 778.88,-113.5 778.88,-134.25"/>
<text text-anchor="middle" x="730.38" y="-120.75" font-family="Helvetica,sans-Serif" font-size="10.00">compiler_hints.h</text>
</a>
</g>
</g>
<!-- Node16&#45;&gt;Node19 -->
<g id="edge29_Node000016_Node000019" class="edge">
<title>Node16&#45;&gt;Node19</title>
<g id="a_edge29_Node000016_Node000019"><a xlink:title=" ">
<path fill="none" stroke="#63b8ff" d="M730.38,-169.84C730.38,-163.22 730.38,-154.22 730.38,-146.02"/>
<polygon fill="#63b8ff" stroke="#63b8ff" points="733.88,-146.09 730.38,-136.09 726.88,-146.09 733.88,-146.09"/>
</a>
</g>
</g>
<!-- Node21 -->
<g id="Node000021" class="node">
<title>Node21</title>
<g id="a_Node000021"><a xlink:href="container_8h.html" target="_top" xlink:title="Common macros and compiler attributes/pragmas configuration.">
<polygon fill="white" stroke="#666666" points="663.75,-134.25 593,-134.25 593,-113.5 663.75,-113.5 663.75,-134.25"/>
<text text-anchor="middle" x="628.38" y="-120.75" font-family="Helvetica,sans-Serif" font-size="10.00">container.h</text>
</a>
</g>
</g>
<!-- Node16&#45;&gt;Node21 -->
<g id="edge33_Node000016_Node000021" class="edge">
<title>Node16&#45;&gt;Node21</title>
<g id="a_edge33_Node000016_Node000021"><a xlink:title=" ">
<path fill="none" stroke="#63b8ff" d="M712.14,-169.84C696.69,-161.55 674.29,-149.52 656.54,-139.99"/>
<polygon fill="#63b8ff" stroke="#63b8ff" points="658.25,-136.94 647.79,-135.29 654.94,-143.11 658.25,-136.94"/>
</a>
</g>
</g>
<!-- Node18&#45;&gt;Node2 -->
<g id="edge28_Node000018_Node000002" class="edge">
<title>Node18&#45;&gt;Node2</title>
<g id="a_edge28_Node000018_Node000002"><a xlink:title=" ">
<path fill="none" stroke="#63b8ff" d="M862.03,-113.15C877.61,-105.6 897.3,-93.68 909.38,-77.5 919.22,-64.31 923.97,-46.15 926.26,-32.21"/>
<polygon fill="#63b8ff" stroke="#63b8ff" points="929.72,-32.71 927.55,-22.34 922.78,-31.8 929.72,-32.71"/>
</a>
</g>
</g>
<!-- Node19&#45;&gt;Node2 -->
<g id="edge32_Node000019_Node000002" class="edge">
<title>Node19&#45;&gt;Node2</title>
<g id="a_edge32_Node000019_Node000002"><a xlink:title=" ">
<path fill="none" stroke="#63b8ff" d="M744.36,-113.1C763.86,-99.66 800.52,-75.05 833.38,-56.75 853.53,-45.52 876.91,-34.34 895.43,-25.88"/>
<polygon fill="#63b8ff" stroke="#63b8ff" points="896.66,-29.16 904.33,-21.86 893.78,-22.79 896.66,-29.16"/>
</a>
</g>
</g>
<!-- Node20 -->
<g id="Node000020" class="node">
<title>Node20</title>
<g id="a_Node000020"><a xlink:href="assert_8h.html" target="_top" xlink:title="POSIX.1&#45;2008 compliant version of the assert macro.">
<polygon fill="white" stroke="#666666" points="766.88,-77.5 711.88,-77.5 711.88,-56.75 766.88,-56.75 766.88,-77.5"/>
<text text-anchor="middle" x="739.38" y="-64" font-family="Helvetica,sans-Serif" font-size="10.00">assert.h</text>
</a>
</g>
</g>
<!-- Node19&#45;&gt;Node20 -->
<g id="edge30_Node000019_Node000020" class="edge">
<title>Node19&#45;&gt;Node20</title>
<g id="a_edge30_Node000019_Node000020"><a xlink:title=" ">
<path fill="none" stroke="#63b8ff" d="M731.98,-113.09C733.08,-106.39 734.59,-97.26 735.95,-88.98"/>
<polygon fill="#63b8ff" stroke="#63b8ff" points="739.37,-89.76 737.53,-79.32 732.46,-88.62 739.37,-89.76"/>
</a>
</g>
</g>
<!-- Node20&#45;&gt;Node2 -->
<g id="edge31_Node000020_Node000002" class="edge">
<title>Node20&#45;&gt;Node2</title>
<g id="a_edge31_Node000020_Node000002"><a xlink:title=" ">
<path fill="none" stroke="#63b8ff" d="M767.26,-58.05C800.02,-48.56 854.5,-32.78 890.92,-22.23"/>
<polygon fill="#63b8ff" stroke="#63b8ff" points="891.51,-25.7 900.14,-19.55 889.56,-18.97 891.51,-25.7"/>
</a>
</g>
</g>
<!-- Node21&#45;&gt;Node2 -->
<g id="edge35_Node000021_Node000002" class="edge">
<title>Node21&#45;&gt;Node2</title>
<g id="a_edge35_Node000021_Node000002"><a xlink:title=" ">
<path fill="none" stroke="#63b8ff" d="M636.46,-113.02C649.11,-98.29 675.08,-70.8 703.38,-56.75 764.28,-26.51 843.97,-16.43 890.33,-13.06"/>
<polygon fill="#63b8ff" stroke="#63b8ff" points="890.38,-16.56 900.14,-12.42 889.93,-9.58 890.38,-16.56"/>
</a>
</g>
</g>
<!-- Node21&#45;&gt;Node8 -->
<g id="edge34_Node000021_Node000008" class="edge">
<title>Node21&#45;&gt;Node8</title>
<g id="a_edge34_Node000021_Node000008"><a xlink:title=" ">
<path fill="none" stroke="#63b8ff" d="M608.17,-113.09C590.82,-104.68 565.54,-92.43 545.75,-82.84"/>
<polygon fill="#63b8ff" stroke="#63b8ff" points="547.29,-79.7 536.76,-78.49 544.24,-86 547.29,-79.7"/>
</a>
</g>
</g>
<!-- Node22&#45;&gt;Node13 -->
<g id="edge62_Node000022_Node000013" class="edge">
<title>Node22&#45;&gt;Node13</title>
<g id="a_edge62_Node000022_Node000013"><a xlink:title=" ">
<path fill="none" stroke="#63b8ff" d="M681.55,-340.37C660.1,-321.54 611.95,-279.26 584.85,-255.47"/>
<polygon fill="#63b8ff" stroke="#63b8ff" points="587.5,-253.14 577.67,-249.17 582.88,-258.4 587.5,-253.14"/>
</a>
</g>
</g>
<!-- Node22&#45;&gt;Node15 -->
<g id="edge61_Node000022_Node000015" class="edge">
<title>Node22&#45;&gt;Node15</title>
<g id="a_edge61_Node000022_Node000015"><a xlink:title=" ">
<path fill="none" stroke="#63b8ff" d="M670.9,-340.06C636.59,-323.78 568.2,-288.91 518.38,-247.75 501.22,-233.58 484.62,-214.32 473.42,-200.24"/>
<polygon fill="#63b8ff" stroke="#63b8ff" points="476.42,-198.39 467.52,-192.64 470.89,-202.68 476.42,-198.39"/>
</a>
</g>
</g>
<!-- Node23 -->
<g id="Node000023" class="node">
<title>Node23</title>
<g id="a_Node000023"><a xlink:href="eui__provider_8h.html" target="_top" xlink:title="EUI&#45;48 and EUI&#45;64 address provider.">
<polygon fill="white" stroke="#666666" points="987.62,-304.5 883.12,-304.5 883.12,-283.75 987.62,-283.75 987.62,-304.5"/>
<text text-anchor="middle" x="935.38" y="-291" font-family="Helvetica,sans-Serif" font-size="10.00">net/eui_provider.h</text>
</a>
</g>
</g>
<!-- Node22&#45;&gt;Node23 -->
<g id="edge37_Node000022_Node000023" class="edge">
<title>Node22&#45;&gt;Node23</title>
<g id="a_edge37_Node000022_Node000023"><a xlink:title=" ">
<path fill="none" stroke="#63b8ff" d="M736.1,-340.02C776.57,-330.9 836.92,-317.31 880.59,-307.47"/>
<polygon fill="#63b8ff" stroke="#63b8ff" points="881.13,-310.93 890.12,-305.32 879.59,-304.11 881.13,-310.93"/>
</a>
</g>
</g>
<!-- Node29 -->
<g id="Node000029" class="node">
<title>Node29</title>
<g id="a_Node000029"><a xlink:href="sys_2include_2net_2ieee802154_8h.html" target="_top" xlink:title="IEEE 802.15.4 header definitions.">
<polygon fill="white" stroke="#666666" points="1195.75,-247.75 1095,-247.75 1095,-227 1195.75,-227 1195.75,-247.75"/>
<text text-anchor="middle" x="1145.38" y="-234.25" font-family="Helvetica,sans-Serif" font-size="10.00">net/ieee802154.h</text>
</a>
</g>
</g>
<!-- Node22&#45;&gt;Node29 -->
<g id="edge50_Node000022_Node000029" class="edge">
<title>Node22&#45;&gt;Node29</title>
<g id="a_edge50_Node000022_Node000029"><a xlink:title=" ">
<path fill="none" stroke="#63b8ff" d="M761.42,-344.9C823.79,-339.16 917.59,-327.4 996.38,-304.5 1040.43,-291.69 1088.43,-268.59 1117.72,-253.37"/>
<polygon fill="#63b8ff" stroke="#63b8ff" points="1119.07,-256.62 1126.28,-248.86 1115.8,-250.42 1119.07,-256.62"/>
</a>
</g>
</g>
<!-- Node31 -->
<g id="Node000031" class="node">
<title>Node31</title>
<g id="a_Node000031"><a xlink:href="nettype_8h.html" target="_top" xlink:title="Protocol type definitions.">
<polygon fill="white" stroke="#666666" points="810,-304.5 704.75,-304.5 704.75,-283.75 810,-283.75 810,-304.5"/>
<text text-anchor="middle" x="757.38" y="-291" font-family="Helvetica,sans-Serif" font-size="10.00">net/gnrc/nettype.h</text>
</a>
</g>
</g>
<!-- Node22&#45;&gt;Node31 -->
<g id="edge56_Node000022_Node000031" class="edge">
<title>Node22&#45;&gt;Node31</title>
<g id="a_edge56_Node000022_Node000031"><a xlink:title=" ">
<path fill="none" stroke="#63b8ff" d="M704,-340.09C713.24,-332.3 726.39,-321.22 737.32,-312.01"/>
<polygon fill="#63b8ff" stroke="#63b8ff" points="739.3,-314.92 744.7,-305.8 734.79,-309.57 739.3,-314.92"/>
</a>
</g>
</g>
<!-- Node23&#45;&gt;Node13 -->
<g id="edge49_Node000023_Node000013" class="edge">
<title>Node23&#45;&gt;Node13</title>
<g id="a_edge49_Node000023_Node000013"><a xlink:title=" ">
<path fill="none" stroke="#63b8ff" d="M882.82,-286.59C821.27,-278.74 715.98,-264.71 615.4,-248.01"/>
<polygon fill="#63b8ff" stroke="#63b8ff" points="616.05,-244.57 605.61,-246.37 614.89,-251.48 616.05,-244.57"/>
</a>
</g>
</g>
<!-- Node24 -->
<g id="Node000024" class="node">
<title>Node24</title>
<g id="a_Node000024"><a xlink:href="eui48_8h.html" target="_top" xlink:title="Definition and IPv6 IID conversion for IEEE EUI&#45;48 identifiers.">
<polygon fill="white" stroke="#666666" points="1025.75,-247.75 955,-247.75 955,-227 1025.75,-227 1025.75,-247.75"/>
<text text-anchor="middle" x="990.38" y="-234.25" font-family="Helvetica,sans-Serif" font-size="10.00">net/eui48.h</text>
</a>
</g>
</g>
<!-- Node23&#45;&gt;Node24 -->
<g id="edge38_Node000023_Node000024" class="edge">
<title>Node23&#45;&gt;Node24</title>
<g id="a_edge38_Node000023_Node000024"><a xlink:title=" ">
<path fill="none" stroke="#63b8ff" d="M945.21,-283.34C952.79,-275.78 963.49,-265.14 972.57,-256.1"/>
<polygon fill="#63b8ff" stroke="#63b8ff" points="974.94,-258.68 979.55,-249.15 970,-253.72 974.94,-258.68"/>
</a>
</g>
</g>
<!-- Node25 -->
<g id="Node000025" class="node">
<title>Node25</title>
<g id="a_Node000025"><a xlink:href="eui64_8h.html" target="_top" xlink:title="EUI&#45;64 data type definition.">
<polygon fill="white" stroke="#666666" points="1077.75,-191 1007,-191 1007,-170.25 1077.75,-170.25 1077.75,-191"/>
<text text-anchor="middle" x="1042.38" y="-177.5" font-family="Helvetica,sans-Serif" font-size="10.00">net/eui64.h</text>
</a>
</g>
</g>
<!-- Node23&#45;&gt;Node25 -->
<g id="edge48_Node000023_Node000025" class="edge">
<title>Node23&#45;&gt;Node25</title>
<g id="a_edge48_Node000023_Node000025"><a xlink:title=" ">
<path fill="none" stroke="#63b8ff" d="M979.7,-283.32C999.53,-276.63 1021.33,-265.61 1034.38,-247.75 1043.77,-234.88 1045.37,-216.7 1044.84,-202.66"/>
<polygon fill="#63b8ff" stroke="#63b8ff" points="1048.33,-202.4 1044.04,-192.71 1041.36,-202.96 1048.33,-202.4"/>
</a>
</g>
</g>
<!-- Node24&#45;&gt;Node2 -->
<g id="edge39_Node000024_Node000002" class="edge">
<title>Node24&#45;&gt;Node2</title>
<g id="a_edge39_Node000024_Node000002"><a xlink:title=" ">
<path fill="none" stroke="#63b8ff" d="M990.07,-226.62C989.21,-205.57 986,-154.48 974.38,-113.5 965.91,-83.65 950.12,-51.33 939.43,-31.22"/>
<polygon fill="#63b8ff" stroke="#63b8ff" points="942.53,-29.6 934.68,-22.48 936.38,-32.94 942.53,-29.6"/>
</a>
</g>
</g>
<!-- Node24&#45;&gt;Node25 -->
<g id="edge40_Node000024_Node000025" class="edge">
<title>Node24&#45;&gt;Node25</title>
<g id="a_edge40_Node000024_Node000025"><a xlink:title=" ">
<path fill="none" stroke="#63b8ff" d="M999.67,-226.59C1006.77,-219.11 1016.75,-208.61 1025.28,-199.63"/>
<polygon fill="#63b8ff" stroke="#63b8ff" points="1027.77,-202.09 1032.12,-192.43 1022.69,-197.27 1027.77,-202.09"/>
</a>
</g>
</g>
<!-- Node25&#45;&gt;Node2 -->
<g id="edge41_Node000025_Node000002" class="edge">
<title>Node25&#45;&gt;Node2</title>
<g id="a_edge41_Node000025_Node000002"><a xlink:title=" ">
<path fill="none" stroke="#63b8ff" d="M1040.01,-169.79C1034.33,-147.69 1018.2,-93.19 989.38,-56.75 980.19,-45.14 967.35,-34.99 955.81,-27.26"/>
<polygon fill="#63b8ff" stroke="#63b8ff" points="957.73,-24.33 947.42,-21.92 953.97,-30.24 957.73,-24.33"/>
</a>
</g>
</g>
<!-- Node26 -->
<g id="Node000026" class="node">
<title>Node26</title>
<g id="a_Node000026"><a xlink:href="byteorder_8h.html" target="_top" xlink:title="Functions to work with different byte orders.">
<polygon fill="white" stroke="#666666" points="1161.5,-134.25 1089.25,-134.25 1089.25,-113.5 1161.5,-113.5 1161.5,-134.25"/>
<text text-anchor="middle" x="1125.38" y="-120.75" font-family="Helvetica,sans-Serif" font-size="10.00">byteorder.h</text>
</a>
</g>
</g>
<!-- Node25&#45;&gt;Node26 -->
<g id="edge42_Node000025_Node000026" class="edge">
<title>Node25&#45;&gt;Node26</title>
<g id="a_edge42_Node000025_Node000026"><a xlink:title=" ">
<path fill="none" stroke="#63b8ff" d="M1057.21,-169.84C1069.49,-161.74 1087.16,-150.08 1101.43,-140.67"/>
<polygon fill="#63b8ff" stroke="#63b8ff" points="1102.98,-143.84 1109.4,-135.41 1099.13,-138 1102.98,-143.84"/>
</a>
</g>
</g>
<!-- Node26&#45;&gt;Node2 -->
<g id="edge44_Node000026_Node000002" class="edge">
<title>Node26&#45;&gt;Node2</title>
<g id="a_edge44_Node000026_Node000002"><a xlink:title=" ">
<path fill="none" stroke="#63b8ff" d="M1128.6,-113.1C1132.58,-98.99 1137.36,-72.83 1124.38,-56.75 1104.83,-32.55 1017.6,-20.06 966.33,-14.7"/>
<polygon fill="#63b8ff" stroke="#63b8ff" points="966.85,-11.23 956.56,-13.72 966.16,-18.2 966.85,-11.23"/>
</a>
</g>
</g>
<!-- Node26&#45;&gt;Node5 -->
<g id="edge45_Node000026_Node000005" class="edge">
<title>Node26&#45;&gt;Node5</title>
<g id="a_edge45_Node000026_Node000005"><a xlink:title=" ">
<path fill="none" stroke="#63b8ff" d="M1088.98,-115.03C1042,-104.9 960.48,-87.33 911.67,-76.81"/>
<polygon fill="#63b8ff" stroke="#63b8ff" points="912.59,-73.43 902.07,-74.74 911.11,-80.27 912.59,-73.43"/>
</a>
</g>
</g>
<!-- Node27 -->
<g id="Node000027" class="node">
<title>Node27</title>
<g id="a_Node000027"><a xlink:title=" ">
<polygon fill="#e0e0e0" stroke="#999999" points="1223.75,-77.5 1171,-77.5 1171,-56.75 1223.75,-56.75 1223.75,-77.5"/>
<text text-anchor="middle" x="1197.38" y="-64" font-family="Helvetica,sans-Serif" font-size="10.00">string.h</text>
</a>
</g>
</g>
<!-- Node26&#45;&gt;Node27 -->
<g id="edge43_Node000026_Node000027" class="edge">
<title>Node26&#45;&gt;Node27</title>
<g id="a_edge43_Node000026_Node000027"><a xlink:title=" ">
<path fill="none" stroke="#63b8ff" d="M1138.25,-113.09C1148.59,-105.22 1163.34,-94 1175.53,-84.74"/>
<polygon fill="#63b8ff" stroke="#63b8ff" points="1177.57,-87.58 1183.41,-78.74 1173.33,-82.01 1177.57,-87.58"/>
</a>
</g>
</g>
<!-- Node28 -->
<g id="Node000028" class="node">
<title>Node28</title>
<g id="a_Node000028"><a xlink:href="unaligned_8h.html" target="_top" xlink:title="Unaligned but safe memory access functions.">
<polygon fill="white" stroke="#666666" points="1114.88,-77.5 1041.88,-77.5 1041.88,-56.75 1114.88,-56.75 1114.88,-77.5"/>
<text text-anchor="middle" x="1078.38" y="-64" font-family="Helvetica,sans-Serif" font-size="10.00">unaligned.h</text>
</a>
</g>
</g>
<!-- Node26&#45;&gt;Node28 -->
<g id="edge46_Node000026_Node000028" class="edge">
<title>Node26&#45;&gt;Node28</title>
<g id="a_edge46_Node000026_Node000028"><a xlink:title=" ">
<path fill="none" stroke="#63b8ff" d="M1116.97,-113.09C1110.62,-105.69 1101.72,-95.32 1094.07,-86.41"/>
<polygon fill="#63b8ff" stroke="#63b8ff" points="1096.86,-84.28 1087.69,-78.98 1091.55,-88.84 1096.86,-84.28"/>
</a>
</g>
</g>
<!-- Node28&#45;&gt;Node2 -->
<g id="edge47_Node000028_Node000002" class="edge">
<title>Node28&#45;&gt;Node2</title>
<g id="a_edge47_Node000028_Node000002"><a xlink:title=" ">
<path fill="none" stroke="#63b8ff" d="M1051.56,-56.34C1027.64,-47.61 992.37,-34.73 965.7,-25"/>
<polygon fill="#63b8ff" stroke="#63b8ff" points="967.23,-21.83 956.63,-21.69 964.83,-28.41 967.23,-21.83"/>
</a>
</g>
</g>
<!-- Node29&#45;&gt;Node2 -->
<g id="edge51_Node000029_Node000002" class="edge">
<title>Node29&#45;&gt;Node2</title>
<g id="a_edge51_Node000029_Node000002"><a xlink:title=" ">
<path fill="none" stroke="#63b8ff" d="M1166.79,-226.55C1181.07,-218.88 1199.05,-206.87 1209.38,-191 1242.4,-140.26 1271.89,-102.61 1232.38,-56.75 1198.47,-17.41 1040.35,-11.66 966.53,-11.17"/>
<polygon fill="#63b8ff" stroke="#63b8ff" points="966.54,-7.67 956.53,-11.13 966.52,-14.67 966.54,-7.67"/>
</a>
</g>
</g>
<!-- Node29&#45;&gt;Node17 -->
<g id="edge55_Node000029_Node000017" class="edge">
<title>Node29&#45;&gt;Node17</title>
<g id="a_edge55_Node000029_Node000017"><a xlink:title=" ">
<path fill="none" stroke="#63b8ff" d="M1139.37,-226.74C1129.88,-212.32 1110.05,-185.21 1086.38,-170.25 1052.77,-149.01 1008.84,-137.38 976.34,-131.23"/>
<polygon fill="#63b8ff" stroke="#63b8ff" points="977.3,-127.85 966.84,-129.54 976.07,-134.74 977.3,-127.85"/>
</a>
</g>
</g>
<!-- Node29&#45;&gt;Node25 -->
<g id="edge54_Node000029_Node000025" class="edge">
<title>Node29&#45;&gt;Node25</title>
<g id="a_edge54_Node000029_Node000025"><a xlink:title=" ">
<path fill="none" stroke="#63b8ff" d="M1126.96,-226.59C1111.29,-218.26 1088.53,-206.16 1070.56,-196.61"/>
<polygon fill="#63b8ff" stroke="#63b8ff" points="1072.44,-193.64 1061.97,-192.04 1069.15,-199.82 1072.44,-193.64"/>
</a>
</g>
</g>
<!-- Node29&#45;&gt;Node26 -->
<g id="edge53_Node000029_Node000026" class="edge">
<title>Node29&#45;&gt;Node26</title>
<g id="a_edge53_Node000029_Node000026"><a xlink:title=" ">
<path fill="none" stroke="#63b8ff" d="M1161.51,-226.68C1179.91,-214.3 1206.04,-191.88 1194.38,-170.25 1187.23,-157.01 1174.35,-147 1161.64,-139.79"/>
<polygon fill="#63b8ff" stroke="#63b8ff" points="1163.42,-136.78 1152.93,-135.3 1160.22,-143 1163.42,-136.78"/>
</a>
</g>
</g>
<!-- Node30 -->
<g id="Node000030" class="node">
<title>Node30</title>
<g id="a_Node000030"><a xlink:title=" ">
<polygon fill="#e0e0e0" stroke="#999999" points="1185.38,-191 1133.38,-191 1133.38,-170.25 1185.38,-170.25 1185.38,-191"/>
<text text-anchor="middle" x="1159.38" y="-177.5" font-family="Helvetica,sans-Serif" font-size="10.00">stdlib.h</text>
</a>
</g>
</g>
<!-- Node29&#45;&gt;Node30 -->
<g id="edge52_Node000029_Node000030" class="edge">
<title>Node29&#45;&gt;Node30</title>
<g id="a_edge52_Node000029_Node000030"><a xlink:title=" ">
<path fill="none" stroke="#63b8ff" d="M1147.88,-226.59C1149.59,-219.89 1151.92,-210.76 1154.04,-202.48"/>
<polygon fill="#63b8ff" stroke="#63b8ff" points="1157.43,-203.35 1156.52,-192.79 1150.65,-201.62 1157.43,-203.35"/>
</a>
</g>
</g>
<!-- Node31&#45;&gt;Node17 -->
<g id="edge58_Node000031_Node000017" class="edge">
<title>Node31&#45;&gt;Node17</title>
<g id="a_edge58_Node000031_Node000017"><a xlink:title=" ">
<path fill="none" stroke="#63b8ff" d="M810.14,-290.72C843.04,-286.35 883.68,-275.24 908.38,-247.75 933.67,-219.6 935.18,-172.78 933.57,-145.8"/>
<polygon fill="#63b8ff" stroke="#63b8ff" points="937.08,-145.81 932.77,-136.13 930.1,-146.38 937.08,-145.81"/>
</a>
</g>
</g>
<!-- Node32 -->
<g id="Node000032" class="node">
<title>Node32</title>
<g id="a_Node000032"><a xlink:href="inttypes_8h.html" target="_top" xlink:title="Adds include for missing inttype definitions.">
<polygon fill="white" stroke="#666666" points="789.75,-247.75 725,-247.75 725,-227 789.75,-227 789.75,-247.75"/>
<text text-anchor="middle" x="757.38" y="-234.25" font-family="Helvetica,sans-Serif" font-size="10.00">inttypes.h</text>
</a>
</g>
</g>
<!-- Node31&#45;&gt;Node32 -->
<g id="edge57_Node000031_Node000032" class="edge">
<title>Node31&#45;&gt;Node32</title>
<g id="a_edge57_Node000031_Node000032"><a xlink:title=" ">
<path fill="none" stroke="#63b8ff" d="M757.38,-283.34C757.38,-276.72 757.38,-267.72 757.38,-259.52"/>
<polygon fill="#63b8ff" stroke="#63b8ff" points="760.88,-259.59 757.38,-249.59 753.88,-259.59 760.88,-259.59"/>
</a>
</g>
</g>
<!-- Node33 -->
<g id="Node000033" class="node">
<title>Node33</title>
<g id="a_Node000033"><a xlink:href="ethertype_8h.html" target="_top" xlink:title="Ether type definitions.">
<polygon fill="white" stroke="#666666" points="898.88,-247.75 807.88,-247.75 807.88,-227 898.88,-227 898.88,-247.75"/>
<text text-anchor="middle" x="853.38" y="-234.25" font-family="Helvetica,sans-Serif" font-size="10.00">net/ethertype.h</text>
</a>
</g>
</g>
<!-- Node31&#45;&gt;Node33 -->
<g id="edge59_Node000031_Node000033" class="edge">
<title>Node31&#45;&gt;Node33</title>
<g id="a_edge59_Node000031_Node000033"><a xlink:title=" ">
<path fill="none" stroke="#63b8ff" d="M774.54,-283.34C789.01,-275.08 809.96,-263.13 826.63,-253.63"/>
<polygon fill="#63b8ff" stroke="#63b8ff" points="828.09,-256.82 835.05,-248.83 824.63,-250.74 828.09,-256.82"/>
</a>
</g>
</g>
<!-- Node34 -->
<g id="Node000034" class="node">
<title>Node34</title>
<g id="a_Node000034"><a xlink:href="protnum_8h.html" target="_top" xlink:title="Protocol number definitions.">
<polygon fill="white" stroke="#666666" points="706.88,-247.75 621.88,-247.75 621.88,-227 706.88,-227 706.88,-247.75"/>
<text text-anchor="middle" x="664.38" y="-234.25" font-family="Helvetica,sans-Serif" font-size="10.00">net/protnum.h</text>
</a>
</g>
</g>
<!-- Node31&#45;&gt;Node34 -->
<g id="edge60_Node000031_Node000034" class="edge">
<title>Node31&#45;&gt;Node34</title>
<g id="a_edge60_Node000031_Node000034"><a xlink:title=" ">
<path fill="none" stroke="#63b8ff" d="M740.75,-283.34C726.86,-275.16 706.81,-263.36 690.74,-253.9"/>
<polygon fill="#63b8ff" stroke="#63b8ff" points="692.56,-250.9 682.16,-248.85 689,-256.94 692.56,-250.9"/>
</a>
</g>
</g>
</g>
</svg>
