<?xml version="1.0" encoding="UTF-8" standalone="no"?>
<!DOCTYPE svg PUBLIC "-//W3C//DTD SVG 1.1//EN"
 "http://www.w3.org/Graphics/SVG/1.1/DTD/svg11.dtd">
<!-- Generated by graphviz version 12.1.2 (0)
 -->
<!-- Title: drivers/cc2420/include/cc2420_params.h Pages: 1 -->
<svg width="1231pt" height="496pt"
 viewBox="0.00 0.00 1231.38 495.50" xmlns="http://www.w3.org/2000/svg" xmlns:xlink="http://www.w3.org/1999/xlink">
<g id="graph0" class="graph" transform="scale(1 1) rotate(0) translate(4 491.5)">
<title>drivers/cc2420/include/cc2420_params.h</title>
<!-- Node1 -->
<g id="Node000001" class="node">
<title>Node1</title>
<g id="a_Node000001"><a xlink:title="Default configuration for the CC2420 driver.">
<polygon fill="#999999" stroke="#666666" points="501.12,-487.5 375.62,-487.5 375.62,-454 501.12,-454 501.12,-487.5"/>
<text text-anchor="start" x="383.62" y="-474" font-family="Helvetica,sans-Serif" font-size="10.00">drivers/cc2420/include</text>
<text text-anchor="middle" x="438.38" y="-461.25" font-family="Helvetica,sans-Serif" font-size="10.00">/cc2420_params.h</text>
</a>
</g>
</g>
<!-- Node2 -->
<g id="Node000002" class="node">
<title>Node2</title>
<g id="a_Node000002"><a xlink:title=" ">
<polygon fill="#e0e0e0" stroke="#999999" points="427.75,-418 375,-418 375,-397.25 427.75,-397.25 427.75,-418"/>
<text text-anchor="middle" x="401.38" y="-404.5" font-family="Helvetica,sans-Serif" font-size="10.00">board.h</text>
</a>
</g>
</g>
<!-- Node1&#45;&gt;Node2 -->
<g id="edge1_Node000001_Node000002" class="edge">
<title>Node1&#45;&gt;Node2</title>
<g id="a_edge1_Node000001_Node000002"><a xlink:title=" ">
<path fill="none" stroke="#63b8ff" d="M428.65,-453.69C423.9,-445.83 418.13,-436.31 413.13,-428.04"/>
<polygon fill="#63b8ff" stroke="#63b8ff" points="416.29,-426.5 408.12,-419.76 410.3,-430.13 416.29,-426.5"/>
</a>
</g>
</g>
<!-- Node3 -->
<g id="Node000003" class="node">
<title>Node3</title>
<g id="a_Node000003"><a xlink:href="cc2420_8h.html" target="_top" xlink:title="Interface definition for the CC2420 driver.">
<polygon fill="white" stroke="#666666" points="505.12,-418 445.62,-418 445.62,-397.25 505.12,-397.25 505.12,-418"/>
<text text-anchor="middle" x="475.38" y="-404.5" font-family="Helvetica,sans-Serif" font-size="10.00">cc2420.h</text>
</a>
</g>
</g>
<!-- Node1&#45;&gt;Node3 -->
<g id="edge2_Node000001_Node000003" class="edge">
<title>Node1&#45;&gt;Node3</title>
<g id="a_edge2_Node000001_Node000003"><a xlink:title=" ">
<path fill="none" stroke="#63b8ff" d="M448.1,-453.69C452.85,-445.83 458.62,-436.31 463.62,-428.04"/>
<polygon fill="#63b8ff" stroke="#63b8ff" points="466.45,-430.13 468.63,-419.76 460.46,-426.5 466.45,-430.13"/>
</a>
</g>
</g>
<!-- Node4 -->
<g id="Node000004" class="node">
<title>Node4</title>
<g id="a_Node000004"><a xlink:title=" ">
<polygon fill="#e0e0e0" stroke="#999999" points="838.75,-20.75 786,-20.75 786,0 838.75,0 838.75,-20.75"/>
<text text-anchor="middle" x="812.38" y="-7.25" font-family="Helvetica,sans-Serif" font-size="10.00">stdint.h</text>
</a>
</g>
</g>
<!-- Node3&#45;&gt;Node4 -->
<g id="edge3_Node000003_Node000004" class="edge">
<title>Node3&#45;&gt;Node4</title>
<g id="a_edge3_Node000003_Node000004"><a xlink:title=" ">
<path fill="none" stroke="#63b8ff" d="M505.62,-405.36C645.56,-399.14 1223.38,-368.98 1223.38,-295.12 1223.38,-295.12 1223.38,-295.12 1223.38,-122.88 1223.38,-76.75 1185.62,-75.28 1143.38,-56.75 1091.45,-33.96 925.73,-19.51 850.35,-13.96"/>
<polygon fill="#63b8ff" stroke="#63b8ff" points="850.8,-10.48 840.57,-13.25 850.29,-17.46 850.8,-10.48"/>
</a>
</g>
</g>
<!-- Node5 -->
<g id="Node000005" class="node">
<title>Node5</title>
<g id="a_Node000005"><a xlink:href="spi_8h.html" target="_top" xlink:title="Low&#45;level SPI peripheral driver interface definition.">
<polygon fill="white" stroke="#666666" points="339.88,-191 266.88,-191 266.88,-170.25 339.88,-170.25 339.88,-191"/>
<text text-anchor="middle" x="303.38" y="-177.5" font-family="Helvetica,sans-Serif" font-size="10.00">periph/spi.h</text>
</a>
</g>
</g>
<!-- Node3&#45;&gt;Node5 -->
<g id="edge4_Node000003_Node000005" class="edge">
<title>Node3&#45;&gt;Node5</title>
<g id="a_edge4_Node000003_Node000005"><a xlink:title=" ">
<path fill="none" stroke="#63b8ff" d="M467.98,-396.96C441.74,-362.63 352.74,-246.2 317.71,-200.38"/>
<polygon fill="#63b8ff" stroke="#63b8ff" points="320.51,-198.28 311.66,-192.46 314.95,-202.53 320.51,-198.28"/>
</a>
</g>
</g>
<!-- Node12 -->
<g id="Node000012" class="node">
<title>Node12</title>
<g id="a_Node000012"><a xlink:href="drivers_2include_2periph_2gpio_8h.html" target="_top" xlink:title="Low&#45;level GPIO peripheral driver interface definitions.">
<polygon fill="white" stroke="#666666" points="161.25,-134.25 81.5,-134.25 81.5,-113.5 161.25,-113.5 161.25,-134.25"/>
<text text-anchor="middle" x="121.38" y="-120.75" font-family="Helvetica,sans-Serif" font-size="10.00">periph/gpio.h</text>
</a>
</g>
</g>
<!-- Node3&#45;&gt;Node12 -->
<g id="edge17_Node000003_Node000012" class="edge">
<title>Node3&#45;&gt;Node12</title>
<g id="a_edge17_Node000003_Node000012"><a xlink:title=" ">
<path fill="none" stroke="#63b8ff" d="M445.19,-398.53C370.01,-377.94 180.38,-323.22 180.38,-295.12 180.38,-295.12 180.38,-295.12 180.38,-236.38 180.38,-200.1 155.68,-164.09 138.24,-143.19"/>
<polygon fill="#63b8ff" stroke="#63b8ff" points="141.05,-141.09 131.85,-135.84 135.77,-145.68 141.05,-141.09"/>
</a>
</g>
</g>
<!-- Node14 -->
<g id="Node000014" class="node">
<title>Node14</title>
<g id="a_Node000014"><a xlink:href="drivers_2include_2net_2netdev_8h.html" target="_top" xlink:title="Definitions low&#45;level network driver interface.">
<polygon fill="white" stroke="#666666" points="617.75,-247.75 541,-247.75 541,-227 617.75,-227 617.75,-247.75"/>
<text text-anchor="middle" x="579.38" y="-234.25" font-family="Helvetica,sans-Serif" font-size="10.00">net/netdev.h</text>
</a>
</g>
</g>
<!-- Node3&#45;&gt;Node14 -->
<g id="edge18_Node000003_Node000014" class="edge">
<title>Node3&#45;&gt;Node14</title>
<g id="a_edge18_Node000003_Node000014"><a xlink:title=" ">
<path fill="none" stroke="#63b8ff" d="M481.26,-397.1C497.85,-370.27 545.17,-293.71 567.47,-257.63"/>
<polygon fill="#63b8ff" stroke="#63b8ff" points="570.21,-259.85 572.5,-249.5 564.26,-256.17 570.21,-259.85"/>
</a>
</g>
</g>
<!-- Node23 -->
<g id="Node000023" class="node">
<title>Node23</title>
<g id="a_Node000023"><a xlink:href="drivers_2include_2net_2netdev_2ieee802154_8h.html" target="_top" xlink:title="Definitions for netdev common IEEE 802.15.4 code.">
<polygon fill="white" stroke="#666666" points="731.12,-361.25 593.62,-361.25 593.62,-340.5 731.12,-340.5 731.12,-361.25"/>
<text text-anchor="middle" x="662.38" y="-347.75" font-family="Helvetica,sans-Serif" font-size="10.00">net/netdev/ieee802154.h</text>
</a>
</g>
</g>
<!-- Node3&#45;&gt;Node23 -->
<g id="edge36_Node000003_Node000023" class="edge">
<title>Node3&#45;&gt;Node23</title>
<g id="a_edge36_Node000003_Node000023"><a xlink:title=" ">
<path fill="none" stroke="#63b8ff" d="M505.42,-397.83C535.88,-388.91 583.36,-375.01 618.13,-364.83"/>
<polygon fill="#63b8ff" stroke="#63b8ff" points="618.87,-368.26 627.48,-362.09 616.9,-361.54 618.87,-368.26"/>
</a>
</g>
</g>
<!-- Node5&#45;&gt;Node4 -->
<g id="edge10_Node000005_Node000004" class="edge">
<title>Node5&#45;&gt;Node4</title>
<g id="a_edge10_Node000005_Node000004"><a xlink:title=" ">
<path fill="none" stroke="#63b8ff" d="M301,-170.17C298.14,-156.45 295,-130.78 306.38,-113.5 338.16,-65.23 367.89,-72.94 423.38,-56.75 548.32,-20.3 703.91,-12.99 774.46,-11.62"/>
<polygon fill="#63b8ff" stroke="#63b8ff" points="774.37,-15.12 784.31,-11.46 774.26,-8.12 774.37,-15.12"/>
</a>
</g>
</g>
<!-- Node6 -->
<g id="Node000006" class="node">
<title>Node6</title>
<g id="a_Node000006"><a xlink:href="endian_8h.html" target="_top" xlink:title="libc header for endian conversion">
<polygon fill="white" stroke="#666666" points="813.38,-77.5 755.38,-77.5 755.38,-56.75 813.38,-56.75 813.38,-77.5"/>
<text text-anchor="middle" x="784.38" y="-64" font-family="Helvetica,sans-Serif" font-size="10.00">endian.h</text>
</a>
</g>
</g>
<!-- Node5&#45;&gt;Node6 -->
<g id="edge5_Node000005_Node000006" class="edge">
<title>Node5&#45;&gt;Node6</title>
<g id="a_edge5_Node000005_Node000006"><a xlink:title=" ">
<path fill="none" stroke="#63b8ff" d="M340.34,-174.57C351.58,-173.1 363.98,-171.54 375.38,-170.25 458.56,-160.84 681.08,-181.23 750.38,-134.25 765.89,-123.73 774.74,-103.88 779.5,-88.66"/>
<polygon fill="#63b8ff" stroke="#63b8ff" points="782.83,-89.74 782.09,-79.17 776.08,-87.9 782.83,-89.74"/>
</a>
</g>
</g>
<!-- Node7 -->
<g id="Node000007" class="node">
<title>Node7</title>
<g id="a_Node000007"><a xlink:href="errno_8h.html" target="_top" xlink:title=" ">
<polygon fill="white" stroke="#666666" points="499.62,-134.25 449.12,-134.25 449.12,-113.5 499.62,-113.5 499.62,-134.25"/>
<text text-anchor="middle" x="474.38" y="-120.75" font-family="Helvetica,sans-Serif" font-size="10.00">errno.h</text>
</a>
</g>
</g>
<!-- Node5&#45;&gt;Node7 -->
<g id="edge7_Node000005_Node000007" class="edge">
<title>Node5&#45;&gt;Node7</title>
<g id="a_edge7_Node000005_Node000007"><a xlink:title=" ">
<path fill="none" stroke="#63b8ff" d="M333.95,-169.84C363.12,-160.5 407.1,-146.42 438.05,-136.51"/>
<polygon fill="#63b8ff" stroke="#63b8ff" points="438.91,-139.91 447.37,-133.52 436.78,-133.24 438.91,-139.91"/>
</a>
</g>
</g>
<!-- Node8 -->
<g id="Node000008" class="node">
<title>Node8</title>
<g id="a_Node000008"><a xlink:title=" ">
<polygon fill="#e0e0e0" stroke="#999999" points="392.88,-134.25 331.88,-134.25 331.88,-113.5 392.88,-113.5 392.88,-134.25"/>
<text text-anchor="middle" x="362.38" y="-120.75" font-family="Helvetica,sans-Serif" font-size="10.00">stdbool.h</text>
</a>
</g>
</g>
<!-- Node5&#45;&gt;Node8 -->
<g id="edge8_Node000005_Node000008" class="edge">
<title>Node5&#45;&gt;Node8</title>
<g id="a_edge8_Node000005_Node000008"><a xlink:title=" ">
<path fill="none" stroke="#63b8ff" d="M313.92,-169.84C322.15,-162.21 333.77,-151.42 343.58,-142.32"/>
<polygon fill="#63b8ff" stroke="#63b8ff" points="345.86,-144.98 350.81,-135.61 341.1,-139.84 345.86,-144.98"/>
</a>
</g>
</g>
<!-- Node9 -->
<g id="Node000009" class="node">
<title>Node9</title>
<g id="a_Node000009"><a xlink:title=" ">
<polygon fill="#e0e0e0" stroke="#999999" points="504.88,-77.5 449.88,-77.5 449.88,-56.75 504.88,-56.75 504.88,-77.5"/>
<text text-anchor="middle" x="477.38" y="-64" font-family="Helvetica,sans-Serif" font-size="10.00">stddef.h</text>
</a>
</g>
</g>
<!-- Node5&#45;&gt;Node9 -->
<g id="edge9_Node000005_Node000009" class="edge">
<title>Node5&#45;&gt;Node9</title>
<g id="a_edge9_Node000005_Node000009"><a xlink:title=" ">
<path fill="none" stroke="#63b8ff" d="M303.38,-170.11C303.91,-155.83 307.04,-128.91 322.38,-113.5 353.03,-82.7 403.37,-72.56 438.33,-69.36"/>
<polygon fill="#63b8ff" stroke="#63b8ff" points="438.33,-72.87 448.04,-68.63 437.81,-65.89 438.33,-72.87"/>
</a>
</g>
</g>
<!-- Node10 -->
<g id="Node000010" class="node">
<title>Node10</title>
<g id="a_Node000010"><a xlink:title=" ">
<polygon fill="#e0e0e0" stroke="#999999" points="248.5,-77.5 170.25,-77.5 170.25,-56.75 248.5,-56.75 248.5,-77.5"/>
<text text-anchor="middle" x="209.38" y="-64" font-family="Helvetica,sans-Serif" font-size="10.00">periph_cpu.h</text>
</a>
</g>
</g>
<!-- Node5&#45;&gt;Node10 -->
<g id="edge11_Node000005_Node000010" class="edge">
<title>Node5&#45;&gt;Node10</title>
<g id="a_edge11_Node000005_Node000010"><a xlink:title=" ">
<path fill="none" stroke="#63b8ff" d="M290.48,-170.08C279.35,-161.47 263.24,-148.07 251.38,-134.25 238.93,-119.76 227.5,-101.26 219.71,-87.52"/>
<polygon fill="#63b8ff" stroke="#63b8ff" points="222.92,-86.09 215.03,-79.01 216.79,-89.46 222.92,-86.09"/>
</a>
</g>
</g>
<!-- Node11 -->
<g id="Node000011" class="node">
<title>Node11</title>
<g id="a_Node000011"><a xlink:title=" ">
<polygon fill="#e0e0e0" stroke="#999999" points="152,-77.5 70.75,-77.5 70.75,-56.75 152,-56.75 152,-77.5"/>
<text text-anchor="middle" x="111.38" y="-64" font-family="Helvetica,sans-Serif" font-size="10.00">periph_conf.h</text>
</a>
</g>
</g>
<!-- Node5&#45;&gt;Node11 -->
<g id="edge12_Node000005_Node000011" class="edge">
<title>Node5&#45;&gt;Node11</title>
<g id="a_edge12_Node000005_Node000011"><a xlink:title=" ">
<path fill="none" stroke="#63b8ff" d="M286.67,-169.93C253.34,-150.57 178.32,-107 138.08,-83.63"/>
<polygon fill="#63b8ff" stroke="#63b8ff" points="139.89,-80.64 129.48,-78.64 136.37,-86.69 139.89,-80.64"/>
</a>
</g>
</g>
<!-- Node5&#45;&gt;Node12 -->
<g id="edge13_Node000005_Node000012" class="edge">
<title>Node5&#45;&gt;Node12</title>
<g id="a_edge13_Node000005_Node000012"><a xlink:title=" ">
<path fill="none" stroke="#63b8ff" d="M270.84,-169.84C241.29,-160.95 197.5,-147.77 164.94,-137.98"/>
<polygon fill="#63b8ff" stroke="#63b8ff" points="165.97,-134.64 155.39,-135.11 163.95,-141.34 165.97,-134.64"/>
</a>
</g>
</g>
<!-- Node6&#45;&gt;Node4 -->
<g id="edge6_Node000006_Node000004" class="edge">
<title>Node6&#45;&gt;Node4</title>
<g id="a_edge6_Node000006_Node000004"><a xlink:title=" ">
<path fill="none" stroke="#63b8ff" d="M789.38,-56.34C792.96,-49.33 797.91,-39.66 802.3,-31.08"/>
<polygon fill="#63b8ff" stroke="#63b8ff" points="805.29,-32.92 806.72,-22.43 799.05,-29.74 805.29,-32.92"/>
</a>
</g>
</g>
<!-- Node12&#45;&gt;Node10 -->
<g id="edge15_Node000012_Node000010" class="edge">
<title>Node12&#45;&gt;Node10</title>
<g id="a_edge15_Node000012_Node000010"><a xlink:title=" ">
<path fill="none" stroke="#63b8ff" d="M137.11,-113.09C150.25,-104.91 169.22,-93.11 184.43,-83.65"/>
<polygon fill="#63b8ff" stroke="#63b8ff" points="185.85,-86.88 192.49,-78.63 182.15,-80.94 185.85,-86.88"/>
</a>
</g>
</g>
<!-- Node12&#45;&gt;Node11 -->
<g id="edge16_Node000012_Node000011" class="edge">
<title>Node12&#45;&gt;Node11</title>
<g id="a_edge16_Node000012_Node000011"><a xlink:title=" ">
<path fill="none" stroke="#63b8ff" d="M119.59,-113.09C118.36,-106.39 116.7,-97.26 115.18,-88.98"/>
<polygon fill="#63b8ff" stroke="#63b8ff" points="118.66,-88.53 113.42,-79.32 111.77,-89.78 118.66,-88.53"/>
</a>
</g>
</g>
<!-- Node13 -->
<g id="Node000013" class="node">
<title>Node13</title>
<g id="a_Node000013"><a xlink:title=" ">
<polygon fill="#e0e0e0" stroke="#999999" points="52.75,-77.5 0,-77.5 0,-56.75 52.75,-56.75 52.75,-77.5"/>
<text text-anchor="middle" x="26.38" y="-64" font-family="Helvetica,sans-Serif" font-size="10.00">limits.h</text>
</a>
</g>
</g>
<!-- Node12&#45;&gt;Node13 -->
<g id="edge14_Node000012_Node000013" class="edge">
<title>Node12&#45;&gt;Node13</title>
<g id="a_edge14_Node000012_Node000013"><a xlink:title=" ">
<path fill="none" stroke="#63b8ff" d="M104.39,-113.09C90.07,-104.83 69.33,-92.88 52.84,-83.38"/>
<polygon fill="#63b8ff" stroke="#63b8ff" points="54.94,-80.55 44.52,-78.58 51.44,-86.61 54.94,-80.55"/>
</a>
</g>
</g>
<!-- Node14&#45;&gt;Node4 -->
<g id="edge19_Node000014_Node000004" class="edge">
<title>Node14&#45;&gt;Node4</title>
<g id="a_edge19_Node000014_Node000004"><a xlink:title=" ">
<path fill="none" stroke="#63b8ff" d="M569.77,-226.55C562.08,-217.96 551.87,-204.74 547.38,-191 536.67,-158.26 532.12,-144.86 546.38,-113.5 584.91,-28.71 710.65,-13.4 774.47,-11.23"/>
<polygon fill="#63b8ff" stroke="#63b8ff" points="774.21,-14.74 784.12,-11 774.04,-7.74 774.21,-14.74"/>
</a>
</g>
</g>
<!-- Node14&#45;&gt;Node7 -->
<g id="edge20_Node000014_Node000007" class="edge">
<title>Node14&#45;&gt;Node7</title>
<g id="a_edge20_Node000014_Node000007"><a xlink:title=" ">
<path fill="none" stroke="#63b8ff" d="M560.96,-226.66C546.74,-218.52 527.22,-205.84 513.38,-191 500.61,-177.31 490.11,-158.74 483.23,-144.76"/>
<polygon fill="#63b8ff" stroke="#63b8ff" points="486.58,-143.66 479.17,-136.09 480.24,-146.63 486.58,-143.66"/>
</a>
</g>
</g>
<!-- Node15 -->
<g id="Node000015" class="node">
<title>Node15</title>
<g id="a_Node000015"><a xlink:href="iolist_8h.html" target="_top" xlink:title="iolist scatter / gather IO">
<polygon fill="white" stroke="#666666" points="604.88,-191 555.88,-191 555.88,-170.25 604.88,-170.25 604.88,-191"/>
<text text-anchor="middle" x="580.38" y="-177.5" font-family="Helvetica,sans-Serif" font-size="10.00">iolist.h</text>
</a>
</g>
</g>
<!-- Node14&#45;&gt;Node15 -->
<g id="edge21_Node000014_Node000015" class="edge">
<title>Node14&#45;&gt;Node15</title>
<g id="a_edge21_Node000014_Node000015"><a xlink:title=" ">
<path fill="none" stroke="#63b8ff" d="M579.55,-226.59C579.67,-219.97 579.84,-210.97 579.99,-202.77"/>
<polygon fill="#63b8ff" stroke="#63b8ff" points="583.49,-202.9 580.17,-192.84 576.49,-202.78 583.49,-202.9"/>
</a>
</g>
</g>
<!-- Node16 -->
<g id="Node000016" class="node">
<title>Node16</title>
<g id="a_Node000016"><a xlink:href="netopt_8h.html" target="_top" xlink:title="Definition of global configuration options.">
<polygon fill="white" stroke="#666666" points="460,-191 384.75,-191 384.75,-170.25 460,-170.25 460,-191"/>
<text text-anchor="middle" x="422.38" y="-177.5" font-family="Helvetica,sans-Serif" font-size="10.00">net/netopt.h</text>
</a>
</g>
</g>
<!-- Node14&#45;&gt;Node16 -->
<g id="edge22_Node000014_Node000016" class="edge">
<title>Node14&#45;&gt;Node16</title>
<g id="a_edge22_Node000014_Node000016"><a xlink:title=" ">
<path fill="none" stroke="#63b8ff" d="M551.31,-226.59C526.16,-217.82 489.03,-204.87 461.07,-195.12"/>
<polygon fill="#63b8ff" stroke="#63b8ff" points="462.49,-191.91 451.89,-191.92 460.18,-198.52 462.49,-191.91"/>
</a>
</g>
</g>
<!-- Node17 -->
<g id="Node000017" class="node">
<title>Node17</title>
<g id="a_Node000017"><a xlink:href="kernel__defines_8h.html" target="_top" xlink:title="Common macros and compiler attributes/pragmas configuration.">
<polygon fill="white" stroke="#666666" points="719.5,-191 623.25,-191 623.25,-170.25 719.5,-170.25 719.5,-191"/>
<text text-anchor="middle" x="671.38" y="-177.5" font-family="Helvetica,sans-Serif" font-size="10.00">kernel_defines.h</text>
</a>
</g>
</g>
<!-- Node14&#45;&gt;Node17 -->
<g id="edge25_Node000014_Node000017" class="edge">
<title>Node14&#45;&gt;Node17</title>
<g id="a_edge25_Node000014_Node000017"><a xlink:title=" ">
<path fill="none" stroke="#63b8ff" d="M595.82,-226.59C609.56,-218.41 629.39,-206.61 645.29,-197.15"/>
<polygon fill="#63b8ff" stroke="#63b8ff" points="646.97,-200.22 653.77,-192.1 643.39,-194.21 646.97,-200.22"/>
</a>
</g>
</g>
<!-- Node16&#45;&gt;Node4 -->
<g id="edge23_Node000016_Node000004" class="edge">
<title>Node16&#45;&gt;Node4</title>
<g id="a_edge23_Node000016_Node000004"><a xlink:title=" ">
<path fill="none" stroke="#63b8ff" d="M420.43,-169.93C416.4,-146.64 409.9,-87.24 441.38,-56.75 465.04,-33.82 684.73,-18.71 774.47,-13.45"/>
<polygon fill="#63b8ff" stroke="#63b8ff" points="774.45,-16.95 784.23,-12.89 774.04,-9.97 774.45,-16.95"/>
</a>
</g>
</g>
<!-- Node16&#45;&gt;Node8 -->
<g id="edge24_Node000016_Node000008" class="edge">
<title>Node16&#45;&gt;Node8</title>
<g id="a_edge24_Node000016_Node000008"><a xlink:title=" ">
<path fill="none" stroke="#63b8ff" d="M411.65,-169.84C403.29,-162.21 391.46,-151.42 381.49,-142.32"/>
<polygon fill="#63b8ff" stroke="#63b8ff" points="383.87,-139.75 374.13,-135.6 379.15,-144.92 383.87,-139.75"/>
</a>
</g>
</g>
<!-- Node18 -->
<g id="Node000018" class="node">
<title>Node18</title>
<g id="a_Node000018"><a xlink:href="modules_8h.html" target="_top" xlink:title="Common macros and compiler attributes/pragmas configuration.">
<polygon fill="white" stroke="#666666" points="964.88,-134.25 897.88,-134.25 897.88,-113.5 964.88,-113.5 964.88,-134.25"/>
<text text-anchor="middle" x="931.38" y="-120.75" font-family="Helvetica,sans-Serif" font-size="10.00">modules.h</text>
</a>
</g>
</g>
<!-- Node17&#45;&gt;Node18 -->
<g id="edge26_Node000017_Node000018" class="edge">
<title>Node17&#45;&gt;Node18</title>
<g id="a_edge26_Node000017_Node000018"><a xlink:title=" ">
<path fill="none" stroke="#63b8ff" d="M718.81,-169.83C760.38,-161.21 822.75,-148.23 886.5,-134.64"/>
<polygon fill="#63b8ff" stroke="#63b8ff" points="887.05,-138.1 896.1,-132.59 885.59,-131.25 887.05,-138.1"/>
</a>
</g>
</g>
<!-- Node19 -->
<g id="Node000019" class="node">
<title>Node19</title>
<g id="a_Node000019"><a xlink:href="riot__version_8h.html" target="_top" xlink:title="Common macros and compiler attributes/pragmas configuration.">
<polygon fill="white" stroke="#666666" points="879.75,-134.25 797,-134.25 797,-113.5 879.75,-113.5 879.75,-134.25"/>
<text text-anchor="middle" x="838.38" y="-120.75" font-family="Helvetica,sans-Serif" font-size="10.00">riot_version.h</text>
</a>
</g>
</g>
<!-- Node17&#45;&gt;Node19 -->
<g id="edge27_Node000017_Node000019" class="edge">
<title>Node17&#45;&gt;Node19</title>
<g id="a_edge27_Node000017_Node000019"><a xlink:title=" ">
<path fill="none" stroke="#63b8ff" d="M701.23,-169.84C728.1,-161.03 767.83,-148 797.61,-138.24"/>
<polygon fill="#63b8ff" stroke="#63b8ff" points="798.65,-141.58 807.06,-135.14 796.47,-134.93 798.65,-141.58"/>
</a>
</g>
</g>
<!-- Node20 -->
<g id="Node000020" class="node">
<title>Node20</title>
<g id="a_Node000020"><a xlink:href="compiler__hints_8h.html" target="_top" xlink:title="Common macros and compiler attributes/pragmas configuration.">
<polygon fill="white" stroke="#666666" points="740.88,-134.25 643.88,-134.25 643.88,-113.5 740.88,-113.5 740.88,-134.25"/>
<text text-anchor="middle" x="692.38" y="-120.75" font-family="Helvetica,sans-Serif" font-size="10.00">compiler_hints.h</text>
</a>
</g>
</g>
<!-- Node17&#45;&gt;Node20 -->
<g id="edge29_Node000017_Node000020" class="edge">
<title>Node17&#45;&gt;Node20</title>
<g id="a_edge29_Node000017_Node000020"><a xlink:title=" ">
<path fill="none" stroke="#63b8ff" d="M675.13,-169.84C677.76,-162.99 681.36,-153.59 684.6,-145.15"/>
<polygon fill="#63b8ff" stroke="#63b8ff" points="687.8,-146.58 688.11,-135.99 681.26,-144.07 687.8,-146.58"/>
</a>
</g>
</g>
<!-- Node22 -->
<g id="Node000022" class="node">
<title>Node22</title>
<g id="a_Node000022"><a xlink:href="container_8h.html" target="_top" xlink:title="Common macros and compiler attributes/pragmas configuration.">
<polygon fill="white" stroke="#666666" points="625.75,-134.25 555,-134.25 555,-113.5 625.75,-113.5 625.75,-134.25"/>
<text text-anchor="middle" x="590.38" y="-120.75" font-family="Helvetica,sans-Serif" font-size="10.00">container.h</text>
</a>
</g>
</g>
<!-- Node17&#45;&gt;Node22 -->
<g id="edge33_Node000017_Node000022" class="edge">
<title>Node17&#45;&gt;Node22</title>
<g id="a_edge33_Node000017_Node000022"><a xlink:title=" ">
<path fill="none" stroke="#63b8ff" d="M656.89,-169.84C645.03,-161.82 628,-150.31 614.14,-140.94"/>
<polygon fill="#63b8ff" stroke="#63b8ff" points="616.23,-138.13 605.98,-135.43 612.31,-143.93 616.23,-138.13"/>
</a>
</g>
</g>
<!-- Node19&#45;&gt;Node4 -->
<g id="edge28_Node000019_Node000004" class="edge">
<title>Node19&#45;&gt;Node4</title>
<g id="a_edge28_Node000019_Node000004"><a xlink:title=" ">
<path fill="none" stroke="#63b8ff" d="M836.16,-113.37C832,-95.52 822.92,-56.61 817.26,-32.34"/>
<polygon fill="#63b8ff" stroke="#63b8ff" points="820.68,-31.59 815,-22.65 813.87,-33.18 820.68,-31.59"/>
</a>
</g>
</g>
<!-- Node20&#45;&gt;Node4 -->
<g id="edge32_Node000020_Node000004" class="edge">
<title>Node20&#45;&gt;Node4</title>
<g id="a_edge32_Node000020_Node000004"><a xlink:title=" ">
<path fill="none" stroke="#63b8ff" d="M698.95,-113.18C708.44,-99.61 726.97,-74.62 746.38,-56.75 758.4,-45.68 773.3,-35.2 785.9,-27.12"/>
<polygon fill="#63b8ff" stroke="#63b8ff" points="787.5,-30.24 794.13,-21.98 783.79,-24.31 787.5,-30.24"/>
</a>
</g>
</g>
<!-- Node21 -->
<g id="Node000021" class="node">
<title>Node21</title>
<g id="a_Node000021"><a xlink:href="assert_8h.html" target="_top" xlink:title="POSIX.1&#45;2008 compliant version of the assert macro.">
<polygon fill="white" stroke="#666666" points="698.88,-77.5 643.88,-77.5 643.88,-56.75 698.88,-56.75 698.88,-77.5"/>
<text text-anchor="middle" x="671.38" y="-64" font-family="Helvetica,sans-Serif" font-size="10.00">assert.h</text>
</a>
</g>
</g>
<!-- Node20&#45;&gt;Node21 -->
<g id="edge30_Node000020_Node000021" class="edge">
<title>Node20&#45;&gt;Node21</title>
<g id="a_edge30_Node000020_Node000021"><a xlink:title=" ">
<path fill="none" stroke="#63b8ff" d="M688.62,-113.09C685.99,-106.24 682.39,-96.84 679.15,-88.4"/>
<polygon fill="#63b8ff" stroke="#63b8ff" points="682.49,-87.32 675.64,-79.24 675.95,-89.83 682.49,-87.32"/>
</a>
</g>
</g>
<!-- Node21&#45;&gt;Node4 -->
<g id="edge31_Node000021_Node000004" class="edge">
<title>Node21&#45;&gt;Node4</title>
<g id="a_edge31_Node000021_Node000004"><a xlink:title=" ">
<path fill="none" stroke="#63b8ff" d="M696.58,-56.34C718.94,-47.66 751.83,-34.88 776.85,-25.17"/>
<polygon fill="#63b8ff" stroke="#63b8ff" points="777.92,-28.51 785.97,-21.63 775.39,-21.98 777.92,-28.51"/>
</a>
</g>
</g>
<!-- Node22&#45;&gt;Node4 -->
<g id="edge35_Node000022_Node000004" class="edge">
<title>Node22&#45;&gt;Node4</title>
<g id="a_edge35_Node000022_Node000004"><a xlink:title=" ">
<path fill="none" stroke="#63b8ff" d="M594.3,-113.13C600.67,-98.57 614.69,-71.27 635.38,-56.75 677.14,-27.43 736.3,-17.04 774.51,-13.37"/>
<polygon fill="#63b8ff" stroke="#63b8ff" points="774.47,-16.88 784.14,-12.56 773.89,-9.91 774.47,-16.88"/>
</a>
</g>
</g>
<!-- Node22&#45;&gt;Node9 -->
<g id="edge34_Node000022_Node000009" class="edge">
<title>Node22&#45;&gt;Node9</title>
<g id="a_edge34_Node000022_Node000009"><a xlink:title=" ">
<path fill="none" stroke="#63b8ff" d="M570.17,-113.09C552.82,-104.68 527.54,-92.43 507.75,-82.84"/>
<polygon fill="#63b8ff" stroke="#63b8ff" points="509.29,-79.7 498.76,-78.49 506.24,-86 509.29,-79.7"/>
</a>
</g>
</g>
<!-- Node23&#45;&gt;Node14 -->
<g id="edge62_Node000023_Node000014" class="edge">
<title>Node23&#45;&gt;Node14</title>
<g id="a_edge62_Node000023_Node000014"><a xlink:title=" ">
<path fill="none" stroke="#63b8ff" d="M655.3,-340.37C641.65,-322.03 611.44,-281.45 593.52,-257.37"/>
<polygon fill="#63b8ff" stroke="#63b8ff" points="596.35,-255.32 587.57,-249.39 590.74,-259.5 596.35,-255.32"/>
</a>
</g>
</g>
<!-- Node23&#45;&gt;Node16 -->
<g id="edge61_Node000023_Node000016" class="edge">
<title>Node23&#45;&gt;Node16</title>
<g id="a_edge61_Node000023_Node000016"><a xlink:title=" ">
<path fill="none" stroke="#63b8ff" d="M648.43,-340.1C608.75,-312.28 494.87,-232.45 445.58,-197.89"/>
<polygon fill="#63b8ff" stroke="#63b8ff" points="447.79,-195.17 437.59,-192.29 443.77,-200.9 447.79,-195.17"/>
</a>
</g>
</g>
<!-- Node24 -->
<g id="Node000024" class="node">
<title>Node24</title>
<g id="a_Node000024"><a xlink:href="eui__provider_8h.html" target="_top" xlink:title="EUI&#45;48 and EUI&#45;64 address provider.">
<polygon fill="white" stroke="#666666" points="1039.62,-304.5 935.12,-304.5 935.12,-283.75 1039.62,-283.75 1039.62,-304.5"/>
<text text-anchor="middle" x="987.38" y="-291" font-family="Helvetica,sans-Serif" font-size="10.00">net/eui_provider.h</text>
</a>
</g>
</g>
<!-- Node23&#45;&gt;Node24 -->
<g id="edge37_Node000023_Node000024" class="edge">
<title>Node23&#45;&gt;Node24</title>
<g id="a_edge37_Node000023_Node000024"><a xlink:title=" ">
<path fill="none" stroke="#63b8ff" d="M720.85,-340.02C778.03,-330.39 864.83,-315.77 923.72,-305.85"/>
<polygon fill="#63b8ff" stroke="#63b8ff" points="923.97,-309.36 933.25,-304.24 922.8,-302.45 923.97,-309.36"/>
</a>
</g>
</g>
<!-- Node30 -->
<g id="Node000030" class="node">
<title>Node30</title>
<g id="a_Node000030"><a xlink:href="sys_2include_2net_2ieee802154_8h.html" target="_top" xlink:title="IEEE 802.15.4 header definitions.">
<polygon fill="white" stroke="#666666" points="1069.75,-247.75 969,-247.75 969,-227 1069.75,-227 1069.75,-247.75"/>
<text text-anchor="middle" x="1019.38" y="-234.25" font-family="Helvetica,sans-Serif" font-size="10.00">net/ieee802154.h</text>
</a>
</g>
</g>
<!-- Node23&#45;&gt;Node30 -->
<g id="edge50_Node000023_Node000030" class="edge">
<title>Node23&#45;&gt;Node30</title>
<g id="a_edge50_Node000023_Node000030"><a xlink:title=" ">
<path fill="none" stroke="#63b8ff" d="M693.74,-340.08C758.07,-319.99 904.97,-274.11 977.4,-251.48"/>
<polygon fill="#63b8ff" stroke="#63b8ff" points="978,-254.96 986.51,-248.64 975.92,-248.28 978,-254.96"/>
</a>
</g>
</g>
<!-- Node32 -->
<g id="Node000032" class="node">
<title>Node32</title>
<g id="a_Node000032"><a xlink:href="nettype_8h.html" target="_top" xlink:title="Protocol type definitions.">
<polygon fill="white" stroke="#666666" points="769,-304.5 663.75,-304.5 663.75,-283.75 769,-283.75 769,-304.5"/>
<text text-anchor="middle" x="716.38" y="-291" font-family="Helvetica,sans-Serif" font-size="10.00">net/gnrc/nettype.h</text>
</a>
</g>
</g>
<!-- Node23&#45;&gt;Node32 -->
<g id="edge56_Node000023_Node000032" class="edge">
<title>Node23&#45;&gt;Node32</title>
<g id="a_edge56_Node000023_Node000032"><a xlink:title=" ">
<path fill="none" stroke="#63b8ff" d="M672.03,-340.09C679.48,-332.53 689.98,-321.89 698.9,-312.85"/>
<polygon fill="#63b8ff" stroke="#63b8ff" points="701.21,-315.48 705.74,-305.91 696.23,-310.57 701.21,-315.48"/>
</a>
</g>
</g>
<!-- Node24&#45;&gt;Node14 -->
<g id="edge49_Node000024_Node000014" class="edge">
<title>Node24&#45;&gt;Node14</title>
<g id="a_edge49_Node000024_Node000014"><a xlink:title=" ">
<path fill="none" stroke="#63b8ff" d="M934.87,-286.08C855.75,-275.46 706.97,-255.5 629.36,-245.08"/>
<polygon fill="#63b8ff" stroke="#63b8ff" points="629.86,-241.62 619.49,-243.76 628.93,-248.56 629.86,-241.62"/>
</a>
</g>
</g>
<!-- Node25 -->
<g id="Node000025" class="node">
<title>Node25</title>
<g id="a_Node000025"><a xlink:href="eui48_8h.html" target="_top" xlink:title="Definition and IPv6 IID conversion for IEEE EUI&#45;48 identifiers.">
<polygon fill="white" stroke="#666666" points="1195.75,-247.75 1125,-247.75 1125,-227 1195.75,-227 1195.75,-247.75"/>
<text text-anchor="middle" x="1160.38" y="-234.25" font-family="Helvetica,sans-Serif" font-size="10.00">net/eui48.h</text>
</a>
</g>
</g>
<!-- Node24&#45;&gt;Node25 -->
<g id="edge38_Node000024_Node000025" class="edge">
<title>Node24&#45;&gt;Node25</title>
<g id="a_edge38_Node000024_Node000025"><a xlink:title=" ">
<path fill="none" stroke="#63b8ff" d="M1018.3,-283.34C1046.26,-274.49 1087.65,-261.39 1118.56,-251.61"/>
<polygon fill="#63b8ff" stroke="#63b8ff" points="1119.5,-254.98 1127.98,-248.63 1117.39,-248.31 1119.5,-254.98"/>
</a>
</g>
</g>
<!-- Node26 -->
<g id="Node000026" class="node">
<title>Node26</title>
<g id="a_Node000026"><a xlink:href="eui64_8h.html" target="_top" xlink:title="EUI&#45;64 data type definition.">
<polygon fill="white" stroke="#666666" points="1155.75,-191 1085,-191 1085,-170.25 1155.75,-170.25 1155.75,-191"/>
<text text-anchor="middle" x="1120.38" y="-177.5" font-family="Helvetica,sans-Serif" font-size="10.00">net/eui64.h</text>
</a>
</g>
</g>
<!-- Node24&#45;&gt;Node26 -->
<g id="edge48_Node000024_Node000026" class="edge">
<title>Node24&#45;&gt;Node26</title>
<g id="a_edge48_Node000024_Node000026"><a xlink:title=" ">
<path fill="none" stroke="#63b8ff" d="M1016.44,-283.33C1035.61,-275.8 1060.41,-263.95 1078.38,-247.75 1092.72,-234.81 1104.08,-215.88 1111.34,-201.58"/>
<polygon fill="#63b8ff" stroke="#63b8ff" points="1114.45,-203.21 1115.62,-192.68 1108.14,-200.18 1114.45,-203.21"/>
</a>
</g>
</g>
<!-- Node25&#45;&gt;Node4 -->
<g id="edge39_Node000025_Node000004" class="edge">
<title>Node25&#45;&gt;Node4</title>
<g id="a_edge39_Node000025_Node000004"><a xlink:title=" ">
<path fill="none" stroke="#63b8ff" d="M1161.48,-226.65C1162.47,-217.48 1163.83,-203.32 1164.38,-191 1167.15,-127.99 1167.95,-95.74 1118.38,-56.75 1077.39,-24.51 922.51,-15.07 850.11,-12.4"/>
<polygon fill="#63b8ff" stroke="#63b8ff" points="850.44,-8.9 840.33,-12.06 850.2,-15.9 850.44,-8.9"/>
</a>
</g>
</g>
<!-- Node25&#45;&gt;Node26 -->
<g id="edge40_Node000025_Node000026" class="edge">
<title>Node25&#45;&gt;Node26</title>
<g id="a_edge40_Node000025_Node000026"><a xlink:title=" ">
<path fill="none" stroke="#63b8ff" d="M1153.22,-226.59C1147.93,-219.35 1140.56,-209.26 1134.15,-200.47"/>
<polygon fill="#63b8ff" stroke="#63b8ff" points="1137.08,-198.56 1128.36,-192.55 1131.43,-202.69 1137.08,-198.56"/>
</a>
</g>
</g>
<!-- Node26&#45;&gt;Node4 -->
<g id="edge41_Node000026_Node000004" class="edge">
<title>Node26&#45;&gt;Node4</title>
<g id="a_edge41_Node000026_Node000004"><a xlink:title=" ">
<path fill="none" stroke="#63b8ff" d="M1121.89,-169.96C1124.91,-146.74 1128.95,-87.48 1097.38,-56.75 1062.84,-23.14 919.27,-14.42 850.04,-12.16"/>
<polygon fill="#63b8ff" stroke="#63b8ff" points="850.42,-8.67 840.32,-11.88 850.21,-15.67 850.42,-8.67"/>
</a>
</g>
</g>
<!-- Node27 -->
<g id="Node000027" class="node">
<title>Node27</title>
<g id="a_Node000027"><a xlink:href="byteorder_8h.html" target="_top" xlink:title="Functions to work with different byte orders.">
<polygon fill="white" stroke="#666666" points="1055.5,-134.25 983.25,-134.25 983.25,-113.5 1055.5,-113.5 1055.5,-134.25"/>
<text text-anchor="middle" x="1019.38" y="-120.75" font-family="Helvetica,sans-Serif" font-size="10.00">byteorder.h</text>
</a>
</g>
</g>
<!-- Node26&#45;&gt;Node27 -->
<g id="edge42_Node000026_Node000027" class="edge">
<title>Node26&#45;&gt;Node27</title>
<g id="a_edge42_Node000026_Node000027"><a xlink:title=" ">
<path fill="none" stroke="#63b8ff" d="M1102.32,-169.84C1086.95,-161.51 1064.63,-149.41 1047.02,-139.86"/>
<polygon fill="#63b8ff" stroke="#63b8ff" points="1049.07,-136.99 1038.61,-135.3 1045.73,-143.14 1049.07,-136.99"/>
</a>
</g>
</g>
<!-- Node27&#45;&gt;Node4 -->
<g id="edge44_Node000027_Node000004" class="edge">
<title>Node27&#45;&gt;Node4</title>
<g id="a_edge44_Node000027_Node000004"><a xlink:title=" ">
<path fill="none" stroke="#63b8ff" d="M1012.19,-113.37C1000.93,-99.1 977.79,-72.2 952.38,-56.75 920.57,-37.42 879.63,-25.4 850.25,-18.62"/>
<polygon fill="#63b8ff" stroke="#63b8ff" points="851.21,-15.25 840.69,-16.52 849.71,-22.09 851.21,-15.25"/>
</a>
</g>
</g>
<!-- Node27&#45;&gt;Node6 -->
<g id="edge45_Node000027_Node000006" class="edge">
<title>Node27&#45;&gt;Node6</title>
<g id="a_edge45_Node000027_Node000006"><a xlink:title=" ">
<path fill="none" stroke="#63b8ff" d="M982.91,-114.38C940.1,-104.41 869.3,-87.91 824.83,-77.55"/>
<polygon fill="#63b8ff" stroke="#63b8ff" points="825.86,-74.2 815.33,-75.34 824.27,-81.01 825.86,-74.2"/>
</a>
</g>
</g>
<!-- Node28 -->
<g id="Node000028" class="node">
<title>Node28</title>
<g id="a_Node000028"><a xlink:title=" ">
<polygon fill="#e0e0e0" stroke="#999999" points="1051.75,-77.5 999,-77.5 999,-56.75 1051.75,-56.75 1051.75,-77.5"/>
<text text-anchor="middle" x="1025.38" y="-64" font-family="Helvetica,sans-Serif" font-size="10.00">string.h</text>
</a>
</g>
</g>
<!-- Node27&#45;&gt;Node28 -->
<g id="edge43_Node000027_Node000028" class="edge">
<title>Node27&#45;&gt;Node28</title>
<g id="a_edge43_Node000027_Node000028"><a xlink:title=" ">
<path fill="none" stroke="#63b8ff" d="M1020.45,-113.09C1021.17,-106.47 1022.16,-97.47 1023.06,-89.27"/>
<polygon fill="#63b8ff" stroke="#63b8ff" points="1026.54,-89.65 1024.15,-79.33 1019.58,-88.89 1026.54,-89.65"/>
</a>
</g>
</g>
<!-- Node29 -->
<g id="Node000029" class="node">
<title>Node29</title>
<g id="a_Node000029"><a xlink:href="unaligned_8h.html" target="_top" xlink:title="Unaligned but safe memory access functions.">
<polygon fill="white" stroke="#666666" points="942.88,-77.5 869.88,-77.5 869.88,-56.75 942.88,-56.75 942.88,-77.5"/>
<text text-anchor="middle" x="906.38" y="-64" font-family="Helvetica,sans-Serif" font-size="10.00">unaligned.h</text>
</a>
</g>
</g>
<!-- Node27&#45;&gt;Node29 -->
<g id="edge46_Node000027_Node000029" class="edge">
<title>Node27&#45;&gt;Node29</title>
<g id="a_edge46_Node000027_Node000029"><a xlink:title=" ">
<path fill="none" stroke="#63b8ff" d="M999.17,-113.09C981.82,-104.68 956.54,-92.43 936.75,-82.84"/>
<polygon fill="#63b8ff" stroke="#63b8ff" points="938.29,-79.7 927.76,-78.49 935.24,-86 938.29,-79.7"/>
</a>
</g>
</g>
<!-- Node29&#45;&gt;Node4 -->
<g id="edge47_Node000029_Node000004" class="edge">
<title>Node29&#45;&gt;Node4</title>
<g id="a_edge47_Node000029_Node000004"><a xlink:title=" ">
<path fill="none" stroke="#63b8ff" d="M889.57,-56.34C875.4,-48.08 854.88,-36.13 838.56,-26.63"/>
<polygon fill="#63b8ff" stroke="#63b8ff" points="840.75,-23.85 830.34,-21.84 837.22,-29.9 840.75,-23.85"/>
</a>
</g>
</g>
<!-- Node30&#45;&gt;Node4 -->
<g id="edge51_Node000030_Node000004" class="edge">
<title>Node30&#45;&gt;Node4</title>
<g id="a_edge51_Node000030_Node000004"><a xlink:title=" ">
<path fill="none" stroke="#63b8ff" d="M1026.6,-226.76C1047.8,-197.3 1105.6,-107.28 1060.38,-56.75 1033.02,-26.19 912.79,-16.05 850.34,-12.82"/>
<polygon fill="#63b8ff" stroke="#63b8ff" points="850.7,-9.33 840.54,-12.35 850.36,-16.32 850.7,-9.33"/>
</a>
</g>
</g>
<!-- Node30&#45;&gt;Node18 -->
<g id="edge55_Node000030_Node000018" class="edge">
<title>Node30&#45;&gt;Node18</title>
<g id="a_edge55_Node000030_Node000018"><a xlink:title=" ">
<path fill="none" stroke="#63b8ff" d="M1011.87,-226.87C997.33,-208.45 965.09,-167.59 946.11,-143.55"/>
<polygon fill="#63b8ff" stroke="#63b8ff" points="948.99,-141.54 940.05,-135.86 943.5,-145.88 948.99,-141.54"/>
</a>
</g>
</g>
<!-- Node30&#45;&gt;Node26 -->
<g id="edge54_Node000030_Node000026" class="edge">
<title>Node30&#45;&gt;Node26</title>
<g id="a_edge54_Node000030_Node000026"><a xlink:title=" ">
<path fill="none" stroke="#63b8ff" d="M1037.43,-226.59C1052.8,-218.26 1075.12,-206.16 1092.73,-196.61"/>
<polygon fill="#63b8ff" stroke="#63b8ff" points="1094.02,-199.89 1101.14,-192.05 1090.68,-193.74 1094.02,-199.89"/>
</a>
</g>
</g>
<!-- Node30&#45;&gt;Node27 -->
<g id="edge53_Node000030_Node000027" class="edge">
<title>Node30&#45;&gt;Node27</title>
<g id="a_edge53_Node000030_Node000027"><a xlink:title=" ">
<path fill="none" stroke="#63b8ff" d="M1019.38,-226.87C1019.38,-209.1 1019.38,-170.47 1019.38,-146.18"/>
<polygon fill="#63b8ff" stroke="#63b8ff" points="1022.88,-146.19 1019.38,-136.19 1015.88,-146.19 1022.88,-146.19"/>
</a>
</g>
</g>
<!-- Node31 -->
<g id="Node000031" class="node">
<title>Node31</title>
<g id="a_Node000031"><a xlink:title=" ">
<polygon fill="#e0e0e0" stroke="#999999" points="953.38,-191 901.38,-191 901.38,-170.25 953.38,-170.25 953.38,-191"/>
<text text-anchor="middle" x="927.38" y="-177.5" font-family="Helvetica,sans-Serif" font-size="10.00">stdlib.h</text>
</a>
</g>
</g>
<!-- Node30&#45;&gt;Node31 -->
<g id="edge52_Node000030_Node000031" class="edge">
<title>Node30&#45;&gt;Node31</title>
<g id="a_edge52_Node000030_Node000031"><a xlink:title=" ">
<path fill="none" stroke="#63b8ff" d="M1002.93,-226.59C989.19,-218.41 969.36,-206.61 953.46,-197.15"/>
<polygon fill="#63b8ff" stroke="#63b8ff" points="955.36,-194.21 944.98,-192.1 951.78,-200.22 955.36,-194.21"/>
</a>
</g>
</g>
<!-- Node32&#45;&gt;Node18 -->
<g id="edge58_Node000032_Node000018" class="edge">
<title>Node32&#45;&gt;Node18</title>
<g id="a_edge58_Node000032_Node000018"><a xlink:title=" ">
<path fill="none" stroke="#63b8ff" d="M699.29,-283.3C679.45,-270.6 651.17,-247.67 665.38,-227 678.62,-207.72 817.48,-161.19 889.12,-138.19"/>
<polygon fill="#63b8ff" stroke="#63b8ff" points="890.11,-141.55 898.57,-135.17 887.98,-134.88 890.11,-141.55"/>
</a>
</g>
</g>
<!-- Node33 -->
<g id="Node000033" class="node">
<title>Node33</title>
<g id="a_Node000033"><a xlink:href="inttypes_8h.html" target="_top" xlink:title="Adds include for missing inttype definitions.">
<polygon fill="white" stroke="#666666" points="841.75,-247.75 777,-247.75 777,-227 841.75,-227 841.75,-247.75"/>
<text text-anchor="middle" x="809.38" y="-234.25" font-family="Helvetica,sans-Serif" font-size="10.00">inttypes.h</text>
</a>
</g>
</g>
<!-- Node32&#45;&gt;Node33 -->
<g id="edge57_Node000032_Node000033" class="edge">
<title>Node32&#45;&gt;Node33</title>
<g id="a_edge57_Node000032_Node000033"><a xlink:title=" ">
<path fill="none" stroke="#63b8ff" d="M733,-283.34C746.89,-275.16 766.94,-263.36 783.01,-253.9"/>
<polygon fill="#63b8ff" stroke="#63b8ff" points="784.75,-256.94 791.59,-248.85 781.19,-250.9 784.75,-256.94"/>
</a>
</g>
</g>
<!-- Node34 -->
<g id="Node000034" class="node">
<title>Node34</title>
<g id="a_Node000034"><a xlink:href="ethertype_8h.html" target="_top" xlink:title="Ether type definitions.">
<polygon fill="white" stroke="#666666" points="950.88,-247.75 859.88,-247.75 859.88,-227 950.88,-227 950.88,-247.75"/>
<text text-anchor="middle" x="905.38" y="-234.25" font-family="Helvetica,sans-Serif" font-size="10.00">net/ethertype.h</text>
</a>
</g>
</g>
<!-- Node32&#45;&gt;Node34 -->
<g id="edge59_Node000032_Node000034" class="edge">
<title>Node32&#45;&gt;Node34</title>
<g id="a_edge59_Node000032_Node000034"><a xlink:title=" ">
<path fill="none" stroke="#63b8ff" d="M750.16,-283.34C780.98,-274.41 826.72,-261.16 860.57,-251.35"/>
<polygon fill="#63b8ff" stroke="#63b8ff" points="861.48,-254.74 870.11,-248.59 859.53,-248.01 861.48,-254.74"/>
</a>
</g>
</g>
<!-- Node35 -->
<g id="Node000035" class="node">
<title>Node35</title>
<g id="a_Node000035"><a xlink:href="protnum_8h.html" target="_top" xlink:title="Protocol number definitions.">
<polygon fill="white" stroke="#666666" points="758.88,-247.75 673.88,-247.75 673.88,-227 758.88,-227 758.88,-247.75"/>
<text text-anchor="middle" x="716.38" y="-234.25" font-family="Helvetica,sans-Serif" font-size="10.00">net/protnum.h</text>
</a>
</g>
</g>
<!-- Node32&#45;&gt;Node35 -->
<g id="edge60_Node000032_Node000035" class="edge">
<title>Node32&#45;&gt;Node35</title>
<g id="a_edge60_Node000032_Node000035"><a xlink:title=" ">
<path fill="none" stroke="#63b8ff" d="M716.38,-283.34C716.38,-276.72 716.38,-267.72 716.38,-259.52"/>
<polygon fill="#63b8ff" stroke="#63b8ff" points="719.88,-259.59 716.38,-249.59 712.88,-259.59 719.88,-259.59"/>
</a>
</g>
</g>
</g>
</svg>
