<?xml version="1.0" encoding="UTF-8" standalone="no"?>
<!DOCTYPE svg PUBLIC "-//W3C//DTD SVG 1.1//EN"
 "http://www.w3.org/Graphics/SVG/1.1/DTD/svg11.dtd">
<!-- Generated by graphviz version 12.1.2 (0)
 -->
<!-- Title: cpu/cc2538/include/cc2538_rf.h Pages: 1 -->
<svg width="949pt" height="325pt"
 viewBox="0.00 0.00 949.00 325.25" xmlns="http://www.w3.org/2000/svg" xmlns:xlink="http://www.w3.org/1999/xlink">
<g id="graph0" class="graph" transform="scale(1 1) rotate(0) translate(4 321.25)">
<title>cpu/cc2538/include/cc2538_rf.h</title>
<!-- Node1 -->
<g id="Node000001" class="node">
<title>Node1</title>
<g id="a_Node000001"><a xlink:title="Low&#45;level radio driver for the CC2538.">
<polygon fill="#999999" stroke="#666666" points="279.12,-317.25 170.12,-317.25 170.12,-283.75 279.12,-283.75 279.12,-317.25"/>
<text text-anchor="start" x="178.12" y="-303.75" font-family="Helvetica,sans-Serif" font-size="10.00">cpu/cc2538/include</text>
<text text-anchor="middle" x="224.62" y="-291" font-family="Helvetica,sans-Serif" font-size="10.00">/cc2538_rf.h</text>
</a>
</g>
</g>
<!-- Node2 -->
<g id="Node000002" class="node">
<title>Node2</title>
<g id="a_Node000002"><a xlink:title=" ">
<polygon fill="#e0e0e0" stroke="#999999" points="222.12,-191 161.12,-191 161.12,-170.25 222.12,-170.25 222.12,-191"/>
<text text-anchor="middle" x="191.62" y="-177.5" font-family="Helvetica,sans-Serif" font-size="10.00">stdbool.h</text>
</a>
</g>
</g>
<!-- Node1&#45;&gt;Node2 -->
<g id="edge1_Node000001_Node000002" class="edge">
<title>Node1&#45;&gt;Node2</title>
<g id="a_edge1_Node000001_Node000002"><a xlink:title=" ">
<path fill="none" stroke="#63b8ff" d="M220.17,-283.6C214.3,-262.62 203.94,-225.62 197.45,-202.43"/>
<polygon fill="#63b8ff" stroke="#63b8ff" points="200.85,-201.58 194.78,-192.89 194.1,-203.46 200.85,-201.58"/>
</a>
</g>
</g>
<!-- Node3 -->
<g id="Node000003" class="node">
<title>Node3</title>
<g id="a_Node000003"><a xlink:title=" ">
<polygon fill="#e0e0e0" stroke="#999999" points="164,-247.75 111.25,-247.75 111.25,-227 164,-227 164,-247.75"/>
<text text-anchor="middle" x="137.62" y="-234.25" font-family="Helvetica,sans-Serif" font-size="10.00">board.h</text>
</a>
</g>
</g>
<!-- Node1&#45;&gt;Node3 -->
<g id="edge2_Node000001_Node000003" class="edge">
<title>Node1&#45;&gt;Node3</title>
<g id="a_edge2_Node000001_Node000003"><a xlink:title=" ">
<path fill="none" stroke="#63b8ff" d="M201.77,-283.44C189.21,-274.62 173.67,-263.7 161.04,-254.82"/>
<polygon fill="#63b8ff" stroke="#63b8ff" points="163.07,-251.97 152.87,-249.09 159.04,-257.7 163.07,-251.97"/>
</a>
</g>
</g>
<!-- Node4 -->
<g id="Node000004" class="node">
<title>Node4</title>
<g id="a_Node000004"><a xlink:href="cc2538__rfcore_8h.html" target="_top" xlink:title="CC2538 RF core interface.">
<polygon fill="white" stroke="#666666" points="93.25,-247.75 0,-247.75 0,-227 93.25,-227 93.25,-247.75"/>
<text text-anchor="middle" x="46.62" y="-234.25" font-family="Helvetica,sans-Serif" font-size="10.00">cc2538_rfcore.h</text>
</a>
</g>
</g>
<!-- Node1&#45;&gt;Node4 -->
<g id="edge3_Node000001_Node000004" class="edge">
<title>Node1&#45;&gt;Node4</title>
<g id="a_edge3_Node000001_Node000004"><a xlink:title=" ">
<path fill="none" stroke="#63b8ff" d="M177.39,-283.28C148.79,-273.46 112.74,-261.08 85.74,-251.81"/>
<polygon fill="#63b8ff" stroke="#63b8ff" points="87.16,-248.59 76.57,-248.66 84.89,-255.21 87.16,-248.59"/>
</a>
</g>
</g>
<!-- Node7 -->
<g id="Node000007" class="node">
<title>Node7</title>
<g id="a_Node000007"><a xlink:href="sys_2include_2net_2ieee802154_8h.html" target="_top" xlink:title="IEEE 802.15.4 header definitions.">
<polygon fill="white" stroke="#666666" points="559,-247.75 458.25,-247.75 458.25,-227 559,-227 559,-247.75"/>
<text text-anchor="middle" x="508.62" y="-234.25" font-family="Helvetica,sans-Serif" font-size="10.00">net/ieee802154.h</text>
</a>
</g>
</g>
<!-- Node1&#45;&gt;Node7 -->
<g id="edge6_Node000001_Node000007" class="edge">
<title>Node1&#45;&gt;Node7</title>
<g id="a_edge6_Node000001_Node000007"><a xlink:title=" ">
<path fill="none" stroke="#63b8ff" d="M279.38,-287.71C328.98,-277.04 401.77,-261.37 451.96,-250.57"/>
<polygon fill="#63b8ff" stroke="#63b8ff" points="452.42,-254.05 461.46,-248.53 450.94,-247.21 452.42,-254.05"/>
</a>
</g>
</g>
<!-- Node16 -->
<g id="Node000016" class="node">
<title>Node16</title>
<g id="a_Node000016"><a xlink:href="kernel__defines_8h.html" target="_top" xlink:title="Common macros and compiler attributes/pragmas configuration.">
<polygon fill="white" stroke="#666666" points="774.75,-191 678.5,-191 678.5,-170.25 774.75,-170.25 774.75,-191"/>
<text text-anchor="middle" x="726.62" y="-177.5" font-family="Helvetica,sans-Serif" font-size="10.00">kernel_defines.h</text>
</a>
</g>
</g>
<!-- Node1&#45;&gt;Node16 -->
<g id="edge20_Node000001_Node000016" class="edge">
<title>Node1&#45;&gt;Node16</title>
<g id="a_edge20_Node000001_Node000016"><a xlink:title=" ">
<path fill="none" stroke="#63b8ff" d="M279.55,-295.37C348.01,-289.29 468.14,-275.49 567.62,-247.75 614.51,-234.68 666.07,-211.49 697.39,-196.34"/>
<polygon fill="#63b8ff" stroke="#63b8ff" points="698.79,-199.55 706.23,-192.01 695.71,-193.26 698.79,-199.55"/>
</a>
</g>
</g>
<!-- Node22 -->
<g id="Node000022" class="node">
<title>Node22</title>
<g id="a_Node000022"><a xlink:href="netopt_8h.html" target="_top" xlink:title="Definition of global configuration options.">
<polygon fill="white" stroke="#666666" points="295.25,-247.75 220,-247.75 220,-227 295.25,-227 295.25,-247.75"/>
<text text-anchor="middle" x="257.62" y="-234.25" font-family="Helvetica,sans-Serif" font-size="10.00">net/netopt.h</text>
</a>
</g>
</g>
<!-- Node1&#45;&gt;Node22 -->
<g id="edge31_Node000001_Node000022" class="edge">
<title>Node1&#45;&gt;Node22</title>
<g id="a_edge31_Node000001_Node000022"><a xlink:title=" ">
<path fill="none" stroke="#63b8ff" d="M233.3,-283.44C237.44,-275.76 242.45,-266.48 246.84,-258.34"/>
<polygon fill="#63b8ff" stroke="#63b8ff" points="249.92,-260.01 251.59,-249.55 243.76,-256.69 249.92,-260.01"/>
</a>
</g>
</g>
<!-- Node5 -->
<g id="Node000005" class="node">
<title>Node5</title>
<g id="a_Node000005"><a xlink:href="cc2538_8h.html" target="_top" xlink:title="CC2538 MCU interrupt and register definitions.">
<polygon fill="white" stroke="#666666" points="76.38,-191 16.88,-191 16.88,-170.25 76.38,-170.25 76.38,-191"/>
<text text-anchor="middle" x="46.62" y="-177.5" font-family="Helvetica,sans-Serif" font-size="10.00">cc2538.h</text>
</a>
</g>
</g>
<!-- Node4&#45;&gt;Node5 -->
<g id="edge4_Node000004_Node000005" class="edge">
<title>Node4&#45;&gt;Node5</title>
<g id="a_edge4_Node000004_Node000005"><a xlink:title=" ">
<path fill="none" stroke="#63b8ff" d="M46.62,-226.59C46.62,-219.97 46.62,-210.97 46.62,-202.77"/>
<polygon fill="#63b8ff" stroke="#63b8ff" points="50.13,-202.84 46.63,-192.84 43.13,-202.84 50.13,-202.84"/>
</a>
</g>
</g>
<!-- Node6 -->
<g id="Node000006" class="node">
<title>Node6</title>
<g id="a_Node000006"><a xlink:title=" ">
<polygon fill="#e0e0e0" stroke="#999999" points="82.75,-134.25 10.5,-134.25 10.5,-113.5 82.75,-113.5 82.75,-134.25"/>
<text text-anchor="middle" x="46.62" y="-120.75" font-family="Helvetica,sans-Serif" font-size="10.00">core_cm3.h</text>
</a>
</g>
</g>
<!-- Node5&#45;&gt;Node6 -->
<g id="edge5_Node000005_Node000006" class="edge">
<title>Node5&#45;&gt;Node6</title>
<g id="a_edge5_Node000005_Node000006"><a xlink:title=" ">
<path fill="none" stroke="#63b8ff" d="M46.62,-169.84C46.62,-163.22 46.62,-154.22 46.62,-146.02"/>
<polygon fill="#63b8ff" stroke="#63b8ff" points="50.13,-146.09 46.63,-136.09 43.13,-146.09 50.13,-146.09"/>
</a>
</g>
</g>
<!-- Node8 -->
<g id="Node000008" class="node">
<title>Node8</title>
<g id="a_Node000008"><a xlink:title=" ">
<polygon fill="#e0e0e0" stroke="#999999" points="610,-20.75 557.25,-20.75 557.25,0 610,0 610,-20.75"/>
<text text-anchor="middle" x="583.62" y="-7.25" font-family="Helvetica,sans-Serif" font-size="10.00">stdint.h</text>
</a>
</g>
</g>
<!-- Node7&#45;&gt;Node8 -->
<g id="edge7_Node000007_Node000008" class="edge">
<title>Node7&#45;&gt;Node8</title>
<g id="a_edge7_Node000007_Node000008"><a xlink:title=" ">
<path fill="none" stroke="#63b8ff" d="M538.57,-226.58C555.02,-219.49 573.98,-208.1 583.62,-191 612.39,-139.97 598.94,-67.11 589.74,-31.94"/>
<polygon fill="#63b8ff" stroke="#63b8ff" points="593.2,-31.32 587.15,-22.62 586.46,-33.19 593.2,-31.32"/>
</a>
</g>
</g>
<!-- Node9 -->
<g id="Node000009" class="node">
<title>Node9</title>
<g id="a_Node000009"><a xlink:title=" ">
<polygon fill="#e0e0e0" stroke="#999999" points="574.62,-191 522.62,-191 522.62,-170.25 574.62,-170.25 574.62,-191"/>
<text text-anchor="middle" x="548.62" y="-177.5" font-family="Helvetica,sans-Serif" font-size="10.00">stdlib.h</text>
</a>
</g>
</g>
<!-- Node7&#45;&gt;Node9 -->
<g id="edge8_Node000007_Node000009" class="edge">
<title>Node7&#45;&gt;Node9</title>
<g id="a_edge8_Node000007_Node000009"><a xlink:title=" ">
<path fill="none" stroke="#63b8ff" d="M515.78,-226.59C521.07,-219.35 528.44,-209.26 534.85,-200.47"/>
<polygon fill="#63b8ff" stroke="#63b8ff" points="537.57,-202.69 540.64,-192.55 531.92,-198.56 537.57,-202.69"/>
</a>
</g>
</g>
<!-- Node10 -->
<g id="Node000010" class="node">
<title>Node10</title>
<g id="a_Node000010"><a xlink:href="byteorder_8h.html" target="_top" xlink:title="Functions to work with different byte orders.">
<polygon fill="white" stroke="#666666" points="473.75,-134.25 401.5,-134.25 401.5,-113.5 473.75,-113.5 473.75,-134.25"/>
<text text-anchor="middle" x="437.62" y="-120.75" font-family="Helvetica,sans-Serif" font-size="10.00">byteorder.h</text>
</a>
</g>
</g>
<!-- Node7&#45;&gt;Node10 -->
<g id="edge9_Node000007_Node000010" class="edge">
<title>Node7&#45;&gt;Node10</title>
<g id="a_edge9_Node000007_Node000010"><a xlink:title=" ">
<path fill="none" stroke="#63b8ff" d="M473.46,-226.6C455.81,-219.71 436.01,-208.52 425.62,-191 417.35,-177.04 421.61,-158.74 427.22,-144.93"/>
<polygon fill="#63b8ff" stroke="#63b8ff" points="430.35,-146.49 431.38,-135.95 424,-143.55 430.35,-146.49"/>
</a>
</g>
</g>
<!-- Node14 -->
<g id="Node000014" class="node">
<title>Node14</title>
<g id="a_Node000014"><a xlink:href="eui64_8h.html" target="_top" xlink:title="EUI&#45;64 data type definition.">
<polygon fill="white" stroke="#666666" points="505,-191 434.25,-191 434.25,-170.25 505,-170.25 505,-191"/>
<text text-anchor="middle" x="469.62" y="-177.5" font-family="Helvetica,sans-Serif" font-size="10.00">net/eui64.h</text>
</a>
</g>
</g>
<!-- Node7&#45;&gt;Node14 -->
<g id="edge16_Node000007_Node000014" class="edge">
<title>Node7&#45;&gt;Node14</title>
<g id="a_edge16_Node000007_Node000014"><a xlink:title=" ">
<path fill="none" stroke="#63b8ff" d="M501.65,-226.59C496.49,-219.35 489.31,-209.26 483.05,-200.47"/>
<polygon fill="#63b8ff" stroke="#63b8ff" points="486.07,-198.68 477.42,-192.56 480.37,-202.74 486.07,-198.68"/>
</a>
</g>
</g>
<!-- Node15 -->
<g id="Node000015" class="node">
<title>Node15</title>
<g id="a_Node000015"><a xlink:href="modules_8h.html" target="_top" xlink:title="Common macros and compiler attributes/pragmas configuration.">
<polygon fill="white" stroke="#666666" points="698.12,-134.25 631.12,-134.25 631.12,-113.5 698.12,-113.5 698.12,-134.25"/>
<text text-anchor="middle" x="664.62" y="-120.75" font-family="Helvetica,sans-Serif" font-size="10.00">modules.h</text>
</a>
</g>
</g>
<!-- Node7&#45;&gt;Node15 -->
<g id="edge19_Node000007_Node000015" class="edge">
<title>Node7&#45;&gt;Node15</title>
<g id="a_edge19_Node000007_Node000015"><a xlink:title=" ">
<path fill="none" stroke="#63b8ff" d="M545.04,-226.57C567.32,-219.31 595.51,-207.74 616.62,-191 632.57,-178.36 645.72,-159.12 654.19,-144.65"/>
<polygon fill="#63b8ff" stroke="#63b8ff" points="657.19,-146.47 659,-136.03 651.08,-143.06 657.19,-146.47"/>
</a>
</g>
</g>
<!-- Node10&#45;&gt;Node8 -->
<g id="edge11_Node000010_Node000008" class="edge">
<title>Node10&#45;&gt;Node8</title>
<g id="a_edge11_Node000010_Node000008"><a xlink:title=" ">
<path fill="none" stroke="#63b8ff" d="M454.19,-113.05C468.66,-104.26 490.04,-90.74 507.62,-77.5 528.22,-61.99 550.29,-42.42 565.32,-28.6"/>
<polygon fill="#63b8ff" stroke="#63b8ff" points="567.63,-31.23 572.57,-21.86 562.86,-26.1 567.63,-31.23"/>
</a>
</g>
</g>
<!-- Node11 -->
<g id="Node000011" class="node">
<title>Node11</title>
<g id="a_Node000011"><a xlink:title=" ">
<polygon fill="#e0e0e0" stroke="#999999" points="499,-77.5 446.25,-77.5 446.25,-56.75 499,-56.75 499,-77.5"/>
<text text-anchor="middle" x="472.62" y="-64" font-family="Helvetica,sans-Serif" font-size="10.00">string.h</text>
</a>
</g>
</g>
<!-- Node10&#45;&gt;Node11 -->
<g id="edge10_Node000010_Node000011" class="edge">
<title>Node10&#45;&gt;Node11</title>
<g id="a_edge10_Node000010_Node000011"><a xlink:title=" ">
<path fill="none" stroke="#63b8ff" d="M443.88,-113.09C448.46,-105.92 454.82,-95.98 460.39,-87.26"/>
<polygon fill="#63b8ff" stroke="#63b8ff" points="463.17,-89.41 465.61,-79.1 457.27,-85.64 463.17,-89.41"/>
</a>
</g>
</g>
<!-- Node12 -->
<g id="Node000012" class="node">
<title>Node12</title>
<g id="a_Node000012"><a xlink:href="endian_8h.html" target="_top" xlink:title="libc header for endian conversion">
<polygon fill="white" stroke="#666666" points="336.62,-77.5 278.62,-77.5 278.62,-56.75 336.62,-56.75 336.62,-77.5"/>
<text text-anchor="middle" x="307.62" y="-64" font-family="Helvetica,sans-Serif" font-size="10.00">endian.h</text>
</a>
</g>
</g>
<!-- Node10&#45;&gt;Node12 -->
<g id="edge12_Node000010_Node000012" class="edge">
<title>Node10&#45;&gt;Node12</title>
<g id="a_edge12_Node000010_Node000012"><a xlink:title=" ">
<path fill="none" stroke="#63b8ff" d="M414.38,-113.09C393.96,-104.48 363.99,-91.86 341,-82.18"/>
<polygon fill="#63b8ff" stroke="#63b8ff" points="342.63,-79.07 332.06,-78.42 339.92,-85.52 342.63,-79.07"/>
</a>
</g>
</g>
<!-- Node13 -->
<g id="Node000013" class="node">
<title>Node13</title>
<g id="a_Node000013"><a xlink:href="unaligned_8h.html" target="_top" xlink:title="Unaligned but safe memory access functions.">
<polygon fill="white" stroke="#666666" points="428.12,-77.5 355.12,-77.5 355.12,-56.75 428.12,-56.75 428.12,-77.5"/>
<text text-anchor="middle" x="391.62" y="-64" font-family="Helvetica,sans-Serif" font-size="10.00">unaligned.h</text>
</a>
</g>
</g>
<!-- Node10&#45;&gt;Node13 -->
<g id="edge14_Node000010_Node000013" class="edge">
<title>Node10&#45;&gt;Node13</title>
<g id="a_edge14_Node000010_Node000013"><a xlink:title=" ">
<path fill="none" stroke="#63b8ff" d="M429.4,-113.09C423.19,-105.69 414.48,-95.32 406.99,-86.41"/>
<polygon fill="#63b8ff" stroke="#63b8ff" points="409.86,-84.39 400.75,-78.99 404.5,-88.9 409.86,-84.39"/>
</a>
</g>
</g>
<!-- Node12&#45;&gt;Node8 -->
<g id="edge13_Node000012_Node000008" class="edge">
<title>Node12&#45;&gt;Node8</title>
<g id="a_edge13_Node000012_Node000008"><a xlink:title=" ">
<path fill="none" stroke="#63b8ff" d="M336.98,-58.91C340.23,-58.16 343.49,-57.43 346.62,-56.75 416.65,-41.64 498.88,-26.47 545.76,-18.06"/>
<polygon fill="#63b8ff" stroke="#63b8ff" points="546.17,-21.54 555.4,-16.34 544.94,-14.65 546.17,-21.54"/>
</a>
</g>
</g>
<!-- Node13&#45;&gt;Node8 -->
<g id="edge15_Node000013_Node000008" class="edge">
<title>Node13&#45;&gt;Node8</title>
<g id="a_edge15_Node000013_Node000008"><a xlink:title=" ">
<path fill="none" stroke="#63b8ff" d="M425.95,-56.34C459.82,-46.68 511.45,-31.95 546.32,-22.01"/>
<polygon fill="#63b8ff" stroke="#63b8ff" points="546.9,-25.49 555.55,-19.38 544.98,-18.76 546.9,-25.49"/>
</a>
</g>
</g>
<!-- Node14&#45;&gt;Node8 -->
<g id="edge17_Node000014_Node000008" class="edge">
<title>Node14&#45;&gt;Node8</title>
<g id="a_edge17_Node000014_Node000008"><a xlink:title=" ">
<path fill="none" stroke="#63b8ff" d="M476.08,-170.1C494.26,-143.27 546.13,-66.71 570.58,-30.63"/>
<polygon fill="#63b8ff" stroke="#63b8ff" points="573.4,-32.71 576.11,-22.47 567.6,-28.79 573.4,-32.71"/>
</a>
</g>
</g>
<!-- Node14&#45;&gt;Node10 -->
<g id="edge18_Node000014_Node000010" class="edge">
<title>Node14&#45;&gt;Node10</title>
<g id="a_edge18_Node000014_Node000010"><a xlink:title=" ">
<path fill="none" stroke="#63b8ff" d="M463.9,-169.84C459.76,-162.75 454.03,-152.94 448.97,-144.29"/>
<polygon fill="#63b8ff" stroke="#63b8ff" points="452.13,-142.75 444.06,-135.89 446.08,-146.28 452.13,-142.75"/>
</a>
</g>
</g>
<!-- Node16&#45;&gt;Node15 -->
<g id="edge21_Node000016_Node000015" class="edge">
<title>Node16&#45;&gt;Node15</title>
<g id="a_edge21_Node000016_Node000015"><a xlink:title=" ">
<path fill="none" stroke="#63b8ff" d="M715.54,-169.84C706.81,-162.13 694.43,-151.2 684.06,-142.04"/>
<polygon fill="#63b8ff" stroke="#63b8ff" points="686.56,-139.58 676.75,-135.58 681.93,-144.82 686.56,-139.58"/>
</a>
</g>
</g>
<!-- Node17 -->
<g id="Node000017" class="node">
<title>Node17</title>
<g id="a_Node000017"><a xlink:href="riot__version_8h.html" target="_top" xlink:title="Common macros and compiler attributes/pragmas configuration.">
<polygon fill="white" stroke="#666666" points="713,-77.5 630.25,-77.5 630.25,-56.75 713,-56.75 713,-77.5"/>
<text text-anchor="middle" x="671.62" y="-64" font-family="Helvetica,sans-Serif" font-size="10.00">riot_version.h</text>
</a>
</g>
</g>
<!-- Node16&#45;&gt;Node17 -->
<g id="edge22_Node000016_Node000017" class="edge">
<title>Node16&#45;&gt;Node17</title>
<g id="a_edge22_Node000016_Node000017"><a xlink:title=" ">
<path fill="none" stroke="#63b8ff" d="M725.04,-169.76C722.62,-156.44 717.24,-132.19 707.62,-113.5 702.6,-103.73 695.31,-94.04 688.6,-86.13"/>
<polygon fill="#63b8ff" stroke="#63b8ff" points="691.43,-84.05 682.17,-78.91 686.2,-88.7 691.43,-84.05"/>
</a>
</g>
</g>
<!-- Node18 -->
<g id="Node000018" class="node">
<title>Node18</title>
<g id="a_Node000018"><a xlink:href="compiler__hints_8h.html" target="_top" xlink:title="Common macros and compiler attributes/pragmas configuration.">
<polygon fill="white" stroke="#666666" points="852.12,-134.25 755.12,-134.25 755.12,-113.5 852.12,-113.5 852.12,-134.25"/>
<text text-anchor="middle" x="803.62" y="-120.75" font-family="Helvetica,sans-Serif" font-size="10.00">compiler_hints.h</text>
</a>
</g>
</g>
<!-- Node16&#45;&gt;Node18 -->
<g id="edge24_Node000016_Node000018" class="edge">
<title>Node16&#45;&gt;Node18</title>
<g id="a_edge24_Node000016_Node000018"><a xlink:title=" ">
<path fill="none" stroke="#63b8ff" d="M740.39,-169.84C751.56,-161.9 767.54,-150.53 780.65,-141.21"/>
<polygon fill="#63b8ff" stroke="#63b8ff" points="782.62,-144.1 788.74,-135.46 778.57,-138.4 782.62,-144.1"/>
</a>
</g>
</g>
<!-- Node20 -->
<g id="Node000020" class="node">
<title>Node20</title>
<g id="a_Node000020"><a xlink:href="container_8h.html" target="_top" xlink:title="Common macros and compiler attributes/pragmas configuration.">
<polygon fill="white" stroke="#666666" points="941,-134.25 870.25,-134.25 870.25,-113.5 941,-113.5 941,-134.25"/>
<text text-anchor="middle" x="905.62" y="-120.75" font-family="Helvetica,sans-Serif" font-size="10.00">container.h</text>
</a>
</g>
</g>
<!-- Node16&#45;&gt;Node20 -->
<g id="edge28_Node000016_Node000020" class="edge">
<title>Node16&#45;&gt;Node20</title>
<g id="a_edge28_Node000016_Node000020"><a xlink:title=" ">
<path fill="none" stroke="#63b8ff" d="M758.63,-169.84C787.68,-160.95 830.76,-147.77 862.78,-137.98"/>
<polygon fill="#63b8ff" stroke="#63b8ff" points="863.61,-141.39 872.15,-135.11 861.57,-134.69 863.61,-141.39"/>
</a>
</g>
</g>
<!-- Node17&#45;&gt;Node8 -->
<g id="edge23_Node000017_Node000008" class="edge">
<title>Node17&#45;&gt;Node8</title>
<g id="a_edge23_Node000017_Node000008"><a xlink:title=" ">
<path fill="none" stroke="#63b8ff" d="M655.89,-56.34C642.75,-48.16 623.78,-36.36 608.57,-26.9"/>
<polygon fill="#63b8ff" stroke="#63b8ff" points="610.85,-24.19 600.51,-21.88 607.15,-30.13 610.85,-24.19"/>
</a>
</g>
</g>
<!-- Node18&#45;&gt;Node8 -->
<g id="edge27_Node000018_Node000008" class="edge">
<title>Node18&#45;&gt;Node8</title>
<g id="a_edge27_Node000018_Node000008"><a xlink:title=" ">
<path fill="none" stroke="#63b8ff" d="M793.88,-113.01C779.33,-98.78 750.54,-72.48 721.62,-56.75 689.79,-39.43 650.21,-27.26 621.61,-19.91"/>
<polygon fill="#63b8ff" stroke="#63b8ff" points="622.49,-16.52 611.94,-17.51 620.8,-23.32 622.49,-16.52"/>
</a>
</g>
</g>
<!-- Node19 -->
<g id="Node000019" class="node">
<title>Node19</title>
<g id="a_Node000019"><a xlink:href="assert_8h.html" target="_top" xlink:title="POSIX.1&#45;2008 compliant version of the assert macro.">
<polygon fill="white" stroke="#666666" points="824.12,-77.5 769.12,-77.5 769.12,-56.75 824.12,-56.75 824.12,-77.5"/>
<text text-anchor="middle" x="796.62" y="-64" font-family="Helvetica,sans-Serif" font-size="10.00">assert.h</text>
</a>
</g>
</g>
<!-- Node18&#45;&gt;Node19 -->
<g id="edge25_Node000018_Node000019" class="edge">
<title>Node18&#45;&gt;Node19</title>
<g id="a_edge25_Node000018_Node000019"><a xlink:title=" ">
<path fill="none" stroke="#63b8ff" d="M802.37,-113.09C801.52,-106.39 800.35,-97.26 799.29,-88.98"/>
<polygon fill="#63b8ff" stroke="#63b8ff" points="802.8,-88.81 798.06,-79.33 795.85,-89.69 802.8,-88.81"/>
</a>
</g>
</g>
<!-- Node19&#45;&gt;Node8 -->
<g id="edge26_Node000019_Node000008" class="edge">
<title>Node19&#45;&gt;Node8</title>
<g id="a_edge26_Node000019_Node000008"><a xlink:title=" ">
<path fill="none" stroke="#63b8ff" d="M768.78,-58.97C731.08,-49.28 663.66,-31.95 621.41,-21.09"/>
<polygon fill="#63b8ff" stroke="#63b8ff" points="622.49,-17.75 611.94,-18.65 620.75,-24.53 622.49,-17.75"/>
</a>
</g>
</g>
<!-- Node20&#45;&gt;Node8 -->
<g id="edge30_Node000020_Node000008" class="edge">
<title>Node20&#45;&gt;Node8</title>
<g id="a_edge30_Node000020_Node000008"><a xlink:title=" ">
<path fill="none" stroke="#63b8ff" d="M898.38,-113.42C886.55,-98.73 861.59,-70.65 833.62,-56.75 764.32,-22.31 672.6,-13.76 621.73,-11.8"/>
<polygon fill="#63b8ff" stroke="#63b8ff" points="621.93,-8.3 611.83,-11.49 621.71,-15.3 621.93,-8.3"/>
</a>
</g>
</g>
<!-- Node21 -->
<g id="Node000021" class="node">
<title>Node21</title>
<g id="a_Node000021"><a xlink:title=" ">
<polygon fill="#e0e0e0" stroke="#999999" points="936.12,-77.5 881.12,-77.5 881.12,-56.75 936.12,-56.75 936.12,-77.5"/>
<text text-anchor="middle" x="908.62" y="-64" font-family="Helvetica,sans-Serif" font-size="10.00">stddef.h</text>
</a>
</g>
</g>
<!-- Node20&#45;&gt;Node21 -->
<g id="edge29_Node000020_Node000021" class="edge">
<title>Node20&#45;&gt;Node21</title>
<g id="a_edge29_Node000020_Node000021"><a xlink:title=" ">
<path fill="none" stroke="#63b8ff" d="M906.16,-113.09C906.52,-106.47 907.02,-97.47 907.47,-89.27"/>
<polygon fill="#63b8ff" stroke="#63b8ff" points="910.96,-89.52 908.01,-79.34 903.97,-89.13 910.96,-89.52"/>
</a>
</g>
</g>
<!-- Node22&#45;&gt;Node2 -->
<g id="edge33_Node000022_Node000002" class="edge">
<title>Node22&#45;&gt;Node2</title>
<g id="a_edge33_Node000022_Node000002"><a xlink:title=" ">
<path fill="none" stroke="#63b8ff" d="M245.83,-226.59C236.44,-218.8 223.09,-207.72 211.98,-198.51"/>
<polygon fill="#63b8ff" stroke="#63b8ff" points="214.42,-195.99 204.49,-192.29 209.95,-201.37 214.42,-195.99"/>
</a>
</g>
</g>
<!-- Node22&#45;&gt;Node8 -->
<g id="edge32_Node000022_Node000008" class="edge">
<title>Node22&#45;&gt;Node8</title>
<g id="a_edge32_Node000022_Node000008"><a xlink:title=" ">
<path fill="none" stroke="#63b8ff" d="M254.58,-226.59C245.92,-196.65 224.61,-105.37 269.62,-56.75 306.21,-17.24 470.1,-11.61 545.48,-11.16"/>
<polygon fill="#63b8ff" stroke="#63b8ff" points="545.28,-14.66 555.27,-11.13 545.26,-7.66 545.28,-14.66"/>
</a>
</g>
</g>
</g>
</svg>
