<?xml version="1.0" encoding="UTF-8" standalone="no"?>
<!DOCTYPE svg PUBLIC "-//W3C//DTD SVG 1.1//EN"
 "http://www.w3.org/Graphics/SVG/1.1/DTD/svg11.dtd">
<!-- Generated by graphviz version 12.1.2 (0)
 -->
<!-- Title: sys/cpp11&#45;compat/include/riot/chrono.hpp Pages: 1 -->
<svg width="1284pt" height="666pt"
 viewBox="0.00 0.00 1283.50 665.75" xmlns="http://www.w3.org/2000/svg" xmlns:xlink="http://www.w3.org/1999/xlink">
<g id="graph0" class="graph" transform="scale(1 1) rotate(0) translate(4 661.75)">
<title>sys/cpp11&#45;compat/include/riot/chrono.hpp</title>
<!-- Node1 -->
<g id="Node000001" class="node">
<title>Node1</title>
<g id="a_Node000001"><a xlink:title="C++11 chrono drop in replacement that adds the function now based on ztimer/timex.">
<polygon fill="#999999" stroke="#666666" points="200.25,-657.75 56.75,-657.75 56.75,-624.25 200.25,-624.25 200.25,-657.75"/>
<text text-anchor="start" x="64.75" y="-644.25" font-family="Helvetica,sans-Serif" font-size="10.00">sys/cpp11&#45;compat/include</text>
<text text-anchor="middle" x="128.5" y="-631.5" font-family="Helvetica,sans-Serif" font-size="10.00">/riot/chrono.hpp</text>
</a>
</g>
</g>
<!-- Node2 -->
<g id="Node000002" class="node">
<title>Node2</title>
<g id="a_Node000002"><a xlink:title=" ">
<polygon fill="#e0e0e0" stroke="#999999" points="49,-588.25 0,-588.25 0,-567.5 49,-567.5 49,-588.25"/>
<text text-anchor="middle" x="24.5" y="-574.75" font-family="Helvetica,sans-Serif" font-size="10.00">chrono</text>
</a>
</g>
</g>
<!-- Node1&#45;&gt;Node2 -->
<g id="edge1_Node000001_Node000002" class="edge">
<title>Node1&#45;&gt;Node2</title>
<g id="a_edge1_Node000001_Node000002"><a xlink:title=" ">
<path fill="none" stroke="#63b8ff" d="M100.9,-623.78C85.45,-614.7 66.29,-603.43 51.01,-594.46"/>
<polygon fill="#63b8ff" stroke="#63b8ff" points="52.86,-591.48 42.46,-589.43 49.31,-597.52 52.86,-591.48"/>
</a>
</g>
</g>
<!-- Node3 -->
<g id="Node000003" class="node">
<title>Node3</title>
<g id="a_Node000003"><a xlink:title=" ">
<polygon fill="#e0e0e0" stroke="#999999" points="130.12,-588.25 66.88,-588.25 66.88,-567.5 130.12,-567.5 130.12,-588.25"/>
<text text-anchor="middle" x="98.5" y="-574.75" font-family="Helvetica,sans-Serif" font-size="10.00">algorithm</text>
</a>
</g>
</g>
<!-- Node1&#45;&gt;Node3 -->
<g id="edge2_Node000001_Node000003" class="edge">
<title>Node1&#45;&gt;Node3</title>
<g id="a_edge2_Node000001_Node000003"><a xlink:title=" ">
<path fill="none" stroke="#63b8ff" d="M120.62,-623.94C116.85,-616.26 112.29,-606.98 108.3,-598.84"/>
<polygon fill="#63b8ff" stroke="#63b8ff" points="111.55,-597.51 104,-590.08 105.26,-600.59 111.55,-597.51"/>
</a>
</g>
</g>
<!-- Node4 -->
<g id="Node000004" class="node">
<title>Node4</title>
<g id="a_Node000004"><a xlink:href="timex_8h.html" target="_top" xlink:title="Utility library for comparing and computing timestamps.">
<polygon fill="white" stroke="#666666" points="176.25,-247.75 122.75,-247.75 122.75,-227 176.25,-227 176.25,-247.75"/>
<text text-anchor="middle" x="149.5" y="-234.25" font-family="Helvetica,sans-Serif" font-size="10.00">timex.h</text>
</a>
</g>
</g>
<!-- Node1&#45;&gt;Node4 -->
<g id="edge3_Node000001_Node000004" class="edge">
<title>Node1&#45;&gt;Node4</title>
<g id="a_edge3_Node000001_Node000004"><a xlink:title=" ">
<path fill="none" stroke="#63b8ff" d="M135.31,-623.93C144.16,-601.54 158.5,-559.5 158.5,-522.12 158.5,-522.12 158.5,-522.12 158.5,-349.88 158.5,-318.23 154.85,-281.7 152.2,-259.32"/>
<polygon fill="#63b8ff" stroke="#63b8ff" points="155.71,-259.19 151.01,-249.7 148.77,-260.05 155.71,-259.19"/>
</a>
</g>
</g>
<!-- Node8 -->
<g id="Node000008" class="node">
<title>Node8</title>
<g id="a_Node000008"><a xlink:href="ztimer64_8h.html" target="_top" xlink:title="ztimer 64bit API">
<polygon fill="white" stroke="#666666" points="772.75,-588.25 704.25,-588.25 704.25,-567.5 772.75,-567.5 772.75,-588.25"/>
<text text-anchor="middle" x="738.5" y="-574.75" font-family="Helvetica,sans-Serif" font-size="10.00">ztimer64.h</text>
</a>
</g>
</g>
<!-- Node1&#45;&gt;Node8 -->
<g id="edge7_Node000001_Node000008" class="edge">
<title>Node1&#45;&gt;Node8</title>
<g id="a_edge7_Node000001_Node000008"><a xlink:title=" ">
<path fill="none" stroke="#63b8ff" d="M200.57,-632.78C327.59,-620.05 587.8,-593.98 692.93,-583.44"/>
<polygon fill="#63b8ff" stroke="#63b8ff" points="692.98,-586.95 702.58,-582.47 692.28,-579.99 692.98,-586.95"/>
</a>
</g>
</g>
<!-- Node5 -->
<g id="Node000005" class="node">
<title>Node5</title>
<g id="a_Node000005"><a xlink:title=" ">
<polygon fill="#e0e0e0" stroke="#999999" points="656.88,-20.75 604.12,-20.75 604.12,0 656.88,0 656.88,-20.75"/>
<text text-anchor="middle" x="630.5" y="-7.25" font-family="Helvetica,sans-Serif" font-size="10.00">stdint.h</text>
</a>
</g>
</g>
<!-- Node4&#45;&gt;Node5 -->
<g id="edge4_Node000004_Node000005" class="edge">
<title>Node4&#45;&gt;Node5</title>
<g id="a_edge4_Node000004_Node000005"><a xlink:title=" ">
<path fill="none" stroke="#63b8ff" d="M150.26,-226.74C153.12,-192.82 164.51,-79.75 190.5,-56.75 220.34,-30.34 491.04,-16.93 592.41,-12.8"/>
<polygon fill="#63b8ff" stroke="#63b8ff" points="592.54,-16.29 602.39,-12.4 592.26,-9.3 592.54,-16.29"/>
</a>
</g>
</g>
<!-- Node6 -->
<g id="Node000006" class="node">
<title>Node6</title>
<g id="a_Node000006"><a xlink:href="inttypes_8h.html" target="_top" xlink:title="Adds include for missing inttype definitions.">
<polygon fill="white" stroke="#666666" points="296.88,-191 232.12,-191 232.12,-170.25 296.88,-170.25 296.88,-191"/>
<text text-anchor="middle" x="264.5" y="-177.5" font-family="Helvetica,sans-Serif" font-size="10.00">inttypes.h</text>
</a>
</g>
</g>
<!-- Node4&#45;&gt;Node6 -->
<g id="edge5_Node000004_Node000006" class="edge">
<title>Node4&#45;&gt;Node6</title>
<g id="a_edge5_Node000004_Node000006"><a xlink:title=" ">
<path fill="none" stroke="#63b8ff" d="M170.06,-226.59C187.8,-218.14 213.68,-205.82 233.87,-196.21"/>
<polygon fill="#63b8ff" stroke="#63b8ff" points="235.23,-199.44 242.75,-191.98 232.22,-193.12 235.23,-199.44"/>
</a>
</g>
</g>
<!-- Node7 -->
<g id="Node000007" class="node">
<title>Node7</title>
<g id="a_Node000007"><a xlink:href="time__units_8h.html" target="_top" xlink:title="Utility header providing time unit defines.">
<polygon fill="white" stroke="#666666" points="138.88,-191 62.12,-191 62.12,-170.25 138.88,-170.25 138.88,-191"/>
<text text-anchor="middle" x="100.5" y="-177.5" font-family="Helvetica,sans-Serif" font-size="10.00">time_units.h</text>
</a>
</g>
</g>
<!-- Node4&#45;&gt;Node7 -->
<g id="edge6_Node000004_Node000007" class="edge">
<title>Node4&#45;&gt;Node7</title>
<g id="a_edge6_Node000004_Node000007"><a xlink:title=" ">
<path fill="none" stroke="#63b8ff" d="M140.74,-226.59C134.05,-219.11 124.65,-208.61 116.61,-199.63"/>
<polygon fill="#63b8ff" stroke="#63b8ff" points="119.47,-197.57 110.19,-192.46 114.25,-202.24 119.47,-197.57"/>
</a>
</g>
</g>
<!-- Node8&#45;&gt;Node5 -->
<g id="edge8_Node000008_Node000005" class="edge">
<title>Node8&#45;&gt;Node5</title>
<g id="a_edge8_Node000008_Node000005"><a xlink:title=" ">
<path fill="none" stroke="#63b8ff" d="M772.91,-577.09C891.43,-576.93 1275.5,-568.45 1275.5,-465.38 1275.5,-465.38 1275.5,-465.38 1275.5,-122.88 1275.5,-78.77 1242.05,-74.1 1201.5,-56.75 1105.13,-15.52 780.25,-11.42 668.57,-11.26"/>
<polygon fill="#63b8ff" stroke="#63b8ff" points="668.75,-7.76 658.75,-11.26 668.75,-14.76 668.75,-7.76"/>
</a>
</g>
</g>
<!-- Node9 -->
<g id="Node000009" class="node">
<title>Node9</title>
<g id="a_Node000009"><a xlink:href="irq_8h.html" target="_top" xlink:title="IRQ driver interface.">
<polygon fill="white" stroke="#666666" points="1095.38,-304.5 1057.62,-304.5 1057.62,-283.75 1095.38,-283.75 1095.38,-304.5"/>
<text text-anchor="middle" x="1076.5" y="-291" font-family="Helvetica,sans-Serif" font-size="10.00">irq.h</text>
</a>
</g>
</g>
<!-- Node8&#45;&gt;Node9 -->
<g id="edge9_Node000008_Node000009" class="edge">
<title>Node8&#45;&gt;Node9</title>
<g id="a_edge9_Node000008_Node000009"><a xlink:title=" ">
<path fill="none" stroke="#63b8ff" d="M773.12,-575.18C874.14,-569.29 1161.5,-545.5 1161.5,-465.38 1161.5,-465.38 1161.5,-465.38 1161.5,-406.62 1161.5,-366.05 1125.46,-331.04 1100.31,-311.55"/>
<polygon fill="#63b8ff" stroke="#63b8ff" points="1102.64,-308.92 1092.52,-305.76 1098.46,-314.54 1102.64,-308.92"/>
</a>
</g>
</g>
<!-- Node12 -->
<g id="Node000012" class="node">
<title>Node12</title>
<g id="a_Node000012"><a xlink:href="mutex_8h.html" target="_top" xlink:title="Mutex for thread synchronization.">
<polygon fill="white" stroke="#666666" points="811.75,-418 755.25,-418 755.25,-397.25 811.75,-397.25 811.75,-418"/>
<text text-anchor="middle" x="783.5" y="-404.5" font-family="Helvetica,sans-Serif" font-size="10.00">mutex.h</text>
</a>
</g>
</g>
<!-- Node8&#45;&gt;Node12 -->
<g id="edge12_Node000008_Node000012" class="edge">
<title>Node8&#45;&gt;Node12</title>
<g id="a_edge12_Node000008_Node000012"><a xlink:title=" ">
<path fill="none" stroke="#63b8ff" d="M724.21,-567.1C695.15,-546 634.21,-494.82 662.5,-454 680.61,-427.86 715.77,-416.76 743.53,-412.05"/>
<polygon fill="#63b8ff" stroke="#63b8ff" points="744.02,-415.52 753.41,-410.62 743.02,-408.59 744.02,-415.52"/>
</a>
</g>
</g>
<!-- Node32 -->
<g id="Node000032" class="node">
<title>Node32</title>
<g id="a_Node000032"><a xlink:title=" ">
<polygon fill="#e0e0e0" stroke="#999999" points="717.5,-474.75 671.5,-474.75 671.5,-454 717.5,-454 717.5,-474.75"/>
<text text-anchor="middle" x="694.5" y="-461.25" font-family="Helvetica,sans-Serif" font-size="10.00">msg.h</text>
</a>
</g>
</g>
<!-- Node8&#45;&gt;Node32 -->
<g id="edge54_Node000008_Node000032" class="edge">
<title>Node8&#45;&gt;Node32</title>
<g id="a_edge54_Node000008_Node000032"><a xlink:title=" ">
<path fill="none" stroke="#63b8ff" d="M734.75,-567.37C727.64,-549.36 712.07,-509.89 702.51,-485.68"/>
<polygon fill="#63b8ff" stroke="#63b8ff" points="705.85,-484.6 698.92,-476.58 699.34,-487.17 705.85,-484.6"/>
</a>
</g>
</g>
<!-- Node33 -->
<g id="Node000033" class="node">
<title>Node33</title>
<g id="a_Node000033"><a xlink:href="ztimer_8h.html" target="_top" xlink:title="ztimer API">
<polygon fill="white" stroke="#666666" points="802.75,-531.5 746.25,-531.5 746.25,-510.75 802.75,-510.75 802.75,-531.5"/>
<text text-anchor="middle" x="774.5" y="-518" font-family="Helvetica,sans-Serif" font-size="10.00">ztimer.h</text>
</a>
</g>
</g>
<!-- Node8&#45;&gt;Node33 -->
<g id="edge55_Node000008_Node000033" class="edge">
<title>Node8&#45;&gt;Node33</title>
<g id="a_edge55_Node000008_Node000033"><a xlink:title=" ">
<path fill="none" stroke="#63b8ff" d="M744.94,-567.09C749.65,-559.92 756.19,-549.98 761.92,-541.26"/>
<polygon fill="#63b8ff" stroke="#63b8ff" points="764.72,-543.37 767.29,-533.09 758.87,-539.53 764.72,-543.37"/>
</a>
</g>
</g>
<!-- Node10 -->
<g id="Node000010" class="node">
<title>Node10</title>
<g id="a_Node000010"><a xlink:title=" ">
<polygon fill="#e0e0e0" stroke="#999999" points="1039,-134.25 978,-134.25 978,-113.5 1039,-113.5 1039,-134.25"/>
<text text-anchor="middle" x="1008.5" y="-120.75" font-family="Helvetica,sans-Serif" font-size="10.00">stdbool.h</text>
</a>
</g>
</g>
<!-- Node9&#45;&gt;Node10 -->
<g id="edge10_Node000009_Node000010" class="edge">
<title>Node9&#45;&gt;Node10</title>
<g id="a_edge10_Node000009_Node000010"><a xlink:title=" ">
<path fill="none" stroke="#63b8ff" d="M1077.58,-283.5C1079.54,-261.82 1081.81,-208.13 1061.5,-170.25 1055.3,-158.68 1044.85,-148.78 1034.86,-141.2"/>
<polygon fill="#63b8ff" stroke="#63b8ff" points="1037.01,-138.43 1026.82,-135.54 1032.98,-144.16 1037.01,-138.43"/>
</a>
</g>
</g>
<!-- Node11 -->
<g id="Node000011" class="node">
<title>Node11</title>
<g id="a_Node000011"><a xlink:title=" ">
<polygon fill="#e0e0e0" stroke="#999999" points="1019.38,-247.75 951.62,-247.75 951.62,-227 1019.38,-227 1019.38,-247.75"/>
<text text-anchor="middle" x="985.5" y="-234.25" font-family="Helvetica,sans-Serif" font-size="10.00">cpu_conf.h</text>
</a>
</g>
</g>
<!-- Node9&#45;&gt;Node11 -->
<g id="edge11_Node000009_Node000011" class="edge">
<title>Node9&#45;&gt;Node11</title>
<g id="a_edge11_Node000009_Node000011"><a xlink:title=" ">
<path fill="none" stroke="#63b8ff" d="M1060.23,-283.34C1046.64,-275.16 1027.03,-263.36 1011.3,-253.9"/>
<polygon fill="#63b8ff" stroke="#63b8ff" points="1013.3,-251.02 1002.93,-248.86 1009.69,-257.01 1013.3,-251.02"/>
</a>
</g>
</g>
<!-- Node12&#45;&gt;Node5 -->
<g id="edge14_Node000012_Node000005" class="edge">
<title>Node12&#45;&gt;Node5</title>
<g id="a_edge14_Node000012_Node000005"><a xlink:title=" ">
<path fill="none" stroke="#63b8ff" d="M754.79,-404.18C637.96,-393.88 204.5,-351.81 204.5,-295.12 204.5,-295.12 204.5,-295.12 204.5,-122.88 204.5,-43.01 488.29,-19.24 592.62,-13.2"/>
<polygon fill="#63b8ff" stroke="#63b8ff" points="592.55,-16.71 602.34,-12.66 592.16,-9.72 592.55,-16.71"/>
</a>
</g>
</g>
<!-- Node12&#45;&gt;Node10 -->
<g id="edge15_Node000012_Node000010" class="edge">
<title>Node12&#45;&gt;Node10</title>
<g id="a_edge15_Node000012_Node000010"><a xlink:title=" ">
<path fill="none" stroke="#63b8ff" d="M811.89,-398.65C866.45,-381.57 984.42,-335.67 1028.5,-247.75 1045.22,-214.41 1030.31,-170.18 1018.81,-144.9"/>
<polygon fill="#63b8ff" stroke="#63b8ff" points="1022.06,-143.57 1014.56,-136.08 1015.75,-146.61 1022.06,-143.57"/>
</a>
</g>
</g>
<!-- Node13 -->
<g id="Node000013" class="node">
<title>Node13</title>
<g id="a_Node000013"><a xlink:title=" ">
<polygon fill="#e0e0e0" stroke="#999999" points="898,-77.5 843,-77.5 843,-56.75 898,-56.75 898,-77.5"/>
<text text-anchor="middle" x="870.5" y="-64" font-family="Helvetica,sans-Serif" font-size="10.00">stddef.h</text>
</a>
</g>
</g>
<!-- Node12&#45;&gt;Node13 -->
<g id="edge13_Node000012_Node000013" class="edge">
<title>Node12&#45;&gt;Node13</title>
<g id="a_edge13_Node000012_Node000013"><a xlink:title=" ">
<path fill="none" stroke="#63b8ff" d="M812.22,-406.93C900.43,-406.21 1161.5,-391.2 1161.5,-238.38 1161.5,-238.38 1161.5,-238.38 1161.5,-179.62 1161.5,-144.57 1147.68,-132.93 1118.5,-113.5 1084.86,-91.09 970.68,-77.4 909.68,-71.51"/>
<polygon fill="#63b8ff" stroke="#63b8ff" points="910.02,-68.03 899.74,-70.58 909.36,-75 910.02,-68.03"/>
</a>
</g>
</g>
<!-- Node14 -->
<g id="Node000014" class="node">
<title>Node14</title>
<g id="a_Node000014"><a xlink:href="architecture_8h.html" target="_top" xlink:title="Platform&#45;independent access to architecture details.">
<polygon fill="white" stroke="#666666" points="420.25,-247.75 336.75,-247.75 336.75,-227 420.25,-227 420.25,-247.75"/>
<text text-anchor="middle" x="378.5" y="-234.25" font-family="Helvetica,sans-Serif" font-size="10.00">architecture.h</text>
</a>
</g>
</g>
<!-- Node12&#45;&gt;Node14 -->
<g id="edge16_Node000012_Node000014" class="edge">
<title>Node12&#45;&gt;Node14</title>
<g id="a_edge16_Node000012_Node000014"><a xlink:title=" ">
<path fill="none" stroke="#63b8ff" d="M754.77,-396.76C705.05,-379.46 599.96,-341.93 513.5,-304.5 476.08,-288.3 434.04,-267.24 406.97,-253.29"/>
<polygon fill="#63b8ff" stroke="#63b8ff" points="408.86,-250.33 398.37,-248.83 405.64,-256.54 408.86,-250.33"/>
</a>
</g>
</g>
<!-- Node17 -->
<g id="Node000017" class="node">
<title>Node17</title>
<g id="a_Node000017"><a xlink:href="kernel__defines_8h.html" target="_top" xlink:title="Common macros and compiler attributes/pragmas configuration.">
<polygon fill="white" stroke="#666666" points="684.62,-191 588.38,-191 588.38,-170.25 684.62,-170.25 684.62,-191"/>
<text text-anchor="middle" x="636.5" y="-177.5" font-family="Helvetica,sans-Serif" font-size="10.00">kernel_defines.h</text>
</a>
</g>
</g>
<!-- Node12&#45;&gt;Node17 -->
<g id="edge21_Node000012_Node000017" class="edge">
<title>Node12&#45;&gt;Node17</title>
<g id="a_edge21_Node000012_Node000017"><a xlink:title=" ">
<path fill="none" stroke="#63b8ff" d="M763.21,-396.92C713.57,-373.08 589.67,-312.97 584.5,-304.5 563.1,-269.46 596.26,-224.05 618.68,-199.41"/>
<polygon fill="#63b8ff" stroke="#63b8ff" points="620.96,-202.1 625.3,-192.43 615.88,-197.28 620.96,-202.1"/>
</a>
</g>
</g>
<!-- Node23 -->
<g id="Node000023" class="node">
<title>Node23</title>
<g id="a_Node000023"><a xlink:href="list_8h.html" target="_top" xlink:title="Intrusive linked list.">
<polygon fill="white" stroke="#666666" points="1109.5,-134.25 1069.5,-134.25 1069.5,-113.5 1109.5,-113.5 1109.5,-134.25"/>
<text text-anchor="middle" x="1089.5" y="-120.75" font-family="Helvetica,sans-Serif" font-size="10.00">list.h</text>
</a>
</g>
</g>
<!-- Node12&#45;&gt;Node23 -->
<g id="edge32_Node000012_Node000023" class="edge">
<title>Node12&#45;&gt;Node23</title>
<g id="a_edge32_Node000012_Node000023"><a xlink:title=" ">
<path fill="none" stroke="#63b8ff" d="M812.21,-401.92C884.26,-389.47 1069.46,-353.23 1104.5,-304.5 1139.28,-256.13 1114.03,-180.35 1098.8,-144.69"/>
<polygon fill="#63b8ff" stroke="#63b8ff" points="1102.19,-143.69 1094.92,-135.99 1095.8,-146.55 1102.19,-143.69"/>
</a>
</g>
</g>
<!-- Node24 -->
<g id="Node000024" class="node">
<title>Node24</title>
<g id="a_Node000024"><a xlink:href="core_2include_2thread_8h.html" target="_top" xlink:title="Threading API.">
<polygon fill="white" stroke="#666666" points="811.75,-361.25 755.25,-361.25 755.25,-340.5 811.75,-340.5 811.75,-361.25"/>
<text text-anchor="middle" x="783.5" y="-347.75" font-family="Helvetica,sans-Serif" font-size="10.00">thread.h</text>
</a>
</g>
</g>
<!-- Node12&#45;&gt;Node24 -->
<g id="edge33_Node000012_Node000024" class="edge">
<title>Node12&#45;&gt;Node24</title>
<g id="a_edge33_Node000012_Node000024"><a xlink:title=" ">
<path fill="none" stroke="#63b8ff" d="M783.5,-396.84C783.5,-390.22 783.5,-381.22 783.5,-373.02"/>
<polygon fill="#63b8ff" stroke="#63b8ff" points="787,-373.09 783.5,-363.09 780,-373.09 787,-373.09"/>
</a>
</g>
</g>
<!-- Node14&#45;&gt;Node5 -->
<g id="edge17_Node000014_Node000005" class="edge">
<title>Node14&#45;&gt;Node5</title>
<g id="a_edge17_Node000014_Node000005"><a xlink:title=" ">
<path fill="none" stroke="#63b8ff" d="M367.94,-226.74C359.5,-218.28 348.31,-205.13 343.5,-191 340.52,-182.27 340.85,-179.08 343.5,-170.25 360.9,-112.35 368.56,-90.83 418.5,-56.75 471.3,-20.72 547.34,-12.52 592.55,-11.09"/>
<polygon fill="#63b8ff" stroke="#63b8ff" points="592.46,-14.59 602.38,-10.88 592.31,-7.59 592.46,-14.59"/>
</a>
</g>
</g>
<!-- Node14&#45;&gt;Node6 -->
<g id="edge18_Node000014_Node000006" class="edge">
<title>Node14&#45;&gt;Node6</title>
<g id="a_edge18_Node000014_Node000006"><a xlink:title=" ">
<path fill="none" stroke="#63b8ff" d="M358.12,-226.59C340.53,-218.14 314.87,-205.82 294.87,-196.21"/>
<polygon fill="#63b8ff" stroke="#63b8ff" points="296.6,-193.16 286.07,-191.98 293.57,-199.47 296.6,-193.16"/>
</a>
</g>
</g>
<!-- Node15 -->
<g id="Node000015" class="node">
<title>Node15</title>
<g id="a_Node000015"><a xlink:title=" ">
<polygon fill="#e0e0e0" stroke="#999999" points="404.88,-191 352.12,-191 352.12,-170.25 404.88,-170.25 404.88,-191"/>
<text text-anchor="middle" x="378.5" y="-177.5" font-family="Helvetica,sans-Serif" font-size="10.00">limits.h</text>
</a>
</g>
</g>
<!-- Node14&#45;&gt;Node15 -->
<g id="edge19_Node000014_Node000015" class="edge">
<title>Node14&#45;&gt;Node15</title>
<g id="a_edge19_Node000014_Node000015"><a xlink:title=" ">
<path fill="none" stroke="#63b8ff" d="M378.5,-226.59C378.5,-219.97 378.5,-210.97 378.5,-202.77"/>
<polygon fill="#63b8ff" stroke="#63b8ff" points="382,-202.84 378.5,-192.84 375,-202.84 382,-202.84"/>
</a>
</g>
</g>
<!-- Node16 -->
<g id="Node000016" class="node">
<title>Node16</title>
<g id="a_Node000016"><a xlink:title=" ">
<polygon fill="#e0e0e0" stroke="#999999" points="532.38,-191 422.62,-191 422.62,-170.25 532.38,-170.25 532.38,-191"/>
<text text-anchor="middle" x="477.5" y="-177.5" font-family="Helvetica,sans-Serif" font-size="10.00">architecture_arch.h</text>
</a>
</g>
</g>
<!-- Node14&#45;&gt;Node16 -->
<g id="edge20_Node000014_Node000016" class="edge">
<title>Node14&#45;&gt;Node16</title>
<g id="a_edge20_Node000014_Node000016"><a xlink:title=" ">
<path fill="none" stroke="#63b8ff" d="M396.2,-226.59C411.12,-218.33 432.73,-206.38 449.92,-196.88"/>
<polygon fill="#63b8ff" stroke="#63b8ff" points="451.57,-199.96 458.63,-192.06 448.18,-193.84 451.57,-199.96"/>
</a>
</g>
</g>
<!-- Node18 -->
<g id="Node000018" class="node">
<title>Node18</title>
<g id="a_Node000018"><a xlink:href="modules_8h.html" target="_top" xlink:title="Common macros and compiler attributes/pragmas configuration.">
<polygon fill="white" stroke="#666666" points="548,-134.25 481,-134.25 481,-113.5 548,-113.5 548,-134.25"/>
<text text-anchor="middle" x="514.5" y="-120.75" font-family="Helvetica,sans-Serif" font-size="10.00">modules.h</text>
</a>
</g>
</g>
<!-- Node17&#45;&gt;Node18 -->
<g id="edge22_Node000017_Node000018" class="edge">
<title>Node17&#45;&gt;Node18</title>
<g id="a_edge22_Node000017_Node000018"><a xlink:title=" ">
<path fill="none" stroke="#63b8ff" d="M614.69,-169.84C595.69,-161.31 567.9,-148.84 546.41,-139.19"/>
<polygon fill="#63b8ff" stroke="#63b8ff" points="548.06,-136.1 537.5,-135.2 545.19,-142.49 548.06,-136.1"/>
</a>
</g>
</g>
<!-- Node19 -->
<g id="Node000019" class="node">
<title>Node19</title>
<g id="a_Node000019"><a xlink:href="riot__version_8h.html" target="_top" xlink:title="Common macros and compiler attributes/pragmas configuration.">
<polygon fill="white" stroke="#666666" points="509.88,-77.5 427.12,-77.5 427.12,-56.75 509.88,-56.75 509.88,-77.5"/>
<text text-anchor="middle" x="468.5" y="-64" font-family="Helvetica,sans-Serif" font-size="10.00">riot_version.h</text>
</a>
</g>
</g>
<!-- Node17&#45;&gt;Node19 -->
<g id="edge23_Node000017_Node000019" class="edge">
<title>Node17&#45;&gt;Node19</title>
<g id="a_edge23_Node000017_Node000019"><a xlink:title=" ">
<path fill="none" stroke="#63b8ff" d="M588.09,-172.69C544.81,-165.41 486.05,-152.47 471.5,-134.25 461.52,-121.75 461.5,-103.29 463.57,-89.05"/>
<polygon fill="#63b8ff" stroke="#63b8ff" points="466.98,-89.84 465.44,-79.36 460.11,-88.52 466.98,-89.84"/>
</a>
</g>
</g>
<!-- Node20 -->
<g id="Node000020" class="node">
<title>Node20</title>
<g id="a_Node000020"><a xlink:href="compiler__hints_8h.html" target="_top" xlink:title="Common macros and compiler attributes/pragmas configuration.">
<polygon fill="white" stroke="#666666" points="663,-134.25 566,-134.25 566,-113.5 663,-113.5 663,-134.25"/>
<text text-anchor="middle" x="614.5" y="-120.75" font-family="Helvetica,sans-Serif" font-size="10.00">compiler_hints.h</text>
</a>
</g>
</g>
<!-- Node17&#45;&gt;Node20 -->
<g id="edge25_Node000017_Node000020" class="edge">
<title>Node17&#45;&gt;Node20</title>
<g id="a_edge25_Node000017_Node000020"><a xlink:title=" ">
<path fill="none" stroke="#63b8ff" d="M632.57,-169.84C629.81,-162.99 626.04,-153.59 622.65,-145.15"/>
<polygon fill="#63b8ff" stroke="#63b8ff" points="625.94,-143.96 618.96,-135.98 619.44,-146.57 625.94,-143.96"/>
</a>
</g>
</g>
<!-- Node22 -->
<g id="Node000022" class="node">
<title>Node22</title>
<g id="a_Node000022"><a xlink:href="container_8h.html" target="_top" xlink:title="Common macros and compiler attributes/pragmas configuration.">
<polygon fill="white" stroke="#666666" points="751.88,-134.25 681.12,-134.25 681.12,-113.5 751.88,-113.5 751.88,-134.25"/>
<text text-anchor="middle" x="716.5" y="-120.75" font-family="Helvetica,sans-Serif" font-size="10.00">container.h</text>
</a>
</g>
</g>
<!-- Node17&#45;&gt;Node22 -->
<g id="edge29_Node000017_Node000022" class="edge">
<title>Node17&#45;&gt;Node22</title>
<g id="a_edge29_Node000017_Node000022"><a xlink:title=" ">
<path fill="none" stroke="#63b8ff" d="M650.8,-169.84C662.52,-161.82 679.34,-150.31 693.03,-140.94"/>
<polygon fill="#63b8ff" stroke="#63b8ff" points="694.8,-143.97 701.07,-135.43 690.84,-138.19 694.8,-143.97"/>
</a>
</g>
</g>
<!-- Node19&#45;&gt;Node5 -->
<g id="edge24_Node000019_Node000005" class="edge">
<title>Node19&#45;&gt;Node5</title>
<g id="a_edge24_Node000019_Node000005"><a xlink:title=" ">
<path fill="none" stroke="#63b8ff" d="M497.46,-56.34C524.17,-47.31 563.98,-33.86 593.09,-24.02"/>
<polygon fill="#63b8ff" stroke="#63b8ff" points="593.88,-27.44 602.24,-20.93 591.64,-20.81 593.88,-27.44"/>
</a>
</g>
</g>
<!-- Node20&#45;&gt;Node5 -->
<g id="edge28_Node000020_Node000005" class="edge">
<title>Node20&#45;&gt;Node5</title>
<g id="a_edge28_Node000020_Node000005"><a xlink:title=" ">
<path fill="none" stroke="#63b8ff" d="M615.86,-113.37C618.43,-95.52 624.01,-56.61 627.49,-32.34"/>
<polygon fill="#63b8ff" stroke="#63b8ff" points="630.92,-33.07 628.88,-22.67 623.99,-32.07 630.92,-33.07"/>
</a>
</g>
</g>
<!-- Node21 -->
<g id="Node000021" class="node">
<title>Node21</title>
<g id="a_Node000021"><a xlink:href="assert_8h.html" target="_top" xlink:title="POSIX.1&#45;2008 compliant version of the assert macro.">
<polygon fill="white" stroke="#666666" points="602,-77.5 547,-77.5 547,-56.75 602,-56.75 602,-77.5"/>
<text text-anchor="middle" x="574.5" y="-64" font-family="Helvetica,sans-Serif" font-size="10.00">assert.h</text>
</a>
</g>
</g>
<!-- Node20&#45;&gt;Node21 -->
<g id="edge26_Node000020_Node000021" class="edge">
<title>Node20&#45;&gt;Node21</title>
<g id="a_edge26_Node000020_Node000021"><a xlink:title=" ">
<path fill="none" stroke="#63b8ff" d="M607.35,-113.09C602.06,-105.85 594.69,-95.76 588.27,-86.97"/>
<polygon fill="#63b8ff" stroke="#63b8ff" points="591.21,-85.06 582.48,-79.05 585.56,-89.19 591.21,-85.06"/>
</a>
</g>
</g>
<!-- Node21&#45;&gt;Node5 -->
<g id="edge27_Node000021_Node000005" class="edge">
<title>Node21&#45;&gt;Node5</title>
<g id="a_edge27_Node000021_Node000005"><a xlink:title=" ">
<path fill="none" stroke="#63b8ff" d="M584.51,-56.34C592.24,-48.78 603.13,-38.14 612.37,-29.1"/>
<polygon fill="#63b8ff" stroke="#63b8ff" points="614.79,-31.63 619.49,-22.14 609.9,-26.62 614.79,-31.63"/>
</a>
</g>
</g>
<!-- Node22&#45;&gt;Node5 -->
<g id="edge31_Node000022_Node000005" class="edge">
<title>Node22&#45;&gt;Node5</title>
<g id="a_edge31_Node000022_Node000005"><a xlink:title=" ">
<path fill="none" stroke="#63b8ff" d="M709.17,-113.37C694.96,-94.95 663.44,-54.09 644.9,-30.05"/>
<polygon fill="#63b8ff" stroke="#63b8ff" points="647.86,-28.15 638.98,-22.37 642.32,-32.43 647.86,-28.15"/>
</a>
</g>
</g>
<!-- Node22&#45;&gt;Node13 -->
<g id="edge30_Node000022_Node000013" class="edge">
<title>Node22&#45;&gt;Node13</title>
<g id="a_edge30_Node000022_Node000013"><a xlink:title=" ">
<path fill="none" stroke="#63b8ff" d="M744.03,-113.09C768.59,-104.36 804.8,-91.48 832.18,-81.75"/>
<polygon fill="#63b8ff" stroke="#63b8ff" points="833.27,-85.08 841.52,-78.43 830.93,-78.48 833.27,-85.08"/>
</a>
</g>
</g>
<!-- Node25 -->
<g id="Node000025" class="node">
<title>Node25</title>
<g id="a_Node000025"><a xlink:href="clist_8h.html" target="_top" xlink:title="Circular linked list.">
<polygon fill="white" stroke="#666666" points="1019.12,-191 973.88,-191 973.88,-170.25 1019.12,-170.25 1019.12,-191"/>
<text text-anchor="middle" x="996.5" y="-177.5" font-family="Helvetica,sans-Serif" font-size="10.00">clist.h</text>
</a>
</g>
</g>
<!-- Node24&#45;&gt;Node25 -->
<g id="edge34_Node000024_Node000025" class="edge">
<title>Node24&#45;&gt;Node25</title>
<g id="a_edge34_Node000024_Node000025"><a xlink:title=" ">
<path fill="none" stroke="#63b8ff" d="M812.22,-350.13C846.98,-348.75 904.59,-340.68 934.5,-304.5 956.56,-277.81 926.28,-257.59 942.5,-227 948.67,-215.36 959.2,-205.49 969.32,-197.95"/>
<polygon fill="#63b8ff" stroke="#63b8ff" points="971.25,-200.87 977.51,-192.32 967.29,-195.11 971.25,-200.87"/>
</a>
</g>
</g>
<!-- Node26 -->
<g id="Node000026" class="node">
<title>Node26</title>
<g id="a_Node000026"><a xlink:href="cib_8h.html" target="_top" xlink:title="Circular integer buffer interface.">
<polygon fill="white" stroke="#666666" points="499.12,-247.75 459.88,-247.75 459.88,-227 499.12,-227 499.12,-247.75"/>
<text text-anchor="middle" x="479.5" y="-234.25" font-family="Helvetica,sans-Serif" font-size="10.00">cib.h</text>
</a>
</g>
</g>
<!-- Node24&#45;&gt;Node26 -->
<g id="edge38_Node000024_Node000026" class="edge">
<title>Node24&#45;&gt;Node26</title>
<g id="a_edge38_Node000024_Node000026"><a xlink:title=" ">
<path fill="none" stroke="#63b8ff" d="M754.9,-346.44C715.39,-341.02 642.44,-328.53 584.5,-304.5 553.55,-291.66 521.44,-270.01 501.02,-255"/>
<polygon fill="#63b8ff" stroke="#63b8ff" points="503.29,-252.33 493.19,-249.14 499.1,-257.94 503.29,-252.33"/>
</a>
</g>
</g>
<!-- Node27 -->
<g id="Node000027" class="node">
<title>Node27</title>
<g id="a_Node000027"><a xlink:href="core_2include_2msg_8h.html" target="_top" xlink:title="Messaging API for inter process communication.">
<polygon fill="white" stroke="#666666" points="639.5,-304.5 593.5,-304.5 593.5,-283.75 639.5,-283.75 639.5,-304.5"/>
<text text-anchor="middle" x="616.5" y="-291" font-family="Helvetica,sans-Serif" font-size="10.00">msg.h</text>
</a>
</g>
</g>
<!-- Node24&#45;&gt;Node27 -->
<g id="edge40_Node000024_Node000027" class="edge">
<title>Node24&#45;&gt;Node27</title>
<g id="a_edge40_Node000024_Node000027"><a xlink:title=" ">
<path fill="none" stroke="#63b8ff" d="M754.79,-340.46C725.89,-330.99 681.3,-316.37 650.61,-306.31"/>
<polygon fill="#63b8ff" stroke="#63b8ff" points="652.02,-303.09 641.43,-303.3 649.84,-309.74 652.02,-303.09"/>
</a>
</g>
</g>
<!-- Node28 -->
<g id="Node000028" class="node">
<title>Node28</title>
<g id="a_Node000028"><a xlink:href="sched_8h.html" target="_top" xlink:title="Scheduler API definition.">
<polygon fill="white" stroke="#666666" points="895.25,-247.75 841.75,-247.75 841.75,-227 895.25,-227 895.25,-247.75"/>
<text text-anchor="middle" x="868.5" y="-234.25" font-family="Helvetica,sans-Serif" font-size="10.00">sched.h</text>
</a>
</g>
</g>
<!-- Node24&#45;&gt;Node28 -->
<g id="edge49_Node000024_Node000028" class="edge">
<title>Node24&#45;&gt;Node28</title>
<g id="a_edge49_Node000024_Node000028"><a xlink:title=" ">
<path fill="none" stroke="#63b8ff" d="M788.73,-340.03C795.98,-326.72 809.88,-302.49 824.5,-283.75 832.03,-274.09 841.36,-264.23 849.49,-256.18"/>
<polygon fill="#63b8ff" stroke="#63b8ff" points="851.85,-258.76 856.61,-249.3 846.98,-253.73 851.85,-258.76"/>
</a>
</g>
</g>
<!-- Node30 -->
<g id="Node000030" class="node">
<title>Node30</title>
<g id="a_Node000030"><a xlink:href="thread__config_8h.html" target="_top" xlink:title="Thread configuration defines.">
<polygon fill="white" stroke="#666666" points="925.38,-304.5 833.62,-304.5 833.62,-283.75 925.38,-283.75 925.38,-304.5"/>
<text text-anchor="middle" x="879.5" y="-291" font-family="Helvetica,sans-Serif" font-size="10.00">thread_config.h</text>
</a>
</g>
</g>
<!-- Node24&#45;&gt;Node30 -->
<g id="edge50_Node000024_Node000030" class="edge">
<title>Node24&#45;&gt;Node30</title>
<g id="a_edge50_Node000024_Node000030"><a xlink:title=" ">
<path fill="none" stroke="#63b8ff" d="M800.66,-340.09C815.13,-331.83 836.09,-319.88 852.76,-310.38"/>
<polygon fill="#63b8ff" stroke="#63b8ff" points="854.22,-313.57 861.17,-305.58 850.75,-307.49 854.22,-313.57"/>
</a>
</g>
</g>
<!-- Node31 -->
<g id="Node000031" class="node">
<title>Node31</title>
<g id="a_Node000031"><a xlink:title=" ">
<polygon fill="#e0e0e0" stroke="#999999" points="777.88,-304.5 695.12,-304.5 695.12,-283.75 777.88,-283.75 777.88,-304.5"/>
<text text-anchor="middle" x="736.5" y="-291" font-family="Helvetica,sans-Serif" font-size="10.00">thread_arch.h</text>
</a>
</g>
</g>
<!-- Node24&#45;&gt;Node31 -->
<g id="edge53_Node000024_Node000031" class="edge">
<title>Node24&#45;&gt;Node31</title>
<g id="a_edge53_Node000024_Node000031"><a xlink:title=" ">
<path fill="none" stroke="#63b8ff" d="M775.1,-340.09C768.75,-332.69 759.85,-322.32 752.2,-313.41"/>
<polygon fill="#63b8ff" stroke="#63b8ff" points="754.99,-311.28 745.82,-305.98 749.67,-315.84 754.99,-311.28"/>
</a>
</g>
</g>
<!-- Node25&#45;&gt;Node10 -->
<g id="edge35_Node000025_Node000010" class="edge">
<title>Node25&#45;&gt;Node10</title>
<g id="a_edge35_Node000025_Node000010"><a xlink:title=" ">
<path fill="none" stroke="#63b8ff" d="M998.65,-169.84C1000.11,-163.14 1002.11,-154.01 1003.93,-145.73"/>
<polygon fill="#63b8ff" stroke="#63b8ff" points="1007.33,-146.57 1006.05,-136.06 1000.49,-145.08 1007.33,-146.57"/>
</a>
</g>
</g>
<!-- Node25&#45;&gt;Node13 -->
<g id="edge36_Node000025_Node000013" class="edge">
<title>Node25&#45;&gt;Node13</title>
<g id="a_edge36_Node000025_Node000013"><a xlink:title=" ">
<path fill="none" stroke="#63b8ff" d="M985.76,-170.12C964.57,-151.37 917.12,-109.38 890.17,-85.53"/>
<polygon fill="#63b8ff" stroke="#63b8ff" points="892.52,-82.93 882.71,-78.93 887.88,-88.18 892.52,-82.93"/>
</a>
</g>
</g>
<!-- Node25&#45;&gt;Node23 -->
<g id="edge37_Node000025_Node000023" class="edge">
<title>Node25&#45;&gt;Node23</title>
<g id="a_edge37_Node000025_Node000023"><a xlink:title=" ">
<path fill="none" stroke="#63b8ff" d="M1013.13,-169.84C1027.01,-161.66 1047.06,-149.86 1063.13,-140.4"/>
<polygon fill="#63b8ff" stroke="#63b8ff" points="1064.87,-143.44 1071.71,-135.35 1061.32,-137.4 1064.87,-143.44"/>
</a>
</g>
</g>
<!-- Node26&#45;&gt;Node21 -->
<g id="edge39_Node000026_Node000021" class="edge">
<title>Node26&#45;&gt;Node21</title>
<g id="a_edge39_Node000026_Node000021"><a xlink:title=" ">
<path fill="none" stroke="#63b8ff" d="M499.3,-227.36C522.38,-215.52 555.68,-193.49 541.5,-170.25 523.28,-140.39 489.72,-164.11 471.5,-134.25 466.7,-126.38 466.46,-121.22 471.5,-113.5 485.65,-91.8 512.78,-80.4 535.64,-74.46"/>
<polygon fill="#63b8ff" stroke="#63b8ff" points="536.35,-77.89 545.3,-72.23 534.77,-71.07 536.35,-77.89"/>
</a>
</g>
</g>
<!-- Node27&#45;&gt;Node5 -->
<g id="edge41_Node000027_Node000005" class="edge">
<title>Node27&#45;&gt;Node5</title>
<g id="a_edge41_Node000027_Node000005"><a xlink:title=" ">
<path fill="none" stroke="#63b8ff" d="M630.77,-283.28C661.61,-261.03 733.84,-203.37 760.5,-134.25 779.96,-83.79 712.79,-45.12 667.85,-25.55"/>
<polygon fill="#63b8ff" stroke="#63b8ff" points="669.21,-22.33 658.64,-21.69 666.51,-28.79 669.21,-22.33"/>
</a>
</g>
</g>
<!-- Node27&#45;&gt;Node10 -->
<g id="edge42_Node000027_Node000010" class="edge">
<title>Node27&#45;&gt;Node10</title>
<g id="a_edge42_Node000027_Node000010"><a xlink:title=" ">
<path fill="none" stroke="#63b8ff" d="M639.89,-287.16C681.36,-276.49 764.53,-254.6 776.5,-247.75 819.74,-223 814.45,-195.34 857.5,-170.25 891.52,-150.43 934.98,-138.56 966.53,-131.96"/>
<polygon fill="#63b8ff" stroke="#63b8ff" points="966.97,-135.44 976.09,-130.06 965.6,-128.57 966.97,-135.44"/>
</a>
</g>
</g>
<!-- Node27&#45;&gt;Node28 -->
<g id="edge43_Node000027_Node000028" class="edge">
<title>Node27&#45;&gt;Node28</title>
<g id="a_edge43_Node000027_Node000028"><a xlink:title=" ">
<path fill="none" stroke="#63b8ff" d="M639.95,-287.02C644.44,-285.9 649.11,-284.76 653.5,-283.75 730.46,-266.05 750.34,-264.55 827.5,-247.75 828.5,-247.53 829.51,-247.31 830.53,-247.09"/>
<polygon fill="#63b8ff" stroke="#63b8ff" points="831.14,-250.54 840.13,-244.94 829.61,-243.71 831.14,-250.54"/>
</a>
</g>
</g>
<!-- Node28&#45;&gt;Node6 -->
<g id="edge45_Node000028_Node000006" class="edge">
<title>Node28&#45;&gt;Node6</title>
<g id="a_edge45_Node000028_Node000006"><a xlink:title=" ">
<path fill="none" stroke="#63b8ff" d="M841.42,-234.34C763.81,-228.45 533.94,-210.52 343.5,-191 332.06,-189.83 319.71,-188.43 308.24,-187.07"/>
<polygon fill="#63b8ff" stroke="#63b8ff" points="308.99,-183.63 298.65,-185.92 308.16,-190.58 308.99,-183.63"/>
</a>
</g>
</g>
<!-- Node28&#45;&gt;Node13 -->
<g id="edge44_Node000028_Node000013" class="edge">
<title>Node28&#45;&gt;Node13</title>
<g id="a_edge44_Node000028_Node000013"><a xlink:title=" ">
<path fill="none" stroke="#63b8ff" d="M865.46,-226.76C862.76,-217.66 859,-203.56 857.5,-191 853.21,-155.09 860.21,-113.18 865.49,-88.75"/>
<polygon fill="#63b8ff" stroke="#63b8ff" points="868.86,-89.7 867.69,-79.17 862.04,-88.13 868.86,-89.7"/>
</a>
</g>
</g>
<!-- Node28&#45;&gt;Node17 -->
<g id="edge46_Node000028_Node000017" class="edge">
<title>Node28&#45;&gt;Node17</title>
<g id="a_edge46_Node000028_Node000017"><a xlink:title=" ">
<path fill="none" stroke="#63b8ff" d="M841.43,-229.99C804.25,-221.21 736.61,-205.25 689.24,-194.07"/>
<polygon fill="#63b8ff" stroke="#63b8ff" points="690.27,-190.72 679.73,-191.83 688.66,-197.53 690.27,-190.72"/>
</a>
</g>
</g>
<!-- Node28&#45;&gt;Node25 -->
<g id="edge48_Node000028_Node000025" class="edge">
<title>Node28&#45;&gt;Node25</title>
<g id="a_edge48_Node000028_Node000025"><a xlink:title=" ">
<path fill="none" stroke="#63b8ff" d="M891.38,-226.59C911.41,-218.02 940.74,-205.48 963.33,-195.81"/>
<polygon fill="#63b8ff" stroke="#63b8ff" points="964.6,-199.07 972.42,-191.92 961.85,-192.64 964.6,-199.07"/>
</a>
</g>
</g>
<!-- Node29 -->
<g id="Node000029" class="node">
<title>Node29</title>
<g id="a_Node000029"><a xlink:href="native__sched_8h.html" target="_top" xlink:title="Add definitions required on the native board.">
<polygon fill="white" stroke="#666666" points="956.25,-191 866.75,-191 866.75,-170.25 956.25,-170.25 956.25,-191"/>
<text text-anchor="middle" x="911.5" y="-177.5" font-family="Helvetica,sans-Serif" font-size="10.00">native_sched.h</text>
</a>
</g>
</g>
<!-- Node28&#45;&gt;Node29 -->
<g id="edge47_Node000028_Node000029" class="edge">
<title>Node28&#45;&gt;Node29</title>
<g id="a_edge47_Node000028_Node000029"><a xlink:title=" ">
<path fill="none" stroke="#63b8ff" d="M876.19,-226.59C881.94,-219.27 889.97,-209.04 896.92,-200.19"/>
<polygon fill="#63b8ff" stroke="#63b8ff" points="899.52,-202.55 902.94,-192.52 894.01,-198.22 899.52,-202.55"/>
</a>
</g>
</g>
<!-- Node30&#45;&gt;Node11 -->
<g id="edge51_Node000030_Node000011" class="edge">
<title>Node30&#45;&gt;Node11</title>
<g id="a_edge51_Node000030_Node000011"><a xlink:title=" ">
<path fill="none" stroke="#63b8ff" d="M898.45,-283.34C914.58,-275.01 938,-262.91 956.49,-253.36"/>
<polygon fill="#63b8ff" stroke="#63b8ff" points="958.09,-256.47 965.37,-248.77 954.88,-250.25 958.09,-256.47"/>
</a>
</g>
</g>
<!-- Node30&#45;&gt;Node28 -->
<g id="edge52_Node000030_Node000028" class="edge">
<title>Node30&#45;&gt;Node28</title>
<g id="a_edge52_Node000030_Node000028"><a xlink:title=" ">
<path fill="none" stroke="#63b8ff" d="M877.53,-283.34C876.19,-276.64 874.35,-267.51 872.69,-259.23"/>
<polygon fill="#63b8ff" stroke="#63b8ff" points="876.15,-258.68 870.75,-249.56 869.29,-260.06 876.15,-258.68"/>
</a>
</g>
</g>
<!-- Node33&#45;&gt;Node5 -->
<g id="edge56_Node000033_Node000005" class="edge">
<title>Node33&#45;&gt;Node5</title>
<g id="a_edge56_Node000033_Node000005"><a xlink:title=" ">
<path fill="none" stroke="#63b8ff" d="M803.12,-519.76C874.52,-517.54 1063.73,-503.42 1188.5,-418 1218.68,-397.34 1237.5,-388.45 1237.5,-351.88 1237.5,-351.88 1237.5,-351.88 1237.5,-122.88 1237.5,-78.77 1204,-74.21 1163.5,-56.75 1074.3,-18.29 774.98,-12.39 668.5,-11.51"/>
<polygon fill="#63b8ff" stroke="#63b8ff" points="668.61,-8.01 658.59,-11.44 668.56,-15.01 668.61,-8.01"/>
</a>
</g>
</g>
<!-- Node33&#45;&gt;Node12 -->
<g id="edge59_Node000033_Node000012" class="edge">
<title>Node33&#45;&gt;Node12</title>
<g id="a_edge59_Node000033_Node000012"><a xlink:title=" ">
<path fill="none" stroke="#63b8ff" d="M775.27,-510.62C776.71,-492.77 779.85,-453.86 781.81,-429.59"/>
<polygon fill="#63b8ff" stroke="#63b8ff" points="785.27,-430.18 782.59,-419.93 778.29,-429.62 785.27,-430.18"/>
</a>
</g>
</g>
<!-- Node33&#45;&gt;Node28 -->
<g id="edge57_Node000033_Node000028" class="edge">
<title>Node33&#45;&gt;Node28</title>
<g id="a_edge57_Node000033_Node000028"><a xlink:title=" ">
<path fill="none" stroke="#63b8ff" d="M768.51,-510.49C744.33,-471.01 656.64,-321.97 686.5,-283.75 695.4,-272.35 779.6,-254.92 830.3,-245.32"/>
<polygon fill="#63b8ff" stroke="#63b8ff" points="830.82,-248.78 840,-243.5 829.53,-241.9 830.82,-248.78"/>
</a>
</g>
</g>
<!-- Node33&#45;&gt;Node32 -->
<g id="edge58_Node000033_Node000032" class="edge">
<title>Node33&#45;&gt;Node32</title>
<g id="a_edge58_Node000033_Node000032"><a xlink:title=" ">
<path fill="none" stroke="#63b8ff" d="M760.2,-510.34C748.48,-502.32 731.66,-490.81 717.97,-481.44"/>
<polygon fill="#63b8ff" stroke="#63b8ff" points="720.16,-478.69 709.93,-475.93 716.2,-484.47 720.16,-478.69"/>
</a>
</g>
</g>
<!-- Node34 -->
<g id="Node000034" class="node">
<title>Node34</title>
<g id="a_Node000034"><a xlink:href="rmutex_8h.html" target="_top" xlink:title="Recursive Mutex for thread synchronization.">
<polygon fill="white" stroke="#666666" points="972.62,-474.75 912.38,-474.75 912.38,-454 972.62,-454 972.62,-474.75"/>
<text text-anchor="middle" x="942.5" y="-461.25" font-family="Helvetica,sans-Serif" font-size="10.00">rmutex.h</text>
</a>
</g>
</g>
<!-- Node33&#45;&gt;Node34 -->
<g id="edge60_Node000033_Node000034" class="edge">
<title>Node33&#45;&gt;Node34</title>
<g id="a_edge60_Node000033_Node000034"><a xlink:title=" ">
<path fill="none" stroke="#63b8ff" d="M803,-510.84C830.1,-502.01 871.14,-488.63 901.7,-478.67"/>
<polygon fill="#63b8ff" stroke="#63b8ff" points="902.58,-482.07 911,-475.64 900.41,-475.41 902.58,-482.07"/>
</a>
</g>
</g>
<!-- Node34&#45;&gt;Node5 -->
<g id="edge61_Node000034_Node000005" class="edge">
<title>Node34&#45;&gt;Node5</title>
<g id="a_edge61_Node000034_Node000005"><a xlink:title=" ">
<path fill="none" stroke="#63b8ff" d="M972.99,-463.68C1041.07,-462.62 1199.5,-449.63 1199.5,-351.88 1199.5,-351.88 1199.5,-351.88 1199.5,-122.88 1199.5,-14.39 796.12,-9.54 668.63,-10.72"/>
<polygon fill="#63b8ff" stroke="#63b8ff" points="668.65,-7.22 658.69,-10.83 668.73,-14.22 668.65,-7.22"/>
</a>
</g>
</g>
<!-- Node34&#45;&gt;Node12 -->
<g id="edge62_Node000034_Node000012" class="edge">
<title>Node34&#45;&gt;Node12</title>
<g id="a_edge62_Node000034_Node000012"><a xlink:title=" ">
<path fill="none" stroke="#63b8ff" d="M914.07,-453.59C888.6,-444.82 851,-431.87 822.68,-422.12"/>
<polygon fill="#63b8ff" stroke="#63b8ff" points="823.97,-418.86 813.38,-418.91 821.69,-425.48 823.97,-418.86"/>
</a>
</g>
</g>
<!-- Node34&#45;&gt;Node28 -->
<g id="edge63_Node000034_Node000028" class="edge">
<title>Node34&#45;&gt;Node28</title>
<g id="a_edge63_Node000034_Node000028"><a xlink:title=" ">
<path fill="none" stroke="#63b8ff" d="M944.9,-453.61C951.31,-425.22 966.3,-341.07 934.5,-283.75 927.39,-270.93 914.93,-260.97 902.74,-253.69"/>
<polygon fill="#63b8ff" stroke="#63b8ff" points="904.48,-250.65 894.02,-248.93 901.12,-256.79 904.48,-250.65"/>
</a>
</g>
</g>
</g>
</svg>
