<?xml version="1.0" encoding="UTF-8" standalone="no"?>
<!DOCTYPE svg PUBLIC "-//W3C//DTD SVG 1.1//EN"
 "http://www.w3.org/Graphics/SVG/1.1/DTD/svg11.dtd">
<!-- Generated by graphviz version 12.1.2 (0)
 -->
<!-- Title: sys/include/crypto/ciphers.h Pages: 1 -->
<svg width="1021pt" height="250pt"
 viewBox="0.00 0.00 1021.00 250.00" xmlns="http://www.w3.org/2000/svg" xmlns:xlink="http://www.w3.org/1999/xlink">
<g id="graph0" class="graph" transform="scale(1 1) rotate(0) translate(4 246)">
<title>sys/include/crypto/ciphers.h</title>
<!-- Node1 -->
<g id="Node000001" class="node">
<title>Node1</title>
<g id="a_Node000001"><a xlink:title="Headers for the packet encryption class.">
<polygon fill="#999999" stroke="#666666" points="534.5,-242 430,-242 430,-208.5 534.5,-208.5 534.5,-242"/>
<text text-anchor="start" x="438" y="-228.5" font-family="Helvetica,sans-Serif" font-size="10.00">sys/include/crypto</text>
<text text-anchor="middle" x="482.25" y="-215.75" font-family="Helvetica,sans-Serif" font-size="10.00">/ciphers.h</text>
</a>
</g>
</g>
<!-- Node2 -->
<g id="Node000002" class="node">
<title>Node2</title>
<g id="a_Node000002"><a xlink:href="aes_8h.html" target="_top" xlink:title="Headers for the implementation of the AES cipher&#45;algorithm.">
<polygon fill="white" stroke="#666666" points="104.5,-172.5 0,-172.5 0,-139 104.5,-139 104.5,-172.5"/>
<text text-anchor="start" x="8" y="-159" font-family="Helvetica,sans-Serif" font-size="10.00">sys/include/crypto</text>
<text text-anchor="middle" x="52.25" y="-146.25" font-family="Helvetica,sans-Serif" font-size="10.00">/aes.h</text>
</a>
</g>
</g>
<!-- Node1&#45;&gt;Node2 -->
<g id="edge1_Node000001_Node000002" class="edge">
<title>Node1&#45;&gt;Node2</title>
<g id="a_edge1_Node000001_Node000002"><a xlink:title=" ">
<path fill="none" stroke="#63b8ff" d="M418.16,-217.38C344.45,-208.99 220.01,-193.3 114.25,-172.5 111.2,-171.9 108.07,-171.24 104.93,-170.55"/>
<polygon fill="#63b8ff" stroke="#63b8ff" points="417.71,-220.86 428.04,-218.5 418.49,-213.9 417.71,-220.86"/>
</a>
</g>
</g>
<!-- Node3 -->
<g id="Node000003" class="node">
<title>Node3</title>
<g id="a_Node000003"><a xlink:href="cbc_8h.html" target="_top" xlink:title="Cipher block chaining mode of operation for block ciphers.">
<polygon fill="white" stroke="#666666" points="227.5,-172.5 123,-172.5 123,-139 227.5,-139 227.5,-172.5"/>
<text text-anchor="start" x="131" y="-159" font-family="Helvetica,sans-Serif" font-size="10.00">sys/include/crypto</text>
<text text-anchor="middle" x="175.25" y="-146.25" font-family="Helvetica,sans-Serif" font-size="10.00">/modes/cbc.h</text>
</a>
</g>
</g>
<!-- Node1&#45;&gt;Node3 -->
<g id="edge2_Node000001_Node000003" class="edge">
<title>Node1&#45;&gt;Node3</title>
<g id="a_edge2_Node000001_Node000003"><a xlink:title=" ">
<path fill="none" stroke="#63b8ff" d="M418.36,-211.49C368.83,-201.43 298.53,-186.75 237.25,-172.5 234.22,-171.8 231.11,-171.06 227.98,-170.3"/>
<polygon fill="#63b8ff" stroke="#63b8ff" points="417.56,-214.9 428.06,-213.46 418.95,-208.04 417.56,-214.9"/>
</a>
</g>
</g>
<!-- Node4 -->
<g id="Node000004" class="node">
<title>Node4</title>
<g id="a_Node000004"><a xlink:href="ccm_8h.html" target="_top" xlink:title="Counter with CBC&#45;MAC mode of operation for block ciphers.">
<polygon fill="white" stroke="#666666" points="350.5,-172.5 246,-172.5 246,-139 350.5,-139 350.5,-172.5"/>
<text text-anchor="start" x="254" y="-159" font-family="Helvetica,sans-Serif" font-size="10.00">sys/include/crypto</text>
<text text-anchor="middle" x="298.25" y="-146.25" font-family="Helvetica,sans-Serif" font-size="10.00">/modes/ccm.h</text>
</a>
</g>
</g>
<!-- Node1&#45;&gt;Node4 -->
<g id="edge3_Node000001_Node000004" class="edge">
<title>Node1&#45;&gt;Node4</title>
<g id="a_edge3_Node000001_Node000004"><a xlink:title=" ">
<path fill="none" stroke="#63b8ff" d="M427.64,-204.22C400.4,-194.22 367.9,-182.3 342.28,-172.9"/>
<polygon fill="#63b8ff" stroke="#63b8ff" points="426.16,-207.4 436.76,-207.56 428.57,-200.83 426.16,-207.4"/>
</a>
</g>
</g>
<!-- Node9 -->
<g id="Node000009" class="node">
<title>Node9</title>
<g id="a_Node000009"><a xlink:href="ctr_8h.html" target="_top" xlink:title="Counter mode of operation for block ciphers.">
<polygon fill="white" stroke="#666666" points="473.5,-172.5 369,-172.5 369,-139 473.5,-139 473.5,-172.5"/>
<text text-anchor="start" x="377" y="-159" font-family="Helvetica,sans-Serif" font-size="10.00">sys/include/crypto</text>
<text text-anchor="middle" x="421.25" y="-146.25" font-family="Helvetica,sans-Serif" font-size="10.00">/modes/ctr.h</text>
</a>
</g>
</g>
<!-- Node1&#45;&gt;Node9 -->
<g id="edge8_Node000001_Node000009" class="edge">
<title>Node1&#45;&gt;Node9</title>
<g id="a_edge8_Node000001_Node000009"><a xlink:title=" ">
<path fill="none" stroke="#63b8ff" d="M460.28,-199.94C452.07,-190.85 442.95,-180.77 435.6,-172.63"/>
<polygon fill="#63b8ff" stroke="#63b8ff" points="457.48,-202.06 466.78,-207.13 462.67,-197.36 457.48,-202.06"/>
</a>
</g>
</g>
<!-- Node10 -->
<g id="Node000010" class="node">
<title>Node10</title>
<g id="a_Node000010"><a xlink:href="ecb_8h.html" target="_top" xlink:title="Electronic code book mode of operation for block ciphers.">
<polygon fill="white" stroke="#666666" points="596.5,-172.5 492,-172.5 492,-139 596.5,-139 596.5,-172.5"/>
<text text-anchor="start" x="500" y="-159" font-family="Helvetica,sans-Serif" font-size="10.00">sys/include/crypto</text>
<text text-anchor="middle" x="544.25" y="-146.25" font-family="Helvetica,sans-Serif" font-size="10.00">/modes/ecb.h</text>
</a>
</g>
</g>
<!-- Node1&#45;&gt;Node10 -->
<g id="edge9_Node000001_Node000010" class="edge">
<title>Node1&#45;&gt;Node10</title>
<g id="a_edge9_Node000001_Node000010"><a xlink:title=" ">
<path fill="none" stroke="#63b8ff" d="M504.58,-199.94C512.93,-190.85 522.19,-180.77 529.66,-172.63"/>
<polygon fill="#63b8ff" stroke="#63b8ff" points="502.15,-197.41 497.97,-207.14 507.31,-202.14 502.15,-197.41"/>
</a>
</g>
</g>
<!-- Node11 -->
<g id="Node000011" class="node">
<title>Node11</title>
<g id="a_Node000011"><a xlink:href="ocb_8h.html" target="_top" xlink:title="Offset Codebook (OCB3) AEAD mode as specified in RFC 7253.">
<polygon fill="white" stroke="#666666" points="719.5,-172.5 615,-172.5 615,-139 719.5,-139 719.5,-172.5"/>
<text text-anchor="start" x="623" y="-159" font-family="Helvetica,sans-Serif" font-size="10.00">sys/include/crypto</text>
<text text-anchor="middle" x="667.25" y="-146.25" font-family="Helvetica,sans-Serif" font-size="10.00">/modes/ocb.h</text>
</a>
</g>
</g>
<!-- Node1&#45;&gt;Node11 -->
<g id="edge10_Node000001_Node000011" class="edge">
<title>Node1&#45;&gt;Node11</title>
<g id="a_edge10_Node000001_Node000011"><a xlink:title=" ">
<path fill="none" stroke="#63b8ff" d="M537.16,-204.22C564.54,-194.22 597.22,-182.3 622.98,-172.9"/>
<polygon fill="#63b8ff" stroke="#63b8ff" points="536.18,-200.85 527.98,-207.56 538.58,-207.42 536.18,-200.85"/>
</a>
</g>
</g>
<!-- Node12 -->
<g id="Node000012" class="node">
<title>Node12</title>
<g id="a_Node000012"><a xlink:href="aes128__cmac_8h.html" target="_top" xlink:title="AES128_CMAC interface definition.">
<polygon fill="white" stroke="#666666" points="845.38,-172.5 737.12,-172.5 737.12,-139 845.38,-139 845.38,-172.5"/>
<text text-anchor="start" x="745.12" y="-159" font-family="Helvetica,sans-Serif" font-size="10.00">sys/include/hashes</text>
<text text-anchor="middle" x="791.25" y="-146.25" font-family="Helvetica,sans-Serif" font-size="10.00">/aes128_cmac.h</text>
</a>
</g>
</g>
<!-- Node1&#45;&gt;Node12 -->
<g id="edge11_Node000001_Node000012" class="edge">
<title>Node1&#45;&gt;Node12</title>
<g id="a_edge11_Node000001_Node000012"><a xlink:title=" ">
<path fill="none" stroke="#63b8ff" d="M545.91,-211.54C595.66,-201.45 666.5,-186.71 728.25,-172.5 731,-171.87 733.81,-171.21 736.64,-170.53"/>
<polygon fill="#63b8ff" stroke="#63b8ff" points="545.27,-208.1 536.17,-213.51 546.66,-214.96 545.27,-208.1"/>
</a>
</g>
</g>
<!-- Node13 -->
<g id="Node000013" class="node">
<title>Node13</title>
<g id="a_Node000013"><a xlink:href="ieee802154__security_8h.html" target="_top" xlink:title="IEEE 802.15.4 security interface.">
<polygon fill="white" stroke="#666666" points="1013,-172.5 863.5,-172.5 863.5,-139 1013,-139 1013,-172.5"/>
<text text-anchor="start" x="871.5" y="-159" font-family="Helvetica,sans-Serif" font-size="10.00">sys/include/net/ieee802154</text>
<text text-anchor="middle" x="938.25" y="-146.25" font-family="Helvetica,sans-Serif" font-size="10.00">_security.h</text>
</a>
</g>
</g>
<!-- Node1&#45;&gt;Node13 -->
<g id="edge12_Node000001_Node000013" class="edge">
<title>Node1&#45;&gt;Node13</title>
<g id="a_edge12_Node000001_Node000013"><a xlink:title=" ">
<path fill="none" stroke="#63b8ff" d="M545.73,-216.34C619.89,-206.89 746.21,-190.13 854.25,-172.5 857.18,-172.02 860.16,-171.52 863.17,-171.01"/>
<polygon fill="#63b8ff" stroke="#63b8ff" points="545.71,-212.82 536.23,-217.55 546.6,-219.76 545.71,-212.82"/>
</a>
</g>
</g>
<!-- Node5 -->
<g id="Node000005" class="node">
<title>Node5</title>
<g id="a_Node000005"><a xlink:href="ctap_2ctap_8h.html" target="_top" xlink:title="Internal FIDO2 CTAP defines, structures and function declarations.">
<polygon fill="white" stroke="#666666" points="359.5,-103 237,-103 237,-69.5 359.5,-69.5 359.5,-103"/>
<text text-anchor="start" x="245" y="-89.5" font-family="Helvetica,sans-Serif" font-size="10.00">sys/include/fido2/ctap</text>
<text text-anchor="middle" x="298.25" y="-76.75" font-family="Helvetica,sans-Serif" font-size="10.00">/ctap.h</text>
</a>
</g>
</g>
<!-- Node4&#45;&gt;Node5 -->
<g id="edge4_Node000004_Node000005" class="edge">
<title>Node4&#45;&gt;Node5</title>
<g id="a_edge4_Node000004_Node000005"><a xlink:title=" ">
<path fill="none" stroke="#63b8ff" d="M298.25,-127.31C298.25,-119.09 298.25,-110.34 298.25,-103.13"/>
<polygon fill="#63b8ff" stroke="#63b8ff" points="294.75,-127.24 298.25,-137.24 301.75,-127.24 294.75,-127.24"/>
</a>
</g>
</g>
<!-- Node6 -->
<g id="Node000006" class="node">
<title>Node6</title>
<g id="a_Node000006"><a xlink:href="ctap__cbor_8h.html" target="_top" xlink:title="CTAP CBOR helper function declarations.">
<polygon fill="white" stroke="#666666" points="218.5,-33.5 96,-33.5 96,0 218.5,0 218.5,-33.5"/>
<text text-anchor="start" x="104" y="-20" font-family="Helvetica,sans-Serif" font-size="10.00">sys/include/fido2/ctap</text>
<text text-anchor="middle" x="157.25" y="-7.25" font-family="Helvetica,sans-Serif" font-size="10.00">/ctap_cbor.h</text>
</a>
</g>
</g>
<!-- Node5&#45;&gt;Node6 -->
<g id="edge5_Node000005_Node000006" class="edge">
<title>Node5&#45;&gt;Node6</title>
<g id="a_edge5_Node000005_Node000006"><a xlink:title=" ">
<path fill="none" stroke="#63b8ff" d="M254.13,-64.13C233.65,-54.33 209.71,-42.86 190.75,-33.79"/>
<polygon fill="#63b8ff" stroke="#63b8ff" points="252.58,-67.27 263.11,-68.43 255.6,-60.95 252.58,-67.27"/>
</a>
</g>
</g>
<!-- Node7 -->
<g id="Node000007" class="node">
<title>Node7</title>
<g id="a_Node000007"><a xlink:href="ctap__mem_8h.html" target="_top" xlink:title="Definitions for CTAP flash memory helper functions.">
<polygon fill="white" stroke="#666666" points="359.5,-33.5 237,-33.5 237,0 359.5,0 359.5,-33.5"/>
<text text-anchor="start" x="245" y="-20" font-family="Helvetica,sans-Serif" font-size="10.00">sys/include/fido2/ctap</text>
<text text-anchor="middle" x="298.25" y="-7.25" font-family="Helvetica,sans-Serif" font-size="10.00">/ctap_mem.h</text>
</a>
</g>
</g>
<!-- Node5&#45;&gt;Node7 -->
<g id="edge6_Node000005_Node000007" class="edge">
<title>Node5&#45;&gt;Node7</title>
<g id="a_edge6_Node000005_Node000007"><a xlink:title=" ">
<path fill="none" stroke="#63b8ff" d="M298.25,-57.81C298.25,-49.59 298.25,-40.84 298.25,-33.63"/>
<polygon fill="#63b8ff" stroke="#63b8ff" points="294.75,-57.74 298.25,-67.74 301.75,-57.74 294.75,-57.74"/>
</a>
</g>
</g>
<!-- Node8 -->
<g id="Node000008" class="node">
<title>Node8</title>
<g id="a_Node000008"><a xlink:href="ctap__utils_8h.html" target="_top" xlink:title="Definition for CTAP utility functions.">
<polygon fill="white" stroke="#666666" points="500.5,-33.5 378,-33.5 378,0 500.5,0 500.5,-33.5"/>
<text text-anchor="start" x="386" y="-20" font-family="Helvetica,sans-Serif" font-size="10.00">sys/include/fido2/ctap</text>
<text text-anchor="middle" x="439.25" y="-7.25" font-family="Helvetica,sans-Serif" font-size="10.00">/ctap_utils.h</text>
</a>
</g>
</g>
<!-- Node5&#45;&gt;Node8 -->
<g id="edge7_Node000005_Node000008" class="edge">
<title>Node5&#45;&gt;Node8</title>
<g id="a_edge7_Node000005_Node000008"><a xlink:title=" ">
<path fill="none" stroke="#63b8ff" d="M342.37,-64.13C362.85,-54.33 386.79,-42.86 405.75,-33.79"/>
<polygon fill="#63b8ff" stroke="#63b8ff" points="340.9,-60.95 333.39,-68.43 343.92,-67.27 340.9,-60.95"/>
</a>
</g>
</g>
</g>
</svg>
