<?xml version="1.0" encoding="UTF-8" standalone="no"?>
<!DOCTYPE svg PUBLIC "-//W3C//DTD SVG 1.1//EN"
 "http://www.w3.org/Graphics/SVG/1.1/DTD/svg11.dtd">
<!-- Generated by graphviz version 12.1.2 (0)
 -->
<!-- Title: pkg/lwip/include/lwip/netif/compat.h Pages: 1 -->
<svg width="848pt" height="496pt"
 viewBox="0.00 0.00 847.62 495.50" xmlns="http://www.w3.org/2000/svg" xmlns:xlink="http://www.w3.org/1999/xlink">
<g id="graph0" class="graph" transform="scale(1 1) rotate(0) translate(4 491.5)">
<title>pkg/lwip/include/lwip/netif/compat.h</title>
<!-- Node1 -->
<g id="Node000001" class="node">
<title>Node1</title>
<g id="a_Node000001"><a xlink:title="lwIP definition based on common netif_t struct for network stack&#45;independent API.">
<polygon fill="#999999" stroke="#666666" points="707,-487.5 588.25,-487.5 588.25,-454 707,-454 707,-487.5"/>
<text text-anchor="start" x="596.25" y="-474" font-family="Helvetica,sans-Serif" font-size="10.00">pkg/lwip/include/lwip</text>
<text text-anchor="middle" x="647.62" y="-461.25" font-family="Helvetica,sans-Serif" font-size="10.00">/netif/compat.h</text>
</a>
</g>
</g>
<!-- Node2 -->
<g id="Node000002" class="node">
<title>Node2</title>
<g id="a_Node000002"><a xlink:title=" ">
<polygon fill="#e0e0e0" stroke="#999999" points="595,-418 542.25,-418 542.25,-397.25 595,-397.25 595,-418"/>
<text text-anchor="middle" x="568.62" y="-404.5" font-family="Helvetica,sans-Serif" font-size="10.00">event.h</text>
</a>
</g>
</g>
<!-- Node1&#45;&gt;Node2 -->
<g id="edge1_Node000001_Node000002" class="edge">
<title>Node1&#45;&gt;Node2</title>
<g id="a_edge1_Node000001_Node000002"><a xlink:title=" ">
<path fill="none" stroke="#63b8ff" d="M626.87,-453.69C615.58,-444.96 601.64,-434.17 590.22,-425.34"/>
<polygon fill="#63b8ff" stroke="#63b8ff" points="592.59,-422.74 582.54,-419.39 588.31,-428.28 592.59,-422.74"/>
</a>
</g>
</g>
<!-- Node3 -->
<g id="Node000003" class="node">
<title>Node3</title>
<g id="a_Node000003"><a xlink:title=" ">
<polygon fill="#e0e0e0" stroke="#999999" points="682.62,-418 612.62,-418 612.62,-397.25 682.62,-397.25 682.62,-418"/>
<text text-anchor="middle" x="647.62" y="-404.5" font-family="Helvetica,sans-Serif" font-size="10.00">lwip/netif.h</text>
</a>
</g>
</g>
<!-- Node1&#45;&gt;Node3 -->
<g id="edge2_Node000001_Node000003" class="edge">
<title>Node1&#45;&gt;Node3</title>
<g id="a_edge2_Node000001_Node000003"><a xlink:title=" ">
<path fill="none" stroke="#63b8ff" d="M647.62,-453.69C647.62,-446.35 647.62,-437.57 647.62,-429.71"/>
<polygon fill="#63b8ff" stroke="#63b8ff" points="651.13,-429.98 647.63,-419.98 644.13,-429.98 651.13,-429.98"/>
</a>
</g>
</g>
<!-- Node4 -->
<g id="Node000004" class="node">
<title>Node4</title>
<g id="a_Node000004"><a xlink:href="netif_8h.html" target="_top" xlink:title="Common network interface API definitions.">
<polygon fill="white" stroke="#666666" points="766.38,-418 700.88,-418 700.88,-397.25 766.38,-397.25 766.38,-418"/>
<text text-anchor="middle" x="733.62" y="-404.5" font-family="Helvetica,sans-Serif" font-size="10.00">net/netif.h</text>
</a>
</g>
</g>
<!-- Node1&#45;&gt;Node4 -->
<g id="edge3_Node000001_Node000004" class="edge">
<title>Node1&#45;&gt;Node4</title>
<g id="a_edge3_Node000001_Node000004"><a xlink:title=" ">
<path fill="none" stroke="#63b8ff" d="M670.22,-453.69C682.63,-444.87 697.99,-433.95 710.48,-425.07"/>
<polygon fill="#63b8ff" stroke="#63b8ff" points="712.42,-427.99 718.54,-419.34 708.37,-422.28 712.42,-427.99"/>
</a>
</g>
</g>
<!-- Node5 -->
<g id="Node000005" class="node">
<title>Node5</title>
<g id="a_Node000005"><a xlink:title=" ">
<polygon fill="#e0e0e0" stroke="#999999" points="328,-20.75 275.25,-20.75 275.25,0 328,0 328,-20.75"/>
<text text-anchor="middle" x="301.62" y="-7.25" font-family="Helvetica,sans-Serif" font-size="10.00">stdint.h</text>
</a>
</g>
</g>
<!-- Node4&#45;&gt;Node5 -->
<g id="edge4_Node000004_Node000005" class="edge">
<title>Node4&#45;&gt;Node5</title>
<g id="a_edge4_Node000004_Node000005"><a xlink:title=" ">
<path fill="none" stroke="#63b8ff" d="M739.4,-396.86C750.03,-377.93 771.62,-334.6 771.62,-295.12 771.62,-295.12 771.62,-295.12 771.62,-122.88 771.62,-34.27 451.43,-15.97 339.61,-12.28"/>
<polygon fill="#63b8ff" stroke="#63b8ff" points="339.86,-8.79 329.75,-11.98 339.64,-15.79 339.86,-8.79"/>
</a>
</g>
</g>
<!-- Node6 -->
<g id="Node000006" class="node">
<title>Node6</title>
<g id="a_Node000006"><a xlink:title=" ">
<polygon fill="#e0e0e0" stroke="#999999" points="603,-77.5 550.25,-77.5 550.25,-56.75 603,-56.75 603,-77.5"/>
<text text-anchor="middle" x="576.62" y="-64" font-family="Helvetica,sans-Serif" font-size="10.00">string.h</text>
</a>
</g>
</g>
<!-- Node4&#45;&gt;Node6 -->
<g id="edge5_Node000004_Node000006" class="edge">
<title>Node4&#45;&gt;Node6</title>
<g id="a_edge5_Node000004_Node000006"><a xlink:title=" ">
<path fill="none" stroke="#63b8ff" d="M733.62,-396.78C733.62,-377.35 733.62,-332.68 733.62,-295.12 733.62,-295.12 733.62,-295.12 733.62,-236.38 733.62,-162.99 652.79,-108.29 607.13,-83.25"/>
<polygon fill="#63b8ff" stroke="#63b8ff" points="608.96,-80.26 598.49,-78.65 605.67,-86.44 608.96,-80.26"/>
</a>
</g>
</g>
<!-- Node7 -->
<g id="Node000007" class="node">
<title>Node7</title>
<g id="a_Node000007"><a xlink:href="list_8h.html" target="_top" xlink:title="Intrusive linked list.">
<polygon fill="white" stroke="#666666" points="839.62,-361.25 799.62,-361.25 799.62,-340.5 839.62,-340.5 839.62,-361.25"/>
<text text-anchor="middle" x="819.62" y="-347.75" font-family="Helvetica,sans-Serif" font-size="10.00">list.h</text>
</a>
</g>
</g>
<!-- Node4&#45;&gt;Node7 -->
<g id="edge6_Node000004_Node000007" class="edge">
<title>Node4&#45;&gt;Node7</title>
<g id="a_edge6_Node000004_Node000007"><a xlink:title=" ">
<path fill="none" stroke="#63b8ff" d="M749,-396.84C761.72,-388.74 780.03,-377.08 794.82,-367.67"/>
<polygon fill="#63b8ff" stroke="#63b8ff" points="796.55,-370.71 803.11,-362.39 792.79,-364.81 796.55,-370.71"/>
</a>
</g>
</g>
<!-- Node8 -->
<g id="Node000008" class="node">
<title>Node8</title>
<g id="a_Node000008"><a xlink:href="netopt_8h.html" target="_top" xlink:title="Definition of global configuration options.">
<polygon fill="white" stroke="#666666" points="75.25,-191 0,-191 0,-170.25 75.25,-170.25 75.25,-191"/>
<text text-anchor="middle" x="37.62" y="-177.5" font-family="Helvetica,sans-Serif" font-size="10.00">net/netopt.h</text>
</a>
</g>
</g>
<!-- Node4&#45;&gt;Node8 -->
<g id="edge7_Node000004_Node000008" class="edge">
<title>Node4&#45;&gt;Node8</title>
<g id="a_edge7_Node000004_Node000008"><a xlink:title=" ">
<path fill="none" stroke="#63b8ff" d="M700.68,-398.88C697.63,-398.28 694.58,-397.73 691.62,-397.25 533.75,-371.79 485.28,-411.98 333.62,-361.25 220,-323.24 103.87,-235.53 58.02,-198.55"/>
<polygon fill="#63b8ff" stroke="#63b8ff" points="60.46,-196.03 50.5,-192.42 56.04,-201.45 60.46,-196.03"/>
</a>
</g>
</g>
<!-- Node10 -->
<g id="Node000010" class="node">
<title>Node10</title>
<g id="a_Node000010"><a xlink:href="ipv6_8h.html" target="_top" xlink:title="IPv6 include gathering header.">
<polygon fill="white" stroke="#666666" points="407,-361.25 342.25,-361.25 342.25,-340.5 407,-340.5 407,-361.25"/>
<text text-anchor="middle" x="374.62" y="-347.75" font-family="Helvetica,sans-Serif" font-size="10.00">net/ipv6.h</text>
</a>
</g>
</g>
<!-- Node4&#45;&gt;Node10 -->
<g id="edge10_Node000004_Node000010" class="edge">
<title>Node4&#45;&gt;Node10</title>
<g id="a_edge10_Node000004_Node000010"><a xlink:title=" ">
<path fill="none" stroke="#63b8ff" d="M700.66,-399.01C697.61,-398.39 694.56,-397.79 691.62,-397.25 594.52,-379.49 479.62,-364.54 418.32,-357.04"/>
<polygon fill="#63b8ff" stroke="#63b8ff" points="419.01,-353.6 408.66,-355.87 418.17,-360.55 419.01,-353.6"/>
</a>
</g>
</g>
<!-- Node8&#45;&gt;Node5 -->
<g id="edge8_Node000008_Node000005" class="edge">
<title>Node8&#45;&gt;Node5</title>
<g id="a_edge8_Node000008_Node000005"><a xlink:title=" ">
<path fill="none" stroke="#63b8ff" d="M37.6,-169.91C38.1,-146.58 42.81,-87.09 76.62,-56.75 103.76,-32.4 207.06,-19.68 263.78,-14.4"/>
<polygon fill="#63b8ff" stroke="#63b8ff" points="263.97,-17.9 273.62,-13.52 263.35,-10.93 263.97,-17.9"/>
</a>
</g>
</g>
<!-- Node9 -->
<g id="Node000009" class="node">
<title>Node9</title>
<g id="a_Node000009"><a xlink:title=" ">
<polygon fill="#e0e0e0" stroke="#999999" points="333.12,-134.25 272.12,-134.25 272.12,-113.5 333.12,-113.5 333.12,-134.25"/>
<text text-anchor="middle" x="302.62" y="-120.75" font-family="Helvetica,sans-Serif" font-size="10.00">stdbool.h</text>
</a>
</g>
</g>
<!-- Node8&#45;&gt;Node9 -->
<g id="edge9_Node000008_Node000009" class="edge">
<title>Node8&#45;&gt;Node9</title>
<g id="a_edge9_Node000008_Node000009"><a xlink:title=" ">
<path fill="none" stroke="#63b8ff" d="M75.59,-171.78C124.59,-161.66 209.56,-144.1 260.5,-133.58"/>
<polygon fill="#63b8ff" stroke="#63b8ff" points="261.18,-137.01 270.26,-131.56 259.76,-130.16 261.18,-137.01"/>
</a>
</g>
</g>
<!-- Node11 -->
<g id="Node000011" class="node">
<title>Node11</title>
<g id="a_Node000011"><a xlink:href="ipv6_2addr_8h.html" target="_top" xlink:title="Definitions for IPv6 addresses.">
<polygon fill="white" stroke="#666666" points="381.38,-247.75 291.88,-247.75 291.88,-227 381.38,-227 381.38,-247.75"/>
<text text-anchor="middle" x="336.62" y="-234.25" font-family="Helvetica,sans-Serif" font-size="10.00">net/ipv6/addr.h</text>
</a>
</g>
</g>
<!-- Node10&#45;&gt;Node11 -->
<g id="edge11_Node000010_Node000011" class="edge">
<title>Node10&#45;&gt;Node11</title>
<g id="a_edge11_Node000010_Node000011"><a xlink:title=" ">
<path fill="none" stroke="#63b8ff" d="M371.14,-340.16C367.87,-330.98 362.85,-316.83 358.62,-304.5 353.34,-289.08 347.52,-271.57 343.2,-258.45"/>
<polygon fill="#63b8ff" stroke="#63b8ff" points="346.62,-257.66 340.18,-249.25 339.97,-259.84 346.62,-257.66"/>
</a>
</g>
</g>
<!-- Node17 -->
<g id="Node000017" class="node">
<title>Node17</title>
<g id="a_Node000017"><a xlink:href="ipv6_2ext_8h.html" target="_top" xlink:title="IPv6 extension header definitions.">
<polygon fill="white" stroke="#666666" points="244.38,-247.75 160.88,-247.75 160.88,-227 244.38,-227 244.38,-247.75"/>
<text text-anchor="middle" x="202.62" y="-234.25" font-family="Helvetica,sans-Serif" font-size="10.00">net/ipv6/ext.h</text>
</a>
</g>
</g>
<!-- Node10&#45;&gt;Node17 -->
<g id="edge26_Node000010_Node000017" class="edge">
<title>Node10&#45;&gt;Node17</title>
<g id="a_edge26_Node000010_Node000017"><a xlink:title=" ">
<path fill="none" stroke="#63b8ff" d="M359.66,-340.18C329.93,-320.9 263.17,-277.62 227.01,-254.18"/>
<polygon fill="#63b8ff" stroke="#63b8ff" points="229.24,-251.46 218.95,-248.96 225.43,-257.33 229.24,-251.46"/>
</a>
</g>
</g>
<!-- Node20 -->
<g id="Node000020" class="node">
<title>Node20</title>
<g id="a_Node000020"><a xlink:href="net_2ipv6_2hdr_8h.html" target="_top" xlink:title="IPv6 header type and helper function definitions.">
<polygon fill="white" stroke="#666666" points="451.38,-304.5 367.88,-304.5 367.88,-283.75 451.38,-283.75 451.38,-304.5"/>
<text text-anchor="middle" x="409.62" y="-291" font-family="Helvetica,sans-Serif" font-size="10.00">net/ipv6/hdr.h</text>
</a>
</g>
</g>
<!-- Node10&#45;&gt;Node20 -->
<g id="edge34_Node000010_Node000020" class="edge">
<title>Node10&#45;&gt;Node20</title>
<g id="a_edge34_Node000010_Node000020"><a xlink:title=" ">
<path fill="none" stroke="#63b8ff" d="M380.88,-340.09C385.46,-332.92 391.82,-322.98 397.39,-314.26"/>
<polygon fill="#63b8ff" stroke="#63b8ff" points="400.17,-316.41 402.61,-306.1 394.27,-312.64 400.17,-316.41"/>
</a>
</g>
</g>
<!-- Node11&#45;&gt;Node6 -->
<g id="edge13_Node000011_Node000006" class="edge">
<title>Node11&#45;&gt;Node6</title>
<g id="a_edge13_Node000011_Node000006"><a xlink:title=" ">
<path fill="none" stroke="#63b8ff" d="M381.81,-234C421.05,-229.99 477.82,-219.31 518.62,-191 553.07,-167.11 567.64,-117.18 573.33,-88.87"/>
<polygon fill="#63b8ff" stroke="#63b8ff" points="576.72,-89.83 575.04,-79.37 569.83,-88.59 576.72,-89.83"/>
</a>
</g>
</g>
<!-- Node11&#45;&gt;Node9 -->
<g id="edge12_Node000011_Node000009" class="edge">
<title>Node11&#45;&gt;Node9</title>
<g id="a_edge12_Node000011_Node000009"><a xlink:title=" ">
<path fill="none" stroke="#63b8ff" d="M333.73,-226.87C328.26,-208.94 316.31,-169.75 308.92,-145.51"/>
<polygon fill="#63b8ff" stroke="#63b8ff" points="312.32,-144.67 306.05,-136.12 305.62,-146.71 312.32,-144.67"/>
</a>
</g>
</g>
<!-- Node12 -->
<g id="Node000012" class="node">
<title>Node12</title>
<g id="a_Node000012"><a xlink:href="byteorder_8h.html" target="_top" xlink:title="Functions to work with different byte orders.">
<polygon fill="white" stroke="#666666" points="423.75,-134.25 351.5,-134.25 351.5,-113.5 423.75,-113.5 423.75,-134.25"/>
<text text-anchor="middle" x="387.62" y="-120.75" font-family="Helvetica,sans-Serif" font-size="10.00">byteorder.h</text>
</a>
</g>
</g>
<!-- Node11&#45;&gt;Node12 -->
<g id="edge14_Node000011_Node000012" class="edge">
<title>Node11&#45;&gt;Node12</title>
<g id="a_edge14_Node000011_Node000012"><a xlink:title=" ">
<path fill="none" stroke="#63b8ff" d="M340.97,-226.87C349.25,-208.77 367.43,-169.03 378.49,-144.85"/>
<polygon fill="#63b8ff" stroke="#63b8ff" points="381.54,-146.6 382.51,-136.05 375.17,-143.69 381.54,-146.6"/>
</a>
</g>
</g>
<!-- Node15 -->
<g id="Node000015" class="node">
<title>Node15</title>
<g id="a_Node000015"><a xlink:href="ipv4_2addr_8h.html" target="_top" xlink:title="IPv4 address type and helper functions definitions.">
<polygon fill="white" stroke="#666666" points="509.38,-191 419.88,-191 419.88,-170.25 509.38,-170.25 509.38,-191"/>
<text text-anchor="middle" x="464.62" y="-177.5" font-family="Helvetica,sans-Serif" font-size="10.00">net/ipv4/addr.h</text>
</a>
</g>
</g>
<!-- Node11&#45;&gt;Node15 -->
<g id="edge21_Node000011_Node000015" class="edge">
<title>Node11&#45;&gt;Node15</title>
<g id="a_edge21_Node000011_Node000015"><a xlink:title=" ">
<path fill="none" stroke="#63b8ff" d="M359.51,-226.59C379.53,-218.02 408.86,-205.48 431.46,-195.81"/>
<polygon fill="#63b8ff" stroke="#63b8ff" points="432.73,-199.07 440.55,-191.92 429.98,-192.64 432.73,-199.07"/>
</a>
</g>
</g>
<!-- Node12&#45;&gt;Node5 -->
<g id="edge16_Node000012_Node000005" class="edge">
<title>Node12&#45;&gt;Node5</title>
<g id="a_edge16_Node000012_Node000005"><a xlink:title=" ">
<path fill="none" stroke="#63b8ff" d="M357.8,-113.07C331.95,-103.89 297.47,-89.78 289.62,-77.5 280.8,-63.69 285.27,-45.13 291.11,-31.19"/>
<polygon fill="#63b8ff" stroke="#63b8ff" points="294.08,-33.08 295.2,-22.54 287.76,-30.08 294.08,-33.08"/>
</a>
</g>
</g>
<!-- Node12&#45;&gt;Node6 -->
<g id="edge15_Node000012_Node000006" class="edge">
<title>Node12&#45;&gt;Node6</title>
<g id="a_edge15_Node000012_Node000006"><a xlink:title=" ">
<path fill="none" stroke="#63b8ff" d="M421.41,-113.09C454.42,-103.53 504.56,-89 538.87,-79.06"/>
<polygon fill="#63b8ff" stroke="#63b8ff" points="539.76,-82.45 548.39,-76.3 537.81,-75.72 539.76,-82.45"/>
</a>
</g>
</g>
<!-- Node13 -->
<g id="Node000013" class="node">
<title>Node13</title>
<g id="a_Node000013"><a xlink:href="endian_8h.html" target="_top" xlink:title="libc header for endian conversion">
<polygon fill="white" stroke="#666666" points="447.62,-77.5 389.62,-77.5 389.62,-56.75 447.62,-56.75 447.62,-77.5"/>
<text text-anchor="middle" x="418.62" y="-64" font-family="Helvetica,sans-Serif" font-size="10.00">endian.h</text>
</a>
</g>
</g>
<!-- Node12&#45;&gt;Node13 -->
<g id="edge17_Node000012_Node000013" class="edge">
<title>Node12&#45;&gt;Node13</title>
<g id="a_edge17_Node000012_Node000013"><a xlink:title=" ">
<path fill="none" stroke="#63b8ff" d="M393.17,-113.09C397.13,-106.08 402.61,-96.41 407.47,-87.83"/>
<polygon fill="#63b8ff" stroke="#63b8ff" points="410.5,-89.57 412.39,-79.15 404.41,-86.12 410.5,-89.57"/>
</a>
</g>
</g>
<!-- Node14 -->
<g id="Node000014" class="node">
<title>Node14</title>
<g id="a_Node000014"><a xlink:href="unaligned_8h.html" target="_top" xlink:title="Unaligned but safe memory access functions.">
<polygon fill="white" stroke="#666666" points="371.12,-77.5 298.12,-77.5 298.12,-56.75 371.12,-56.75 371.12,-77.5"/>
<text text-anchor="middle" x="334.62" y="-64" font-family="Helvetica,sans-Serif" font-size="10.00">unaligned.h</text>
</a>
</g>
</g>
<!-- Node12&#45;&gt;Node14 -->
<g id="edge19_Node000012_Node000014" class="edge">
<title>Node12&#45;&gt;Node14</title>
<g id="a_edge19_Node000012_Node000014"><a xlink:title=" ">
<path fill="none" stroke="#63b8ff" d="M378.15,-113.09C370.84,-105.53 360.53,-94.89 351.78,-85.85"/>
<polygon fill="#63b8ff" stroke="#63b8ff" points="354.54,-83.67 345.07,-78.92 349.51,-88.54 354.54,-83.67"/>
</a>
</g>
</g>
<!-- Node13&#45;&gt;Node5 -->
<g id="edge18_Node000013_Node000005" class="edge">
<title>Node13&#45;&gt;Node5</title>
<g id="a_edge18_Node000013_Node000005"><a xlink:title=" ">
<path fill="none" stroke="#63b8ff" d="M397.71,-56.34C379.66,-47.89 353.32,-35.57 332.79,-25.96"/>
<polygon fill="#63b8ff" stroke="#63b8ff" points="334.27,-22.79 323.73,-21.72 331.31,-29.13 334.27,-22.79"/>
</a>
</g>
</g>
<!-- Node14&#45;&gt;Node5 -->
<g id="edge20_Node000014_Node000005" class="edge">
<title>Node14&#45;&gt;Node5</title>
<g id="a_edge20_Node000014_Node000005"><a xlink:title=" ">
<path fill="none" stroke="#63b8ff" d="M328.73,-56.34C324.45,-49.25 318.54,-39.44 313.33,-30.79"/>
<polygon fill="#63b8ff" stroke="#63b8ff" points="316.41,-29.13 308.25,-22.37 310.42,-32.75 316.41,-29.13"/>
</a>
</g>
</g>
<!-- Node15&#45;&gt;Node5 -->
<g id="edge23_Node000015_Node000005" class="edge">
<title>Node15&#45;&gt;Node5</title>
<g id="a_edge23_Node000015_Node000005"><a xlink:title=" ">
<path fill="none" stroke="#63b8ff" d="M467.31,-170.03C473,-147.47 483.63,-90.45 456.62,-56.75 428.7,-21.9 375.53,-12.85 339.33,-10.99"/>
<polygon fill="#63b8ff" stroke="#63b8ff" points="339.86,-7.5 329.74,-10.66 339.62,-14.5 339.86,-7.5"/>
</a>
</g>
</g>
<!-- Node15&#45;&gt;Node9 -->
<g id="edge22_Node000015_Node000009" class="edge">
<title>Node15&#45;&gt;Node9</title>
<g id="a_edge22_Node000015_Node000009"><a xlink:title=" ">
<path fill="none" stroke="#63b8ff" d="M435.66,-169.84C409.6,-161.03 371.06,-148 342.17,-138.24"/>
<polygon fill="#63b8ff" stroke="#63b8ff" points="343.64,-135.04 333.04,-135.16 341.4,-141.67 343.64,-135.04"/>
</a>
</g>
</g>
<!-- Node15&#45;&gt;Node12 -->
<g id="edge25_Node000015_Node000012" class="edge">
<title>Node15&#45;&gt;Node12</title>
<g id="a_edge25_Node000015_Node000012"><a xlink:title=" ">
<path fill="none" stroke="#63b8ff" d="M450.86,-169.84C439.69,-161.9 423.71,-150.53 410.6,-141.21"/>
<polygon fill="#63b8ff" stroke="#63b8ff" points="412.68,-138.4 402.51,-135.46 408.63,-144.1 412.68,-138.4"/>
</a>
</g>
</g>
<!-- Node16 -->
<g id="Node000016" class="node">
<title>Node16</title>
<g id="a_Node000016"><a xlink:title=" ">
<polygon fill="#e0e0e0" stroke="#999999" points="548.12,-134.25 493.12,-134.25 493.12,-113.5 548.12,-113.5 548.12,-134.25"/>
<text text-anchor="middle" x="520.62" y="-120.75" font-family="Helvetica,sans-Serif" font-size="10.00">stddef.h</text>
</a>
</g>
</g>
<!-- Node15&#45;&gt;Node16 -->
<g id="edge24_Node000015_Node000016" class="edge">
<title>Node15&#45;&gt;Node16</title>
<g id="a_edge24_Node000015_Node000016"><a xlink:title=" ">
<path fill="none" stroke="#63b8ff" d="M474.64,-169.84C482.36,-162.28 493.25,-151.64 502.5,-142.6"/>
<polygon fill="#63b8ff" stroke="#63b8ff" points="504.91,-145.13 509.62,-135.64 500.02,-140.12 504.91,-145.13"/>
</a>
</g>
</g>
<!-- Node17&#45;&gt;Node5 -->
<g id="edge27_Node000017_Node000005" class="edge">
<title>Node17&#45;&gt;Node5</title>
<g id="a_edge27_Node000017_Node000005"><a xlink:title=" ">
<path fill="none" stroke="#63b8ff" d="M185.11,-226.61C151.86,-206.72 85.02,-159.51 109.62,-113.5 140.4,-55.95 217.15,-29.56 263.76,-18.48"/>
<polygon fill="#63b8ff" stroke="#63b8ff" points="264.44,-21.92 273.43,-16.32 262.91,-15.09 264.44,-21.92"/>
</a>
</g>
</g>
<!-- Node18 -->
<g id="Node000018" class="node">
<title>Node18</title>
<g id="a_Node000018"><a xlink:href="ipv6_2ext_2frag_8h.html" target="_top" xlink:title="Fragmentation extension definitions.">
<polygon fill="white" stroke="#666666" points="287.62,-191 181.62,-191 181.62,-170.25 287.62,-170.25 287.62,-191"/>
<text text-anchor="middle" x="234.62" y="-177.5" font-family="Helvetica,sans-Serif" font-size="10.00">net/ipv6/ext/frag.h</text>
</a>
</g>
</g>
<!-- Node17&#45;&gt;Node18 -->
<g id="edge28_Node000017_Node000018" class="edge">
<title>Node17&#45;&gt;Node18</title>
<g id="a_edge28_Node000017_Node000018"><a xlink:title=" ">
<path fill="none" stroke="#63b8ff" d="M208.35,-226.59C212.49,-219.5 218.22,-209.69 223.28,-201.04"/>
<polygon fill="#63b8ff" stroke="#63b8ff" points="226.17,-203.03 228.19,-192.64 220.12,-199.5 226.17,-203.03"/>
</a>
</g>
</g>
<!-- Node19 -->
<g id="Node000019" class="node">
<title>Node19</title>
<g id="a_Node000019"><a xlink:href="ipv6_2ext_2rh_8h.html" target="_top" xlink:title="Routing extension header definitions.">
<polygon fill="white" stroke="#666666" points="214.75,-134.25 118.5,-134.25 118.5,-113.5 214.75,-113.5 214.75,-134.25"/>
<text text-anchor="middle" x="166.62" y="-120.75" font-family="Helvetica,sans-Serif" font-size="10.00">net/ipv6/ext/rh.h</text>
</a>
</g>
</g>
<!-- Node17&#45;&gt;Node19 -->
<g id="edge32_Node000017_Node000019" class="edge">
<title>Node17&#45;&gt;Node19</title>
<g id="a_edge32_Node000017_Node000019"><a xlink:title=" ">
<path fill="none" stroke="#63b8ff" d="M194.15,-226.7C187.06,-218 177.38,-204.55 172.62,-191 167.54,-176.49 166.12,-159.15 165.93,-145.87"/>
<polygon fill="#63b8ff" stroke="#63b8ff" points="169.43,-146.15 166.03,-136.12 162.43,-146.08 169.43,-146.15"/>
</a>
</g>
</g>
<!-- Node18&#45;&gt;Node5 -->
<g id="edge30_Node000018_Node000005" class="edge">
<title>Node18&#45;&gt;Node5</title>
<g id="a_edge30_Node000018_Node000005"><a xlink:title=" ">
<path fill="none" stroke="#63b8ff" d="M237.96,-169.97C245.23,-149.11 263.24,-98.36 280.62,-56.75 284.13,-48.36 288.29,-39.23 291.97,-31.38"/>
<polygon fill="#63b8ff" stroke="#63b8ff" points="295.12,-32.92 296.25,-22.38 288.8,-29.91 295.12,-32.92"/>
</a>
</g>
</g>
<!-- Node18&#45;&gt;Node9 -->
<g id="edge29_Node000018_Node000009" class="edge">
<title>Node18&#45;&gt;Node9</title>
<g id="a_edge29_Node000018_Node000009"><a xlink:title=" ">
<path fill="none" stroke="#63b8ff" d="M246.78,-169.84C256.45,-162.05 270.21,-150.97 281.65,-141.76"/>
<polygon fill="#63b8ff" stroke="#63b8ff" points="283.8,-144.53 289.39,-135.53 279.41,-139.07 283.8,-144.53"/>
</a>
</g>
</g>
<!-- Node18&#45;&gt;Node12 -->
<g id="edge31_Node000018_Node000012" class="edge">
<title>Node18&#45;&gt;Node12</title>
<g id="a_edge31_Node000018_Node000012"><a xlink:title=" ">
<path fill="none" stroke="#63b8ff" d="M261.98,-169.84C286.38,-161.11 322.35,-148.23 349.56,-138.5"/>
<polygon fill="#63b8ff" stroke="#63b8ff" points="350.59,-141.85 358.83,-135.18 348.23,-135.25 350.59,-141.85"/>
</a>
</g>
</g>
<!-- Node19&#45;&gt;Node5 -->
<g id="edge33_Node000019_Node000005" class="edge">
<title>Node19&#45;&gt;Node5</title>
<g id="a_edge33_Node000019_Node000005"><a xlink:title=" ">
<path fill="none" stroke="#63b8ff" d="M172.18,-113.32C180.61,-99.48 197.74,-73.65 217.62,-56.75 232.44,-44.16 251.31,-33.58 267.42,-25.81"/>
<polygon fill="#63b8ff" stroke="#63b8ff" points="268.56,-29.14 276.16,-21.76 265.61,-22.79 268.56,-29.14"/>
</a>
</g>
</g>
<!-- Node20&#45;&gt;Node5 -->
<g id="edge35_Node000020_Node000005" class="edge">
<title>Node20&#45;&gt;Node5</title>
<g id="a_edge35_Node000020_Node000005"><a xlink:title=" ">
<path fill="none" stroke="#63b8ff" d="M451.84,-291.86C498.48,-288.85 574.54,-279.06 631.62,-247.75 667.49,-228.08 695.62,-222.52 695.62,-181.62 695.62,-181.62 695.62,-181.62 695.62,-122.88 695.62,-75.36 655.27,-75.52 611.62,-56.75 519.57,-17.17 399.48,-11.06 339.36,-10.74"/>
<polygon fill="#63b8ff" stroke="#63b8ff" points="339.68,-7.24 329.68,-10.75 339.68,-14.24 339.68,-7.24"/>
</a>
</g>
</g>
<!-- Node20&#45;&gt;Node11 -->
<g id="edge40_Node000020_Node000011" class="edge">
<title>Node20&#45;&gt;Node11</title>
<g id="a_edge40_Node000020_Node000011"><a xlink:title=" ">
<path fill="none" stroke="#63b8ff" d="M396.57,-283.34C385.99,-275.4 370.83,-264.03 358.41,-254.71"/>
<polygon fill="#63b8ff" stroke="#63b8ff" points="360.87,-252.19 350.77,-248.99 356.67,-257.79 360.87,-252.19"/>
</a>
</g>
</g>
<!-- Node20&#45;&gt;Node12 -->
<g id="edge36_Node000020_Node000012" class="edge">
<title>Node20&#45;&gt;Node12</title>
<g id="a_edge36_Node000020_Node000012"><a xlink:title=" ">
<path fill="none" stroke="#63b8ff" d="M408.38,-283.6C404.93,-257.23 395.2,-182.83 390.39,-146.03"/>
<polygon fill="#63b8ff" stroke="#63b8ff" points="393.88,-145.68 389.11,-136.22 386.93,-146.59 393.88,-145.68"/>
</a>
</g>
</g>
<!-- Node21 -->
<g id="Node000021" class="node">
<title>Node21</title>
<g id="a_Node000021"><a xlink:href="inet__csum_8h.html" target="_top" xlink:title="Internet Checksum definitions.">
<polygon fill="white" stroke="#666666" points="622.62,-247.75 528.62,-247.75 528.62,-227 622.62,-227 622.62,-247.75"/>
<text text-anchor="middle" x="575.62" y="-234.25" font-family="Helvetica,sans-Serif" font-size="10.00">net/inet_csum.h</text>
</a>
</g>
</g>
<!-- Node20&#45;&gt;Node21 -->
<g id="edge37_Node000020_Node000021" class="edge">
<title>Node20&#45;&gt;Node21</title>
<g id="a_edge37_Node000020_Node000021"><a xlink:title=" ">
<path fill="none" stroke="#63b8ff" d="M439.3,-283.34C466.01,-274.53 505.5,-261.5 535.11,-251.74"/>
<polygon fill="#63b8ff" stroke="#63b8ff" points="536.09,-255.1 544.49,-248.64 533.89,-248.45 536.09,-255.1"/>
</a>
</g>
</g>
<!-- Node21&#45;&gt;Node16 -->
<g id="edge39_Node000021_Node000016" class="edge">
<title>Node21&#45;&gt;Node16</title>
<g id="a_edge39_Node000021_Node000016"><a xlink:title=" ">
<path fill="none" stroke="#63b8ff" d="M570.94,-226.87C562.01,-208.77 542.41,-169.03 530.48,-144.85"/>
<polygon fill="#63b8ff" stroke="#63b8ff" points="533.69,-143.45 526.13,-136.03 527.41,-146.55 533.69,-143.45"/>
</a>
</g>
</g>
<!-- Node22 -->
<g id="Node000022" class="node">
<title>Node22</title>
<g id="a_Node000022"><a xlink:href="inttypes_8h.html" target="_top" xlink:title="Adds include for missing inttype definitions.">
<polygon fill="white" stroke="#666666" points="668,-191 603.25,-191 603.25,-170.25 668,-170.25 668,-191"/>
<text text-anchor="middle" x="635.62" y="-177.5" font-family="Helvetica,sans-Serif" font-size="10.00">inttypes.h</text>
</a>
</g>
</g>
<!-- Node21&#45;&gt;Node22 -->
<g id="edge38_Node000021_Node000022" class="edge">
<title>Node21&#45;&gt;Node22</title>
<g id="a_edge38_Node000021_Node000022"><a xlink:title=" ">
<path fill="none" stroke="#63b8ff" d="M586.35,-226.59C594.71,-218.96 606.54,-208.17 616.51,-199.07"/>
<polygon fill="#63b8ff" stroke="#63b8ff" points="618.85,-201.67 623.87,-192.35 614.13,-196.5 618.85,-201.67"/>
</a>
</g>
</g>
</g>
</svg>
