<?xml version="1.0" encoding="UTF-8" standalone="no"?>
<!DOCTYPE svg PUBLIC "-//W3C//DTD SVG 1.1//EN"
 "http://www.w3.org/Graphics/SVG/1.1/DTD/svg11.dtd">
<!-- Generated by graphviz version 12.1.2 (0)
 -->
<!-- Title: sys/cpp11&#45;compat/include/riot/condition_variable.hpp Pages: 1 -->
<svg width="1334pt" height="723pt"
 viewBox="0.00 0.00 1334.12 722.50" xmlns="http://www.w3.org/2000/svg" xmlns:xlink="http://www.w3.org/1999/xlink">
<g id="graph0" class="graph" transform="scale(1 1) rotate(0) translate(4 718.5)">
<title>sys/cpp11&#45;compat/include/riot/condition_variable.hpp</title>
<!-- Node1 -->
<g id="Node000001" class="node">
<title>Node1</title>
<g id="a_Node000001"><a xlink:title="C++11 condition variable drop in replacement.">
<polygon fill="#999999" stroke="#666666" points="419.12,-714.5 269.62,-714.5 269.62,-681 419.12,-681 419.12,-714.5"/>
<text text-anchor="start" x="277.62" y="-701" font-family="Helvetica,sans-Serif" font-size="10.00">sys/cpp11&#45;compat/include</text>
<text text-anchor="middle" x="344.38" y="-688.25" font-family="Helvetica,sans-Serif" font-size="10.00">/riot/condition_variable.hpp</text>
</a>
</g>
</g>
<!-- Node2 -->
<g id="Node000002" class="node">
<title>Node2</title>
<g id="a_Node000002"><a xlink:href="sched_8h.html" target="_top" xlink:title="Scheduler API definition.">
<polygon fill="white" stroke="#666666" points="508.12,-247.75 454.62,-247.75 454.62,-227 508.12,-227 508.12,-247.75"/>
<text text-anchor="middle" x="481.38" y="-234.25" font-family="Helvetica,sans-Serif" font-size="10.00">sched.h</text>
</a>
</g>
</g>
<!-- Node1&#45;&gt;Node2 -->
<g id="edge1_Node000001_Node000002" class="edge">
<title>Node1&#45;&gt;Node2</title>
<g id="a_edge1_Node000001_Node000002"><a xlink:title=" ">
<path fill="none" stroke="#63b8ff" d="M332.84,-680.74C295.51,-628.88 180.38,-468.68 180.38,-465.38 180.38,-465.38 180.38,-465.38 180.38,-406.62 180.38,-347.02 362.5,-278.34 443.42,-250.77"/>
<polygon fill="#63b8ff" stroke="#63b8ff" points="444.34,-254.15 452.7,-247.64 442.1,-247.52 444.34,-254.15"/>
</a>
</g>
</g>
<!-- Node16 -->
<g id="Node000016" class="node">
<title>Node16</title>
<g id="a_Node000016"><a xlink:href="ztimer64_8h.html" target="_top" xlink:title="ztimer 64bit API">
<polygon fill="white" stroke="#666666" points="378.62,-588.25 310.12,-588.25 310.12,-567.5 378.62,-567.5 378.62,-588.25"/>
<text text-anchor="middle" x="344.38" y="-574.75" font-family="Helvetica,sans-Serif" font-size="10.00">ztimer64.h</text>
</a>
</g>
</g>
<!-- Node1&#45;&gt;Node16 -->
<g id="edge20_Node000001_Node000016" class="edge">
<title>Node1&#45;&gt;Node16</title>
<g id="a_edge20_Node000001_Node000016"><a xlink:title=" ">
<path fill="none" stroke="#63b8ff" d="M344.38,-680.85C344.38,-659.96 344.38,-623.21 344.38,-600"/>
<polygon fill="#63b8ff" stroke="#63b8ff" points="347.88,-600.2 344.38,-590.2 340.88,-600.2 347.88,-600.2"/>
</a>
</g>
</g>
<!-- Node31 -->
<g id="Node000031" class="node">
<title>Node31</title>
<g id="a_Node000031"><a xlink:href="priority__queue_8h.html" target="_top" xlink:title="A simple priority queue.">
<polygon fill="white" stroke="#666666" points="1326.12,-134.25 1230.62,-134.25 1230.62,-113.5 1326.12,-113.5 1326.12,-134.25"/>
<text text-anchor="middle" x="1278.38" y="-120.75" font-family="Helvetica,sans-Serif" font-size="10.00">priority_queue.h</text>
</a>
</g>
</g>
<!-- Node1&#45;&gt;Node31 -->
<g id="edge59_Node000001_Node000031" class="edge">
<title>Node1&#45;&gt;Node31</title>
<g id="a_edge59_Node000001_Node000031"><a xlink:title=" ">
<path fill="none" stroke="#63b8ff" d="M419.25,-694.94C637.78,-688.65 1259.38,-663.36 1259.38,-578.88 1259.38,-578.88 1259.38,-578.88 1259.38,-236.38 1259.38,-204.38 1267.07,-167.95 1272.67,-145.68"/>
<polygon fill="#63b8ff" stroke="#63b8ff" points="1276.03,-146.65 1275.19,-136.09 1269.26,-144.87 1276.03,-146.65"/>
</a>
</g>
</g>
<!-- Node32 -->
<g id="Node000032" class="node">
<title>Node32</title>
<g id="a_Node000032"><a xlink:href="mutex_8hpp.html" target="_top" xlink:title="C++11 mutex drop in replacement.">
<polygon fill="white" stroke="#666666" points="817.38,-645 729.38,-645 729.38,-624.25 817.38,-624.25 817.38,-645"/>
<text text-anchor="middle" x="773.38" y="-631.5" font-family="Helvetica,sans-Serif" font-size="10.00">riot/mutex.hpp</text>
</a>
</g>
</g>
<!-- Node1&#45;&gt;Node32 -->
<g id="edge62_Node000001_Node000032" class="edge">
<title>Node1&#45;&gt;Node32</title>
<g id="a_edge62_Node000001_Node000032"><a xlink:title=" ">
<path fill="none" stroke="#63b8ff" d="M419.59,-686.03C504.85,-673.89 641.83,-654.37 717.91,-643.53"/>
<polygon fill="#63b8ff" stroke="#63b8ff" points="718.22,-647.02 727.63,-642.14 717.23,-640.09 718.22,-647.02"/>
</a>
</g>
</g>
<!-- Node36 -->
<g id="Node000036" class="node">
<title>Node36</title>
<g id="a_Node000036"><a xlink:href="chrono_8hpp.html" target="_top" xlink:title="C++11 chrono drop in replacement that adds the function now based on ztimer/timex.">
<polygon fill="white" stroke="#666666" points="243.12,-645 153.62,-645 153.62,-624.25 243.12,-624.25 243.12,-645"/>
<text text-anchor="middle" x="198.38" y="-631.5" font-family="Helvetica,sans-Serif" font-size="10.00">riot/chrono.hpp</text>
</a>
</g>
</g>
<!-- Node1&#45;&gt;Node36 -->
<g id="edge67_Node000001_Node000036" class="edge">
<title>Node1&#45;&gt;Node36</title>
<g id="a_edge67_Node000001_Node000036"><a xlink:title=" ">
<path fill="none" stroke="#63b8ff" d="M305.63,-680.53C282.8,-670.97 254.17,-658.99 232.24,-649.8"/>
<polygon fill="#63b8ff" stroke="#63b8ff" points="233.73,-646.63 223.16,-646 231.03,-653.09 233.73,-646.63"/>
</a>
</g>
</g>
<!-- Node3 -->
<g id="Node000003" class="node">
<title>Node3</title>
<g id="a_Node000003"><a xlink:title=" ">
<polygon fill="#e0e0e0" stroke="#999999" points="859.88,-77.5 804.88,-77.5 804.88,-56.75 859.88,-56.75 859.88,-77.5"/>
<text text-anchor="middle" x="832.38" y="-64" font-family="Helvetica,sans-Serif" font-size="10.00">stddef.h</text>
</a>
</g>
</g>
<!-- Node2&#45;&gt;Node3 -->
<g id="edge2_Node000002_Node000003" class="edge">
<title>Node2&#45;&gt;Node3</title>
<g id="a_edge2_Node000002_Node000003"><a xlink:title=" ">
<path fill="none" stroke="#63b8ff" d="M492.95,-226.6C509.8,-212.72 542.47,-187.11 573.38,-170.25 647.89,-129.6 742.05,-96.66 793.84,-79.99"/>
<polygon fill="#63b8ff" stroke="#63b8ff" points="794.63,-83.41 803.09,-77.04 792.5,-76.74 794.63,-83.41"/>
</a>
</g>
</g>
<!-- Node4 -->
<g id="Node000004" class="node">
<title>Node4</title>
<g id="a_Node000004"><a xlink:href="inttypes_8h.html" target="_top" xlink:title="Adds include for missing inttype definitions.">
<polygon fill="white" stroke="#666666" points="646.75,-191 582,-191 582,-170.25 646.75,-170.25 646.75,-191"/>
<text text-anchor="middle" x="614.38" y="-177.5" font-family="Helvetica,sans-Serif" font-size="10.00">inttypes.h</text>
</a>
</g>
</g>
<!-- Node2&#45;&gt;Node4 -->
<g id="edge3_Node000002_Node000004" class="edge">
<title>Node2&#45;&gt;Node4</title>
<g id="a_edge3_Node000002_Node000004"><a xlink:title=" ">
<path fill="none" stroke="#63b8ff" d="M505.15,-226.59C526.05,-217.98 556.71,-205.36 580.23,-195.68"/>
<polygon fill="#63b8ff" stroke="#63b8ff" points="581.49,-198.95 589.4,-191.9 578.82,-192.47 581.49,-198.95"/>
</a>
</g>
</g>
<!-- Node5 -->
<g id="Node000005" class="node">
<title>Node5</title>
<g id="a_Node000005"><a xlink:href="kernel__defines_8h.html" target="_top" xlink:title="Common macros and compiler attributes/pragmas configuration.">
<polygon fill="white" stroke="#666666" points="380.5,-191 284.25,-191 284.25,-170.25 380.5,-170.25 380.5,-191"/>
<text text-anchor="middle" x="332.38" y="-177.5" font-family="Helvetica,sans-Serif" font-size="10.00">kernel_defines.h</text>
</a>
</g>
</g>
<!-- Node2&#45;&gt;Node5 -->
<g id="edge4_Node000002_Node000005" class="edge">
<title>Node2&#45;&gt;Node5</title>
<g id="a_edge4_Node000002_Node000005"><a xlink:title=" ">
<path fill="none" stroke="#63b8ff" d="M454.74,-226.59C431.08,-217.89 396.26,-205.1 369.8,-195.38"/>
<polygon fill="#63b8ff" stroke="#63b8ff" points="371.05,-192.11 360.45,-191.94 368.63,-198.68 371.05,-192.11"/>
</a>
</g>
</g>
<!-- Node12 -->
<g id="Node000012" class="node">
<title>Node12</title>
<g id="a_Node000012"><a xlink:href="native__sched_8h.html" target="_top" xlink:title="Add definitions required on the native board.">
<polygon fill="white" stroke="#666666" points="526.12,-191 436.62,-191 436.62,-170.25 526.12,-170.25 526.12,-191"/>
<text text-anchor="middle" x="481.38" y="-177.5" font-family="Helvetica,sans-Serif" font-size="10.00">native_sched.h</text>
</a>
</g>
</g>
<!-- Node2&#45;&gt;Node12 -->
<g id="edge15_Node000002_Node000012" class="edge">
<title>Node2&#45;&gt;Node12</title>
<g id="a_edge15_Node000002_Node000012"><a xlink:title=" ">
<path fill="none" stroke="#63b8ff" d="M481.38,-226.59C481.38,-219.97 481.38,-210.97 481.38,-202.77"/>
<polygon fill="#63b8ff" stroke="#63b8ff" points="484.88,-202.84 481.38,-192.84 477.88,-202.84 484.88,-202.84"/>
</a>
</g>
</g>
<!-- Node13 -->
<g id="Node000013" class="node">
<title>Node13</title>
<g id="a_Node000013"><a xlink:href="clist_8h.html" target="_top" xlink:title="Circular linked list.">
<polygon fill="white" stroke="#666666" points="862,-191 816.75,-191 816.75,-170.25 862,-170.25 862,-191"/>
<text text-anchor="middle" x="839.38" y="-177.5" font-family="Helvetica,sans-Serif" font-size="10.00">clist.h</text>
</a>
</g>
</g>
<!-- Node2&#45;&gt;Node13 -->
<g id="edge16_Node000002_Node000013" class="edge">
<title>Node2&#45;&gt;Node13</title>
<g id="a_edge16_Node000002_Node000013"><a xlink:title=" ">
<path fill="none" stroke="#63b8ff" d="M508.58,-232.21C572.9,-222.38 734.26,-197.7 805.11,-186.86"/>
<polygon fill="#63b8ff" stroke="#63b8ff" points="805.61,-190.33 814.97,-185.36 804.55,-183.41 805.61,-190.33"/>
</a>
</g>
</g>
<!-- Node6 -->
<g id="Node000006" class="node">
<title>Node6</title>
<g id="a_Node000006"><a xlink:href="modules_8h.html" target="_top" xlink:title="Common macros and compiler attributes/pragmas configuration.">
<polygon fill="white" stroke="#666666" points="466.88,-134.25 399.88,-134.25 399.88,-113.5 466.88,-113.5 466.88,-134.25"/>
<text text-anchor="middle" x="433.38" y="-120.75" font-family="Helvetica,sans-Serif" font-size="10.00">modules.h</text>
</a>
</g>
</g>
<!-- Node5&#45;&gt;Node6 -->
<g id="edge5_Node000005_Node000006" class="edge">
<title>Node5&#45;&gt;Node6</title>
<g id="a_edge5_Node000005_Node000006"><a xlink:title=" ">
<path fill="none" stroke="#63b8ff" d="M350.43,-169.84C365.8,-161.51 388.12,-149.41 405.73,-139.86"/>
<polygon fill="#63b8ff" stroke="#63b8ff" points="407.02,-143.14 414.14,-135.3 403.68,-136.99 407.02,-143.14"/>
</a>
</g>
</g>
<!-- Node7 -->
<g id="Node000007" class="node">
<title>Node7</title>
<g id="a_Node000007"><a xlink:href="riot__version_8h.html" target="_top" xlink:title="Common macros and compiler attributes/pragmas configuration.">
<polygon fill="white" stroke="#666666" points="328.75,-77.5 246,-77.5 246,-56.75 328.75,-56.75 328.75,-77.5"/>
<text text-anchor="middle" x="287.38" y="-64" font-family="Helvetica,sans-Serif" font-size="10.00">riot_version.h</text>
</a>
</g>
</g>
<!-- Node5&#45;&gt;Node7 -->
<g id="edge6_Node000005_Node000007" class="edge">
<title>Node5&#45;&gt;Node7</title>
<g id="a_edge6_Node000005_Node000007"><a xlink:title=" ">
<path fill="none" stroke="#63b8ff" d="M312.32,-169.78C299.16,-162.1 283.01,-150.09 275.38,-134.25 268.33,-119.63 272.48,-101.39 277.74,-87.76"/>
<polygon fill="#63b8ff" stroke="#63b8ff" points="280.78,-89.54 281.59,-78.98 274.37,-86.73 280.78,-89.54"/>
</a>
</g>
</g>
<!-- Node9 -->
<g id="Node000009" class="node">
<title>Node9</title>
<g id="a_Node000009"><a xlink:href="compiler__hints_8h.html" target="_top" xlink:title="Common macros and compiler attributes/pragmas configuration.">
<polygon fill="white" stroke="#666666" points="381.88,-134.25 284.88,-134.25 284.88,-113.5 381.88,-113.5 381.88,-134.25"/>
<text text-anchor="middle" x="333.38" y="-120.75" font-family="Helvetica,sans-Serif" font-size="10.00">compiler_hints.h</text>
</a>
</g>
</g>
<!-- Node5&#45;&gt;Node9 -->
<g id="edge8_Node000005_Node000009" class="edge">
<title>Node5&#45;&gt;Node9</title>
<g id="a_edge8_Node000005_Node000009"><a xlink:title=" ">
<path fill="none" stroke="#63b8ff" d="M332.55,-169.84C332.67,-163.22 332.84,-154.22 332.99,-146.02"/>
<polygon fill="#63b8ff" stroke="#63b8ff" points="336.49,-146.15 333.17,-136.09 329.49,-146.03 336.49,-146.15"/>
</a>
</g>
</g>
<!-- Node11 -->
<g id="Node000011" class="node">
<title>Node11</title>
<g id="a_Node000011"><a xlink:href="container_8h.html" target="_top" xlink:title="Common macros and compiler attributes/pragmas configuration.">
<polygon fill="white" stroke="#666666" points="593.75,-134.25 523,-134.25 523,-113.5 593.75,-113.5 593.75,-134.25"/>
<text text-anchor="middle" x="558.38" y="-120.75" font-family="Helvetica,sans-Serif" font-size="10.00">container.h</text>
</a>
</g>
</g>
<!-- Node5&#45;&gt;Node11 -->
<g id="edge12_Node000005_Node000011" class="edge">
<title>Node5&#45;&gt;Node11</title>
<g id="a_edge12_Node000005_Node000011"><a xlink:title=" ">
<path fill="none" stroke="#63b8ff" d="M373.04,-169.77C411.95,-160.35 470.61,-146.14 511.48,-136.24"/>
<polygon fill="#63b8ff" stroke="#63b8ff" points="512.14,-139.68 521.03,-133.92 510.49,-132.87 512.14,-139.68"/>
</a>
</g>
</g>
<!-- Node8 -->
<g id="Node000008" class="node">
<title>Node8</title>
<g id="a_Node000008"><a xlink:title=" ">
<polygon fill="#e0e0e0" stroke="#999999" points="410.75,-20.75 358,-20.75 358,0 410.75,0 410.75,-20.75"/>
<text text-anchor="middle" x="384.38" y="-7.25" font-family="Helvetica,sans-Serif" font-size="10.00">stdint.h</text>
</a>
</g>
</g>
<!-- Node7&#45;&gt;Node8 -->
<g id="edge7_Node000007_Node000008" class="edge">
<title>Node7&#45;&gt;Node8</title>
<g id="a_edge7_Node000007_Node000008"><a xlink:title=" ">
<path fill="none" stroke="#63b8ff" d="M304.72,-56.34C319.34,-48.08 340.51,-36.13 357.35,-26.63"/>
<polygon fill="#63b8ff" stroke="#63b8ff" points="358.88,-29.79 365.87,-21.82 355.44,-23.69 358.88,-29.79"/>
</a>
</g>
</g>
<!-- Node9&#45;&gt;Node8 -->
<g id="edge11_Node000009_Node000008" class="edge">
<title>Node9&#45;&gt;Node8</title>
<g id="a_edge11_Node000009_Node000008"><a xlink:title=" ">
<path fill="none" stroke="#63b8ff" d="M337.72,-113.37C346,-95.27 364.18,-55.53 375.24,-31.35"/>
<polygon fill="#63b8ff" stroke="#63b8ff" points="378.29,-33.1 379.26,-22.55 371.92,-30.19 378.29,-33.1"/>
</a>
</g>
</g>
<!-- Node10 -->
<g id="Node000010" class="node">
<title>Node10</title>
<g id="a_Node000010"><a xlink:href="assert_8h.html" target="_top" xlink:title="POSIX.1&#45;2008 compliant version of the assert macro.">
<polygon fill="white" stroke="#666666" points="439.88,-77.5 384.88,-77.5 384.88,-56.75 439.88,-56.75 439.88,-77.5"/>
<text text-anchor="middle" x="412.38" y="-64" font-family="Helvetica,sans-Serif" font-size="10.00">assert.h</text>
</a>
</g>
</g>
<!-- Node9&#45;&gt;Node10 -->
<g id="edge9_Node000009_Node000010" class="edge">
<title>Node9&#45;&gt;Node10</title>
<g id="a_edge9_Node000009_Node000010"><a xlink:title=" ">
<path fill="none" stroke="#63b8ff" d="M347.5,-113.09C359.07,-105.07 375.68,-93.56 389.19,-84.19"/>
<polygon fill="#63b8ff" stroke="#63b8ff" points="390.9,-87.26 397.13,-78.69 386.92,-81.51 390.9,-87.26"/>
</a>
</g>
</g>
<!-- Node10&#45;&gt;Node8 -->
<g id="edge10_Node000010_Node000008" class="edge">
<title>Node10&#45;&gt;Node8</title>
<g id="a_edge10_Node000010_Node000008"><a xlink:title=" ">
<path fill="none" stroke="#63b8ff" d="M407.37,-56.34C403.79,-49.33 398.84,-39.66 394.45,-31.08"/>
<polygon fill="#63b8ff" stroke="#63b8ff" points="397.7,-29.74 390.03,-22.43 391.46,-32.92 397.7,-29.74"/>
</a>
</g>
</g>
<!-- Node11&#45;&gt;Node3 -->
<g id="edge13_Node000011_Node000003" class="edge">
<title>Node11&#45;&gt;Node3</title>
<g id="a_edge13_Node000011_Node000003"><a xlink:title=" ">
<path fill="none" stroke="#63b8ff" d="M594.2,-115.72C645.69,-105.43 740.26,-86.53 793.43,-75.91"/>
<polygon fill="#63b8ff" stroke="#63b8ff" points="793.83,-79.4 802.95,-74.01 792.46,-72.53 793.83,-79.4"/>
</a>
</g>
</g>
<!-- Node11&#45;&gt;Node8 -->
<g id="edge14_Node000011_Node000008" class="edge">
<title>Node11&#45;&gt;Node8</title>
<g id="a_edge14_Node000011_Node000008"><a xlink:title=" ">
<path fill="none" stroke="#63b8ff" d="M543.24,-113.18C513.16,-93.9 445.62,-50.62 409.04,-27.18"/>
<polygon fill="#63b8ff" stroke="#63b8ff" points="411.18,-24.4 400.88,-21.95 407.41,-30.29 411.18,-24.4"/>
</a>
</g>
</g>
<!-- Node13&#45;&gt;Node3 -->
<g id="edge18_Node000013_Node000003" class="edge">
<title>Node13&#45;&gt;Node3</title>
<g id="a_edge18_Node000013_Node000003"><a xlink:title=" ">
<path fill="none" stroke="#63b8ff" d="M838.78,-170.12C837.66,-152.27 835.21,-113.36 833.69,-89.09"/>
<polygon fill="#63b8ff" stroke="#63b8ff" points="837.2,-89.2 833.09,-79.44 830.22,-89.64 837.2,-89.2"/>
</a>
</g>
</g>
<!-- Node14 -->
<g id="Node000014" class="node">
<title>Node14</title>
<g id="a_Node000014"><a xlink:title=" ">
<polygon fill="#e0e0e0" stroke="#999999" points="792.88,-134.25 731.88,-134.25 731.88,-113.5 792.88,-113.5 792.88,-134.25"/>
<text text-anchor="middle" x="762.38" y="-120.75" font-family="Helvetica,sans-Serif" font-size="10.00">stdbool.h</text>
</a>
</g>
</g>
<!-- Node13&#45;&gt;Node14 -->
<g id="edge17_Node000013_Node000014" class="edge">
<title>Node13&#45;&gt;Node14</title>
<g id="a_edge17_Node000013_Node000014"><a xlink:title=" ">
<path fill="none" stroke="#63b8ff" d="M825.61,-169.84C814.44,-161.9 798.46,-150.53 785.35,-141.21"/>
<polygon fill="#63b8ff" stroke="#63b8ff" points="787.43,-138.4 777.26,-135.46 783.38,-144.1 787.43,-138.4"/>
</a>
</g>
</g>
<!-- Node15 -->
<g id="Node000015" class="node">
<title>Node15</title>
<g id="a_Node000015"><a xlink:href="list_8h.html" target="_top" xlink:title="Intrusive linked list.">
<polygon fill="white" stroke="#666666" points="900.38,-134.25 860.38,-134.25 860.38,-113.5 900.38,-113.5 900.38,-134.25"/>
<text text-anchor="middle" x="880.38" y="-120.75" font-family="Helvetica,sans-Serif" font-size="10.00">list.h</text>
</a>
</g>
</g>
<!-- Node13&#45;&gt;Node15 -->
<g id="edge19_Node000013_Node000015" class="edge">
<title>Node13&#45;&gt;Node15</title>
<g id="a_edge19_Node000013_Node000015"><a xlink:title=" ">
<path fill="none" stroke="#63b8ff" d="M846.7,-169.84C852.13,-162.6 859.68,-152.51 866.26,-143.72"/>
<polygon fill="#63b8ff" stroke="#63b8ff" points="869.01,-145.89 872.2,-135.79 863.41,-141.7 869.01,-145.89"/>
</a>
</g>
</g>
<!-- Node16&#45;&gt;Node8 -->
<g id="edge21_Node000016_Node000008" class="edge">
<title>Node16&#45;&gt;Node8</title>
<g id="a_edge21_Node000016_Node000008"><a xlink:title=" ">
<path fill="none" stroke="#63b8ff" d="M312.81,-567.02C256,-547.08 142.38,-496.26 142.38,-408.62 142.38,-408.62 142.38,-408.62 142.38,-122.88 142.38,-34.1 278.36,-15.77 346.45,-12.15"/>
<polygon fill="#63b8ff" stroke="#63b8ff" points="346.2,-15.66 356.04,-11.73 345.9,-8.67 346.2,-15.66"/>
</a>
</g>
</g>
<!-- Node17 -->
<g id="Node000017" class="node">
<title>Node17</title>
<g id="a_Node000017"><a xlink:href="irq_8h.html" target="_top" xlink:title="IRQ driver interface.">
<polygon fill="white" stroke="#666666" points="786.25,-304.5 748.5,-304.5 748.5,-283.75 786.25,-283.75 786.25,-304.5"/>
<text text-anchor="middle" x="767.38" y="-291" font-family="Helvetica,sans-Serif" font-size="10.00">irq.h</text>
</a>
</g>
</g>
<!-- Node16&#45;&gt;Node17 -->
<g id="edge22_Node000016_Node000017" class="edge">
<title>Node16&#45;&gt;Node17</title>
<g id="a_edge22_Node000016_Node000017"><a xlink:title=" ">
<path fill="none" stroke="#63b8ff" d="M379.04,-570.88C454.99,-556.77 629.38,-518.57 629.38,-465.38 629.38,-465.38 629.38,-465.38 629.38,-406.62 629.38,-378.5 699.59,-333.77 739.85,-310.43"/>
<polygon fill="#63b8ff" stroke="#63b8ff" points="741.36,-313.6 748.3,-305.6 737.88,-307.52 741.36,-313.6"/>
</a>
</g>
</g>
<!-- Node19 -->
<g id="Node000019" class="node">
<title>Node19</title>
<g id="a_Node000019"><a xlink:href="mutex_8h.html" target="_top" xlink:title="Mutex for thread synchronization.">
<polygon fill="white" stroke="#666666" points="733.62,-418 677.12,-418 677.12,-397.25 733.62,-397.25 733.62,-418"/>
<text text-anchor="middle" x="705.38" y="-404.5" font-family="Helvetica,sans-Serif" font-size="10.00">mutex.h</text>
</a>
</g>
</g>
<!-- Node16&#45;&gt;Node19 -->
<g id="edge25_Node000016_Node000019" class="edge">
<title>Node16&#45;&gt;Node19</title>
<g id="a_edge25_Node000016_Node000019"><a xlink:title=" ">
<path fill="none" stroke="#63b8ff" d="M379.08,-575.54C448.58,-572.25 601.71,-561.69 643.38,-531.5 661.22,-518.57 685.53,-460.49 697.73,-429.03"/>
<polygon fill="#63b8ff" stroke="#63b8ff" points="700.94,-430.43 701.24,-419.84 694.4,-427.94 700.94,-430.43"/>
</a>
</g>
</g>
<!-- Node28 -->
<g id="Node000028" class="node">
<title>Node28</title>
<g id="a_Node000028"><a xlink:title=" ">
<polygon fill="#e0e0e0" stroke="#999999" points="455.38,-474.75 409.38,-474.75 409.38,-454 455.38,-454 455.38,-474.75"/>
<text text-anchor="middle" x="432.38" y="-461.25" font-family="Helvetica,sans-Serif" font-size="10.00">msg.h</text>
</a>
</g>
</g>
<!-- Node16&#45;&gt;Node28 -->
<g id="edge49_Node000016_Node000028" class="edge">
<title>Node16&#45;&gt;Node28</title>
<g id="a_edge49_Node000016_Node000028"><a xlink:title=" ">
<path fill="none" stroke="#63b8ff" d="M351.88,-567.37C366.42,-548.95 398.66,-508.09 417.64,-484.05"/>
<polygon fill="#63b8ff" stroke="#63b8ff" points="420.25,-486.38 423.7,-476.36 414.76,-482.04 420.25,-486.38"/>
</a>
</g>
</g>
<!-- Node29 -->
<g id="Node000029" class="node">
<title>Node29</title>
<g id="a_Node000029"><a xlink:href="ztimer_8h.html" target="_top" xlink:title="ztimer API">
<polygon fill="white" stroke="#666666" points="362.62,-531.5 306.12,-531.5 306.12,-510.75 362.62,-510.75 362.62,-531.5"/>
<text text-anchor="middle" x="334.38" y="-518" font-family="Helvetica,sans-Serif" font-size="10.00">ztimer.h</text>
</a>
</g>
</g>
<!-- Node16&#45;&gt;Node29 -->
<g id="edge50_Node000016_Node000029" class="edge">
<title>Node16&#45;&gt;Node29</title>
<g id="a_edge50_Node000016_Node000029"><a xlink:title=" ">
<path fill="none" stroke="#63b8ff" d="M342.59,-567.09C341.36,-560.39 339.7,-551.26 338.18,-542.98"/>
<polygon fill="#63b8ff" stroke="#63b8ff" points="341.66,-542.53 336.42,-533.32 334.77,-543.78 341.66,-542.53"/>
</a>
</g>
</g>
<!-- Node17&#45;&gt;Node14 -->
<g id="edge23_Node000017_Node000014" class="edge">
<title>Node17&#45;&gt;Node14</title>
<g id="a_edge23_Node000017_Node000014"><a xlink:title=" ">
<path fill="none" stroke="#63b8ff" d="M767.09,-283.6C766.31,-257.23 764.1,-182.83 763,-146.03"/>
<polygon fill="#63b8ff" stroke="#63b8ff" points="766.51,-146.12 762.71,-136.23 759.51,-146.33 766.51,-146.12"/>
</a>
</g>
</g>
<!-- Node18 -->
<g id="Node000018" class="node">
<title>Node18</title>
<g id="a_Node000018"><a xlink:title=" ">
<polygon fill="#e0e0e0" stroke="#999999" points="620.25,-247.75 552.5,-247.75 552.5,-227 620.25,-227 620.25,-247.75"/>
<text text-anchor="middle" x="586.38" y="-234.25" font-family="Helvetica,sans-Serif" font-size="10.00">cpu_conf.h</text>
</a>
</g>
</g>
<!-- Node17&#45;&gt;Node18 -->
<g id="edge24_Node000017_Node000018" class="edge">
<title>Node17&#45;&gt;Node18</title>
<g id="a_edge24_Node000017_Node000018"><a xlink:title=" ">
<path fill="none" stroke="#63b8ff" d="M748.12,-286.58C745.2,-285.62 742.21,-284.64 739.38,-283.75 703.14,-272.31 661.81,-260.11 631.25,-251.24"/>
<polygon fill="#63b8ff" stroke="#63b8ff" points="632.54,-247.97 621.96,-248.55 630.6,-254.69 632.54,-247.97"/>
</a>
</g>
</g>
<!-- Node19&#45;&gt;Node3 -->
<g id="edge26_Node000019_Node000003" class="edge">
<title>Node19&#45;&gt;Node3</title>
<g id="a_edge26_Node000019_Node000003"><a xlink:title=" ">
<path fill="none" stroke="#63b8ff" d="M734.07,-405.28C794.3,-400.76 928.38,-381.05 928.38,-295.12 928.38,-295.12 928.38,-295.12 928.38,-179.62 928.38,-149.05 928.1,-137.67 909.38,-113.5 899.05,-100.17 883.63,-89.99 869.28,-82.67"/>
<polygon fill="#63b8ff" stroke="#63b8ff" points="871.03,-79.63 860.49,-78.5 868.03,-85.95 871.03,-79.63"/>
</a>
</g>
</g>
<!-- Node19&#45;&gt;Node5 -->
<g id="edge34_Node000019_Node000005" class="edge">
<title>Node19&#45;&gt;Node5</title>
<g id="a_edge34_Node000019_Node000005"><a xlink:title=" ">
<path fill="none" stroke="#63b8ff" d="M676.96,-402.23C623.95,-392.77 508.65,-366.16 434.38,-304.5 396.69,-273.22 362.44,-226.59 344.83,-200.7"/>
<polygon fill="#63b8ff" stroke="#63b8ff" points="347.84,-198.91 339.38,-192.53 342.02,-202.79 347.84,-198.91"/>
</a>
</g>
</g>
<!-- Node19&#45;&gt;Node8 -->
<g id="edge27_Node000019_Node000008" class="edge">
<title>Node19&#45;&gt;Node8</title>
<g id="a_edge27_Node000019_Node000008"><a xlink:title=" ">
<path fill="none" stroke="#63b8ff" d="M733.88,-406.37C839.49,-404.68 1202.38,-391.84 1202.38,-295.12 1202.38,-295.12 1202.38,-295.12 1202.38,-122.88 1202.38,-43.09 583.47,-17.74 422.35,-12.5"/>
<polygon fill="#63b8ff" stroke="#63b8ff" points="422.75,-9.01 412.64,-12.19 422.52,-16 422.75,-9.01"/>
</a>
</g>
</g>
<!-- Node19&#45;&gt;Node14 -->
<g id="edge28_Node000019_Node000014" class="edge">
<title>Node19&#45;&gt;Node14</title>
<g id="a_edge28_Node000019_Node000014"><a xlink:title=" ">
<path fill="none" stroke="#63b8ff" d="M718.74,-396.85C739.8,-380.52 779.93,-345.4 795.38,-304.5 816.41,-248.8 788.84,-178.17 772.64,-144.48"/>
<polygon fill="#63b8ff" stroke="#63b8ff" points="775.95,-143.28 768.35,-135.9 769.69,-146.41 775.95,-143.28"/>
</a>
</g>
</g>
<!-- Node19&#45;&gt;Node15 -->
<g id="edge35_Node000019_Node000015" class="edge">
<title>Node19&#45;&gt;Node15</title>
<g id="a_edge35_Node000019_Node000015"><a xlink:title=" ">
<path fill="none" stroke="#63b8ff" d="M733.88,-402.77C785.77,-393.98 890.38,-367.31 890.38,-295.12 890.38,-295.12 890.38,-295.12 890.38,-236.38 890.38,-204.71 886.32,-168.19 883.38,-145.82"/>
<polygon fill="#63b8ff" stroke="#63b8ff" points="886.89,-145.62 882.06,-136.19 879.95,-146.58 886.89,-145.62"/>
</a>
</g>
</g>
<!-- Node20 -->
<g id="Node000020" class="node">
<title>Node20</title>
<g id="a_Node000020"><a xlink:href="architecture_8h.html" target="_top" xlink:title="Platform&#45;independent access to architecture details.">
<polygon fill="white" stroke="#666666" points="1040.12,-247.75 956.62,-247.75 956.62,-227 1040.12,-227 1040.12,-247.75"/>
<text text-anchor="middle" x="998.38" y="-234.25" font-family="Helvetica,sans-Serif" font-size="10.00">architecture.h</text>
</a>
</g>
</g>
<!-- Node19&#45;&gt;Node20 -->
<g id="edge29_Node000019_Node000020" class="edge">
<title>Node19&#45;&gt;Node20</title>
<g id="a_edge29_Node000019_Node000020"><a xlink:title=" ">
<path fill="none" stroke="#63b8ff" d="M733.86,-404.42C789.56,-399.61 910.26,-386.49 942.38,-361.25 974.82,-335.75 989.12,-287.21 994.89,-259.39"/>
<polygon fill="#63b8ff" stroke="#63b8ff" points="998.31,-260.17 996.7,-249.7 991.43,-258.89 998.31,-260.17"/>
</a>
</g>
</g>
<!-- Node23 -->
<g id="Node000023" class="node">
<title>Node23</title>
<g id="a_Node000023"><a xlink:href="core_2include_2thread_8h.html" target="_top" xlink:title="Threading API.">
<polygon fill="white" stroke="#666666" points="601.62,-361.25 545.12,-361.25 545.12,-340.5 601.62,-340.5 601.62,-361.25"/>
<text text-anchor="middle" x="573.38" y="-347.75" font-family="Helvetica,sans-Serif" font-size="10.00">thread.h</text>
</a>
</g>
</g>
<!-- Node19&#45;&gt;Node23 -->
<g id="edge36_Node000019_Node000023" class="edge">
<title>Node19&#45;&gt;Node23</title>
<g id="a_edge36_Node000019_Node000023"><a xlink:title=" ">
<path fill="none" stroke="#63b8ff" d="M681.78,-396.84C661.03,-388.23 630.6,-375.61 607.26,-365.93"/>
<polygon fill="#63b8ff" stroke="#63b8ff" points="608.75,-362.76 598.17,-362.16 606.06,-369.22 608.75,-362.76"/>
</a>
</g>
</g>
<!-- Node20&#45;&gt;Node4 -->
<g id="edge31_Node000020_Node000004" class="edge">
<title>Node20&#45;&gt;Node4</title>
<g id="a_edge31_Node000020_Node000004"><a xlink:title=" ">
<path fill="none" stroke="#63b8ff" d="M956.18,-230.36C882.95,-219.92 733.01,-198.54 658.47,-187.91"/>
<polygon fill="#63b8ff" stroke="#63b8ff" points="659.07,-184.46 648.68,-186.52 658.08,-191.39 659.07,-184.46"/>
</a>
</g>
</g>
<!-- Node20&#45;&gt;Node8 -->
<g id="edge30_Node000020_Node000008" class="edge">
<title>Node20&#45;&gt;Node8</title>
<g id="a_edge30_Node000020_Node000008"><a xlink:title=" ">
<path fill="none" stroke="#63b8ff" d="M1040.51,-233.02C1093.05,-227.07 1172.82,-211.15 1145.38,-170.25 1071.25,-59.77 997.57,-88.53 868.38,-56.75 705.9,-16.79 504.81,-11.51 422.35,-11.16"/>
<polygon fill="#63b8ff" stroke="#63b8ff" points="422.58,-7.66 412.58,-11.14 422.57,-14.66 422.58,-7.66"/>
</a>
</g>
</g>
<!-- Node21 -->
<g id="Node000021" class="node">
<title>Node21</title>
<g id="a_Node000021"><a xlink:title=" ">
<polygon fill="#e0e0e0" stroke="#999999" points="1008.75,-191 956,-191 956,-170.25 1008.75,-170.25 1008.75,-191"/>
<text text-anchor="middle" x="982.38" y="-177.5" font-family="Helvetica,sans-Serif" font-size="10.00">limits.h</text>
</a>
</g>
</g>
<!-- Node20&#45;&gt;Node21 -->
<g id="edge32_Node000020_Node000021" class="edge">
<title>Node20&#45;&gt;Node21</title>
<g id="a_edge32_Node000020_Node000021"><a xlink:title=" ">
<path fill="none" stroke="#63b8ff" d="M995.51,-226.59C993.54,-219.81 990.83,-210.55 988.38,-202.19"/>
<polygon fill="#63b8ff" stroke="#63b8ff" points="991.8,-201.4 985.64,-192.78 985.08,-203.36 991.8,-201.4"/>
</a>
</g>
</g>
<!-- Node22 -->
<g id="Node000022" class="node">
<title>Node22</title>
<g id="a_Node000022"><a xlink:title=" ">
<polygon fill="#e0e0e0" stroke="#999999" points="1136.25,-191 1026.5,-191 1026.5,-170.25 1136.25,-170.25 1136.25,-191"/>
<text text-anchor="middle" x="1081.38" y="-177.5" font-family="Helvetica,sans-Serif" font-size="10.00">architecture_arch.h</text>
</a>
</g>
</g>
<!-- Node20&#45;&gt;Node22 -->
<g id="edge33_Node000020_Node000022" class="edge">
<title>Node20&#45;&gt;Node22</title>
<g id="a_edge33_Node000020_Node000022"><a xlink:title=" ">
<path fill="none" stroke="#63b8ff" d="M1013.21,-226.59C1025.49,-218.49 1043.16,-206.83 1057.43,-197.42"/>
<polygon fill="#63b8ff" stroke="#63b8ff" points="1058.98,-200.59 1065.4,-192.16 1055.13,-194.75 1058.98,-200.59"/>
</a>
</g>
</g>
<!-- Node23&#45;&gt;Node2 -->
<g id="edge44_Node000023_Node000002" class="edge">
<title>Node23&#45;&gt;Node2</title>
<g id="a_edge44_Node000023_Node000002"><a xlink:title=" ">
<path fill="none" stroke="#63b8ff" d="M544.85,-346.61C519.2,-341.99 482.93,-330.92 465.38,-304.5 456.19,-290.68 461.9,-272.12 468.93,-258.18"/>
<polygon fill="#63b8ff" stroke="#63b8ff" points="471.97,-259.92 473.84,-249.49 465.87,-256.48 471.97,-259.92"/>
</a>
</g>
</g>
<!-- Node23&#45;&gt;Node13 -->
<g id="edge37_Node000023_Node000013" class="edge">
<title>Node23&#45;&gt;Node13</title>
<g id="a_edge37_Node000023_Node000013"><a xlink:title=" ">
<path fill="none" stroke="#63b8ff" d="M601.88,-347.5C655.08,-342.53 766.69,-329.37 795.38,-304.5 825.38,-278.49 834.92,-230.51 837.96,-202.83"/>
<polygon fill="#63b8ff" stroke="#63b8ff" points="841.44,-203.15 838.83,-192.88 834.47,-202.53 841.44,-203.15"/>
</a>
</g>
</g>
<!-- Node24 -->
<g id="Node000024" class="node">
<title>Node24</title>
<g id="a_Node000024"><a xlink:href="cib_8h.html" target="_top" xlink:title="Circular integer buffer interface.">
<polygon fill="white" stroke="#666666" points="437,-247.75 397.75,-247.75 397.75,-227 437,-227 437,-247.75"/>
<text text-anchor="middle" x="417.38" y="-234.25" font-family="Helvetica,sans-Serif" font-size="10.00">cib.h</text>
</a>
</g>
</g>
<!-- Node23&#45;&gt;Node24 -->
<g id="edge38_Node000023_Node000024" class="edge">
<title>Node23&#45;&gt;Node24</title>
<g id="a_edge38_Node000023_Node000024"><a xlink:title=" ">
<path fill="none" stroke="#63b8ff" d="M544.63,-344.35C519.1,-338.22 481.95,-326.22 456.38,-304.5 441.78,-292.11 431.29,-272.81 424.89,-258.26"/>
<polygon fill="#63b8ff" stroke="#63b8ff" points="428.22,-257.16 421.2,-249.22 421.74,-259.8 428.22,-257.16"/>
</a>
</g>
</g>
<!-- Node25 -->
<g id="Node000025" class="node">
<title>Node25</title>
<g id="a_Node000025"><a xlink:href="core_2include_2msg_8h.html" target="_top" xlink:title="Messaging API for inter process communication.">
<polygon fill="white" stroke="#666666" points="730.38,-304.5 684.38,-304.5 684.38,-283.75 730.38,-283.75 730.38,-304.5"/>
<text text-anchor="middle" x="707.38" y="-291" font-family="Helvetica,sans-Serif" font-size="10.00">msg.h</text>
</a>
</g>
</g>
<!-- Node23&#45;&gt;Node25 -->
<g id="edge40_Node000023_Node000025" class="edge">
<title>Node23&#45;&gt;Node25</title>
<g id="a_edge40_Node000023_Node000025"><a xlink:title=" ">
<path fill="none" stroke="#63b8ff" d="M597.33,-340.09C618.61,-331.39 649.94,-318.59 673.74,-308.87"/>
<polygon fill="#63b8ff" stroke="#63b8ff" points="674.74,-312.24 682.67,-305.22 672.09,-305.76 674.74,-312.24"/>
</a>
</g>
</g>
<!-- Node26 -->
<g id="Node000026" class="node">
<title>Node26</title>
<g id="a_Node000026"><a xlink:href="thread__config_8h.html" target="_top" xlink:title="Thread configuration defines.">
<polygon fill="white" stroke="#666666" points="566.25,-304.5 474.5,-304.5 474.5,-283.75 566.25,-283.75 566.25,-304.5"/>
<text text-anchor="middle" x="520.38" y="-291" font-family="Helvetica,sans-Serif" font-size="10.00">thread_config.h</text>
</a>
</g>
</g>
<!-- Node23&#45;&gt;Node26 -->
<g id="edge45_Node000023_Node000026" class="edge">
<title>Node23&#45;&gt;Node26</title>
<g id="a_edge45_Node000023_Node000026"><a xlink:title=" ">
<path fill="none" stroke="#63b8ff" d="M563.9,-340.09C556.59,-332.53 546.28,-321.89 537.53,-312.85"/>
<polygon fill="#63b8ff" stroke="#63b8ff" points="540.29,-310.67 530.82,-305.92 535.26,-315.54 540.29,-310.67"/>
</a>
</g>
</g>
<!-- Node27 -->
<g id="Node000027" class="node">
<title>Node27</title>
<g id="a_Node000027"><a xlink:title=" ">
<polygon fill="#e0e0e0" stroke="#999999" points="666.75,-304.5 584,-304.5 584,-283.75 666.75,-283.75 666.75,-304.5"/>
<text text-anchor="middle" x="625.38" y="-291" font-family="Helvetica,sans-Serif" font-size="10.00">thread_arch.h</text>
</a>
</g>
</g>
<!-- Node23&#45;&gt;Node27 -->
<g id="edge48_Node000023_Node000027" class="edge">
<title>Node23&#45;&gt;Node27</title>
<g id="a_edge48_Node000023_Node000027"><a xlink:title=" ">
<path fill="none" stroke="#63b8ff" d="M582.67,-340.09C589.77,-332.61 599.75,-322.11 608.28,-313.13"/>
<polygon fill="#63b8ff" stroke="#63b8ff" points="610.77,-315.59 615.12,-305.93 605.69,-310.77 610.77,-315.59"/>
</a>
</g>
</g>
<!-- Node24&#45;&gt;Node10 -->
<g id="edge39_Node000024_Node000010" class="edge">
<title>Node24&#45;&gt;Node10</title>
<g id="a_edge39_Node000024_Node000010"><a xlink:title=" ">
<path fill="none" stroke="#63b8ff" d="M416.64,-226.64C416.08,-213.03 416.77,-187.99 427.38,-170.25 441.06,-147.36 463.45,-158.1 475.38,-134.25 479.5,-126 479.58,-121.71 475.38,-113.5 468.85,-100.75 456.89,-90.77 445.13,-83.45"/>
<polygon fill="#63b8ff" stroke="#63b8ff" points="447.16,-80.58 436.73,-78.68 443.7,-86.67 447.16,-80.58"/>
</a>
</g>
</g>
<!-- Node25&#45;&gt;Node2 -->
<g id="edge43_Node000025_Node000002" class="edge">
<title>Node25&#45;&gt;Node2</title>
<g id="a_edge43_Node000025_Node000002"><a xlink:title=" ">
<path fill="none" stroke="#63b8ff" d="M684,-286.11C681.1,-285.29 678.17,-284.49 675.38,-283.75 621.6,-269.6 558.87,-255.33 519.63,-246.67"/>
<polygon fill="#63b8ff" stroke="#63b8ff" points="520.48,-243.27 509.96,-244.54 518.98,-250.11 520.48,-243.27"/>
</a>
</g>
</g>
<!-- Node25&#45;&gt;Node8 -->
<g id="edge41_Node000025_Node000008" class="edge">
<title>Node25&#45;&gt;Node8</title>
<g id="a_edge41_Node000025_Node000008"><a xlink:title=" ">
<path fill="none" stroke="#63b8ff" d="M702.36,-283.27C693.13,-264.18 674.38,-220.59 674.38,-181.62 674.38,-181.62 674.38,-181.62 674.38,-122.88 674.38,-69.52 501.17,-32.04 422.47,-17.76"/>
<polygon fill="#63b8ff" stroke="#63b8ff" points="423.09,-14.32 412.63,-16.01 421.86,-21.21 423.09,-14.32"/>
</a>
</g>
</g>
<!-- Node25&#45;&gt;Node14 -->
<g id="edge42_Node000025_Node000014" class="edge">
<title>Node25&#45;&gt;Node14</title>
<g id="a_edge42_Node000025_Node000014"><a xlink:title=" ">
<path fill="none" stroke="#63b8ff" d="M710.49,-283.6C719.15,-257.12 743.64,-182.18 755.62,-145.55"/>
<polygon fill="#63b8ff" stroke="#63b8ff" points="758.91,-146.75 758.69,-136.16 752.25,-144.57 758.91,-146.75"/>
</a>
</g>
</g>
<!-- Node26&#45;&gt;Node2 -->
<g id="edge47_Node000026_Node000002" class="edge">
<title>Node26&#45;&gt;Node2</title>
<g id="a_edge47_Node000026_Node000002"><a xlink:title=" ">
<path fill="none" stroke="#63b8ff" d="M513.4,-283.34C508.24,-276.1 501.06,-266.01 494.8,-257.22"/>
<polygon fill="#63b8ff" stroke="#63b8ff" points="497.82,-255.43 489.17,-249.31 492.12,-259.49 497.82,-255.43"/>
</a>
</g>
</g>
<!-- Node26&#45;&gt;Node18 -->
<g id="edge46_Node000026_Node000018" class="edge">
<title>Node26&#45;&gt;Node18</title>
<g id="a_edge46_Node000026_Node000018"><a xlink:title=" ">
<path fill="none" stroke="#63b8ff" d="M532.17,-283.34C541.56,-275.55 554.91,-264.47 566.02,-255.26"/>
<polygon fill="#63b8ff" stroke="#63b8ff" points="568.05,-258.12 573.51,-249.04 563.58,-252.74 568.05,-258.12"/>
</a>
</g>
</g>
<!-- Node29&#45;&gt;Node2 -->
<g id="edge52_Node000029_Node000002" class="edge">
<title>Node29&#45;&gt;Node2</title>
<g id="a_edge52_Node000029_Node000002"><a xlink:title=" ">
<path fill="none" stroke="#63b8ff" d="M317.96,-510.53C306.18,-502.61 291.21,-490.18 284.38,-474.75 280.64,-466.32 281.16,-462.64 284.38,-454 318.4,-362.54 412.59,-286.74 457.27,-254.73"/>
<polygon fill="#63b8ff" stroke="#63b8ff" points="459.1,-257.72 465.27,-249.11 455.08,-252 459.1,-257.72"/>
</a>
</g>
</g>
<!-- Node29&#45;&gt;Node8 -->
<g id="edge51_Node000029_Node000008" class="edge">
<title>Node29&#45;&gt;Node8</title>
<g id="a_edge51_Node000029_Node000008"><a xlink:title=" ">
<path fill="none" stroke="#63b8ff" d="M317.99,-510.37C305.44,-502.2 288.46,-489.52 277.38,-474.75 209.2,-383.93 180.38,-351.93 180.38,-238.38 180.38,-238.38 180.38,-238.38 180.38,-122.88 180.38,-88.98 191.56,-77.48 218.38,-56.75 255.81,-27.82 310.45,-17.32 346.69,-13.51"/>
<polygon fill="#63b8ff" stroke="#63b8ff" points="346.62,-17.04 356.25,-12.64 345.98,-10.07 346.62,-17.04"/>
</a>
</g>
</g>
<!-- Node29&#45;&gt;Node19 -->
<g id="edge54_Node000029_Node000019" class="edge">
<title>Node29&#45;&gt;Node19</title>
<g id="a_edge54_Node000029_Node000019"><a xlink:title=" ">
<path fill="none" stroke="#63b8ff" d="M340.78,-510.56C351.29,-495.72 373.73,-467.44 400.38,-454 446.11,-430.94 593.87,-417 665.59,-411.43"/>
<polygon fill="#63b8ff" stroke="#63b8ff" points="665.62,-414.94 675.32,-410.7 665.09,-407.96 665.62,-414.94"/>
</a>
</g>
</g>
<!-- Node29&#45;&gt;Node28 -->
<g id="edge53_Node000029_Node000028" class="edge">
<title>Node29&#45;&gt;Node28</title>
<g id="a_edge53_Node000029_Node000028"><a xlink:title=" ">
<path fill="none" stroke="#63b8ff" d="M351.9,-510.34C366.67,-502.08 388.06,-490.13 405.07,-480.63"/>
<polygon fill="#63b8ff" stroke="#63b8ff" points="406.66,-483.75 413.68,-475.82 403.25,-477.64 406.66,-483.75"/>
</a>
</g>
</g>
<!-- Node30 -->
<g id="Node000030" class="node">
<title>Node30</title>
<g id="a_Node000030"><a xlink:href="rmutex_8h.html" target="_top" xlink:title="Recursive Mutex for thread synchronization.">
<polygon fill="white" stroke="#666666" points="353.5,-474.75 293.25,-474.75 293.25,-454 353.5,-454 353.5,-474.75"/>
<text text-anchor="middle" x="323.38" y="-461.25" font-family="Helvetica,sans-Serif" font-size="10.00">rmutex.h</text>
</a>
</g>
</g>
<!-- Node29&#45;&gt;Node30 -->
<g id="edge55_Node000029_Node000030" class="edge">
<title>Node29&#45;&gt;Node30</title>
<g id="a_edge55_Node000029_Node000030"><a xlink:title=" ">
<path fill="none" stroke="#63b8ff" d="M332.41,-510.34C331.06,-503.64 329.23,-494.51 327.56,-486.23"/>
<polygon fill="#63b8ff" stroke="#63b8ff" points="331.02,-485.68 325.62,-476.56 324.16,-487.06 331.02,-485.68"/>
</a>
</g>
</g>
<!-- Node30&#45;&gt;Node2 -->
<g id="edge58_Node000030_Node000002" class="edge">
<title>Node30&#45;&gt;Node2</title>
<g id="a_edge58_Node000030_Node000002"><a xlink:title=" ">
<path fill="none" stroke="#63b8ff" d="M330.16,-453.71C354.22,-419.45 435.68,-303.44 468,-257.42"/>
<polygon fill="#63b8ff" stroke="#63b8ff" points="470.86,-259.44 473.74,-249.25 465.13,-255.42 470.86,-259.44"/>
</a>
</g>
</g>
<!-- Node30&#45;&gt;Node8 -->
<g id="edge56_Node000030_Node000008" class="edge">
<title>Node30&#45;&gt;Node8</title>
<g id="a_edge56_Node000030_Node000008"><a xlink:title=" ">
<path fill="none" stroke="#63b8ff" d="M315.14,-453.82C290.38,-424.09 218.38,-329.76 218.38,-238.38 218.38,-238.38 218.38,-238.38 218.38,-122.88 218.38,-92.3 215.97,-78.58 237.38,-56.75 266.15,-27.41 313.43,-16.95 346.59,-13.27"/>
<polygon fill="#63b8ff" stroke="#63b8ff" points="346.53,-16.79 356.16,-12.37 345.88,-9.82 346.53,-16.79"/>
</a>
</g>
</g>
<!-- Node30&#45;&gt;Node19 -->
<g id="edge57_Node000030_Node000019" class="edge">
<title>Node30&#45;&gt;Node19</title>
<g id="a_edge57_Node000030_Node000019"><a xlink:title=" ">
<path fill="none" stroke="#63b8ff" d="M353.61,-456.61C358.21,-455.68 362.91,-454.77 367.38,-454 474.74,-435.38 602.43,-420.08 665.72,-412.95"/>
<polygon fill="#63b8ff" stroke="#63b8ff" points="665.72,-416.47 675.27,-411.88 664.94,-409.52 665.72,-416.47"/>
</a>
</g>
</g>
<!-- Node31&#45;&gt;Node3 -->
<g id="edge60_Node000031_Node000003" class="edge">
<title>Node31&#45;&gt;Node3</title>
<g id="a_edge60_Node000031_Node000003"><a xlink:title=" ">
<path fill="none" stroke="#63b8ff" d="M1230.22,-116.96C1141.34,-106.05 953.15,-82.95 871.52,-72.93"/>
<polygon fill="#63b8ff" stroke="#63b8ff" points="872.13,-69.48 861.78,-71.73 871.27,-76.43 872.13,-69.48"/>
</a>
</g>
</g>
<!-- Node31&#45;&gt;Node8 -->
<g id="edge61_Node000031_Node000008" class="edge">
<title>Node31&#45;&gt;Node8</title>
<g id="a_edge61_Node000031_Node000008"><a xlink:title=" ">
<path fill="none" stroke="#63b8ff" d="M1272.65,-113.03C1263.17,-97.79 1242.62,-68.98 1216.38,-56.75 1143.85,-22.96 575.3,-13.68 422.22,-11.79"/>
<polygon fill="#63b8ff" stroke="#63b8ff" points="422.68,-8.29 412.64,-11.67 422.59,-15.29 422.68,-8.29"/>
</a>
</g>
</g>
<!-- Node32&#45;&gt;Node19 -->
<g id="edge63_Node000032_Node000019" class="edge">
<title>Node32&#45;&gt;Node19</title>
<g id="a_edge63_Node000032_Node000019"><a xlink:title=" ">
<path fill="none" stroke="#63b8ff" d="M758.21,-624.07C746.83,-616.01 731.96,-603.38 724.38,-588.25 698.1,-535.82 700.07,-464.12 703.05,-429.3"/>
<polygon fill="#63b8ff" stroke="#63b8ff" points="706.49,-430.04 703.99,-419.74 699.52,-429.35 706.49,-430.04"/>
</a>
</g>
</g>
<!-- Node33 -->
<g id="Node000033" class="node">
<title>Node33</title>
<g id="a_Node000033"><a xlink:title=" ">
<polygon fill="#e0e0e0" stroke="#999999" points="876.62,-588.25 832.12,-588.25 832.12,-567.5 876.62,-567.5 876.62,-588.25"/>
<text text-anchor="middle" x="854.38" y="-574.75" font-family="Helvetica,sans-Serif" font-size="10.00">utility</text>
</a>
</g>
</g>
<!-- Node32&#45;&gt;Node33 -->
<g id="edge64_Node000032_Node000033" class="edge">
<title>Node32&#45;&gt;Node33</title>
<g id="a_edge64_Node000032_Node000033"><a xlink:title=" ">
<path fill="none" stroke="#63b8ff" d="M787.86,-623.84C799.72,-615.82 816.75,-604.31 830.61,-594.94"/>
<polygon fill="#63b8ff" stroke="#63b8ff" points="832.44,-597.93 838.77,-589.43 828.52,-592.13 832.44,-597.93"/>
</a>
</g>
</g>
<!-- Node34 -->
<g id="Node000034" class="node">
<title>Node34</title>
<g id="a_Node000034"><a xlink:title=" ">
<polygon fill="#e0e0e0" stroke="#999999" points="958.38,-588.25 894.38,-588.25 894.38,-567.5 958.38,-567.5 958.38,-588.25"/>
<text text-anchor="middle" x="926.38" y="-574.75" font-family="Helvetica,sans-Serif" font-size="10.00">stdexcept</text>
</a>
</g>
</g>
<!-- Node32&#45;&gt;Node34 -->
<g id="edge65_Node000032_Node000034" class="edge">
<title>Node32&#45;&gt;Node34</title>
<g id="a_edge65_Node000032_Node000034"><a xlink:title=" ">
<path fill="none" stroke="#63b8ff" d="M800.73,-623.84C825.13,-615.11 861.1,-602.23 888.31,-592.5"/>
<polygon fill="#63b8ff" stroke="#63b8ff" points="889.34,-595.85 897.58,-589.18 886.98,-589.25 889.34,-595.85"/>
</a>
</g>
</g>
<!-- Node35 -->
<g id="Node000035" class="node">
<title>Node35</title>
<g id="a_Node000035"><a xlink:title=" ">
<polygon fill="#e0e0e0" stroke="#999999" points="813.62,-588.25 733.12,-588.25 733.12,-567.5 813.62,-567.5 813.62,-588.25"/>
<text text-anchor="middle" x="773.38" y="-574.75" font-family="Helvetica,sans-Serif" font-size="10.00">system_error</text>
</a>
</g>
</g>
<!-- Node32&#45;&gt;Node35 -->
<g id="edge66_Node000032_Node000035" class="edge">
<title>Node32&#45;&gt;Node35</title>
<g id="a_edge66_Node000032_Node000035"><a xlink:title=" ">
<path fill="none" stroke="#63b8ff" d="M773.38,-623.84C773.38,-617.22 773.38,-608.22 773.38,-600.02"/>
<polygon fill="#63b8ff" stroke="#63b8ff" points="776.88,-600.09 773.38,-590.09 769.88,-600.09 776.88,-600.09"/>
</a>
</g>
</g>
<!-- Node36&#45;&gt;Node16 -->
<g id="edge74_Node000036_Node000016" class="edge">
<title>Node36&#45;&gt;Node16</title>
<g id="a_edge74_Node000036_Node000016"><a xlink:title=" ">
<path fill="none" stroke="#63b8ff" d="M224.48,-623.84C247.73,-615.12 281.99,-602.27 307.94,-592.54"/>
<polygon fill="#63b8ff" stroke="#63b8ff" points="308.95,-595.9 317.08,-589.11 306.49,-589.34 308.95,-595.9"/>
</a>
</g>
</g>
<!-- Node37 -->
<g id="Node000037" class="node">
<title>Node37</title>
<g id="a_Node000037"><a xlink:title=" ">
<polygon fill="#e0e0e0" stroke="#999999" points="242.88,-588.25 193.88,-588.25 193.88,-567.5 242.88,-567.5 242.88,-588.25"/>
<text text-anchor="middle" x="218.38" y="-574.75" font-family="Helvetica,sans-Serif" font-size="10.00">chrono</text>
</a>
</g>
</g>
<!-- Node36&#45;&gt;Node37 -->
<g id="edge68_Node000036_Node000037" class="edge">
<title>Node36&#45;&gt;Node37</title>
<g id="a_edge68_Node000036_Node000037"><a xlink:title=" ">
<path fill="none" stroke="#63b8ff" d="M201.95,-623.84C204.45,-616.99 207.89,-607.59 210.97,-599.15"/>
<polygon fill="#63b8ff" stroke="#63b8ff" points="214.17,-600.59 214.31,-590 207.59,-598.19 214.17,-600.59"/>
</a>
</g>
</g>
<!-- Node38 -->
<g id="Node000038" class="node">
<title>Node38</title>
<g id="a_Node000038"><a xlink:title=" ">
<polygon fill="#e0e0e0" stroke="#999999" points="176,-588.25 112.75,-588.25 112.75,-567.5 176,-567.5 176,-588.25"/>
<text text-anchor="middle" x="144.38" y="-574.75" font-family="Helvetica,sans-Serif" font-size="10.00">algorithm</text>
</a>
</g>
</g>
<!-- Node36&#45;&gt;Node38 -->
<g id="edge69_Node000036_Node000038" class="edge">
<title>Node36&#45;&gt;Node38</title>
<g id="a_edge69_Node000036_Node000038"><a xlink:title=" ">
<path fill="none" stroke="#63b8ff" d="M188.72,-623.84C181.27,-616.28 170.77,-605.64 161.85,-596.6"/>
<polygon fill="#63b8ff" stroke="#63b8ff" points="164.52,-594.32 155.01,-589.66 159.54,-599.23 164.52,-594.32"/>
</a>
</g>
</g>
<!-- Node39 -->
<g id="Node000039" class="node">
<title>Node39</title>
<g id="a_Node000039"><a xlink:href="timex_8h.html" target="_top" xlink:title="Utility library for comparing and computing timestamps.">
<polygon fill="white" stroke="#666666" points="113.12,-247.75 59.62,-247.75 59.62,-227 113.12,-227 113.12,-247.75"/>
<text text-anchor="middle" x="86.38" y="-234.25" font-family="Helvetica,sans-Serif" font-size="10.00">timex.h</text>
</a>
</g>
</g>
<!-- Node36&#45;&gt;Node39 -->
<g id="edge70_Node000036_Node000039" class="edge">
<title>Node36&#45;&gt;Node39</title>
<g id="a_edge70_Node000036_Node000039"><a xlink:title=" ">
<path fill="none" stroke="#63b8ff" d="M160.8,-623.84C141.13,-616.91 118.14,-605.69 103.38,-588.25 83.62,-564.91 84.38,-552.7 84.38,-522.12 84.38,-522.12 84.38,-522.12 84.38,-349.88 84.38,-318.48 85.18,-282.11 85.77,-259.68"/>
<polygon fill="#63b8ff" stroke="#63b8ff" points="89.26,-259.82 86.04,-249.73 82.27,-259.63 89.26,-259.82"/>
</a>
</g>
</g>
<!-- Node39&#45;&gt;Node4 -->
<g id="edge72_Node000039_Node000004" class="edge">
<title>Node39&#45;&gt;Node4</title>
<g id="a_edge72_Node000039_Node000004"><a xlink:title=" ">
<path fill="none" stroke="#63b8ff" d="M113.47,-233.8C183.37,-227.13 375.53,-208.56 535.38,-191 546.8,-189.74 559.15,-188.31 570.62,-186.96"/>
<polygon fill="#63b8ff" stroke="#63b8ff" points="570.7,-190.47 580.22,-185.81 569.87,-183.52 570.7,-190.47"/>
</a>
</g>
</g>
<!-- Node39&#45;&gt;Node8 -->
<g id="edge71_Node000039_Node000008" class="edge">
<title>Node39&#45;&gt;Node8</title>
<g id="a_edge71_Node000039_Node000008"><a xlink:title=" ">
<path fill="none" stroke="#63b8ff" d="M87.25,-226.8C90.51,-193.09 103.15,-80.65 128.38,-56.75 159.16,-27.59 282.66,-16.79 346.19,-13.11"/>
<polygon fill="#63b8ff" stroke="#63b8ff" points="346.38,-16.6 356.18,-12.57 346,-9.61 346.38,-16.6"/>
</a>
</g>
</g>
<!-- Node40 -->
<g id="Node000040" class="node">
<title>Node40</title>
<g id="a_Node000040"><a xlink:href="time__units_8h.html" target="_top" xlink:title="Utility header providing time unit defines.">
<polygon fill="white" stroke="#666666" points="76.75,-191 0,-191 0,-170.25 76.75,-170.25 76.75,-191"/>
<text text-anchor="middle" x="38.38" y="-177.5" font-family="Helvetica,sans-Serif" font-size="10.00">time_units.h</text>
</a>
</g>
</g>
<!-- Node39&#45;&gt;Node40 -->
<g id="edge73_Node000039_Node000040" class="edge">
<title>Node39&#45;&gt;Node40</title>
<g id="a_edge73_Node000039_Node000040"><a xlink:title=" ">
<path fill="none" stroke="#63b8ff" d="M77.79,-226.59C71.31,-219.19 62.22,-208.82 54.4,-199.91"/>
<polygon fill="#63b8ff" stroke="#63b8ff" points="57.1,-197.68 47.88,-192.47 51.84,-202.29 57.1,-197.68"/>
</a>
</g>
</g>
</g>
</svg>
