<?xml version="1.0" encoding="UTF-8" standalone="no"?>
<!DOCTYPE svg PUBLIC "-//W3C//DTD SVG 1.1//EN"
 "http://www.w3.org/Graphics/SVG/1.1/DTD/svg11.dtd">
<!-- Generated by graphviz version 12.1.2 (0)
 -->
<!-- Title: core/lib/include/macros/utils.h Pages: 1 -->
<svg width="403pt" height="181pt"
 viewBox="0.00 0.00 402.75 180.50" xmlns="http://www.w3.org/2000/svg" xmlns:xlink="http://www.w3.org/1999/xlink">
<g id="graph0" class="graph" transform="scale(1 1) rotate(0) translate(4 176.5)">
<title>core/lib/include/macros/utils.h</title>
<!-- Node1 -->
<g id="Node000001" class="node">
<title>Node1</title>
<g id="a_Node000001"><a xlink:title="Various helper macros.">
<polygon fill="#999999" stroke="#666666" points="272.25,-172.5 143,-172.5 143,-139 272.25,-139 272.25,-172.5"/>
<text text-anchor="start" x="151" y="-159" font-family="Helvetica,sans-Serif" font-size="10.00">core/lib/include/macros</text>
<text text-anchor="middle" x="207.62" y="-146.25" font-family="Helvetica,sans-Serif" font-size="10.00">/utils.h</text>
</a>
</g>
</g>
<!-- Node2 -->
<g id="Node000002" class="node">
<title>Node2</title>
<g id="a_Node000002"><a xlink:href="atomic__utils_8h.html" target="_top" xlink:title="API of the utility functions for atomic accesses.">
<polygon fill="white" stroke="#666666" points="133.38,-96.62 25.88,-96.62 25.88,-63.12 133.38,-63.12 133.38,-96.62"/>
<text text-anchor="start" x="33.88" y="-83.12" font-family="Helvetica,sans-Serif" font-size="10.00">sys/include/atomic</text>
<text text-anchor="middle" x="79.62" y="-70.38" font-family="Helvetica,sans-Serif" font-size="10.00">_utils.h</text>
</a>
</g>
</g>
<!-- Node1&#45;&gt;Node2 -->
<g id="edge1_Node000001_Node000002" class="edge">
<title>Node1&#45;&gt;Node2</title>
<g id="a_edge1_Node000001_Node000002"><a xlink:title=" ">
<path fill="none" stroke="#63b8ff" d="M169.84,-132.94C149.91,-121.44 125.89,-107.58 107.65,-97.05"/>
<polygon fill="#63b8ff" stroke="#63b8ff" points="167.81,-135.81 178.22,-137.78 171.31,-129.75 167.81,-135.81"/>
</a>
</g>
</g>
<!-- Node4 -->
<g id="Node000004" class="node">
<title>Node4</title>
<g id="a_Node000004"><a xlink:href="vfs_8h.html" target="_top" xlink:title="VFS layer API declarations.">
<polygon fill="white" stroke="#666666" points="256.5,-90.25 158.75,-90.25 158.75,-69.5 256.5,-69.5 256.5,-90.25"/>
<text text-anchor="middle" x="207.62" y="-76.75" font-family="Helvetica,sans-Serif" font-size="10.00">sys/include/vfs.h</text>
</a>
</g>
</g>
<!-- Node1&#45;&gt;Node4 -->
<g id="edge3_Node000001_Node000004" class="edge">
<title>Node1&#45;&gt;Node4</title>
<g id="a_edge3_Node000001_Node000004"><a xlink:title=" ">
<path fill="none" stroke="#63b8ff" d="M207.62,-127.45C207.62,-114.42 207.62,-99.68 207.62,-90.33"/>
<polygon fill="#63b8ff" stroke="#63b8ff" points="204.13,-127.21 207.63,-137.21 211.13,-127.21 204.13,-127.21"/>
</a>
</g>
</g>
<!-- Node6 -->
<g id="Node000006" class="node">
<title>Node6</title>
<g id="a_Node000006"><a xlink:href="init__devs_8h.html" target="_top" xlink:title="common netif device initialization definitions">
<polygon fill="white" stroke="#666666" points="394.75,-103 274.5,-103 274.5,-56.75 394.75,-56.75 394.75,-103"/>
<text text-anchor="start" x="282.5" y="-89.5" font-family="Helvetica,sans-Serif" font-size="10.00">sys/net/gnrc/netif</text>
<text text-anchor="start" x="282.5" y="-76.75" font-family="Helvetica,sans-Serif" font-size="10.00">/init_devs/include/init</text>
<text text-anchor="middle" x="334.62" y="-64" font-family="Helvetica,sans-Serif" font-size="10.00">_devs.h</text>
</a>
</g>
</g>
<!-- Node1&#45;&gt;Node6 -->
<g id="edge5_Node000001_Node000006" class="edge">
<title>Node1&#45;&gt;Node6</title>
<g id="a_edge5_Node000001_Node000006"><a xlink:title=" ">
<path fill="none" stroke="#63b8ff" d="M245.04,-132.98C261,-123.7 279.62,-112.87 295.74,-103.49"/>
<polygon fill="#63b8ff" stroke="#63b8ff" points="243.69,-129.72 236.8,-137.78 247.21,-135.77 243.69,-129.72"/>
</a>
</g>
</g>
<!-- Node3 -->
<g id="Node000003" class="node">
<title>Node3</title>
<g id="a_Node000003"><a xlink:href="sema__inv_8h.html" target="_top" xlink:title="Inverse Semaphore definitions.">
<polygon fill="white" stroke="#666666" points="129.25,-20.75 0,-20.75 0,0 129.25,0 129.25,-20.75"/>
<text text-anchor="middle" x="64.62" y="-7.25" font-family="Helvetica,sans-Serif" font-size="10.00">sys/include/sema_inv.h</text>
</a>
</g>
</g>
<!-- Node2&#45;&gt;Node3 -->
<g id="edge2_Node000002_Node000003" class="edge">
<title>Node2&#45;&gt;Node3</title>
<g id="a_edge2_Node000002_Node000003"><a xlink:title=" ">
<path fill="none" stroke="#63b8ff" d="M73.6,-51.75C71.2,-40.96 68.59,-29.22 66.81,-21.2"/>
<polygon fill="#63b8ff" stroke="#63b8ff" points="70.16,-52.4 75.74,-61.4 76.99,-50.88 70.16,-52.4"/>
</a>
</g>
</g>
<!-- Node5 -->
<g id="Node000005" class="node">
<title>Node5</title>
<g id="a_Node000005"><a xlink:href="vfs__default_8h.html" target="_top" xlink:title="VFS default mount points.">
<polygon fill="white" stroke="#666666" points="284.38,-20.75 146.88,-20.75 146.88,0 284.38,0 284.38,-20.75"/>
<text text-anchor="middle" x="215.62" y="-7.25" font-family="Helvetica,sans-Serif" font-size="10.00">sys/include/vfs_default.h</text>
</a>
</g>
</g>
<!-- Node4&#45;&gt;Node5 -->
<g id="edge4_Node000004_Node000005" class="edge">
<title>Node4&#45;&gt;Node5</title>
<g id="a_edge4_Node000004_Node000005"><a xlink:title=" ">
<path fill="none" stroke="#63b8ff" d="M210.09,-58.07C211.55,-45.72 213.34,-30.65 214.48,-21.03"/>
<polygon fill="#63b8ff" stroke="#63b8ff" points="206.65,-57.36 208.95,-67.7 213.6,-58.18 206.65,-57.36"/>
</a>
</g>
</g>
</g>
</svg>
