<?xml version="1.0" encoding="UTF-8" standalone="no"?>
<!DOCTYPE svg PUBLIC "-//W3C//DTD SVG 1.1//EN"
 "http://www.w3.org/Graphics/SVG/1.1/DTD/svg11.dtd">
<!-- Generated by graphviz version 12.1.2 (0)
 -->
<!-- Title: sys/include/net/credman.h Pages: 1 -->
<svg width="153pt" height="86pt"
 viewBox="0.00 0.00 152.62 85.50" xmlns="http://www.w3.org/2000/svg" xmlns:xlink="http://www.w3.org/1999/xlink">
<g id="graph0" class="graph" transform="scale(1 1) rotate(0) translate(4 81.5)">
<title>sys/include/net/credman.h</title>
<!-- Node1 -->
<g id="Node000001" class="node">
<title>Node1</title>
<g id="a_Node000001"><a xlink:title="(D)TLS credentials management module definitions">
<polygon fill="#999999" stroke="#666666" points="144.25,-77.5 0,-77.5 0,-56.75 144.25,-56.75 144.25,-77.5"/>
<text text-anchor="middle" x="72.12" y="-64" font-family="Helvetica,sans-Serif" font-size="10.00">sys/include/net/credman.h</text>
</a>
</g>
</g>
<!-- Node2 -->
<g id="Node000002" class="node">
<title>Node2</title>
<g id="a_Node000002"><a xlink:title=" ">
<polygon fill="#e0e0e0" stroke="#999999" points="59.5,-20.75 6.75,-20.75 6.75,0 59.5,0 59.5,-20.75"/>
<text text-anchor="middle" x="33.12" y="-7.25" font-family="Helvetica,sans-Serif" font-size="10.00">stdint.h</text>
</a>
</g>
</g>
<!-- Node1&#45;&gt;Node2 -->
<g id="edge1_Node000001_Node000002" class="edge">
<title>Node1&#45;&gt;Node2</title>
<g id="a_edge1_Node000001_Node000002"><a xlink:title=" ">
<path fill="none" stroke="#63b8ff" d="M65.15,-56.34C59.99,-49.1 52.81,-39.01 46.55,-30.22"/>
<polygon fill="#63b8ff" stroke="#63b8ff" points="49.57,-28.43 40.92,-22.31 43.87,-32.49 49.57,-28.43"/>
</a>
</g>
</g>
<!-- Node3 -->
<g id="Node000003" class="node">
<title>Node3</title>
<g id="a_Node000003"><a xlink:href="modules_8h.html" target="_top" xlink:title="Common macros and compiler attributes/pragmas configuration.">
<polygon fill="white" stroke="#666666" points="144.62,-20.75 77.62,-20.75 77.62,0 144.62,0 144.62,-20.75"/>
<text text-anchor="middle" x="111.12" y="-7.25" font-family="Helvetica,sans-Serif" font-size="10.00">modules.h</text>
</a>
</g>
</g>
<!-- Node1&#45;&gt;Node3 -->
<g id="edge2_Node000001_Node000003" class="edge">
<title>Node1&#45;&gt;Node3</title>
<g id="a_edge2_Node000001_Node000003"><a xlink:title=" ">
<path fill="none" stroke="#63b8ff" d="M79.1,-56.34C84.26,-49.1 91.44,-39.01 97.7,-30.22"/>
<polygon fill="#63b8ff" stroke="#63b8ff" points="100.38,-32.49 103.33,-22.31 94.68,-28.43 100.38,-32.49"/>
</a>
</g>
</g>
</g>
</svg>
