<?xml version="1.0" encoding="UTF-8" standalone="no"?>
<!DOCTYPE svg PUBLIC "-//W3C//DTD SVG 1.1//EN"
 "http://www.w3.org/Graphics/SVG/1.1/DTD/svg11.dtd">
<!-- Generated by graphviz version 12.1.2 (0)
 -->
<!-- Title: sys/include/psa_crypto/psa/crypto.h Pages: 1 -->
<svg width="493pt" height="382pt"
 viewBox="0.00 0.00 492.80 382.00" xmlns="http://www.w3.org/2000/svg" xmlns:xlink="http://www.w3.org/1999/xlink">
<g id="graph0" class="graph" transform="scale(1 1) rotate(0) translate(4 378)">
<title>sys/include/psa_crypto/psa/crypto.h</title>
<!-- Node1 -->
<g id="Node000001" class="node">
<title>Node1</title>
<g id="a_Node000001"><a xlink:title="Function declarations for PSA Crypto.">
<polygon fill="#999999" stroke="#666666" points="381,-374 254,-374 254,-340.5 381,-340.5 381,-374"/>
<text text-anchor="start" x="262" y="-360.5" font-family="Helvetica,sans-Serif" font-size="10.00">sys/include/psa_crypto</text>
<text text-anchor="middle" x="317.5" y="-347.75" font-family="Helvetica,sans-Serif" font-size="10.00">/psa/crypto.h</text>
</a>
</g>
</g>
<!-- Node2 -->
<g id="Node000002" class="node">
<title>Node2</title>
<g id="a_Node000002"><a xlink:title=" ">
<polygon fill="#e0e0e0" stroke="#999999" points="60.5,-304.5 8.5,-304.5 8.5,-283.75 60.5,-283.75 60.5,-304.5"/>
<text text-anchor="middle" x="34.5" y="-291" font-family="Helvetica,sans-Serif" font-size="10.00">stdlib.h</text>
</a>
</g>
</g>
<!-- Node1&#45;&gt;Node2 -->
<g id="edge1_Node000001_Node000002" class="edge">
<title>Node1&#45;&gt;Node2</title>
<g id="a_edge1_Node000001_Node000002"><a xlink:title=" ">
<path fill="none" stroke="#63b8ff" d="M253.57,-343.93C205.91,-334.52 138.97,-320.8 71.64,-304.92"/>
<polygon fill="#63b8ff" stroke="#63b8ff" points="72.84,-301.6 62.31,-302.7 71.23,-308.41 72.84,-301.6"/>
</a>
</g>
</g>
<!-- Node3 -->
<g id="Node000003" class="node">
<title>Node3</title>
<g id="a_Node000003"><a xlink:title=" ">
<polygon fill="#e0e0e0" stroke="#999999" points="130.88,-304.5 78.12,-304.5 78.12,-283.75 130.88,-283.75 130.88,-304.5"/>
<text text-anchor="middle" x="104.5" y="-291" font-family="Helvetica,sans-Serif" font-size="10.00">string.h</text>
</a>
</g>
</g>
<!-- Node1&#45;&gt;Node3 -->
<g id="edge2_Node000001_Node000003" class="edge">
<title>Node1&#45;&gt;Node3</title>
<g id="a_edge2_Node000001_Node000003"><a xlink:title=" ">
<path fill="none" stroke="#63b8ff" d="M260.98,-340.03C223.38,-329.24 175.04,-315.37 142.11,-305.92"/>
<polygon fill="#63b8ff" stroke="#63b8ff" points="143.17,-302.58 132.6,-303.19 141.24,-309.31 143.17,-302.58"/>
</a>
</g>
</g>
<!-- Node4 -->
<g id="Node000004" class="node">
<title>Node4</title>
<g id="a_Node000004"><a xlink:href="kernel__defines_8h.html" target="_top" xlink:title="Common macros and compiler attributes/pragmas configuration.">
<polygon fill="white" stroke="#666666" points="285.62,-191 189.38,-191 189.38,-170.25 285.62,-170.25 285.62,-191"/>
<text text-anchor="middle" x="237.5" y="-177.5" font-family="Helvetica,sans-Serif" font-size="10.00">kernel_defines.h</text>
</a>
</g>
</g>
<!-- Node1&#45;&gt;Node4 -->
<g id="edge3_Node000001_Node000004" class="edge">
<title>Node1&#45;&gt;Node4</title>
<g id="a_edge3_Node000001_Node000004"><a xlink:title=" ">
<path fill="none" stroke="#63b8ff" d="M281.38,-340.07C247.51,-322.68 198.95,-291.51 177.5,-247.75 167.69,-227.75 187.81,-209.36 207.34,-197.08"/>
<polygon fill="#63b8ff" stroke="#63b8ff" points="208.87,-200.24 215.74,-192.17 205.34,-194.2 208.87,-200.24"/>
</a>
</g>
</g>
<!-- Node12 -->
<g id="Node000012" class="node">
<title>Node12</title>
<g id="a_Node000012"><a xlink:href="crypto__sizes_8h.html" target="_top" xlink:title="Size definitions for PSA Crypto.">
<polygon fill="white" stroke="#666666" points="432.38,-247.75 346.62,-247.75 346.62,-227 432.38,-227 432.38,-247.75"/>
<text text-anchor="middle" x="389.5" y="-234.25" font-family="Helvetica,sans-Serif" font-size="10.00">crypto_sizes.h</text>
</a>
</g>
</g>
<!-- Node1&#45;&gt;Node12 -->
<g id="edge14_Node000001_Node000012" class="edge">
<title>Node1&#45;&gt;Node12</title>
<g id="a_edge14_Node000001_Node000012"><a xlink:title=" ">
<path fill="none" stroke="#63b8ff" d="M338.72,-340.08C349.63,-330.76 362.32,-318.19 370.5,-304.5 378.85,-290.53 383.69,-272.69 386.4,-259.07"/>
<polygon fill="#63b8ff" stroke="#63b8ff" points="389.8,-259.91 388.06,-249.46 382.91,-258.71 389.8,-259.91"/>
</a>
</g>
</g>
<!-- Node13 -->
<g id="Node000013" class="node">
<title>Node13</title>
<g id="a_Node000013"><a xlink:href="crypto__values_8h.html" target="_top" xlink:title="Value definitions for PSA Crypto.">
<polygon fill="white" stroke="#666666" points="470.12,-191 376.88,-191 376.88,-170.25 470.12,-170.25 470.12,-191"/>
<text text-anchor="middle" x="423.5" y="-177.5" font-family="Helvetica,sans-Serif" font-size="10.00">crypto_values.h</text>
</a>
</g>
</g>
<!-- Node1&#45;&gt;Node13 -->
<g id="edge26_Node000001_Node000013" class="edge">
<title>Node1&#45;&gt;Node13</title>
<g id="a_edge26_Node000001_Node000013"><a xlink:title=" ">
<path fill="none" stroke="#63b8ff" d="M349.45,-340.08C380.34,-322.32 424.86,-290.54 441.5,-247.75 447.43,-232.5 441.8,-214.56 435.31,-201.21"/>
<polygon fill="#63b8ff" stroke="#63b8ff" points="438.47,-199.69 430.62,-192.57 432.32,-203.03 438.47,-199.69"/>
</a>
</g>
</g>
<!-- Node14 -->
<g id="Node000014" class="node">
<title>Node14</title>
<g id="a_Node000014"><a xlink:href="crypto__types_8h.html" target="_top" xlink:title="Type definitions for PSA Crypto.">
<polygon fill="white" stroke="#666666" points="468.5,-134.25 380.5,-134.25 380.5,-113.5 468.5,-113.5 468.5,-134.25"/>
<text text-anchor="middle" x="424.5" y="-120.75" font-family="Helvetica,sans-Serif" font-size="10.00">crypto_types.h</text>
</a>
</g>
</g>
<!-- Node1&#45;&gt;Node14 -->
<g id="edge27_Node000001_Node000014" class="edge">
<title>Node1&#45;&gt;Node14</title>
<g id="a_edge27_Node000001_Node000014"><a xlink:title=" ">
<path fill="none" stroke="#63b8ff" d="M365.24,-340.04C384.91,-331.66 406.93,-319.91 423.5,-304.5 444.87,-284.63 443.65,-273.95 456.5,-247.75 472.32,-215.49 494.82,-202.75 479.5,-170.25 473.84,-158.25 463.28,-148.34 452.91,-140.88"/>
<polygon fill="#63b8ff" stroke="#63b8ff" points="455.13,-138.15 444.86,-135.56 451.27,-143.99 455.13,-138.15"/>
</a>
</g>
</g>
<!-- Node16 -->
<g id="Node000016" class="node">
<title>Node16</title>
<g id="a_Node000016"><a xlink:href="crypto__struct_8h.html" target="_top" xlink:title="Structure definitions for PSA Crypto.">
<polygon fill="white" stroke="#666666" points="361.88,-304.5 273.12,-304.5 273.12,-283.75 361.88,-283.75 361.88,-304.5"/>
<text text-anchor="middle" x="317.5" y="-291" font-family="Helvetica,sans-Serif" font-size="10.00">crypto_struct.h</text>
</a>
</g>
</g>
<!-- Node1&#45;&gt;Node16 -->
<g id="edge21_Node000001_Node000016" class="edge">
<title>Node1&#45;&gt;Node16</title>
<g id="a_edge21_Node000001_Node000016"><a xlink:title=" ">
<path fill="none" stroke="#63b8ff" d="M317.5,-340.19C317.5,-332.85 317.5,-324.07 317.5,-316.21"/>
<polygon fill="#63b8ff" stroke="#63b8ff" points="321,-316.48 317.5,-306.48 314,-316.48 321,-316.48"/>
</a>
</g>
</g>
<!-- Node5 -->
<g id="Node000005" class="node">
<title>Node5</title>
<g id="a_Node000005"><a xlink:href="modules_8h.html" target="_top" xlink:title="Common macros and compiler attributes/pragmas configuration.">
<polygon fill="white" stroke="#666666" points="67,-134.25 0,-134.25 0,-113.5 67,-113.5 67,-134.25"/>
<text text-anchor="middle" x="33.5" y="-120.75" font-family="Helvetica,sans-Serif" font-size="10.00">modules.h</text>
</a>
</g>
</g>
<!-- Node4&#45;&gt;Node5 -->
<g id="edge4_Node000004_Node000005" class="edge">
<title>Node4&#45;&gt;Node5</title>
<g id="a_edge4_Node000004_Node000005"><a xlink:title=" ">
<path fill="none" stroke="#63b8ff" d="M201.03,-169.84C166.65,-160.61 115.05,-146.76 78.21,-136.87"/>
<polygon fill="#63b8ff" stroke="#63b8ff" points="79.31,-133.55 68.75,-134.33 77.5,-140.31 79.31,-133.55"/>
</a>
</g>
</g>
<!-- Node6 -->
<g id="Node000006" class="node">
<title>Node6</title>
<g id="a_Node000006"><a xlink:href="riot__version_8h.html" target="_top" xlink:title="Common macros and compiler attributes/pragmas configuration.">
<polygon fill="white" stroke="#666666" points="371.88,-77.5 289.12,-77.5 289.12,-56.75 371.88,-56.75 371.88,-77.5"/>
<text text-anchor="middle" x="330.5" y="-64" font-family="Helvetica,sans-Serif" font-size="10.00">riot_version.h</text>
</a>
</g>
</g>
<!-- Node4&#45;&gt;Node6 -->
<g id="edge5_Node000004_Node000006" class="edge">
<title>Node4&#45;&gt;Node6</title>
<g id="a_edge5_Node000004_Node000006"><a xlink:title=" ">
<path fill="none" stroke="#63b8ff" d="M247.68,-169.89C256.86,-160.94 270.56,-147.13 281.5,-134.25 294.47,-118.97 307.93,-100.59 317.46,-87.09"/>
<polygon fill="#63b8ff" stroke="#63b8ff" points="320.19,-89.29 323.04,-79.09 314.45,-85.29 320.19,-89.29"/>
</a>
</g>
</g>
<!-- Node8 -->
<g id="Node000008" class="node">
<title>Node8</title>
<g id="a_Node000008"><a xlink:href="compiler__hints_8h.html" target="_top" xlink:title="Common macros and compiler attributes/pragmas configuration.">
<polygon fill="white" stroke="#666666" points="182,-134.25 85,-134.25 85,-113.5 182,-113.5 182,-134.25"/>
<text text-anchor="middle" x="133.5" y="-120.75" font-family="Helvetica,sans-Serif" font-size="10.00">compiler_hints.h</text>
</a>
</g>
</g>
<!-- Node4&#45;&gt;Node8 -->
<g id="edge7_Node000004_Node000008" class="edge">
<title>Node4&#45;&gt;Node8</title>
<g id="a_edge7_Node000004_Node000008"><a xlink:title=" ">
<path fill="none" stroke="#63b8ff" d="M218.91,-169.84C203.08,-161.51 180.1,-149.41 161.96,-139.86"/>
<polygon fill="#63b8ff" stroke="#63b8ff" points="163.75,-136.84 153.27,-135.28 160.49,-143.04 163.75,-136.84"/>
</a>
</g>
</g>
<!-- Node10 -->
<g id="Node000010" class="node">
<title>Node10</title>
<g id="a_Node000010"><a xlink:href="container_8h.html" target="_top" xlink:title="Common macros and compiler attributes/pragmas configuration.">
<polygon fill="white" stroke="#666666" points="272.88,-134.25 202.12,-134.25 202.12,-113.5 272.88,-113.5 272.88,-134.25"/>
<text text-anchor="middle" x="237.5" y="-120.75" font-family="Helvetica,sans-Serif" font-size="10.00">container.h</text>
</a>
</g>
</g>
<!-- Node4&#45;&gt;Node10 -->
<g id="edge11_Node000004_Node000010" class="edge">
<title>Node4&#45;&gt;Node10</title>
<g id="a_edge11_Node000004_Node000010"><a xlink:title=" ">
<path fill="none" stroke="#63b8ff" d="M237.5,-169.84C237.5,-163.22 237.5,-154.22 237.5,-146.02"/>
<polygon fill="#63b8ff" stroke="#63b8ff" points="241,-146.09 237.5,-136.09 234,-146.09 241,-146.09"/>
</a>
</g>
</g>
<!-- Node7 -->
<g id="Node000007" class="node">
<title>Node7</title>
<g id="a_Node000007"><a xlink:title=" ">
<polygon fill="#e0e0e0" stroke="#999999" points="321.88,-20.75 269.12,-20.75 269.12,0 321.88,0 321.88,-20.75"/>
<text text-anchor="middle" x="295.5" y="-7.25" font-family="Helvetica,sans-Serif" font-size="10.00">stdint.h</text>
</a>
</g>
</g>
<!-- Node6&#45;&gt;Node7 -->
<g id="edge6_Node000006_Node000007" class="edge">
<title>Node6&#45;&gt;Node7</title>
<g id="a_edge6_Node000006_Node000007"><a xlink:title=" ">
<path fill="none" stroke="#63b8ff" d="M324.24,-56.34C319.66,-49.17 313.3,-39.23 307.73,-30.51"/>
<polygon fill="#63b8ff" stroke="#63b8ff" points="310.85,-28.89 302.52,-22.35 304.96,-32.66 310.85,-28.89"/>
</a>
</g>
</g>
<!-- Node8&#45;&gt;Node7 -->
<g id="edge10_Node000008_Node000007" class="edge">
<title>Node8&#45;&gt;Node7</title>
<g id="a_edge10_Node000008_Node000007"><a xlink:title=" ">
<path fill="none" stroke="#63b8ff" d="M120.7,-113.1C104.64,-99.66 80.88,-75.06 95.5,-56.75 115.38,-31.85 205.21,-19.59 257.47,-14.47"/>
<polygon fill="#63b8ff" stroke="#63b8ff" points="257.5,-17.98 267.13,-13.56 256.85,-11.01 257.5,-17.98"/>
</a>
</g>
</g>
<!-- Node9 -->
<g id="Node000009" class="node">
<title>Node9</title>
<g id="a_Node000009"><a xlink:href="assert_8h.html" target="_top" xlink:title="POSIX.1&#45;2008 compliant version of the assert macro.">
<polygon fill="white" stroke="#666666" points="160,-77.5 105,-77.5 105,-56.75 160,-56.75 160,-77.5"/>
<text text-anchor="middle" x="132.5" y="-64" font-family="Helvetica,sans-Serif" font-size="10.00">assert.h</text>
</a>
</g>
</g>
<!-- Node8&#45;&gt;Node9 -->
<g id="edge8_Node000008_Node000009" class="edge">
<title>Node8&#45;&gt;Node9</title>
<g id="a_edge8_Node000008_Node000009"><a xlink:title=" ">
<path fill="none" stroke="#63b8ff" d="M133.32,-113.09C133.2,-106.47 133.04,-97.47 132.89,-89.27"/>
<polygon fill="#63b8ff" stroke="#63b8ff" points="136.39,-89.28 132.7,-79.34 129.39,-89.4 136.39,-89.28"/>
</a>
</g>
</g>
<!-- Node9&#45;&gt;Node7 -->
<g id="edge9_Node000009_Node000007" class="edge">
<title>Node9&#45;&gt;Node7</title>
<g id="a_edge9_Node000009_Node000007"><a xlink:title=" ">
<path fill="none" stroke="#63b8ff" d="M160.15,-56.84C187.05,-47.8 228.12,-34.01 257.96,-23.98"/>
<polygon fill="#63b8ff" stroke="#63b8ff" points="259,-27.33 267.36,-20.83 256.77,-20.69 259,-27.33"/>
</a>
</g>
</g>
<!-- Node10&#45;&gt;Node7 -->
<g id="edge13_Node000010_Node000007" class="edge">
<title>Node10&#45;&gt;Node7</title>
<g id="a_edge13_Node000010_Node000007"><a xlink:title=" ">
<path fill="none" stroke="#63b8ff" d="M242.45,-113.37C251.86,-95.27 272.53,-55.53 285.11,-31.35"/>
<polygon fill="#63b8ff" stroke="#63b8ff" points="288.19,-33 289.7,-22.52 281.98,-29.77 288.19,-33"/>
</a>
</g>
</g>
<!-- Node11 -->
<g id="Node000011" class="node">
<title>Node11</title>
<g id="a_Node000011"><a xlink:title=" ">
<polygon fill="#e0e0e0" stroke="#999999" points="233,-77.5 178,-77.5 178,-56.75 233,-56.75 233,-77.5"/>
<text text-anchor="middle" x="205.5" y="-64" font-family="Helvetica,sans-Serif" font-size="10.00">stddef.h</text>
</a>
</g>
</g>
<!-- Node10&#45;&gt;Node11 -->
<g id="edge12_Node000010_Node000011" class="edge">
<title>Node10&#45;&gt;Node11</title>
<g id="a_edge12_Node000010_Node000011"><a xlink:title=" ">
<path fill="none" stroke="#63b8ff" d="M231.78,-113.09C227.64,-106 221.9,-96.19 216.85,-87.54"/>
<polygon fill="#63b8ff" stroke="#63b8ff" points="220,-86 211.94,-79.14 213.96,-89.53 220,-86"/>
</a>
</g>
</g>
<!-- Node12&#45;&gt;Node4 -->
<g id="edge15_Node000012_Node000004" class="edge">
<title>Node12&#45;&gt;Node4</title>
<g id="a_edge15_Node000012_Node000004"><a xlink:title=" ">
<path fill="none" stroke="#63b8ff" d="M362.33,-226.59C338.08,-217.86 302.35,-204.98 275.32,-195.25"/>
<polygon fill="#63b8ff" stroke="#63b8ff" points="276.71,-192.03 266.12,-191.93 274.34,-198.62 276.71,-192.03"/>
</a>
</g>
</g>
<!-- Node12&#45;&gt;Node13 -->
<g id="edge16_Node000012_Node000013" class="edge">
<title>Node12&#45;&gt;Node13</title>
<g id="a_edge16_Node000012_Node000013"><a xlink:title=" ">
<path fill="none" stroke="#63b8ff" d="M395.58,-226.59C399.98,-219.5 406.07,-209.69 411.44,-201.04"/>
<polygon fill="#63b8ff" stroke="#63b8ff" points="414.37,-202.96 416.68,-192.61 408.43,-199.26 414.37,-202.96"/>
</a>
</g>
</g>
<!-- Node13&#45;&gt;Node14 -->
<g id="edge17_Node000013_Node000014" class="edge">
<title>Node13&#45;&gt;Node14</title>
<g id="a_edge17_Node000013_Node000014"><a xlink:title=" ">
<path fill="none" stroke="#63b8ff" d="M423.68,-169.84C423.8,-163.22 423.96,-154.22 424.11,-146.02"/>
<polygon fill="#63b8ff" stroke="#63b8ff" points="427.61,-146.15 424.3,-136.09 420.61,-146.03 427.61,-146.15"/>
</a>
</g>
</g>
<!-- Node14&#45;&gt;Node7 -->
<g id="edge18_Node000014_Node000007" class="edge">
<title>Node14&#45;&gt;Node7</title>
<g id="a_edge18_Node000014_Node000007"><a xlink:title=" ">
<path fill="none" stroke="#63b8ff" d="M438.78,-113.13C456.37,-99.94 482.21,-75.84 467.5,-56.75 451.25,-35.65 378.81,-22.39 333.28,-15.98"/>
<polygon fill="#63b8ff" stroke="#63b8ff" points="333.94,-12.53 323.56,-14.66 333,-19.47 333.94,-12.53"/>
</a>
</g>
</g>
<!-- Node15 -->
<g id="Node000015" class="node">
<title>Node15</title>
<g id="a_Node000015"><a xlink:href="psa__crypto_2psa_2error_8h.html" target="_top" xlink:title="Error definitions for the PSA Crypto API.">
<polygon fill="white" stroke="#666666" points="458.75,-77.5 390.25,-77.5 390.25,-56.75 458.75,-56.75 458.75,-77.5"/>
<text text-anchor="middle" x="424.5" y="-64" font-family="Helvetica,sans-Serif" font-size="10.00">psa/error.h</text>
</a>
</g>
</g>
<!-- Node14&#45;&gt;Node15 -->
<g id="edge19_Node000014_Node000015" class="edge">
<title>Node14&#45;&gt;Node15</title>
<g id="a_edge19_Node000014_Node000015"><a xlink:title=" ">
<path fill="none" stroke="#63b8ff" d="M424.5,-113.09C424.5,-106.47 424.5,-97.47 424.5,-89.27"/>
<polygon fill="#63b8ff" stroke="#63b8ff" points="428,-89.34 424.5,-79.34 421,-89.34 428,-89.34"/>
</a>
</g>
</g>
<!-- Node15&#45;&gt;Node7 -->
<g id="edge20_Node000015_Node000007" class="edge">
<title>Node15&#45;&gt;Node7</title>
<g id="a_edge20_Node000015_Node000007"><a xlink:title=" ">
<path fill="none" stroke="#63b8ff" d="M401.44,-56.34C381.26,-47.77 351.7,-35.23 328.93,-25.56"/>
<polygon fill="#63b8ff" stroke="#63b8ff" points="330.33,-22.35 319.76,-21.67 327.59,-28.8 330.33,-22.35"/>
</a>
</g>
</g>
<!-- Node16&#45;&gt;Node12 -->
<g id="edge23_Node000016_Node000012" class="edge">
<title>Node16&#45;&gt;Node12</title>
<g id="a_edge23_Node000016_Node000012"><a xlink:title=" ">
<path fill="none" stroke="#63b8ff" d="M330.37,-283.34C340.71,-275.47 355.47,-264.25 367.65,-254.99"/>
<polygon fill="#63b8ff" stroke="#63b8ff" points="369.69,-257.83 375.53,-248.99 365.46,-252.26 369.69,-257.83"/>
</a>
</g>
</g>
<!-- Node16&#45;&gt;Node14 -->
<g id="edge22_Node000016_Node000014" class="edge">
<title>Node16&#45;&gt;Node14</title>
<g id="a_edge22_Node000016_Node000014"><a xlink:title=" ">
<path fill="none" stroke="#63b8ff" d="M319.34,-283.48C323.98,-261.31 337.95,-205.88 367.5,-170.25 376.65,-159.22 388.87,-149.06 399.64,-141.17"/>
<polygon fill="#63b8ff" stroke="#63b8ff" points="401.59,-144.08 407.77,-135.46 397.57,-138.35 401.59,-144.08"/>
</a>
</g>
</g>
<!-- Node17 -->
<g id="Node000017" class="node">
<title>Node17</title>
<g id="a_Node000017"><a xlink:href="crypto__contexts_8h.html" target="_top" xlink:title="Context definitions for PSA Crypto.">
<polygon fill="white" stroke="#666666" points="290,-247.75 187,-247.75 187,-227 290,-227 290,-247.75"/>
<text text-anchor="middle" x="238.5" y="-234.25" font-family="Helvetica,sans-Serif" font-size="10.00">crypto_contexts.h</text>
</a>
</g>
</g>
<!-- Node16&#45;&gt;Node17 -->
<g id="edge24_Node000016_Node000017" class="edge">
<title>Node16&#45;&gt;Node17</title>
<g id="a_edge24_Node000016_Node000017"><a xlink:title=" ">
<path fill="none" stroke="#63b8ff" d="M303.38,-283.34C291.81,-275.32 275.2,-263.81 261.68,-254.44"/>
<polygon fill="#63b8ff" stroke="#63b8ff" points="263.96,-251.76 253.75,-248.94 259.97,-257.51 263.96,-251.76"/>
</a>
</g>
</g>
<!-- Node17&#45;&gt;Node4 -->
<g id="edge25_Node000017_Node000004" class="edge">
<title>Node17&#45;&gt;Node4</title>
<g id="a_edge25_Node000017_Node000004"><a xlink:title=" ">
<path fill="none" stroke="#63b8ff" d="M238.32,-226.59C238.2,-219.97 238.04,-210.97 237.89,-202.77"/>
<polygon fill="#63b8ff" stroke="#63b8ff" points="241.39,-202.78 237.7,-192.84 234.39,-202.9 241.39,-202.78"/>
</a>
</g>
</g>
</g>
</svg>
