<?xml version="1.0" encoding="UTF-8" standalone="no"?>
<!DOCTYPE svg PUBLIC "-//W3C//DTD SVG 1.1//EN"
 "http://www.w3.org/Graphics/SVG/1.1/DTD/svg11.dtd">
<!-- Generated by graphviz version 12.1.2 (0)
 -->
<!-- Title: sys/include/net/csma_sender.h Pages: 1 -->
<svg width="548pt" height="325pt"
 viewBox="0.00 0.00 547.75 325.25" xmlns="http://www.w3.org/2000/svg" xmlns:xlink="http://www.w3.org/1999/xlink">
<g id="graph0" class="graph" transform="scale(1 1) rotate(0) translate(4 321.25)">
<title>sys/include/net/csma_sender.h</title>
<!-- Node1 -->
<g id="Node000001" class="node">
<title>Node1</title>
<g id="a_Node000001"><a xlink:title="Interface definition for the CSMA/CA helper.">
<polygon fill="#999999" stroke="#666666" points="118.75,-317.25 0,-317.25 0,-283.75 118.75,-283.75 118.75,-317.25"/>
<text text-anchor="start" x="8" y="-303.75" font-family="Helvetica,sans-Serif" font-size="10.00">sys/include/net/csma</text>
<text text-anchor="middle" x="59.38" y="-291" font-family="Helvetica,sans-Serif" font-size="10.00">_sender.h</text>
</a>
</g>
</g>
<!-- Node2 -->
<g id="Node000002" class="node">
<title>Node2</title>
<g id="a_Node000002"><a xlink:title=" ">
<polygon fill="#e0e0e0" stroke="#999999" points="298.75,-20.75 246,-20.75 246,0 298.75,0 298.75,-20.75"/>
<text text-anchor="middle" x="272.38" y="-7.25" font-family="Helvetica,sans-Serif" font-size="10.00">stdint.h</text>
</a>
</g>
</g>
<!-- Node1&#45;&gt;Node2 -->
<g id="edge1_Node000001_Node000002" class="edge">
<title>Node1&#45;&gt;Node2</title>
<g id="a_edge1_Node000001_Node000002"><a xlink:title=" ">
<path fill="none" stroke="#63b8ff" d="M48.94,-283.46C35.64,-261.43 14.38,-220.18 14.38,-181.62 14.38,-181.62 14.38,-181.62 14.38,-122.88 14.38,-28.12 162.83,-12.96 234.52,-11.16"/>
<polygon fill="#63b8ff" stroke="#63b8ff" points="234.28,-14.67 244.22,-11 234.17,-7.67 234.28,-14.67"/>
</a>
</g>
</g>
<!-- Node3 -->
<g id="Node000003" class="node">
<title>Node3</title>
<g id="a_Node000003"><a xlink:href="drivers_2include_2net_2netdev_8h.html" target="_top" xlink:title="Definitions low&#45;level network driver interface.">
<polygon fill="white" stroke="#666666" points="177.75,-247.75 101,-247.75 101,-227 177.75,-227 177.75,-247.75"/>
<text text-anchor="middle" x="139.38" y="-234.25" font-family="Helvetica,sans-Serif" font-size="10.00">net/netdev.h</text>
</a>
</g>
</g>
<!-- Node1&#45;&gt;Node3 -->
<g id="edge2_Node000001_Node000003" class="edge">
<title>Node1&#45;&gt;Node3</title>
<g id="a_edge2_Node000001_Node000003"><a xlink:title=" ">
<path fill="none" stroke="#63b8ff" d="M80.39,-283.44C91.82,-274.71 105.94,-263.92 117.5,-255.09"/>
<polygon fill="#63b8ff" stroke="#63b8ff" points="119.47,-257.99 125.29,-249.14 115.22,-252.43 119.47,-257.99"/>
</a>
</g>
</g>
<!-- Node3&#45;&gt;Node2 -->
<g id="edge3_Node000003_Node000002" class="edge">
<title>Node3&#45;&gt;Node2</title>
<g id="a_edge3_Node000003_Node000002"><a xlink:title=" ">
<path fill="none" stroke="#63b8ff" d="M113.53,-226.54C98.28,-219.24 80.28,-207.64 71.38,-191 67.03,-182.87 68.29,-178.94 71.38,-170.25 93.07,-109.04 111.37,-95.64 163.38,-56.75 184.86,-40.68 212.87,-29.18 235.11,-21.78"/>
<polygon fill="#63b8ff" stroke="#63b8ff" points="235.92,-25.2 244.39,-18.84 233.8,-18.53 235.92,-25.2"/>
</a>
</g>
</g>
<!-- Node4 -->
<g id="Node000004" class="node">
<title>Node4</title>
<g id="a_Node000004"><a xlink:href="errno_8h.html" target="_top" xlink:title=" ">
<polygon fill="white" stroke="#666666" points="130.62,-191 80.12,-191 80.12,-170.25 130.62,-170.25 130.62,-191"/>
<text text-anchor="middle" x="105.38" y="-177.5" font-family="Helvetica,sans-Serif" font-size="10.00">errno.h</text>
</a>
</g>
</g>
<!-- Node3&#45;&gt;Node4 -->
<g id="edge4_Node000003_Node000004" class="edge">
<title>Node3&#45;&gt;Node4</title>
<g id="a_edge4_Node000003_Node000004"><a xlink:title=" ">
<path fill="none" stroke="#63b8ff" d="M133.3,-226.59C128.9,-219.5 122.8,-209.69 117.43,-201.04"/>
<polygon fill="#63b8ff" stroke="#63b8ff" points="120.45,-199.26 112.2,-192.61 114.5,-202.96 120.45,-199.26"/>
</a>
</g>
</g>
<!-- Node5 -->
<g id="Node000005" class="node">
<title>Node5</title>
<g id="a_Node000005"><a xlink:href="iolist_8h.html" target="_top" xlink:title="iolist scatter / gather IO">
<polygon fill="white" stroke="#666666" points="197.88,-191 148.88,-191 148.88,-170.25 197.88,-170.25 197.88,-191"/>
<text text-anchor="middle" x="173.38" y="-177.5" font-family="Helvetica,sans-Serif" font-size="10.00">iolist.h</text>
</a>
</g>
</g>
<!-- Node3&#45;&gt;Node5 -->
<g id="edge5_Node000003_Node000005" class="edge">
<title>Node3&#45;&gt;Node5</title>
<g id="a_edge5_Node000003_Node000005"><a xlink:title=" ">
<path fill="none" stroke="#63b8ff" d="M145.45,-226.59C149.85,-219.5 155.95,-209.69 161.32,-201.04"/>
<polygon fill="#63b8ff" stroke="#63b8ff" points="164.25,-202.96 166.55,-192.61 158.3,-199.26 164.25,-202.96"/>
</a>
</g>
</g>
<!-- Node6 -->
<g id="Node000006" class="node">
<title>Node6</title>
<g id="a_Node000006"><a xlink:href="netopt_8h.html" target="_top" xlink:title="Definition of global configuration options.">
<polygon fill="white" stroke="#666666" points="291,-191 215.75,-191 215.75,-170.25 291,-170.25 291,-191"/>
<text text-anchor="middle" x="253.38" y="-177.5" font-family="Helvetica,sans-Serif" font-size="10.00">net/netopt.h</text>
</a>
</g>
</g>
<!-- Node3&#45;&gt;Node6 -->
<g id="edge6_Node000003_Node000006" class="edge">
<title>Node3&#45;&gt;Node6</title>
<g id="a_edge6_Node000003_Node000006"><a xlink:title=" ">
<path fill="none" stroke="#63b8ff" d="M159.76,-226.59C177.34,-218.14 203,-205.82 223.01,-196.21"/>
<polygon fill="#63b8ff" stroke="#63b8ff" points="224.31,-199.47 231.81,-191.98 221.28,-193.16 224.31,-199.47"/>
</a>
</g>
</g>
<!-- Node8 -->
<g id="Node000008" class="node">
<title>Node8</title>
<g id="a_Node000008"><a xlink:href="kernel__defines_8h.html" target="_top" xlink:title="Common macros and compiler attributes/pragmas configuration.">
<polygon fill="white" stroke="#666666" points="405.5,-191 309.25,-191 309.25,-170.25 405.5,-170.25 405.5,-191"/>
<text text-anchor="middle" x="357.38" y="-177.5" font-family="Helvetica,sans-Serif" font-size="10.00">kernel_defines.h</text>
</a>
</g>
</g>
<!-- Node3&#45;&gt;Node8 -->
<g id="edge9_Node000003_Node000008" class="edge">
<title>Node3&#45;&gt;Node8</title>
<g id="a_edge9_Node000003_Node000008"><a xlink:title=" ">
<path fill="none" stroke="#63b8ff" d="M178.1,-226.65C214.14,-217.6 268.07,-204.05 307.36,-194.19"/>
<polygon fill="#63b8ff" stroke="#63b8ff" points="307.96,-197.64 316.81,-191.81 306.26,-190.85 307.96,-197.64"/>
</a>
</g>
</g>
<!-- Node6&#45;&gt;Node2 -->
<g id="edge7_Node000006_Node000002" class="edge">
<title>Node6&#45;&gt;Node2</title>
<g id="a_edge7_Node000006_Node000002"><a xlink:title=" ">
<path fill="none" stroke="#63b8ff" d="M217.35,-169.79C188.1,-160.99 150.28,-147.47 141.38,-134.25 136.22,-126.6 137.33,-121.79 141.38,-113.5 161.61,-72.06 207.69,-42.54 239.42,-26.22"/>
<polygon fill="#63b8ff" stroke="#63b8ff" points="240.81,-29.44 248.22,-21.87 237.7,-23.17 240.81,-29.44"/>
</a>
</g>
</g>
<!-- Node7 -->
<g id="Node000007" class="node">
<title>Node7</title>
<g id="a_Node000007"><a xlink:title=" ">
<polygon fill="#e0e0e0" stroke="#999999" points="211.88,-134.25 150.88,-134.25 150.88,-113.5 211.88,-113.5 211.88,-134.25"/>
<text text-anchor="middle" x="181.38" y="-120.75" font-family="Helvetica,sans-Serif" font-size="10.00">stdbool.h</text>
</a>
</g>
</g>
<!-- Node6&#45;&gt;Node7 -->
<g id="edge8_Node000006_Node000007" class="edge">
<title>Node6&#45;&gt;Node7</title>
<g id="a_edge8_Node000006_Node000007"><a xlink:title=" ">
<path fill="none" stroke="#63b8ff" d="M240.5,-169.84C230.16,-161.97 215.41,-150.75 203.22,-141.49"/>
<polygon fill="#63b8ff" stroke="#63b8ff" points="205.42,-138.76 195.34,-135.49 201.18,-144.33 205.42,-138.76"/>
</a>
</g>
</g>
<!-- Node9 -->
<g id="Node000009" class="node">
<title>Node9</title>
<g id="a_Node000009"><a xlink:href="modules_8h.html" target="_top" xlink:title="Common macros and compiler attributes/pragmas configuration.">
<polygon fill="white" stroke="#666666" points="296.88,-134.25 229.88,-134.25 229.88,-113.5 296.88,-113.5 296.88,-134.25"/>
<text text-anchor="middle" x="263.38" y="-120.75" font-family="Helvetica,sans-Serif" font-size="10.00">modules.h</text>
</a>
</g>
</g>
<!-- Node8&#45;&gt;Node9 -->
<g id="edge10_Node000008_Node000009" class="edge">
<title>Node8&#45;&gt;Node9</title>
<g id="a_edge10_Node000008_Node000009"><a xlink:title=" ">
<path fill="none" stroke="#63b8ff" d="M340.57,-169.84C326.4,-161.58 305.88,-149.63 289.56,-140.13"/>
<polygon fill="#63b8ff" stroke="#63b8ff" points="291.75,-137.35 281.34,-135.34 288.22,-143.4 291.75,-137.35"/>
</a>
</g>
</g>
<!-- Node10 -->
<g id="Node000010" class="node">
<title>Node10</title>
<g id="a_Node000010"><a xlink:href="riot__version_8h.html" target="_top" xlink:title="Common macros and compiler attributes/pragmas configuration.">
<polygon fill="white" stroke="#666666" points="313.75,-77.5 231,-77.5 231,-56.75 313.75,-56.75 313.75,-77.5"/>
<text text-anchor="middle" x="272.38" y="-64" font-family="Helvetica,sans-Serif" font-size="10.00">riot_version.h</text>
</a>
</g>
</g>
<!-- Node8&#45;&gt;Node10 -->
<g id="edge11_Node000008_Node000010" class="edge">
<title>Node8&#45;&gt;Node10</title>
<g id="a_edge11_Node000008_Node000010"><a xlink:title=" ">
<path fill="none" stroke="#63b8ff" d="M350.13,-170.12C336.08,-151.7 304.94,-110.84 286.61,-86.8"/>
<polygon fill="#63b8ff" stroke="#63b8ff" points="289.61,-84.96 280.76,-79.13 284.04,-89.2 289.61,-84.96"/>
</a>
</g>
</g>
<!-- Node11 -->
<g id="Node000011" class="node">
<title>Node11</title>
<g id="a_Node000011"><a xlink:href="compiler__hints_8h.html" target="_top" xlink:title="Common macros and compiler attributes/pragmas configuration.">
<polygon fill="white" stroke="#666666" points="450.88,-134.25 353.88,-134.25 353.88,-113.5 450.88,-113.5 450.88,-134.25"/>
<text text-anchor="middle" x="402.38" y="-120.75" font-family="Helvetica,sans-Serif" font-size="10.00">compiler_hints.h</text>
</a>
</g>
</g>
<!-- Node8&#45;&gt;Node11 -->
<g id="edge13_Node000008_Node000011" class="edge">
<title>Node8&#45;&gt;Node11</title>
<g id="a_edge13_Node000008_Node000011"><a xlink:title=" ">
<path fill="none" stroke="#63b8ff" d="M365.42,-169.84C371.44,-162.52 379.84,-152.29 387.12,-143.44"/>
<polygon fill="#63b8ff" stroke="#63b8ff" points="389.79,-145.7 393.44,-135.75 384.38,-141.25 389.79,-145.7"/>
</a>
</g>
</g>
<!-- Node13 -->
<g id="Node000013" class="node">
<title>Node13</title>
<g id="a_Node000013"><a xlink:href="container_8h.html" target="_top" xlink:title="Common macros and compiler attributes/pragmas configuration.">
<polygon fill="white" stroke="#666666" points="539.75,-134.25 469,-134.25 469,-113.5 539.75,-113.5 539.75,-134.25"/>
<text text-anchor="middle" x="504.38" y="-120.75" font-family="Helvetica,sans-Serif" font-size="10.00">container.h</text>
</a>
</g>
</g>
<!-- Node8&#45;&gt;Node13 -->
<g id="edge17_Node000008_Node000013" class="edge">
<title>Node8&#45;&gt;Node13</title>
<g id="a_edge17_Node000008_Node000013"><a xlink:title=" ">
<path fill="none" stroke="#63b8ff" d="M383.66,-169.84C407.07,-161.12 441.56,-148.27 467.69,-138.54"/>
<polygon fill="#63b8ff" stroke="#63b8ff" points="468.75,-141.88 476.9,-135.11 466.31,-135.32 468.75,-141.88"/>
</a>
</g>
</g>
<!-- Node10&#45;&gt;Node2 -->
<g id="edge12_Node000010_Node000002" class="edge">
<title>Node10&#45;&gt;Node2</title>
<g id="a_edge12_Node000010_Node000002"><a xlink:title=" ">
<path fill="none" stroke="#63b8ff" d="M272.38,-56.34C272.38,-49.72 272.38,-40.72 272.38,-32.52"/>
<polygon fill="#63b8ff" stroke="#63b8ff" points="275.88,-32.59 272.38,-22.59 268.88,-32.59 275.88,-32.59"/>
</a>
</g>
</g>
<!-- Node11&#45;&gt;Node2 -->
<g id="edge16_Node000011_Node000002" class="edge">
<title>Node11&#45;&gt;Node2</title>
<g id="a_edge16_Node000011_Node000002"><a xlink:title=" ">
<path fill="none" stroke="#63b8ff" d="M391.29,-113.37C369.34,-94.54 320.05,-52.26 292.31,-28.47"/>
<polygon fill="#63b8ff" stroke="#63b8ff" points="294.82,-26.01 284.95,-22.16 290.26,-31.33 294.82,-26.01"/>
</a>
</g>
</g>
<!-- Node12 -->
<g id="Node000012" class="node">
<title>Node12</title>
<g id="a_Node000012"><a xlink:href="assert_8h.html" target="_top" xlink:title="POSIX.1&#45;2008 compliant version of the assert macro.">
<polygon fill="white" stroke="#666666" points="424.88,-77.5 369.88,-77.5 369.88,-56.75 424.88,-56.75 424.88,-77.5"/>
<text text-anchor="middle" x="397.38" y="-64" font-family="Helvetica,sans-Serif" font-size="10.00">assert.h</text>
</a>
</g>
</g>
<!-- Node11&#45;&gt;Node12 -->
<g id="edge14_Node000011_Node000012" class="edge">
<title>Node11&#45;&gt;Node12</title>
<g id="a_edge14_Node000011_Node000012"><a xlink:title=" ">
<path fill="none" stroke="#63b8ff" d="M401.48,-113.09C400.88,-106.47 400.06,-97.47 399.31,-89.27"/>
<polygon fill="#63b8ff" stroke="#63b8ff" points="402.79,-88.98 398.4,-79.34 395.82,-89.61 402.79,-88.98"/>
</a>
</g>
</g>
<!-- Node12&#45;&gt;Node2 -->
<g id="edge15_Node000012_Node000002" class="edge">
<title>Node12&#45;&gt;Node2</title>
<g id="a_edge15_Node000012_Node000002"><a xlink:title=" ">
<path fill="none" stroke="#63b8ff" d="M375.03,-56.34C355.56,-47.81 327.09,-35.34 305.07,-25.69"/>
<polygon fill="#63b8ff" stroke="#63b8ff" points="306.48,-22.49 295.92,-21.69 303.67,-28.9 306.48,-22.49"/>
</a>
</g>
</g>
<!-- Node13&#45;&gt;Node2 -->
<g id="edge19_Node000013_Node000002" class="edge">
<title>Node13&#45;&gt;Node2</title>
<g id="a_edge19_Node000013_Node000002"><a xlink:title=" ">
<path fill="none" stroke="#63b8ff" d="M496.85,-113.25C485.06,-98.84 460.85,-71.74 434.38,-56.75 395.27,-34.62 344.65,-22.7 310.49,-16.71"/>
<polygon fill="#63b8ff" stroke="#63b8ff" points="311.06,-13.26 300.63,-15.08 309.92,-20.16 311.06,-13.26"/>
</a>
</g>
</g>
<!-- Node14 -->
<g id="Node000014" class="node">
<title>Node14</title>
<g id="a_Node000014"><a xlink:title=" ">
<polygon fill="#e0e0e0" stroke="#999999" points="536.88,-77.5 481.88,-77.5 481.88,-56.75 536.88,-56.75 536.88,-77.5"/>
<text text-anchor="middle" x="509.38" y="-64" font-family="Helvetica,sans-Serif" font-size="10.00">stddef.h</text>
</a>
</g>
</g>
<!-- Node13&#45;&gt;Node14 -->
<g id="edge18_Node000013_Node000014" class="edge">
<title>Node13&#45;&gt;Node14</title>
<g id="a_edge18_Node000013_Node000014"><a xlink:title=" ">
<path fill="none" stroke="#63b8ff" d="M505.27,-113.09C505.87,-106.47 506.69,-97.47 507.44,-89.27"/>
<polygon fill="#63b8ff" stroke="#63b8ff" points="510.93,-89.61 508.35,-79.34 503.96,-88.98 510.93,-89.61"/>
</a>
</g>
</g>
</g>
</svg>
