<?xml version="1.0" encoding="UTF-8" standalone="no"?>
<!DOCTYPE svg PUBLIC "-//W3C//DTD SVG 1.1//EN"
 "http://www.w3.org/Graphics/SVG/1.1/DTD/svg11.dtd">
<!-- Generated by graphviz version 12.1.2 (0)
 -->
<!-- Title: sys/include/usb/descriptor.h Pages: 1 -->
<svg width="1070pt" height="225pt"
 viewBox="0.00 0.00 1070.25 224.50" xmlns="http://www.w3.org/2000/svg" xmlns:xlink="http://www.w3.org/1999/xlink">
<g id="graph0" class="graph" transform="scale(1 1) rotate(0) translate(4 220.5)">
<title>sys/include/usb/descriptor.h</title>
<!-- Node1 -->
<g id="Node000001" class="node">
<title>Node1</title>
<g id="a_Node000001"><a xlink:title="Definitions for USB protocol messages.">
<polygon fill="#999999" stroke="#666666" points="561.88,-216.5 410.12,-216.5 410.12,-195.75 561.88,-195.75 561.88,-216.5"/>
<text text-anchor="middle" x="486" y="-203" font-family="Helvetica,sans-Serif" font-size="10.00">sys/include/usb/descriptor.h</text>
</a>
</g>
</g>
<!-- Node2 -->
<g id="Node000002" class="node">
<title>Node2</title>
<g id="a_Node000002"><a xlink:href="cdc_8h.html" target="_top" xlink:title="Definition for USB CDC interfaces.">
<polygon fill="white" stroke="#666666" points="266.75,-159.75 147.25,-159.75 147.25,-139 266.75,-139 266.75,-159.75"/>
<text text-anchor="middle" x="207" y="-146.25" font-family="Helvetica,sans-Serif" font-size="10.00">sys/include/usb/cdc.h</text>
</a>
</g>
</g>
<!-- Node1&#45;&gt;Node2 -->
<g id="edge1_Node000001_Node000002" class="edge">
<title>Node1&#45;&gt;Node2</title>
<g id="a_edge1_Node000001_Node000002"><a xlink:title=" ">
<path fill="none" stroke="#63b8ff" d="M424.76,-193.11C374.52,-183.25 304.26,-169.46 257.27,-160.24"/>
<polygon fill="#63b8ff" stroke="#63b8ff" points="423.83,-196.49 434.31,-194.98 425.17,-189.62 423.83,-196.49"/>
</a>
</g>
</g>
<!-- Node5 -->
<g id="Node000005" class="node">
<title>Node5</title>
<g id="a_Node000005"><a xlink:href="dfu_8h.html" target="_top" xlink:title="Definition for USB DFU interfaces.">
<polygon fill="white" stroke="#666666" points="474.38,-159.75 355.62,-159.75 355.62,-139 474.38,-139 474.38,-159.75"/>
<text text-anchor="middle" x="415" y="-146.25" font-family="Helvetica,sans-Serif" font-size="10.00">sys/include/usb/dfu.h</text>
</a>
</g>
</g>
<!-- Node1&#45;&gt;Node5 -->
<g id="edge4_Node000001_Node000005" class="edge">
<title>Node1&#45;&gt;Node5</title>
<g id="a_edge4_Node000001_Node000005"><a xlink:title=" ">
<path fill="none" stroke="#63b8ff" d="M464.33,-188.41C452.29,-179.13 437.75,-167.92 427.58,-160.08"/>
<polygon fill="#63b8ff" stroke="#63b8ff" points="462.05,-191.08 472.11,-194.41 466.33,-185.53 462.05,-191.08"/>
</a>
</g>
</g>
<!-- Node6 -->
<g id="Node000006" class="node">
<title>Node6</title>
<g id="a_Node000006"><a xlink:href="usbus_8h.html" target="_top" xlink:title="USBUS basic interface.">
<polygon fill="white" stroke="#666666" points="623.75,-159.75 492.25,-159.75 492.25,-139 623.75,-139 623.75,-159.75"/>
<text text-anchor="middle" x="558" y="-146.25" font-family="Helvetica,sans-Serif" font-size="10.00">sys/include/usb/usbus.h</text>
</a>
</g>
</g>
<!-- Node1&#45;&gt;Node6 -->
<g id="edge5_Node000001_Node000006" class="edge">
<title>Node1&#45;&gt;Node6</title>
<g id="a_edge5_Node000001_Node000006"><a xlink:title=" ">
<path fill="none" stroke="#63b8ff" d="M507.98,-188.41C520.18,-179.13 534.93,-167.92 545.24,-160.08"/>
<polygon fill="#63b8ff" stroke="#63b8ff" points="505.92,-185.58 500.08,-194.42 510.16,-191.15 505.92,-185.58"/>
</a>
</g>
</g>
<!-- Node8 -->
<g id="Node000008" class="node">
<title>Node8</title>
<g id="a_Node000008"><a xlink:href="ecm_8h.html" target="_top" xlink:title="Interface and definitions for USB CDC ECM type interfaces.">
<polygon fill="white" stroke="#666666" points="1062.25,-33.5 939.75,-33.5 939.75,0 1062.25,0 1062.25,-33.5"/>
<text text-anchor="start" x="947.75" y="-20" font-family="Helvetica,sans-Serif" font-size="10.00">sys/include/usb/usbus</text>
<text text-anchor="middle" x="1001" y="-7.25" font-family="Helvetica,sans-Serif" font-size="10.00">/cdc/ecm.h</text>
</a>
</g>
</g>
<!-- Node1&#45;&gt;Node8 -->
<g id="edge16_Node000001_Node000008" class="edge">
<title>Node1&#45;&gt;Node8</title>
<g id="a_edge16_Node000001_Node000008"><a xlink:title=" ">
<path fill="none" stroke="#63b8ff" d="M573.57,-200.9C706.99,-192.43 951.37,-168.21 1005,-103 1020.91,-83.66 1014.07,-52.7 1007.58,-33.89"/>
<polygon fill="#63b8ff" stroke="#63b8ff" points="573.47,-197.4 563.71,-201.51 573.9,-204.39 573.47,-197.4"/>
</a>
</g>
</g>
<!-- Node3 -->
<g id="Node000003" class="node">
<title>Node3</title>
<g id="a_Node000003"><a xlink:href="acm_8h.html" target="_top" xlink:title="Interface and definitions for USB CDC ACM type interfaces in USBUS.">
<polygon fill="white" stroke="#666666" points="126.25,-103 3.75,-103 3.75,-69.5 126.25,-69.5 126.25,-103"/>
<text text-anchor="start" x="11.75" y="-89.5" font-family="Helvetica,sans-Serif" font-size="10.00">sys/include/usb/usbus</text>
<text text-anchor="middle" x="65" y="-76.75" font-family="Helvetica,sans-Serif" font-size="10.00">/cdc/acm.h</text>
</a>
</g>
</g>
<!-- Node2&#45;&gt;Node3 -->
<g id="edge2_Node000002_Node000003" class="edge">
<title>Node2&#45;&gt;Node3</title>
<g id="a_edge2_Node000002_Node000003"><a xlink:title=" ">
<path fill="none" stroke="#63b8ff" d="M173.7,-134.04C152.43,-124.89 124.8,-112.99 102.72,-103.48"/>
<polygon fill="#63b8ff" stroke="#63b8ff" points="172.23,-137.22 182.8,-137.96 174.99,-130.79 172.23,-137.22"/>
</a>
</g>
</g>
<!-- Node4 -->
<g id="Node000004" class="node">
<title>Node4</title>
<g id="a_Node000004"><a xlink:href="usb__board__reset__internal_8h.html" target="_top" xlink:title=" ">
<polygon fill="white" stroke="#666666" points="124,-33.5 0,-33.5 0,0 124,0 124,-33.5"/>
<text text-anchor="start" x="8" y="-20" font-family="Helvetica,sans-Serif" font-size="10.00">sys/include/usb_board</text>
<text text-anchor="middle" x="62" y="-7.25" font-family="Helvetica,sans-Serif" font-size="10.00">_reset_internal.h</text>
</a>
</g>
</g>
<!-- Node3&#45;&gt;Node4 -->
<g id="edge3_Node000003_Node000004" class="edge">
<title>Node3&#45;&gt;Node4</title>
<g id="a_edge3_Node000003_Node000004"><a xlink:title=" ">
<path fill="none" stroke="#63b8ff" d="M63.78,-57.81C63.42,-49.59 63.03,-40.84 62.71,-33.63"/>
<polygon fill="#63b8ff" stroke="#63b8ff" points="60.28,-57.91 64.22,-67.74 67.27,-57.6 60.28,-57.91"/>
</a>
</g>
</g>
<!-- Node6&#45;&gt;Node3 -->
<g id="edge7_Node000006_Node000003" class="edge">
<title>Node6&#45;&gt;Node3</title>
<g id="a_edge7_Node000006_Node000003"><a xlink:title=" ">
<path fill="none" stroke="#63b8ff" d="M480.51,-138.75C327.02,-121.67 285.46,-127.25 136,-103 132.88,-102.49 129.7,-101.94 126.49,-101.34"/>
<polygon fill="#63b8ff" stroke="#63b8ff" points="479.92,-142.2 490.25,-139.85 480.71,-135.25 479.92,-142.2"/>
</a>
</g>
</g>
<!-- Node7 -->
<g id="Node000007" class="node">
<title>Node7</title>
<g id="a_Node000007"><a xlink:href="msc_8h.html" target="_top" xlink:title="USB Mass Storage Class functions definitions.">
<polygon fill="white" stroke="#666666" points="972.62,-96.62 849.38,-96.62 849.38,-75.88 972.62,-75.88 972.62,-96.62"/>
<text text-anchor="middle" x="911" y="-83.12" font-family="Helvetica,sans-Serif" font-size="10.00">sys/include/usb/msc.h</text>
</a>
</g>
</g>
<!-- Node6&#45;&gt;Node7 -->
<g id="edge6_Node000006_Node000007" class="edge">
<title>Node6&#45;&gt;Node7</title>
<g id="a_edge6_Node000006_Node000007"><a xlink:title=" ">
<path fill="none" stroke="#63b8ff" d="M635.06,-137.23C691.86,-128.7 770.94,-116.2 840,-103 849.3,-101.22 859.25,-99.13 868.66,-97.07"/>
<polygon fill="#63b8ff" stroke="#63b8ff" points="634.87,-133.71 625.5,-138.65 635.91,-140.64 634.87,-133.71"/>
</a>
</g>
</g>
<!-- Node6&#45;&gt;Node8 -->
<g id="edge8_Node000006_Node000008" class="edge">
<title>Node6&#45;&gt;Node8</title>
<g id="a_edge8_Node000006_Node000008"><a xlink:title=" ">
<path fill="none" stroke="#63b8ff" d="M635.32,-144.93C750.59,-139.08 956.72,-125.58 982,-103 1001.34,-85.73 1003.32,-53.49 1002.5,-33.99"/>
<polygon fill="#63b8ff" stroke="#63b8ff" points="635.44,-141.42 625.63,-145.41 635.79,-148.41 635.44,-141.42"/>
</a>
</g>
</g>
<!-- Node9 -->
<g id="Node000009" class="node">
<title>Node9</title>
<g id="a_Node000009"><a xlink:href="control_8h.html" target="_top" xlink:title="USBUS control endpoint module.">
<polygon fill="white" stroke="#666666" points="549.25,-103 426.75,-103 426.75,-69.5 549.25,-69.5 549.25,-103"/>
<text text-anchor="start" x="434.75" y="-89.5" font-family="Helvetica,sans-Serif" font-size="10.00">sys/include/usb/usbus</text>
<text text-anchor="middle" x="488" y="-76.75" font-family="Helvetica,sans-Serif" font-size="10.00">/control.h</text>
</a>
</g>
</g>
<!-- Node6&#45;&gt;Node9 -->
<g id="edge9_Node000006_Node000009" class="edge">
<title>Node6&#45;&gt;Node9</title>
<g id="a_edge9_Node000006_Node000009"><a xlink:title=" ">
<path fill="none" stroke="#63b8ff" d="M538.32,-131.19C528.38,-122.51 516.38,-112.03 506.59,-103.48"/>
<polygon fill="#63b8ff" stroke="#63b8ff" points="535.78,-133.62 545.61,-137.56 540.38,-128.34 535.78,-133.62"/>
</a>
</g>
</g>
<!-- Node10 -->
<g id="Node000010" class="node">
<title>Node10</title>
<g id="a_Node000010"><a xlink:href="usb_2usbus_2fmt_8h.html" target="_top" xlink:title="USBUS descriptor formatter functions.">
<polygon fill="white" stroke="#666666" points="408.25,-103 285.75,-103 285.75,-69.5 408.25,-69.5 408.25,-103"/>
<text text-anchor="start" x="293.75" y="-89.5" font-family="Helvetica,sans-Serif" font-size="10.00">sys/include/usb/usbus</text>
<text text-anchor="middle" x="347" y="-76.75" font-family="Helvetica,sans-Serif" font-size="10.00">/fmt.h</text>
</a>
</g>
</g>
<!-- Node6&#45;&gt;Node10 -->
<g id="edge11_Node000006_Node000010" class="edge">
<title>Node6&#45;&gt;Node10</title>
<g id="a_edge11_Node000006_Node000010"><a xlink:title=" ">
<path fill="none" stroke="#63b8ff" d="M513.24,-135.41C481.08,-126.09 437.51,-113.47 403.04,-103.48"/>
<polygon fill="#63b8ff" stroke="#63b8ff" points="512.07,-138.71 522.65,-138.13 514.01,-131.99 512.07,-138.71"/>
</a>
</g>
</g>
<!-- Node11 -->
<g id="Node000011" class="node">
<title>Node11</title>
<g id="a_Node000011"><a xlink:href="usbus_2hid_8h.html" target="_top" xlink:title="Interface and definitions for USB HID type interfaces in USBUS.">
<polygon fill="white" stroke="#666666" points="267.25,-103 144.75,-103 144.75,-69.5 267.25,-69.5 267.25,-103"/>
<text text-anchor="start" x="152.75" y="-89.5" font-family="Helvetica,sans-Serif" font-size="10.00">sys/include/usb/usbus</text>
<text text-anchor="middle" x="206" y="-76.75" font-family="Helvetica,sans-Serif" font-size="10.00">/hid.h</text>
</a>
</g>
</g>
<!-- Node6&#45;&gt;Node11 -->
<g id="edge12_Node000006_Node000011" class="edge">
<title>Node6&#45;&gt;Node11</title>
<g id="a_edge12_Node000006_Node000011"><a xlink:title=" ">
<path fill="none" stroke="#63b8ff" d="M480.58,-137.11C424.03,-128.59 345.56,-116.13 277,-103 273.9,-102.41 270.73,-101.78 267.53,-101.13"/>
<polygon fill="#63b8ff" stroke="#63b8ff" points="480.04,-140.57 490.45,-138.59 481.08,-133.65 480.04,-140.57"/>
</a>
</g>
</g>
<!-- Node13 -->
<g id="Node000013" class="node">
<title>Node13</title>
<g id="a_Node000013"><a xlink:href="hid__io_8h.html" target="_top" xlink:title="USB HID callback and read/write functions.">
<polygon fill="white" stroke="#666666" points="690.25,-103 567.75,-103 567.75,-69.5 690.25,-69.5 690.25,-103"/>
<text text-anchor="start" x="575.75" y="-89.5" font-family="Helvetica,sans-Serif" font-size="10.00">sys/include/usb/usbus</text>
<text text-anchor="middle" x="629" y="-76.75" font-family="Helvetica,sans-Serif" font-size="10.00">/hid_io.h</text>
</a>
</g>
</g>
<!-- Node6&#45;&gt;Node13 -->
<g id="edge14_Node000006_Node000013" class="edge">
<title>Node6&#45;&gt;Node13</title>
<g id="a_edge14_Node000006_Node000013"><a xlink:title=" ">
<path fill="none" stroke="#63b8ff" d="M577.96,-131.19C588.04,-122.51 600.22,-112.03 610.14,-103.48"/>
<polygon fill="#63b8ff" stroke="#63b8ff" points="575.85,-128.39 570.55,-137.57 580.42,-133.69 575.85,-128.39"/>
</a>
</g>
</g>
<!-- Node14 -->
<g id="Node000014" class="node">
<title>Node14</title>
<g id="a_Node000014"><a xlink:href="usbus_2msc_8h.html" target="_top" xlink:title="USBUS Mass Storage Class functions definitions.">
<polygon fill="white" stroke="#666666" points="831.25,-103 708.75,-103 708.75,-69.5 831.25,-69.5 831.25,-103"/>
<text text-anchor="start" x="716.75" y="-89.5" font-family="Helvetica,sans-Serif" font-size="10.00">sys/include/usb/usbus</text>
<text text-anchor="middle" x="770" y="-76.75" font-family="Helvetica,sans-Serif" font-size="10.00">/msc.h</text>
</a>
</g>
</g>
<!-- Node6&#45;&gt;Node14 -->
<g id="edge15_Node000006_Node000014" class="edge">
<title>Node6&#45;&gt;Node14</title>
<g id="a_edge15_Node000006_Node000014"><a xlink:title=" ">
<path fill="none" stroke="#63b8ff" d="M602.98,-135.41C635.28,-126.09 679.06,-113.47 713.69,-103.48"/>
<polygon fill="#63b8ff" stroke="#63b8ff" points="602.15,-132 593.52,-138.13 604.09,-138.73 602.15,-132"/>
</a>
</g>
</g>
<!-- Node9&#45;&gt;Node8 -->
<g id="edge10_Node000009_Node000008" class="edge">
<title>Node9&#45;&gt;Node8</title>
<g id="a_edge10_Node000009_Node000008"><a xlink:title=" ">
<path fill="none" stroke="#63b8ff" d="M560.54,-69.35C702.1,-45.87 856.14,-30.46 939.59,-22.95"/>
<polygon fill="#63b8ff" stroke="#63b8ff" points="560.27,-65.85 550.99,-70.96 561.43,-72.75 560.27,-65.85"/>
</a>
</g>
</g>
<!-- Node12 -->
<g id="Node000012" class="node">
<title>Node12</title>
<g id="a_Node000012"><a xlink:href="ctap__hid_8h.html" target="_top" xlink:title="Definition for CTAPHID helper functions.">
<polygon fill="white" stroke="#666666" points="276.25,-33.5 141.75,-33.5 141.75,0 276.25,0 276.25,-33.5"/>
<text text-anchor="start" x="149.75" y="-20" font-family="Helvetica,sans-Serif" font-size="10.00">sys/include/fido2/ctap</text>
<text text-anchor="middle" x="209" y="-7.25" font-family="Helvetica,sans-Serif" font-size="10.00">/transport/hid/ctap_hid.h</text>
</a>
</g>
</g>
<!-- Node11&#45;&gt;Node12 -->
<g id="edge13_Node000011_Node000012" class="edge">
<title>Node11&#45;&gt;Node12</title>
<g id="a_edge13_Node000011_Node000012"><a xlink:title=" ">
<path fill="none" stroke="#63b8ff" d="M207.22,-57.81C207.58,-49.59 207.97,-40.84 208.29,-33.63"/>
<polygon fill="#63b8ff" stroke="#63b8ff" points="203.73,-57.6 206.78,-67.74 210.72,-57.91 203.73,-57.6"/>
</a>
</g>
</g>
</g>
</svg>
