<?xml version="1.0" encoding="UTF-8" standalone="no"?>
<!DOCTYPE svg PUBLIC "-//W3C//DTD SVG 1.1//EN"
 "http://www.w3.org/Graphics/SVG/1.1/DTD/svg11.dtd">
<!-- Generated by graphviz version 12.1.2 (0)
 -->
<!-- Title: sys/include/net/sock/dodtls.h Pages: 1 -->
<svg width="889pt" height="439pt"
 viewBox="0.00 0.00 889.00 438.75" xmlns="http://www.w3.org/2000/svg" xmlns:xlink="http://www.w3.org/1999/xlink">
<g id="graph0" class="graph" transform="scale(1 1) rotate(0) translate(4 434.75)">
<title>sys/include/net/sock/dodtls.h</title>
<!-- Node1 -->
<g id="Node000001" class="node">
<title>Node1</title>
<g id="a_Node000001"><a xlink:title="DNS over DTLS sock definitions.">
<polygon fill="#999999" stroke="#666666" points="356,-430.75 241,-430.75 241,-397.25 356,-397.25 356,-430.75"/>
<text text-anchor="start" x="249" y="-417.25" font-family="Helvetica,sans-Serif" font-size="10.00">sys/include/net/sock</text>
<text text-anchor="middle" x="298.5" y="-404.5" font-family="Helvetica,sans-Serif" font-size="10.00">/dodtls.h</text>
</a>
</g>
</g>
<!-- Node2 -->
<g id="Node000002" class="node">
<title>Node2</title>
<g id="a_Node000002"><a xlink:href="sock_2dtls_8h.html" target="_top" xlink:title="DTLS sock definitions.">
<polygon fill="white" stroke="#666666" points="306.12,-361.25 218.88,-361.25 218.88,-340.5 306.12,-340.5 306.12,-361.25"/>
<text text-anchor="middle" x="262.5" y="-347.75" font-family="Helvetica,sans-Serif" font-size="10.00">net/sock/dtls.h</text>
</a>
</g>
</g>
<!-- Node1&#45;&gt;Node2 -->
<g id="edge1_Node000001_Node000002" class="edge">
<title>Node1&#45;&gt;Node2</title>
<g id="a_edge1_Node000001_Node000002"><a xlink:title=" ">
<path fill="none" stroke="#63b8ff" d="M289.04,-396.94C284.46,-389.17 278.93,-379.77 274.1,-371.57"/>
<polygon fill="#63b8ff" stroke="#63b8ff" points="277.16,-369.86 269.06,-363.02 271.12,-373.41 277.16,-369.86"/>
</a>
</g>
</g>
<!-- Node11 -->
<g id="Node000011" class="node">
<title>Node11</title>
<g id="a_Node000011"><a xlink:href="sock_2udp_8h.html" target="_top" xlink:title="UDP sock definitions.">
<polygon fill="white" stroke="#666666" points="416.12,-304.5 328.88,-304.5 328.88,-283.75 416.12,-283.75 416.12,-304.5"/>
<text text-anchor="middle" x="372.5" y="-291" font-family="Helvetica,sans-Serif" font-size="10.00">net/sock/udp.h</text>
</a>
</g>
</g>
<!-- Node1&#45;&gt;Node11 -->
<g id="edge40_Node000001_Node000011" class="edge">
<title>Node1&#45;&gt;Node11</title>
<g id="a_edge40_Node000001_Node000011"><a xlink:title=" ">
<path fill="none" stroke="#63b8ff" d="M308.48,-397.1C321.9,-375.73 345.74,-337.75 360.24,-314.66"/>
<polygon fill="#63b8ff" stroke="#63b8ff" points="363.19,-316.55 365.54,-306.21 357.26,-312.82 363.19,-316.55"/>
</a>
</g>
</g>
<!-- Node3 -->
<g id="Node000003" class="node">
<title>Node3</title>
<g id="a_Node000003"><a xlink:href="assert_8h.html" target="_top" xlink:title="POSIX.1&#45;2008 compliant version of the assert macro.">
<polygon fill="white" stroke="#666666" points="55,-247.75 0,-247.75 0,-227 55,-227 55,-247.75"/>
<text text-anchor="middle" x="27.5" y="-234.25" font-family="Helvetica,sans-Serif" font-size="10.00">assert.h</text>
</a>
</g>
</g>
<!-- Node2&#45;&gt;Node3 -->
<g id="edge2_Node000002_Node000003" class="edge">
<title>Node2&#45;&gt;Node3</title>
<g id="a_edge2_Node000002_Node000003"><a xlink:title=" ">
<path fill="none" stroke="#63b8ff" d="M218.39,-348.84C176.56,-345.84 113.69,-335.91 69.5,-304.5 53.42,-293.07 42.08,-273.37 35.27,-258.44"/>
<polygon fill="#63b8ff" stroke="#63b8ff" points="38.64,-257.41 31.53,-249.56 32.19,-260.13 38.64,-257.41"/>
</a>
</g>
</g>
<!-- Node4 -->
<g id="Node000004" class="node">
<title>Node4</title>
<g id="a_Node000004"><a xlink:title=" ">
<polygon fill="#e0e0e0" stroke="#999999" points="497.88,-20.75 445.12,-20.75 445.12,0 497.88,0 497.88,-20.75"/>
<text text-anchor="middle" x="471.5" y="-7.25" font-family="Helvetica,sans-Serif" font-size="10.00">stdint.h</text>
</a>
</g>
</g>
<!-- Node2&#45;&gt;Node4 -->
<g id="edge5_Node000002_Node000004" class="edge">
<title>Node2&#45;&gt;Node4</title>
<g id="a_edge5_Node000002_Node000004"><a xlink:title=" ">
<path fill="none" stroke="#63b8ff" d="M218.71,-342.39C165.72,-330.53 83.5,-301.9 83.5,-238.38 83.5,-238.38 83.5,-238.38 83.5,-122.88 83.5,-50.55 335.69,-22.37 433.44,-14.17"/>
<polygon fill="#63b8ff" stroke="#63b8ff" points="433.64,-17.66 443.32,-13.36 433.07,-10.68 433.64,-17.66"/>
</a>
</g>
</g>
<!-- Node5 -->
<g id="Node000005" class="node">
<title>Node5</title>
<g id="a_Node000005"><a xlink:href="errno_8h.html" target="_top" xlink:title=" ">
<polygon fill="white" stroke="#666666" points="161.75,-247.75 111.25,-247.75 111.25,-227 161.75,-227 161.75,-247.75"/>
<text text-anchor="middle" x="136.5" y="-234.25" font-family="Helvetica,sans-Serif" font-size="10.00">errno.h</text>
</a>
</g>
</g>
<!-- Node2&#45;&gt;Node5 -->
<g id="edge4_Node000002_Node000005" class="edge">
<title>Node2&#45;&gt;Node5</title>
<g id="a_edge4_Node000002_Node000005"><a xlink:title=" ">
<path fill="none" stroke="#63b8ff" d="M251.76,-340.37C230.57,-321.62 183.12,-279.63 156.17,-255.78"/>
<polygon fill="#63b8ff" stroke="#63b8ff" points="158.52,-253.18 148.71,-249.18 153.88,-258.43 158.52,-253.18"/>
</a>
</g>
</g>
<!-- Node6 -->
<g id="Node000006" class="node">
<title>Node6</title>
<g id="a_Node000006"><a xlink:title=" ">
<polygon fill="#e0e0e0" stroke="#999999" points="231.5,-247.75 179.5,-247.75 179.5,-227 231.5,-227 231.5,-247.75"/>
<text text-anchor="middle" x="205.5" y="-234.25" font-family="Helvetica,sans-Serif" font-size="10.00">stdlib.h</text>
</a>
</g>
</g>
<!-- Node2&#45;&gt;Node6 -->
<g id="edge6_Node000002_Node000006" class="edge">
<title>Node2&#45;&gt;Node6</title>
<g id="a_edge6_Node000002_Node000006"><a xlink:title=" ">
<path fill="none" stroke="#63b8ff" d="M257.64,-340.37C248.39,-322.27 228.07,-282.53 215.71,-258.35"/>
<polygon fill="#63b8ff" stroke="#63b8ff" points="218.87,-256.83 211.2,-249.52 212.63,-260.02 218.87,-256.83"/>
</a>
</g>
</g>
<!-- Node7 -->
<g id="Node000007" class="node">
<title>Node7</title>
<g id="a_Node000007"><a xlink:title=" ">
<polygon fill="#e0e0e0" stroke="#999999" points="321.25,-247.75 249.75,-247.75 249.75,-227 321.25,-227 321.25,-247.75"/>
<text text-anchor="middle" x="285.5" y="-234.25" font-family="Helvetica,sans-Serif" font-size="10.00">sys/types.h</text>
</a>
</g>
</g>
<!-- Node2&#45;&gt;Node7 -->
<g id="edge7_Node000002_Node000007" class="edge">
<title>Node2&#45;&gt;Node7</title>
<g id="a_edge7_Node000002_Node000007"><a xlink:title=" ">
<path fill="none" stroke="#63b8ff" d="M264.46,-340.37C268.14,-322.52 276.17,-283.61 281.18,-259.34"/>
<polygon fill="#63b8ff" stroke="#63b8ff" points="284.58,-260.16 283.17,-249.66 277.72,-258.74 284.58,-260.16"/>
</a>
</g>
</g>
<!-- Node8 -->
<g id="Node000008" class="node">
<title>Node8</title>
<g id="a_Node000008"><a xlink:href="sock_8h.html" target="_top" xlink:title="Common sock API definitions.">
<polygon fill="white" stroke="#666666" points="405.62,-247.75 339.38,-247.75 339.38,-227 405.62,-227 405.62,-247.75"/>
<text text-anchor="middle" x="372.5" y="-234.25" font-family="Helvetica,sans-Serif" font-size="10.00">net/sock.h</text>
</a>
</g>
</g>
<!-- Node2&#45;&gt;Node8 -->
<g id="edge8_Node000002_Node000008" class="edge">
<title>Node2&#45;&gt;Node8</title>
<g id="a_edge8_Node000002_Node000008"><a xlink:title=" ">
<path fill="none" stroke="#63b8ff" d="M270.18,-340.06C280.75,-326.77 300.61,-302.58 319.5,-283.75 329.51,-273.77 341.41,-263.46 351.39,-255.19"/>
<polygon fill="#63b8ff" stroke="#63b8ff" points="353.54,-257.96 359.08,-248.93 349.12,-252.53 353.54,-257.96"/>
</a>
</g>
</g>
<!-- Node2&#45;&gt;Node11 -->
<g id="edge12_Node000002_Node000011" class="edge">
<title>Node2&#45;&gt;Node11</title>
<g id="a_edge12_Node000002_Node000011"><a xlink:title=" ">
<path fill="none" stroke="#63b8ff" d="M282.17,-340.09C299.06,-331.68 323.67,-319.43 342.93,-309.84"/>
<polygon fill="#63b8ff" stroke="#63b8ff" points="344.26,-313.09 351.65,-305.5 341.14,-306.83 344.26,-313.09"/>
</a>
</g>
</g>
<!-- Node21 -->
<g id="Node000021" class="node">
<title>Node21</title>
<g id="a_Node000021"><a xlink:href="credman_8h.html" target="_top" xlink:title="(D)TLS credentials management module definitions">
<polygon fill="white" stroke="#666666" points="828.75,-304.5 742.25,-304.5 742.25,-283.75 828.75,-283.75 828.75,-304.5"/>
<text text-anchor="middle" x="785.5" y="-291" font-family="Helvetica,sans-Serif" font-size="10.00">net/credman.h</text>
</a>
</g>
</g>
<!-- Node2&#45;&gt;Node21 -->
<g id="edge37_Node000002_Node000021" class="edge">
<title>Node2&#45;&gt;Node21</title>
<g id="a_edge37_Node000002_Node000021"><a xlink:title=" ">
<path fill="none" stroke="#63b8ff" d="M306.19,-345.3C401.2,-335.36 626.41,-311.78 730.73,-300.86"/>
<polygon fill="#63b8ff" stroke="#63b8ff" points="730.85,-304.37 740.43,-299.84 730.12,-297.4 730.85,-304.37"/>
</a>
</g>
</g>
<!-- Node3&#45;&gt;Node4 -->
<g id="edge3_Node000003_Node000004" class="edge">
<title>Node3&#45;&gt;Node4</title>
<g id="a_edge3_Node000003_Node000004"><a xlink:title=" ">
<path fill="none" stroke="#63b8ff" d="M26.34,-226.71C23.3,-196.33 18.52,-102.08 69.5,-56.75 96.43,-32.81 338.53,-18.09 433.51,-13.2"/>
<polygon fill="#63b8ff" stroke="#63b8ff" points="433.53,-16.7 443.35,-12.7 433.18,-9.71 433.53,-16.7"/>
</a>
</g>
</g>
<!-- Node8&#45;&gt;Node4 -->
<g id="edge9_Node000008_Node000004" class="edge">
<title>Node8&#45;&gt;Node4</title>
<g id="a_edge9_Node000008_Node000004"><a xlink:title=" ">
<path fill="none" stroke="#63b8ff" d="M363.28,-226.82C344.1,-205.73 303.38,-153.89 324.5,-113.5 347.47,-69.58 398.88,-40.74 434.37,-25.25"/>
<polygon fill="#63b8ff" stroke="#63b8ff" points="435.57,-28.54 443.43,-21.45 432.86,-22.09 435.57,-28.54"/>
</a>
</g>
</g>
<!-- Node9 -->
<g id="Node000009" class="node">
<title>Node9</title>
<g id="a_Node000009"><a xlink:title=" ">
<polygon fill="#e0e0e0" stroke="#999999" points="389,-134.25 334,-134.25 334,-113.5 389,-113.5 389,-134.25"/>
<text text-anchor="middle" x="361.5" y="-120.75" font-family="Helvetica,sans-Serif" font-size="10.00">stddef.h</text>
</a>
</g>
</g>
<!-- Node8&#45;&gt;Node9 -->
<g id="edge10_Node000008_Node000009" class="edge">
<title>Node8&#45;&gt;Node9</title>
<g id="a_edge10_Node000008_Node000009"><a xlink:title=" ">
<path fill="none" stroke="#63b8ff" d="M364.87,-226.6C358.55,-217.83 350.05,-204.34 346.5,-191 342.38,-175.52 346.88,-157.8 352,-144.61"/>
<polygon fill="#63b8ff" stroke="#63b8ff" points="355.08,-146.3 355.86,-135.73 348.66,-143.51 355.08,-146.3"/>
</a>
</g>
</g>
<!-- Node10 -->
<g id="Node000010" class="node">
<title>Node10</title>
<g id="a_Node000010"><a xlink:href="iolist_8h.html" target="_top" xlink:title="iolist scatter / gather IO">
<polygon fill="white" stroke="#666666" points="405,-191 356,-191 356,-170.25 405,-170.25 405,-191"/>
<text text-anchor="middle" x="380.5" y="-177.5" font-family="Helvetica,sans-Serif" font-size="10.00">iolist.h</text>
</a>
</g>
</g>
<!-- Node8&#45;&gt;Node10 -->
<g id="edge11_Node000008_Node000010" class="edge">
<title>Node8&#45;&gt;Node10</title>
<g id="a_edge11_Node000008_Node000010"><a xlink:title=" ">
<path fill="none" stroke="#63b8ff" d="M373.93,-226.59C374.91,-219.89 376.24,-210.76 377.45,-202.48"/>
<polygon fill="#63b8ff" stroke="#63b8ff" points="380.88,-203.23 378.86,-192.83 373.95,-202.21 380.88,-203.23"/>
</a>
</g>
</g>
<!-- Node11&#45;&gt;Node3 -->
<g id="edge13_Node000011_Node000003" class="edge">
<title>Node11&#45;&gt;Node3</title>
<g id="a_edge13_Node000011_Node000003"><a xlink:title=" ">
<path fill="none" stroke="#63b8ff" d="M328.46,-286.14C260.56,-275.36 131.43,-254.87 66.63,-244.59"/>
<polygon fill="#63b8ff" stroke="#63b8ff" points="67.23,-241.14 56.81,-243.03 66.14,-248.05 67.23,-241.14"/>
</a>
</g>
</g>
<!-- Node11&#45;&gt;Node4 -->
<g id="edge15_Node000011_Node000004" class="edge">
<title>Node11&#45;&gt;Node4</title>
<g id="a_edge15_Node000011_Node000004"><a xlink:title=" ">
<path fill="none" stroke="#63b8ff" d="M384.07,-283.44C393.53,-274.94 406.59,-261.78 414.5,-247.75 429.52,-221.11 433.5,-212.2 433.5,-181.62 433.5,-181.62 433.5,-181.62 433.5,-122.88 433.5,-89.26 449.16,-52.85 460.38,-31.09"/>
<polygon fill="#63b8ff" stroke="#63b8ff" points="463.36,-32.94 465.01,-22.47 457.19,-29.62 463.36,-32.94"/>
</a>
</g>
</g>
<!-- Node11&#45;&gt;Node5 -->
<g id="edge14_Node000011_Node000005" class="edge">
<title>Node11&#45;&gt;Node5</title>
<g id="a_edge14_Node000011_Node000005"><a xlink:title=" ">
<path fill="none" stroke="#63b8ff" d="M328.62,-283.9C290.01,-275.65 232.02,-262.91 173.09,-248.32"/>
<polygon fill="#63b8ff" stroke="#63b8ff" points="174.1,-244.96 163.55,-245.94 172.41,-251.75 174.1,-244.96"/>
</a>
</g>
</g>
<!-- Node11&#45;&gt;Node6 -->
<g id="edge16_Node000011_Node000006" class="edge">
<title>Node11&#45;&gt;Node6</title>
<g id="a_edge16_Node000011_Node000006"><a xlink:title=" ">
<path fill="none" stroke="#63b8ff" d="M342.64,-283.34C314.69,-274.17 272.83,-260.45 242.71,-250.58"/>
<polygon fill="#63b8ff" stroke="#63b8ff" points="243.83,-247.26 233.24,-247.47 241.65,-253.91 243.83,-247.26"/>
</a>
</g>
</g>
<!-- Node11&#45;&gt;Node7 -->
<g id="edge17_Node000011_Node000007" class="edge">
<title>Node11&#45;&gt;Node7</title>
<g id="a_edge17_Node000011_Node000007"><a xlink:title=" ">
<path fill="none" stroke="#63b8ff" d="M356.95,-283.34C344.08,-275.24 325.56,-263.58 310.59,-254.17"/>
<polygon fill="#63b8ff" stroke="#63b8ff" points="312.53,-251.25 302.2,-248.88 308.8,-257.17 312.53,-251.25"/>
</a>
</g>
</g>
<!-- Node11&#45;&gt;Node8 -->
<g id="edge19_Node000011_Node000008" class="edge">
<title>Node11&#45;&gt;Node8</title>
<g id="a_edge19_Node000011_Node000008"><a xlink:title=" ">
<path fill="none" stroke="#63b8ff" d="M372.5,-283.34C372.5,-276.72 372.5,-267.72 372.5,-259.52"/>
<polygon fill="#63b8ff" stroke="#63b8ff" points="376,-259.59 372.5,-249.59 369,-259.59 376,-259.59"/>
</a>
</g>
</g>
<!-- Node12 -->
<g id="Node000012" class="node">
<title>Node12</title>
<g id="a_Node000012"><a xlink:href="af_8h.html" target="_top" xlink:title="Global UNIX address family definitions.">
<polygon fill="white" stroke="#666666" points="513.88,-247.75 461.12,-247.75 461.12,-227 513.88,-227 513.88,-247.75"/>
<text text-anchor="middle" x="487.5" y="-234.25" font-family="Helvetica,sans-Serif" font-size="10.00">net/af.h</text>
</a>
</g>
</g>
<!-- Node11&#45;&gt;Node12 -->
<g id="edge18_Node000011_Node000012" class="edge">
<title>Node11&#45;&gt;Node12</title>
<g id="a_edge18_Node000011_Node000012"><a xlink:title=" ">
<path fill="none" stroke="#63b8ff" d="M393.06,-283.34C410.8,-274.89 436.68,-262.57 456.87,-252.96"/>
<polygon fill="#63b8ff" stroke="#63b8ff" points="458.23,-256.19 465.75,-248.73 455.22,-249.87 458.23,-256.19"/>
</a>
</g>
</g>
<!-- Node13 -->
<g id="Node000013" class="node">
<title>Node13</title>
<g id="a_Node000013"><a xlink:href="ipv4_2addr_8h.html" target="_top" xlink:title="IPv4 address type and helper functions definitions.">
<polygon fill="white" stroke="#666666" points="574.25,-191 484.75,-191 484.75,-170.25 574.25,-170.25 574.25,-191"/>
<text text-anchor="middle" x="529.5" y="-177.5" font-family="Helvetica,sans-Serif" font-size="10.00">net/ipv4/addr.h</text>
</a>
</g>
</g>
<!-- Node11&#45;&gt;Node13 -->
<g id="edge20_Node000011_Node000013" class="edge">
<title>Node11&#45;&gt;Node13</title>
<g id="a_edge20_Node000011_Node000013"><a xlink:title=" ">
<path fill="none" stroke="#63b8ff" d="M416.36,-292.28C450.71,-289.09 496.83,-278.77 522.5,-247.75 532.75,-235.37 533.92,-216.9 532.86,-202.62"/>
<polygon fill="#63b8ff" stroke="#63b8ff" points="536.36,-202.43 531.7,-192.92 529.41,-203.26 536.36,-202.43"/>
</a>
</g>
</g>
<!-- Node19 -->
<g id="Node000019" class="node">
<title>Node19</title>
<g id="a_Node000019"><a xlink:href="ipv6_2addr_8h.html" target="_top" xlink:title="Definitions for IPv6 addresses.">
<polygon fill="white" stroke="#666666" points="659.25,-247.75 569.75,-247.75 569.75,-227 659.25,-227 659.25,-247.75"/>
<text text-anchor="middle" x="614.5" y="-234.25" font-family="Helvetica,sans-Serif" font-size="10.00">net/ipv6/addr.h</text>
</a>
</g>
</g>
<!-- Node11&#45;&gt;Node19 -->
<g id="edge31_Node000011_Node000019" class="edge">
<title>Node11&#45;&gt;Node19</title>
<g id="a_edge31_Node000011_Node000019"><a xlink:title=" ">
<path fill="none" stroke="#63b8ff" d="M416.04,-283.27C456.35,-274.15 516.45,-260.56 559.94,-250.72"/>
<polygon fill="#63b8ff" stroke="#63b8ff" points="560.44,-254.19 569.42,-248.57 558.9,-247.37 560.44,-254.19"/>
</a>
</g>
</g>
<!-- Node20 -->
<g id="Node000020" class="node">
<title>Node20</title>
<g id="a_Node000020"><a xlink:title=" ">
<polygon fill="#e0e0e0" stroke="#999999" points="757.38,-247.75 677.62,-247.75 677.62,-227 757.38,-227 757.38,-247.75"/>
<text text-anchor="middle" x="717.5" y="-234.25" font-family="Helvetica,sans-Serif" font-size="10.00">sock_types.h</text>
</a>
</g>
</g>
<!-- Node11&#45;&gt;Node20 -->
<g id="edge36_Node000011_Node000020" class="edge">
<title>Node11&#45;&gt;Node20</title>
<g id="a_edge36_Node000011_Node000020"><a xlink:title=" ">
<path fill="none" stroke="#63b8ff" d="M416.22,-286.94C471.84,-278.95 571.16,-264.32 665.91,-248.15"/>
<polygon fill="#63b8ff" stroke="#63b8ff" points="666.39,-251.62 675.65,-246.47 665.21,-244.72 666.39,-251.62"/>
</a>
</g>
</g>
<!-- Node13&#45;&gt;Node4 -->
<g id="edge22_Node000013_Node000004" class="edge">
<title>Node13&#45;&gt;Node4</title>
<g id="a_edge22_Node000013_Node000004"><a xlink:title=" ">
<path fill="none" stroke="#63b8ff" d="M522.62,-169.97C516.57,-161.07 507.89,-147.3 502.5,-134.25 488.33,-99.97 479.38,-57.54 474.92,-32.57"/>
<polygon fill="#63b8ff" stroke="#63b8ff" points="478.37,-32 473.24,-22.73 471.47,-33.18 478.37,-32"/>
</a>
</g>
</g>
<!-- Node13&#45;&gt;Node9 -->
<g id="edge23_Node000013_Node000009" class="edge">
<title>Node13&#45;&gt;Node9</title>
<g id="a_edge23_Node000013_Node000009"><a xlink:title=" ">
<path fill="none" stroke="#63b8ff" d="M499.46,-169.84C471.64,-160.77 430.12,-147.24 399.9,-137.39"/>
<polygon fill="#63b8ff" stroke="#63b8ff" points="401.35,-134.18 390.76,-134.41 399.19,-140.84 401.35,-134.18"/>
</a>
</g>
</g>
<!-- Node14 -->
<g id="Node000014" class="node">
<title>Node14</title>
<g id="a_Node000014"><a xlink:title=" ">
<polygon fill="#e0e0e0" stroke="#999999" points="572,-134.25 511,-134.25 511,-113.5 572,-113.5 572,-134.25"/>
<text text-anchor="middle" x="541.5" y="-120.75" font-family="Helvetica,sans-Serif" font-size="10.00">stdbool.h</text>
</a>
</g>
</g>
<!-- Node13&#45;&gt;Node14 -->
<g id="edge21_Node000013_Node000014" class="edge">
<title>Node13&#45;&gt;Node14</title>
<g id="a_edge21_Node000013_Node000014"><a xlink:title=" ">
<path fill="none" stroke="#63b8ff" d="M531.65,-169.84C533.11,-163.14 535.11,-154.01 536.93,-145.73"/>
<polygon fill="#63b8ff" stroke="#63b8ff" points="540.33,-146.57 539.05,-136.06 533.49,-145.08 540.33,-146.57"/>
</a>
</g>
</g>
<!-- Node15 -->
<g id="Node000015" class="node">
<title>Node15</title>
<g id="a_Node000015"><a xlink:href="byteorder_8h.html" target="_top" xlink:title="Functions to work with different byte orders.">
<polygon fill="white" stroke="#666666" points="675.62,-134.25 603.38,-134.25 603.38,-113.5 675.62,-113.5 675.62,-134.25"/>
<text text-anchor="middle" x="639.5" y="-120.75" font-family="Helvetica,sans-Serif" font-size="10.00">byteorder.h</text>
</a>
</g>
</g>
<!-- Node13&#45;&gt;Node15 -->
<g id="edge24_Node000013_Node000015" class="edge">
<title>Node13&#45;&gt;Node15</title>
<g id="a_edge24_Node000013_Node000015"><a xlink:title=" ">
<path fill="none" stroke="#63b8ff" d="M549.17,-169.84C566.06,-161.43 590.67,-149.18 609.93,-139.59"/>
<polygon fill="#63b8ff" stroke="#63b8ff" points="611.26,-142.84 618.65,-135.25 608.14,-136.58 611.26,-142.84"/>
</a>
</g>
</g>
<!-- Node15&#45;&gt;Node4 -->
<g id="edge26_Node000015_Node000004" class="edge">
<title>Node15&#45;&gt;Node4</title>
<g id="a_edge26_Node000015_Node000004"><a xlink:title=" ">
<path fill="none" stroke="#63b8ff" d="M603.84,-113.05C580.93,-105.64 551.31,-93.92 528.5,-77.5 510.51,-64.55 494.47,-44.82 484.03,-30.28"/>
<polygon fill="#63b8ff" stroke="#63b8ff" points="487.16,-28.66 478.59,-22.43 481.41,-32.64 487.16,-28.66"/>
</a>
</g>
</g>
<!-- Node16 -->
<g id="Node000016" class="node">
<title>Node16</title>
<g id="a_Node000016"><a xlink:title=" ">
<polygon fill="#e0e0e0" stroke="#999999" points="757.88,-77.5 705.12,-77.5 705.12,-56.75 757.88,-56.75 757.88,-77.5"/>
<text text-anchor="middle" x="731.5" y="-64" font-family="Helvetica,sans-Serif" font-size="10.00">string.h</text>
</a>
</g>
</g>
<!-- Node15&#45;&gt;Node16 -->
<g id="edge25_Node000015_Node000016" class="edge">
<title>Node15&#45;&gt;Node16</title>
<g id="a_edge25_Node000015_Node000016"><a xlink:title=" ">
<path fill="none" stroke="#63b8ff" d="M655.95,-113.09C669.68,-104.91 689.52,-93.11 705.42,-83.65"/>
<polygon fill="#63b8ff" stroke="#63b8ff" points="707.09,-86.72 713.89,-78.6 703.51,-80.71 707.09,-86.72"/>
</a>
</g>
</g>
<!-- Node17 -->
<g id="Node000017" class="node">
<title>Node17</title>
<g id="a_Node000017"><a xlink:href="endian_8h.html" target="_top" xlink:title="libc header for endian conversion">
<polygon fill="white" stroke="#666666" points="595.5,-77.5 537.5,-77.5 537.5,-56.75 595.5,-56.75 595.5,-77.5"/>
<text text-anchor="middle" x="566.5" y="-64" font-family="Helvetica,sans-Serif" font-size="10.00">endian.h</text>
</a>
</g>
</g>
<!-- Node15&#45;&gt;Node17 -->
<g id="edge27_Node000015_Node000017" class="edge">
<title>Node15&#45;&gt;Node17</title>
<g id="a_edge27_Node000015_Node000017"><a xlink:title=" ">
<path fill="none" stroke="#63b8ff" d="M626.45,-113.09C615.86,-105.15 600.71,-93.78 588.28,-84.46"/>
<polygon fill="#63b8ff" stroke="#63b8ff" points="590.75,-81.94 580.65,-78.74 586.55,-87.54 590.75,-81.94"/>
</a>
</g>
</g>
<!-- Node18 -->
<g id="Node000018" class="node">
<title>Node18</title>
<g id="a_Node000018"><a xlink:href="unaligned_8h.html" target="_top" xlink:title="Unaligned but safe memory access functions.">
<polygon fill="white" stroke="#666666" points="687,-77.5 614,-77.5 614,-56.75 687,-56.75 687,-77.5"/>
<text text-anchor="middle" x="650.5" y="-64" font-family="Helvetica,sans-Serif" font-size="10.00">unaligned.h</text>
</a>
</g>
</g>
<!-- Node15&#45;&gt;Node18 -->
<g id="edge29_Node000015_Node000018" class="edge">
<title>Node15&#45;&gt;Node18</title>
<g id="a_edge29_Node000015_Node000018"><a xlink:title=" ">
<path fill="none" stroke="#63b8ff" d="M641.47,-113.09C642.81,-106.39 644.65,-97.26 646.31,-88.98"/>
<polygon fill="#63b8ff" stroke="#63b8ff" points="649.71,-89.81 648.25,-79.31 642.85,-88.43 649.71,-89.81"/>
</a>
</g>
</g>
<!-- Node17&#45;&gt;Node4 -->
<g id="edge28_Node000017_Node000004" class="edge">
<title>Node17&#45;&gt;Node4</title>
<g id="a_edge28_Node000017_Node000004"><a xlink:title=" ">
<path fill="none" stroke="#63b8ff" d="M549.52,-56.34C535.2,-48.08 514.46,-36.13 497.96,-26.63"/>
<polygon fill="#63b8ff" stroke="#63b8ff" points="500.06,-23.8 489.65,-21.83 496.56,-29.86 500.06,-23.8"/>
</a>
</g>
</g>
<!-- Node18&#45;&gt;Node4 -->
<g id="edge30_Node000018_Node000004" class="edge">
<title>Node18&#45;&gt;Node4</title>
<g id="a_edge30_Node000018_Node000004"><a xlink:title=" ">
<path fill="none" stroke="#63b8ff" d="M618.5,-56.34C587.82,-46.95 541.52,-32.79 509.1,-22.88"/>
<polygon fill="#63b8ff" stroke="#63b8ff" points="510.3,-19.58 499.71,-20 508.25,-26.28 510.3,-19.58"/>
</a>
</g>
</g>
<!-- Node19&#45;&gt;Node13 -->
<g id="edge35_Node000019_Node000013" class="edge">
<title>Node19&#45;&gt;Node13</title>
<g id="a_edge35_Node000019_Node000013"><a xlink:title=" ">
<path fill="none" stroke="#63b8ff" d="M599.3,-226.59C586.73,-218.49 568.64,-206.83 554.02,-197.42"/>
<polygon fill="#63b8ff" stroke="#63b8ff" points="556.14,-194.62 545.84,-192.15 552.35,-200.51 556.14,-194.62"/>
</a>
</g>
</g>
<!-- Node19&#45;&gt;Node14 -->
<g id="edge32_Node000019_Node000014" class="edge">
<title>Node19&#45;&gt;Node14</title>
<g id="a_edge32_Node000019_Node000014"><a xlink:title=" ">
<path fill="none" stroke="#63b8ff" d="M611.13,-226.91C606.17,-213.63 596.1,-188.97 583.5,-170.25 576.81,-160.31 567.97,-150.41 560.12,-142.41"/>
<polygon fill="#63b8ff" stroke="#63b8ff" points="562.81,-140.14 553.23,-135.62 557.9,-145.13 562.81,-140.14"/>
</a>
</g>
</g>
<!-- Node19&#45;&gt;Node15 -->
<g id="edge34_Node000019_Node000015" class="edge">
<title>Node19&#45;&gt;Node15</title>
<g id="a_edge34_Node000019_Node000015"><a xlink:title=" ">
<path fill="none" stroke="#63b8ff" d="M616.63,-226.87C620.63,-209.02 629.36,-170.11 634.8,-145.84"/>
<polygon fill="#63b8ff" stroke="#63b8ff" points="638.2,-146.68 636.97,-136.15 631.37,-145.14 638.2,-146.68"/>
</a>
</g>
</g>
<!-- Node19&#45;&gt;Node16 -->
<g id="edge33_Node000019_Node000016" class="edge">
<title>Node19&#45;&gt;Node16</title>
<g id="a_edge33_Node000019_Node000016"><a xlink:title=" ">
<path fill="none" stroke="#63b8ff" d="M621.13,-226.85C639.78,-200.02 693.02,-123.46 718.11,-87.38"/>
<polygon fill="#63b8ff" stroke="#63b8ff" points="720.96,-89.42 723.79,-79.21 715.21,-85.42 720.96,-89.42"/>
</a>
</g>
</g>
<!-- Node21&#45;&gt;Node4 -->
<g id="edge38_Node000021_Node000004" class="edge">
<title>Node21&#45;&gt;Node4</title>
<g id="a_edge38_Node000021_Node000004"><a xlink:title=" ">
<path fill="none" stroke="#63b8ff" d="M785.5,-283.28C785.5,-263.85 785.5,-219.18 785.5,-181.62 785.5,-181.62 785.5,-181.62 785.5,-122.88 785.5,-92.3 789.45,-76.95 766.5,-56.75 729,-23.74 580.6,-14.71 509.66,-12.27"/>
<polygon fill="#63b8ff" stroke="#63b8ff" points="509.78,-8.77 499.67,-11.96 509.56,-15.77 509.78,-8.77"/>
</a>
</g>
</g>
<!-- Node22 -->
<g id="Node000022" class="node">
<title>Node22</title>
<g id="a_Node000022"><a xlink:href="modules_8h.html" target="_top" xlink:title="Common macros and compiler attributes/pragmas configuration.">
<polygon fill="white" stroke="#666666" points="881,-247.75 814,-247.75 814,-227 881,-227 881,-247.75"/>
<text text-anchor="middle" x="847.5" y="-234.25" font-family="Helvetica,sans-Serif" font-size="10.00">modules.h</text>
</a>
</g>
</g>
<!-- Node21&#45;&gt;Node22 -->
<g id="edge39_Node000021_Node000022" class="edge">
<title>Node21&#45;&gt;Node22</title>
<g id="a_edge39_Node000021_Node000022"><a xlink:title=" ">
<path fill="none" stroke="#63b8ff" d="M796.58,-283.34C805.31,-275.63 817.69,-264.7 828.06,-255.54"/>
<polygon fill="#63b8ff" stroke="#63b8ff" points="830.2,-258.32 835.38,-249.08 825.56,-253.08 830.2,-258.32"/>
</a>
</g>
</g>
</g>
</svg>
