<?xml version="1.0" encoding="UTF-8" standalone="no"?>
<!DOCTYPE svg PUBLIC "-//W3C//DTD SVG 1.1//EN"
 "http://www.w3.org/Graphics/SVG/1.1/DTD/svg11.dtd">
<!-- Generated by graphviz version 12.1.2 (0)
 -->
<!-- Title: drivers/include/net/netdev/lora.h Pages: 1 -->
<svg width="542pt" height="325pt"
 viewBox="0.00 0.00 541.75 325.25" xmlns="http://www.w3.org/2000/svg" xmlns:xlink="http://www.w3.org/1999/xlink">
<g id="graph0" class="graph" transform="scale(1 1) rotate(0) translate(4 321.25)">
<title>drivers/include/net/netdev/lora.h</title>
<!-- Node1 -->
<g id="Node000001" class="node">
<title>Node1</title>
<g id="a_Node000001"><a xlink:title="Definitions for netdev common LoRa code.">
<polygon fill="#999999" stroke="#666666" points="106.75,-317.25 0,-317.25 0,-283.75 106.75,-283.75 106.75,-317.25"/>
<text text-anchor="start" x="8" y="-303.75" font-family="Helvetica,sans-Serif" font-size="10.00">drivers/include/net</text>
<text text-anchor="middle" x="53.38" y="-291" font-family="Helvetica,sans-Serif" font-size="10.00">/netdev/lora.h</text>
</a>
</g>
</g>
<!-- Node2 -->
<g id="Node000002" class="node">
<title>Node2</title>
<g id="a_Node000002"><a xlink:title=" ">
<polygon fill="#e0e0e0" stroke="#999999" points="292.75,-20.75 240,-20.75 240,0 292.75,0 292.75,-20.75"/>
<text text-anchor="middle" x="266.38" y="-7.25" font-family="Helvetica,sans-Serif" font-size="10.00">stdint.h</text>
</a>
</g>
</g>
<!-- Node1&#45;&gt;Node2 -->
<g id="edge1_Node000001_Node000002" class="edge">
<title>Node1&#45;&gt;Node2</title>
<g id="a_edge1_Node000001_Node000002"><a xlink:title=" ">
<path fill="none" stroke="#63b8ff" d="M42.94,-283.46C29.64,-261.43 8.38,-220.18 8.38,-181.62 8.38,-181.62 8.38,-181.62 8.38,-122.88 8.38,-28.12 156.83,-12.96 228.52,-11.16"/>
<polygon fill="#63b8ff" stroke="#63b8ff" points="228.28,-14.67 238.22,-11 228.17,-7.67 228.28,-14.67"/>
</a>
</g>
</g>
<!-- Node3 -->
<g id="Node000003" class="node">
<title>Node3</title>
<g id="a_Node000003"><a xlink:href="drivers_2include_2net_2netdev_8h.html" target="_top" xlink:title="Definitions low&#45;level network driver interface.">
<polygon fill="white" stroke="#666666" points="171.75,-247.75 95,-247.75 95,-227 171.75,-227 171.75,-247.75"/>
<text text-anchor="middle" x="133.38" y="-234.25" font-family="Helvetica,sans-Serif" font-size="10.00">net/netdev.h</text>
</a>
</g>
</g>
<!-- Node1&#45;&gt;Node3 -->
<g id="edge2_Node000001_Node000003" class="edge">
<title>Node1&#45;&gt;Node3</title>
<g id="a_edge2_Node000001_Node000003"><a xlink:title=" ">
<path fill="none" stroke="#63b8ff" d="M74.39,-283.44C85.82,-274.71 99.94,-263.92 111.5,-255.09"/>
<polygon fill="#63b8ff" stroke="#63b8ff" points="113.47,-257.99 119.29,-249.14 109.22,-252.43 113.47,-257.99"/>
</a>
</g>
</g>
<!-- Node3&#45;&gt;Node2 -->
<g id="edge3_Node000003_Node000002" class="edge">
<title>Node3&#45;&gt;Node2</title>
<g id="a_edge3_Node000003_Node000002"><a xlink:title=" ">
<path fill="none" stroke="#63b8ff" d="M107.53,-226.54C92.28,-219.24 74.28,-207.64 65.38,-191 61.03,-182.87 62.29,-178.94 65.38,-170.25 87.07,-109.04 105.37,-95.64 157.38,-56.75 178.86,-40.68 206.87,-29.18 229.11,-21.78"/>
<polygon fill="#63b8ff" stroke="#63b8ff" points="229.92,-25.2 238.39,-18.84 227.8,-18.53 229.92,-25.2"/>
</a>
</g>
</g>
<!-- Node4 -->
<g id="Node000004" class="node">
<title>Node4</title>
<g id="a_Node000004"><a xlink:href="errno_8h.html" target="_top" xlink:title=" ">
<polygon fill="white" stroke="#666666" points="124.62,-191 74.12,-191 74.12,-170.25 124.62,-170.25 124.62,-191"/>
<text text-anchor="middle" x="99.38" y="-177.5" font-family="Helvetica,sans-Serif" font-size="10.00">errno.h</text>
</a>
</g>
</g>
<!-- Node3&#45;&gt;Node4 -->
<g id="edge4_Node000003_Node000004" class="edge">
<title>Node3&#45;&gt;Node4</title>
<g id="a_edge4_Node000003_Node000004"><a xlink:title=" ">
<path fill="none" stroke="#63b8ff" d="M127.3,-226.59C122.9,-219.5 116.8,-209.69 111.43,-201.04"/>
<polygon fill="#63b8ff" stroke="#63b8ff" points="114.45,-199.26 106.2,-192.61 108.5,-202.96 114.45,-199.26"/>
</a>
</g>
</g>
<!-- Node5 -->
<g id="Node000005" class="node">
<title>Node5</title>
<g id="a_Node000005"><a xlink:href="iolist_8h.html" target="_top" xlink:title="iolist scatter / gather IO">
<polygon fill="white" stroke="#666666" points="191.88,-191 142.88,-191 142.88,-170.25 191.88,-170.25 191.88,-191"/>
<text text-anchor="middle" x="167.38" y="-177.5" font-family="Helvetica,sans-Serif" font-size="10.00">iolist.h</text>
</a>
</g>
</g>
<!-- Node3&#45;&gt;Node5 -->
<g id="edge5_Node000003_Node000005" class="edge">
<title>Node3&#45;&gt;Node5</title>
<g id="a_edge5_Node000003_Node000005"><a xlink:title=" ">
<path fill="none" stroke="#63b8ff" d="M139.45,-226.59C143.85,-219.5 149.95,-209.69 155.32,-201.04"/>
<polygon fill="#63b8ff" stroke="#63b8ff" points="158.25,-202.96 160.55,-192.61 152.3,-199.26 158.25,-202.96"/>
</a>
</g>
</g>
<!-- Node6 -->
<g id="Node000006" class="node">
<title>Node6</title>
<g id="a_Node000006"><a xlink:href="netopt_8h.html" target="_top" xlink:title="Definition of global configuration options.">
<polygon fill="white" stroke="#666666" points="285,-191 209.75,-191 209.75,-170.25 285,-170.25 285,-191"/>
<text text-anchor="middle" x="247.38" y="-177.5" font-family="Helvetica,sans-Serif" font-size="10.00">net/netopt.h</text>
</a>
</g>
</g>
<!-- Node3&#45;&gt;Node6 -->
<g id="edge6_Node000003_Node000006" class="edge">
<title>Node3&#45;&gt;Node6</title>
<g id="a_edge6_Node000003_Node000006"><a xlink:title=" ">
<path fill="none" stroke="#63b8ff" d="M153.76,-226.59C171.34,-218.14 197,-205.82 217.01,-196.21"/>
<polygon fill="#63b8ff" stroke="#63b8ff" points="218.31,-199.47 225.81,-191.98 215.28,-193.16 218.31,-199.47"/>
</a>
</g>
</g>
<!-- Node8 -->
<g id="Node000008" class="node">
<title>Node8</title>
<g id="a_Node000008"><a xlink:href="kernel__defines_8h.html" target="_top" xlink:title="Common macros and compiler attributes/pragmas configuration.">
<polygon fill="white" stroke="#666666" points="399.5,-191 303.25,-191 303.25,-170.25 399.5,-170.25 399.5,-191"/>
<text text-anchor="middle" x="351.38" y="-177.5" font-family="Helvetica,sans-Serif" font-size="10.00">kernel_defines.h</text>
</a>
</g>
</g>
<!-- Node3&#45;&gt;Node8 -->
<g id="edge9_Node000003_Node000008" class="edge">
<title>Node3&#45;&gt;Node8</title>
<g id="a_edge9_Node000003_Node000008"><a xlink:title=" ">
<path fill="none" stroke="#63b8ff" d="M172.1,-226.65C208.14,-217.6 262.07,-204.05 301.36,-194.19"/>
<polygon fill="#63b8ff" stroke="#63b8ff" points="301.96,-197.64 310.81,-191.81 300.26,-190.85 301.96,-197.64"/>
</a>
</g>
</g>
<!-- Node6&#45;&gt;Node2 -->
<g id="edge7_Node000006_Node000002" class="edge">
<title>Node6&#45;&gt;Node2</title>
<g id="a_edge7_Node000006_Node000002"><a xlink:title=" ">
<path fill="none" stroke="#63b8ff" d="M211.35,-169.79C182.1,-160.99 144.28,-147.47 135.38,-134.25 130.22,-126.6 131.33,-121.79 135.38,-113.5 155.61,-72.06 201.69,-42.54 233.42,-26.22"/>
<polygon fill="#63b8ff" stroke="#63b8ff" points="234.81,-29.44 242.22,-21.87 231.7,-23.17 234.81,-29.44"/>
</a>
</g>
</g>
<!-- Node7 -->
<g id="Node000007" class="node">
<title>Node7</title>
<g id="a_Node000007"><a xlink:title=" ">
<polygon fill="#e0e0e0" stroke="#999999" points="205.88,-134.25 144.88,-134.25 144.88,-113.5 205.88,-113.5 205.88,-134.25"/>
<text text-anchor="middle" x="175.38" y="-120.75" font-family="Helvetica,sans-Serif" font-size="10.00">stdbool.h</text>
</a>
</g>
</g>
<!-- Node6&#45;&gt;Node7 -->
<g id="edge8_Node000006_Node000007" class="edge">
<title>Node6&#45;&gt;Node7</title>
<g id="a_edge8_Node000006_Node000007"><a xlink:title=" ">
<path fill="none" stroke="#63b8ff" d="M234.5,-169.84C224.16,-161.97 209.41,-150.75 197.22,-141.49"/>
<polygon fill="#63b8ff" stroke="#63b8ff" points="199.42,-138.76 189.34,-135.49 195.18,-144.33 199.42,-138.76"/>
</a>
</g>
</g>
<!-- Node9 -->
<g id="Node000009" class="node">
<title>Node9</title>
<g id="a_Node000009"><a xlink:href="modules_8h.html" target="_top" xlink:title="Common macros and compiler attributes/pragmas configuration.">
<polygon fill="white" stroke="#666666" points="290.88,-134.25 223.88,-134.25 223.88,-113.5 290.88,-113.5 290.88,-134.25"/>
<text text-anchor="middle" x="257.38" y="-120.75" font-family="Helvetica,sans-Serif" font-size="10.00">modules.h</text>
</a>
</g>
</g>
<!-- Node8&#45;&gt;Node9 -->
<g id="edge10_Node000008_Node000009" class="edge">
<title>Node8&#45;&gt;Node9</title>
<g id="a_edge10_Node000008_Node000009"><a xlink:title=" ">
<path fill="none" stroke="#63b8ff" d="M334.57,-169.84C320.4,-161.58 299.88,-149.63 283.56,-140.13"/>
<polygon fill="#63b8ff" stroke="#63b8ff" points="285.75,-137.35 275.34,-135.34 282.22,-143.4 285.75,-137.35"/>
</a>
</g>
</g>
<!-- Node10 -->
<g id="Node000010" class="node">
<title>Node10</title>
<g id="a_Node000010"><a xlink:href="riot__version_8h.html" target="_top" xlink:title="Common macros and compiler attributes/pragmas configuration.">
<polygon fill="white" stroke="#666666" points="307.75,-77.5 225,-77.5 225,-56.75 307.75,-56.75 307.75,-77.5"/>
<text text-anchor="middle" x="266.38" y="-64" font-family="Helvetica,sans-Serif" font-size="10.00">riot_version.h</text>
</a>
</g>
</g>
<!-- Node8&#45;&gt;Node10 -->
<g id="edge11_Node000008_Node000010" class="edge">
<title>Node8&#45;&gt;Node10</title>
<g id="a_edge11_Node000008_Node000010"><a xlink:title=" ">
<path fill="none" stroke="#63b8ff" d="M344.13,-170.12C330.08,-151.7 298.94,-110.84 280.61,-86.8"/>
<polygon fill="#63b8ff" stroke="#63b8ff" points="283.61,-84.96 274.76,-79.13 278.04,-89.2 283.61,-84.96"/>
</a>
</g>
</g>
<!-- Node11 -->
<g id="Node000011" class="node">
<title>Node11</title>
<g id="a_Node000011"><a xlink:href="compiler__hints_8h.html" target="_top" xlink:title="Common macros and compiler attributes/pragmas configuration.">
<polygon fill="white" stroke="#666666" points="444.88,-134.25 347.88,-134.25 347.88,-113.5 444.88,-113.5 444.88,-134.25"/>
<text text-anchor="middle" x="396.38" y="-120.75" font-family="Helvetica,sans-Serif" font-size="10.00">compiler_hints.h</text>
</a>
</g>
</g>
<!-- Node8&#45;&gt;Node11 -->
<g id="edge13_Node000008_Node000011" class="edge">
<title>Node8&#45;&gt;Node11</title>
<g id="a_edge13_Node000008_Node000011"><a xlink:title=" ">
<path fill="none" stroke="#63b8ff" d="M359.42,-169.84C365.44,-162.52 373.84,-152.29 381.12,-143.44"/>
<polygon fill="#63b8ff" stroke="#63b8ff" points="383.79,-145.7 387.44,-135.75 378.38,-141.25 383.79,-145.7"/>
</a>
</g>
</g>
<!-- Node13 -->
<g id="Node000013" class="node">
<title>Node13</title>
<g id="a_Node000013"><a xlink:href="container_8h.html" target="_top" xlink:title="Common macros and compiler attributes/pragmas configuration.">
<polygon fill="white" stroke="#666666" points="533.75,-134.25 463,-134.25 463,-113.5 533.75,-113.5 533.75,-134.25"/>
<text text-anchor="middle" x="498.38" y="-120.75" font-family="Helvetica,sans-Serif" font-size="10.00">container.h</text>
</a>
</g>
</g>
<!-- Node8&#45;&gt;Node13 -->
<g id="edge17_Node000008_Node000013" class="edge">
<title>Node8&#45;&gt;Node13</title>
<g id="a_edge17_Node000008_Node000013"><a xlink:title=" ">
<path fill="none" stroke="#63b8ff" d="M377.66,-169.84C401.07,-161.12 435.56,-148.27 461.69,-138.54"/>
<polygon fill="#63b8ff" stroke="#63b8ff" points="462.75,-141.88 470.9,-135.11 460.31,-135.32 462.75,-141.88"/>
</a>
</g>
</g>
<!-- Node10&#45;&gt;Node2 -->
<g id="edge12_Node000010_Node000002" class="edge">
<title>Node10&#45;&gt;Node2</title>
<g id="a_edge12_Node000010_Node000002"><a xlink:title=" ">
<path fill="none" stroke="#63b8ff" d="M266.38,-56.34C266.38,-49.72 266.38,-40.72 266.38,-32.52"/>
<polygon fill="#63b8ff" stroke="#63b8ff" points="269.88,-32.59 266.38,-22.59 262.88,-32.59 269.88,-32.59"/>
</a>
</g>
</g>
<!-- Node11&#45;&gt;Node2 -->
<g id="edge16_Node000011_Node000002" class="edge">
<title>Node11&#45;&gt;Node2</title>
<g id="a_edge16_Node000011_Node000002"><a xlink:title=" ">
<path fill="none" stroke="#63b8ff" d="M385.29,-113.37C363.34,-94.54 314.05,-52.26 286.31,-28.47"/>
<polygon fill="#63b8ff" stroke="#63b8ff" points="288.82,-26.01 278.95,-22.16 284.26,-31.33 288.82,-26.01"/>
</a>
</g>
</g>
<!-- Node12 -->
<g id="Node000012" class="node">
<title>Node12</title>
<g id="a_Node000012"><a xlink:href="assert_8h.html" target="_top" xlink:title="POSIX.1&#45;2008 compliant version of the assert macro.">
<polygon fill="white" stroke="#666666" points="418.88,-77.5 363.88,-77.5 363.88,-56.75 418.88,-56.75 418.88,-77.5"/>
<text text-anchor="middle" x="391.38" y="-64" font-family="Helvetica,sans-Serif" font-size="10.00">assert.h</text>
</a>
</g>
</g>
<!-- Node11&#45;&gt;Node12 -->
<g id="edge14_Node000011_Node000012" class="edge">
<title>Node11&#45;&gt;Node12</title>
<g id="a_edge14_Node000011_Node000012"><a xlink:title=" ">
<path fill="none" stroke="#63b8ff" d="M395.48,-113.09C394.88,-106.47 394.06,-97.47 393.31,-89.27"/>
<polygon fill="#63b8ff" stroke="#63b8ff" points="396.79,-88.98 392.4,-79.34 389.82,-89.61 396.79,-88.98"/>
</a>
</g>
</g>
<!-- Node12&#45;&gt;Node2 -->
<g id="edge15_Node000012_Node000002" class="edge">
<title>Node12&#45;&gt;Node2</title>
<g id="a_edge15_Node000012_Node000002"><a xlink:title=" ">
<path fill="none" stroke="#63b8ff" d="M369.03,-56.34C349.56,-47.81 321.09,-35.34 299.07,-25.69"/>
<polygon fill="#63b8ff" stroke="#63b8ff" points="300.48,-22.49 289.92,-21.69 297.67,-28.9 300.48,-22.49"/>
</a>
</g>
</g>
<!-- Node13&#45;&gt;Node2 -->
<g id="edge19_Node000013_Node000002" class="edge">
<title>Node13&#45;&gt;Node2</title>
<g id="a_edge19_Node000013_Node000002"><a xlink:title=" ">
<path fill="none" stroke="#63b8ff" d="M490.85,-113.25C479.06,-98.84 454.85,-71.74 428.38,-56.75 389.27,-34.62 338.65,-22.7 304.49,-16.71"/>
<polygon fill="#63b8ff" stroke="#63b8ff" points="305.06,-13.26 294.63,-15.08 303.92,-20.16 305.06,-13.26"/>
</a>
</g>
</g>
<!-- Node14 -->
<g id="Node000014" class="node">
<title>Node14</title>
<g id="a_Node000014"><a xlink:title=" ">
<polygon fill="#e0e0e0" stroke="#999999" points="530.88,-77.5 475.88,-77.5 475.88,-56.75 530.88,-56.75 530.88,-77.5"/>
<text text-anchor="middle" x="503.38" y="-64" font-family="Helvetica,sans-Serif" font-size="10.00">stddef.h</text>
</a>
</g>
</g>
<!-- Node13&#45;&gt;Node14 -->
<g id="edge18_Node000013_Node000014" class="edge">
<title>Node13&#45;&gt;Node14</title>
<g id="a_edge18_Node000013_Node000014"><a xlink:title=" ">
<path fill="none" stroke="#63b8ff" d="M499.27,-113.09C499.87,-106.47 500.69,-97.47 501.44,-89.27"/>
<polygon fill="#63b8ff" stroke="#63b8ff" points="504.93,-89.61 502.35,-79.34 497.96,-88.98 504.93,-89.61"/>
</a>
</g>
</g>
</g>
</svg>
