<?xml version="1.0" encoding="UTF-8" standalone="no"?>
<!DOCTYPE svg PUBLIC "-//W3C//DTD SVG 1.1//EN"
 "http://www.w3.org/Graphics/SVG/1.1/DTD/svg11.dtd">
<!-- Generated by graphviz version 12.1.2 (0)
 -->
<!-- Title: drivers/include/net/netdev/ieee802154.h Pages: 1 -->
<svg width="1088pt" height="382pt"
 viewBox="0.00 0.00 1087.88 382.00" xmlns="http://www.w3.org/2000/svg" xmlns:xlink="http://www.w3.org/1999/xlink">
<g id="graph0" class="graph" transform="scale(1 1) rotate(0) translate(4 378)">
<title>drivers/include/net/netdev/ieee802154.h</title>
<!-- Node1 -->
<g id="Node000001" class="node">
<title>Node1</title>
<g id="a_Node000001"><a xlink:title="Definitions for netdev common IEEE 802.15.4 code.">
<polygon fill="#999999" stroke="#666666" points="616.38,-374 494.62,-374 494.62,-340.5 616.38,-340.5 616.38,-374"/>
<text text-anchor="start" x="502.62" y="-360.5" font-family="Helvetica,sans-Serif" font-size="10.00">drivers/include/net</text>
<text text-anchor="middle" x="555.5" y="-347.75" font-family="Helvetica,sans-Serif" font-size="10.00">/netdev/ieee802154.h</text>
</a>
</g>
</g>
<!-- Node2 -->
<g id="Node000002" class="node">
<title>Node2</title>
<g id="a_Node000002"><a xlink:href="eui__provider_8h.html" target="_top" xlink:title="EUI&#45;48 and EUI&#45;64 address provider.">
<polygon fill="white" stroke="#666666" points="607.75,-304.5 503.25,-304.5 503.25,-283.75 607.75,-283.75 607.75,-304.5"/>
<text text-anchor="middle" x="555.5" y="-291" font-family="Helvetica,sans-Serif" font-size="10.00">net/eui_provider.h</text>
</a>
</g>
</g>
<!-- Node1&#45;&gt;Node2 -->
<g id="edge1_Node000001_Node000002" class="edge">
<title>Node1&#45;&gt;Node2</title>
<g id="a_edge1_Node000001_Node000002"><a xlink:title=" ">
<path fill="none" stroke="#63b8ff" d="M555.5,-340.19C555.5,-332.85 555.5,-324.07 555.5,-316.21"/>
<polygon fill="#63b8ff" stroke="#63b8ff" points="559,-316.48 555.5,-306.48 552,-316.48 559,-316.48"/>
</a>
</g>
</g>
<!-- Node10 -->
<g id="Node000010" class="node">
<title>Node10</title>
<g id="a_Node000010"><a xlink:href="drivers_2include_2net_2netdev_8h.html" target="_top" xlink:title="Definitions low&#45;level network driver interface.">
<polygon fill="white" stroke="#666666" points="487.88,-247.75 411.12,-247.75 411.12,-227 487.88,-227 487.88,-247.75"/>
<text text-anchor="middle" x="449.5" y="-234.25" font-family="Helvetica,sans-Serif" font-size="10.00">net/netdev.h</text>
</a>
</g>
</g>
<!-- Node1&#45;&gt;Node10 -->
<g id="edge44_Node000001_Node000010" class="edge">
<title>Node1&#45;&gt;Node10</title>
<g id="a_edge44_Node000001_Node000010"><a xlink:title=" ">
<path fill="none" stroke="#63b8ff" d="M533.63,-340.06C521.4,-330.45 506.29,-317.61 494.5,-304.5 481.46,-290 469.18,-271.5 460.76,-257.76"/>
<polygon fill="#63b8ff" stroke="#63b8ff" points="463.79,-256.02 455.66,-249.23 457.78,-259.61 463.79,-256.02"/>
</a>
</g>
</g>
<!-- Node13 -->
<g id="Node000013" class="node">
<title>Node13</title>
<g id="a_Node000013"><a xlink:href="netopt_8h.html" target="_top" xlink:title="Definition of global configuration options.">
<polygon fill="white" stroke="#666666" points="183.12,-191 107.88,-191 107.88,-170.25 183.12,-170.25 183.12,-191"/>
<text text-anchor="middle" x="145.5" y="-177.5" font-family="Helvetica,sans-Serif" font-size="10.00">net/netopt.h</text>
</a>
</g>
</g>
<!-- Node1&#45;&gt;Node13 -->
<g id="edge43_Node000001_Node000013" class="edge">
<title>Node1&#45;&gt;Node13</title>
<g id="a_edge43_Node000001_Node000013"><a xlink:title=" ">
<path fill="none" stroke="#63b8ff" d="M517.66,-340.13C438.12,-306.25 254.66,-228.12 179.03,-195.91"/>
<polygon fill="#63b8ff" stroke="#63b8ff" points="180.65,-192.79 170.07,-192.09 177.9,-199.23 180.65,-192.79"/>
</a>
</g>
</g>
<!-- Node22 -->
<g id="Node000022" class="node">
<title>Node22</title>
<g id="a_Node000022"><a xlink:href="sys_2include_2net_2ieee802154_8h.html" target="_top" xlink:title="IEEE 802.15.4 header definitions.">
<polygon fill="white" stroke="#666666" points="746.88,-247.75 646.12,-247.75 646.12,-227 746.88,-227 746.88,-247.75"/>
<text text-anchor="middle" x="696.5" y="-234.25" font-family="Helvetica,sans-Serif" font-size="10.00">net/ieee802154.h</text>
</a>
</g>
</g>
<!-- Node1&#45;&gt;Node22 -->
<g id="edge32_Node000001_Node000022" class="edge">
<title>Node1&#45;&gt;Node22</title>
<g id="a_edge32_Node000001_Node000022"><a xlink:title=" ">
<path fill="none" stroke="#63b8ff" d="M574.81,-340.11C601.39,-317.88 649.04,-278.05 676.16,-255.38"/>
<polygon fill="#63b8ff" stroke="#63b8ff" points="678.24,-258.21 683.66,-249.11 673.75,-252.84 678.24,-258.21"/>
</a>
</g>
</g>
<!-- Node24 -->
<g id="Node000024" class="node">
<title>Node24</title>
<g id="a_Node000024"><a xlink:href="nettype_8h.html" target="_top" xlink:title="Protocol type definitions.">
<polygon fill="white" stroke="#666666" points="969.12,-304.5 863.88,-304.5 863.88,-283.75 969.12,-283.75 969.12,-304.5"/>
<text text-anchor="middle" x="916.5" y="-291" font-family="Helvetica,sans-Serif" font-size="10.00">net/gnrc/nettype.h</text>
</a>
</g>
</g>
<!-- Node1&#45;&gt;Node24 -->
<g id="edge38_Node000001_Node000024" class="edge">
<title>Node1&#45;&gt;Node24</title>
<g id="a_edge38_Node000001_Node000024"><a xlink:title=" ">
<path fill="none" stroke="#63b8ff" d="M616.74,-345.88C682.25,-334.79 785.7,-317.27 852.32,-305.99"/>
<polygon fill="#63b8ff" stroke="#63b8ff" points="852.73,-309.47 862,-304.35 851.56,-302.57 852.73,-309.47"/>
</a>
</g>
</g>
<!-- Node3 -->
<g id="Node000003" class="node">
<title>Node3</title>
<g id="a_Node000003"><a xlink:href="eui48_8h.html" target="_top" xlink:title="Definition and IPv6 IID conversion for IEEE EUI&#45;48 identifiers.">
<polygon fill="white" stroke="#666666" points="590.88,-247.75 520.12,-247.75 520.12,-227 590.88,-227 590.88,-247.75"/>
<text text-anchor="middle" x="555.5" y="-234.25" font-family="Helvetica,sans-Serif" font-size="10.00">net/eui48.h</text>
</a>
</g>
</g>
<!-- Node2&#45;&gt;Node3 -->
<g id="edge2_Node000002_Node000003" class="edge">
<title>Node2&#45;&gt;Node3</title>
<g id="a_edge2_Node000002_Node000003"><a xlink:title=" ">
<path fill="none" stroke="#63b8ff" d="M555.5,-283.34C555.5,-276.72 555.5,-267.72 555.5,-259.52"/>
<polygon fill="#63b8ff" stroke="#63b8ff" points="559,-259.59 555.5,-249.59 552,-259.59 559,-259.59"/>
</a>
</g>
</g>
<!-- Node5 -->
<g id="Node000005" class="node">
<title>Node5</title>
<g id="a_Node000005"><a xlink:href="eui64_8h.html" target="_top" xlink:title="EUI&#45;64 data type definition.">
<polygon fill="white" stroke="#666666" points="653.88,-191 583.12,-191 583.12,-170.25 653.88,-170.25 653.88,-191"/>
<text text-anchor="middle" x="618.5" y="-177.5" font-family="Helvetica,sans-Serif" font-size="10.00">net/eui64.h</text>
</a>
</g>
</g>
<!-- Node2&#45;&gt;Node5 -->
<g id="edge13_Node000002_Node000005" class="edge">
<title>Node2&#45;&gt;Node5</title>
<g id="a_edge13_Node000002_Node000005"><a xlink:title=" ">
<path fill="none" stroke="#63b8ff" d="M567.64,-283.56C577.56,-275.12 591.25,-261.99 599.5,-247.75 607.66,-233.66 612.51,-215.84 615.27,-202.24"/>
<polygon fill="#63b8ff" stroke="#63b8ff" points="618.67,-203.13 616.98,-192.67 611.78,-201.89 618.67,-203.13"/>
</a>
</g>
</g>
<!-- Node2&#45;&gt;Node10 -->
<g id="edge14_Node000002_Node000010" class="edge">
<title>Node2&#45;&gt;Node10</title>
<g id="a_edge14_Node000002_Node000010"><a xlink:title=" ">
<path fill="none" stroke="#63b8ff" d="M536.55,-283.34C520.42,-275.01 497,-262.91 478.51,-253.36"/>
<polygon fill="#63b8ff" stroke="#63b8ff" points="480.12,-250.25 469.63,-248.77 476.91,-256.47 480.12,-250.25"/>
</a>
</g>
</g>
<!-- Node4 -->
<g id="Node000004" class="node">
<title>Node4</title>
<g id="a_Node000004"><a xlink:title=" ">
<polygon fill="#e0e0e0" stroke="#999999" points="496.88,-20.75 444.12,-20.75 444.12,0 496.88,0 496.88,-20.75"/>
<text text-anchor="middle" x="470.5" y="-7.25" font-family="Helvetica,sans-Serif" font-size="10.00">stdint.h</text>
</a>
</g>
</g>
<!-- Node3&#45;&gt;Node4 -->
<g id="edge3_Node000003_Node000004" class="edge">
<title>Node3&#45;&gt;Node4</title>
<g id="a_edge3_Node000003_Node000004"><a xlink:title=" ">
<path fill="none" stroke="#63b8ff" d="M553.13,-226.85C549.82,-213.91 543.45,-190.09 536.5,-170.25 518.64,-119.23 493.05,-60.95 479.58,-31.17"/>
<polygon fill="#63b8ff" stroke="#63b8ff" points="482.86,-29.93 475.53,-22.28 476.49,-32.83 482.86,-29.93"/>
</a>
</g>
</g>
<!-- Node3&#45;&gt;Node5 -->
<g id="edge4_Node000003_Node000005" class="edge">
<title>Node3&#45;&gt;Node5</title>
<g id="a_edge4_Node000003_Node000005"><a xlink:title=" ">
<path fill="none" stroke="#63b8ff" d="M566.76,-226.59C575.63,-218.88 588.21,-207.95 598.75,-198.79"/>
<polygon fill="#63b8ff" stroke="#63b8ff" points="600.94,-201.52 606.19,-192.32 596.35,-196.24 600.94,-201.52"/>
</a>
</g>
</g>
<!-- Node5&#45;&gt;Node4 -->
<g id="edge5_Node000005_Node000004" class="edge">
<title>Node5&#45;&gt;Node4</title>
<g id="a_edge5_Node000005_Node000004"><a xlink:title=" ">
<path fill="none" stroke="#63b8ff" d="M610.12,-170.1C586.32,-143.04 518.02,-65.4 486.63,-29.71"/>
<polygon fill="#63b8ff" stroke="#63b8ff" points="489.39,-27.55 480.16,-22.35 484.13,-32.17 489.39,-27.55"/>
</a>
</g>
</g>
<!-- Node6 -->
<g id="Node000006" class="node">
<title>Node6</title>
<g id="a_Node000006"><a xlink:href="byteorder_8h.html" target="_top" xlink:title="Functions to work with different byte orders.">
<polygon fill="white" stroke="#666666" points="691.62,-134.25 619.38,-134.25 619.38,-113.5 691.62,-113.5 691.62,-134.25"/>
<text text-anchor="middle" x="655.5" y="-120.75" font-family="Helvetica,sans-Serif" font-size="10.00">byteorder.h</text>
</a>
</g>
</g>
<!-- Node5&#45;&gt;Node6 -->
<g id="edge6_Node000005_Node000006" class="edge">
<title>Node5&#45;&gt;Node6</title>
<g id="a_edge6_Node000005_Node000006"><a xlink:title=" ">
<path fill="none" stroke="#63b8ff" d="M625.11,-169.84C629.96,-162.67 636.68,-152.73 642.57,-144.01"/>
<polygon fill="#63b8ff" stroke="#63b8ff" points="645.4,-146.08 648.09,-135.83 639.6,-142.16 645.4,-146.08"/>
</a>
</g>
</g>
<!-- Node6&#45;&gt;Node4 -->
<g id="edge8_Node000006_Node000004" class="edge">
<title>Node6&#45;&gt;Node4</title>
<g id="a_edge8_Node000006_Node000004"><a xlink:title=" ">
<path fill="none" stroke="#63b8ff" d="M639.41,-113.18C607.29,-93.82 535,-50.25 496.23,-26.88"/>
<polygon fill="#63b8ff" stroke="#63b8ff" points="498.36,-24.08 487.98,-21.91 494.74,-30.07 498.36,-24.08"/>
</a>
</g>
</g>
<!-- Node7 -->
<g id="Node000007" class="node">
<title>Node7</title>
<g id="a_Node000007"><a xlink:title=" ">
<polygon fill="#e0e0e0" stroke="#999999" points="645.88,-77.5 593.12,-77.5 593.12,-56.75 645.88,-56.75 645.88,-77.5"/>
<text text-anchor="middle" x="619.5" y="-64" font-family="Helvetica,sans-Serif" font-size="10.00">string.h</text>
</a>
</g>
</g>
<!-- Node6&#45;&gt;Node7 -->
<g id="edge7_Node000006_Node000007" class="edge">
<title>Node6&#45;&gt;Node7</title>
<g id="a_edge7_Node000006_Node000007"><a xlink:title=" ">
<path fill="none" stroke="#63b8ff" d="M649.06,-113.09C644.35,-105.92 637.81,-95.98 632.08,-87.26"/>
<polygon fill="#63b8ff" stroke="#63b8ff" points="635.13,-85.53 626.71,-79.09 629.28,-89.37 635.13,-85.53"/>
</a>
</g>
</g>
<!-- Node8 -->
<g id="Node000008" class="node">
<title>Node8</title>
<g id="a_Node000008"><a xlink:href="endian_8h.html" target="_top" xlink:title="libc header for endian conversion">
<polygon fill="white" stroke="#666666" points="721.5,-77.5 663.5,-77.5 663.5,-56.75 721.5,-56.75 721.5,-77.5"/>
<text text-anchor="middle" x="692.5" y="-64" font-family="Helvetica,sans-Serif" font-size="10.00">endian.h</text>
</a>
</g>
</g>
<!-- Node6&#45;&gt;Node8 -->
<g id="edge9_Node000006_Node000008" class="edge">
<title>Node6&#45;&gt;Node8</title>
<g id="a_edge9_Node000006_Node000008"><a xlink:title=" ">
<path fill="none" stroke="#63b8ff" d="M662.11,-113.09C666.96,-105.92 673.68,-95.98 679.57,-87.26"/>
<polygon fill="#63b8ff" stroke="#63b8ff" points="682.4,-89.33 685.09,-79.08 676.6,-85.41 682.4,-89.33"/>
</a>
</g>
</g>
<!-- Node9 -->
<g id="Node000009" class="node">
<title>Node9</title>
<g id="a_Node000009"><a xlink:href="unaligned_8h.html" target="_top" xlink:title="Unaligned but safe memory access functions.">
<polygon fill="white" stroke="#666666" points="813,-77.5 740,-77.5 740,-56.75 813,-56.75 813,-77.5"/>
<text text-anchor="middle" x="776.5" y="-64" font-family="Helvetica,sans-Serif" font-size="10.00">unaligned.h</text>
</a>
</g>
</g>
<!-- Node6&#45;&gt;Node9 -->
<g id="edge11_Node000006_Node000009" class="edge">
<title>Node6&#45;&gt;Node9</title>
<g id="a_edge11_Node000006_Node000009"><a xlink:title=" ">
<path fill="none" stroke="#63b8ff" d="M677.13,-113.09C695.97,-104.56 723.54,-92.09 744.86,-82.44"/>
<polygon fill="#63b8ff" stroke="#63b8ff" points="746.01,-85.76 753.68,-78.45 743.12,-79.39 746.01,-85.76"/>
</a>
</g>
</g>
<!-- Node8&#45;&gt;Node4 -->
<g id="edge10_Node000008_Node000004" class="edge">
<title>Node8&#45;&gt;Node4</title>
<g id="a_edge10_Node000008_Node000004"><a xlink:title=" ">
<path fill="none" stroke="#63b8ff" d="M663.02,-58.85C623.18,-49.03 552.1,-31.5 508.35,-20.71"/>
<polygon fill="#63b8ff" stroke="#63b8ff" points="509.34,-17.35 498.79,-18.35 507.66,-24.14 509.34,-17.35"/>
</a>
</g>
</g>
<!-- Node9&#45;&gt;Node4 -->
<g id="edge12_Node000009_Node000004" class="edge">
<title>Node9&#45;&gt;Node4</title>
<g id="a_edge12_Node000009_Node000004"><a xlink:title=" ">
<path fill="none" stroke="#63b8ff" d="M739.86,-58.56C736.7,-57.94 733.54,-57.33 730.5,-56.75 651.72,-41.85 559.17,-26.12 508.48,-17.66"/>
<polygon fill="#63b8ff" stroke="#63b8ff" points="509.05,-14.2 498.61,-16.01 507.9,-21.11 509.05,-14.2"/>
</a>
</g>
</g>
<!-- Node10&#45;&gt;Node4 -->
<g id="edge15_Node000010_Node000004" class="edge">
<title>Node10&#45;&gt;Node4</title>
<g id="a_edge15_Node000010_Node000004"><a xlink:title=" ">
<path fill="none" stroke="#63b8ff" d="M450.4,-226.71C453.56,-192.88 464.15,-79.36 468.56,-32.19"/>
<polygon fill="#63b8ff" stroke="#63b8ff" points="472.02,-32.8 469.46,-22.51 465.05,-32.15 472.02,-32.8"/>
</a>
</g>
</g>
<!-- Node11 -->
<g id="Node000011" class="node">
<title>Node11</title>
<g id="a_Node000011"><a xlink:href="errno_8h.html" target="_top" xlink:title=" ">
<polygon fill="white" stroke="#666666" points="421.75,-191 371.25,-191 371.25,-170.25 421.75,-170.25 421.75,-191"/>
<text text-anchor="middle" x="396.5" y="-177.5" font-family="Helvetica,sans-Serif" font-size="10.00">errno.h</text>
</a>
</g>
</g>
<!-- Node10&#45;&gt;Node11 -->
<g id="edge16_Node000010_Node000011" class="edge">
<title>Node10&#45;&gt;Node11</title>
<g id="a_edge16_Node000010_Node000011"><a xlink:title=" ">
<path fill="none" stroke="#63b8ff" d="M440.02,-226.59C432.71,-219.03 422.41,-208.39 413.66,-199.35"/>
<polygon fill="#63b8ff" stroke="#63b8ff" points="416.42,-197.17 406.95,-192.42 411.39,-202.04 416.42,-197.17"/>
</a>
</g>
</g>
<!-- Node12 -->
<g id="Node000012" class="node">
<title>Node12</title>
<g id="a_Node000012"><a xlink:href="iolist_8h.html" target="_top" xlink:title="iolist scatter / gather IO">
<polygon fill="white" stroke="#666666" points="527,-191 478,-191 478,-170.25 527,-170.25 527,-191"/>
<text text-anchor="middle" x="502.5" y="-177.5" font-family="Helvetica,sans-Serif" font-size="10.00">iolist.h</text>
</a>
</g>
</g>
<!-- Node10&#45;&gt;Node12 -->
<g id="edge17_Node000010_Node000012" class="edge">
<title>Node10&#45;&gt;Node12</title>
<g id="a_edge17_Node000010_Node000012"><a xlink:title=" ">
<path fill="none" stroke="#63b8ff" d="M458.98,-226.59C466.29,-219.03 476.59,-208.39 485.34,-199.35"/>
<polygon fill="#63b8ff" stroke="#63b8ff" points="487.61,-202.04 492.05,-192.42 482.58,-197.17 487.61,-202.04"/>
</a>
</g>
</g>
<!-- Node10&#45;&gt;Node13 -->
<g id="edge18_Node000010_Node000013" class="edge">
<title>Node10&#45;&gt;Node13</title>
<g id="a_edge18_Node000010_Node000013"><a xlink:title=" ">
<path fill="none" stroke="#63b8ff" d="M410.69,-229.39C355.65,-219.47 254.94,-201.33 194.72,-190.49"/>
<polygon fill="#63b8ff" stroke="#63b8ff" points="195.55,-187.08 185.09,-188.76 194.31,-193.97 195.55,-187.08"/>
</a>
</g>
</g>
<!-- Node15 -->
<g id="Node000015" class="node">
<title>Node15</title>
<g id="a_Node000015"><a xlink:href="kernel__defines_8h.html" target="_top" xlink:title="Common macros and compiler attributes/pragmas configuration.">
<polygon fill="white" stroke="#666666" points="353.62,-191 257.38,-191 257.38,-170.25 353.62,-170.25 353.62,-191"/>
<text text-anchor="middle" x="305.5" y="-177.5" font-family="Helvetica,sans-Serif" font-size="10.00">kernel_defines.h</text>
</a>
</g>
</g>
<!-- Node10&#45;&gt;Node15 -->
<g id="edge21_Node000010_Node000015" class="edge">
<title>Node10&#45;&gt;Node15</title>
<g id="a_edge21_Node000010_Node000015"><a xlink:title=" ">
<path fill="none" stroke="#63b8ff" d="M423.76,-226.59C400.92,-217.91 367.33,-205.13 341.78,-195.42"/>
<polygon fill="#63b8ff" stroke="#63b8ff" points="343.03,-192.15 332.44,-191.87 340.54,-198.69 343.03,-192.15"/>
</a>
</g>
</g>
<!-- Node13&#45;&gt;Node4 -->
<g id="edge19_Node000013_Node000004" class="edge">
<title>Node13&#45;&gt;Node4</title>
<g id="a_edge19_Node000013_Node000004"><a xlink:title=" ">
<path fill="none" stroke="#63b8ff" d="M137.28,-170.03C118.97,-147.49 78.72,-90.49 108.5,-56.75 129.71,-32.71 343.76,-18.32 432.38,-13.35"/>
<polygon fill="#63b8ff" stroke="#63b8ff" points="432.48,-16.85 442.27,-12.8 432.09,-9.86 432.48,-16.85"/>
</a>
</g>
</g>
<!-- Node14 -->
<g id="Node000014" class="node">
<title>Node14</title>
<g id="a_Node000014"><a xlink:title=" ">
<polygon fill="#e0e0e0" stroke="#999999" points="61,-134.25 0,-134.25 0,-113.5 61,-113.5 61,-134.25"/>
<text text-anchor="middle" x="30.5" y="-120.75" font-family="Helvetica,sans-Serif" font-size="10.00">stdbool.h</text>
</a>
</g>
</g>
<!-- Node13&#45;&gt;Node14 -->
<g id="edge20_Node000013_Node000014" class="edge">
<title>Node13&#45;&gt;Node14</title>
<g id="a_edge20_Node000013_Node000014"><a xlink:title=" ">
<path fill="none" stroke="#63b8ff" d="M124.94,-169.84C107.2,-161.39 81.32,-149.07 61.13,-139.46"/>
<polygon fill="#63b8ff" stroke="#63b8ff" points="62.78,-136.37 52.25,-135.23 59.77,-142.69 62.78,-136.37"/>
</a>
</g>
</g>
<!-- Node16 -->
<g id="Node000016" class="node">
<title>Node16</title>
<g id="a_Node000016"><a xlink:href="modules_8h.html" target="_top" xlink:title="Common macros and compiler attributes/pragmas configuration.">
<polygon fill="white" stroke="#666666" points="937,-134.25 870,-134.25 870,-113.5 937,-113.5 937,-134.25"/>
<text text-anchor="middle" x="903.5" y="-120.75" font-family="Helvetica,sans-Serif" font-size="10.00">modules.h</text>
</a>
</g>
</g>
<!-- Node15&#45;&gt;Node16 -->
<g id="edge22_Node000015_Node000016" class="edge">
<title>Node15&#45;&gt;Node16</title>
<g id="a_edge22_Node000015_Node000016"><a xlink:title=" ">
<path fill="none" stroke="#63b8ff" d="M353.97,-171.38C356.85,-170.98 359.71,-170.6 362.5,-170.25 545.71,-147.54 765.28,-133.02 858.31,-127.45"/>
<polygon fill="#63b8ff" stroke="#63b8ff" points="858.25,-130.96 868.03,-126.87 857.84,-123.97 858.25,-130.96"/>
</a>
</g>
</g>
<!-- Node17 -->
<g id="Node000017" class="node">
<title>Node17</title>
<g id="a_Node000017"><a xlink:href="riot__version_8h.html" target="_top" xlink:title="Common macros and compiler attributes/pragmas configuration.">
<polygon fill="white" stroke="#666666" points="423.88,-77.5 341.12,-77.5 341.12,-56.75 423.88,-56.75 423.88,-77.5"/>
<text text-anchor="middle" x="382.5" y="-64" font-family="Helvetica,sans-Serif" font-size="10.00">riot_version.h</text>
</a>
</g>
</g>
<!-- Node15&#45;&gt;Node17 -->
<g id="edge23_Node000015_Node000017" class="edge">
<title>Node15&#45;&gt;Node17</title>
<g id="a_edge23_Node000015_Node000017"><a xlink:title=" ">
<path fill="none" stroke="#63b8ff" d="M322.81,-169.82C335.52,-161.8 352.27,-149.32 362.5,-134.25 371.68,-120.72 376.75,-102.86 379.49,-89.11"/>
<polygon fill="#63b8ff" stroke="#63b8ff" points="382.92,-89.82 381.15,-79.37 376.02,-88.64 382.92,-89.82"/>
</a>
</g>
</g>
<!-- Node18 -->
<g id="Node000018" class="node">
<title>Node18</title>
<g id="a_Node000018"><a xlink:href="compiler__hints_8h.html" target="_top" xlink:title="Common macros and compiler attributes/pragmas configuration.">
<polygon fill="white" stroke="#666666" points="354,-134.25 257,-134.25 257,-113.5 354,-113.5 354,-134.25"/>
<text text-anchor="middle" x="305.5" y="-120.75" font-family="Helvetica,sans-Serif" font-size="10.00">compiler_hints.h</text>
</a>
</g>
</g>
<!-- Node15&#45;&gt;Node18 -->
<g id="edge25_Node000015_Node000018" class="edge">
<title>Node15&#45;&gt;Node18</title>
<g id="a_edge25_Node000015_Node000018"><a xlink:title=" ">
<path fill="none" stroke="#63b8ff" d="M305.5,-169.84C305.5,-163.22 305.5,-154.22 305.5,-146.02"/>
<polygon fill="#63b8ff" stroke="#63b8ff" points="309,-146.09 305.5,-136.09 302,-146.09 309,-146.09"/>
</a>
</g>
</g>
<!-- Node20 -->
<g id="Node000020" class="node">
<title>Node20</title>
<g id="a_Node000020"><a xlink:href="container_8h.html" target="_top" xlink:title="Common macros and compiler attributes/pragmas configuration.">
<polygon fill="white" stroke="#666666" points="236.88,-134.25 166.12,-134.25 166.12,-113.5 236.88,-113.5 236.88,-134.25"/>
<text text-anchor="middle" x="201.5" y="-120.75" font-family="Helvetica,sans-Serif" font-size="10.00">container.h</text>
</a>
</g>
</g>
<!-- Node15&#45;&gt;Node20 -->
<g id="edge29_Node000015_Node000020" class="edge">
<title>Node15&#45;&gt;Node20</title>
<g id="a_edge29_Node000015_Node000020"><a xlink:title=" ">
<path fill="none" stroke="#63b8ff" d="M286.91,-169.84C271.08,-161.51 248.1,-149.41 229.96,-139.86"/>
<polygon fill="#63b8ff" stroke="#63b8ff" points="231.75,-136.84 221.27,-135.28 228.49,-143.04 231.75,-136.84"/>
</a>
</g>
</g>
<!-- Node17&#45;&gt;Node4 -->
<g id="edge24_Node000017_Node000004" class="edge">
<title>Node17&#45;&gt;Node4</title>
<g id="a_edge24_Node000017_Node000004"><a xlink:title=" ">
<path fill="none" stroke="#63b8ff" d="M398.23,-56.34C411.37,-48.16 430.34,-36.36 445.55,-26.9"/>
<polygon fill="#63b8ff" stroke="#63b8ff" points="446.98,-30.13 453.62,-21.88 443.28,-24.19 446.98,-30.13"/>
</a>
</g>
</g>
<!-- Node18&#45;&gt;Node4 -->
<g id="edge28_Node000018_Node000004" class="edge">
<title>Node18&#45;&gt;Node4</title>
<g id="a_edge28_Node000018_Node000004"><a xlink:title=" ">
<path fill="none" stroke="#63b8ff" d="M306.83,-113.35C309.31,-99.07 315.99,-72.14 332.5,-56.75 359.98,-31.13 402.21,-19.96 432.71,-15.1"/>
<polygon fill="#63b8ff" stroke="#63b8ff" points="432.87,-18.62 442.28,-13.74 431.89,-11.68 432.87,-18.62"/>
</a>
</g>
</g>
<!-- Node19 -->
<g id="Node000019" class="node">
<title>Node19</title>
<g id="a_Node000019"><a xlink:href="assert_8h.html" target="_top" xlink:title="POSIX.1&#45;2008 compliant version of the assert macro.">
<polygon fill="white" stroke="#666666" points="285,-77.5 230,-77.5 230,-56.75 285,-56.75 285,-77.5"/>
<text text-anchor="middle" x="257.5" y="-64" font-family="Helvetica,sans-Serif" font-size="10.00">assert.h</text>
</a>
</g>
</g>
<!-- Node18&#45;&gt;Node19 -->
<g id="edge26_Node000018_Node000019" class="edge">
<title>Node18&#45;&gt;Node19</title>
<g id="a_edge26_Node000018_Node000019"><a xlink:title=" ">
<path fill="none" stroke="#63b8ff" d="M296.92,-113.09C290.43,-105.69 281.35,-95.32 273.53,-86.41"/>
<polygon fill="#63b8ff" stroke="#63b8ff" points="276.23,-84.18 267,-78.97 270.97,-88.79 276.23,-84.18"/>
</a>
</g>
</g>
<!-- Node19&#45;&gt;Node4 -->
<g id="edge27_Node000019_Node000004" class="edge">
<title>Node19&#45;&gt;Node4</title>
<g id="a_edge27_Node000019_Node000004"><a xlink:title=" ">
<path fill="none" stroke="#63b8ff" d="M285.35,-58.97C323.05,-49.28 390.47,-31.95 432.71,-21.09"/>
<polygon fill="#63b8ff" stroke="#63b8ff" points="433.38,-24.53 442.19,-18.65 431.63,-17.75 433.38,-24.53"/>
</a>
</g>
</g>
<!-- Node20&#45;&gt;Node4 -->
<g id="edge31_Node000020_Node000004" class="edge">
<title>Node20&#45;&gt;Node4</title>
<g id="a_edge31_Node000020_Node000004"><a xlink:title=" ">
<path fill="none" stroke="#63b8ff" d="M201.3,-113.15C201.58,-98.6 204.38,-71.33 220.5,-56.75 251.08,-29.09 370.32,-17.63 432.42,-13.46"/>
<polygon fill="#63b8ff" stroke="#63b8ff" points="432.41,-16.97 442.17,-12.84 431.97,-9.98 432.41,-16.97"/>
</a>
</g>
</g>
<!-- Node21 -->
<g id="Node000021" class="node">
<title>Node21</title>
<g id="a_Node000021"><a xlink:title=" ">
<polygon fill="#e0e0e0" stroke="#999999" points="173,-77.5 118,-77.5 118,-56.75 173,-56.75 173,-77.5"/>
<text text-anchor="middle" x="145.5" y="-64" font-family="Helvetica,sans-Serif" font-size="10.00">stddef.h</text>
</a>
</g>
</g>
<!-- Node20&#45;&gt;Node21 -->
<g id="edge30_Node000020_Node000021" class="edge">
<title>Node20&#45;&gt;Node21</title>
<g id="a_edge30_Node000020_Node000021"><a xlink:title=" ">
<path fill="none" stroke="#63b8ff" d="M191.49,-113.09C183.76,-105.53 172.87,-94.89 163.63,-85.85"/>
<polygon fill="#63b8ff" stroke="#63b8ff" points="166.1,-83.37 156.51,-78.89 161.21,-88.38 166.1,-83.37"/>
</a>
</g>
</g>
<!-- Node22&#45;&gt;Node4 -->
<g id="edge33_Node000022_Node000004" class="edge">
<title>Node22&#45;&gt;Node4</title>
<g id="a_edge33_Node000022_Node000004"><a xlink:title=" ">
<path fill="none" stroke="#63b8ff" d="M712.68,-226.68C757.26,-198.82 875.2,-116.68 822.5,-56.75 802,-33.44 595.65,-18.71 508.75,-13.5"/>
<polygon fill="#63b8ff" stroke="#63b8ff" points="509.02,-10.01 498.83,-12.91 508.6,-17 509.02,-10.01"/>
</a>
</g>
</g>
<!-- Node22&#45;&gt;Node5 -->
<g id="edge36_Node000022_Node000005" class="edge">
<title>Node22&#45;&gt;Node5</title>
<g id="a_edge36_Node000022_Node000005"><a xlink:title=" ">
<path fill="none" stroke="#63b8ff" d="M682.56,-226.59C671.13,-218.57 654.73,-207.06 641.39,-197.69"/>
<polygon fill="#63b8ff" stroke="#63b8ff" points="643.76,-195.08 633.56,-192.2 639.74,-200.81 643.76,-195.08"/>
</a>
</g>
</g>
<!-- Node22&#45;&gt;Node6 -->
<g id="edge35_Node000022_Node000006" class="edge">
<title>Node22&#45;&gt;Node6</title>
<g id="a_edge35_Node000022_Node000006"><a xlink:title=" ">
<path fill="none" stroke="#63b8ff" d="M693,-226.87C686.38,-208.86 671.87,-169.39 662.97,-145.18"/>
<polygon fill="#63b8ff" stroke="#63b8ff" points="666.36,-144.27 659.63,-136.1 659.79,-146.69 666.36,-144.27"/>
</a>
</g>
</g>
<!-- Node22&#45;&gt;Node16 -->
<g id="edge37_Node000022_Node000016" class="edge">
<title>Node22&#45;&gt;Node16</title>
<g id="a_edge37_Node000022_Node000016"><a xlink:title=" ">
<path fill="none" stroke="#63b8ff" d="M743.48,-226.54C783.53,-217.52 837.39,-203.67 855.5,-191 872.36,-179.21 885.52,-159.55 893.76,-144.73"/>
<polygon fill="#63b8ff" stroke="#63b8ff" points="896.86,-146.37 898.39,-135.89 890.65,-143.13 896.86,-146.37"/>
</a>
</g>
</g>
<!-- Node23 -->
<g id="Node000023" class="node">
<title>Node23</title>
<g id="a_Node000023"><a xlink:title=" ">
<polygon fill="#e0e0e0" stroke="#999999" points="959.5,-191 907.5,-191 907.5,-170.25 959.5,-170.25 959.5,-191"/>
<text text-anchor="middle" x="933.5" y="-177.5" font-family="Helvetica,sans-Serif" font-size="10.00">stdlib.h</text>
</a>
</g>
</g>
<!-- Node22&#45;&gt;Node23 -->
<g id="edge34_Node000022_Node000023" class="edge">
<title>Node22&#45;&gt;Node23</title>
<g id="a_edge34_Node000022_Node000023"><a xlink:title=" ">
<path fill="none" stroke="#63b8ff" d="M739.55,-226.51C779.47,-217.35 840.51,-203.31 893.5,-191 894.47,-190.77 895.46,-190.54 896.45,-190.31"/>
<polygon fill="#63b8ff" stroke="#63b8ff" points="896.84,-193.82 905.78,-188.14 895.25,-187 896.84,-193.82"/>
</a>
</g>
</g>
<!-- Node24&#45;&gt;Node16 -->
<g id="edge40_Node000024_Node000016" class="edge">
<title>Node24&#45;&gt;Node16</title>
<g id="a_edge40_Node000024_Node000016"><a xlink:title=" ">
<path fill="none" stroke="#63b8ff" d="M934.06,-283.36C946.23,-275.51 961.46,-263.24 968.5,-247.75 982.75,-216.39 984.43,-200.79 968.5,-170.25 961.79,-157.38 949.57,-147.41 937.53,-140.14"/>
<polygon fill="#63b8ff" stroke="#63b8ff" points="939.35,-137.15 928.9,-135.39 935.98,-143.28 939.35,-137.15"/>
</a>
</g>
</g>
<!-- Node25 -->
<g id="Node000025" class="node">
<title>Node25</title>
<g id="a_Node000025"><a xlink:href="inttypes_8h.html" target="_top" xlink:title="Adds include for missing inttype definitions.">
<polygon fill="white" stroke="#666666" points="1079.88,-247.75 1015.12,-247.75 1015.12,-227 1079.88,-227 1079.88,-247.75"/>
<text text-anchor="middle" x="1047.5" y="-234.25" font-family="Helvetica,sans-Serif" font-size="10.00">inttypes.h</text>
</a>
</g>
</g>
<!-- Node24&#45;&gt;Node25 -->
<g id="edge39_Node000024_Node000025" class="edge">
<title>Node24&#45;&gt;Node25</title>
<g id="a_edge39_Node000024_Node000025"><a xlink:title=" ">
<path fill="none" stroke="#63b8ff" d="M939.92,-283.34C960.5,-274.73 990.7,-262.11 1013.87,-252.43"/>
<polygon fill="#63b8ff" stroke="#63b8ff" points="1015.01,-255.75 1022.89,-248.66 1012.31,-249.29 1015.01,-255.75"/>
</a>
</g>
</g>
<!-- Node26 -->
<g id="Node000026" class="node">
<title>Node26</title>
<g id="a_Node000026"><a xlink:href="ethertype_8h.html" target="_top" xlink:title="Ether type definitions.">
<polygon fill="white" stroke="#666666" points="856,-247.75 765,-247.75 765,-227 856,-227 856,-247.75"/>
<text text-anchor="middle" x="810.5" y="-234.25" font-family="Helvetica,sans-Serif" font-size="10.00">net/ethertype.h</text>
</a>
</g>
</g>
<!-- Node24&#45;&gt;Node26 -->
<g id="edge41_Node000024_Node000026" class="edge">
<title>Node24&#45;&gt;Node26</title>
<g id="a_edge41_Node000024_Node000026"><a xlink:title=" ">
<path fill="none" stroke="#63b8ff" d="M897.55,-283.34C881.42,-275.01 858,-262.91 839.51,-253.36"/>
<polygon fill="#63b8ff" stroke="#63b8ff" points="841.12,-250.25 830.63,-248.77 837.91,-256.47 841.12,-250.25"/>
</a>
</g>
</g>
<!-- Node27 -->
<g id="Node000027" class="node">
<title>Node27</title>
<g id="a_Node000027"><a xlink:href="protnum_8h.html" target="_top" xlink:title="Protocol number definitions.">
<polygon fill="white" stroke="#666666" points="959,-247.75 874,-247.75 874,-227 959,-227 959,-247.75"/>
<text text-anchor="middle" x="916.5" y="-234.25" font-family="Helvetica,sans-Serif" font-size="10.00">net/protnum.h</text>
</a>
</g>
</g>
<!-- Node24&#45;&gt;Node27 -->
<g id="edge42_Node000024_Node000027" class="edge">
<title>Node24&#45;&gt;Node27</title>
<g id="a_edge42_Node000024_Node000027"><a xlink:title=" ">
<path fill="none" stroke="#63b8ff" d="M916.5,-283.34C916.5,-276.72 916.5,-267.72 916.5,-259.52"/>
<polygon fill="#63b8ff" stroke="#63b8ff" points="920,-259.59 916.5,-249.59 913,-259.59 920,-259.59"/>
</a>
</g>
</g>
</g>
</svg>
