<?xml version="1.0" encoding="UTF-8" standalone="no"?>
<!DOCTYPE svg PUBLIC "-//W3C//DTD SVG 1.1//EN"
 "http://www.w3.org/Graphics/SVG/1.1/DTD/svg11.dtd">
<!-- Generated by graphviz version 12.1.2 (0)
 -->
<!-- Title: drivers/include/net/netdev.h Pages: 1 -->
<svg width="534pt" height="269pt"
 viewBox="0.00 0.00 533.89 268.50" xmlns="http://www.w3.org/2000/svg" xmlns:xlink="http://www.w3.org/1999/xlink">
<g id="graph0" class="graph" transform="scale(1 1) rotate(0) translate(4 264.5)">
<title>drivers/include/net/netdev.h</title>
<!-- Node1 -->
<g id="Node000001" class="node">
<title>Node1</title>
<g id="a_Node000001"><a xlink:title="Definitions low&#45;level network driver interface.">
<polygon fill="#999999" stroke="#666666" points="158.76,-260.5 52.01,-260.5 52.01,-227 158.76,-227 158.76,-260.5"/>
<text text-anchor="start" x="60.01" y="-247" font-family="Helvetica,sans-Serif" font-size="10.00">drivers/include/net</text>
<text text-anchor="middle" x="105.39" y="-234.25" font-family="Helvetica,sans-Serif" font-size="10.00">/netdev.h</text>
</a>
</g>
</g>
<!-- Node2 -->
<g id="Node000002" class="node">
<title>Node2</title>
<g id="a_Node000002"><a xlink:title=" ">
<polygon fill="#e0e0e0" stroke="#999999" points="321.76,-20.75 269.01,-20.75 269.01,0 321.76,0 321.76,-20.75"/>
<text text-anchor="middle" x="295.39" y="-7.25" font-family="Helvetica,sans-Serif" font-size="10.00">stdint.h</text>
</a>
</g>
</g>
<!-- Node1&#45;&gt;Node2 -->
<g id="edge1_Node000001_Node000002" class="edge">
<title>Node1&#45;&gt;Node2</title>
<g id="a_edge1_Node000001_Node000002"><a xlink:title=" ">
<path fill="none" stroke="#63b8ff" d="M51.53,-227.74C20.54,-215.95 -9.87,-197.02 3.39,-170.25 52.3,-71.5 190.71,-31.67 257.89,-17.81"/>
<polygon fill="#63b8ff" stroke="#63b8ff" points="258.18,-21.32 267.31,-15.95 256.82,-14.45 258.18,-21.32"/>
</a>
</g>
</g>
<!-- Node3 -->
<g id="Node000003" class="node">
<title>Node3</title>
<g id="a_Node000003"><a xlink:href="errno_8h.html" target="_top" xlink:title=" ">
<polygon fill="white" stroke="#666666" points="62.64,-191 12.14,-191 12.14,-170.25 62.64,-170.25 62.64,-191"/>
<text text-anchor="middle" x="37.39" y="-177.5" font-family="Helvetica,sans-Serif" font-size="10.00">errno.h</text>
</a>
</g>
</g>
<!-- Node1&#45;&gt;Node3 -->
<g id="edge2_Node000001_Node000003" class="edge">
<title>Node1&#45;&gt;Node3</title>
<g id="a_edge2_Node000001_Node000003"><a xlink:title=" ">
<path fill="none" stroke="#63b8ff" d="M87.52,-226.69C78.1,-218.22 66.52,-207.81 56.87,-199.14"/>
<polygon fill="#63b8ff" stroke="#63b8ff" points="59.24,-196.56 49.46,-192.48 54.56,-201.77 59.24,-196.56"/>
</a>
</g>
</g>
<!-- Node4 -->
<g id="Node000004" class="node">
<title>Node4</title>
<g id="a_Node000004"><a xlink:href="iolist_8h.html" target="_top" xlink:title="iolist scatter / gather IO">
<polygon fill="white" stroke="#666666" points="129.89,-191 80.89,-191 80.89,-170.25 129.89,-170.25 129.89,-191"/>
<text text-anchor="middle" x="105.39" y="-177.5" font-family="Helvetica,sans-Serif" font-size="10.00">iolist.h</text>
</a>
</g>
</g>
<!-- Node1&#45;&gt;Node4 -->
<g id="edge3_Node000001_Node000004" class="edge">
<title>Node1&#45;&gt;Node4</title>
<g id="a_edge3_Node000001_Node000004"><a xlink:title=" ">
<path fill="none" stroke="#63b8ff" d="M105.39,-226.69C105.39,-219.35 105.39,-210.57 105.39,-202.71"/>
<polygon fill="#63b8ff" stroke="#63b8ff" points="108.89,-202.98 105.39,-192.98 101.89,-202.98 108.89,-202.98"/>
</a>
</g>
</g>
<!-- Node5 -->
<g id="Node000005" class="node">
<title>Node5</title>
<g id="a_Node000005"><a xlink:href="netopt_8h.html" target="_top" xlink:title="Definition of global configuration options.">
<polygon fill="white" stroke="#666666" points="223.01,-191 147.76,-191 147.76,-170.25 223.01,-170.25 223.01,-191"/>
<text text-anchor="middle" x="185.39" y="-177.5" font-family="Helvetica,sans-Serif" font-size="10.00">net/netopt.h</text>
</a>
</g>
</g>
<!-- Node1&#45;&gt;Node5 -->
<g id="edge4_Node000001_Node000005" class="edge">
<title>Node1&#45;&gt;Node5</title>
<g id="a_edge4_Node000001_Node000005"><a xlink:title=" ">
<path fill="none" stroke="#63b8ff" d="M126.41,-226.69C137.83,-217.96 151.95,-207.17 163.51,-198.34"/>
<polygon fill="#63b8ff" stroke="#63b8ff" points="165.48,-201.24 171.3,-192.39 161.23,-195.68 165.48,-201.24"/>
</a>
</g>
</g>
<!-- Node7 -->
<g id="Node000007" class="node">
<title>Node7</title>
<g id="a_Node000007"><a xlink:href="kernel__defines_8h.html" target="_top" xlink:title="Common macros and compiler attributes/pragmas configuration.">
<polygon fill="white" stroke="#666666" points="357.51,-191 261.26,-191 261.26,-170.25 357.51,-170.25 357.51,-191"/>
<text text-anchor="middle" x="309.39" y="-177.5" font-family="Helvetica,sans-Serif" font-size="10.00">kernel_defines.h</text>
</a>
</g>
</g>
<!-- Node1&#45;&gt;Node7 -->
<g id="edge7_Node000001_Node000007" class="edge">
<title>Node1&#45;&gt;Node7</title>
<g id="a_edge7_Node000001_Node000007"><a xlink:title=" ">
<path fill="none" stroke="#63b8ff" d="M159.25,-226.61C192.47,-216.66 234.54,-204.05 265.68,-194.72"/>
<polygon fill="#63b8ff" stroke="#63b8ff" points="266.6,-198.1 275.18,-191.88 264.59,-191.39 266.6,-198.1"/>
</a>
</g>
</g>
<!-- Node5&#45;&gt;Node2 -->
<g id="edge5_Node000005_Node000002" class="edge">
<title>Node5&#45;&gt;Node2</title>
<g id="a_edge5_Node000005_Node000002"><a xlink:title=" ">
<path fill="none" stroke="#63b8ff" d="M165.01,-169.9C143.1,-158 112.97,-136.57 125.39,-113.5 152.61,-62.93 216.54,-34.9 257.78,-21.51"/>
<polygon fill="#63b8ff" stroke="#63b8ff" points="258.79,-24.86 267.31,-18.56 256.72,-18.17 258.79,-24.86"/>
</a>
</g>
</g>
<!-- Node6 -->
<g id="Node000006" class="node">
<title>Node6</title>
<g id="a_Node000006"><a xlink:title=" ">
<polygon fill="#e0e0e0" stroke="#999999" points="195.89,-134.25 134.89,-134.25 134.89,-113.5 195.89,-113.5 195.89,-134.25"/>
<text text-anchor="middle" x="165.39" y="-120.75" font-family="Helvetica,sans-Serif" font-size="10.00">stdbool.h</text>
</a>
</g>
</g>
<!-- Node5&#45;&gt;Node6 -->
<g id="edge6_Node000005_Node000006" class="edge">
<title>Node5&#45;&gt;Node6</title>
<g id="a_edge6_Node000005_Node000006"><a xlink:title=" ">
<path fill="none" stroke="#63b8ff" d="M181.81,-169.84C179.31,-162.99 175.87,-153.59 172.79,-145.15"/>
<polygon fill="#63b8ff" stroke="#63b8ff" points="176.17,-144.19 169.45,-136 169.59,-146.59 176.17,-144.19"/>
</a>
</g>
</g>
<!-- Node8 -->
<g id="Node000008" class="node">
<title>Node8</title>
<g id="a_Node000008"><a xlink:href="modules_8h.html" target="_top" xlink:title="Common macros and compiler attributes/pragmas configuration.">
<polygon fill="white" stroke="#666666" points="280.89,-134.25 213.89,-134.25 213.89,-113.5 280.89,-113.5 280.89,-134.25"/>
<text text-anchor="middle" x="247.39" y="-120.75" font-family="Helvetica,sans-Serif" font-size="10.00">modules.h</text>
</a>
</g>
</g>
<!-- Node7&#45;&gt;Node8 -->
<g id="edge8_Node000007_Node000008" class="edge">
<title>Node7&#45;&gt;Node8</title>
<g id="a_edge8_Node000007_Node000008"><a xlink:title=" ">
<path fill="none" stroke="#63b8ff" d="M298.3,-169.84C289.57,-162.13 277.19,-151.2 266.82,-142.04"/>
<polygon fill="#63b8ff" stroke="#63b8ff" points="269.32,-139.58 259.51,-135.58 264.69,-144.82 269.32,-139.58"/>
</a>
</g>
</g>
<!-- Node9 -->
<g id="Node000009" class="node">
<title>Node9</title>
<g id="a_Node000009"><a xlink:href="riot__version_8h.html" target="_top" xlink:title="Common macros and compiler attributes/pragmas configuration.">
<polygon fill="white" stroke="#666666" points="302.76,-77.5 220.01,-77.5 220.01,-56.75 302.76,-56.75 302.76,-77.5"/>
<text text-anchor="middle" x="261.39" y="-64" font-family="Helvetica,sans-Serif" font-size="10.00">riot_version.h</text>
</a>
</g>
</g>
<!-- Node7&#45;&gt;Node9 -->
<g id="edge9_Node000007_Node000009" class="edge">
<title>Node7&#45;&gt;Node9</title>
<g id="a_edge9_Node000007_Node000009"><a xlink:title=" ">
<path fill="none" stroke="#63b8ff" d="M307.29,-169.93C304.26,-156.78 298.06,-132.75 289.39,-113.5 285.31,-104.46 279.75,-95.05 274.65,-87.15"/>
<polygon fill="#63b8ff" stroke="#63b8ff" points="277.71,-85.42 269.23,-79.06 271.89,-89.32 277.71,-85.42"/>
</a>
</g>
</g>
<!-- Node10 -->
<g id="Node000010" class="node">
<title>Node10</title>
<g id="a_Node000010"><a xlink:href="compiler__hints_8h.html" target="_top" xlink:title="Common macros and compiler attributes/pragmas configuration.">
<polygon fill="white" stroke="#666666" points="434.89,-134.25 337.89,-134.25 337.89,-113.5 434.89,-113.5 434.89,-134.25"/>
<text text-anchor="middle" x="386.39" y="-120.75" font-family="Helvetica,sans-Serif" font-size="10.00">compiler_hints.h</text>
</a>
</g>
</g>
<!-- Node7&#45;&gt;Node10 -->
<g id="edge11_Node000007_Node000010" class="edge">
<title>Node7&#45;&gt;Node10</title>
<g id="a_edge11_Node000007_Node000010"><a xlink:title=" ">
<path fill="none" stroke="#63b8ff" d="M323.15,-169.84C334.32,-161.9 350.31,-150.53 363.41,-141.21"/>
<polygon fill="#63b8ff" stroke="#63b8ff" points="365.38,-144.1 371.51,-135.46 361.33,-138.4 365.38,-144.1"/>
</a>
</g>
</g>
<!-- Node12 -->
<g id="Node000012" class="node">
<title>Node12</title>
<g id="a_Node000012"><a xlink:href="container_8h.html" target="_top" xlink:title="Common macros and compiler attributes/pragmas configuration.">
<polygon fill="white" stroke="#666666" points="523.76,-134.25 453.01,-134.25 453.01,-113.5 523.76,-113.5 523.76,-134.25"/>
<text text-anchor="middle" x="488.39" y="-120.75" font-family="Helvetica,sans-Serif" font-size="10.00">container.h</text>
</a>
</g>
</g>
<!-- Node7&#45;&gt;Node12 -->
<g id="edge15_Node000007_Node000012" class="edge">
<title>Node7&#45;&gt;Node12</title>
<g id="a_edge15_Node000007_Node000012"><a xlink:title=" ">
<path fill="none" stroke="#63b8ff" d="M341.39,-169.84C370.44,-160.95 413.52,-147.77 445.54,-137.98"/>
<polygon fill="#63b8ff" stroke="#63b8ff" points="446.37,-141.39 454.91,-135.11 444.33,-134.69 446.37,-141.39"/>
</a>
</g>
</g>
<!-- Node9&#45;&gt;Node2 -->
<g id="edge10_Node000009_Node000002" class="edge">
<title>Node9&#45;&gt;Node2</title>
<g id="a_edge10_Node000009_Node000002"><a xlink:title=" ">
<path fill="none" stroke="#63b8ff" d="M267.46,-56.34C271.86,-49.25 277.96,-39.44 283.33,-30.79"/>
<polygon fill="#63b8ff" stroke="#63b8ff" points="286.26,-32.71 288.56,-22.36 280.31,-29.01 286.26,-32.71"/>
</a>
</g>
</g>
<!-- Node10&#45;&gt;Node2 -->
<g id="edge14_Node000010_Node000002" class="edge">
<title>Node10&#45;&gt;Node2</title>
<g id="a_edge14_Node000010_Node000002"><a xlink:title=" ">
<path fill="none" stroke="#63b8ff" d="M378.63,-113.37C363.59,-94.95 330.25,-54.09 310.63,-30.05"/>
<polygon fill="#63b8ff" stroke="#63b8ff" points="313.38,-27.88 304.34,-22.35 307.95,-32.31 313.38,-27.88"/>
</a>
</g>
</g>
<!-- Node11 -->
<g id="Node000011" class="node">
<title>Node11</title>
<g id="a_Node000011"><a xlink:href="assert_8h.html" target="_top" xlink:title="POSIX.1&#45;2008 compliant version of the assert macro.">
<polygon fill="white" stroke="#666666" points="413.89,-77.5 358.89,-77.5 358.89,-56.75 413.89,-56.75 413.89,-77.5"/>
<text text-anchor="middle" x="386.39" y="-64" font-family="Helvetica,sans-Serif" font-size="10.00">assert.h</text>
</a>
</g>
</g>
<!-- Node10&#45;&gt;Node11 -->
<g id="edge12_Node000010_Node000011" class="edge">
<title>Node10&#45;&gt;Node11</title>
<g id="a_edge12_Node000010_Node000011"><a xlink:title=" ">
<path fill="none" stroke="#63b8ff" d="M386.39,-113.09C386.39,-106.47 386.39,-97.47 386.39,-89.27"/>
<polygon fill="#63b8ff" stroke="#63b8ff" points="389.89,-89.34 386.39,-79.34 382.89,-89.34 389.89,-89.34"/>
</a>
</g>
</g>
<!-- Node11&#45;&gt;Node2 -->
<g id="edge13_Node000011_Node000002" class="edge">
<title>Node11&#45;&gt;Node2</title>
<g id="a_edge13_Node000011_Node000002"><a xlink:title=" ">
<path fill="none" stroke="#63b8ff" d="M370.12,-56.34C356.53,-48.16 336.91,-36.36 321.18,-26.9"/>
<polygon fill="#63b8ff" stroke="#63b8ff" points="323.18,-24.02 312.81,-21.86 319.58,-30.01 323.18,-24.02"/>
</a>
</g>
</g>
<!-- Node12&#45;&gt;Node2 -->
<g id="edge17_Node000012_Node000002" class="edge">
<title>Node12&#45;&gt;Node2</title>
<g id="a_edge17_Node000012_Node000002"><a xlink:title=" ">
<path fill="none" stroke="#63b8ff" d="M481.43,-113.44C470.52,-99.27 448.09,-72.49 423.39,-56.75 395.46,-38.96 359.65,-27.03 333.02,-19.89"/>
<polygon fill="#63b8ff" stroke="#63b8ff" points="334.23,-16.59 323.68,-17.49 332.49,-23.37 334.23,-16.59"/>
</a>
</g>
</g>
<!-- Node13 -->
<g id="Node000013" class="node">
<title>Node13</title>
<g id="a_Node000013"><a xlink:title=" ">
<polygon fill="#e0e0e0" stroke="#999999" points="525.89,-77.5 470.89,-77.5 470.89,-56.75 525.89,-56.75 525.89,-77.5"/>
<text text-anchor="middle" x="498.39" y="-64" font-family="Helvetica,sans-Serif" font-size="10.00">stddef.h</text>
</a>
</g>
</g>
<!-- Node12&#45;&gt;Node13 -->
<g id="edge16_Node000012_Node000013" class="edge">
<title>Node12&#45;&gt;Node13</title>
<g id="a_edge16_Node000012_Node000013"><a xlink:title=" ">
<path fill="none" stroke="#63b8ff" d="M490.17,-113.09C491.4,-106.39 493.06,-97.26 494.58,-88.98"/>
<polygon fill="#63b8ff" stroke="#63b8ff" points="497.99,-89.78 496.34,-79.32 491.1,-88.53 497.99,-89.78"/>
</a>
</g>
</g>
</g>
</svg>
