<?xml version="1.0" encoding="UTF-8" standalone="no"?>
<!DOCTYPE svg PUBLIC "-//W3C//DTD SVG 1.1//EN"
 "http://www.w3.org/Graphics/SVG/1.1/DTD/svg11.dtd">
<!-- Generated by graphviz version 12.1.2 (0)
 -->
<!-- Title: drivers/ds1307/include/ds1307_params.h Pages: 1 -->
<svg width="425pt" height="212pt"
 viewBox="0.00 0.00 424.62 211.75" xmlns="http://www.w3.org/2000/svg" xmlns:xlink="http://www.w3.org/1999/xlink">
<g id="graph0" class="graph" transform="scale(1 1) rotate(0) translate(4 207.75)">
<title>drivers/ds1307/include/ds1307_params.h</title>
<!-- Node1 -->
<g id="Node000001" class="node">
<title>Node1</title>
<g id="a_Node000001"><a xlink:title="Default configuration for DS1307 devices.">
<polygon fill="#999999" stroke="#666666" points="173.62,-203.75 47.38,-203.75 47.38,-170.25 173.62,-170.25 173.62,-203.75"/>
<text text-anchor="start" x="55.38" y="-190.25" font-family="Helvetica,sans-Serif" font-size="10.00">drivers/ds1307/include</text>
<text text-anchor="middle" x="110.5" y="-177.5" font-family="Helvetica,sans-Serif" font-size="10.00">/ds1307_params.h</text>
</a>
</g>
</g>
<!-- Node2 -->
<g id="Node000002" class="node">
<title>Node2</title>
<g id="a_Node000002"><a xlink:title=" ">
<polygon fill="#e0e0e0" stroke="#999999" points="99.88,-134.25 47.12,-134.25 47.12,-113.5 99.88,-113.5 99.88,-134.25"/>
<text text-anchor="middle" x="73.5" y="-120.75" font-family="Helvetica,sans-Serif" font-size="10.00">board.h</text>
</a>
</g>
</g>
<!-- Node1&#45;&gt;Node2 -->
<g id="edge1_Node000001_Node000002" class="edge">
<title>Node1&#45;&gt;Node2</title>
<g id="a_edge1_Node000001_Node000002"><a xlink:title=" ">
<path fill="none" stroke="#63b8ff" d="M100.78,-169.94C96.02,-162.08 90.26,-152.56 85.25,-144.29"/>
<polygon fill="#63b8ff" stroke="#63b8ff" points="88.41,-142.75 80.24,-136.01 82.43,-146.38 88.41,-142.75"/>
</a>
</g>
</g>
<!-- Node3 -->
<g id="Node000003" class="node">
<title>Node3</title>
<g id="a_Node000003"><a xlink:href="ds1307_8h.html" target="_top" xlink:title="DS1307 definitions.">
<polygon fill="white" stroke="#666666" points="178.62,-134.25 118.38,-134.25 118.38,-113.5 178.62,-113.5 178.62,-134.25"/>
<text text-anchor="middle" x="148.5" y="-120.75" font-family="Helvetica,sans-Serif" font-size="10.00">ds1307.h</text>
</a>
</g>
</g>
<!-- Node1&#45;&gt;Node3 -->
<g id="edge2_Node000001_Node000003" class="edge">
<title>Node1&#45;&gt;Node3</title>
<g id="a_edge2_Node000001_Node000003"><a xlink:title=" ">
<path fill="none" stroke="#63b8ff" d="M120.48,-169.94C125.37,-162.08 131.29,-152.56 136.43,-144.29"/>
<polygon fill="#63b8ff" stroke="#63b8ff" points="139.28,-146.34 141.58,-136 133.33,-142.65 139.28,-146.34"/>
</a>
</g>
</g>
<!-- Node4 -->
<g id="Node000004" class="node">
<title>Node4</title>
<g id="a_Node000004"><a xlink:title=" ">
<polygon fill="#e0e0e0" stroke="#999999" points="61,-77.5 0,-77.5 0,-56.75 61,-56.75 61,-77.5"/>
<text text-anchor="middle" x="30.5" y="-64" font-family="Helvetica,sans-Serif" font-size="10.00">stdbool.h</text>
</a>
</g>
</g>
<!-- Node3&#45;&gt;Node4 -->
<g id="edge3_Node000003_Node000004" class="edge">
<title>Node3&#45;&gt;Node4</title>
<g id="a_edge3_Node000003_Node000004"><a xlink:title=" ">
<path fill="none" stroke="#63b8ff" d="M127.4,-113.09C109.11,-104.6 82.4,-92.2 61.64,-82.58"/>
<polygon fill="#63b8ff" stroke="#63b8ff" points="63.33,-79.5 52.79,-78.47 60.38,-85.85 63.33,-79.5"/>
</a>
</g>
</g>
<!-- Node5 -->
<g id="Node000005" class="node">
<title>Node5</title>
<g id="a_Node000005"><a xlink:href="nvram_8h.html" target="_top" xlink:title="Generic non&#45;volatile RAM driver interface.">
<polygon fill="white" stroke="#666666" points="135.75,-77.5 79.25,-77.5 79.25,-56.75 135.75,-56.75 135.75,-77.5"/>
<text text-anchor="middle" x="107.5" y="-64" font-family="Helvetica,sans-Serif" font-size="10.00">nvram.h</text>
</a>
</g>
</g>
<!-- Node3&#45;&gt;Node5 -->
<g id="edge4_Node000003_Node000005" class="edge">
<title>Node3&#45;&gt;Node5</title>
<g id="a_edge4_Node000003_Node000005"><a xlink:title=" ">
<path fill="none" stroke="#63b8ff" d="M141.17,-113.09C135.75,-105.85 128.19,-95.76 121.61,-86.97"/>
<polygon fill="#63b8ff" stroke="#63b8ff" points="124.47,-84.95 115.67,-79.04 118.87,-89.14 124.47,-84.95"/>
</a>
</g>
</g>
<!-- Node8 -->
<g id="Node000008" class="node">
<title>Node8</title>
<g id="a_Node000008"><a xlink:href="i2c_8h.html" target="_top" xlink:title="Low&#45;level I2C peripheral driver interface definition.">
<polygon fill="white" stroke="#666666" points="227,-77.5 154,-77.5 154,-56.75 227,-56.75 227,-77.5"/>
<text text-anchor="middle" x="190.5" y="-64" font-family="Helvetica,sans-Serif" font-size="10.00">periph/i2c.h</text>
</a>
</g>
</g>
<!-- Node3&#45;&gt;Node8 -->
<g id="edge7_Node000003_Node000008" class="edge">
<title>Node3&#45;&gt;Node8</title>
<g id="a_edge7_Node000003_Node000008"><a xlink:title=" ">
<path fill="none" stroke="#63b8ff" d="M156.01,-113.09C161.62,-105.77 169.47,-95.54 176.26,-86.69"/>
<polygon fill="#63b8ff" stroke="#63b8ff" points="178.83,-89.09 182.14,-79.03 173.27,-84.83 178.83,-89.09"/>
</a>
</g>
</g>
<!-- Node12 -->
<g id="Node000012" class="node">
<title>Node12</title>
<g id="a_Node000012"><a xlink:href="drivers_2include_2periph_2gpio_8h.html" target="_top" xlink:title="Low&#45;level GPIO peripheral driver interface definitions.">
<polygon fill="white" stroke="#666666" points="324.38,-77.5 244.62,-77.5 244.62,-56.75 324.38,-56.75 324.38,-77.5"/>
<text text-anchor="middle" x="284.5" y="-64" font-family="Helvetica,sans-Serif" font-size="10.00">periph/gpio.h</text>
</a>
</g>
</g>
<!-- Node3&#45;&gt;Node12 -->
<g id="edge13_Node000003_Node000012" class="edge">
<title>Node3&#45;&gt;Node12</title>
<g id="a_edge13_Node000003_Node000012"><a xlink:title=" ">
<path fill="none" stroke="#63b8ff" d="M172.81,-113.09C194.28,-104.44 225.82,-91.75 249.91,-82.05"/>
<polygon fill="#63b8ff" stroke="#63b8ff" points="251.02,-85.38 258.99,-78.39 248.41,-78.88 251.02,-85.38"/>
</a>
</g>
</g>
<!-- Node6 -->
<g id="Node000006" class="node">
<title>Node6</title>
<g id="a_Node000006"><a xlink:title=" ">
<polygon fill="#e0e0e0" stroke="#999999" points="149.88,-20.75 97.12,-20.75 97.12,0 149.88,0 149.88,-20.75"/>
<text text-anchor="middle" x="123.5" y="-7.25" font-family="Helvetica,sans-Serif" font-size="10.00">stdint.h</text>
</a>
</g>
</g>
<!-- Node5&#45;&gt;Node6 -->
<g id="edge5_Node000005_Node000006" class="edge">
<title>Node5&#45;&gt;Node6</title>
<g id="a_edge5_Node000005_Node000006"><a xlink:title=" ">
<path fill="none" stroke="#63b8ff" d="M110.36,-56.34C112.34,-49.56 115.05,-40.3 117.49,-31.94"/>
<polygon fill="#63b8ff" stroke="#63b8ff" points="120.79,-33.11 120.24,-22.53 114.08,-31.15 120.79,-33.11"/>
</a>
</g>
</g>
<!-- Node7 -->
<g id="Node000007" class="node">
<title>Node7</title>
<g id="a_Node000007"><a xlink:title=" ">
<polygon fill="#e0e0e0" stroke="#999999" points="79,-20.75 24,-20.75 24,0 79,0 79,-20.75"/>
<text text-anchor="middle" x="51.5" y="-7.25" font-family="Helvetica,sans-Serif" font-size="10.00">stddef.h</text>
</a>
</g>
</g>
<!-- Node5&#45;&gt;Node7 -->
<g id="edge6_Node000005_Node000007" class="edge">
<title>Node5&#45;&gt;Node7</title>
<g id="a_edge6_Node000005_Node000007"><a xlink:title=" ">
<path fill="none" stroke="#63b8ff" d="M97.49,-56.34C89.76,-48.78 78.87,-38.14 69.63,-29.1"/>
<polygon fill="#63b8ff" stroke="#63b8ff" points="72.1,-26.62 62.51,-22.14 67.21,-31.63 72.1,-26.62"/>
</a>
</g>
</g>
<!-- Node8&#45;&gt;Node6 -->
<g id="edge8_Node000008_Node000006" class="edge">
<title>Node8&#45;&gt;Node6</title>
<g id="a_edge8_Node000008_Node000006"><a xlink:title=" ">
<path fill="none" stroke="#63b8ff" d="M178.52,-56.34C168.99,-48.55 155.44,-37.47 144.17,-28.26"/>
<polygon fill="#63b8ff" stroke="#63b8ff" points="146.5,-25.65 136.55,-22.04 142.08,-31.07 146.5,-25.65"/>
</a>
</g>
</g>
<!-- Node8&#45;&gt;Node7 -->
<g id="edge9_Node000008_Node000007" class="edge">
<title>Node8&#45;&gt;Node7</title>
<g id="a_edge9_Node000008_Node000007"><a xlink:title=" ">
<path fill="none" stroke="#63b8ff" d="M165.65,-56.34C143.61,-47.66 111.18,-34.88 86.52,-25.17"/>
<polygon fill="#63b8ff" stroke="#63b8ff" points="88.13,-22.04 77.54,-21.63 85.57,-28.55 88.13,-22.04"/>
</a>
</g>
</g>
<!-- Node9 -->
<g id="Node000009" class="node">
<title>Node9</title>
<g id="a_Node000009"><a xlink:title=" ">
<polygon fill="#e0e0e0" stroke="#999999" points="220.88,-20.75 168.12,-20.75 168.12,0 220.88,0 220.88,-20.75"/>
<text text-anchor="middle" x="194.5" y="-7.25" font-family="Helvetica,sans-Serif" font-size="10.00">limits.h</text>
</a>
</g>
</g>
<!-- Node8&#45;&gt;Node9 -->
<g id="edge10_Node000008_Node000009" class="edge">
<title>Node8&#45;&gt;Node9</title>
<g id="a_edge10_Node000008_Node000009"><a xlink:title=" ">
<path fill="none" stroke="#63b8ff" d="M191.22,-56.34C191.7,-49.72 192.36,-40.72 192.96,-32.52"/>
<polygon fill="#63b8ff" stroke="#63b8ff" points="196.44,-32.82 193.68,-22.59 189.46,-32.31 196.44,-32.82"/>
</a>
</g>
</g>
<!-- Node10 -->
<g id="Node000010" class="node">
<title>Node10</title>
<g id="a_Node000010"><a xlink:title=" ">
<polygon fill="#e0e0e0" stroke="#999999" points="320.12,-20.75 238.88,-20.75 238.88,0 320.12,0 320.12,-20.75"/>
<text text-anchor="middle" x="279.5" y="-7.25" font-family="Helvetica,sans-Serif" font-size="10.00">periph_conf.h</text>
</a>
</g>
</g>
<!-- Node8&#45;&gt;Node10 -->
<g id="edge11_Node000008_Node000010" class="edge">
<title>Node8&#45;&gt;Node10</title>
<g id="a_edge11_Node000008_Node000010"><a xlink:title=" ">
<path fill="none" stroke="#63b8ff" d="M206.41,-56.34C219.7,-48.16 238.89,-36.36 254.27,-26.9"/>
<polygon fill="#63b8ff" stroke="#63b8ff" points="255.75,-30.09 262.44,-21.87 252.09,-24.13 255.75,-30.09"/>
</a>
</g>
</g>
<!-- Node11 -->
<g id="Node000011" class="node">
<title>Node11</title>
<g id="a_Node000011"><a xlink:title=" ">
<polygon fill="#e0e0e0" stroke="#999999" points="416.62,-20.75 338.38,-20.75 338.38,0 416.62,0 416.62,-20.75"/>
<text text-anchor="middle" x="377.5" y="-7.25" font-family="Helvetica,sans-Serif" font-size="10.00">periph_cpu.h</text>
</a>
</g>
</g>
<!-- Node8&#45;&gt;Node11 -->
<g id="edge12_Node000008_Node000011" class="edge">
<title>Node8&#45;&gt;Node11</title>
<g id="a_edge12_Node000008_Node000011"><a xlink:title=" ">
<path fill="none" stroke="#63b8ff" d="M223.93,-56.34C254.42,-47.41 299.68,-34.16 333.17,-24.35"/>
<polygon fill="#63b8ff" stroke="#63b8ff" points="333.98,-27.76 342.59,-21.6 332.01,-21.05 333.98,-27.76"/>
</a>
</g>
</g>
<!-- Node12&#45;&gt;Node9 -->
<g id="edge14_Node000012_Node000009" class="edge">
<title>Node12&#45;&gt;Node9</title>
<g id="a_edge14_Node000012_Node000009"><a xlink:title=" ">
<path fill="none" stroke="#63b8ff" d="M268.41,-56.34C254.97,-48.16 235.57,-36.36 220.01,-26.9"/>
<polygon fill="#63b8ff" stroke="#63b8ff" points="222.11,-24.07 211.74,-21.87 218.47,-30.05 222.11,-24.07"/>
</a>
</g>
</g>
<!-- Node12&#45;&gt;Node10 -->
<g id="edge16_Node000012_Node000010" class="edge">
<title>Node12&#45;&gt;Node10</title>
<g id="a_edge16_Node000012_Node000010"><a xlink:title=" ">
<path fill="none" stroke="#63b8ff" d="M283.61,-56.34C283,-49.72 282.18,-40.72 281.43,-32.52"/>
<polygon fill="#63b8ff" stroke="#63b8ff" points="284.92,-32.23 280.52,-22.59 277.95,-32.86 284.92,-32.23"/>
</a>
</g>
</g>
<!-- Node12&#45;&gt;Node11 -->
<g id="edge15_Node000012_Node000011" class="edge">
<title>Node12&#45;&gt;Node11</title>
<g id="a_edge15_Node000012_Node000011"><a xlink:title=" ">
<path fill="none" stroke="#63b8ff" d="M301.13,-56.34C315.01,-48.16 335.06,-36.36 351.13,-26.9"/>
<polygon fill="#63b8ff" stroke="#63b8ff" points="352.87,-29.94 359.71,-21.85 349.32,-23.9 352.87,-29.94"/>
</a>
</g>
</g>
</g>
</svg>
