<?xml version="1.0" encoding="UTF-8" standalone="no"?>
<!DOCTYPE svg PUBLIC "-//W3C//DTD SVG 1.1//EN"
 "http://www.w3.org/Graphics/SVG/1.1/DTD/svg11.dtd">
<!-- Generated by graphviz version 12.1.2 (0)
 -->
<!-- Title: drivers/include/ds3231.h Pages: 1 -->
<svg width="401pt" height="142pt"
 viewBox="0.00 0.00 400.75 142.25" xmlns="http://www.w3.org/2000/svg" xmlns:xlink="http://www.w3.org/1999/xlink">
<g id="graph0" class="graph" transform="scale(1 1) rotate(0) translate(4 138.25)">
<title>drivers/include/ds3231.h</title>
<!-- Node1 -->
<g id="Node000001" class="node">
<title>Node1</title>
<g id="a_Node000001"><a xlink:title="Interface definition for the Maxim DS3231 RTC.">
<polygon fill="#999999" stroke="#666666" points="179,-134.25 43.75,-134.25 43.75,-113.5 179,-113.5 179,-134.25"/>
<text text-anchor="middle" x="111.38" y="-120.75" font-family="Helvetica,sans-Serif" font-size="10.00">drivers/include/ds3231.h</text>
</a>
</g>
</g>
<!-- Node2 -->
<g id="Node000002" class="node">
<title>Node2</title>
<g id="a_Node000002"><a xlink:href="errno_8h.html" target="_top" xlink:title=" ">
<polygon fill="white" stroke="#666666" points="53.62,-77.5 3.12,-77.5 3.12,-56.75 53.62,-56.75 53.62,-77.5"/>
<text text-anchor="middle" x="28.38" y="-64" font-family="Helvetica,sans-Serif" font-size="10.00">errno.h</text>
</a>
</g>
</g>
<!-- Node1&#45;&gt;Node2 -->
<g id="edge1_Node000001_Node000002" class="edge">
<title>Node1&#45;&gt;Node2</title>
<g id="a_edge1_Node000001_Node000002"><a xlink:title=" ">
<path fill="none" stroke="#63b8ff" d="M96.54,-113.09C84.26,-104.99 66.59,-93.33 52.32,-83.92"/>
<polygon fill="#63b8ff" stroke="#63b8ff" points="54.62,-81.25 44.35,-78.66 50.77,-87.09 54.62,-81.25"/>
</a>
</g>
</g>
<!-- Node3 -->
<g id="Node000003" class="node">
<title>Node3</title>
<g id="a_Node000003"><a xlink:href="drivers_2include_2periph_2gpio_8h.html" target="_top" xlink:title="Low&#45;level GPIO peripheral driver interface definitions.">
<polygon fill="white" stroke="#666666" points="151.25,-77.5 71.5,-77.5 71.5,-56.75 151.25,-56.75 151.25,-77.5"/>
<text text-anchor="middle" x="111.38" y="-64" font-family="Helvetica,sans-Serif" font-size="10.00">periph/gpio.h</text>
</a>
</g>
</g>
<!-- Node1&#45;&gt;Node3 -->
<g id="edge2_Node000001_Node000003" class="edge">
<title>Node1&#45;&gt;Node3</title>
<g id="a_edge2_Node000001_Node000003"><a xlink:title=" ">
<path fill="none" stroke="#63b8ff" d="M111.38,-113.09C111.38,-106.47 111.38,-97.47 111.38,-89.27"/>
<polygon fill="#63b8ff" stroke="#63b8ff" points="114.88,-89.34 111.38,-79.34 107.88,-89.34 114.88,-89.34"/>
</a>
</g>
</g>
<!-- Node7 -->
<g id="Node000007" class="node">
<title>Node7</title>
<g id="a_Node000007"><a xlink:href="i2c_8h.html" target="_top" xlink:title="Low&#45;level I2C peripheral driver interface definition.">
<polygon fill="white" stroke="#666666" points="243.88,-77.5 170.88,-77.5 170.88,-56.75 243.88,-56.75 243.88,-77.5"/>
<text text-anchor="middle" x="207.38" y="-64" font-family="Helvetica,sans-Serif" font-size="10.00">periph/i2c.h</text>
</a>
</g>
</g>
<!-- Node1&#45;&gt;Node7 -->
<g id="edge6_Node000001_Node000007" class="edge">
<title>Node1&#45;&gt;Node7</title>
<g id="a_edge6_Node000001_Node000007"><a xlink:title=" ">
<path fill="none" stroke="#63b8ff" d="M128.54,-113.09C143.01,-104.83 163.96,-92.88 180.63,-83.38"/>
<polygon fill="#63b8ff" stroke="#63b8ff" points="182.09,-86.57 189.05,-78.58 178.63,-80.49 182.09,-86.57"/>
</a>
</g>
</g>
<!-- Node4 -->
<g id="Node000004" class="node">
<title>Node4</title>
<g id="a_Node000004"><a xlink:title=" ">
<polygon fill="#e0e0e0" stroke="#999999" points="52.75,-20.75 0,-20.75 0,0 52.75,0 52.75,-20.75"/>
<text text-anchor="middle" x="26.38" y="-7.25" font-family="Helvetica,sans-Serif" font-size="10.00">limits.h</text>
</a>
</g>
</g>
<!-- Node3&#45;&gt;Node4 -->
<g id="edge3_Node000003_Node000004" class="edge">
<title>Node3&#45;&gt;Node4</title>
<g id="a_edge3_Node000003_Node000004"><a xlink:title=" ">
<path fill="none" stroke="#63b8ff" d="M96.18,-56.34C83.61,-48.24 65.51,-36.58 50.89,-27.17"/>
<polygon fill="#63b8ff" stroke="#63b8ff" points="53.01,-24.37 42.71,-21.9 49.22,-30.26 53.01,-24.37"/>
</a>
</g>
</g>
<!-- Node5 -->
<g id="Node000005" class="node">
<title>Node5</title>
<g id="a_Node000005"><a xlink:title=" ">
<polygon fill="#e0e0e0" stroke="#999999" points="149.5,-20.75 71.25,-20.75 71.25,0 149.5,0 149.5,-20.75"/>
<text text-anchor="middle" x="110.38" y="-7.25" font-family="Helvetica,sans-Serif" font-size="10.00">periph_cpu.h</text>
</a>
</g>
</g>
<!-- Node3&#45;&gt;Node5 -->
<g id="edge4_Node000003_Node000005" class="edge">
<title>Node3&#45;&gt;Node5</title>
<g id="a_edge4_Node000003_Node000005"><a xlink:title=" ">
<path fill="none" stroke="#63b8ff" d="M111.2,-56.34C111.08,-49.72 110.91,-40.72 110.76,-32.52"/>
<polygon fill="#63b8ff" stroke="#63b8ff" points="114.26,-32.53 110.58,-22.59 107.26,-32.65 114.26,-32.53"/>
</a>
</g>
</g>
<!-- Node6 -->
<g id="Node000006" class="node">
<title>Node6</title>
<g id="a_Node000006"><a xlink:title=" ">
<polygon fill="#e0e0e0" stroke="#999999" points="249,-20.75 167.75,-20.75 167.75,0 249,0 249,-20.75"/>
<text text-anchor="middle" x="208.38" y="-7.25" font-family="Helvetica,sans-Serif" font-size="10.00">periph_conf.h</text>
</a>
</g>
</g>
<!-- Node3&#45;&gt;Node6 -->
<g id="edge5_Node000003_Node000006" class="edge">
<title>Node3&#45;&gt;Node6</title>
<g id="a_edge5_Node000003_Node000006"><a xlink:title=" ">
<path fill="none" stroke="#63b8ff" d="M128.72,-56.34C143.34,-48.08 164.51,-36.13 181.35,-26.63"/>
<polygon fill="#63b8ff" stroke="#63b8ff" points="182.88,-29.79 189.87,-21.82 179.44,-23.69 182.88,-29.79"/>
</a>
</g>
</g>
<!-- Node7&#45;&gt;Node4 -->
<g id="edge9_Node000007_Node000004" class="edge">
<title>Node7&#45;&gt;Node4</title>
<g id="a_edge9_Node000007_Node000004"><a xlink:title=" ">
<path fill="none" stroke="#63b8ff" d="M175.02,-56.34C143.91,-46.93 96.91,-32.71 64.11,-22.79"/>
<polygon fill="#63b8ff" stroke="#63b8ff" points="65.19,-19.46 54.6,-19.91 63.16,-26.16 65.19,-19.46"/>
</a>
</g>
</g>
<!-- Node7&#45;&gt;Node5 -->
<g id="edge11_Node000007_Node000005" class="edge">
<title>Node7&#45;&gt;Node5</title>
<g id="a_edge11_Node000007_Node000005"><a xlink:title=" ">
<path fill="none" stroke="#63b8ff" d="M190.03,-56.34C175.41,-48.08 154.24,-36.13 137.4,-26.63"/>
<polygon fill="#63b8ff" stroke="#63b8ff" points="139.31,-23.69 128.88,-21.82 135.87,-29.79 139.31,-23.69"/>
</a>
</g>
</g>
<!-- Node7&#45;&gt;Node6 -->
<g id="edge10_Node000007_Node000006" class="edge">
<title>Node7&#45;&gt;Node6</title>
<g id="a_edge10_Node000007_Node000006"><a xlink:title=" ">
<path fill="none" stroke="#63b8ff" d="M207.55,-56.34C207.67,-49.72 207.84,-40.72 207.99,-32.52"/>
<polygon fill="#63b8ff" stroke="#63b8ff" points="211.49,-32.65 208.17,-22.59 204.49,-32.53 211.49,-32.65"/>
</a>
</g>
</g>
<!-- Node8 -->
<g id="Node000008" class="node">
<title>Node8</title>
<g id="a_Node000008"><a xlink:title=" ">
<polygon fill="#e0e0e0" stroke="#999999" points="392.75,-20.75 340,-20.75 340,0 392.75,0 392.75,-20.75"/>
<text text-anchor="middle" x="366.38" y="-7.25" font-family="Helvetica,sans-Serif" font-size="10.00">stdint.h</text>
</a>
</g>
</g>
<!-- Node7&#45;&gt;Node8 -->
<g id="edge7_Node000007_Node000008" class="edge">
<title>Node7&#45;&gt;Node8</title>
<g id="a_edge7_Node000007_Node000008"><a xlink:title=" ">
<path fill="none" stroke="#63b8ff" d="M235.8,-56.34C261.74,-47.4 300.27,-34.14 328.76,-24.33"/>
<polygon fill="#63b8ff" stroke="#63b8ff" points="329.77,-27.68 338.09,-21.12 327.49,-21.06 329.77,-27.68"/>
</a>
</g>
</g>
<!-- Node9 -->
<g id="Node000009" class="node">
<title>Node9</title>
<g id="a_Node000009"><a xlink:title=" ">
<polygon fill="#e0e0e0" stroke="#999999" points="321.88,-20.75 266.88,-20.75 266.88,0 321.88,0 321.88,-20.75"/>
<text text-anchor="middle" x="294.38" y="-7.25" font-family="Helvetica,sans-Serif" font-size="10.00">stddef.h</text>
</a>
</g>
</g>
<!-- Node7&#45;&gt;Node9 -->
<g id="edge8_Node000007_Node000009" class="edge">
<title>Node7&#45;&gt;Node9</title>
<g id="a_edge8_Node000007_Node000009"><a xlink:title=" ">
<path fill="none" stroke="#63b8ff" d="M222.93,-56.34C235.8,-48.24 254.32,-36.58 269.28,-27.17"/>
<polygon fill="#63b8ff" stroke="#63b8ff" points="271.08,-30.17 277.67,-21.88 267.35,-24.25 271.08,-30.17"/>
</a>
</g>
</g>
</g>
</svg>
