<?xml version="1.0" encoding="UTF-8" standalone="no"?>
<!DOCTYPE svg PUBLIC "-//W3C//DTD SVG 1.1//EN"
 "http://www.w3.org/Graphics/SVG/1.1/DTD/svg11.dtd">
<!-- Generated by graphviz version 12.1.2 (0)
 -->
<!-- Title: sys/include/net/dsm.h Pages: 1 -->
<svg width="918pt" height="426pt"
 viewBox="0.00 0.00 917.50 426.00" xmlns="http://www.w3.org/2000/svg" xmlns:xlink="http://www.w3.org/1999/xlink">
<g id="graph0" class="graph" transform="scale(1 1) rotate(0) translate(4 422)">
<title>sys/include/net/dsm.h</title>
<!-- Node1 -->
<g id="Node000001" class="node">
<title>Node1</title>
<g id="a_Node000001"><a xlink:title="DTLS session management module definition.">
<polygon fill="#999999" stroke="#666666" points="515.75,-418 393.25,-418 393.25,-397.25 515.75,-397.25 515.75,-418"/>
<text text-anchor="middle" x="454.5" y="-404.5" font-family="Helvetica,sans-Serif" font-size="10.00">sys/include/net/dsm.h</text>
</a>
</g>
</g>
<!-- Node2 -->
<g id="Node000002" class="node">
<title>Node2</title>
<g id="a_Node000002"><a xlink:title=" ">
<polygon fill="#e0e0e0" stroke="#999999" points="620.88,-20.75 568.12,-20.75 568.12,0 620.88,0 620.88,-20.75"/>
<text text-anchor="middle" x="594.5" y="-7.25" font-family="Helvetica,sans-Serif" font-size="10.00">stdint.h</text>
</a>
</g>
</g>
<!-- Node1&#45;&gt;Node2 -->
<g id="edge1_Node000001_Node000002" class="edge">
<title>Node1&#45;&gt;Node2</title>
<g id="a_edge1_Node000001_Node000002"><a xlink:title=" ">
<path fill="none" stroke="#63b8ff" d="M515.86,-404.35C640.06,-398.08 909.5,-375.24 909.5,-295.12 909.5,-295.12 909.5,-295.12 909.5,-122.88 909.5,-72.52 863.64,-76.91 817.5,-56.75 756.18,-29.96 678.39,-18.76 632.77,-14.24"/>
<polygon fill="#63b8ff" stroke="#63b8ff" points="633.12,-10.76 622.85,-13.33 632.48,-17.73 633.12,-10.76"/>
</a>
</g>
</g>
<!-- Node3 -->
<g id="Node000003" class="node">
<title>Node3</title>
<g id="a_Node000003"><a xlink:href="dtls_8h.html" target="_top" xlink:title="DTLS.">
<polygon fill="white" stroke="#666666" points="201,-361.25 158,-361.25 158,-340.5 201,-340.5 201,-361.25"/>
<text text-anchor="middle" x="179.5" y="-347.75" font-family="Helvetica,sans-Serif" font-size="10.00">dtls.h</text>
</a>
</g>
</g>
<!-- Node1&#45;&gt;Node3 -->
<g id="edge2_Node000001_Node000003" class="edge">
<title>Node1&#45;&gt;Node3</title>
<g id="a_edge2_Node000001_Node000003"><a xlink:title=" ">
<path fill="none" stroke="#63b8ff" d="M405.02,-396.77C349.28,-385.68 260.25,-367.95 212.43,-358.43"/>
<polygon fill="#63b8ff" stroke="#63b8ff" points="213.18,-355.01 202.69,-356.49 211.81,-361.88 213.18,-355.01"/>
</a>
</g>
</g>
<!-- Node5 -->
<g id="Node000005" class="node">
<title>Node5</title>
<g id="a_Node000005"><a xlink:href="sock_2dtls_8h.html" target="_top" xlink:title="DTLS sock definitions.">
<polygon fill="white" stroke="#666666" points="498.12,-361.25 410.88,-361.25 410.88,-340.5 498.12,-340.5 498.12,-361.25"/>
<text text-anchor="middle" x="454.5" y="-347.75" font-family="Helvetica,sans-Serif" font-size="10.00">net/sock/dtls.h</text>
</a>
</g>
</g>
<!-- Node1&#45;&gt;Node5 -->
<g id="edge4_Node000001_Node000005" class="edge">
<title>Node1&#45;&gt;Node5</title>
<g id="a_edge4_Node000001_Node000005"><a xlink:title=" ">
<path fill="none" stroke="#63b8ff" d="M454.5,-396.84C454.5,-390.22 454.5,-381.22 454.5,-373.02"/>
<polygon fill="#63b8ff" stroke="#63b8ff" points="458,-373.09 454.5,-363.09 451,-373.09 458,-373.09"/>
</a>
</g>
</g>
<!-- Node4 -->
<g id="Node000004" class="node">
<title>Node4</title>
<g id="a_Node000004"><a xlink:href="modules_8h.html" target="_top" xlink:title="Common macros and compiler attributes/pragmas configuration.">
<polygon fill="white" stroke="#666666" points="67,-247.75 0,-247.75 0,-227 67,-227 67,-247.75"/>
<text text-anchor="middle" x="33.5" y="-234.25" font-family="Helvetica,sans-Serif" font-size="10.00">modules.h</text>
</a>
</g>
</g>
<!-- Node3&#45;&gt;Node4 -->
<g id="edge3_Node000003_Node000004" class="edge">
<title>Node3&#45;&gt;Node4</title>
<g id="a_edge3_Node000003_Node000004"><a xlink:title=" ">
<path fill="none" stroke="#63b8ff" d="M157.82,-348.09C129.59,-344.61 80.54,-334.38 52.5,-304.5 40.99,-292.24 36.4,-273.47 34.59,-259.06"/>
<polygon fill="#63b8ff" stroke="#63b8ff" points="38.09,-258.95 33.75,-249.29 31.12,-259.56 38.09,-258.95"/>
</a>
</g>
</g>
<!-- Node5&#45;&gt;Node2 -->
<g id="edge8_Node000005_Node000002" class="edge">
<title>Node5&#45;&gt;Node2</title>
<g id="a_edge8_Node000005_Node000002"><a xlink:title=" ">
<path fill="none" stroke="#63b8ff" d="M498.34,-347.46C605.4,-340.36 871.5,-315 871.5,-238.38 871.5,-238.38 871.5,-238.38 871.5,-122.88 871.5,-71.9 708.04,-33.45 632.26,-18.35"/>
<polygon fill="#63b8ff" stroke="#63b8ff" points="633.28,-14.99 622.8,-16.51 631.94,-21.86 633.28,-14.99"/>
</a>
</g>
</g>
<!-- Node6 -->
<g id="Node000006" class="node">
<title>Node6</title>
<g id="a_Node000006"><a xlink:href="assert_8h.html" target="_top" xlink:title="POSIX.1&#45;2008 compliant version of the assert macro.">
<polygon fill="white" stroke="#666666" points="775,-247.75 720,-247.75 720,-227 775,-227 775,-247.75"/>
<text text-anchor="middle" x="747.5" y="-234.25" font-family="Helvetica,sans-Serif" font-size="10.00">assert.h</text>
</a>
</g>
</g>
<!-- Node5&#45;&gt;Node6 -->
<g id="edge5_Node000005_Node000006" class="edge">
<title>Node5&#45;&gt;Node6</title>
<g id="a_edge5_Node000005_Node000006"><a xlink:title=" ">
<path fill="none" stroke="#63b8ff" d="M480.25,-340.08C532.57,-320.17 651.43,-274.93 711.43,-252.1"/>
<polygon fill="#63b8ff" stroke="#63b8ff" points="712.4,-255.48 720.5,-248.65 709.91,-248.93 712.4,-255.48"/>
</a>
</g>
</g>
<!-- Node7 -->
<g id="Node000007" class="node">
<title>Node7</title>
<g id="a_Node000007"><a xlink:href="errno_8h.html" target="_top" xlink:title=" ">
<polygon fill="white" stroke="#666666" points="843.75,-247.75 793.25,-247.75 793.25,-227 843.75,-227 843.75,-247.75"/>
<text text-anchor="middle" x="818.5" y="-234.25" font-family="Helvetica,sans-Serif" font-size="10.00">errno.h</text>
</a>
</g>
</g>
<!-- Node5&#45;&gt;Node7 -->
<g id="edge7_Node000005_Node000007" class="edge">
<title>Node5&#45;&gt;Node7</title>
<g id="a_edge7_Node000005_Node000007"><a xlink:title=" ">
<path fill="none" stroke="#63b8ff" d="M491.07,-340.02C523.78,-331.1 572.99,-317.41 615.5,-304.5 674.18,-286.68 741.8,-264.28 782.29,-250.65"/>
<polygon fill="#63b8ff" stroke="#63b8ff" points="783.18,-254.05 791.53,-247.54 780.94,-247.42 783.18,-254.05"/>
</a>
</g>
</g>
<!-- Node8 -->
<g id="Node000008" class="node">
<title>Node8</title>
<g id="a_Node000008"><a xlink:title=" ">
<polygon fill="#e0e0e0" stroke="#999999" points="175.5,-247.75 123.5,-247.75 123.5,-227 175.5,-227 175.5,-247.75"/>
<text text-anchor="middle" x="149.5" y="-234.25" font-family="Helvetica,sans-Serif" font-size="10.00">stdlib.h</text>
</a>
</g>
</g>
<!-- Node5&#45;&gt;Node8 -->
<g id="edge9_Node000005_Node000008" class="edge">
<title>Node5&#45;&gt;Node8</title>
<g id="a_edge9_Node000005_Node000008"><a xlink:title=" ">
<path fill="none" stroke="#63b8ff" d="M423.04,-340C395.17,-331.12 353.43,-317.51 317.5,-304.5 270.69,-287.55 217.31,-266.18 183.52,-252.4"/>
<polygon fill="#63b8ff" stroke="#63b8ff" points="185.25,-249.33 174.67,-248.78 182.6,-255.81 185.25,-249.33"/>
</a>
</g>
</g>
<!-- Node9 -->
<g id="Node000009" class="node">
<title>Node9</title>
<g id="a_Node000009"><a xlink:title=" ">
<polygon fill="#e0e0e0" stroke="#999999" points="265.25,-247.75 193.75,-247.75 193.75,-227 265.25,-227 265.25,-247.75"/>
<text text-anchor="middle" x="229.5" y="-234.25" font-family="Helvetica,sans-Serif" font-size="10.00">sys/types.h</text>
</a>
</g>
</g>
<!-- Node5&#45;&gt;Node9 -->
<g id="edge10_Node000005_Node000009" class="edge">
<title>Node5&#45;&gt;Node9</title>
<g id="a_edge10_Node000005_Node000009"><a xlink:title=" ">
<path fill="none" stroke="#63b8ff" d="M434.93,-340.18C395.45,-320.61 306.07,-276.32 259.3,-253.14"/>
<polygon fill="#63b8ff" stroke="#63b8ff" points="261.06,-250.11 250.54,-248.8 257.95,-256.38 261.06,-250.11"/>
</a>
</g>
</g>
<!-- Node10 -->
<g id="Node000010" class="node">
<title>Node10</title>
<g id="a_Node000010"><a xlink:href="sock_8h.html" target="_top" xlink:title="Common sock API definitions.">
<polygon fill="white" stroke="#666666" points="349.62,-247.75 283.38,-247.75 283.38,-227 349.62,-227 349.62,-247.75"/>
<text text-anchor="middle" x="316.5" y="-234.25" font-family="Helvetica,sans-Serif" font-size="10.00">net/sock.h</text>
</a>
</g>
</g>
<!-- Node5&#45;&gt;Node10 -->
<g id="edge11_Node000005_Node000010" class="edge">
<title>Node5&#45;&gt;Node10</title>
<g id="a_edge11_Node000005_Node000010"><a xlink:title=" ">
<path fill="none" stroke="#63b8ff" d="M442.73,-340.37C419.33,-321.46 366.65,-278.89 337.28,-255.16"/>
<polygon fill="#63b8ff" stroke="#63b8ff" points="339.78,-252.69 329.81,-249.13 335.39,-258.13 339.78,-252.69"/>
</a>
</g>
</g>
<!-- Node13 -->
<g id="Node000013" class="node">
<title>Node13</title>
<g id="a_Node000013"><a xlink:href="sock_2udp_8h.html" target="_top" xlink:title="UDP sock definitions.">
<polygon fill="white" stroke="#666666" points="545.12,-304.5 457.88,-304.5 457.88,-283.75 545.12,-283.75 545.12,-304.5"/>
<text text-anchor="middle" x="501.5" y="-291" font-family="Helvetica,sans-Serif" font-size="10.00">net/sock/udp.h</text>
</a>
</g>
</g>
<!-- Node5&#45;&gt;Node13 -->
<g id="edge15_Node000005_Node000013" class="edge">
<title>Node5&#45;&gt;Node13</title>
<g id="a_edge15_Node000005_Node000013"><a xlink:title=" ">
<path fill="none" stroke="#63b8ff" d="M462.9,-340.09C469.25,-332.69 478.15,-322.32 485.8,-313.41"/>
<polygon fill="#63b8ff" stroke="#63b8ff" points="488.33,-315.84 492.18,-305.98 483.01,-311.28 488.33,-315.84"/>
</a>
</g>
</g>
<!-- Node23 -->
<g id="Node000023" class="node">
<title>Node23</title>
<g id="a_Node000023"><a xlink:href="credman_8h.html" target="_top" xlink:title="(D)TLS credentials management module definitions">
<polygon fill="white" stroke="#666666" points="147.75,-304.5 61.25,-304.5 61.25,-283.75 147.75,-283.75 147.75,-304.5"/>
<text text-anchor="middle" x="104.5" y="-291" font-family="Helvetica,sans-Serif" font-size="10.00">net/credman.h</text>
</a>
</g>
</g>
<!-- Node5&#45;&gt;Node23 -->
<g id="edge40_Node000005_Node000023" class="edge">
<title>Node5&#45;&gt;Node23</title>
<g id="a_edge40_Node000005_Node000023"><a xlink:title=" ">
<path fill="none" stroke="#63b8ff" d="M410.53,-343C346.7,-333.01 228.46,-314.52 159.13,-303.67"/>
<polygon fill="#63b8ff" stroke="#63b8ff" points="159.94,-300.25 149.51,-302.17 158.85,-307.17 159.94,-300.25"/>
</a>
</g>
</g>
<!-- Node6&#45;&gt;Node2 -->
<g id="edge6_Node000006_Node000002" class="edge">
<title>Node6&#45;&gt;Node2</title>
<g id="a_edge6_Node000006_Node000002"><a xlink:title=" ">
<path fill="none" stroke="#63b8ff" d="M748.11,-226.86C749.45,-197.69 749.56,-108.41 705.5,-56.75 686.96,-35.01 656.39,-23.54 632.02,-17.57"/>
<polygon fill="#63b8ff" stroke="#63b8ff" points="632.98,-14.2 622.46,-15.46 631.47,-21.04 632.98,-14.2"/>
</a>
</g>
</g>
<!-- Node10&#45;&gt;Node2 -->
<g id="edge12_Node000010_Node000002" class="edge">
<title>Node10&#45;&gt;Node2</title>
<g id="a_edge12_Node000010_Node000002"><a xlink:title=" ">
<path fill="none" stroke="#63b8ff" d="M314.31,-226.52C310.02,-205.29 301.97,-153.84 314.5,-113.5 323.57,-84.27 327.86,-73.46 353.5,-56.75 386.46,-35.28 497.39,-21.16 556.56,-14.97"/>
<polygon fill="#63b8ff" stroke="#63b8ff" points="556.92,-18.45 566.51,-13.96 556.21,-11.49 556.92,-18.45"/>
</a>
</g>
</g>
<!-- Node11 -->
<g id="Node000011" class="node">
<title>Node11</title>
<g id="a_Node000011"><a xlink:title=" ">
<polygon fill="#e0e0e0" stroke="#999999" points="378,-134.25 323,-134.25 323,-113.5 378,-113.5 378,-134.25"/>
<text text-anchor="middle" x="350.5" y="-120.75" font-family="Helvetica,sans-Serif" font-size="10.00">stddef.h</text>
</a>
</g>
</g>
<!-- Node10&#45;&gt;Node11 -->
<g id="edge13_Node000010_Node000011" class="edge">
<title>Node10&#45;&gt;Node11</title>
<g id="a_edge13_Node000010_Node000011"><a xlink:title=" ">
<path fill="none" stroke="#63b8ff" d="M319.46,-226.51C323.35,-213.58 330.4,-190.21 336.5,-170.25 338.97,-162.18 341.7,-153.31 344.09,-145.56"/>
<polygon fill="#63b8ff" stroke="#63b8ff" points="347.42,-146.64 347.03,-136.05 340.73,-144.57 347.42,-146.64"/>
</a>
</g>
</g>
<!-- Node12 -->
<g id="Node000012" class="node">
<title>Node12</title>
<g id="a_Node000012"><a xlink:href="iolist_8h.html" target="_top" xlink:title="iolist scatter / gather IO">
<polygon fill="white" stroke="#666666" points="394,-191 345,-191 345,-170.25 394,-170.25 394,-191"/>
<text text-anchor="middle" x="369.5" y="-177.5" font-family="Helvetica,sans-Serif" font-size="10.00">iolist.h</text>
</a>
</g>
</g>
<!-- Node10&#45;&gt;Node12 -->
<g id="edge14_Node000010_Node000012" class="edge">
<title>Node10&#45;&gt;Node12</title>
<g id="a_edge14_Node000010_Node000012"><a xlink:title=" ">
<path fill="none" stroke="#63b8ff" d="M325.98,-226.59C333.29,-219.03 343.59,-208.39 352.34,-199.35"/>
<polygon fill="#63b8ff" stroke="#63b8ff" points="354.61,-202.04 359.05,-192.42 349.58,-197.17 354.61,-202.04"/>
</a>
</g>
</g>
<!-- Node13&#45;&gt;Node2 -->
<g id="edge18_Node000013_Node000002" class="edge">
<title>Node13&#45;&gt;Node2</title>
<g id="a_edge18_Node000013_Node000002"><a xlink:title=" ">
<path fill="none" stroke="#63b8ff" d="M545.57,-286.99C601.7,-276.4 691.5,-248.94 691.5,-181.62 691.5,-181.62 691.5,-181.62 691.5,-122.88 691.5,-80.19 650.53,-45.89 621.84,-27.11"/>
<polygon fill="#63b8ff" stroke="#63b8ff" points="623.91,-24.27 613.57,-21.93 620.19,-30.2 623.91,-24.27"/>
</a>
</g>
</g>
<!-- Node13&#45;&gt;Node6 -->
<g id="edge16_Node000013_Node000006" class="edge">
<title>Node13&#45;&gt;Node6</title>
<g id="a_edge16_Node000013_Node000006"><a xlink:title=" ">
<path fill="none" stroke="#63b8ff" d="M545.28,-283.4C586.59,-274.22 650.25,-260.06 705.5,-247.75 706.67,-247.49 707.85,-247.23 709.05,-246.96"/>
<polygon fill="#63b8ff" stroke="#63b8ff" points="709.46,-250.45 718.46,-244.86 707.94,-243.62 709.46,-250.45"/>
</a>
</g>
</g>
<!-- Node13&#45;&gt;Node7 -->
<g id="edge17_Node000013_Node000007" class="edge">
<title>Node13&#45;&gt;Node7</title>
<g id="a_edge17_Node000013_Node000007"><a xlink:title=" ">
<path fill="none" stroke="#63b8ff" d="M545.41,-287.61C599.05,-280.54 692.74,-267.11 781.83,-248.15"/>
<polygon fill="#63b8ff" stroke="#63b8ff" points="782.44,-251.6 791.48,-246.06 780.96,-244.75 782.44,-251.6"/>
</a>
</g>
</g>
<!-- Node13&#45;&gt;Node8 -->
<g id="edge19_Node000013_Node000008" class="edge">
<title>Node13&#45;&gt;Node8</title>
<g id="a_edge19_Node000013_Node000008"><a xlink:title=" ">
<path fill="none" stroke="#63b8ff" d="M457.63,-288.53C398.35,-281.94 289.2,-268.53 186.94,-248.05"/>
<polygon fill="#63b8ff" stroke="#63b8ff" points="187.77,-244.64 177.28,-246.08 186.38,-251.5 187.77,-244.64"/>
</a>
</g>
</g>
<!-- Node13&#45;&gt;Node9 -->
<g id="edge20_Node000013_Node000009" class="edge">
<title>Node13&#45;&gt;Node9</title>
<g id="a_edge20_Node000013_Node000009"><a xlink:title=" ">
<path fill="none" stroke="#63b8ff" d="M457.54,-284.45C414.12,-275.85 345.51,-262.2 276.44,-248.13"/>
<polygon fill="#63b8ff" stroke="#63b8ff" points="277.34,-244.74 266.84,-246.17 275.94,-251.6 277.34,-244.74"/>
</a>
</g>
</g>
<!-- Node13&#45;&gt;Node10 -->
<g id="edge22_Node000013_Node000010" class="edge">
<title>Node13&#45;&gt;Node10</title>
<g id="a_edge22_Node000013_Node000010"><a xlink:title=" ">
<path fill="none" stroke="#63b8ff" d="M468.43,-283.34C438.27,-274.41 393.49,-261.16 360.35,-251.35"/>
<polygon fill="#63b8ff" stroke="#63b8ff" points="361.63,-248.08 351.05,-248.6 359.65,-254.79 361.63,-248.08"/>
</a>
</g>
</g>
<!-- Node14 -->
<g id="Node000014" class="node">
<title>Node14</title>
<g id="a_Node000014"><a xlink:href="af_8h.html" target="_top" xlink:title="Global UNIX address family definitions.">
<polygon fill="white" stroke="#666666" points="527.88,-247.75 475.12,-247.75 475.12,-227 527.88,-227 527.88,-247.75"/>
<text text-anchor="middle" x="501.5" y="-234.25" font-family="Helvetica,sans-Serif" font-size="10.00">net/af.h</text>
</a>
</g>
</g>
<!-- Node13&#45;&gt;Node14 -->
<g id="edge21_Node000013_Node000014" class="edge">
<title>Node13&#45;&gt;Node14</title>
<g id="a_edge21_Node000013_Node000014"><a xlink:title=" ">
<path fill="none" stroke="#63b8ff" d="M501.5,-283.34C501.5,-276.72 501.5,-267.72 501.5,-259.52"/>
<polygon fill="#63b8ff" stroke="#63b8ff" points="505,-259.59 501.5,-249.59 498,-259.59 505,-259.59"/>
</a>
</g>
</g>
<!-- Node15 -->
<g id="Node000015" class="node">
<title>Node15</title>
<g id="a_Node000015"><a xlink:href="ipv4_2addr_8h.html" target="_top" xlink:title="IPv4 address type and helper functions definitions.">
<polygon fill="white" stroke="#666666" points="578.25,-191 488.75,-191 488.75,-170.25 578.25,-170.25 578.25,-191"/>
<text text-anchor="middle" x="533.5" y="-177.5" font-family="Helvetica,sans-Serif" font-size="10.00">net/ipv4/addr.h</text>
</a>
</g>
</g>
<!-- Node13&#45;&gt;Node15 -->
<g id="edge23_Node000013_Node000015" class="edge">
<title>Node13&#45;&gt;Node15</title>
<g id="a_edge23_Node000013_Node000015"><a xlink:title=" ">
<path fill="none" stroke="#63b8ff" d="M545.46,-290.86C575.9,-286.73 614.41,-275.83 634.5,-247.75 651.89,-223.45 618.58,-205.71 585.65,-194.75"/>
<polygon fill="#63b8ff" stroke="#63b8ff" points="587.08,-191.53 576.49,-191.89 584.99,-198.21 587.08,-191.53"/>
</a>
</g>
</g>
<!-- Node21 -->
<g id="Node000021" class="node">
<title>Node21</title>
<g id="a_Node000021"><a xlink:href="ipv6_2addr_8h.html" target="_top" xlink:title="Definitions for IPv6 addresses.">
<polygon fill="white" stroke="#666666" points="457.25,-247.75 367.75,-247.75 367.75,-227 457.25,-227 457.25,-247.75"/>
<text text-anchor="middle" x="412.5" y="-234.25" font-family="Helvetica,sans-Serif" font-size="10.00">net/ipv6/addr.h</text>
</a>
</g>
</g>
<!-- Node13&#45;&gt;Node21 -->
<g id="edge34_Node000013_Node000021" class="edge">
<title>Node13&#45;&gt;Node21</title>
<g id="a_edge34_Node000013_Node000021"><a xlink:title=" ">
<path fill="none" stroke="#63b8ff" d="M485.59,-283.34C472.3,-275.16 453.11,-263.36 437.73,-253.9"/>
<polygon fill="#63b8ff" stroke="#63b8ff" points="439.91,-251.13 429.56,-248.87 436.25,-257.09 439.91,-251.13"/>
</a>
</g>
</g>
<!-- Node22 -->
<g id="Node000022" class="node">
<title>Node22</title>
<g id="a_Node000022"><a xlink:title=" ">
<polygon fill="#e0e0e0" stroke="#999999" points="625.38,-247.75 545.62,-247.75 545.62,-227 625.38,-227 625.38,-247.75"/>
<text text-anchor="middle" x="585.5" y="-234.25" font-family="Helvetica,sans-Serif" font-size="10.00">sock_types.h</text>
</a>
</g>
</g>
<!-- Node13&#45;&gt;Node22 -->
<g id="edge39_Node000013_Node000022" class="edge">
<title>Node13&#45;&gt;Node22</title>
<g id="a_edge39_Node000013_Node000022"><a xlink:title=" ">
<path fill="none" stroke="#63b8ff" d="M516.52,-283.34C528.94,-275.24 546.82,-263.58 561.27,-254.17"/>
<polygon fill="#63b8ff" stroke="#63b8ff" points="562.88,-257.3 569.34,-248.9 559.06,-251.43 562.88,-257.3"/>
</a>
</g>
</g>
<!-- Node15&#45;&gt;Node2 -->
<g id="edge25_Node000015_Node000002" class="edge">
<title>Node15&#45;&gt;Node2</title>
<g id="a_edge25_Node000015_Node000002"><a xlink:title=" ">
<path fill="none" stroke="#63b8ff" d="M548.31,-169.89C571.13,-153.86 613.89,-119.46 629.5,-77.5 635.9,-60.29 624.56,-41.92 613.12,-28.92"/>
<polygon fill="#63b8ff" stroke="#63b8ff" points="615.89,-26.76 606.44,-21.96 610.83,-31.6 615.89,-26.76"/>
</a>
</g>
</g>
<!-- Node15&#45;&gt;Node11 -->
<g id="edge26_Node000015_Node000011" class="edge">
<title>Node15&#45;&gt;Node11</title>
<g id="a_edge26_Node000015_Node000011"><a xlink:title=" ">
<path fill="none" stroke="#63b8ff" d="M500.78,-169.84C469.47,-160.47 422.23,-146.34 389.1,-136.42"/>
<polygon fill="#63b8ff" stroke="#63b8ff" points="390.48,-133.18 379.89,-133.67 388.47,-139.89 390.48,-133.18"/>
</a>
</g>
</g>
<!-- Node16 -->
<g id="Node000016" class="node">
<title>Node16</title>
<g id="a_Node000016"><a xlink:title=" ">
<polygon fill="#e0e0e0" stroke="#999999" points="571,-134.25 510,-134.25 510,-113.5 571,-113.5 571,-134.25"/>
<text text-anchor="middle" x="540.5" y="-120.75" font-family="Helvetica,sans-Serif" font-size="10.00">stdbool.h</text>
</a>
</g>
</g>
<!-- Node15&#45;&gt;Node16 -->
<g id="edge24_Node000015_Node000016" class="edge">
<title>Node15&#45;&gt;Node16</title>
<g id="a_edge24_Node000015_Node000016"><a xlink:title=" ">
<path fill="none" stroke="#63b8ff" d="M534.75,-169.84C535.61,-163.14 536.77,-154.01 537.83,-145.73"/>
<polygon fill="#63b8ff" stroke="#63b8ff" points="541.27,-146.44 539.07,-136.08 534.33,-145.56 541.27,-146.44"/>
</a>
</g>
</g>
<!-- Node17 -->
<g id="Node000017" class="node">
<title>Node17</title>
<g id="a_Node000017"><a xlink:href="byteorder_8h.html" target="_top" xlink:title="Functions to work with different byte orders.">
<polygon fill="white" stroke="#666666" points="491.62,-134.25 419.38,-134.25 419.38,-113.5 491.62,-113.5 491.62,-134.25"/>
<text text-anchor="middle" x="455.5" y="-120.75" font-family="Helvetica,sans-Serif" font-size="10.00">byteorder.h</text>
</a>
</g>
</g>
<!-- Node15&#45;&gt;Node17 -->
<g id="edge27_Node000015_Node000017" class="edge">
<title>Node15&#45;&gt;Node17</title>
<g id="a_edge27_Node000015_Node000017"><a xlink:title=" ">
<path fill="none" stroke="#63b8ff" d="M519.56,-169.84C508.13,-161.82 491.73,-150.31 478.39,-140.94"/>
<polygon fill="#63b8ff" stroke="#63b8ff" points="480.76,-138.33 470.56,-135.45 476.74,-144.06 480.76,-138.33"/>
</a>
</g>
</g>
<!-- Node17&#45;&gt;Node2 -->
<g id="edge29_Node000017_Node000002" class="edge">
<title>Node17&#45;&gt;Node2</title>
<g id="a_edge29_Node000017_Node000002"><a xlink:title=" ">
<path fill="none" stroke="#63b8ff" d="M470.85,-113.16C484.5,-104.33 504.81,-90.7 521.5,-77.5 541.05,-62.04 562,-42.75 576.42,-29"/>
<polygon fill="#63b8ff" stroke="#63b8ff" points="578.62,-31.75 583.39,-22.29 573.76,-26.7 578.62,-31.75"/>
</a>
</g>
</g>
<!-- Node18 -->
<g id="Node000018" class="node">
<title>Node18</title>
<g id="a_Node000018"><a xlink:title=" ">
<polygon fill="#e0e0e0" stroke="#999999" points="620.88,-77.5 568.12,-77.5 568.12,-56.75 620.88,-56.75 620.88,-77.5"/>
<text text-anchor="middle" x="594.5" y="-64" font-family="Helvetica,sans-Serif" font-size="10.00">string.h</text>
</a>
</g>
</g>
<!-- Node17&#45;&gt;Node18 -->
<g id="edge28_Node000017_Node000018" class="edge">
<title>Node17&#45;&gt;Node18</title>
<g id="a_edge28_Node000017_Node000018"><a xlink:title=" ">
<path fill="none" stroke="#63b8ff" d="M480.35,-113.09C502.39,-104.41 534.82,-91.63 559.48,-81.92"/>
<polygon fill="#63b8ff" stroke="#63b8ff" points="560.43,-85.3 568.46,-78.38 557.87,-78.79 560.43,-85.3"/>
</a>
</g>
</g>
<!-- Node19 -->
<g id="Node000019" class="node">
<title>Node19</title>
<g id="a_Node000019"><a xlink:href="endian_8h.html" target="_top" xlink:title="libc header for endian conversion">
<polygon fill="white" stroke="#666666" points="420.5,-77.5 362.5,-77.5 362.5,-56.75 420.5,-56.75 420.5,-77.5"/>
<text text-anchor="middle" x="391.5" y="-64" font-family="Helvetica,sans-Serif" font-size="10.00">endian.h</text>
</a>
</g>
</g>
<!-- Node17&#45;&gt;Node19 -->
<g id="edge30_Node000017_Node000019" class="edge">
<title>Node17&#45;&gt;Node19</title>
<g id="a_edge30_Node000017_Node000019"><a xlink:title=" ">
<path fill="none" stroke="#63b8ff" d="M444.06,-113.09C435.05,-105.38 422.27,-94.45 411.57,-85.29"/>
<polygon fill="#63b8ff" stroke="#63b8ff" points="413.87,-82.65 403.99,-78.81 409.32,-87.97 413.87,-82.65"/>
</a>
</g>
</g>
<!-- Node20 -->
<g id="Node000020" class="node">
<title>Node20</title>
<g id="a_Node000020"><a xlink:href="unaligned_8h.html" target="_top" xlink:title="Unaligned but safe memory access functions.">
<polygon fill="white" stroke="#666666" points="512,-77.5 439,-77.5 439,-56.75 512,-56.75 512,-77.5"/>
<text text-anchor="middle" x="475.5" y="-64" font-family="Helvetica,sans-Serif" font-size="10.00">unaligned.h</text>
</a>
</g>
</g>
<!-- Node17&#45;&gt;Node20 -->
<g id="edge32_Node000017_Node000020" class="edge">
<title>Node17&#45;&gt;Node20</title>
<g id="a_edge32_Node000017_Node000020"><a xlink:title=" ">
<path fill="none" stroke="#63b8ff" d="M459.08,-113.09C461.58,-106.24 465.01,-96.84 468.09,-88.4"/>
<polygon fill="#63b8ff" stroke="#63b8ff" points="471.29,-89.84 471.44,-79.25 464.72,-87.44 471.29,-89.84"/>
</a>
</g>
</g>
<!-- Node19&#45;&gt;Node2 -->
<g id="edge31_Node000019_Node000002" class="edge">
<title>Node19&#45;&gt;Node2</title>
<g id="a_edge31_Node000019_Node000002"><a xlink:title=" ">
<path fill="none" stroke="#63b8ff" d="M420.58,-58.28C456.41,-48.62 517.34,-32.19 556.74,-21.56"/>
<polygon fill="#63b8ff" stroke="#63b8ff" points="557.53,-24.97 566.27,-18.99 555.71,-18.21 557.53,-24.97"/>
</a>
</g>
</g>
<!-- Node20&#45;&gt;Node2 -->
<g id="edge33_Node000020_Node000002" class="edge">
<title>Node20&#45;&gt;Node2</title>
<g id="a_edge33_Node000020_Node000002"><a xlink:title=" ">
<path fill="none" stroke="#63b8ff" d="M496.77,-56.34C515.22,-47.85 542.16,-35.45 563.09,-25.83"/>
<polygon fill="#63b8ff" stroke="#63b8ff" points="564.41,-29.07 572.03,-21.71 561.49,-22.71 564.41,-29.07"/>
</a>
</g>
</g>
<!-- Node21&#45;&gt;Node15 -->
<g id="edge38_Node000021_Node000015" class="edge">
<title>Node21&#45;&gt;Node15</title>
<g id="a_edge38_Node000021_Node000015"><a xlink:title=" ">
<path fill="none" stroke="#63b8ff" d="M434.13,-226.59C452.97,-218.06 480.54,-205.59 501.86,-195.94"/>
<polygon fill="#63b8ff" stroke="#63b8ff" points="503.01,-199.26 510.68,-191.95 500.12,-192.89 503.01,-199.26"/>
</a>
</g>
</g>
<!-- Node21&#45;&gt;Node16 -->
<g id="edge35_Node000021_Node000016" class="edge">
<title>Node21&#45;&gt;Node16</title>
<g id="a_edge35_Node000021_Node000016"><a xlink:title=" ">
<path fill="none" stroke="#63b8ff" d="M421.64,-226.53C434.19,-213.21 457.67,-188.98 479.5,-170.25 491.55,-159.91 505.75,-149.27 517.41,-140.89"/>
<polygon fill="#63b8ff" stroke="#63b8ff" points="519.14,-143.95 525.28,-135.32 515.09,-138.24 519.14,-143.95"/>
</a>
</g>
</g>
<!-- Node21&#45;&gt;Node17 -->
<g id="edge37_Node000021_Node000017" class="edge">
<title>Node21&#45;&gt;Node17</title>
<g id="a_edge37_Node000021_Node000017"><a xlink:title=" ">
<path fill="none" stroke="#63b8ff" d="M416.17,-226.87C423.11,-208.86 438.33,-169.39 447.67,-145.18"/>
<polygon fill="#63b8ff" stroke="#63b8ff" points="450.84,-146.68 451.18,-136.09 444.31,-144.16 450.84,-146.68"/>
</a>
</g>
</g>
<!-- Node21&#45;&gt;Node18 -->
<g id="edge36_Node000021_Node000018" class="edge">
<title>Node21&#45;&gt;Node18</title>
<g id="a_edge36_Node000021_Node000018"><a xlink:title=" ">
<path fill="none" stroke="#63b8ff" d="M457.36,-227.59C506.39,-217.55 579.14,-201.19 587.5,-191 611.13,-162.19 605.82,-115.62 600.03,-88.85"/>
<polygon fill="#63b8ff" stroke="#63b8ff" points="603.45,-88.14 597.71,-79.24 596.65,-89.78 603.45,-88.14"/>
</a>
</g>
</g>
<!-- Node23&#45;&gt;Node2 -->
<g id="edge41_Node000023_Node000002" class="edge">
<title>Node23&#45;&gt;Node2</title>
<g id="a_edge41_Node000023_Node000002"><a xlink:title=" ">
<path fill="none" stroke="#63b8ff" d="M103.17,-283.3C100.67,-263.91 95.5,-219.3 95.5,-181.62 95.5,-181.62 95.5,-181.62 95.5,-122.88 95.5,-28.47 439.96,-13.97 556.49,-11.76"/>
<polygon fill="#63b8ff" stroke="#63b8ff" points="556.22,-15.27 566.16,-11.6 556.1,-8.27 556.22,-15.27"/>
</a>
</g>
</g>
<!-- Node23&#45;&gt;Node4 -->
<g id="edge42_Node000023_Node000004" class="edge">
<title>Node23&#45;&gt;Node4</title>
<g id="a_edge42_Node000023_Node000004"><a xlink:title=" ">
<path fill="none" stroke="#63b8ff" d="M91.81,-283.34C81.61,-275.47 67.06,-264.25 55.04,-254.99"/>
<polygon fill="#63b8ff" stroke="#63b8ff" points="57.34,-252.34 47.28,-249 53.06,-257.88 57.34,-252.34"/>
</a>
</g>
</g>
</g>
</svg>
