<?xml version="1.0" encoding="UTF-8" standalone="no"?>
<!DOCTYPE svg PUBLIC "-//W3C//DTD SVG 1.1//EN"
 "http://www.w3.org/Graphics/SVG/1.1/DTD/svg11.dtd">
<!-- Generated by graphviz version 12.1.2 (0)
 -->
<!-- Title: pkg/opendsme/include/opendsme/dsme_settings.h Pages: 1 -->
<svg width="712pt" height="382pt"
 viewBox="0.00 0.00 712.38 382.00" xmlns="http://www.w3.org/2000/svg" xmlns:xlink="http://www.w3.org/1999/xlink">
<g id="graph0" class="graph" transform="scale(1 1) rotate(0) translate(4 378)">
<title>pkg/opendsme/include/opendsme/dsme_settings.h</title>
<!-- Node1 -->
<g id="Node000001" class="node">
<title>Node1</title>
<g id="a_Node000001"><a xlink:title=" ">
<polygon fill="#999999" stroke="#666666" points="555,-374 401.75,-374 401.75,-340.5 555,-340.5 555,-374"/>
<text text-anchor="start" x="409.75" y="-360.5" font-family="Helvetica,sans-Serif" font-size="10.00">pkg/opendsme/include</text>
<text text-anchor="middle" x="478.38" y="-347.75" font-family="Helvetica,sans-Serif" font-size="10.00">/opendsme/dsme_settings.h</text>
</a>
</g>
</g>
<!-- Node2 -->
<g id="Node000002" class="node">
<title>Node2</title>
<g id="a_Node000002"><a xlink:title=" ">
<polygon fill="#e0e0e0" stroke="#999999" points="445.75,-20.75 393,-20.75 393,0 445.75,0 445.75,-20.75"/>
<text text-anchor="middle" x="419.38" y="-7.25" font-family="Helvetica,sans-Serif" font-size="10.00">stdint.h</text>
</a>
</g>
</g>
<!-- Node1&#45;&gt;Node2 -->
<g id="edge1_Node000001_Node000002" class="edge">
<title>Node1&#45;&gt;Node2</title>
<g id="a_edge1_Node000001_Node000002"><a xlink:title=" ">
<path fill="none" stroke="#63b8ff" d="M555.2,-347.89C620.72,-335.99 704.38,-307.3 704.38,-238.38 704.38,-238.38 704.38,-238.38 704.38,-122.88 704.38,-89.2 694.77,-76.34 667.38,-56.75 634.25,-33.06 518.23,-19.83 457.34,-14.38"/>
<polygon fill="#63b8ff" stroke="#63b8ff" points="457.71,-10.9 447.45,-13.52 457.11,-17.87 457.71,-10.9"/>
</a>
</g>
</g>
<!-- Node3 -->
<g id="Node000003" class="node">
<title>Node3</title>
<g id="a_Node000003"><a xlink:href="stdio_8h.html" target="_top" xlink:title="stdio wrapper to extend the C libs stdio">
<polygon fill="white" stroke="#666666" points="377.88,-304.5 328.88,-304.5 328.88,-283.75 377.88,-283.75 377.88,-304.5"/>
<text text-anchor="middle" x="353.38" y="-291" font-family="Helvetica,sans-Serif" font-size="10.00">stdio.h</text>
</a>
</g>
</g>
<!-- Node1&#45;&gt;Node3 -->
<g id="edge2_Node000001_Node000003" class="edge">
<title>Node1&#45;&gt;Node3</title>
<g id="a_edge2_Node000001_Node000003"><a xlink:title=" ">
<path fill="none" stroke="#63b8ff" d="M445.21,-340.03C426.1,-330.69 402.26,-319.03 383.67,-309.94"/>
<polygon fill="#63b8ff" stroke="#63b8ff" points="385.28,-306.83 374.76,-305.58 382.2,-313.12 385.28,-306.83"/>
</a>
</g>
</g>
<!-- Node7 -->
<g id="Node000007" class="node">
<title>Node7</title>
<g id="a_Node000007"><a xlink:href="kernel__defines_8h.html" target="_top" xlink:title="Common macros and compiler attributes/pragmas configuration.">
<polygon fill="white" stroke="#666666" points="360.5,-191 264.25,-191 264.25,-170.25 360.5,-170.25 360.5,-191"/>
<text text-anchor="middle" x="312.38" y="-177.5" font-family="Helvetica,sans-Serif" font-size="10.00">kernel_defines.h</text>
</a>
</g>
</g>
<!-- Node1&#45;&gt;Node7 -->
<g id="edge18_Node000001_Node000007" class="edge">
<title>Node1&#45;&gt;Node7</title>
<g id="a_edge18_Node000001_Node000007"><a xlink:title=" ">
<path fill="none" stroke="#63b8ff" d="M472.05,-340.01C461.02,-313.44 435.98,-260.3 400.38,-227 386.27,-213.8 367.59,-203.45 351.07,-195.99"/>
<polygon fill="#63b8ff" stroke="#63b8ff" points="352.55,-192.82 341.98,-192.09 349.8,-199.25 352.55,-192.82"/>
</a>
</g>
</g>
<!-- Node14 -->
<g id="Node000014" class="node">
<title>Node14</title>
<g id="a_Node000014"><a xlink:href="sys_2include_2net_2ieee802154_8h.html" target="_top" xlink:title="IEEE 802.15.4 header definitions.">
<polygon fill="white" stroke="#666666" points="577.75,-247.75 477,-247.75 477,-227 577.75,-227 577.75,-247.75"/>
<text text-anchor="middle" x="527.38" y="-234.25" font-family="Helvetica,sans-Serif" font-size="10.00">net/ieee802154.h</text>
</a>
</g>
</g>
<!-- Node1&#45;&gt;Node14 -->
<g id="edge19_Node000001_Node000014" class="edge">
<title>Node1&#45;&gt;Node14</title>
<g id="a_edge19_Node000001_Node000014"><a xlink:title=" ">
<path fill="none" stroke="#63b8ff" d="M484.98,-340.35C493.79,-319.17 509.37,-281.68 518.99,-258.54"/>
<polygon fill="#63b8ff" stroke="#63b8ff" points="522.11,-260.16 522.72,-249.58 515.65,-257.47 522.11,-260.16"/>
</a>
</g>
</g>
<!-- Node4 -->
<g id="Node000004" class="node">
<title>Node4</title>
<g id="a_Node000004"><a xlink:href="flash__utils_8h.html" target="_top" xlink:title="Utility functions, macros, and types for read&#45;only memory.">
<polygon fill="white" stroke="#666666" points="391,-247.75 315.75,-247.75 315.75,-227 391,-227 391,-247.75"/>
<text text-anchor="middle" x="353.38" y="-234.25" font-family="Helvetica,sans-Serif" font-size="10.00">flash_utils.h</text>
</a>
</g>
</g>
<!-- Node3&#45;&gt;Node4 -->
<g id="edge3_Node000003_Node000004" class="edge">
<title>Node3&#45;&gt;Node4</title>
<g id="a_edge3_Node000003_Node000004"><a xlink:title=" ">
<path fill="none" stroke="#63b8ff" d="M348.06,-283.34C346.79,-276.72 346.36,-267.72 346.78,-259.52"/>
<polygon fill="#63b8ff" stroke="#63b8ff" points="350.26,-259.91 347.91,-249.58 343.3,-259.13 350.26,-259.91"/>
</a>
</g>
</g>
<!-- Node4&#45;&gt;Node3 -->
<g id="edge4_Node000004_Node000003" class="edge">
<title>Node4&#45;&gt;Node3</title>
<g id="a_edge4_Node000004_Node000003"><a xlink:title=" ">
<path fill="none" stroke="#63b8ff" d="M358.67,-248.08C359.97,-254.75 360.4,-263.88 359.96,-272.17"/>
<polygon fill="#63b8ff" stroke="#63b8ff" points="356.51,-271.5 358.86,-281.83 363.47,-272.29 356.51,-271.5"/>
</a>
</g>
</g>
<!-- Node5 -->
<g id="Node000005" class="node">
<title>Node5</title>
<g id="a_Node000005"><a xlink:title=" ">
<polygon fill="#e0e0e0" stroke="#999999" points="432.75,-77.5 380,-77.5 380,-56.75 432.75,-56.75 432.75,-77.5"/>
<text text-anchor="middle" x="406.38" y="-64" font-family="Helvetica,sans-Serif" font-size="10.00">string.h</text>
</a>
</g>
</g>
<!-- Node4&#45;&gt;Node5 -->
<g id="edge5_Node000004_Node000005" class="edge">
<title>Node4&#45;&gt;Node5</title>
<g id="a_edge5_Node000004_Node000005"><a xlink:title=" ">
<path fill="none" stroke="#63b8ff" d="M356.94,-226.68C360.27,-217.53 365.33,-203.39 369.38,-191 381.09,-155.13 393.5,-112.93 400.56,-88.49"/>
<polygon fill="#63b8ff" stroke="#63b8ff" points="403.83,-89.76 403.23,-79.19 397.11,-87.83 403.83,-89.76"/>
</a>
</g>
</g>
<!-- Node6 -->
<g id="Node000006" class="node">
<title>Node6</title>
<g id="a_Node000006"><a xlink:title=" ">
<polygon fill="#e0e0e0" stroke="#999999" points="246.25,-191 178.5,-191 178.5,-170.25 246.25,-170.25 246.25,-191"/>
<text text-anchor="middle" x="212.38" y="-177.5" font-family="Helvetica,sans-Serif" font-size="10.00">cpu_conf.h</text>
</a>
</g>
</g>
<!-- Node4&#45;&gt;Node6 -->
<g id="edge6_Node000004_Node000006" class="edge">
<title>Node4&#45;&gt;Node6</title>
<g id="a_edge6_Node000004_Node000006"><a xlink:title=" ">
<path fill="none" stroke="#63b8ff" d="M328.17,-226.59C305.81,-217.91 272.92,-205.13 247.9,-195.42"/>
<polygon fill="#63b8ff" stroke="#63b8ff" points="249.36,-192.23 238.78,-191.88 246.83,-198.76 249.36,-192.23"/>
</a>
</g>
</g>
<!-- Node4&#45;&gt;Node7 -->
<g id="edge7_Node000004_Node000007" class="edge">
<title>Node4&#45;&gt;Node7</title>
<g id="a_edge7_Node000004_Node000007"><a xlink:title=" ">
<path fill="none" stroke="#63b8ff" d="M346.05,-226.59C340.62,-219.35 333.07,-209.26 326.49,-200.47"/>
<polygon fill="#63b8ff" stroke="#63b8ff" points="329.34,-198.45 320.55,-192.54 323.74,-202.64 329.34,-198.45"/>
</a>
</g>
</g>
<!-- Node8 -->
<g id="Node000008" class="node">
<title>Node8</title>
<g id="a_Node000008"><a xlink:href="modules_8h.html" target="_top" xlink:title="Common macros and compiler attributes/pragmas configuration.">
<polygon fill="white" stroke="#666666" points="371.88,-134.25 304.88,-134.25 304.88,-113.5 371.88,-113.5 371.88,-134.25"/>
<text text-anchor="middle" x="338.38" y="-120.75" font-family="Helvetica,sans-Serif" font-size="10.00">modules.h</text>
</a>
</g>
</g>
<!-- Node7&#45;&gt;Node8 -->
<g id="edge8_Node000007_Node000008" class="edge">
<title>Node7&#45;&gt;Node8</title>
<g id="a_edge8_Node000007_Node000008"><a xlink:title=" ">
<path fill="none" stroke="#63b8ff" d="M317.02,-169.84C320.31,-162.91 324.84,-153.37 328.88,-144.86"/>
<polygon fill="#63b8ff" stroke="#63b8ff" points="331.99,-146.48 333.12,-135.95 325.67,-143.48 331.99,-146.48"/>
</a>
</g>
</g>
<!-- Node9 -->
<g id="Node000009" class="node">
<title>Node9</title>
<g id="a_Node000009"><a xlink:href="riot__version_8h.html" target="_top" xlink:title="Common macros and compiler attributes/pragmas configuration.">
<polygon fill="white" stroke="#666666" points="82.75,-134.25 0,-134.25 0,-113.5 82.75,-113.5 82.75,-134.25"/>
<text text-anchor="middle" x="41.38" y="-120.75" font-family="Helvetica,sans-Serif" font-size="10.00">riot_version.h</text>
</a>
</g>
</g>
<!-- Node7&#45;&gt;Node9 -->
<g id="edge9_Node000007_Node000009" class="edge">
<title>Node7&#45;&gt;Node9</title>
<g id="a_edge9_Node000007_Node000009"><a xlink:title=" ">
<path fill="none" stroke="#63b8ff" d="M263.93,-169.84C216.19,-160.19 143.44,-145.5 94.23,-135.55"/>
<polygon fill="#63b8ff" stroke="#63b8ff" points="95.16,-132.17 84.67,-133.62 93.78,-139.03 95.16,-132.17"/>
</a>
</g>
</g>
<!-- Node10 -->
<g id="Node000010" class="node">
<title>Node10</title>
<g id="a_Node000010"><a xlink:href="compiler__hints_8h.html" target="_top" xlink:title="Common macros and compiler attributes/pragmas configuration.">
<polygon fill="white" stroke="#666666" points="286.88,-134.25 189.88,-134.25 189.88,-113.5 286.88,-113.5 286.88,-134.25"/>
<text text-anchor="middle" x="238.38" y="-120.75" font-family="Helvetica,sans-Serif" font-size="10.00">compiler_hints.h</text>
</a>
</g>
</g>
<!-- Node7&#45;&gt;Node10 -->
<g id="edge11_Node000007_Node000010" class="edge">
<title>Node7&#45;&gt;Node10</title>
<g id="a_edge11_Node000007_Node000010"><a xlink:title=" ">
<path fill="none" stroke="#63b8ff" d="M299.15,-169.84C288.41,-161.9 273.05,-150.53 260.46,-141.21"/>
<polygon fill="#63b8ff" stroke="#63b8ff" points="262.83,-138.61 252.71,-135.48 258.66,-144.24 262.83,-138.61"/>
</a>
</g>
</g>
<!-- Node12 -->
<g id="Node000012" class="node">
<title>Node12</title>
<g id="a_Node000012"><a xlink:href="container_8h.html" target="_top" xlink:title="Common macros and compiler attributes/pragmas configuration.">
<polygon fill="white" stroke="#666666" points="171.75,-134.25 101,-134.25 101,-113.5 171.75,-113.5 171.75,-134.25"/>
<text text-anchor="middle" x="136.38" y="-120.75" font-family="Helvetica,sans-Serif" font-size="10.00">container.h</text>
</a>
</g>
</g>
<!-- Node7&#45;&gt;Node12 -->
<g id="edge15_Node000007_Node000012" class="edge">
<title>Node7&#45;&gt;Node12</title>
<g id="a_edge15_Node000007_Node000012"><a xlink:title=" ">
<path fill="none" stroke="#63b8ff" d="M280.91,-169.84C252.34,-160.95 209.99,-147.77 178.51,-137.98"/>
<polygon fill="#63b8ff" stroke="#63b8ff" points="179.9,-134.75 169.31,-135.12 177.82,-141.43 179.9,-134.75"/>
</a>
</g>
</g>
<!-- Node9&#45;&gt;Node2 -->
<g id="edge10_Node000009_Node000002" class="edge">
<title>Node9&#45;&gt;Node2</title>
<g id="a_edge10_Node000009_Node000002"><a xlink:title=" ">
<path fill="none" stroke="#63b8ff" d="M51.43,-113.15C67.38,-98.35 100.09,-70.44 133.38,-56.75 217.37,-22.2 325.24,-13.82 381.46,-11.87"/>
<polygon fill="#63b8ff" stroke="#63b8ff" points="381.24,-15.38 391.13,-11.59 381.03,-8.38 381.24,-15.38"/>
</a>
</g>
</g>
<!-- Node10&#45;&gt;Node2 -->
<g id="edge14_Node000010_Node000002" class="edge">
<title>Node10&#45;&gt;Node2</title>
<g id="a_edge14_Node000010_Node000002"><a xlink:title=" ">
<path fill="none" stroke="#63b8ff" d="M252.4,-113.12C271.56,-99.92 307.1,-75.82 338.38,-56.75 355.76,-46.15 375.71,-34.96 391.46,-26.35"/>
<polygon fill="#63b8ff" stroke="#63b8ff" points="392.69,-29.66 399.81,-21.81 389.35,-23.51 392.69,-29.66"/>
</a>
</g>
</g>
<!-- Node11 -->
<g id="Node000011" class="node">
<title>Node11</title>
<g id="a_Node000011"><a xlink:href="assert_8h.html" target="_top" xlink:title="POSIX.1&#45;2008 compliant version of the assert macro.">
<polygon fill="white" stroke="#666666" points="285.88,-77.5 230.88,-77.5 230.88,-56.75 285.88,-56.75 285.88,-77.5"/>
<text text-anchor="middle" x="258.38" y="-64" font-family="Helvetica,sans-Serif" font-size="10.00">assert.h</text>
</a>
</g>
</g>
<!-- Node10&#45;&gt;Node11 -->
<g id="edge12_Node000010_Node000011" class="edge">
<title>Node10&#45;&gt;Node11</title>
<g id="a_edge12_Node000010_Node000011"><a xlink:title=" ">
<path fill="none" stroke="#63b8ff" d="M241.95,-113.09C244.45,-106.24 247.89,-96.84 250.97,-88.4"/>
<polygon fill="#63b8ff" stroke="#63b8ff" points="254.17,-89.84 254.31,-79.25 247.59,-87.44 254.17,-89.84"/>
</a>
</g>
</g>
<!-- Node11&#45;&gt;Node2 -->
<g id="edge13_Node000011_Node000002" class="edge">
<title>Node11&#45;&gt;Node2</title>
<g id="a_edge13_Node000011_Node000002"><a xlink:title=" ">
<path fill="none" stroke="#63b8ff" d="M286.05,-56.71C312.52,-47.71 352.63,-34.07 381.94,-24.11"/>
<polygon fill="#63b8ff" stroke="#63b8ff" points="382.82,-27.5 391.16,-20.97 380.57,-20.88 382.82,-27.5"/>
</a>
</g>
</g>
<!-- Node12&#45;&gt;Node2 -->
<g id="edge17_Node000012_Node000002" class="edge">
<title>Node12&#45;&gt;Node2</title>
<g id="a_edge17_Node000012_Node000002"><a xlink:title=" ">
<path fill="none" stroke="#63b8ff" d="M135.01,-113.23C133.57,-98.79 133.26,-71.66 148.38,-56.75 180.73,-24.83 315.08,-15.29 381.65,-12.5"/>
<polygon fill="#63b8ff" stroke="#63b8ff" points="381.5,-16.01 391.35,-12.12 381.23,-9.01 381.5,-16.01"/>
</a>
</g>
</g>
<!-- Node13 -->
<g id="Node000013" class="node">
<title>Node13</title>
<g id="a_Node000013"><a xlink:title=" ">
<polygon fill="#e0e0e0" stroke="#999999" points="212.88,-77.5 157.88,-77.5 157.88,-56.75 212.88,-56.75 212.88,-77.5"/>
<text text-anchor="middle" x="185.38" y="-64" font-family="Helvetica,sans-Serif" font-size="10.00">stddef.h</text>
</a>
</g>
</g>
<!-- Node12&#45;&gt;Node13 -->
<g id="edge16_Node000012_Node000013" class="edge">
<title>Node12&#45;&gt;Node13</title>
<g id="a_edge16_Node000012_Node000013"><a xlink:title=" ">
<path fill="none" stroke="#63b8ff" d="M145.14,-113.09C151.82,-105.61 161.23,-95.11 169.26,-86.13"/>
<polygon fill="#63b8ff" stroke="#63b8ff" points="171.62,-88.74 175.68,-78.96 166.4,-84.07 171.62,-88.74"/>
</a>
</g>
</g>
<!-- Node14&#45;&gt;Node2 -->
<g id="edge20_Node000014_Node000002" class="edge">
<title>Node14&#45;&gt;Node2</title>
<g id="a_edge20_Node000014_Node000002"><a xlink:title=" ">
<path fill="none" stroke="#63b8ff" d="M564.03,-226.52C583.16,-219.57 605.43,-208.35 619.38,-191 657.57,-143.5 686.04,-103.87 647.38,-56.75 623.78,-28 515.99,-17.13 457.46,-13.29"/>
<polygon fill="#63b8ff" stroke="#63b8ff" points="457.81,-9.81 447.62,-12.69 457.38,-16.8 457.81,-9.81"/>
</a>
</g>
</g>
<!-- Node14&#45;&gt;Node8 -->
<g id="edge32_Node000014_Node000008" class="edge">
<title>Node14&#45;&gt;Node8</title>
<g id="a_edge32_Node000014_Node000008"><a xlink:title=" ">
<path fill="none" stroke="#63b8ff" d="M522.6,-226.81C514.98,-212.46 498.7,-185.46 477.38,-170.25 449.37,-150.28 412.06,-138.74 383.15,-132.29"/>
<polygon fill="#63b8ff" stroke="#63b8ff" points="384.11,-128.92 373.6,-130.3 382.68,-135.77 384.11,-128.92"/>
</a>
</g>
</g>
<!-- Node15 -->
<g id="Node000015" class="node">
<title>Node15</title>
<g id="a_Node000015"><a xlink:title=" ">
<polygon fill="#e0e0e0" stroke="#999999" points="468.38,-191 416.38,-191 416.38,-170.25 468.38,-170.25 468.38,-191"/>
<text text-anchor="middle" x="442.38" y="-177.5" font-family="Helvetica,sans-Serif" font-size="10.00">stdlib.h</text>
</a>
</g>
</g>
<!-- Node14&#45;&gt;Node15 -->
<g id="edge21_Node000014_Node000015" class="edge">
<title>Node14&#45;&gt;Node15</title>
<g id="a_edge21_Node000014_Node000015"><a xlink:title=" ">
<path fill="none" stroke="#63b8ff" d="M512.18,-226.59C499.61,-218.49 481.51,-206.83 466.89,-197.42"/>
<polygon fill="#63b8ff" stroke="#63b8ff" points="469.01,-194.62 458.71,-192.15 465.22,-200.51 469.01,-194.62"/>
</a>
</g>
</g>
<!-- Node16 -->
<g id="Node000016" class="node">
<title>Node16</title>
<g id="a_Node000016"><a xlink:href="byteorder_8h.html" target="_top" xlink:title="Functions to work with different byte orders.">
<polygon fill="white" stroke="#666666" points="592.5,-134.25 520.25,-134.25 520.25,-113.5 592.5,-113.5 592.5,-134.25"/>
<text text-anchor="middle" x="556.38" y="-120.75" font-family="Helvetica,sans-Serif" font-size="10.00">byteorder.h</text>
</a>
</g>
</g>
<!-- Node14&#45;&gt;Node16 -->
<g id="edge22_Node000014_Node000016" class="edge">
<title>Node14&#45;&gt;Node16</title>
<g id="a_edge22_Node000014_Node000016"><a xlink:title=" ">
<path fill="none" stroke="#63b8ff" d="M558.09,-226.52C574.66,-219.45 593.66,-208.11 603.38,-191 613.52,-173.12 596.82,-154.13 580.58,-141.11"/>
<polygon fill="#63b8ff" stroke="#63b8ff" points="583.1,-138.63 573,-135.44 578.91,-144.23 583.1,-138.63"/>
</a>
</g>
</g>
<!-- Node19 -->
<g id="Node000019" class="node">
<title>Node19</title>
<g id="a_Node000019"><a xlink:href="eui64_8h.html" target="_top" xlink:title="EUI&#45;64 data type definition.">
<polygon fill="white" stroke="#666666" points="594.75,-191 524,-191 524,-170.25 594.75,-170.25 594.75,-191"/>
<text text-anchor="middle" x="559.38" y="-177.5" font-family="Helvetica,sans-Serif" font-size="10.00">net/eui64.h</text>
</a>
</g>
</g>
<!-- Node14&#45;&gt;Node19 -->
<g id="edge29_Node000014_Node000019" class="edge">
<title>Node14&#45;&gt;Node19</title>
<g id="a_edge29_Node000014_Node000019"><a xlink:title=" ">
<path fill="none" stroke="#63b8ff" d="M533.1,-226.59C537.24,-219.5 542.97,-209.69 548.03,-201.04"/>
<polygon fill="#63b8ff" stroke="#63b8ff" points="550.92,-203.03 552.94,-192.64 544.87,-199.5 550.92,-203.03"/>
</a>
</g>
</g>
<!-- Node16&#45;&gt;Node2 -->
<g id="edge24_Node000016_Node000002" class="edge">
<title>Node16&#45;&gt;Node2</title>
<g id="a_edge24_Node000016_Node000002"><a xlink:title=" ">
<path fill="none" stroke="#63b8ff" d="M555.5,-113.03C553.73,-98.83 548.5,-72.56 533.38,-56.75 513.16,-35.62 481.85,-24.11 457.15,-17.97"/>
<polygon fill="#63b8ff" stroke="#63b8ff" points="457.99,-14.57 447.46,-15.78 456.44,-21.4 457.99,-14.57"/>
</a>
</g>
</g>
<!-- Node16&#45;&gt;Node5 -->
<g id="edge23_Node000016_Node000005" class="edge">
<title>Node16&#45;&gt;Node5</title>
<g id="a_edge23_Node000016_Node000005"><a xlink:title=" ">
<path fill="none" stroke="#63b8ff" d="M529.56,-113.09C505.64,-104.36 470.37,-91.48 443.7,-81.75"/>
<polygon fill="#63b8ff" stroke="#63b8ff" points="445.23,-78.58 434.63,-78.44 442.83,-85.16 445.23,-78.58"/>
</a>
</g>
</g>
<!-- Node17 -->
<g id="Node000017" class="node">
<title>Node17</title>
<g id="a_Node000017"><a xlink:href="endian_8h.html" target="_top" xlink:title="libc header for endian conversion">
<polygon fill="white" stroke="#666666" points="638.38,-77.5 580.38,-77.5 580.38,-56.75 638.38,-56.75 638.38,-77.5"/>
<text text-anchor="middle" x="609.38" y="-64" font-family="Helvetica,sans-Serif" font-size="10.00">endian.h</text>
</a>
</g>
</g>
<!-- Node16&#45;&gt;Node17 -->
<g id="edge25_Node000016_Node000017" class="edge">
<title>Node16&#45;&gt;Node17</title>
<g id="a_edge25_Node000016_Node000017"><a xlink:title=" ">
<path fill="none" stroke="#63b8ff" d="M565.85,-113.09C573.16,-105.53 583.47,-94.89 592.22,-85.85"/>
<polygon fill="#63b8ff" stroke="#63b8ff" points="594.49,-88.54 598.93,-78.92 589.46,-83.67 594.49,-88.54"/>
</a>
</g>
</g>
<!-- Node18 -->
<g id="Node000018" class="node">
<title>Node18</title>
<g id="a_Node000018"><a xlink:href="unaligned_8h.html" target="_top" xlink:title="Unaligned but safe memory access functions.">
<polygon fill="white" stroke="#666666" points="523.88,-77.5 450.88,-77.5 450.88,-56.75 523.88,-56.75 523.88,-77.5"/>
<text text-anchor="middle" x="487.38" y="-64" font-family="Helvetica,sans-Serif" font-size="10.00">unaligned.h</text>
</a>
</g>
</g>
<!-- Node16&#45;&gt;Node18 -->
<g id="edge27_Node000016_Node000018" class="edge">
<title>Node16&#45;&gt;Node18</title>
<g id="a_edge27_Node000016_Node000018"><a xlink:title=" ">
<path fill="none" stroke="#63b8ff" d="M544.04,-113.09C534.13,-105.22 519.99,-94 508.31,-84.74"/>
<polygon fill="#63b8ff" stroke="#63b8ff" points="510.8,-82.24 500.79,-78.77 506.45,-87.73 510.8,-82.24"/>
</a>
</g>
</g>
<!-- Node17&#45;&gt;Node2 -->
<g id="edge26_Node000017_Node000002" class="edge">
<title>Node17&#45;&gt;Node2</title>
<g id="a_edge26_Node000017_Node000002"><a xlink:title=" ">
<path fill="none" stroke="#63b8ff" d="M580.1,-57.69C546.99,-48.15 492.98,-32.59 456.83,-22.17"/>
<polygon fill="#63b8ff" stroke="#63b8ff" points="458.25,-18.94 447.67,-19.53 456.31,-25.66 458.25,-18.94"/>
</a>
</g>
</g>
<!-- Node18&#45;&gt;Node2 -->
<g id="edge28_Node000018_Node000002" class="edge">
<title>Node18&#45;&gt;Node2</title>
<g id="a_edge28_Node000018_Node000002"><a xlink:title=" ">
<path fill="none" stroke="#63b8ff" d="M475.22,-56.34C465.55,-48.55 451.79,-37.47 440.35,-28.26"/>
<polygon fill="#63b8ff" stroke="#63b8ff" points="442.59,-25.57 432.61,-22.03 438.2,-31.03 442.59,-25.57"/>
</a>
</g>
</g>
<!-- Node19&#45;&gt;Node2 -->
<g id="edge30_Node000019_Node000002" class="edge">
<title>Node19&#45;&gt;Node2</title>
<g id="a_edge30_Node000019_Node000002"><a xlink:title=" ">
<path fill="none" stroke="#63b8ff" d="M523.65,-171.9C478.96,-160.11 404.32,-132.89 371.38,-77.5 360.79,-59.7 377.88,-40.7 394.53,-27.66"/>
<polygon fill="#63b8ff" stroke="#63b8ff" points="396.32,-30.69 402.33,-21.96 392.19,-25.03 396.32,-30.69"/>
</a>
</g>
</g>
<!-- Node19&#45;&gt;Node16 -->
<g id="edge31_Node000019_Node000016" class="edge">
<title>Node19&#45;&gt;Node16</title>
<g id="a_edge31_Node000019_Node000016"><a xlink:title=" ">
<path fill="none" stroke="#63b8ff" d="M558.84,-169.84C558.48,-163.22 557.98,-154.22 557.53,-146.02"/>
<polygon fill="#63b8ff" stroke="#63b8ff" points="561.03,-145.88 556.99,-136.09 554.04,-146.27 561.03,-145.88"/>
</a>
</g>
</g>
</g>
</svg>
