<?xml version="1.0" encoding="UTF-8" standalone="no"?>
<!DOCTYPE svg PUBLIC "-//W3C//DTD SVG 1.1//EN"
 "http://www.w3.org/Graphics/SVG/1.1/DTD/svg11.dtd">
<!-- Generated by graphviz version 12.1.2 (0)
 -->
<!-- Title: sys/include/net/emcute.h Pages: 1 -->
<svg width="730pt" height="369pt"
 viewBox="0.00 0.00 730.02 369.25" xmlns="http://www.w3.org/2000/svg" xmlns:xlink="http://www.w3.org/1999/xlink">
<g id="graph0" class="graph" transform="scale(1 1) rotate(0) translate(4 365.25)">
<title>sys/include/net/emcute.h</title>
<!-- Node1 -->
<g id="Node000001" class="node">
<title>Node1</title>
<g id="a_Node000001"><a xlink:title="emCute MQTT&#45;SN interface definition">
<polygon fill="#999999" stroke="#666666" points="578.14,-361.25 439.89,-361.25 439.89,-340.5 578.14,-340.5 578.14,-361.25"/>
<text text-anchor="middle" x="509.02" y="-347.75" font-family="Helvetica,sans-Serif" font-size="10.00">sys/include/net/emcute.h</text>
</a>
</g>
</g>
<!-- Node2 -->
<g id="Node000002" class="node">
<title>Node2</title>
<g id="a_Node000002"><a xlink:title=" ">
<polygon fill="#e0e0e0" stroke="#999999" points="456.39,-20.75 403.64,-20.75 403.64,0 456.39,0 456.39,-20.75"/>
<text text-anchor="middle" x="430.02" y="-7.25" font-family="Helvetica,sans-Serif" font-size="10.00">stdint.h</text>
</a>
</g>
</g>
<!-- Node1&#45;&gt;Node2 -->
<g id="edge1_Node000001_Node000002" class="edge">
<title>Node1&#45;&gt;Node2</title>
<g id="a_edge1_Node000001_Node000002"><a xlink:title=" ">
<path fill="none" stroke="#63b8ff" d="M578.47,-342.41C640.62,-331.42 722.02,-304.43 722.02,-238.38 722.02,-238.38 722.02,-238.38 722.02,-122.88 722.02,-86.56 704.72,-76.14 674.02,-56.75 640.29,-35.45 527.71,-21.22 467.98,-14.98"/>
<polygon fill="#63b8ff" stroke="#63b8ff" points="468.59,-11.53 458.29,-13.99 467.88,-18.49 468.59,-11.53"/>
</a>
</g>
</g>
<!-- Node3 -->
<g id="Node000003" class="node">
<title>Node3</title>
<g id="a_Node000003"><a xlink:title=" ">
<polygon fill="#e0e0e0" stroke="#999999" points="545.52,-134.25 490.52,-134.25 490.52,-113.5 545.52,-113.5 545.52,-134.25"/>
<text text-anchor="middle" x="518.02" y="-120.75" font-family="Helvetica,sans-Serif" font-size="10.00">stddef.h</text>
</a>
</g>
</g>
<!-- Node1&#45;&gt;Node3 -->
<g id="edge2_Node000001_Node000003" class="edge">
<title>Node1&#45;&gt;Node3</title>
<g id="a_edge2_Node000001_Node000003"><a xlink:title=" ">
<path fill="none" stroke="#63b8ff" d="M520.62,-340.03C539.31,-323.32 575.35,-287.35 589.02,-247.75 603.03,-207.12 564.98,-164.81 539.32,-141.98"/>
<polygon fill="#63b8ff" stroke="#63b8ff" points="541.88,-139.57 532.01,-135.73 537.33,-144.89 541.88,-139.57"/>
</a>
</g>
</g>
<!-- Node4 -->
<g id="Node000004" class="node">
<title>Node4</title>
<g id="a_Node000004"><a xlink:title=" ">
<polygon fill="#e0e0e0" stroke="#999999" points="152.52,-134.25 91.52,-134.25 91.52,-113.5 152.52,-113.5 152.52,-134.25"/>
<text text-anchor="middle" x="122.02" y="-120.75" font-family="Helvetica,sans-Serif" font-size="10.00">stdbool.h</text>
</a>
</g>
</g>
<!-- Node1&#45;&gt;Node4 -->
<g id="edge3_Node000001_Node000004" class="edge">
<title>Node1&#45;&gt;Node4</title>
<g id="a_edge3_Node000001_Node000004"><a xlink:title=" ">
<path fill="none" stroke="#63b8ff" d="M439.52,-346.18C315.18,-337.95 62.59,-313.38 9.02,-247.75 -24.17,-207.1 46.12,-162.48 90.11,-139.85"/>
<polygon fill="#63b8ff" stroke="#63b8ff" points="91.65,-142.99 99.03,-135.39 88.52,-136.73 91.65,-142.99"/>
</a>
</g>
</g>
<!-- Node5 -->
<g id="Node000005" class="node">
<title>Node5</title>
<g id="a_Node000005"><a xlink:href="sock_2udp_8h.html" target="_top" xlink:title="UDP sock definitions.">
<polygon fill="white" stroke="#666666" points="453.64,-304.5 366.39,-304.5 366.39,-283.75 453.64,-283.75 453.64,-304.5"/>
<text text-anchor="middle" x="410.02" y="-291" font-family="Helvetica,sans-Serif" font-size="10.00">net/sock/udp.h</text>
</a>
</g>
</g>
<!-- Node1&#45;&gt;Node5 -->
<g id="edge4_Node000001_Node000005" class="edge">
<title>Node1&#45;&gt;Node5</title>
<g id="a_edge4_Node000001_Node000005"><a xlink:title=" ">
<path fill="none" stroke="#63b8ff" d="M491.32,-340.09C476.39,-331.83 454.78,-319.88 437.59,-310.38"/>
<polygon fill="#63b8ff" stroke="#63b8ff" points="439.33,-307.34 428.89,-305.56 435.94,-313.46 439.33,-307.34"/>
</a>
</g>
</g>
<!-- Node5&#45;&gt;Node2 -->
<g id="edge8_Node000005_Node000002" class="edge">
<title>Node5&#45;&gt;Node2</title>
<g id="a_edge8_Node000005_Node000002"><a xlink:title=" ">
<path fill="none" stroke="#63b8ff" d="M453.78,-289.72C496.05,-284.98 560.86,-273.8 611.02,-247.75 649.87,-227.57 684.02,-225.4 684.02,-181.62 684.02,-181.62 684.02,-181.62 684.02,-122.88 684.02,-29.58 538.58,-13.64 467.81,-11.4"/>
<polygon fill="#63b8ff" stroke="#63b8ff" points="468.31,-7.91 458.23,-11.17 468.15,-14.91 468.31,-7.91"/>
</a>
</g>
</g>
<!-- Node6 -->
<g id="Node000006" class="node">
<title>Node6</title>
<g id="a_Node000006"><a xlink:href="assert_8h.html" target="_top" xlink:title="POSIX.1&#45;2008 compliant version of the assert macro.">
<polygon fill="white" stroke="#666666" points="463.52,-191 408.52,-191 408.52,-170.25 463.52,-170.25 463.52,-191"/>
<text text-anchor="middle" x="436.02" y="-177.5" font-family="Helvetica,sans-Serif" font-size="10.00">assert.h</text>
</a>
</g>
</g>
<!-- Node5&#45;&gt;Node6 -->
<g id="edge5_Node000005_Node000006" class="edge">
<title>Node5&#45;&gt;Node6</title>
<g id="a_edge5_Node000005_Node000006"><a xlink:title=" ">
<path fill="none" stroke="#63b8ff" d="M412.23,-283.62C416.4,-265.77 425.47,-226.86 431.13,-202.59"/>
<polygon fill="#63b8ff" stroke="#63b8ff" points="434.52,-203.43 433.39,-192.9 427.71,-201.84 434.52,-203.43"/>
</a>
</g>
</g>
<!-- Node7 -->
<g id="Node000007" class="node">
<title>Node7</title>
<g id="a_Node000007"><a xlink:href="errno_8h.html" target="_top" xlink:title=" ">
<polygon fill="white" stroke="#666666" points="274.27,-247.75 223.77,-247.75 223.77,-227 274.27,-227 274.27,-247.75"/>
<text text-anchor="middle" x="249.02" y="-234.25" font-family="Helvetica,sans-Serif" font-size="10.00">errno.h</text>
</a>
</g>
</g>
<!-- Node5&#45;&gt;Node7 -->
<g id="edge7_Node000005_Node000007" class="edge">
<title>Node5&#45;&gt;Node7</title>
<g id="a_edge7_Node000005_Node000007"><a xlink:title=" ">
<path fill="none" stroke="#63b8ff" d="M381.23,-283.34C354.37,-274.2 314.17,-260.53 285.15,-250.66"/>
<polygon fill="#63b8ff" stroke="#63b8ff" points="286.66,-247.48 276.06,-247.57 284.41,-254.11 286.66,-247.48"/>
</a>
</g>
</g>
<!-- Node8 -->
<g id="Node000008" class="node">
<title>Node8</title>
<g id="a_Node000008"><a xlink:title=" ">
<polygon fill="#e0e0e0" stroke="#999999" points="344.02,-247.75 292.02,-247.75 292.02,-227 344.02,-227 344.02,-247.75"/>
<text text-anchor="middle" x="318.02" y="-234.25" font-family="Helvetica,sans-Serif" font-size="10.00">stdlib.h</text>
</a>
</g>
</g>
<!-- Node5&#45;&gt;Node8 -->
<g id="edge9_Node000005_Node000008" class="edge">
<title>Node5&#45;&gt;Node8</title>
<g id="a_edge9_Node000005_Node000008"><a xlink:title=" ">
<path fill="none" stroke="#63b8ff" d="M393.57,-283.34C379.83,-275.16 360,-263.36 344.1,-253.9"/>
<polygon fill="#63b8ff" stroke="#63b8ff" points="346.01,-250.96 335.62,-248.85 342.43,-256.97 346.01,-250.96"/>
</a>
</g>
</g>
<!-- Node9 -->
<g id="Node000009" class="node">
<title>Node9</title>
<g id="a_Node000009"><a xlink:title=" ">
<polygon fill="#e0e0e0" stroke="#999999" points="509.77,-247.75 438.27,-247.75 438.27,-227 509.77,-227 509.77,-247.75"/>
<text text-anchor="middle" x="474.02" y="-234.25" font-family="Helvetica,sans-Serif" font-size="10.00">sys/types.h</text>
</a>
</g>
</g>
<!-- Node5&#45;&gt;Node9 -->
<g id="edge10_Node000005_Node000009" class="edge">
<title>Node5&#45;&gt;Node9</title>
<g id="a_edge10_Node000005_Node000009"><a xlink:title=" ">
<path fill="none" stroke="#63b8ff" d="M421.46,-283.34C430.47,-275.63 443.25,-264.7 453.95,-255.54"/>
<polygon fill="#63b8ff" stroke="#63b8ff" points="456.2,-258.22 461.52,-249.06 451.65,-252.9 456.2,-258.22"/>
</a>
</g>
</g>
<!-- Node10 -->
<g id="Node000010" class="node">
<title>Node10</title>
<g id="a_Node000010"><a xlink:href="af_8h.html" target="_top" xlink:title="Global UNIX address family definitions.">
<polygon fill="white" stroke="#666666" points="580.39,-247.75 527.64,-247.75 527.64,-227 580.39,-227 580.39,-247.75"/>
<text text-anchor="middle" x="554.02" y="-234.25" font-family="Helvetica,sans-Serif" font-size="10.00">net/af.h</text>
</a>
</g>
</g>
<!-- Node5&#45;&gt;Node10 -->
<g id="edge11_Node000005_Node000010" class="edge">
<title>Node5&#45;&gt;Node10</title>
<g id="a_edge11_Node000005_Node000010"><a xlink:title=" ">
<path fill="none" stroke="#63b8ff" d="M435.76,-283.34C458.59,-274.66 492.19,-261.88 517.74,-252.17"/>
<polygon fill="#63b8ff" stroke="#63b8ff" points="518.98,-255.44 527.08,-248.62 516.49,-248.9 518.98,-255.44"/>
</a>
</g>
</g>
<!-- Node11 -->
<g id="Node000011" class="node">
<title>Node11</title>
<g id="a_Node000011"><a xlink:href="sock_8h.html" target="_top" xlink:title="Common sock API definitions.">
<polygon fill="white" stroke="#666666" points="656.14,-191 589.89,-191 589.89,-170.25 656.14,-170.25 656.14,-191"/>
<text text-anchor="middle" x="623.02" y="-177.5" font-family="Helvetica,sans-Serif" font-size="10.00">net/sock.h</text>
</a>
</g>
</g>
<!-- Node5&#45;&gt;Node11 -->
<g id="edge12_Node000005_Node000011" class="edge">
<title>Node5&#45;&gt;Node11</title>
<g id="a_edge12_Node000005_Node000011"><a xlink:title=" ">
<path fill="none" stroke="#63b8ff" d="M453.84,-291.93C493.08,-288.73 550.26,-278.59 589.02,-247.75 603.52,-236.21 612.45,-216.81 617.5,-202"/>
<polygon fill="#63b8ff" stroke="#63b8ff" points="620.74,-203.37 620.3,-192.79 614.04,-201.33 620.74,-203.37"/>
</a>
</g>
</g>
<!-- Node13 -->
<g id="Node000013" class="node">
<title>Node13</title>
<g id="a_Node000013"><a xlink:href="ipv4_2addr_8h.html" target="_top" xlink:title="IPv4 address type and helper functions definitions.">
<polygon fill="white" stroke="#666666" points="342.77,-191 253.27,-191 253.27,-170.25 342.77,-170.25 342.77,-191"/>
<text text-anchor="middle" x="298.02" y="-177.5" font-family="Helvetica,sans-Serif" font-size="10.00">net/ipv4/addr.h</text>
</a>
</g>
</g>
<!-- Node5&#45;&gt;Node13 -->
<g id="edge16_Node000005_Node000013" class="edge">
<title>Node5&#45;&gt;Node13</title>
<g id="a_edge16_Node000005_Node000013"><a xlink:title=" ">
<path fill="none" stroke="#63b8ff" d="M402.38,-283.25C391.87,-269.92 372.08,-245.66 353.02,-227 342.72,-216.92 330.42,-206.63 320.06,-198.4"/>
<polygon fill="#63b8ff" stroke="#63b8ff" points="322.44,-195.82 312.41,-192.42 318.13,-201.34 322.44,-195.82"/>
</a>
</g>
</g>
<!-- Node18 -->
<g id="Node000018" class="node">
<title>Node18</title>
<g id="a_Node000018"><a xlink:href="ipv6_2addr_8h.html" target="_top" xlink:title="Definitions for IPv6 addresses.">
<polygon fill="white" stroke="#666666" points="107.77,-247.75 18.27,-247.75 18.27,-227 107.77,-227 107.77,-247.75"/>
<text text-anchor="middle" x="63.02" y="-234.25" font-family="Helvetica,sans-Serif" font-size="10.00">net/ipv6/addr.h</text>
</a>
</g>
</g>
<!-- Node5&#45;&gt;Node18 -->
<g id="edge27_Node000005_Node000018" class="edge">
<title>Node5&#45;&gt;Node18</title>
<g id="a_edge27_Node000005_Node000018"><a xlink:title=" ">
<path fill="none" stroke="#63b8ff" d="M366.29,-286.61C311.18,-278.34 213.22,-263.45 119.23,-248.09"/>
<polygon fill="#63b8ff" stroke="#63b8ff" points="120.02,-244.67 109.58,-246.51 118.88,-251.58 120.02,-244.67"/>
</a>
</g>
</g>
<!-- Node19 -->
<g id="Node000019" class="node">
<title>Node19</title>
<g id="a_Node000019"><a xlink:title=" ">
<polygon fill="#e0e0e0" stroke="#999999" points="205.89,-247.75 126.14,-247.75 126.14,-227 205.89,-227 205.89,-247.75"/>
<text text-anchor="middle" x="166.02" y="-234.25" font-family="Helvetica,sans-Serif" font-size="10.00">sock_types.h</text>
</a>
</g>
</g>
<!-- Node5&#45;&gt;Node19 -->
<g id="edge32_Node000005_Node000019" class="edge">
<title>Node5&#45;&gt;Node19</title>
<g id="a_edge32_Node000005_Node000019"><a xlink:title=" ">
<path fill="none" stroke="#63b8ff" d="M366.11,-283.27C324.33,-273.9 261.48,-259.79 217.39,-249.9"/>
<polygon fill="#63b8ff" stroke="#63b8ff" points="218.33,-246.53 207.81,-247.75 216.8,-253.36 218.33,-246.53"/>
</a>
</g>
</g>
<!-- Node6&#45;&gt;Node2 -->
<g id="edge6_Node000006_Node000002" class="edge">
<title>Node6&#45;&gt;Node2</title>
<g id="a_edge6_Node000006_Node000002"><a xlink:title=" ">
<path fill="none" stroke="#63b8ff" d="M435.68,-170.1C434.74,-143.73 432.08,-69.33 430.77,-32.53"/>
<polygon fill="#63b8ff" stroke="#63b8ff" points="434.28,-32.6 430.42,-22.73 427.28,-32.85 434.28,-32.6"/>
</a>
</g>
</g>
<!-- Node11&#45;&gt;Node2 -->
<g id="edge13_Node000011_Node000002" class="edge">
<title>Node11&#45;&gt;Node2</title>
<g id="a_edge13_Node000011_Node000002"><a xlink:title=" ">
<path fill="none" stroke="#63b8ff" d="M613.58,-169.94C600.68,-156.81 576.65,-132.79 555.02,-113.5 519.78,-82.08 476.78,-47.78 451.5,-28.01"/>
<polygon fill="#63b8ff" stroke="#63b8ff" points="453.97,-25.49 443.93,-22.1 449.66,-31.01 453.97,-25.49"/>
</a>
</g>
</g>
<!-- Node11&#45;&gt;Node3 -->
<g id="edge14_Node000011_Node000003" class="edge">
<title>Node11&#45;&gt;Node3</title>
<g id="a_edge14_Node000011_Node000003"><a xlink:title=" ">
<path fill="none" stroke="#63b8ff" d="M604.24,-169.84C588.27,-161.51 565.06,-149.41 546.75,-139.86"/>
<polygon fill="#63b8ff" stroke="#63b8ff" points="548.45,-136.8 537.97,-135.28 545.22,-143.01 548.45,-136.8"/>
</a>
</g>
</g>
<!-- Node12 -->
<g id="Node000012" class="node">
<title>Node12</title>
<g id="a_Node000012"><a xlink:href="iolist_8h.html" target="_top" xlink:title="iolist scatter / gather IO">
<polygon fill="white" stroke="#666666" points="651.52,-134.25 602.52,-134.25 602.52,-113.5 651.52,-113.5 651.52,-134.25"/>
<text text-anchor="middle" x="627.02" y="-120.75" font-family="Helvetica,sans-Serif" font-size="10.00">iolist.h</text>
</a>
</g>
</g>
<!-- Node11&#45;&gt;Node12 -->
<g id="edge15_Node000011_Node000012" class="edge">
<title>Node11&#45;&gt;Node12</title>
<g id="a_edge15_Node000011_Node000012"><a xlink:title=" ">
<path fill="none" stroke="#63b8ff" d="M623.73,-169.84C624.21,-163.22 624.87,-154.22 625.47,-146.02"/>
<polygon fill="#63b8ff" stroke="#63b8ff" points="628.96,-146.32 626.2,-136.09 621.98,-145.81 628.96,-146.32"/>
</a>
</g>
</g>
<!-- Node13&#45;&gt;Node2 -->
<g id="edge18_Node000013_Node000002" class="edge">
<title>Node13&#45;&gt;Node2</title>
<g id="a_edge18_Node000013_Node000002"><a xlink:title=" ">
<path fill="none" stroke="#63b8ff" d="M308.43,-169.85C326.68,-152.39 365.08,-114.23 392.02,-77.5 402.78,-62.82 412.95,-44.83 420.05,-31.33"/>
<polygon fill="#63b8ff" stroke="#63b8ff" points="423.1,-33.05 424.55,-22.55 416.87,-29.85 423.1,-33.05"/>
</a>
</g>
</g>
<!-- Node13&#45;&gt;Node3 -->
<g id="edge19_Node000013_Node000003" class="edge">
<title>Node13&#45;&gt;Node3</title>
<g id="a_edge19_Node000013_Node000003"><a xlink:title=" ">
<path fill="none" stroke="#63b8ff" d="M337.6,-169.77C377.69,-159.8 439.29,-144.47 479.12,-134.55"/>
<polygon fill="#63b8ff" stroke="#63b8ff" points="479.91,-137.96 488.77,-132.15 478.22,-131.17 479.91,-137.96"/>
</a>
</g>
</g>
<!-- Node13&#45;&gt;Node4 -->
<g id="edge17_Node000013_Node000004" class="edge">
<title>Node13&#45;&gt;Node4</title>
<g id="a_edge17_Node000013_Node000004"><a xlink:title=" ">
<path fill="none" stroke="#63b8ff" d="M266.55,-169.84C237.81,-160.89 195.1,-147.61 163.56,-137.8"/>
<polygon fill="#63b8ff" stroke="#63b8ff" points="164.95,-134.56 154.36,-134.94 162.87,-141.25 164.95,-134.56"/>
</a>
</g>
</g>
<!-- Node14 -->
<g id="Node000014" class="node">
<title>Node14</title>
<g id="a_Node000014"><a xlink:href="byteorder_8h.html" target="_top" xlink:title="Functions to work with different byte orders.">
<polygon fill="white" stroke="#666666" points="271.14,-134.25 198.89,-134.25 198.89,-113.5 271.14,-113.5 271.14,-134.25"/>
<text text-anchor="middle" x="235.02" y="-120.75" font-family="Helvetica,sans-Serif" font-size="10.00">byteorder.h</text>
</a>
</g>
</g>
<!-- Node13&#45;&gt;Node14 -->
<g id="edge20_Node000013_Node000014" class="edge">
<title>Node13&#45;&gt;Node14</title>
<g id="a_edge20_Node000013_Node000014"><a xlink:title=" ">
<path fill="none" stroke="#63b8ff" d="M286.75,-169.84C277.88,-162.13 265.3,-151.2 254.77,-142.04"/>
<polygon fill="#63b8ff" stroke="#63b8ff" points="257.17,-139.49 247.32,-135.57 252.58,-144.77 257.17,-139.49"/>
</a>
</g>
</g>
<!-- Node14&#45;&gt;Node2 -->
<g id="edge22_Node000014_Node000002" class="edge">
<title>Node14&#45;&gt;Node2</title>
<g id="a_edge22_Node000014_Node000002"><a xlink:title=" ">
<path fill="none" stroke="#63b8ff" d="M229.21,-113.17C221.66,-99.14 210.89,-73.08 224.02,-56.75 244.65,-31.07 338.01,-19.08 391.69,-14.21"/>
<polygon fill="#63b8ff" stroke="#63b8ff" points="391.97,-17.7 401.64,-13.36 391.37,-10.73 391.97,-17.7"/>
</a>
</g>
</g>
<!-- Node15 -->
<g id="Node000015" class="node">
<title>Node15</title>
<g id="a_Node000015"><a xlink:title=" ">
<polygon fill="#e0e0e0" stroke="#999999" points="153.39,-77.5 100.64,-77.5 100.64,-56.75 153.39,-56.75 153.39,-77.5"/>
<text text-anchor="middle" x="127.02" y="-64" font-family="Helvetica,sans-Serif" font-size="10.00">string.h</text>
</a>
</g>
</g>
<!-- Node14&#45;&gt;Node15 -->
<g id="edge21_Node000014_Node000015" class="edge">
<title>Node14&#45;&gt;Node15</title>
<g id="a_edge21_Node000014_Node000015"><a xlink:title=" ">
<path fill="none" stroke="#63b8ff" d="M215.71,-113.09C199.2,-104.72 175.19,-92.54 156.31,-82.97"/>
<polygon fill="#63b8ff" stroke="#63b8ff" points="158.01,-79.91 147.51,-78.51 154.84,-86.16 158.01,-79.91"/>
</a>
</g>
</g>
<!-- Node16 -->
<g id="Node000016" class="node">
<title>Node16</title>
<g id="a_Node000016"><a xlink:href="endian_8h.html" target="_top" xlink:title="libc header for endian conversion">
<polygon fill="white" stroke="#666666" points="291.02,-77.5 233.02,-77.5 233.02,-56.75 291.02,-56.75 291.02,-77.5"/>
<text text-anchor="middle" x="262.02" y="-64" font-family="Helvetica,sans-Serif" font-size="10.00">endian.h</text>
</a>
</g>
</g>
<!-- Node14&#45;&gt;Node16 -->
<g id="edge23_Node000014_Node000016" class="edge">
<title>Node14&#45;&gt;Node16</title>
<g id="a_edge23_Node000014_Node000016"><a xlink:title=" ">
<path fill="none" stroke="#63b8ff" d="M239.84,-113.09C243.26,-106.16 247.96,-96.62 252.16,-88.11"/>
<polygon fill="#63b8ff" stroke="#63b8ff" points="255.28,-89.7 256.56,-79.19 249,-86.61 255.28,-89.7"/>
</a>
</g>
</g>
<!-- Node17 -->
<g id="Node000017" class="node">
<title>Node17</title>
<g id="a_Node000017"><a xlink:href="unaligned_8h.html" target="_top" xlink:title="Unaligned but safe memory access functions.">
<polygon fill="white" stroke="#666666" points="382.52,-77.5 309.52,-77.5 309.52,-56.75 382.52,-56.75 382.52,-77.5"/>
<text text-anchor="middle" x="346.02" y="-64" font-family="Helvetica,sans-Serif" font-size="10.00">unaligned.h</text>
</a>
</g>
</g>
<!-- Node14&#45;&gt;Node17 -->
<g id="edge25_Node000014_Node000017" class="edge">
<title>Node14&#45;&gt;Node17</title>
<g id="a_edge25_Node000014_Node000017"><a xlink:title=" ">
<path fill="none" stroke="#63b8ff" d="M254.86,-113.09C271.91,-104.68 296.74,-92.43 316.18,-82.84"/>
<polygon fill="#63b8ff" stroke="#63b8ff" points="317.57,-86.06 324.99,-78.5 314.47,-79.78 317.57,-86.06"/>
</a>
</g>
</g>
<!-- Node16&#45;&gt;Node2 -->
<g id="edge24_Node000016_Node000002" class="edge">
<title>Node16&#45;&gt;Node2</title>
<g id="a_edge24_Node000016_Node000002"><a xlink:title=" ">
<path fill="none" stroke="#63b8ff" d="M291.28,-56.59C319.41,-47.42 362.05,-33.52 392.63,-23.56"/>
<polygon fill="#63b8ff" stroke="#63b8ff" points="393.44,-26.98 401.86,-20.55 391.27,-20.32 393.44,-26.98"/>
</a>
</g>
</g>
<!-- Node17&#45;&gt;Node2 -->
<g id="edge26_Node000017_Node000002" class="edge">
<title>Node17&#45;&gt;Node2</title>
<g id="a_edge26_Node000017_Node000002"><a xlink:title=" ">
<path fill="none" stroke="#63b8ff" d="M361.03,-56.34C373.46,-48.24 391.34,-36.58 405.79,-27.17"/>
<polygon fill="#63b8ff" stroke="#63b8ff" points="407.39,-30.3 413.86,-21.9 403.57,-24.43 407.39,-30.3"/>
</a>
</g>
</g>
<!-- Node18&#45;&gt;Node4 -->
<g id="edge28_Node000018_Node000004" class="edge">
<title>Node18&#45;&gt;Node4</title>
<g id="a_edge28_Node000018_Node000004"><a xlink:title=" ">
<path fill="none" stroke="#63b8ff" d="M68.05,-226.87C77.62,-208.77 98.65,-169.03 111.45,-144.85"/>
<polygon fill="#63b8ff" stroke="#63b8ff" points="114.54,-146.49 116.12,-136.01 108.35,-143.21 114.54,-146.49"/>
</a>
</g>
</g>
<!-- Node18&#45;&gt;Node13 -->
<g id="edge31_Node000018_Node000013" class="edge">
<title>Node18&#45;&gt;Node13</title>
<g id="a_edge31_Node000018_Node000013"><a xlink:title=" ">
<path fill="none" stroke="#63b8ff" d="M105.3,-226.52C144.28,-217.44 202.3,-203.92 244.5,-194.09"/>
<polygon fill="#63b8ff" stroke="#63b8ff" points="245.26,-197.51 254.2,-191.83 243.67,-190.69 245.26,-197.51"/>
</a>
</g>
</g>
<!-- Node18&#45;&gt;Node14 -->
<g id="edge30_Node000018_Node000014" class="edge">
<title>Node18&#45;&gt;Node14</title>
<g id="a_edge30_Node000018_Node000014"><a xlink:title=" ">
<path fill="none" stroke="#63b8ff" d="M77.98,-226.68C107.71,-207.4 174.48,-164.12 210.63,-140.68"/>
<polygon fill="#63b8ff" stroke="#63b8ff" points="212.21,-143.83 218.7,-135.46 208.4,-137.96 212.21,-143.83"/>
</a>
</g>
</g>
<!-- Node18&#45;&gt;Node15 -->
<g id="edge29_Node000018_Node000015" class="edge">
<title>Node18&#45;&gt;Node15</title>
<g id="a_edge29_Node000018_Node000015"><a xlink:title=" ">
<path fill="none" stroke="#63b8ff" d="M62.54,-226.52C61.92,-204.83 62.66,-151.85 82.02,-113.5 87.51,-102.62 96.57,-92.72 105.13,-84.97"/>
<polygon fill="#63b8ff" stroke="#63b8ff" points="107.17,-87.82 112.54,-78.69 102.65,-82.48 107.17,-87.82"/>
</a>
</g>
</g>
</g>
</svg>
