<?xml version="1.0" encoding="UTF-8" standalone="no"?>
<!DOCTYPE svg PUBLIC "-//W3C//DTD SVG 1.1//EN"
 "http://www.w3.org/Graphics/SVG/1.1/DTD/svg11.dtd">
<!-- Generated by graphviz version 12.1.2 (0)
 -->
<!-- Title: drivers/include/enc28j60.h Pages: 1 -->
<svg width="1546pt" height="483pt"
 viewBox="0.00 0.00 1546.28 482.75" xmlns="http://www.w3.org/2000/svg" xmlns:xlink="http://www.w3.org/1999/xlink">
<g id="graph0" class="graph" transform="scale(1 1) rotate(0) translate(4 478.75)">
<title>drivers/include/enc28j60.h</title>
<!-- Node1 -->
<g id="Node000001" class="node">
<title>Node1</title>
<g id="a_Node000001"><a xlink:title="Interface definition for the ENC28J60 driver .">
<polygon fill="#999999" stroke="#666666" points="1236.4,-474.75 1092.15,-474.75 1092.15,-454 1236.4,-454 1236.4,-474.75"/>
<text text-anchor="middle" x="1164.28" y="-461.25" font-family="Helvetica,sans-Serif" font-size="10.00">drivers/include/enc28j60.h</text>
</a>
</g>
</g>
<!-- Node2 -->
<g id="Node000002" class="node">
<title>Node2</title>
<g id="a_Node000002"><a xlink:title=" ">
<polygon fill="#e0e0e0" stroke="#999999" points="859.65,-20.75 806.9,-20.75 806.9,0 859.65,0 859.65,-20.75"/>
<text text-anchor="middle" x="833.28" y="-7.25" font-family="Helvetica,sans-Serif" font-size="10.00">stdint.h</text>
</a>
</g>
</g>
<!-- Node1&#45;&gt;Node2 -->
<g id="edge1_Node000001_Node000002" class="edge">
<title>Node1&#45;&gt;Node2</title>
<g id="a_edge1_Node000001_Node000002"><a xlink:title=" ">
<path fill="none" stroke="#63b8ff" d="M1236.83,-456.62C1345.6,-444.46 1538.28,-414.12 1538.28,-351.88 1538.28,-351.88 1538.28,-351.88 1538.28,-122.88 1538.28,-54.78 1018.47,-21.42 871.54,-13.35"/>
<polygon fill="#63b8ff" stroke="#63b8ff" points="871.74,-9.85 861.57,-12.81 871.36,-16.84 871.74,-9.85"/>
</a>
</g>
</g>
<!-- Node3 -->
<g id="Node000003" class="node">
<title>Node3</title>
<g id="a_Node000003"><a xlink:href="mutex_8h.html" target="_top" xlink:title="Mutex for thread synchronization.">
<polygon fill="white" stroke="#666666" points="340.53,-418 284.03,-418 284.03,-397.25 340.53,-397.25 340.53,-418"/>
<text text-anchor="middle" x="312.28" y="-404.5" font-family="Helvetica,sans-Serif" font-size="10.00">mutex.h</text>
</a>
</g>
</g>
<!-- Node1&#45;&gt;Node3 -->
<g id="edge2_Node000001_Node000003" class="edge">
<title>Node1&#45;&gt;Node3</title>
<g id="a_edge2_Node000001_Node000003"><a xlink:title=" ">
<path fill="none" stroke="#63b8ff" d="M1092.01,-458.73C919.03,-447.61 485.67,-419.77 352.11,-411.18"/>
<polygon fill="#63b8ff" stroke="#63b8ff" points="352.56,-407.71 342.36,-410.56 352.11,-414.69 352.56,-407.71"/>
</a>
</g>
</g>
<!-- Node26 -->
<g id="Node000026" class="node">
<title>Node26</title>
<g id="a_Node000026"><a xlink:href="spi_8h.html" target="_top" xlink:title="Low&#45;level SPI peripheral driver interface definition.">
<polygon fill="white" stroke="#666666" points="1132.78,-247.75 1059.78,-247.75 1059.78,-227 1132.78,-227 1132.78,-247.75"/>
<text text-anchor="middle" x="1096.28" y="-234.25" font-family="Helvetica,sans-Serif" font-size="10.00">periph/spi.h</text>
</a>
</g>
</g>
<!-- Node1&#45;&gt;Node26 -->
<g id="edge44_Node000001_Node000026" class="edge">
<title>Node1&#45;&gt;Node26</title>
<g id="a_edge44_Node000001_Node000026"><a xlink:title=" ">
<path fill="none" stroke="#63b8ff" d="M1161.26,-453.64C1158.41,-444.46 1154.03,-430.3 1150.28,-418 1132.7,-360.29 1112.29,-292.04 1102.35,-258.73"/>
<polygon fill="#63b8ff" stroke="#63b8ff" points="1105.83,-258.15 1099.61,-249.57 1099.12,-260.15 1105.83,-258.15"/>
</a>
</g>
</g>
<!-- Node31 -->
<g id="Node000031" class="node">
<title>Node31</title>
<g id="a_Node000031"><a xlink:href="drivers_2include_2periph_2gpio_8h.html" target="_top" xlink:title="Low&#45;level GPIO peripheral driver interface definitions.">
<polygon fill="white" stroke="#666666" points="1204.15,-191 1124.4,-191 1124.4,-170.25 1204.15,-170.25 1204.15,-191"/>
<text text-anchor="middle" x="1164.28" y="-177.5" font-family="Helvetica,sans-Serif" font-size="10.00">periph/gpio.h</text>
</a>
</g>
</g>
<!-- Node1&#45;&gt;Node31 -->
<g id="edge57_Node000001_Node000031" class="edge">
<title>Node1&#45;&gt;Node31</title>
<g id="a_edge57_Node000001_Node000031"><a xlink:title=" ">
<path fill="none" stroke="#63b8ff" d="M1164.28,-453.53C1164.28,-434.1 1164.28,-389.43 1164.28,-351.88 1164.28,-351.88 1164.28,-351.88 1164.28,-293.12 1164.28,-261.73 1164.28,-225.37 1164.28,-202.93"/>
<polygon fill="#63b8ff" stroke="#63b8ff" points="1167.78,-202.98 1164.28,-192.98 1160.78,-202.98 1167.78,-202.98"/>
</a>
</g>
</g>
<!-- Node32 -->
<g id="Node000032" class="node">
<title>Node32</title>
<g id="a_Node000032"><a xlink:href="drivers_2include_2net_2netdev_8h.html" target="_top" xlink:title="Definitions low&#45;level network driver interface.">
<polygon fill="white" stroke="#666666" points="1363.65,-247.75 1286.9,-247.75 1286.9,-227 1363.65,-227 1363.65,-247.75"/>
<text text-anchor="middle" x="1325.28" y="-234.25" font-family="Helvetica,sans-Serif" font-size="10.00">net/netdev.h</text>
</a>
</g>
</g>
<!-- Node1&#45;&gt;Node32 -->
<g id="edge58_Node000001_Node000032" class="edge">
<title>Node1&#45;&gt;Node32</title>
<g id="a_edge58_Node000001_Node000032"><a xlink:title=" ">
<path fill="none" stroke="#63b8ff" d="M1171.2,-453.71C1195.76,-419.38 1279.07,-302.95 1311.86,-257.13"/>
<polygon fill="#63b8ff" stroke="#63b8ff" points="1314.53,-259.41 1317.51,-249.24 1308.84,-255.33 1314.53,-259.41"/>
</a>
</g>
</g>
<!-- Node3&#45;&gt;Node2 -->
<g id="edge4_Node000003_Node000002" class="edge">
<title>Node3&#45;&gt;Node2</title>
<g id="a_edge4_Node000003_Node000002"><a xlink:title=" ">
<path fill="none" stroke="#63b8ff" d="M283.64,-406.83C217.21,-405.65 58.28,-392.65 58.28,-295.12 58.28,-295.12 58.28,-295.12 58.28,-122.88 58.28,-111.39 -148.09,-143.5 217.28,-56.75 328,-30.46 678.53,-16.57 795.14,-12.59"/>
<polygon fill="#63b8ff" stroke="#63b8ff" points="795.23,-16.09 805.11,-12.26 794.99,-9.1 795.23,-16.09"/>
</a>
</g>
</g>
<!-- Node4 -->
<g id="Node000004" class="node">
<title>Node4</title>
<g id="a_Node000004"><a xlink:title=" ">
<polygon fill="#e0e0e0" stroke="#999999" points="457.78,-77.5 402.78,-77.5 402.78,-56.75 457.78,-56.75 457.78,-77.5"/>
<text text-anchor="middle" x="430.28" y="-64" font-family="Helvetica,sans-Serif" font-size="10.00">stddef.h</text>
</a>
</g>
</g>
<!-- Node3&#45;&gt;Node4 -->
<g id="edge3_Node000003_Node000004" class="edge">
<title>Node3&#45;&gt;Node4</title>
<g id="a_edge3_Node000003_Node000004"><a xlink:title=" ">
<path fill="none" stroke="#63b8ff" d="M295.52,-396.75C283.6,-388.77 268.31,-376.38 260.28,-361.25 220.26,-285.86 191.78,-240.49 240.28,-170.25 265.93,-133.09 295.34,-155.31 335.28,-134.25 349.9,-126.54 384.96,-101.44 408.15,-84.47"/>
<polygon fill="#63b8ff" stroke="#63b8ff" points="410.06,-87.41 416.05,-78.67 405.92,-81.77 410.06,-87.41"/>
</a>
</g>
</g>
<!-- Node5 -->
<g id="Node000005" class="node">
<title>Node5</title>
<g id="a_Node000005"><a xlink:title=" ">
<polygon fill="#e0e0e0" stroke="#999999" points="731.78,-134.25 670.78,-134.25 670.78,-113.5 731.78,-113.5 731.78,-134.25"/>
<text text-anchor="middle" x="701.28" y="-120.75" font-family="Helvetica,sans-Serif" font-size="10.00">stdbool.h</text>
</a>
</g>
</g>
<!-- Node3&#45;&gt;Node5 -->
<g id="edge5_Node000003_Node000005" class="edge">
<title>Node3&#45;&gt;Node5</title>
<g id="a_edge5_Node000003_Node000005"><a xlink:title=" ">
<path fill="none" stroke="#63b8ff" d="M340.92,-402.92C418.84,-392.21 631.49,-358.47 672.28,-304.5 693.05,-277.02 684.77,-259.1 672.28,-227 664.41,-206.77 647.15,-211.23 639.28,-191 635.94,-182.41 635.11,-178.47 639.28,-170.25 645.67,-157.65 657.4,-147.7 668.94,-140.38"/>
<polygon fill="#63b8ff" stroke="#63b8ff" points="670.69,-143.41 677.59,-135.37 667.19,-137.35 670.69,-143.41"/>
</a>
</g>
</g>
<!-- Node6 -->
<g id="Node000006" class="node">
<title>Node6</title>
<g id="a_Node000006"><a xlink:href="architecture_8h.html" target="_top" xlink:title="Platform&#45;independent access to architecture details.">
<polygon fill="white" stroke="#666666" points="827.03,-247.75 743.53,-247.75 743.53,-227 827.03,-227 827.03,-247.75"/>
<text text-anchor="middle" x="785.28" y="-234.25" font-family="Helvetica,sans-Serif" font-size="10.00">architecture.h</text>
</a>
</g>
</g>
<!-- Node3&#45;&gt;Node6 -->
<g id="edge6_Node000003_Node000006" class="edge">
<title>Node3&#45;&gt;Node6</title>
<g id="a_edge6_Node000003_Node000006"><a xlink:title=" ">
<path fill="none" stroke="#63b8ff" d="M340.98,-406.42C420.93,-405.37 644.25,-399.03 705.28,-361.25 743.91,-337.33 767.57,-287.03 778.35,-258.76"/>
<polygon fill="#63b8ff" stroke="#63b8ff" points="781.56,-260.16 781.67,-249.56 774.98,-257.78 781.56,-260.16"/>
</a>
</g>
</g>
<!-- Node10 -->
<g id="Node000010" class="node">
<title>Node10</title>
<g id="a_Node000010"><a xlink:href="kernel__defines_8h.html" target="_top" xlink:title="Common macros and compiler attributes/pragmas configuration.">
<polygon fill="white" stroke="#666666" points="554.4,-191 458.15,-191 458.15,-170.25 554.4,-170.25 554.4,-191"/>
<text text-anchor="middle" x="506.28" y="-177.5" font-family="Helvetica,sans-Serif" font-size="10.00">kernel_defines.h</text>
</a>
</g>
</g>
<!-- Node3&#45;&gt;Node10 -->
<g id="edge11_Node000003_Node000010" class="edge">
<title>Node3&#45;&gt;Node10</title>
<g id="a_edge11_Node000003_Node000010"><a xlink:title=" ">
<path fill="none" stroke="#63b8ff" d="M302.79,-397.06C282.6,-375.51 239.19,-322.07 264.28,-283.75 304.26,-222.67 388.86,-198.05 446.65,-188.17"/>
<polygon fill="#63b8ff" stroke="#63b8ff" points="447.01,-191.66 456.34,-186.62 445.91,-184.74 447.01,-191.66"/>
</a>
</g>
</g>
<!-- Node16 -->
<g id="Node000016" class="node">
<title>Node16</title>
<g id="a_Node000016"><a xlink:href="list_8h.html" target="_top" xlink:title="Intrusive linked list.">
<polygon fill="white" stroke="#666666" points="129.28,-134.25 89.28,-134.25 89.28,-113.5 129.28,-113.5 129.28,-134.25"/>
<text text-anchor="middle" x="109.28" y="-120.75" font-family="Helvetica,sans-Serif" font-size="10.00">list.h</text>
</a>
</g>
</g>
<!-- Node3&#45;&gt;Node16 -->
<g id="edge22_Node000003_Node000016" class="edge">
<title>Node3&#45;&gt;Node16</title>
<g id="a_edge22_Node000003_Node000016"><a xlink:title=" ">
<path fill="none" stroke="#63b8ff" d="M283.55,-403.2C236.11,-397.02 144.26,-382.6 120.28,-361.25 96.93,-340.46 96.28,-326.39 96.28,-295.12 96.28,-295.12 96.28,-295.12 96.28,-236.38 96.28,-204.62 101.55,-168.12 105.37,-145.78"/>
<polygon fill="#63b8ff" stroke="#63b8ff" points="108.78,-146.62 107.09,-136.16 101.89,-145.39 108.78,-146.62"/>
</a>
</g>
</g>
<!-- Node17 -->
<g id="Node000017" class="node">
<title>Node17</title>
<g id="a_Node000017"><a xlink:href="core_2include_2thread_8h.html" target="_top" xlink:title="Threading API.">
<polygon fill="white" stroke="#666666" points="407.53,-361.25 351.03,-361.25 351.03,-340.5 407.53,-340.5 407.53,-361.25"/>
<text text-anchor="middle" x="379.28" y="-347.75" font-family="Helvetica,sans-Serif" font-size="10.00">thread.h</text>
</a>
</g>
</g>
<!-- Node3&#45;&gt;Node17 -->
<g id="edge23_Node000003_Node000017" class="edge">
<title>Node3&#45;&gt;Node17</title>
<g id="a_edge23_Node000003_Node000017"><a xlink:title=" ">
<path fill="none" stroke="#63b8ff" d="M324.26,-396.84C333.79,-389.05 347.34,-377.97 358.61,-368.76"/>
<polygon fill="#63b8ff" stroke="#63b8ff" points="360.7,-371.57 366.23,-362.54 356.27,-366.15 360.7,-371.57"/>
</a>
</g>
</g>
<!-- Node6&#45;&gt;Node2 -->
<g id="edge7_Node000006_Node000002" class="edge">
<title>Node6&#45;&gt;Node2</title>
<g id="a_edge7_Node000006_Node000002"><a xlink:title=" ">
<path fill="none" stroke="#63b8ff" d="M808.68,-226.66C823.24,-219.23 840.77,-207.46 849.28,-191 876.28,-138.75 855.04,-66.46 841.82,-31.68"/>
<polygon fill="#63b8ff" stroke="#63b8ff" points="845.09,-30.43 838.13,-22.44 838.59,-33.02 845.09,-30.43"/>
</a>
</g>
</g>
<!-- Node7 -->
<g id="Node000007" class="node">
<title>Node7</title>
<g id="a_Node000007"><a xlink:href="inttypes_8h.html" target="_top" xlink:title="Adds include for missing inttype definitions.">
<polygon fill="white" stroke="#666666" points="712.65,-191 647.9,-191 647.9,-170.25 712.65,-170.25 712.65,-191"/>
<text text-anchor="middle" x="680.28" y="-177.5" font-family="Helvetica,sans-Serif" font-size="10.00">inttypes.h</text>
</a>
</g>
</g>
<!-- Node6&#45;&gt;Node7 -->
<g id="edge8_Node000006_Node000007" class="edge">
<title>Node6&#45;&gt;Node7</title>
<g id="a_edge8_Node000006_Node000007"><a xlink:title=" ">
<path fill="none" stroke="#63b8ff" d="M766.51,-226.59C750.53,-218.26 727.33,-206.16 709.01,-196.61"/>
<polygon fill="#63b8ff" stroke="#63b8ff" points="710.72,-193.55 700.23,-192.03 707.48,-199.76 710.72,-193.55"/>
</a>
</g>
</g>
<!-- Node8 -->
<g id="Node000008" class="node">
<title>Node8</title>
<g id="a_Node000008"><a xlink:title=" ">
<polygon fill="#e0e0e0" stroke="#999999" points="992.65,-134.25 939.9,-134.25 939.9,-113.5 992.65,-113.5 992.65,-134.25"/>
<text text-anchor="middle" x="966.28" y="-120.75" font-family="Helvetica,sans-Serif" font-size="10.00">limits.h</text>
</a>
</g>
</g>
<!-- Node6&#45;&gt;Node8 -->
<g id="edge9_Node000006_Node000008" class="edge">
<title>Node6&#45;&gt;Node8</title>
<g id="a_edge9_Node000006_Node000008"><a xlink:title=" ">
<path fill="none" stroke="#63b8ff" d="M827.49,-229.39C855.89,-223.06 892.98,-211.48 920.28,-191 936.5,-178.83 949.11,-159.23 956.99,-144.52"/>
<polygon fill="#63b8ff" stroke="#63b8ff" points="960.02,-146.28 961.39,-135.78 953.77,-143.13 960.02,-146.28"/>
</a>
</g>
</g>
<!-- Node9 -->
<g id="Node000009" class="node">
<title>Node9</title>
<g id="a_Node000009"><a xlink:title=" ">
<polygon fill="#e0e0e0" stroke="#999999" points="840.15,-191 730.4,-191 730.4,-170.25 840.15,-170.25 840.15,-191"/>
<text text-anchor="middle" x="785.28" y="-177.5" font-family="Helvetica,sans-Serif" font-size="10.00">architecture_arch.h</text>
</a>
</g>
</g>
<!-- Node6&#45;&gt;Node9 -->
<g id="edge10_Node000006_Node000009" class="edge">
<title>Node6&#45;&gt;Node9</title>
<g id="a_edge10_Node000006_Node000009"><a xlink:title=" ">
<path fill="none" stroke="#63b8ff" d="M785.28,-226.59C785.28,-219.97 785.28,-210.97 785.28,-202.77"/>
<polygon fill="#63b8ff" stroke="#63b8ff" points="788.78,-202.84 785.28,-192.84 781.78,-202.84 788.78,-202.84"/>
</a>
</g>
</g>
<!-- Node11 -->
<g id="Node000011" class="node">
<title>Node11</title>
<g id="a_Node000011"><a xlink:href="modules_8h.html" target="_top" xlink:title="Common macros and compiler attributes/pragmas configuration.">
<polygon fill="white" stroke="#666666" points="563.78,-134.25 496.78,-134.25 496.78,-113.5 563.78,-113.5 563.78,-134.25"/>
<text text-anchor="middle" x="530.28" y="-120.75" font-family="Helvetica,sans-Serif" font-size="10.00">modules.h</text>
</a>
</g>
</g>
<!-- Node10&#45;&gt;Node11 -->
<g id="edge12_Node000010_Node000011" class="edge">
<title>Node10&#45;&gt;Node11</title>
<g id="a_edge12_Node000010_Node000011"><a xlink:title=" ">
<path fill="none" stroke="#63b8ff" d="M510.57,-169.84C513.61,-162.91 517.79,-153.37 521.52,-144.86"/>
<polygon fill="#63b8ff" stroke="#63b8ff" points="524.61,-146.53 525.42,-135.96 518.2,-143.72 524.61,-146.53"/>
</a>
</g>
</g>
<!-- Node12 -->
<g id="Node000012" class="node">
<title>Node12</title>
<g id="a_Node000012"><a xlink:href="riot__version_8h.html" target="_top" xlink:title="Common macros and compiler attributes/pragmas configuration.">
<polygon fill="white" stroke="#666666" points="573.65,-77.5 490.9,-77.5 490.9,-56.75 573.65,-56.75 573.65,-77.5"/>
<text text-anchor="middle" x="532.28" y="-64" font-family="Helvetica,sans-Serif" font-size="10.00">riot_version.h</text>
</a>
</g>
</g>
<!-- Node10&#45;&gt;Node12 -->
<g id="edge13_Node000010_Node000012" class="edge">
<title>Node10&#45;&gt;Node12</title>
<g id="a_edge13_Node000010_Node000012"><a xlink:title=" ">
<path fill="none" stroke="#63b8ff" d="M499.8,-169.97C491.87,-156.88 480.42,-132.91 488.28,-113.5 492.7,-102.6 501.13,-92.87 509.45,-85.24"/>
<polygon fill="#63b8ff" stroke="#63b8ff" points="511.68,-87.93 517.07,-78.81 507.17,-82.58 511.68,-87.93"/>
</a>
</g>
</g>
<!-- Node13 -->
<g id="Node000013" class="node">
<title>Node13</title>
<g id="a_Node000013"><a xlink:href="compiler__hints_8h.html" target="_top" xlink:title="Common macros and compiler attributes/pragmas configuration.">
<polygon fill="white" stroke="#666666" points="325.78,-134.25 228.78,-134.25 228.78,-113.5 325.78,-113.5 325.78,-134.25"/>
<text text-anchor="middle" x="277.28" y="-120.75" font-family="Helvetica,sans-Serif" font-size="10.00">compiler_hints.h</text>
</a>
</g>
</g>
<!-- Node10&#45;&gt;Node13 -->
<g id="edge15_Node000010_Node000013" class="edge">
<title>Node10&#45;&gt;Node13</title>
<g id="a_edge15_Node000010_Node000013"><a xlink:title=" ">
<path fill="none" stroke="#63b8ff" d="M465.07,-169.77C427.17,-160.71 370.79,-147.23 329.7,-137.41"/>
<polygon fill="#63b8ff" stroke="#63b8ff" points="330.55,-134.01 320.01,-135.09 328.92,-140.82 330.55,-134.01"/>
</a>
</g>
</g>
<!-- Node15 -->
<g id="Node000015" class="node">
<title>Node15</title>
<g id="a_Node000015"><a xlink:href="container_8h.html" target="_top" xlink:title="Common macros and compiler attributes/pragmas configuration.">
<polygon fill="white" stroke="#666666" points="652.65,-134.25 581.9,-134.25 581.9,-113.5 652.65,-113.5 652.65,-134.25"/>
<text text-anchor="middle" x="617.28" y="-120.75" font-family="Helvetica,sans-Serif" font-size="10.00">container.h</text>
</a>
</g>
</g>
<!-- Node10&#45;&gt;Node15 -->
<g id="edge19_Node000010_Node000015" class="edge">
<title>Node10&#45;&gt;Node15</title>
<g id="a_edge19_Node000010_Node000015"><a xlink:title=" ">
<path fill="none" stroke="#63b8ff" d="M526.12,-169.84C543.17,-161.43 568,-149.18 587.44,-139.59"/>
<polygon fill="#63b8ff" stroke="#63b8ff" points="588.83,-142.81 596.25,-135.25 585.73,-136.53 588.83,-142.81"/>
</a>
</g>
</g>
<!-- Node12&#45;&gt;Node2 -->
<g id="edge14_Node000012_Node000002" class="edge">
<title>Node12&#45;&gt;Node2</title>
<g id="a_edge14_Node000012_Node000002"><a xlink:title=" ">
<path fill="none" stroke="#63b8ff" d="M574.13,-58.51C632.8,-47.84 738.62,-28.59 795.19,-18.3"/>
<polygon fill="#63b8ff" stroke="#63b8ff" points="795.78,-21.75 804.99,-16.52 794.52,-14.87 795.78,-21.75"/>
</a>
</g>
</g>
<!-- Node13&#45;&gt;Node2 -->
<g id="edge18_Node000013_Node000002" class="edge">
<title>Node13&#45;&gt;Node2</title>
<g id="a_edge18_Node000013_Node000002"><a xlink:title=" ">
<path fill="none" stroke="#63b8ff" d="M290.13,-113.22C310.83,-98.25 353.38,-69.79 394.28,-56.75 468.67,-33.03 702.88,-18.32 795.27,-13.31"/>
<polygon fill="#63b8ff" stroke="#63b8ff" points="795.26,-16.81 805.06,-12.78 794.89,-9.82 795.26,-16.81"/>
</a>
</g>
</g>
<!-- Node14 -->
<g id="Node000014" class="node">
<title>Node14</title>
<g id="a_Node000014"><a xlink:href="assert_8h.html" target="_top" xlink:title="POSIX.1&#45;2008 compliant version of the assert macro.">
<polygon fill="white" stroke="#666666" points="304.78,-77.5 249.78,-77.5 249.78,-56.75 304.78,-56.75 304.78,-77.5"/>
<text text-anchor="middle" x="277.28" y="-64" font-family="Helvetica,sans-Serif" font-size="10.00">assert.h</text>
</a>
</g>
</g>
<!-- Node13&#45;&gt;Node14 -->
<g id="edge16_Node000013_Node000014" class="edge">
<title>Node13&#45;&gt;Node14</title>
<g id="a_edge16_Node000013_Node000014"><a xlink:title=" ">
<path fill="none" stroke="#63b8ff" d="M277.28,-113.09C277.28,-106.47 277.28,-97.47 277.28,-89.27"/>
<polygon fill="#63b8ff" stroke="#63b8ff" points="280.78,-89.34 277.28,-79.34 273.78,-89.34 280.78,-89.34"/>
</a>
</g>
</g>
<!-- Node14&#45;&gt;Node2 -->
<g id="edge17_Node000014_Node000002" class="edge">
<title>Node14&#45;&gt;Node2</title>
<g id="a_edge17_Node000014_Node000002"><a xlink:title=" ">
<path fill="none" stroke="#63b8ff" d="M305.15,-61.64C316.08,-59.96 328.75,-58.14 340.28,-56.75 509.46,-36.39 712.27,-20.35 795.16,-14.15"/>
<polygon fill="#63b8ff" stroke="#63b8ff" points="795.28,-17.65 804.99,-13.42 794.76,-10.67 795.28,-17.65"/>
</a>
</g>
</g>
<!-- Node15&#45;&gt;Node2 -->
<g id="edge21_Node000015_Node000002" class="edge">
<title>Node15&#45;&gt;Node2</title>
<g id="a_edge21_Node000015_Node000002"><a xlink:title=" ">
<path fill="none" stroke="#63b8ff" d="M636.07,-113.18C673.89,-93.65 759.41,-49.51 804.39,-26.29"/>
<polygon fill="#63b8ff" stroke="#63b8ff" points="805.75,-29.52 813.03,-21.83 802.54,-23.3 805.75,-29.52"/>
</a>
</g>
</g>
<!-- Node15&#45;&gt;Node4 -->
<g id="edge20_Node000015_Node000004" class="edge">
<title>Node15&#45;&gt;Node4</title>
<g id="a_edge20_Node000015_Node000004"><a xlink:title=" ">
<path fill="none" stroke="#63b8ff" d="M583.85,-113.09C551.66,-103.66 503.01,-89.42 469.12,-79.5"/>
<polygon fill="#63b8ff" stroke="#63b8ff" points="470.27,-76.19 459.69,-76.74 468.31,-82.91 470.27,-76.19"/>
</a>
</g>
</g>
<!-- Node18 -->
<g id="Node000018" class="node">
<title>Node18</title>
<g id="a_Node000018"><a xlink:href="clist_8h.html" target="_top" xlink:title="Circular linked list.">
<polygon fill="white" stroke="#666666" points="294.9,-191 249.65,-191 249.65,-170.25 294.9,-170.25 294.9,-191"/>
<text text-anchor="middle" x="272.28" y="-177.5" font-family="Helvetica,sans-Serif" font-size="10.00">clist.h</text>
</a>
</g>
</g>
<!-- Node17&#45;&gt;Node18 -->
<g id="edge24_Node000017_Node000018" class="edge">
<title>Node17&#45;&gt;Node18</title>
<g id="a_edge24_Node000017_Node000018"><a xlink:title=" ">
<path fill="none" stroke="#63b8ff" d="M373.22,-340.35C356.16,-313.52 307.47,-236.96 284.53,-200.88"/>
<polygon fill="#63b8ff" stroke="#63b8ff" points="287.67,-199.3 279.35,-192.74 281.76,-203.06 287.67,-199.3"/>
</a>
</g>
</g>
<!-- Node19 -->
<g id="Node000019" class="node">
<title>Node19</title>
<g id="a_Node000019"><a xlink:href="cib_8h.html" target="_top" xlink:title="Circular integer buffer interface.">
<polygon fill="white" stroke="#666666" points="312.9,-304.5 273.65,-304.5 273.65,-283.75 312.9,-283.75 312.9,-304.5"/>
<text text-anchor="middle" x="293.28" y="-291" font-family="Helvetica,sans-Serif" font-size="10.00">cib.h</text>
</a>
</g>
</g>
<!-- Node17&#45;&gt;Node19 -->
<g id="edge28_Node000017_Node000019" class="edge">
<title>Node17&#45;&gt;Node19</title>
<g id="a_edge28_Node000017_Node000019"><a xlink:title=" ">
<path fill="none" stroke="#63b8ff" d="M363.9,-340.09C351.19,-331.99 332.88,-320.33 318.09,-310.92"/>
<polygon fill="#63b8ff" stroke="#63b8ff" points="320.11,-308.06 309.8,-305.64 316.35,-313.96 320.11,-308.06"/>
</a>
</g>
</g>
<!-- Node20 -->
<g id="Node000020" class="node">
<title>Node20</title>
<g id="a_Node000020"><a xlink:href="core_2include_2msg_8h.html" target="_top" xlink:title="Messaging API for inter process communication.">
<polygon fill="white" stroke="#666666" points="453.28,-304.5 407.28,-304.5 407.28,-283.75 453.28,-283.75 453.28,-304.5"/>
<text text-anchor="middle" x="430.28" y="-291" font-family="Helvetica,sans-Serif" font-size="10.00">msg.h</text>
</a>
</g>
</g>
<!-- Node17&#45;&gt;Node20 -->
<g id="edge30_Node000017_Node000020" class="edge">
<title>Node17&#45;&gt;Node20</title>
<g id="a_edge30_Node000017_Node000020"><a xlink:title=" ">
<path fill="none" stroke="#63b8ff" d="M388.4,-340.09C395.36,-332.61 405.15,-322.11 413.51,-313.13"/>
<polygon fill="#63b8ff" stroke="#63b8ff" points="415.95,-315.64 420.21,-305.94 410.83,-310.87 415.95,-315.64"/>
</a>
</g>
</g>
<!-- Node21 -->
<g id="Node000021" class="node">
<title>Node21</title>
<g id="a_Node000021"><a xlink:href="sched_8h.html" target="_top" xlink:title="Scheduler API definition.">
<polygon fill="white" stroke="#666666" points="457.03,-247.75 403.53,-247.75 403.53,-227 457.03,-227 457.03,-247.75"/>
<text text-anchor="middle" x="430.28" y="-234.25" font-family="Helvetica,sans-Serif" font-size="10.00">sched.h</text>
</a>
</g>
</g>
<!-- Node17&#45;&gt;Node21 -->
<g id="edge39_Node000017_Node000021" class="edge">
<title>Node17&#45;&gt;Node21</title>
<g id="a_edge39_Node000017_Node000021"><a xlink:title=" ">
<path fill="none" stroke="#63b8ff" d="M381.02,-340.09C383.62,-326.85 389.19,-302.71 398.28,-283.75 402.73,-274.46 409.05,-265.02 414.89,-257.17"/>
<polygon fill="#63b8ff" stroke="#63b8ff" points="417.55,-259.45 420.93,-249.41 412.03,-255.15 417.55,-259.45"/>
</a>
</g>
</g>
<!-- Node23 -->
<g id="Node000023" class="node">
<title>Node23</title>
<g id="a_Node000023"><a xlink:href="thread__config_8h.html" target="_top" xlink:title="Thread configuration defines.">
<polygon fill="white" stroke="#666666" points="663.15,-304.5 571.4,-304.5 571.4,-283.75 663.15,-283.75 663.15,-304.5"/>
<text text-anchor="middle" x="617.28" y="-291" font-family="Helvetica,sans-Serif" font-size="10.00">thread_config.h</text>
</a>
</g>
</g>
<!-- Node17&#45;&gt;Node23 -->
<g id="edge40_Node000017_Node000023" class="edge">
<title>Node17&#45;&gt;Node23</title>
<g id="a_edge40_Node000017_Node000023"><a xlink:title=" ">
<path fill="none" stroke="#63b8ff" d="M407.99,-343.27C446.33,-334.45 515.02,-318.65 563.21,-307.56"/>
<polygon fill="#63b8ff" stroke="#63b8ff" points="563.95,-310.98 572.91,-305.33 562.38,-304.16 563.95,-310.98"/>
</a>
</g>
</g>
<!-- Node25 -->
<g id="Node000025" class="node">
<title>Node25</title>
<g id="a_Node000025"><a xlink:title=" ">
<polygon fill="#e0e0e0" stroke="#999999" points="553.65,-304.5 470.9,-304.5 470.9,-283.75 553.65,-283.75 553.65,-304.5"/>
<text text-anchor="middle" x="512.28" y="-291" font-family="Helvetica,sans-Serif" font-size="10.00">thread_arch.h</text>
</a>
</g>
</g>
<!-- Node17&#45;&gt;Node25 -->
<g id="edge43_Node000017_Node000025" class="edge">
<title>Node17&#45;&gt;Node25</title>
<g id="a_edge43_Node000017_Node000025"><a xlink:title=" ">
<path fill="none" stroke="#63b8ff" d="M403.06,-340.09C423.96,-331.48 454.62,-318.86 478.14,-309.18"/>
<polygon fill="#63b8ff" stroke="#63b8ff" points="479.39,-312.45 487.31,-305.4 476.73,-305.97 479.39,-312.45"/>
</a>
</g>
</g>
<!-- Node18&#45;&gt;Node4 -->
<g id="edge26_Node000018_Node000004" class="edge">
<title>Node18&#45;&gt;Node4</title>
<g id="a_edge26_Node000018_Node000004"><a xlink:title=" ">
<path fill="none" stroke="#63b8ff" d="M295.32,-171.56C315.64,-163.82 345.48,-150.86 368.28,-134.25 386.88,-120.7 404.47,-101.05 416.12,-86.69"/>
<polygon fill="#63b8ff" stroke="#63b8ff" points="418.8,-88.95 422.25,-78.93 413.31,-84.61 418.8,-88.95"/>
</a>
</g>
</g>
<!-- Node18&#45;&gt;Node5 -->
<g id="edge25_Node000018_Node000005" class="edge">
<title>Node18&#45;&gt;Node5</title>
<g id="a_edge25_Node000018_Node000005"><a xlink:title=" ">
<path fill="none" stroke="#63b8ff" d="M295.18,-172.16C297.89,-171.44 300.63,-170.78 303.28,-170.25 456.58,-139.66 501.53,-159.61 659.29,-134.36"/>
<polygon fill="#63b8ff" stroke="#63b8ff" points="659.56,-137.86 668.86,-132.79 658.42,-130.95 659.56,-137.86"/>
</a>
</g>
</g>
<!-- Node18&#45;&gt;Node16 -->
<g id="edge27_Node000018_Node000016" class="edge">
<title>Node18&#45;&gt;Node16</title>
<g id="a_edge27_Node000018_Node000016"><a xlink:title=" ">
<path fill="none" stroke="#63b8ff" d="M249.27,-171.9C220.82,-162.34 172.27,-146.03 140.49,-135.36"/>
<polygon fill="#63b8ff" stroke="#63b8ff" points="141.63,-132.05 131.04,-132.18 139.4,-138.68 141.63,-132.05"/>
</a>
</g>
</g>
<!-- Node19&#45;&gt;Node14 -->
<g id="edge29_Node000019_Node000014" class="edge">
<title>Node19&#45;&gt;Node14</title>
<g id="a_edge29_Node000019_Node000014"><a xlink:title=" ">
<path fill="none" stroke="#63b8ff" d="M286.52,-283.33C270.48,-259.3 230.67,-194.99 220.28,-134.25 218.72,-125.16 216.27,-121.81 220.28,-113.5 226.13,-101.37 236.96,-91.49 247.63,-84.08"/>
<polygon fill="#63b8ff" stroke="#63b8ff" points="249.39,-87.1 255.95,-78.78 245.64,-81.2 249.39,-87.1"/>
</a>
</g>
</g>
<!-- Node20&#45;&gt;Node2 -->
<g id="edge31_Node000020_Node000002" class="edge">
<title>Node20&#45;&gt;Node2</title>
<g id="a_edge31_Node000020_Node000002"><a xlink:title=" ">
<path fill="none" stroke="#63b8ff" d="M406.88,-286.65C367.08,-274.48 286.08,-244.47 240.28,-191 201.47,-145.68 193.65,-92.69 241.28,-56.75 285.42,-23.44 671.49,-14.09 795.27,-11.94"/>
<polygon fill="#63b8ff" stroke="#63b8ff" points="794.95,-15.44 804.89,-11.78 794.83,-8.45 794.95,-15.44"/>
</a>
</g>
</g>
<!-- Node20&#45;&gt;Node5 -->
<g id="edge32_Node000020_Node000005" class="edge">
<title>Node20&#45;&gt;Node5</title>
<g id="a_edge32_Node000020_Node000005"><a xlink:title=" ">
<path fill="none" stroke="#63b8ff" d="M442.62,-283.44C470.68,-261.66 541.88,-207.77 606.28,-170.25 626.08,-158.71 649.28,-147.59 667.79,-139.25"/>
<polygon fill="#63b8ff" stroke="#63b8ff" points="668.99,-142.54 676.71,-135.29 666.15,-136.15 668.99,-142.54"/>
</a>
</g>
</g>
<!-- Node20&#45;&gt;Node21 -->
<g id="edge33_Node000020_Node000021" class="edge">
<title>Node20&#45;&gt;Node21</title>
<g id="a_edge33_Node000020_Node000021"><a xlink:title=" ">
<path fill="none" stroke="#63b8ff" d="M430.28,-283.34C430.28,-276.72 430.28,-267.72 430.28,-259.52"/>
<polygon fill="#63b8ff" stroke="#63b8ff" points="433.78,-259.59 430.28,-249.59 426.78,-259.59 433.78,-259.59"/>
</a>
</g>
</g>
<!-- Node21&#45;&gt;Node4 -->
<g id="edge34_Node000021_Node000004" class="edge">
<title>Node21&#45;&gt;Node4</title>
<g id="a_edge34_Node000021_Node000004"><a xlink:title=" ">
<path fill="none" stroke="#63b8ff" d="M430.28,-226.85C430.28,-200.48 430.28,-126.08 430.28,-89.28"/>
<polygon fill="#63b8ff" stroke="#63b8ff" points="433.78,-89.48 430.28,-79.48 426.78,-89.48 433.78,-89.48"/>
</a>
</g>
</g>
<!-- Node21&#45;&gt;Node7 -->
<g id="edge35_Node000021_Node000007" class="edge">
<title>Node21&#45;&gt;Node7</title>
<g id="a_edge35_Node000021_Node000007"><a xlink:title=" ">
<path fill="none" stroke="#63b8ff" d="M457.51,-230.41C500.57,-220.98 584.79,-202.54 636.44,-191.23"/>
<polygon fill="#63b8ff" stroke="#63b8ff" points="637.07,-194.67 646.09,-189.11 635.57,-187.83 637.07,-194.67"/>
</a>
</g>
</g>
<!-- Node21&#45;&gt;Node10 -->
<g id="edge36_Node000021_Node000010" class="edge">
<title>Node21&#45;&gt;Node10</title>
<g id="a_edge36_Node000021_Node000010"><a xlink:title=" ">
<path fill="none" stroke="#63b8ff" d="M443.87,-226.59C454.89,-218.65 470.67,-207.28 483.6,-197.96"/>
<polygon fill="#63b8ff" stroke="#63b8ff" points="485.51,-200.9 491.58,-192.21 481.42,-195.22 485.51,-200.9"/>
</a>
</g>
</g>
<!-- Node21&#45;&gt;Node18 -->
<g id="edge38_Node000021_Node000018" class="edge">
<title>Node21&#45;&gt;Node18</title>
<g id="a_edge38_Node000021_Node000018"><a xlink:title=" ">
<path fill="none" stroke="#63b8ff" d="M403.12,-226.96C376.17,-217.62 334.81,-203.29 305.82,-193.25"/>
<polygon fill="#63b8ff" stroke="#63b8ff" points="307.02,-189.96 296.42,-189.99 304.73,-196.57 307.02,-189.96"/>
</a>
</g>
</g>
<!-- Node22 -->
<g id="Node000022" class="node">
<title>Node22</title>
<g id="a_Node000022"><a xlink:href="native__sched_8h.html" target="_top" xlink:title="Add definitions required on the native board.">
<polygon fill="white" stroke="#666666" points="402.03,-191 312.53,-191 312.53,-170.25 402.03,-170.25 402.03,-191"/>
<text text-anchor="middle" x="357.28" y="-177.5" font-family="Helvetica,sans-Serif" font-size="10.00">native_sched.h</text>
</a>
</g>
</g>
<!-- Node21&#45;&gt;Node22 -->
<g id="edge37_Node000021_Node000022" class="edge">
<title>Node21&#45;&gt;Node22</title>
<g id="a_edge37_Node000021_Node000022"><a xlink:title=" ">
<path fill="none" stroke="#63b8ff" d="M417.23,-226.59C406.64,-218.65 391.49,-207.28 379.06,-197.96"/>
<polygon fill="#63b8ff" stroke="#63b8ff" points="381.53,-195.44 371.43,-192.24 377.33,-201.04 381.53,-195.44"/>
</a>
</g>
</g>
<!-- Node23&#45;&gt;Node21 -->
<g id="edge42_Node000023_Node000021" class="edge">
<title>Node23&#45;&gt;Node21</title>
<g id="a_edge42_Node000023_Node000021"><a xlink:title=" ">
<path fill="none" stroke="#63b8ff" d="M583.85,-283.34C551.38,-273.83 502.15,-259.42 468.23,-249.49"/>
<polygon fill="#63b8ff" stroke="#63b8ff" points="469.39,-246.18 458.81,-246.73 467.42,-252.9 469.39,-246.18"/>
</a>
</g>
</g>
<!-- Node24 -->
<g id="Node000024" class="node">
<title>Node24</title>
<g id="a_Node000024"><a xlink:title=" ">
<polygon fill="#e0e0e0" stroke="#999999" points="663.15,-247.75 595.4,-247.75 595.4,-227 663.15,-227 663.15,-247.75"/>
<text text-anchor="middle" x="629.28" y="-234.25" font-family="Helvetica,sans-Serif" font-size="10.00">cpu_conf.h</text>
</a>
</g>
</g>
<!-- Node23&#45;&gt;Node24 -->
<g id="edge41_Node000023_Node000024" class="edge">
<title>Node23&#45;&gt;Node24</title>
<g id="a_edge41_Node000023_Node000024"><a xlink:title=" ">
<path fill="none" stroke="#63b8ff" d="M619.42,-283.34C620.89,-276.64 622.89,-267.51 624.71,-259.23"/>
<polygon fill="#63b8ff" stroke="#63b8ff" points="628.11,-260.07 626.83,-249.56 621.27,-258.58 628.11,-260.07"/>
</a>
</g>
</g>
<!-- Node26&#45;&gt;Node2 -->
<g id="edge50_Node000026_Node000002" class="edge">
<title>Node26&#45;&gt;Node2</title>
<g id="a_edge50_Node000026_Node000002"><a xlink:title=" ">
<path fill="none" stroke="#63b8ff" d="M1095.22,-226.83C1091.36,-196.79 1075.24,-103.45 1020.28,-56.75 978.22,-21.02 912.58,-12.51 871.3,-10.96"/>
<polygon fill="#63b8ff" stroke="#63b8ff" points="871.43,-7.47 861.35,-10.73 871.26,-14.46 871.43,-7.47"/>
</a>
</g>
</g>
<!-- Node26&#45;&gt;Node4 -->
<g id="edge49_Node000026_Node000004" class="edge">
<title>Node26&#45;&gt;Node4</title>
<g id="a_edge49_Node000026_Node000004"><a xlink:title=" ">
<path fill="none" stroke="#63b8ff" d="M1068.76,-226.51C1032.33,-213.47 966.07,-189.88 909.28,-170.25 834.79,-144.5 817.98,-131.62 741.28,-113.5 628.17,-86.79 597.05,-95.81 482.28,-77.5 478.09,-76.83 473.72,-76.1 469.37,-75.35"/>
<polygon fill="#63b8ff" stroke="#63b8ff" points="469.99,-71.9 459.53,-73.61 468.77,-78.8 469.99,-71.9"/>
</a>
</g>
</g>
<!-- Node26&#45;&gt;Node5 -->
<g id="edge48_Node000026_Node000005" class="edge">
<title>Node26&#45;&gt;Node5</title>
<g id="a_edge48_Node000026_Node000005"><a xlink:title=" ">
<path fill="none" stroke="#63b8ff" d="M1059.64,-226.52C1025.98,-217.43 974.72,-203.49 930.28,-191 864.72,-172.58 788.83,-150.52 742.97,-137.11"/>
<polygon fill="#63b8ff" stroke="#63b8ff" points="744.02,-133.77 733.44,-134.32 742.05,-140.48 744.02,-133.77"/>
</a>
</g>
</g>
<!-- Node27 -->
<g id="Node000027" class="node">
<title>Node27</title>
<g id="a_Node000027"><a xlink:href="endian_8h.html" target="_top" xlink:title="libc header for endian conversion">
<polygon fill="white" stroke="#666666" points="1011.28,-77.5 953.28,-77.5 953.28,-56.75 1011.28,-56.75 1011.28,-77.5"/>
<text text-anchor="middle" x="982.28" y="-64" font-family="Helvetica,sans-Serif" font-size="10.00">endian.h</text>
</a>
</g>
</g>
<!-- Node26&#45;&gt;Node27 -->
<g id="edge45_Node000026_Node000027" class="edge">
<title>Node26&#45;&gt;Node27</title>
<g id="a_edge45_Node000026_Node000027"><a xlink:title=" ">
<path fill="none" stroke="#63b8ff" d="M1082.59,-226.78C1071.26,-218.33 1055.3,-205.19 1044.28,-191 1030.83,-173.68 1004.79,-118.03 991.13,-87.92"/>
<polygon fill="#63b8ff" stroke="#63b8ff" points="994.48,-86.82 987.18,-79.14 988.1,-89.69 994.48,-86.82"/>
</a>
</g>
</g>
<!-- Node28 -->
<g id="Node000028" class="node">
<title>Node28</title>
<g id="a_Node000028"><a xlink:href="errno_8h.html" target="_top" xlink:title=" ">
<polygon fill="white" stroke="#666666" points="1310.53,-191 1260.03,-191 1260.03,-170.25 1310.53,-170.25 1310.53,-191"/>
<text text-anchor="middle" x="1285.28" y="-177.5" font-family="Helvetica,sans-Serif" font-size="10.00">errno.h</text>
</a>
</g>
</g>
<!-- Node26&#45;&gt;Node28 -->
<g id="edge47_Node000026_Node000028" class="edge">
<title>Node26&#45;&gt;Node28</title>
<g id="a_edge47_Node000026_Node000028"><a xlink:title=" ">
<path fill="none" stroke="#63b8ff" d="M1130.07,-226.59C1163.46,-216.91 1214.38,-202.16 1248.7,-192.22"/>
<polygon fill="#63b8ff" stroke="#63b8ff" points="1249.57,-195.61 1258.2,-189.47 1247.63,-188.89 1249.57,-195.61"/>
</a>
</g>
</g>
<!-- Node29 -->
<g id="Node000029" class="node">
<title>Node29</title>
<g id="a_Node000029"><a xlink:title=" ">
<polygon fill="#e0e0e0" stroke="#999999" points="1168.4,-134.25 1090.15,-134.25 1090.15,-113.5 1168.4,-113.5 1168.4,-134.25"/>
<text text-anchor="middle" x="1129.28" y="-120.75" font-family="Helvetica,sans-Serif" font-size="10.00">periph_cpu.h</text>
</a>
</g>
</g>
<!-- Node26&#45;&gt;Node29 -->
<g id="edge51_Node000026_Node000029" class="edge">
<title>Node26&#45;&gt;Node29</title>
<g id="a_edge51_Node000026_Node000029"><a xlink:title=" ">
<path fill="none" stroke="#63b8ff" d="M1098.93,-226.94C1102.55,-214.1 1109.28,-190.4 1115.28,-170.25 1117.69,-162.16 1120.41,-153.29 1122.81,-145.55"/>
<polygon fill="#63b8ff" stroke="#63b8ff" points="1126.14,-146.63 1125.77,-136.04 1119.45,-144.55 1126.14,-146.63"/>
</a>
</g>
</g>
<!-- Node30 -->
<g id="Node000030" class="node">
<title>Node30</title>
<g id="a_Node000030"><a xlink:title=" ">
<polygon fill="#e0e0e0" stroke="#999999" points="1270.9,-134.25 1189.65,-134.25 1189.65,-113.5 1270.9,-113.5 1270.9,-134.25"/>
<text text-anchor="middle" x="1230.28" y="-120.75" font-family="Helvetica,sans-Serif" font-size="10.00">periph_conf.h</text>
</a>
</g>
</g>
<!-- Node26&#45;&gt;Node30 -->
<g id="edge52_Node000026_Node000030" class="edge">
<title>Node26&#45;&gt;Node30</title>
<g id="a_edge52_Node000026_Node000030"><a xlink:title=" ">
<path fill="none" stroke="#63b8ff" d="M1133.27,-231.1C1159.22,-225.48 1192.81,-214.05 1213.28,-191 1224.24,-178.66 1228.31,-160.19 1229.74,-145.9"/>
<polygon fill="#63b8ff" stroke="#63b8ff" points="1233.21,-146.39 1230.33,-136.19 1226.23,-145.96 1233.21,-146.39"/>
</a>
</g>
</g>
<!-- Node26&#45;&gt;Node31 -->
<g id="edge53_Node000026_Node000031" class="edge">
<title>Node26&#45;&gt;Node31</title>
<g id="a_edge53_Node000026_Node000031"><a xlink:title=" ">
<path fill="none" stroke="#63b8ff" d="M1108.44,-226.59C1118.11,-218.8 1131.86,-207.72 1143.3,-198.51"/>
<polygon fill="#63b8ff" stroke="#63b8ff" points="1145.45,-201.28 1151.05,-192.28 1141.06,-195.82 1145.45,-201.28"/>
</a>
</g>
</g>
<!-- Node27&#45;&gt;Node2 -->
<g id="edge46_Node000027_Node000002" class="edge">
<title>Node27&#45;&gt;Node2</title>
<g id="a_edge46_Node000027_Node000002"><a xlink:title=" ">
<path fill="none" stroke="#63b8ff" d="M955.64,-56.34C931.98,-47.64 897.16,-34.85 870.71,-25.13"/>
<polygon fill="#63b8ff" stroke="#63b8ff" points="871.95,-21.86 861.36,-21.69 869.54,-28.43 871.95,-21.86"/>
</a>
</g>
</g>
<!-- Node31&#45;&gt;Node8 -->
<g id="edge54_Node000031_Node000008" class="edge">
<title>Node31&#45;&gt;Node8</title>
<g id="a_edge54_Node000031_Node000008"><a xlink:title=" ">
<path fill="none" stroke="#63b8ff" d="M1128.88,-169.84C1093.75,-160.12 1040.09,-145.29 1004.13,-135.34"/>
<polygon fill="#63b8ff" stroke="#63b8ff" points="1005.15,-131.99 994.58,-132.7 1003.29,-138.74 1005.15,-131.99"/>
</a>
</g>
</g>
<!-- Node31&#45;&gt;Node29 -->
<g id="edge55_Node000031_Node000029" class="edge">
<title>Node31&#45;&gt;Node29</title>
<g id="a_edge55_Node000031_Node000029"><a xlink:title=" ">
<path fill="none" stroke="#63b8ff" d="M1158.02,-169.84C1153.44,-162.67 1147.08,-152.73 1141.51,-144.01"/>
<polygon fill="#63b8ff" stroke="#63b8ff" points="1144.63,-142.39 1136.3,-135.85 1138.74,-146.16 1144.63,-142.39"/>
</a>
</g>
</g>
<!-- Node31&#45;&gt;Node30 -->
<g id="edge56_Node000031_Node000030" class="edge">
<title>Node31&#45;&gt;Node30</title>
<g id="a_edge56_Node000031_Node000030"><a xlink:title=" ">
<path fill="none" stroke="#63b8ff" d="M1176.08,-169.84C1185.46,-162.05 1198.82,-150.97 1209.92,-141.76"/>
<polygon fill="#63b8ff" stroke="#63b8ff" points="1211.96,-144.62 1217.42,-135.54 1207.49,-139.24 1211.96,-144.62"/>
</a>
</g>
</g>
<!-- Node32&#45;&gt;Node2 -->
<g id="edge59_Node000032_Node000002" class="edge">
<title>Node32&#45;&gt;Node2</title>
<g id="a_edge59_Node000032_Node000002"><a xlink:title=" ">
<path fill="none" stroke="#63b8ff" d="M1359.68,-226.56C1390.57,-215.82 1428.83,-196.58 1413.28,-170.25 1386.69,-125.25 1357.38,-136.15 1310.28,-113.5 1250.88,-84.94 1236.92,-73.86 1173.28,-56.75 1066.04,-27.91 934.62,-17.01 871.16,-13.22"/>
<polygon fill="#63b8ff" stroke="#63b8ff" points="871.45,-9.73 861.27,-12.65 871.05,-16.72 871.45,-9.73"/>
</a>
</g>
</g>
<!-- Node32&#45;&gt;Node10 -->
<g id="edge65_Node000032_Node000010" class="edge">
<title>Node32&#45;&gt;Node10</title>
<g id="a_edge65_Node000032_Node000010"><a xlink:title=" ">
<path fill="none" stroke="#63b8ff" d="M1286.59,-233.88C1182.16,-227.11 885.77,-207.84 639.28,-191 615.28,-189.36 588.84,-187.51 565.9,-185.88"/>
<polygon fill="#63b8ff" stroke="#63b8ff" points="566.34,-182.41 556.11,-185.19 565.84,-189.39 566.34,-182.41"/>
</a>
</g>
</g>
<!-- Node32&#45;&gt;Node28 -->
<g id="edge60_Node000032_Node000028" class="edge">
<title>Node32&#45;&gt;Node28</title>
<g id="a_edge60_Node000032_Node000028"><a xlink:title=" ">
<path fill="none" stroke="#63b8ff" d="M1318.13,-226.59C1312.84,-219.35 1305.47,-209.26 1299.05,-200.47"/>
<polygon fill="#63b8ff" stroke="#63b8ff" points="1301.99,-198.56 1293.26,-192.55 1296.33,-202.69 1301.99,-198.56"/>
</a>
</g>
</g>
<!-- Node33 -->
<g id="Node000033" class="node">
<title>Node33</title>
<g id="a_Node000033"><a xlink:href="iolist_8h.html" target="_top" xlink:title="iolist scatter / gather IO">
<polygon fill="white" stroke="#666666" points="1509.78,-191 1460.78,-191 1460.78,-170.25 1509.78,-170.25 1509.78,-191"/>
<text text-anchor="middle" x="1485.28" y="-177.5" font-family="Helvetica,sans-Serif" font-size="10.00">iolist.h</text>
</a>
</g>
</g>
<!-- Node32&#45;&gt;Node33 -->
<g id="edge61_Node000032_Node000033" class="edge">
<title>Node32&#45;&gt;Node33</title>
<g id="a_edge61_Node000032_Node000033"><a xlink:title=" ">
<path fill="none" stroke="#63b8ff" d="M1353.88,-226.59C1380.63,-217.44 1420.65,-203.74 1449.5,-193.87"/>
<polygon fill="#63b8ff" stroke="#63b8ff" points="1450.58,-197.2 1458.91,-190.65 1448.31,-190.58 1450.58,-197.2"/>
</a>
</g>
</g>
<!-- Node34 -->
<g id="Node000034" class="node">
<title>Node34</title>
<g id="a_Node000034"><a xlink:href="netopt_8h.html" target="_top" xlink:title="Definition of global configuration options.">
<polygon fill="white" stroke="#666666" points="1403.9,-191 1328.65,-191 1328.65,-170.25 1403.9,-170.25 1403.9,-191"/>
<text text-anchor="middle" x="1366.28" y="-177.5" font-family="Helvetica,sans-Serif" font-size="10.00">net/netopt.h</text>
</a>
</g>
</g>
<!-- Node32&#45;&gt;Node34 -->
<g id="edge62_Node000032_Node000034" class="edge">
<title>Node32&#45;&gt;Node34</title>
<g id="a_edge62_Node000032_Node000034"><a xlink:title=" ">
<path fill="none" stroke="#63b8ff" d="M1332.61,-226.59C1338.03,-219.35 1345.59,-209.26 1352.16,-200.47"/>
<polygon fill="#63b8ff" stroke="#63b8ff" points="1354.91,-202.64 1358.11,-192.54 1349.31,-198.45 1354.91,-202.64"/>
</a>
</g>
</g>
<!-- Node34&#45;&gt;Node2 -->
<g id="edge63_Node000034_Node000002" class="edge">
<title>Node34&#45;&gt;Node2</title>
<g id="a_edge63_Node000034_Node000002"><a xlink:title=" ">
<path fill="none" stroke="#63b8ff" d="M1356.32,-169.83C1341.16,-155.44 1310.81,-128.66 1280.28,-113.5 1139.9,-43.79 951.04,-20.9 871.31,-14.04"/>
<polygon fill="#63b8ff" stroke="#63b8ff" points="871.68,-10.56 861.43,-13.24 871.11,-17.54 871.68,-10.56"/>
</a>
</g>
</g>
<!-- Node34&#45;&gt;Node5 -->
<g id="edge64_Node000034_Node000005" class="edge">
<title>Node34&#45;&gt;Node5</title>
<g id="a_edge64_Node000034_Node000005"><a xlink:title=" ">
<path fill="none" stroke="#63b8ff" d="M1328.38,-171.65C1325.31,-171.13 1322.25,-170.65 1319.28,-170.25 1103.91,-140.98 843.56,-129.65 743.37,-126.17"/>
<polygon fill="#63b8ff" stroke="#63b8ff" points="743.59,-122.68 733.48,-125.84 743.35,-129.67 743.59,-122.68"/>
</a>
</g>
</g>
</g>
</svg>
