<?xml version="1.0" encoding="UTF-8" standalone="no"?>
<!DOCTYPE svg PUBLIC "-//W3C//DTD SVG 1.1//EN"
 "http://www.w3.org/Graphics/SVG/1.1/DTD/svg11.dtd">
<!-- Generated by graphviz version 12.1.2 (0)
 -->
<!-- Title: drivers/include/encx24j600.h Pages: 1 -->
<svg width="1448pt" height="483pt"
 viewBox="0.00 0.00 1447.88 482.75" xmlns="http://www.w3.org/2000/svg" xmlns:xlink="http://www.w3.org/1999/xlink">
<g id="graph0" class="graph" transform="scale(1 1) rotate(0) translate(4 478.75)">
<title>drivers/include/encx24j600.h</title>
<!-- Node1 -->
<g id="Node000001" class="node">
<title>Node1</title>
<g id="a_Node000001"><a xlink:title="Interface definition for the ENCX24J600 driver.">
<polygon fill="#999999" stroke="#666666" points="491.01,-474.75 334.76,-474.75 334.76,-454 491.01,-454 491.01,-474.75"/>
<text text-anchor="middle" x="412.88" y="-461.25" font-family="Helvetica,sans-Serif" font-size="10.00">drivers/include/encx24j600.h</text>
</a>
</g>
</g>
<!-- Node2 -->
<g id="Node000002" class="node">
<title>Node2</title>
<g id="a_Node000002"><a xlink:href="mutex_8h.html" target="_top" xlink:title="Mutex for thread synchronization.">
<polygon fill="white" stroke="#666666" points="1041.13,-418 984.63,-418 984.63,-397.25 1041.13,-397.25 1041.13,-418"/>
<text text-anchor="middle" x="1012.88" y="-404.5" font-family="Helvetica,sans-Serif" font-size="10.00">mutex.h</text>
</a>
</g>
</g>
<!-- Node1&#45;&gt;Node2 -->
<g id="edge1_Node000001_Node000002" class="edge">
<title>Node1&#45;&gt;Node2</title>
<g id="a_edge1_Node000001_Node000002"><a xlink:title=" ">
<path fill="none" stroke="#63b8ff" d="M491.32,-456.22C620.77,-444.41 874.55,-421.25 972.75,-412.29"/>
<polygon fill="#63b8ff" stroke="#63b8ff" points="973.06,-415.77 982.7,-411.38 972.42,-408.8 973.06,-415.77"/>
</a>
</g>
</g>
<!-- Node26 -->
<g id="Node000026" class="node">
<title>Node26</title>
<g id="a_Node000026"><a xlink:href="spi_8h.html" target="_top" xlink:title="Low&#45;level SPI peripheral driver interface definition.">
<polygon fill="white" stroke="#666666" points="403.38,-247.75 330.38,-247.75 330.38,-227 403.38,-227 403.38,-247.75"/>
<text text-anchor="middle" x="366.88" y="-234.25" font-family="Helvetica,sans-Serif" font-size="10.00">periph/spi.h</text>
</a>
</g>
</g>
<!-- Node1&#45;&gt;Node26 -->
<g id="edge43_Node000001_Node000026" class="edge">
<title>Node1&#45;&gt;Node26</title>
<g id="a_edge43_Node000001_Node000026"><a xlink:title=" ">
<path fill="none" stroke="#63b8ff" d="M410.91,-453.71C403.99,-419.88 380.78,-306.36 371.14,-259.19"/>
<polygon fill="#63b8ff" stroke="#63b8ff" points="374.59,-258.59 369.16,-249.49 367.73,-259.99 374.59,-258.59"/>
</a>
</g>
</g>
<!-- Node31 -->
<g id="Node000031" class="node">
<title>Node31</title>
<g id="a_Node000031"><a xlink:href="drivers_2include_2periph_2gpio_8h.html" target="_top" xlink:title="Low&#45;level GPIO peripheral driver interface definitions.">
<polygon fill="white" stroke="#666666" points="550.76,-191 471.01,-191 471.01,-170.25 550.76,-170.25 550.76,-191"/>
<text text-anchor="middle" x="510.88" y="-177.5" font-family="Helvetica,sans-Serif" font-size="10.00">periph/gpio.h</text>
</a>
</g>
</g>
<!-- Node1&#45;&gt;Node31 -->
<g id="edge56_Node000001_Node000031" class="edge">
<title>Node1&#45;&gt;Node31</title>
<g id="a_edge56_Node000001_Node000031"><a xlink:title=" ">
<path fill="none" stroke="#63b8ff" d="M424.77,-453.69C445.22,-435.87 484.88,-395.66 484.88,-351.88 484.88,-351.88 484.88,-351.88 484.88,-293.12 484.88,-260.59 495.51,-224.07 503.18,-201.97"/>
<polygon fill="#63b8ff" stroke="#63b8ff" points="506.42,-203.31 506.53,-192.71 499.83,-200.93 506.42,-203.31"/>
</a>
</g>
</g>
<!-- Node32 -->
<g id="Node000032" class="node">
<title>Node32</title>
<g id="a_Node000032"><a xlink:href="drivers_2include_2net_2netdev_8h.html" target="_top" xlink:title="Definitions low&#45;level network driver interface.">
<polygon fill="white" stroke="#666666" points="198.26,-247.75 121.51,-247.75 121.51,-227 198.26,-227 198.26,-247.75"/>
<text text-anchor="middle" x="159.88" y="-234.25" font-family="Helvetica,sans-Serif" font-size="10.00">net/netdev.h</text>
</a>
</g>
</g>
<!-- Node1&#45;&gt;Node32 -->
<g id="edge57_Node000001_Node000032" class="edge">
<title>Node1&#45;&gt;Node32</title>
<g id="a_edge57_Node000001_Node000032"><a xlink:title=" ">
<path fill="none" stroke="#63b8ff" d="M402.01,-453.71C362.92,-418.94 229.18,-300 179.06,-255.43"/>
<polygon fill="#63b8ff" stroke="#63b8ff" points="181.64,-253.04 171.84,-249.01 176.99,-258.27 181.64,-253.04"/>
</a>
</g>
</g>
<!-- Node3 -->
<g id="Node000003" class="node">
<title>Node3</title>
<g id="a_Node000003"><a xlink:title=" ">
<polygon fill="#e0e0e0" stroke="#999999" points="778.38,-77.5 723.38,-77.5 723.38,-56.75 778.38,-56.75 778.38,-77.5"/>
<text text-anchor="middle" x="750.88" y="-64" font-family="Helvetica,sans-Serif" font-size="10.00">stddef.h</text>
</a>
</g>
</g>
<!-- Node2&#45;&gt;Node3 -->
<g id="edge2_Node000002_Node000003" class="edge">
<title>Node2&#45;&gt;Node3</title>
<g id="a_edge2_Node000002_Node000003"><a xlink:title=" ">
<path fill="none" stroke="#63b8ff" d="M984.17,-404.97C910.83,-400.42 718.27,-386.37 659.88,-361.25 617.19,-342.89 578.88,-341.6 578.88,-295.12 578.88,-295.12 578.88,-295.12 578.88,-236.38 578.88,-181.75 548.11,-156.44 581.88,-113.5 597.83,-93.22 666.99,-79.88 711.75,-73.2"/>
<polygon fill="#63b8ff" stroke="#63b8ff" points="712.21,-76.67 721.61,-71.78 711.21,-69.74 712.21,-76.67"/>
</a>
</g>
</g>
<!-- Node4 -->
<g id="Node000004" class="node">
<title>Node4</title>
<g id="a_Node000004"><a xlink:title=" ">
<polygon fill="#e0e0e0" stroke="#999999" points="900.26,-20.75 847.51,-20.75 847.51,0 900.26,0 900.26,-20.75"/>
<text text-anchor="middle" x="873.88" y="-7.25" font-family="Helvetica,sans-Serif" font-size="10.00">stdint.h</text>
</a>
</g>
</g>
<!-- Node2&#45;&gt;Node4 -->
<g id="edge3_Node000002_Node000004" class="edge">
<title>Node2&#45;&gt;Node4</title>
<g id="a_edge3_Node000002_Node000004"><a xlink:title=" ">
<path fill="none" stroke="#63b8ff" d="M1041.56,-405.33C1137.3,-400.26 1439.88,-377.68 1439.88,-295.12 1439.88,-295.12 1439.88,-295.12 1439.88,-122.88 1439.88,-14.94 1038.63,-9.72 911.82,-10.76"/>
<polygon fill="#63b8ff" stroke="#63b8ff" points="911.9,-7.26 901.94,-10.86 911.97,-14.26 911.9,-7.26"/>
</a>
</g>
</g>
<!-- Node5 -->
<g id="Node000005" class="node">
<title>Node5</title>
<g id="a_Node000005"><a xlink:title=" ">
<polygon fill="#e0e0e0" stroke="#999999" points="652.38,-134.25 591.38,-134.25 591.38,-113.5 652.38,-113.5 652.38,-134.25"/>
<text text-anchor="middle" x="621.88" y="-120.75" font-family="Helvetica,sans-Serif" font-size="10.00">stdbool.h</text>
</a>
</g>
</g>
<!-- Node2&#45;&gt;Node5 -->
<g id="edge4_Node000002_Node000005" class="edge">
<title>Node2&#45;&gt;Node5</title>
<g id="a_edge4_Node000002_Node000005"><a xlink:title=" ">
<path fill="none" stroke="#63b8ff" d="M984.21,-404.64C894.14,-397.64 622.88,-370.3 622.88,-295.12 622.88,-295.12 622.88,-295.12 622.88,-236.38 622.88,-204.98 622.48,-168.62 622.19,-146.18"/>
<polygon fill="#63b8ff" stroke="#63b8ff" points="625.69,-146.18 622.05,-136.23 618.69,-146.28 625.69,-146.18"/>
</a>
</g>
</g>
<!-- Node6 -->
<g id="Node000006" class="node">
<title>Node6</title>
<g id="a_Node000006"><a xlink:href="architecture_8h.html" target="_top" xlink:title="Platform&#45;independent access to architecture details.">
<polygon fill="white" stroke="#666666" points="1347.63,-247.75 1264.13,-247.75 1264.13,-227 1347.63,-227 1347.63,-247.75"/>
<text text-anchor="middle" x="1305.88" y="-234.25" font-family="Helvetica,sans-Serif" font-size="10.00">architecture.h</text>
</a>
</g>
</g>
<!-- Node2&#45;&gt;Node6 -->
<g id="edge5_Node000002_Node000006" class="edge">
<title>Node2&#45;&gt;Node6</title>
<g id="a_edge5_Node000002_Node000006"><a xlink:title=" ">
<path fill="none" stroke="#63b8ff" d="M1041.37,-404.42C1097.07,-399.61 1217.77,-386.49 1249.88,-361.25 1282.33,-335.75 1296.63,-287.21 1302.4,-259.39"/>
<polygon fill="#63b8ff" stroke="#63b8ff" points="1305.82,-260.17 1304.21,-249.7 1298.93,-258.89 1305.82,-260.17"/>
</a>
</g>
</g>
<!-- Node10 -->
<g id="Node000010" class="node">
<title>Node10</title>
<g id="a_Node000010"><a xlink:href="kernel__defines_8h.html" target="_top" xlink:title="Common macros and compiler attributes/pragmas configuration.">
<polygon fill="white" stroke="#666666" points="942.01,-191 845.76,-191 845.76,-170.25 942.01,-170.25 942.01,-191"/>
<text text-anchor="middle" x="893.88" y="-177.5" font-family="Helvetica,sans-Serif" font-size="10.00">kernel_defines.h</text>
</a>
</g>
</g>
<!-- Node2&#45;&gt;Node10 -->
<g id="edge10_Node000002_Node000010" class="edge">
<title>Node2&#45;&gt;Node10</title>
<g id="a_edge10_Node000002_Node000010"><a xlink:title=" ">
<path fill="none" stroke="#63b8ff" d="M1028.61,-396.77C1058.48,-376.72 1118.56,-329.24 1096.88,-283.75 1079.65,-247.6 1061.93,-246.38 1026.88,-227 1001.4,-212.91 970.77,-202.1 945.34,-194.57"/>
<polygon fill="#63b8ff" stroke="#63b8ff" points="946.45,-191.25 935.87,-191.86 944.52,-197.98 946.45,-191.25"/>
</a>
</g>
</g>
<!-- Node16 -->
<g id="Node000016" class="node">
<title>Node16</title>
<g id="a_Node000016"><a xlink:href="list_8h.html" target="_top" xlink:title="Intrusive linked list.">
<polygon fill="white" stroke="#666666" points="1259.88,-134.25 1219.88,-134.25 1219.88,-113.5 1259.88,-113.5 1259.88,-134.25"/>
<text text-anchor="middle" x="1239.88" y="-120.75" font-family="Helvetica,sans-Serif" font-size="10.00">list.h</text>
</a>
</g>
</g>
<!-- Node2&#45;&gt;Node16 -->
<g id="edge21_Node000002_Node000016" class="edge">
<title>Node2&#45;&gt;Node16</title>
<g id="a_edge21_Node000002_Node000016"><a xlink:title=" ">
<path fill="none" stroke="#63b8ff" d="M1041.58,-405.28C1101.81,-400.76 1235.88,-381.05 1235.88,-295.12 1235.88,-295.12 1235.88,-295.12 1235.88,-236.38 1235.88,-204.96 1237.49,-168.6 1238.66,-146.17"/>
<polygon fill="#63b8ff" stroke="#63b8ff" points="1242.16,-146.4 1239.21,-136.23 1235.17,-146.02 1242.16,-146.4"/>
</a>
</g>
</g>
<!-- Node17 -->
<g id="Node000017" class="node">
<title>Node17</title>
<g id="a_Node000017"><a xlink:href="core_2include_2thread_8h.html" target="_top" xlink:title="Threading API.">
<polygon fill="white" stroke="#666666" points="938.13,-361.25 881.63,-361.25 881.63,-340.5 938.13,-340.5 938.13,-361.25"/>
<text text-anchor="middle" x="909.88" y="-347.75" font-family="Helvetica,sans-Serif" font-size="10.00">thread.h</text>
</a>
</g>
</g>
<!-- Node2&#45;&gt;Node17 -->
<g id="edge22_Node000002_Node000017" class="edge">
<title>Node2&#45;&gt;Node17</title>
<g id="a_edge22_Node000002_Node000017"><a xlink:title=" ">
<path fill="none" stroke="#63b8ff" d="M994.47,-396.84C978.8,-388.51 956.04,-376.41 938.07,-366.86"/>
<polygon fill="#63b8ff" stroke="#63b8ff" points="939.95,-363.89 929.47,-362.29 936.66,-370.07 939.95,-363.89"/>
</a>
</g>
</g>
<!-- Node6&#45;&gt;Node4 -->
<g id="edge6_Node000006_Node000004" class="edge">
<title>Node6&#45;&gt;Node4</title>
<g id="a_edge6_Node000006_Node000004"><a xlink:title=" ">
<path fill="none" stroke="#63b8ff" d="M1334.21,-226.52C1362,-215.17 1398.14,-194.89 1382.88,-170.25 1331.63,-87.48 1020.99,-33.47 911.8,-16.84"/>
<polygon fill="#63b8ff" stroke="#63b8ff" points="912.59,-13.42 902.18,-15.39 911.55,-20.34 912.59,-13.42"/>
</a>
</g>
</g>
<!-- Node7 -->
<g id="Node000007" class="node">
<title>Node7</title>
<g id="a_Node000007"><a xlink:href="inttypes_8h.html" target="_top" xlink:title="Adds include for missing inttype definitions.">
<polygon fill="white" stroke="#666666" points="1132.26,-191 1067.51,-191 1067.51,-170.25 1132.26,-170.25 1132.26,-191"/>
<text text-anchor="middle" x="1099.88" y="-177.5" font-family="Helvetica,sans-Serif" font-size="10.00">inttypes.h</text>
</a>
</g>
</g>
<!-- Node6&#45;&gt;Node7 -->
<g id="edge7_Node000006_Node000007" class="edge">
<title>Node6&#45;&gt;Node7</title>
<g id="a_edge7_Node000006_Node000007"><a xlink:title=" ">
<path fill="none" stroke="#63b8ff" d="M1269.05,-226.59C1233.92,-217.25 1180.97,-203.18 1143.69,-193.27"/>
<polygon fill="#63b8ff" stroke="#63b8ff" points="1144.68,-189.91 1134.12,-190.72 1142.89,-196.68 1144.68,-189.91"/>
</a>
</g>
</g>
<!-- Node8 -->
<g id="Node000008" class="node">
<title>Node8</title>
<g id="a_Node000008"><a xlink:title=" ">
<polygon fill="#e0e0e0" stroke="#999999" points="723.26,-134.25 670.51,-134.25 670.51,-113.5 723.26,-113.5 723.26,-134.25"/>
<text text-anchor="middle" x="696.88" y="-120.75" font-family="Helvetica,sans-Serif" font-size="10.00">limits.h</text>
</a>
</g>
</g>
<!-- Node6&#45;&gt;Node8 -->
<g id="edge8_Node000006_Node000008" class="edge">
<title>Node6&#45;&gt;Node8</title>
<g id="a_edge8_Node000006_Node000008"><a xlink:title=" ">
<path fill="none" stroke="#63b8ff" d="M1286.66,-226.61C1256.47,-211.74 1195.72,-183.76 1140.88,-170.25 1064.12,-151.34 827.63,-133.75 734.82,-127.39"/>
<polygon fill="#63b8ff" stroke="#63b8ff" points="735.2,-123.9 724.98,-126.72 734.72,-130.89 735.2,-123.9"/>
</a>
</g>
</g>
<!-- Node9 -->
<g id="Node000009" class="node">
<title>Node9</title>
<g id="a_Node000009"><a xlink:title=" ">
<polygon fill="#e0e0e0" stroke="#999999" points="1373.76,-191 1264.01,-191 1264.01,-170.25 1373.76,-170.25 1373.76,-191"/>
<text text-anchor="middle" x="1318.88" y="-177.5" font-family="Helvetica,sans-Serif" font-size="10.00">architecture_arch.h</text>
</a>
</g>
</g>
<!-- Node6&#45;&gt;Node9 -->
<g id="edge9_Node000006_Node000009" class="edge">
<title>Node6&#45;&gt;Node9</title>
<g id="a_edge9_Node000006_Node000009"><a xlink:title=" ">
<path fill="none" stroke="#63b8ff" d="M1308.21,-226.59C1309.8,-219.89 1311.96,-210.76 1313.93,-202.48"/>
<polygon fill="#63b8ff" stroke="#63b8ff" points="1317.32,-203.34 1316.23,-192.8 1310.51,-201.72 1317.32,-203.34"/>
</a>
</g>
</g>
<!-- Node11 -->
<g id="Node000011" class="node">
<title>Node11</title>
<g id="a_Node000011"><a xlink:href="modules_8h.html" target="_top" xlink:title="Common macros and compiler attributes/pragmas configuration.">
<polygon fill="white" stroke="#666666" points="1163.38,-134.25 1096.38,-134.25 1096.38,-113.5 1163.38,-113.5 1163.38,-134.25"/>
<text text-anchor="middle" x="1129.88" y="-120.75" font-family="Helvetica,sans-Serif" font-size="10.00">modules.h</text>
</a>
</g>
</g>
<!-- Node10&#45;&gt;Node11 -->
<g id="edge11_Node000010_Node000011" class="edge">
<title>Node10&#45;&gt;Node11</title>
<g id="a_edge11_Node000010_Node000011"><a xlink:title=" ">
<path fill="none" stroke="#63b8ff" d="M936.35,-169.77C978.29,-160.04 1042.19,-145.22 1084.96,-135.3"/>
<polygon fill="#63b8ff" stroke="#63b8ff" points="1085.73,-138.71 1094.68,-133.04 1084.15,-131.89 1085.73,-138.71"/>
</a>
</g>
</g>
<!-- Node12 -->
<g id="Node000012" class="node">
<title>Node12</title>
<g id="a_Node000012"><a xlink:href="riot__version_8h.html" target="_top" xlink:title="Common macros and compiler attributes/pragmas configuration.">
<polygon fill="white" stroke="#666666" points="984.26,-77.5 901.51,-77.5 901.51,-56.75 984.26,-56.75 984.26,-77.5"/>
<text text-anchor="middle" x="942.88" y="-64" font-family="Helvetica,sans-Serif" font-size="10.00">riot_version.h</text>
</a>
</g>
</g>
<!-- Node10&#45;&gt;Node12 -->
<g id="edge12_Node000010_Node000012" class="edge">
<title>Node10&#45;&gt;Node12</title>
<g id="a_edge12_Node000010_Node000012"><a xlink:title=" ">
<path fill="none" stroke="#63b8ff" d="M905.78,-169.76C915.06,-161.34 927.42,-148.38 933.88,-134.25 940.38,-120.04 942.53,-102.44 943.11,-88.98"/>
<polygon fill="#63b8ff" stroke="#63b8ff" points="946.61,-89.14 943.25,-79.09 939.61,-89.04 946.61,-89.14"/>
</a>
</g>
</g>
<!-- Node13 -->
<g id="Node000013" class="node">
<title>Node13</title>
<g id="a_Node000013"><a xlink:href="compiler__hints_8h.html" target="_top" xlink:title="Common macros and compiler attributes/pragmas configuration.">
<polygon fill="white" stroke="#666666" points="1078.38,-134.25 981.38,-134.25 981.38,-113.5 1078.38,-113.5 1078.38,-134.25"/>
<text text-anchor="middle" x="1029.88" y="-120.75" font-family="Helvetica,sans-Serif" font-size="10.00">compiler_hints.h</text>
</a>
</g>
</g>
<!-- Node10&#45;&gt;Node13 -->
<g id="edge14_Node000010_Node000013" class="edge">
<title>Node10&#45;&gt;Node13</title>
<g id="a_edge14_Node000010_Node000013"><a xlink:title=" ">
<path fill="none" stroke="#63b8ff" d="M918.2,-169.84C939.66,-161.19 971.2,-148.5 995.3,-138.8"/>
<polygon fill="#63b8ff" stroke="#63b8ff" points="996.41,-142.13 1004.38,-135.14 993.79,-135.63 996.41,-142.13"/>
</a>
</g>
</g>
<!-- Node15 -->
<g id="Node000015" class="node">
<title>Node15</title>
<g id="a_Node000015"><a xlink:href="container_8h.html" target="_top" xlink:title="Common macros and compiler attributes/pragmas configuration.">
<polygon fill="white" stroke="#666666" points="925.26,-134.25 854.51,-134.25 854.51,-113.5 925.26,-113.5 925.26,-134.25"/>
<text text-anchor="middle" x="889.88" y="-120.75" font-family="Helvetica,sans-Serif" font-size="10.00">container.h</text>
</a>
</g>
</g>
<!-- Node10&#45;&gt;Node15 -->
<g id="edge18_Node000010_Node000015" class="edge">
<title>Node10&#45;&gt;Node15</title>
<g id="a_edge18_Node000010_Node000015"><a xlink:title=" ">
<path fill="none" stroke="#63b8ff" d="M893.17,-169.84C892.68,-163.22 892.03,-154.22 891.43,-146.02"/>
<polygon fill="#63b8ff" stroke="#63b8ff" points="894.92,-145.81 890.7,-136.09 887.94,-146.32 894.92,-145.81"/>
</a>
</g>
</g>
<!-- Node12&#45;&gt;Node4 -->
<g id="edge13_Node000012_Node000004" class="edge">
<title>Node12&#45;&gt;Node4</title>
<g id="a_edge13_Node000012_Node000004"><a xlink:title=" ">
<path fill="none" stroke="#63b8ff" d="M930.55,-56.34C920.64,-48.47 906.5,-37.25 894.82,-27.99"/>
<polygon fill="#63b8ff" stroke="#63b8ff" points="897.31,-25.49 887.3,-22.02 892.96,-30.98 897.31,-25.49"/>
</a>
</g>
</g>
<!-- Node13&#45;&gt;Node4 -->
<g id="edge17_Node000013_Node000004" class="edge">
<title>Node13&#45;&gt;Node4</title>
<g id="a_edge17_Node000013_Node000004"><a xlink:title=" ">
<path fill="none" stroke="#63b8ff" d="M1026.94,-113.42C1022.06,-99.22 1011,-72.4 992.88,-56.75 969.81,-36.82 937.07,-25.2 911.77,-18.71"/>
<polygon fill="#63b8ff" stroke="#63b8ff" points="912.74,-15.35 902.2,-16.43 911.12,-22.16 912.74,-15.35"/>
</a>
</g>
</g>
<!-- Node14 -->
<g id="Node000014" class="node">
<title>Node14</title>
<g id="a_Node000014"><a xlink:href="assert_8h.html" target="_top" xlink:title="POSIX.1&#45;2008 compliant version of the assert macro.">
<polygon fill="white" stroke="#666666" points="1095.38,-77.5 1040.38,-77.5 1040.38,-56.75 1095.38,-56.75 1095.38,-77.5"/>
<text text-anchor="middle" x="1067.88" y="-64" font-family="Helvetica,sans-Serif" font-size="10.00">assert.h</text>
</a>
</g>
</g>
<!-- Node13&#45;&gt;Node14 -->
<g id="edge15_Node000013_Node000014" class="edge">
<title>Node13&#45;&gt;Node14</title>
<g id="a_edge15_Node000013_Node000014"><a xlink:title=" ">
<path fill="none" stroke="#63b8ff" d="M1036.68,-113.09C1041.65,-105.92 1048.55,-95.98 1054.6,-87.26"/>
<polygon fill="#63b8ff" stroke="#63b8ff" points="1057.46,-89.28 1060.28,-79.07 1051.71,-85.29 1057.46,-89.28"/>
</a>
</g>
</g>
<!-- Node14&#45;&gt;Node4 -->
<g id="edge16_Node000014_Node000004" class="edge">
<title>Node14&#45;&gt;Node4</title>
<g id="a_edge16_Node000014_Node000004"><a xlink:title=" ">
<path fill="none" stroke="#63b8ff" d="M1040.09,-58.28C1006.38,-48.77 949.41,-32.69 911.72,-22.05"/>
<polygon fill="#63b8ff" stroke="#63b8ff" points="912.72,-18.7 902.15,-19.35 910.82,-25.44 912.72,-18.7"/>
</a>
</g>
</g>
<!-- Node15&#45;&gt;Node3 -->
<g id="edge19_Node000015_Node000003" class="edge">
<title>Node15&#45;&gt;Node3</title>
<g id="a_edge19_Node000015_Node000003"><a xlink:title=" ">
<path fill="none" stroke="#63b8ff" d="M865.03,-113.09C842.99,-104.41 810.57,-91.63 785.9,-81.92"/>
<polygon fill="#63b8ff" stroke="#63b8ff" points="787.51,-78.79 776.93,-78.38 784.95,-85.3 787.51,-78.79"/>
</a>
</g>
</g>
<!-- Node15&#45;&gt;Node4 -->
<g id="edge20_Node000015_Node000004" class="edge">
<title>Node15&#45;&gt;Node4</title>
<g id="a_edge20_Node000015_Node000004"><a xlink:title=" ">
<path fill="none" stroke="#63b8ff" d="M888.52,-113.37C885.96,-95.52 880.37,-56.61 876.89,-32.34"/>
<polygon fill="#63b8ff" stroke="#63b8ff" points="880.39,-32.07 875.5,-22.67 873.46,-33.07 880.39,-32.07"/>
</a>
</g>
</g>
<!-- Node18 -->
<g id="Node000018" class="node">
<title>Node18</title>
<g id="a_Node000018"><a xlink:href="clist_8h.html" target="_top" xlink:title="Circular linked list.">
<polygon fill="white" stroke="#666666" points="751.51,-191 706.26,-191 706.26,-170.25 751.51,-170.25 751.51,-191"/>
<text text-anchor="middle" x="728.88" y="-177.5" font-family="Helvetica,sans-Serif" font-size="10.00">clist.h</text>
</a>
</g>
</g>
<!-- Node17&#45;&gt;Node18 -->
<g id="edge23_Node000017_Node000018" class="edge">
<title>Node17&#45;&gt;Node18</title>
<g id="a_edge23_Node000017_Node000018"><a xlink:title=" ">
<path fill="none" stroke="#63b8ff" d="M881.28,-347.02C834.69,-341.71 745.74,-328.61 726.88,-304.5 703.85,-275.06 713.28,-228.38 721.52,-201.83"/>
<polygon fill="#63b8ff" stroke="#63b8ff" points="724.75,-203.22 724.63,-192.62 718.12,-200.98 724.75,-203.22"/>
</a>
</g>
</g>
<!-- Node19 -->
<g id="Node000019" class="node">
<title>Node19</title>
<g id="a_Node000019"><a xlink:href="cib_8h.html" target="_top" xlink:title="Circular integer buffer interface.">
<polygon fill="white" stroke="#666666" points="1087.51,-304.5 1048.26,-304.5 1048.26,-283.75 1087.51,-283.75 1087.51,-304.5"/>
<text text-anchor="middle" x="1067.88" y="-291" font-family="Helvetica,sans-Serif" font-size="10.00">cib.h</text>
</a>
</g>
</g>
<!-- Node17&#45;&gt;Node19 -->
<g id="edge27_Node000017_Node000019" class="edge">
<title>Node17&#45;&gt;Node19</title>
<g id="a_edge27_Node000017_Node000019"><a xlink:title=" ">
<path fill="none" stroke="#63b8ff" d="M938.13,-340.09C966.03,-330.42 1008.56,-315.68 1037.26,-305.74"/>
<polygon fill="#63b8ff" stroke="#63b8ff" points="1038.15,-309.13 1046.46,-302.55 1035.86,-302.52 1038.15,-309.13"/>
</a>
</g>
</g>
<!-- Node20 -->
<g id="Node000020" class="node">
<title>Node20</title>
<g id="a_Node000020"><a xlink:href="core_2include_2msg_8h.html" target="_top" xlink:title="Messaging API for inter process communication.">
<polygon fill="white" stroke="#666666" points="781.88,-304.5 735.88,-304.5 735.88,-283.75 781.88,-283.75 781.88,-304.5"/>
<text text-anchor="middle" x="758.88" y="-291" font-family="Helvetica,sans-Serif" font-size="10.00">msg.h</text>
</a>
</g>
</g>
<!-- Node17&#45;&gt;Node20 -->
<g id="edge29_Node000017_Node000020" class="edge">
<title>Node17&#45;&gt;Node20</title>
<g id="a_edge29_Node000017_Node000020"><a xlink:title=" ">
<path fill="none" stroke="#63b8ff" d="M882.89,-340.09C857.69,-330.95 819.98,-317.28 792.77,-307.41"/>
<polygon fill="#63b8ff" stroke="#63b8ff" points="794.2,-304.21 783.6,-304.09 791.81,-310.79 794.2,-304.21"/>
</a>
</g>
</g>
<!-- Node21 -->
<g id="Node000021" class="node">
<title>Node21</title>
<g id="a_Node000021"><a xlink:href="sched_8h.html" target="_top" xlink:title="Scheduler API definition.">
<polygon fill="white" stroke="#666666" points="927.63,-247.75 874.13,-247.75 874.13,-227 927.63,-227 927.63,-247.75"/>
<text text-anchor="middle" x="900.88" y="-234.25" font-family="Helvetica,sans-Serif" font-size="10.00">sched.h</text>
</a>
</g>
</g>
<!-- Node17&#45;&gt;Node21 -->
<g id="edge38_Node000017_Node000021" class="edge">
<title>Node17&#45;&gt;Node21</title>
<g id="a_edge38_Node000017_Node000021"><a xlink:title=" ">
<path fill="none" stroke="#63b8ff" d="M909.12,-340.37C907.67,-322.52 904.53,-283.61 902.58,-259.34"/>
<polygon fill="#63b8ff" stroke="#63b8ff" points="906.09,-259.37 901.8,-249.68 899.11,-259.93 906.09,-259.37"/>
</a>
</g>
</g>
<!-- Node23 -->
<g id="Node000023" class="node">
<title>Node23</title>
<g id="a_Node000023"><a xlink:href="thread__config_8h.html" target="_top" xlink:title="Thread configuration defines.">
<polygon fill="white" stroke="#666666" points="1029.76,-304.5 938.01,-304.5 938.01,-283.75 1029.76,-283.75 1029.76,-304.5"/>
<text text-anchor="middle" x="983.88" y="-291" font-family="Helvetica,sans-Serif" font-size="10.00">thread_config.h</text>
</a>
</g>
</g>
<!-- Node17&#45;&gt;Node23 -->
<g id="edge39_Node000017_Node000023" class="edge">
<title>Node17&#45;&gt;Node23</title>
<g id="a_edge39_Node000017_Node000023"><a xlink:title=" ">
<path fill="none" stroke="#63b8ff" d="M923.11,-340.09C933.85,-332.15 949.21,-320.78 961.8,-311.46"/>
<polygon fill="#63b8ff" stroke="#63b8ff" points="963.59,-314.49 969.55,-305.73 959.43,-308.86 963.59,-314.49"/>
</a>
</g>
</g>
<!-- Node25 -->
<g id="Node000025" class="node">
<title>Node25</title>
<g id="a_Node000025"><a xlink:title=" ">
<polygon fill="#e0e0e0" stroke="#999999" points="882.26,-304.5 799.51,-304.5 799.51,-283.75 882.26,-283.75 882.26,-304.5"/>
<text text-anchor="middle" x="840.88" y="-291" font-family="Helvetica,sans-Serif" font-size="10.00">thread_arch.h</text>
</a>
</g>
</g>
<!-- Node17&#45;&gt;Node25 -->
<g id="edge42_Node000017_Node000025" class="edge">
<title>Node17&#45;&gt;Node25</title>
<g id="a_edge42_Node000017_Node000025"><a xlink:title=" ">
<path fill="none" stroke="#63b8ff" d="M897.55,-340.09C887.64,-332.22 873.5,-321 861.82,-311.74"/>
<polygon fill="#63b8ff" stroke="#63b8ff" points="864.31,-309.24 854.3,-305.77 859.96,-314.73 864.31,-309.24"/>
</a>
</g>
</g>
<!-- Node18&#45;&gt;Node3 -->
<g id="edge25_Node000018_Node000003" class="edge">
<title>Node18&#45;&gt;Node3</title>
<g id="a_edge25_Node000018_Node000003"><a xlink:title=" ">
<path fill="none" stroke="#63b8ff" d="M730.76,-170.12C734.28,-152.27 741.96,-113.36 746.75,-89.09"/>
<polygon fill="#63b8ff" stroke="#63b8ff" points="750.15,-89.9 748.66,-79.41 743.29,-88.54 750.15,-89.9"/>
</a>
</g>
</g>
<!-- Node18&#45;&gt;Node5 -->
<g id="edge24_Node000018_Node000005" class="edge">
<title>Node18&#45;&gt;Node5</title>
<g id="a_edge24_Node000018_Node000005"><a xlink:title=" ">
<path fill="none" stroke="#63b8ff" d="M709.75,-169.84C693.4,-161.47 669.61,-149.29 650.9,-139.72"/>
<polygon fill="#63b8ff" stroke="#63b8ff" points="652.69,-136.71 642.19,-135.27 649.5,-142.94 652.69,-136.71"/>
</a>
</g>
</g>
<!-- Node18&#45;&gt;Node16 -->
<g id="edge26_Node000018_Node000016" class="edge">
<title>Node18&#45;&gt;Node16</title>
<g id="a_edge26_Node000018_Node000016"><a xlink:title=" ">
<path fill="none" stroke="#63b8ff" d="M751.56,-177.61C816.99,-171.72 1011.73,-153.75 1172.88,-134.25 1184.57,-132.84 1197.37,-131.09 1208.62,-129.49"/>
<polygon fill="#63b8ff" stroke="#63b8ff" points="1208.78,-133.01 1218.18,-128.12 1207.78,-126.08 1208.78,-133.01"/>
</a>
</g>
</g>
<!-- Node19&#45;&gt;Node14 -->
<g id="edge28_Node000019_Node000014" class="edge">
<title>Node19&#45;&gt;Node14</title>
<g id="a_edge28_Node000019_Node000014"><a xlink:title=" ">
<path fill="none" stroke="#63b8ff" d="M1081.66,-283.37C1118.58,-256.01 1214.25,-176.44 1172.88,-113.5 1158.26,-91.25 1130.16,-79.86 1106.7,-74.06"/>
<polygon fill="#63b8ff" stroke="#63b8ff" points="1107.64,-70.68 1097.12,-71.96 1106.14,-77.52 1107.64,-70.68"/>
</a>
</g>
</g>
<!-- Node20&#45;&gt;Node4 -->
<g id="edge30_Node000020_Node000004" class="edge">
<title>Node20&#45;&gt;Node4</title>
<g id="a_edge30_Node000020_Node000004"><a xlink:title=" ">
<path fill="none" stroke="#63b8ff" d="M762.84,-283.43C779.33,-243.04 842.72,-87.71 865.6,-31.68"/>
<polygon fill="#63b8ff" stroke="#63b8ff" points="868.83,-33.02 869.37,-22.43 862.35,-30.37 868.83,-33.02"/>
</a>
</g>
</g>
<!-- Node20&#45;&gt;Node5 -->
<g id="edge31_Node000020_Node000005" class="edge">
<title>Node20&#45;&gt;Node5</title>
<g id="a_edge31_Node000020_Node000005"><a xlink:title=" ">
<path fill="none" stroke="#63b8ff" d="M751.12,-283.6C729.09,-256.54 665.87,-178.9 636.81,-143.21"/>
<polygon fill="#63b8ff" stroke="#63b8ff" points="639.88,-141.44 630.85,-135.89 634.45,-145.86 639.88,-141.44"/>
</a>
</g>
</g>
<!-- Node20&#45;&gt;Node21 -->
<g id="edge32_Node000020_Node000021" class="edge">
<title>Node20&#45;&gt;Node21</title>
<g id="a_edge32_Node000020_Node000021"><a xlink:title=" ">
<path fill="none" stroke="#63b8ff" d="M782.33,-284.08C804.8,-275.42 839.03,-262.22 864.94,-252.23"/>
<polygon fill="#63b8ff" stroke="#63b8ff" points="866,-255.58 874.07,-248.71 863.48,-249.05 866,-255.58"/>
</a>
</g>
</g>
<!-- Node21&#45;&gt;Node3 -->
<g id="edge33_Node000021_Node000003" class="edge">
<title>Node21&#45;&gt;Node3</title>
<g id="a_edge33_Node000021_Node000003"><a xlink:title=" ">
<path fill="none" stroke="#63b8ff" d="M883.91,-226.6C870.26,-218.23 851.09,-205.3 836.88,-191 804.9,-158.83 776.62,-113.54 761.81,-87.88"/>
<polygon fill="#63b8ff" stroke="#63b8ff" points="764.88,-86.19 756.9,-79.21 758.78,-89.63 764.88,-86.19"/>
</a>
</g>
</g>
<!-- Node21&#45;&gt;Node7 -->
<g id="edge34_Node000021_Node000007" class="edge">
<title>Node21&#45;&gt;Node7</title>
<g id="a_edge34_Node000021_Node000007"><a xlink:title=" ">
<path fill="none" stroke="#63b8ff" d="M927.72,-228.99C960.65,-219.93 1016.92,-204.45 1056.13,-193.66"/>
<polygon fill="#63b8ff" stroke="#63b8ff" points="1057.03,-197.04 1065.75,-191.02 1055.18,-190.3 1057.03,-197.04"/>
</a>
</g>
</g>
<!-- Node21&#45;&gt;Node10 -->
<g id="edge35_Node000021_Node000010" class="edge">
<title>Node21&#45;&gt;Node10</title>
<g id="a_edge35_Node000021_Node000010"><a xlink:title=" ">
<path fill="none" stroke="#63b8ff" d="M899.63,-226.59C898.78,-219.89 897.61,-210.76 896.55,-202.48"/>
<polygon fill="#63b8ff" stroke="#63b8ff" points="900.06,-202.31 895.32,-192.83 893.11,-203.19 900.06,-202.31"/>
</a>
</g>
</g>
<!-- Node21&#45;&gt;Node18 -->
<g id="edge37_Node000021_Node000018" class="edge">
<title>Node21&#45;&gt;Node18</title>
<g id="a_edge37_Node000021_Node000018"><a xlink:title=" ">
<path fill="none" stroke="#63b8ff" d="M874.01,-227.82C844,-218.27 795.39,-202.8 762.79,-192.42"/>
<polygon fill="#63b8ff" stroke="#63b8ff" points="764.02,-189.14 753.43,-189.44 761.9,-195.81 764.02,-189.14"/>
</a>
</g>
</g>
<!-- Node22 -->
<g id="Node000022" class="node">
<title>Node22</title>
<g id="a_Node000022"><a xlink:href="native__sched_8h.html" target="_top" xlink:title="Add definitions required on the native board.">
<polygon fill="white" stroke="#666666" points="1049.63,-191 960.13,-191 960.13,-170.25 1049.63,-170.25 1049.63,-191"/>
<text text-anchor="middle" x="1004.88" y="-177.5" font-family="Helvetica,sans-Serif" font-size="10.00">native_sched.h</text>
</a>
</g>
</g>
<!-- Node21&#45;&gt;Node22 -->
<g id="edge36_Node000021_Node000022" class="edge">
<title>Node21&#45;&gt;Node22</title>
<g id="a_edge36_Node000021_Node000022"><a xlink:title=" ">
<path fill="none" stroke="#63b8ff" d="M919.48,-226.59C935.3,-218.26 958.28,-206.16 976.42,-196.61"/>
<polygon fill="#63b8ff" stroke="#63b8ff" points="977.89,-199.79 985.11,-192.03 974.63,-193.59 977.89,-199.79"/>
</a>
</g>
</g>
<!-- Node23&#45;&gt;Node21 -->
<g id="edge41_Node000023_Node000021" class="edge">
<title>Node23&#45;&gt;Node21</title>
<g id="a_edge41_Node000023_Node000021"><a xlink:title=" ">
<path fill="none" stroke="#63b8ff" d="M969.04,-283.34C956.77,-275.24 939.1,-263.58 924.82,-254.17"/>
<polygon fill="#63b8ff" stroke="#63b8ff" points="927.13,-251.5 916.86,-248.91 923.28,-257.34 927.13,-251.5"/>
</a>
</g>
</g>
<!-- Node24 -->
<g id="Node000024" class="node">
<title>Node24</title>
<g id="a_Node000024"><a xlink:title=" ">
<polygon fill="#e0e0e0" stroke="#999999" points="1017.76,-247.75 950.01,-247.75 950.01,-227 1017.76,-227 1017.76,-247.75"/>
<text text-anchor="middle" x="983.88" y="-234.25" font-family="Helvetica,sans-Serif" font-size="10.00">cpu_conf.h</text>
</a>
</g>
</g>
<!-- Node23&#45;&gt;Node24 -->
<g id="edge40_Node000023_Node000024" class="edge">
<title>Node23&#45;&gt;Node24</title>
<g id="a_edge40_Node000023_Node000024"><a xlink:title=" ">
<path fill="none" stroke="#63b8ff" d="M983.88,-283.34C983.88,-276.72 983.88,-267.72 983.88,-259.52"/>
<polygon fill="#63b8ff" stroke="#63b8ff" points="987.38,-259.59 983.88,-249.59 980.38,-259.59 987.38,-259.59"/>
</a>
</g>
</g>
<!-- Node26&#45;&gt;Node3 -->
<g id="edge48_Node000026_Node000003" class="edge">
<title>Node26&#45;&gt;Node3</title>
<g id="a_edge48_Node000026_Node000003"><a xlink:title=" ">
<path fill="none" stroke="#63b8ff" d="M360.82,-226.62C347.45,-203.72 318.83,-146.01 347.88,-113.5 371.89,-86.63 615.2,-73.72 711.73,-69.62"/>
<polygon fill="#63b8ff" stroke="#63b8ff" points="711.65,-73.13 721.5,-69.22 711.37,-66.14 711.65,-73.13"/>
</a>
</g>
</g>
<!-- Node26&#45;&gt;Node4 -->
<g id="edge49_Node000026_Node000004" class="edge">
<title>Node26&#45;&gt;Node4</title>
<g id="a_edge49_Node000026_Node000004"><a xlink:title=" ">
<path fill="none" stroke="#63b8ff" d="M343.77,-226.51C329.32,-219.02 311.82,-207.23 302.88,-191 286.25,-160.81 280.14,-141.76 299.88,-113.5 361.61,-25.17 717.78,-13.12 835.86,-11.57"/>
<polygon fill="#63b8ff" stroke="#63b8ff" points="835.69,-15.08 845.65,-11.46 835.61,-8.08 835.69,-15.08"/>
</a>
</g>
</g>
<!-- Node26&#45;&gt;Node5 -->
<g id="edge47_Node000026_Node000005" class="edge">
<title>Node26&#45;&gt;Node5</title>
<g id="a_edge47_Node000026_Node000005"><a xlink:title=" ">
<path fill="none" stroke="#63b8ff" d="M380.47,-226.55C404.6,-209.14 453.21,-174.36 461.88,-170.25 500.05,-152.18 546.83,-139.95 579.92,-132.78"/>
<polygon fill="#63b8ff" stroke="#63b8ff" points="580.47,-136.24 589.54,-130.76 579.04,-129.39 580.47,-136.24"/>
</a>
</g>
</g>
<!-- Node27 -->
<g id="Node000027" class="node">
<title>Node27</title>
<g id="a_Node000027"><a xlink:href="endian_8h.html" target="_top" xlink:title="libc header for endian conversion">
<polygon fill="white" stroke="#666666" points="521.88,-77.5 463.88,-77.5 463.88,-56.75 521.88,-56.75 521.88,-77.5"/>
<text text-anchor="middle" x="492.88" y="-64" font-family="Helvetica,sans-Serif" font-size="10.00">endian.h</text>
</a>
</g>
</g>
<!-- Node26&#45;&gt;Node27 -->
<g id="edge44_Node000026_Node000027" class="edge">
<title>Node26&#45;&gt;Node27</title>
<g id="a_edge44_Node000026_Node000027"><a xlink:title=" ">
<path fill="none" stroke="#63b8ff" d="M349.32,-226.61C337.15,-218.76 321.92,-206.49 314.88,-191 300.63,-159.64 293.75,-140.7 314.88,-113.5 331.57,-92.03 405.02,-79.03 452.2,-72.74"/>
<polygon fill="#63b8ff" stroke="#63b8ff" points="452.6,-76.22 462.08,-71.48 451.71,-69.27 452.6,-76.22"/>
</a>
</g>
</g>
<!-- Node28 -->
<g id="Node000028" class="node">
<title>Node28</title>
<g id="a_Node000028"><a xlink:href="errno_8h.html" target="_top" xlink:title=" ">
<polygon fill="white" stroke="#666666" points="225.13,-191 174.63,-191 174.63,-170.25 225.13,-170.25 225.13,-191"/>
<text text-anchor="middle" x="199.88" y="-177.5" font-family="Helvetica,sans-Serif" font-size="10.00">errno.h</text>
</a>
</g>
</g>
<!-- Node26&#45;&gt;Node28 -->
<g id="edge46_Node000026_Node000028" class="edge">
<title>Node26&#45;&gt;Node28</title>
<g id="a_edge46_Node000026_Node000028"><a xlink:title=" ">
<path fill="none" stroke="#63b8ff" d="M337.03,-226.59C308.82,-217.34 266.47,-203.45 236.29,-193.56"/>
<polygon fill="#63b8ff" stroke="#63b8ff" points="237.41,-190.25 226.82,-190.46 235.23,-196.9 237.41,-190.25"/>
</a>
</g>
</g>
<!-- Node29 -->
<g id="Node000029" class="node">
<title>Node29</title>
<g id="a_Node000029"><a xlink:title=" ">
<polygon fill="#e0e0e0" stroke="#999999" points="435.01,-134.25 356.76,-134.25 356.76,-113.5 435.01,-113.5 435.01,-134.25"/>
<text text-anchor="middle" x="395.88" y="-120.75" font-family="Helvetica,sans-Serif" font-size="10.00">periph_cpu.h</text>
</a>
</g>
</g>
<!-- Node26&#45;&gt;Node29 -->
<g id="edge50_Node000026_Node000029" class="edge">
<title>Node26&#45;&gt;Node29</title>
<g id="a_edge50_Node000026_Node000029"><a xlink:title=" ">
<path fill="none" stroke="#63b8ff" d="M369.36,-226.87C374.02,-208.94 384.21,-169.75 390.52,-145.51"/>
<polygon fill="#63b8ff" stroke="#63b8ff" points="393.82,-146.7 392.95,-136.14 387.05,-144.94 393.82,-146.7"/>
</a>
</g>
</g>
<!-- Node30 -->
<g id="Node000030" class="node">
<title>Node30</title>
<g id="a_Node000030"><a xlink:title=" ">
<polygon fill="#e0e0e0" stroke="#999999" points="534.51,-134.25 453.26,-134.25 453.26,-113.5 534.51,-113.5 534.51,-134.25"/>
<text text-anchor="middle" x="493.88" y="-120.75" font-family="Helvetica,sans-Serif" font-size="10.00">periph_conf.h</text>
</a>
</g>
</g>
<!-- Node26&#45;&gt;Node30 -->
<g id="edge51_Node000026_Node000030" class="edge">
<title>Node26&#45;&gt;Node30</title>
<g id="a_edge51_Node000026_Node000030"><a xlink:title=" ">
<path fill="none" stroke="#63b8ff" d="M374.74,-226.81C386,-213.39 407.7,-188.58 428.88,-170.25 441.28,-159.52 456.22,-148.95 468.65,-140.71"/>
<polygon fill="#63b8ff" stroke="#63b8ff" points="470.23,-143.86 476.71,-135.47 466.42,-137.99 470.23,-143.86"/>
</a>
</g>
</g>
<!-- Node26&#45;&gt;Node31 -->
<g id="edge52_Node000026_Node000031" class="edge">
<title>Node26&#45;&gt;Node31</title>
<g id="a_edge52_Node000026_Node000031"><a xlink:title=" ">
<path fill="none" stroke="#63b8ff" d="M392.63,-226.59C415.46,-217.91 449.05,-205.13 474.61,-195.42"/>
<polygon fill="#63b8ff" stroke="#63b8ff" points="475.84,-198.69 483.95,-191.87 473.36,-192.15 475.84,-198.69"/>
</a>
</g>
</g>
<!-- Node27&#45;&gt;Node4 -->
<g id="edge45_Node000027_Node000004" class="edge">
<title>Node27&#45;&gt;Node4</title>
<g id="a_edge45_Node000027_Node000004"><a xlink:title=" ">
<path fill="none" stroke="#63b8ff" d="M522.15,-61.92C590.29,-52.13 759.55,-27.81 835.69,-16.86"/>
<polygon fill="#63b8ff" stroke="#63b8ff" points="836.19,-20.33 845.59,-15.44 835.19,-13.4 836.19,-20.33"/>
</a>
</g>
</g>
<!-- Node31&#45;&gt;Node8 -->
<g id="edge53_Node000031_Node000008" class="edge">
<title>Node31&#45;&gt;Node8</title>
<g id="a_edge53_Node000031_Node000008"><a xlink:title=" ">
<path fill="none" stroke="#63b8ff" d="M544.14,-169.84C576.52,-160.3 625.68,-145.83 659.43,-135.9"/>
<polygon fill="#63b8ff" stroke="#63b8ff" points="660.18,-139.33 668.79,-133.15 658.2,-132.61 660.18,-139.33"/>
</a>
</g>
</g>
<!-- Node31&#45;&gt;Node29 -->
<g id="edge54_Node000031_Node000029" class="edge">
<title>Node31&#45;&gt;Node29</title>
<g id="a_edge54_Node000031_Node000029"><a xlink:title=" ">
<path fill="none" stroke="#63b8ff" d="M490.32,-169.84C472.58,-161.39 446.7,-149.07 426.51,-139.46"/>
<polygon fill="#63b8ff" stroke="#63b8ff" points="428.16,-136.37 417.63,-135.23 425.16,-142.69 428.16,-136.37"/>
</a>
</g>
</g>
<!-- Node31&#45;&gt;Node30 -->
<g id="edge55_Node000031_Node000030" class="edge">
<title>Node31&#45;&gt;Node30</title>
<g id="a_edge55_Node000031_Node000030"><a xlink:title=" ">
<path fill="none" stroke="#63b8ff" d="M507.84,-169.84C505.74,-163.06 502.86,-153.8 500.27,-145.44"/>
<polygon fill="#63b8ff" stroke="#63b8ff" points="503.65,-144.54 497.34,-136.02 496.97,-146.61 503.65,-144.54"/>
</a>
</g>
</g>
<!-- Node32&#45;&gt;Node4 -->
<g id="edge58_Node000032_Node000004" class="edge">
<title>Node32&#45;&gt;Node4</title>
<g id="a_edge58_Node000032_Node000004"><a xlink:title=" ">
<path fill="none" stroke="#63b8ff" d="M121.37,-234.5C67.27,-230.21 -21.79,-216.17 4.88,-170.25 56.02,-82.21 106.4,-86.16 203.88,-56.75 323.38,-20.7 711.7,-13.21 835.55,-11.73"/>
<polygon fill="#63b8ff" stroke="#63b8ff" points="835.55,-15.23 845.51,-11.61 835.47,-8.23 835.55,-15.23"/>
</a>
</g>
</g>
<!-- Node32&#45;&gt;Node10 -->
<g id="edge64_Node000032_Node000010" class="edge">
<title>Node32&#45;&gt;Node10</title>
<g id="a_edge64_Node000032_Node000010"><a xlink:title=" ">
<path fill="none" stroke="#63b8ff" d="M198.57,-233.49C319.19,-224.49 689.02,-196.91 834.35,-186.07"/>
<polygon fill="#63b8ff" stroke="#63b8ff" points="834.44,-189.57 844.15,-185.33 833.91,-182.59 834.44,-189.57"/>
</a>
</g>
</g>
<!-- Node32&#45;&gt;Node28 -->
<g id="edge59_Node000032_Node000028" class="edge">
<title>Node32&#45;&gt;Node28</title>
<g id="a_edge59_Node000032_Node000028"><a xlink:title=" ">
<path fill="none" stroke="#63b8ff" d="M167.03,-226.59C172.32,-219.35 179.69,-209.26 186.11,-200.47"/>
<polygon fill="#63b8ff" stroke="#63b8ff" points="188.83,-202.69 191.9,-192.55 183.18,-198.56 188.83,-202.69"/>
</a>
</g>
</g>
<!-- Node33 -->
<g id="Node000033" class="node">
<title>Node33</title>
<g id="a_Node000033"><a xlink:href="iolist_8h.html" target="_top" xlink:title="iolist scatter / gather IO">
<polygon fill="white" stroke="#666666" points="63.38,-191 14.38,-191 14.38,-170.25 63.38,-170.25 63.38,-191"/>
<text text-anchor="middle" x="38.88" y="-177.5" font-family="Helvetica,sans-Serif" font-size="10.00">iolist.h</text>
</a>
</g>
</g>
<!-- Node32&#45;&gt;Node33 -->
<g id="edge60_Node000032_Node000033" class="edge">
<title>Node32&#45;&gt;Node33</title>
<g id="a_edge60_Node000032_Node000033"><a xlink:title=" ">
<path fill="none" stroke="#63b8ff" d="M138.25,-226.59C119.41,-218.06 91.85,-205.59 70.53,-195.94"/>
<polygon fill="#63b8ff" stroke="#63b8ff" points="72.26,-192.89 61.71,-191.95 69.37,-199.26 72.26,-192.89"/>
</a>
</g>
</g>
<!-- Node34 -->
<g id="Node000034" class="node">
<title>Node34</title>
<g id="a_Node000034"><a xlink:href="netopt_8h.html" target="_top" xlink:title="Definition of global configuration options.">
<polygon fill="white" stroke="#666666" points="156.51,-191 81.26,-191 81.26,-170.25 156.51,-170.25 156.51,-191"/>
<text text-anchor="middle" x="118.88" y="-177.5" font-family="Helvetica,sans-Serif" font-size="10.00">net/netopt.h</text>
</a>
</g>
</g>
<!-- Node32&#45;&gt;Node34 -->
<g id="edge61_Node000032_Node000034" class="edge">
<title>Node32&#45;&gt;Node34</title>
<g id="a_edge61_Node000032_Node000034"><a xlink:title=" ">
<path fill="none" stroke="#63b8ff" d="M152.55,-226.59C147.13,-219.35 139.58,-209.26 133,-200.47"/>
<polygon fill="#63b8ff" stroke="#63b8ff" points="135.85,-198.45 127.06,-192.54 130.25,-202.64 135.85,-198.45"/>
</a>
</g>
</g>
<!-- Node34&#45;&gt;Node4 -->
<g id="edge62_Node000034_Node000004" class="edge">
<title>Node34&#45;&gt;Node4</title>
<g id="a_edge62_Node000034_Node000004"><a xlink:title=" ">
<path fill="none" stroke="#63b8ff" d="M124.67,-170C139.84,-145.79 183.43,-82.47 238.88,-56.75 293.03,-31.64 707.89,-16.6 836.2,-12.51"/>
<polygon fill="#63b8ff" stroke="#63b8ff" points="835.96,-16.02 845.84,-12.21 835.74,-9.03 835.96,-16.02"/>
</a>
</g>
</g>
<!-- Node34&#45;&gt;Node5 -->
<g id="edge63_Node000034_Node000005" class="edge">
<title>Node34&#45;&gt;Node5</title>
<g id="a_edge63_Node000034_Node000005"><a xlink:title=" ">
<path fill="none" stroke="#63b8ff" d="M156.79,-171.72C159.86,-171.18 162.92,-170.69 165.88,-170.25 332.85,-145.71 376.09,-152.32 543.88,-134.25 555.58,-132.99 568.25,-131.52 579.91,-130.11"/>
<polygon fill="#63b8ff" stroke="#63b8ff" points="580.15,-133.61 589.65,-128.93 579.3,-126.66 580.15,-133.61"/>
</a>
</g>
</g>
</g>
</svg>
