<?xml version="1.0" encoding="UTF-8" standalone="no"?>
<!DOCTYPE svg PUBLIC "-//W3C//DTD SVG 1.1//EN"
 "http://www.w3.org/Graphics/SVG/1.1/DTD/svg11.dtd">
<!-- Generated by graphviz version 12.1.2 (0)
 -->
<!-- Title: cpu/esp_common/esp&#45;now/esp_now_netdev.h Pages: 1 -->
<svg width="1269pt" height="496pt"
 viewBox="0.00 0.00 1269.45 495.50" xmlns="http://www.w3.org/2000/svg" xmlns:xlink="http://www.w3.org/1999/xlink">
<g id="graph0" class="graph" transform="scale(1 1) rotate(0) translate(4 491.5)">
<title>cpu/esp_common/esp&#45;now/esp_now_netdev.h</title>
<!-- Node1 -->
<g id="Node000001" class="node">
<title>Node1</title>
<g id="a_Node000001"><a xlink:title="Netdev interface for the ESP&#45;NOW WiFi P2P protocol.">
<polygon fill="#999999" stroke="#666666" points="970.7,-487.5 837.7,-487.5 837.7,-454 970.7,-454 970.7,-487.5"/>
<text text-anchor="start" x="845.7" y="-474" font-family="Helvetica,sans-Serif" font-size="10.00">cpu/esp_common/esp</text>
<text text-anchor="middle" x="904.2" y="-461.25" font-family="Helvetica,sans-Serif" font-size="10.00">&#45;now/esp_now_netdev.h</text>
</a>
</g>
</g>
<!-- Node2 -->
<g id="Node000002" class="node">
<title>Node2</title>
<g id="a_Node000002"><a xlink:href="drivers_2include_2net_2netdev_8h.html" target="_top" xlink:title="Definitions low&#45;level network driver interface.">
<polygon fill="white" stroke="#666666" points="1120.58,-247.75 1043.83,-247.75 1043.83,-227 1120.58,-227 1120.58,-247.75"/>
<text text-anchor="middle" x="1082.2" y="-234.25" font-family="Helvetica,sans-Serif" font-size="10.00">net/netdev.h</text>
</a>
</g>
</g>
<!-- Node1&#45;&gt;Node2 -->
<g id="edge1_Node000001_Node000002" class="edge">
<title>Node1&#45;&gt;Node2</title>
<g id="a_edge1_Node000001_Node000002"><a xlink:title=" ">
<path fill="none" stroke="#63b8ff" d="M916.44,-453.85C948.35,-412.36 1034.02,-301 1068.02,-256.81"/>
<polygon fill="#63b8ff" stroke="#63b8ff" points="1070.72,-259.03 1074.05,-248.97 1065.18,-254.77 1070.72,-259.03"/>
</a>
</g>
</g>
<!-- Node15 -->
<g id="Node000015" class="node">
<title>Node15</title>
<g id="a_Node000015"><a xlink:href="mutex_8h.html" target="_top" xlink:title="Mutex for thread synchronization.">
<polygon fill="white" stroke="#666666" points="559.45,-418 502.95,-418 502.95,-397.25 559.45,-397.25 559.45,-418"/>
<text text-anchor="middle" x="531.2" y="-404.5" font-family="Helvetica,sans-Serif" font-size="10.00">mutex.h</text>
</a>
</g>
</g>
<!-- Node1&#45;&gt;Node15 -->
<g id="edge19_Node000001_Node000015" class="edge">
<title>Node1&#45;&gt;Node15</title>
<g id="a_edge19_Node000001_Node000015"><a xlink:title=" ">
<path fill="none" stroke="#63b8ff" d="M837.52,-458.82C759.99,-446.12 634.56,-425.56 570.94,-415.14"/>
<polygon fill="#63b8ff" stroke="#63b8ff" points="571.73,-411.72 561.3,-413.56 570.6,-418.63 571.73,-411.72"/>
</a>
</g>
</g>
<!-- Node30 -->
<g id="Node000030" class="node">
<title>Node30</title>
<g id="a_Node000030"><a xlink:href="net_2ethernet_2hdr_8h.html" target="_top" xlink:title="Ethernet header definitions.">
<polygon fill="white" stroke="#666666" points="956.08,-247.75 852.33,-247.75 852.33,-227 956.08,-227 956.08,-247.75"/>
<text text-anchor="middle" x="904.2" y="-234.25" font-family="Helvetica,sans-Serif" font-size="10.00">net/ethernet/hdr.h</text>
</a>
</g>
</g>
<!-- Node1&#45;&gt;Node30 -->
<g id="edge51_Node000001_Node000030" class="edge">
<title>Node1&#45;&gt;Node30</title>
<g id="a_edge51_Node000001_Node000030"><a xlink:title=" ">
<path fill="none" stroke="#63b8ff" d="M904.2,-453.85C904.2,-413.06 904.2,-304.74 904.2,-259.1"/>
<polygon fill="#63b8ff" stroke="#63b8ff" points="907.7,-259.29 904.2,-249.29 900.7,-259.29 907.7,-259.29"/>
</a>
</g>
</g>
<!-- Node3 -->
<g id="Node000003" class="node">
<title>Node3</title>
<g id="a_Node000003"><a xlink:title=" ">
<polygon fill="#e0e0e0" stroke="#999999" points="707.58,-20.75 654.83,-20.75 654.83,0 707.58,0 707.58,-20.75"/>
<text text-anchor="middle" x="681.2" y="-7.25" font-family="Helvetica,sans-Serif" font-size="10.00">stdint.h</text>
</a>
</g>
</g>
<!-- Node2&#45;&gt;Node3 -->
<g id="edge2_Node000002_Node000003" class="edge">
<title>Node2&#45;&gt;Node3</title>
<g id="a_edge2_Node000002_Node000003"><a xlink:title=" ">
<path fill="none" stroke="#63b8ff" d="M1086.06,-226.83C1089.5,-217.78 1094.28,-203.72 1096.2,-191 1105.58,-128.77 1101,-95.22 1051.2,-56.75 1000,-17.21 803.12,-11.75 719.32,-11.26"/>
<polygon fill="#63b8ff" stroke="#63b8ff" points="719.33,-7.76 709.32,-11.23 719.31,-14.76 719.33,-7.76"/>
</a>
</g>
</g>
<!-- Node4 -->
<g id="Node000004" class="node">
<title>Node4</title>
<g id="a_Node000004"><a xlink:href="errno_8h.html" target="_top" xlink:title=" ">
<polygon fill="white" stroke="#666666" points="1261.45,-191 1210.95,-191 1210.95,-170.25 1261.45,-170.25 1261.45,-191"/>
<text text-anchor="middle" x="1236.2" y="-177.5" font-family="Helvetica,sans-Serif" font-size="10.00">errno.h</text>
</a>
</g>
</g>
<!-- Node2&#45;&gt;Node4 -->
<g id="edge3_Node000002_Node000004" class="edge">
<title>Node2&#45;&gt;Node4</title>
<g id="a_edge3_Node000002_Node000004"><a xlink:title=" ">
<path fill="none" stroke="#63b8ff" d="M1109.73,-226.59C1134.9,-217.64 1172.3,-204.34 1199.9,-194.53"/>
<polygon fill="#63b8ff" stroke="#63b8ff" points="1201.02,-197.85 1209.27,-191.2 1198.68,-191.25 1201.02,-197.85"/>
</a>
</g>
</g>
<!-- Node5 -->
<g id="Node000005" class="node">
<title>Node5</title>
<g id="a_Node000005"><a xlink:href="iolist_8h.html" target="_top" xlink:title="iolist scatter / gather IO">
<polygon fill="white" stroke="#666666" points="1192.7,-191 1143.7,-191 1143.7,-170.25 1192.7,-170.25 1192.7,-191"/>
<text text-anchor="middle" x="1168.2" y="-177.5" font-family="Helvetica,sans-Serif" font-size="10.00">iolist.h</text>
</a>
</g>
</g>
<!-- Node2&#45;&gt;Node5 -->
<g id="edge4_Node000002_Node000005" class="edge">
<title>Node2&#45;&gt;Node5</title>
<g id="a_edge4_Node000002_Node000005"><a xlink:title=" ">
<path fill="none" stroke="#63b8ff" d="M1097.58,-226.59C1110.29,-218.49 1128.61,-206.83 1143.39,-197.42"/>
<polygon fill="#63b8ff" stroke="#63b8ff" points="1145.13,-200.46 1151.68,-192.14 1141.37,-194.56 1145.13,-200.46"/>
</a>
</g>
</g>
<!-- Node6 -->
<g id="Node000006" class="node">
<title>Node6</title>
<g id="a_Node000006"><a xlink:href="netopt_8h.html" target="_top" xlink:title="Definition of global configuration options.">
<polygon fill="white" stroke="#666666" points="1086.83,-191 1011.58,-191 1011.58,-170.25 1086.83,-170.25 1086.83,-191"/>
<text text-anchor="middle" x="1049.2" y="-177.5" font-family="Helvetica,sans-Serif" font-size="10.00">net/netopt.h</text>
</a>
</g>
</g>
<!-- Node2&#45;&gt;Node6 -->
<g id="edge5_Node000002_Node000006" class="edge">
<title>Node2&#45;&gt;Node6</title>
<g id="a_edge5_Node000002_Node000006"><a xlink:title=" ">
<path fill="none" stroke="#63b8ff" d="M1076.3,-226.59C1072.03,-219.5 1066.12,-209.69 1060.9,-201.04"/>
<polygon fill="#63b8ff" stroke="#63b8ff" points="1063.99,-199.38 1055.83,-192.62 1058,-203 1063.99,-199.38"/>
</a>
</g>
</g>
<!-- Node8 -->
<g id="Node000008" class="node">
<title>Node8</title>
<g id="a_Node000008"><a xlink:href="kernel__defines_8h.html" target="_top" xlink:title="Common macros and compiler attributes/pragmas configuration.">
<polygon fill="white" stroke="#666666" points="405.33,-191 309.08,-191 309.08,-170.25 405.33,-170.25 405.33,-191"/>
<text text-anchor="middle" x="357.2" y="-177.5" font-family="Helvetica,sans-Serif" font-size="10.00">kernel_defines.h</text>
</a>
</g>
</g>
<!-- Node2&#45;&gt;Node8 -->
<g id="edge8_Node000002_Node000008" class="edge">
<title>Node2&#45;&gt;Node8</title>
<g id="a_edge8_Node000002_Node000008"><a xlink:title=" ">
<path fill="none" stroke="#63b8ff" d="M1043.47,-233.22C1020.69,-231.37 991.31,-229.02 965.2,-227 764.35,-211.46 526.11,-193.95 417.07,-185.98"/>
<polygon fill="#63b8ff" stroke="#63b8ff" points="417.42,-182.5 407.19,-185.26 416.91,-189.48 417.42,-182.5"/>
</a>
</g>
</g>
<!-- Node6&#45;&gt;Node3 -->
<g id="edge6_Node000006_Node000003" class="edge">
<title>Node6&#45;&gt;Node3</title>
<g id="a_edge6_Node000006_Node000003"><a xlink:title=" ">
<path fill="none" stroke="#63b8ff" d="M1051.13,-169.94C1055.13,-146.69 1061.56,-87.36 1030.2,-56.75 986.75,-14.33 800.39,-10.43 719.22,-10.8"/>
<polygon fill="#63b8ff" stroke="#63b8ff" points="719.3,-7.3 709.33,-10.88 719.36,-14.3 719.3,-7.3"/>
</a>
</g>
</g>
<!-- Node7 -->
<g id="Node000007" class="node">
<title>Node7</title>
<g id="a_Node000007"><a xlink:title=" ">
<polygon fill="#e0e0e0" stroke="#999999" points="627.7,-134.25 566.7,-134.25 566.7,-113.5 627.7,-113.5 627.7,-134.25"/>
<text text-anchor="middle" x="597.2" y="-120.75" font-family="Helvetica,sans-Serif" font-size="10.00">stdbool.h</text>
</a>
</g>
</g>
<!-- Node6&#45;&gt;Node7 -->
<g id="edge7_Node000006_Node000007" class="edge">
<title>Node6&#45;&gt;Node7</title>
<g id="a_edge7_Node000006_Node000007"><a xlink:title=" ">
<path fill="none" stroke="#63b8ff" d="M1011.44,-175.05C927.77,-164.92 727.23,-140.62 639.5,-130"/>
<polygon fill="#63b8ff" stroke="#63b8ff" points="639.99,-126.53 629.64,-128.8 639.15,-133.48 639.99,-126.53"/>
</a>
</g>
</g>
<!-- Node9 -->
<g id="Node000009" class="node">
<title>Node9</title>
<g id="a_Node000009"><a xlink:href="modules_8h.html" target="_top" xlink:title="Common macros and compiler attributes/pragmas configuration.">
<polygon fill="white" stroke="#666666" points="317.7,-134.25 250.7,-134.25 250.7,-113.5 317.7,-113.5 317.7,-134.25"/>
<text text-anchor="middle" x="284.2" y="-120.75" font-family="Helvetica,sans-Serif" font-size="10.00">modules.h</text>
</a>
</g>
</g>
<!-- Node8&#45;&gt;Node9 -->
<g id="edge9_Node000008_Node000009" class="edge">
<title>Node8&#45;&gt;Node9</title>
<g id="a_edge9_Node000008_Node000009"><a xlink:title=" ">
<path fill="none" stroke="#63b8ff" d="M344.15,-169.84C333.56,-161.9 318.41,-150.53 305.99,-141.21"/>
<polygon fill="#63b8ff" stroke="#63b8ff" points="308.45,-138.69 298.35,-135.49 304.25,-144.29 308.45,-138.69"/>
</a>
</g>
</g>
<!-- Node10 -->
<g id="Node000010" class="node">
<title>Node10</title>
<g id="a_Node000010"><a xlink:href="riot__version_8h.html" target="_top" xlink:title="Common macros and compiler attributes/pragmas configuration.">
<polygon fill="white" stroke="#666666" points="399.58,-77.5 316.83,-77.5 316.83,-56.75 399.58,-56.75 399.58,-77.5"/>
<text text-anchor="middle" x="358.2" y="-64" font-family="Helvetica,sans-Serif" font-size="10.00">riot_version.h</text>
</a>
</g>
</g>
<!-- Node8&#45;&gt;Node10 -->
<g id="edge10_Node000008_Node000010" class="edge">
<title>Node8&#45;&gt;Node10</title>
<g id="a_edge10_Node000008_Node000010"><a xlink:title=" ">
<path fill="none" stroke="#63b8ff" d="M357.29,-170.12C357.45,-152.35 357.79,-113.72 358.01,-89.43"/>
<polygon fill="#63b8ff" stroke="#63b8ff" points="361.51,-89.47 358.1,-79.44 354.51,-89.41 361.51,-89.47"/>
</a>
</g>
</g>
<!-- Node11 -->
<g id="Node000011" class="node">
<title>Node11</title>
<g id="a_Node000011"><a xlink:href="compiler__hints_8h.html" target="_top" xlink:title="Common macros and compiler attributes/pragmas configuration.">
<polygon fill="white" stroke="#666666" points="471.7,-134.25 374.7,-134.25 374.7,-113.5 471.7,-113.5 471.7,-134.25"/>
<text text-anchor="middle" x="423.2" y="-120.75" font-family="Helvetica,sans-Serif" font-size="10.00">compiler_hints.h</text>
</a>
</g>
</g>
<!-- Node8&#45;&gt;Node11 -->
<g id="edge12_Node000008_Node000011" class="edge">
<title>Node8&#45;&gt;Node11</title>
<g id="a_edge12_Node000008_Node000011"><a xlink:title=" ">
<path fill="none" stroke="#63b8ff" d="M369,-169.84C378.39,-162.05 391.74,-150.97 402.84,-141.76"/>
<polygon fill="#63b8ff" stroke="#63b8ff" points="404.88,-144.62 410.34,-135.54 400.41,-139.24 404.88,-144.62"/>
</a>
</g>
</g>
<!-- Node13 -->
<g id="Node000013" class="node">
<title>Node13</title>
<g id="a_Node000013"><a xlink:href="container_8h.html" target="_top" xlink:title="Common macros and compiler attributes/pragmas configuration.">
<polygon fill="white" stroke="#666666" points="232.58,-134.25 161.83,-134.25 161.83,-113.5 232.58,-113.5 232.58,-134.25"/>
<text text-anchor="middle" x="197.2" y="-120.75" font-family="Helvetica,sans-Serif" font-size="10.00">container.h</text>
</a>
</g>
</g>
<!-- Node8&#45;&gt;Node13 -->
<g id="edge16_Node000008_Node000013" class="edge">
<title>Node8&#45;&gt;Node13</title>
<g id="a_edge16_Node000008_Node000013"><a xlink:title=" ">
<path fill="none" stroke="#63b8ff" d="M328.6,-169.84C302.97,-161.07 265.13,-148.12 236.63,-138.37"/>
<polygon fill="#63b8ff" stroke="#63b8ff" points="237.85,-135.09 227.26,-135.16 235.59,-141.71 237.85,-135.09"/>
</a>
</g>
</g>
<!-- Node10&#45;&gt;Node3 -->
<g id="edge11_Node000010_Node000003" class="edge">
<title>Node10&#45;&gt;Node3</title>
<g id="a_edge11_Node000010_Node000003"><a xlink:title=" ">
<path fill="none" stroke="#63b8ff" d="M399.77,-59.08C462.99,-48.36 582.41,-28.12 643.35,-17.79"/>
<polygon fill="#63b8ff" stroke="#63b8ff" points="643.61,-21.3 652.88,-16.18 642.44,-14.4 643.61,-21.3"/>
</a>
</g>
</g>
<!-- Node11&#45;&gt;Node3 -->
<g id="edge15_Node000011_Node000003" class="edge">
<title>Node11&#45;&gt;Node3</title>
<g id="a_edge15_Node000011_Node000003"><a xlink:title=" ">
<path fill="none" stroke="#63b8ff" d="M429.67,-113.08C439.87,-98.45 461.14,-71.07 486.2,-56.75 535.78,-28.42 602.03,-17.76 643.14,-13.77"/>
<polygon fill="#63b8ff" stroke="#63b8ff" points="643.37,-17.26 653.03,-12.9 642.76,-10.29 643.37,-17.26"/>
</a>
</g>
</g>
<!-- Node12 -->
<g id="Node000012" class="node">
<title>Node12</title>
<g id="a_Node000012"><a xlink:href="assert_8h.html" target="_top" xlink:title="POSIX.1&#45;2008 compliant version of the assert macro.">
<polygon fill="white" stroke="#666666" points="583.7,-77.5 528.7,-77.5 528.7,-56.75 583.7,-56.75 583.7,-77.5"/>
<text text-anchor="middle" x="556.2" y="-64" font-family="Helvetica,sans-Serif" font-size="10.00">assert.h</text>
</a>
</g>
</g>
<!-- Node11&#45;&gt;Node12 -->
<g id="edge13_Node000011_Node000012" class="edge">
<title>Node11&#45;&gt;Node12</title>
<g id="a_edge13_Node000011_Node000012"><a xlink:title=" ">
<path fill="none" stroke="#63b8ff" d="M446.98,-113.09C467.88,-104.48 498.54,-91.86 522.06,-82.18"/>
<polygon fill="#63b8ff" stroke="#63b8ff" points="523.31,-85.45 531.23,-78.4 520.65,-78.97 523.31,-85.45"/>
</a>
</g>
</g>
<!-- Node12&#45;&gt;Node3 -->
<g id="edge14_Node000012_Node000003" class="edge">
<title>Node12&#45;&gt;Node3</title>
<g id="a_edge14_Node000012_Node000003"><a xlink:title=" ">
<path fill="none" stroke="#63b8ff" d="M578.55,-56.34C598.01,-47.81 626.49,-35.34 648.51,-25.69"/>
<polygon fill="#63b8ff" stroke="#63b8ff" points="649.91,-28.9 657.66,-21.69 647.1,-22.49 649.91,-28.9"/>
</a>
</g>
</g>
<!-- Node13&#45;&gt;Node3 -->
<g id="edge18_Node000013_Node000003" class="edge">
<title>Node13&#45;&gt;Node3</title>
<g id="a_edge18_Node000013_Node000003"><a xlink:title=" ">
<path fill="none" stroke="#63b8ff" d="M209.66,-113.05C229.33,-98.11 269.36,-70.02 308.2,-56.75 425.55,-16.67 574.28,-11.09 643.09,-10.88"/>
<polygon fill="#63b8ff" stroke="#63b8ff" points="643.08,-14.38 653.08,-10.89 643.09,-7.38 643.08,-14.38"/>
</a>
</g>
</g>
<!-- Node14 -->
<g id="Node000014" class="node">
<title>Node14</title>
<g id="a_Node000014"><a xlink:title=" ">
<polygon fill="#e0e0e0" stroke="#999999" points="142.7,-77.5 87.7,-77.5 87.7,-56.75 142.7,-56.75 142.7,-77.5"/>
<text text-anchor="middle" x="115.2" y="-64" font-family="Helvetica,sans-Serif" font-size="10.00">stddef.h</text>
</a>
</g>
</g>
<!-- Node13&#45;&gt;Node14 -->
<g id="edge17_Node000013_Node000014" class="edge">
<title>Node13&#45;&gt;Node14</title>
<g id="a_edge17_Node000013_Node000014"><a xlink:title=" ">
<path fill="none" stroke="#63b8ff" d="M182.54,-113.09C170.53,-105.07 153.29,-93.56 139.26,-84.19"/>
<polygon fill="#63b8ff" stroke="#63b8ff" points="141.25,-81.31 130.99,-78.67 137.37,-87.13 141.25,-81.31"/>
</a>
</g>
</g>
<!-- Node15&#45;&gt;Node3 -->
<g id="edge21_Node000015_Node000003" class="edge">
<title>Node15&#45;&gt;Node3</title>
<g id="a_edge21_Node000015_Node000003"><a xlink:title=" ">
<path fill="none" stroke="#63b8ff" d="M548.63,-396.78C576.05,-379.85 626.2,-342.43 626.2,-295.12 626.2,-295.12 626.2,-295.12 626.2,-236.38 626.2,-158.92 657.34,-70.64 672.76,-31.68"/>
<polygon fill="#63b8ff" stroke="#63b8ff" points="675.99,-33.02 676.5,-22.44 669.5,-30.39 675.99,-33.02"/>
</a>
</g>
</g>
<!-- Node15&#45;&gt;Node7 -->
<g id="edge22_Node000015_Node000007" class="edge">
<title>Node15&#45;&gt;Node7</title>
<g id="a_edge22_Node000015_Node000007"><a xlink:title=" ">
<path fill="none" stroke="#63b8ff" d="M540.11,-397.03C556.14,-378.71 588.2,-336.87 588.2,-295.12 588.2,-295.12 588.2,-295.12 588.2,-236.38 588.2,-204.73 591.85,-168.2 594.5,-145.82"/>
<polygon fill="#63b8ff" stroke="#63b8ff" points="597.93,-146.55 595.69,-136.2 590.99,-145.69 597.93,-146.55"/>
</a>
</g>
</g>
<!-- Node15&#45;&gt;Node8 -->
<g id="edge28_Node000015_Node000008" class="edge">
<title>Node15&#45;&gt;Node8</title>
<g id="a_edge28_Node000015_Node000008"><a xlink:title=" ">
<path fill="none" stroke="#63b8ff" d="M526.12,-396.93C514.74,-375.57 485.78,-323.2 455.2,-283.75 430.42,-251.77 396.98,-218.69 376.27,-199.14"/>
<polygon fill="#63b8ff" stroke="#63b8ff" points="378.78,-196.7 369.09,-192.44 374.01,-201.82 378.78,-196.7"/>
</a>
</g>
</g>
<!-- Node15&#45;&gt;Node14 -->
<g id="edge20_Node000015_Node000014" class="edge">
<title>Node15&#45;&gt;Node14</title>
<g id="a_edge20_Node000015_Node000014"><a xlink:title=" ">
<path fill="none" stroke="#63b8ff" d="M502.65,-406.78C392.36,-406.61 0.2,-398.74 0.2,-295.12 0.2,-295.12 0.2,-295.12 0.2,-179.62 0.2,-149.05 -0.6,-136.8 19.2,-113.5 33.94,-96.16 56.79,-84.99 76.5,-78.08"/>
<polygon fill="#63b8ff" stroke="#63b8ff" points="77.48,-81.44 85.92,-75.03 75.32,-74.78 77.48,-81.44"/>
</a>
</g>
</g>
<!-- Node16 -->
<g id="Node000016" class="node">
<title>Node16</title>
<g id="a_Node000016"><a xlink:href="architecture_8h.html" target="_top" xlink:title="Platform&#45;independent access to architecture details.">
<polygon fill="white" stroke="#666666" points="798.95,-247.75 715.45,-247.75 715.45,-227 798.95,-227 798.95,-247.75"/>
<text text-anchor="middle" x="757.2" y="-234.25" font-family="Helvetica,sans-Serif" font-size="10.00">architecture.h</text>
</a>
</g>
</g>
<!-- Node15&#45;&gt;Node16 -->
<g id="edge23_Node000015_Node000016" class="edge">
<title>Node15&#45;&gt;Node16</title>
<g id="a_edge23_Node000015_Node000016"><a xlink:title=" ">
<path fill="none" stroke="#63b8ff" d="M559.68,-398.39C582.68,-390.91 615.2,-378.43 640.2,-361.25 683.68,-331.36 723.59,-283.15 743.65,-256.88"/>
<polygon fill="#63b8ff" stroke="#63b8ff" points="746.22,-259.28 749.42,-249.18 740.62,-255.08 746.22,-259.28"/>
</a>
</g>
</g>
<!-- Node20 -->
<g id="Node000020" class="node">
<title>Node20</title>
<g id="a_Node000020"><a xlink:href="list_8h.html" target="_top" xlink:title="Intrusive linked list.">
<polygon fill="white" stroke="#666666" points="68.2,-134.25 28.2,-134.25 28.2,-113.5 68.2,-113.5 68.2,-134.25"/>
<text text-anchor="middle" x="48.2" y="-120.75" font-family="Helvetica,sans-Serif" font-size="10.00">list.h</text>
</a>
</g>
</g>
<!-- Node15&#45;&gt;Node20 -->
<g id="edge29_Node000015_Node000020" class="edge">
<title>Node15&#45;&gt;Node20</title>
<g id="a_edge29_Node000015_Node000020"><a xlink:title=" ">
<path fill="none" stroke="#63b8ff" d="M502.67,-406.22C398.71,-403.97 46.2,-389.41 46.2,-295.12 46.2,-295.12 46.2,-295.12 46.2,-236.38 46.2,-204.98 47,-168.61 47.59,-146.18"/>
<polygon fill="#63b8ff" stroke="#63b8ff" points="51.09,-146.32 47.86,-136.23 44.09,-146.13 51.09,-146.32"/>
</a>
</g>
</g>
<!-- Node21 -->
<g id="Node000021" class="node">
<title>Node21</title>
<g id="a_Node000021"><a xlink:href="core_2include_2thread_8h.html" target="_top" xlink:title="Threading API.">
<polygon fill="white" stroke="#666666" points="369.45,-361.25 312.95,-361.25 312.95,-340.5 369.45,-340.5 369.45,-361.25"/>
<text text-anchor="middle" x="341.2" y="-347.75" font-family="Helvetica,sans-Serif" font-size="10.00">thread.h</text>
</a>
</g>
</g>
<!-- Node15&#45;&gt;Node21 -->
<g id="edge30_Node000015_Node000021" class="edge">
<title>Node15&#45;&gt;Node21</title>
<g id="a_edge30_Node000015_Node000021"><a xlink:title=" ">
<path fill="none" stroke="#63b8ff" d="M502.76,-398.43C470.3,-389.07 417,-373.72 380.57,-363.22"/>
<polygon fill="#63b8ff" stroke="#63b8ff" points="381.87,-359.95 371.29,-360.55 379.93,-366.68 381.87,-359.95"/>
</a>
</g>
</g>
<!-- Node16&#45;&gt;Node3 -->
<g id="edge24_Node000016_Node000003" class="edge">
<title>Node16&#45;&gt;Node3</title>
<g id="a_edge24_Node000016_Node000003"><a xlink:title=" ">
<path fill="none" stroke="#63b8ff" d="M799.08,-230.97C843.95,-224.23 910.81,-211.07 926.2,-191 931.81,-183.68 930.93,-178.17 926.2,-170.25 881.69,-95.67 825.12,-127.63 754.2,-77.5 733.62,-62.95 712.53,-43.23 698.35,-29.12"/>
<polygon fill="#63b8ff" stroke="#63b8ff" points="701.06,-26.89 691.54,-22.23 696.08,-31.81 701.06,-26.89"/>
</a>
</g>
</g>
<!-- Node17 -->
<g id="Node000017" class="node">
<title>Node17</title>
<g id="a_Node000017"><a xlink:href="inttypes_8h.html" target="_top" xlink:title="Adds include for missing inttype definitions.">
<polygon fill="white" stroke="#666666" points="789.58,-191 724.83,-191 724.83,-170.25 789.58,-170.25 789.58,-191"/>
<text text-anchor="middle" x="757.2" y="-177.5" font-family="Helvetica,sans-Serif" font-size="10.00">inttypes.h</text>
</a>
</g>
</g>
<!-- Node16&#45;&gt;Node17 -->
<g id="edge25_Node000016_Node000017" class="edge">
<title>Node16&#45;&gt;Node17</title>
<g id="a_edge25_Node000016_Node000017"><a xlink:title=" ">
<path fill="none" stroke="#63b8ff" d="M757.2,-226.59C757.2,-219.97 757.2,-210.97 757.2,-202.77"/>
<polygon fill="#63b8ff" stroke="#63b8ff" points="760.7,-202.84 757.2,-192.84 753.7,-202.84 760.7,-202.84"/>
</a>
</g>
</g>
<!-- Node18 -->
<g id="Node000018" class="node">
<title>Node18</title>
<g id="a_Node000018"><a xlink:title=" ">
<polygon fill="#e0e0e0" stroke="#999999" points="706.58,-191 653.83,-191 653.83,-170.25 706.58,-170.25 706.58,-191"/>
<text text-anchor="middle" x="680.2" y="-177.5" font-family="Helvetica,sans-Serif" font-size="10.00">limits.h</text>
</a>
</g>
</g>
<!-- Node16&#45;&gt;Node18 -->
<g id="edge26_Node000016_Node000018" class="edge">
<title>Node16&#45;&gt;Node18</title>
<g id="a_edge26_Node000016_Node000018"><a xlink:title=" ">
<path fill="none" stroke="#63b8ff" d="M743.44,-226.59C732.27,-218.65 716.28,-207.28 703.18,-197.96"/>
<polygon fill="#63b8ff" stroke="#63b8ff" points="705.26,-195.15 695.08,-192.21 701.2,-200.85 705.26,-195.15"/>
</a>
</g>
</g>
<!-- Node19 -->
<g id="Node000019" class="node">
<title>Node19</title>
<g id="a_Node000019"><a xlink:title=" ">
<polygon fill="#e0e0e0" stroke="#999999" points="917.08,-191 807.33,-191 807.33,-170.25 917.08,-170.25 917.08,-191"/>
<text text-anchor="middle" x="862.2" y="-177.5" font-family="Helvetica,sans-Serif" font-size="10.00">architecture_arch.h</text>
</a>
</g>
</g>
<!-- Node16&#45;&gt;Node19 -->
<g id="edge27_Node000016_Node000019" class="edge">
<title>Node16&#45;&gt;Node19</title>
<g id="a_edge27_Node000016_Node000019"><a xlink:title=" ">
<path fill="none" stroke="#63b8ff" d="M775.97,-226.59C791.95,-218.26 815.15,-206.16 833.47,-196.61"/>
<polygon fill="#63b8ff" stroke="#63b8ff" points="835,-199.76 842.25,-192.03 831.76,-193.55 835,-199.76"/>
</a>
</g>
</g>
<!-- Node22 -->
<g id="Node000022" class="node">
<title>Node22</title>
<g id="a_Node000022"><a xlink:href="clist_8h.html" target="_top" xlink:title="Circular linked list.">
<polygon fill="white" stroke="#666666" points="119.83,-191 74.58,-191 74.58,-170.25 119.83,-170.25 119.83,-191"/>
<text text-anchor="middle" x="97.2" y="-177.5" font-family="Helvetica,sans-Serif" font-size="10.00">clist.h</text>
</a>
</g>
</g>
<!-- Node21&#45;&gt;Node22 -->
<g id="edge31_Node000021_Node000022" class="edge">
<title>Node21&#45;&gt;Node22</title>
<g id="a_edge31_Node000021_Node000022"><a xlink:title=" ">
<path fill="none" stroke="#63b8ff" d="M312.77,-346.69C264.25,-340.72 168.28,-326.45 143.2,-304.5 113.16,-278.21 102.69,-230.33 99.08,-202.74"/>
<polygon fill="#63b8ff" stroke="#63b8ff" points="102.56,-202.39 97.99,-192.83 95.6,-203.16 102.56,-202.39"/>
</a>
</g>
</g>
<!-- Node23 -->
<g id="Node000023" class="node">
<title>Node23</title>
<g id="a_Node000023"><a xlink:href="cib_8h.html" target="_top" xlink:title="Circular integer buffer interface.">
<polygon fill="white" stroke="#666666" points="550.83,-304.5 511.58,-304.5 511.58,-283.75 550.83,-283.75 550.83,-304.5"/>
<text text-anchor="middle" x="531.2" y="-291" font-family="Helvetica,sans-Serif" font-size="10.00">cib.h</text>
</a>
</g>
</g>
<!-- Node21&#45;&gt;Node23 -->
<g id="edge35_Node000021_Node000023" class="edge">
<title>Node21&#45;&gt;Node23</title>
<g id="a_edge35_Node000021_Node000023"><a xlink:title=" ">
<path fill="none" stroke="#63b8ff" d="M369.65,-341.68C404.77,-331.56 464.28,-314.41 500.44,-303.99"/>
<polygon fill="#63b8ff" stroke="#63b8ff" points="501.21,-307.41 509.85,-301.28 499.27,-300.68 501.21,-307.41"/>
</a>
</g>
</g>
<!-- Node24 -->
<g id="Node000024" class="node">
<title>Node24</title>
<g id="a_Node000024"><a xlink:href="core_2include_2msg_8h.html" target="_top" xlink:title="Messaging API for inter process communication.">
<polygon fill="white" stroke="#666666" points="446.2,-304.5 400.2,-304.5 400.2,-283.75 446.2,-283.75 446.2,-304.5"/>
<text text-anchor="middle" x="423.2" y="-291" font-family="Helvetica,sans-Serif" font-size="10.00">msg.h</text>
</a>
</g>
</g>
<!-- Node21&#45;&gt;Node24 -->
<g id="edge37_Node000021_Node000024" class="edge">
<title>Node21&#45;&gt;Node24</title>
<g id="a_edge37_Node000021_Node000024"><a xlink:title=" ">
<path fill="none" stroke="#63b8ff" d="M355.86,-340.09C367.87,-332.07 385.11,-320.56 399.14,-311.19"/>
<polygon fill="#63b8ff" stroke="#63b8ff" points="401.04,-314.13 407.41,-305.67 397.15,-308.31 401.04,-314.13"/>
</a>
</g>
</g>
<!-- Node25 -->
<g id="Node000025" class="node">
<title>Node25</title>
<g id="a_Node000025"><a xlink:href="sched_8h.html" target="_top" xlink:title="Scheduler API definition.">
<polygon fill="white" stroke="#666666" points="298.95,-247.75 245.45,-247.75 245.45,-227 298.95,-227 298.95,-247.75"/>
<text text-anchor="middle" x="272.2" y="-234.25" font-family="Helvetica,sans-Serif" font-size="10.00">sched.h</text>
</a>
</g>
</g>
<!-- Node21&#45;&gt;Node25 -->
<g id="edge46_Node000021_Node000025" class="edge">
<title>Node21&#45;&gt;Node25</title>
<g id="a_edge46_Node000021_Node000025"><a xlink:title=" ">
<path fill="none" stroke="#63b8ff" d="M326.91,-340.33C315.65,-332.09 300.37,-319.23 291.2,-304.5 282.6,-290.68 277.77,-272.84 275.14,-259.17"/>
<polygon fill="#63b8ff" stroke="#63b8ff" points="278.62,-258.81 273.54,-249.52 271.72,-259.95 278.62,-258.81"/>
</a>
</g>
</g>
<!-- Node27 -->
<g id="Node000027" class="node">
<title>Node27</title>
<g id="a_Node000027"><a xlink:href="thread__config_8h.html" target="_top" xlink:title="Thread configuration defines.">
<polygon fill="white" stroke="#666666" points="244.08,-304.5 152.33,-304.5 152.33,-283.75 244.08,-283.75 244.08,-304.5"/>
<text text-anchor="middle" x="198.2" y="-291" font-family="Helvetica,sans-Serif" font-size="10.00">thread_config.h</text>
</a>
</g>
</g>
<!-- Node21&#45;&gt;Node27 -->
<g id="edge47_Node000021_Node000027" class="edge">
<title>Node21&#45;&gt;Node27</title>
<g id="a_edge47_Node000021_Node000027"><a xlink:title=" ">
<path fill="none" stroke="#63b8ff" d="M315.64,-340.09C292.96,-331.41 259.6,-318.63 234.23,-308.92"/>
<polygon fill="#63b8ff" stroke="#63b8ff" points="235.55,-305.68 224.96,-305.37 233.05,-312.21 235.55,-305.68"/>
</a>
</g>
</g>
<!-- Node29 -->
<g id="Node000029" class="node">
<title>Node29</title>
<g id="a_Node000029"><a xlink:title=" ">
<polygon fill="#e0e0e0" stroke="#999999" points="382.58,-304.5 299.83,-304.5 299.83,-283.75 382.58,-283.75 382.58,-304.5"/>
<text text-anchor="middle" x="341.2" y="-291" font-family="Helvetica,sans-Serif" font-size="10.00">thread_arch.h</text>
</a>
</g>
</g>
<!-- Node21&#45;&gt;Node29 -->
<g id="edge50_Node000021_Node000029" class="edge">
<title>Node21&#45;&gt;Node29</title>
<g id="a_edge50_Node000021_Node000029"><a xlink:title=" ">
<path fill="none" stroke="#63b8ff" d="M341.2,-340.09C341.2,-333.47 341.2,-324.47 341.2,-316.27"/>
<polygon fill="#63b8ff" stroke="#63b8ff" points="344.7,-316.34 341.2,-306.34 337.7,-316.34 344.7,-316.34"/>
</a>
</g>
</g>
<!-- Node22&#45;&gt;Node7 -->
<g id="edge32_Node000022_Node000007" class="edge">
<title>Node22&#45;&gt;Node7</title>
<g id="a_edge32_Node000022_Node000007"><a xlink:title=" ">
<path fill="none" stroke="#63b8ff" d="M120.31,-177.09C198.46,-168.54 453.58,-140.6 555.04,-129.49"/>
<polygon fill="#63b8ff" stroke="#63b8ff" points="555.28,-132.99 564.84,-128.42 554.52,-126.03 555.28,-132.99"/>
</a>
</g>
</g>
<!-- Node22&#45;&gt;Node14 -->
<g id="edge33_Node000022_Node000014" class="edge">
<title>Node22&#45;&gt;Node14</title>
<g id="a_edge33_Node000022_Node000014"><a xlink:title=" ">
<path fill="none" stroke="#63b8ff" d="M98.74,-170.12C101.62,-152.27 107.9,-113.36 111.82,-89.09"/>
<polygon fill="#63b8ff" stroke="#63b8ff" points="115.24,-89.85 113.38,-79.42 108.33,-88.73 115.24,-89.85"/>
</a>
</g>
</g>
<!-- Node22&#45;&gt;Node20 -->
<g id="edge34_Node000022_Node000020" class="edge">
<title>Node22&#45;&gt;Node20</title>
<g id="a_edge34_Node000022_Node000020"><a xlink:title=" ">
<path fill="none" stroke="#63b8ff" d="M88.44,-169.84C81.75,-162.36 72.35,-151.86 64.31,-142.88"/>
<polygon fill="#63b8ff" stroke="#63b8ff" points="67.17,-140.82 57.89,-135.71 61.96,-145.49 67.17,-140.82"/>
</a>
</g>
</g>
<!-- Node23&#45;&gt;Node12 -->
<g id="edge36_Node000023_Node000012" class="edge">
<title>Node23&#45;&gt;Node12</title>
<g id="a_edge36_Node000023_Node000012"><a xlink:title=" ">
<path fill="none" stroke="#63b8ff" d="M532.28,-283.46C536.03,-249.63 548.65,-136.11 553.89,-88.94"/>
<polygon fill="#63b8ff" stroke="#63b8ff" points="557.34,-89.59 554.96,-79.26 550.38,-88.81 557.34,-89.59"/>
</a>
</g>
</g>
<!-- Node24&#45;&gt;Node3 -->
<g id="edge38_Node000024_Node000003" class="edge">
<title>Node24&#45;&gt;Node3</title>
<g id="a_edge38_Node000024_Node000003"><a xlink:title=" ">
<path fill="none" stroke="#63b8ff" d="M426.6,-283.46C441.57,-241.11 501.7,-73.24 520.2,-56.75 554.28,-26.37 607.23,-16.19 643.01,-12.86"/>
<polygon fill="#63b8ff" stroke="#63b8ff" points="643.23,-16.35 652.93,-12.09 642.69,-9.37 643.23,-16.35"/>
</a>
</g>
</g>
<!-- Node24&#45;&gt;Node7 -->
<g id="edge39_Node000024_Node000007" class="edge">
<title>Node24&#45;&gt;Node7</title>
<g id="a_edge39_Node000024_Node000007"><a xlink:title=" ">
<path fill="none" stroke="#63b8ff" d="M433.31,-283.35C461.78,-255.82 542.93,-177.36 579.25,-142.24"/>
<polygon fill="#63b8ff" stroke="#63b8ff" points="581.22,-145.19 585.98,-135.73 576.36,-140.16 581.22,-145.19"/>
</a>
</g>
</g>
<!-- Node24&#45;&gt;Node25 -->
<g id="edge40_Node000024_Node000025" class="edge">
<title>Node24&#45;&gt;Node25</title>
<g id="a_edge40_Node000024_Node000025"><a xlink:title=" ">
<path fill="none" stroke="#63b8ff" d="M399.94,-284.69C375.98,-276 338.27,-262.33 310.02,-252.09"/>
<polygon fill="#63b8ff" stroke="#63b8ff" points="311.34,-248.84 300.75,-248.72 308.95,-255.42 311.34,-248.84"/>
</a>
</g>
</g>
<!-- Node25&#45;&gt;Node8 -->
<g id="edge43_Node000025_Node000008" class="edge">
<title>Node25&#45;&gt;Node8</title>
<g id="a_edge43_Node000025_Node000008"><a xlink:title=" ">
<path fill="none" stroke="#63b8ff" d="M287.4,-226.59C299.97,-218.49 318.07,-206.83 332.68,-197.42"/>
<polygon fill="#63b8ff" stroke="#63b8ff" points="334.35,-200.51 340.86,-192.15 330.56,-194.62 334.35,-200.51"/>
</a>
</g>
</g>
<!-- Node25&#45;&gt;Node14 -->
<g id="edge41_Node000025_Node000014" class="edge">
<title>Node25&#45;&gt;Node14</title>
<g id="a_edge41_Node000025_Node000014"><a xlink:title=" ">
<path fill="none" stroke="#63b8ff" d="M248.68,-226.51C231.7,-218.61 208.91,-206.33 192.2,-191 159.72,-161.2 135.65,-114.69 123.68,-88.26"/>
<polygon fill="#63b8ff" stroke="#63b8ff" points="127,-87.11 119.78,-79.35 120.59,-89.92 127,-87.11"/>
</a>
</g>
</g>
<!-- Node25&#45;&gt;Node17 -->
<g id="edge42_Node000025_Node000017" class="edge">
<title>Node25&#45;&gt;Node17</title>
<g id="a_edge42_Node000025_Node000017"><a xlink:title=" ">
<path fill="none" stroke="#63b8ff" d="M299.31,-234.71C367.23,-230.31 550.28,-217 713.5,-191.08"/>
<polygon fill="#63b8ff" stroke="#63b8ff" points="713.9,-194.56 723.22,-189.51 712.79,-187.65 713.9,-194.56"/>
</a>
</g>
</g>
<!-- Node25&#45;&gt;Node22 -->
<g id="edge45_Node000025_Node000022" class="edge">
<title>Node25&#45;&gt;Node22</title>
<g id="a_edge45_Node000025_Node000022"><a xlink:title=" ">
<path fill="none" stroke="#63b8ff" d="M245.24,-227.94C214.49,-218.32 164.17,-202.58 130.87,-192.16"/>
<polygon fill="#63b8ff" stroke="#63b8ff" points="132.31,-188.94 121.72,-189.3 130.22,-195.62 132.31,-188.94"/>
</a>
</g>
</g>
<!-- Node26 -->
<g id="Node000026" class="node">
<title>Node26</title>
<g id="a_Node000026"><a xlink:href="native__sched_8h.html" target="_top" xlink:title="Add definitions required on the native board.">
<polygon fill="white" stroke="#666666" points="290.95,-191 201.45,-191 201.45,-170.25 290.95,-170.25 290.95,-191"/>
<text text-anchor="middle" x="246.2" y="-177.5" font-family="Helvetica,sans-Serif" font-size="10.00">native_sched.h</text>
</a>
</g>
</g>
<!-- Node25&#45;&gt;Node26 -->
<g id="edge44_Node000025_Node000026" class="edge">
<title>Node25&#45;&gt;Node26</title>
<g id="a_edge44_Node000025_Node000026"><a xlink:title=" ">
<path fill="none" stroke="#63b8ff" d="M267.55,-226.59C264.26,-219.66 259.73,-210.12 255.69,-201.61"/>
<polygon fill="#63b8ff" stroke="#63b8ff" points="258.91,-200.23 251.46,-192.7 252.59,-203.23 258.91,-200.23"/>
</a>
</g>
</g>
<!-- Node27&#45;&gt;Node25 -->
<g id="edge49_Node000027_Node000025" class="edge">
<title>Node27&#45;&gt;Node25</title>
<g id="a_edge49_Node000027_Node000025"><a xlink:title=" ">
<path fill="none" stroke="#63b8ff" d="M211.43,-283.34C222.16,-275.4 237.53,-264.03 250.12,-254.71"/>
<polygon fill="#63b8ff" stroke="#63b8ff" points="251.91,-257.74 257.87,-248.98 247.75,-252.11 251.91,-257.74"/>
</a>
</g>
</g>
<!-- Node28 -->
<g id="Node000028" class="node">
<title>Node28</title>
<g id="a_Node000028"><a xlink:title=" ">
<polygon fill="#e0e0e0" stroke="#999999" points="227.08,-247.75 159.33,-247.75 159.33,-227 227.08,-227 227.08,-247.75"/>
<text text-anchor="middle" x="193.2" y="-234.25" font-family="Helvetica,sans-Serif" font-size="10.00">cpu_conf.h</text>
</a>
</g>
</g>
<!-- Node27&#45;&gt;Node28 -->
<g id="edge48_Node000027_Node000028" class="edge">
<title>Node27&#45;&gt;Node28</title>
<g id="a_edge48_Node000027_Node000028"><a xlink:title=" ">
<path fill="none" stroke="#63b8ff" d="M197.31,-283.34C196.7,-276.72 195.88,-267.72 195.13,-259.52"/>
<polygon fill="#63b8ff" stroke="#63b8ff" points="198.62,-259.23 194.22,-249.59 191.65,-259.86 198.62,-259.23"/>
</a>
</g>
</g>
<!-- Node30&#45;&gt;Node17 -->
<g id="edge52_Node000030_Node000017" class="edge">
<title>Node30&#45;&gt;Node17</title>
<g id="a_edge52_Node000030_Node000017"><a xlink:title=" ">
<path fill="none" stroke="#63b8ff" d="M877.92,-226.59C854.51,-217.87 820.01,-205.02 793.88,-195.29"/>
<polygon fill="#63b8ff" stroke="#63b8ff" points="795.27,-192.07 784.67,-191.86 792.82,-198.63 795.27,-192.07"/>
</a>
</g>
</g>
<!-- Node31 -->
<g id="Node000031" class="node">
<title>Node31</title>
<g id="a_Node000031"><a xlink:href="byteorder_8h.html" target="_top" xlink:title="Functions to work with different byte orders.">
<polygon fill="white" stroke="#666666" points="977.33,-134.25 905.08,-134.25 905.08,-113.5 977.33,-113.5 977.33,-134.25"/>
<text text-anchor="middle" x="941.2" y="-120.75" font-family="Helvetica,sans-Serif" font-size="10.00">byteorder.h</text>
</a>
</g>
</g>
<!-- Node30&#45;&gt;Node31 -->
<g id="edge53_Node000030_Node000031" class="edge">
<title>Node30&#45;&gt;Node31</title>
<g id="a_edge53_Node000030_Node000031"><a xlink:title=" ">
<path fill="none" stroke="#63b8ff" d="M923.29,-226.52C936.06,-218.78 951.81,-206.68 959.2,-191 966.25,-176.05 960.35,-157.86 953.48,-144.35"/>
<polygon fill="#63b8ff" stroke="#63b8ff" points="956.71,-142.95 948.74,-135.98 950.62,-146.4 956.71,-142.95"/>
</a>
</g>
</g>
<!-- Node31&#45;&gt;Node3 -->
<g id="edge55_Node000031_Node000003" class="edge">
<title>Node31&#45;&gt;Node3</title>
<g id="a_edge55_Node000031_Node000003"><a xlink:title=" ">
<path fill="none" stroke="#63b8ff" d="M941.39,-113.16C941.1,-98.63 938.28,-71.39 922.2,-56.75 892.98,-30.15 779.43,-18.27 719.2,-13.75"/>
<polygon fill="#63b8ff" stroke="#63b8ff" points="719.64,-10.27 709.42,-13.05 719.14,-17.25 719.64,-10.27"/>
</a>
</g>
</g>
<!-- Node32 -->
<g id="Node000032" class="node">
<title>Node32</title>
<g id="a_Node000032"><a xlink:title=" ">
<polygon fill="#e0e0e0" stroke="#999999" points="1021.58,-77.5 968.83,-77.5 968.83,-56.75 1021.58,-56.75 1021.58,-77.5"/>
<text text-anchor="middle" x="995.2" y="-64" font-family="Helvetica,sans-Serif" font-size="10.00">string.h</text>
</a>
</g>
</g>
<!-- Node31&#45;&gt;Node32 -->
<g id="edge54_Node000031_Node000032" class="edge">
<title>Node31&#45;&gt;Node32</title>
<g id="a_edge54_Node000031_Node000032"><a xlink:title=" ">
<path fill="none" stroke="#63b8ff" d="M950.86,-113.09C958.3,-105.53 968.81,-94.89 977.72,-85.85"/>
<polygon fill="#63b8ff" stroke="#63b8ff" points="980.04,-88.48 984.57,-78.91 975.05,-83.57 980.04,-88.48"/>
</a>
</g>
</g>
<!-- Node33 -->
<g id="Node000033" class="node">
<title>Node33</title>
<g id="a_Node000033"><a xlink:href="endian_8h.html" target="_top" xlink:title="libc header for endian conversion">
<polygon fill="white" stroke="#666666" points="821.2,-77.5 763.2,-77.5 763.2,-56.75 821.2,-56.75 821.2,-77.5"/>
<text text-anchor="middle" x="792.2" y="-64" font-family="Helvetica,sans-Serif" font-size="10.00">endian.h</text>
</a>
</g>
</g>
<!-- Node31&#45;&gt;Node33 -->
<g id="edge56_Node000031_Node000033" class="edge">
<title>Node31&#45;&gt;Node33</title>
<g id="a_edge56_Node000031_Node000033"><a xlink:title=" ">
<path fill="none" stroke="#63b8ff" d="M914.56,-113.09C890.91,-104.39 856.08,-91.6 829.63,-81.88"/>
<polygon fill="#63b8ff" stroke="#63b8ff" points="830.87,-78.61 820.28,-78.44 828.46,-85.18 830.87,-78.61"/>
</a>
</g>
</g>
<!-- Node34 -->
<g id="Node000034" class="node">
<title>Node34</title>
<g id="a_Node000034"><a xlink:href="unaligned_8h.html" target="_top" xlink:title="Unaligned but safe memory access functions.">
<polygon fill="white" stroke="#666666" points="912.7,-77.5 839.7,-77.5 839.7,-56.75 912.7,-56.75 912.7,-77.5"/>
<text text-anchor="middle" x="876.2" y="-64" font-family="Helvetica,sans-Serif" font-size="10.00">unaligned.h</text>
</a>
</g>
</g>
<!-- Node31&#45;&gt;Node34 -->
<g id="edge58_Node000031_Node000034" class="edge">
<title>Node31&#45;&gt;Node34</title>
<g id="a_edge58_Node000031_Node000034"><a xlink:title=" ">
<path fill="none" stroke="#63b8ff" d="M929.58,-113.09C920.34,-105.3 907.19,-94.22 896.25,-85.01"/>
<polygon fill="#63b8ff" stroke="#63b8ff" points="898.78,-82.57 888.88,-78.8 894.27,-87.92 898.78,-82.57"/>
</a>
</g>
</g>
<!-- Node33&#45;&gt;Node3 -->
<g id="edge57_Node000033_Node000003" class="edge">
<title>Node33&#45;&gt;Node3</title>
<g id="a_edge57_Node000033_Node000003"><a xlink:title=" ">
<path fill="none" stroke="#63b8ff" d="M772.36,-56.34C755.31,-47.93 730.48,-35.68 711.04,-26.09"/>
<polygon fill="#63b8ff" stroke="#63b8ff" points="712.75,-23.03 702.23,-21.75 709.65,-29.31 712.75,-23.03"/>
</a>
</g>
</g>
<!-- Node34&#45;&gt;Node3 -->
<g id="edge59_Node000034_Node000003" class="edge">
<title>Node34&#45;&gt;Node3</title>
<g id="a_edge59_Node000034_Node000003"><a xlink:title=" ">
<path fill="none" stroke="#63b8ff" d="M841.34,-56.34C806.84,-46.65 754.2,-31.87 718.78,-21.93"/>
<polygon fill="#63b8ff" stroke="#63b8ff" points="719.96,-18.62 709.39,-19.29 718.07,-25.36 719.96,-18.62"/>
</a>
</g>
</g>
</g>
</svg>
