<?xml version="1.0" encoding="UTF-8" standalone="no"?>
<!DOCTYPE svg PUBLIC "-//W3C//DTD SVG 1.1//EN"
 "http://www.w3.org/Graphics/SVG/1.1/DTD/svg11.dtd">
<!-- Generated by graphviz version 12.1.2 (0)
 -->
<!-- Title: cpu/esp32/esp&#45;eth/esp_eth_netdev.h Pages: 1 -->
<svg width="1474pt" height="496pt"
 viewBox="0.00 0.00 1473.71 495.50" xmlns="http://www.w3.org/2000/svg" xmlns:xlink="http://www.w3.org/1999/xlink">
<g id="graph0" class="graph" transform="scale(1 1) rotate(0) translate(4 491.5)">
<title>cpu/esp32/esp&#45;eth/esp_eth_netdev.h</title>
<!-- Node1 -->
<g id="Node000001" class="node">
<title>Node1</title>
<g id="a_Node000001"><a xlink:title="Netdev interface for the ESP32 Ethernet MAC module.">
<polygon fill="#999999" stroke="#666666" points="596.08,-487.5 470.58,-487.5 470.58,-454 596.08,-454 596.08,-487.5"/>
<text text-anchor="start" x="478.58" y="-474" font-family="Helvetica,sans-Serif" font-size="10.00">cpu/esp32/esp&#45;eth/esp</text>
<text text-anchor="middle" x="533.33" y="-461.25" font-family="Helvetica,sans-Serif" font-size="10.00">_eth_netdev.h</text>
</a>
</g>
</g>
<!-- Node2 -->
<g id="Node000002" class="node">
<title>Node2</title>
<g id="a_Node000002"><a xlink:title=" ">
<polygon fill="#e0e0e0" stroke="#999999" points="284.83,-134.25 223.83,-134.25 223.83,-113.5 284.83,-113.5 284.83,-134.25"/>
<text text-anchor="middle" x="254.33" y="-120.75" font-family="Helvetica,sans-Serif" font-size="10.00">stdbool.h</text>
</a>
</g>
</g>
<!-- Node1&#45;&gt;Node2 -->
<g id="edge1_Node000001_Node000002" class="edge">
<title>Node1&#45;&gt;Node2</title>
<g id="a_edge1_Node000001_Node000002"><a xlink:title=" ">
<path fill="none" stroke="#63b8ff" d="M470.14,-469.69C387.56,-465.9 253.33,-445.36 253.33,-351.88 253.33,-351.88 253.33,-351.88 253.33,-236.38 253.33,-204.98 253.73,-168.62 254.03,-146.18"/>
<polygon fill="#63b8ff" stroke="#63b8ff" points="257.52,-146.28 254.16,-136.23 250.53,-146.18 257.52,-146.28"/>
</a>
</g>
</g>
<!-- Node3 -->
<g id="Node000003" class="node">
<title>Node3</title>
<g id="a_Node000003"><a xlink:href="mutex_8h.html" target="_top" xlink:title="Mutex for thread synchronization.">
<polygon fill="white" stroke="#666666" points="748.58,-418 692.08,-418 692.08,-397.25 748.58,-397.25 748.58,-418"/>
<text text-anchor="middle" x="720.33" y="-404.5" font-family="Helvetica,sans-Serif" font-size="10.00">mutex.h</text>
</a>
</g>
</g>
<!-- Node1&#45;&gt;Node3 -->
<g id="edge2_Node000001_Node000003" class="edge">
<title>Node1&#45;&gt;Node3</title>
<g id="a_edge2_Node000001_Node000003"><a xlink:title=" ">
<path fill="none" stroke="#63b8ff" d="M582.95,-453.53C613.61,-443.51 652.42,-430.82 680.96,-421.49"/>
<polygon fill="#63b8ff" stroke="#63b8ff" points="681.88,-424.87 690.3,-418.44 679.71,-418.22 681.88,-424.87"/>
</a>
</g>
</g>
<!-- Node26 -->
<g id="Node000026" class="node">
<title>Node26</title>
<g id="a_Node000026"><a xlink:href="ethernet_8h.html" target="_top" xlink:title="Definitions for Ethernet.">
<polygon fill="white" stroke="#666666" points="1327.83,-247.75 1242.83,-247.75 1242.83,-227 1327.83,-227 1327.83,-247.75"/>
<text text-anchor="middle" x="1285.33" y="-234.25" font-family="Helvetica,sans-Serif" font-size="10.00">net/ethernet.h</text>
</a>
</g>
</g>
<!-- Node1&#45;&gt;Node26 -->
<g id="edge44_Node000001_Node000026" class="edge">
<title>Node1&#45;&gt;Node26</title>
<g id="a_edge44_Node000001_Node000026"><a xlink:title=" ">
<path fill="none" stroke="#63b8ff" d="M596.51,-456.87C641.61,-447.25 703.56,-433.2 757.33,-418 944.81,-365 1163.77,-284.34 1248.9,-252.25"/>
<polygon fill="#63b8ff" stroke="#63b8ff" points="1250.01,-255.57 1258.12,-248.76 1247.53,-249.03 1250.01,-255.57"/>
</a>
</g>
</g>
<!-- Node33 -->
<g id="Node000033" class="node">
<title>Node33</title>
<g id="a_Node000033"><a xlink:href="drivers_2include_2net_2netdev_8h.html" target="_top" xlink:title="Definitions low&#45;level network driver interface.">
<polygon fill="white" stroke="#666666" points="185.71,-247.75 108.96,-247.75 108.96,-227 185.71,-227 185.71,-247.75"/>
<text text-anchor="middle" x="147.33" y="-234.25" font-family="Helvetica,sans-Serif" font-size="10.00">net/netdev.h</text>
</a>
</g>
</g>
<!-- Node1&#45;&gt;Node33 -->
<g id="edge58_Node000001_Node000033" class="edge">
<title>Node1&#45;&gt;Node33</title>
<g id="a_edge58_Node000001_Node000033"><a xlink:title=" ">
<path fill="none" stroke="#63b8ff" d="M470.4,-465.21C395.23,-458.69 275.14,-444.43 239.33,-418 185.38,-378.18 160.68,-297.52 151.65,-259.33"/>
<polygon fill="#63b8ff" stroke="#63b8ff" points="155.07,-258.61 149.49,-249.6 148.24,-260.12 155.07,-258.61"/>
</a>
</g>
</g>
<!-- Node3&#45;&gt;Node2 -->
<g id="edge5_Node000003_Node000002" class="edge">
<title>Node3&#45;&gt;Node2</title>
<g id="a_edge5_Node000003_Node000002"><a xlink:title=" ">
<path fill="none" stroke="#63b8ff" d="M691.85,-405.38C596.04,-400.42 291.33,-378.14 291.33,-295.12 291.33,-295.12 291.33,-295.12 291.33,-236.38 291.33,-202.85 276.08,-166.42 265.16,-144.63"/>
<polygon fill="#63b8ff" stroke="#63b8ff" points="268.39,-143.24 260.65,-136 262.18,-146.48 268.39,-143.24"/>
</a>
</g>
</g>
<!-- Node4 -->
<g id="Node000004" class="node">
<title>Node4</title>
<g id="a_Node000004"><a xlink:title=" ">
<polygon fill="#e0e0e0" stroke="#999999" points="763.83,-77.5 708.83,-77.5 708.83,-56.75 763.83,-56.75 763.83,-77.5"/>
<text text-anchor="middle" x="736.33" y="-64" font-family="Helvetica,sans-Serif" font-size="10.00">stddef.h</text>
</a>
</g>
</g>
<!-- Node3&#45;&gt;Node4 -->
<g id="edge3_Node000003_Node000004" class="edge">
<title>Node3&#45;&gt;Node4</title>
<g id="a_edge3_Node000003_Node000004"><a xlink:title=" ">
<path fill="none" stroke="#63b8ff" d="M749.08,-396.81C787.64,-381.61 851.33,-348.44 851.33,-295.12 851.33,-295.12 851.33,-295.12 851.33,-179.62 851.33,-149.05 852.14,-136.8 832.33,-113.5 817.59,-96.16 794.74,-84.99 775.03,-78.08"/>
<polygon fill="#63b8ff" stroke="#63b8ff" points="776.21,-74.78 765.62,-75.03 774.06,-81.44 776.21,-74.78"/>
</a>
</g>
</g>
<!-- Node5 -->
<g id="Node000005" class="node">
<title>Node5</title>
<g id="a_Node000005"><a xlink:title=" ">
<polygon fill="#e0e0e0" stroke="#999999" points="824.71,-20.75 771.96,-20.75 771.96,0 824.71,0 824.71,-20.75"/>
<text text-anchor="middle" x="798.33" y="-7.25" font-family="Helvetica,sans-Serif" font-size="10.00">stdint.h</text>
</a>
</g>
</g>
<!-- Node3&#45;&gt;Node5 -->
<g id="edge4_Node000003_Node000005" class="edge">
<title>Node3&#45;&gt;Node5</title>
<g id="a_edge4_Node000003_Node000005"><a xlink:title=" ">
<path fill="none" stroke="#63b8ff" d="M748.96,-397.6C778.99,-387.79 823.81,-372.07 838.33,-361.25 868.09,-339.07 889.33,-332.24 889.33,-295.12 889.33,-295.12 889.33,-295.12 889.33,-122.88 889.33,-81.26 850.82,-46.6 823.9,-27.46"/>
<polygon fill="#63b8ff" stroke="#63b8ff" points="826.09,-24.71 815.85,-21.98 822.14,-30.5 826.09,-24.71"/>
</a>
</g>
</g>
<!-- Node6 -->
<g id="Node000006" class="node">
<title>Node6</title>
<g id="a_Node000006"><a xlink:href="architecture_8h.html" target="_top" xlink:title="Platform&#45;independent access to architecture details.">
<polygon fill="white" stroke="#666666" points="1023.08,-191 939.58,-191 939.58,-170.25 1023.08,-170.25 1023.08,-191"/>
<text text-anchor="middle" x="981.33" y="-177.5" font-family="Helvetica,sans-Serif" font-size="10.00">architecture.h</text>
</a>
</g>
</g>
<!-- Node3&#45;&gt;Node6 -->
<g id="edge6_Node000003_Node000006" class="edge">
<title>Node3&#45;&gt;Node6</title>
<g id="a_edge6_Node000003_Node000006"><a xlink:title=" ">
<path fill="none" stroke="#63b8ff" d="M748.89,-407.03C788.15,-406.08 858.97,-398.77 903.33,-361.25 953,-319.23 972,-239.66 978.42,-202.16"/>
<polygon fill="#63b8ff" stroke="#63b8ff" points="981.82,-203.08 979.91,-192.66 974.91,-202 981.82,-203.08"/>
</a>
</g>
</g>
<!-- Node10 -->
<g id="Node000010" class="node">
<title>Node10</title>
<g id="a_Node000010"><a xlink:href="kernel__defines_8h.html" target="_top" xlink:title="Common macros and compiler attributes/pragmas configuration.">
<polygon fill="white" stroke="#666666" points="553.46,-191 457.21,-191 457.21,-170.25 553.46,-170.25 553.46,-191"/>
<text text-anchor="middle" x="505.33" y="-177.5" font-family="Helvetica,sans-Serif" font-size="10.00">kernel_defines.h</text>
</a>
</g>
</g>
<!-- Node3&#45;&gt;Node10 -->
<g id="edge11_Node000003_Node000010" class="edge">
<title>Node3&#45;&gt;Node10</title>
<g id="a_edge11_Node000003_Node000010"><a xlink:title=" ">
<path fill="none" stroke="#63b8ff" d="M691.61,-402.25C617.58,-390.33 423.52,-354.77 386.33,-304.5 354.52,-261.51 426.34,-218.21 471.74,-196.3"/>
<polygon fill="#63b8ff" stroke="#63b8ff" points="473.14,-199.51 480.71,-192.1 470.17,-193.17 473.14,-199.51"/>
</a>
</g>
</g>
<!-- Node16 -->
<g id="Node000016" class="node">
<title>Node16</title>
<g id="a_Node000016"><a xlink:href="list_8h.html" target="_top" xlink:title="Intrusive linked list.">
<polygon fill="white" stroke="#666666" points="823.33,-134.25 783.33,-134.25 783.33,-113.5 823.33,-113.5 823.33,-134.25"/>
<text text-anchor="middle" x="803.33" y="-120.75" font-family="Helvetica,sans-Serif" font-size="10.00">list.h</text>
</a>
</g>
</g>
<!-- Node3&#45;&gt;Node16 -->
<g id="edge22_Node000003_Node000016" class="edge">
<title>Node3&#45;&gt;Node16</title>
<g id="a_edge22_Node000003_Node000016"><a xlink:title=" ">
<path fill="none" stroke="#63b8ff" d="M736.96,-396.96C763.71,-380.03 813.33,-342.26 813.33,-295.12 813.33,-295.12 813.33,-295.12 813.33,-236.38 813.33,-204.71 809.28,-168.19 806.33,-145.82"/>
<polygon fill="#63b8ff" stroke="#63b8ff" points="809.84,-145.62 805.01,-136.19 802.91,-146.58 809.84,-145.62"/>
</a>
</g>
</g>
<!-- Node17 -->
<g id="Node000017" class="node">
<title>Node17</title>
<g id="a_Node000017"><a xlink:href="core_2include_2thread_8h.html" target="_top" xlink:title="Threading API.">
<polygon fill="white" stroke="#666666" points="655.58,-361.25 599.08,-361.25 599.08,-340.5 655.58,-340.5 655.58,-361.25"/>
<text text-anchor="middle" x="627.33" y="-347.75" font-family="Helvetica,sans-Serif" font-size="10.00">thread.h</text>
</a>
</g>
</g>
<!-- Node3&#45;&gt;Node17 -->
<g id="edge23_Node000003_Node000017" class="edge">
<title>Node3&#45;&gt;Node17</title>
<g id="a_edge23_Node000003_Node000017"><a xlink:title=" ">
<path fill="none" stroke="#63b8ff" d="M703.7,-396.84C689.82,-388.66 669.77,-376.86 653.7,-367.4"/>
<polygon fill="#63b8ff" stroke="#63b8ff" points="655.51,-364.4 645.12,-362.35 651.96,-370.44 655.51,-364.4"/>
</a>
</g>
</g>
<!-- Node6&#45;&gt;Node5 -->
<g id="edge7_Node000006_Node000005" class="edge">
<title>Node6&#45;&gt;Node5</title>
<g id="a_edge7_Node000006_Node000005"><a xlink:title=" ">
<path fill="none" stroke="#63b8ff" d="M973.1,-169.85C965.71,-160.87 954.75,-147.05 946.33,-134.25 924.68,-101.34 932.52,-83.2 903.33,-56.75 884.28,-39.49 857.65,-28.09 835.98,-21.03"/>
<polygon fill="#63b8ff" stroke="#63b8ff" points="837.2,-17.74 826.61,-18.16 835.15,-24.43 837.2,-17.74"/>
</a>
</g>
</g>
<!-- Node7 -->
<g id="Node000007" class="node">
<title>Node7</title>
<g id="a_Node000007"><a xlink:href="inttypes_8h.html" target="_top" xlink:title="Adds include for missing inttype definitions.">
<polygon fill="white" stroke="#666666" points="1217.71,-134.25 1152.96,-134.25 1152.96,-113.5 1217.71,-113.5 1217.71,-134.25"/>
<text text-anchor="middle" x="1185.33" y="-120.75" font-family="Helvetica,sans-Serif" font-size="10.00">inttypes.h</text>
</a>
</g>
</g>
<!-- Node6&#45;&gt;Node7 -->
<g id="edge8_Node000006_Node000007" class="edge">
<title>Node6&#45;&gt;Node7</title>
<g id="a_edge8_Node000006_Node000007"><a xlink:title=" ">
<path fill="none" stroke="#63b8ff" d="M1017.8,-169.84C1052.49,-160.53 1104.72,-146.51 1141.62,-136.61"/>
<polygon fill="#63b8ff" stroke="#63b8ff" points="1142.33,-140.04 1151.08,-134.07 1140.52,-133.28 1142.33,-140.04"/>
</a>
</g>
</g>
<!-- Node8 -->
<g id="Node000008" class="node">
<title>Node8</title>
<g id="a_Node000008"><a xlink:title=" ">
<polygon fill="#e0e0e0" stroke="#999999" points="1007.71,-134.25 954.96,-134.25 954.96,-113.5 1007.71,-113.5 1007.71,-134.25"/>
<text text-anchor="middle" x="981.33" y="-120.75" font-family="Helvetica,sans-Serif" font-size="10.00">limits.h</text>
</a>
</g>
</g>
<!-- Node6&#45;&gt;Node8 -->
<g id="edge9_Node000006_Node000008" class="edge">
<title>Node6&#45;&gt;Node8</title>
<g id="a_edge9_Node000006_Node000008"><a xlink:title=" ">
<path fill="none" stroke="#63b8ff" d="M981.33,-169.84C981.33,-163.22 981.33,-154.22 981.33,-146.02"/>
<polygon fill="#63b8ff" stroke="#63b8ff" points="984.83,-146.09 981.33,-136.09 977.83,-146.09 984.83,-146.09"/>
</a>
</g>
</g>
<!-- Node9 -->
<g id="Node000009" class="node">
<title>Node9</title>
<g id="a_Node000009"><a xlink:title=" ">
<polygon fill="#e0e0e0" stroke="#999999" points="1135.21,-134.25 1025.46,-134.25 1025.46,-113.5 1135.21,-113.5 1135.21,-134.25"/>
<text text-anchor="middle" x="1080.33" y="-120.75" font-family="Helvetica,sans-Serif" font-size="10.00">architecture_arch.h</text>
</a>
</g>
</g>
<!-- Node6&#45;&gt;Node9 -->
<g id="edge10_Node000006_Node000009" class="edge">
<title>Node6&#45;&gt;Node9</title>
<g id="a_edge10_Node000006_Node000009"><a xlink:title=" ">
<path fill="none" stroke="#63b8ff" d="M999.03,-169.84C1013.95,-161.58 1035.56,-149.63 1052.75,-140.13"/>
<polygon fill="#63b8ff" stroke="#63b8ff" points="1054.4,-143.21 1061.46,-135.31 1051.02,-137.09 1054.4,-143.21"/>
</a>
</g>
</g>
<!-- Node11 -->
<g id="Node000011" class="node">
<title>Node11</title>
<g id="a_Node000011"><a xlink:href="modules_8h.html" target="_top" xlink:title="Common macros and compiler attributes/pragmas configuration.">
<polygon fill="white" stroke="#666666" points="688.83,-134.25 621.83,-134.25 621.83,-113.5 688.83,-113.5 688.83,-134.25"/>
<text text-anchor="middle" x="655.33" y="-120.75" font-family="Helvetica,sans-Serif" font-size="10.00">modules.h</text>
</a>
</g>
</g>
<!-- Node10&#45;&gt;Node11 -->
<g id="edge12_Node000010_Node000011" class="edge">
<title>Node10&#45;&gt;Node11</title>
<g id="a_edge12_Node000010_Node000011"><a xlink:title=" ">
<path fill="none" stroke="#63b8ff" d="M532.15,-169.84C556.07,-161.11 591.33,-148.23 618.01,-138.5"/>
<polygon fill="#63b8ff" stroke="#63b8ff" points="618.88,-141.91 627.07,-135.19 616.48,-135.33 618.88,-141.91"/>
</a>
</g>
</g>
<!-- Node12 -->
<g id="Node000012" class="node">
<title>Node12</title>
<g id="a_Node000012"><a xlink:href="riot__version_8h.html" target="_top" xlink:title="Common macros and compiler attributes/pragmas configuration.">
<polygon fill="white" stroke="#666666" points="623.71,-77.5 540.96,-77.5 540.96,-56.75 623.71,-56.75 623.71,-77.5"/>
<text text-anchor="middle" x="582.33" y="-64" font-family="Helvetica,sans-Serif" font-size="10.00">riot_version.h</text>
</a>
</g>
</g>
<!-- Node10&#45;&gt;Node12 -->
<g id="edge13_Node000010_Node000012" class="edge">
<title>Node10&#45;&gt;Node12</title>
<g id="a_edge13_Node000010_Node000012"><a xlink:title=" ">
<path fill="none" stroke="#63b8ff" d="M506.24,-169.86C507.9,-156.21 512.44,-131.13 524.33,-113.5 532.16,-101.9 543.9,-91.92 554.77,-84.3"/>
<polygon fill="#63b8ff" stroke="#63b8ff" points="556.68,-87.23 563.12,-78.81 552.84,-81.38 556.68,-87.23"/>
</a>
</g>
</g>
<!-- Node13 -->
<g id="Node000013" class="node">
<title>Node13</title>
<g id="a_Node000013"><a xlink:href="compiler__hints_8h.html" target="_top" xlink:title="Common macros and compiler attributes/pragmas configuration.">
<polygon fill="white" stroke="#666666" points="476.83,-134.25 379.83,-134.25 379.83,-113.5 476.83,-113.5 476.83,-134.25"/>
<text text-anchor="middle" x="428.33" y="-120.75" font-family="Helvetica,sans-Serif" font-size="10.00">compiler_hints.h</text>
</a>
</g>
</g>
<!-- Node10&#45;&gt;Node13 -->
<g id="edge15_Node000010_Node000013" class="edge">
<title>Node10&#45;&gt;Node13</title>
<g id="a_edge15_Node000010_Node000013"><a xlink:title=" ">
<path fill="none" stroke="#63b8ff" d="M491.56,-169.84C480.4,-161.9 464.41,-150.53 451.31,-141.21"/>
<polygon fill="#63b8ff" stroke="#63b8ff" points="453.39,-138.4 443.21,-135.46 449.33,-144.1 453.39,-138.4"/>
</a>
</g>
</g>
<!-- Node15 -->
<g id="Node000015" class="node">
<title>Node15</title>
<g id="a_Node000015"><a xlink:href="container_8h.html" target="_top" xlink:title="Common macros and compiler attributes/pragmas configuration.">
<polygon fill="white" stroke="#666666" points="603.71,-134.25 532.96,-134.25 532.96,-113.5 603.71,-113.5 603.71,-134.25"/>
<text text-anchor="middle" x="568.33" y="-120.75" font-family="Helvetica,sans-Serif" font-size="10.00">container.h</text>
</a>
</g>
</g>
<!-- Node10&#45;&gt;Node15 -->
<g id="edge19_Node000010_Node000015" class="edge">
<title>Node10&#45;&gt;Node15</title>
<g id="a_edge19_Node000010_Node000015"><a xlink:title=" ">
<path fill="none" stroke="#63b8ff" d="M516.59,-169.84C525.46,-162.13 538.04,-151.2 548.58,-142.04"/>
<polygon fill="#63b8ff" stroke="#63b8ff" points="550.77,-144.77 556.02,-135.57 546.18,-139.49 550.77,-144.77"/>
</a>
</g>
</g>
<!-- Node12&#45;&gt;Node5 -->
<g id="edge14_Node000012_Node000005" class="edge">
<title>Node12&#45;&gt;Node5</title>
<g id="a_edge14_Node000012_Node000005"><a xlink:title=" ">
<path fill="none" stroke="#63b8ff" d="M620.95,-56.34C660.49,-46.31 721.54,-30.84 760.71,-20.91"/>
<polygon fill="#63b8ff" stroke="#63b8ff" points="761.33,-24.36 770.16,-18.51 759.61,-17.58 761.33,-24.36"/>
</a>
</g>
</g>
<!-- Node13&#45;&gt;Node5 -->
<g id="edge18_Node000013_Node000005" class="edge">
<title>Node13&#45;&gt;Node5</title>
<g id="a_edge18_Node000013_Node000005"><a xlink:title=" ">
<path fill="none" stroke="#63b8ff" d="M440.27,-113C458.76,-98.26 495.99,-70.75 532.33,-56.75 609.8,-26.91 707.46,-16.64 760.25,-13.15"/>
<polygon fill="#63b8ff" stroke="#63b8ff" points="760.46,-16.64 770.23,-12.54 760.04,-9.65 760.46,-16.64"/>
</a>
</g>
</g>
<!-- Node14 -->
<g id="Node000014" class="node">
<title>Node14</title>
<g id="a_Node000014"><a xlink:href="assert_8h.html" target="_top" xlink:title="POSIX.1&#45;2008 compliant version of the assert macro.">
<polygon fill="white" stroke="#666666" points="455.83,-77.5 400.83,-77.5 400.83,-56.75 455.83,-56.75 455.83,-77.5"/>
<text text-anchor="middle" x="428.33" y="-64" font-family="Helvetica,sans-Serif" font-size="10.00">assert.h</text>
</a>
</g>
</g>
<!-- Node13&#45;&gt;Node14 -->
<g id="edge16_Node000013_Node000014" class="edge">
<title>Node13&#45;&gt;Node14</title>
<g id="a_edge16_Node000013_Node000014"><a xlink:title=" ">
<path fill="none" stroke="#63b8ff" d="M428.33,-113.09C428.33,-106.47 428.33,-97.47 428.33,-89.27"/>
<polygon fill="#63b8ff" stroke="#63b8ff" points="431.83,-89.34 428.33,-79.34 424.83,-89.34 431.83,-89.34"/>
</a>
</g>
</g>
<!-- Node14&#45;&gt;Node5 -->
<g id="edge17_Node000014_Node000005" class="edge">
<title>Node14&#45;&gt;Node5</title>
<g id="a_edge17_Node000014_Node000005"><a xlink:title=" ">
<path fill="none" stroke="#63b8ff" d="M456.26,-61.79C466.64,-60.19 478.52,-58.37 489.33,-56.75 586.9,-42.09 701.88,-25.35 760.23,-16.89"/>
<polygon fill="#63b8ff" stroke="#63b8ff" points="760.56,-20.37 769.96,-15.48 759.56,-13.45 760.56,-20.37"/>
</a>
</g>
</g>
<!-- Node15&#45;&gt;Node4 -->
<g id="edge20_Node000015_Node000004" class="edge">
<title>Node15&#45;&gt;Node4</title>
<g id="a_edge20_Node000015_Node000004"><a xlink:title=" ">
<path fill="none" stroke="#63b8ff" d="M598.37,-113.09C626.19,-104.02 667.71,-90.49 697.93,-80.64"/>
<polygon fill="#63b8ff" stroke="#63b8ff" points="698.65,-84.09 707.07,-77.66 696.48,-77.43 698.65,-84.09"/>
</a>
</g>
</g>
<!-- Node15&#45;&gt;Node5 -->
<g id="edge21_Node000015_Node000005" class="edge">
<title>Node15&#45;&gt;Node5</title>
<g id="a_edge21_Node000015_Node000005"><a xlink:title=" ">
<path fill="none" stroke="#63b8ff" d="M587.48,-113.05C613.08,-99.97 659.92,-76.22 700.33,-56.75 722.32,-46.16 747.28,-34.6 766.51,-25.81"/>
<polygon fill="#63b8ff" stroke="#63b8ff" points="767.81,-29.06 775.45,-21.73 764.9,-22.69 767.81,-29.06"/>
</a>
</g>
</g>
<!-- Node18 -->
<g id="Node000018" class="node">
<title>Node18</title>
<g id="a_Node000018"><a xlink:href="clist_8h.html" target="_top" xlink:title="Circular linked list.">
<polygon fill="white" stroke="#666666" points="784.96,-191 739.71,-191 739.71,-170.25 784.96,-170.25 784.96,-191"/>
<text text-anchor="middle" x="762.33" y="-177.5" font-family="Helvetica,sans-Serif" font-size="10.00">clist.h</text>
</a>
</g>
</g>
<!-- Node17&#45;&gt;Node18 -->
<g id="edge24_Node000017_Node000018" class="edge">
<title>Node17&#45;&gt;Node18</title>
<g id="a_edge24_Node000017_Node000018"><a xlink:title=" ">
<path fill="none" stroke="#63b8ff" d="M656.04,-348.63C686.38,-345.62 732.99,-335.81 756.33,-304.5 778.48,-274.79 773.36,-228.9 767.76,-202.42"/>
<polygon fill="#63b8ff" stroke="#63b8ff" points="771.22,-201.84 765.52,-192.91 764.41,-203.45 771.22,-201.84"/>
</a>
</g>
</g>
<!-- Node19 -->
<g id="Node000019" class="node">
<title>Node19</title>
<g id="a_Node000019"><a xlink:href="cib_8h.html" target="_top" xlink:title="Circular integer buffer interface.">
<polygon fill="white" stroke="#666666" points="498.96,-304.5 459.71,-304.5 459.71,-283.75 498.96,-283.75 498.96,-304.5"/>
<text text-anchor="middle" x="479.33" y="-291" font-family="Helvetica,sans-Serif" font-size="10.00">cib.h</text>
</a>
</g>
</g>
<!-- Node17&#45;&gt;Node19 -->
<g id="edge28_Node000017_Node000019" class="edge">
<title>Node17&#45;&gt;Node19</title>
<g id="a_edge28_Node000017_Node000019"><a xlink:title=" ">
<path fill="none" stroke="#63b8ff" d="M600.87,-340.09C575.41,-330.67 536.92,-316.43 510.1,-306.51"/>
<polygon fill="#63b8ff" stroke="#63b8ff" points="511.41,-303.26 500.81,-303.07 508.98,-309.82 511.41,-303.26"/>
</a>
</g>
</g>
<!-- Node20 -->
<g id="Node000020" class="node">
<title>Node20</title>
<g id="a_Node000020"><a xlink:href="core_2include_2msg_8h.html" target="_top" xlink:title="Messaging API for inter process communication.">
<polygon fill="white" stroke="#666666" points="441.33,-304.5 395.33,-304.5 395.33,-283.75 441.33,-283.75 441.33,-304.5"/>
<text text-anchor="middle" x="418.33" y="-291" font-family="Helvetica,sans-Serif" font-size="10.00">msg.h</text>
</a>
</g>
</g>
<!-- Node17&#45;&gt;Node20 -->
<g id="edge30_Node000017_Node000020" class="edge">
<title>Node17&#45;&gt;Node20</title>
<g id="a_edge30_Node000017_Node000020"><a xlink:title=" ">
<path fill="none" stroke="#63b8ff" d="M598.74,-342.86C565.81,-334.72 509.8,-320.66 452.76,-305.1"/>
<polygon fill="#63b8ff" stroke="#63b8ff" points="453.75,-301.75 443.18,-302.48 451.9,-308.5 453.75,-301.75"/>
</a>
</g>
</g>
<!-- Node21 -->
<g id="Node000021" class="node">
<title>Node21</title>
<g id="a_Node000021"><a xlink:href="sched_8h.html" target="_top" xlink:title="Scheduler API definition.">
<polygon fill="white" stroke="#666666" points="657.08,-247.75 603.58,-247.75 603.58,-227 657.08,-227 657.08,-247.75"/>
<text text-anchor="middle" x="630.33" y="-234.25" font-family="Helvetica,sans-Serif" font-size="10.00">sched.h</text>
</a>
</g>
</g>
<!-- Node17&#45;&gt;Node21 -->
<g id="edge39_Node000017_Node000021" class="edge">
<title>Node17&#45;&gt;Node21</title>
<g id="a_edge39_Node000017_Node000021"><a xlink:title=" ">
<path fill="none" stroke="#63b8ff" d="M627.59,-340.37C628.06,-322.6 629.1,-283.97 629.76,-259.68"/>
<polygon fill="#63b8ff" stroke="#63b8ff" points="633.26,-259.78 630.03,-249.69 626.26,-259.59 633.26,-259.78"/>
</a>
</g>
</g>
<!-- Node23 -->
<g id="Node000023" class="node">
<title>Node23</title>
<g id="a_Node000023"><a xlink:href="thread__config_8h.html" target="_top" xlink:title="Thread configuration defines.">
<polygon fill="white" stroke="#666666" points="747.21,-304.5 655.46,-304.5 655.46,-283.75 747.21,-283.75 747.21,-304.5"/>
<text text-anchor="middle" x="701.33" y="-291" font-family="Helvetica,sans-Serif" font-size="10.00">thread_config.h</text>
</a>
</g>
</g>
<!-- Node17&#45;&gt;Node23 -->
<g id="edge40_Node000017_Node000023" class="edge">
<title>Node17&#45;&gt;Node23</title>
<g id="a_edge40_Node000017_Node000023"><a xlink:title=" ">
<path fill="none" stroke="#63b8ff" d="M640.56,-340.09C651.29,-332.15 666.66,-320.78 679.25,-311.46"/>
<polygon fill="#63b8ff" stroke="#63b8ff" points="681.04,-314.49 687,-305.73 676.88,-308.86 681.04,-314.49"/>
</a>
</g>
</g>
<!-- Node25 -->
<g id="Node000025" class="node">
<title>Node25</title>
<g id="a_Node000025"><a xlink:title=" ">
<polygon fill="#e0e0e0" stroke="#999999" points="599.71,-304.5 516.96,-304.5 516.96,-283.75 599.71,-283.75 599.71,-304.5"/>
<text text-anchor="middle" x="558.33" y="-291" font-family="Helvetica,sans-Serif" font-size="10.00">thread_arch.h</text>
</a>
</g>
</g>
<!-- Node17&#45;&gt;Node25 -->
<g id="edge43_Node000017_Node000025" class="edge">
<title>Node17&#45;&gt;Node25</title>
<g id="a_edge43_Node000017_Node000025"><a xlink:title=" ">
<path fill="none" stroke="#63b8ff" d="M614.99,-340.09C605.08,-332.22 590.94,-321 579.27,-311.74"/>
<polygon fill="#63b8ff" stroke="#63b8ff" points="581.75,-309.24 571.75,-305.77 577.4,-314.73 581.75,-309.24"/>
</a>
</g>
</g>
<!-- Node18&#45;&gt;Node2 -->
<g id="edge25_Node000018_Node000002" class="edge">
<title>Node18&#45;&gt;Node2</title>
<g id="a_edge25_Node000018_Node000002"><a xlink:title=" ">
<path fill="none" stroke="#63b8ff" d="M739.47,-176.79C723.93,-174.88 702.9,-172.35 684.33,-170.25 542.07,-154.2 373.13,-136.88 296.21,-129.09"/>
<polygon fill="#63b8ff" stroke="#63b8ff" points="296.92,-125.64 286.62,-128.12 296.21,-132.61 296.92,-125.64"/>
</a>
</g>
</g>
<!-- Node18&#45;&gt;Node4 -->
<g id="edge26_Node000018_Node000004" class="edge">
<title>Node18&#45;&gt;Node4</title>
<g id="a_edge26_Node000018_Node000004"><a xlink:title=" ">
<path fill="none" stroke="#63b8ff" d="M760.11,-170.12C755.95,-152.27 746.88,-113.36 741.22,-89.09"/>
<polygon fill="#63b8ff" stroke="#63b8ff" points="744.64,-88.34 738.96,-79.4 737.82,-89.93 744.64,-88.34"/>
</a>
</g>
</g>
<!-- Node18&#45;&gt;Node16 -->
<g id="edge27_Node000018_Node000016" class="edge">
<title>Node18&#45;&gt;Node16</title>
<g id="a_edge27_Node000018_Node000016"><a xlink:title=" ">
<path fill="none" stroke="#63b8ff" d="M769.66,-169.84C775.08,-162.6 782.64,-152.51 789.22,-143.72"/>
<polygon fill="#63b8ff" stroke="#63b8ff" points="791.96,-145.89 795.16,-135.79 786.36,-141.7 791.96,-145.89"/>
</a>
</g>
</g>
<!-- Node19&#45;&gt;Node14 -->
<g id="edge29_Node000019_Node000014" class="edge">
<title>Node19&#45;&gt;Node14</title>
<g id="a_edge29_Node000019_Node000014"><a xlink:title=" ">
<path fill="none" stroke="#63b8ff" d="M471.71,-283.66C448.69,-254.85 380.83,-168.12 370.33,-134.25 367.6,-125.44 366.29,-121.79 370.33,-113.5 376.29,-101.27 387.32,-91.37 398.17,-83.97"/>
<polygon fill="#63b8ff" stroke="#63b8ff" points="400.02,-86.94 406.65,-78.69 396.31,-81 400.02,-86.94"/>
</a>
</g>
</g>
<!-- Node20&#45;&gt;Node2 -->
<g id="edge32_Node000020_Node000002" class="edge">
<title>Node20&#45;&gt;Node2</title>
<g id="a_edge32_Node000020_Node000002"><a xlink:title=" ">
<path fill="none" stroke="#63b8ff" d="M409.86,-283.26C391.46,-261.99 346.24,-210.49 305.33,-170.25 295.47,-160.55 284,-150.27 274.44,-141.94"/>
<polygon fill="#63b8ff" stroke="#63b8ff" points="276.98,-139.51 267.12,-135.64 272.41,-144.82 276.98,-139.51"/>
</a>
</g>
</g>
<!-- Node20&#45;&gt;Node5 -->
<g id="edge31_Node000020_Node000005" class="edge">
<title>Node20&#45;&gt;Node5</title>
<g id="a_edge31_Node000020_Node000005"><a xlink:title=" ">
<path fill="none" stroke="#63b8ff" d="M412.31,-283.26C390.02,-245.37 317.11,-108.82 391.33,-56.75 450.25,-15.42 670.5,-11.08 760.08,-11.08"/>
<polygon fill="#63b8ff" stroke="#63b8ff" points="760.06,-14.58 770.06,-11.1 760.07,-7.58 760.06,-14.58"/>
</a>
</g>
</g>
<!-- Node20&#45;&gt;Node21 -->
<g id="edge33_Node000020_Node000021" class="edge">
<title>Node20&#45;&gt;Node21</title>
<g id="a_edge33_Node000020_Node000021"><a xlink:title=" ">
<path fill="none" stroke="#63b8ff" d="M441.72,-286.16C444.62,-285.33 447.54,-284.51 450.33,-283.75 499.01,-270.49 555.47,-256.48 591.99,-247.59"/>
<polygon fill="#63b8ff" stroke="#63b8ff" points="592.74,-251.01 601.64,-245.25 591.09,-244.21 592.74,-251.01"/>
</a>
</g>
</g>
<!-- Node21&#45;&gt;Node4 -->
<g id="edge34_Node000021_Node000004" class="edge">
<title>Node21&#45;&gt;Node4</title>
<g id="a_edge34_Node000021_Node000004"><a xlink:title=" ">
<path fill="none" stroke="#63b8ff" d="M645.3,-226.75C657.2,-218.47 673.56,-205.58 684.33,-191 707.98,-158.97 723.32,-114.57 730.84,-88.84"/>
<polygon fill="#63b8ff" stroke="#63b8ff" points="734.18,-89.87 733.5,-79.3 727.44,-87.99 734.18,-89.87"/>
</a>
</g>
</g>
<!-- Node21&#45;&gt;Node7 -->
<g id="edge35_Node000021_Node000007" class="edge">
<title>Node21&#45;&gt;Node7</title>
<g id="a_edge35_Node000021_Node000007"><a xlink:title=" ">
<path fill="none" stroke="#63b8ff" d="M657.36,-228.85C660.37,-228.16 663.41,-227.52 666.33,-227 827.25,-198.32 874.08,-231.91 1032.33,-191 1077.99,-179.19 1127.53,-155.62 1157.5,-140.04"/>
<polygon fill="#63b8ff" stroke="#63b8ff" points="1159.06,-143.18 1166.27,-135.41 1155.79,-136.99 1159.06,-143.18"/>
</a>
</g>
</g>
<!-- Node21&#45;&gt;Node10 -->
<g id="edge36_Node000021_Node000010" class="edge">
<title>Node21&#45;&gt;Node10</title>
<g id="a_edge36_Node000021_Node000010"><a xlink:title=" ">
<path fill="none" stroke="#63b8ff" d="M607.98,-226.59C588.52,-218.06 560.05,-205.59 538.02,-195.94"/>
<polygon fill="#63b8ff" stroke="#63b8ff" points="539.44,-192.74 528.87,-191.94 536.63,-199.15 539.44,-192.74"/>
</a>
</g>
</g>
<!-- Node21&#45;&gt;Node18 -->
<g id="edge38_Node000021_Node000018" class="edge">
<title>Node21&#45;&gt;Node18</title>
<g id="a_edge38_Node000021_Node000018"><a xlink:title=" ">
<path fill="none" stroke="#63b8ff" d="M653.93,-226.59C674.8,-217.93 705.48,-205.21 728.88,-195.5"/>
<polygon fill="#63b8ff" stroke="#63b8ff" points="730.08,-198.79 737.98,-191.72 727.4,-192.32 730.08,-198.79"/>
</a>
</g>
</g>
<!-- Node22 -->
<g id="Node000022" class="node">
<title>Node22</title>
<g id="a_Node000022"><a xlink:href="native__sched_8h.html" target="_top" xlink:title="Add definitions required on the native board.">
<polygon fill="white" stroke="#666666" points="675.08,-191 585.58,-191 585.58,-170.25 675.08,-170.25 675.08,-191"/>
<text text-anchor="middle" x="630.33" y="-177.5" font-family="Helvetica,sans-Serif" font-size="10.00">native_sched.h</text>
</a>
</g>
</g>
<!-- Node21&#45;&gt;Node22 -->
<g id="edge37_Node000021_Node000022" class="edge">
<title>Node21&#45;&gt;Node22</title>
<g id="a_edge37_Node000021_Node000022"><a xlink:title=" ">
<path fill="none" stroke="#63b8ff" d="M630.33,-226.59C630.33,-219.97 630.33,-210.97 630.33,-202.77"/>
<polygon fill="#63b8ff" stroke="#63b8ff" points="633.83,-202.84 630.33,-192.84 626.83,-202.84 633.83,-202.84"/>
</a>
</g>
</g>
<!-- Node23&#45;&gt;Node21 -->
<g id="edge42_Node000023_Node000021" class="edge">
<title>Node23&#45;&gt;Node21</title>
<g id="a_edge42_Node000023_Node000021"><a xlink:title=" ">
<path fill="none" stroke="#63b8ff" d="M688.64,-283.34C678.44,-275.47 663.89,-264.25 651.87,-254.99"/>
<polygon fill="#63b8ff" stroke="#63b8ff" points="654.17,-252.34 644.11,-249 649.89,-257.88 654.17,-252.34"/>
</a>
</g>
</g>
<!-- Node24 -->
<g id="Node000024" class="node">
<title>Node24</title>
<g id="a_Node000024"><a xlink:title=" ">
<polygon fill="#e0e0e0" stroke="#999999" points="743.21,-247.75 675.46,-247.75 675.46,-227 743.21,-227 743.21,-247.75"/>
<text text-anchor="middle" x="709.33" y="-234.25" font-family="Helvetica,sans-Serif" font-size="10.00">cpu_conf.h</text>
</a>
</g>
</g>
<!-- Node23&#45;&gt;Node24 -->
<g id="edge41_Node000023_Node000024" class="edge">
<title>Node23&#45;&gt;Node24</title>
<g id="a_edge41_Node000023_Node000024"><a xlink:title=" ">
<path fill="none" stroke="#63b8ff" d="M702.76,-283.34C703.74,-276.64 705.07,-267.51 706.28,-259.23"/>
<polygon fill="#63b8ff" stroke="#63b8ff" points="709.71,-259.98 707.69,-249.58 702.78,-258.96 709.71,-259.98"/>
</a>
</g>
</g>
<!-- Node26&#45;&gt;Node5 -->
<g id="edge45_Node000026_Node000005" class="edge">
<title>Node26&#45;&gt;Node5</title>
<g id="a_edge45_Node000026_Node000005"><a xlink:title=" ">
<path fill="none" stroke="#63b8ff" d="M1280.73,-226.5C1267.27,-197.66 1228.76,-115.46 1226.33,-113.5 1195.58,-88.7 935.11,-37.31 836.21,-18.48"/>
<polygon fill="#63b8ff" stroke="#63b8ff" points="836.94,-15.06 826.47,-16.63 835.64,-21.94 836.94,-15.06"/>
</a>
</g>
</g>
<!-- Node27 -->
<g id="Node000027" class="node">
<title>Node27</title>
<g id="a_Node000027"><a xlink:href="net_2ethernet_2hdr_8h.html" target="_top" xlink:title="Ethernet header definitions.">
<polygon fill="white" stroke="#666666" points="1377.21,-191 1273.46,-191 1273.46,-170.25 1377.21,-170.25 1377.21,-191"/>
<text text-anchor="middle" x="1325.33" y="-177.5" font-family="Helvetica,sans-Serif" font-size="10.00">net/ethernet/hdr.h</text>
</a>
</g>
</g>
<!-- Node26&#45;&gt;Node27 -->
<g id="edge46_Node000026_Node000027" class="edge">
<title>Node26&#45;&gt;Node27</title>
<g id="a_edge46_Node000026_Node000027"><a xlink:title=" ">
<path fill="none" stroke="#63b8ff" d="M1292.48,-226.59C1297.77,-219.35 1305.14,-209.26 1311.56,-200.47"/>
<polygon fill="#63b8ff" stroke="#63b8ff" points="1314.28,-202.69 1317.35,-192.55 1308.62,-198.56 1314.28,-202.69"/>
</a>
</g>
</g>
<!-- Node32 -->
<g id="Node000032" class="node">
<title>Node32</title>
<g id="a_Node000032"><a xlink:href="eui64_8h.html" target="_top" xlink:title="EUI&#45;64 data type definition.">
<polygon fill="white" stroke="#666666" points="1465.71,-191 1394.96,-191 1394.96,-170.25 1465.71,-170.25 1465.71,-191"/>
<text text-anchor="middle" x="1430.33" y="-177.5" font-family="Helvetica,sans-Serif" font-size="10.00">net/eui64.h</text>
</a>
</g>
</g>
<!-- Node26&#45;&gt;Node32 -->
<g id="edge55_Node000026_Node000032" class="edge">
<title>Node26&#45;&gt;Node32</title>
<g id="a_edge55_Node000026_Node000032"><a xlink:title=" ">
<path fill="none" stroke="#63b8ff" d="M1311.25,-226.59C1334.35,-217.87 1368.38,-205.02 1394.15,-195.29"/>
<polygon fill="#63b8ff" stroke="#63b8ff" points="1395.1,-198.67 1403.22,-191.86 1392.62,-192.12 1395.1,-198.67"/>
</a>
</g>
</g>
<!-- Node27&#45;&gt;Node7 -->
<g id="edge47_Node000027_Node000007" class="edge">
<title>Node27&#45;&gt;Node7</title>
<g id="a_edge47_Node000027_Node000007"><a xlink:title=" ">
<path fill="none" stroke="#63b8ff" d="M1300.3,-169.84C1278.1,-161.16 1245.44,-148.38 1220.6,-138.67"/>
<polygon fill="#63b8ff" stroke="#63b8ff" points="1222.14,-135.51 1211.55,-135.13 1219.59,-142.03 1222.14,-135.51"/>
</a>
</g>
</g>
<!-- Node28 -->
<g id="Node000028" class="node">
<title>Node28</title>
<g id="a_Node000028"><a xlink:href="byteorder_8h.html" target="_top" xlink:title="Functions to work with different byte orders.">
<polygon fill="white" stroke="#666666" points="1353.46,-134.25 1281.21,-134.25 1281.21,-113.5 1353.46,-113.5 1353.46,-134.25"/>
<text text-anchor="middle" x="1317.33" y="-120.75" font-family="Helvetica,sans-Serif" font-size="10.00">byteorder.h</text>
</a>
</g>
</g>
<!-- Node27&#45;&gt;Node28 -->
<g id="edge48_Node000027_Node000028" class="edge">
<title>Node27&#45;&gt;Node28</title>
<g id="a_edge48_Node000027_Node000028"><a xlink:title=" ">
<path fill="none" stroke="#63b8ff" d="M1323.9,-169.84C1322.92,-163.14 1321.59,-154.01 1320.38,-145.73"/>
<polygon fill="#63b8ff" stroke="#63b8ff" points="1323.88,-145.46 1318.97,-136.08 1316.95,-146.48 1323.88,-145.46"/>
</a>
</g>
</g>
<!-- Node28&#45;&gt;Node5 -->
<g id="edge50_Node000028_Node000005" class="edge">
<title>Node28&#45;&gt;Node5</title>
<g id="a_edge50_Node000028_Node000005"><a xlink:title=" ">
<path fill="none" stroke="#63b8ff" d="M1284.95,-113.04C1257.77,-104.49 1218.08,-91.34 1184.33,-77.5 1164.7,-69.45 1161.66,-62.83 1141.33,-56.75 1033.79,-24.59 900.49,-15.2 836.33,-12.48"/>
<polygon fill="#63b8ff" stroke="#63b8ff" points="836.82,-9 826.69,-12.1 836.55,-15.99 836.82,-9"/>
</a>
</g>
</g>
<!-- Node29 -->
<g id="Node000029" class="node">
<title>Node29</title>
<g id="a_Node000029"><a xlink:title=" ">
<polygon fill="#e0e0e0" stroke="#999999" points="1413.71,-77.5 1360.96,-77.5 1360.96,-56.75 1413.71,-56.75 1413.71,-77.5"/>
<text text-anchor="middle" x="1387.33" y="-64" font-family="Helvetica,sans-Serif" font-size="10.00">string.h</text>
</a>
</g>
</g>
<!-- Node28&#45;&gt;Node29 -->
<g id="edge49_Node000028_Node000029" class="edge">
<title>Node28&#45;&gt;Node29</title>
<g id="a_edge49_Node000028_Node000029"><a xlink:title=" ">
<path fill="none" stroke="#63b8ff" d="M1329.85,-113.09C1339.9,-105.22 1354.25,-94 1366.09,-84.74"/>
<polygon fill="#63b8ff" stroke="#63b8ff" points="1368.01,-87.68 1373.73,-78.76 1363.7,-82.16 1368.01,-87.68"/>
</a>
</g>
</g>
<!-- Node30 -->
<g id="Node000030" class="node">
<title>Node30</title>
<g id="a_Node000030"><a xlink:href="endian_8h.html" target="_top" xlink:title="libc header for endian conversion">
<polygon fill="white" stroke="#666666" points="1251.33,-77.5 1193.33,-77.5 1193.33,-56.75 1251.33,-56.75 1251.33,-77.5"/>
<text text-anchor="middle" x="1222.33" y="-64" font-family="Helvetica,sans-Serif" font-size="10.00">endian.h</text>
</a>
</g>
</g>
<!-- Node28&#45;&gt;Node30 -->
<g id="edge51_Node000028_Node000030" class="edge">
<title>Node28&#45;&gt;Node30</title>
<g id="a_edge51_Node000028_Node000030"><a xlink:title=" ">
<path fill="none" stroke="#63b8ff" d="M1300.35,-113.09C1286.03,-104.83 1265.29,-92.88 1248.79,-83.38"/>
<polygon fill="#63b8ff" stroke="#63b8ff" points="1250.89,-80.55 1240.48,-78.58 1247.4,-86.61 1250.89,-80.55"/>
</a>
</g>
</g>
<!-- Node31 -->
<g id="Node000031" class="node">
<title>Node31</title>
<g id="a_Node000031"><a xlink:href="unaligned_8h.html" target="_top" xlink:title="Unaligned but safe memory access functions.">
<polygon fill="white" stroke="#666666" points="1342.83,-77.5 1269.83,-77.5 1269.83,-56.75 1342.83,-56.75 1342.83,-77.5"/>
<text text-anchor="middle" x="1306.33" y="-64" font-family="Helvetica,sans-Serif" font-size="10.00">unaligned.h</text>
</a>
</g>
</g>
<!-- Node28&#45;&gt;Node31 -->
<g id="edge53_Node000028_Node000031" class="edge">
<title>Node28&#45;&gt;Node31</title>
<g id="a_edge53_Node000028_Node000031"><a xlink:title=" ">
<path fill="none" stroke="#63b8ff" d="M1315.36,-113.09C1314.02,-106.39 1312.18,-97.26 1310.52,-88.98"/>
<polygon fill="#63b8ff" stroke="#63b8ff" points="1313.98,-88.43 1308.58,-79.31 1307.12,-89.81 1313.98,-88.43"/>
</a>
</g>
</g>
<!-- Node30&#45;&gt;Node5 -->
<g id="edge52_Node000030_Node000005" class="edge">
<title>Node30&#45;&gt;Node5</title>
<g id="a_edge52_Node000030_Node000005"><a xlink:title=" ">
<path fill="none" stroke="#63b8ff" d="M1193.26,-59.39C1188.62,-58.43 1183.85,-57.51 1179.33,-56.75 1054.2,-35.71 904.35,-20.86 835.84,-14.64"/>
<polygon fill="#63b8ff" stroke="#63b8ff" points="836.56,-11.19 826.29,-13.78 835.94,-18.16 836.56,-11.19"/>
</a>
</g>
</g>
<!-- Node31&#45;&gt;Node5 -->
<g id="edge54_Node000031_Node000005" class="edge">
<title>Node31&#45;&gt;Node5</title>
<g id="a_edge54_Node000031_Node000005"><a xlink:title=" ">
<path fill="none" stroke="#63b8ff" d="M1269.48,-58.27C1266.39,-57.71 1263.31,-57.2 1260.33,-56.75 1103.79,-33.18 915.49,-19.07 836.32,-13.77"/>
<polygon fill="#63b8ff" stroke="#63b8ff" points="836.73,-10.29 826.52,-13.13 836.27,-17.28 836.73,-10.29"/>
</a>
</g>
</g>
<!-- Node32&#45;&gt;Node5 -->
<g id="edge56_Node000032_Node000005" class="edge">
<title>Node32&#45;&gt;Node5</title>
<g id="a_edge56_Node000032_Node000005"><a xlink:title=" ">
<path fill="none" stroke="#63b8ff" d="M1433.37,-169.97C1440.02,-146.77 1452.9,-87.55 1422.33,-56.75 1381.01,-15.12 965.16,-11.44 836.23,-11.3"/>
<polygon fill="#63b8ff" stroke="#63b8ff" points="836.53,-7.8 826.53,-11.3 836.53,-14.8 836.53,-7.8"/>
</a>
</g>
</g>
<!-- Node32&#45;&gt;Node28 -->
<g id="edge57_Node000032_Node000028" class="edge">
<title>Node32&#45;&gt;Node28</title>
<g id="a_edge57_Node000032_Node000028"><a xlink:title=" ">
<path fill="none" stroke="#63b8ff" d="M1410.13,-169.84C1392.77,-161.43 1367.5,-149.18 1347.7,-139.59"/>
<polygon fill="#63b8ff" stroke="#63b8ff" points="1349.25,-136.45 1338.72,-135.24 1346.19,-142.75 1349.25,-136.45"/>
</a>
</g>
</g>
<!-- Node33&#45;&gt;Node5 -->
<g id="edge59_Node000033_Node000005" class="edge">
<title>Node33&#45;&gt;Node5</title>
<g id="a_edge59_Node000033_Node000005"><a xlink:title=" ">
<path fill="none" stroke="#63b8ff" d="M108.58,-233.07C58.14,-227.1 -20.67,-211.08 5.33,-170.25 69.34,-69.7 133.13,-87.35 248.33,-56.75 345.39,-30.97 652.32,-16.98 760.3,-12.76"/>
<polygon fill="#63b8ff" stroke="#63b8ff" points="760.22,-16.27 770.07,-12.39 759.95,-9.27 760.22,-16.27"/>
</a>
</g>
</g>
<!-- Node33&#45;&gt;Node10 -->
<g id="edge65_Node000033_Node000010" class="edge">
<title>Node33&#45;&gt;Node10</title>
<g id="a_edge65_Node000033_Node000010"><a xlink:title=" ">
<path fill="none" stroke="#63b8ff" d="M185.98,-230.46C248.5,-220.9 372.21,-201.98 445.96,-190.7"/>
<polygon fill="#63b8ff" stroke="#63b8ff" points="446.05,-194.23 455.41,-189.26 445,-187.31 446.05,-194.23"/>
</a>
</g>
</g>
<!-- Node34 -->
<g id="Node000034" class="node">
<title>Node34</title>
<g id="a_Node000034"><a xlink:href="errno_8h.html" target="_top" xlink:title=" ">
<polygon fill="white" stroke="#666666" points="64.58,-191 14.08,-191 14.08,-170.25 64.58,-170.25 64.58,-191"/>
<text text-anchor="middle" x="39.33" y="-177.5" font-family="Helvetica,sans-Serif" font-size="10.00">errno.h</text>
</a>
</g>
</g>
<!-- Node33&#45;&gt;Node34 -->
<g id="edge60_Node000033_Node000034" class="edge">
<title>Node33&#45;&gt;Node34</title>
<g id="a_edge60_Node000033_Node000034"><a xlink:title=" ">
<path fill="none" stroke="#63b8ff" d="M128.02,-226.59C111.51,-218.22 87.5,-206.04 68.62,-196.47"/>
<polygon fill="#63b8ff" stroke="#63b8ff" points="70.32,-193.41 59.82,-192.01 67.16,-199.66 70.32,-193.41"/>
</a>
</g>
</g>
<!-- Node35 -->
<g id="Node000035" class="node">
<title>Node35</title>
<g id="a_Node000035"><a xlink:href="iolist_8h.html" target="_top" xlink:title="iolist scatter / gather IO">
<polygon fill="white" stroke="#666666" points="131.83,-191 82.83,-191 82.83,-170.25 131.83,-170.25 131.83,-191"/>
<text text-anchor="middle" x="107.33" y="-177.5" font-family="Helvetica,sans-Serif" font-size="10.00">iolist.h</text>
</a>
</g>
</g>
<!-- Node33&#45;&gt;Node35 -->
<g id="edge61_Node000033_Node000035" class="edge">
<title>Node33&#45;&gt;Node35</title>
<g id="a_edge61_Node000033_Node000035"><a xlink:title=" ">
<path fill="none" stroke="#63b8ff" d="M140.18,-226.59C134.89,-219.35 127.52,-209.26 121.1,-200.47"/>
<polygon fill="#63b8ff" stroke="#63b8ff" points="124.04,-198.56 115.31,-192.55 118.39,-202.69 124.04,-198.56"/>
</a>
</g>
</g>
<!-- Node36 -->
<g id="Node000036" class="node">
<title>Node36</title>
<g id="a_Node000036"><a xlink:href="netopt_8h.html" target="_top" xlink:title="Definition of global configuration options.">
<polygon fill="white" stroke="#666666" points="224.96,-191 149.71,-191 149.71,-170.25 224.96,-170.25 224.96,-191"/>
<text text-anchor="middle" x="187.33" y="-177.5" font-family="Helvetica,sans-Serif" font-size="10.00">net/netopt.h</text>
</a>
</g>
</g>
<!-- Node33&#45;&gt;Node36 -->
<g id="edge62_Node000033_Node000036" class="edge">
<title>Node33&#45;&gt;Node36</title>
<g id="a_edge62_Node000033_Node000036"><a xlink:title=" ">
<path fill="none" stroke="#63b8ff" d="M154.48,-226.59C159.77,-219.35 167.14,-209.26 173.56,-200.47"/>
<polygon fill="#63b8ff" stroke="#63b8ff" points="176.28,-202.69 179.35,-192.55 170.62,-198.56 176.28,-202.69"/>
</a>
</g>
</g>
<!-- Node36&#45;&gt;Node2 -->
<g id="edge64_Node000036_Node000002" class="edge">
<title>Node36&#45;&gt;Node2</title>
<g id="a_edge64_Node000036_Node000002"><a xlink:title=" ">
<path fill="none" stroke="#63b8ff" d="M199.31,-169.84C208.84,-162.05 222.39,-150.97 233.66,-141.76"/>
<polygon fill="#63b8ff" stroke="#63b8ff" points="235.76,-144.57 241.28,-135.54 231.33,-139.15 235.76,-144.57"/>
</a>
</g>
</g>
<!-- Node36&#45;&gt;Node5 -->
<g id="edge63_Node000036_Node000005" class="edge">
<title>Node36&#45;&gt;Node5</title>
<g id="a_edge63_Node000036_Node000005"><a xlink:title=" ">
<path fill="none" stroke="#63b8ff" d="M189.32,-170.17C192.6,-156.46 200.21,-130.79 214.33,-113.5 243.06,-78.32 256.5,-71.88 299.33,-56.75 384.35,-26.71 658.94,-15.56 760.29,-12.41"/>
<polygon fill="#63b8ff" stroke="#63b8ff" points="760.36,-15.91 770.25,-12.11 760.15,-8.92 760.36,-15.91"/>
</a>
</g>
</g>
</g>
</svg>
