<?xml version="1.0" encoding="UTF-8" standalone="no"?>
<!DOCTYPE svg PUBLIC "-//W3C//DTD SVG 1.1//EN"
 "http://www.w3.org/Graphics/SVG/1.1/DTD/svg11.dtd">
<!-- Generated by graphviz version 12.1.2 (0)
 -->
<!-- Title: drivers/include/net/netdev/eth.h Pages: 1 -->
<svg width="536pt" height="325pt"
 viewBox="0.00 0.00 535.50 325.25" xmlns="http://www.w3.org/2000/svg" xmlns:xlink="http://www.w3.org/1999/xlink">
<g id="graph0" class="graph" transform="scale(1 1) rotate(0) translate(4 321.25)">
<title>drivers/include/net/netdev/eth.h</title>
<!-- Node1 -->
<g id="Node000001" class="node">
<title>Node1</title>
<g id="a_Node000001"><a xlink:title="Definitions for netdev common ethernet code.">
<polygon fill="#999999" stroke="#666666" points="304.38,-317.25 197.62,-317.25 197.62,-283.75 304.38,-283.75 304.38,-317.25"/>
<text text-anchor="start" x="205.62" y="-303.75" font-family="Helvetica,sans-Serif" font-size="10.00">drivers/include/net</text>
<text text-anchor="middle" x="251" y="-291" font-family="Helvetica,sans-Serif" font-size="10.00">/netdev/eth.h</text>
</a>
</g>
</g>
<!-- Node2 -->
<g id="Node000002" class="node">
<title>Node2</title>
<g id="a_Node000002"><a xlink:title=" ">
<polygon fill="#e0e0e0" stroke="#999999" points="194.38,-20.75 141.62,-20.75 141.62,0 194.38,0 194.38,-20.75"/>
<text text-anchor="middle" x="168" y="-7.25" font-family="Helvetica,sans-Serif" font-size="10.00">stdint.h</text>
</a>
</g>
</g>
<!-- Node1&#45;&gt;Node2 -->
<g id="edge1_Node000001_Node000002" class="edge">
<title>Node1&#45;&gt;Node2</title>
<g id="a_edge1_Node000001_Node000002"><a xlink:title=" ">
<path fill="none" stroke="#63b8ff" d="M197.15,-297.36C123.4,-291.22 0,-268.04 0,-181.62 0,-181.62 0,-181.62 0,-122.88 0,-60.68 80.91,-31.11 130.43,-18.84"/>
<polygon fill="#63b8ff" stroke="#63b8ff" points="130.97,-22.31 139.91,-16.62 129.37,-15.49 130.97,-22.31"/>
</a>
</g>
</g>
<!-- Node3 -->
<g id="Node000003" class="node">
<title>Node3</title>
<g id="a_Node000003"><a xlink:href="drivers_2include_2net_2netdev_8h.html" target="_top" xlink:title="Definitions low&#45;level network driver interface.">
<polygon fill="white" stroke="#666666" points="289.38,-247.75 212.62,-247.75 212.62,-227 289.38,-227 289.38,-247.75"/>
<text text-anchor="middle" x="251" y="-234.25" font-family="Helvetica,sans-Serif" font-size="10.00">net/netdev.h</text>
</a>
</g>
</g>
<!-- Node1&#45;&gt;Node3 -->
<g id="edge2_Node000001_Node000003" class="edge">
<title>Node1&#45;&gt;Node3</title>
<g id="a_edge2_Node000001_Node000003"><a xlink:title=" ">
<path fill="none" stroke="#63b8ff" d="M251,-283.44C251,-276.1 251,-267.32 251,-259.46"/>
<polygon fill="#63b8ff" stroke="#63b8ff" points="254.5,-259.73 251,-249.73 247.5,-259.73 254.5,-259.73"/>
</a>
</g>
</g>
<!-- Node6 -->
<g id="Node000006" class="node">
<title>Node6</title>
<g id="a_Node000006"><a xlink:href="netopt_8h.html" target="_top" xlink:title="Definition of global configuration options.">
<polygon fill="white" stroke="#666666" points="467.62,-191 392.38,-191 392.38,-170.25 467.62,-170.25 467.62,-191"/>
<text text-anchor="middle" x="430" y="-177.5" font-family="Helvetica,sans-Serif" font-size="10.00">net/netopt.h</text>
</a>
</g>
</g>
<!-- Node1&#45;&gt;Node6 -->
<g id="edge20_Node000001_Node000006" class="edge">
<title>Node1&#45;&gt;Node6</title>
<g id="a_edge20_Node000001_Node000006"><a xlink:title=" ">
<path fill="none" stroke="#63b8ff" d="M275.51,-283.36C309.85,-260.75 371.87,-219.9 405.95,-197.46"/>
<polygon fill="#63b8ff" stroke="#63b8ff" points="407.49,-200.64 413.91,-192.22 403.64,-194.8 407.49,-200.64"/>
</a>
</g>
</g>
<!-- Node3&#45;&gt;Node2 -->
<g id="edge3_Node000003_Node000002" class="edge">
<title>Node3&#45;&gt;Node2</title>
<g id="a_edge3_Node000003_Node000002"><a xlink:title=" ">
<path fill="none" stroke="#63b8ff" d="M219.09,-226.54C180.74,-212.8 118.16,-183.81 91,-134.25 69.49,-95.01 114.98,-51.02 144.79,-27.79"/>
<polygon fill="#63b8ff" stroke="#63b8ff" points="146.71,-30.73 152.61,-21.93 142.51,-25.13 146.71,-30.73"/>
</a>
</g>
</g>
<!-- Node4 -->
<g id="Node000004" class="node">
<title>Node4</title>
<g id="a_Node000004"><a xlink:href="errno_8h.html" target="_top" xlink:title=" ">
<polygon fill="white" stroke="#666666" points="367.25,-191 316.75,-191 316.75,-170.25 367.25,-170.25 367.25,-191"/>
<text text-anchor="middle" x="342" y="-177.5" font-family="Helvetica,sans-Serif" font-size="10.00">errno.h</text>
</a>
</g>
</g>
<!-- Node3&#45;&gt;Node4 -->
<g id="edge4_Node000003_Node000004" class="edge">
<title>Node3&#45;&gt;Node4</title>
<g id="a_edge4_Node000003_Node000004"><a xlink:title=" ">
<path fill="none" stroke="#63b8ff" d="M267.27,-226.59C280.86,-218.41 300.47,-206.61 316.2,-197.15"/>
<polygon fill="#63b8ff" stroke="#63b8ff" points="317.81,-200.26 324.57,-192.11 314.2,-194.27 317.81,-200.26"/>
</a>
</g>
</g>
<!-- Node5 -->
<g id="Node000005" class="node">
<title>Node5</title>
<g id="a_Node000005"><a xlink:href="iolist_8h.html" target="_top" xlink:title="iolist scatter / gather IO">
<polygon fill="white" stroke="#666666" points="77.5,-191 28.5,-191 28.5,-170.25 77.5,-170.25 77.5,-191"/>
<text text-anchor="middle" x="53" y="-177.5" font-family="Helvetica,sans-Serif" font-size="10.00">iolist.h</text>
</a>
</g>
</g>
<!-- Node3&#45;&gt;Node5 -->
<g id="edge5_Node000003_Node000005" class="edge">
<title>Node3&#45;&gt;Node5</title>
<g id="a_edge5_Node000003_Node000005"><a xlink:title=" ">
<path fill="none" stroke="#63b8ff" d="M215.6,-226.59C179.77,-216.68 124.66,-201.44 88.71,-191.5"/>
<polygon fill="#63b8ff" stroke="#63b8ff" points="89.8,-188.17 79.22,-188.88 87.93,-194.92 89.8,-188.17"/>
</a>
</g>
</g>
<!-- Node3&#45;&gt;Node6 -->
<g id="edge6_Node000003_Node000006" class="edge">
<title>Node3&#45;&gt;Node6</title>
<g id="a_edge6_Node000003_Node000006"><a xlink:title=" ">
<path fill="none" stroke="#63b8ff" d="M283,-226.59C312.06,-217.7 355.13,-204.52 387.15,-194.73"/>
<polygon fill="#63b8ff" stroke="#63b8ff" points="387.99,-198.14 396.53,-191.86 385.94,-191.44 387.99,-198.14"/>
</a>
</g>
</g>
<!-- Node8 -->
<g id="Node000008" class="node">
<title>Node8</title>
<g id="a_Node000008"><a xlink:href="kernel__defines_8h.html" target="_top" xlink:title="Common macros and compiler attributes/pragmas configuration.">
<polygon fill="white" stroke="#666666" points="299.12,-191 202.88,-191 202.88,-170.25 299.12,-170.25 299.12,-191"/>
<text text-anchor="middle" x="251" y="-177.5" font-family="Helvetica,sans-Serif" font-size="10.00">kernel_defines.h</text>
</a>
</g>
</g>
<!-- Node3&#45;&gt;Node8 -->
<g id="edge9_Node000003_Node000008" class="edge">
<title>Node3&#45;&gt;Node8</title>
<g id="a_edge9_Node000003_Node000008"><a xlink:title=" ">
<path fill="none" stroke="#63b8ff" d="M251,-226.59C251,-219.97 251,-210.97 251,-202.77"/>
<polygon fill="#63b8ff" stroke="#63b8ff" points="254.5,-202.84 251,-192.84 247.5,-202.84 254.5,-202.84"/>
</a>
</g>
</g>
<!-- Node6&#45;&gt;Node2 -->
<g id="edge7_Node000006_Node000002" class="edge">
<title>Node6&#45;&gt;Node2</title>
<g id="a_edge7_Node000006_Node000002"><a xlink:title=" ">
<path fill="none" stroke="#63b8ff" d="M432.54,-169.78C437.85,-146.69 447.33,-88.6 418,-56.75 390,-26.34 269,-16.14 206.18,-12.85"/>
<polygon fill="#63b8ff" stroke="#63b8ff" points="206.47,-9.36 196.31,-12.37 206.13,-16.35 206.47,-9.36"/>
</a>
</g>
</g>
<!-- Node7 -->
<g id="Node000007" class="node">
<title>Node7</title>
<g id="a_Node000007"><a xlink:title=" ">
<polygon fill="#e0e0e0" stroke="#999999" points="527.5,-134.25 466.5,-134.25 466.5,-113.5 527.5,-113.5 527.5,-134.25"/>
<text text-anchor="middle" x="497" y="-120.75" font-family="Helvetica,sans-Serif" font-size="10.00">stdbool.h</text>
</a>
</g>
</g>
<!-- Node6&#45;&gt;Node7 -->
<g id="edge8_Node000006_Node000007" class="edge">
<title>Node6&#45;&gt;Node7</title>
<g id="a_edge8_Node000006_Node000007"><a xlink:title=" ">
<path fill="none" stroke="#63b8ff" d="M441.98,-169.84C451.51,-162.05 465.06,-150.97 476.33,-141.76"/>
<polygon fill="#63b8ff" stroke="#63b8ff" points="478.42,-144.57 483.95,-135.54 474,-139.15 478.42,-144.57"/>
</a>
</g>
</g>
<!-- Node9 -->
<g id="Node000009" class="node">
<title>Node9</title>
<g id="a_Node000009"><a xlink:href="modules_8h.html" target="_top" xlink:title="Common macros and compiler attributes/pragmas configuration.">
<polygon fill="white" stroke="#666666" points="371.5,-134.25 304.5,-134.25 304.5,-113.5 371.5,-113.5 371.5,-134.25"/>
<text text-anchor="middle" x="338" y="-120.75" font-family="Helvetica,sans-Serif" font-size="10.00">modules.h</text>
</a>
</g>
</g>
<!-- Node8&#45;&gt;Node9 -->
<g id="edge10_Node000008_Node000009" class="edge">
<title>Node8&#45;&gt;Node9</title>
<g id="a_edge10_Node000008_Node000009"><a xlink:title=" ">
<path fill="none" stroke="#63b8ff" d="M266.55,-169.84C279.42,-161.74 297.94,-150.08 312.91,-140.67"/>
<polygon fill="#63b8ff" stroke="#63b8ff" points="314.7,-143.67 321.3,-135.38 310.97,-137.75 314.7,-143.67"/>
</a>
</g>
</g>
<!-- Node10 -->
<g id="Node000010" class="node">
<title>Node10</title>
<g id="a_Node000010"><a xlink:href="riot__version_8h.html" target="_top" xlink:title="Common macros and compiler attributes/pragmas configuration.">
<polygon fill="white" stroke="#666666" points="409.38,-77.5 326.62,-77.5 326.62,-56.75 409.38,-56.75 409.38,-77.5"/>
<text text-anchor="middle" x="368" y="-64" font-family="Helvetica,sans-Serif" font-size="10.00">riot_version.h</text>
</a>
</g>
</g>
<!-- Node8&#45;&gt;Node10 -->
<g id="edge11_Node000008_Node000010" class="edge">
<title>Node8&#45;&gt;Node10</title>
<g id="a_edge11_Node000008_Node000010"><a xlink:title=" ">
<path fill="none" stroke="#63b8ff" d="M295.76,-169.83C329.19,-161.5 370.79,-148.62 381,-134.25 390.62,-120.7 385.57,-101.83 379.16,-87.72"/>
<polygon fill="#63b8ff" stroke="#63b8ff" points="382.34,-86.26 374.67,-78.96 376.11,-89.45 382.34,-86.26"/>
</a>
</g>
</g>
<!-- Node11 -->
<g id="Node000011" class="node">
<title>Node11</title>
<g id="a_Node000011"><a xlink:href="compiler__hints_8h.html" target="_top" xlink:title="Common macros and compiler attributes/pragmas configuration.">
<polygon fill="white" stroke="#666666" points="197.5,-134.25 100.5,-134.25 100.5,-113.5 197.5,-113.5 197.5,-134.25"/>
<text text-anchor="middle" x="149" y="-120.75" font-family="Helvetica,sans-Serif" font-size="10.00">compiler_hints.h</text>
</a>
</g>
</g>
<!-- Node8&#45;&gt;Node11 -->
<g id="edge13_Node000008_Node000011" class="edge">
<title>Node8&#45;&gt;Node11</title>
<g id="a_edge13_Node000008_Node000011"><a xlink:title=" ">
<path fill="none" stroke="#63b8ff" d="M232.76,-169.84C217.32,-161.55 194.91,-149.52 177.16,-139.99"/>
<polygon fill="#63b8ff" stroke="#63b8ff" points="178.88,-136.94 168.41,-135.29 175.57,-143.11 178.88,-136.94"/>
</a>
</g>
</g>
<!-- Node13 -->
<g id="Node000013" class="node">
<title>Node13</title>
<g id="a_Node000013"><a xlink:href="container_8h.html" target="_top" xlink:title="Common macros and compiler attributes/pragmas configuration.">
<polygon fill="white" stroke="#666666" points="286.38,-134.25 215.62,-134.25 215.62,-113.5 286.38,-113.5 286.38,-134.25"/>
<text text-anchor="middle" x="251" y="-120.75" font-family="Helvetica,sans-Serif" font-size="10.00">container.h</text>
</a>
</g>
</g>
<!-- Node8&#45;&gt;Node13 -->
<g id="edge17_Node000008_Node000013" class="edge">
<title>Node8&#45;&gt;Node13</title>
<g id="a_edge17_Node000008_Node000013"><a xlink:title=" ">
<path fill="none" stroke="#63b8ff" d="M251,-169.84C251,-163.22 251,-154.22 251,-146.02"/>
<polygon fill="#63b8ff" stroke="#63b8ff" points="254.5,-146.09 251,-136.09 247.5,-146.09 254.5,-146.09"/>
</a>
</g>
</g>
<!-- Node10&#45;&gt;Node2 -->
<g id="edge12_Node000010_Node000002" class="edge">
<title>Node10&#45;&gt;Node2</title>
<g id="a_edge12_Node000010_Node000002"><a xlink:title=" ">
<path fill="none" stroke="#63b8ff" d="M332.24,-56.34C296.5,-46.55 241.78,-31.57 205.45,-21.63"/>
<polygon fill="#63b8ff" stroke="#63b8ff" points="206.84,-18.38 196.27,-19.11 204.99,-25.13 206.84,-18.38"/>
</a>
</g>
</g>
<!-- Node11&#45;&gt;Node2 -->
<g id="edge16_Node000011_Node000002" class="edge">
<title>Node11&#45;&gt;Node2</title>
<g id="a_edge16_Node000011_Node000002"><a xlink:title=" ">
<path fill="none" stroke="#63b8ff" d="M142.77,-113.32C135.12,-100.33 123.98,-76.48 131,-56.75 134.63,-46.56 141.63,-37.01 148.57,-29.32"/>
<polygon fill="#63b8ff" stroke="#63b8ff" points="150.94,-31.9 155.44,-22.3 145.94,-27 150.94,-31.9"/>
</a>
</g>
</g>
<!-- Node12 -->
<g id="Node000012" class="node">
<title>Node12</title>
<g id="a_Node000012"><a xlink:href="assert_8h.html" target="_top" xlink:title="POSIX.1&#45;2008 compliant version of the assert macro.">
<polygon fill="white" stroke="#666666" points="195.5,-77.5 140.5,-77.5 140.5,-56.75 195.5,-56.75 195.5,-77.5"/>
<text text-anchor="middle" x="168" y="-64" font-family="Helvetica,sans-Serif" font-size="10.00">assert.h</text>
</a>
</g>
</g>
<!-- Node11&#45;&gt;Node12 -->
<g id="edge14_Node000011_Node000012" class="edge">
<title>Node11&#45;&gt;Node12</title>
<g id="a_edge14_Node000011_Node000012"><a xlink:title=" ">
<path fill="none" stroke="#63b8ff" d="M152.4,-113.09C154.75,-106.31 157.96,-97.05 160.86,-88.69"/>
<polygon fill="#63b8ff" stroke="#63b8ff" points="164.16,-89.85 164.14,-79.26 157.55,-87.56 164.16,-89.85"/>
</a>
</g>
</g>
<!-- Node12&#45;&gt;Node2 -->
<g id="edge15_Node000012_Node000002" class="edge">
<title>Node12&#45;&gt;Node2</title>
<g id="a_edge15_Node000012_Node000002"><a xlink:title=" ">
<path fill="none" stroke="#63b8ff" d="M168,-56.34C168,-49.72 168,-40.72 168,-32.52"/>
<polygon fill="#63b8ff" stroke="#63b8ff" points="171.5,-32.59 168,-22.59 164.5,-32.59 171.5,-32.59"/>
</a>
</g>
</g>
<!-- Node13&#45;&gt;Node2 -->
<g id="edge19_Node000013_Node000002" class="edge">
<title>Node13&#45;&gt;Node2</title>
<g id="a_edge19_Node000013_Node000002"><a xlink:title=" ">
<path fill="none" stroke="#63b8ff" d="M244.67,-113.3C236,-100.29 219.82,-76.4 205,-56.75 198.14,-47.65 190.19,-37.82 183.42,-29.64"/>
<polygon fill="#63b8ff" stroke="#63b8ff" points="186.23,-27.53 177.13,-22.1 180.85,-32.02 186.23,-27.53"/>
</a>
</g>
</g>
<!-- Node14 -->
<g id="Node000014" class="node">
<title>Node14</title>
<g id="a_Node000014"><a xlink:title=" ">
<polygon fill="#e0e0e0" stroke="#999999" points="307.5,-77.5 252.5,-77.5 252.5,-56.75 307.5,-56.75 307.5,-77.5"/>
<text text-anchor="middle" x="280" y="-64" font-family="Helvetica,sans-Serif" font-size="10.00">stddef.h</text>
</a>
</g>
</g>
<!-- Node13&#45;&gt;Node14 -->
<g id="edge18_Node000013_Node000014" class="edge">
<title>Node13&#45;&gt;Node14</title>
<g id="a_edge18_Node000013_Node000014"><a xlink:title=" ">
<path fill="none" stroke="#63b8ff" d="M256.18,-113.09C259.9,-106.08 265.02,-96.41 269.56,-87.83"/>
<polygon fill="#63b8ff" stroke="#63b8ff" points="272.56,-89.64 274.15,-79.17 266.38,-86.36 272.56,-89.64"/>
</a>
</g>
</g>
</g>
</svg>
