<?xml version="1.0" encoding="UTF-8" standalone="no"?>
<!DOCTYPE svg PUBLIC "-//W3C//DTD SVG 1.1//EN"
 "http://www.w3.org/Graphics/SVG/1.1/DTD/svg11.dtd">
<!-- Generated by graphviz version 12.1.2 (0)
 -->
<!-- Title: sys/net/link_layer/eui_provider/include/eui48_provider_params.h Pages: 1 -->
<svg width="787pt" height="395pt"
 viewBox="0.00 0.00 786.75 394.75" xmlns="http://www.w3.org/2000/svg" xmlns:xlink="http://www.w3.org/1999/xlink">
<g id="graph0" class="graph" transform="scale(1 1) rotate(0) translate(4 390.75)">
<title>sys/net/link_layer/eui_provider/include/eui48_provider_params.h</title>
<!-- Node1 -->
<g id="Node000001" class="node">
<title>Node1</title>
<g id="a_Node000001"><a xlink:title="EUI&#45;48 address provider default values.">
<polygon fill="#999999" stroke="#666666" points="169.75,-386.75 27,-386.75 27,-340.5 169.75,-340.5 169.75,-386.75"/>
<text text-anchor="start" x="35" y="-373.25" font-family="Helvetica,sans-Serif" font-size="10.00">sys/net/link_layer</text>
<text text-anchor="start" x="35" y="-360.5" font-family="Helvetica,sans-Serif" font-size="10.00">/eui_provider/include</text>
<text text-anchor="middle" x="98.38" y="-347.75" font-family="Helvetica,sans-Serif" font-size="10.00">/eui48_provider_params.h</text>
</a>
</g>
</g>
<!-- Node2 -->
<g id="Node000002" class="node">
<title>Node2</title>
<g id="a_Node000002"><a xlink:href="eui__provider_8h.html" target="_top" xlink:title="EUI&#45;48 and EUI&#45;64 address provider.">
<polygon fill="white" stroke="#666666" points="150.62,-304.5 46.12,-304.5 46.12,-283.75 150.62,-283.75 150.62,-304.5"/>
<text text-anchor="middle" x="98.38" y="-291" font-family="Helvetica,sans-Serif" font-size="10.00">net/eui_provider.h</text>
</a>
</g>
</g>
<!-- Node1&#45;&gt;Node2 -->
<g id="edge1_Node000001_Node000002" class="edge">
<title>Node1&#45;&gt;Node2</title>
<g id="a_edge1_Node000001_Node000002"><a xlink:title=" ">
<path fill="none" stroke="#63b8ff" d="M98.38,-340.15C98.38,-332.48 98.38,-323.94 98.38,-316.38"/>
<polygon fill="#63b8ff" stroke="#63b8ff" points="101.88,-316.4 98.38,-306.4 94.88,-316.4 101.88,-316.4"/>
</a>
</g>
</g>
<!-- Node3 -->
<g id="Node000003" class="node">
<title>Node3</title>
<g id="a_Node000003"><a xlink:href="eui48_8h.html" target="_top" xlink:title="Definition and IPv6 IID conversion for IEEE EUI&#45;48 identifiers.">
<polygon fill="white" stroke="#666666" points="70.75,-247.75 0,-247.75 0,-227 70.75,-227 70.75,-247.75"/>
<text text-anchor="middle" x="35.38" y="-234.25" font-family="Helvetica,sans-Serif" font-size="10.00">net/eui48.h</text>
</a>
</g>
</g>
<!-- Node2&#45;&gt;Node3 -->
<g id="edge2_Node000002_Node000003" class="edge">
<title>Node2&#45;&gt;Node3</title>
<g id="a_edge2_Node000002_Node000003"><a xlink:title=" ">
<path fill="none" stroke="#63b8ff" d="M87.11,-283.34C78.24,-275.63 65.66,-264.7 55.13,-255.54"/>
<polygon fill="#63b8ff" stroke="#63b8ff" points="57.53,-252.99 47.68,-249.07 52.94,-258.27 57.53,-252.99"/>
</a>
</g>
</g>
<!-- Node5 -->
<g id="Node000005" class="node">
<title>Node5</title>
<g id="a_Node000005"><a xlink:href="eui64_8h.html" target="_top" xlink:title="EUI&#45;64 data type definition.">
<polygon fill="white" stroke="#666666" points="102.75,-191 32,-191 32,-170.25 102.75,-170.25 102.75,-191"/>
<text text-anchor="middle" x="67.38" y="-177.5" font-family="Helvetica,sans-Serif" font-size="10.00">net/eui64.h</text>
</a>
</g>
</g>
<!-- Node2&#45;&gt;Node5 -->
<g id="edge13_Node000002_Node000005" class="edge">
<title>Node2&#45;&gt;Node5</title>
<g id="a_edge13_Node000002_Node000005"><a xlink:title=" ">
<path fill="none" stroke="#63b8ff" d="M95.73,-283.62C90.75,-265.69 79.85,-226.5 73.11,-202.26"/>
<polygon fill="#63b8ff" stroke="#63b8ff" points="76.56,-201.58 70.51,-192.88 69.81,-203.46 76.56,-201.58"/>
</a>
</g>
</g>
<!-- Node10 -->
<g id="Node000010" class="node">
<title>Node10</title>
<g id="a_Node000010"><a xlink:href="drivers_2include_2net_2netdev_8h.html" target="_top" xlink:title="Definitions low&#45;level network driver interface.">
<polygon fill="white" stroke="#666666" points="448.75,-247.75 372,-247.75 372,-227 448.75,-227 448.75,-247.75"/>
<text text-anchor="middle" x="410.38" y="-234.25" font-family="Helvetica,sans-Serif" font-size="10.00">net/netdev.h</text>
</a>
</g>
</g>
<!-- Node2&#45;&gt;Node10 -->
<g id="edge14_Node000002_Node000010" class="edge">
<title>Node2&#45;&gt;Node10</title>
<g id="a_edge14_Node000002_Node000010"><a xlink:title=" ">
<path fill="none" stroke="#63b8ff" d="M150.95,-283.9C209.44,-273.64 303.24,-257.18 360.58,-247.11"/>
<polygon fill="#63b8ff" stroke="#63b8ff" points="361.15,-250.57 370.4,-245.39 359.94,-243.67 361.15,-250.57"/>
</a>
</g>
</g>
<!-- Node4 -->
<g id="Node000004" class="node">
<title>Node4</title>
<g id="a_Node000004"><a xlink:title=" ">
<polygon fill="#e0e0e0" stroke="#999999" points="349.75,-20.75 297,-20.75 297,0 349.75,0 349.75,-20.75"/>
<text text-anchor="middle" x="323.38" y="-7.25" font-family="Helvetica,sans-Serif" font-size="10.00">stdint.h</text>
</a>
</g>
</g>
<!-- Node3&#45;&gt;Node4 -->
<g id="edge3_Node000003_Node000004" class="edge">
<title>Node3&#45;&gt;Node4</title>
<g id="a_edge3_Node000003_Node000004"><a xlink:title=" ">
<path fill="none" stroke="#63b8ff" d="M31.91,-226.84C21.69,-196.85 -4.76,-103.62 42.38,-56.75 76,-23.32 217.11,-14.51 285.67,-12.2"/>
<polygon fill="#63b8ff" stroke="#63b8ff" points="285.4,-15.71 295.29,-11.9 285.19,-8.71 285.4,-15.71"/>
</a>
</g>
</g>
<!-- Node3&#45;&gt;Node5 -->
<g id="edge4_Node000003_Node000005" class="edge">
<title>Node3&#45;&gt;Node5</title>
<g id="a_edge4_Node000003_Node000005"><a xlink:title=" ">
<path fill="none" stroke="#63b8ff" d="M41.1,-226.59C45.24,-219.5 50.97,-209.69 56.03,-201.04"/>
<polygon fill="#63b8ff" stroke="#63b8ff" points="58.92,-203.03 60.94,-192.64 52.87,-199.5 58.92,-203.03"/>
</a>
</g>
</g>
<!-- Node5&#45;&gt;Node4 -->
<g id="edge5_Node000005_Node000004" class="edge">
<title>Node5&#45;&gt;Node4</title>
<g id="a_edge5_Node000005_Node000004"><a xlink:title=" ">
<path fill="none" stroke="#63b8ff" d="M62.47,-169.91C51.72,-147.09 29.2,-89.54 57.38,-56.75 86.39,-22.98 218.97,-14.34 285.32,-12.13"/>
<polygon fill="#63b8ff" stroke="#63b8ff" points="285.12,-15.64 295.01,-11.85 284.91,-8.64 285.12,-15.64"/>
</a>
</g>
</g>
<!-- Node6 -->
<g id="Node000006" class="node">
<title>Node6</title>
<g id="a_Node000006"><a xlink:href="byteorder_8h.html" target="_top" xlink:title="Functions to work with different byte orders.">
<polygon fill="white" stroke="#666666" points="137.5,-134.25 65.25,-134.25 65.25,-113.5 137.5,-113.5 137.5,-134.25"/>
<text text-anchor="middle" x="101.38" y="-120.75" font-family="Helvetica,sans-Serif" font-size="10.00">byteorder.h</text>
</a>
</g>
</g>
<!-- Node5&#45;&gt;Node6 -->
<g id="edge6_Node000005_Node000006" class="edge">
<title>Node5&#45;&gt;Node6</title>
<g id="a_edge6_Node000005_Node000006"><a xlink:title=" ">
<path fill="none" stroke="#63b8ff" d="M73.45,-169.84C77.85,-162.75 83.95,-152.94 89.32,-144.29"/>
<polygon fill="#63b8ff" stroke="#63b8ff" points="92.25,-146.21 94.55,-135.86 86.3,-142.51 92.25,-146.21"/>
</a>
</g>
</g>
<!-- Node6&#45;&gt;Node4 -->
<g id="edge8_Node000006_Node000004" class="edge">
<title>Node6&#45;&gt;Node4</title>
<g id="a_edge8_Node000006_Node000004"><a xlink:title=" ">
<path fill="none" stroke="#63b8ff" d="M89.47,-113.13C74.24,-99.51 51.52,-74.46 66.38,-56.75 93.93,-23.91 221.16,-14.83 285.66,-12.32"/>
<polygon fill="#63b8ff" stroke="#63b8ff" points="285.55,-15.83 295.42,-11.98 285.31,-8.83 285.55,-15.83"/>
</a>
</g>
</g>
<!-- Node7 -->
<g id="Node000007" class="node">
<title>Node7</title>
<g id="a_Node000007"><a xlink:title=" ">
<polygon fill="#e0e0e0" stroke="#999999" points="127.75,-77.5 75,-77.5 75,-56.75 127.75,-56.75 127.75,-77.5"/>
<text text-anchor="middle" x="101.38" y="-64" font-family="Helvetica,sans-Serif" font-size="10.00">string.h</text>
</a>
</g>
</g>
<!-- Node6&#45;&gt;Node7 -->
<g id="edge7_Node000006_Node000007" class="edge">
<title>Node6&#45;&gt;Node7</title>
<g id="a_edge7_Node000006_Node000007"><a xlink:title=" ">
<path fill="none" stroke="#63b8ff" d="M101.38,-113.09C101.38,-106.47 101.38,-97.47 101.38,-89.27"/>
<polygon fill="#63b8ff" stroke="#63b8ff" points="104.88,-89.34 101.38,-79.34 97.88,-89.34 104.88,-89.34"/>
</a>
</g>
</g>
<!-- Node8 -->
<g id="Node000008" class="node">
<title>Node8</title>
<g id="a_Node000008"><a xlink:href="endian_8h.html" target="_top" xlink:title="libc header for endian conversion">
<polygon fill="white" stroke="#666666" points="203.38,-77.5 145.38,-77.5 145.38,-56.75 203.38,-56.75 203.38,-77.5"/>
<text text-anchor="middle" x="174.38" y="-64" font-family="Helvetica,sans-Serif" font-size="10.00">endian.h</text>
</a>
</g>
</g>
<!-- Node6&#45;&gt;Node8 -->
<g id="edge9_Node000006_Node000008" class="edge">
<title>Node6&#45;&gt;Node8</title>
<g id="a_edge9_Node000006_Node000008"><a xlink:title=" ">
<path fill="none" stroke="#63b8ff" d="M114.43,-113.09C125.01,-105.15 140.17,-93.78 152.59,-84.46"/>
<polygon fill="#63b8ff" stroke="#63b8ff" points="154.33,-87.54 160.23,-78.74 150.13,-81.94 154.33,-87.54"/>
</a>
</g>
</g>
<!-- Node9 -->
<g id="Node000009" class="node">
<title>Node9</title>
<g id="a_Node000009"><a xlink:href="unaligned_8h.html" target="_top" xlink:title="Unaligned but safe memory access functions.">
<polygon fill="white" stroke="#666666" points="294.88,-77.5 221.88,-77.5 221.88,-56.75 294.88,-56.75 294.88,-77.5"/>
<text text-anchor="middle" x="258.38" y="-64" font-family="Helvetica,sans-Serif" font-size="10.00">unaligned.h</text>
</a>
</g>
</g>
<!-- Node6&#45;&gt;Node9 -->
<g id="edge11_Node000006_Node000009" class="edge">
<title>Node6&#45;&gt;Node9</title>
<g id="a_edge11_Node000006_Node000009"><a xlink:title=" ">
<path fill="none" stroke="#63b8ff" d="M129.44,-113.09C154.59,-104.32 191.72,-91.37 219.68,-81.62"/>
<polygon fill="#63b8ff" stroke="#63b8ff" points="220.57,-85.02 228.86,-78.42 218.26,-78.41 220.57,-85.02"/>
</a>
</g>
</g>
<!-- Node8&#45;&gt;Node4 -->
<g id="edge10_Node000008_Node000004" class="edge">
<title>Node8&#45;&gt;Node4</title>
<g id="a_edge10_Node000008_Node000004"><a xlink:title=" ">
<path fill="none" stroke="#63b8ff" d="M201.01,-56.34C224.67,-47.64 259.49,-34.85 285.95,-25.13"/>
<polygon fill="#63b8ff" stroke="#63b8ff" points="287.12,-28.43 295.3,-21.69 284.7,-21.86 287.12,-28.43"/>
</a>
</g>
</g>
<!-- Node9&#45;&gt;Node4 -->
<g id="edge12_Node000009_Node000004" class="edge">
<title>Node9&#45;&gt;Node4</title>
<g id="a_edge12_Node000009_Node000004"><a xlink:title=" ">
<path fill="none" stroke="#63b8ff" d="M270,-56.34C279.24,-48.55 292.39,-37.47 303.32,-28.26"/>
<polygon fill="#63b8ff" stroke="#63b8ff" points="305.3,-31.17 310.7,-22.05 300.79,-25.82 305.3,-31.17"/>
</a>
</g>
</g>
<!-- Node10&#45;&gt;Node4 -->
<g id="edge15_Node000010_Node000004" class="edge">
<title>Node10&#45;&gt;Node4</title>
<g id="a_edge15_Node000010_Node000004"><a xlink:title=" ">
<path fill="none" stroke="#63b8ff" d="M385.81,-226.54C370.66,-219.12 352.29,-207.4 342.38,-191 312.03,-140.81 315.88,-68.08 320.16,-32.53"/>
<polygon fill="#63b8ff" stroke="#63b8ff" points="323.61,-33.11 321.49,-22.73 316.68,-32.17 323.61,-33.11"/>
</a>
</g>
</g>
<!-- Node11 -->
<g id="Node000011" class="node">
<title>Node11</title>
<g id="a_Node000011"><a xlink:href="errno_8h.html" target="_top" xlink:title=" ">
<polygon fill="white" stroke="#666666" points="401.62,-191 351.12,-191 351.12,-170.25 401.62,-170.25 401.62,-191"/>
<text text-anchor="middle" x="376.38" y="-177.5" font-family="Helvetica,sans-Serif" font-size="10.00">errno.h</text>
</a>
</g>
</g>
<!-- Node10&#45;&gt;Node11 -->
<g id="edge16_Node000010_Node000011" class="edge">
<title>Node10&#45;&gt;Node11</title>
<g id="a_edge16_Node000010_Node000011"><a xlink:title=" ">
<path fill="none" stroke="#63b8ff" d="M404.3,-226.59C399.9,-219.5 393.8,-209.69 388.43,-201.04"/>
<polygon fill="#63b8ff" stroke="#63b8ff" points="391.45,-199.26 383.2,-192.61 385.5,-202.96 391.45,-199.26"/>
</a>
</g>
</g>
<!-- Node12 -->
<g id="Node000012" class="node">
<title>Node12</title>
<g id="a_Node000012"><a xlink:href="iolist_8h.html" target="_top" xlink:title="iolist scatter / gather IO">
<polygon fill="white" stroke="#666666" points="468.88,-191 419.88,-191 419.88,-170.25 468.88,-170.25 468.88,-191"/>
<text text-anchor="middle" x="444.38" y="-177.5" font-family="Helvetica,sans-Serif" font-size="10.00">iolist.h</text>
</a>
</g>
</g>
<!-- Node10&#45;&gt;Node12 -->
<g id="edge17_Node000010_Node000012" class="edge">
<title>Node10&#45;&gt;Node12</title>
<g id="a_edge17_Node000010_Node000012"><a xlink:title=" ">
<path fill="none" stroke="#63b8ff" d="M416.45,-226.59C420.85,-219.5 426.95,-209.69 432.32,-201.04"/>
<polygon fill="#63b8ff" stroke="#63b8ff" points="435.25,-202.96 437.55,-192.61 429.3,-199.26 435.25,-202.96"/>
</a>
</g>
</g>
<!-- Node13 -->
<g id="Node000013" class="node">
<title>Node13</title>
<g id="a_Node000013"><a xlink:href="netopt_8h.html" target="_top" xlink:title="Definition of global configuration options.">
<polygon fill="white" stroke="#666666" points="562,-191 486.75,-191 486.75,-170.25 562,-170.25 562,-191"/>
<text text-anchor="middle" x="524.38" y="-177.5" font-family="Helvetica,sans-Serif" font-size="10.00">net/netopt.h</text>
</a>
</g>
</g>
<!-- Node10&#45;&gt;Node13 -->
<g id="edge18_Node000010_Node000013" class="edge">
<title>Node10&#45;&gt;Node13</title>
<g id="a_edge18_Node000010_Node000013"><a xlink:title=" ">
<path fill="none" stroke="#63b8ff" d="M430.76,-226.59C448.34,-218.14 474,-205.82 494.01,-196.21"/>
<polygon fill="#63b8ff" stroke="#63b8ff" points="495.31,-199.47 502.81,-191.98 492.28,-193.16 495.31,-199.47"/>
</a>
</g>
</g>
<!-- Node15 -->
<g id="Node000015" class="node">
<title>Node15</title>
<g id="a_Node000015"><a xlink:href="kernel__defines_8h.html" target="_top" xlink:title="Common macros and compiler attributes/pragmas configuration.">
<polygon fill="white" stroke="#666666" points="676.5,-191 580.25,-191 580.25,-170.25 676.5,-170.25 676.5,-191"/>
<text text-anchor="middle" x="628.38" y="-177.5" font-family="Helvetica,sans-Serif" font-size="10.00">kernel_defines.h</text>
</a>
</g>
</g>
<!-- Node10&#45;&gt;Node15 -->
<g id="edge21_Node000010_Node000015" class="edge">
<title>Node10&#45;&gt;Node15</title>
<g id="a_edge21_Node000010_Node000015"><a xlink:title=" ">
<path fill="none" stroke="#63b8ff" d="M449.1,-226.65C485.14,-217.6 539.07,-204.05 578.36,-194.19"/>
<polygon fill="#63b8ff" stroke="#63b8ff" points="578.96,-197.64 587.81,-191.81 577.26,-190.85 578.96,-197.64"/>
</a>
</g>
</g>
<!-- Node13&#45;&gt;Node4 -->
<g id="edge19_Node000013_Node000004" class="edge">
<title>Node13&#45;&gt;Node4</title>
<g id="a_edge19_Node000013_Node000004"><a xlink:title=" ">
<path fill="none" stroke="#63b8ff" d="M486.43,-171.22C449.65,-162.44 397.16,-148.05 381.38,-134.25 365,-119.93 342.11,-62.46 330.6,-31.46"/>
<polygon fill="#63b8ff" stroke="#63b8ff" points="334.02,-30.62 327.3,-22.43 327.45,-33.03 334.02,-30.62"/>
</a>
</g>
</g>
<!-- Node14 -->
<g id="Node000014" class="node">
<title>Node14</title>
<g id="a_Node000014"><a xlink:title=" ">
<polygon fill="#e0e0e0" stroke="#999999" points="450.88,-134.25 389.88,-134.25 389.88,-113.5 450.88,-113.5 450.88,-134.25"/>
<text text-anchor="middle" x="420.38" y="-120.75" font-family="Helvetica,sans-Serif" font-size="10.00">stdbool.h</text>
</a>
</g>
</g>
<!-- Node13&#45;&gt;Node14 -->
<g id="edge20_Node000013_Node000014" class="edge">
<title>Node13&#45;&gt;Node14</title>
<g id="a_edge20_Node000013_Node000014"><a xlink:title=" ">
<path fill="none" stroke="#63b8ff" d="M505.78,-169.84C489.96,-161.51 466.98,-149.41 448.84,-139.86"/>
<polygon fill="#63b8ff" stroke="#63b8ff" points="450.63,-136.84 440.15,-135.28 447.36,-143.04 450.63,-136.84"/>
</a>
</g>
</g>
<!-- Node16 -->
<g id="Node000016" class="node">
<title>Node16</title>
<g id="a_Node000016"><a xlink:href="modules_8h.html" target="_top" xlink:title="Common macros and compiler attributes/pragmas configuration.">
<polygon fill="white" stroke="#666666" points="535.88,-134.25 468.88,-134.25 468.88,-113.5 535.88,-113.5 535.88,-134.25"/>
<text text-anchor="middle" x="502.38" y="-120.75" font-family="Helvetica,sans-Serif" font-size="10.00">modules.h</text>
</a>
</g>
</g>
<!-- Node15&#45;&gt;Node16 -->
<g id="edge22_Node000015_Node000016" class="edge">
<title>Node15&#45;&gt;Node16</title>
<g id="a_edge22_Node000015_Node000016"><a xlink:title=" ">
<path fill="none" stroke="#63b8ff" d="M605.85,-169.84C586.14,-161.27 557.27,-148.73 535.02,-139.06"/>
<polygon fill="#63b8ff" stroke="#63b8ff" points="536.66,-135.96 526.09,-135.18 533.87,-142.38 536.66,-135.96"/>
</a>
</g>
</g>
<!-- Node17 -->
<g id="Node000017" class="node">
<title>Node17</title>
<g id="a_Node000017"><a xlink:href="riot__version_8h.html" target="_top" xlink:title="Common macros and compiler attributes/pragmas configuration.">
<polygon fill="white" stroke="#666666" points="476.75,-77.5 394,-77.5 394,-56.75 476.75,-56.75 476.75,-77.5"/>
<text text-anchor="middle" x="435.38" y="-64" font-family="Helvetica,sans-Serif" font-size="10.00">riot_version.h</text>
</a>
</g>
</g>
<!-- Node15&#45;&gt;Node17 -->
<g id="edge23_Node000015_Node000017" class="edge">
<title>Node15&#45;&gt;Node17</title>
<g id="a_edge23_Node000015_Node000017"><a xlink:title=" ">
<path fill="none" stroke="#63b8ff" d="M618.08,-169.82C603.05,-155.89 573.8,-130.23 545.38,-113.5 523.54,-100.65 497.39,-89.7 476.06,-81.78"/>
<polygon fill="#63b8ff" stroke="#63b8ff" points="477.41,-78.54 466.82,-78.43 475.03,-85.13 477.41,-78.54"/>
</a>
</g>
</g>
<!-- Node18 -->
<g id="Node000018" class="node">
<title>Node18</title>
<g id="a_Node000018"><a xlink:href="compiler__hints_8h.html" target="_top" xlink:title="Common macros and compiler attributes/pragmas configuration.">
<polygon fill="white" stroke="#666666" points="689.88,-134.25 592.88,-134.25 592.88,-113.5 689.88,-113.5 689.88,-134.25"/>
<text text-anchor="middle" x="641.38" y="-120.75" font-family="Helvetica,sans-Serif" font-size="10.00">compiler_hints.h</text>
</a>
</g>
</g>
<!-- Node15&#45;&gt;Node18 -->
<g id="edge25_Node000015_Node000018" class="edge">
<title>Node15&#45;&gt;Node18</title>
<g id="a_edge25_Node000015_Node000018"><a xlink:title=" ">
<path fill="none" stroke="#63b8ff" d="M630.7,-169.84C632.29,-163.14 634.46,-154.01 636.42,-145.73"/>
<polygon fill="#63b8ff" stroke="#63b8ff" points="639.82,-146.59 638.72,-136.05 633.01,-144.97 639.82,-146.59"/>
</a>
</g>
</g>
<!-- Node20 -->
<g id="Node000020" class="node">
<title>Node20</title>
<g id="a_Node000020"><a xlink:href="container_8h.html" target="_top" xlink:title="Common macros and compiler attributes/pragmas configuration.">
<polygon fill="white" stroke="#666666" points="778.75,-134.25 708,-134.25 708,-113.5 778.75,-113.5 778.75,-134.25"/>
<text text-anchor="middle" x="743.38" y="-120.75" font-family="Helvetica,sans-Serif" font-size="10.00">container.h</text>
</a>
</g>
</g>
<!-- Node15&#45;&gt;Node20 -->
<g id="edge29_Node000015_Node000020" class="edge">
<title>Node15&#45;&gt;Node20</title>
<g id="a_edge29_Node000015_Node000020"><a xlink:title=" ">
<path fill="none" stroke="#63b8ff" d="M648.93,-169.84C666.68,-161.39 692.56,-149.07 712.74,-139.46"/>
<polygon fill="#63b8ff" stroke="#63b8ff" points="714.1,-142.69 721.63,-135.23 711.09,-136.37 714.1,-142.69"/>
</a>
</g>
</g>
<!-- Node17&#45;&gt;Node4 -->
<g id="edge24_Node000017_Node000004" class="edge">
<title>Node17&#45;&gt;Node4</title>
<g id="a_edge24_Node000017_Node000004"><a xlink:title=" ">
<path fill="none" stroke="#63b8ff" d="M415.35,-56.34C398.15,-47.93 373.1,-35.68 353.48,-26.09"/>
<polygon fill="#63b8ff" stroke="#63b8ff" points="355.11,-22.99 344.58,-21.74 352.03,-29.28 355.11,-22.99"/>
</a>
</g>
</g>
<!-- Node18&#45;&gt;Node4 -->
<g id="edge28_Node000018_Node000004" class="edge">
<title>Node18&#45;&gt;Node4</title>
<g id="a_edge28_Node000018_Node000004"><a xlink:title=" ">
<path fill="none" stroke="#63b8ff" d="M620.52,-113.02C590.91,-99.27 534.79,-74.06 485.38,-56.75 443.46,-42.06 394.18,-28.81 361.07,-20.48"/>
<polygon fill="#63b8ff" stroke="#63b8ff" points="362.09,-17.12 351.54,-18.1 360.4,-23.92 362.09,-17.12"/>
</a>
</g>
</g>
<!-- Node19 -->
<g id="Node000019" class="node">
<title>Node19</title>
<g id="a_Node000019"><a xlink:href="assert_8h.html" target="_top" xlink:title="POSIX.1&#45;2008 compliant version of the assert macro.">
<polygon fill="white" stroke="#666666" points="644.88,-77.5 589.88,-77.5 589.88,-56.75 644.88,-56.75 644.88,-77.5"/>
<text text-anchor="middle" x="617.38" y="-64" font-family="Helvetica,sans-Serif" font-size="10.00">assert.h</text>
</a>
</g>
</g>
<!-- Node18&#45;&gt;Node19 -->
<g id="edge26_Node000018_Node000019" class="edge">
<title>Node18&#45;&gt;Node19</title>
<g id="a_edge26_Node000018_Node000019"><a xlink:title=" ">
<path fill="none" stroke="#63b8ff" d="M637.08,-113.09C634.05,-106.16 629.87,-96.62 626.14,-88.11"/>
<polygon fill="#63b8ff" stroke="#63b8ff" points="629.46,-86.97 622.24,-79.21 623.05,-89.78 629.46,-86.97"/>
</a>
</g>
</g>
<!-- Node19&#45;&gt;Node4 -->
<g id="edge27_Node000019_Node000004" class="edge">
<title>Node19&#45;&gt;Node4</title>
<g id="a_edge27_Node000019_Node000004"><a xlink:title=" ">
<path fill="none" stroke="#63b8ff" d="M589.45,-60.92C536.37,-51.04 420.89,-29.53 361.03,-18.39"/>
<polygon fill="#63b8ff" stroke="#63b8ff" points="361.8,-14.97 351.33,-16.58 360.52,-21.85 361.8,-14.97"/>
</a>
</g>
</g>
<!-- Node20&#45;&gt;Node4 -->
<g id="edge31_Node000020_Node000004" class="edge">
<title>Node20&#45;&gt;Node4</title>
<g id="a_edge31_Node000020_Node000004"><a xlink:title=" ">
<path fill="none" stroke="#63b8ff" d="M733.75,-113.06C718.45,-98.13 686.99,-70.06 654.38,-56.75 554.24,-15.87 424.35,-10.47 361.19,-10.55"/>
<polygon fill="#63b8ff" stroke="#63b8ff" points="361.33,-7.05 351.35,-10.62 361.37,-14.05 361.33,-7.05"/>
</a>
</g>
</g>
<!-- Node21 -->
<g id="Node000021" class="node">
<title>Node21</title>
<g id="a_Node000021"><a xlink:title=" ">
<polygon fill="#e0e0e0" stroke="#999999" points="770.88,-77.5 715.88,-77.5 715.88,-56.75 770.88,-56.75 770.88,-77.5"/>
<text text-anchor="middle" x="743.38" y="-64" font-family="Helvetica,sans-Serif" font-size="10.00">stddef.h</text>
</a>
</g>
</g>
<!-- Node20&#45;&gt;Node21 -->
<g id="edge30_Node000020_Node000021" class="edge">
<title>Node20&#45;&gt;Node21</title>
<g id="a_edge30_Node000020_Node000021"><a xlink:title=" ">
<path fill="none" stroke="#63b8ff" d="M743.38,-113.09C743.38,-106.47 743.38,-97.47 743.38,-89.27"/>
<polygon fill="#63b8ff" stroke="#63b8ff" points="746.88,-89.34 743.38,-79.34 739.88,-89.34 746.88,-89.34"/>
</a>
</g>
</g>
</g>
</svg>
