<?xml version="1.0" encoding="UTF-8" standalone="no"?>
<!DOCTYPE svg PUBLIC "-//W3C//DTD SVG 1.1//EN"
 "http://www.w3.org/Graphics/SVG/1.1/DTD/svg11.dtd">
<!-- Generated by graphviz version 12.1.2 (0)
 -->
<!-- Title: sys/net/link_layer/eui_provider/include/eui64_provider_params.h Pages: 1 -->
<svg width="810pt" height="395pt"
 viewBox="0.00 0.00 809.75 394.75" xmlns="http://www.w3.org/2000/svg" xmlns:xlink="http://www.w3.org/1999/xlink">
<g id="graph0" class="graph" transform="scale(1 1) rotate(0) translate(4 390.75)">
<title>sys/net/link_layer/eui_provider/include/eui64_provider_params.h</title>
<!-- Node1 -->
<g id="Node000001" class="node">
<title>Node1</title>
<g id="a_Node000001"><a xlink:title="EUI&#45;64 address provider default values.">
<polygon fill="#999999" stroke="#666666" points="145.75,-386.75 3,-386.75 3,-340.5 145.75,-340.5 145.75,-386.75"/>
<text text-anchor="start" x="11" y="-373.25" font-family="Helvetica,sans-Serif" font-size="10.00">sys/net/link_layer</text>
<text text-anchor="start" x="11" y="-360.5" font-family="Helvetica,sans-Serif" font-size="10.00">/eui_provider/include</text>
<text text-anchor="middle" x="74.38" y="-347.75" font-family="Helvetica,sans-Serif" font-size="10.00">/eui64_provider_params.h</text>
</a>
</g>
</g>
<!-- Node2 -->
<g id="Node000002" class="node">
<title>Node2</title>
<g id="a_Node000002"><a xlink:title=" ">
<polygon fill="#e0e0e0" stroke="#999999" points="52.75,-304.5 0,-304.5 0,-283.75 52.75,-283.75 52.75,-304.5"/>
<text text-anchor="middle" x="26.38" y="-291" font-family="Helvetica,sans-Serif" font-size="10.00">board.h</text>
</a>
</g>
</g>
<!-- Node1&#45;&gt;Node2 -->
<g id="edge1_Node000001_Node000002" class="edge">
<title>Node1&#45;&gt;Node2</title>
<g id="a_edge1_Node000001_Node000002"><a xlink:title=" ">
<path fill="none" stroke="#63b8ff" d="M58.39,-340.15C52.41,-331.74 45.68,-322.27 39.93,-314.19"/>
<polygon fill="#63b8ff" stroke="#63b8ff" points="42.84,-312.25 34.2,-306.12 37.14,-316.3 42.84,-312.25"/>
</a>
</g>
</g>
<!-- Node3 -->
<g id="Node000003" class="node">
<title>Node3</title>
<g id="a_Node000003"><a xlink:href="eui__provider_8h.html" target="_top" xlink:title="EUI&#45;48 and EUI&#45;64 address provider.">
<polygon fill="white" stroke="#666666" points="175.62,-304.5 71.12,-304.5 71.12,-283.75 175.62,-283.75 175.62,-304.5"/>
<text text-anchor="middle" x="123.38" y="-291" font-family="Helvetica,sans-Serif" font-size="10.00">net/eui_provider.h</text>
</a>
</g>
</g>
<!-- Node1&#45;&gt;Node3 -->
<g id="edge2_Node000001_Node000003" class="edge">
<title>Node1&#45;&gt;Node3</title>
<g id="a_edge2_Node000001_Node000003"><a xlink:title=" ">
<path fill="none" stroke="#63b8ff" d="M90.69,-340.15C96.8,-331.74 103.67,-322.27 109.54,-314.19"/>
<polygon fill="#63b8ff" stroke="#63b8ff" points="112.35,-316.26 115.4,-306.12 106.69,-312.15 112.35,-316.26"/>
</a>
</g>
</g>
<!-- Node4 -->
<g id="Node000004" class="node">
<title>Node4</title>
<g id="a_Node000004"><a xlink:href="eui48_8h.html" target="_top" xlink:title="Definition and IPv6 IID conversion for IEEE EUI&#45;48 identifiers.">
<polygon fill="white" stroke="#666666" points="95.75,-247.75 25,-247.75 25,-227 95.75,-227 95.75,-247.75"/>
<text text-anchor="middle" x="60.38" y="-234.25" font-family="Helvetica,sans-Serif" font-size="10.00">net/eui48.h</text>
</a>
</g>
</g>
<!-- Node3&#45;&gt;Node4 -->
<g id="edge3_Node000003_Node000004" class="edge">
<title>Node3&#45;&gt;Node4</title>
<g id="a_edge3_Node000003_Node000004"><a xlink:title=" ">
<path fill="none" stroke="#63b8ff" d="M112.11,-283.34C103.24,-275.63 90.66,-264.7 80.13,-255.54"/>
<polygon fill="#63b8ff" stroke="#63b8ff" points="82.53,-252.99 72.68,-249.07 77.94,-258.27 82.53,-252.99"/>
</a>
</g>
</g>
<!-- Node6 -->
<g id="Node000006" class="node">
<title>Node6</title>
<g id="a_Node000006"><a xlink:href="eui64_8h.html" target="_top" xlink:title="EUI&#45;64 data type definition.">
<polygon fill="white" stroke="#666666" points="126.75,-191 56,-191 56,-170.25 126.75,-170.25 126.75,-191"/>
<text text-anchor="middle" x="91.38" y="-177.5" font-family="Helvetica,sans-Serif" font-size="10.00">net/eui64.h</text>
</a>
</g>
</g>
<!-- Node3&#45;&gt;Node6 -->
<g id="edge14_Node000003_Node000006" class="edge">
<title>Node3&#45;&gt;Node6</title>
<g id="a_edge14_Node000003_Node000006"><a xlink:title=" ">
<path fill="none" stroke="#63b8ff" d="M120.65,-283.62C115.5,-265.69 104.25,-226.5 97.3,-202.26"/>
<polygon fill="#63b8ff" stroke="#63b8ff" points="100.73,-201.53 94.61,-192.88 94,-203.46 100.73,-201.53"/>
</a>
</g>
</g>
<!-- Node11 -->
<g id="Node000011" class="node">
<title>Node11</title>
<g id="a_Node000011"><a xlink:href="drivers_2include_2net_2netdev_8h.html" target="_top" xlink:title="Definitions low&#45;level network driver interface.">
<polygon fill="white" stroke="#666666" points="471.75,-247.75 395,-247.75 395,-227 471.75,-227 471.75,-247.75"/>
<text text-anchor="middle" x="433.38" y="-234.25" font-family="Helvetica,sans-Serif" font-size="10.00">net/netdev.h</text>
</a>
</g>
</g>
<!-- Node3&#45;&gt;Node11 -->
<g id="edge15_Node000003_Node000011" class="edge">
<title>Node3&#45;&gt;Node11</title>
<g id="a_edge15_Node000003_Node000011"><a xlink:title=" ">
<path fill="none" stroke="#63b8ff" d="M175.96,-283.84C233.98,-273.59 326.65,-257.22 383.54,-247.18"/>
<polygon fill="#63b8ff" stroke="#63b8ff" points="384.04,-250.64 393.28,-245.46 382.82,-243.75 384.04,-250.64"/>
</a>
</g>
</g>
<!-- Node5 -->
<g id="Node000005" class="node">
<title>Node5</title>
<g id="a_Node000005"><a xlink:title=" ">
<polygon fill="#e0e0e0" stroke="#999999" points="372.75,-20.75 320,-20.75 320,0 372.75,0 372.75,-20.75"/>
<text text-anchor="middle" x="346.38" y="-7.25" font-family="Helvetica,sans-Serif" font-size="10.00">stdint.h</text>
</a>
</g>
</g>
<!-- Node4&#45;&gt;Node5 -->
<g id="edge4_Node000004_Node000005" class="edge">
<title>Node4&#45;&gt;Node5</title>
<g id="a_edge4_Node000004_Node000005"><a xlink:title=" ">
<path fill="none" stroke="#63b8ff" d="M56.78,-226.86C46.15,-196.91 18.45,-103.8 65.38,-56.75 98.86,-23.18 240.04,-14.44 308.64,-12.17"/>
<polygon fill="#63b8ff" stroke="#63b8ff" points="308.38,-15.68 318.27,-11.88 308.17,-8.68 308.38,-15.68"/>
</a>
</g>
</g>
<!-- Node4&#45;&gt;Node6 -->
<g id="edge5_Node000004_Node000006" class="edge">
<title>Node4&#45;&gt;Node6</title>
<g id="a_edge5_Node000004_Node000006"><a xlink:title=" ">
<path fill="none" stroke="#63b8ff" d="M65.92,-226.59C69.88,-219.58 75.36,-209.91 80.22,-201.33"/>
<polygon fill="#63b8ff" stroke="#63b8ff" points="83.25,-203.07 85.14,-192.65 77.16,-199.62 83.25,-203.07"/>
</a>
</g>
</g>
<!-- Node6&#45;&gt;Node5 -->
<g id="edge6_Node000006_Node000005" class="edge">
<title>Node6&#45;&gt;Node5</title>
<g id="a_edge6_Node000006_Node000005"><a xlink:title=" ">
<path fill="none" stroke="#63b8ff" d="M86.35,-169.91C75.33,-147.1 52.18,-89.57 80.38,-56.75 109.39,-22.98 241.97,-14.34 308.32,-12.13"/>
<polygon fill="#63b8ff" stroke="#63b8ff" points="308.12,-15.64 318.01,-11.85 307.91,-8.64 308.12,-15.64"/>
</a>
</g>
</g>
<!-- Node7 -->
<g id="Node000007" class="node">
<title>Node7</title>
<g id="a_Node000007"><a xlink:href="byteorder_8h.html" target="_top" xlink:title="Functions to work with different byte orders.">
<polygon fill="white" stroke="#666666" points="160.5,-134.25 88.25,-134.25 88.25,-113.5 160.5,-113.5 160.5,-134.25"/>
<text text-anchor="middle" x="124.38" y="-120.75" font-family="Helvetica,sans-Serif" font-size="10.00">byteorder.h</text>
</a>
</g>
</g>
<!-- Node6&#45;&gt;Node7 -->
<g id="edge7_Node000006_Node000007" class="edge">
<title>Node6&#45;&gt;Node7</title>
<g id="a_edge7_Node000006_Node000007"><a xlink:title=" ">
<path fill="none" stroke="#63b8ff" d="M97.27,-169.84C101.55,-162.75 107.46,-152.94 112.67,-144.29"/>
<polygon fill="#63b8ff" stroke="#63b8ff" points="115.58,-146.25 117.75,-135.87 109.59,-142.63 115.58,-146.25"/>
</a>
</g>
</g>
<!-- Node7&#45;&gt;Node5 -->
<g id="edge9_Node000007_Node000005" class="edge">
<title>Node7&#45;&gt;Node5</title>
<g id="a_edge9_Node000007_Node000005"><a xlink:title=" ">
<path fill="none" stroke="#63b8ff" d="M112.47,-113.13C97.24,-99.51 74.52,-74.46 89.38,-56.75 116.93,-23.91 244.16,-14.83 308.66,-12.32"/>
<polygon fill="#63b8ff" stroke="#63b8ff" points="308.55,-15.83 318.42,-11.98 308.31,-8.83 308.55,-15.83"/>
</a>
</g>
</g>
<!-- Node8 -->
<g id="Node000008" class="node">
<title>Node8</title>
<g id="a_Node000008"><a xlink:title=" ">
<polygon fill="#e0e0e0" stroke="#999999" points="150.75,-77.5 98,-77.5 98,-56.75 150.75,-56.75 150.75,-77.5"/>
<text text-anchor="middle" x="124.38" y="-64" font-family="Helvetica,sans-Serif" font-size="10.00">string.h</text>
</a>
</g>
</g>
<!-- Node7&#45;&gt;Node8 -->
<g id="edge8_Node000007_Node000008" class="edge">
<title>Node7&#45;&gt;Node8</title>
<g id="a_edge8_Node000007_Node000008"><a xlink:title=" ">
<path fill="none" stroke="#63b8ff" d="M124.38,-113.09C124.38,-106.47 124.38,-97.47 124.38,-89.27"/>
<polygon fill="#63b8ff" stroke="#63b8ff" points="127.88,-89.34 124.38,-79.34 120.88,-89.34 127.88,-89.34"/>
</a>
</g>
</g>
<!-- Node9 -->
<g id="Node000009" class="node">
<title>Node9</title>
<g id="a_Node000009"><a xlink:href="endian_8h.html" target="_top" xlink:title="libc header for endian conversion">
<polygon fill="white" stroke="#666666" points="226.38,-77.5 168.38,-77.5 168.38,-56.75 226.38,-56.75 226.38,-77.5"/>
<text text-anchor="middle" x="197.38" y="-64" font-family="Helvetica,sans-Serif" font-size="10.00">endian.h</text>
</a>
</g>
</g>
<!-- Node7&#45;&gt;Node9 -->
<g id="edge10_Node000007_Node000009" class="edge">
<title>Node7&#45;&gt;Node9</title>
<g id="a_edge10_Node000007_Node000009"><a xlink:title=" ">
<path fill="none" stroke="#63b8ff" d="M137.43,-113.09C148.01,-105.15 163.17,-93.78 175.59,-84.46"/>
<polygon fill="#63b8ff" stroke="#63b8ff" points="177.33,-87.54 183.23,-78.74 173.13,-81.94 177.33,-87.54"/>
</a>
</g>
</g>
<!-- Node10 -->
<g id="Node000010" class="node">
<title>Node10</title>
<g id="a_Node000010"><a xlink:href="unaligned_8h.html" target="_top" xlink:title="Unaligned but safe memory access functions.">
<polygon fill="white" stroke="#666666" points="317.88,-77.5 244.88,-77.5 244.88,-56.75 317.88,-56.75 317.88,-77.5"/>
<text text-anchor="middle" x="281.38" y="-64" font-family="Helvetica,sans-Serif" font-size="10.00">unaligned.h</text>
</a>
</g>
</g>
<!-- Node7&#45;&gt;Node10 -->
<g id="edge12_Node000007_Node000010" class="edge">
<title>Node7&#45;&gt;Node10</title>
<g id="a_edge12_Node000007_Node000010"><a xlink:title=" ">
<path fill="none" stroke="#63b8ff" d="M152.44,-113.09C177.59,-104.32 214.72,-91.37 242.68,-81.62"/>
<polygon fill="#63b8ff" stroke="#63b8ff" points="243.57,-85.02 251.86,-78.42 241.26,-78.41 243.57,-85.02"/>
</a>
</g>
</g>
<!-- Node9&#45;&gt;Node5 -->
<g id="edge11_Node000009_Node000005" class="edge">
<title>Node9&#45;&gt;Node5</title>
<g id="a_edge11_Node000009_Node000005"><a xlink:title=" ">
<path fill="none" stroke="#63b8ff" d="M224.01,-56.34C247.67,-47.64 282.49,-34.85 308.95,-25.13"/>
<polygon fill="#63b8ff" stroke="#63b8ff" points="310.12,-28.43 318.3,-21.69 307.7,-21.86 310.12,-28.43"/>
</a>
</g>
</g>
<!-- Node10&#45;&gt;Node5 -->
<g id="edge13_Node000010_Node000005" class="edge">
<title>Node10&#45;&gt;Node5</title>
<g id="a_edge13_Node000010_Node000005"><a xlink:title=" ">
<path fill="none" stroke="#63b8ff" d="M293,-56.34C302.24,-48.55 315.39,-37.47 326.32,-28.26"/>
<polygon fill="#63b8ff" stroke="#63b8ff" points="328.3,-31.17 333.7,-22.05 323.79,-25.82 328.3,-31.17"/>
</a>
</g>
</g>
<!-- Node11&#45;&gt;Node5 -->
<g id="edge16_Node000011_Node000005" class="edge">
<title>Node11&#45;&gt;Node5</title>
<g id="a_edge16_Node000011_Node000005"><a xlink:title=" ">
<path fill="none" stroke="#63b8ff" d="M408.81,-226.54C393.66,-219.12 375.29,-207.4 365.38,-191 335.03,-140.81 338.88,-68.08 343.16,-32.53"/>
<polygon fill="#63b8ff" stroke="#63b8ff" points="346.61,-33.11 344.49,-22.73 339.68,-32.17 346.61,-33.11"/>
</a>
</g>
</g>
<!-- Node12 -->
<g id="Node000012" class="node">
<title>Node12</title>
<g id="a_Node000012"><a xlink:href="errno_8h.html" target="_top" xlink:title=" ">
<polygon fill="white" stroke="#666666" points="424.62,-191 374.12,-191 374.12,-170.25 424.62,-170.25 424.62,-191"/>
<text text-anchor="middle" x="399.38" y="-177.5" font-family="Helvetica,sans-Serif" font-size="10.00">errno.h</text>
</a>
</g>
</g>
<!-- Node11&#45;&gt;Node12 -->
<g id="edge17_Node000011_Node000012" class="edge">
<title>Node11&#45;&gt;Node12</title>
<g id="a_edge17_Node000011_Node000012"><a xlink:title=" ">
<path fill="none" stroke="#63b8ff" d="M427.3,-226.59C422.9,-219.5 416.8,-209.69 411.43,-201.04"/>
<polygon fill="#63b8ff" stroke="#63b8ff" points="414.45,-199.26 406.2,-192.61 408.5,-202.96 414.45,-199.26"/>
</a>
</g>
</g>
<!-- Node13 -->
<g id="Node000013" class="node">
<title>Node13</title>
<g id="a_Node000013"><a xlink:href="iolist_8h.html" target="_top" xlink:title="iolist scatter / gather IO">
<polygon fill="white" stroke="#666666" points="491.88,-191 442.88,-191 442.88,-170.25 491.88,-170.25 491.88,-191"/>
<text text-anchor="middle" x="467.38" y="-177.5" font-family="Helvetica,sans-Serif" font-size="10.00">iolist.h</text>
</a>
</g>
</g>
<!-- Node11&#45;&gt;Node13 -->
<g id="edge18_Node000011_Node000013" class="edge">
<title>Node11&#45;&gt;Node13</title>
<g id="a_edge18_Node000011_Node000013"><a xlink:title=" ">
<path fill="none" stroke="#63b8ff" d="M439.45,-226.59C443.85,-219.5 449.95,-209.69 455.32,-201.04"/>
<polygon fill="#63b8ff" stroke="#63b8ff" points="458.25,-202.96 460.55,-192.61 452.3,-199.26 458.25,-202.96"/>
</a>
</g>
</g>
<!-- Node14 -->
<g id="Node000014" class="node">
<title>Node14</title>
<g id="a_Node000014"><a xlink:href="netopt_8h.html" target="_top" xlink:title="Definition of global configuration options.">
<polygon fill="white" stroke="#666666" points="585,-191 509.75,-191 509.75,-170.25 585,-170.25 585,-191"/>
<text text-anchor="middle" x="547.38" y="-177.5" font-family="Helvetica,sans-Serif" font-size="10.00">net/netopt.h</text>
</a>
</g>
</g>
<!-- Node11&#45;&gt;Node14 -->
<g id="edge19_Node000011_Node000014" class="edge">
<title>Node11&#45;&gt;Node14</title>
<g id="a_edge19_Node000011_Node000014"><a xlink:title=" ">
<path fill="none" stroke="#63b8ff" d="M453.76,-226.59C471.34,-218.14 497,-205.82 517.01,-196.21"/>
<polygon fill="#63b8ff" stroke="#63b8ff" points="518.31,-199.47 525.81,-191.98 515.28,-193.16 518.31,-199.47"/>
</a>
</g>
</g>
<!-- Node16 -->
<g id="Node000016" class="node">
<title>Node16</title>
<g id="a_Node000016"><a xlink:href="kernel__defines_8h.html" target="_top" xlink:title="Common macros and compiler attributes/pragmas configuration.">
<polygon fill="white" stroke="#666666" points="699.5,-191 603.25,-191 603.25,-170.25 699.5,-170.25 699.5,-191"/>
<text text-anchor="middle" x="651.38" y="-177.5" font-family="Helvetica,sans-Serif" font-size="10.00">kernel_defines.h</text>
</a>
</g>
</g>
<!-- Node11&#45;&gt;Node16 -->
<g id="edge22_Node000011_Node000016" class="edge">
<title>Node11&#45;&gt;Node16</title>
<g id="a_edge22_Node000011_Node000016"><a xlink:title=" ">
<path fill="none" stroke="#63b8ff" d="M472.1,-226.65C508.14,-217.6 562.07,-204.05 601.36,-194.19"/>
<polygon fill="#63b8ff" stroke="#63b8ff" points="601.96,-197.64 610.81,-191.81 600.26,-190.85 601.96,-197.64"/>
</a>
</g>
</g>
<!-- Node14&#45;&gt;Node5 -->
<g id="edge20_Node000014_Node000005" class="edge">
<title>Node14&#45;&gt;Node5</title>
<g id="a_edge20_Node000014_Node000005"><a xlink:title=" ">
<path fill="none" stroke="#63b8ff" d="M509.43,-171.22C472.65,-162.44 420.16,-148.05 404.38,-134.25 388,-119.93 365.11,-62.46 353.6,-31.46"/>
<polygon fill="#63b8ff" stroke="#63b8ff" points="357.02,-30.62 350.3,-22.43 350.45,-33.03 357.02,-30.62"/>
</a>
</g>
</g>
<!-- Node15 -->
<g id="Node000015" class="node">
<title>Node15</title>
<g id="a_Node000015"><a xlink:title=" ">
<polygon fill="#e0e0e0" stroke="#999999" points="473.88,-134.25 412.88,-134.25 412.88,-113.5 473.88,-113.5 473.88,-134.25"/>
<text text-anchor="middle" x="443.38" y="-120.75" font-family="Helvetica,sans-Serif" font-size="10.00">stdbool.h</text>
</a>
</g>
</g>
<!-- Node14&#45;&gt;Node15 -->
<g id="edge21_Node000014_Node000015" class="edge">
<title>Node14&#45;&gt;Node15</title>
<g id="a_edge21_Node000014_Node000015"><a xlink:title=" ">
<path fill="none" stroke="#63b8ff" d="M528.78,-169.84C512.96,-161.51 489.98,-149.41 471.84,-139.86"/>
<polygon fill="#63b8ff" stroke="#63b8ff" points="473.63,-136.84 463.15,-135.28 470.36,-143.04 473.63,-136.84"/>
</a>
</g>
</g>
<!-- Node17 -->
<g id="Node000017" class="node">
<title>Node17</title>
<g id="a_Node000017"><a xlink:href="modules_8h.html" target="_top" xlink:title="Common macros and compiler attributes/pragmas configuration.">
<polygon fill="white" stroke="#666666" points="558.88,-134.25 491.88,-134.25 491.88,-113.5 558.88,-113.5 558.88,-134.25"/>
<text text-anchor="middle" x="525.38" y="-120.75" font-family="Helvetica,sans-Serif" font-size="10.00">modules.h</text>
</a>
</g>
</g>
<!-- Node16&#45;&gt;Node17 -->
<g id="edge23_Node000016_Node000017" class="edge">
<title>Node16&#45;&gt;Node17</title>
<g id="a_edge23_Node000016_Node000017"><a xlink:title=" ">
<path fill="none" stroke="#63b8ff" d="M628.85,-169.84C609.14,-161.27 580.27,-148.73 558.02,-139.06"/>
<polygon fill="#63b8ff" stroke="#63b8ff" points="559.66,-135.96 549.09,-135.18 556.87,-142.38 559.66,-135.96"/>
</a>
</g>
</g>
<!-- Node18 -->
<g id="Node000018" class="node">
<title>Node18</title>
<g id="a_Node000018"><a xlink:href="riot__version_8h.html" target="_top" xlink:title="Common macros and compiler attributes/pragmas configuration.">
<polygon fill="white" stroke="#666666" points="499.75,-77.5 417,-77.5 417,-56.75 499.75,-56.75 499.75,-77.5"/>
<text text-anchor="middle" x="458.38" y="-64" font-family="Helvetica,sans-Serif" font-size="10.00">riot_version.h</text>
</a>
</g>
</g>
<!-- Node16&#45;&gt;Node18 -->
<g id="edge24_Node000016_Node000018" class="edge">
<title>Node16&#45;&gt;Node18</title>
<g id="a_edge24_Node000016_Node000018"><a xlink:title=" ">
<path fill="none" stroke="#63b8ff" d="M641.08,-169.82C626.05,-155.89 596.8,-130.23 568.38,-113.5 546.54,-100.65 520.39,-89.7 499.06,-81.78"/>
<polygon fill="#63b8ff" stroke="#63b8ff" points="500.41,-78.54 489.82,-78.43 498.03,-85.13 500.41,-78.54"/>
</a>
</g>
</g>
<!-- Node19 -->
<g id="Node000019" class="node">
<title>Node19</title>
<g id="a_Node000019"><a xlink:href="compiler__hints_8h.html" target="_top" xlink:title="Common macros and compiler attributes/pragmas configuration.">
<polygon fill="white" stroke="#666666" points="712.88,-134.25 615.88,-134.25 615.88,-113.5 712.88,-113.5 712.88,-134.25"/>
<text text-anchor="middle" x="664.38" y="-120.75" font-family="Helvetica,sans-Serif" font-size="10.00">compiler_hints.h</text>
</a>
</g>
</g>
<!-- Node16&#45;&gt;Node19 -->
<g id="edge26_Node000016_Node000019" class="edge">
<title>Node16&#45;&gt;Node19</title>
<g id="a_edge26_Node000016_Node000019"><a xlink:title=" ">
<path fill="none" stroke="#63b8ff" d="M653.7,-169.84C655.29,-163.14 657.46,-154.01 659.42,-145.73"/>
<polygon fill="#63b8ff" stroke="#63b8ff" points="662.82,-146.59 661.72,-136.05 656.01,-144.97 662.82,-146.59"/>
</a>
</g>
</g>
<!-- Node21 -->
<g id="Node000021" class="node">
<title>Node21</title>
<g id="a_Node000021"><a xlink:href="container_8h.html" target="_top" xlink:title="Common macros and compiler attributes/pragmas configuration.">
<polygon fill="white" stroke="#666666" points="801.75,-134.25 731,-134.25 731,-113.5 801.75,-113.5 801.75,-134.25"/>
<text text-anchor="middle" x="766.38" y="-120.75" font-family="Helvetica,sans-Serif" font-size="10.00">container.h</text>
</a>
</g>
</g>
<!-- Node16&#45;&gt;Node21 -->
<g id="edge30_Node000016_Node000021" class="edge">
<title>Node16&#45;&gt;Node21</title>
<g id="a_edge30_Node000016_Node000021"><a xlink:title=" ">
<path fill="none" stroke="#63b8ff" d="M671.93,-169.84C689.68,-161.39 715.56,-149.07 735.74,-139.46"/>
<polygon fill="#63b8ff" stroke="#63b8ff" points="737.1,-142.69 744.63,-135.23 734.09,-136.37 737.1,-142.69"/>
</a>
</g>
</g>
<!-- Node18&#45;&gt;Node5 -->
<g id="edge25_Node000018_Node000005" class="edge">
<title>Node18&#45;&gt;Node5</title>
<g id="a_edge25_Node000018_Node000005"><a xlink:title=" ">
<path fill="none" stroke="#63b8ff" d="M438.35,-56.34C421.15,-47.93 396.1,-35.68 376.48,-26.09"/>
<polygon fill="#63b8ff" stroke="#63b8ff" points="378.11,-22.99 367.58,-21.74 375.03,-29.28 378.11,-22.99"/>
</a>
</g>
</g>
<!-- Node19&#45;&gt;Node5 -->
<g id="edge29_Node000019_Node000005" class="edge">
<title>Node19&#45;&gt;Node5</title>
<g id="a_edge29_Node000019_Node000005"><a xlink:title=" ">
<path fill="none" stroke="#63b8ff" d="M643.52,-113.02C613.91,-99.27 557.79,-74.06 508.38,-56.75 466.46,-42.06 417.18,-28.81 384.07,-20.48"/>
<polygon fill="#63b8ff" stroke="#63b8ff" points="385.09,-17.12 374.54,-18.1 383.4,-23.92 385.09,-17.12"/>
</a>
</g>
</g>
<!-- Node20 -->
<g id="Node000020" class="node">
<title>Node20</title>
<g id="a_Node000020"><a xlink:href="assert_8h.html" target="_top" xlink:title="POSIX.1&#45;2008 compliant version of the assert macro.">
<polygon fill="white" stroke="#666666" points="667.88,-77.5 612.88,-77.5 612.88,-56.75 667.88,-56.75 667.88,-77.5"/>
<text text-anchor="middle" x="640.38" y="-64" font-family="Helvetica,sans-Serif" font-size="10.00">assert.h</text>
</a>
</g>
</g>
<!-- Node19&#45;&gt;Node20 -->
<g id="edge27_Node000019_Node000020" class="edge">
<title>Node19&#45;&gt;Node20</title>
<g id="a_edge27_Node000019_Node000020"><a xlink:title=" ">
<path fill="none" stroke="#63b8ff" d="M660.08,-113.09C657.05,-106.16 652.87,-96.62 649.14,-88.11"/>
<polygon fill="#63b8ff" stroke="#63b8ff" points="652.46,-86.97 645.24,-79.21 646.05,-89.78 652.46,-86.97"/>
</a>
</g>
</g>
<!-- Node20&#45;&gt;Node5 -->
<g id="edge28_Node000020_Node000005" class="edge">
<title>Node20&#45;&gt;Node5</title>
<g id="a_edge28_Node000020_Node000005"><a xlink:title=" ">
<path fill="none" stroke="#63b8ff" d="M612.45,-60.92C559.37,-51.04 443.89,-29.53 384.03,-18.39"/>
<polygon fill="#63b8ff" stroke="#63b8ff" points="384.8,-14.97 374.33,-16.58 383.52,-21.85 384.8,-14.97"/>
</a>
</g>
</g>
<!-- Node21&#45;&gt;Node5 -->
<g id="edge32_Node000021_Node000005" class="edge">
<title>Node21&#45;&gt;Node5</title>
<g id="a_edge32_Node000021_Node000005"><a xlink:title=" ">
<path fill="none" stroke="#63b8ff" d="M756.75,-113.06C741.45,-98.13 709.99,-70.06 677.38,-56.75 577.24,-15.87 447.35,-10.47 384.19,-10.55"/>
<polygon fill="#63b8ff" stroke="#63b8ff" points="384.33,-7.05 374.35,-10.62 384.37,-14.05 384.33,-7.05"/>
</a>
</g>
</g>
<!-- Node22 -->
<g id="Node000022" class="node">
<title>Node22</title>
<g id="a_Node000022"><a xlink:title=" ">
<polygon fill="#e0e0e0" stroke="#999999" points="793.88,-77.5 738.88,-77.5 738.88,-56.75 793.88,-56.75 793.88,-77.5"/>
<text text-anchor="middle" x="766.38" y="-64" font-family="Helvetica,sans-Serif" font-size="10.00">stddef.h</text>
</a>
</g>
</g>
<!-- Node21&#45;&gt;Node22 -->
<g id="edge31_Node000021_Node000022" class="edge">
<title>Node21&#45;&gt;Node22</title>
<g id="a_edge31_Node000021_Node000022"><a xlink:title=" ">
<path fill="none" stroke="#63b8ff" d="M766.38,-113.09C766.38,-106.47 766.38,-97.47 766.38,-89.27"/>
<polygon fill="#63b8ff" stroke="#63b8ff" points="769.88,-89.34 766.38,-79.34 762.88,-89.34 769.88,-89.34"/>
</a>
</g>
</g>
</g>
</svg>
