<?xml version="1.0" encoding="UTF-8" standalone="no"?>
<!DOCTYPE svg PUBLIC "-//W3C//DTD SVG 1.1//EN"
 "http://www.w3.org/Graphics/SVG/1.1/DTD/svg11.dtd">
<!-- Generated by graphviz version 12.1.2 (0)
 -->
<!-- Title: sys/include/net/eui_provider.h Pages: 1 -->
<svg width="2196pt" height="332pt"
 viewBox="0.00 0.00 2195.62 332.25" xmlns="http://www.w3.org/2000/svg" xmlns:xlink="http://www.w3.org/1999/xlink">
<g id="graph0" class="graph" transform="scale(1 1) rotate(0) translate(4 328.25)">
<title>sys/include/net/eui_provider.h</title>
<!-- Node1 -->
<g id="Node000001" class="node">
<title>Node1</title>
<g id="a_Node000001"><a xlink:title="EUI&#45;48 and EUI&#45;64 address provider.">
<polygon fill="#999999" stroke="#666666" points="1486.75,-324.25 1379.25,-324.25 1379.25,-290.75 1486.75,-290.75 1486.75,-324.25"/>
<text text-anchor="start" x="1387.25" y="-310.75" font-family="Helvetica,sans-Serif" font-size="10.00">sys/include/net/eui</text>
<text text-anchor="middle" x="1433" y="-298" font-family="Helvetica,sans-Serif" font-size="10.00">_provider.h</text>
</a>
</g>
</g>
<!-- Node2 -->
<g id="Node000002" class="node">
<title>Node2</title>
<g id="a_Node000002"><a xlink:href="drivers_2include_2net_2netdev_2ieee802154_8h.html" target="_top" xlink:title="Definitions for netdev common IEEE 802.15.4 code.">
<polygon fill="white" stroke="#666666" points="1343.88,-248.38 1222.12,-248.38 1222.12,-214.88 1343.88,-214.88 1343.88,-248.38"/>
<text text-anchor="start" x="1230.12" y="-234.88" font-family="Helvetica,sans-Serif" font-size="10.00">drivers/include/net</text>
<text text-anchor="middle" x="1283" y="-222.12" font-family="Helvetica,sans-Serif" font-size="10.00">/netdev/ieee802154.h</text>
</a>
</g>
</g>
<!-- Node1&#45;&gt;Node2 -->
<g id="edge1_Node000001_Node000002" class="edge">
<title>Node1&#45;&gt;Node2</title>
<g id="a_edge1_Node000001_Node000002"><a xlink:title=" ">
<path fill="none" stroke="#63b8ff" d="M1389.99,-285.32C1366.4,-273.7 1337.61,-259.52 1315.84,-248.8"/>
<polygon fill="#63b8ff" stroke="#63b8ff" points="1388.21,-288.34 1398.72,-289.62 1391.3,-282.06 1388.21,-288.34"/>
</a>
</g>
</g>
<!-- Node28 -->
<g id="Node000028" class="node">
<title>Node28</title>
<g id="a_Node000028"><a xlink:href="eui48__provider__params_8h.html" target="_top" xlink:title="EUI&#45;48 address provider default values.">
<polygon fill="white" stroke="#666666" points="1504.38,-254.75 1361.62,-254.75 1361.62,-208.5 1504.38,-208.5 1504.38,-254.75"/>
<text text-anchor="start" x="1369.62" y="-241.25" font-family="Helvetica,sans-Serif" font-size="10.00">sys/net/link_layer</text>
<text text-anchor="start" x="1369.62" y="-228.5" font-family="Helvetica,sans-Serif" font-size="10.00">/eui_provider/include</text>
<text text-anchor="middle" x="1433" y="-215.75" font-family="Helvetica,sans-Serif" font-size="10.00">/eui48_provider_params.h</text>
</a>
</g>
</g>
<!-- Node1&#45;&gt;Node28 -->
<g id="edge30_Node000001_Node000028" class="edge">
<title>Node1&#45;&gt;Node28</title>
<g id="a_edge30_Node000001_Node000028"><a xlink:title=" ">
<path fill="none" stroke="#63b8ff" d="M1433,-279.14C1433,-271.21 1433,-262.66 1433,-255.07"/>
<polygon fill="#63b8ff" stroke="#63b8ff" points="1429.5,-278.96 1433,-288.96 1436.5,-278.96 1429.5,-278.96"/>
</a>
</g>
</g>
<!-- Node29 -->
<g id="Node000029" class="node">
<title>Node29</title>
<g id="a_Node000029"><a xlink:href="eui64__provider__params_8h.html" target="_top" xlink:title="EUI&#45;64 address provider default values.">
<polygon fill="white" stroke="#666666" points="1665.38,-254.75 1522.62,-254.75 1522.62,-208.5 1665.38,-208.5 1665.38,-254.75"/>
<text text-anchor="start" x="1530.62" y="-241.25" font-family="Helvetica,sans-Serif" font-size="10.00">sys/net/link_layer</text>
<text text-anchor="start" x="1530.62" y="-228.5" font-family="Helvetica,sans-Serif" font-size="10.00">/eui_provider/include</text>
<text text-anchor="middle" x="1594" y="-215.75" font-family="Helvetica,sans-Serif" font-size="10.00">/eui64_provider_params.h</text>
</a>
</g>
</g>
<!-- Node1&#45;&gt;Node29 -->
<g id="edge31_Node000001_Node000029" class="edge">
<title>Node1&#45;&gt;Node29</title>
<g id="a_edge31_Node000001_Node000029"><a xlink:title=" ">
<path fill="none" stroke="#63b8ff" d="M1478.73,-285.52C1499.33,-276.06 1523.69,-264.88 1544.71,-255.24"/>
<polygon fill="#63b8ff" stroke="#63b8ff" points="1477.34,-282.31 1469.71,-289.66 1480.26,-288.67 1477.34,-282.31"/>
</a>
</g>
</g>
<!-- Node3 -->
<g id="Node000003" class="node">
<title>Node3</title>
<g id="a_Node000003"><a xlink:href="socket__zep_8h.html" target="_top" xlink:title="Socket ZEP definitions.">
<polygon fill="white" stroke="#666666" points="195.62,-172.5 90.38,-172.5 90.38,-139 195.62,-139 195.62,-172.5"/>
<text text-anchor="start" x="98.38" y="-159" font-family="Helvetica,sans-Serif" font-size="10.00">cpu/native/include</text>
<text text-anchor="middle" x="143" y="-146.25" font-family="Helvetica,sans-Serif" font-size="10.00">/socket_zep.h</text>
</a>
</g>
</g>
<!-- Node2&#45;&gt;Node3 -->
<g id="edge2_Node000002_Node000003" class="edge">
<title>Node2&#45;&gt;Node3</title>
<g id="a_edge2_Node000002_Node000003"><a xlink:title=" ">
<path fill="none" stroke="#63b8ff" d="M1210.39,-227.72C1045.51,-220.85 630.34,-201.9 284,-172.5 254.79,-170.02 222.27,-166.44 195.83,-163.32"/>
<polygon fill="#63b8ff" stroke="#63b8ff" points="1210.17,-231.22 1220.31,-228.14 1210.46,-224.22 1210.17,-231.22"/>
</a>
</g>
</g>
<!-- Node5 -->
<g id="Node000005" class="node">
<title>Node5</title>
<g id="a_Node000005"><a xlink:href="at86rf215_8h.html" target="_top" xlink:title="Interface definition for AT86RF215 based drivers.">
<polygon fill="white" stroke="#666666" points="440.62,-166.12 293.38,-166.12 293.38,-145.38 440.62,-145.38 440.62,-166.12"/>
<text text-anchor="middle" x="367" y="-152.62" font-family="Helvetica,sans-Serif" font-size="10.00">drivers/include/at86rf215.h</text>
</a>
</g>
</g>
<!-- Node2&#45;&gt;Node5 -->
<g id="edge4_Node000002_Node000005" class="edge">
<title>Node2&#45;&gt;Node5</title>
<g id="a_edge4_Node000002_Node000005"><a xlink:title=" ">
<path fill="none" stroke="#63b8ff" d="M1210.46,-224.77C1039.56,-210.99 613.05,-176.59 440.85,-162.71"/>
<polygon fill="#63b8ff" stroke="#63b8ff" points="1210.08,-228.25 1220.32,-225.57 1210.64,-221.28 1210.08,-228.25"/>
</a>
</g>
</g>
<!-- Node8 -->
<g id="Node000008" class="node">
<title>Node8</title>
<g id="a_Node000008"><a xlink:href="at86rf2xx_8h.html" target="_top" xlink:title="Interface definition for AT86RF2xx based drivers.">
<polygon fill="white" stroke="#666666" points="790.62,-166.12 643.38,-166.12 643.38,-145.38 790.62,-145.38 790.62,-166.12"/>
<text text-anchor="middle" x="717" y="-152.62" font-family="Helvetica,sans-Serif" font-size="10.00">drivers/include/at86rf2xx.h</text>
</a>
</g>
</g>
<!-- Node2&#45;&gt;Node8 -->
<g id="edge7_Node000002_Node000008" class="edge">
<title>Node2&#45;&gt;Node8</title>
<g id="a_edge7_Node000002_Node000008"><a xlink:title=" ">
<path fill="none" stroke="#63b8ff" d="M1210.78,-221.2C1102.65,-207.09 899.78,-180.61 790.77,-166.38"/>
<polygon fill="#63b8ff" stroke="#63b8ff" points="1210.02,-224.63 1220.39,-222.45 1210.93,-217.69 1210.02,-224.63"/>
</a>
</g>
</g>
<!-- Node13 -->
<g id="Node000013" class="node">
<title>Node13</title>
<g id="a_Node000013"><a xlink:href="cc2420_8h.html" target="_top" xlink:title="Interface definition for the CC2420 driver.">
<polygon fill="white" stroke="#666666" points="1234.25,-166.12 1099.75,-166.12 1099.75,-145.38 1234.25,-145.38 1234.25,-166.12"/>
<text text-anchor="middle" x="1167" y="-152.62" font-family="Helvetica,sans-Serif" font-size="10.00">drivers/include/cc2420.h</text>
</a>
</g>
</g>
<!-- Node2&#45;&gt;Node13 -->
<g id="edge13_Node000002_Node000013" class="edge">
<title>Node2&#45;&gt;Node13</title>
<g id="a_edge13_Node000002_Node000013"><a xlink:title=" ">
<path fill="none" stroke="#63b8ff" d="M1247.93,-208.29C1226.08,-194.38 1199.07,-177.17 1182.44,-166.58"/>
<polygon fill="#63b8ff" stroke="#63b8ff" points="1245.95,-211.18 1256.27,-213.6 1249.71,-205.28 1245.95,-211.18"/>
</a>
</g>
</g>
<!-- Node16 -->
<g id="Node000016" class="node">
<title>Node16</title>
<g id="a_Node000016"><a xlink:href="kw2xrf_8h.html" target="_top" xlink:title="Interface definition for the kw2xrf driver.">
<polygon fill="white" stroke="#666666" points="1466.5,-166.12 1333.5,-166.12 1333.5,-145.38 1466.5,-145.38 1466.5,-166.12"/>
<text text-anchor="middle" x="1400" y="-152.62" font-family="Helvetica,sans-Serif" font-size="10.00">drivers/include/kw2xrf.h</text>
</a>
</g>
</g>
<!-- Node2&#45;&gt;Node16 -->
<g id="edge16_Node000002_Node000016" class="edge">
<title>Node2&#45;&gt;Node16</title>
<g id="a_edge16_Node000002_Node000016"><a xlink:title=" ">
<path fill="none" stroke="#63b8ff" d="M1318.38,-208.29C1340.41,-194.38 1367.66,-177.17 1384.43,-166.58"/>
<polygon fill="#63b8ff" stroke="#63b8ff" points="1316.54,-205.31 1309.96,-213.6 1320.28,-211.23 1316.54,-205.31"/>
</a>
</g>
</g>
<!-- Node21 -->
<g id="Node000021" class="node">
<title>Node21</title>
<g id="a_Node000021"><a xlink:href="kw41zrf_8h.html" target="_top" xlink:title="Interface definition for the kw41zrf driver.">
<polygon fill="white" stroke="#666666" points="1847.12,-166.12 1708.88,-166.12 1708.88,-145.38 1847.12,-145.38 1847.12,-166.12"/>
<text text-anchor="middle" x="1778" y="-152.62" font-family="Helvetica,sans-Serif" font-size="10.00">drivers/include/kw41zrf.h</text>
</a>
</g>
</g>
<!-- Node2&#45;&gt;Node21 -->
<g id="edge22_Node000002_Node000021" class="edge">
<title>Node2&#45;&gt;Node21</title>
<g id="a_edge22_Node000002_Node000021"><a xlink:title=" ">
<path fill="none" stroke="#63b8ff" d="M1340.89,-211.42C1344.96,-210.35 1349.03,-209.36 1353,-208.5 1476.67,-181.67 1623.82,-167.64 1708.52,-161.25"/>
<polygon fill="#63b8ff" stroke="#63b8ff" points="1340.27,-207.96 1331.58,-214.02 1342.16,-214.7 1340.27,-207.96"/>
</a>
</g>
</g>
<!-- Node24 -->
<g id="Node000024" class="node">
<title>Node24</title>
<g id="a_Node000024"><a xlink:href="mrf24j40_8h.html" target="_top" xlink:title="Interface definition for MRF24J40 based drivers .">
<polygon fill="white" stroke="#666666" points="2024.12,-166.12 1879.88,-166.12 1879.88,-145.38 2024.12,-145.38 2024.12,-166.12"/>
<text text-anchor="middle" x="1952" y="-152.62" font-family="Helvetica,sans-Serif" font-size="10.00">drivers/include/mrf24j40.h</text>
</a>
</g>
</g>
<!-- Node2&#45;&gt;Node24 -->
<g id="edge26_Node000002_Node000024" class="edge">
<title>Node2&#45;&gt;Node24</title>
<g id="a_edge26_Node000002_Node000024"><a xlink:title=" ">
<path fill="none" stroke="#63b8ff" d="M1339.85,-211.45C1344.27,-210.33 1348.69,-209.32 1353,-208.5 1573.15,-166.44 1633.41,-198.67 1856,-172.5 1869.42,-170.92 1883.83,-168.79 1897.29,-166.61"/>
<polygon fill="#63b8ff" stroke="#63b8ff" points="1339.11,-208.02 1330.38,-214.03 1340.95,-214.77 1339.11,-208.02"/>
</a>
</g>
</g>
<!-- Node27 -->
<g id="Node000027" class="node">
<title>Node27</title>
<g id="a_Node000027"><a xlink:href="netdev__test_8h.html" target="_top" xlink:title="netdev dummy test driver definitions">
<polygon fill="white" stroke="#666666" points="2168.12,-172.5 2041.88,-172.5 2041.88,-139 2168.12,-139 2168.12,-172.5"/>
<text text-anchor="start" x="2049.88" y="-159" font-family="Helvetica,sans-Serif" font-size="10.00">sys/include/net/netdev</text>
<text text-anchor="middle" x="2105" y="-146.25" font-family="Helvetica,sans-Serif" font-size="10.00">_test.h</text>
</a>
</g>
</g>
<!-- Node2&#45;&gt;Node27 -->
<g id="edge29_Node000002_Node000027" class="edge">
<title>Node2&#45;&gt;Node27</title>
<g id="a_edge29_Node000002_Node000027"><a xlink:title=" ">
<path fill="none" stroke="#63b8ff" d="M1339.62,-211.41C1344.11,-210.29 1348.61,-209.3 1353,-208.5 1650.78,-154.46 1733.07,-212.97 2033,-172.5 2035.79,-172.12 2038.63,-171.7 2041.5,-171.23"/>
<polygon fill="#63b8ff" stroke="#63b8ff" points="1338.72,-208.03 1329.98,-214.02 1340.55,-214.78 1338.72,-208.03"/>
</a>
</g>
</g>
<!-- Node4 -->
<g id="Node000004" class="node">
<title>Node4</title>
<g id="a_Node000004"><a xlink:href="socket__zep__params_8h.html" target="_top" xlink:title="Configuration parameters for the Socket&#45;based ZEP driver.">
<polygon fill="white" stroke="#666666" points="124,-103 0,-103 0,-69.5 124,-69.5 124,-103"/>
<text text-anchor="start" x="8" y="-89.5" font-family="Helvetica,sans-Serif" font-size="10.00">cpu/native/include</text>
<text text-anchor="middle" x="62" y="-76.75" font-family="Helvetica,sans-Serif" font-size="10.00">/socket_zep_params.h</text>
</a>
</g>
</g>
<!-- Node3&#45;&gt;Node4 -->
<g id="edge3_Node000003_Node000004" class="edge">
<title>Node3&#45;&gt;Node4</title>
<g id="a_edge3_Node000003_Node000004"><a xlink:title=" ">
<path fill="none" stroke="#63b8ff" d="M115.24,-131.61C104.07,-122.31 91.48,-111.81 81.34,-103.37"/>
<polygon fill="#63b8ff" stroke="#63b8ff" points="112.72,-134.07 122.64,-137.78 117.2,-128.69 112.72,-134.07"/>
</a>
</g>
</g>
<!-- Node6 -->
<g id="Node000006" class="node">
<title>Node6</title>
<g id="a_Node000006"><a xlink:href="at86rf215__internal_8h.html" target="_top" xlink:title="Low&#45;Level functions for the AT86RF215 driver.">
<polygon fill="white" stroke="#666666" points="280.12,-103 141.88,-103 141.88,-69.5 280.12,-69.5 280.12,-103"/>
<text text-anchor="start" x="149.88" y="-89.5" font-family="Helvetica,sans-Serif" font-size="10.00">drivers/at86rf215/include</text>
<text text-anchor="middle" x="211" y="-76.75" font-family="Helvetica,sans-Serif" font-size="10.00">/at86rf215_internal.h</text>
</a>
</g>
</g>
<!-- Node5&#45;&gt;Node6 -->
<g id="edge5_Node000005_Node000006" class="edge">
<title>Node5&#45;&gt;Node6</title>
<g id="a_edge5_Node000005_Node000006"><a xlink:title=" ">
<path fill="none" stroke="#63b8ff" d="M333.88,-140.42C308.87,-129.6 274.53,-114.74 248.5,-103.48"/>
<polygon fill="#63b8ff" stroke="#63b8ff" points="332.36,-143.57 342.93,-144.33 335.14,-137.15 332.36,-143.57"/>
</a>
</g>
</g>
<!-- Node7 -->
<g id="Node000007" class="node">
<title>Node7</title>
<g id="a_Node000007"><a xlink:href="at86rf215__params_8h.html" target="_top" xlink:title="Default configuration for the AT86RF215 driver.">
<polygon fill="white" stroke="#666666" points="436.12,-103 297.88,-103 297.88,-69.5 436.12,-69.5 436.12,-103"/>
<text text-anchor="start" x="305.88" y="-89.5" font-family="Helvetica,sans-Serif" font-size="10.00">drivers/at86rf215/include</text>
<text text-anchor="middle" x="367" y="-76.75" font-family="Helvetica,sans-Serif" font-size="10.00">/at86rf215_params.h</text>
</a>
</g>
</g>
<!-- Node5&#45;&gt;Node7 -->
<g id="edge6_Node000005_Node000007" class="edge">
<title>Node5&#45;&gt;Node7</title>
<g id="a_edge6_Node000005_Node000007"><a xlink:title=" ">
<path fill="none" stroke="#63b8ff" d="M367,-133.88C367,-124.07 367,-112.55 367,-103.42"/>
<polygon fill="#63b8ff" stroke="#63b8ff" points="363.5,-133.57 367,-143.57 370.5,-133.57 363.5,-133.57"/>
</a>
</g>
</g>
<!-- Node9 -->
<g id="Node000009" class="node">
<title>Node9</title>
<g id="a_Node000009"><a xlink:href="at86rf2xx__aes_8h.html" target="_top" xlink:title="The extended feature set of at86rf2xx transceivers comprises a hardware implementation of AES.">
<polygon fill="white" stroke="#666666" points="592.12,-103 453.88,-103 453.88,-69.5 592.12,-69.5 592.12,-103"/>
<text text-anchor="start" x="461.88" y="-89.5" font-family="Helvetica,sans-Serif" font-size="10.00">drivers/at86rf2xx/include</text>
<text text-anchor="middle" x="523" y="-76.75" font-family="Helvetica,sans-Serif" font-size="10.00">/at86rf2xx_aes.h</text>
</a>
</g>
</g>
<!-- Node8&#45;&gt;Node9 -->
<g id="edge8_Node000008_Node000009" class="edge">
<title>Node8&#45;&gt;Node9</title>
<g id="a_edge8_Node000008_Node000009"><a xlink:title=" ">
<path fill="none" stroke="#63b8ff" d="M678.3,-141.29C647.02,-130.4 602.87,-115.04 569.64,-103.48"/>
<polygon fill="#63b8ff" stroke="#63b8ff" points="676.77,-144.46 687.36,-144.44 679.07,-137.85 676.77,-144.46"/>
</a>
</g>
</g>
<!-- Node10 -->
<g id="Node000010" class="node">
<title>Node10</title>
<g id="a_Node000010"><a xlink:href="at86rf2xx__internal_8h.html" target="_top" xlink:title="Internal interfaces for AT86RF2xx drivers.">
<polygon fill="white" stroke="#666666" points="816.12,-33.5 677.88,-33.5 677.88,0 816.12,0 816.12,-33.5"/>
<text text-anchor="start" x="685.88" y="-20" font-family="Helvetica,sans-Serif" font-size="10.00">drivers/at86rf2xx/include</text>
<text text-anchor="middle" x="747" y="-7.25" font-family="Helvetica,sans-Serif" font-size="10.00">/at86rf2xx_internal.h</text>
</a>
</g>
</g>
<!-- Node8&#45;&gt;Node10 -->
<g id="edge9_Node000008_Node000010" class="edge">
<title>Node8&#45;&gt;Node10</title>
<g id="a_edge9_Node000008_Node000010"><a xlink:title=" ">
<path fill="none" stroke="#63b8ff" d="M680.39,-140.08C664.67,-131.72 647.89,-119.56 639,-103 631.96,-89.88 631.07,-82.1 639,-69.5 649.36,-53.05 666.56,-41.71 684.22,-33.95"/>
<polygon fill="#63b8ff" stroke="#63b8ff" points="678.6,-143.1 689.12,-144.36 681.68,-136.81 678.6,-143.1"/>
</a>
</g>
</g>
<!-- Node11 -->
<g id="Node000011" class="node">
<title>Node11</title>
<g id="a_Node000011"><a xlink:href="at86rf2xx__params_8h.html" target="_top" xlink:title="Default configuration for the AT86RF2xx driver.">
<polygon fill="white" stroke="#666666" points="786.12,-103 647.88,-103 647.88,-69.5 786.12,-69.5 786.12,-103"/>
<text text-anchor="start" x="655.88" y="-89.5" font-family="Helvetica,sans-Serif" font-size="10.00">drivers/at86rf2xx/include</text>
<text text-anchor="middle" x="717" y="-76.75" font-family="Helvetica,sans-Serif" font-size="10.00">/at86rf2xx_params.h</text>
</a>
</g>
</g>
<!-- Node8&#45;&gt;Node11 -->
<g id="edge10_Node000008_Node000011" class="edge">
<title>Node8&#45;&gt;Node11</title>
<g id="a_edge10_Node000008_Node000011"><a xlink:title=" ">
<path fill="none" stroke="#63b8ff" d="M717,-133.88C717,-124.07 717,-112.55 717,-103.42"/>
<polygon fill="#63b8ff" stroke="#63b8ff" points="713.5,-133.57 717,-143.57 720.5,-133.57 713.5,-133.57"/>
</a>
</g>
</g>
<!-- Node12 -->
<g id="Node000012" class="node">
<title>Node12</title>
<g id="a_Node000012"><a xlink:href="at86rf2xx__registers_8h.html" target="_top" xlink:title="Register and command definitions for AT86RF2xx devices.">
<polygon fill="white" stroke="#666666" points="942.12,-103 803.88,-103 803.88,-69.5 942.12,-69.5 942.12,-103"/>
<text text-anchor="start" x="811.88" y="-89.5" font-family="Helvetica,sans-Serif" font-size="10.00">drivers/at86rf2xx/include</text>
<text text-anchor="middle" x="873" y="-76.75" font-family="Helvetica,sans-Serif" font-size="10.00">/at86rf2xx_registers.h</text>
</a>
</g>
</g>
<!-- Node8&#45;&gt;Node12 -->
<g id="edge11_Node000008_Node000012" class="edge">
<title>Node8&#45;&gt;Node12</title>
<g id="a_edge11_Node000008_Node000012"><a xlink:title=" ">
<path fill="none" stroke="#63b8ff" d="M750.12,-140.42C775.13,-129.6 809.47,-114.74 835.5,-103.48"/>
<polygon fill="#63b8ff" stroke="#63b8ff" points="748.86,-137.15 741.07,-144.33 751.64,-143.57 748.86,-137.15"/>
</a>
</g>
</g>
<!-- Node12&#45;&gt;Node10 -->
<g id="edge12_Node000012_Node000010" class="edge">
<title>Node12&#45;&gt;Node10</title>
<g id="a_edge12_Node000012_Node000010"><a xlink:title=" ">
<path fill="none" stroke="#63b8ff" d="M832.82,-63.72C814.69,-54.01 793.65,-42.74 776.93,-33.79"/>
<polygon fill="#63b8ff" stroke="#63b8ff" points="831.02,-66.73 841.49,-68.37 834.32,-60.56 831.02,-66.73"/>
</a>
</g>
</g>
<!-- Node14 -->
<g id="Node000014" class="node">
<title>Node14</title>
<g id="a_Node000014"><a xlink:href="cc2420__internal_8h.html" target="_top" xlink:title="Definitions and settings for the cc2420.">
<polygon fill="white" stroke="#666666" points="1085.75,-103 960.25,-103 960.25,-69.5 1085.75,-69.5 1085.75,-103"/>
<text text-anchor="start" x="968.25" y="-89.5" font-family="Helvetica,sans-Serif" font-size="10.00">drivers/cc2420/include</text>
<text text-anchor="middle" x="1023" y="-76.75" font-family="Helvetica,sans-Serif" font-size="10.00">/cc2420_internal.h</text>
</a>
</g>
</g>
<!-- Node13&#45;&gt;Node14 -->
<g id="edge14_Node000013_Node000014" class="edge">
<title>Node13&#45;&gt;Node14</title>
<g id="a_edge14_Node000013_Node000014"><a xlink:title=" ">
<path fill="none" stroke="#63b8ff" d="M1135.81,-140.13C1112.77,-129.33 1081.43,-114.64 1057.62,-103.48"/>
<polygon fill="#63b8ff" stroke="#63b8ff" points="1134.15,-143.22 1144.69,-144.29 1137.12,-136.88 1134.15,-143.22"/>
</a>
</g>
</g>
<!-- Node15 -->
<g id="Node000015" class="node">
<title>Node15</title>
<g id="a_Node000015"><a xlink:href="cc2420__params_8h.html" target="_top" xlink:title="Default configuration for the CC2420 driver.">
<polygon fill="white" stroke="#666666" points="1229.75,-103 1104.25,-103 1104.25,-69.5 1229.75,-69.5 1229.75,-103"/>
<text text-anchor="start" x="1112.25" y="-89.5" font-family="Helvetica,sans-Serif" font-size="10.00">drivers/cc2420/include</text>
<text text-anchor="middle" x="1167" y="-76.75" font-family="Helvetica,sans-Serif" font-size="10.00">/cc2420_params.h</text>
</a>
</g>
</g>
<!-- Node13&#45;&gt;Node15 -->
<g id="edge15_Node000013_Node000015" class="edge">
<title>Node13&#45;&gt;Node15</title>
<g id="a_edge15_Node000013_Node000015"><a xlink:title=" ">
<path fill="none" stroke="#63b8ff" d="M1167,-133.88C1167,-124.07 1167,-112.55 1167,-103.42"/>
<polygon fill="#63b8ff" stroke="#63b8ff" points="1163.5,-133.57 1167,-143.57 1170.5,-133.57 1163.5,-133.57"/>
</a>
</g>
</g>
<!-- Node17 -->
<g id="Node000017" class="node">
<title>Node17</title>
<g id="a_Node000017"><a xlink:href="kw2xrf__getset_8h.html" target="_top" xlink:title="get/set interfaces for kw2xrf driver">
<polygon fill="white" stroke="#666666" points="1372.38,-103 1247.62,-103 1247.62,-69.5 1372.38,-69.5 1372.38,-103"/>
<text text-anchor="start" x="1255.62" y="-89.5" font-family="Helvetica,sans-Serif" font-size="10.00">drivers/kw2xrf/include</text>
<text text-anchor="middle" x="1310" y="-76.75" font-family="Helvetica,sans-Serif" font-size="10.00">/kw2xrf_getset.h</text>
</a>
</g>
</g>
<!-- Node16&#45;&gt;Node17 -->
<g id="edge17_Node000016_Node000017" class="edge">
<title>Node16&#45;&gt;Node17</title>
<g id="a_edge17_Node000016_Node000017"><a xlink:title=" ">
<path fill="none" stroke="#63b8ff" d="M1378.08,-138.31C1363.94,-127.71 1345.63,-113.97 1331.56,-103.42"/>
<polygon fill="#63b8ff" stroke="#63b8ff" points="1375.79,-140.97 1385.89,-144.17 1379.99,-135.37 1375.79,-140.97"/>
</a>
</g>
</g>
<!-- Node18 -->
<g id="Node000018" class="node">
<title>Node18</title>
<g id="a_Node000018"><a xlink:href="kw2xrf__tm_8h.html" target="_top" xlink:title="Testing interfaces for kw2xrf driver.">
<polygon fill="white" stroke="#666666" points="1417.38,-33.5 1292.62,-33.5 1292.62,0 1417.38,0 1417.38,-33.5"/>
<text text-anchor="start" x="1300.62" y="-20" font-family="Helvetica,sans-Serif" font-size="10.00">drivers/kw2xrf/include</text>
<text text-anchor="middle" x="1355" y="-7.25" font-family="Helvetica,sans-Serif" font-size="10.00">/kw2xrf_tm.h</text>
</a>
</g>
</g>
<!-- Node16&#45;&gt;Node18 -->
<g id="edge21_Node000016_Node000018" class="edge">
<title>Node16&#45;&gt;Node18</title>
<g id="a_edge21_Node000016_Node000018"><a xlink:title=" ">
<path fill="none" stroke="#63b8ff" d="M1396.83,-133.91C1393.83,-116.4 1388.62,-90.88 1381,-69.5 1376.54,-57 1369.77,-43.63 1364.25,-33.61"/>
<polygon fill="#63b8ff" stroke="#63b8ff" points="1393.35,-134.27 1398.4,-143.58 1400.26,-133.15 1393.35,-134.27"/>
</a>
</g>
</g>
<!-- Node19 -->
<g id="Node000019" class="node">
<title>Node19</title>
<g id="a_Node000019"><a xlink:href="kw2xrf__intern_8h.html" target="_top" xlink:title="Internal function interfaces for kw2xrf driver.">
<polygon fill="white" stroke="#666666" points="1552.38,-103 1427.62,-103 1427.62,-69.5 1552.38,-69.5 1552.38,-103"/>
<text text-anchor="start" x="1435.62" y="-89.5" font-family="Helvetica,sans-Serif" font-size="10.00">drivers/kw2xrf/include</text>
<text text-anchor="middle" x="1490" y="-76.75" font-family="Helvetica,sans-Serif" font-size="10.00">/kw2xrf_intern.h</text>
</a>
</g>
</g>
<!-- Node16&#45;&gt;Node19 -->
<g id="edge19_Node000016_Node000019" class="edge">
<title>Node16&#45;&gt;Node19</title>
<g id="a_edge19_Node000016_Node000019"><a xlink:title=" ">
<path fill="none" stroke="#63b8ff" d="M1421.92,-138.31C1436.06,-127.71 1454.37,-113.97 1468.44,-103.42"/>
<polygon fill="#63b8ff" stroke="#63b8ff" points="1420.01,-135.37 1414.11,-144.17 1424.21,-140.97 1420.01,-135.37"/>
</a>
</g>
</g>
<!-- Node20 -->
<g id="Node000020" class="node">
<title>Node20</title>
<g id="a_Node000020"><a xlink:href="kw2xrf__params_8h.html" target="_top" xlink:title="Default configuration for the KW2XRF driver.">
<polygon fill="white" stroke="#666666" points="1695.38,-103 1570.62,-103 1570.62,-69.5 1695.38,-69.5 1695.38,-103"/>
<text text-anchor="start" x="1578.62" y="-89.5" font-family="Helvetica,sans-Serif" font-size="10.00">drivers/kw2xrf/include</text>
<text text-anchor="middle" x="1633" y="-76.75" font-family="Helvetica,sans-Serif" font-size="10.00">/kw2xrf_params.h</text>
</a>
</g>
</g>
<!-- Node16&#45;&gt;Node20 -->
<g id="edge20_Node000016_Node000020" class="edge">
<title>Node16&#45;&gt;Node20</title>
<g id="a_edge20_Node000016_Node000020"><a xlink:title=" ">
<path fill="none" stroke="#63b8ff" d="M1444.52,-141.85C1482.19,-130.94 1536.37,-115.24 1576.98,-103.48"/>
<polygon fill="#63b8ff" stroke="#63b8ff" points="1443.97,-138.37 1435.33,-144.51 1445.91,-145.09 1443.97,-138.37"/>
</a>
</g>
</g>
<!-- Node17&#45;&gt;Node18 -->
<g id="edge18_Node000017_Node000018" class="edge">
<title>Node17&#45;&gt;Node18</title>
<g id="a_edge18_Node000017_Node000018"><a xlink:title=" ">
<path fill="none" stroke="#63b8ff" d="M1326.96,-59.81C1332.82,-51.02 1339.21,-41.43 1344.41,-33.63"/>
<polygon fill="#63b8ff" stroke="#63b8ff" points="1324.14,-57.73 1321.5,-67.99 1329.96,-61.62 1324.14,-57.73"/>
</a>
</g>
</g>
<!-- Node22 -->
<g id="Node000022" class="node">
<title>Node22</title>
<g id="a_Node000022"><a xlink:href="kw41zrf__getset_8h.html" target="_top" xlink:title="get/set interfaces for kw41zrf driver">
<polygon fill="white" stroke="#666666" points="1843,-103 1713,-103 1713,-69.5 1843,-69.5 1843,-103"/>
<text text-anchor="start" x="1721" y="-89.5" font-family="Helvetica,sans-Serif" font-size="10.00">drivers/kw41zrf/include</text>
<text text-anchor="middle" x="1778" y="-76.75" font-family="Helvetica,sans-Serif" font-size="10.00">/kw41zrf_getset.h</text>
</a>
</g>
</g>
<!-- Node21&#45;&gt;Node22 -->
<g id="edge23_Node000021_Node000022" class="edge">
<title>Node21&#45;&gt;Node22</title>
<g id="a_edge23_Node000021_Node000022"><a xlink:title=" ">
<path fill="none" stroke="#63b8ff" d="M1778,-133.88C1778,-124.07 1778,-112.55 1778,-103.42"/>
<polygon fill="#63b8ff" stroke="#63b8ff" points="1774.5,-133.57 1778,-143.57 1781.5,-133.57 1774.5,-133.57"/>
</a>
</g>
</g>
<!-- Node23 -->
<g id="Node000023" class="node">
<title>Node23</title>
<g id="a_Node000023"><a xlink:href="kw41zrf__intern_8h.html" target="_top" xlink:title="Internal function interfaces for kw41zrf driver.">
<polygon fill="white" stroke="#666666" points="1889,-33.5 1759,-33.5 1759,0 1889,0 1889,-33.5"/>
<text text-anchor="start" x="1767" y="-20" font-family="Helvetica,sans-Serif" font-size="10.00">drivers/kw41zrf/include</text>
<text text-anchor="middle" x="1824" y="-7.25" font-family="Helvetica,sans-Serif" font-size="10.00">/kw41zrf_intern.h</text>
</a>
</g>
</g>
<!-- Node21&#45;&gt;Node23 -->
<g id="edge25_Node000021_Node000023" class="edge">
<title>Node21&#45;&gt;Node23</title>
<g id="a_edge25_Node000021_Node000023"><a xlink:title=" ">
<path fill="none" stroke="#63b8ff" d="M1812.58,-139.76C1827.56,-131.3 1843.58,-119.15 1852,-103 1863.88,-80.2 1848.81,-51.38 1836.6,-33.77"/>
<polygon fill="#63b8ff" stroke="#63b8ff" points="1811.06,-136.6 1803.81,-144.32 1814.3,-142.81 1811.06,-136.6"/>
</a>
</g>
</g>
<!-- Node22&#45;&gt;Node23 -->
<g id="edge24_Node000022_Node000023" class="edge">
<title>Node22&#45;&gt;Node23</title>
<g id="a_edge24_Node000022_Node000023"><a xlink:title=" ">
<path fill="none" stroke="#63b8ff" d="M1795.34,-59.81C1801.33,-51.02 1807.86,-41.43 1813.18,-33.63"/>
<polygon fill="#63b8ff" stroke="#63b8ff" points="1792.49,-57.77 1789.75,-68 1798.28,-61.71 1792.49,-57.77"/>
</a>
</g>
</g>
<!-- Node25 -->
<g id="Node000025" class="node">
<title>Node25</title>
<g id="a_Node000025"><a xlink:href="mrf24j40__internal_8h.html" target="_top" xlink:title="Internal interfaces for MRF24J40 drivers.">
<polygon fill="white" stroke="#666666" points="2034.62,-103 1899.38,-103 1899.38,-69.5 2034.62,-69.5 2034.62,-103"/>
<text text-anchor="start" x="1907.38" y="-89.5" font-family="Helvetica,sans-Serif" font-size="10.00">drivers/mrf24j40/include</text>
<text text-anchor="middle" x="1967" y="-76.75" font-family="Helvetica,sans-Serif" font-size="10.00">/mrf24j40_internal.h</text>
</a>
</g>
</g>
<!-- Node24&#45;&gt;Node25 -->
<g id="edge27_Node000024_Node000025" class="edge">
<title>Node24&#45;&gt;Node25</title>
<g id="a_edge27_Node000024_Node000025"><a xlink:title=" ">
<path fill="none" stroke="#63b8ff" d="M1956.64,-133.88C1958.82,-124.07 1961.38,-112.55 1963.41,-103.42"/>
<polygon fill="#63b8ff" stroke="#63b8ff" points="1953.23,-133.08 1954.48,-143.6 1960.06,-134.6 1953.23,-133.08"/>
</a>
</g>
</g>
<!-- Node26 -->
<g id="Node000026" class="node">
<title>Node26</title>
<g id="a_Node000026"><a xlink:href="mrf24j40__params_8h.html" target="_top" xlink:title="Default configuration for the MRF24J40 driver.">
<polygon fill="white" stroke="#666666" points="2187.62,-103 2052.38,-103 2052.38,-69.5 2187.62,-69.5 2187.62,-103"/>
<text text-anchor="start" x="2060.38" y="-89.5" font-family="Helvetica,sans-Serif" font-size="10.00">drivers/mrf24j40/include</text>
<text text-anchor="middle" x="2120" y="-76.75" font-family="Helvetica,sans-Serif" font-size="10.00">/mrf24j40_params.h</text>
</a>
</g>
</g>
<!-- Node24&#45;&gt;Node26 -->
<g id="edge28_Node000024_Node000026" class="edge">
<title>Node24&#45;&gt;Node26</title>
<g id="a_edge28_Node000024_Node000026"><a xlink:title=" ">
<path fill="none" stroke="#63b8ff" d="M1986.94,-140.71C2013.94,-129.87 2051.33,-114.84 2079.61,-103.48"/>
<polygon fill="#63b8ff" stroke="#63b8ff" points="1985.81,-137.39 1977.83,-144.37 1988.42,-143.89 1985.81,-137.39"/>
</a>
</g>
</g>
</g>
</svg>
