<?xml version="1.0" encoding="UTF-8" standalone="no"?>
<!DOCTYPE svg PUBLIC "-//W3C//DTD SVG 1.1//EN"
 "http://www.w3.org/Graphics/SVG/1.1/DTD/svg11.dtd">
<!-- Generated by graphviz version 12.1.2 (0)
 -->
<!-- Title: sys/include/evtimer.h Pages: 1 -->
<svg width="1620pt" height="427pt"
 viewBox="0.00 0.00 1619.50 427.25" xmlns="http://www.w3.org/2000/svg" xmlns:xlink="http://www.w3.org/1999/xlink">
<g id="graph0" class="graph" transform="scale(1 1) rotate(0) translate(4 423.25)">
<title>sys/include/evtimer.h</title>
<!-- Node1 -->
<g id="Node000001" class="node">
<title>Node1</title>
<g id="a_Node000001"><a xlink:title="evtimer API definitions">
<polygon fill="#999999" stroke="#666666" points="904.62,-419.25 783.62,-419.25 783.62,-398.5 904.62,-398.5 904.62,-419.25"/>
<text text-anchor="middle" x="844.12" y="-405.75" font-family="Helvetica,sans-Serif" font-size="10.00">sys/include/evtimer.h</text>
</a>
</g>
</g>
<!-- Node2 -->
<g id="Node000002" class="node">
<title>Node2</title>
<g id="a_Node000002"><a xlink:href="evtimer__mbox_8h.html" target="_top" xlink:title="Message box based evtimer event.">
<polygon fill="white" stroke="#666666" points="655.12,-356.12 543.12,-356.12 543.12,-322.62 655.12,-322.62 655.12,-356.12"/>
<text text-anchor="start" x="551.12" y="-342.62" font-family="Helvetica,sans-Serif" font-size="10.00">sys/include/evtimer</text>
<text text-anchor="middle" x="599.12" y="-329.88" font-family="Helvetica,sans-Serif" font-size="10.00">_mbox.h</text>
</a>
</g>
</g>
<!-- Node1&#45;&gt;Node2 -->
<g id="edge1_Node000001_Node000002" class="edge">
<title>Node1&#45;&gt;Node2</title>
<g id="a_edge1_Node000001_Node000002"><a xlink:title=" ">
<path fill="none" stroke="#63b8ff" d="M797.59,-395.05C757.09,-383.9 698.29,-367.7 655.2,-355.83"/>
<polygon fill="#63b8ff" stroke="#63b8ff" points="796.47,-398.38 807.04,-397.66 798.33,-391.63 796.47,-398.38"/>
</a>
</g>
</g>
<!-- Node5 -->
<g id="Node000005" class="node">
<title>Node5</title>
<g id="a_Node000005"><a xlink:href="gnrc__tcp__common_8h.html" target="_top" xlink:title="Internally used defines, macros and variable declarations.">
<polygon fill="white" stroke="#666666" points="126.25,-198 0,-198 0,-151.75 126.25,-151.75 126.25,-198"/>
<text text-anchor="start" x="8" y="-184.5" font-family="Helvetica,sans-Serif" font-size="10.00">sys/net/gnrc/transport</text>
<text text-anchor="start" x="8" y="-171.75" font-family="Helvetica,sans-Serif" font-size="10.00">_layer/tcp/include/gnrc</text>
<text text-anchor="middle" x="63.12" y="-159" font-family="Helvetica,sans-Serif" font-size="10.00">_tcp_common.h</text>
</a>
</g>
</g>
<!-- Node1&#45;&gt;Node5 -->
<g id="edge36_Node000001_Node000005" class="edge">
<title>Node1&#45;&gt;Node5</title>
<g id="a_edge36_Node000001_Node000005"><a xlink:title=" ">
<path fill="none" stroke="#63b8ff" d="M772.19,-402.11C708.74,-395.91 614.18,-383.91 534.12,-362.5 373.11,-319.44 192.39,-237.87 109.36,-198.4"/>
<polygon fill="#63b8ff" stroke="#63b8ff" points="771.48,-405.56 781.77,-403.02 772.15,-398.59 771.48,-405.56"/>
</a>
</g>
</g>
<!-- Node10 -->
<g id="Node000010" class="node">
<title>Node10</title>
<g id="a_Node000010"><a xlink:href="evtimer__msg_8h.html" target="_top" xlink:title="IPC&#45;based evtimer definitions.">
<polygon fill="white" stroke="#666666" points="858.12,-356.12 746.12,-356.12 746.12,-322.62 858.12,-322.62 858.12,-356.12"/>
<text text-anchor="start" x="754.12" y="-342.62" font-family="Helvetica,sans-Serif" font-size="10.00">sys/include/evtimer</text>
<text text-anchor="middle" x="802.12" y="-329.88" font-family="Helvetica,sans-Serif" font-size="10.00">_msg.h</text>
</a>
</g>
</g>
<!-- Node1&#45;&gt;Node10 -->
<g id="edge9_Node000001_Node000010" class="edge">
<title>Node1&#45;&gt;Node10</title>
<g id="a_edge9_Node000001_Node000010"><a xlink:title=" ">
<path fill="none" stroke="#63b8ff" d="M832.14,-388.62C825.83,-378.48 818.18,-366.18 812.19,-356.54"/>
<polygon fill="#63b8ff" stroke="#63b8ff" points="829.05,-390.28 837.31,-396.92 835,-386.58 829.05,-390.28"/>
</a>
</g>
</g>
<!-- Node13 -->
<g id="Node000013" class="node">
<title>Node13</title>
<g id="a_Node000013"><a xlink:href="structs_8h.html" target="_top" xlink:title="RPL data structs.">
<polygon fill="white" stroke="#666666" points="1222.88,-273.88 1109.38,-273.88 1109.38,-240.38 1222.88,-240.38 1222.88,-273.88"/>
<text text-anchor="start" x="1117.38" y="-260.38" font-family="Helvetica,sans-Serif" font-size="10.00">sys/include/net/gnrc</text>
<text text-anchor="middle" x="1166.12" y="-247.62" font-family="Helvetica,sans-Serif" font-size="10.00">/rpl/structs.h</text>
</a>
</g>
</g>
<!-- Node1&#45;&gt;Node13 -->
<g id="edge32_Node000001_Node000013" class="edge">
<title>Node1&#45;&gt;Node13</title>
<g id="a_edge32_Node000001_Node000013"><a xlink:title=" ">
<path fill="none" stroke="#63b8ff" d="M854.96,-388.28C868.68,-364.19 892.19,-325.37 906.12,-316.25 979.49,-268.21 1015.23,-302.24 1100.12,-280.25 1106.79,-278.52 1113.76,-276.47 1120.57,-274.32"/>
<polygon fill="#63b8ff" stroke="#63b8ff" points="852.01,-386.4 850.16,-396.83 858.11,-389.82 852.01,-386.4"/>
</a>
</g>
</g>
<!-- Node27 -->
<g id="Node000027" class="node">
<title>Node27</title>
<g id="a_Node000027"><a xlink:href="__nib-6ln_8h.html" target="_top" xlink:title="Definitions related to 6Lo node (6LN) functionality of the NIB.">
<polygon fill="white" stroke="#666666" points="1053.62,-356.12 914.62,-356.12 914.62,-322.62 1053.62,-322.62 1053.62,-356.12"/>
<text text-anchor="start" x="922.62" y="-342.62" font-family="Helvetica,sans-Serif" font-size="10.00">sys/net/gnrc/network</text>
<text text-anchor="middle" x="984.12" y="-329.88" font-family="Helvetica,sans-Serif" font-size="10.00">_layer/ipv6/nib/_nib&#45;6ln.h</text>
</a>
</g>
</g>
<!-- Node1&#45;&gt;Node27 -->
<g id="edge33_Node000001_Node000027" class="edge">
<title>Node1&#45;&gt;Node27</title>
<g id="a_edge33_Node000001_Node000027"><a xlink:title=" ">
<path fill="none" stroke="#63b8ff" d="M874.76,-393.11C897.12,-382.32 927.43,-367.71 950.47,-356.6"/>
<polygon fill="#63b8ff" stroke="#63b8ff" points="873.33,-389.91 865.85,-397.4 876.37,-396.21 873.33,-389.91"/>
</a>
</g>
</g>
<!-- Node29 -->
<g id="Node000029" class="node">
<title>Node29</title>
<g id="a_Node000029"><a xlink:href="globals_8h.html" target="_top" xlink:title="Internal globals for RPL.">
<polygon fill="white" stroke="#666666" points="1188.38,-362.5 1071.88,-362.5 1071.88,-316.25 1188.38,-316.25 1188.38,-362.5"/>
<text text-anchor="start" x="1079.88" y="-349" font-family="Helvetica,sans-Serif" font-size="10.00">sys/net/gnrc/routing</text>
<text text-anchor="start" x="1079.88" y="-336.25" font-family="Helvetica,sans-Serif" font-size="10.00">/rpl/gnrc_rpl_internal</text>
<text text-anchor="middle" x="1130.12" y="-323.5" font-family="Helvetica,sans-Serif" font-size="10.00">/globals.h</text>
</a>
</g>
</g>
<!-- Node1&#45;&gt;Node29 -->
<g id="edge35_Node000001_Node000029" class="edge">
<title>Node1&#45;&gt;Node29</title>
<g id="a_edge35_Node000001_Node000029"><a xlink:title=" ">
<path fill="none" stroke="#63b8ff" d="M911.67,-395.95C955.2,-387.76 1012.86,-375.96 1063.12,-362.5 1065.85,-361.77 1068.62,-360.99 1071.41,-360.19"/>
<polygon fill="#63b8ff" stroke="#63b8ff" points="911.03,-392.51 901.84,-397.79 912.31,-399.4 911.03,-392.51"/>
</a>
</g>
</g>
<!-- Node3 -->
<g id="Node000003" class="node">
<title>Node3</title>
<g id="a_Node000003"><a xlink:href="tcb_8h.html" target="_top" xlink:title="GNRC TCP transmission control block (TCB)">
<polygon fill="white" stroke="#666666" points="516.88,-273.88 403.38,-273.88 403.38,-240.38 516.88,-240.38 516.88,-273.88"/>
<text text-anchor="start" x="411.38" y="-260.38" font-family="Helvetica,sans-Serif" font-size="10.00">sys/include/net/gnrc</text>
<text text-anchor="middle" x="460.12" y="-247.62" font-family="Helvetica,sans-Serif" font-size="10.00">/tcp/tcb.h</text>
</a>
</g>
</g>
<!-- Node2&#45;&gt;Node3 -->
<g id="edge2_Node000002_Node000003" class="edge">
<title>Node2&#45;&gt;Node3</title>
<g id="a_edge2_Node000002_Node000003"><a xlink:title=" ">
<path fill="none" stroke="#63b8ff" d="M561.19,-316.48C538.14,-303.17 509.21,-286.46 488.21,-274.34"/>
<polygon fill="#63b8ff" stroke="#63b8ff" points="559.28,-319.41 569.69,-321.38 562.78,-313.35 559.28,-319.41"/>
</a>
</g>
</g>
<!-- Node4 -->
<g id="Node000004" class="node">
<title>Node4</title>
<g id="a_Node000004"><a xlink:href="gnrc_2tcp_8h.html" target="_top" xlink:title="GNRC TCP API.">
<polygon fill="white" stroke="#666666" points="401.88,-191.62 288.38,-191.62 288.38,-158.12 401.88,-158.12 401.88,-191.62"/>
<text text-anchor="start" x="296.38" y="-178.12" font-family="Helvetica,sans-Serif" font-size="10.00">sys/include/net/gnrc</text>
<text text-anchor="middle" x="345.12" y="-165.38" font-family="Helvetica,sans-Serif" font-size="10.00">/tcp.h</text>
</a>
</g>
</g>
<!-- Node3&#45;&gt;Node4 -->
<g id="edge3_Node000003_Node000004" class="edge">
<title>Node3&#45;&gt;Node4</title>
<g id="a_edge3_Node000003_Node000004"><a xlink:title=" ">
<path fill="none" stroke="#63b8ff" d="M427.45,-233.33C408.6,-220.17 385.34,-203.94 368.36,-192.09"/>
<polygon fill="#63b8ff" stroke="#63b8ff" points="425.41,-236.17 435.61,-239.02 429.41,-230.43 425.41,-236.17"/>
</a>
</g>
</g>
<!-- Node3&#45;&gt;Node5 -->
<g id="edge4_Node000003_Node000005" class="edge">
<title>Node3&#45;&gt;Node5</title>
<g id="a_edge4_Node000003_Node000005"><a xlink:title=" ">
<path fill="none" stroke="#63b8ff" d="M391.94,-246.39C325.83,-236.38 222.94,-219.26 135.12,-198 132.33,-197.32 129.48,-196.6 126.61,-195.84"/>
<polygon fill="#63b8ff" stroke="#63b8ff" points="391.13,-249.81 401.54,-247.83 392.17,-242.89 391.13,-249.81"/>
</a>
</g>
</g>
<!-- Node6 -->
<g id="Node000006" class="node">
<title>Node6</title>
<g id="a_Node000006"><a xlink:href="gnrc__tcp__fsm_8h.html" target="_top" xlink:title="TCP finite state maschine declarations.">
<polygon fill="white" stroke="#666666" points="546.25,-198 420,-198 420,-151.75 546.25,-151.75 546.25,-198"/>
<text text-anchor="start" x="428" y="-184.5" font-family="Helvetica,sans-Serif" font-size="10.00">sys/net/gnrc/transport</text>
<text text-anchor="start" x="428" y="-171.75" font-family="Helvetica,sans-Serif" font-size="10.00">_layer/tcp/include/gnrc</text>
<text text-anchor="middle" x="483.12" y="-159" font-family="Helvetica,sans-Serif" font-size="10.00">_tcp_fsm.h</text>
</a>
</g>
</g>
<!-- Node3&#45;&gt;Node6 -->
<g id="edge5_Node000003_Node000006" class="edge">
<title>Node3&#45;&gt;Node6</title>
<g id="a_edge5_Node000003_Node000006"><a xlink:title=" ">
<path fill="none" stroke="#63b8ff" d="M467.91,-228.96C470.75,-219.05 473.93,-207.95 476.65,-198.48"/>
<polygon fill="#63b8ff" stroke="#63b8ff" points="464.59,-227.85 465.2,-238.43 471.32,-229.78 464.59,-227.85"/>
</a>
</g>
</g>
<!-- Node7 -->
<g id="Node000007" class="node">
<title>Node7</title>
<g id="a_Node000007"><a xlink:href="gnrc__tcp__option_8h.html" target="_top" xlink:title="TCP option handling declarations.">
<polygon fill="white" stroke="#666666" points="690.25,-198 564,-198 564,-151.75 690.25,-151.75 690.25,-198"/>
<text text-anchor="start" x="572" y="-184.5" font-family="Helvetica,sans-Serif" font-size="10.00">sys/net/gnrc/transport</text>
<text text-anchor="start" x="572" y="-171.75" font-family="Helvetica,sans-Serif" font-size="10.00">_layer/tcp/include/gnrc</text>
<text text-anchor="middle" x="627.12" y="-159" font-family="Helvetica,sans-Serif" font-size="10.00">_tcp_option.h</text>
</a>
</g>
</g>
<!-- Node3&#45;&gt;Node7 -->
<g id="edge6_Node000003_Node000007" class="edge">
<title>Node3&#45;&gt;Node7</title>
<g id="a_edge6_Node000003_Node000007"><a xlink:title=" ">
<path fill="none" stroke="#63b8ff" d="M504.24,-234.92C527.61,-223.7 556.31,-209.91 580.09,-198.48"/>
<polygon fill="#63b8ff" stroke="#63b8ff" points="502.78,-231.74 495.28,-239.23 505.81,-238.05 502.78,-231.74"/>
</a>
</g>
</g>
<!-- Node8 -->
<g id="Node000008" class="node">
<title>Node8</title>
<g id="a_Node000008"><a xlink:href="gnrc__tcp__pkt_8h.html" target="_top" xlink:title="TCP packet handling declarations.">
<polygon fill="white" stroke="#666666" points="834.25,-198 708,-198 708,-151.75 834.25,-151.75 834.25,-198"/>
<text text-anchor="start" x="716" y="-184.5" font-family="Helvetica,sans-Serif" font-size="10.00">sys/net/gnrc/transport</text>
<text text-anchor="start" x="716" y="-171.75" font-family="Helvetica,sans-Serif" font-size="10.00">_layer/tcp/include/gnrc</text>
<text text-anchor="middle" x="771.12" y="-159" font-family="Helvetica,sans-Serif" font-size="10.00">_tcp_pkt.h</text>
</a>
</g>
</g>
<!-- Node3&#45;&gt;Node8 -->
<g id="edge7_Node000003_Node000008" class="edge">
<title>Node3&#45;&gt;Node8</title>
<g id="a_edge7_Node000003_Node000008"><a xlink:title=" ">
<path fill="none" stroke="#63b8ff" d="M516.79,-236.65C519.93,-235.72 523.06,-234.83 526.12,-234 601.93,-213.48 623.06,-217.56 699.12,-198 701.91,-197.28 704.75,-196.53 707.61,-195.74"/>
<polygon fill="#63b8ff" stroke="#63b8ff" points="516.05,-233.22 507.52,-239.51 518.1,-239.91 516.05,-233.22"/>
</a>
</g>
</g>
<!-- Node9 -->
<g id="Node000009" class="node">
<title>Node9</title>
<g id="a_Node000009"><a xlink:href="gnrc__tcp__rcvbuf_8h.html" target="_top" xlink:title="Functions for allocating and freeing the receive buffer.">
<polygon fill="white" stroke="#666666" points="270.25,-198 144,-198 144,-151.75 270.25,-151.75 270.25,-198"/>
<text text-anchor="start" x="152" y="-184.5" font-family="Helvetica,sans-Serif" font-size="10.00">sys/net/gnrc/transport</text>
<text text-anchor="start" x="152" y="-171.75" font-family="Helvetica,sans-Serif" font-size="10.00">_layer/tcp/include/gnrc</text>
<text text-anchor="middle" x="207.12" y="-159" font-family="Helvetica,sans-Serif" font-size="10.00">_tcp_rcvbuf.h</text>
</a>
</g>
</g>
<!-- Node3&#45;&gt;Node9 -->
<g id="edge8_Node000003_Node000009" class="edge">
<title>Node3&#45;&gt;Node9</title>
<g id="a_edge8_Node000003_Node000009"><a xlink:title=" ">
<path fill="none" stroke="#63b8ff" d="M398.28,-236.51C359.44,-224.19 309.47,-208.34 270.36,-195.93"/>
<polygon fill="#63b8ff" stroke="#63b8ff" points="396.89,-239.74 407.48,-239.43 399.01,-233.07 396.89,-239.74"/>
</a>
</g>
</g>
<!-- Node10&#45;&gt;Node3 -->
<g id="edge30_Node000010_Node000003" class="edge">
<title>Node10&#45;&gt;Node3</title>
<g id="a_edge30_Node000010_Node000003"><a xlink:title=" ">
<path fill="none" stroke="#63b8ff" d="M734.4,-326.38C678.2,-315.89 596.41,-299.36 526.12,-280.25 519.59,-278.47 512.76,-276.42 506.07,-274.29"/>
<polygon fill="#63b8ff" stroke="#63b8ff" points="733.68,-329.81 744.15,-328.19 734.95,-322.92 733.68,-329.81"/>
</a>
</g>
</g>
<!-- Node11 -->
<g id="Node000011" class="node">
<title>Node11</title>
<g id="a_Node000011"><a xlink:href="net_2gnrc_2mac_2timeout_8h.html" target="_top" xlink:title="Timeout APIs used by GNRC_MAC.">
<polygon fill="white" stroke="#666666" points="924.88,-273.88 811.38,-273.88 811.38,-240.38 924.88,-240.38 924.88,-273.88"/>
<text text-anchor="start" x="819.38" y="-260.38" font-family="Helvetica,sans-Serif" font-size="10.00">sys/include/net/gnrc</text>
<text text-anchor="middle" x="868.12" y="-247.62" font-family="Helvetica,sans-Serif" font-size="10.00">/mac/timeout.h</text>
</a>
</g>
</g>
<!-- Node10&#45;&gt;Node11 -->
<g id="edge10_Node000010_Node000011" class="edge">
<title>Node10&#45;&gt;Node11</title>
<g id="a_edge10_Node000010_Node000011"><a xlink:title=" ">
<path fill="none" stroke="#63b8ff" d="M822.68,-313.38C833.15,-300.65 845.58,-285.54 854.79,-274.34"/>
<polygon fill="#63b8ff" stroke="#63b8ff" points="820.09,-311.02 816.44,-320.97 825.5,-315.47 820.09,-311.02"/>
</a>
</g>
</g>
<!-- Node12 -->
<g id="Node000012" class="node">
<title>Node12</title>
<g id="a_Node000012"><a xlink:href="gnrc_2netif_2ipv6_8h.html" target="_top" xlink:title="IPv6 definitions for Network interface API.">
<polygon fill="white" stroke="#666666" points="792.88,-273.88 679.38,-273.88 679.38,-240.38 792.88,-240.38 792.88,-273.88"/>
<text text-anchor="start" x="687.38" y="-260.38" font-family="Helvetica,sans-Serif" font-size="10.00">sys/include/net/gnrc</text>
<text text-anchor="middle" x="736.12" y="-247.62" font-family="Helvetica,sans-Serif" font-size="10.00">/netif/ipv6.h</text>
</a>
</g>
</g>
<!-- Node10&#45;&gt;Node12 -->
<g id="edge11_Node000010_Node000012" class="edge">
<title>Node10&#45;&gt;Node12</title>
<g id="a_edge11_Node000010_Node000012"><a xlink:title=" ">
<path fill="none" stroke="#63b8ff" d="M781.57,-313.38C771.1,-300.65 758.67,-285.54 749.46,-274.34"/>
<polygon fill="#63b8ff" stroke="#63b8ff" points="778.75,-315.47 787.81,-320.97 784.16,-311.02 778.75,-315.47"/>
</a>
</g>
</g>
<!-- Node10&#45;&gt;Node13 -->
<g id="edge12_Node000010_Node000013" class="edge">
<title>Node10&#45;&gt;Node13</title>
<g id="a_edge12_Node000010_Node000013"><a xlink:title=" ">
<path fill="none" stroke="#63b8ff" d="M860.8,-319.13C864.62,-318.1 868.41,-317.12 872.12,-316.25 971.98,-292.73 1000.48,-304.64 1100.12,-280.25 1106.93,-278.58 1114.04,-276.54 1120.97,-274.37"/>
<polygon fill="#63b8ff" stroke="#63b8ff" points="860.18,-315.67 851.52,-321.77 862.09,-322.4 860.18,-315.67"/>
</a>
</g>
</g>
<!-- Node23 -->
<g id="Node000023" class="node">
<title>Node23</title>
<g id="a_Node000023"><a xlink:href="sfr__types_8h.html" target="_top" xlink:title="6LoWPAN selective fragment recovery type definitions for GNRC">
<polygon fill="white" stroke="#666666" points="1091.12,-273.88 943.12,-273.88 943.12,-240.38 1091.12,-240.38 1091.12,-273.88"/>
<text text-anchor="start" x="951.12" y="-260.38" font-family="Helvetica,sans-Serif" font-size="10.00">sys/include/net/gnrc</text>
<text text-anchor="middle" x="1017.12" y="-247.62" font-family="Helvetica,sans-Serif" font-size="10.00">/sixlowpan/frag/sfr_types.h</text>
</a>
</g>
</g>
<!-- Node10&#45;&gt;Node23 -->
<g id="edge26_Node000010_Node000023" class="edge">
<title>Node10&#45;&gt;Node23</title>
<g id="a_edge26_Node000010_Node000023"><a xlink:title=" ">
<path fill="none" stroke="#63b8ff" d="M856.06,-318.25C892.41,-304.68 939.75,-287.01 973.68,-274.34"/>
<polygon fill="#63b8ff" stroke="#63b8ff" points="855.2,-314.83 847.05,-321.61 857.64,-321.39 855.2,-314.83"/>
</a>
</g>
</g>
<!-- Node26 -->
<g id="Node000026" class="node">
<title>Node26</title>
<g id="a_Node000026"><a xlink:href="gnrc__tcp__eventloop_8h.html" target="_top" xlink:title="TCP event loop declarations.">
<polygon fill="white" stroke="#666666" points="661.25,-280.25 535,-280.25 535,-234 661.25,-234 661.25,-280.25"/>
<text text-anchor="start" x="543" y="-266.75" font-family="Helvetica,sans-Serif" font-size="10.00">sys/net/gnrc/transport</text>
<text text-anchor="start" x="543" y="-254" font-family="Helvetica,sans-Serif" font-size="10.00">_layer/tcp/include/gnrc</text>
<text text-anchor="middle" x="598.12" y="-241.25" font-family="Helvetica,sans-Serif" font-size="10.00">_tcp_eventloop.h</text>
</a>
</g>
</g>
<!-- Node10&#45;&gt;Node26 -->
<g id="edge31_Node000010_Node000026" class="edge">
<title>Node10&#45;&gt;Node26</title>
<g id="a_edge31_Node000010_Node000026"><a xlink:title=" ">
<path fill="none" stroke="#63b8ff" d="M750.15,-317.93C721.28,-306.57 685.29,-292.41 655.58,-280.73"/>
<polygon fill="#63b8ff" stroke="#63b8ff" points="748.85,-321.18 759.43,-321.58 751.41,-314.66 748.85,-321.18"/>
</a>
</g>
</g>
<!-- Node14 -->
<g id="Node000014" class="node">
<title>Node14</title>
<g id="a_Node000014"><a xlink:href="rpl_8h.html" target="_top" xlink:title="RPL header.">
<polygon fill="white" stroke="#666666" points="1137.88,-115.75 1024.38,-115.75 1024.38,-82.25 1137.88,-82.25 1137.88,-115.75"/>
<text text-anchor="start" x="1032.38" y="-102.25" font-family="Helvetica,sans-Serif" font-size="10.00">sys/include/net/gnrc</text>
<text text-anchor="middle" x="1081.12" y="-89.5" font-family="Helvetica,sans-Serif" font-size="10.00">/rpl.h</text>
</a>
</g>
</g>
<!-- Node13&#45;&gt;Node14 -->
<g id="edge13_Node000013_Node000014" class="edge">
<title>Node13&#45;&gt;Node14</title>
<g id="a_edge13_Node000013_Node000014"><a xlink:title=" ">
<path fill="none" stroke="#63b8ff" d="M1109.84,-236.14C1068.15,-221.07 1018.07,-202.29 1015.12,-198 1003.49,-181.05 1006.13,-170.23 1015.12,-151.75 1022.45,-136.69 1036.52,-124.72 1049.78,-116.1"/>
<polygon fill="#63b8ff" stroke="#63b8ff" points="1108.48,-239.37 1119.07,-239.47 1110.85,-232.78 1108.48,-239.37"/>
</a>
</g>
</g>
<!-- Node15 -->
<g id="Node000015" class="node">
<title>Node15</title>
<g id="a_Node000015"><a xlink:href="dodag_8h.html" target="_top" xlink:title="DODAG&#45;related functions for RPL.">
<polygon fill="white" stroke="#666666" points="1179.88,-39.88 1066.38,-39.88 1066.38,-6.38 1179.88,-6.38 1179.88,-39.88"/>
<text text-anchor="start" x="1074.38" y="-26.38" font-family="Helvetica,sans-Serif" font-size="10.00">sys/include/net/gnrc</text>
<text text-anchor="middle" x="1123.12" y="-13.62" font-family="Helvetica,sans-Serif" font-size="10.00">/rpl/dodag.h</text>
</a>
</g>
</g>
<!-- Node13&#45;&gt;Node15 -->
<g id="edge17_Node000013_Node000015" class="edge">
<title>Node13&#45;&gt;Node15</title>
<g id="a_edge17_Node000013_Node000015"><a xlink:title=" ">
<path fill="none" stroke="#63b8ff" d="M1165.51,-228.53C1164.18,-193.87 1160.05,-132.82 1147.12,-82.25 1143.34,-67.44 1136.52,-51.45 1131.11,-39.99"/>
<polygon fill="#63b8ff" stroke="#63b8ff" points="1162.01,-228.64 1165.83,-238.52 1169,-228.41 1162.01,-228.64"/>
</a>
</g>
</g>
<!-- Node17 -->
<g id="Node000017" class="node">
<title>Node17</title>
<g id="a_Node000017"><a xlink:href="of__manager_8h.html" target="_top" xlink:title="RPL Objective functions manager header.">
<polygon fill="white" stroke="#666666" points="1137.88,-191.62 1024.38,-191.62 1024.38,-158.12 1137.88,-158.12 1137.88,-191.62"/>
<text text-anchor="start" x="1032.38" y="-178.12" font-family="Helvetica,sans-Serif" font-size="10.00">sys/include/net/gnrc</text>
<text text-anchor="middle" x="1081.12" y="-165.38" font-family="Helvetica,sans-Serif" font-size="10.00">/rpl/of_manager.h</text>
</a>
</g>
</g>
<!-- Node13&#45;&gt;Node17 -->
<g id="edge18_Node000013_Node000017" class="edge">
<title>Node13&#45;&gt;Node17</title>
<g id="a_edge18_Node000013_Node000017"><a xlink:title=" ">
<path fill="none" stroke="#63b8ff" d="M1140.82,-232.23C1127.1,-219.28 1110.51,-203.61 1098.3,-192.09"/>
<polygon fill="#63b8ff" stroke="#63b8ff" points="1138.15,-234.53 1147.82,-238.85 1142.95,-229.44 1138.15,-234.53"/>
</a>
</g>
</g>
<!-- Node18 -->
<g id="Node000018" class="node">
<title>Node18</title>
<g id="a_Node000018"><a xlink:href="p2p_8h.html" target="_top" xlink:title="Definititions for P2P&#45;RPL.">
<polygon fill="white" stroke="#666666" points="1307.88,-115.75 1194.38,-115.75 1194.38,-82.25 1307.88,-82.25 1307.88,-115.75"/>
<text text-anchor="start" x="1202.38" y="-102.25" font-family="Helvetica,sans-Serif" font-size="10.00">sys/include/net/gnrc</text>
<text text-anchor="middle" x="1251.12" y="-89.5" font-family="Helvetica,sans-Serif" font-size="10.00">/rpl/p2p.h</text>
</a>
</g>
</g>
<!-- Node13&#45;&gt;Node18 -->
<g id="edge20_Node000013_Node000018" class="edge">
<title>Node13&#45;&gt;Node18</title>
<g id="a_edge20_Node000013_Node000018"><a xlink:title=" ">
<path fill="none" stroke="#63b8ff" d="M1180.2,-230.28C1197.93,-197.7 1227.87,-142.72 1242.52,-115.8"/>
<polygon fill="#63b8ff" stroke="#63b8ff" points="1177.33,-228.22 1175.63,-238.68 1183.48,-231.57 1177.33,-228.22"/>
</a>
</g>
</g>
<!-- Node19 -->
<g id="Node000019" class="node">
<title>Node19</title>
<g id="a_Node000019"><a xlink:href="p2p__structs_8h.html" target="_top" xlink:title="P2P&#45;RPL data structs.">
<polygon fill="white" stroke="#666666" points="1345.88,-191.62 1232.38,-191.62 1232.38,-158.12 1345.88,-158.12 1345.88,-191.62"/>
<text text-anchor="start" x="1240.38" y="-178.12" font-family="Helvetica,sans-Serif" font-size="10.00">sys/include/net/gnrc</text>
<text text-anchor="middle" x="1289.12" y="-165.38" font-family="Helvetica,sans-Serif" font-size="10.00">/rpl/p2p_structs.h</text>
</a>
</g>
</g>
<!-- Node13&#45;&gt;Node19 -->
<g id="edge21_Node000013_Node000019" class="edge">
<title>Node13&#45;&gt;Node19</title>
<g id="a_edge21_Node000013_Node000019"><a xlink:title=" ">
<path fill="none" stroke="#63b8ff" d="M1200.52,-233.69C1220.78,-220.47 1245.94,-204.05 1264.27,-192.09"/>
<polygon fill="#63b8ff" stroke="#63b8ff" points="1198.75,-230.66 1192.28,-239.06 1202.57,-236.53 1198.75,-230.66"/>
</a>
</g>
</g>
<!-- Node21 -->
<g id="Node000021" class="node">
<title>Node21</title>
<g id="a_Node000021"><a xlink:href="validation_8h.html" target="_top" xlink:title="RPL control message validation functions.">
<polygon fill="white" stroke="#666666" points="1480.38,-198 1363.88,-198 1363.88,-151.75 1480.38,-151.75 1480.38,-198"/>
<text text-anchor="start" x="1371.88" y="-184.5" font-family="Helvetica,sans-Serif" font-size="10.00">sys/net/gnrc/routing</text>
<text text-anchor="start" x="1371.88" y="-171.75" font-family="Helvetica,sans-Serif" font-size="10.00">/rpl/gnrc_rpl_internal</text>
<text text-anchor="middle" x="1422.12" y="-159" font-family="Helvetica,sans-Serif" font-size="10.00">/validation.h</text>
</a>
</g>
</g>
<!-- Node13&#45;&gt;Node21 -->
<g id="edge24_Node000013_Node000021" class="edge">
<title>Node13&#45;&gt;Node21</title>
<g id="a_edge24_Node000013_Node000021"><a xlink:title=" ">
<path fill="none" stroke="#63b8ff" d="M1224.41,-236.45C1227.01,-235.61 1229.6,-234.79 1232.12,-234 1286.47,-216.94 1300.74,-214.93 1355.12,-198 1357.93,-197.13 1360.8,-196.22 1363.7,-195.3"/>
<polygon fill="#63b8ff" stroke="#63b8ff" points="1223.51,-233.06 1215.08,-239.48 1225.67,-239.72 1223.51,-233.06"/>
</a>
</g>
</g>
<!-- Node22 -->
<g id="Node000022" class="node">
<title>Node22</title>
<g id="a_Node000022"><a xlink:href="of0_8h.html" target="_top" xlink:title="Objective Function Zero.">
<polygon fill="white" stroke="#666666" points="1611.5,-191.62 1498.75,-191.62 1498.75,-158.12 1611.5,-158.12 1611.5,-191.62"/>
<text text-anchor="start" x="1506.75" y="-178.12" font-family="Helvetica,sans-Serif" font-size="10.00">sys/net/gnrc/routing</text>
<text text-anchor="middle" x="1555.12" y="-165.38" font-family="Helvetica,sans-Serif" font-size="10.00">/rpl/of0.h</text>
</a>
</g>
</g>
<!-- Node13&#45;&gt;Node22 -->
<g id="edge25_Node000013_Node000022" class="edge">
<title>Node13&#45;&gt;Node22</title>
<g id="a_edge25_Node000013_Node000022"><a xlink:title=" ">
<path fill="none" stroke="#63b8ff" d="M1221.88,-236.64C1225.33,-235.68 1228.76,-234.79 1232.12,-234 1344.39,-207.56 1376.86,-224.44 1489.12,-198 1496.07,-196.37 1503.31,-194.31 1510.36,-192.11"/>
<polygon fill="#63b8ff" stroke="#63b8ff" points="1220.94,-233.27 1212.35,-239.46 1222.93,-239.98 1220.94,-233.27"/>
</a>
</g>
</g>
<!-- Node14&#45;&gt;Node15 -->
<g id="edge14_Node000014_Node000015" class="edge">
<title>Node14&#45;&gt;Node15</title>
<g id="a_edge14_Node000014_Node000015"><a xlink:title=" ">
<path fill="none" stroke="#63b8ff" d="M1089.46,-71.95C1094.95,-61.34 1102,-49.41 1108.35,-40.12"/>
<polygon fill="#63b8ff" stroke="#63b8ff" points="1086.47,-70.09 1085.22,-80.61 1092.76,-73.16 1086.47,-70.09"/>
</a>
</g>
</g>
<!-- Node16 -->
<g id="Node000016" class="node">
<title>Node16</title>
<g id="a_Node000016"><a xlink:href="gnrc__ipv6__auto__subnets_8c.html" target="_top" xlink:title=" ">
<polygon fill="white" stroke="#666666" points="1048.38,-46.25 913.88,-46.25 913.88,0 1048.38,0 1048.38,-46.25"/>
<text text-anchor="start" x="921.88" y="-32.75" font-family="Helvetica,sans-Serif" font-size="10.00">sys/net/gnrc/routing</text>
<text text-anchor="start" x="921.88" y="-20" font-family="Helvetica,sans-Serif" font-size="10.00">/ipv6_auto_subnets/gnrc</text>
<text text-anchor="middle" x="981.12" y="-7.25" font-family="Helvetica,sans-Serif" font-size="10.00">_ipv6_auto_subnets.c</text>
</a>
</g>
</g>
<!-- Node14&#45;&gt;Node16 -->
<g id="edge16_Node000014_Node000016" class="edge">
<title>Node14&#45;&gt;Node16</title>
<g id="a_edge16_Node000014_Node000016"><a xlink:title=" ">
<path fill="none" stroke="#63b8ff" d="M1050.4,-75.3C1038.04,-66.17 1023.83,-55.67 1011.51,-46.57"/>
<polygon fill="#63b8ff" stroke="#63b8ff" points="1048.09,-77.94 1058.21,-81.07 1052.25,-72.31 1048.09,-77.94"/>
</a>
</g>
</g>
<!-- Node15&#45;&gt;Node14 -->
<g id="edge15_Node000015_Node000014" class="edge">
<title>Node15&#45;&gt;Node14</title>
<g id="a_edge15_Node000015_Node000014"><a xlink:title=" ">
<path fill="none" stroke="#63b8ff" d="M1114.81,-50.14C1109.32,-60.75 1102.27,-72.68 1095.92,-81.97"/>
<polygon fill="#63b8ff" stroke="#63b8ff" points="1117.8,-52.01 1119.04,-41.48 1111.51,-48.94 1117.8,-52.01"/>
</a>
</g>
</g>
<!-- Node17&#45;&gt;Node14 -->
<g id="edge19_Node000017_Node000014" class="edge">
<title>Node17&#45;&gt;Node14</title>
<g id="a_edge19_Node000017_Node000014"><a xlink:title=" ">
<path fill="none" stroke="#63b8ff" d="M1081.12,-146.49C1081.12,-136.22 1081.12,-124.9 1081.12,-116"/>
<polygon fill="#63b8ff" stroke="#63b8ff" points="1077.63,-146.33 1081.13,-156.33 1084.63,-146.33 1077.63,-146.33"/>
</a>
</g>
</g>
<!-- Node19&#45;&gt;Node18 -->
<g id="edge22_Node000019_Node000018" class="edge">
<title>Node19&#45;&gt;Node18</title>
<g id="a_edge22_Node000019_Node000018"><a xlink:title=" ">
<path fill="none" stroke="#63b8ff" d="M1275.72,-147.82C1270.27,-137.21 1264.13,-125.29 1259.35,-116"/>
<polygon fill="#63b8ff" stroke="#63b8ff" points="1272.5,-149.21 1280.19,-156.5 1278.73,-146.01 1272.5,-149.21"/>
</a>
</g>
</g>
<!-- Node20 -->
<g id="Node000020" class="node">
<title>Node20</title>
<g id="a_Node000020"><a xlink:href="p2p__dodag_8h.html" target="_top" xlink:title="DODAG&#45;related functions for P2P&#45;RPL.">
<polygon fill="white" stroke="#666666" points="1439.88,-115.75 1326.38,-115.75 1326.38,-82.25 1439.88,-82.25 1439.88,-115.75"/>
<text text-anchor="start" x="1334.38" y="-102.25" font-family="Helvetica,sans-Serif" font-size="10.00">sys/include/net/gnrc</text>
<text text-anchor="middle" x="1383.12" y="-89.5" font-family="Helvetica,sans-Serif" font-size="10.00">/rpl/p2p_dodag.h</text>
</a>
</g>
</g>
<!-- Node19&#45;&gt;Node20 -->
<g id="edge23_Node000019_Node000020" class="edge">
<title>Node19&#45;&gt;Node20</title>
<g id="a_edge23_Node000019_Node000020"><a xlink:title=" ">
<path fill="none" stroke="#63b8ff" d="M1318.53,-150.77C1332.9,-139.47 1349.84,-126.16 1362.77,-116"/>
<polygon fill="#63b8ff" stroke="#63b8ff" points="1316.41,-147.98 1310.71,-156.91 1320.74,-153.48 1316.41,-147.98"/>
</a>
</g>
</g>
<!-- Node24 -->
<g id="Node000024" class="node">
<title>Node24</title>
<g id="a_Node000024"><a xlink:href="gnrc_2sixlowpan_2frag_2sfr_8h.html" target="_top" xlink:title="6LoWPAN selective fragment recovery definitions for GNRC">
<polygon fill="white" stroke="#666666" points="968,-191.62 852.25,-191.62 852.25,-158.12 968,-158.12 968,-191.62"/>
<text text-anchor="start" x="860.25" y="-178.12" font-family="Helvetica,sans-Serif" font-size="10.00">sys/include/net/gnrc</text>
<text text-anchor="middle" x="910.12" y="-165.38" font-family="Helvetica,sans-Serif" font-size="10.00">/sixlowpan/frag/sfr.h</text>
</a>
</g>
</g>
<!-- Node23&#45;&gt;Node24 -->
<g id="edge27_Node000023_Node000024" class="edge">
<title>Node23&#45;&gt;Node24</title>
<g id="a_edge27_Node000023_Node000024"><a xlink:title=" ">
<path fill="none" stroke="#63b8ff" d="M986.73,-233.33C969.19,-220.17 947.55,-203.94 931.75,-192.09"/>
<polygon fill="#63b8ff" stroke="#63b8ff" points="984.16,-235.78 994.26,-238.98 988.36,-230.18 984.16,-235.78"/>
</a>
</g>
</g>
<!-- Node25 -->
<g id="Node000025" class="node">
<title>Node25</title>
<g id="a_Node000025"><a xlink:href="net_2gnrc_2sixlowpan_2frag_2sfr_2congure_8h.html" target="_top" xlink:title="Congure definitions for 6LoWPAN selective fragment recovery.">
<polygon fill="white" stroke="#666666" points="988,-115.75 830.25,-115.75 830.25,-82.25 988,-82.25 988,-115.75"/>
<text text-anchor="start" x="838.25" y="-102.25" font-family="Helvetica,sans-Serif" font-size="10.00">sys/include/net/gnrc</text>
<text text-anchor="middle" x="909.12" y="-89.5" font-family="Helvetica,sans-Serif" font-size="10.00">/sixlowpan/frag/sfr/congure.h</text>
</a>
</g>
</g>
<!-- Node24&#45;&gt;Node25 -->
<g id="edge28_Node000024_Node000025" class="edge">
<title>Node24&#45;&gt;Node25</title>
<g id="a_edge28_Node000024_Node000025"><a xlink:title=" ">
<path fill="none" stroke="#63b8ff" d="M909.75,-146.49C909.62,-136.22 909.46,-124.9 909.34,-116"/>
<polygon fill="#63b8ff" stroke="#63b8ff" points="906.25,-146.38 909.89,-156.33 913.25,-146.29 906.25,-146.38"/>
</a>
</g>
</g>
<!-- Node25&#45;&gt;Node25 -->
<g id="edge29_Node000025_Node000025" class="edge">
<title>Node25&#45;&gt;Node25</title>
<g id="a_edge29_Node000025_Node000025"><a xlink:title=" ">
<path fill="none" stroke="#63b8ff" d="M998.87,-108.18C1003.36,-105.9 1006,-102.84 1006,-99 1006,-92.7 998.88,-88.49 988.19,-86.38"/>
<polygon fill="#63b8ff" stroke="#63b8ff" points="998.07,-104.76 989.63,-111.16 1000.22,-111.43 998.07,-104.76"/>
</a>
</g>
</g>
<!-- Node28 -->
<g id="Node000028" class="node">
<title>Node28</title>
<g id="a_Node000028"><a xlink:href="__nib-6lr_8h.html" target="_top" xlink:title="Definitions related to 6Lo router (6LR) functionality of the NIB.">
<polygon fill="white" stroke="#666666" points="1377.5,-273.88 1240.75,-273.88 1240.75,-240.38 1377.5,-240.38 1377.5,-273.88"/>
<text text-anchor="start" x="1248.75" y="-260.38" font-family="Helvetica,sans-Serif" font-size="10.00">sys/net/gnrc/network</text>
<text text-anchor="middle" x="1309.12" y="-247.62" font-family="Helvetica,sans-Serif" font-size="10.00">_layer/ipv6/nib/_nib&#45;6lr.h</text>
</a>
</g>
</g>
<!-- Node27&#45;&gt;Node28 -->
<g id="edge34_Node000027_Node000028" class="edge">
<title>Node27&#45;&gt;Node28</title>
<g id="a_edge34_Node000027_Node000028"><a xlink:title=" ">
<path fill="none" stroke="#63b8ff" d="M1050.99,-319.33C1055.09,-318.26 1059.16,-317.23 1063.12,-316.25 1137.69,-297.89 1157.62,-298.87 1232.12,-280.25 1239.41,-278.43 1247.05,-276.39 1254.57,-274.31"/>
<polygon fill="#63b8ff" stroke="#63b8ff" points="1050.34,-315.88 1041.58,-321.83 1052.14,-322.65 1050.34,-315.88"/>
</a>
</g>
</g>
</g>
</svg>
