<?xml version="1.0" encoding="UTF-8" standalone="no"?>
<!DOCTYPE svg PUBLIC "-//W3C//DTD SVG 1.1//EN"
 "http://www.w3.org/Graphics/SVG/1.1/DTD/svg11.dtd">
<!-- Generated by graphviz version 12.1.2 (0)
 -->
<!-- Title: sys/include/evtimer_msg.h Pages: 1 -->
<svg width="1690pt" height="358pt"
 viewBox="0.00 0.00 1690.38 357.75" xmlns="http://www.w3.org/2000/svg" xmlns:xlink="http://www.w3.org/1999/xlink">
<g id="graph0" class="graph" transform="scale(1 1) rotate(0) translate(4 353.75)">
<title>sys/include/evtimer_msg.h</title>
<!-- Node1 -->
<g id="Node000001" class="node">
<title>Node1</title>
<g id="a_Node000001"><a xlink:title="IPC&#45;based evtimer definitions.">
<polygon fill="#999999" stroke="#666666" points="695.25,-349.75 583.25,-349.75 583.25,-316.25 695.25,-316.25 695.25,-349.75"/>
<text text-anchor="start" x="591.25" y="-336.25" font-family="Helvetica,sans-Serif" font-size="10.00">sys/include/evtimer</text>
<text text-anchor="middle" x="639.25" y="-323.5" font-family="Helvetica,sans-Serif" font-size="10.00">_msg.h</text>
</a>
</g>
</g>
<!-- Node2 -->
<g id="Node000002" class="node">
<title>Node2</title>
<g id="a_Node000002"><a xlink:href="net_2gnrc_2mac_2timeout_8h.html" target="_top" xlink:title="Timeout APIs used by GNRC_MAC.">
<polygon fill="white" stroke="#666666" points="233,-273.88 119.5,-273.88 119.5,-240.38 233,-240.38 233,-273.88"/>
<text text-anchor="start" x="127.5" y="-260.38" font-family="Helvetica,sans-Serif" font-size="10.00">sys/include/net/gnrc</text>
<text text-anchor="middle" x="176.25" y="-247.62" font-family="Helvetica,sans-Serif" font-size="10.00">/mac/timeout.h</text>
</a>
</g>
</g>
<!-- Node1&#45;&gt;Node2 -->
<g id="edge1_Node000001_Node000002" class="edge">
<title>Node1&#45;&gt;Node2</title>
<g id="a_edge1_Node000001_Node000002"><a xlink:title=" ">
<path fill="none" stroke="#63b8ff" d="M571.43,-327.18C491.82,-320.61 356.19,-306.51 242.25,-280.25 235.18,-278.62 227.81,-276.54 220.65,-274.31"/>
<polygon fill="#63b8ff" stroke="#63b8ff" points="571,-330.66 581.25,-327.98 571.56,-323.68 571,-330.66"/>
</a>
</g>
</g>
<!-- Node3 -->
<g id="Node000003" class="node">
<title>Node3</title>
<g id="a_Node000003"><a xlink:href="gnrc_2netif_2ipv6_8h.html" target="_top" xlink:title="IPv6 definitions for Network interface API.">
<polygon fill="white" stroke="#666666" points="365,-273.88 251.5,-273.88 251.5,-240.38 365,-240.38 365,-273.88"/>
<text text-anchor="start" x="259.5" y="-260.38" font-family="Helvetica,sans-Serif" font-size="10.00">sys/include/net/gnrc</text>
<text text-anchor="middle" x="308.25" y="-247.62" font-family="Helvetica,sans-Serif" font-size="10.00">/netif/ipv6.h</text>
</a>
</g>
</g>
<!-- Node1&#45;&gt;Node3 -->
<g id="edge2_Node000001_Node000003" class="edge">
<title>Node1&#45;&gt;Node3</title>
<g id="a_edge2_Node000001_Node000003"><a xlink:title=" ">
<path fill="none" stroke="#63b8ff" d="M571.8,-321.33C517.91,-312.21 440.68,-297.79 374.25,-280.25 367.71,-278.52 360.87,-276.49 354.18,-274.37"/>
<polygon fill="#63b8ff" stroke="#63b8ff" points="571,-324.75 581.44,-322.95 572.16,-317.84 571,-324.75"/>
</a>
</g>
</g>
<!-- Node4 -->
<g id="Node000004" class="node">
<title>Node4</title>
<g id="a_Node000004"><a xlink:href="structs_8h.html" target="_top" xlink:title="RPL data structs.">
<polygon fill="white" stroke="#666666" points="497,-273.88 383.5,-273.88 383.5,-240.38 497,-240.38 497,-273.88"/>
<text text-anchor="start" x="391.5" y="-260.38" font-family="Helvetica,sans-Serif" font-size="10.00">sys/include/net/gnrc</text>
<text text-anchor="middle" x="440.25" y="-247.62" font-family="Helvetica,sans-Serif" font-size="10.00">/rpl/structs.h</text>
</a>
</g>
</g>
<!-- Node1&#45;&gt;Node4 -->
<g id="edge3_Node000001_Node000004" class="edge">
<title>Node1&#45;&gt;Node4</title>
<g id="a_edge3_Node000001_Node000004"><a xlink:title=" ">
<path fill="none" stroke="#63b8ff" d="M585.12,-311.9C553.3,-300.09 513.61,-285.36 483.82,-274.3"/>
<polygon fill="#63b8ff" stroke="#63b8ff" points="583.57,-315.06 594.16,-315.26 586,-308.5 583.57,-315.06"/>
</a>
</g>
</g>
<!-- Node14 -->
<g id="Node000014" class="node">
<title>Node14</title>
<g id="a_Node000014"><a xlink:href="sfr__types_8h.html" target="_top" xlink:title="6LoWPAN selective fragment recovery type definitions for GNRC">
<polygon fill="white" stroke="#666666" points="780.25,-273.88 632.25,-273.88 632.25,-240.38 780.25,-240.38 780.25,-273.88"/>
<text text-anchor="start" x="640.25" y="-260.38" font-family="Helvetica,sans-Serif" font-size="10.00">sys/include/net/gnrc</text>
<text text-anchor="middle" x="706.25" y="-247.62" font-family="Helvetica,sans-Serif" font-size="10.00">/sixlowpan/frag/sfr_types.h</text>
</a>
</g>
</g>
<!-- Node1&#45;&gt;Node14 -->
<g id="edge17_Node000001_Node000014" class="edge">
<title>Node1&#45;&gt;Node14</title>
<g id="a_edge17_Node000001_Node000014"><a xlink:title=" ">
<path fill="none" stroke="#63b8ff" d="M661.39,-307.59C671.37,-296.59 682.88,-283.89 691.74,-274.12"/>
<polygon fill="#63b8ff" stroke="#63b8ff" points="658.93,-305.09 654.8,-314.85 664.12,-309.79 658.93,-305.09"/>
</a>
</g>
</g>
<!-- Node17 -->
<g id="Node000017" class="node">
<title>Node17</title>
<g id="a_Node000017"><a xlink:href="tcb_8h.html" target="_top" xlink:title="GNRC TCP transmission control block (TCB)">
<polygon fill="white" stroke="#666666" points="1172,-273.88 1058.5,-273.88 1058.5,-240.38 1172,-240.38 1172,-273.88"/>
<text text-anchor="start" x="1066.5" y="-260.38" font-family="Helvetica,sans-Serif" font-size="10.00">sys/include/net/gnrc</text>
<text text-anchor="middle" x="1115.25" y="-247.62" font-family="Helvetica,sans-Serif" font-size="10.00">/tcp/tcb.h</text>
</a>
</g>
</g>
<!-- Node1&#45;&gt;Node17 -->
<g id="edge21_Node000001_Node000017" class="edge">
<title>Node1&#45;&gt;Node17</title>
<g id="a_edge21_Node000001_Node000017"><a xlink:title=" ">
<path fill="none" stroke="#63b8ff" d="M706.82,-321.51C800.96,-306.9 969.91,-280.68 1058.11,-266.99"/>
<polygon fill="#63b8ff" stroke="#63b8ff" points="706.56,-318.01 697.22,-323 707.64,-324.93 706.56,-318.01"/>
</a>
</g>
</g>
<!-- Node24 -->
<g id="Node000024" class="node">
<title>Node24</title>
<g id="a_Node000024"><a xlink:href="gnrc__tcp__eventloop_8h.html" target="_top" xlink:title="TCP event loop declarations.">
<polygon fill="white" stroke="#666666" points="1316.38,-280.25 1190.12,-280.25 1190.12,-234 1316.38,-234 1316.38,-280.25"/>
<text text-anchor="start" x="1198.12" y="-266.75" font-family="Helvetica,sans-Serif" font-size="10.00">sys/net/gnrc/transport</text>
<text text-anchor="start" x="1198.12" y="-254" font-family="Helvetica,sans-Serif" font-size="10.00">_layer/tcp/include/gnrc</text>
<text text-anchor="middle" x="1253.25" y="-241.25" font-family="Helvetica,sans-Serif" font-size="10.00">_tcp_eventloop.h</text>
</a>
</g>
</g>
<!-- Node1&#45;&gt;Node24 -->
<g id="edge28_Node000001_Node000024" class="edge">
<title>Node1&#45;&gt;Node24</title>
<g id="a_edge28_Node000001_Node000024"><a xlink:title=" ">
<path fill="none" stroke="#63b8ff" d="M707.07,-329.94C810.33,-325.81 1012.77,-313.82 1181.25,-280.25 1184.07,-279.69 1186.94,-279.06 1189.83,-278.38"/>
<polygon fill="#63b8ff" stroke="#63b8ff" points="706.95,-326.44 697.09,-330.32 707.22,-333.43 706.95,-326.44"/>
</a>
</g>
</g>
<!-- Node5 -->
<g id="Node000005" class="node">
<title>Node5</title>
<g id="a_Node000005"><a xlink:href="rpl_8h.html" target="_top" xlink:title="RPL header.">
<polygon fill="white" stroke="#666666" points="223,-115.75 109.5,-115.75 109.5,-82.25 223,-82.25 223,-115.75"/>
<text text-anchor="start" x="117.5" y="-102.25" font-family="Helvetica,sans-Serif" font-size="10.00">sys/include/net/gnrc</text>
<text text-anchor="middle" x="166.25" y="-89.5" font-family="Helvetica,sans-Serif" font-size="10.00">/rpl.h</text>
</a>
</g>
</g>
<!-- Node4&#45;&gt;Node5 -->
<g id="edge4_Node000004_Node000005" class="edge">
<title>Node4&#45;&gt;Node5</title>
<g id="a_edge4_Node000004_Node000005"><a xlink:title=" ">
<path fill="none" stroke="#63b8ff" d="M385.02,-236.75C381.39,-235.74 377.78,-234.82 374.25,-234 314.41,-220.18 140.75,-244.17 100.25,-198 86.69,-182.55 91.26,-170.23 100.25,-151.75 107.58,-136.69 121.64,-124.72 134.91,-116.1"/>
<polygon fill="#63b8ff" stroke="#63b8ff" points="383.82,-240.04 394.4,-239.52 385.8,-233.33 383.82,-240.04"/>
</a>
</g>
</g>
<!-- Node6 -->
<g id="Node000006" class="node">
<title>Node6</title>
<g id="a_Node000006"><a xlink:href="dodag_8h.html" target="_top" xlink:title="DODAG&#45;related functions for RPL.">
<polygon fill="white" stroke="#666666" points="266,-39.88 152.5,-39.88 152.5,-6.38 266,-6.38 266,-39.88"/>
<text text-anchor="start" x="160.5" y="-26.38" font-family="Helvetica,sans-Serif" font-size="10.00">sys/include/net/gnrc</text>
<text text-anchor="middle" x="209.25" y="-13.62" font-family="Helvetica,sans-Serif" font-size="10.00">/rpl/dodag.h</text>
</a>
</g>
</g>
<!-- Node4&#45;&gt;Node6 -->
<g id="edge8_Node000004_Node000006" class="edge">
<title>Node4&#45;&gt;Node6</title>
<g id="a_edge8_Node000004_Node000006"><a xlink:title=" ">
<path fill="none" stroke="#63b8ff" d="M385.78,-236.09C348.4,-221.99 304.32,-204.51 297.25,-198 271.93,-174.68 231.26,-78.56 215.64,-40.12"/>
<polygon fill="#63b8ff" stroke="#63b8ff" points="384.1,-239.2 394.69,-239.43 386.56,-232.64 384.1,-239.2"/>
</a>
</g>
</g>
<!-- Node8 -->
<g id="Node000008" class="node">
<title>Node8</title>
<g id="a_Node000008"><a xlink:href="of__manager_8h.html" target="_top" xlink:title="RPL Objective functions manager header.">
<polygon fill="white" stroke="#666666" points="223,-191.62 109.5,-191.62 109.5,-158.12 223,-158.12 223,-191.62"/>
<text text-anchor="start" x="117.5" y="-178.12" font-family="Helvetica,sans-Serif" font-size="10.00">sys/include/net/gnrc</text>
<text text-anchor="middle" x="166.25" y="-165.38" font-family="Helvetica,sans-Serif" font-size="10.00">/rpl/of_manager.h</text>
</a>
</g>
</g>
<!-- Node4&#45;&gt;Node8 -->
<g id="edge9_Node000004_Node000008" class="edge">
<title>Node4&#45;&gt;Node8</title>
<g id="a_edge9_Node000004_Node000008"><a xlink:title=" ">
<path fill="none" stroke="#63b8ff" d="M382.44,-236.5C379.68,-235.64 376.94,-234.8 374.25,-234 313.93,-215.98 297.76,-215.37 237.25,-198 230.8,-196.15 224.04,-194.14 217.36,-192.1"/>
<polygon fill="#63b8ff" stroke="#63b8ff" points="381.11,-239.75 391.7,-239.45 383.23,-233.08 381.11,-239.75"/>
</a>
</g>
</g>
<!-- Node9 -->
<g id="Node000009" class="node">
<title>Node9</title>
<g id="a_Node000009"><a xlink:href="p2p_8h.html" target="_top" xlink:title="Definititions for P2P&#45;RPL.">
<polygon fill="white" stroke="#666666" points="393,-115.75 279.5,-115.75 279.5,-82.25 393,-82.25 393,-115.75"/>
<text text-anchor="start" x="287.5" y="-102.25" font-family="Helvetica,sans-Serif" font-size="10.00">sys/include/net/gnrc</text>
<text text-anchor="middle" x="336.25" y="-89.5" font-family="Helvetica,sans-Serif" font-size="10.00">/rpl/p2p.h</text>
</a>
</g>
</g>
<!-- Node4&#45;&gt;Node9 -->
<g id="edge11_Node000004_Node000009" class="edge">
<title>Node4&#45;&gt;Node9</title>
<g id="a_edge11_Node000004_Node000009"><a xlink:title=" ">
<path fill="none" stroke="#63b8ff" d="M386.8,-235.8C352.33,-222.15 313.05,-205.36 308.25,-198 291.53,-172.36 310.19,-136.62 324.05,-116.14"/>
<polygon fill="#63b8ff" stroke="#63b8ff" points="385.3,-238.97 395.89,-239.36 387.86,-232.45 385.3,-238.97"/>
</a>
</g>
</g>
<!-- Node10 -->
<g id="Node000010" class="node">
<title>Node10</title>
<g id="a_Node000010"><a xlink:href="p2p__structs_8h.html" target="_top" xlink:title="P2P&#45;RPL data structs.">
<polygon fill="white" stroke="#666666" points="431,-191.62 317.5,-191.62 317.5,-158.12 431,-158.12 431,-191.62"/>
<text text-anchor="start" x="325.5" y="-178.12" font-family="Helvetica,sans-Serif" font-size="10.00">sys/include/net/gnrc</text>
<text text-anchor="middle" x="374.25" y="-165.38" font-family="Helvetica,sans-Serif" font-size="10.00">/rpl/p2p_structs.h</text>
</a>
</g>
</g>
<!-- Node4&#45;&gt;Node10 -->
<g id="edge12_Node000004_Node000010" class="edge">
<title>Node4&#45;&gt;Node10</title>
<g id="a_edge12_Node000004_Node000010"><a xlink:title=" ">
<path fill="none" stroke="#63b8ff" d="M419.69,-231.13C409.22,-218.4 396.8,-203.29 387.59,-192.09"/>
<polygon fill="#63b8ff" stroke="#63b8ff" points="416.88,-233.22 425.93,-238.72 422.28,-228.77 416.88,-233.22"/>
</a>
</g>
</g>
<!-- Node12 -->
<g id="Node000012" class="node">
<title>Node12</title>
<g id="a_Node000012"><a xlink:href="validation_8h.html" target="_top" xlink:title="RPL control message validation functions.">
<polygon fill="white" stroke="#666666" points="565.5,-198 449,-198 449,-151.75 565.5,-151.75 565.5,-198"/>
<text text-anchor="start" x="457" y="-184.5" font-family="Helvetica,sans-Serif" font-size="10.00">sys/net/gnrc/routing</text>
<text text-anchor="start" x="457" y="-171.75" font-family="Helvetica,sans-Serif" font-size="10.00">/rpl/gnrc_rpl_internal</text>
<text text-anchor="middle" x="507.25" y="-159" font-family="Helvetica,sans-Serif" font-size="10.00">/validation.h</text>
</a>
</g>
</g>
<!-- Node4&#45;&gt;Node12 -->
<g id="edge15_Node000004_Node000012" class="edge">
<title>Node4&#45;&gt;Node12</title>
<g id="a_edge15_Node000004_Node000012"><a xlink:title=" ">
<path fill="none" stroke="#63b8ff" d="M461.06,-231.2C469.79,-220.74 479.87,-208.67 488.38,-198.48"/>
<polygon fill="#63b8ff" stroke="#63b8ff" points="458.5,-228.8 454.78,-238.72 463.87,-233.29 458.5,-228.8"/>
</a>
</g>
</g>
<!-- Node13 -->
<g id="Node000013" class="node">
<title>Node13</title>
<g id="a_Node000013"><a xlink:href="of0_8h.html" target="_top" xlink:title="Objective Function Zero.">
<polygon fill="white" stroke="#666666" points="696.62,-191.62 583.88,-191.62 583.88,-158.12 696.62,-158.12 696.62,-191.62"/>
<text text-anchor="start" x="591.88" y="-178.12" font-family="Helvetica,sans-Serif" font-size="10.00">sys/net/gnrc/routing</text>
<text text-anchor="middle" x="640.25" y="-165.38" font-family="Helvetica,sans-Serif" font-size="10.00">/rpl/of0.h</text>
</a>
</g>
</g>
<!-- Node4&#45;&gt;Node13 -->
<g id="edge16_Node000004_Node000013" class="edge">
<title>Node4&#45;&gt;Node13</title>
<g id="a_edge16_Node000004_Node000013"><a xlink:title=" ">
<path fill="none" stroke="#63b8ff" d="M491.29,-235.64C524.99,-222.12 568.54,-204.65 599.84,-192.09"/>
<polygon fill="#63b8ff" stroke="#63b8ff" points="490.11,-232.35 482.13,-239.32 492.71,-238.85 490.11,-232.35"/>
</a>
</g>
</g>
<!-- Node5&#45;&gt;Node6 -->
<g id="edge5_Node000005_Node000006" class="edge">
<title>Node5&#45;&gt;Node6</title>
<g id="a_edge5_Node000005_Node000006"><a xlink:title=" ">
<path fill="none" stroke="#63b8ff" d="M174.93,-71.95C180.57,-61.34 187.78,-49.41 194.26,-40.12"/>
<polygon fill="#63b8ff" stroke="#63b8ff" points="171.94,-70.11 170.58,-80.62 178.19,-73.25 171.94,-70.11"/>
</a>
</g>
</g>
<!-- Node7 -->
<g id="Node000007" class="node">
<title>Node7</title>
<g id="a_Node000007"><a xlink:href="gnrc__ipv6__auto__subnets_8c.html" target="_top" xlink:title=" ">
<polygon fill="white" stroke="#666666" points="134.5,-46.25 0,-46.25 0,0 134.5,0 134.5,-46.25"/>
<text text-anchor="start" x="8" y="-32.75" font-family="Helvetica,sans-Serif" font-size="10.00">sys/net/gnrc/routing</text>
<text text-anchor="start" x="8" y="-20" font-family="Helvetica,sans-Serif" font-size="10.00">/ipv6_auto_subnets/gnrc</text>
<text text-anchor="middle" x="67.25" y="-7.25" font-family="Helvetica,sans-Serif" font-size="10.00">_ipv6_auto_subnets.c</text>
</a>
</g>
</g>
<!-- Node5&#45;&gt;Node7 -->
<g id="edge7_Node000005_Node000007" class="edge">
<title>Node5&#45;&gt;Node7</title>
<g id="a_edge7_Node000005_Node000007"><a xlink:title=" ">
<path fill="none" stroke="#63b8ff" d="M135.83,-75.3C123.6,-66.17 109.53,-55.67 97.33,-46.57"/>
<polygon fill="#63b8ff" stroke="#63b8ff" points="133.45,-77.89 143.56,-81.07 137.63,-72.28 133.45,-77.89"/>
</a>
</g>
</g>
<!-- Node6&#45;&gt;Node5 -->
<g id="edge6_Node000006_Node000005" class="edge">
<title>Node6&#45;&gt;Node5</title>
<g id="a_edge6_Node000006_Node000005"><a xlink:title=" ">
<path fill="none" stroke="#63b8ff" d="M200.59,-50.14C194.95,-60.75 187.74,-72.68 181.26,-81.97"/>
<polygon fill="#63b8ff" stroke="#63b8ff" points="203.58,-51.98 204.93,-41.48 197.32,-48.85 203.58,-51.98"/>
</a>
</g>
</g>
<!-- Node8&#45;&gt;Node5 -->
<g id="edge10_Node000008_Node000005" class="edge">
<title>Node8&#45;&gt;Node5</title>
<g id="a_edge10_Node000008_Node000005"><a xlink:title=" ">
<path fill="none" stroke="#63b8ff" d="M166.25,-146.49C166.25,-136.22 166.25,-124.9 166.25,-116"/>
<polygon fill="#63b8ff" stroke="#63b8ff" points="162.75,-146.33 166.25,-156.33 169.75,-146.33 162.75,-146.33"/>
</a>
</g>
</g>
<!-- Node10&#45;&gt;Node9 -->
<g id="edge13_Node000010_Node000009" class="edge">
<title>Node10&#45;&gt;Node9</title>
<g id="a_edge13_Node000010_Node000009"><a xlink:title=" ">
<path fill="none" stroke="#63b8ff" d="M360.85,-147.82C355.39,-137.21 349.26,-125.29 344.48,-116"/>
<polygon fill="#63b8ff" stroke="#63b8ff" points="357.63,-149.21 365.31,-156.5 363.85,-146.01 357.63,-149.21"/>
</a>
</g>
</g>
<!-- Node11 -->
<g id="Node000011" class="node">
<title>Node11</title>
<g id="a_Node000011"><a xlink:href="p2p__dodag_8h.html" target="_top" xlink:title="DODAG&#45;related functions for P2P&#45;RPL.">
<polygon fill="white" stroke="#666666" points="525,-115.75 411.5,-115.75 411.5,-82.25 525,-82.25 525,-115.75"/>
<text text-anchor="start" x="419.5" y="-102.25" font-family="Helvetica,sans-Serif" font-size="10.00">sys/include/net/gnrc</text>
<text text-anchor="middle" x="468.25" y="-89.5" font-family="Helvetica,sans-Serif" font-size="10.00">/rpl/p2p_dodag.h</text>
</a>
</g>
</g>
<!-- Node10&#45;&gt;Node11 -->
<g id="edge14_Node000010_Node000011" class="edge">
<title>Node10&#45;&gt;Node11</title>
<g id="a_edge14_Node000010_Node000011"><a xlink:title=" ">
<path fill="none" stroke="#63b8ff" d="M403.65,-150.77C418.03,-139.47 434.97,-126.16 447.89,-116"/>
<polygon fill="#63b8ff" stroke="#63b8ff" points="401.54,-147.98 395.84,-156.91 405.86,-153.48 401.54,-147.98"/>
</a>
</g>
</g>
<!-- Node15 -->
<g id="Node000015" class="node">
<title>Node15</title>
<g id="a_Node000015"><a xlink:href="gnrc_2sixlowpan_2frag_2sfr_8h.html" target="_top" xlink:title="6LoWPAN selective fragment recovery definitions for GNRC">
<polygon fill="white" stroke="#666666" points="830.12,-191.62 714.38,-191.62 714.38,-158.12 830.12,-158.12 830.12,-191.62"/>
<text text-anchor="start" x="722.38" y="-178.12" font-family="Helvetica,sans-Serif" font-size="10.00">sys/include/net/gnrc</text>
<text text-anchor="middle" x="772.25" y="-165.38" font-family="Helvetica,sans-Serif" font-size="10.00">/sixlowpan/frag/sfr.h</text>
</a>
</g>
</g>
<!-- Node14&#45;&gt;Node15 -->
<g id="edge18_Node000014_Node000015" class="edge">
<title>Node14&#45;&gt;Node15</title>
<g id="a_edge18_Node000014_Node000015"><a xlink:title=" ">
<path fill="none" stroke="#63b8ff" d="M726.81,-231.13C737.28,-218.4 749.7,-203.29 758.91,-192.09"/>
<polygon fill="#63b8ff" stroke="#63b8ff" points="724.22,-228.77 720.57,-238.72 729.62,-233.22 724.22,-228.77"/>
</a>
</g>
</g>
<!-- Node16 -->
<g id="Node000016" class="node">
<title>Node16</title>
<g id="a_Node000016"><a xlink:href="net_2gnrc_2sixlowpan_2frag_2sfr_2congure_8h.html" target="_top" xlink:title="Congure definitions for 6LoWPAN selective fragment recovery.">
<polygon fill="white" stroke="#666666" points="851.12,-115.75 693.38,-115.75 693.38,-82.25 851.12,-82.25 851.12,-115.75"/>
<text text-anchor="start" x="701.38" y="-102.25" font-family="Helvetica,sans-Serif" font-size="10.00">sys/include/net/gnrc</text>
<text text-anchor="middle" x="772.25" y="-89.5" font-family="Helvetica,sans-Serif" font-size="10.00">/sixlowpan/frag/sfr/congure.h</text>
</a>
</g>
</g>
<!-- Node15&#45;&gt;Node16 -->
<g id="edge19_Node000015_Node000016" class="edge">
<title>Node15&#45;&gt;Node16</title>
<g id="a_edge19_Node000015_Node000016"><a xlink:title=" ">
<path fill="none" stroke="#63b8ff" d="M772.25,-146.49C772.25,-136.22 772.25,-124.9 772.25,-116"/>
<polygon fill="#63b8ff" stroke="#63b8ff" points="768.75,-146.33 772.25,-156.33 775.75,-146.33 768.75,-146.33"/>
</a>
</g>
</g>
<!-- Node16&#45;&gt;Node16 -->
<g id="edge20_Node000016_Node000016" class="edge">
<title>Node16&#45;&gt;Node16</title>
<g id="a_edge20_Node000016_Node000016"><a xlink:title=" ">
<path fill="none" stroke="#63b8ff" d="M862,-108.18C866.48,-105.9 869.12,-102.84 869.12,-99 869.12,-92.7 862.01,-88.49 851.31,-86.38"/>
<polygon fill="#63b8ff" stroke="#63b8ff" points="861.2,-104.76 852.75,-111.16 863.34,-111.43 861.2,-104.76"/>
</a>
</g>
</g>
<!-- Node18 -->
<g id="Node000018" class="node">
<title>Node18</title>
<g id="a_Node000018"><a xlink:href="gnrc_2tcp_8h.html" target="_top" xlink:title="GNRC TCP API.">
<polygon fill="white" stroke="#666666" points="962,-191.62 848.5,-191.62 848.5,-158.12 962,-158.12 962,-191.62"/>
<text text-anchor="start" x="856.5" y="-178.12" font-family="Helvetica,sans-Serif" font-size="10.00">sys/include/net/gnrc</text>
<text text-anchor="middle" x="905.25" y="-165.38" font-family="Helvetica,sans-Serif" font-size="10.00">/tcp.h</text>
</a>
</g>
</g>
<!-- Node17&#45;&gt;Node18 -->
<g id="edge22_Node000017_Node000018" class="edge">
<title>Node17&#45;&gt;Node18</title>
<g id="a_edge22_Node000017_Node000018"><a xlink:title=" ">
<path fill="none" stroke="#63b8ff" d="M1062.12,-235.82C1026.67,-222.27 980.69,-204.7 947.68,-192.09"/>
<polygon fill="#63b8ff" stroke="#63b8ff" points="1060.75,-239.04 1071.34,-239.34 1063.25,-232.51 1060.75,-239.04"/>
</a>
</g>
</g>
<!-- Node19 -->
<g id="Node000019" class="node">
<title>Node19</title>
<g id="a_Node000019"><a xlink:href="gnrc__tcp__common_8h.html" target="_top" xlink:title="Internally used defines, macros and variable declarations.">
<polygon fill="white" stroke="#666666" points="1106.38,-198 980.12,-198 980.12,-151.75 1106.38,-151.75 1106.38,-198"/>
<text text-anchor="start" x="988.12" y="-184.5" font-family="Helvetica,sans-Serif" font-size="10.00">sys/net/gnrc/transport</text>
<text text-anchor="start" x="988.12" y="-171.75" font-family="Helvetica,sans-Serif" font-size="10.00">_layer/tcp/include/gnrc</text>
<text text-anchor="middle" x="1043.25" y="-159" font-family="Helvetica,sans-Serif" font-size="10.00">_tcp_common.h</text>
</a>
</g>
</g>
<!-- Node17&#45;&gt;Node19 -->
<g id="edge23_Node000017_Node000019" class="edge">
<title>Node17&#45;&gt;Node19</title>
<g id="a_edge23_Node000017_Node000019"><a xlink:title=" ">
<path fill="none" stroke="#63b8ff" d="M1093.17,-231.52C1083.72,-220.99 1072.77,-208.77 1063.53,-198.48"/>
<polygon fill="#63b8ff" stroke="#63b8ff" points="1090.39,-233.65 1099.67,-238.76 1095.6,-228.98 1090.39,-233.65"/>
</a>
</g>
</g>
<!-- Node20 -->
<g id="Node000020" class="node">
<title>Node20</title>
<g id="a_Node000020"><a xlink:href="gnrc__tcp__fsm_8h.html" target="_top" xlink:title="TCP finite state maschine declarations.">
<polygon fill="white" stroke="#666666" points="1250.38,-198 1124.12,-198 1124.12,-151.75 1250.38,-151.75 1250.38,-198"/>
<text text-anchor="start" x="1132.12" y="-184.5" font-family="Helvetica,sans-Serif" font-size="10.00">sys/net/gnrc/transport</text>
<text text-anchor="start" x="1132.12" y="-171.75" font-family="Helvetica,sans-Serif" font-size="10.00">_layer/tcp/include/gnrc</text>
<text text-anchor="middle" x="1187.25" y="-159" font-family="Helvetica,sans-Serif" font-size="10.00">_tcp_fsm.h</text>
</a>
</g>
</g>
<!-- Node17&#45;&gt;Node20 -->
<g id="edge24_Node000017_Node000020" class="edge">
<title>Node17&#45;&gt;Node20</title>
<g id="a_edge24_Node000017_Node000020"><a xlink:title=" ">
<path fill="none" stroke="#63b8ff" d="M1137.33,-231.52C1146.78,-220.99 1157.73,-208.77 1166.97,-198.48"/>
<polygon fill="#63b8ff" stroke="#63b8ff" points="1134.9,-228.98 1130.83,-238.76 1140.11,-233.65 1134.9,-228.98"/>
</a>
</g>
</g>
<!-- Node21 -->
<g id="Node000021" class="node">
<title>Node21</title>
<g id="a_Node000021"><a xlink:href="gnrc__tcp__option_8h.html" target="_top" xlink:title="TCP option handling declarations.">
<polygon fill="white" stroke="#666666" points="1394.38,-198 1268.12,-198 1268.12,-151.75 1394.38,-151.75 1394.38,-198"/>
<text text-anchor="start" x="1276.12" y="-184.5" font-family="Helvetica,sans-Serif" font-size="10.00">sys/net/gnrc/transport</text>
<text text-anchor="start" x="1276.12" y="-171.75" font-family="Helvetica,sans-Serif" font-size="10.00">_layer/tcp/include/gnrc</text>
<text text-anchor="middle" x="1331.25" y="-159" font-family="Helvetica,sans-Serif" font-size="10.00">_tcp_option.h</text>
</a>
</g>
</g>
<!-- Node17&#45;&gt;Node21 -->
<g id="edge25_Node000017_Node000021" class="edge">
<title>Node17&#45;&gt;Node21</title>
<g id="a_edge25_Node000017_Node000021"><a xlink:title=" ">
<path fill="none" stroke="#63b8ff" d="M1169.47,-235.98C1200.18,-224.57 1238.68,-210.27 1270.42,-198.48"/>
<polygon fill="#63b8ff" stroke="#63b8ff" points="1168.53,-232.59 1160.38,-239.36 1170.97,-239.16 1168.53,-232.59"/>
</a>
</g>
</g>
<!-- Node22 -->
<g id="Node000022" class="node">
<title>Node22</title>
<g id="a_Node000022"><a xlink:href="gnrc__tcp__pkt_8h.html" target="_top" xlink:title="TCP packet handling declarations.">
<polygon fill="white" stroke="#666666" points="1538.38,-198 1412.12,-198 1412.12,-151.75 1538.38,-151.75 1538.38,-198"/>
<text text-anchor="start" x="1420.12" y="-184.5" font-family="Helvetica,sans-Serif" font-size="10.00">sys/net/gnrc/transport</text>
<text text-anchor="start" x="1420.12" y="-171.75" font-family="Helvetica,sans-Serif" font-size="10.00">_layer/tcp/include/gnrc</text>
<text text-anchor="middle" x="1475.25" y="-159" font-family="Helvetica,sans-Serif" font-size="10.00">_tcp_pkt.h</text>
</a>
</g>
</g>
<!-- Node17&#45;&gt;Node22 -->
<g id="edge26_Node000017_Node000022" class="edge">
<title>Node17&#45;&gt;Node22</title>
<g id="a_edge26_Node000017_Node000022"><a xlink:title=" ">
<path fill="none" stroke="#63b8ff" d="M1171.2,-236.68C1174.59,-235.72 1177.95,-234.81 1181.25,-234 1278.29,-210.04 1305.91,-220.73 1403.25,-198 1406.05,-197.35 1408.9,-196.64 1411.78,-195.9"/>
<polygon fill="#63b8ff" stroke="#63b8ff" points="1170.44,-233.25 1161.86,-239.47 1172.44,-239.96 1170.44,-233.25"/>
</a>
</g>
</g>
<!-- Node23 -->
<g id="Node000023" class="node">
<title>Node23</title>
<g id="a_Node000023"><a xlink:href="gnrc__tcp__rcvbuf_8h.html" target="_top" xlink:title="Functions for allocating and freeing the receive buffer.">
<polygon fill="white" stroke="#666666" points="1682.38,-198 1556.12,-198 1556.12,-151.75 1682.38,-151.75 1682.38,-198"/>
<text text-anchor="start" x="1564.12" y="-184.5" font-family="Helvetica,sans-Serif" font-size="10.00">sys/net/gnrc/transport</text>
<text text-anchor="start" x="1564.12" y="-171.75" font-family="Helvetica,sans-Serif" font-size="10.00">_layer/tcp/include/gnrc</text>
<text text-anchor="middle" x="1619.25" y="-159" font-family="Helvetica,sans-Serif" font-size="10.00">_tcp_rcvbuf.h</text>
</a>
</g>
</g>
<!-- Node17&#45;&gt;Node23 -->
<g id="edge27_Node000017_Node000023" class="edge">
<title>Node17&#45;&gt;Node23</title>
<g id="a_edge27_Node000017_Node000023"><a xlink:title=" ">
<path fill="none" stroke="#63b8ff" d="M1169.74,-236.81C1173.61,-235.76 1177.47,-234.81 1181.25,-234 1341.09,-199.81 1386.99,-230.17 1547.25,-198 1550.07,-197.43 1552.94,-196.8 1555.82,-196.12"/>
<polygon fill="#63b8ff" stroke="#63b8ff" points="1168.96,-233.39 1160.34,-239.54 1170.92,-240.11 1168.96,-233.39"/>
</a>
</g>
</g>
</g>
</svg>
