<?xml version="1.0" encoding="UTF-8" standalone="no"?>
<!DOCTYPE svg PUBLIC "-//W3C//DTD SVG 1.1//EN"
 "http://www.w3.org/Graphics/SVG/1.1/DTD/svg11.dtd">
<!-- Generated by graphviz version 12.1.2 (0)
 -->
<!-- Title: sys/include/net/nanocoap/fileserver.h Pages: 1 -->
<svg width="1251pt" height="496pt"
 viewBox="0.00 0.00 1250.62 495.50" xmlns="http://www.w3.org/2000/svg" xmlns:xlink="http://www.w3.org/1999/xlink">
<g id="graph0" class="graph" transform="scale(1 1) rotate(0) translate(4 491.5)">
<title>sys/include/net/nanocoap/fileserver.h</title>
<!-- Node1 -->
<g id="Node000001" class="node">
<title>Node1</title>
<g id="a_Node000001"><a xlink:title="Resource handler for the CoAP file system server.">
<polygon fill="#999999" stroke="#666666" points="765.38,-487.5 625.62,-487.5 625.62,-454 765.38,-454 765.38,-487.5"/>
<text text-anchor="start" x="633.62" y="-474" font-family="Helvetica,sans-Serif" font-size="10.00">sys/include/net/nanocoap</text>
<text text-anchor="middle" x="695.5" y="-461.25" font-family="Helvetica,sans-Serif" font-size="10.00">/fileserver.h</text>
</a>
</g>
</g>
<!-- Node2 -->
<g id="Node000002" class="node">
<title>Node2</title>
<g id="a_Node000002"><a xlink:href="nanocoap_8h.html" target="_top" xlink:title="nanocoap API">
<polygon fill="white" stroke="#666666" points="741,-418 650,-418 650,-397.25 741,-397.25 741,-418"/>
<text text-anchor="middle" x="695.5" y="-404.5" font-family="Helvetica,sans-Serif" font-size="10.00">net/nanocoap.h</text>
</a>
</g>
</g>
<!-- Node1&#45;&gt;Node2 -->
<g id="edge1_Node000001_Node000002" class="edge">
<title>Node1&#45;&gt;Node2</title>
<g id="a_edge1_Node000001_Node000002"><a xlink:title=" ">
<path fill="none" stroke="#63b8ff" d="M695.5,-453.69C695.5,-446.35 695.5,-437.57 695.5,-429.71"/>
<polygon fill="#63b8ff" stroke="#63b8ff" points="699,-429.98 695.5,-419.98 692,-429.98 699,-429.98"/>
</a>
</g>
</g>
<!-- Node3 -->
<g id="Node000003" class="node">
<title>Node3</title>
<g id="a_Node000003"><a xlink:href="assert_8h.html" target="_top" xlink:title="POSIX.1&#45;2008 compliant version of the assert macro.">
<polygon fill="white" stroke="#666666" points="55,-247.75 0,-247.75 0,-227 55,-227 55,-247.75"/>
<text text-anchor="middle" x="27.5" y="-234.25" font-family="Helvetica,sans-Serif" font-size="10.00">assert.h</text>
</a>
</g>
</g>
<!-- Node2&#45;&gt;Node3 -->
<g id="edge2_Node000002_Node000003" class="edge">
<title>Node2&#45;&gt;Node3</title>
<g id="a_edge2_Node000002_Node000003"><a xlink:title=" ">
<path fill="none" stroke="#63b8ff" d="M649.6,-406C539.68,-403.95 264.24,-395.47 179.5,-361.25 121.55,-337.85 68.31,-284.52 42.99,-256.44"/>
<polygon fill="#63b8ff" stroke="#63b8ff" points="45.76,-254.28 36.52,-249.1 40.51,-258.91 45.76,-254.28"/>
</a>
</g>
</g>
<!-- Node4 -->
<g id="Node000004" class="node">
<title>Node4</title>
<g id="a_Node000004"><a xlink:title=" ">
<polygon fill="#e0e0e0" stroke="#999999" points="386.88,-20.75 334.12,-20.75 334.12,0 386.88,0 386.88,-20.75"/>
<text text-anchor="middle" x="360.5" y="-7.25" font-family="Helvetica,sans-Serif" font-size="10.00">stdint.h</text>
</a>
</g>
</g>
<!-- Node2&#45;&gt;Node4 -->
<g id="edge5_Node000002_Node000004" class="edge">
<title>Node2&#45;&gt;Node4</title>
<g id="a_edge5_Node000002_Node000004"><a xlink:title=" ">
<path fill="none" stroke="#63b8ff" d="M741.09,-405.48C859.29,-401.27 1166.5,-381.99 1166.5,-295.12 1166.5,-295.12 1166.5,-295.12 1166.5,-122.88 1166.5,-44.32 558.01,-18.1 398.44,-12.57"/>
<polygon fill="#63b8ff" stroke="#63b8ff" points="398.94,-9.09 388.83,-12.25 398.71,-16.08 398.94,-9.09"/>
</a>
</g>
</g>
<!-- Node5 -->
<g id="Node000005" class="node">
<title>Node5</title>
<g id="a_Node000005"><a xlink:href="errno_8h.html" target="_top" xlink:title=" ">
<polygon fill="white" stroke="#666666" points="667.75,-247.75 617.25,-247.75 617.25,-227 667.75,-227 667.75,-247.75"/>
<text text-anchor="middle" x="642.5" y="-234.25" font-family="Helvetica,sans-Serif" font-size="10.00">errno.h</text>
</a>
</g>
</g>
<!-- Node2&#45;&gt;Node5 -->
<g id="edge4_Node000002_Node000005" class="edge">
<title>Node2&#45;&gt;Node5</title>
<g id="a_edge4_Node000002_Node000005"><a xlink:title=" ">
<path fill="none" stroke="#63b8ff" d="M692.5,-397.1C684.16,-370.62 660.55,-295.68 649.01,-259.05"/>
<polygon fill="#63b8ff" stroke="#63b8ff" points="652.4,-258.15 646.06,-249.66 645.72,-260.25 652.4,-258.15"/>
</a>
</g>
</g>
<!-- Node6 -->
<g id="Node000006" class="node">
<title>Node6</title>
<g id="a_Node000006"><a xlink:title=" ">
<polygon fill="#e0e0e0" stroke="#999999" points="385,-134.25 324,-134.25 324,-113.5 385,-113.5 385,-134.25"/>
<text text-anchor="middle" x="354.5" y="-120.75" font-family="Helvetica,sans-Serif" font-size="10.00">stdbool.h</text>
</a>
</g>
</g>
<!-- Node2&#45;&gt;Node6 -->
<g id="edge6_Node000002_Node000006" class="edge">
<title>Node2&#45;&gt;Node6</title>
<g id="a_edge6_Node000002_Node000006"><a xlink:title=" ">
<path fill="none" stroke="#63b8ff" d="M697.84,-397C704.4,-367.54 719.77,-277.47 676.5,-227 635.8,-179.53 600.23,-209.49 540.5,-191 487.61,-174.63 427.4,-152.59 390.17,-138.55"/>
<polygon fill="#63b8ff" stroke="#63b8ff" points="391.86,-135.45 381.26,-135.18 389.38,-141.99 391.86,-135.45"/>
</a>
</g>
</g>
<!-- Node7 -->
<g id="Node000007" class="node">
<title>Node7</title>
<g id="a_Node000007"><a xlink:title=" ">
<polygon fill="#e0e0e0" stroke="#999999" points="267,-134.25 212,-134.25 212,-113.5 267,-113.5 267,-134.25"/>
<text text-anchor="middle" x="239.5" y="-120.75" font-family="Helvetica,sans-Serif" font-size="10.00">stddef.h</text>
</a>
</g>
</g>
<!-- Node2&#45;&gt;Node7 -->
<g id="edge7_Node000002_Node000007" class="edge">
<title>Node2&#45;&gt;Node7</title>
<g id="a_edge7_Node000002_Node000007"><a xlink:title=" ">
<path fill="none" stroke="#63b8ff" d="M649.68,-404.7C558.43,-398.23 353.88,-370.09 250.5,-247.75 226.39,-219.22 230.02,-172.55 234.79,-145.68"/>
<polygon fill="#63b8ff" stroke="#63b8ff" points="238.19,-146.54 236.73,-136.04 231.33,-145.15 238.19,-146.54"/>
</a>
</g>
</g>
<!-- Node8 -->
<g id="Node000008" class="node">
<title>Node8</title>
<g id="a_Node000008"><a xlink:title=" ">
<polygon fill="#e0e0e0" stroke="#999999" points="581.88,-77.5 529.12,-77.5 529.12,-56.75 581.88,-56.75 581.88,-77.5"/>
<text text-anchor="middle" x="555.5" y="-64" font-family="Helvetica,sans-Serif" font-size="10.00">string.h</text>
</a>
</g>
</g>
<!-- Node2&#45;&gt;Node8 -->
<g id="edge8_Node000002_Node000008" class="edge">
<title>Node2&#45;&gt;Node8</title>
<g id="a_edge8_Node000002_Node000008"><a xlink:title=" ">
<path fill="none" stroke="#63b8ff" d="M702.04,-397.06C707.66,-388.21 715.34,-374.48 718.5,-361.25 732.54,-302.51 738.96,-270.92 697.5,-227 669.06,-196.87 641.25,-219.84 611.5,-191 582.15,-162.55 566.8,-115.84 560,-88.95"/>
<polygon fill="#63b8ff" stroke="#63b8ff" points="563.42,-88.23 557.73,-79.29 556.61,-89.83 563.42,-88.23"/>
</a>
</g>
</g>
<!-- Node9 -->
<g id="Node000009" class="node">
<title>Node9</title>
<g id="a_Node000009"><a xlink:href="net_2coap_8h.html" target="_top" xlink:title="Generic CoAP values as defined by RFC7252.">
<polygon fill="white" stroke="#666666" points="1242.62,-361.25 1194.38,-361.25 1194.38,-340.5 1242.62,-340.5 1242.62,-361.25"/>
<text text-anchor="middle" x="1218.5" y="-347.75" font-family="Helvetica,sans-Serif" font-size="10.00">coap.h</text>
</a>
</g>
</g>
<!-- Node2&#45;&gt;Node9 -->
<g id="edge9_Node000002_Node000009" class="edge">
<title>Node2&#45;&gt;Node9</title>
<g id="a_edge9_Node000002_Node000009"><a xlink:title=" ">
<path fill="none" stroke="#63b8ff" d="M741.26,-404.61C827.64,-400.32 1020.4,-388.33 1180.5,-361.25 1181.33,-361.11 1182.17,-360.96 1183.01,-360.81"/>
<polygon fill="#63b8ff" stroke="#63b8ff" points="1183.54,-364.27 1192.6,-358.78 1182.09,-357.42 1183.54,-364.27"/>
</a>
</g>
</g>
<!-- Node10 -->
<g id="Node000010" class="node">
<title>Node10</title>
<g id="a_Node000010"><a xlink:href="inet_8h.html" target="_top" xlink:title="Definitions for internet operations.">
<polygon fill="white" stroke="#666666" points="836.75,-361.25 768.25,-361.25 768.25,-340.5 836.75,-340.5 836.75,-361.25"/>
<text text-anchor="middle" x="802.5" y="-347.75" font-family="Helvetica,sans-Serif" font-size="10.00">arpa/inet.h</text>
</a>
</g>
</g>
<!-- Node2&#45;&gt;Node10 -->
<g id="edge10_Node000002_Node000010" class="edge">
<title>Node2&#45;&gt;Node10</title>
<g id="a_edge10_Node000002_Node000010"><a xlink:title=" ">
<path fill="none" stroke="#63b8ff" d="M714.63,-396.84C730.99,-388.47 754.78,-376.29 773.48,-366.72"/>
<polygon fill="#63b8ff" stroke="#63b8ff" points="774.88,-369.94 782.19,-362.27 771.69,-363.71 774.88,-369.94"/>
</a>
</g>
</g>
<!-- Node29 -->
<g id="Node000029" class="node">
<title>Node29</title>
<g id="a_Node000029"><a xlink:href="sock_2udp_8h.html" target="_top" xlink:title="UDP sock definitions.">
<polygon fill="white" stroke="#666666" points="484.12,-304.5 396.88,-304.5 396.88,-283.75 484.12,-283.75 484.12,-304.5"/>
<text text-anchor="middle" x="440.5" y="-291" font-family="Helvetica,sans-Serif" font-size="10.00">net/sock/udp.h</text>
</a>
</g>
</g>
<!-- Node2&#45;&gt;Node29 -->
<g id="edge48_Node000002_Node000029" class="edge">
<title>Node2&#45;&gt;Node29</title>
<g id="a_edge48_Node000002_Node000029"><a xlink:title=" ">
<path fill="none" stroke="#63b8ff" d="M673.32,-396.93C628.29,-377.24 526,-332.51 473.27,-309.46"/>
<polygon fill="#63b8ff" stroke="#63b8ff" points="474.77,-306.29 464.2,-305.49 471.96,-312.7 474.77,-306.29"/>
</a>
</g>
</g>
<!-- Node3&#45;&gt;Node4 -->
<g id="edge3_Node000003_Node000004" class="edge">
<title>Node3&#45;&gt;Node4</title>
<g id="a_edge3_Node000003_Node000004"><a xlink:title=" ">
<path fill="none" stroke="#63b8ff" d="M26.12,-226.83C22.37,-196.79 15.34,-103.47 64.5,-56.75 101,-22.06 251.75,-13.89 322.94,-11.97"/>
<polygon fill="#63b8ff" stroke="#63b8ff" points="322.63,-15.47 332.55,-11.74 322.47,-8.48 322.63,-15.47"/>
</a>
</g>
</g>
<!-- Node11 -->
<g id="Node000011" class="node">
<title>Node11</title>
<g id="a_Node000011"><a xlink:href="af_8h.html" target="_top" xlink:title="Global UNIX address family definitions.">
<polygon fill="white" stroke="#666666" points="672.88,-191 620.12,-191 620.12,-170.25 672.88,-170.25 672.88,-191"/>
<text text-anchor="middle" x="646.5" y="-177.5" font-family="Helvetica,sans-Serif" font-size="10.00">net/af.h</text>
</a>
</g>
</g>
<!-- Node10&#45;&gt;Node11 -->
<g id="edge11_Node000010_Node000011" class="edge">
<title>Node10&#45;&gt;Node11</title>
<g id="a_edge11_Node000010_Node000011"><a xlink:title=" ">
<path fill="none" stroke="#63b8ff" d="M800.64,-340.24C795.82,-317.6 780.86,-260.41 747.5,-227 737.92,-217.4 708.21,-204.6 683.47,-195.04"/>
<polygon fill="#63b8ff" stroke="#63b8ff" points="684.91,-191.84 674.32,-191.57 682.43,-198.38 684.91,-191.84"/>
</a>
</g>
</g>
<!-- Node12 -->
<g id="Node000012" class="node">
<title>Node12</title>
<g id="a_Node000012"><a xlink:href="bytes_8h.html" target="_top" xlink:title="System&#45;internal byte operations.">
<polygon fill="white" stroke="#666666" points="762.25,-191 690.75,-191 690.75,-170.25 762.25,-170.25 762.25,-191"/>
<text text-anchor="middle" x="726.5" y="-177.5" font-family="Helvetica,sans-Serif" font-size="10.00">sys/bytes.h</text>
</a>
</g>
</g>
<!-- Node10&#45;&gt;Node12 -->
<g id="edge12_Node000010_Node000012" class="edge">
<title>Node10&#45;&gt;Node12</title>
<g id="a_edge12_Node000010_Node000012"><a xlink:title=" ">
<path fill="none" stroke="#63b8ff" d="M803.52,-340.15C805.34,-318.29 807.14,-264.24 785.5,-227 778.47,-214.9 766.83,-204.92 755.74,-197.43"/>
<polygon fill="#63b8ff" stroke="#63b8ff" points="757.88,-194.64 747.55,-192.3 754.17,-200.57 757.88,-194.64"/>
</a>
</g>
</g>
<!-- Node16 -->
<g id="Node000016" class="node">
<title>Node16</title>
<g id="a_Node000016"><a xlink:href="in_8h.html" target="_top" xlink:title="Main socket header.">
<polygon fill="white" stroke="#666666" points="929.25,-304.5 857.75,-304.5 857.75,-283.75 929.25,-283.75 929.25,-304.5"/>
<text text-anchor="middle" x="893.5" y="-291" font-family="Helvetica,sans-Serif" font-size="10.00">netinet/in.h</text>
</a>
</g>
</g>
<!-- Node10&#45;&gt;Node16 -->
<g id="edge21_Node000010_Node000016" class="edge">
<title>Node10&#45;&gt;Node16</title>
<g id="a_edge21_Node000010_Node000016"><a xlink:title=" ">
<path fill="none" stroke="#63b8ff" d="M818.77,-340.09C832.36,-331.91 851.97,-320.11 867.7,-310.65"/>
<polygon fill="#63b8ff" stroke="#63b8ff" points="869.31,-313.76 876.07,-305.61 865.7,-307.77 869.31,-313.76"/>
</a>
</g>
</g>
<!-- Node12&#45;&gt;Node7 -->
<g id="edge13_Node000012_Node000007" class="edge">
<title>Node12&#45;&gt;Node7</title>
<g id="a_edge13_Node000012_Node000007"><a xlink:title=" ">
<path fill="none" stroke="#63b8ff" d="M690.7,-171.8C687.6,-171.24 684.5,-170.71 681.5,-170.25 519.49,-145.5 477.38,-152.42 314.5,-134.25 302.76,-132.94 290.01,-131.39 278.4,-129.94"/>
<polygon fill="#63b8ff" stroke="#63b8ff" points="279.12,-126.5 268.76,-128.71 278.24,-133.45 279.12,-126.5"/>
</a>
</g>
</g>
<!-- Node13 -->
<g id="Node000013" class="node">
<title>Node13</title>
<g id="a_Node000013"><a xlink:href="byteorder_8h.html" target="_top" xlink:title="Functions to work with different byte orders.">
<polygon fill="white" stroke="#666666" points="475.62,-134.25 403.38,-134.25 403.38,-113.5 475.62,-113.5 475.62,-134.25"/>
<text text-anchor="middle" x="439.5" y="-120.75" font-family="Helvetica,sans-Serif" font-size="10.00">byteorder.h</text>
</a>
</g>
</g>
<!-- Node12&#45;&gt;Node13 -->
<g id="edge14_Node000012_Node000013" class="edge">
<title>Node12&#45;&gt;Node13</title>
<g id="a_edge14_Node000012_Node000013"><a xlink:title=" ">
<path fill="none" stroke="#63b8ff" d="M690.65,-172.09C687.56,-171.46 684.47,-170.84 681.5,-170.25 614.15,-156.92 536.04,-142.46 487.2,-133.53"/>
<polygon fill="#63b8ff" stroke="#63b8ff" points="487.99,-130.11 477.52,-131.76 486.73,-137 487.99,-130.11"/>
</a>
</g>
</g>
<!-- Node13&#45;&gt;Node4 -->
<g id="edge16_Node000013_Node000004" class="edge">
<title>Node13&#45;&gt;Node4</title>
<g id="a_edge16_Node000013_Node000004"><a xlink:title=" ">
<path fill="none" stroke="#63b8ff" d="M435.91,-113.35C430.63,-99.98 419.91,-75.24 406.5,-56.75 399.07,-46.51 389.25,-36.48 380.6,-28.47"/>
<polygon fill="#63b8ff" stroke="#63b8ff" points="383.07,-25.98 373.28,-21.93 378.41,-31.2 383.07,-25.98"/>
</a>
</g>
</g>
<!-- Node13&#45;&gt;Node8 -->
<g id="edge15_Node000013_Node000008" class="edge">
<title>Node13&#45;&gt;Node8</title>
<g id="a_edge15_Node000013_Node000008"><a xlink:title=" ">
<path fill="none" stroke="#63b8ff" d="M460.24,-113.09C478.14,-104.64 504.24,-92.32 524.6,-82.71"/>
<polygon fill="#63b8ff" stroke="#63b8ff" points="526.02,-85.91 533.57,-78.47 523.04,-79.58 526.02,-85.91"/>
</a>
</g>
</g>
<!-- Node14 -->
<g id="Node000014" class="node">
<title>Node14</title>
<g id="a_Node000014"><a xlink:href="endian_8h.html" target="_top" xlink:title="libc header for endian conversion">
<polygon fill="white" stroke="#666666" points="511.5,-77.5 453.5,-77.5 453.5,-56.75 511.5,-56.75 511.5,-77.5"/>
<text text-anchor="middle" x="482.5" y="-64" font-family="Helvetica,sans-Serif" font-size="10.00">endian.h</text>
</a>
</g>
</g>
<!-- Node13&#45;&gt;Node14 -->
<g id="edge17_Node000013_Node000014" class="edge">
<title>Node13&#45;&gt;Node14</title>
<g id="a_edge17_Node000013_Node000014"><a xlink:title=" ">
<path fill="none" stroke="#63b8ff" d="M447.19,-113.09C452.94,-105.77 460.97,-95.54 467.92,-86.69"/>
<polygon fill="#63b8ff" stroke="#63b8ff" points="470.52,-89.05 473.94,-79.02 465.01,-84.72 470.52,-89.05"/>
</a>
</g>
</g>
<!-- Node15 -->
<g id="Node000015" class="node">
<title>Node15</title>
<g id="a_Node000015"><a xlink:href="unaligned_8h.html" target="_top" xlink:title="Unaligned but safe memory access functions.">
<polygon fill="white" stroke="#666666" points="397,-77.5 324,-77.5 324,-56.75 397,-56.75 397,-77.5"/>
<text text-anchor="middle" x="360.5" y="-64" font-family="Helvetica,sans-Serif" font-size="10.00">unaligned.h</text>
</a>
</g>
</g>
<!-- Node13&#45;&gt;Node15 -->
<g id="edge19_Node000013_Node000015" class="edge">
<title>Node13&#45;&gt;Node15</title>
<g id="a_edge19_Node000013_Node000015"><a xlink:title=" ">
<path fill="none" stroke="#63b8ff" d="M425.38,-113.09C413.81,-105.07 397.2,-93.56 383.68,-84.19"/>
<polygon fill="#63b8ff" stroke="#63b8ff" points="385.96,-81.51 375.75,-78.69 381.97,-87.26 385.96,-81.51"/>
</a>
</g>
</g>
<!-- Node14&#45;&gt;Node4 -->
<g id="edge18_Node000014_Node000004" class="edge">
<title>Node14&#45;&gt;Node4</title>
<g id="a_edge18_Node000014_Node000004"><a xlink:title=" ">
<path fill="none" stroke="#63b8ff" d="M460.69,-56.34C441.69,-47.81 413.9,-35.34 392.41,-25.69"/>
<polygon fill="#63b8ff" stroke="#63b8ff" points="394.06,-22.6 383.5,-21.7 391.19,-28.99 394.06,-22.6"/>
</a>
</g>
</g>
<!-- Node15&#45;&gt;Node4 -->
<g id="edge20_Node000015_Node000004" class="edge">
<title>Node15&#45;&gt;Node4</title>
<g id="a_edge20_Node000015_Node000004"><a xlink:title=" ">
<path fill="none" stroke="#63b8ff" d="M360.5,-56.34C360.5,-49.72 360.5,-40.72 360.5,-32.52"/>
<polygon fill="#63b8ff" stroke="#63b8ff" points="364,-32.59 360.5,-22.59 357,-32.59 364,-32.59"/>
</a>
</g>
</g>
<!-- Node16&#45;&gt;Node12 -->
<g id="edge47_Node000016_Node000012" class="edge">
<title>Node16&#45;&gt;Node12</title>
<g id="a_edge47_Node000016_Node000012"><a xlink:title=" ">
<path fill="none" stroke="#63b8ff" d="M885.23,-283.58C872.88,-269.74 848.38,-243.92 823.5,-227 804.99,-214.41 782.45,-203.63 763.75,-195.74"/>
<polygon fill="#63b8ff" stroke="#63b8ff" points="765.22,-192.56 754.64,-192.01 762.57,-199.04 765.22,-192.56"/>
</a>
</g>
</g>
<!-- Node17 -->
<g id="Node000017" class="node">
<title>Node17</title>
<g id="a_Node000017"><a xlink:href="inttypes_8h.html" target="_top" xlink:title="Adds include for missing inttype definitions.">
<polygon fill="white" stroke="#666666" points="1138.88,-134.25 1074.12,-134.25 1074.12,-113.5 1138.88,-113.5 1138.88,-134.25"/>
<text text-anchor="middle" x="1106.5" y="-120.75" font-family="Helvetica,sans-Serif" font-size="10.00">inttypes.h</text>
</a>
</g>
</g>
<!-- Node16&#45;&gt;Node17 -->
<g id="edge22_Node000016_Node000017" class="edge">
<title>Node16&#45;&gt;Node17</title>
<g id="a_edge22_Node000016_Node000017"><a xlink:title=" ">
<path fill="none" stroke="#63b8ff" d="M929.59,-292.64C967.53,-290.26 1026.83,-280.96 1064.5,-247.75 1094.14,-221.62 1102.88,-173.69 1105.45,-146.04"/>
<polygon fill="#63b8ff" stroke="#63b8ff" points="1108.93,-146.34 1106.15,-136.11 1101.95,-145.84 1108.93,-146.34"/>
</a>
</g>
</g>
<!-- Node18 -->
<g id="Node000018" class="node">
<title>Node18</title>
<g id="a_Node000018"><a xlink:href="socket_8h.html" target="_top" xlink:title="Main socket header.">
<polygon fill="white" stroke="#666666" points="951.5,-247.75 875.5,-247.75 875.5,-227 951.5,-227 951.5,-247.75"/>
<text text-anchor="middle" x="913.5" y="-234.25" font-family="Helvetica,sans-Serif" font-size="10.00">sys/socket.h</text>
</a>
</g>
</g>
<!-- Node16&#45;&gt;Node18 -->
<g id="edge23_Node000016_Node000018" class="edge">
<title>Node16&#45;&gt;Node18</title>
<g id="a_edge23_Node000016_Node000018"><a xlink:title=" ">
<path fill="none" stroke="#63b8ff" d="M897.08,-283.34C899.58,-276.49 903.01,-267.09 906.09,-258.65"/>
<polygon fill="#63b8ff" stroke="#63b8ff" points="909.29,-260.09 909.44,-249.5 902.72,-257.69 909.29,-260.09"/>
</a>
</g>
</g>
<!-- Node26 -->
<g id="Node000026" class="node">
<title>Node26</title>
<g id="a_Node000026"><a xlink:href="protnum_8h.html" target="_top" xlink:title="Protocol number definitions.">
<polygon fill="white" stroke="#666666" points="1055,-247.75 970,-247.75 970,-227 1055,-227 1055,-247.75"/>
<text text-anchor="middle" x="1012.5" y="-234.25" font-family="Helvetica,sans-Serif" font-size="10.00">net/protnum.h</text>
</a>
</g>
</g>
<!-- Node16&#45;&gt;Node26 -->
<g id="edge37_Node000016_Node000026" class="edge">
<title>Node16&#45;&gt;Node26</title>
<g id="a_edge37_Node000016_Node000026"><a xlink:title=" ">
<path fill="none" stroke="#63b8ff" d="M914.77,-283.34C933.22,-274.85 960.16,-262.45 981.09,-252.83"/>
<polygon fill="#63b8ff" stroke="#63b8ff" points="982.41,-256.07 990.03,-248.71 979.49,-249.71 982.41,-256.07"/>
</a>
</g>
</g>
<!-- Node27 -->
<g id="Node000027" class="node">
<title>Node27</title>
<g id="a_Node000027"><a xlink:href="ipv6_2addr_8h.html" target="_top" xlink:title="Definitions for IPv6 addresses.">
<polygon fill="white" stroke="#666666" points="485.25,-247.75 395.75,-247.75 395.75,-227 485.25,-227 485.25,-247.75"/>
<text text-anchor="middle" x="440.5" y="-234.25" font-family="Helvetica,sans-Serif" font-size="10.00">net/ipv6/addr.h</text>
</a>
</g>
</g>
<!-- Node16&#45;&gt;Node27 -->
<g id="edge38_Node000016_Node000027" class="edge">
<title>Node16&#45;&gt;Node27</title>
<g id="a_edge38_Node000016_Node000027"><a xlink:title=" ">
<path fill="none" stroke="#63b8ff" d="M857.58,-288.78C779.03,-279.29 591.5,-256.62 496.99,-245.2"/>
<polygon fill="#63b8ff" stroke="#63b8ff" points="497.51,-241.74 487.17,-244.01 496.67,-248.69 497.51,-241.74"/>
</a>
</g>
</g>
<!-- Node18&#45;&gt;Node11 -->
<g id="edge35_Node000018_Node000011" class="edge">
<title>Node18&#45;&gt;Node11</title>
<g id="a_edge35_Node000018_Node000011"><a xlink:title=" ">
<path fill="none" stroke="#63b8ff" d="M875.15,-229.71C831.26,-221.89 756.98,-208.12 684.37,-191.55"/>
<polygon fill="#63b8ff" stroke="#63b8ff" points="685.21,-188.15 674.68,-189.32 683.64,-194.98 685.21,-188.15"/>
</a>
</g>
</g>
<!-- Node18&#45;&gt;Node12 -->
<g id="edge36_Node000018_Node000012" class="edge">
<title>Node18&#45;&gt;Node12</title>
<g id="a_edge36_Node000018_Node000012"><a xlink:title=" ">
<path fill="none" stroke="#63b8ff" d="M880.07,-226.59C849.58,-217.66 804.32,-204.41 770.83,-194.6"/>
<polygon fill="#63b8ff" stroke="#63b8ff" points="771.99,-191.3 761.41,-191.85 770.02,-198.01 771.99,-191.3"/>
</a>
</g>
</g>
<!-- Node19 -->
<g id="Node000019" class="node">
<title>Node19</title>
<g id="a_Node000019"><a xlink:title=" ">
<polygon fill="#e0e0e0" stroke="#999999" points="946.5,-191 882.5,-191 882.5,-170.25 946.5,-170.25 946.5,-191"/>
<text text-anchor="middle" x="914.5" y="-177.5" font-family="Helvetica,sans-Serif" font-size="10.00">stdalign.h</text>
</a>
</g>
</g>
<!-- Node18&#45;&gt;Node19 -->
<g id="edge24_Node000018_Node000019" class="edge">
<title>Node18&#45;&gt;Node19</title>
<g id="a_edge24_Node000018_Node000019"><a xlink:title=" ">
<path fill="none" stroke="#63b8ff" d="M913.68,-226.59C913.8,-219.97 913.96,-210.97 914.11,-202.77"/>
<polygon fill="#63b8ff" stroke="#63b8ff" points="917.61,-202.9 914.3,-192.84 910.61,-202.78 917.61,-202.9"/>
</a>
</g>
</g>
<!-- Node20 -->
<g id="Node000020" class="node">
<title>Node20</title>
<g id="a_Node000020"><a xlink:title=" ">
<polygon fill="#e0e0e0" stroke="#999999" points="966.5,-134.25 914.5,-134.25 914.5,-113.5 966.5,-113.5 966.5,-134.25"/>
<text text-anchor="middle" x="940.5" y="-120.75" font-family="Helvetica,sans-Serif" font-size="10.00">stdlib.h</text>
</a>
</g>
</g>
<!-- Node18&#45;&gt;Node20 -->
<g id="edge25_Node000018_Node000020" class="edge">
<title>Node18&#45;&gt;Node20</title>
<g id="a_edge25_Node000018_Node000020"><a xlink:title=" ">
<path fill="none" stroke="#63b8ff" d="M926.93,-226.52C936.93,-218.3 949.78,-205.59 955.5,-191 961.4,-175.93 956.64,-157.97 950.96,-144.58"/>
<polygon fill="#63b8ff" stroke="#63b8ff" points="954.3,-143.45 946.84,-135.93 947.98,-146.46 954.3,-143.45"/>
</a>
</g>
</g>
<!-- Node21 -->
<g id="Node000021" class="node">
<title>Node21</title>
<g id="a_Node000021"><a xlink:title=" ">
<polygon fill="#e0e0e0" stroke="#999999" points="1056.25,-134.25 984.75,-134.25 984.75,-113.5 1056.25,-113.5 1056.25,-134.25"/>
<text text-anchor="middle" x="1020.5" y="-120.75" font-family="Helvetica,sans-Serif" font-size="10.00">sys/types.h</text>
</a>
</g>
</g>
<!-- Node18&#45;&gt;Node21 -->
<g id="edge26_Node000018_Node000021" class="edge">
<title>Node18&#45;&gt;Node21</title>
<g id="a_edge26_Node000018_Node000021"><a xlink:title=" ">
<path fill="none" stroke="#63b8ff" d="M951.76,-227.91C996.13,-217.72 1064.16,-200.75 1071.5,-191 1084.42,-173.84 1065.3,-154.39 1046.9,-141.05"/>
<polygon fill="#63b8ff" stroke="#63b8ff" points="1049.01,-138.25 1038.77,-135.53 1045.07,-144.04 1049.01,-138.25"/>
</a>
</g>
</g>
<!-- Node22 -->
<g id="Node000022" class="node">
<title>Node22</title>
<g id="a_Node000022"><a xlink:href="uio_8h.html" target="_top" xlink:title="libc header for scatter/gather I/O">
<polygon fill="white" stroke="#666666" points="1062.25,-191 1002.75,-191 1002.75,-170.25 1062.25,-170.25 1062.25,-191"/>
<text text-anchor="middle" x="1032.5" y="-177.5" font-family="Helvetica,sans-Serif" font-size="10.00">sys/uio.h</text>
</a>
</g>
</g>
<!-- Node18&#45;&gt;Node22 -->
<g id="edge27_Node000018_Node000022" class="edge">
<title>Node18&#45;&gt;Node22</title>
<g id="a_edge27_Node000018_Node000022"><a xlink:title=" ">
<path fill="none" stroke="#63b8ff" d="M934.77,-226.59C953.22,-218.1 980.16,-205.7 1001.09,-196.08"/>
<polygon fill="#63b8ff" stroke="#63b8ff" points="1002.41,-199.32 1010.03,-191.96 999.49,-192.96 1002.41,-199.32"/>
</a>
</g>
</g>
<!-- Node23 -->
<g id="Node000023" class="node">
<title>Node23</title>
<g id="a_Node000023"><a xlink:href="architecture_8h.html" target="_top" xlink:title="Platform&#45;independent access to architecture details.">
<polygon fill="white" stroke="#666666" points="864.25,-191 780.75,-191 780.75,-170.25 864.25,-170.25 864.25,-191"/>
<text text-anchor="middle" x="822.5" y="-177.5" font-family="Helvetica,sans-Serif" font-size="10.00">architecture.h</text>
</a>
</g>
</g>
<!-- Node18&#45;&gt;Node23 -->
<g id="edge30_Node000018_Node000023" class="edge">
<title>Node18&#45;&gt;Node23</title>
<g id="a_edge30_Node000018_Node000023"><a xlink:title=" ">
<path fill="none" stroke="#63b8ff" d="M897.23,-226.59C883.64,-218.41 864.03,-206.61 848.3,-197.15"/>
<polygon fill="#63b8ff" stroke="#63b8ff" points="850.3,-194.27 839.93,-192.11 846.69,-200.26 850.3,-194.27"/>
</a>
</g>
</g>
<!-- Node22&#45;&gt;Node20 -->
<g id="edge28_Node000022_Node000020" class="edge">
<title>Node22&#45;&gt;Node20</title>
<g id="a_edge28_Node000022_Node000020"><a xlink:title=" ">
<path fill="none" stroke="#63b8ff" d="M1016.05,-169.84C1002.32,-161.66 982.48,-149.86 966.58,-140.4"/>
<polygon fill="#63b8ff" stroke="#63b8ff" points="968.49,-137.46 958.11,-135.35 964.91,-143.47 968.49,-137.46"/>
</a>
</g>
</g>
<!-- Node22&#45;&gt;Node21 -->
<g id="edge29_Node000022_Node000021" class="edge">
<title>Node22&#45;&gt;Node21</title>
<g id="a_edge29_Node000022_Node000021"><a xlink:title=" ">
<path fill="none" stroke="#63b8ff" d="M1030.35,-169.84C1028.89,-163.14 1026.89,-154.01 1025.07,-145.73"/>
<polygon fill="#63b8ff" stroke="#63b8ff" points="1028.51,-145.08 1022.95,-136.06 1021.67,-146.57 1028.51,-145.08"/>
</a>
</g>
</g>
<!-- Node23&#45;&gt;Node4 -->
<g id="edge31_Node000023_Node000004" class="edge">
<title>Node23&#45;&gt;Node4</title>
<g id="a_edge31_Node000023_Node000004"><a xlink:title=" ">
<path fill="none" stroke="#63b8ff" d="M828.72,-169.96C836.85,-155.98 848.6,-129.99 835.5,-113.5 780.91,-44.82 501.42,-20.33 398.56,-13.56"/>
<polygon fill="#63b8ff" stroke="#63b8ff" points="398.91,-10.07 388.71,-12.93 398.46,-17.06 398.91,-10.07"/>
</a>
</g>
</g>
<!-- Node23&#45;&gt;Node17 -->
<g id="edge32_Node000023_Node000017" class="edge">
<title>Node23&#45;&gt;Node17</title>
<g id="a_edge32_Node000023_Node000017"><a xlink:title=" ">
<path fill="none" stroke="#63b8ff" d="M864.5,-171.88C922.25,-161.21 1022.85,-142.58 1062.78,-134.7"/>
<polygon fill="#63b8ff" stroke="#63b8ff" points="1063.26,-138.17 1072.37,-132.76 1061.87,-131.31 1063.26,-138.17"/>
</a>
</g>
</g>
<!-- Node24 -->
<g id="Node000024" class="node">
<title>Node24</title>
<g id="a_Node000024"><a xlink:title=" ">
<polygon fill="#e0e0e0" stroke="#999999" points="698.88,-134.25 646.12,-134.25 646.12,-113.5 698.88,-113.5 698.88,-134.25"/>
<text text-anchor="middle" x="672.5" y="-120.75" font-family="Helvetica,sans-Serif" font-size="10.00">limits.h</text>
</a>
</g>
</g>
<!-- Node23&#45;&gt;Node24 -->
<g id="edge33_Node000023_Node000024" class="edge">
<title>Node23&#45;&gt;Node24</title>
<g id="a_edge33_Node000023_Node000024"><a xlink:title=" ">
<path fill="none" stroke="#63b8ff" d="M795.68,-169.84C771.76,-161.11 736.5,-148.23 709.82,-138.5"/>
<polygon fill="#63b8ff" stroke="#63b8ff" points="711.35,-135.33 700.76,-135.19 708.95,-141.91 711.35,-135.33"/>
</a>
</g>
</g>
<!-- Node25 -->
<g id="Node000025" class="node">
<title>Node25</title>
<g id="a_Node000025"><a xlink:title=" ">
<polygon fill="#e0e0e0" stroke="#999999" points="826.38,-134.25 716.62,-134.25 716.62,-113.5 826.38,-113.5 826.38,-134.25"/>
<text text-anchor="middle" x="771.5" y="-120.75" font-family="Helvetica,sans-Serif" font-size="10.00">architecture_arch.h</text>
</a>
</g>
</g>
<!-- Node23&#45;&gt;Node25 -->
<g id="edge34_Node000023_Node000025" class="edge">
<title>Node23&#45;&gt;Node25</title>
<g id="a_edge34_Node000023_Node000025"><a xlink:title=" ">
<path fill="none" stroke="#63b8ff" d="M813.38,-169.84C806.42,-162.36 796.63,-151.86 788.27,-142.88"/>
<polygon fill="#63b8ff" stroke="#63b8ff" points="790.95,-140.62 781.57,-135.69 785.83,-145.39 790.95,-140.62"/>
</a>
</g>
</g>
<!-- Node27&#45;&gt;Node6 -->
<g id="edge39_Node000027_Node000006" class="edge">
<title>Node27&#45;&gt;Node6</title>
<g id="a_edge39_Node000027_Node000006"><a xlink:title=" ">
<path fill="none" stroke="#63b8ff" d="M426.83,-226.76C415.53,-218.3 399.58,-205.15 388.5,-191 377.44,-176.86 368.36,-158.57 362.38,-144.81"/>
<polygon fill="#63b8ff" stroke="#63b8ff" points="365.75,-143.8 358.68,-135.91 359.28,-146.49 365.75,-143.8"/>
</a>
</g>
</g>
<!-- Node27&#45;&gt;Node8 -->
<g id="edge40_Node000027_Node000008" class="edge">
<title>Node27&#45;&gt;Node8</title>
<g id="a_edge40_Node000027_Node000008"><a xlink:title=" ">
<path fill="none" stroke="#63b8ff" d="M447.01,-226.85C465.35,-200.02 517.68,-123.46 542.34,-87.38"/>
<polygon fill="#63b8ff" stroke="#63b8ff" points="545.17,-89.45 547.92,-79.22 539.39,-85.5 545.17,-89.45"/>
</a>
</g>
</g>
<!-- Node27&#45;&gt;Node13 -->
<g id="edge41_Node000027_Node000013" class="edge">
<title>Node27&#45;&gt;Node13</title>
<g id="a_edge41_Node000027_Node000013"><a xlink:title=" ">
<path fill="none" stroke="#63b8ff" d="M440.41,-226.87C440.26,-209.1 439.91,-170.47 439.69,-146.18"/>
<polygon fill="#63b8ff" stroke="#63b8ff" points="443.19,-146.16 439.6,-136.19 436.19,-146.22 443.19,-146.16"/>
</a>
</g>
</g>
<!-- Node28 -->
<g id="Node000028" class="node">
<title>Node28</title>
<g id="a_Node000028"><a xlink:href="ipv4_2addr_8h.html" target="_top" xlink:title="IPv4 address type and helper functions definitions.">
<polygon fill="white" stroke="#666666" points="336.25,-191 246.75,-191 246.75,-170.25 336.25,-170.25 336.25,-191"/>
<text text-anchor="middle" x="291.5" y="-177.5" font-family="Helvetica,sans-Serif" font-size="10.00">net/ipv4/addr.h</text>
</a>
</g>
</g>
<!-- Node27&#45;&gt;Node28 -->
<g id="edge42_Node000027_Node000028" class="edge">
<title>Node27&#45;&gt;Node28</title>
<g id="a_edge42_Node000027_Node000028"><a xlink:title=" ">
<path fill="none" stroke="#63b8ff" d="M413.86,-226.59C390.2,-217.89 355.38,-205.1 328.93,-195.38"/>
<polygon fill="#63b8ff" stroke="#63b8ff" points="330.17,-192.11 319.58,-191.94 327.76,-198.68 330.17,-192.11"/>
</a>
</g>
</g>
<!-- Node28&#45;&gt;Node4 -->
<g id="edge44_Node000028_Node000004" class="edge">
<title>Node28&#45;&gt;Node4</title>
<g id="a_edge44_Node000028_Node000004"><a xlink:title=" ">
<path fill="none" stroke="#63b8ff" d="M291.4,-170.06C291.55,-148.51 294.12,-95.08 314.5,-56.75 320.28,-45.87 329.57,-35.97 338.3,-28.22"/>
<polygon fill="#63b8ff" stroke="#63b8ff" points="340.4,-31.02 345.84,-21.93 335.92,-25.64 340.4,-31.02"/>
</a>
</g>
</g>
<!-- Node28&#45;&gt;Node6 -->
<g id="edge43_Node000028_Node000006" class="edge">
<title>Node28&#45;&gt;Node6</title>
<g id="a_edge43_Node000028_Node000006"><a xlink:title=" ">
<path fill="none" stroke="#63b8ff" d="M302.76,-169.84C311.63,-162.13 324.21,-151.2 334.75,-142.04"/>
<polygon fill="#63b8ff" stroke="#63b8ff" points="336.94,-144.77 342.19,-135.57 332.35,-139.49 336.94,-144.77"/>
</a>
</g>
</g>
<!-- Node28&#45;&gt;Node7 -->
<g id="edge45_Node000028_Node000007" class="edge">
<title>Node28&#45;&gt;Node7</title>
<g id="a_edge45_Node000028_Node000007"><a xlink:title=" ">
<path fill="none" stroke="#63b8ff" d="M282.2,-169.84C275.1,-162.36 265.13,-151.86 256.6,-142.88"/>
<polygon fill="#63b8ff" stroke="#63b8ff" points="259.18,-140.52 249.76,-135.68 254.11,-145.34 259.18,-140.52"/>
</a>
</g>
</g>
<!-- Node28&#45;&gt;Node13 -->
<g id="edge46_Node000028_Node000013" class="edge">
<title>Node28&#45;&gt;Node13</title>
<g id="a_edge46_Node000028_Node000013"><a xlink:title=" ">
<path fill="none" stroke="#63b8ff" d="M317.96,-169.84C341.53,-161.12 376.26,-148.27 402.57,-138.54"/>
<polygon fill="#63b8ff" stroke="#63b8ff" points="403.69,-141.86 411.85,-135.1 401.26,-135.29 403.69,-141.86"/>
</a>
</g>
</g>
<!-- Node29&#45;&gt;Node3 -->
<g id="edge49_Node000029_Node000003" class="edge">
<title>Node29&#45;&gt;Node3</title>
<g id="a_edge49_Node000029_Node000003"><a xlink:title=" ">
<path fill="none" stroke="#63b8ff" d="M396.61,-289.16C326.96,-282.56 187,-268 69.5,-247.75 68.5,-247.58 67.49,-247.4 66.47,-247.21"/>
<polygon fill="#63b8ff" stroke="#63b8ff" points="67.41,-243.83 56.92,-245.31 66.05,-250.69 67.41,-243.83"/>
</a>
</g>
</g>
<!-- Node29&#45;&gt;Node4 -->
<g id="edge51_Node000029_Node000004" class="edge">
<title>Node29&#45;&gt;Node4</title>
<g id="a_edge51_Node000029_Node000004"><a xlink:title=" ">
<path fill="none" stroke="#63b8ff" d="M396.69,-287.32C311.44,-274.96 128.83,-242.85 97.5,-191 62.81,-133.58 110.66,-93.93 166.5,-56.75 214.03,-25.1 280.94,-15.4 322.46,-12.5"/>
<polygon fill="#63b8ff" stroke="#63b8ff" points="322.43,-16.01 332.21,-11.93 322.02,-9.02 322.43,-16.01"/>
</a>
</g>
</g>
<!-- Node29&#45;&gt;Node5 -->
<g id="edge50_Node000029_Node000005" class="edge">
<title>Node29&#45;&gt;Node5</title>
<g id="a_edge50_Node000029_Node000005"><a xlink:title=" ">
<path fill="none" stroke="#63b8ff" d="M476.61,-283.34C513.23,-273.41 569.56,-258.14 606.23,-248.21"/>
<polygon fill="#63b8ff" stroke="#63b8ff" points="606.74,-251.69 615.47,-245.7 604.91,-244.94 606.74,-251.69"/>
</a>
</g>
</g>
<!-- Node29&#45;&gt;Node11 -->
<g id="edge54_Node000029_Node000011" class="edge">
<title>Node29&#45;&gt;Node11</title>
<g id="a_edge54_Node000029_Node000011"><a xlink:title=" ">
<path fill="none" stroke="#63b8ff" d="M477.48,-283.28C503.14,-275.61 537.59,-263.6 565.5,-247.75 589.25,-234.26 613.07,-213.79 628.66,-199.2"/>
<polygon fill="#63b8ff" stroke="#63b8ff" points="630.93,-201.87 635.74,-192.43 626.09,-196.81 630.93,-201.87"/>
</a>
</g>
</g>
<!-- Node29&#45;&gt;Node20 -->
<g id="edge52_Node000029_Node000020" class="edge">
<title>Node29&#45;&gt;Node20</title>
<g id="a_edge52_Node000029_Node000020"><a xlink:title=" ">
<path fill="none" stroke="#63b8ff" d="M452.22,-283.54C463.25,-274.46 480.16,-260.37 494.5,-247.75 532.62,-214.18 532.43,-191.65 578.5,-170.25 607.51,-156.77 816.12,-136.31 902.84,-128.28"/>
<polygon fill="#63b8ff" stroke="#63b8ff" points="903.1,-131.77 912.73,-127.37 902.46,-124.8 903.1,-131.77"/>
</a>
</g>
</g>
<!-- Node29&#45;&gt;Node21 -->
<g id="edge53_Node000029_Node000021" class="edge">
<title>Node29&#45;&gt;Node21</title>
<g id="a_edge53_Node000029_Node000021"><a xlink:title=" ">
<path fill="none" stroke="#63b8ff" d="M459.32,-283.33C475.47,-274.67 499.12,-261.32 518.5,-247.75 562.58,-216.89 561.87,-191.04 611.5,-170.25 758.08,-108.85 812.36,-156.61 973.43,-134.34"/>
<polygon fill="#63b8ff" stroke="#63b8ff" points="973.82,-137.82 983.2,-132.91 972.8,-130.9 973.82,-137.82"/>
</a>
</g>
</g>
<!-- Node29&#45;&gt;Node27 -->
<g id="edge60_Node000029_Node000027" class="edge">
<title>Node29&#45;&gt;Node27</title>
<g id="a_edge60_Node000029_Node000027"><a xlink:title=" ">
<path fill="none" stroke="#63b8ff" d="M440.5,-283.34C440.5,-276.72 440.5,-267.72 440.5,-259.52"/>
<polygon fill="#63b8ff" stroke="#63b8ff" points="444,-259.59 440.5,-249.59 437,-259.59 444,-259.59"/>
</a>
</g>
</g>
<!-- Node29&#45;&gt;Node28 -->
<g id="edge59_Node000029_Node000028" class="edge">
<title>Node29&#45;&gt;Node28</title>
<g id="a_edge59_Node000029_Node000028"><a xlink:title=" ">
<path fill="none" stroke="#63b8ff" d="M427.54,-283.43C402,-264.31 344.93,-221.61 313.43,-198.04"/>
<polygon fill="#63b8ff" stroke="#63b8ff" points="315.85,-195.48 305.75,-192.29 311.66,-201.08 315.85,-195.48"/>
</a>
</g>
</g>
<!-- Node30 -->
<g id="Node000030" class="node">
<title>Node30</title>
<g id="a_Node000030"><a xlink:href="sock_8h.html" target="_top" xlink:title="Common sock API definitions.">
<polygon fill="white" stroke="#666666" points="172.62,-191 106.38,-191 106.38,-170.25 172.62,-170.25 172.62,-191"/>
<text text-anchor="middle" x="139.5" y="-177.5" font-family="Helvetica,sans-Serif" font-size="10.00">net/sock.h</text>
</a>
</g>
</g>
<!-- Node29&#45;&gt;Node30 -->
<g id="edge55_Node000029_Node000030" class="edge">
<title>Node29&#45;&gt;Node30</title>
<g id="a_edge55_Node000029_Node000030"><a xlink:title=" ">
<path fill="none" stroke="#63b8ff" d="M396.71,-286.55C357.43,-279.75 298.73,-267.34 250.5,-247.75 218.03,-234.56 183.84,-212.84 162.13,-197.91"/>
<polygon fill="#63b8ff" stroke="#63b8ff" points="164.25,-195.12 154.05,-192.26 160.24,-200.86 164.25,-195.12"/>
</a>
</g>
</g>
<!-- Node32 -->
<g id="Node000032" class="node">
<title>Node32</title>
<g id="a_Node000032"><a xlink:title=" ">
<polygon fill="#e0e0e0" stroke="#999999" points="339.38,-247.75 259.62,-247.75 259.62,-227 339.38,-227 339.38,-247.75"/>
<text text-anchor="middle" x="299.5" y="-234.25" font-family="Helvetica,sans-Serif" font-size="10.00">sock_types.h</text>
</a>
</g>
</g>
<!-- Node29&#45;&gt;Node32 -->
<g id="edge61_Node000029_Node000032" class="edge">
<title>Node29&#45;&gt;Node32</title>
<g id="a_edge61_Node000029_Node000032"><a xlink:title=" ">
<path fill="none" stroke="#63b8ff" d="M415.29,-283.34C392.94,-274.66 360.04,-261.88 335.02,-252.17"/>
<polygon fill="#63b8ff" stroke="#63b8ff" points="336.49,-248.98 325.9,-248.63 333.96,-255.51 336.49,-248.98"/>
</a>
</g>
</g>
<!-- Node30&#45;&gt;Node4 -->
<g id="edge56_Node000030_Node000004" class="edge">
<title>Node30&#45;&gt;Node4</title>
<g id="a_edge56_Node000030_Node000004"><a xlink:title=" ">
<path fill="none" stroke="#63b8ff" d="M135.69,-170.2C130.82,-156.52 124.29,-130.9 135.5,-113.5 176.97,-49.13 270,-24.88 322.53,-16.09"/>
<polygon fill="#63b8ff" stroke="#63b8ff" points="322.87,-19.58 332.21,-14.58 321.79,-12.66 322.87,-19.58"/>
</a>
</g>
</g>
<!-- Node30&#45;&gt;Node7 -->
<g id="edge57_Node000030_Node000007" class="edge">
<title>Node30&#45;&gt;Node7</title>
<g id="a_edge57_Node000030_Node000007"><a xlink:title=" ">
<path fill="none" stroke="#63b8ff" d="M157.38,-169.84C172.59,-161.51 194.69,-149.41 212.13,-139.86"/>
<polygon fill="#63b8ff" stroke="#63b8ff" points="213.36,-143.18 220.45,-135.31 210,-137.04 213.36,-143.18"/>
</a>
</g>
</g>
<!-- Node31 -->
<g id="Node000031" class="node">
<title>Node31</title>
<g id="a_Node000031"><a xlink:href="iolist_8h.html" target="_top" xlink:title="iolist scatter / gather IO">
<polygon fill="white" stroke="#666666" points="194,-134.25 145,-134.25 145,-113.5 194,-113.5 194,-134.25"/>
<text text-anchor="middle" x="169.5" y="-120.75" font-family="Helvetica,sans-Serif" font-size="10.00">iolist.h</text>
</a>
</g>
</g>
<!-- Node30&#45;&gt;Node31 -->
<g id="edge58_Node000030_Node000031" class="edge">
<title>Node30&#45;&gt;Node31</title>
<g id="a_edge58_Node000030_Node000031"><a xlink:title=" ">
<path fill="none" stroke="#63b8ff" d="M144.86,-169.84C148.7,-162.83 154,-153.16 158.7,-144.58"/>
<polygon fill="#63b8ff" stroke="#63b8ff" points="161.72,-146.36 163.46,-135.91 155.58,-142.99 161.72,-146.36"/>
</a>
</g>
</g>
</g>
</svg>
