<?xml version="1.0" encoding="UTF-8" standalone="no"?>
<!DOCTYPE svg PUBLIC "-//W3C//DTD SVG 1.1//EN"
 "http://www.w3.org/Graphics/SVG/1.1/DTD/svg11.dtd">
<!-- Generated by graphviz version 12.1.2 (0)
 -->
<!-- Title: drivers/include/periph/flashpage.h Pages: 1 -->
<svg width="398pt" height="181pt"
 viewBox="0.00 0.00 398.25 180.50" xmlns="http://www.w3.org/2000/svg" xmlns:xlink="http://www.w3.org/1999/xlink">
<g id="graph0" class="graph" transform="scale(1 1) rotate(0) translate(4 176.5)">
<title>drivers/include/periph/flashpage.h</title>
<!-- Node1 -->
<g id="Node000001" class="node">
<title>Node1</title>
<g id="a_Node000001"><a xlink:title="Low&#45;level flash page peripheral driver interface.">
<polygon fill="#999999" stroke="#666666" points="251.12,-172.5 129.38,-172.5 129.38,-139 251.12,-139 251.12,-172.5"/>
<text text-anchor="start" x="137.38" y="-159" font-family="Helvetica,sans-Serif" font-size="10.00">drivers/include/periph</text>
<text text-anchor="middle" x="190.25" y="-146.25" font-family="Helvetica,sans-Serif" font-size="10.00">/flashpage.h</text>
</a>
</g>
</g>
<!-- Node2 -->
<g id="Node000002" class="node">
<title>Node2</title>
<g id="a_Node000002"><a xlink:href="mtd__flashpage_8h.html" target="_top" xlink:title="Interface definition for the flashpage memory driver.">
<polygon fill="white" stroke="#666666" points="110.5,-103 0,-103 0,-69.5 110.5,-69.5 110.5,-103"/>
<text text-anchor="start" x="8" y="-89.5" font-family="Helvetica,sans-Serif" font-size="10.00">drivers/include/mtd</text>
<text text-anchor="middle" x="55.25" y="-76.75" font-family="Helvetica,sans-Serif" font-size="10.00">_flashpage.h</text>
</a>
</g>
</g>
<!-- Node1&#45;&gt;Node2 -->
<g id="edge1_Node000001_Node000002" class="edge">
<title>Node1&#45;&gt;Node2</title>
<g id="a_edge1_Node000001_Node000002"><a xlink:title=" ">
<path fill="none" stroke="#63b8ff" d="M147.74,-133.49C128.19,-123.72 105.39,-112.32 87.32,-103.29"/>
<polygon fill="#63b8ff" stroke="#63b8ff" points="146.05,-136.56 156.56,-137.91 149.18,-130.3 146.05,-136.56"/>
</a>
</g>
</g>
<!-- Node3 -->
<g id="Node000003" class="node">
<title>Node3</title>
<g id="a_Node000003"><a xlink:href="ctap__mem_8h.html" target="_top" xlink:title="Definitions for CTAP flash memory helper functions.">
<polygon fill="white" stroke="#666666" points="251.5,-103 129,-103 129,-69.5 251.5,-69.5 251.5,-103"/>
<text text-anchor="start" x="137" y="-89.5" font-family="Helvetica,sans-Serif" font-size="10.00">sys/include/fido2/ctap</text>
<text text-anchor="middle" x="190.25" y="-76.75" font-family="Helvetica,sans-Serif" font-size="10.00">/ctap_mem.h</text>
</a>
</g>
</g>
<!-- Node1&#45;&gt;Node3 -->
<g id="edge2_Node000001_Node000003" class="edge">
<title>Node1&#45;&gt;Node3</title>
<g id="a_edge2_Node000001_Node000003"><a xlink:title=" ">
<path fill="none" stroke="#63b8ff" d="M190.25,-127.31C190.25,-119.09 190.25,-110.34 190.25,-103.13"/>
<polygon fill="#63b8ff" stroke="#63b8ff" points="186.75,-127.24 190.25,-137.24 193.75,-127.24 186.75,-127.24"/>
</a>
</g>
</g>
<!-- Node4 -->
<g id="Node000004" class="node">
<title>Node4</title>
<g id="a_Node000004"><a xlink:href="riotboot_2flashwrite_8h.html" target="_top" xlink:title="riotboot flash writing module">
<polygon fill="white" stroke="#666666" points="381.25,-103 269.25,-103 269.25,-69.5 381.25,-69.5 381.25,-103"/>
<text text-anchor="start" x="277.25" y="-89.5" font-family="Helvetica,sans-Serif" font-size="10.00">sys/include/riotboot</text>
<text text-anchor="middle" x="325.25" y="-76.75" font-family="Helvetica,sans-Serif" font-size="10.00">/flashwrite.h</text>
</a>
</g>
</g>
<!-- Node1&#45;&gt;Node4 -->
<g id="edge3_Node000001_Node000004" class="edge">
<title>Node1&#45;&gt;Node4</title>
<g id="a_edge3_Node000001_Node000004"><a xlink:title=" ">
<path fill="none" stroke="#63b8ff" d="M232.76,-133.49C252.31,-123.72 275.11,-112.32 293.18,-103.29"/>
<polygon fill="#63b8ff" stroke="#63b8ff" points="231.32,-130.3 223.94,-137.91 234.45,-136.56 231.32,-130.3"/>
</a>
</g>
</g>
<!-- Node5 -->
<g id="Node000005" class="node">
<title>Node5</title>
<g id="a_Node000005"><a xlink:href="tinyusb__dfu_8h.html" target="_top" xlink:title="TinyUSB specific DFU definitions.">
<polygon fill="white" stroke="#666666" points="390.25,-33.5 260.25,-33.5 260.25,0 390.25,0 390.25,-33.5"/>
<text text-anchor="start" x="268.25" y="-20" font-family="Helvetica,sans-Serif" font-size="10.00">pkg/tinyusb/dfu/include</text>
<text text-anchor="middle" x="325.25" y="-7.25" font-family="Helvetica,sans-Serif" font-size="10.00">/tinyusb_dfu.h</text>
</a>
</g>
</g>
<!-- Node4&#45;&gt;Node5 -->
<g id="edge4_Node000004_Node000005" class="edge">
<title>Node4&#45;&gt;Node5</title>
<g id="a_edge4_Node000004_Node000005"><a xlink:title=" ">
<path fill="none" stroke="#63b8ff" d="M325.25,-57.81C325.25,-49.59 325.25,-40.84 325.25,-33.63"/>
<polygon fill="#63b8ff" stroke="#63b8ff" points="321.75,-57.74 325.25,-67.74 328.75,-57.74 321.75,-57.74"/>
</a>
</g>
</g>
</g>
</svg>
