<?xml version="1.0" encoding="UTF-8" standalone="no"?>
<!DOCTYPE svg PUBLIC "-//W3C//DTD SVG 1.1//EN"
 "http://www.w3.org/Graphics/SVG/1.1/DTD/svg11.dtd">
<!-- Generated by graphviz version 12.1.2 (0)
 -->
<!-- Title: sys/include/net/gnrc/ipv6/ext.h Pages: 1 -->
<svg width="1259pt" height="345pt"
 viewBox="0.00 0.00 1259.38 345.00" xmlns="http://www.w3.org/2000/svg" xmlns:xlink="http://www.w3.org/1999/xlink">
<g id="graph0" class="graph" transform="scale(1 1) rotate(0) translate(4 341)">
<title>sys/include/net/gnrc/ipv6/ext.h</title>
<!-- Node1 -->
<g id="Node000001" class="node">
<title>Node1</title>
<g id="a_Node000001"><a xlink:title="Definititions for IPv6 extension headers.">
<polygon fill="#999999" stroke="#666666" points="389,-337 275.5,-337 275.5,-303.5 389,-303.5 389,-337"/>
<text text-anchor="start" x="283.5" y="-323.5" font-family="Helvetica,sans-Serif" font-size="10.00">sys/include/net/gnrc</text>
<text text-anchor="middle" x="332.25" y="-310.75" font-family="Helvetica,sans-Serif" font-size="10.00">/ipv6/ext.h</text>
</a>
</g>
</g>
<!-- Node2 -->
<g id="Node000002" class="node">
<title>Node2</title>
<g id="a_Node000002"><a xlink:href="gnrc_2ipv6_8h.html" target="_top" xlink:title="Definitions for GNRC&#39;s IPv6 implementation.">
<polygon fill="white" stroke="#666666" points="389,-267.5 275.5,-267.5 275.5,-234 389,-234 389,-267.5"/>
<text text-anchor="start" x="283.5" y="-254" font-family="Helvetica,sans-Serif" font-size="10.00">sys/include/net/gnrc</text>
<text text-anchor="middle" x="332.25" y="-241.25" font-family="Helvetica,sans-Serif" font-size="10.00">/ipv6.h</text>
</a>
</g>
</g>
<!-- Node1&#45;&gt;Node2 -->
<g id="edge1_Node000001_Node000002" class="edge">
<title>Node1&#45;&gt;Node2</title>
<g id="a_edge1_Node000001_Node000002"><a xlink:title=" ">
<path fill="none" stroke="#63b8ff" d="M332.25,-291.81C332.25,-283.59 332.25,-274.84 332.25,-267.63"/>
<polygon fill="#63b8ff" stroke="#63b8ff" points="328.75,-291.74 332.25,-301.74 335.75,-291.74 328.75,-291.74"/>
</a>
</g>
</g>
<!-- Node3 -->
<g id="Node000003" class="node">
<title>Node3</title>
<g id="a_Node000003"><a xlink:href="net_2gnrc_2icmpv6_2error_8h.html" target="_top" xlink:title="ICMPv6 error message definitions.">
<polygon fill="white" stroke="#666666" points="130,-198 16.5,-198 16.5,-164.5 130,-164.5 130,-198"/>
<text text-anchor="start" x="24.5" y="-184.5" font-family="Helvetica,sans-Serif" font-size="10.00">sys/include/net/gnrc</text>
<text text-anchor="middle" x="73.25" y="-171.75" font-family="Helvetica,sans-Serif" font-size="10.00">/icmpv6/error.h</text>
</a>
</g>
</g>
<!-- Node2&#45;&gt;Node3 -->
<g id="edge2_Node000002_Node000003" class="edge">
<title>Node2&#45;&gt;Node3</title>
<g id="a_edge2_Node000002_Node000003"><a xlink:title=" ">
<path fill="none" stroke="#63b8ff" d="M264.2,-232.01C222.5,-221.15 169.75,-207.4 130.26,-197.11"/>
<polygon fill="#63b8ff" stroke="#63b8ff" points="263.07,-235.34 273.63,-234.47 264.83,-228.56 263.07,-235.34"/>
</a>
</g>
</g>
<!-- Node6 -->
<g id="Node000006" class="node">
<title>Node6</title>
<g id="a_Node000006"><a xlink:href="rpl_8h.html" target="_top" xlink:title="RPL header.">
<polygon fill="white" stroke="#666666" points="290,-198 176.5,-198 176.5,-164.5 290,-164.5 290,-198"/>
<text text-anchor="start" x="184.5" y="-184.5" font-family="Helvetica,sans-Serif" font-size="10.00">sys/include/net/gnrc</text>
<text text-anchor="middle" x="233.25" y="-171.75" font-family="Helvetica,sans-Serif" font-size="10.00">/rpl.h</text>
</a>
</g>
</g>
<!-- Node2&#45;&gt;Node6 -->
<g id="edge5_Node000002_Node000006" class="edge">
<title>Node2&#45;&gt;Node6</title>
<g id="a_edge5_Node000002_Node000006"><a xlink:title=" ">
<path fill="none" stroke="#63b8ff" d="M299.28,-227.27C285.36,-217.78 269.47,-206.95 256.77,-198.29"/>
<polygon fill="#63b8ff" stroke="#63b8ff" points="297.05,-229.99 307.29,-232.73 301,-224.2 297.05,-229.99"/>
</a>
</g>
</g>
<!-- Node8 -->
<g id="Node000008" class="node">
<title>Node8</title>
<g id="a_Node000008"><a xlink:href="gnrc__ipv6__auto__subnets_8c.html" target="_top" xlink:title=" ">
<polygon fill="white" stroke="#666666" points="399.5,-128.5 265,-128.5 265,-82.25 399.5,-82.25 399.5,-128.5"/>
<text text-anchor="start" x="273" y="-115" font-family="Helvetica,sans-Serif" font-size="10.00">sys/net/gnrc/routing</text>
<text text-anchor="start" x="273" y="-102.25" font-family="Helvetica,sans-Serif" font-size="10.00">/ipv6_auto_subnets/gnrc</text>
<text text-anchor="middle" x="332.25" y="-89.5" font-family="Helvetica,sans-Serif" font-size="10.00">_ipv6_auto_subnets.c</text>
</a>
</g>
</g>
<!-- Node2&#45;&gt;Node8 -->
<g id="edge17_Node000002_Node000008" class="edge">
<title>Node2&#45;&gt;Node8</title>
<g id="a_edge17_Node000002_Node000008"><a xlink:title=" ">
<path fill="none" stroke="#63b8ff" d="M332.25,-222.18C332.25,-195.03 332.25,-154.05 332.25,-128.82"/>
<polygon fill="#63b8ff" stroke="#63b8ff" points="328.75,-222.07 332.25,-232.07 335.75,-222.07 328.75,-222.07"/>
</a>
</g>
</g>
<!-- Node9 -->
<g id="Node000009" class="node">
<title>Node9</title>
<g id="a_Node000009"><a xlink:href="gnrc_2tcp_8h.html" target="_top" xlink:title="GNRC TCP API.">
<polygon fill="white" stroke="#666666" points="531,-122.12 417.5,-122.12 417.5,-88.62 531,-88.62 531,-122.12"/>
<text text-anchor="start" x="425.5" y="-108.62" font-family="Helvetica,sans-Serif" font-size="10.00">sys/include/net/gnrc</text>
<text text-anchor="middle" x="474.25" y="-95.88" font-family="Helvetica,sans-Serif" font-size="10.00">/tcp.h</text>
</a>
</g>
</g>
<!-- Node2&#45;&gt;Node9 -->
<g id="edge9_Node000002_Node000009" class="edge">
<title>Node2&#45;&gt;Node9</title>
<g id="a_edge9_Node000002_Node000009"><a xlink:title=" ">
<path fill="none" stroke="#63b8ff" d="M356.29,-225.47C385.44,-196.04 433.73,-147.29 458.51,-122.27"/>
<polygon fill="#63b8ff" stroke="#63b8ff" points="353.88,-222.94 349.33,-232.51 358.85,-227.86 353.88,-222.94"/>
</a>
</g>
</g>
<!-- Node10 -->
<g id="Node000010" class="node">
<title>Node10</title>
<g id="a_Node000010"><a xlink:href="tcb_8h.html" target="_top" xlink:title="GNRC TCP transmission control block (TCB)">
<polygon fill="white" stroke="#666666" points="813,-198 699.5,-198 699.5,-164.5 813,-164.5 813,-198"/>
<text text-anchor="start" x="707.5" y="-184.5" font-family="Helvetica,sans-Serif" font-size="10.00">sys/include/net/gnrc</text>
<text text-anchor="middle" x="756.25" y="-171.75" font-family="Helvetica,sans-Serif" font-size="10.00">/tcp/tcb.h</text>
</a>
</g>
</g>
<!-- Node2&#45;&gt;Node10 -->
<g id="edge10_Node000002_Node000010" class="edge">
<title>Node2&#45;&gt;Node10</title>
<g id="a_edge10_Node000002_Node000010"><a xlink:title=" ">
<path fill="none" stroke="#63b8ff" d="M400.76,-238.84C483.72,-225.64 621.91,-203.64 699.3,-191.32"/>
<polygon fill="#63b8ff" stroke="#63b8ff" points="400.25,-235.38 390.93,-240.41 401.35,-242.29 400.25,-235.38"/>
</a>
</g>
</g>
<!-- Node4 -->
<g id="Node000004" class="node">
<title>Node4</title>
<g id="a_Node000004"><a xlink:href="gnrc_2icmpv6_8h.html" target="_top" xlink:title="Definitions for GNRC&#39;s ICMPv6 implementation.">
<polygon fill="white" stroke="#666666" points="115,-122.12 1.5,-122.12 1.5,-88.62 115,-88.62 115,-122.12"/>
<text text-anchor="start" x="9.5" y="-108.62" font-family="Helvetica,sans-Serif" font-size="10.00">sys/include/net/gnrc</text>
<text text-anchor="middle" x="58.25" y="-95.88" font-family="Helvetica,sans-Serif" font-size="10.00">/icmpv6.h</text>
</a>
</g>
</g>
<!-- Node3&#45;&gt;Node4 -->
<g id="edge3_Node000003_Node000004" class="edge">
<title>Node3&#45;&gt;Node4</title>
<g id="a_edge3_Node000003_Node000004"><a xlink:title=" ">
<path fill="none" stroke="#63b8ff" d="M67.76,-153.2C65.65,-142.84 63.33,-131.37 61.5,-122.37"/>
<polygon fill="#63b8ff" stroke="#63b8ff" points="64.27,-153.63 69.69,-162.74 71.13,-152.24 64.27,-153.63"/>
</a>
</g>
</g>
<!-- Node5 -->
<g id="Node000005" class="node">
<title>Node5</title>
<g id="a_Node000005"><a xlink:href="validation_8h.html" target="_top" xlink:title="RPL control message validation functions.">
<polygon fill="white" stroke="#666666" points="116.5,-46.25 0,-46.25 0,0 116.5,0 116.5,-46.25"/>
<text text-anchor="start" x="8" y="-32.75" font-family="Helvetica,sans-Serif" font-size="10.00">sys/net/gnrc/routing</text>
<text text-anchor="start" x="8" y="-20" font-family="Helvetica,sans-Serif" font-size="10.00">/rpl/gnrc_rpl_internal</text>
<text text-anchor="middle" x="58.25" y="-7.25" font-family="Helvetica,sans-Serif" font-size="10.00">/validation.h</text>
</a>
</g>
</g>
<!-- Node4&#45;&gt;Node5 -->
<g id="edge4_Node000004_Node000005" class="edge">
<title>Node4&#45;&gt;Node5</title>
<g id="a_edge4_Node000004_Node000005"><a xlink:title=" ">
<path fill="none" stroke="#63b8ff" d="M58.25,-76.89C58.25,-67.05 58.25,-56.1 58.25,-46.73"/>
<polygon fill="#63b8ff" stroke="#63b8ff" points="54.75,-76.62 58.25,-86.62 61.75,-76.62 54.75,-76.62"/>
</a>
</g>
</g>
<!-- Node7 -->
<g id="Node000007" class="node">
<title>Node7</title>
<g id="a_Node000007"><a xlink:href="dodag_8h.html" target="_top" xlink:title="DODAG&#45;related functions for RPL.">
<polygon fill="white" stroke="#666666" points="247,-122.12 133.5,-122.12 133.5,-88.62 247,-88.62 247,-122.12"/>
<text text-anchor="start" x="141.5" y="-108.62" font-family="Helvetica,sans-Serif" font-size="10.00">sys/include/net/gnrc</text>
<text text-anchor="middle" x="190.25" y="-95.88" font-family="Helvetica,sans-Serif" font-size="10.00">/rpl/dodag.h</text>
</a>
</g>
</g>
<!-- Node6&#45;&gt;Node7 -->
<g id="edge6_Node000006_Node000007" class="edge">
<title>Node6&#45;&gt;Node7</title>
<g id="a_edge6_Node000006_Node000007"><a xlink:title=" ">
<path fill="none" stroke="#63b8ff" d="M212.02,-154.86C205.17,-144.08 198.31,-131.85 193.89,-122.37"/>
<polygon fill="#63b8ff" stroke="#63b8ff" points="208.96,-156.57 217.4,-162.96 214.79,-152.69 208.96,-156.57"/>
</a>
</g>
</g>
<!-- Node6&#45;&gt;Node8 -->
<g id="edge8_Node000006_Node000008" class="edge">
<title>Node6&#45;&gt;Node8</title>
<g id="a_edge8_Node000006_Node000008"><a xlink:title=" ">
<path fill="none" stroke="#63b8ff" d="M263.67,-157.55C275.9,-148.42 289.97,-137.92 302.17,-128.82"/>
<polygon fill="#63b8ff" stroke="#63b8ff" points="261.87,-154.53 255.94,-163.32 266.05,-160.14 261.87,-154.53"/>
</a>
</g>
</g>
<!-- Node7&#45;&gt;Node6 -->
<g id="edge7_Node000007_Node000006" class="edge">
<title>Node7&#45;&gt;Node6</title>
<g id="a_edge7_Node000007_Node000006"><a xlink:title=" ">
<path fill="none" stroke="#63b8ff" d="M211.46,-131.73C218.31,-142.5 225.17,-154.73 229.6,-164.22"/>
<polygon fill="#63b8ff" stroke="#63b8ff" points="214.52,-130.03 206.07,-123.63 208.69,-133.9 214.52,-130.03"/>
</a>
</g>
</g>
<!-- Node10&#45;&gt;Node9 -->
<g id="edge11_Node000010_Node000009" class="edge">
<title>Node10&#45;&gt;Node9</title>
<g id="a_edge11_Node000010_Node000009"><a xlink:title=" ">
<path fill="none" stroke="#63b8ff" d="M687.93,-165.51C645.24,-155.89 589.25,-142.55 540.25,-128.5 533.98,-126.7 527.41,-124.68 520.96,-122.6"/>
<polygon fill="#63b8ff" stroke="#63b8ff" points="687.04,-168.89 697.57,-167.66 688.57,-162.06 687.04,-168.89"/>
</a>
</g>
</g>
<!-- Node11 -->
<g id="Node000011" class="node">
<title>Node11</title>
<g id="a_Node000011"><a xlink:href="gnrc__tcp__common_8h.html" target="_top" xlink:title="Internally used defines, macros and variable declarations.">
<polygon fill="white" stroke="#666666" points="675.38,-128.5 549.12,-128.5 549.12,-82.25 675.38,-82.25 675.38,-128.5"/>
<text text-anchor="start" x="557.12" y="-115" font-family="Helvetica,sans-Serif" font-size="10.00">sys/net/gnrc/transport</text>
<text text-anchor="start" x="557.12" y="-102.25" font-family="Helvetica,sans-Serif" font-size="10.00">_layer/tcp/include/gnrc</text>
<text text-anchor="middle" x="612.25" y="-89.5" font-family="Helvetica,sans-Serif" font-size="10.00">_tcp_common.h</text>
</a>
</g>
</g>
<!-- Node10&#45;&gt;Node11 -->
<g id="edge12_Node000010_Node000011" class="edge">
<title>Node10&#45;&gt;Node11</title>
<g id="a_edge12_Node000010_Node000011"><a xlink:title=" ">
<path fill="none" stroke="#63b8ff" d="M714.59,-158.88C696.33,-149.51 674.87,-138.5 656.34,-128.99"/>
<polygon fill="#63b8ff" stroke="#63b8ff" points="712.81,-161.9 723.3,-163.35 716,-155.67 712.81,-161.9"/>
</a>
</g>
</g>
<!-- Node12 -->
<g id="Node000012" class="node">
<title>Node12</title>
<g id="a_Node000012"><a xlink:href="gnrc__tcp__fsm_8h.html" target="_top" xlink:title="TCP finite state maschine declarations.">
<polygon fill="white" stroke="#666666" points="819.38,-128.5 693.12,-128.5 693.12,-82.25 819.38,-82.25 819.38,-128.5"/>
<text text-anchor="start" x="701.12" y="-115" font-family="Helvetica,sans-Serif" font-size="10.00">sys/net/gnrc/transport</text>
<text text-anchor="start" x="701.12" y="-102.25" font-family="Helvetica,sans-Serif" font-size="10.00">_layer/tcp/include/gnrc</text>
<text text-anchor="middle" x="756.25" y="-89.5" font-family="Helvetica,sans-Serif" font-size="10.00">_tcp_fsm.h</text>
</a>
</g>
</g>
<!-- Node10&#45;&gt;Node12 -->
<g id="edge13_Node000010_Node000012" class="edge">
<title>Node10&#45;&gt;Node12</title>
<g id="a_edge13_Node000010_Node000012"><a xlink:title=" ">
<path fill="none" stroke="#63b8ff" d="M756.25,-152.89C756.25,-144.96 756.25,-136.41 756.25,-128.82"/>
<polygon fill="#63b8ff" stroke="#63b8ff" points="752.75,-152.71 756.25,-162.71 759.75,-152.71 752.75,-152.71"/>
</a>
</g>
</g>
<!-- Node13 -->
<g id="Node000013" class="node">
<title>Node13</title>
<g id="a_Node000013"><a xlink:href="gnrc__tcp__option_8h.html" target="_top" xlink:title="TCP option handling declarations.">
<polygon fill="white" stroke="#666666" points="963.38,-128.5 837.12,-128.5 837.12,-82.25 963.38,-82.25 963.38,-128.5"/>
<text text-anchor="start" x="845.12" y="-115" font-family="Helvetica,sans-Serif" font-size="10.00">sys/net/gnrc/transport</text>
<text text-anchor="start" x="845.12" y="-102.25" font-family="Helvetica,sans-Serif" font-size="10.00">_layer/tcp/include/gnrc</text>
<text text-anchor="middle" x="900.25" y="-89.5" font-family="Helvetica,sans-Serif" font-size="10.00">_tcp_option.h</text>
</a>
</g>
</g>
<!-- Node10&#45;&gt;Node13 -->
<g id="edge14_Node000010_Node000013" class="edge">
<title>Node10&#45;&gt;Node13</title>
<g id="a_edge14_Node000010_Node000013"><a xlink:title=" ">
<path fill="none" stroke="#63b8ff" d="M797.91,-158.88C816.17,-149.51 837.63,-138.5 856.16,-128.99"/>
<polygon fill="#63b8ff" stroke="#63b8ff" points="796.5,-155.67 789.2,-163.35 799.69,-161.9 796.5,-155.67"/>
</a>
</g>
</g>
<!-- Node14 -->
<g id="Node000014" class="node">
<title>Node14</title>
<g id="a_Node000014"><a xlink:href="gnrc__tcp__pkt_8h.html" target="_top" xlink:title="TCP packet handling declarations.">
<polygon fill="white" stroke="#666666" points="1107.38,-128.5 981.12,-128.5 981.12,-82.25 1107.38,-82.25 1107.38,-128.5"/>
<text text-anchor="start" x="989.12" y="-115" font-family="Helvetica,sans-Serif" font-size="10.00">sys/net/gnrc/transport</text>
<text text-anchor="start" x="989.12" y="-102.25" font-family="Helvetica,sans-Serif" font-size="10.00">_layer/tcp/include/gnrc</text>
<text text-anchor="middle" x="1044.25" y="-89.5" font-family="Helvetica,sans-Serif" font-size="10.00">_tcp_pkt.h</text>
</a>
</g>
</g>
<!-- Node10&#45;&gt;Node14 -->
<g id="edge15_Node000010_Node000014" class="edge">
<title>Node10&#45;&gt;Node14</title>
<g id="a_edge15_Node000010_Node000014"><a xlink:title=" ">
<path fill="none" stroke="#63b8ff" d="M824.45,-165.07C867.1,-155.29 923.08,-141.93 972.25,-128.5 975.03,-127.74 977.86,-126.95 980.71,-126.14"/>
<polygon fill="#63b8ff" stroke="#63b8ff" points="823.79,-161.63 814.82,-167.27 825.35,-168.45 823.79,-161.63"/>
</a>
</g>
</g>
<!-- Node15 -->
<g id="Node000015" class="node">
<title>Node15</title>
<g id="a_Node000015"><a xlink:href="gnrc__tcp__rcvbuf_8h.html" target="_top" xlink:title="Functions for allocating and freeing the receive buffer.">
<polygon fill="white" stroke="#666666" points="1251.38,-128.5 1125.12,-128.5 1125.12,-82.25 1251.38,-82.25 1251.38,-128.5"/>
<text text-anchor="start" x="1133.12" y="-115" font-family="Helvetica,sans-Serif" font-size="10.00">sys/net/gnrc/transport</text>
<text text-anchor="start" x="1133.12" y="-102.25" font-family="Helvetica,sans-Serif" font-size="10.00">_layer/tcp/include/gnrc</text>
<text text-anchor="middle" x="1188.25" y="-89.5" font-family="Helvetica,sans-Serif" font-size="10.00">_tcp_rcvbuf.h</text>
</a>
</g>
</g>
<!-- Node10&#45;&gt;Node15 -->
<g id="edge16_Node000010_Node000015" class="edge">
<title>Node10&#45;&gt;Node15</title>
<g id="a_edge16_Node000010_Node000015"><a xlink:title=" ">
<path fill="none" stroke="#63b8ff" d="M824.78,-173.6C897.64,-165.79 1015.95,-150.98 1116.25,-128.5 1119.06,-127.87 1121.91,-127.19 1124.79,-126.46"/>
<polygon fill="#63b8ff" stroke="#63b8ff" points="824.57,-170.11 814.99,-174.64 825.3,-177.07 824.57,-170.11"/>
</a>
</g>
</g>
</g>
</svg>
