<?xml version="1.0" encoding="UTF-8" standalone="no"?>
<!DOCTYPE svg PUBLIC "-//W3C//DTD SVG 1.1//EN"
 "http://www.w3.org/Graphics/SVG/1.1/DTD/svg11.dtd">
<!-- Generated by graphviz version 12.1.2 (0)
 -->
<!-- Title: sys/include/net/icmpv6.h Pages: 1 -->
<svg width="1260pt" height="402pt"
 viewBox="0.00 0.00 1259.50 401.75" xmlns="http://www.w3.org/2000/svg" xmlns:xlink="http://www.w3.org/1999/xlink">
<g id="graph0" class="graph" transform="scale(1 1) rotate(0) translate(4 397.75)">
<title>sys/include/net/icmpv6.h</title>
<!-- Node1 -->
<g id="Node000001" class="node">
<title>Node1</title>
<g id="a_Node000001"><a xlink:title="ICMPv6 type and function definitions.">
<polygon fill="#999999" stroke="#666666" points="275,-393.75 137.5,-393.75 137.5,-373 275,-373 275,-393.75"/>
<text text-anchor="middle" x="206.25" y="-380.25" font-family="Helvetica,sans-Serif" font-size="10.00">sys/include/net/icmpv6.h</text>
</a>
</g>
</g>
<!-- Node2 -->
<g id="Node000002" class="node">
<title>Node2</title>
<g id="a_Node000002"><a xlink:href="gnrc_2icmpv6_8h.html" target="_top" xlink:title="Definitions for GNRC&#39;s ICMPv6 implementation.">
<polygon fill="white" stroke="#666666" points="115,-122.12 1.5,-122.12 1.5,-88.62 115,-88.62 115,-122.12"/>
<text text-anchor="start" x="9.5" y="-108.62" font-family="Helvetica,sans-Serif" font-size="10.00">sys/include/net/gnrc</text>
<text text-anchor="middle" x="58.25" y="-95.88" font-family="Helvetica,sans-Serif" font-size="10.00">/icmpv6.h</text>
</a>
</g>
</g>
<!-- Node1&#45;&gt;Node2 -->
<g id="edge1_Node000001_Node000002" class="edge">
<title>Node1&#45;&gt;Node2</title>
<g id="a_edge1_Node000001_Node000002"><a xlink:title=" ">
<path fill="none" stroke="#63b8ff" d="M179.26,-366.83C148.81,-347.69 100.53,-312.18 77.25,-267.5 52.26,-219.54 54.07,-152.89 56.53,-122.56"/>
<polygon fill="#63b8ff" stroke="#63b8ff" points="177.18,-369.66 187.54,-371.89 180.83,-363.69 177.18,-369.66"/>
</a>
</g>
</g>
<!-- Node4 -->
<g id="Node000004" class="node">
<title>Node4</title>
<g id="a_Node000004"><a xlink:href="echo_8h.html" target="_top" xlink:title="ICMPv6 echo message definitions.">
<polygon fill="white" stroke="#666666" points="200,-267.5 86.5,-267.5 86.5,-234 200,-234 200,-267.5"/>
<text text-anchor="start" x="94.5" y="-254" font-family="Helvetica,sans-Serif" font-size="10.00">sys/include/net/gnrc</text>
<text text-anchor="middle" x="143.25" y="-241.25" font-family="Helvetica,sans-Serif" font-size="10.00">/icmpv6/echo.h</text>
</a>
</g>
</g>
<!-- Node1&#45;&gt;Node4 -->
<g id="edge3_Node000001_Node000004" class="edge">
<title>Node1&#45;&gt;Node4</title>
<g id="a_edge3_Node000001_Node000004"><a xlink:title=" ">
<path fill="none" stroke="#63b8ff" d="M196.61,-362.38C184.06,-336.37 162.4,-291.45 150.91,-267.63"/>
<polygon fill="#63b8ff" stroke="#63b8ff" points="193.36,-363.71 200.86,-371.19 199.67,-360.67 193.36,-363.71"/>
</a>
</g>
</g>
<!-- Node5 -->
<g id="Node000005" class="node">
<title>Node5</title>
<g id="a_Node000005"><a xlink:href="net_2gnrc_2icmpv6_2error_8h.html" target="_top" xlink:title="ICMPv6 error message definitions.">
<polygon fill="white" stroke="#666666" points="285,-198 171.5,-198 171.5,-164.5 285,-164.5 285,-198"/>
<text text-anchor="start" x="179.5" y="-184.5" font-family="Helvetica,sans-Serif" font-size="10.00">sys/include/net/gnrc</text>
<text text-anchor="middle" x="228.25" y="-171.75" font-family="Helvetica,sans-Serif" font-size="10.00">/icmpv6/error.h</text>
</a>
</g>
</g>
<!-- Node1&#45;&gt;Node5 -->
<g id="edge5_Node000001_Node000005" class="edge">
<title>Node1&#45;&gt;Node5</title>
<g id="a_edge5_Node000001_Node000005"><a xlink:title=" ">
<path fill="none" stroke="#63b8ff" d="M208.55,-361.47C212.96,-321.37 222.51,-234.43 226.47,-198.4"/>
<polygon fill="#63b8ff" stroke="#63b8ff" points="205.09,-360.9 207.48,-371.22 212.05,-361.66 205.09,-360.9"/>
</a>
</g>
</g>
<!-- Node6 -->
<g id="Node000006" class="node">
<title>Node6</title>
<g id="a_Node000006"><a xlink:href="nib_8h.html" target="_top" xlink:title="NIB definitions.">
<polygon fill="white" stroke="#666666" points="967,-337 853.5,-337 853.5,-303.5 967,-303.5 967,-337"/>
<text text-anchor="start" x="861.5" y="-323.5" font-family="Helvetica,sans-Serif" font-size="10.00">sys/include/net/gnrc</text>
<text text-anchor="middle" x="910.25" y="-310.75" font-family="Helvetica,sans-Serif" font-size="10.00">/ipv6/nib.h</text>
</a>
</g>
</g>
<!-- Node1&#45;&gt;Node6 -->
<g id="edge7_Node000001_Node000006" class="edge">
<title>Node1&#45;&gt;Node6</title>
<g id="a_edge7_Node000001_Node000006"><a xlink:title=" ">
<path fill="none" stroke="#63b8ff" d="M286.7,-375.39C430.54,-362.9 728.42,-337.04 853.26,-326.2"/>
<polygon fill="#63b8ff" stroke="#63b8ff" points="286.52,-371.89 276.86,-376.24 287.13,-378.87 286.52,-371.89"/>
</a>
</g>
</g>
<!-- Node3 -->
<g id="Node000003" class="node">
<title>Node3</title>
<g id="a_Node000003"><a xlink:href="validation_8h.html" target="_top" xlink:title="RPL control message validation functions.">
<polygon fill="white" stroke="#666666" points="116.5,-46.25 0,-46.25 0,0 116.5,0 116.5,-46.25"/>
<text text-anchor="start" x="8" y="-32.75" font-family="Helvetica,sans-Serif" font-size="10.00">sys/net/gnrc/routing</text>
<text text-anchor="start" x="8" y="-20" font-family="Helvetica,sans-Serif" font-size="10.00">/rpl/gnrc_rpl_internal</text>
<text text-anchor="middle" x="58.25" y="-7.25" font-family="Helvetica,sans-Serif" font-size="10.00">/validation.h</text>
</a>
</g>
</g>
<!-- Node2&#45;&gt;Node3 -->
<g id="edge2_Node000002_Node000003" class="edge">
<title>Node2&#45;&gt;Node3</title>
<g id="a_edge2_Node000002_Node000003"><a xlink:title=" ">
<path fill="none" stroke="#63b8ff" d="M58.25,-76.89C58.25,-67.05 58.25,-56.1 58.25,-46.73"/>
<polygon fill="#63b8ff" stroke="#63b8ff" points="54.75,-76.62 58.25,-86.62 61.75,-76.62 54.75,-76.62"/>
</a>
</g>
</g>
<!-- Node4&#45;&gt;Node2 -->
<g id="edge4_Node000004_Node000002" class="edge">
<title>Node4&#45;&gt;Node2</title>
<g id="a_edge4_Node000004_Node000002"><a xlink:title=" ">
<path fill="none" stroke="#63b8ff" d="M127.95,-223.94C110.42,-194.38 82.25,-146.86 67.67,-122.27"/>
<polygon fill="#63b8ff" stroke="#63b8ff" points="124.78,-225.46 132.89,-232.28 130.8,-221.89 124.78,-225.46"/>
</a>
</g>
</g>
<!-- Node5&#45;&gt;Node2 -->
<g id="edge6_Node000005_Node000002" class="edge">
<title>Node5&#45;&gt;Node2</title>
<g id="a_edge6_Node000005_Node000002"><a xlink:title=" ">
<path fill="none" stroke="#63b8ff" d="M180.58,-159.53C153.65,-147.83 120.47,-133.41 95.47,-122.55"/>
<polygon fill="#63b8ff" stroke="#63b8ff" points="178.99,-162.66 189.55,-163.43 181.78,-156.24 178.99,-162.66"/>
</a>
</g>
</g>
<!-- Node7 -->
<g id="Node000007" class="node">
<title>Node7</title>
<g id="a_Node000007"><a xlink:href="gnrc_2ipv6_8h.html" target="_top" xlink:title="Definitions for GNRC&#39;s IPv6 implementation.">
<polygon fill="white" stroke="#666666" points="967,-267.5 853.5,-267.5 853.5,-234 967,-234 967,-267.5"/>
<text text-anchor="start" x="861.5" y="-254" font-family="Helvetica,sans-Serif" font-size="10.00">sys/include/net/gnrc</text>
<text text-anchor="middle" x="910.25" y="-241.25" font-family="Helvetica,sans-Serif" font-size="10.00">/ipv6.h</text>
</a>
</g>
</g>
<!-- Node6&#45;&gt;Node7 -->
<g id="edge8_Node000006_Node000007" class="edge">
<title>Node6&#45;&gt;Node7</title>
<g id="a_edge8_Node000006_Node000007"><a xlink:title=" ">
<path fill="none" stroke="#63b8ff" d="M910.25,-291.81C910.25,-283.59 910.25,-274.84 910.25,-267.63"/>
<polygon fill="#63b8ff" stroke="#63b8ff" points="906.75,-291.74 910.25,-301.74 913.75,-291.74 906.75,-291.74"/>
</a>
</g>
</g>
<!-- Node10 -->
<g id="Node000010" class="node">
<title>Node10</title>
<g id="a_Node000010"><a xlink:href="gnrc__ipv6__auto__subnets_8c.html" target="_top" xlink:title=" ">
<polygon fill="white" stroke="#666666" points="1251.5,-128.5 1117,-128.5 1117,-82.25 1251.5,-82.25 1251.5,-128.5"/>
<text text-anchor="start" x="1125" y="-115" font-family="Helvetica,sans-Serif" font-size="10.00">sys/net/gnrc/routing</text>
<text text-anchor="start" x="1125" y="-102.25" font-family="Helvetica,sans-Serif" font-size="10.00">/ipv6_auto_subnets/gnrc</text>
<text text-anchor="middle" x="1184.25" y="-89.5" font-family="Helvetica,sans-Serif" font-size="10.00">_ipv6_auto_subnets.c</text>
</a>
</g>
</g>
<!-- Node6&#45;&gt;Node10 -->
<g id="edge23_Node000006_Node000010" class="edge">
<title>Node6&#45;&gt;Node10</title>
<g id="a_edge23_Node000006_Node000010"><a xlink:title=" ">
<path fill="none" stroke="#63b8ff" d="M971.89,-299.12C1022.54,-279.94 1093.33,-246.71 1140.25,-198 1159.22,-178.3 1171.35,-148.87 1177.97,-128.71"/>
<polygon fill="#63b8ff" stroke="#63b8ff" points="970.99,-295.72 962.83,-302.48 973.42,-302.29 970.99,-295.72"/>
</a>
</g>
</g>
<!-- Node7&#45;&gt;Node5 -->
<g id="edge9_Node000007_Node000005" class="edge">
<title>Node7&#45;&gt;Node5</title>
<g id="a_edge9_Node000007_Node000005"><a xlink:title=" ">
<path fill="none" stroke="#63b8ff" d="M841.92,-242.99C707.25,-229.66 409.81,-200.22 285.06,-187.87"/>
<polygon fill="#63b8ff" stroke="#63b8ff" points="841.47,-246.46 851.77,-243.96 842.16,-239.49 841.47,-246.46"/>
</a>
</g>
</g>
<!-- Node8 -->
<g id="Node000008" class="node">
<title>Node8</title>
<g id="a_Node000008"><a xlink:href="rpl_8h.html" target="_top" xlink:title="RPL header.">
<polygon fill="white" stroke="#666666" points="1099,-198 985.5,-198 985.5,-164.5 1099,-164.5 1099,-198"/>
<text text-anchor="start" x="993.5" y="-184.5" font-family="Helvetica,sans-Serif" font-size="10.00">sys/include/net/gnrc</text>
<text text-anchor="middle" x="1042.25" y="-171.75" font-family="Helvetica,sans-Serif" font-size="10.00">/rpl.h</text>
</a>
</g>
</g>
<!-- Node7&#45;&gt;Node8 -->
<g id="edge10_Node000007_Node000008" class="edge">
<title>Node7&#45;&gt;Node8</title>
<g id="a_edge10_Node000007_Node000008"><a xlink:title=" ">
<path fill="none" stroke="#63b8ff" d="M952.08,-228.36C971.13,-218.62 993.3,-207.28 1010.89,-198.29"/>
<polygon fill="#63b8ff" stroke="#63b8ff" points="950.52,-225.22 943.21,-232.89 953.71,-231.46 950.52,-225.22"/>
</a>
</g>
</g>
<!-- Node7&#45;&gt;Node10 -->
<g id="edge22_Node000007_Node000010" class="edge">
<title>Node7&#45;&gt;Node10</title>
<g id="a_edge22_Node000007_Node000010"><a xlink:title=" ">
<path fill="none" stroke="#63b8ff" d="M978.64,-242.51C1018.86,-235.76 1069.3,-222.8 1108.25,-198 1135.79,-180.46 1158.29,-149.67 1171.47,-128.67"/>
<polygon fill="#63b8ff" stroke="#63b8ff" points="978.14,-239.04 968.81,-244.05 979.23,-245.96 978.14,-239.04"/>
</a>
</g>
</g>
<!-- Node11 -->
<g id="Node000011" class="node">
<title>Node11</title>
<g id="a_Node000011"><a xlink:href="gnrc_2tcp_8h.html" target="_top" xlink:title="GNRC TCP API.">
<polygon fill="white" stroke="#666666" points="967,-122.12 853.5,-122.12 853.5,-88.62 967,-88.62 967,-122.12"/>
<text text-anchor="start" x="861.5" y="-108.62" font-family="Helvetica,sans-Serif" font-size="10.00">sys/include/net/gnrc</text>
<text text-anchor="middle" x="910.25" y="-95.88" font-family="Helvetica,sans-Serif" font-size="10.00">/tcp.h</text>
</a>
</g>
</g>
<!-- Node7&#45;&gt;Node11 -->
<g id="edge14_Node000007_Node000011" class="edge">
<title>Node7&#45;&gt;Node11</title>
<g id="a_edge14_Node000007_Node000011"><a xlink:title=" ">
<path fill="none" stroke="#63b8ff" d="M910.25,-222.37C910.25,-192.72 910.25,-146.43 910.25,-122.27"/>
<polygon fill="#63b8ff" stroke="#63b8ff" points="906.75,-222.07 910.25,-232.07 913.75,-222.07 906.75,-222.07"/>
</a>
</g>
</g>
<!-- Node12 -->
<g id="Node000012" class="node">
<title>Node12</title>
<g id="a_Node000012"><a xlink:href="tcb_8h.html" target="_top" xlink:title="GNRC TCP transmission control block (TCB)">
<polygon fill="white" stroke="#666666" points="685,-198 571.5,-198 571.5,-164.5 685,-164.5 685,-198"/>
<text text-anchor="start" x="579.5" y="-184.5" font-family="Helvetica,sans-Serif" font-size="10.00">sys/include/net/gnrc</text>
<text text-anchor="middle" x="628.25" y="-171.75" font-family="Helvetica,sans-Serif" font-size="10.00">/tcp/tcb.h</text>
</a>
</g>
</g>
<!-- Node7&#45;&gt;Node12 -->
<g id="edge15_Node000007_Node000012" class="edge">
<title>Node7&#45;&gt;Node12</title>
<g id="a_edge15_Node000007_Node000012"><a xlink:title=" ">
<path fill="none" stroke="#63b8ff" d="M842.26,-233.48C794.23,-221.98 730.6,-206.75 685.23,-195.89"/>
<polygon fill="#63b8ff" stroke="#63b8ff" points="841.17,-236.81 851.71,-235.74 842.8,-230.01 841.17,-236.81"/>
</a>
</g>
</g>
<!-- Node9 -->
<g id="Node000009" class="node">
<title>Node9</title>
<g id="a_Node000009"><a xlink:href="dodag_8h.html" target="_top" xlink:title="DODAG&#45;related functions for RPL.">
<polygon fill="white" stroke="#666666" points="1099,-122.12 985.5,-122.12 985.5,-88.62 1099,-88.62 1099,-122.12"/>
<text text-anchor="start" x="993.5" y="-108.62" font-family="Helvetica,sans-Serif" font-size="10.00">sys/include/net/gnrc</text>
<text text-anchor="middle" x="1042.25" y="-95.88" font-family="Helvetica,sans-Serif" font-size="10.00">/rpl/dodag.h</text>
</a>
</g>
</g>
<!-- Node8&#45;&gt;Node9 -->
<g id="edge11_Node000008_Node000009" class="edge">
<title>Node8&#45;&gt;Node9</title>
<g id="a_edge11_Node000008_Node000009"><a xlink:title=" ">
<path fill="none" stroke="#63b8ff" d="M1035.7,-152.86C1035.26,-142.6 1035.55,-131.27 1036.58,-122.37"/>
<polygon fill="#63b8ff" stroke="#63b8ff" points="1032.21,-153.01 1036.46,-162.71 1039.19,-152.47 1032.21,-153.01"/>
</a>
</g>
</g>
<!-- Node8&#45;&gt;Node10 -->
<g id="edge13_Node000008_Node000010" class="edge">
<title>Node8&#45;&gt;Node10</title>
<g id="a_edge13_Node000008_Node000010"><a xlink:title=" ">
<path fill="none" stroke="#63b8ff" d="M1083.58,-158.75C1101.54,-149.41 1122.58,-138.46 1140.77,-128.99"/>
<polygon fill="#63b8ff" stroke="#63b8ff" points="1082.01,-155.62 1074.76,-163.34 1085.24,-161.83 1082.01,-155.62"/>
</a>
</g>
</g>
<!-- Node9&#45;&gt;Node8 -->
<g id="edge12_Node000009_Node000008" class="edge">
<title>Node9&#45;&gt;Node8</title>
<g id="a_edge12_Node000009_Node000008"><a xlink:title=" ">
<path fill="none" stroke="#63b8ff" d="M1048.79,-133.73C1049.24,-143.99 1048.96,-155.31 1047.93,-164.22"/>
<polygon fill="#63b8ff" stroke="#63b8ff" points="1052.29,-133.59 1048.04,-123.88 1045.31,-134.12 1052.29,-133.59"/>
</a>
</g>
</g>
<!-- Node12&#45;&gt;Node11 -->
<g id="edge16_Node000012_Node000011" class="edge">
<title>Node12&#45;&gt;Node11</title>
<g id="a_edge16_Node000012_Node000011"><a xlink:title=" ">
<path fill="none" stroke="#63b8ff" d="M696.57,-165.51C739.26,-155.89 795.25,-142.55 844.25,-128.5 850.52,-126.7 857.09,-124.68 863.54,-122.6"/>
<polygon fill="#63b8ff" stroke="#63b8ff" points="695.93,-162.06 686.93,-167.66 697.46,-168.89 695.93,-162.06"/>
</a>
</g>
</g>
<!-- Node13 -->
<g id="Node000013" class="node">
<title>Node13</title>
<g id="a_Node000013"><a xlink:href="gnrc__tcp__common_8h.html" target="_top" xlink:title="Internally used defines, macros and variable declarations.">
<polygon fill="white" stroke="#666666" points="835.38,-128.5 709.12,-128.5 709.12,-82.25 835.38,-82.25 835.38,-128.5"/>
<text text-anchor="start" x="717.12" y="-115" font-family="Helvetica,sans-Serif" font-size="10.00">sys/net/gnrc/transport</text>
<text text-anchor="start" x="717.12" y="-102.25" font-family="Helvetica,sans-Serif" font-size="10.00">_layer/tcp/include/gnrc</text>
<text text-anchor="middle" x="772.25" y="-89.5" font-family="Helvetica,sans-Serif" font-size="10.00">_tcp_common.h</text>
</a>
</g>
</g>
<!-- Node12&#45;&gt;Node13 -->
<g id="edge17_Node000012_Node000013" class="edge">
<title>Node12&#45;&gt;Node13</title>
<g id="a_edge17_Node000012_Node000013"><a xlink:title=" ">
<path fill="none" stroke="#63b8ff" d="M669.91,-158.88C688.17,-149.51 709.63,-138.5 728.16,-128.99"/>
<polygon fill="#63b8ff" stroke="#63b8ff" points="668.5,-155.67 661.2,-163.35 671.69,-161.9 668.5,-155.67"/>
</a>
</g>
</g>
<!-- Node14 -->
<g id="Node000014" class="node">
<title>Node14</title>
<g id="a_Node000014"><a xlink:href="gnrc__tcp__fsm_8h.html" target="_top" xlink:title="TCP finite state maschine declarations.">
<polygon fill="white" stroke="#666666" points="259.38,-128.5 133.12,-128.5 133.12,-82.25 259.38,-82.25 259.38,-128.5"/>
<text text-anchor="start" x="141.12" y="-115" font-family="Helvetica,sans-Serif" font-size="10.00">sys/net/gnrc/transport</text>
<text text-anchor="start" x="141.12" y="-102.25" font-family="Helvetica,sans-Serif" font-size="10.00">_layer/tcp/include/gnrc</text>
<text text-anchor="middle" x="196.25" y="-89.5" font-family="Helvetica,sans-Serif" font-size="10.00">_tcp_fsm.h</text>
</a>
</g>
</g>
<!-- Node12&#45;&gt;Node14 -->
<g id="edge18_Node000012_Node000014" class="edge">
<title>Node12&#45;&gt;Node14</title>
<g id="a_edge18_Node000012_Node000014"><a xlink:title=" ">
<path fill="none" stroke="#63b8ff" d="M559.72,-173.6C486.86,-165.79 368.55,-150.98 268.25,-128.5 265.44,-127.87 262.59,-127.19 259.71,-126.46"/>
<polygon fill="#63b8ff" stroke="#63b8ff" points="559.2,-177.07 569.51,-174.64 559.93,-170.11 559.2,-177.07"/>
</a>
</g>
</g>
<!-- Node15 -->
<g id="Node000015" class="node">
<title>Node15</title>
<g id="a_Node000015"><a xlink:href="gnrc__tcp__option_8h.html" target="_top" xlink:title="TCP option handling declarations.">
<polygon fill="white" stroke="#666666" points="403.38,-128.5 277.12,-128.5 277.12,-82.25 403.38,-82.25 403.38,-128.5"/>
<text text-anchor="start" x="285.12" y="-115" font-family="Helvetica,sans-Serif" font-size="10.00">sys/net/gnrc/transport</text>
<text text-anchor="start" x="285.12" y="-102.25" font-family="Helvetica,sans-Serif" font-size="10.00">_layer/tcp/include/gnrc</text>
<text text-anchor="middle" x="340.25" y="-89.5" font-family="Helvetica,sans-Serif" font-size="10.00">_tcp_option.h</text>
</a>
</g>
</g>
<!-- Node12&#45;&gt;Node15 -->
<g id="edge19_Node000012_Node000015" class="edge">
<title>Node12&#45;&gt;Node15</title>
<g id="a_edge19_Node000012_Node000015"><a xlink:title=" ">
<path fill="none" stroke="#63b8ff" d="M560.05,-165.07C517.4,-155.29 461.42,-141.93 412.25,-128.5 409.47,-127.74 406.64,-126.95 403.79,-126.14"/>
<polygon fill="#63b8ff" stroke="#63b8ff" points="559.15,-168.45 569.68,-167.27 560.71,-161.63 559.15,-168.45"/>
</a>
</g>
</g>
<!-- Node16 -->
<g id="Node000016" class="node">
<title>Node16</title>
<g id="a_Node000016"><a xlink:href="gnrc__tcp__pkt_8h.html" target="_top" xlink:title="TCP packet handling declarations.">
<polygon fill="white" stroke="#666666" points="547.38,-128.5 421.12,-128.5 421.12,-82.25 547.38,-82.25 547.38,-128.5"/>
<text text-anchor="start" x="429.12" y="-115" font-family="Helvetica,sans-Serif" font-size="10.00">sys/net/gnrc/transport</text>
<text text-anchor="start" x="429.12" y="-102.25" font-family="Helvetica,sans-Serif" font-size="10.00">_layer/tcp/include/gnrc</text>
<text text-anchor="middle" x="484.25" y="-89.5" font-family="Helvetica,sans-Serif" font-size="10.00">_tcp_pkt.h</text>
</a>
</g>
</g>
<!-- Node12&#45;&gt;Node16 -->
<g id="edge20_Node000012_Node000016" class="edge">
<title>Node12&#45;&gt;Node16</title>
<g id="a_edge20_Node000012_Node000016"><a xlink:title=" ">
<path fill="none" stroke="#63b8ff" d="M586.59,-158.88C568.33,-149.51 546.87,-138.5 528.34,-128.99"/>
<polygon fill="#63b8ff" stroke="#63b8ff" points="584.81,-161.9 595.3,-163.35 588,-155.67 584.81,-161.9"/>
</a>
</g>
</g>
<!-- Node17 -->
<g id="Node000017" class="node">
<title>Node17</title>
<g id="a_Node000017"><a xlink:href="gnrc__tcp__rcvbuf_8h.html" target="_top" xlink:title="Functions for allocating and freeing the receive buffer.">
<polygon fill="white" stroke="#666666" points="691.38,-128.5 565.12,-128.5 565.12,-82.25 691.38,-82.25 691.38,-128.5"/>
<text text-anchor="start" x="573.12" y="-115" font-family="Helvetica,sans-Serif" font-size="10.00">sys/net/gnrc/transport</text>
<text text-anchor="start" x="573.12" y="-102.25" font-family="Helvetica,sans-Serif" font-size="10.00">_layer/tcp/include/gnrc</text>
<text text-anchor="middle" x="628.25" y="-89.5" font-family="Helvetica,sans-Serif" font-size="10.00">_tcp_rcvbuf.h</text>
</a>
</g>
</g>
<!-- Node12&#45;&gt;Node17 -->
<g id="edge21_Node000012_Node000017" class="edge">
<title>Node12&#45;&gt;Node17</title>
<g id="a_edge21_Node000012_Node000017"><a xlink:title=" ">
<path fill="none" stroke="#63b8ff" d="M628.25,-152.89C628.25,-144.96 628.25,-136.41 628.25,-128.82"/>
<polygon fill="#63b8ff" stroke="#63b8ff" points="624.75,-152.71 628.25,-162.71 631.75,-152.71 624.75,-152.71"/>
</a>
</g>
</g>
</g>
</svg>
