<?xml version="1.0" encoding="UTF-8" standalone="no"?>
<!DOCTYPE svg PUBLIC "-//W3C//DTD SVG 1.1//EN"
 "http://www.w3.org/Graphics/SVG/1.1/DTD/svg11.dtd">
<!-- Generated by graphviz version 12.1.2 (0)
 -->
<!-- Title: sys/include/net/sock/ip.h Pages: 1 -->
<svg width="438pt" height="142pt"
 viewBox="0.00 0.00 438.12 142.25" xmlns="http://www.w3.org/2000/svg" xmlns:xlink="http://www.w3.org/1999/xlink">
<g id="graph0" class="graph" transform="scale(1 1) rotate(0) translate(4 138.25)">
<title>sys/include/net/sock/ip.h</title>
<!-- Node1 -->
<g id="Node000001" class="node">
<title>Node1</title>
<g id="a_Node000001"><a xlink:title="Raw IPv4/IPv6 sock definitions.">
<polygon fill="#999999" stroke="#666666" points="240.25,-134.25 104.25,-134.25 104.25,-113.5 240.25,-113.5 240.25,-134.25"/>
<text text-anchor="middle" x="172.25" y="-120.75" font-family="Helvetica,sans-Serif" font-size="10.00">sys/include/net/sock/ip.h</text>
</a>
</g>
</g>
<!-- Node2 -->
<g id="Node000002" class="node">
<title>Node2</title>
<g id="a_Node000002"><a xlink:href="errno_8h.html" target="_top" xlink:title=" ">
<polygon fill="white" stroke="#666666" points="50.5,-77.5 0,-77.5 0,-56.75 50.5,-56.75 50.5,-77.5"/>
<text text-anchor="middle" x="25.25" y="-64" font-family="Helvetica,sans-Serif" font-size="10.00">errno.h</text>
</a>
</g>
</g>
<!-- Node1&#45;&gt;Node2 -->
<g id="edge1_Node000001_Node000002" class="edge">
<title>Node1&#45;&gt;Node2</title>
<g id="a_edge1_Node000001_Node000002"><a xlink:title=" ">
<path fill="none" stroke="#63b8ff" d="M145.97,-113.09C122.41,-104.31 87.63,-91.36 61.45,-81.61"/>
<polygon fill="#63b8ff" stroke="#63b8ff" points="62.82,-78.38 52.23,-78.17 60.38,-84.94 62.82,-78.38"/>
</a>
</g>
</g>
<!-- Node3 -->
<g id="Node000003" class="node">
<title>Node3</title>
<g id="a_Node000003"><a xlink:title=" ">
<polygon fill="#e0e0e0" stroke="#999999" points="179.62,-20.75 126.88,-20.75 126.88,0 179.62,0 179.62,-20.75"/>
<text text-anchor="middle" x="153.25" y="-7.25" font-family="Helvetica,sans-Serif" font-size="10.00">stdint.h</text>
</a>
</g>
</g>
<!-- Node1&#45;&gt;Node3 -->
<g id="edge2_Node000001_Node000003" class="edge">
<title>Node1&#45;&gt;Node3</title>
<g id="a_edge2_Node000001_Node000003"><a xlink:title=" ">
<path fill="none" stroke="#63b8ff" d="M142.31,-113.08C125.86,-105.99 106.89,-94.6 97.25,-77.5 86.55,-58.53 105.86,-39.87 124.66,-27.23"/>
<polygon fill="#63b8ff" stroke="#63b8ff" points="126.39,-30.28 133,-22.01 122.67,-24.35 126.39,-30.28"/>
</a>
</g>
</g>
<!-- Node4 -->
<g id="Node000004" class="node">
<title>Node4</title>
<g id="a_Node000004"><a xlink:title=" ">
<polygon fill="#e0e0e0" stroke="#999999" points="158.25,-77.5 106.25,-77.5 106.25,-56.75 158.25,-56.75 158.25,-77.5"/>
<text text-anchor="middle" x="132.25" y="-64" font-family="Helvetica,sans-Serif" font-size="10.00">stdlib.h</text>
</a>
</g>
</g>
<!-- Node1&#45;&gt;Node4 -->
<g id="edge3_Node000001_Node000004" class="edge">
<title>Node1&#45;&gt;Node4</title>
<g id="a_edge3_Node000001_Node000004"><a xlink:title=" ">
<path fill="none" stroke="#63b8ff" d="M165.1,-113.09C159.81,-105.85 152.44,-95.76 146.02,-86.97"/>
<polygon fill="#63b8ff" stroke="#63b8ff" points="148.96,-85.06 140.23,-79.05 143.31,-89.19 148.96,-85.06"/>
</a>
</g>
</g>
<!-- Node5 -->
<g id="Node000005" class="node">
<title>Node5</title>
<g id="a_Node000005"><a xlink:title=" ">
<polygon fill="#e0e0e0" stroke="#999999" points="248,-77.5 176.5,-77.5 176.5,-56.75 248,-56.75 248,-77.5"/>
<text text-anchor="middle" x="212.25" y="-64" font-family="Helvetica,sans-Serif" font-size="10.00">sys/types.h</text>
</a>
</g>
</g>
<!-- Node1&#45;&gt;Node5 -->
<g id="edge4_Node000001_Node000005" class="edge">
<title>Node1&#45;&gt;Node5</title>
<g id="a_edge4_Node000001_Node000005"><a xlink:title=" ">
<path fill="none" stroke="#63b8ff" d="M179.4,-113.09C184.69,-105.85 192.06,-95.76 198.48,-86.97"/>
<polygon fill="#63b8ff" stroke="#63b8ff" points="201.19,-89.19 204.27,-79.05 195.54,-85.06 201.19,-89.19"/>
</a>
</g>
</g>
<!-- Node6 -->
<g id="Node000006" class="node">
<title>Node6</title>
<g id="a_Node000006"><a xlink:href="sock_8h.html" target="_top" xlink:title="Common sock API definitions.">
<polygon fill="white" stroke="#666666" points="332.38,-77.5 266.12,-77.5 266.12,-56.75 332.38,-56.75 332.38,-77.5"/>
<text text-anchor="middle" x="299.25" y="-64" font-family="Helvetica,sans-Serif" font-size="10.00">net/sock.h</text>
</a>
</g>
</g>
<!-- Node1&#45;&gt;Node6 -->
<g id="edge5_Node000001_Node000006" class="edge">
<title>Node1&#45;&gt;Node6</title>
<g id="a_edge5_Node000001_Node000006"><a xlink:title=" ">
<path fill="none" stroke="#63b8ff" d="M194.96,-113.09C214.82,-104.52 243.92,-91.98 266.34,-82.31"/>
<polygon fill="#63b8ff" stroke="#63b8ff" points="267.55,-85.6 275.35,-78.43 264.78,-79.17 267.55,-85.6"/>
</a>
</g>
</g>
<!-- Node9 -->
<g id="Node000009" class="node">
<title>Node9</title>
<g id="a_Node000009"><a xlink:title=" ">
<polygon fill="#e0e0e0" stroke="#999999" points="430.12,-77.5 350.38,-77.5 350.38,-56.75 430.12,-56.75 430.12,-77.5"/>
<text text-anchor="middle" x="390.25" y="-64" font-family="Helvetica,sans-Serif" font-size="10.00">sock_types.h</text>
</a>
</g>
</g>
<!-- Node1&#45;&gt;Node9 -->
<g id="edge9_Node000001_Node000009" class="edge">
<title>Node1&#45;&gt;Node9</title>
<g id="a_edge9_Node000001_Node000009"><a xlink:title=" ">
<path fill="none" stroke="#63b8ff" d="M211.48,-113.02C247.4,-104 300.77,-90.6 339.85,-80.78"/>
<polygon fill="#63b8ff" stroke="#63b8ff" points="340.66,-84.19 349.5,-78.36 338.95,-77.4 340.66,-84.19"/>
</a>
</g>
</g>
<!-- Node6&#45;&gt;Node3 -->
<g id="edge6_Node000006_Node000003" class="edge">
<title>Node6&#45;&gt;Node3</title>
<g id="a_edge6_Node000006_Node000003"><a xlink:title=" ">
<path fill="none" stroke="#63b8ff" d="M273.15,-56.34C249.9,-47.62 215.63,-34.77 189.68,-25.04"/>
<polygon fill="#63b8ff" stroke="#63b8ff" points="191.14,-21.84 180.54,-21.61 188.68,-28.4 191.14,-21.84"/>
</a>
</g>
</g>
<!-- Node7 -->
<g id="Node000007" class="node">
<title>Node7</title>
<g id="a_Node000007"><a xlink:title=" ">
<polygon fill="#e0e0e0" stroke="#999999" points="291.75,-20.75 236.75,-20.75 236.75,0 291.75,0 291.75,-20.75"/>
<text text-anchor="middle" x="264.25" y="-7.25" font-family="Helvetica,sans-Serif" font-size="10.00">stddef.h</text>
</a>
</g>
</g>
<!-- Node6&#45;&gt;Node7 -->
<g id="edge7_Node000006_Node000007" class="edge">
<title>Node6&#45;&gt;Node7</title>
<g id="a_edge7_Node000006_Node000007"><a xlink:title=" ">
<path fill="none" stroke="#63b8ff" d="M292.99,-56.34C288.41,-49.17 282.05,-39.23 276.48,-30.51"/>
<polygon fill="#63b8ff" stroke="#63b8ff" points="279.6,-28.89 271.27,-22.35 273.71,-32.66 279.6,-28.89"/>
</a>
</g>
</g>
<!-- Node8 -->
<g id="Node000008" class="node">
<title>Node8</title>
<g id="a_Node000008"><a xlink:href="iolist_8h.html" target="_top" xlink:title="iolist scatter / gather IO">
<polygon fill="white" stroke="#666666" points="358.75,-20.75 309.75,-20.75 309.75,0 358.75,0 358.75,-20.75"/>
<text text-anchor="middle" x="334.25" y="-7.25" font-family="Helvetica,sans-Serif" font-size="10.00">iolist.h</text>
</a>
</g>
</g>
<!-- Node6&#45;&gt;Node8 -->
<g id="edge8_Node000006_Node000008" class="edge">
<title>Node6&#45;&gt;Node8</title>
<g id="a_edge8_Node000006_Node000008"><a xlink:title=" ">
<path fill="none" stroke="#63b8ff" d="M305.51,-56.34C310.09,-49.17 316.45,-39.23 322.02,-30.51"/>
<polygon fill="#63b8ff" stroke="#63b8ff" points="324.79,-32.66 327.23,-22.35 318.9,-28.89 324.79,-32.66"/>
</a>
</g>
</g>
</g>
</svg>
