<?xml version="1.0" encoding="UTF-8" standalone="no"?>
<!DOCTYPE svg PUBLIC "-//W3C//DTD SVG 1.1//EN"
 "http://www.w3.org/Graphics/SVG/1.1/DTD/svg11.dtd">
<!-- Generated by graphviz version 12.1.2 (0)
 -->
<!-- Title: drivers/kw2xrf/include/kw2xrf_tm.h Pages: 1 -->
<svg width="1363pt" height="552pt"
 viewBox="0.00 0.00 1362.71 552.25" xmlns="http://www.w3.org/2000/svg" xmlns:xlink="http://www.w3.org/1999/xlink">
<g id="graph0" class="graph" transform="scale(1 1) rotate(0) translate(4 548.25)">
<title>drivers/kw2xrf/include/kw2xrf_tm.h</title>
<!-- Node1 -->
<g id="Node000001" class="node">
<title>Node1</title>
<g id="a_Node000001"><a xlink:title="Testing interfaces for kw2xrf driver.">
<polygon fill="#999999" stroke="#666666" points="563.09,-544.25 438.34,-544.25 438.34,-510.75 563.09,-510.75 563.09,-544.25"/>
<text text-anchor="start" x="446.34" y="-530.75" font-family="Helvetica,sans-Serif" font-size="10.00">drivers/kw2xrf/include</text>
<text text-anchor="middle" x="500.71" y="-518" font-family="Helvetica,sans-Serif" font-size="10.00">/kw2xrf_tm.h</text>
</a>
</g>
</g>
<!-- Node2 -->
<g id="Node000002" class="node">
<title>Node2</title>
<g id="a_Node000002"><a xlink:href="kw2xrf_8h.html" target="_top" xlink:title="Interface definition for the kw2xrf driver.">
<polygon fill="white" stroke="#666666" points="555.71,-418 497.71,-418 497.71,-397.25 555.71,-397.25 555.71,-418"/>
<text text-anchor="middle" x="526.71" y="-404.5" font-family="Helvetica,sans-Serif" font-size="10.00">kw2xrf.h</text>
</a>
</g>
</g>
<!-- Node1&#45;&gt;Node2 -->
<g id="edge1_Node000001_Node000002" class="edge">
<title>Node1&#45;&gt;Node2</title>
<g id="a_edge1_Node000001_Node000002"><a xlink:title=" ">
<path fill="none" stroke="#63b8ff" d="M491.14,-510.54C483.46,-495.57 475.11,-472.75 482.71,-454 487.13,-443.1 495.57,-433.37 503.88,-425.74"/>
<polygon fill="#63b8ff" stroke="#63b8ff" points="506.11,-428.43 511.5,-419.31 501.6,-423.08 506.11,-428.43"/>
</a>
</g>
</g>
<!-- Node16 -->
<g id="Node000016" class="node">
<title>Node16</title>
<g id="a_Node000016"><a xlink:href="netopt_8h.html" target="_top" xlink:title="Definition of global configuration options.">
<polygon fill="white" stroke="#666666" points="497.34,-191 422.09,-191 422.09,-170.25 497.34,-170.25 497.34,-191"/>
<text text-anchor="middle" x="459.71" y="-177.5" font-family="Helvetica,sans-Serif" font-size="10.00">net/netopt.h</text>
</a>
</g>
</g>
<!-- Node1&#45;&gt;Node16 -->
<g id="edge69_Node000001_Node000016" class="edge">
<title>Node1&#45;&gt;Node16</title>
<g id="a_edge69_Node000001_Node000016"><a xlink:title=" ">
<path fill="none" stroke="#63b8ff" d="M445.45,-510.37C399.89,-493.28 342.71,-461.33 342.71,-408.62 342.71,-408.62 342.71,-408.62 342.71,-293.12 342.71,-246.84 391.28,-213.92 425.83,-196.35"/>
<polygon fill="#63b8ff" stroke="#63b8ff" points="427.21,-199.57 434.67,-192.05 424.15,-193.27 427.21,-199.57"/>
</a>
</g>
</g>
<!-- Node37 -->
<g id="Node000037" class="node">
<title>Node37</title>
<g id="a_Node000037"><a xlink:href="kw2xrf__reg_8h.html" target="_top" xlink:title="Register and command definitions for the MKW2XD Modem.">
<polygon fill="white" stroke="#666666" points="653.59,-418 573.84,-418 573.84,-397.25 653.59,-397.25 653.59,-418"/>
<text text-anchor="middle" x="613.71" y="-404.5" font-family="Helvetica,sans-Serif" font-size="10.00">kw2xrf_reg.h</text>
</a>
</g>
</g>
<!-- Node1&#45;&gt;Node37 -->
<g id="edge65_Node000001_Node000037" class="edge">
<title>Node1&#45;&gt;Node37</title>
<g id="a_edge65_Node000001_Node000037"><a xlink:title=" ">
<path fill="none" stroke="#63b8ff" d="M546.05,-510.38C563.47,-502.14 582.16,-490.47 594.71,-474.75 605.09,-461.75 609.8,-443.34 611.93,-429.24"/>
<polygon fill="#63b8ff" stroke="#63b8ff" points="615.36,-430.05 613.05,-419.71 608.41,-429.23 615.36,-430.05"/>
</a>
</g>
</g>
<!-- Node38 -->
<g id="Node000038" class="node">
<title>Node38</title>
<g id="a_Node000038"><a xlink:href="kw2xrf__getset_8h.html" target="_top" xlink:title="get/set interfaces for kw2xrf driver">
<polygon fill="white" stroke="#666666" points="586.09,-474.75 491.34,-474.75 491.34,-454 586.09,-454 586.09,-474.75"/>
<text text-anchor="middle" x="538.71" y="-461.25" font-family="Helvetica,sans-Serif" font-size="10.00">kw2xrf_getset.h</text>
</a>
</g>
</g>
<!-- Node1&#45;&gt;Node38 -->
<g id="edge66_Node000001_Node000038" class="edge">
<title>Node1&#45;&gt;Node38</title>
<g id="a_edge66_Node000001_Node000038"><a xlink:title=" ">
<path fill="none" stroke="#63b8ff" d="M510.7,-510.44C515.58,-502.58 521.5,-493.06 526.64,-484.79"/>
<polygon fill="#63b8ff" stroke="#63b8ff" points="529.49,-486.84 531.79,-476.5 523.54,-483.15 529.49,-486.84"/>
</a>
</g>
</g>
<!-- Node3 -->
<g id="Node000003" class="node">
<title>Node3</title>
<g id="a_Node000003"><a xlink:title=" ">
<polygon fill="#e0e0e0" stroke="#999999" points="802.09,-20.75 749.34,-20.75 749.34,0 802.09,0 802.09,-20.75"/>
<text text-anchor="middle" x="775.71" y="-7.25" font-family="Helvetica,sans-Serif" font-size="10.00">stdint.h</text>
</a>
</g>
</g>
<!-- Node2&#45;&gt;Node3 -->
<g id="edge2_Node000002_Node000003" class="edge">
<title>Node2&#45;&gt;Node3</title>
<g id="a_edge2_Node000002_Node000003"><a xlink:title=" ">
<path fill="none" stroke="#63b8ff" d="M556.1,-399.03C559,-398.38 561.91,-397.78 564.71,-397.25 651.71,-380.95 1354.71,-383.63 1354.71,-295.12 1354.71,-295.12 1354.71,-295.12 1354.71,-122.88 1354.71,-67.59 942.49,-26.22 813.69,-14.64"/>
<polygon fill="#63b8ff" stroke="#63b8ff" points="814.26,-11.18 803.98,-13.78 813.64,-18.15 814.26,-11.18"/>
</a>
</g>
</g>
<!-- Node4 -->
<g id="Node000004" class="node">
<title>Node4</title>
<g id="a_Node000004"><a xlink:title=" ">
<polygon fill="#e0e0e0" stroke="#999999" points="423.09,-361.25 370.34,-361.25 370.34,-340.5 423.09,-340.5 423.09,-361.25"/>
<text text-anchor="middle" x="396.71" y="-347.75" font-family="Helvetica,sans-Serif" font-size="10.00">board.h</text>
</a>
</g>
</g>
<!-- Node2&#45;&gt;Node4 -->
<g id="edge3_Node000002_Node000004" class="edge">
<title>Node2&#45;&gt;Node4</title>
<g id="a_edge3_Node000002_Node000004"><a xlink:title=" ">
<path fill="none" stroke="#63b8ff" d="M503.47,-396.84C483.04,-388.23 453.07,-375.61 430.08,-365.93"/>
<polygon fill="#63b8ff" stroke="#63b8ff" points="431.72,-362.82 421.15,-362.17 429,-369.27 431.72,-362.82"/>
</a>
</g>
</g>
<!-- Node5 -->
<g id="Node000005" class="node">
<title>Node5</title>
<g id="a_Node000005"><a xlink:href="spi_8h.html" target="_top" xlink:title="Low&#45;level SPI peripheral driver interface definition.">
<polygon fill="white" stroke="#666666" points="263.21,-191 190.21,-191 190.21,-170.25 263.21,-170.25 263.21,-191"/>
<text text-anchor="middle" x="226.71" y="-177.5" font-family="Helvetica,sans-Serif" font-size="10.00">periph/spi.h</text>
</a>
</g>
</g>
<!-- Node2&#45;&gt;Node5 -->
<g id="edge4_Node000002_Node000005" class="edge">
<title>Node2&#45;&gt;Node5</title>
<g id="a_edge4_Node000002_Node000005"><a xlink:title=" ">
<path fill="none" stroke="#63b8ff" d="M513.82,-396.96C467.28,-362.05 307.56,-242.26 248.71,-198.13"/>
<polygon fill="#63b8ff" stroke="#63b8ff" points="250.87,-195.37 240.77,-192.17 246.67,-200.97 250.87,-195.37"/>
</a>
</g>
</g>
<!-- Node12 -->
<g id="Node000012" class="node">
<title>Node12</title>
<g id="a_Node000012"><a xlink:href="drivers_2include_2periph_2gpio_8h.html" target="_top" xlink:title="Low&#45;level GPIO peripheral driver interface definitions.">
<polygon fill="white" stroke="#666666" points="198.59,-134.25 118.84,-134.25 118.84,-113.5 198.59,-113.5 198.59,-134.25"/>
<text text-anchor="middle" x="158.71" y="-120.75" font-family="Helvetica,sans-Serif" font-size="10.00">periph/gpio.h</text>
</a>
</g>
</g>
<!-- Node2&#45;&gt;Node12 -->
<g id="edge17_Node000002_Node000012" class="edge">
<title>Node2&#45;&gt;Node12</title>
<g id="a_edge17_Node000002_Node000012"><a xlink:title=" ">
<path fill="none" stroke="#63b8ff" d="M518.94,-397.09C489.94,-362.07 383.92,-239.01 271.71,-170.25 249.97,-156.93 223.63,-146.08 201.85,-138.34"/>
<polygon fill="#63b8ff" stroke="#63b8ff" points="203.27,-135.13 192.68,-135.18 200.99,-141.75 203.27,-135.13"/>
</a>
</g>
</g>
<!-- Node14 -->
<g id="Node000014" class="node">
<title>Node14</title>
<g id="a_Node000014"><a xlink:href="drivers_2include_2net_2netdev_8h.html" target="_top" xlink:title="Definitions low&#45;level network driver interface.">
<polygon fill="white" stroke="#666666" points="669.09,-247.75 592.34,-247.75 592.34,-227 669.09,-227 669.09,-247.75"/>
<text text-anchor="middle" x="630.71" y="-234.25" font-family="Helvetica,sans-Serif" font-size="10.00">net/netdev.h</text>
</a>
</g>
</g>
<!-- Node2&#45;&gt;Node14 -->
<g id="edge18_Node000002_Node000014" class="edge">
<title>Node2&#45;&gt;Node14</title>
<g id="a_edge18_Node000002_Node000014"><a xlink:title=" ">
<path fill="none" stroke="#63b8ff" d="M529.62,-396.83C533.76,-383.57 542.05,-359.41 552.71,-340.5 570.51,-308.94 597.12,-276.31 614.2,-256.68"/>
<polygon fill="#63b8ff" stroke="#63b8ff" points="616.74,-259.1 620.73,-249.29 611.49,-254.46 616.74,-259.1"/>
</a>
</g>
</g>
<!-- Node23 -->
<g id="Node000023" class="node">
<title>Node23</title>
<g id="a_Node000023"><a xlink:href="drivers_2include_2net_2netdev_2ieee802154_8h.html" target="_top" xlink:title="Definitions for netdev common IEEE 802.15.4 code.">
<polygon fill="white" stroke="#666666" points="699.46,-361.25 561.96,-361.25 561.96,-340.5 699.46,-340.5 699.46,-361.25"/>
<text text-anchor="middle" x="630.71" y="-347.75" font-family="Helvetica,sans-Serif" font-size="10.00">net/netdev/ieee802154.h</text>
</a>
</g>
</g>
<!-- Node2&#45;&gt;Node23 -->
<g id="edge36_Node000002_Node000023" class="edge">
<title>Node2&#45;&gt;Node23</title>
<g id="a_edge36_Node000002_Node000023"><a xlink:title=" ">
<path fill="none" stroke="#63b8ff" d="M545.3,-396.84C561.13,-388.51 584.11,-376.41 602.25,-366.86"/>
<polygon fill="#63b8ff" stroke="#63b8ff" points="603.72,-370.04 610.94,-362.28 600.46,-363.84 603.72,-370.04"/>
</a>
</g>
</g>
<!-- Node32 -->
<g id="Node000032" class="node">
<title>Node32</title>
<g id="a_Node000032"><a xlink:href="nettype_8h.html" target="_top" xlink:title="Protocol type definitions.">
<polygon fill="white" stroke="#666666" points="1098.34,-304.5 993.09,-304.5 993.09,-283.75 1098.34,-283.75 1098.34,-304.5"/>
<text text-anchor="middle" x="1045.71" y="-291" font-family="Helvetica,sans-Serif" font-size="10.00">net/gnrc/nettype.h</text>
</a>
</g>
</g>
<!-- Node2&#45;&gt;Node32 -->
<g id="edge63_Node000002_Node000032" class="edge">
<title>Node2&#45;&gt;Node32</title>
<g id="a_edge63_Node000002_Node000032"><a xlink:title=" ">
<path fill="none" stroke="#63b8ff" d="M556,-399.37C607.01,-386.74 706.91,-361.95 708.71,-361.25 726.64,-354.25 728.48,-346.65 746.71,-340.5 824.88,-314.14 919.73,-303.05 981.34,-298.41"/>
<polygon fill="#63b8ff" stroke="#63b8ff" points="981.59,-301.9 991.31,-297.7 981.09,-294.92 981.59,-301.9"/>
</a>
</g>
</g>
<!-- Node36 -->
<g id="Node000036" class="node">
<title>Node36</title>
<g id="a_Node000036"><a xlink:title=" ">
<polygon fill="#e0e0e0" stroke="#999999" points="811.96,-361.25 755.46,-361.25 755.46,-340.5 811.96,-340.5 811.96,-361.25"/>
<text text-anchor="middle" x="783.71" y="-347.75" font-family="Helvetica,sans-Serif" font-size="10.00">thread.h</text>
</a>
</g>
</g>
<!-- Node2&#45;&gt;Node36 -->
<g id="edge64_Node000002_Node000036" class="edge">
<title>Node2&#45;&gt;Node36</title>
<g id="a_edge64_Node000002_Node000036"><a xlink:title=" ">
<path fill="none" stroke="#63b8ff" d="M556.14,-399.24C559.03,-398.55 561.93,-397.88 564.71,-397.25 643.03,-379.63 663.2,-378 741.71,-361.25 742.53,-361.07 743.36,-360.9 744.2,-360.72"/>
<polygon fill="#63b8ff" stroke="#63b8ff" points="744.76,-364.18 753.78,-358.62 743.27,-357.34 744.76,-364.18"/>
</a>
</g>
</g>
<!-- Node5&#45;&gt;Node3 -->
<g id="edge10_Node000005_Node000003" class="edge">
<title>Node5&#45;&gt;Node3</title>
<g id="a_edge10_Node000005_Node000003"><a xlink:title=" ">
<path fill="none" stroke="#63b8ff" d="M189.78,-173.07C114.37,-158.23 -45.46,-118.49 12.71,-56.75 37.83,-30.1 587.08,-15.67 737.77,-12.2"/>
<polygon fill="#63b8ff" stroke="#63b8ff" points="737.68,-15.71 747.6,-11.98 737.53,-8.71 737.68,-15.71"/>
</a>
</g>
</g>
<!-- Node6 -->
<g id="Node000006" class="node">
<title>Node6</title>
<g id="a_Node000006"><a xlink:href="endian_8h.html" target="_top" xlink:title="libc header for endian conversion">
<polygon fill="white" stroke="#666666" points="616.71,-77.5 558.71,-77.5 558.71,-56.75 616.71,-56.75 616.71,-77.5"/>
<text text-anchor="middle" x="587.71" y="-64" font-family="Helvetica,sans-Serif" font-size="10.00">endian.h</text>
</a>
</g>
</g>
<!-- Node5&#45;&gt;Node6 -->
<g id="edge5_Node000005_Node000006" class="edge">
<title>Node5&#45;&gt;Node6</title>
<g id="a_edge5_Node000005_Node000006"><a xlink:title=" ">
<path fill="none" stroke="#63b8ff" d="M231.91,-170.07C240.53,-155.23 259.29,-126.96 283.71,-113.5 328.31,-88.92 475.4,-75.77 547.36,-70.67"/>
<polygon fill="#63b8ff" stroke="#63b8ff" points="547.4,-74.17 557.14,-69.99 546.92,-67.19 547.4,-74.17"/>
</a>
</g>
</g>
<!-- Node7 -->
<g id="Node000007" class="node">
<title>Node7</title>
<g id="a_Node000007"><a xlink:href="errno_8h.html" target="_top" xlink:title=" ">
<polygon fill="white" stroke="#666666" points="460.96,-134.25 410.46,-134.25 410.46,-113.5 460.96,-113.5 460.96,-134.25"/>
<text text-anchor="middle" x="435.71" y="-120.75" font-family="Helvetica,sans-Serif" font-size="10.00">errno.h</text>
</a>
</g>
</g>
<!-- Node5&#45;&gt;Node7 -->
<g id="edge7_Node000005_Node000007" class="edge">
<title>Node5&#45;&gt;Node7</title>
<g id="a_edge7_Node000005_Node000007"><a xlink:title=" ">
<path fill="none" stroke="#63b8ff" d="M263.6,-169.96C301.72,-159.98 360.89,-144.48 398.97,-134.5"/>
<polygon fill="#63b8ff" stroke="#63b8ff" points="399.81,-137.9 408.59,-131.98 398.03,-131.13 399.81,-137.9"/>
</a>
</g>
</g>
<!-- Node8 -->
<g id="Node000008" class="node">
<title>Node8</title>
<g id="a_Node000008"><a xlink:title=" ">
<polygon fill="#e0e0e0" stroke="#999999" points="354.21,-134.25 293.21,-134.25 293.21,-113.5 354.21,-113.5 354.21,-134.25"/>
<text text-anchor="middle" x="323.71" y="-120.75" font-family="Helvetica,sans-Serif" font-size="10.00">stdbool.h</text>
</a>
</g>
</g>
<!-- Node5&#45;&gt;Node8 -->
<g id="edge8_Node000005_Node000008" class="edge">
<title>Node5&#45;&gt;Node8</title>
<g id="a_edge8_Node000005_Node000008"><a xlink:title=" ">
<path fill="none" stroke="#63b8ff" d="M244.05,-169.84C258.67,-161.58 279.85,-149.63 296.69,-140.13"/>
<polygon fill="#63b8ff" stroke="#63b8ff" points="298.21,-143.29 305.2,-135.32 294.77,-137.19 298.21,-143.29"/>
</a>
</g>
</g>
<!-- Node9 -->
<g id="Node000009" class="node">
<title>Node9</title>
<g id="a_Node000009"><a xlink:title=" ">
<polygon fill="#e0e0e0" stroke="#999999" points="349.21,-77.5 294.21,-77.5 294.21,-56.75 349.21,-56.75 349.21,-77.5"/>
<text text-anchor="middle" x="321.71" y="-64" font-family="Helvetica,sans-Serif" font-size="10.00">stddef.h</text>
</a>
</g>
</g>
<!-- Node5&#45;&gt;Node9 -->
<g id="edge9_Node000005_Node000009" class="edge">
<title>Node5&#45;&gt;Node9</title>
<g id="a_edge9_Node000005_Node000009"><a xlink:title=" ">
<path fill="none" stroke="#63b8ff" d="M228.17,-170.14C230.69,-156.38 236.97,-130.66 250.71,-113.5 260.84,-100.85 275.49,-90.65 288.86,-83.15"/>
<polygon fill="#63b8ff" stroke="#63b8ff" points="290.19,-86.41 297.4,-78.65 286.92,-80.22 290.19,-86.41"/>
</a>
</g>
</g>
<!-- Node10 -->
<g id="Node000010" class="node">
<title>Node10</title>
<g id="a_Node000010"><a xlink:title=" ">
<polygon fill="#e0e0e0" stroke="#999999" points="99.84,-77.5 21.59,-77.5 21.59,-56.75 99.84,-56.75 99.84,-77.5"/>
<text text-anchor="middle" x="60.71" y="-64" font-family="Helvetica,sans-Serif" font-size="10.00">periph_cpu.h</text>
</a>
</g>
</g>
<!-- Node5&#45;&gt;Node10 -->
<g id="edge11_Node000005_Node000010" class="edge">
<title>Node5&#45;&gt;Node10</title>
<g id="a_edge11_Node000005_Node000010"><a xlink:title=" ">
<path fill="none" stroke="#63b8ff" d="M189.85,-173.01C163.09,-166.7 127.25,-154.99 101.71,-134.25 86.65,-122.02 75.59,-102.7 68.77,-88.1"/>
<polygon fill="#63b8ff" stroke="#63b8ff" points="72.02,-86.79 64.83,-79.01 65.6,-89.58 72.02,-86.79"/>
</a>
</g>
</g>
<!-- Node11 -->
<g id="Node000011" class="node">
<title>Node11</title>
<g id="a_Node000011"><a xlink:title=" ">
<polygon fill="#e0e0e0" stroke="#999999" points="199.34,-77.5 118.09,-77.5 118.09,-56.75 199.34,-56.75 199.34,-77.5"/>
<text text-anchor="middle" x="158.71" y="-64" font-family="Helvetica,sans-Serif" font-size="10.00">periph_conf.h</text>
</a>
</g>
</g>
<!-- Node5&#45;&gt;Node11 -->
<g id="edge12_Node000005_Node000011" class="edge">
<title>Node5&#45;&gt;Node11</title>
<g id="a_edge12_Node000005_Node000011"><a xlink:title=" ">
<path fill="none" stroke="#63b8ff" d="M189.86,-176.13C162.73,-171.41 127.56,-160.32 109.71,-134.25 97.75,-116.78 116.05,-97.38 133.59,-84.14"/>
<polygon fill="#63b8ff" stroke="#63b8ff" points="135.15,-87.32 141.29,-78.69 131.11,-81.61 135.15,-87.32"/>
</a>
</g>
</g>
<!-- Node5&#45;&gt;Node12 -->
<g id="edge13_Node000005_Node000012" class="edge">
<title>Node5&#45;&gt;Node12</title>
<g id="a_edge13_Node000005_Node000012"><a xlink:title=" ">
<path fill="none" stroke="#63b8ff" d="M214.55,-169.84C204.88,-162.05 191.13,-150.97 179.69,-141.76"/>
<polygon fill="#63b8ff" stroke="#63b8ff" points="181.93,-139.07 171.94,-135.53 177.54,-144.53 181.93,-139.07"/>
</a>
</g>
</g>
<!-- Node6&#45;&gt;Node3 -->
<g id="edge6_Node000006_Node000003" class="edge">
<title>Node6&#45;&gt;Node3</title>
<g id="a_edge6_Node000006_Node000003"><a xlink:title=" ">
<path fill="none" stroke="#63b8ff" d="M617.09,-57.57C649.7,-48.07 702.44,-32.71 738.06,-22.34"/>
<polygon fill="#63b8ff" stroke="#63b8ff" points="738.9,-25.74 747.52,-19.58 736.94,-19.02 738.9,-25.74"/>
</a>
</g>
</g>
<!-- Node12&#45;&gt;Node10 -->
<g id="edge15_Node000012_Node000010" class="edge">
<title>Node12&#45;&gt;Node10</title>
<g id="a_edge15_Node000012_Node000010"><a xlink:title=" ">
<path fill="none" stroke="#63b8ff" d="M141.19,-113.09C126.42,-104.83 105.03,-92.88 88.01,-83.38"/>
<polygon fill="#63b8ff" stroke="#63b8ff" points="89.84,-80.39 79.4,-78.57 86.42,-86.5 89.84,-80.39"/>
</a>
</g>
</g>
<!-- Node12&#45;&gt;Node11 -->
<g id="edge16_Node000012_Node000011" class="edge">
<title>Node12&#45;&gt;Node11</title>
<g id="a_edge16_Node000012_Node000011"><a xlink:title=" ">
<path fill="none" stroke="#63b8ff" d="M158.71,-113.09C158.71,-106.47 158.71,-97.47 158.71,-89.27"/>
<polygon fill="#63b8ff" stroke="#63b8ff" points="162.21,-89.34 158.71,-79.34 155.21,-89.34 162.21,-89.34"/>
</a>
</g>
</g>
<!-- Node13 -->
<g id="Node000013" class="node">
<title>Node13</title>
<g id="a_Node000013"><a xlink:title=" ">
<polygon fill="#e0e0e0" stroke="#999999" points="270.09,-77.5 217.34,-77.5 217.34,-56.75 270.09,-56.75 270.09,-77.5"/>
<text text-anchor="middle" x="243.71" y="-64" font-family="Helvetica,sans-Serif" font-size="10.00">limits.h</text>
</a>
</g>
</g>
<!-- Node12&#45;&gt;Node13 -->
<g id="edge14_Node000012_Node000013" class="edge">
<title>Node12&#45;&gt;Node13</title>
<g id="a_edge14_Node000012_Node000013"><a xlink:title=" ">
<path fill="none" stroke="#63b8ff" d="M173.91,-113.09C186.48,-104.99 204.58,-93.33 219.19,-83.92"/>
<polygon fill="#63b8ff" stroke="#63b8ff" points="220.86,-87.01 227.37,-78.65 217.07,-81.12 220.86,-87.01"/>
</a>
</g>
</g>
<!-- Node14&#45;&gt;Node3 -->
<g id="edge19_Node000014_Node000003" class="edge">
<title>Node14&#45;&gt;Node3</title>
<g id="a_edge19_Node000014_Node000003"><a xlink:title=" ">
<path fill="none" stroke="#63b8ff" d="M661.26,-226.61C697.98,-212.86 757,-183.79 775.71,-134.25 788.54,-100.28 784.31,-57.15 780.03,-32.07"/>
<polygon fill="#63b8ff" stroke="#63b8ff" points="783.52,-31.69 778.22,-22.52 776.65,-32.99 783.52,-31.69"/>
</a>
</g>
</g>
<!-- Node14&#45;&gt;Node7 -->
<g id="edge20_Node000014_Node000007" class="edge">
<title>Node14&#45;&gt;Node7</title>
<g id="a_edge20_Node000014_Node000007"><a xlink:title=" ">
<path fill="none" stroke="#63b8ff" d="M624.93,-226.83C615.79,-212.52 596.66,-185.56 573.71,-170.25 565.02,-164.45 509.8,-147.16 471.9,-135.67"/>
<polygon fill="#63b8ff" stroke="#63b8ff" points="473.28,-132.44 462.69,-132.9 471.26,-139.14 473.28,-132.44"/>
</a>
</g>
</g>
<!-- Node15 -->
<g id="Node000015" class="node">
<title>Node15</title>
<g id="a_Node000015"><a xlink:href="iolist_8h.html" target="_top" xlink:title="iolist scatter / gather IO">
<polygon fill="white" stroke="#666666" points="564.21,-191 515.21,-191 515.21,-170.25 564.21,-170.25 564.21,-191"/>
<text text-anchor="middle" x="539.71" y="-177.5" font-family="Helvetica,sans-Serif" font-size="10.00">iolist.h</text>
</a>
</g>
</g>
<!-- Node14&#45;&gt;Node15 -->
<g id="edge21_Node000014_Node000015" class="edge">
<title>Node14&#45;&gt;Node15</title>
<g id="a_edge21_Node000014_Node000015"><a xlink:title=" ">
<path fill="none" stroke="#63b8ff" d="M614.44,-226.59C600.86,-218.41 581.24,-206.61 565.51,-197.15"/>
<polygon fill="#63b8ff" stroke="#63b8ff" points="567.51,-194.27 557.14,-192.11 563.9,-200.26 567.51,-194.27"/>
</a>
</g>
</g>
<!-- Node14&#45;&gt;Node16 -->
<g id="edge22_Node000014_Node000016" class="edge">
<title>Node14&#45;&gt;Node16</title>
<g id="a_edge22_Node000014_Node000016"><a xlink:title=" ">
<path fill="none" stroke="#63b8ff" d="M600.14,-226.59C572.5,-217.74 531.59,-204.64 501.05,-194.86"/>
<polygon fill="#63b8ff" stroke="#63b8ff" points="502.34,-191.6 491.75,-191.88 500.2,-198.26 502.34,-191.6"/>
</a>
</g>
</g>
<!-- Node17 -->
<g id="Node000017" class="node">
<title>Node17</title>
<g id="a_Node000017"><a xlink:href="kernel__defines_8h.html" target="_top" xlink:title="Common macros and compiler attributes/pragmas configuration.">
<polygon fill="white" stroke="#666666" points="716.84,-191 620.59,-191 620.59,-170.25 716.84,-170.25 716.84,-191"/>
<text text-anchor="middle" x="668.71" y="-177.5" font-family="Helvetica,sans-Serif" font-size="10.00">kernel_defines.h</text>
</a>
</g>
</g>
<!-- Node14&#45;&gt;Node17 -->
<g id="edge25_Node000014_Node000017" class="edge">
<title>Node14&#45;&gt;Node17</title>
<g id="a_edge25_Node000014_Node000017"><a xlink:title=" ">
<path fill="none" stroke="#63b8ff" d="M637.51,-226.59C642.48,-219.42 649.38,-209.48 655.43,-200.76"/>
<polygon fill="#63b8ff" stroke="#63b8ff" points="658.29,-202.78 661.11,-192.57 652.54,-198.79 658.29,-202.78"/>
</a>
</g>
</g>
<!-- Node16&#45;&gt;Node3 -->
<g id="edge23_Node000016_Node000003" class="edge">
<title>Node16&#45;&gt;Node3</title>
<g id="a_edge23_Node000016_Node000003"><a xlink:title=" ">
<path fill="none" stroke="#63b8ff" d="M440.08,-169.84C418.16,-157.55 387.5,-135.41 401.71,-113.5 438.69,-56.47 650.11,-25.86 737.7,-15.48"/>
<polygon fill="#63b8ff" stroke="#63b8ff" points="737.93,-18.98 747.46,-14.35 737.13,-12.02 737.93,-18.98"/>
</a>
</g>
</g>
<!-- Node16&#45;&gt;Node8 -->
<g id="edge24_Node000016_Node000008" class="edge">
<title>Node16&#45;&gt;Node8</title>
<g id="a_edge24_Node000016_Node000008"><a xlink:title=" ">
<path fill="none" stroke="#63b8ff" d="M435.4,-169.84C413.93,-161.19 382.39,-148.5 358.3,-138.8"/>
<polygon fill="#63b8ff" stroke="#63b8ff" points="359.8,-135.63 349.22,-135.14 357.19,-142.13 359.8,-135.63"/>
</a>
</g>
</g>
<!-- Node18 -->
<g id="Node000018" class="node">
<title>Node18</title>
<g id="a_Node000018"><a xlink:href="modules_8h.html" target="_top" xlink:title="Common macros and compiler attributes/pragmas configuration.">
<polygon fill="white" stroke="#666666" points="1094.21,-134.25 1027.21,-134.25 1027.21,-113.5 1094.21,-113.5 1094.21,-134.25"/>
<text text-anchor="middle" x="1060.71" y="-120.75" font-family="Helvetica,sans-Serif" font-size="10.00">modules.h</text>
</a>
</g>
</g>
<!-- Node17&#45;&gt;Node18 -->
<g id="edge26_Node000017_Node000018" class="edge">
<title>Node17&#45;&gt;Node18</title>
<g id="a_edge26_Node000017_Node000018"><a xlink:title=" ">
<path fill="none" stroke="#63b8ff" d="M717.18,-174.65C782.58,-167.64 902.93,-153.72 1015.72,-134.46"/>
<polygon fill="#63b8ff" stroke="#63b8ff" points="1016.21,-137.93 1025.47,-132.78 1015.02,-131.03 1016.21,-137.93"/>
</a>
</g>
</g>
<!-- Node19 -->
<g id="Node000019" class="node">
<title>Node19</title>
<g id="a_Node000019"><a xlink:href="riot__version_8h.html" target="_top" xlink:title="Common macros and compiler attributes/pragmas configuration.">
<polygon fill="white" stroke="#666666" points="651.09,-134.25 568.34,-134.25 568.34,-113.5 651.09,-113.5 651.09,-134.25"/>
<text text-anchor="middle" x="609.71" y="-120.75" font-family="Helvetica,sans-Serif" font-size="10.00">riot_version.h</text>
</a>
</g>
</g>
<!-- Node17&#45;&gt;Node19 -->
<g id="edge27_Node000017_Node000019" class="edge">
<title>Node17&#45;&gt;Node19</title>
<g id="a_edge27_Node000017_Node000019"><a xlink:title=" ">
<path fill="none" stroke="#63b8ff" d="M658.16,-169.84C649.94,-162.21 638.31,-151.42 628.51,-142.32"/>
<polygon fill="#63b8ff" stroke="#63b8ff" points="630.99,-139.84 621.28,-135.61 626.23,-144.98 630.99,-139.84"/>
</a>
</g>
</g>
<!-- Node20 -->
<g id="Node000020" class="node">
<title>Node20</title>
<g id="a_Node000020"><a xlink:href="compiler__hints_8h.html" target="_top" xlink:title="Common macros and compiler attributes/pragmas configuration.">
<polygon fill="white" stroke="#666666" points="766.21,-134.25 669.21,-134.25 669.21,-113.5 766.21,-113.5 766.21,-134.25"/>
<text text-anchor="middle" x="717.71" y="-120.75" font-family="Helvetica,sans-Serif" font-size="10.00">compiler_hints.h</text>
</a>
</g>
</g>
<!-- Node17&#45;&gt;Node20 -->
<g id="edge29_Node000017_Node000020" class="edge">
<title>Node17&#45;&gt;Node20</title>
<g id="a_edge29_Node000017_Node000020"><a xlink:title=" ">
<path fill="none" stroke="#63b8ff" d="M677.47,-169.84C684.16,-162.36 693.57,-151.86 701.6,-142.88"/>
<polygon fill="#63b8ff" stroke="#63b8ff" points="703.96,-145.49 708.02,-135.71 698.74,-140.82 703.96,-145.49"/>
</a>
</g>
</g>
<!-- Node22 -->
<g id="Node000022" class="node">
<title>Node22</title>
<g id="a_Node000022"><a xlink:href="container_8h.html" target="_top" xlink:title="Common macros and compiler attributes/pragmas configuration.">
<polygon fill="white" stroke="#666666" points="550.09,-134.25 479.34,-134.25 479.34,-113.5 550.09,-113.5 550.09,-134.25"/>
<text text-anchor="middle" x="514.71" y="-120.75" font-family="Helvetica,sans-Serif" font-size="10.00">container.h</text>
</a>
</g>
</g>
<!-- Node17&#45;&gt;Node22 -->
<g id="edge33_Node000017_Node000022" class="edge">
<title>Node17&#45;&gt;Node22</title>
<g id="a_edge33_Node000017_Node000022"><a xlink:title=" ">
<path fill="none" stroke="#63b8ff" d="M641.18,-169.84C616.62,-161.11 580.41,-148.23 553.03,-138.5"/>
<polygon fill="#63b8ff" stroke="#63b8ff" points="554.29,-135.23 543.69,-135.18 551.94,-141.83 554.29,-135.23"/>
</a>
</g>
</g>
<!-- Node19&#45;&gt;Node3 -->
<g id="edge28_Node000019_Node000003" class="edge">
<title>Node19&#45;&gt;Node3</title>
<g id="a_edge28_Node000019_Node000003"><a xlink:title=" ">
<path fill="none" stroke="#63b8ff" d="M615.64,-113.05C624.65,-98.88 643.03,-72.64 664.71,-56.75 686.83,-40.54 715.58,-28.99 738.28,-21.61"/>
<polygon fill="#63b8ff" stroke="#63b8ff" points="739.25,-24.97 747.76,-18.67 737.17,-18.29 739.25,-24.97"/>
</a>
</g>
</g>
<!-- Node20&#45;&gt;Node3 -->
<g id="edge32_Node000020_Node000003" class="edge">
<title>Node20&#45;&gt;Node3</title>
<g id="a_edge32_Node000020_Node000003"><a xlink:title=" ">
<path fill="none" stroke="#63b8ff" d="M722.66,-113.37C732.07,-95.27 752.74,-55.53 765.32,-31.35"/>
<polygon fill="#63b8ff" stroke="#63b8ff" points="768.41,-33 769.92,-22.52 762.2,-29.77 768.41,-33"/>
</a>
</g>
</g>
<!-- Node21 -->
<g id="Node000021" class="node">
<title>Node21</title>
<g id="a_Node000021"><a xlink:href="assert_8h.html" target="_top" xlink:title="POSIX.1&#45;2008 compliant version of the assert macro.">
<polygon fill="white" stroke="#666666" points="728.21,-77.5 673.21,-77.5 673.21,-56.75 728.21,-56.75 728.21,-77.5"/>
<text text-anchor="middle" x="700.71" y="-64" font-family="Helvetica,sans-Serif" font-size="10.00">assert.h</text>
</a>
</g>
</g>
<!-- Node20&#45;&gt;Node21 -->
<g id="edge30_Node000020_Node000021" class="edge">
<title>Node20&#45;&gt;Node21</title>
<g id="a_edge30_Node000020_Node000021"><a xlink:title=" ">
<path fill="none" stroke="#63b8ff" d="M714.67,-113.09C712.57,-106.31 709.69,-97.05 707.1,-88.69"/>
<polygon fill="#63b8ff" stroke="#63b8ff" points="710.48,-87.79 704.17,-79.27 703.8,-89.86 710.48,-87.79"/>
</a>
</g>
</g>
<!-- Node21&#45;&gt;Node3 -->
<g id="edge31_Node000021_Node000003" class="edge">
<title>Node21&#45;&gt;Node3</title>
<g id="a_edge31_Node000021_Node000003"><a xlink:title=" ">
<path fill="none" stroke="#63b8ff" d="M714.12,-56.34C725,-48.4 740.57,-37.03 753.33,-27.71"/>
<polygon fill="#63b8ff" stroke="#63b8ff" points="755.18,-30.69 761.2,-21.97 751.06,-25.04 755.18,-30.69"/>
</a>
</g>
</g>
<!-- Node22&#45;&gt;Node3 -->
<g id="edge35_Node000022_Node000003" class="edge">
<title>Node22&#45;&gt;Node3</title>
<g id="a_edge35_Node000022_Node000003"><a xlink:title=" ">
<path fill="none" stroke="#63b8ff" d="M517.05,-113.04C521.07,-98.35 530.77,-70.89 549.71,-56.75 578.98,-34.91 681.39,-21.15 737.77,-15.05"/>
<polygon fill="#63b8ff" stroke="#63b8ff" points="737.98,-18.54 747.56,-14.02 737.25,-11.58 737.98,-18.54"/>
</a>
</g>
</g>
<!-- Node22&#45;&gt;Node9 -->
<g id="edge34_Node000022_Node000009" class="edge">
<title>Node22&#45;&gt;Node9</title>
<g id="a_edge34_Node000022_Node000009"><a xlink:title=" ">
<path fill="none" stroke="#63b8ff" d="M480.21,-113.09C446.55,-103.54 395.45,-89.04 360.42,-79.11"/>
<polygon fill="#63b8ff" stroke="#63b8ff" points="361.69,-75.83 351.12,-76.47 359.78,-82.56 361.69,-75.83"/>
</a>
</g>
</g>
<!-- Node23&#45;&gt;Node14 -->
<g id="edge62_Node000023_Node000014" class="edge">
<title>Node23&#45;&gt;Node14</title>
<g id="a_edge62_Node000023_Node000014"><a xlink:title=" ">
<path fill="none" stroke="#63b8ff" d="M630.71,-340.37C630.71,-322.6 630.71,-283.97 630.71,-259.68"/>
<polygon fill="#63b8ff" stroke="#63b8ff" points="634.21,-259.69 630.71,-249.69 627.21,-259.69 634.21,-259.69"/>
</a>
</g>
</g>
<!-- Node23&#45;&gt;Node16 -->
<g id="edge61_Node000023_Node000016" class="edge">
<title>Node23&#45;&gt;Node16</title>
<g id="a_edge61_Node000023_Node000016"><a xlink:title=" ">
<path fill="none" stroke="#63b8ff" d="M620.78,-340.1C592.92,-312.69 513.72,-234.77 477.81,-199.43"/>
<polygon fill="#63b8ff" stroke="#63b8ff" points="480.33,-197.01 470.75,-192.49 475.42,-201.99 480.33,-197.01"/>
</a>
</g>
</g>
<!-- Node24 -->
<g id="Node000024" class="node">
<title>Node24</title>
<g id="a_Node000024"><a xlink:href="eui__provider_8h.html" target="_top" xlink:title="EUI&#45;48 and EUI&#45;64 address provider.">
<polygon fill="white" stroke="#666666" points="779.96,-304.5 675.46,-304.5 675.46,-283.75 779.96,-283.75 779.96,-304.5"/>
<text text-anchor="middle" x="727.71" y="-291" font-family="Helvetica,sans-Serif" font-size="10.00">net/eui_provider.h</text>
</a>
</g>
</g>
<!-- Node23&#45;&gt;Node24 -->
<g id="edge37_Node000023_Node000024" class="edge">
<title>Node23&#45;&gt;Node24</title>
<g id="a_edge37_Node000023_Node000024"><a xlink:title=" ">
<path fill="none" stroke="#63b8ff" d="M648.05,-340.09C662.67,-331.83 683.85,-319.88 700.69,-310.38"/>
<polygon fill="#63b8ff" stroke="#63b8ff" points="702.21,-313.54 709.2,-305.57 698.77,-307.44 702.21,-313.54"/>
</a>
</g>
</g>
<!-- Node30 -->
<g id="Node000030" class="node">
<title>Node30</title>
<g id="a_Node000030"><a xlink:href="sys_2include_2net_2ieee802154_8h.html" target="_top" xlink:title="IEEE 802.15.4 header definitions.">
<polygon fill="white" stroke="#666666" points="993.09,-247.75 892.34,-247.75 892.34,-227 993.09,-227 993.09,-247.75"/>
<text text-anchor="middle" x="942.71" y="-234.25" font-family="Helvetica,sans-Serif" font-size="10.00">net/ieee802154.h</text>
</a>
</g>
</g>
<!-- Node23&#45;&gt;Node30 -->
<g id="edge50_Node000023_Node000030" class="edge">
<title>Node23&#45;&gt;Node30</title>
<g id="a_edge50_Node000023_Node000030"><a xlink:title=" ">
<path fill="none" stroke="#63b8ff" d="M670.11,-340.04C702.34,-331.64 748.93,-318.69 788.71,-304.5 832.35,-288.94 881.28,-267.15 912.04,-252.91"/>
<polygon fill="#63b8ff" stroke="#63b8ff" points="913.16,-256.24 920.75,-248.84 910.21,-249.9 913.16,-256.24"/>
</a>
</g>
</g>
<!-- Node23&#45;&gt;Node32 -->
<g id="edge56_Node000023_Node000032" class="edge">
<title>Node23&#45;&gt;Node32</title>
<g id="a_edge56_Node000023_Node000032"><a xlink:title=" ">
<path fill="none" stroke="#63b8ff" d="M699.71,-340.77C778.08,-330.43 904.97,-313.69 981.36,-303.61"/>
<polygon fill="#63b8ff" stroke="#63b8ff" points="981.76,-307.09 991.22,-302.31 980.84,-300.15 981.76,-307.09"/>
</a>
</g>
</g>
<!-- Node24&#45;&gt;Node14 -->
<g id="edge49_Node000024_Node000014" class="edge">
<title>Node24&#45;&gt;Node14</title>
<g id="a_edge49_Node000024_Node000014"><a xlink:title=" ">
<path fill="none" stroke="#63b8ff" d="M710.37,-283.34C695.75,-275.08 674.58,-263.13 657.73,-253.63"/>
<polygon fill="#63b8ff" stroke="#63b8ff" points="659.65,-250.69 649.22,-248.82 656.21,-256.79 659.65,-250.69"/>
</a>
</g>
</g>
<!-- Node25 -->
<g id="Node000025" class="node">
<title>Node25</title>
<g id="a_Node000025"><a xlink:href="eui48_8h.html" target="_top" xlink:title="Definition and IPv6 IID conversion for IEEE EUI&#45;48 identifiers.">
<polygon fill="white" stroke="#666666" points="818.09,-247.75 747.34,-247.75 747.34,-227 818.09,-227 818.09,-247.75"/>
<text text-anchor="middle" x="782.71" y="-234.25" font-family="Helvetica,sans-Serif" font-size="10.00">net/eui48.h</text>
</a>
</g>
</g>
<!-- Node24&#45;&gt;Node25 -->
<g id="edge38_Node000024_Node000025" class="edge">
<title>Node24&#45;&gt;Node25</title>
<g id="a_edge38_Node000024_Node000025"><a xlink:title=" ">
<path fill="none" stroke="#63b8ff" d="M737.54,-283.34C745.13,-275.78 755.83,-265.14 764.91,-256.1"/>
<polygon fill="#63b8ff" stroke="#63b8ff" points="767.27,-258.68 771.89,-249.15 762.33,-253.72 767.27,-258.68"/>
</a>
</g>
</g>
<!-- Node26 -->
<g id="Node000026" class="node">
<title>Node26</title>
<g id="a_Node000026"><a xlink:href="eui64_8h.html" target="_top" xlink:title="EUI&#45;64 data type definition.">
<polygon fill="white" stroke="#666666" points="881.09,-191 810.34,-191 810.34,-170.25 881.09,-170.25 881.09,-191"/>
<text text-anchor="middle" x="845.71" y="-177.5" font-family="Helvetica,sans-Serif" font-size="10.00">net/eui64.h</text>
</a>
</g>
</g>
<!-- Node24&#45;&gt;Node26 -->
<g id="edge48_Node000024_Node000026" class="edge">
<title>Node24&#45;&gt;Node26</title>
<g id="a_edge48_Node000024_Node000026"><a xlink:title=" ">
<path fill="none" stroke="#63b8ff" d="M767.83,-283.38C788.1,-276.54 811.55,-265.38 826.71,-247.75 837.56,-235.14 842.23,-216.69 844.23,-202.48"/>
<polygon fill="#63b8ff" stroke="#63b8ff" points="847.68,-203.15 845.23,-192.84 840.71,-202.43 847.68,-203.15"/>
</a>
</g>
</g>
<!-- Node25&#45;&gt;Node3 -->
<g id="edge39_Node000025_Node000003" class="edge">
<title>Node25&#45;&gt;Node3</title>
<g id="a_edge39_Node000025_Node000003"><a xlink:title=" ">
<path fill="none" stroke="#63b8ff" d="M785.48,-226.79C791.7,-205.05 806.43,-152.49 808.71,-134.25 812.99,-100.07 819.36,-89.51 808.71,-56.75 805.5,-46.87 799.24,-37.35 793.02,-29.6"/>
<polygon fill="#63b8ff" stroke="#63b8ff" points="795.86,-27.53 786.67,-22.27 790.57,-32.12 795.86,-27.53"/>
</a>
</g>
</g>
<!-- Node25&#45;&gt;Node26 -->
<g id="edge40_Node000025_Node000026" class="edge">
<title>Node25&#45;&gt;Node26</title>
<g id="a_edge40_Node000025_Node000026"><a xlink:title=" ">
<path fill="none" stroke="#63b8ff" d="M793.97,-226.59C802.84,-218.88 815.43,-207.95 825.96,-198.79"/>
<polygon fill="#63b8ff" stroke="#63b8ff" points="828.15,-201.52 833.4,-192.32 823.56,-196.24 828.15,-201.52"/>
</a>
</g>
</g>
<!-- Node26&#45;&gt;Node3 -->
<g id="edge41_Node000026_Node000003" class="edge">
<title>Node26&#45;&gt;Node3</title>
<g id="a_edge41_Node000026_Node000003"><a xlink:title=" ">
<path fill="none" stroke="#63b8ff" d="M848.78,-169.93C855.07,-148.12 867.21,-94.17 846.71,-56.75 839.21,-43.05 825.61,-32.88 812.31,-25.69"/>
<polygon fill="#63b8ff" stroke="#63b8ff" points="814.18,-22.71 803.66,-21.42 811.08,-28.98 814.18,-22.71"/>
</a>
</g>
</g>
<!-- Node27 -->
<g id="Node000027" class="node">
<title>Node27</title>
<g id="a_Node000027"><a xlink:href="byteorder_8h.html" target="_top" xlink:title="Functions to work with different byte orders.">
<polygon fill="white" stroke="#666666" points="1008.84,-134.25 936.59,-134.25 936.59,-113.5 1008.84,-113.5 1008.84,-134.25"/>
<text text-anchor="middle" x="972.71" y="-120.75" font-family="Helvetica,sans-Serif" font-size="10.00">byteorder.h</text>
</a>
</g>
</g>
<!-- Node26&#45;&gt;Node27 -->
<g id="edge42_Node000026_Node000027" class="edge">
<title>Node26&#45;&gt;Node27</title>
<g id="a_edge42_Node000026_Node000027"><a xlink:title=" ">
<path fill="none" stroke="#63b8ff" d="M868.42,-169.84C888.28,-161.27 917.39,-148.73 939.8,-139.06"/>
<polygon fill="#63b8ff" stroke="#63b8ff" points="941.02,-142.35 948.81,-135.18 938.24,-135.92 941.02,-142.35"/>
</a>
</g>
</g>
<!-- Node27&#45;&gt;Node3 -->
<g id="edge44_Node000027_Node000003" class="edge">
<title>Node27&#45;&gt;Node3</title>
<g id="a_edge44_Node000027_Node000003"><a xlink:title=" ">
<path fill="none" stroke="#63b8ff" d="M967.97,-113.26C960.38,-98.86 944.16,-71.79 922.71,-56.75 889.89,-33.74 845.03,-22.12 813.53,-16.43"/>
<polygon fill="#63b8ff" stroke="#63b8ff" points="814.51,-13.05 804.07,-14.85 813.35,-19.95 814.51,-13.05"/>
</a>
</g>
</g>
<!-- Node27&#45;&gt;Node6 -->
<g id="edge45_Node000027_Node000006" class="edge">
<title>Node27&#45;&gt;Node6</title>
<g id="a_edge45_Node000027_Node000006"><a xlink:title=" ">
<path fill="none" stroke="#63b8ff" d="M936.14,-117.67C863.99,-107.41 703.75,-84.63 628.38,-73.91"/>
<polygon fill="#63b8ff" stroke="#63b8ff" points="628.94,-70.45 618.54,-72.51 627.95,-77.38 628.94,-70.45"/>
</a>
</g>
</g>
<!-- Node28 -->
<g id="Node000028" class="node">
<title>Node28</title>
<g id="a_Node000028"><a xlink:title=" ">
<polygon fill="#e0e0e0" stroke="#999999" points="1027.09,-77.5 974.34,-77.5 974.34,-56.75 1027.09,-56.75 1027.09,-77.5"/>
<text text-anchor="middle" x="1000.71" y="-64" font-family="Helvetica,sans-Serif" font-size="10.00">string.h</text>
</a>
</g>
</g>
<!-- Node27&#45;&gt;Node28 -->
<g id="edge43_Node000027_Node000028" class="edge">
<title>Node27&#45;&gt;Node28</title>
<g id="a_edge43_Node000027_Node000028"><a xlink:title=" ">
<path fill="none" stroke="#63b8ff" d="M977.72,-113.09C981.3,-106.08 986.25,-96.41 990.64,-87.83"/>
<polygon fill="#63b8ff" stroke="#63b8ff" points="993.62,-89.67 995.06,-79.18 987.39,-86.49 993.62,-89.67"/>
</a>
</g>
</g>
<!-- Node29 -->
<g id="Node000029" class="node">
<title>Node29</title>
<g id="a_Node000029"><a xlink:href="unaligned_8h.html" target="_top" xlink:title="Unaligned but safe memory access functions.">
<polygon fill="white" stroke="#666666" points="1118.21,-77.5 1045.21,-77.5 1045.21,-56.75 1118.21,-56.75 1118.21,-77.5"/>
<text text-anchor="middle" x="1081.71" y="-64" font-family="Helvetica,sans-Serif" font-size="10.00">unaligned.h</text>
</a>
</g>
</g>
<!-- Node27&#45;&gt;Node29 -->
<g id="edge46_Node000027_Node000029" class="edge">
<title>Node27&#45;&gt;Node29</title>
<g id="a_edge46_Node000027_Node000029"><a xlink:title=" ">
<path fill="none" stroke="#63b8ff" d="M992.2,-113.09C1008.86,-104.72 1033.1,-92.54 1052.15,-82.97"/>
<polygon fill="#63b8ff" stroke="#63b8ff" points="1053.68,-86.12 1061.04,-78.51 1050.53,-79.87 1053.68,-86.12"/>
</a>
</g>
</g>
<!-- Node29&#45;&gt;Node3 -->
<g id="edge47_Node000029_Node000003" class="edge">
<title>Node29&#45;&gt;Node3</title>
<g id="a_edge47_Node000029_Node000003"><a xlink:title=" ">
<path fill="none" stroke="#63b8ff" d="M1045.07,-58.56C1041.91,-57.94 1038.75,-57.33 1035.71,-56.75 956.93,-41.85 864.38,-26.12 813.69,-17.66"/>
<polygon fill="#63b8ff" stroke="#63b8ff" points="814.26,-14.2 803.82,-16.01 813.11,-21.11 814.26,-14.2"/>
</a>
</g>
</g>
<!-- Node30&#45;&gt;Node3 -->
<g id="edge51_Node000030_Node000003" class="edge">
<title>Node30&#45;&gt;Node3</title>
<g id="a_edge51_Node000030_Node000003"><a xlink:title=" ">
<path fill="none" stroke="#63b8ff" d="M939.44,-226.55C928.1,-192.99 889.86,-83.5 864.71,-56.75 850.64,-41.79 830.55,-30.96 813.01,-23.64"/>
<polygon fill="#63b8ff" stroke="#63b8ff" points="814.49,-20.46 803.91,-20.08 811.95,-26.98 814.49,-20.46"/>
</a>
</g>
</g>
<!-- Node30&#45;&gt;Node18 -->
<g id="edge55_Node000030_Node000018" class="edge">
<title>Node30&#45;&gt;Node18</title>
<g id="a_edge55_Node000030_Node000018"><a xlink:title=" ">
<path fill="none" stroke="#63b8ff" d="M961.88,-226.5C976.76,-218.26 997.37,-205.55 1012.71,-191 1027.31,-177.15 1040.47,-158.35 1049.3,-144.33"/>
<polygon fill="#63b8ff" stroke="#63b8ff" points="1052.16,-146.36 1054.37,-136 1046.18,-142.72 1052.16,-146.36"/>
</a>
</g>
</g>
<!-- Node30&#45;&gt;Node26 -->
<g id="edge54_Node000030_Node000026" class="edge">
<title>Node30&#45;&gt;Node26</title>
<g id="a_edge54_Node000030_Node000026"><a xlink:title=" ">
<path fill="none" stroke="#63b8ff" d="M925.37,-226.59C910.75,-218.33 889.58,-206.38 872.73,-196.88"/>
<polygon fill="#63b8ff" stroke="#63b8ff" points="874.65,-193.94 864.22,-192.07 871.21,-200.04 874.65,-193.94"/>
</a>
</g>
</g>
<!-- Node30&#45;&gt;Node27 -->
<g id="edge53_Node000030_Node000027" class="edge">
<title>Node30&#45;&gt;Node27</title>
<g id="a_edge53_Node000030_Node000027"><a xlink:title=" ">
<path fill="none" stroke="#63b8ff" d="M961.8,-226.52C974.57,-218.78 990.32,-206.68 997.71,-191 1005.05,-175.43 996.85,-157.07 987.92,-143.66"/>
<polygon fill="#63b8ff" stroke="#63b8ff" points="990.84,-141.71 982.1,-135.71 985.19,-145.84 990.84,-141.71"/>
</a>
</g>
</g>
<!-- Node31 -->
<g id="Node000031" class="node">
<title>Node31</title>
<g id="a_Node000031"><a xlink:title=" ">
<polygon fill="#e0e0e0" stroke="#999999" points="988.71,-191 936.71,-191 936.71,-170.25 988.71,-170.25 988.71,-191"/>
<text text-anchor="middle" x="962.71" y="-177.5" font-family="Helvetica,sans-Serif" font-size="10.00">stdlib.h</text>
</a>
</g>
</g>
<!-- Node30&#45;&gt;Node31 -->
<g id="edge52_Node000030_Node000031" class="edge">
<title>Node30&#45;&gt;Node31</title>
<g id="a_edge52_Node000030_Node000031"><a xlink:title=" ">
<path fill="none" stroke="#63b8ff" d="M946.29,-226.59C948.79,-219.74 952.22,-210.34 955.3,-201.9"/>
<polygon fill="#63b8ff" stroke="#63b8ff" points="958.5,-203.34 958.65,-192.75 951.93,-200.94 958.5,-203.34"/>
</a>
</g>
</g>
<!-- Node32&#45;&gt;Node18 -->
<g id="edge58_Node000032_Node000018" class="edge">
<title>Node32&#45;&gt;Node18</title>
<g id="a_edge58_Node000032_Node000018"><a xlink:title=" ">
<path fill="none" stroke="#63b8ff" d="M1044.33,-283.41C1043.1,-274.24 1041.39,-260.09 1040.71,-247.75 1038.72,-211.55 1047.93,-170.03 1054.51,-145.7"/>
<polygon fill="#63b8ff" stroke="#63b8ff" points="1057.87,-146.7 1057.23,-136.13 1051.13,-144.79 1057.87,-146.7"/>
</a>
</g>
</g>
<!-- Node33 -->
<g id="Node000033" class="node">
<title>Node33</title>
<g id="a_Node000033"><a xlink:href="inttypes_8h.html" target="_top" xlink:title="Adds include for missing inttype definitions.">
<polygon fill="white" stroke="#666666" points="1114.09,-247.75 1049.34,-247.75 1049.34,-227 1114.09,-227 1114.09,-247.75"/>
<text text-anchor="middle" x="1081.71" y="-234.25" font-family="Helvetica,sans-Serif" font-size="10.00">inttypes.h</text>
</a>
</g>
</g>
<!-- Node32&#45;&gt;Node33 -->
<g id="edge57_Node000032_Node000033" class="edge">
<title>Node32&#45;&gt;Node33</title>
<g id="a_edge57_Node000032_Node000033"><a xlink:title=" ">
<path fill="none" stroke="#63b8ff" d="M1052.15,-283.34C1056.86,-276.17 1063.4,-266.23 1069.13,-257.51"/>
<polygon fill="#63b8ff" stroke="#63b8ff" points="1071.93,-259.62 1074.5,-249.34 1066.08,-255.78 1071.93,-259.62"/>
</a>
</g>
</g>
<!-- Node34 -->
<g id="Node000034" class="node">
<title>Node34</title>
<g id="a_Node000034"><a xlink:href="ethertype_8h.html" target="_top" xlink:title="Ether type definitions.">
<polygon fill="white" stroke="#666666" points="1223.21,-247.75 1132.21,-247.75 1132.21,-227 1223.21,-227 1223.21,-247.75"/>
<text text-anchor="middle" x="1177.71" y="-234.25" font-family="Helvetica,sans-Serif" font-size="10.00">net/ethertype.h</text>
</a>
</g>
</g>
<!-- Node32&#45;&gt;Node34 -->
<g id="edge59_Node000032_Node000034" class="edge">
<title>Node32&#45;&gt;Node34</title>
<g id="a_edge59_Node000032_Node000034"><a xlink:title=" ">
<path fill="none" stroke="#63b8ff" d="M1069.31,-283.34C1090.05,-274.73 1120.48,-262.11 1143.83,-252.43"/>
<polygon fill="#63b8ff" stroke="#63b8ff" points="1145.02,-255.72 1152.92,-248.66 1142.34,-249.26 1145.02,-255.72"/>
</a>
</g>
</g>
<!-- Node35 -->
<g id="Node000035" class="node">
<title>Node35</title>
<g id="a_Node000035"><a xlink:href="protnum_8h.html" target="_top" xlink:title="Protocol number definitions.">
<polygon fill="white" stroke="#666666" points="1326.21,-247.75 1241.21,-247.75 1241.21,-227 1326.21,-227 1326.21,-247.75"/>
<text text-anchor="middle" x="1283.71" y="-234.25" font-family="Helvetica,sans-Serif" font-size="10.00">net/protnum.h</text>
</a>
</g>
</g>
<!-- Node32&#45;&gt;Node35 -->
<g id="edge60_Node000032_Node000035" class="edge">
<title>Node32&#45;&gt;Node35</title>
<g id="a_edge60_Node000032_Node000035"><a xlink:title=" ">
<path fill="none" stroke="#63b8ff" d="M1088.54,-283.27C1128.09,-274.17 1187.03,-260.62 1229.78,-250.78"/>
<polygon fill="#63b8ff" stroke="#63b8ff" points="1230.39,-254.23 1239.36,-248.58 1228.83,-247.41 1230.39,-254.23"/>
</a>
</g>
</g>
<!-- Node38&#45;&gt;Node2 -->
<g id="edge68_Node000038_Node000002" class="edge">
<title>Node38&#45;&gt;Node2</title>
<g id="a_edge68_Node000038_Node000002"><a xlink:title=" ">
<path fill="none" stroke="#63b8ff" d="M536.57,-453.59C535.1,-446.89 533.1,-437.76 531.28,-429.48"/>
<polygon fill="#63b8ff" stroke="#63b8ff" points="534.72,-428.83 529.16,-419.81 527.88,-430.32 534.72,-428.83"/>
</a>
</g>
</g>
<!-- Node38&#45;&gt;Node37 -->
<g id="edge67_Node000038_Node000037" class="edge">
<title>Node38&#45;&gt;Node37</title>
<g id="a_edge67_Node000038_Node000037"><a xlink:title=" ">
<path fill="none" stroke="#63b8ff" d="M552.12,-453.59C563,-445.65 578.57,-434.28 591.33,-424.96"/>
<polygon fill="#63b8ff" stroke="#63b8ff" points="593.18,-427.94 599.2,-419.22 589.06,-422.29 593.18,-427.94"/>
</a>
</g>
</g>
</g>
</svg>
