<?xml version="1.0" encoding="UTF-8" standalone="no"?>
<!DOCTYPE svg PUBLIC "-//W3C//DTD SVG 1.1//EN"
 "http://www.w3.org/Graphics/SVG/1.1/DTD/svg11.dtd">
<!-- Generated by graphviz version 12.1.2 (0)
 -->
<!-- Title: drivers/kw2xrf/include/kw2xrf_intern.h Pages: 1 -->
<svg width="1583pt" height="496pt"
 viewBox="0.00 0.00 1583.38 495.50" xmlns="http://www.w3.org/2000/svg" xmlns:xlink="http://www.w3.org/1999/xlink">
<g id="graph0" class="graph" transform="scale(1 1) rotate(0) translate(4 491.5)">
<title>drivers/kw2xrf/include/kw2xrf_intern.h</title>
<!-- Node1 -->
<g id="Node000001" class="node">
<title>Node1</title>
<g id="a_Node000001"><a xlink:title="Internal function interfaces for kw2xrf driver.">
<polygon fill="#999999" stroke="#666666" points="1394.75,-487.5 1270,-487.5 1270,-454 1394.75,-454 1394.75,-487.5"/>
<text text-anchor="start" x="1278" y="-474" font-family="Helvetica,sans-Serif" font-size="10.00">drivers/kw2xrf/include</text>
<text text-anchor="middle" x="1332.38" y="-461.25" font-family="Helvetica,sans-Serif" font-size="10.00">/kw2xrf_intern.h</text>
</a>
</g>
</g>
<!-- Node2 -->
<g id="Node000002" class="node">
<title>Node2</title>
<g id="a_Node000002"><a xlink:title=" ">
<polygon fill="#e0e0e0" stroke="#999999" points="915.75,-20.75 863,-20.75 863,0 915.75,0 915.75,-20.75"/>
<text text-anchor="middle" x="889.38" y="-7.25" font-family="Helvetica,sans-Serif" font-size="10.00">stdint.h</text>
</a>
</g>
</g>
<!-- Node1&#45;&gt;Node2 -->
<g id="edge1_Node000001_Node000002" class="edge">
<title>Node1&#45;&gt;Node2</title>
<g id="a_edge1_Node000001_Node000002"><a xlink:title=" ">
<path fill="none" stroke="#63b8ff" d="M1394.95,-465.91C1466.95,-457.71 1575.38,-432.06 1575.38,-351.88 1575.38,-351.88 1575.38,-351.88 1575.38,-122.88 1575.38,-37.23 1477.96,-75.44 1394.38,-56.75 1223.07,-18.45 1012.23,-12.29 927.39,-11.43"/>
<polygon fill="#63b8ff" stroke="#63b8ff" points="927.58,-7.93 917.55,-11.35 927.52,-14.93 927.58,-7.93"/>
</a>
</g>
</g>
<!-- Node3 -->
<g id="Node000003" class="node">
<title>Node3</title>
<g id="a_Node000003"><a xlink:href="kw2xrf_8h.html" target="_top" xlink:title="Interface definition for the kw2xrf driver.">
<polygon fill="white" stroke="#666666" points="1179.38,-418 1121.38,-418 1121.38,-397.25 1179.38,-397.25 1179.38,-418"/>
<text text-anchor="middle" x="1150.38" y="-404.5" font-family="Helvetica,sans-Serif" font-size="10.00">kw2xrf.h</text>
</a>
</g>
</g>
<!-- Node1&#45;&gt;Node3 -->
<g id="edge2_Node000001_Node000003" class="edge">
<title>Node1&#45;&gt;Node3</title>
<g id="a_edge2_Node000001_Node000003"><a xlink:title=" ">
<path fill="none" stroke="#63b8ff" d="M1284.08,-453.53C1254.83,-443.71 1217.97,-431.33 1190.36,-422.06"/>
<polygon fill="#63b8ff" stroke="#63b8ff" points="1191.55,-418.76 1180.96,-418.9 1189.33,-425.4 1191.55,-418.76"/>
</a>
</g>
</g>
<!-- Node3&#45;&gt;Node2 -->
<g id="edge3_Node000003_Node000002" class="edge">
<title>Node3&#45;&gt;Node2</title>
<g id="a_edge3_Node000003_Node000002"><a xlink:title=" ">
<path fill="none" stroke="#63b8ff" d="M1179.64,-403.02C1266.91,-390.49 1519.38,-340.51 1519.38,-181.62 1519.38,-181.62 1519.38,-181.62 1519.38,-122.88 1519.38,-62.43 1063.86,-24.16 927.5,-14.06"/>
<polygon fill="#63b8ff" stroke="#63b8ff" points="927.78,-10.57 917.55,-13.33 927.27,-17.55 927.78,-10.57"/>
</a>
</g>
</g>
<!-- Node4 -->
<g id="Node000004" class="node">
<title>Node4</title>
<g id="a_Node000004"><a xlink:title=" ">
<polygon fill="#e0e0e0" stroke="#999999" points="1176.75,-361.25 1124,-361.25 1124,-340.5 1176.75,-340.5 1176.75,-361.25"/>
<text text-anchor="middle" x="1150.38" y="-347.75" font-family="Helvetica,sans-Serif" font-size="10.00">board.h</text>
</a>
</g>
</g>
<!-- Node3&#45;&gt;Node4 -->
<g id="edge4_Node000003_Node000004" class="edge">
<title>Node3&#45;&gt;Node4</title>
<g id="a_edge4_Node000003_Node000004"><a xlink:title=" ">
<path fill="none" stroke="#63b8ff" d="M1150.38,-396.84C1150.38,-390.22 1150.38,-381.22 1150.38,-373.02"/>
<polygon fill="#63b8ff" stroke="#63b8ff" points="1153.88,-373.09 1150.38,-363.09 1146.88,-373.09 1153.88,-373.09"/>
</a>
</g>
</g>
<!-- Node5 -->
<g id="Node000005" class="node">
<title>Node5</title>
<g id="a_Node000005"><a xlink:href="spi_8h.html" target="_top" xlink:title="Low&#45;level SPI peripheral driver interface definition.">
<polygon fill="white" stroke="#666666" points="339.88,-191 266.88,-191 266.88,-170.25 339.88,-170.25 339.88,-191"/>
<text text-anchor="middle" x="303.38" y="-177.5" font-family="Helvetica,sans-Serif" font-size="10.00">periph/spi.h</text>
</a>
</g>
</g>
<!-- Node3&#45;&gt;Node5 -->
<g id="edge5_Node000003_Node000005" class="edge">
<title>Node3&#45;&gt;Node5</title>
<g id="a_edge5_Node000003_Node000005"><a xlink:title=" ">
<path fill="none" stroke="#63b8ff" d="M1121.27,-403.49C1069.24,-397.57 957.06,-383.3 864.38,-361.25 662.59,-313.23 428.4,-228.55 339.81,-195.44"/>
<polygon fill="#63b8ff" stroke="#63b8ff" points="341.27,-192.25 330.68,-192.01 338.81,-198.8 341.27,-192.25"/>
</a>
</g>
</g>
<!-- Node12 -->
<g id="Node000012" class="node">
<title>Node12</title>
<g id="a_Node000012"><a xlink:href="drivers_2include_2periph_2gpio_8h.html" target="_top" xlink:title="Low&#45;level GPIO peripheral driver interface definitions.">
<polygon fill="white" stroke="#666666" points="161.25,-134.25 81.5,-134.25 81.5,-113.5 161.25,-113.5 161.25,-134.25"/>
<text text-anchor="middle" x="121.38" y="-120.75" font-family="Helvetica,sans-Serif" font-size="10.00">periph/gpio.h</text>
</a>
</g>
</g>
<!-- Node3&#45;&gt;Node12 -->
<g id="edge18_Node000003_Node000012" class="edge">
<title>Node3&#45;&gt;Node12</title>
<g id="a_edge18_Node000003_Node000012"><a xlink:title=" ">
<path fill="none" stroke="#63b8ff" d="M1121.08,-406.41C959.1,-404.86 180.38,-392.33 180.38,-295.12 180.38,-295.12 180.38,-295.12 180.38,-236.38 180.38,-200.1 155.68,-164.09 138.24,-143.19"/>
<polygon fill="#63b8ff" stroke="#63b8ff" points="141.05,-141.09 131.85,-135.84 135.77,-145.68 141.05,-141.09"/>
</a>
</g>
</g>
<!-- Node14 -->
<g id="Node000014" class="node">
<title>Node14</title>
<g id="a_Node000014"><a xlink:href="drivers_2include_2net_2netdev_8h.html" target="_top" xlink:title="Definitions low&#45;level network driver interface.">
<polygon fill="white" stroke="#666666" points="805.75,-247.75 729,-247.75 729,-227 805.75,-227 805.75,-247.75"/>
<text text-anchor="middle" x="767.38" y="-234.25" font-family="Helvetica,sans-Serif" font-size="10.00">net/netdev.h</text>
</a>
</g>
</g>
<!-- Node3&#45;&gt;Node14 -->
<g id="edge19_Node000003_Node000014" class="edge">
<title>Node3&#45;&gt;Node14</title>
<g id="a_edge19_Node000003_Node000014"><a xlink:title=" ">
<path fill="none" stroke="#63b8ff" d="M1120.88,-404.8C1074.53,-401.12 982.49,-390.48 910.38,-361.25 867.93,-344.05 858.76,-334.74 824.38,-304.5 808.07,-290.16 792.17,-271.17 781.32,-257.22"/>
<polygon fill="#63b8ff" stroke="#63b8ff" points="784.14,-255.14 775.3,-249.29 778.56,-259.37 784.14,-255.14"/>
</a>
</g>
</g>
<!-- Node23 -->
<g id="Node000023" class="node">
<title>Node23</title>
<g id="a_Node000023"><a xlink:href="drivers_2include_2net_2netdev_2ieee802154_8h.html" target="_top" xlink:title="Definitions for netdev common IEEE 802.15.4 code.">
<polygon fill="white" stroke="#666666" points="1057.12,-361.25 919.62,-361.25 919.62,-340.5 1057.12,-340.5 1057.12,-361.25"/>
<text text-anchor="middle" x="988.38" y="-347.75" font-family="Helvetica,sans-Serif" font-size="10.00">net/netdev/ieee802154.h</text>
</a>
</g>
</g>
<!-- Node3&#45;&gt;Node23 -->
<g id="edge37_Node000003_Node000023" class="edge">
<title>Node3&#45;&gt;Node23</title>
<g id="a_edge37_Node000003_Node000023"><a xlink:title=" ">
<path fill="none" stroke="#63b8ff" d="M1121.41,-396.84C1095.35,-388.03 1056.81,-375 1027.92,-365.24"/>
<polygon fill="#63b8ff" stroke="#63b8ff" points="1029.39,-362.04 1018.79,-362.16 1027.15,-368.67 1029.39,-362.04"/>
</a>
</g>
</g>
<!-- Node32 -->
<g id="Node000032" class="node">
<title>Node32</title>
<g id="a_Node000032"><a xlink:href="nettype_8h.html" target="_top" xlink:title="Protocol type definitions.">
<polygon fill="white" stroke="#666666" points="1287,-304.5 1181.75,-304.5 1181.75,-283.75 1287,-283.75 1287,-304.5"/>
<text text-anchor="middle" x="1234.38" y="-291" font-family="Helvetica,sans-Serif" font-size="10.00">net/gnrc/nettype.h</text>
</a>
</g>
</g>
<!-- Node3&#45;&gt;Node32 -->
<g id="edge64_Node000003_Node000032" class="edge">
<title>Node3&#45;&gt;Node32</title>
<g id="a_edge64_Node000003_Node000032"><a xlink:title=" ">
<path fill="none" stroke="#63b8ff" d="M1157.94,-396.93C1165.07,-387.77 1176.01,-373.63 1185.38,-361.25 1197.46,-345.27 1211.01,-326.95 1220.79,-313.65"/>
<polygon fill="#63b8ff" stroke="#63b8ff" points="1223.46,-315.94 1226.56,-305.8 1217.82,-311.79 1223.46,-315.94"/>
</a>
</g>
</g>
<!-- Node36 -->
<g id="Node000036" class="node">
<title>Node36</title>
<g id="a_Node000036"><a xlink:title=" ">
<polygon fill="#e0e0e0" stroke="#999999" points="1547.62,-361.25 1491.12,-361.25 1491.12,-340.5 1547.62,-340.5 1547.62,-361.25"/>
<text text-anchor="middle" x="1519.38" y="-347.75" font-family="Helvetica,sans-Serif" font-size="10.00">thread.h</text>
</a>
</g>
</g>
<!-- Node3&#45;&gt;Node36 -->
<g id="edge65_Node000003_Node000036" class="edge">
<title>Node3&#45;&gt;Node36</title>
<g id="a_edge65_Node000003_Node000036"><a xlink:title=" ">
<path fill="none" stroke="#63b8ff" d="M1179.81,-403.36C1237.26,-396.8 1368.24,-380.97 1477.38,-361.25 1478.2,-361.1 1479.04,-360.95 1479.88,-360.79"/>
<polygon fill="#63b8ff" stroke="#63b8ff" points="1480.38,-364.26 1489.49,-358.84 1478.99,-357.4 1480.38,-364.26"/>
</a>
</g>
</g>
<!-- Node5&#45;&gt;Node2 -->
<g id="edge11_Node000005_Node000002" class="edge">
<title>Node5&#45;&gt;Node2</title>
<g id="a_edge11_Node000005_Node000002"><a xlink:title=" ">
<path fill="none" stroke="#63b8ff" d="M301.36,-169.86C299.09,-156.2 296.95,-131.12 307.38,-113.5 331.46,-72.8 352.6,-71.95 397.38,-56.75 481.38,-28.23 750.83,-16.18 851.21,-12.6"/>
<polygon fill="#63b8ff" stroke="#63b8ff" points="851.2,-16.1 861.08,-12.25 850.96,-9.1 851.2,-16.1"/>
</a>
</g>
</g>
<!-- Node6 -->
<g id="Node000006" class="node">
<title>Node6</title>
<g id="a_Node000006"><a xlink:href="endian_8h.html" target="_top" xlink:title="libc header for endian conversion">
<polygon fill="white" stroke="#666666" points="918.38,-77.5 860.38,-77.5 860.38,-56.75 918.38,-56.75 918.38,-77.5"/>
<text text-anchor="middle" x="889.38" y="-64" font-family="Helvetica,sans-Serif" font-size="10.00">endian.h</text>
</a>
</g>
</g>
<!-- Node5&#45;&gt;Node6 -->
<g id="edge6_Node000005_Node000006" class="edge">
<title>Node5&#45;&gt;Node6</title>
<g id="a_edge6_Node000005_Node000006"><a xlink:title=" ">
<path fill="none" stroke="#63b8ff" d="M340.06,-178.12C436.34,-173.86 694.35,-160.27 775.38,-134.25 810.13,-123.09 845.85,-100.15 867.83,-84.45"/>
<polygon fill="#63b8ff" stroke="#63b8ff" points="869.68,-87.44 875.68,-78.71 865.55,-81.79 869.68,-87.44"/>
</a>
</g>
</g>
<!-- Node7 -->
<g id="Node000007" class="node">
<title>Node7</title>
<g id="a_Node000007"><a xlink:href="errno_8h.html" target="_top" xlink:title=" ">
<polygon fill="white" stroke="#666666" points="381.62,-134.25 331.12,-134.25 331.12,-113.5 381.62,-113.5 381.62,-134.25"/>
<text text-anchor="middle" x="356.38" y="-120.75" font-family="Helvetica,sans-Serif" font-size="10.00">errno.h</text>
</a>
</g>
</g>
<!-- Node5&#45;&gt;Node7 -->
<g id="edge8_Node000005_Node000007" class="edge">
<title>Node5&#45;&gt;Node7</title>
<g id="a_edge8_Node000005_Node000007"><a xlink:title=" ">
<path fill="none" stroke="#63b8ff" d="M312.85,-169.84C320.16,-162.28 330.47,-151.64 339.22,-142.6"/>
<polygon fill="#63b8ff" stroke="#63b8ff" points="341.49,-145.29 345.93,-135.67 336.46,-140.42 341.49,-145.29"/>
</a>
</g>
</g>
<!-- Node8 -->
<g id="Node000008" class="node">
<title>Node8</title>
<g id="a_Node000008"><a xlink:title=" ">
<polygon fill="#e0e0e0" stroke="#999999" points="460.88,-134.25 399.88,-134.25 399.88,-113.5 460.88,-113.5 460.88,-134.25"/>
<text text-anchor="middle" x="430.38" y="-120.75" font-family="Helvetica,sans-Serif" font-size="10.00">stdbool.h</text>
</a>
</g>
</g>
<!-- Node5&#45;&gt;Node8 -->
<g id="edge9_Node000005_Node000008" class="edge">
<title>Node5&#45;&gt;Node8</title>
<g id="a_edge9_Node000005_Node000008"><a xlink:title=" ">
<path fill="none" stroke="#63b8ff" d="M326.08,-169.84C345.95,-161.27 375.05,-148.73 397.47,-139.06"/>
<polygon fill="#63b8ff" stroke="#63b8ff" points="398.68,-142.35 406.48,-135.18 395.91,-135.92 398.68,-142.35"/>
</a>
</g>
</g>
<!-- Node9 -->
<g id="Node000009" class="node">
<title>Node9</title>
<g id="a_Node000009"><a xlink:title=" ">
<polygon fill="#e0e0e0" stroke="#999999" points="460.88,-77.5 405.88,-77.5 405.88,-56.75 460.88,-56.75 460.88,-77.5"/>
<text text-anchor="middle" x="433.38" y="-64" font-family="Helvetica,sans-Serif" font-size="10.00">stddef.h</text>
</a>
</g>
</g>
<!-- Node5&#45;&gt;Node9 -->
<g id="edge10_Node000005_Node000009" class="edge">
<title>Node5&#45;&gt;Node9</title>
<g id="a_edge10_Node000005_Node000009"><a xlink:title=" ">
<path fill="none" stroke="#63b8ff" d="M303.61,-169.83C304.46,-155.69 308.02,-129.5 322.38,-113.5 341.1,-92.63 370.84,-81.16 394.83,-74.98"/>
<polygon fill="#63b8ff" stroke="#63b8ff" points="395.31,-78.46 404.25,-72.77 393.72,-71.64 395.31,-78.46"/>
</a>
</g>
</g>
<!-- Node10 -->
<g id="Node000010" class="node">
<title>Node10</title>
<g id="a_Node000010"><a xlink:title=" ">
<polygon fill="#e0e0e0" stroke="#999999" points="149.5,-77.5 71.25,-77.5 71.25,-56.75 149.5,-56.75 149.5,-77.5"/>
<text text-anchor="middle" x="110.38" y="-64" font-family="Helvetica,sans-Serif" font-size="10.00">periph_cpu.h</text>
</a>
</g>
</g>
<!-- Node5&#45;&gt;Node10 -->
<g id="edge12_Node000005_Node000010" class="edge">
<title>Node5&#45;&gt;Node10</title>
<g id="a_edge12_Node000005_Node000010"><a xlink:title=" ">
<path fill="none" stroke="#63b8ff" d="M286.59,-169.93C253.08,-150.57 177.67,-107 137.22,-83.63"/>
<polygon fill="#63b8ff" stroke="#63b8ff" points="138.98,-80.61 128.57,-78.64 135.48,-86.67 138.98,-80.61"/>
</a>
</g>
</g>
<!-- Node11 -->
<g id="Node000011" class="node">
<title>Node11</title>
<g id="a_Node000011"><a xlink:title=" ">
<polygon fill="#e0e0e0" stroke="#999999" points="249,-77.5 167.75,-77.5 167.75,-56.75 249,-56.75 249,-77.5"/>
<text text-anchor="middle" x="208.38" y="-64" font-family="Helvetica,sans-Serif" font-size="10.00">periph_conf.h</text>
</a>
</g>
</g>
<!-- Node5&#45;&gt;Node11 -->
<g id="edge13_Node000005_Node000011" class="edge">
<title>Node5&#45;&gt;Node11</title>
<g id="a_edge13_Node000005_Node000011"><a xlink:title=" ">
<path fill="none" stroke="#63b8ff" d="M290.51,-170.05C279.41,-161.42 263.31,-148 251.38,-134.25 238.77,-119.73 227.05,-101.23 219.04,-87.5"/>
<polygon fill="#63b8ff" stroke="#63b8ff" points="222.19,-85.96 214.21,-78.99 216.1,-89.42 222.19,-85.96"/>
</a>
</g>
</g>
<!-- Node5&#45;&gt;Node12 -->
<g id="edge14_Node000005_Node000012" class="edge">
<title>Node5&#45;&gt;Node12</title>
<g id="a_edge14_Node000005_Node000012"><a xlink:title=" ">
<path fill="none" stroke="#63b8ff" d="M270.84,-169.84C241.29,-160.95 197.5,-147.77 164.94,-137.98"/>
<polygon fill="#63b8ff" stroke="#63b8ff" points="165.97,-134.64 155.39,-135.11 163.95,-141.34 165.97,-134.64"/>
</a>
</g>
</g>
<!-- Node6&#45;&gt;Node2 -->
<g id="edge7_Node000006_Node000002" class="edge">
<title>Node6&#45;&gt;Node2</title>
<g id="a_edge7_Node000006_Node000002"><a xlink:title=" ">
<path fill="none" stroke="#63b8ff" d="M889.38,-56.34C889.38,-49.72 889.38,-40.72 889.38,-32.52"/>
<polygon fill="#63b8ff" stroke="#63b8ff" points="892.88,-32.59 889.38,-22.59 885.88,-32.59 892.88,-32.59"/>
</a>
</g>
</g>
<!-- Node12&#45;&gt;Node10 -->
<g id="edge16_Node000012_Node000010" class="edge">
<title>Node12&#45;&gt;Node10</title>
<g id="a_edge16_Node000012_Node000010"><a xlink:title=" ">
<path fill="none" stroke="#63b8ff" d="M119.41,-113.09C118.06,-106.39 116.23,-97.26 114.56,-88.98"/>
<polygon fill="#63b8ff" stroke="#63b8ff" points="118.02,-88.43 112.62,-79.31 111.16,-89.81 118.02,-88.43"/>
</a>
</g>
</g>
<!-- Node12&#45;&gt;Node11 -->
<g id="edge17_Node000012_Node000011" class="edge">
<title>Node12&#45;&gt;Node11</title>
<g id="a_edge17_Node000012_Node000011"><a xlink:title=" ">
<path fill="none" stroke="#63b8ff" d="M136.93,-113.09C149.8,-104.99 168.32,-93.33 183.28,-83.92"/>
<polygon fill="#63b8ff" stroke="#63b8ff" points="185.08,-86.92 191.67,-78.63 181.35,-81 185.08,-86.92"/>
</a>
</g>
</g>
<!-- Node13 -->
<g id="Node000013" class="node">
<title>Node13</title>
<g id="a_Node000013"><a xlink:title=" ">
<polygon fill="#e0e0e0" stroke="#999999" points="52.75,-77.5 0,-77.5 0,-56.75 52.75,-56.75 52.75,-77.5"/>
<text text-anchor="middle" x="26.38" y="-64" font-family="Helvetica,sans-Serif" font-size="10.00">limits.h</text>
</a>
</g>
</g>
<!-- Node12&#45;&gt;Node13 -->
<g id="edge15_Node000012_Node000013" class="edge">
<title>Node12&#45;&gt;Node13</title>
<g id="a_edge15_Node000012_Node000013"><a xlink:title=" ">
<path fill="none" stroke="#63b8ff" d="M104.39,-113.09C90.07,-104.83 69.33,-92.88 52.84,-83.38"/>
<polygon fill="#63b8ff" stroke="#63b8ff" points="54.94,-80.55 44.52,-78.58 51.44,-86.61 54.94,-80.55"/>
</a>
</g>
</g>
<!-- Node14&#45;&gt;Node2 -->
<g id="edge20_Node000014_Node000002" class="edge">
<title>Node14&#45;&gt;Node2</title>
<g id="a_edge20_Node000014_Node000002"><a xlink:title=" ">
<path fill="none" stroke="#63b8ff" d="M756.26,-226.65C743.07,-213.87 723.99,-190.66 733.38,-170.25 743.65,-147.91 758.02,-151.66 775.38,-134.25 807.31,-102.21 810.22,-89.56 841.38,-56.75 850.49,-47.14 861.16,-36.97 870.11,-28.7"/>
<polygon fill="#63b8ff" stroke="#63b8ff" points="872.24,-31.49 877.26,-22.17 867.52,-26.33 872.24,-31.49"/>
</a>
</g>
</g>
<!-- Node14&#45;&gt;Node7 -->
<g id="edge21_Node000014_Node000007" class="edge">
<title>Node14&#45;&gt;Node7</title>
<g id="a_edge21_Node000014_Node000007"><a xlink:title=" ">
<path fill="none" stroke="#63b8ff" d="M728.55,-227.54C690.63,-218.77 631.35,-204.7 580.38,-191 513.73,-173.09 436.7,-149.77 392.55,-136.15"/>
<polygon fill="#63b8ff" stroke="#63b8ff" points="393.82,-132.88 383.24,-133.27 391.76,-139.57 393.82,-132.88"/>
</a>
</g>
</g>
<!-- Node15 -->
<g id="Node000015" class="node">
<title>Node15</title>
<g id="a_Node000015"><a xlink:href="iolist_8h.html" target="_top" xlink:title="iolist scatter / gather IO">
<polygon fill="white" stroke="#666666" points="790.88,-191 741.88,-191 741.88,-170.25 790.88,-170.25 790.88,-191"/>
<text text-anchor="middle" x="766.38" y="-177.5" font-family="Helvetica,sans-Serif" font-size="10.00">iolist.h</text>
</a>
</g>
</g>
<!-- Node14&#45;&gt;Node15 -->
<g id="edge22_Node000014_Node000015" class="edge">
<title>Node14&#45;&gt;Node15</title>
<g id="a_edge22_Node000014_Node000015"><a xlink:title=" ">
<path fill="none" stroke="#63b8ff" d="M767.2,-226.59C767.08,-219.97 766.91,-210.97 766.76,-202.77"/>
<polygon fill="#63b8ff" stroke="#63b8ff" points="770.26,-202.78 766.58,-192.84 763.26,-202.9 770.26,-202.78"/>
</a>
</g>
</g>
<!-- Node16 -->
<g id="Node000016" class="node">
<title>Node16</title>
<g id="a_Node000016"><a xlink:href="netopt_8h.html" target="_top" xlink:title="Definition of global configuration options.">
<polygon fill="white" stroke="#666666" points="884,-191 808.75,-191 808.75,-170.25 884,-170.25 884,-191"/>
<text text-anchor="middle" x="846.38" y="-177.5" font-family="Helvetica,sans-Serif" font-size="10.00">net/netopt.h</text>
</a>
</g>
</g>
<!-- Node14&#45;&gt;Node16 -->
<g id="edge23_Node000014_Node000016" class="edge">
<title>Node14&#45;&gt;Node16</title>
<g id="a_edge23_Node000014_Node000016"><a xlink:title=" ">
<path fill="none" stroke="#63b8ff" d="M781.5,-226.59C793.07,-218.57 809.68,-207.06 823.19,-197.69"/>
<polygon fill="#63b8ff" stroke="#63b8ff" points="824.9,-200.76 831.13,-192.19 820.92,-195.01 824.9,-200.76"/>
</a>
</g>
</g>
<!-- Node17 -->
<g id="Node000017" class="node">
<title>Node17</title>
<g id="a_Node000017"><a xlink:href="kernel__defines_8h.html" target="_top" xlink:title="Common macros and compiler attributes/pragmas configuration.">
<polygon fill="white" stroke="#666666" points="685.5,-191 589.25,-191 589.25,-170.25 685.5,-170.25 685.5,-191"/>
<text text-anchor="middle" x="637.38" y="-177.5" font-family="Helvetica,sans-Serif" font-size="10.00">kernel_defines.h</text>
</a>
</g>
</g>
<!-- Node14&#45;&gt;Node17 -->
<g id="edge26_Node000014_Node000017" class="edge">
<title>Node14&#45;&gt;Node17</title>
<g id="a_edge26_Node000014_Node000017"><a xlink:title=" ">
<path fill="none" stroke="#63b8ff" d="M744.13,-226.59C723.71,-217.98 693.74,-205.36 670.75,-195.68"/>
<polygon fill="#63b8ff" stroke="#63b8ff" points="672.38,-192.57 661.81,-191.92 669.67,-199.02 672.38,-192.57"/>
</a>
</g>
</g>
<!-- Node16&#45;&gt;Node2 -->
<g id="edge24_Node000016_Node000002" class="edge">
<title>Node16&#45;&gt;Node2</title>
<g id="a_edge24_Node000016_Node000002"><a xlink:title=" ">
<path fill="none" stroke="#63b8ff" d="M844.73,-169.96C841.53,-148.65 836.05,-96.38 851.38,-56.75 855.32,-46.56 862.54,-37 869.65,-29.31"/>
<polygon fill="#63b8ff" stroke="#63b8ff" points="872.07,-31.84 876.65,-22.29 867.11,-26.89 872.07,-31.84"/>
</a>
</g>
</g>
<!-- Node16&#45;&gt;Node8 -->
<g id="edge25_Node000016_Node000008" class="edge">
<title>Node16&#45;&gt;Node8</title>
<g id="a_edge25_Node000016_Node000008"><a xlink:title=" ">
<path fill="none" stroke="#63b8ff" d="M808.27,-171.58C805.6,-171.1 802.95,-170.65 800.38,-170.25 658.16,-148.05 617.76,-158.58 472.42,-134.4"/>
<polygon fill="#63b8ff" stroke="#63b8ff" points="473.24,-130.99 462.8,-132.77 472.08,-137.89 473.24,-130.99"/>
</a>
</g>
</g>
<!-- Node18 -->
<g id="Node000018" class="node">
<title>Node18</title>
<g id="a_Node000018"><a xlink:href="modules_8h.html" target="_top" xlink:title="Common macros and compiler attributes/pragmas configuration.">
<polygon fill="white" stroke="#666666" points="983.88,-134.25 916.88,-134.25 916.88,-113.5 983.88,-113.5 983.88,-134.25"/>
<text text-anchor="middle" x="950.38" y="-120.75" font-family="Helvetica,sans-Serif" font-size="10.00">modules.h</text>
</a>
</g>
</g>
<!-- Node17&#45;&gt;Node18 -->
<g id="edge27_Node000017_Node000018" class="edge">
<title>Node17&#45;&gt;Node18</title>
<g id="a_edge27_Node000017_Node000018"><a xlink:title=" ">
<path fill="none" stroke="#63b8ff" d="M685.94,-171.13C745.98,-160.63 847.36,-142.89 905.6,-132.71"/>
<polygon fill="#63b8ff" stroke="#63b8ff" points="905.91,-136.21 915.16,-131.04 904.7,-129.31 905.91,-136.21"/>
</a>
</g>
</g>
<!-- Node19 -->
<g id="Node000019" class="node">
<title>Node19</title>
<g id="a_Node000019"><a xlink:href="riot__version_8h.html" target="_top" xlink:title="Common macros and compiler attributes/pragmas configuration.">
<polygon fill="white" stroke="#666666" points="650.75,-134.25 568,-134.25 568,-113.5 650.75,-113.5 650.75,-134.25"/>
<text text-anchor="middle" x="609.38" y="-120.75" font-family="Helvetica,sans-Serif" font-size="10.00">riot_version.h</text>
</a>
</g>
</g>
<!-- Node17&#45;&gt;Node19 -->
<g id="edge28_Node000017_Node000019" class="edge">
<title>Node17&#45;&gt;Node19</title>
<g id="a_edge28_Node000017_Node000019"><a xlink:title=" ">
<path fill="none" stroke="#63b8ff" d="M632.37,-169.84C628.79,-162.83 623.84,-153.16 619.45,-144.58"/>
<polygon fill="#63b8ff" stroke="#63b8ff" points="622.7,-143.24 615.03,-135.93 616.46,-146.42 622.7,-143.24"/>
</a>
</g>
</g>
<!-- Node20 -->
<g id="Node000020" class="node">
<title>Node20</title>
<g id="a_Node000020"><a xlink:href="compiler__hints_8h.html" target="_top" xlink:title="Common macros and compiler attributes/pragmas configuration.">
<polygon fill="white" stroke="#666666" points="765.88,-134.25 668.88,-134.25 668.88,-113.5 765.88,-113.5 765.88,-134.25"/>
<text text-anchor="middle" x="717.38" y="-120.75" font-family="Helvetica,sans-Serif" font-size="10.00">compiler_hints.h</text>
</a>
</g>
</g>
<!-- Node17&#45;&gt;Node20 -->
<g id="edge30_Node000017_Node000020" class="edge">
<title>Node17&#45;&gt;Node20</title>
<g id="a_edge30_Node000017_Node000020"><a xlink:title=" ">
<path fill="none" stroke="#63b8ff" d="M651.68,-169.84C663.39,-161.82 680.21,-150.31 693.9,-140.94"/>
<polygon fill="#63b8ff" stroke="#63b8ff" points="695.67,-143.97 701.95,-135.43 691.72,-138.19 695.67,-143.97"/>
</a>
</g>
</g>
<!-- Node22 -->
<g id="Node000022" class="node">
<title>Node22</title>
<g id="a_Node000022"><a xlink:href="container_8h.html" target="_top" xlink:title="Common macros and compiler attributes/pragmas configuration.">
<polygon fill="white" stroke="#666666" points="549.75,-134.25 479,-134.25 479,-113.5 549.75,-113.5 549.75,-134.25"/>
<text text-anchor="middle" x="514.38" y="-120.75" font-family="Helvetica,sans-Serif" font-size="10.00">container.h</text>
</a>
</g>
</g>
<!-- Node17&#45;&gt;Node22 -->
<g id="edge34_Node000017_Node000022" class="edge">
<title>Node17&#45;&gt;Node22</title>
<g id="a_edge34_Node000017_Node000022"><a xlink:title=" ">
<path fill="none" stroke="#63b8ff" d="M615.39,-169.84C596.23,-161.31 568.21,-148.84 546.54,-139.19"/>
<polygon fill="#63b8ff" stroke="#63b8ff" points="548.12,-136.06 537.56,-135.19 545.27,-142.46 548.12,-136.06"/>
</a>
</g>
</g>
<!-- Node19&#45;&gt;Node2 -->
<g id="edge29_Node000019_Node000002" class="edge">
<title>Node19&#45;&gt;Node2</title>
<g id="a_edge29_Node000019_Node000002"><a xlink:title=" ">
<path fill="none" stroke="#63b8ff" d="M618.6,-113.15C632.97,-98.6 662.18,-71.32 692.38,-56.75 744.16,-31.76 810.35,-20.17 851.29,-15.07"/>
<polygon fill="#63b8ff" stroke="#63b8ff" points="851.61,-18.55 861.14,-13.92 850.8,-11.6 851.61,-18.55"/>
</a>
</g>
</g>
<!-- Node20&#45;&gt;Node2 -->
<g id="edge33_Node000020_Node000002" class="edge">
<title>Node20&#45;&gt;Node2</title>
<g id="a_edge33_Node000020_Node000002"><a xlink:title=" ">
<path fill="none" stroke="#63b8ff" d="M710.73,-113.26C702.01,-99.33 689.28,-73.41 702.38,-56.75 720.58,-33.59 802.45,-20.81 851.63,-15.09"/>
<polygon fill="#63b8ff" stroke="#63b8ff" points="851.72,-18.61 861.27,-14.02 850.95,-11.65 851.72,-18.61"/>
</a>
</g>
</g>
<!-- Node21 -->
<g id="Node000021" class="node">
<title>Node21</title>
<g id="a_Node000021"><a xlink:href="assert_8h.html" target="_top" xlink:title="POSIX.1&#45;2008 compliant version of the assert macro.">
<polygon fill="white" stroke="#666666" points="765.88,-77.5 710.88,-77.5 710.88,-56.75 765.88,-56.75 765.88,-77.5"/>
<text text-anchor="middle" x="738.38" y="-64" font-family="Helvetica,sans-Serif" font-size="10.00">assert.h</text>
</a>
</g>
</g>
<!-- Node20&#45;&gt;Node21 -->
<g id="edge31_Node000020_Node000021" class="edge">
<title>Node20&#45;&gt;Node21</title>
<g id="a_edge31_Node000020_Node000021"><a xlink:title=" ">
<path fill="none" stroke="#63b8ff" d="M721.13,-113.09C723.76,-106.24 727.36,-96.84 730.6,-88.4"/>
<polygon fill="#63b8ff" stroke="#63b8ff" points="733.8,-89.83 734.11,-79.24 727.26,-87.32 733.8,-89.83"/>
</a>
</g>
</g>
<!-- Node21&#45;&gt;Node2 -->
<g id="edge32_Node000021_Node000002" class="edge">
<title>Node21&#45;&gt;Node2</title>
<g id="a_edge32_Node000021_Node000002"><a xlink:title=" ">
<path fill="none" stroke="#63b8ff" d="M765.37,-56.34C789.53,-47.58 825.17,-34.65 852.05,-24.91"/>
<polygon fill="#63b8ff" stroke="#63b8ff" points="852.98,-28.29 861.19,-21.59 850.6,-21.71 852.98,-28.29"/>
</a>
</g>
</g>
<!-- Node22&#45;&gt;Node2 -->
<g id="edge36_Node000022_Node000002" class="edge">
<title>Node22&#45;&gt;Node2</title>
<g id="a_edge36_Node000022_Node000002"><a xlink:title=" ">
<path fill="none" stroke="#63b8ff" d="M531.74,-113.09C557.96,-98.72 609.56,-71.96 656.38,-56.75 723.26,-35.02 804.51,-22.1 851.25,-15.9"/>
<polygon fill="#63b8ff" stroke="#63b8ff" points="851.67,-19.37 861.14,-14.62 850.77,-12.43 851.67,-19.37"/>
</a>
</g>
</g>
<!-- Node22&#45;&gt;Node9 -->
<g id="edge35_Node000022_Node000009" class="edge">
<title>Node22&#45;&gt;Node9</title>
<g id="a_edge35_Node000022_Node000009"><a xlink:title=" ">
<path fill="none" stroke="#63b8ff" d="M499.89,-113.09C488.03,-105.07 471,-93.56 457.14,-84.19"/>
<polygon fill="#63b8ff" stroke="#63b8ff" points="459.23,-81.38 448.98,-78.68 455.31,-87.18 459.23,-81.38"/>
</a>
</g>
</g>
<!-- Node23&#45;&gt;Node14 -->
<g id="edge63_Node000023_Node000014" class="edge">
<title>Node23&#45;&gt;Node14</title>
<g id="a_edge63_Node000023_Node000014"><a xlink:title=" ">
<path fill="none" stroke="#63b8ff" d="M952.51,-340.08C926.21,-332.21 890.08,-319.94 860.38,-304.5 833.43,-290.49 805.41,-269.55 787.26,-255"/>
<polygon fill="#63b8ff" stroke="#63b8ff" points="789.87,-252.61 779.91,-249.01 785.44,-258.04 789.87,-252.61"/>
</a>
</g>
</g>
<!-- Node23&#45;&gt;Node16 -->
<g id="edge62_Node000023_Node000016" class="edge">
<title>Node23&#45;&gt;Node16</title>
<g id="a_edge62_Node000023_Node000016"><a xlink:title=" ">
<path fill="none" stroke="#63b8ff" d="M980.33,-340.35C957.5,-313.29 891.97,-235.65 861.85,-199.96"/>
<polygon fill="#63b8ff" stroke="#63b8ff" points="864.78,-198.01 855.66,-192.62 859.43,-202.52 864.78,-198.01"/>
</a>
</g>
</g>
<!-- Node24 -->
<g id="Node000024" class="node">
<title>Node24</title>
<g id="a_Node000024"><a xlink:href="eui__provider_8h.html" target="_top" xlink:title="EUI&#45;48 and EUI&#45;64 address provider.">
<polygon fill="white" stroke="#666666" points="1131.62,-304.5 1027.12,-304.5 1027.12,-283.75 1131.62,-283.75 1131.62,-304.5"/>
<text text-anchor="middle" x="1079.38" y="-291" font-family="Helvetica,sans-Serif" font-size="10.00">net/eui_provider.h</text>
</a>
</g>
</g>
<!-- Node23&#45;&gt;Node24 -->
<g id="edge38_Node000023_Node000024" class="edge">
<title>Node23&#45;&gt;Node24</title>
<g id="a_edge38_Node000023_Node000024"><a xlink:title=" ">
<path fill="none" stroke="#63b8ff" d="M1004.64,-340.09C1018.23,-331.91 1037.85,-320.11 1053.58,-310.65"/>
<polygon fill="#63b8ff" stroke="#63b8ff" points="1055.19,-313.76 1061.95,-305.61 1051.58,-307.77 1055.19,-313.76"/>
</a>
</g>
</g>
<!-- Node30 -->
<g id="Node000030" class="node">
<title>Node30</title>
<g id="a_Node000030"><a xlink:href="sys_2include_2net_2ieee802154_8h.html" target="_top" xlink:title="IEEE 802.15.4 header definitions.">
<polygon fill="white" stroke="#666666" points="1031.75,-247.75 931,-247.75 931,-227 1031.75,-227 1031.75,-247.75"/>
<text text-anchor="middle" x="981.38" y="-234.25" font-family="Helvetica,sans-Serif" font-size="10.00">net/ieee802154.h</text>
</a>
</g>
</g>
<!-- Node23&#45;&gt;Node30 -->
<g id="edge51_Node000023_Node000030" class="edge">
<title>Node23&#45;&gt;Node30</title>
<g id="a_edge51_Node000023_Node000030"><a xlink:title=" ">
<path fill="none" stroke="#63b8ff" d="M987.78,-340.37C986.66,-322.52 984.21,-283.61 982.69,-259.34"/>
<polygon fill="#63b8ff" stroke="#63b8ff" points="986.2,-259.45 982.09,-249.69 979.22,-259.89 986.2,-259.45"/>
</a>
</g>
</g>
<!-- Node23&#45;&gt;Node32 -->
<g id="edge57_Node000023_Node000032" class="edge">
<title>Node23&#45;&gt;Node32</title>
<g id="a_edge57_Node000023_Node000032"><a xlink:title=" ">
<path fill="none" stroke="#63b8ff" d="M1032.64,-340.02C1073.61,-330.9 1134.7,-317.31 1178.91,-307.47"/>
<polygon fill="#63b8ff" stroke="#63b8ff" points="1179.57,-310.91 1188.57,-305.32 1178.05,-304.07 1179.57,-310.91"/>
</a>
</g>
</g>
<!-- Node24&#45;&gt;Node14 -->
<g id="edge50_Node000024_Node000014" class="edge">
<title>Node24&#45;&gt;Node14</title>
<g id="a_edge50_Node000024_Node000014"><a xlink:title=" ">
<path fill="none" stroke="#63b8ff" d="M1026.8,-283.9C968.31,-273.64 874.51,-257.18 817.17,-247.11"/>
<polygon fill="#63b8ff" stroke="#63b8ff" points="817.81,-243.67 807.35,-245.39 816.6,-250.57 817.81,-243.67"/>
</a>
</g>
</g>
<!-- Node25 -->
<g id="Node000025" class="node">
<title>Node25</title>
<g id="a_Node000025"><a xlink:href="eui48_8h.html" target="_top" xlink:title="Definition and IPv6 IID conversion for IEEE EUI&#45;48 identifiers.">
<polygon fill="white" stroke="#666666" points="1195.75,-247.75 1125,-247.75 1125,-227 1195.75,-227 1195.75,-247.75"/>
<text text-anchor="middle" x="1160.38" y="-234.25" font-family="Helvetica,sans-Serif" font-size="10.00">net/eui48.h</text>
</a>
</g>
</g>
<!-- Node24&#45;&gt;Node25 -->
<g id="edge39_Node000024_Node000025" class="edge">
<title>Node24&#45;&gt;Node25</title>
<g id="a_edge39_Node000024_Node000025"><a xlink:title=" ">
<path fill="none" stroke="#63b8ff" d="M1093.86,-283.34C1105.72,-275.32 1122.75,-263.81 1136.61,-254.44"/>
<polygon fill="#63b8ff" stroke="#63b8ff" points="1138.44,-257.43 1144.77,-248.93 1134.52,-251.63 1138.44,-257.43"/>
</a>
</g>
</g>
<!-- Node26 -->
<g id="Node000026" class="node">
<title>Node26</title>
<g id="a_Node000026"><a xlink:href="eui64_8h.html" target="_top" xlink:title="EUI&#45;64 data type definition.">
<polygon fill="white" stroke="#666666" points="1194.75,-191 1124,-191 1124,-170.25 1194.75,-170.25 1194.75,-191"/>
<text text-anchor="middle" x="1159.38" y="-177.5" font-family="Helvetica,sans-Serif" font-size="10.00">net/eui64.h</text>
</a>
</g>
</g>
<!-- Node24&#45;&gt;Node26 -->
<g id="edge49_Node000024_Node000026" class="edge">
<title>Node24&#45;&gt;Node26</title>
<g id="a_edge49_Node000024_Node000026"><a xlink:title=" ">
<path fill="none" stroke="#63b8ff" d="M1083.94,-283.25C1090.31,-269.91 1102.65,-245.65 1116.38,-227 1123.55,-217.24 1132.65,-207.37 1140.62,-199.33"/>
<polygon fill="#63b8ff" stroke="#63b8ff" points="1142.92,-201.98 1147.61,-192.49 1138.02,-196.98 1142.92,-201.98"/>
</a>
</g>
</g>
<!-- Node25&#45;&gt;Node2 -->
<g id="edge40_Node000025_Node000002" class="edge">
<title>Node25&#45;&gt;Node2</title>
<g id="a_edge40_Node000025_Node000002"><a xlink:title=" ">
<path fill="none" stroke="#63b8ff" d="M1174.12,-226.59C1184.35,-218.41 1197.51,-205.72 1203.38,-191 1219.53,-150.47 1238.03,-111.85 1180.38,-56.75 1144.73,-22.69 997.66,-14.19 927.26,-12.08"/>
<polygon fill="#63b8ff" stroke="#63b8ff" points="927.45,-8.58 917.36,-11.81 927.27,-15.58 927.45,-8.58"/>
</a>
</g>
</g>
<!-- Node25&#45;&gt;Node26 -->
<g id="edge41_Node000025_Node000026" class="edge">
<title>Node25&#45;&gt;Node26</title>
<g id="a_edge41_Node000025_Node000026"><a xlink:title=" ">
<path fill="none" stroke="#63b8ff" d="M1160.2,-226.59C1160.08,-219.97 1159.91,-210.97 1159.76,-202.77"/>
<polygon fill="#63b8ff" stroke="#63b8ff" points="1163.26,-202.78 1159.58,-192.84 1156.26,-202.9 1163.26,-202.78"/>
</a>
</g>
</g>
<!-- Node26&#45;&gt;Node2 -->
<g id="edge42_Node000026_Node000002" class="edge">
<title>Node26&#45;&gt;Node2</title>
<g id="a_edge42_Node000026_Node000002"><a xlink:title=" ">
<path fill="none" stroke="#63b8ff" d="M1163.21,-169.92C1171.5,-147.13 1188.22,-89.64 1160.38,-56.75 1130.94,-21.97 994.53,-13.83 927.19,-11.94"/>
<polygon fill="#63b8ff" stroke="#63b8ff" points="927.44,-8.44 917.36,-11.7 927.27,-15.44 927.44,-8.44"/>
</a>
</g>
</g>
<!-- Node27 -->
<g id="Node000027" class="node">
<title>Node27</title>
<g id="a_Node000027"><a xlink:href="byteorder_8h.html" target="_top" xlink:title="Functions to work with different byte orders.">
<polygon fill="white" stroke="#666666" points="1074.5,-134.25 1002.25,-134.25 1002.25,-113.5 1074.5,-113.5 1074.5,-134.25"/>
<text text-anchor="middle" x="1038.38" y="-120.75" font-family="Helvetica,sans-Serif" font-size="10.00">byteorder.h</text>
</a>
</g>
</g>
<!-- Node26&#45;&gt;Node27 -->
<g id="edge43_Node000026_Node000027" class="edge">
<title>Node26&#45;&gt;Node27</title>
<g id="a_edge43_Node000026_Node000027"><a xlink:title=" ">
<path fill="none" stroke="#63b8ff" d="M1137.74,-169.84C1118.9,-161.31 1091.34,-148.84 1070.02,-139.19"/>
<polygon fill="#63b8ff" stroke="#63b8ff" points="1071.75,-136.14 1061.2,-135.2 1068.87,-142.51 1071.75,-136.14"/>
</a>
</g>
</g>
<!-- Node27&#45;&gt;Node2 -->
<g id="edge45_Node000027_Node000002" class="edge">
<title>Node27&#45;&gt;Node2</title>
<g id="a_edge45_Node000027_Node000002"><a xlink:title=" ">
<path fill="none" stroke="#63b8ff" d="M1038.27,-113.45C1037.61,-99.3 1034.31,-72.55 1019.38,-56.75 995.41,-31.41 956.54,-20.21 927.53,-15.27"/>
<polygon fill="#63b8ff" stroke="#63b8ff" points="928.08,-11.81 917.67,-13.79 927.04,-18.74 928.08,-11.81"/>
</a>
</g>
</g>
<!-- Node27&#45;&gt;Node6 -->
<g id="edge46_Node000027_Node000006" class="edge">
<title>Node27&#45;&gt;Node6</title>
<g id="a_edge46_Node000027_Node000006"><a xlink:title=" ">
<path fill="none" stroke="#63b8ff" d="M1011.74,-113.09C988.08,-104.39 953.26,-91.6 926.8,-81.88"/>
<polygon fill="#63b8ff" stroke="#63b8ff" points="928.05,-78.61 917.45,-78.44 925.63,-85.18 928.05,-78.61"/>
</a>
</g>
</g>
<!-- Node28 -->
<g id="Node000028" class="node">
<title>Node28</title>
<g id="a_Node000028"><a xlink:title=" ">
<polygon fill="#e0e0e0" stroke="#999999" points="1118.75,-77.5 1066,-77.5 1066,-56.75 1118.75,-56.75 1118.75,-77.5"/>
<text text-anchor="middle" x="1092.38" y="-64" font-family="Helvetica,sans-Serif" font-size="10.00">string.h</text>
</a>
</g>
</g>
<!-- Node27&#45;&gt;Node28 -->
<g id="edge44_Node000027_Node000028" class="edge">
<title>Node27&#45;&gt;Node28</title>
<g id="a_edge44_Node000027_Node000028"><a xlink:title=" ">
<path fill="none" stroke="#63b8ff" d="M1048.03,-113.09C1055.48,-105.53 1065.98,-94.89 1074.9,-85.85"/>
<polygon fill="#63b8ff" stroke="#63b8ff" points="1077.21,-88.48 1081.74,-78.91 1072.23,-83.57 1077.21,-88.48"/>
</a>
</g>
</g>
<!-- Node29 -->
<g id="Node000029" class="node">
<title>Node29</title>
<g id="a_Node000029"><a xlink:href="unaligned_8h.html" target="_top" xlink:title="Unaligned but safe memory access functions.">
<polygon fill="white" stroke="#666666" points="1009.88,-77.5 936.88,-77.5 936.88,-56.75 1009.88,-56.75 1009.88,-77.5"/>
<text text-anchor="middle" x="973.38" y="-64" font-family="Helvetica,sans-Serif" font-size="10.00">unaligned.h</text>
</a>
</g>
</g>
<!-- Node27&#45;&gt;Node29 -->
<g id="edge47_Node000027_Node000029" class="edge">
<title>Node27&#45;&gt;Node29</title>
<g id="a_edge47_Node000027_Node000029"><a xlink:title=" ">
<path fill="none" stroke="#63b8ff" d="M1026.75,-113.09C1017.51,-105.3 1004.36,-94.22 993.43,-85.01"/>
<polygon fill="#63b8ff" stroke="#63b8ff" points="995.96,-82.57 986.05,-78.8 991.45,-87.92 995.96,-82.57"/>
</a>
</g>
</g>
<!-- Node29&#45;&gt;Node2 -->
<g id="edge48_Node000029_Node000002" class="edge">
<title>Node29&#45;&gt;Node2</title>
<g id="a_edge48_Node000029_Node000002"><a xlink:title=" ">
<path fill="none" stroke="#63b8ff" d="M958.36,-56.34C945.93,-48.24 928.05,-36.58 913.6,-27.17"/>
<polygon fill="#63b8ff" stroke="#63b8ff" points="915.82,-24.43 905.53,-21.9 912,-30.3 915.82,-24.43"/>
</a>
</g>
</g>
<!-- Node30&#45;&gt;Node2 -->
<g id="edge52_Node000030_Node000002" class="edge">
<title>Node30&#45;&gt;Node2</title>
<g id="a_edge52_Node000030_Node000002"><a xlink:title=" ">
<path fill="none" stroke="#63b8ff" d="M1000.47,-226.59C1050.97,-199.48 1180.66,-121.15 1127.38,-56.75 1102.43,-26.59 987.98,-16.3 927.34,-12.93"/>
<polygon fill="#63b8ff" stroke="#63b8ff" points="927.65,-9.44 917.49,-12.42 927.29,-16.43 927.65,-9.44"/>
</a>
</g>
</g>
<!-- Node30&#45;&gt;Node18 -->
<g id="edge56_Node000030_Node000018" class="edge">
<title>Node30&#45;&gt;Node18</title>
<g id="a_edge56_Node000030_Node000018"><a xlink:title=" ">
<path fill="none" stroke="#63b8ff" d="M978.73,-226.51C975.26,-213.57 968.94,-190.19 963.38,-170.25 961.12,-162.17 958.59,-153.3 956.36,-145.56"/>
<polygon fill="#63b8ff" stroke="#63b8ff" points="959.76,-144.69 953.62,-136.06 953.03,-146.63 959.76,-144.69"/>
</a>
</g>
</g>
<!-- Node30&#45;&gt;Node26 -->
<g id="edge55_Node000030_Node000026" class="edge">
<title>Node30&#45;&gt;Node26</title>
<g id="a_edge55_Node000030_Node000026"><a xlink:title=" ">
<path fill="none" stroke="#63b8ff" d="M1013.2,-226.59C1042.09,-217.7 1084.93,-204.52 1116.77,-194.73"/>
<polygon fill="#63b8ff" stroke="#63b8ff" points="1117.55,-198.15 1126.08,-191.87 1115.49,-191.46 1117.55,-198.15"/>
</a>
</g>
</g>
<!-- Node30&#45;&gt;Node27 -->
<g id="edge54_Node000030_Node000027" class="edge">
<title>Node30&#45;&gt;Node27</title>
<g id="a_edge54_Node000030_Node000027"><a xlink:title=" ">
<path fill="none" stroke="#63b8ff" d="M986.23,-226.87C995.48,-208.77 1015.8,-169.03 1028.16,-144.85"/>
<polygon fill="#63b8ff" stroke="#63b8ff" points="1031.24,-146.52 1032.68,-136.02 1025.01,-143.33 1031.24,-146.52"/>
</a>
</g>
</g>
<!-- Node31 -->
<g id="Node000031" class="node">
<title>Node31</title>
<g id="a_Node000031"><a xlink:title=" ">
<polygon fill="#e0e0e0" stroke="#999999" points="954.38,-191 902.38,-191 902.38,-170.25 954.38,-170.25 954.38,-191"/>
<text text-anchor="middle" x="928.38" y="-177.5" font-family="Helvetica,sans-Serif" font-size="10.00">stdlib.h</text>
</a>
</g>
</g>
<!-- Node30&#45;&gt;Node31 -->
<g id="edge53_Node000030_Node000031" class="edge">
<title>Node30&#45;&gt;Node31</title>
<g id="a_edge53_Node000030_Node000031"><a xlink:title=" ">
<path fill="none" stroke="#63b8ff" d="M971.9,-226.59C964.59,-219.03 954.28,-208.39 945.53,-199.35"/>
<polygon fill="#63b8ff" stroke="#63b8ff" points="948.29,-197.17 938.82,-192.42 943.26,-202.04 948.29,-197.17"/>
</a>
</g>
</g>
<!-- Node32&#45;&gt;Node18 -->
<g id="edge59_Node000032_Node000018" class="edge">
<title>Node32&#45;&gt;Node18</title>
<g id="a_edge59_Node000032_Node000018"><a xlink:title=" ">
<path fill="none" stroke="#63b8ff" d="M1202.03,-283.32C1177.72,-275.33 1143.98,-262.91 1116.38,-247.75 1059.37,-216.45 999.82,-167.82 969.94,-142.13"/>
<polygon fill="#63b8ff" stroke="#63b8ff" points="972.31,-139.56 962.46,-135.64 967.72,-144.84 972.31,-139.56"/>
</a>
</g>
</g>
<!-- Node33 -->
<g id="Node000033" class="node">
<title>Node33</title>
<g id="a_Node000033"><a xlink:href="inttypes_8h.html" target="_top" xlink:title="Adds include for missing inttype definitions.">
<polygon fill="white" stroke="#666666" points="1278.75,-247.75 1214,-247.75 1214,-227 1278.75,-227 1278.75,-247.75"/>
<text text-anchor="middle" x="1246.38" y="-234.25" font-family="Helvetica,sans-Serif" font-size="10.00">inttypes.h</text>
</a>
</g>
</g>
<!-- Node32&#45;&gt;Node33 -->
<g id="edge58_Node000032_Node000033" class="edge">
<title>Node32&#45;&gt;Node33</title>
<g id="a_edge58_Node000032_Node000033"><a xlink:title=" ">
<path fill="none" stroke="#63b8ff" d="M1236.52,-283.34C1237.99,-276.64 1239.99,-267.51 1241.8,-259.23"/>
<polygon fill="#63b8ff" stroke="#63b8ff" points="1245.2,-260.07 1243.92,-249.56 1238.36,-258.58 1245.2,-260.07"/>
</a>
</g>
</g>
<!-- Node34 -->
<g id="Node000034" class="node">
<title>Node34</title>
<g id="a_Node000034"><a xlink:href="ethertype_8h.html" target="_top" xlink:title="Ether type definitions.">
<polygon fill="white" stroke="#666666" points="1387.88,-247.75 1296.88,-247.75 1296.88,-227 1387.88,-227 1387.88,-247.75"/>
<text text-anchor="middle" x="1342.38" y="-234.25" font-family="Helvetica,sans-Serif" font-size="10.00">net/ethertype.h</text>
</a>
</g>
</g>
<!-- Node32&#45;&gt;Node34 -->
<g id="edge60_Node000032_Node000034" class="edge">
<title>Node32&#45;&gt;Node34</title>
<g id="a_edge60_Node000032_Node000034"><a xlink:title=" ">
<path fill="none" stroke="#63b8ff" d="M1253.68,-283.34C1270.19,-274.97 1294.21,-262.79 1313.08,-253.22"/>
<polygon fill="#63b8ff" stroke="#63b8ff" points="1314.55,-256.41 1321.88,-248.76 1311.38,-250.16 1314.55,-256.41"/>
</a>
</g>
</g>
<!-- Node35 -->
<g id="Node000035" class="node">
<title>Node35</title>
<g id="a_Node000035"><a xlink:href="protnum_8h.html" target="_top" xlink:title="Protocol number definitions.">
<polygon fill="white" stroke="#666666" points="1490.88,-247.75 1405.88,-247.75 1405.88,-227 1490.88,-227 1490.88,-247.75"/>
<text text-anchor="middle" x="1448.38" y="-234.25" font-family="Helvetica,sans-Serif" font-size="10.00">net/protnum.h</text>
</a>
</g>
</g>
<!-- Node32&#45;&gt;Node35 -->
<g id="edge61_Node000032_Node000035" class="edge">
<title>Node32&#45;&gt;Node35</title>
<g id="a_edge61_Node000032_Node000035"><a xlink:title=" ">
<path fill="none" stroke="#63b8ff" d="M1272.63,-283.34C1307.98,-274.29 1360.67,-260.81 1399.14,-250.97"/>
<polygon fill="#63b8ff" stroke="#63b8ff" points="1399.8,-254.42 1408.62,-248.55 1398.07,-247.63 1399.8,-254.42"/>
</a>
</g>
</g>
</g>
</svg>
