<?xml version="1.0" encoding="UTF-8" standalone="no"?>
<!DOCTYPE svg PUBLIC "-//W3C//DTD SVG 1.1//EN"
 "http://www.w3.org/Graphics/SVG/1.1/DTD/svg11.dtd">
<!-- Generated by graphviz version 12.1.2 (0)
 -->
<!-- Title: drivers/include/net/netdev/layer.h Pages: 1 -->
<svg width="503pt" height="325pt"
 viewBox="0.00 0.00 502.63 325.25" xmlns="http://www.w3.org/2000/svg" xmlns:xlink="http://www.w3.org/1999/xlink">
<g id="graph0" class="graph" transform="scale(1 1) rotate(0) translate(4 321.25)">
<title>drivers/include/net/netdev/layer.h</title>
<!-- Node1 -->
<g id="Node000001" class="node">
<title>Node1</title>
<g id="a_Node000001"><a xlink:title="Netdev layer helper functions.">
<polygon fill="#999999" stroke="#666666" points="250.75,-317.25 144,-317.25 144,-283.75 250.75,-283.75 250.75,-317.25"/>
<text text-anchor="start" x="152" y="-303.75" font-family="Helvetica,sans-Serif" font-size="10.00">drivers/include/net</text>
<text text-anchor="middle" x="197.38" y="-291" font-family="Helvetica,sans-Serif" font-size="10.00">/netdev/layer.h</text>
</a>
</g>
</g>
<!-- Node2 -->
<g id="Node000002" class="node">
<title>Node2</title>
<g id="a_Node000002"><a xlink:href="drivers_2include_2net_2netdev_8h.html" target="_top" xlink:title="Definitions low&#45;level network driver interface.">
<polygon fill="white" stroke="#666666" points="375.75,-247.75 299,-247.75 299,-227 375.75,-227 375.75,-247.75"/>
<text text-anchor="middle" x="337.38" y="-234.25" font-family="Helvetica,sans-Serif" font-size="10.00">net/netdev.h</text>
</a>
</g>
</g>
<!-- Node1&#45;&gt;Node2 -->
<g id="edge1_Node000001_Node000002" class="edge">
<title>Node1&#45;&gt;Node2</title>
<g id="a_edge1_Node000001_Node000002"><a xlink:title=" ">
<path fill="none" stroke="#63b8ff" d="M234.52,-283.28C256.32,-273.76 283.62,-261.85 304.61,-252.68"/>
<polygon fill="#63b8ff" stroke="#63b8ff" points="305.8,-255.98 313.56,-248.77 303,-249.56 305.8,-255.98"/>
</a>
</g>
</g>
<!-- Node12 -->
<g id="Node000012" class="node">
<title>Node12</title>
<g id="a_Node000012"><a xlink:href="assert_8h.html" target="_top" xlink:title="POSIX.1&#45;2008 compliant version of the assert macro.">
<polygon fill="white" stroke="#666666" points="239.88,-77.5 184.88,-77.5 184.88,-56.75 239.88,-56.75 239.88,-77.5"/>
<text text-anchor="middle" x="212.38" y="-64" font-family="Helvetica,sans-Serif" font-size="10.00">assert.h</text>
</a>
</g>
</g>
<!-- Node1&#45;&gt;Node12 -->
<g id="edge19_Node000001_Node000012" class="edge">
<title>Node1&#45;&gt;Node12</title>
<g id="a_edge19_Node000001_Node000012"><a xlink:title=" ">
<path fill="none" stroke="#63b8ff" d="M180.62,-283.49C147.88,-250.23 81.72,-171.89 118.38,-113.5 130.57,-94.07 153.68,-82.77 173.93,-76.3"/>
<polygon fill="#63b8ff" stroke="#63b8ff" points="174.7,-79.72 183.35,-73.6 172.77,-72.99 174.7,-79.72"/>
</a>
</g>
</g>
<!-- Node3 -->
<g id="Node000003" class="node">
<title>Node3</title>
<g id="a_Node000003"><a xlink:title=" ">
<polygon fill="#e0e0e0" stroke="#999999" points="328.75,-20.75 276,-20.75 276,0 328.75,0 328.75,-20.75"/>
<text text-anchor="middle" x="302.38" y="-7.25" font-family="Helvetica,sans-Serif" font-size="10.00">stdint.h</text>
</a>
</g>
</g>
<!-- Node2&#45;&gt;Node3 -->
<g id="edge2_Node000002_Node000003" class="edge">
<title>Node2&#45;&gt;Node3</title>
<g id="a_edge2_Node000002_Node000003"><a xlink:title=" ">
<path fill="none" stroke="#63b8ff" d="M375.95,-235.59C426.57,-232.61 507.36,-220.12 492.38,-170.25 474.97,-112.35 464.34,-94.83 417.38,-56.75 394.78,-38.43 363.88,-26.79 339.79,-19.89"/>
<polygon fill="#63b8ff" stroke="#63b8ff" points="340.95,-16.58 330.39,-17.36 339.13,-23.34 340.95,-16.58"/>
</a>
</g>
</g>
<!-- Node4 -->
<g id="Node000004" class="node">
<title>Node4</title>
<g id="a_Node000004"><a xlink:href="errno_8h.html" target="_top" xlink:title=" ">
<polygon fill="white" stroke="#666666" points="322.62,-191 272.12,-191 272.12,-170.25 322.62,-170.25 322.62,-191"/>
<text text-anchor="middle" x="297.38" y="-177.5" font-family="Helvetica,sans-Serif" font-size="10.00">errno.h</text>
</a>
</g>
</g>
<!-- Node2&#45;&gt;Node4 -->
<g id="edge3_Node000002_Node000004" class="edge">
<title>Node2&#45;&gt;Node4</title>
<g id="a_edge3_Node000002_Node000004"><a xlink:title=" ">
<path fill="none" stroke="#63b8ff" d="M330.22,-226.59C324.93,-219.35 317.56,-209.26 311.15,-200.47"/>
<polygon fill="#63b8ff" stroke="#63b8ff" points="314.08,-198.56 305.36,-192.55 308.43,-202.69 314.08,-198.56"/>
</a>
</g>
</g>
<!-- Node5 -->
<g id="Node000005" class="node">
<title>Node5</title>
<g id="a_Node000005"><a xlink:href="iolist_8h.html" target="_top" xlink:title="iolist scatter / gather IO">
<polygon fill="white" stroke="#666666" points="482.88,-191 433.88,-191 433.88,-170.25 482.88,-170.25 482.88,-191"/>
<text text-anchor="middle" x="458.38" y="-177.5" font-family="Helvetica,sans-Serif" font-size="10.00">iolist.h</text>
</a>
</g>
</g>
<!-- Node2&#45;&gt;Node5 -->
<g id="edge4_Node000002_Node000005" class="edge">
<title>Node2&#45;&gt;Node5</title>
<g id="a_edge4_Node000002_Node000005"><a xlink:title=" ">
<path fill="none" stroke="#63b8ff" d="M359.01,-226.59C377.85,-218.06 405.41,-205.59 426.73,-195.94"/>
<polygon fill="#63b8ff" stroke="#63b8ff" points="427.88,-199.26 435.55,-191.95 425,-192.89 427.88,-199.26"/>
</a>
</g>
</g>
<!-- Node6 -->
<g id="Node000006" class="node">
<title>Node6</title>
<g id="a_Node000006"><a xlink:href="netopt_8h.html" target="_top" xlink:title="Definition of global configuration options.">
<polygon fill="white" stroke="#666666" points="416,-191 340.75,-191 340.75,-170.25 416,-170.25 416,-191"/>
<text text-anchor="middle" x="378.38" y="-177.5" font-family="Helvetica,sans-Serif" font-size="10.00">net/netopt.h</text>
</a>
</g>
</g>
<!-- Node2&#45;&gt;Node6 -->
<g id="edge5_Node000002_Node000006" class="edge">
<title>Node2&#45;&gt;Node6</title>
<g id="a_edge5_Node000002_Node000006"><a xlink:title=" ">
<path fill="none" stroke="#63b8ff" d="M344.7,-226.59C350.13,-219.35 357.68,-209.26 364.26,-200.47"/>
<polygon fill="#63b8ff" stroke="#63b8ff" points="367.01,-202.64 370.2,-192.54 361.41,-198.45 367.01,-202.64"/>
</a>
</g>
</g>
<!-- Node8 -->
<g id="Node000008" class="node">
<title>Node8</title>
<g id="a_Node000008"><a xlink:href="kernel__defines_8h.html" target="_top" xlink:title="Common macros and compiler attributes/pragmas configuration.">
<polygon fill="white" stroke="#666666" points="254.5,-191 158.25,-191 158.25,-170.25 254.5,-170.25 254.5,-191"/>
<text text-anchor="middle" x="206.38" y="-177.5" font-family="Helvetica,sans-Serif" font-size="10.00">kernel_defines.h</text>
</a>
</g>
</g>
<!-- Node2&#45;&gt;Node8 -->
<g id="edge8_Node000002_Node000008" class="edge">
<title>Node2&#45;&gt;Node8</title>
<g id="a_edge8_Node000002_Node000008"><a xlink:title=" ">
<path fill="none" stroke="#63b8ff" d="M313.95,-226.59C293.37,-217.98 263.17,-205.36 240,-195.68"/>
<polygon fill="#63b8ff" stroke="#63b8ff" points="241.57,-192.54 230.99,-191.91 238.87,-199 241.57,-192.54"/>
</a>
</g>
</g>
<!-- Node6&#45;&gt;Node3 -->
<g id="edge6_Node000006_Node000003" class="edge">
<title>Node6&#45;&gt;Node3</title>
<g id="a_edge6_Node000006_Node000003"><a xlink:title=" ">
<path fill="none" stroke="#63b8ff" d="M398.77,-169.87C412.16,-162.23 428.59,-150.22 436.38,-134.25 440.42,-125.96 439.59,-122.14 436.38,-113.5 420.27,-70.21 373.05,-41.47 339.23,-25.8"/>
<polygon fill="#63b8ff" stroke="#63b8ff" points="340.72,-22.63 330.16,-21.78 337.88,-29.03 340.72,-22.63"/>
</a>
</g>
</g>
<!-- Node7 -->
<g id="Node000007" class="node">
<title>Node7</title>
<g id="a_Node000007"><a xlink:title=" ">
<polygon fill="#e0e0e0" stroke="#999999" points="426.88,-134.25 365.88,-134.25 365.88,-113.5 426.88,-113.5 426.88,-134.25"/>
<text text-anchor="middle" x="396.38" y="-120.75" font-family="Helvetica,sans-Serif" font-size="10.00">stdbool.h</text>
</a>
</g>
</g>
<!-- Node6&#45;&gt;Node7 -->
<g id="edge7_Node000006_Node000007" class="edge">
<title>Node6&#45;&gt;Node7</title>
<g id="a_edge7_Node000006_Node000007"><a xlink:title=" ">
<path fill="none" stroke="#63b8ff" d="M381.59,-169.84C383.82,-163.06 386.87,-153.8 389.61,-145.44"/>
<polygon fill="#63b8ff" stroke="#63b8ff" points="392.91,-146.61 392.71,-136.02 386.26,-144.42 392.91,-146.61"/>
</a>
</g>
</g>
<!-- Node9 -->
<g id="Node000009" class="node">
<title>Node9</title>
<g id="a_Node000009"><a xlink:href="modules_8h.html" target="_top" xlink:title="Common macros and compiler attributes/pragmas configuration.">
<polygon fill="white" stroke="#666666" points="193.88,-134.25 126.88,-134.25 126.88,-113.5 193.88,-113.5 193.88,-134.25"/>
<text text-anchor="middle" x="160.38" y="-120.75" font-family="Helvetica,sans-Serif" font-size="10.00">modules.h</text>
</a>
</g>
</g>
<!-- Node8&#45;&gt;Node9 -->
<g id="edge9_Node000008_Node000009" class="edge">
<title>Node8&#45;&gt;Node9</title>
<g id="a_edge9_Node000008_Node000009"><a xlink:title=" ">
<path fill="none" stroke="#63b8ff" d="M198.15,-169.84C191.94,-162.44 183.23,-152.07 175.74,-143.16"/>
<polygon fill="#63b8ff" stroke="#63b8ff" points="178.61,-141.14 169.5,-135.74 173.25,-145.65 178.61,-141.14"/>
</a>
</g>
</g>
<!-- Node10 -->
<g id="Node000010" class="node">
<title>Node10</title>
<g id="a_Node000010"><a xlink:href="riot__version_8h.html" target="_top" xlink:title="Common macros and compiler attributes/pragmas configuration.">
<polygon fill="white" stroke="#666666" points="378.75,-77.5 296,-77.5 296,-56.75 378.75,-56.75 378.75,-77.5"/>
<text text-anchor="middle" x="337.38" y="-64" font-family="Helvetica,sans-Serif" font-size="10.00">riot_version.h</text>
</a>
</g>
</g>
<!-- Node8&#45;&gt;Node10 -->
<g id="edge10_Node000008_Node000010" class="edge">
<title>Node8&#45;&gt;Node10</title>
<g id="a_edge10_Node000008_Node000010"><a xlink:title=" ">
<path fill="none" stroke="#63b8ff" d="M254.77,-170.24C276.94,-163.63 301.88,-152.57 318.38,-134.25 329.5,-121.89 334.14,-103.42 336.07,-89.14"/>
<polygon fill="#63b8ff" stroke="#63b8ff" points="339.53,-89.72 337,-79.43 332.56,-89.05 339.53,-89.72"/>
</a>
</g>
</g>
<!-- Node11 -->
<g id="Node000011" class="node">
<title>Node11</title>
<g id="a_Node000011"><a xlink:href="compiler__hints_8h.html" target="_top" xlink:title="Common macros and compiler attributes/pragmas configuration.">
<polygon fill="white" stroke="#666666" points="308.88,-134.25 211.88,-134.25 211.88,-113.5 308.88,-113.5 308.88,-134.25"/>
<text text-anchor="middle" x="260.38" y="-120.75" font-family="Helvetica,sans-Serif" font-size="10.00">compiler_hints.h</text>
</a>
</g>
</g>
<!-- Node8&#45;&gt;Node11 -->
<g id="edge12_Node000008_Node000011" class="edge">
<title>Node8&#45;&gt;Node11</title>
<g id="a_edge12_Node000008_Node000011"><a xlink:title=" ">
<path fill="none" stroke="#63b8ff" d="M216.03,-169.84C223.48,-162.28 233.98,-151.64 242.9,-142.6"/>
<polygon fill="#63b8ff" stroke="#63b8ff" points="245.21,-145.23 249.74,-135.66 240.23,-140.32 245.21,-145.23"/>
</a>
</g>
</g>
<!-- Node13 -->
<g id="Node000013" class="node">
<title>Node13</title>
<g id="a_Node000013"><a xlink:href="container_8h.html" target="_top" xlink:title="Common macros and compiler attributes/pragmas configuration.">
<polygon fill="white" stroke="#666666" points="70.75,-134.25 0,-134.25 0,-113.5 70.75,-113.5 70.75,-134.25"/>
<text text-anchor="middle" x="35.38" y="-120.75" font-family="Helvetica,sans-Serif" font-size="10.00">container.h</text>
</a>
</g>
</g>
<!-- Node8&#45;&gt;Node13 -->
<g id="edge16_Node000008_Node000013" class="edge">
<title>Node8&#45;&gt;Node13</title>
<g id="a_edge16_Node000008_Node000013"><a xlink:title=" ">
<path fill="none" stroke="#63b8ff" d="M175.8,-169.84C148.17,-160.99 107.26,-147.89 76.71,-138.11"/>
<polygon fill="#63b8ff" stroke="#63b8ff" points="78,-134.85 67.41,-135.13 75.87,-141.51 78,-134.85"/>
</a>
</g>
</g>
<!-- Node10&#45;&gt;Node3 -->
<g id="edge11_Node000010_Node000003" class="edge">
<title>Node10&#45;&gt;Node3</title>
<g id="a_edge11_Node000010_Node000003"><a xlink:title=" ">
<path fill="none" stroke="#63b8ff" d="M331.12,-56.34C326.54,-49.17 320.18,-39.23 314.61,-30.51"/>
<polygon fill="#63b8ff" stroke="#63b8ff" points="317.73,-28.89 309.39,-22.35 311.83,-32.66 317.73,-28.89"/>
</a>
</g>
</g>
<!-- Node11&#45;&gt;Node3 -->
<g id="edge15_Node000011_Node000003" class="edge">
<title>Node11&#45;&gt;Node3</title>
<g id="a_edge15_Node000011_Node000003"><a xlink:title=" ">
<path fill="none" stroke="#63b8ff" d="M263.96,-113.37C270.74,-95.36 285.61,-55.89 294.73,-31.68"/>
<polygon fill="#63b8ff" stroke="#63b8ff" points="297.9,-33.18 298.15,-22.59 291.35,-30.72 297.9,-33.18"/>
</a>
</g>
</g>
<!-- Node11&#45;&gt;Node12 -->
<g id="edge13_Node000011_Node000012" class="edge">
<title>Node11&#45;&gt;Node12</title>
<g id="a_edge13_Node000011_Node000012"><a xlink:title=" ">
<path fill="none" stroke="#63b8ff" d="M251.79,-113.09C245.31,-105.69 236.22,-95.32 228.4,-86.41"/>
<polygon fill="#63b8ff" stroke="#63b8ff" points="231.1,-84.18 221.88,-78.97 225.84,-88.79 231.1,-84.18"/>
</a>
</g>
</g>
<!-- Node12&#45;&gt;Node3 -->
<g id="edge14_Node000012_Node000003" class="edge">
<title>Node12&#45;&gt;Node3</title>
<g id="a_edge14_Node000012_Node000003"><a xlink:title=" ">
<path fill="none" stroke="#63b8ff" d="M228.47,-56.34C241.9,-48.16 261.31,-36.36 276.86,-26.9"/>
<polygon fill="#63b8ff" stroke="#63b8ff" points="278.41,-30.05 285.13,-21.87 274.77,-24.07 278.41,-30.05"/>
</a>
</g>
</g>
<!-- Node13&#45;&gt;Node3 -->
<g id="edge18_Node000013_Node000003" class="edge">
<title>Node13&#45;&gt;Node3</title>
<g id="a_edge18_Node000013_Node000003"><a xlink:title=" ">
<path fill="none" stroke="#63b8ff" d="M35.34,-113.14C35.86,-98.58 39.1,-71.3 55.38,-56.75 85.76,-29.59 203.49,-17.9 264.79,-13.57"/>
<polygon fill="#63b8ff" stroke="#63b8ff" points="264.65,-17.09 274.39,-12.92 264.18,-10.1 264.65,-17.09"/>
</a>
</g>
</g>
<!-- Node14 -->
<g id="Node000014" class="node">
<title>Node14</title>
<g id="a_Node000014"><a xlink:title=" ">
<polygon fill="#e0e0e0" stroke="#999999" points="118.88,-77.5 63.88,-77.5 63.88,-56.75 118.88,-56.75 118.88,-77.5"/>
<text text-anchor="middle" x="91.38" y="-64" font-family="Helvetica,sans-Serif" font-size="10.00">stddef.h</text>
</a>
</g>
</g>
<!-- Node13&#45;&gt;Node14 -->
<g id="edge17_Node000013_Node000014" class="edge">
<title>Node13&#45;&gt;Node14</title>
<g id="a_edge17_Node000013_Node000014"><a xlink:title=" ">
<path fill="none" stroke="#63b8ff" d="M45.39,-113.09C53.11,-105.53 64,-94.89 73.25,-85.85"/>
<polygon fill="#63b8ff" stroke="#63b8ff" points="75.66,-88.38 80.37,-78.89 70.77,-83.37 75.66,-88.38"/>
</a>
</g>
</g>
</g>
</svg>
