<?xml version="1.0" encoding="UTF-8" standalone="no"?>
<!DOCTYPE svg PUBLIC "-//W3C//DTD SVG 1.1//EN"
 "http://www.w3.org/Graphics/SVG/1.1/DTD/svg11.dtd">
<!-- Generated by graphviz version 12.1.2 (0)
 -->
<!-- Title: sys/include/net/cord/lc.h Pages: 1 -->
<svg width="1305pt" height="483pt"
 viewBox="0.00 0.00 1305.38 482.75" xmlns="http://www.w3.org/2000/svg" xmlns:xlink="http://www.w3.org/1999/xlink">
<g id="graph0" class="graph" transform="scale(1 1) rotate(0) translate(4 478.75)">
<title>sys/include/net/cord/lc.h</title>
<!-- Node1 -->
<g id="Node000001" class="node">
<title>Node1</title>
<g id="a_Node000001"><a xlink:title="CoRE Resource Directory lookup interface.">
<polygon fill="#999999" stroke="#666666" points="335.88,-474.75 202.12,-474.75 202.12,-454 335.88,-454 335.88,-474.75"/>
<text text-anchor="middle" x="269" y="-461.25" font-family="Helvetica,sans-Serif" font-size="10.00">sys/include/net/cord/lc.h</text>
</a>
</g>
</g>
<!-- Node2 -->
<g id="Node000002" class="node">
<title>Node2</title>
<g id="a_Node000002"><a xlink:href="sock_2udp_8h.html" target="_top" xlink:title="UDP sock definitions.">
<polygon fill="white" stroke="#666666" points="312.62,-304.5 225.38,-304.5 225.38,-283.75 312.62,-283.75 312.62,-304.5"/>
<text text-anchor="middle" x="269" y="-291" font-family="Helvetica,sans-Serif" font-size="10.00">net/sock/udp.h</text>
</a>
</g>
</g>
<!-- Node1&#45;&gt;Node2 -->
<g id="edge1_Node000001_Node000002" class="edge">
<title>Node1&#45;&gt;Node2</title>
<g id="a_edge1_Node000001_Node000002"><a xlink:title=" ">
<path fill="none" stroke="#63b8ff" d="M243.14,-453.56C196.34,-434.31 105.5,-389.21 140,-340.5 156.75,-316.85 186.85,-305.44 213.77,-299.97"/>
<polygon fill="#63b8ff" stroke="#63b8ff" points="214.33,-303.43 223.57,-298.24 213.11,-296.53 214.33,-303.43"/>
</a>
</g>
</g>
<!-- Node20 -->
<g id="Node000020" class="node">
<title>Node20</title>
<g id="a_Node000020"><a xlink:href="nanocoap_8h.html" target="_top" xlink:title="nanocoap API">
<polygon fill="white" stroke="#666666" points="314.5,-418 223.5,-418 223.5,-397.25 314.5,-397.25 314.5,-418"/>
<text text-anchor="middle" x="269" y="-404.5" font-family="Helvetica,sans-Serif" font-size="10.00">net/nanocoap.h</text>
</a>
</g>
</g>
<!-- Node1&#45;&gt;Node20 -->
<g id="edge30_Node000001_Node000020" class="edge">
<title>Node1&#45;&gt;Node20</title>
<g id="a_edge30_Node000001_Node000020"><a xlink:title=" ">
<path fill="none" stroke="#63b8ff" d="M269,-453.59C269,-446.97 269,-437.97 269,-429.77"/>
<polygon fill="#63b8ff" stroke="#63b8ff" points="272.5,-429.84 269,-419.84 265.5,-429.84 272.5,-429.84"/>
</a>
</g>
</g>
<!-- Node33 -->
<g id="Node000033" class="node">
<title>Node33</title>
<g id="a_Node000033"><a xlink:href="clif_8h.html" target="_top" xlink:title="CoRE Link Format encoding and decoding library public definitions.">
<polygon fill="white" stroke="#666666" points="1206.62,-418 1167.38,-418 1167.38,-397.25 1206.62,-397.25 1206.62,-418"/>
<text text-anchor="middle" x="1187" y="-404.5" font-family="Helvetica,sans-Serif" font-size="10.00">clif.h</text>
</a>
</g>
</g>
<!-- Node1&#45;&gt;Node33 -->
<g id="edge63_Node000001_Node000033" class="edge">
<title>Node1&#45;&gt;Node33</title>
<g id="a_edge63_Node000001_Node000033"><a xlink:title=" ">
<path fill="none" stroke="#63b8ff" d="M336.13,-459.37C519.7,-448.42 1025.05,-418.28 1155.79,-410.49"/>
<polygon fill="#63b8ff" stroke="#63b8ff" points="1155.63,-414 1165.41,-409.91 1155.22,-407.01 1155.63,-414"/>
</a>
</g>
</g>
<!-- Node3 -->
<g id="Node000003" class="node">
<title>Node3</title>
<g id="a_Node000003"><a xlink:href="assert_8h.html" target="_top" xlink:title="POSIX.1&#45;2008 compliant version of the assert macro.">
<polygon fill="white" stroke="#666666" points="1120.5,-247.75 1065.5,-247.75 1065.5,-227 1120.5,-227 1120.5,-247.75"/>
<text text-anchor="middle" x="1093" y="-234.25" font-family="Helvetica,sans-Serif" font-size="10.00">assert.h</text>
</a>
</g>
</g>
<!-- Node2&#45;&gt;Node3 -->
<g id="edge2_Node000002_Node000003" class="edge">
<title>Node2&#45;&gt;Node3</title>
<g id="a_edge2_Node000002_Node000003"><a xlink:title=" ">
<path fill="none" stroke="#63b8ff" d="M312.97,-291.44C428.62,-286.81 750.78,-272.52 1018,-247.75 1029.76,-246.66 1042.52,-245.18 1054.13,-243.71"/>
<polygon fill="#63b8ff" stroke="#63b8ff" points="1054.3,-247.22 1063.76,-242.47 1053.4,-240.28 1054.3,-247.22"/>
</a>
</g>
</g>
<!-- Node4 -->
<g id="Node000004" class="node">
<title>Node4</title>
<g id="a_Node000004"><a xlink:title=" ">
<polygon fill="#e0e0e0" stroke="#999999" points="529.38,-20.75 476.62,-20.75 476.62,0 529.38,0 529.38,-20.75"/>
<text text-anchor="middle" x="503" y="-7.25" font-family="Helvetica,sans-Serif" font-size="10.00">stdint.h</text>
</a>
</g>
</g>
<!-- Node2&#45;&gt;Node4 -->
<g id="edge5_Node000002_Node000004" class="edge">
<title>Node2&#45;&gt;Node4</title>
<g id="a_edge5_Node000002_Node000004"><a xlink:title=" ">
<path fill="none" stroke="#63b8ff" d="M225.01,-291.12C157.98,-285.43 38,-263.79 38,-181.62 38,-181.62 38,-181.62 38,-122.88 38,-35.27 354.07,-16.33 465.04,-12.38"/>
<polygon fill="#63b8ff" stroke="#63b8ff" points="464.94,-15.88 474.82,-12.05 464.71,-8.89 464.94,-15.88"/>
</a>
</g>
</g>
<!-- Node5 -->
<g id="Node000005" class="node">
<title>Node5</title>
<g id="a_Node000005"><a xlink:href="errno_8h.html" target="_top" xlink:title=" ">
<polygon fill="white" stroke="#666666" points="366.25,-247.75 315.75,-247.75 315.75,-227 366.25,-227 366.25,-247.75"/>
<text text-anchor="middle" x="341" y="-234.25" font-family="Helvetica,sans-Serif" font-size="10.00">errno.h</text>
</a>
</g>
</g>
<!-- Node2&#45;&gt;Node5 -->
<g id="edge4_Node000002_Node000005" class="edge">
<title>Node2&#45;&gt;Node5</title>
<g id="a_edge4_Node000002_Node000005"><a xlink:title=" ">
<path fill="none" stroke="#63b8ff" d="M281.87,-283.34C292.21,-275.47 306.97,-264.25 319.15,-254.99"/>
<polygon fill="#63b8ff" stroke="#63b8ff" points="321.19,-257.83 327.03,-248.99 316.96,-252.26 321.19,-257.83"/>
</a>
</g>
</g>
<!-- Node6 -->
<g id="Node000006" class="node">
<title>Node6</title>
<g id="a_Node000006"><a xlink:title=" ">
<polygon fill="#e0e0e0" stroke="#999999" points="674,-134.25 622,-134.25 622,-113.5 674,-113.5 674,-134.25"/>
<text text-anchor="middle" x="648" y="-120.75" font-family="Helvetica,sans-Serif" font-size="10.00">stdlib.h</text>
</a>
</g>
</g>
<!-- Node2&#45;&gt;Node6 -->
<g id="edge6_Node000002_Node000006" class="edge">
<title>Node2&#45;&gt;Node6</title>
<g id="a_edge6_Node000002_Node000006"><a xlink:title=" ">
<path fill="none" stroke="#63b8ff" d="M312.95,-290.17C369.23,-285.36 462.02,-273.64 483,-247.75 504.7,-220.97 459.04,-197.62 480,-170.25 495.77,-149.66 565.93,-136.28 610.44,-129.7"/>
<polygon fill="#63b8ff" stroke="#63b8ff" points="610.8,-133.19 620.21,-128.31 609.82,-126.26 610.8,-133.19"/>
</a>
</g>
</g>
<!-- Node7 -->
<g id="Node000007" class="node">
<title>Node7</title>
<g id="a_Node000007"><a xlink:title=" ">
<polygon fill="#e0e0e0" stroke="#999999" points="763.75,-134.25 692.25,-134.25 692.25,-113.5 763.75,-113.5 763.75,-134.25"/>
<text text-anchor="middle" x="728" y="-120.75" font-family="Helvetica,sans-Serif" font-size="10.00">sys/types.h</text>
</a>
</g>
</g>
<!-- Node2&#45;&gt;Node7 -->
<g id="edge7_Node000002_Node000007" class="edge">
<title>Node2&#45;&gt;Node7</title>
<g id="a_edge7_Node000002_Node000007"><a xlink:title=" ">
<path fill="none" stroke="#63b8ff" d="M313.1,-291.83C418.74,-288.29 683.66,-276.71 767,-247.75 810.61,-232.6 832.01,-231.59 854,-191 858.39,-182.89 859.3,-177.8 854,-170.25 844.49,-156.72 806.66,-144.22 774.9,-135.78"/>
<polygon fill="#63b8ff" stroke="#63b8ff" points="776.01,-132.45 765.45,-133.35 774.26,-139.23 776.01,-132.45"/>
</a>
</g>
</g>
<!-- Node8 -->
<g id="Node000008" class="node">
<title>Node8</title>
<g id="a_Node000008"><a xlink:href="af_8h.html" target="_top" xlink:title="Global UNIX address family definitions.">
<polygon fill="white" stroke="#666666" points="541.38,-191 488.62,-191 488.62,-170.25 541.38,-170.25 541.38,-191"/>
<text text-anchor="middle" x="515" y="-177.5" font-family="Helvetica,sans-Serif" font-size="10.00">net/af.h</text>
</a>
</g>
</g>
<!-- Node2&#45;&gt;Node8 -->
<g id="edge8_Node000002_Node000008" class="edge">
<title>Node2&#45;&gt;Node8</title>
<g id="a_edge8_Node000002_Node000008"><a xlink:title=" ">
<path fill="none" stroke="#63b8ff" d="M312.88,-291.57C376.79,-288.28 490.64,-278.19 516,-247.75 526.33,-235.34 525.01,-216.62 521.72,-202.25"/>
<polygon fill="#63b8ff" stroke="#63b8ff" points="525.17,-201.6 519.12,-192.91 518.43,-203.48 525.17,-201.6"/>
</a>
</g>
</g>
<!-- Node9 -->
<g id="Node000009" class="node">
<title>Node9</title>
<g id="a_Node000009"><a xlink:href="sock_8h.html" target="_top" xlink:title="Common sock API definitions.">
<polygon fill="white" stroke="#666666" points="170.12,-191 103.88,-191 103.88,-170.25 170.12,-170.25 170.12,-191"/>
<text text-anchor="middle" x="137" y="-177.5" font-family="Helvetica,sans-Serif" font-size="10.00">net/sock.h</text>
</a>
</g>
</g>
<!-- Node2&#45;&gt;Node9 -->
<g id="edge9_Node000002_Node000009" class="edge">
<title>Node2&#45;&gt;Node9</title>
<g id="a_edge9_Node000002_Node000009"><a xlink:title=" ">
<path fill="none" stroke="#63b8ff" d="M252.37,-283.41C238.16,-274.8 217.46,-261.48 201,-247.75 183.08,-232.81 164.78,-213.4 152.37,-199.48"/>
<polygon fill="#63b8ff" stroke="#63b8ff" points="155.35,-197.57 146.12,-192.37 150.09,-202.19 155.35,-197.57"/>
</a>
</g>
</g>
<!-- Node12 -->
<g id="Node000012" class="node">
<title>Node12</title>
<g id="a_Node000012"><a xlink:href="ipv4_2addr_8h.html" target="_top" xlink:title="IPv4 address type and helper functions definitions.">
<polygon fill="white" stroke="#666666" points="355.75,-191 266.25,-191 266.25,-170.25 355.75,-170.25 355.75,-191"/>
<text text-anchor="middle" x="311" y="-177.5" font-family="Helvetica,sans-Serif" font-size="10.00">net/ipv4/addr.h</text>
</a>
</g>
</g>
<!-- Node2&#45;&gt;Node12 -->
<g id="edge13_Node000002_Node000012" class="edge">
<title>Node2&#45;&gt;Node12</title>
<g id="a_edge13_Node000002_Node000012"><a xlink:title=" ">
<path fill="none" stroke="#63b8ff" d="M248.77,-283.45C226.18,-271.27 194.56,-249.23 209,-227 219.54,-210.77 237.38,-200.3 255.21,-193.56"/>
<polygon fill="#63b8ff" stroke="#63b8ff" points="256.17,-196.93 264.52,-190.41 253.92,-190.3 256.17,-196.93"/>
</a>
</g>
</g>
<!-- Node18 -->
<g id="Node000018" class="node">
<title>Node18</title>
<g id="a_Node000018"><a xlink:href="ipv6_2addr_8h.html" target="_top" xlink:title="Definitions for IPv6 addresses.">
<polygon fill="white" stroke="#666666" points="473.75,-247.75 384.25,-247.75 384.25,-227 473.75,-227 473.75,-247.75"/>
<text text-anchor="middle" x="429" y="-234.25" font-family="Helvetica,sans-Serif" font-size="10.00">net/ipv6/addr.h</text>
</a>
</g>
</g>
<!-- Node2&#45;&gt;Node18 -->
<g id="edge24_Node000002_Node000018" class="edge">
<title>Node2&#45;&gt;Node18</title>
<g id="a_edge24_Node000002_Node000018"><a xlink:title=" ">
<path fill="none" stroke="#63b8ff" d="M297.6,-283.34C323.24,-274.57 361.07,-261.62 389.57,-251.87"/>
<polygon fill="#63b8ff" stroke="#63b8ff" points="390.61,-255.21 398.94,-248.66 388.35,-248.59 390.61,-255.21"/>
</a>
</g>
</g>
<!-- Node19 -->
<g id="Node000019" class="node">
<title>Node19</title>
<g id="a_Node000019"><a xlink:title=" ">
<polygon fill="#e0e0e0" stroke="#999999" points="297.88,-247.75 218.12,-247.75 218.12,-227 297.88,-227 297.88,-247.75"/>
<text text-anchor="middle" x="258" y="-234.25" font-family="Helvetica,sans-Serif" font-size="10.00">sock_types.h</text>
</a>
</g>
</g>
<!-- Node2&#45;&gt;Node19 -->
<g id="edge29_Node000002_Node000019" class="edge">
<title>Node2&#45;&gt;Node19</title>
<g id="a_edge29_Node000002_Node000019"><a xlink:title=" ">
<path fill="none" stroke="#63b8ff" d="M267.03,-283.34C265.69,-276.64 263.85,-267.51 262.19,-259.23"/>
<polygon fill="#63b8ff" stroke="#63b8ff" points="265.65,-258.68 260.25,-249.56 258.79,-260.06 265.65,-258.68"/>
</a>
</g>
</g>
<!-- Node3&#45;&gt;Node4 -->
<g id="edge3_Node000003_Node000004" class="edge">
<title>Node3&#45;&gt;Node4</title>
<g id="a_edge3_Node000003_Node000004"><a xlink:title=" ">
<path fill="none" stroke="#63b8ff" d="M1096.61,-226.67C1104.38,-203.87 1119.88,-146.36 1092,-113.5 1020.43,-29.15 659.62,-14.46 540.92,-11.91"/>
<polygon fill="#63b8ff" stroke="#63b8ff" points="541.15,-8.42 531.08,-11.72 541.01,-15.41 541.15,-8.42"/>
</a>
</g>
</g>
<!-- Node9&#45;&gt;Node4 -->
<g id="edge10_Node000009_Node000004" class="edge">
<title>Node9&#45;&gt;Node4</title>
<g id="a_edge10_Node000009_Node000004"><a xlink:title=" ">
<path fill="none" stroke="#63b8ff" d="M124.52,-169.87C108.86,-156.45 85.7,-131.88 100,-113.5 145.12,-55.52 373.33,-25.17 464.9,-15.17"/>
<polygon fill="#63b8ff" stroke="#63b8ff" points="465.05,-18.68 474.62,-14.14 464.31,-11.72 465.05,-18.68"/>
</a>
</g>
</g>
<!-- Node10 -->
<g id="Node000010" class="node">
<title>Node10</title>
<g id="a_Node000010"><a xlink:title=" ">
<polygon fill="#e0e0e0" stroke="#999999" points="309.5,-134.25 254.5,-134.25 254.5,-113.5 309.5,-113.5 309.5,-134.25"/>
<text text-anchor="middle" x="282" y="-120.75" font-family="Helvetica,sans-Serif" font-size="10.00">stddef.h</text>
</a>
</g>
</g>
<!-- Node9&#45;&gt;Node10 -->
<g id="edge11_Node000009_Node000010" class="edge">
<title>Node9&#45;&gt;Node10</title>
<g id="a_edge11_Node000009_Node000010"><a xlink:title=" ">
<path fill="none" stroke="#63b8ff" d="M162.92,-169.84C186.02,-161.12 220.04,-148.27 245.82,-138.54"/>
<polygon fill="#63b8ff" stroke="#63b8ff" points="246.77,-141.92 254.89,-135.11 244.29,-135.37 246.77,-141.92"/>
</a>
</g>
</g>
<!-- Node11 -->
<g id="Node000011" class="node">
<title>Node11</title>
<g id="a_Node000011"><a xlink:href="iolist_8h.html" target="_top" xlink:title="iolist scatter / gather IO">
<polygon fill="white" stroke="#666666" points="157.5,-134.25 108.5,-134.25 108.5,-113.5 157.5,-113.5 157.5,-134.25"/>
<text text-anchor="middle" x="133" y="-120.75" font-family="Helvetica,sans-Serif" font-size="10.00">iolist.h</text>
</a>
</g>
</g>
<!-- Node9&#45;&gt;Node11 -->
<g id="edge12_Node000009_Node000011" class="edge">
<title>Node9&#45;&gt;Node11</title>
<g id="a_edge12_Node000009_Node000011"><a xlink:title=" ">
<path fill="none" stroke="#63b8ff" d="M136.28,-169.84C135.8,-163.22 135.14,-154.22 134.54,-146.02"/>
<polygon fill="#63b8ff" stroke="#63b8ff" points="138.04,-145.81 133.82,-136.09 131.06,-146.32 138.04,-145.81"/>
</a>
</g>
</g>
<!-- Node12&#45;&gt;Node4 -->
<g id="edge15_Node000012_Node000004" class="edge">
<title>Node12&#45;&gt;Node4</title>
<g id="a_edge15_Node000012_Node000004"><a xlink:title=" ">
<path fill="none" stroke="#63b8ff" d="M313.43,-170C320.18,-143.97 339.78,-73.02 357,-56.75 386.39,-28.99 432.48,-18.2 465,-14.01"/>
<polygon fill="#63b8ff" stroke="#63b8ff" points="465.26,-17.51 474.81,-12.92 464.48,-10.55 465.26,-17.51"/>
</a>
</g>
</g>
<!-- Node12&#45;&gt;Node10 -->
<g id="edge16_Node000012_Node000010" class="edge">
<title>Node12&#45;&gt;Node10</title>
<g id="a_edge16_Node000012_Node000010"><a xlink:title=" ">
<path fill="none" stroke="#63b8ff" d="M305.82,-169.84C302.1,-162.83 296.98,-153.16 292.44,-144.58"/>
<polygon fill="#63b8ff" stroke="#63b8ff" points="295.62,-143.11 287.85,-135.92 289.44,-146.39 295.62,-143.11"/>
</a>
</g>
</g>
<!-- Node13 -->
<g id="Node000013" class="node">
<title>Node13</title>
<g id="a_Node000013"><a xlink:title=" ">
<polygon fill="#e0e0e0" stroke="#999999" points="236.5,-134.25 175.5,-134.25 175.5,-113.5 236.5,-113.5 236.5,-134.25"/>
<text text-anchor="middle" x="206" y="-120.75" font-family="Helvetica,sans-Serif" font-size="10.00">stdbool.h</text>
</a>
</g>
</g>
<!-- Node12&#45;&gt;Node13 -->
<g id="edge14_Node000012_Node000013" class="edge">
<title>Node12&#45;&gt;Node13</title>
<g id="a_edge14_Node000012_Node000013"><a xlink:title=" ">
<path fill="none" stroke="#63b8ff" d="M292.23,-169.84C276.25,-161.51 253.05,-149.41 234.74,-139.86"/>
<polygon fill="#63b8ff" stroke="#63b8ff" points="236.44,-136.8 225.95,-135.28 233.2,-143.01 236.44,-136.8"/>
</a>
</g>
</g>
<!-- Node14 -->
<g id="Node000014" class="node">
<title>Node14</title>
<g id="a_Node000014"><a xlink:href="byteorder_8h.html" target="_top" xlink:title="Functions to work with different byte orders.">
<polygon fill="white" stroke="#666666" points="485.12,-134.25 412.88,-134.25 412.88,-113.5 485.12,-113.5 485.12,-134.25"/>
<text text-anchor="middle" x="449" y="-120.75" font-family="Helvetica,sans-Serif" font-size="10.00">byteorder.h</text>
</a>
</g>
</g>
<!-- Node12&#45;&gt;Node14 -->
<g id="edge17_Node000012_Node000014" class="edge">
<title>Node12&#45;&gt;Node14</title>
<g id="a_edge17_Node000012_Node000014"><a xlink:title=" ">
<path fill="none" stroke="#63b8ff" d="M335.67,-169.84C357.45,-161.19 389.46,-148.5 413.91,-138.8"/>
<polygon fill="#63b8ff" stroke="#63b8ff" points="415.13,-142.08 423.14,-135.14 412.55,-135.57 415.13,-142.08"/>
</a>
</g>
</g>
<!-- Node14&#45;&gt;Node4 -->
<g id="edge19_Node000014_Node000004" class="edge">
<title>Node14&#45;&gt;Node4</title>
<g id="a_edge19_Node000014_Node000004"><a xlink:title=" ">
<path fill="none" stroke="#63b8ff" d="M449.91,-113.43C451.49,-100.16 455.53,-75.52 465,-56.75 469.99,-46.86 477.52,-37.25 484.56,-29.44"/>
<polygon fill="#63b8ff" stroke="#63b8ff" points="487.01,-31.94 491.38,-22.29 481.94,-27.11 487.01,-31.94"/>
</a>
</g>
</g>
<!-- Node15 -->
<g id="Node000015" class="node">
<title>Node15</title>
<g id="a_Node000015"><a xlink:title=" ">
<polygon fill="#e0e0e0" stroke="#999999" points="418.38,-77.5 365.62,-77.5 365.62,-56.75 418.38,-56.75 418.38,-77.5"/>
<text text-anchor="middle" x="392" y="-64" font-family="Helvetica,sans-Serif" font-size="10.00">string.h</text>
</a>
</g>
</g>
<!-- Node14&#45;&gt;Node15 -->
<g id="edge18_Node000014_Node000015" class="edge">
<title>Node14&#45;&gt;Node15</title>
<g id="a_edge18_Node000014_Node000015"><a xlink:title=" ">
<path fill="none" stroke="#63b8ff" d="M438.81,-113.09C430.87,-105.46 419.63,-94.67 410.16,-85.57"/>
<polygon fill="#63b8ff" stroke="#63b8ff" points="412.83,-83.28 403.19,-78.88 407.98,-88.33 412.83,-83.28"/>
</a>
</g>
</g>
<!-- Node16 -->
<g id="Node000016" class="node">
<title>Node16</title>
<g id="a_Node000016"><a xlink:href="endian_8h.html" target="_top" xlink:title="libc header for endian conversion">
<polygon fill="white" stroke="#666666" points="532,-77.5 474,-77.5 474,-56.75 532,-56.75 532,-77.5"/>
<text text-anchor="middle" x="503" y="-64" font-family="Helvetica,sans-Serif" font-size="10.00">endian.h</text>
</a>
</g>
</g>
<!-- Node14&#45;&gt;Node16 -->
<g id="edge20_Node000014_Node000016" class="edge">
<title>Node14&#45;&gt;Node16</title>
<g id="a_edge20_Node000014_Node000016"><a xlink:title=" ">
<path fill="none" stroke="#63b8ff" d="M458.65,-113.09C466.1,-105.53 476.61,-94.89 485.52,-85.85"/>
<polygon fill="#63b8ff" stroke="#63b8ff" points="487.84,-88.48 492.37,-78.91 482.85,-83.57 487.84,-88.48"/>
</a>
</g>
</g>
<!-- Node17 -->
<g id="Node000017" class="node">
<title>Node17</title>
<g id="a_Node000017"><a xlink:href="unaligned_8h.html" target="_top" xlink:title="Unaligned but safe memory access functions.">
<polygon fill="white" stroke="#666666" points="623.5,-77.5 550.5,-77.5 550.5,-56.75 623.5,-56.75 623.5,-77.5"/>
<text text-anchor="middle" x="587" y="-64" font-family="Helvetica,sans-Serif" font-size="10.00">unaligned.h</text>
</a>
</g>
</g>
<!-- Node14&#45;&gt;Node17 -->
<g id="edge22_Node000014_Node000017" class="edge">
<title>Node14&#45;&gt;Node17</title>
<g id="a_edge22_Node000014_Node000017"><a xlink:title=" ">
<path fill="none" stroke="#63b8ff" d="M473.67,-113.09C495.45,-104.44 527.46,-91.75 551.91,-82.05"/>
<polygon fill="#63b8ff" stroke="#63b8ff" points="553.13,-85.33 561.14,-78.39 550.55,-78.82 553.13,-85.33"/>
</a>
</g>
</g>
<!-- Node16&#45;&gt;Node4 -->
<g id="edge21_Node000016_Node000004" class="edge">
<title>Node16&#45;&gt;Node4</title>
<g id="a_edge21_Node000016_Node000004"><a xlink:title=" ">
<path fill="none" stroke="#63b8ff" d="M503,-56.34C503,-49.72 503,-40.72 503,-32.52"/>
<polygon fill="#63b8ff" stroke="#63b8ff" points="506.5,-32.59 503,-22.59 499.5,-32.59 506.5,-32.59"/>
</a>
</g>
</g>
<!-- Node17&#45;&gt;Node4 -->
<g id="edge23_Node000017_Node000004" class="edge">
<title>Node17&#45;&gt;Node4</title>
<g id="a_edge23_Node000017_Node000004"><a xlink:title=" ">
<path fill="none" stroke="#63b8ff" d="M571.98,-56.34C559.56,-48.24 541.68,-36.58 527.23,-27.17"/>
<polygon fill="#63b8ff" stroke="#63b8ff" points="529.44,-24.43 519.16,-21.9 525.62,-30.3 529.44,-24.43"/>
</a>
</g>
</g>
<!-- Node18&#45;&gt;Node12 -->
<g id="edge28_Node000018_Node000012" class="edge">
<title>Node18&#45;&gt;Node12</title>
<g id="a_edge28_Node000018_Node000012"><a xlink:title=" ">
<path fill="none" stroke="#63b8ff" d="M407.9,-226.59C389.61,-218.1 362.9,-205.7 342.14,-196.08"/>
<polygon fill="#63b8ff" stroke="#63b8ff" points="343.83,-193 333.29,-191.97 340.88,-199.35 343.83,-193"/>
</a>
</g>
</g>
<!-- Node18&#45;&gt;Node13 -->
<g id="edge25_Node000018_Node000013" class="edge">
<title>Node18&#45;&gt;Node13</title>
<g id="a_edge25_Node000018_Node000013"><a xlink:title=" ">
<path fill="none" stroke="#63b8ff" d="M384.08,-227.95C340.4,-219.15 277.71,-204.75 257,-191 239.31,-179.26 225.17,-159.31 216.31,-144.39"/>
<polygon fill="#63b8ff" stroke="#63b8ff" points="219.5,-142.93 211.55,-135.92 213.39,-146.35 219.5,-142.93"/>
</a>
</g>
</g>
<!-- Node18&#45;&gt;Node14 -->
<g id="edge27_Node000018_Node000014" class="edge">
<title>Node18&#45;&gt;Node14</title>
<g id="a_edge27_Node000018_Node000014"><a xlink:title=" ">
<path fill="none" stroke="#63b8ff" d="M430.71,-226.87C433.91,-209.02 440.89,-170.11 445.24,-145.84"/>
<polygon fill="#63b8ff" stroke="#63b8ff" points="448.65,-146.63 446.97,-136.16 441.76,-145.39 448.65,-146.63"/>
</a>
</g>
</g>
<!-- Node18&#45;&gt;Node15 -->
<g id="edge26_Node000018_Node000015" class="edge">
<title>Node18&#45;&gt;Node15</title>
<g id="a_edge26_Node000018_Node000015"><a xlink:title=" ">
<path fill="none" stroke="#63b8ff" d="M426.39,-226.56C421.6,-208.41 411.26,-168.35 404,-134.25 400.76,-119.03 397.64,-101.72 395.39,-88.63"/>
<polygon fill="#63b8ff" stroke="#63b8ff" points="398.89,-88.35 393.78,-79.07 391.99,-89.51 398.89,-88.35"/>
</a>
</g>
</g>
<!-- Node20&#45;&gt;Node2 -->
<g id="edge62_Node000020_Node000002" class="edge">
<title>Node20&#45;&gt;Node2</title>
<g id="a_edge62_Node000020_Node000002"><a xlink:title=" ">
<path fill="none" stroke="#63b8ff" d="M269,-397.12C269,-379.35 269,-340.72 269,-316.43"/>
<polygon fill="#63b8ff" stroke="#63b8ff" points="272.5,-316.44 269,-306.44 265.5,-316.44 272.5,-316.44"/>
</a>
</g>
</g>
<!-- Node20&#45;&gt;Node3 -->
<g id="edge31_Node000020_Node000003" class="edge">
<title>Node20&#45;&gt;Node3</title>
<g id="a_edge31_Node000020_Node000003"><a xlink:title=" ">
<path fill="none" stroke="#63b8ff" d="M314.73,-403.15C385.1,-397.34 523.94,-383.97 640,-361.25 795.87,-330.74 976.99,-275.46 1054.56,-250.81"/>
<polygon fill="#63b8ff" stroke="#63b8ff" points="1055.33,-254.24 1063.79,-247.87 1053.2,-247.57 1055.33,-254.24"/>
</a>
</g>
</g>
<!-- Node20&#45;&gt;Node4 -->
<g id="edge33_Node000020_Node000004" class="edge">
<title>Node20&#45;&gt;Node4</title>
<g id="a_edge33_Node000020_Node000004"><a xlink:title=" ">
<path fill="none" stroke="#63b8ff" d="M314.77,-405.69C495.4,-401.41 1149,-380.07 1149,-295.12 1149,-295.12 1149,-295.12 1149,-122.88 1149,-57.26 1080.13,-74.65 1017,-56.75 927.36,-31.34 644.03,-17.27 540.96,-12.88"/>
<polygon fill="#63b8ff" stroke="#63b8ff" points="541.24,-9.39 531.1,-12.47 540.95,-16.38 541.24,-9.39"/>
</a>
</g>
</g>
<!-- Node20&#45;&gt;Node5 -->
<g id="edge32_Node000020_Node000005" class="edge">
<title>Node20&#45;&gt;Node5</title>
<g id="a_edge32_Node000020_Node000005"><a xlink:title=" ">
<path fill="none" stroke="#63b8ff" d="M274.95,-396.79C285.56,-378.93 307.95,-339.76 322,-304.5 327.9,-289.7 332.81,-272.37 336.16,-259.17"/>
<polygon fill="#63b8ff" stroke="#63b8ff" points="339.56,-260 338.52,-249.46 332.75,-258.35 339.56,-260"/>
</a>
</g>
</g>
<!-- Node20&#45;&gt;Node10 -->
<g id="edge35_Node000020_Node000010" class="edge">
<title>Node20&#45;&gt;Node10</title>
<g id="a_edge35_Node000020_Node000010"><a xlink:title=" ">
<path fill="none" stroke="#63b8ff" d="M260.32,-396.96C237.33,-370.14 178.18,-292.5 201,-227 213.01,-192.53 242.04,-160.96 261.88,-142.31"/>
<polygon fill="#63b8ff" stroke="#63b8ff" points="264.09,-145.03 269.13,-135.71 259.38,-139.85 264.09,-145.03"/>
</a>
</g>
</g>
<!-- Node20&#45;&gt;Node13 -->
<g id="edge34_Node000020_Node000013" class="edge">
<title>Node20&#45;&gt;Node13</title>
<g id="a_edge34_Node000020_Node000013"><a xlink:title=" ">
<path fill="none" stroke="#63b8ff" d="M223.26,-400.54C166.19,-390.08 76,-362.84 76,-295.12 76,-295.12 76,-295.12 76,-236.38 76,-205.8 74.58,-193.01 95,-170.25 104.71,-159.42 136.9,-146.89 164.13,-137.75"/>
<polygon fill="#63b8ff" stroke="#63b8ff" points="165.18,-141.09 173.59,-134.65 163,-134.44 165.18,-141.09"/>
</a>
</g>
</g>
<!-- Node20&#45;&gt;Node15 -->
<g id="edge36_Node000020_Node000015" class="edge">
<title>Node20&#45;&gt;Node15</title>
<g id="a_edge36_Node000020_Node000015"><a xlink:title=" ">
<path fill="none" stroke="#63b8ff" d="M223.06,-407.34C146.23,-405.87 0,-390.55 0,-295.12 0,-295.12 0,-295.12 0,-179.62 0,-106.52 255.39,-78.79 353.89,-70.81"/>
<polygon fill="#63b8ff" stroke="#63b8ff" points="354.16,-74.3 363.86,-70.03 353.61,-67.32 354.16,-74.3"/>
</a>
</g>
</g>
<!-- Node21 -->
<g id="Node000021" class="node">
<title>Node21</title>
<g id="a_Node000021"><a xlink:href="net_2coap_8h.html" target="_top" xlink:title="Generic CoAP values as defined by RFC7252.">
<polygon fill="white" stroke="#666666" points="197.12,-361.25 148.88,-361.25 148.88,-340.5 197.12,-340.5 197.12,-361.25"/>
<text text-anchor="middle" x="173" y="-347.75" font-family="Helvetica,sans-Serif" font-size="10.00">coap.h</text>
</a>
</g>
</g>
<!-- Node20&#45;&gt;Node21 -->
<g id="edge37_Node000020_Node000021" class="edge">
<title>Node20&#45;&gt;Node21</title>
<g id="a_edge37_Node000020_Node000021"><a xlink:title=" ">
<path fill="none" stroke="#63b8ff" d="M251.84,-396.84C237.37,-388.58 216.41,-376.63 199.74,-367.13"/>
<polygon fill="#63b8ff" stroke="#63b8ff" points="201.75,-364.24 191.33,-362.33 198.28,-370.32 201.75,-364.24"/>
</a>
</g>
</g>
<!-- Node22 -->
<g id="Node000022" class="node">
<title>Node22</title>
<g id="a_Node000022"><a xlink:href="inet_8h.html" target="_top" xlink:title="Definitions for internet operations.">
<polygon fill="white" stroke="#666666" points="631.25,-361.25 562.75,-361.25 562.75,-340.5 631.25,-340.5 631.25,-361.25"/>
<text text-anchor="middle" x="597" y="-347.75" font-family="Helvetica,sans-Serif" font-size="10.00">arpa/inet.h</text>
</a>
</g>
</g>
<!-- Node20&#45;&gt;Node22 -->
<g id="edge38_Node000020_Node000022" class="edge">
<title>Node20&#45;&gt;Node22</title>
<g id="a_edge38_Node000020_Node000022"><a xlink:title=" ">
<path fill="none" stroke="#63b8ff" d="M314.95,-398.95C377.53,-388.51 488.87,-369.92 551.31,-359.5"/>
<polygon fill="#63b8ff" stroke="#63b8ff" points="551.6,-363 560.88,-357.9 550.44,-356.1 551.6,-363"/>
</a>
</g>
</g>
<!-- Node22&#45;&gt;Node8 -->
<g id="edge39_Node000022_Node000008" class="edge">
<title>Node22&#45;&gt;Node8</title>
<g id="a_edge39_Node000022_Node000008"><a xlink:title=" ">
<path fill="none" stroke="#63b8ff" d="M592.36,-340.35C579.34,-313.64 542.29,-237.62 524.61,-201.35"/>
<polygon fill="#63b8ff" stroke="#63b8ff" points="527.99,-200.28 520.46,-192.83 521.69,-203.35 527.99,-200.28"/>
</a>
</g>
</g>
<!-- Node23 -->
<g id="Node000023" class="node">
<title>Node23</title>
<g id="a_Node000023"><a xlink:href="bytes_8h.html" target="_top" xlink:title="System&#45;internal byte operations.">
<polygon fill="white" stroke="#666666" points="630.75,-191 559.25,-191 559.25,-170.25 630.75,-170.25 630.75,-191"/>
<text text-anchor="middle" x="595" y="-177.5" font-family="Helvetica,sans-Serif" font-size="10.00">sys/bytes.h</text>
</a>
</g>
</g>
<!-- Node22&#45;&gt;Node23 -->
<g id="edge40_Node000022_Node000023" class="edge">
<title>Node22&#45;&gt;Node23</title>
<g id="a_edge40_Node000022_Node000023"><a xlink:title=" ">
<path fill="none" stroke="#63b8ff" d="M596.89,-340.35C596.57,-313.98 595.69,-239.58 595.25,-202.78"/>
<polygon fill="#63b8ff" stroke="#63b8ff" points="598.75,-202.94 595.14,-192.98 591.75,-203.02 598.75,-202.94"/>
</a>
</g>
</g>
<!-- Node24 -->
<g id="Node000024" class="node">
<title>Node24</title>
<g id="a_Node000024"><a xlink:href="in_8h.html" target="_top" xlink:title="Main socket header.">
<polygon fill="white" stroke="#666666" points="735.75,-304.5 664.25,-304.5 664.25,-283.75 735.75,-283.75 735.75,-304.5"/>
<text text-anchor="middle" x="700" y="-291" font-family="Helvetica,sans-Serif" font-size="10.00">netinet/in.h</text>
</a>
</g>
</g>
<!-- Node22&#45;&gt;Node24 -->
<g id="edge43_Node000022_Node000024" class="edge">
<title>Node22&#45;&gt;Node24</title>
<g id="a_edge43_Node000022_Node000024"><a xlink:title=" ">
<path fill="none" stroke="#63b8ff" d="M615.41,-340.09C631.09,-331.76 653.85,-319.66 671.81,-310.11"/>
<polygon fill="#63b8ff" stroke="#63b8ff" points="673.22,-313.32 680.41,-305.54 669.94,-307.14 673.22,-313.32"/>
</a>
</g>
</g>
<!-- Node23&#45;&gt;Node10 -->
<g id="edge41_Node000023_Node000010" class="edge">
<title>Node23&#45;&gt;Node10</title>
<g id="a_edge41_Node000023_Node000010"><a xlink:title=" ">
<path fill="none" stroke="#63b8ff" d="M559.16,-172.03C556.07,-171.41 552.98,-170.81 550,-170.25 468.74,-154.91 373.14,-139.31 320.92,-130.99"/>
<polygon fill="#63b8ff" stroke="#63b8ff" points="321.76,-127.58 311.33,-129.47 320.66,-134.5 321.76,-127.58"/>
</a>
</g>
</g>
<!-- Node23&#45;&gt;Node14 -->
<g id="edge42_Node000023_Node000014" class="edge">
<title>Node23&#45;&gt;Node14</title>
<g id="a_edge42_Node000023_Node000014"><a xlink:title=" ">
<path fill="none" stroke="#63b8ff" d="M568.9,-169.84C545.65,-161.12 511.38,-148.27 485.43,-138.54"/>
<polygon fill="#63b8ff" stroke="#63b8ff" points="486.89,-135.34 476.29,-135.11 484.43,-141.9 486.89,-135.34"/>
</a>
</g>
</g>
<!-- Node24&#45;&gt;Node18 -->
<g id="edge60_Node000024_Node000018" class="edge">
<title>Node24&#45;&gt;Node18</title>
<g id="a_edge60_Node000024_Node000018"><a xlink:title=" ">
<path fill="none" stroke="#63b8ff" d="M664.01,-285.85C618.31,-276.62 538.95,-260.59 485.23,-249.73"/>
<polygon fill="#63b8ff" stroke="#63b8ff" points="486.15,-246.35 475.66,-247.8 484.77,-253.21 486.15,-246.35"/>
</a>
</g>
</g>
<!-- Node24&#45;&gt;Node23 -->
<g id="edge61_Node000024_Node000023" class="edge">
<title>Node24&#45;&gt;Node23</title>
<g id="a_edge61_Node000024_Node000023"><a xlink:title=" ">
<path fill="none" stroke="#63b8ff" d="M691.05,-283.62C673.55,-265.03 634.54,-223.61 611.99,-199.66"/>
<polygon fill="#63b8ff" stroke="#63b8ff" points="614.67,-197.41 605.27,-192.53 609.57,-202.21 614.67,-197.41"/>
</a>
</g>
</g>
<!-- Node25 -->
<g id="Node000025" class="node">
<title>Node25</title>
<g id="a_Node000025"><a xlink:href="inttypes_8h.html" target="_top" xlink:title="Adds include for missing inttype definitions.">
<polygon fill="white" stroke="#666666" points="1083.38,-134.25 1018.62,-134.25 1018.62,-113.5 1083.38,-113.5 1083.38,-134.25"/>
<text text-anchor="middle" x="1051" y="-120.75" font-family="Helvetica,sans-Serif" font-size="10.00">inttypes.h</text>
</a>
</g>
</g>
<!-- Node24&#45;&gt;Node25 -->
<g id="edge44_Node000024_Node000025" class="edge">
<title>Node24&#45;&gt;Node25</title>
<g id="a_edge44_Node000024_Node000025"><a xlink:title=" ">
<path fill="none" stroke="#63b8ff" d="M736.09,-291.73C809.25,-288.31 971.98,-277.48 1018,-247.75 1043.09,-231.54 1045.67,-219.68 1054,-191 1058.27,-176.28 1057.28,-158.95 1055.35,-145.72"/>
<polygon fill="#63b8ff" stroke="#63b8ff" points="1058.82,-145.24 1053.61,-136.01 1051.93,-146.47 1058.82,-145.24"/>
</a>
</g>
</g>
<!-- Node26 -->
<g id="Node000026" class="node">
<title>Node26</title>
<g id="a_Node000026"><a xlink:href="socket_8h.html" target="_top" xlink:title="Main socket header.">
<polygon fill="white" stroke="#666666" points="758,-247.75 682,-247.75 682,-227 758,-227 758,-247.75"/>
<text text-anchor="middle" x="720" y="-234.25" font-family="Helvetica,sans-Serif" font-size="10.00">sys/socket.h</text>
</a>
</g>
</g>
<!-- Node24&#45;&gt;Node26 -->
<g id="edge45_Node000024_Node000026" class="edge">
<title>Node24&#45;&gt;Node26</title>
<g id="a_edge45_Node000024_Node000026"><a xlink:title=" ">
<path fill="none" stroke="#63b8ff" d="M703.58,-283.34C706.08,-276.49 709.51,-267.09 712.59,-258.65"/>
<polygon fill="#63b8ff" stroke="#63b8ff" points="715.79,-260.09 715.94,-249.5 709.22,-257.69 715.79,-260.09"/>
</a>
</g>
</g>
<!-- Node32 -->
<g id="Node000032" class="node">
<title>Node32</title>
<g id="a_Node000032"><a xlink:href="protnum_8h.html" target="_top" xlink:title="Protocol number definitions.">
<polygon fill="white" stroke="#666666" points="1008.5,-247.75 923.5,-247.75 923.5,-227 1008.5,-227 1008.5,-247.75"/>
<text text-anchor="middle" x="966" y="-234.25" font-family="Helvetica,sans-Serif" font-size="10.00">net/protnum.h</text>
</a>
</g>
</g>
<!-- Node24&#45;&gt;Node32 -->
<g id="edge59_Node000024_Node000032" class="edge">
<title>Node24&#45;&gt;Node32</title>
<g id="a_edge59_Node000024_Node000032"><a xlink:title=" ">
<path fill="none" stroke="#63b8ff" d="M736.15,-285.68C781.54,-276.34 859.81,-260.23 912.23,-249.44"/>
<polygon fill="#63b8ff" stroke="#63b8ff" points="912.76,-252.91 921.85,-247.46 911.35,-246.05 912.76,-252.91"/>
</a>
</g>
</g>
<!-- Node26&#45;&gt;Node6 -->
<g id="edge47_Node000026_Node000006" class="edge">
<title>Node26&#45;&gt;Node6</title>
<g id="a_edge47_Node000026_Node000006"><a xlink:title=" ">
<path fill="none" stroke="#63b8ff" d="M709.31,-226.72C700.14,-218.04 687.03,-204.59 678,-191 668.4,-176.54 660.45,-158.51 655.15,-144.93"/>
<polygon fill="#63b8ff" stroke="#63b8ff" points="658.5,-143.91 651.73,-135.76 651.94,-146.36 658.5,-143.91"/>
</a>
</g>
</g>
<!-- Node26&#45;&gt;Node7 -->
<g id="edge48_Node000026_Node000007" class="edge">
<title>Node26&#45;&gt;Node7</title>
<g id="a_edge48_Node000026_Node000007"><a xlink:title=" ">
<path fill="none" stroke="#63b8ff" d="M758.29,-232.78C785.49,-228 820.23,-216.87 838,-191 857.52,-162.58 813.26,-144.36 775.19,-134.39"/>
<polygon fill="#63b8ff" stroke="#63b8ff" points="776.18,-131.03 765.63,-132.04 774.51,-137.83 776.18,-131.03"/>
</a>
</g>
</g>
<!-- Node26&#45;&gt;Node8 -->
<g id="edge57_Node000026_Node000008" class="edge">
<title>Node26&#45;&gt;Node8</title>
<g id="a_edge57_Node000026_Node000008"><a xlink:title=" ">
<path fill="none" stroke="#63b8ff" d="M683.19,-226.56C651.11,-218 603.03,-205.18 552.83,-191.76"/>
<polygon fill="#63b8ff" stroke="#63b8ff" points="553.78,-188.39 543.21,-189.18 551.97,-195.15 553.78,-188.39"/>
</a>
</g>
</g>
<!-- Node26&#45;&gt;Node23 -->
<g id="edge58_Node000026_Node000023" class="edge">
<title>Node26&#45;&gt;Node23</title>
<g id="a_edge58_Node000026_Node000023"><a xlink:title=" ">
<path fill="none" stroke="#63b8ff" d="M697.65,-226.59C678.19,-218.06 649.71,-205.59 627.69,-195.94"/>
<polygon fill="#63b8ff" stroke="#63b8ff" points="629.1,-192.74 618.54,-191.94 626.3,-199.15 629.1,-192.74"/>
</a>
</g>
</g>
<!-- Node27 -->
<g id="Node000027" class="node">
<title>Node27</title>
<g id="a_Node000027"><a xlink:title=" ">
<polygon fill="#e0e0e0" stroke="#999999" points="829,-191 765,-191 765,-170.25 829,-170.25 829,-191"/>
<text text-anchor="middle" x="797" y="-177.5" font-family="Helvetica,sans-Serif" font-size="10.00">stdalign.h</text>
</a>
</g>
</g>
<!-- Node26&#45;&gt;Node27 -->
<g id="edge46_Node000026_Node000027" class="edge">
<title>Node26&#45;&gt;Node27</title>
<g id="a_edge46_Node000026_Node000027"><a xlink:title=" ">
<path fill="none" stroke="#63b8ff" d="M733.77,-226.59C744.93,-218.65 760.92,-207.28 774.02,-197.96"/>
<polygon fill="#63b8ff" stroke="#63b8ff" points="776,-200.85 782.12,-192.21 771.94,-195.15 776,-200.85"/>
</a>
</g>
</g>
<!-- Node28 -->
<g id="Node000028" class="node">
<title>Node28</title>
<g id="a_Node000028"><a xlink:href="uio_8h.html" target="_top" xlink:title="libc header for scatter/gather I/O">
<polygon fill="white" stroke="#666666" points="746.75,-191 687.25,-191 687.25,-170.25 746.75,-170.25 746.75,-191"/>
<text text-anchor="middle" x="717" y="-177.5" font-family="Helvetica,sans-Serif" font-size="10.00">sys/uio.h</text>
</a>
</g>
</g>
<!-- Node26&#45;&gt;Node28 -->
<g id="edge49_Node000026_Node000028" class="edge">
<title>Node26&#45;&gt;Node28</title>
<g id="a_edge49_Node000026_Node000028"><a xlink:title=" ">
<path fill="none" stroke="#63b8ff" d="M719.46,-226.59C719.1,-219.97 718.61,-210.97 718.16,-202.77"/>
<polygon fill="#63b8ff" stroke="#63b8ff" points="721.66,-202.63 717.61,-192.84 714.67,-203.02 721.66,-202.63"/>
</a>
</g>
</g>
<!-- Node29 -->
<g id="Node000029" class="node">
<title>Node29</title>
<g id="a_Node000029"><a xlink:href="architecture_8h.html" target="_top" xlink:title="Platform&#45;independent access to architecture details.">
<polygon fill="white" stroke="#666666" points="1044.75,-191 961.25,-191 961.25,-170.25 1044.75,-170.25 1044.75,-191"/>
<text text-anchor="middle" x="1003" y="-177.5" font-family="Helvetica,sans-Serif" font-size="10.00">architecture.h</text>
</a>
</g>
</g>
<!-- Node26&#45;&gt;Node29 -->
<g id="edge52_Node000026_Node000029" class="edge">
<title>Node26&#45;&gt;Node29</title>
<g id="a_edge52_Node000026_Node000029"><a xlink:title=" ">
<path fill="none" stroke="#63b8ff" d="M758.46,-228.93C807.95,-219.36 894.15,-202.68 949.87,-191.9"/>
<polygon fill="#63b8ff" stroke="#63b8ff" points="950.29,-195.39 959.45,-190.05 948.97,-188.51 950.29,-195.39"/>
</a>
</g>
</g>
<!-- Node28&#45;&gt;Node6 -->
<g id="edge50_Node000028_Node000006" class="edge">
<title>Node28&#45;&gt;Node6</title>
<g id="a_edge50_Node000028_Node000006"><a xlink:title=" ">
<path fill="none" stroke="#63b8ff" d="M704.66,-169.84C694.75,-161.97 680.61,-150.75 668.94,-141.49"/>
<polygon fill="#63b8ff" stroke="#63b8ff" points="671.42,-138.99 661.41,-135.52 667.07,-144.48 671.42,-138.99"/>
</a>
</g>
</g>
<!-- Node28&#45;&gt;Node7 -->
<g id="edge51_Node000028_Node000007" class="edge">
<title>Node28&#45;&gt;Node7</title>
<g id="a_edge51_Node000028_Node000007"><a xlink:title=" ">
<path fill="none" stroke="#63b8ff" d="M718.97,-169.84C720.31,-163.14 722.15,-154.01 723.81,-145.73"/>
<polygon fill="#63b8ff" stroke="#63b8ff" points="727.21,-146.56 725.75,-136.06 720.35,-145.18 727.21,-146.56"/>
</a>
</g>
</g>
<!-- Node29&#45;&gt;Node4 -->
<g id="edge53_Node000029_Node000004" class="edge">
<title>Node29&#45;&gt;Node4</title>
<g id="a_edge53_Node000029_Node000004"><a xlink:title=" ">
<path fill="none" stroke="#63b8ff" d="M960.91,-171.05C913.04,-161.06 838.03,-144.61 811,-134.25 793.03,-127.36 790.39,-121.74 773,-113.5 712.33,-84.75 695.82,-80.43 633,-56.75 601.88,-45.02 566.19,-32.64 540.09,-23.78"/>
<polygon fill="#63b8ff" stroke="#63b8ff" points="541.56,-20.58 530.96,-20.69 539.32,-27.21 541.56,-20.58"/>
</a>
</g>
</g>
<!-- Node29&#45;&gt;Node25 -->
<g id="edge54_Node000029_Node000025" class="edge">
<title>Node29&#45;&gt;Node25</title>
<g id="a_edge54_Node000029_Node000025"><a xlink:title=" ">
<path fill="none" stroke="#63b8ff" d="M1011.58,-169.84C1018.07,-162.44 1027.15,-152.07 1034.97,-143.16"/>
<polygon fill="#63b8ff" stroke="#63b8ff" points="1037.53,-145.54 1041.5,-135.72 1032.27,-140.93 1037.53,-145.54"/>
</a>
</g>
</g>
<!-- Node30 -->
<g id="Node000030" class="node">
<title>Node30</title>
<g id="a_Node000030"><a xlink:title=" ">
<polygon fill="#e0e0e0" stroke="#999999" points="1000.38,-134.25 947.62,-134.25 947.62,-113.5 1000.38,-113.5 1000.38,-134.25"/>
<text text-anchor="middle" x="974" y="-120.75" font-family="Helvetica,sans-Serif" font-size="10.00">limits.h</text>
</a>
</g>
</g>
<!-- Node29&#45;&gt;Node30 -->
<g id="edge55_Node000029_Node000030" class="edge">
<title>Node29&#45;&gt;Node30</title>
<g id="a_edge55_Node000029_Node000030"><a xlink:title=" ">
<path fill="none" stroke="#63b8ff" d="M997.82,-169.84C994.1,-162.83 988.98,-153.16 984.44,-144.58"/>
<polygon fill="#63b8ff" stroke="#63b8ff" points="987.62,-143.11 979.85,-135.92 981.44,-146.39 987.62,-143.11"/>
</a>
</g>
</g>
<!-- Node31 -->
<g id="Node000031" class="node">
<title>Node31</title>
<g id="a_Node000031"><a xlink:title=" ">
<polygon fill="#e0e0e0" stroke="#999999" points="929.88,-134.25 820.12,-134.25 820.12,-113.5 929.88,-113.5 929.88,-134.25"/>
<text text-anchor="middle" x="875" y="-120.75" font-family="Helvetica,sans-Serif" font-size="10.00">architecture_arch.h</text>
</a>
</g>
</g>
<!-- Node29&#45;&gt;Node31 -->
<g id="edge56_Node000029_Node000031" class="edge">
<title>Node29&#45;&gt;Node31</title>
<g id="a_edge56_Node000029_Node000031"><a xlink:title=" ">
<path fill="none" stroke="#63b8ff" d="M980.12,-169.84C960.09,-161.27 930.76,-148.73 908.17,-139.06"/>
<polygon fill="#63b8ff" stroke="#63b8ff" points="909.65,-135.89 899.08,-135.17 906.9,-142.32 909.65,-135.89"/>
</a>
</g>
</g>
<!-- Node33&#45;&gt;Node7 -->
<g id="edge64_Node000033_Node000007" class="edge">
<title>Node33&#45;&gt;Node7</title>
<g id="a_edge64_Node000033_Node000007"><a xlink:title=" ">
<path fill="none" stroke="#63b8ff" d="M1187.11,-397.06C1186.88,-366.99 1181.86,-273.55 1130,-227 1069.94,-173.08 1030.34,-210.44 952,-191 887.42,-174.97 813.6,-152.32 768.91,-138.13"/>
<polygon fill="#63b8ff" stroke="#63b8ff" points="770.24,-134.87 759.65,-135.17 768.11,-141.54 770.24,-134.87"/>
</a>
</g>
</g>
<!-- Node34 -->
<g id="Node000034" class="node">
<title>Node34</title>
<g id="a_Node000034"><a xlink:href="clif__internal_8h.html" target="_top" xlink:title="Internal definitions for CoRE Link format module.">
<polygon fill="white" stroke="#666666" points="1297.38,-361.25 1214.62,-361.25 1214.62,-340.5 1297.38,-340.5 1297.38,-361.25"/>
<text text-anchor="middle" x="1256" y="-347.75" font-family="Helvetica,sans-Serif" font-size="10.00">clif_internal.h</text>
</a>
</g>
</g>
<!-- Node33&#45;&gt;Node34 -->
<g id="edge65_Node000033_Node000034" class="edge">
<title>Node33&#45;&gt;Node34</title>
<g id="a_edge65_Node000033_Node000034"><a xlink:title=" ">
<path fill="none" stroke="#63b8ff" d="M1199.34,-396.84C1209.25,-388.97 1223.39,-377.75 1235.06,-368.49"/>
<polygon fill="#63b8ff" stroke="#63b8ff" points="1236.93,-371.48 1242.59,-362.52 1232.58,-365.99 1236.93,-371.48"/>
</a>
</g>
</g>
</g>
</svg>
