<?xml version="1.0" encoding="UTF-8" standalone="no"?>
<!DOCTYPE svg PUBLIC "-//W3C//DTD SVG 1.1//EN"
 "http://www.w3.org/Graphics/SVG/1.1/DTD/svg11.dtd">
<!-- Generated by graphviz version 12.1.2 (0)
 -->
<!-- Title: sys/include/net/nanocoap/link_format.h Pages: 1 -->
<svg width="1522pt" height="552pt"
 viewBox="0.00 0.00 1522.00 552.25" xmlns="http://www.w3.org/2000/svg" xmlns:xlink="http://www.w3.org/1999/xlink">
<g id="graph0" class="graph" transform="scale(1 1) rotate(0) translate(4 548.25)">
<title>sys/include/net/nanocoap/link_format.h</title>
<!-- Node1 -->
<g id="Node000001" class="node">
<title>Node1</title>
<g id="a_Node000001"><a xlink:title="NanoCoAP Link Format helper functions.">
<polygon fill="#999999" stroke="#666666" points="1420.88,-544.25 1281.12,-544.25 1281.12,-510.75 1420.88,-510.75 1420.88,-544.25"/>
<text text-anchor="start" x="1289.12" y="-530.75" font-family="Helvetica,sans-Serif" font-size="10.00">sys/include/net/nanocoap</text>
<text text-anchor="middle" x="1351" y="-518" font-family="Helvetica,sans-Serif" font-size="10.00">/link_format.h</text>
</a>
</g>
</g>
<!-- Node2 -->
<g id="Node000002" class="node">
<title>Node2</title>
<g id="a_Node000002"><a xlink:href="nanocoap__sock_8h.html" target="_top" xlink:title="nanocoap high&#45;level API">
<polygon fill="white" stroke="#666666" points="1410.38,-474.75 1291.62,-474.75 1291.62,-454 1410.38,-454 1410.38,-474.75"/>
<text text-anchor="middle" x="1351" y="-461.25" font-family="Helvetica,sans-Serif" font-size="10.00">net/nanocoap_sock.h</text>
</a>
</g>
</g>
<!-- Node1&#45;&gt;Node2 -->
<g id="edge1_Node000001_Node000002" class="edge">
<title>Node1&#45;&gt;Node2</title>
<g id="a_edge1_Node000001_Node000002"><a xlink:title=" ">
<path fill="none" stroke="#63b8ff" d="M1351,-510.44C1351,-503.1 1351,-494.32 1351,-486.46"/>
<polygon fill="#63b8ff" stroke="#63b8ff" points="1354.5,-486.73 1351,-476.73 1347.5,-486.73 1354.5,-486.73"/>
</a>
</g>
</g>
<!-- Node3 -->
<g id="Node000003" class="node">
<title>Node3</title>
<g id="a_Node000003"><a xlink:title=" ">
<polygon fill="#e0e0e0" stroke="#999999" points="883.38,-20.75 830.62,-20.75 830.62,0 883.38,0 883.38,-20.75"/>
<text text-anchor="middle" x="857" y="-7.25" font-family="Helvetica,sans-Serif" font-size="10.00">stdint.h</text>
</a>
</g>
</g>
<!-- Node2&#45;&gt;Node3 -->
<g id="edge2_Node000002_Node000003" class="edge">
<title>Node2&#45;&gt;Node3</title>
<g id="a_edge2_Node000002_Node000003"><a xlink:title=" ">
<path fill="none" stroke="#63b8ff" d="M1394.68,-453.57C1442.96,-439.85 1514,-409.82 1514,-351.88 1514,-351.88 1514,-351.88 1514,-122.88 1514,-65.07 1457.08,-74.29 1402,-56.75 1307.17,-26.56 1002.17,-15.39 894.81,-12.33"/>
<polygon fill="#63b8ff" stroke="#63b8ff" points="895.2,-8.84 885.11,-12.06 895.01,-15.84 895.2,-8.84"/>
</a>
</g>
</g>
<!-- Node4 -->
<g id="Node000004" class="node">
<title>Node4</title>
<g id="a_Node000004"><a xlink:href="random_8h.html" target="_top" xlink:title="Common interface to the software PRNG.">
<polygon fill="white" stroke="#666666" points="306.25,-191 243.75,-191 243.75,-170.25 306.25,-170.25 306.25,-191"/>
<text text-anchor="middle" x="275" y="-177.5" font-family="Helvetica,sans-Serif" font-size="10.00">random.h</text>
</a>
</g>
</g>
<!-- Node2&#45;&gt;Node4 -->
<g id="edge3_Node000002_Node000004" class="edge">
<title>Node2&#45;&gt;Node4</title>
<g id="a_edge3_Node000002_Node000004"><a xlink:title=" ">
<path fill="none" stroke="#63b8ff" d="M1291.34,-461.16C1044.24,-451.62 114,-411.71 114,-351.88 114,-351.88 114,-351.88 114,-293.12 114,-235.37 184.9,-205.16 232.6,-191.38"/>
<polygon fill="#63b8ff" stroke="#63b8ff" points="233.39,-194.79 242.12,-188.78 231.55,-188.04 233.39,-194.79"/>
</a>
</g>
</g>
<!-- Node7 -->
<g id="Node000007" class="node">
<title>Node7</title>
<g id="a_Node000007"><a xlink:href="nanocoap_8h.html" target="_top" xlink:title="nanocoap API">
<polygon fill="white" stroke="#666666" points="715.5,-418 624.5,-418 624.5,-397.25 715.5,-397.25 715.5,-418"/>
<text text-anchor="middle" x="670" y="-404.5" font-family="Helvetica,sans-Serif" font-size="10.00">net/nanocoap.h</text>
</a>
</g>
</g>
<!-- Node2&#45;&gt;Node7 -->
<g id="edge6_Node000002_Node000007" class="edge">
<title>Node2&#45;&gt;Node7</title>
<g id="a_edge6_Node000002_Node000007"><a xlink:title=" ">
<path fill="none" stroke="#63b8ff" d="M1291.16,-458.56C1161.18,-448.11 854.48,-423.46 727.05,-413.21"/>
<polygon fill="#63b8ff" stroke="#63b8ff" points="727.41,-409.73 717.16,-412.42 726.85,-416.71 727.41,-409.73"/>
</a>
</g>
</g>
<!-- Node31 -->
<g id="Node000031" class="node">
<title>Node31</title>
<g id="a_Node000031"><a xlink:href="sock_2udp_8h.html" target="_top" xlink:title="UDP sock definitions.">
<polygon fill="white" stroke="#666666" points="968.62,-304.5 881.38,-304.5 881.38,-283.75 968.62,-283.75 968.62,-304.5"/>
<text text-anchor="middle" x="925" y="-291" font-family="Helvetica,sans-Serif" font-size="10.00">net/sock/udp.h</text>
</a>
</g>
</g>
<!-- Node2&#45;&gt;Node31 -->
<g id="edge67_Node000002_Node000031" class="edge">
<title>Node2&#45;&gt;Node31</title>
<g id="a_edge67_Node000002_Node000031"><a xlink:title=" ">
<path fill="none" stroke="#63b8ff" d="M1326.26,-453.6C1254.2,-425.14 1044.32,-342.25 960.34,-309.08"/>
<polygon fill="#63b8ff" stroke="#63b8ff" points="961.81,-305.9 951.22,-305.48 959.24,-312.41 961.81,-305.9"/>
</a>
</g>
</g>
<!-- Node35 -->
<g id="Node000035" class="node">
<title>Node35</title>
<g id="a_Node000035"><a xlink:href="util_8h.html" target="_top" xlink:title="sock utility function definitions">
<polygon fill="white" stroke="#666666" points="1464.5,-361.25 1379.5,-361.25 1379.5,-340.5 1464.5,-340.5 1464.5,-361.25"/>
<text text-anchor="middle" x="1422" y="-347.75" font-family="Helvetica,sans-Serif" font-size="10.00">net/sock/util.h</text>
</a>
</g>
</g>
<!-- Node2&#45;&gt;Node35 -->
<g id="edge68_Node000002_Node000035" class="edge">
<title>Node2&#45;&gt;Node35</title>
<g id="a_edge68_Node000002_Node000035"><a xlink:title=" ">
<path fill="none" stroke="#63b8ff" d="M1357.05,-453.87C1368.68,-435.61 1394.34,-395.31 1409.7,-371.2"/>
<polygon fill="#63b8ff" stroke="#63b8ff" points="1412.53,-373.27 1414.95,-362.95 1406.62,-369.51 1412.53,-373.27"/>
</a>
</g>
</g>
<!-- Node5 -->
<g id="Node000005" class="node">
<title>Node5</title>
<g id="a_Node000005"><a xlink:href="inttypes_8h.html" target="_top" xlink:title="Adds include for missing inttype definitions.">
<polygon fill="white" stroke="#666666" points="366.38,-134.25 301.62,-134.25 301.62,-113.5 366.38,-113.5 366.38,-134.25"/>
<text text-anchor="middle" x="334" y="-120.75" font-family="Helvetica,sans-Serif" font-size="10.00">inttypes.h</text>
</a>
</g>
</g>
<!-- Node4&#45;&gt;Node5 -->
<g id="edge4_Node000004_Node000005" class="edge">
<title>Node4&#45;&gt;Node5</title>
<g id="a_edge4_Node000004_Node000005"><a xlink:title=" ">
<path fill="none" stroke="#63b8ff" d="M285.55,-169.84C293.77,-162.21 305.4,-151.42 315.2,-142.32"/>
<polygon fill="#63b8ff" stroke="#63b8ff" points="317.48,-144.98 322.43,-135.61 312.72,-139.84 317.48,-144.98"/>
</a>
</g>
</g>
<!-- Node6 -->
<g id="Node000006" class="node">
<title>Node6</title>
<g id="a_Node000006"><a xlink:title=" ">
<polygon fill="#e0e0e0" stroke="#999999" points="439.5,-134.25 384.5,-134.25 384.5,-113.5 439.5,-113.5 439.5,-134.25"/>
<text text-anchor="middle" x="412" y="-120.75" font-family="Helvetica,sans-Serif" font-size="10.00">stddef.h</text>
</a>
</g>
</g>
<!-- Node4&#45;&gt;Node6 -->
<g id="edge5_Node000004_Node000006" class="edge">
<title>Node4&#45;&gt;Node6</title>
<g id="a_edge5_Node000004_Node000006"><a xlink:title=" ">
<path fill="none" stroke="#63b8ff" d="M299.49,-169.84C321.12,-161.19 352.89,-148.5 377.16,-138.8"/>
<polygon fill="#63b8ff" stroke="#63b8ff" points="378.33,-142.1 386.31,-135.14 375.73,-135.6 378.33,-142.1"/>
</a>
</g>
</g>
<!-- Node7&#45;&gt;Node3 -->
<g id="edge10_Node000007_Node000003" class="edge">
<title>Node7&#45;&gt;Node3</title>
<g id="a_edge10_Node000007_Node000003"><a xlink:title=" ">
<path fill="none" stroke="#63b8ff" d="M624.21,-403.86C473.13,-394.11 0,-358.54 0,-295.12 0,-295.12 0,-295.12 0,-122.88 0,-39.03 653.34,-16.6 819.12,-12.26"/>
<polygon fill="#63b8ff" stroke="#63b8ff" points="818.99,-15.76 828.9,-12.01 818.81,-8.76 818.99,-15.76"/>
</a>
</g>
</g>
<!-- Node7&#45;&gt;Node6 -->
<g id="edge12_Node000007_Node000006" class="edge">
<title>Node7&#45;&gt;Node6</title>
<g id="a_edge12_Node000007_Node000006"><a xlink:title=" ">
<path fill="none" stroke="#63b8ff" d="M624.3,-404.39C539.95,-397.37 364.2,-368.27 318,-247.75 301.19,-203.88 351.23,-162.6 384.62,-140.85"/>
<polygon fill="#63b8ff" stroke="#63b8ff" points="386.46,-143.82 393.07,-135.55 382.74,-137.89 386.46,-143.82"/>
</a>
</g>
</g>
<!-- Node8 -->
<g id="Node000008" class="node">
<title>Node8</title>
<g id="a_Node000008"><a xlink:href="assert_8h.html" target="_top" xlink:title="POSIX.1&#45;2008 compliant version of the assert macro.">
<polygon fill="white" stroke="#666666" points="877.5,-247.75 822.5,-247.75 822.5,-227 877.5,-227 877.5,-247.75"/>
<text text-anchor="middle" x="850" y="-234.25" font-family="Helvetica,sans-Serif" font-size="10.00">assert.h</text>
</a>
</g>
</g>
<!-- Node7&#45;&gt;Node8 -->
<g id="edge7_Node000007_Node000008" class="edge">
<title>Node7&#45;&gt;Node8</title>
<g id="a_edge7_Node000007_Node000008"><a xlink:title=" ">
<path fill="none" stroke="#63b8ff" d="M680.46,-396.85C709.91,-369.32 793.85,-290.86 831.43,-255.74"/>
<polygon fill="#63b8ff" stroke="#63b8ff" points="833.49,-258.59 838.41,-249.21 828.71,-253.48 833.49,-258.59"/>
</a>
</g>
</g>
<!-- Node9 -->
<g id="Node000009" class="node">
<title>Node9</title>
<g id="a_Node000009"><a xlink:href="errno_8h.html" target="_top" xlink:title=" ">
<polygon fill="white" stroke="#666666" points="1022.25,-247.75 971.75,-247.75 971.75,-227 1022.25,-227 1022.25,-247.75"/>
<text text-anchor="middle" x="997" y="-234.25" font-family="Helvetica,sans-Serif" font-size="10.00">errno.h</text>
</a>
</g>
</g>
<!-- Node7&#45;&gt;Node9 -->
<g id="edge9_Node000007_Node000009" class="edge">
<title>Node7&#45;&gt;Node9</title>
<g id="a_edge9_Node000007_Node000009"><a xlink:title=" ">
<path fill="none" stroke="#63b8ff" d="M715.97,-405C783.72,-400.02 909.7,-380.4 978,-304.5 989.12,-292.14 993.77,-273.67 995.69,-259.38"/>
<polygon fill="#63b8ff" stroke="#63b8ff" points="999.15,-259.97 996.63,-249.68 992.18,-259.3 999.15,-259.97"/>
</a>
</g>
</g>
<!-- Node10 -->
<g id="Node000010" class="node">
<title>Node10</title>
<g id="a_Node000010"><a xlink:title=" ">
<polygon fill="#e0e0e0" stroke="#999999" points="1346.5,-134.25 1285.5,-134.25 1285.5,-113.5 1346.5,-113.5 1346.5,-134.25"/>
<text text-anchor="middle" x="1316" y="-120.75" font-family="Helvetica,sans-Serif" font-size="10.00">stdbool.h</text>
</a>
</g>
</g>
<!-- Node7&#45;&gt;Node10 -->
<g id="edge11_Node000007_Node000010" class="edge">
<title>Node7&#45;&gt;Node10</title>
<g id="a_edge11_Node000007_Node000010"><a xlink:title=" ">
<path fill="none" stroke="#63b8ff" d="M715.52,-406.77C850.24,-406.15 1242.45,-396.33 1321,-304.5 1359.79,-259.15 1337.82,-181.27 1324.23,-144.81"/>
<polygon fill="#63b8ff" stroke="#63b8ff" points="1327.66,-143.96 1320.75,-135.93 1321.14,-146.51 1327.66,-143.96"/>
</a>
</g>
</g>
<!-- Node11 -->
<g id="Node000011" class="node">
<title>Node11</title>
<g id="a_Node000011"><a xlink:title=" ">
<polygon fill="#e0e0e0" stroke="#999999" points="604.38,-77.5 551.62,-77.5 551.62,-56.75 604.38,-56.75 604.38,-77.5"/>
<text text-anchor="middle" x="578" y="-64" font-family="Helvetica,sans-Serif" font-size="10.00">string.h</text>
</a>
</g>
</g>
<!-- Node7&#45;&gt;Node11 -->
<g id="edge13_Node000007_Node000011" class="edge">
<title>Node7&#45;&gt;Node11</title>
<g id="a_edge13_Node000007_Node000011"><a xlink:title=" ">
<path fill="none" stroke="#63b8ff" d="M624.18,-406.84C508.38,-404.52 205.38,-379.95 95,-191 77.62,-161.26 71.81,-138.97 95,-113.5 124.79,-80.78 431.07,-71.21 539.89,-68.82"/>
<polygon fill="#63b8ff" stroke="#63b8ff" points="539.84,-72.32 549.76,-68.62 539.69,-65.33 539.84,-72.32"/>
</a>
</g>
</g>
<!-- Node12 -->
<g id="Node000012" class="node">
<title>Node12</title>
<g id="a_Node000012"><a xlink:href="net_2coap_8h.html" target="_top" xlink:title="Generic CoAP values as defined by RFC7252.">
<polygon fill="white" stroke="#666666" points="558.12,-361.25 509.88,-361.25 509.88,-340.5 558.12,-340.5 558.12,-361.25"/>
<text text-anchor="middle" x="534" y="-347.75" font-family="Helvetica,sans-Serif" font-size="10.00">coap.h</text>
</a>
</g>
</g>
<!-- Node7&#45;&gt;Node12 -->
<g id="edge14_Node000007_Node000012" class="edge">
<title>Node7&#45;&gt;Node12</title>
<g id="a_edge14_Node000007_Node000012"><a xlink:title=" ">
<path fill="none" stroke="#63b8ff" d="M645.69,-396.84C624.22,-388.19 592.68,-375.5 568.59,-365.8"/>
<polygon fill="#63b8ff" stroke="#63b8ff" points="570.09,-362.63 559.51,-362.14 567.48,-369.13 570.09,-362.63"/>
</a>
</g>
</g>
<!-- Node13 -->
<g id="Node000013" class="node">
<title>Node13</title>
<g id="a_Node000013"><a xlink:href="inet_8h.html" target="_top" xlink:title="Definitions for internet operations.">
<polygon fill="white" stroke="#666666" points="644.25,-361.25 575.75,-361.25 575.75,-340.5 644.25,-340.5 644.25,-361.25"/>
<text text-anchor="middle" x="610" y="-347.75" font-family="Helvetica,sans-Serif" font-size="10.00">arpa/inet.h</text>
</a>
</g>
</g>
<!-- Node7&#45;&gt;Node13 -->
<g id="edge15_Node000007_Node000013" class="edge">
<title>Node7&#45;&gt;Node13</title>
<g id="a_edge15_Node000007_Node000013"><a xlink:title=" ">
<path fill="none" stroke="#63b8ff" d="M659.27,-396.84C650.91,-389.21 639.09,-378.42 629.12,-369.32"/>
<polygon fill="#63b8ff" stroke="#63b8ff" points="631.5,-366.75 621.75,-362.6 626.78,-371.92 631.5,-366.75"/>
</a>
</g>
</g>
<!-- Node7&#45;&gt;Node31 -->
<g id="edge53_Node000007_Node000031" class="edge">
<title>Node7&#45;&gt;Node31</title>
<g id="a_edge53_Node000007_Node000031"><a xlink:title=" ">
<path fill="none" stroke="#63b8ff" d="M704.49,-396.75C731.93,-388.47 771.05,-375.7 804,-361.25 838.18,-346.26 875.62,-325 899.66,-310.67"/>
<polygon fill="#63b8ff" stroke="#63b8ff" points="901.34,-313.74 908.1,-305.58 897.73,-307.74 901.34,-313.74"/>
</a>
</g>
</g>
<!-- Node8&#45;&gt;Node3 -->
<g id="edge8_Node000008_Node000003" class="edge">
<title>Node8&#45;&gt;Node3</title>
<g id="a_edge8_Node000008_Node000003"><a xlink:title=" ">
<path fill="none" stroke="#63b8ff" d="M851.35,-226.66C852.56,-217.49 854.25,-203.34 855,-191 858.46,-133.84 857.98,-66.26 857.44,-32.62"/>
<polygon fill="#63b8ff" stroke="#63b8ff" points="860.94,-32.57 857.26,-22.64 853.94,-32.7 860.94,-32.57"/>
</a>
</g>
</g>
<!-- Node14 -->
<g id="Node000014" class="node">
<title>Node14</title>
<g id="a_Node000014"><a xlink:href="af_8h.html" target="_top" xlink:title="Global UNIX address family definitions.">
<polygon fill="white" stroke="#666666" points="624.38,-191 571.62,-191 571.62,-170.25 624.38,-170.25 624.38,-191"/>
<text text-anchor="middle" x="598" y="-177.5" font-family="Helvetica,sans-Serif" font-size="10.00">net/af.h</text>
</a>
</g>
</g>
<!-- Node13&#45;&gt;Node14 -->
<g id="edge16_Node000013_Node000014" class="edge">
<title>Node13&#45;&gt;Node14</title>
<g id="a_edge16_Node000013_Node000014"><a xlink:title=" ">
<path fill="none" stroke="#63b8ff" d="M609.32,-340.35C607.44,-313.98 602.13,-239.58 599.51,-202.78"/>
<polygon fill="#63b8ff" stroke="#63b8ff" points="603.01,-202.7 598.81,-192.98 596.03,-203.2 603.01,-202.7"/>
</a>
</g>
</g>
<!-- Node15 -->
<g id="Node000015" class="node">
<title>Node15</title>
<g id="a_Node000015"><a xlink:href="bytes_8h.html" target="_top" xlink:title="System&#45;internal byte operations.">
<polygon fill="white" stroke="#666666" points="433.75,-191 362.25,-191 362.25,-170.25 433.75,-170.25 433.75,-191"/>
<text text-anchor="middle" x="398" y="-177.5" font-family="Helvetica,sans-Serif" font-size="10.00">sys/bytes.h</text>
</a>
</g>
</g>
<!-- Node13&#45;&gt;Node15 -->
<g id="edge17_Node000013_Node000015" class="edge">
<title>Node13&#45;&gt;Node15</title>
<g id="a_edge17_Node000013_Node000015"><a xlink:title=" ">
<path fill="none" stroke="#63b8ff" d="M597.69,-340.1C562.85,-312.46 463.29,-233.44 419.32,-198.54"/>
<polygon fill="#63b8ff" stroke="#63b8ff" points="421.54,-195.84 411.53,-192.37 417.19,-201.32 421.54,-195.84"/>
</a>
</g>
</g>
<!-- Node19 -->
<g id="Node000019" class="node">
<title>Node19</title>
<g id="a_Node000019"><a xlink:href="in_8h.html" target="_top" xlink:title="Main socket header.">
<polygon fill="white" stroke="#666666" points="449.75,-304.5 378.25,-304.5 378.25,-283.75 449.75,-283.75 449.75,-304.5"/>
<text text-anchor="middle" x="414" y="-291" font-family="Helvetica,sans-Serif" font-size="10.00">netinet/in.h</text>
</a>
</g>
</g>
<!-- Node13&#45;&gt;Node19 -->
<g id="edge26_Node000013_Node000019" class="edge">
<title>Node13&#45;&gt;Node19</title>
<g id="a_edge26_Node000013_Node000019"><a xlink:title=" ">
<path fill="none" stroke="#63b8ff" d="M575.41,-340.21C543.38,-331.27 495.51,-317.89 460.22,-308.03"/>
<polygon fill="#63b8ff" stroke="#63b8ff" points="461.27,-304.69 450.69,-305.37 459.38,-311.44 461.27,-304.69"/>
</a>
</g>
</g>
<!-- Node15&#45;&gt;Node6 -->
<g id="edge18_Node000015_Node000006" class="edge">
<title>Node15&#45;&gt;Node6</title>
<g id="a_edge18_Node000015_Node000006"><a xlink:title=" ">
<path fill="none" stroke="#63b8ff" d="M400.5,-169.84C402.22,-163.14 404.55,-154.01 406.67,-145.73"/>
<polygon fill="#63b8ff" stroke="#63b8ff" points="410.06,-146.6 409.14,-136.04 403.28,-144.87 410.06,-146.6"/>
</a>
</g>
</g>
<!-- Node16 -->
<g id="Node000016" class="node">
<title>Node16</title>
<g id="a_Node000016"><a xlink:href="byteorder_8h.html" target="_top" xlink:title="Functions to work with different byte orders.">
<polygon fill="white" stroke="#666666" points="777.12,-134.25 704.88,-134.25 704.88,-113.5 777.12,-113.5 777.12,-134.25"/>
<text text-anchor="middle" x="741" y="-120.75" font-family="Helvetica,sans-Serif" font-size="10.00">byteorder.h</text>
</a>
</g>
</g>
<!-- Node15&#45;&gt;Node16 -->
<g id="edge19_Node000015_Node000016" class="edge">
<title>Node15&#45;&gt;Node16</title>
<g id="a_edge19_Node000015_Node000016"><a xlink:title=" ">
<path fill="none" stroke="#63b8ff" d="M433.83,-171.98C436.93,-171.37 440.02,-170.79 443,-170.25 531.12,-154.37 634.56,-139.45 693.48,-131.3"/>
<polygon fill="#63b8ff" stroke="#63b8ff" points="693.73,-134.8 703.16,-129.97 692.77,-127.86 693.73,-134.8"/>
</a>
</g>
</g>
<!-- Node16&#45;&gt;Node3 -->
<g id="edge21_Node000016_Node000003" class="edge">
<title>Node16&#45;&gt;Node3</title>
<g id="a_edge21_Node000016_Node000003"><a xlink:title=" ">
<path fill="none" stroke="#63b8ff" d="M707.07,-113.1C673.88,-101.82 631.02,-81.61 651,-56.75 671.64,-31.07 764.99,-19.08 818.68,-14.21"/>
<polygon fill="#63b8ff" stroke="#63b8ff" points="818.96,-17.7 828.62,-13.36 818.36,-10.73 818.96,-17.7"/>
</a>
</g>
</g>
<!-- Node16&#45;&gt;Node11 -->
<g id="edge20_Node000016_Node000011" class="edge">
<title>Node16&#45;&gt;Node11</title>
<g id="a_edge20_Node000016_Node000011"><a xlink:title=" ">
<path fill="none" stroke="#63b8ff" d="M711.86,-113.09C684.9,-104.03 644.69,-90.53 615.38,-80.68"/>
<polygon fill="#63b8ff" stroke="#63b8ff" points="616.76,-77.45 606.16,-77.58 614.53,-84.09 616.76,-77.45"/>
</a>
</g>
</g>
<!-- Node17 -->
<g id="Node000017" class="node">
<title>Node17</title>
<g id="a_Node000017"><a xlink:href="endian_8h.html" target="_top" xlink:title="libc header for endian conversion">
<polygon fill="white" stroke="#666666" points="718,-77.5 660,-77.5 660,-56.75 718,-56.75 718,-77.5"/>
<text text-anchor="middle" x="689" y="-64" font-family="Helvetica,sans-Serif" font-size="10.00">endian.h</text>
</a>
</g>
</g>
<!-- Node16&#45;&gt;Node17 -->
<g id="edge22_Node000016_Node000017" class="edge">
<title>Node16&#45;&gt;Node17</title>
<g id="a_edge22_Node000016_Node000017"><a xlink:title=" ">
<path fill="none" stroke="#63b8ff" d="M731.7,-113.09C724.6,-105.61 714.63,-95.11 706.1,-86.13"/>
<polygon fill="#63b8ff" stroke="#63b8ff" points="708.68,-83.77 699.26,-78.93 703.61,-88.59 708.68,-83.77"/>
</a>
</g>
</g>
<!-- Node18 -->
<g id="Node000018" class="node">
<title>Node18</title>
<g id="a_Node000018"><a xlink:href="unaligned_8h.html" target="_top" xlink:title="Unaligned but safe memory access functions.">
<polygon fill="white" stroke="#666666" points="809.5,-77.5 736.5,-77.5 736.5,-56.75 809.5,-56.75 809.5,-77.5"/>
<text text-anchor="middle" x="773" y="-64" font-family="Helvetica,sans-Serif" font-size="10.00">unaligned.h</text>
</a>
</g>
</g>
<!-- Node16&#45;&gt;Node18 -->
<g id="edge24_Node000016_Node000018" class="edge">
<title>Node16&#45;&gt;Node18</title>
<g id="a_edge24_Node000016_Node000018"><a xlink:title=" ">
<path fill="none" stroke="#63b8ff" d="M746.72,-113.09C750.86,-106 756.6,-96.19 761.65,-87.54"/>
<polygon fill="#63b8ff" stroke="#63b8ff" points="764.54,-89.53 766.56,-79.14 758.5,-86 764.54,-89.53"/>
</a>
</g>
</g>
<!-- Node17&#45;&gt;Node3 -->
<g id="edge23_Node000017_Node000003" class="edge">
<title>Node17&#45;&gt;Node3</title>
<g id="a_edge23_Node000017_Node000003"><a xlink:title=" ">
<path fill="none" stroke="#63b8ff" d="M718.26,-56.59C746.4,-47.42 789.04,-33.52 819.62,-23.56"/>
<polygon fill="#63b8ff" stroke="#63b8ff" points="820.42,-26.98 828.85,-20.55 818.26,-20.32 820.42,-26.98"/>
</a>
</g>
</g>
<!-- Node18&#45;&gt;Node3 -->
<g id="edge25_Node000018_Node000003" class="edge">
<title>Node18&#45;&gt;Node3</title>
<g id="a_edge25_Node000018_Node000003"><a xlink:title=" ">
<path fill="none" stroke="#63b8ff" d="M788.02,-56.34C800.44,-48.24 818.32,-36.58 832.77,-27.17"/>
<polygon fill="#63b8ff" stroke="#63b8ff" points="834.38,-30.3 840.84,-21.9 830.56,-24.43 834.38,-30.3"/>
</a>
</g>
</g>
<!-- Node19&#45;&gt;Node5 -->
<g id="edge27_Node000019_Node000005" class="edge">
<title>Node19&#45;&gt;Node5</title>
<g id="a_edge27_Node000019_Node000005"><a xlink:title=" ">
<path fill="none" stroke="#63b8ff" d="M378.11,-284.93C334.65,-272.82 263.72,-245.43 235,-191 220.44,-163.41 257.47,-145.37 290.31,-135.2"/>
<polygon fill="#63b8ff" stroke="#63b8ff" points="291.11,-138.61 299.75,-132.48 289.17,-131.89 291.11,-138.61"/>
</a>
</g>
</g>
<!-- Node19&#45;&gt;Node15 -->
<g id="edge52_Node000019_Node000015" class="edge">
<title>Node19&#45;&gt;Node15</title>
<g id="a_edge52_Node000019_Node000015"><a xlink:title=" ">
<path fill="none" stroke="#63b8ff" d="M417.01,-283.58C420.64,-270.61 425.72,-246.76 421,-227 418.85,-218.01 414.61,-208.78 410.36,-201.02"/>
<polygon fill="#63b8ff" stroke="#63b8ff" points="413.42,-199.32 405.31,-192.5 407.39,-202.89 413.42,-199.32"/>
</a>
</g>
</g>
<!-- Node20 -->
<g id="Node000020" class="node">
<title>Node20</title>
<g id="a_Node000020"><a xlink:href="socket_8h.html" target="_top" xlink:title="Main socket header.">
<polygon fill="white" stroke="#666666" points="582,-247.75 506,-247.75 506,-227 582,-227 582,-247.75"/>
<text text-anchor="middle" x="544" y="-234.25" font-family="Helvetica,sans-Serif" font-size="10.00">sys/socket.h</text>
</a>
</g>
</g>
<!-- Node19&#45;&gt;Node20 -->
<g id="edge28_Node000019_Node000020" class="edge">
<title>Node19&#45;&gt;Node20</title>
<g id="a_edge28_Node000019_Node000020"><a xlink:title=" ">
<path fill="none" stroke="#63b8ff" d="M437.24,-283.34C457.67,-274.73 487.64,-262.11 510.63,-252.43"/>
<polygon fill="#63b8ff" stroke="#63b8ff" points="511.71,-255.77 519.56,-248.67 508.99,-249.32 511.71,-255.77"/>
</a>
</g>
</g>
<!-- Node28 -->
<g id="Node000028" class="node">
<title>Node28</title>
<g id="a_Node000028"><a xlink:href="protnum_8h.html" target="_top" xlink:title="Protocol number definitions.">
<polygon fill="white" stroke="#666666" points="411.5,-247.75 326.5,-247.75 326.5,-227 411.5,-227 411.5,-247.75"/>
<text text-anchor="middle" x="369" y="-234.25" font-family="Helvetica,sans-Serif" font-size="10.00">net/protnum.h</text>
</a>
</g>
</g>
<!-- Node19&#45;&gt;Node28 -->
<g id="edge42_Node000019_Node000028" class="edge">
<title>Node19&#45;&gt;Node28</title>
<g id="a_edge42_Node000019_Node000028"><a xlink:title=" ">
<path fill="none" stroke="#63b8ff" d="M405.95,-283.34C399.94,-276.02 391.53,-265.79 384.26,-256.94"/>
<polygon fill="#63b8ff" stroke="#63b8ff" points="386.99,-254.75 377.94,-249.25 381.58,-259.2 386.99,-254.75"/>
</a>
</g>
</g>
<!-- Node29 -->
<g id="Node000029" class="node">
<title>Node29</title>
<g id="a_Node000029"><a xlink:href="ipv6_2addr_8h.html" target="_top" xlink:title="Definitions for IPv6 addresses.">
<polygon fill="white" stroke="#666666" points="765.75,-247.75 676.25,-247.75 676.25,-227 765.75,-227 765.75,-247.75"/>
<text text-anchor="middle" x="721" y="-234.25" font-family="Helvetica,sans-Serif" font-size="10.00">net/ipv6/addr.h</text>
</a>
</g>
</g>
<!-- Node19&#45;&gt;Node29 -->
<g id="edge43_Node000019_Node000029" class="edge">
<title>Node19&#45;&gt;Node29</title>
<g id="a_edge43_Node000019_Node000029"><a xlink:title=" ">
<path fill="none" stroke="#63b8ff" d="M450.12,-286.68C503.02,-277.25 602.04,-259.59 664.59,-248.44"/>
<polygon fill="#63b8ff" stroke="#63b8ff" points="665.1,-251.9 674.33,-246.7 663.87,-245.01 665.1,-251.9"/>
</a>
</g>
</g>
<!-- Node20&#45;&gt;Node14 -->
<g id="edge40_Node000020_Node000014" class="edge">
<title>Node20&#45;&gt;Node14</title>
<g id="a_edge40_Node000020_Node000014"><a xlink:title=" ">
<path fill="none" stroke="#63b8ff" d="M553.65,-226.59C561.1,-219.03 571.61,-208.39 580.52,-199.35"/>
<polygon fill="#63b8ff" stroke="#63b8ff" points="582.84,-201.98 587.37,-192.41 577.85,-197.07 582.84,-201.98"/>
</a>
</g>
</g>
<!-- Node20&#45;&gt;Node15 -->
<g id="edge41_Node000020_Node000015" class="edge">
<title>Node20&#45;&gt;Node15</title>
<g id="a_edge41_Node000020_Node000015"><a xlink:title=" ">
<path fill="none" stroke="#63b8ff" d="M517.9,-226.59C494.65,-217.87 460.38,-205.02 434.43,-195.29"/>
<polygon fill="#63b8ff" stroke="#63b8ff" points="435.89,-192.09 425.29,-191.86 433.43,-198.65 435.89,-192.09"/>
</a>
</g>
</g>
<!-- Node21 -->
<g id="Node000021" class="node">
<title>Node21</title>
<g id="a_Node000021"><a xlink:title=" ">
<polygon fill="#e0e0e0" stroke="#999999" points="516,-191 452,-191 452,-170.25 516,-170.25 516,-191"/>
<text text-anchor="middle" x="484" y="-177.5" font-family="Helvetica,sans-Serif" font-size="10.00">stdalign.h</text>
</a>
</g>
</g>
<!-- Node20&#45;&gt;Node21 -->
<g id="edge29_Node000020_Node000021" class="edge">
<title>Node20&#45;&gt;Node21</title>
<g id="a_edge29_Node000020_Node000021"><a xlink:title=" ">
<path fill="none" stroke="#63b8ff" d="M533.27,-226.59C524.91,-218.96 513.09,-208.17 503.12,-199.07"/>
<polygon fill="#63b8ff" stroke="#63b8ff" points="505.5,-196.5 495.75,-192.35 500.78,-201.67 505.5,-196.5"/>
</a>
</g>
</g>
<!-- Node22 -->
<g id="Node000022" class="node">
<title>Node22</title>
<g id="a_Node000022"><a xlink:title=" ">
<polygon fill="#e0e0e0" stroke="#999999" points="981,-134.25 929,-134.25 929,-113.5 981,-113.5 981,-134.25"/>
<text text-anchor="middle" x="955" y="-120.75" font-family="Helvetica,sans-Serif" font-size="10.00">stdlib.h</text>
</a>
</g>
</g>
<!-- Node20&#45;&gt;Node22 -->
<g id="edge30_Node000020_Node000022" class="edge">
<title>Node20&#45;&gt;Node22</title>
<g id="a_edge30_Node000020_Node000022"><a xlink:title=" ">
<path fill="none" stroke="#63b8ff" d="M543.69,-226.52C543.81,-211.8 546.42,-184.31 563,-170.25 589.75,-147.57 824.52,-132.14 917.41,-126.87"/>
<polygon fill="#63b8ff" stroke="#63b8ff" points="917.47,-130.38 927.26,-126.32 917.08,-123.39 917.47,-130.38"/>
</a>
</g>
</g>
<!-- Node23 -->
<g id="Node000023" class="node">
<title>Node23</title>
<g id="a_Node000023"><a xlink:title=" ">
<polygon fill="#e0e0e0" stroke="#999999" points="1093.75,-134.25 1022.25,-134.25 1022.25,-113.5 1093.75,-113.5 1093.75,-134.25"/>
<text text-anchor="middle" x="1058" y="-120.75" font-family="Helvetica,sans-Serif" font-size="10.00">sys/types.h</text>
</a>
</g>
</g>
<!-- Node20&#45;&gt;Node23 -->
<g id="edge31_Node000020_Node000023" class="edge">
<title>Node20&#45;&gt;Node23</title>
<g id="a_edge31_Node000020_Node000023"><a xlink:title=" ">
<path fill="none" stroke="#63b8ff" d="M582.42,-233.48C680.57,-225.91 935.32,-205.17 971,-191 998.38,-180.13 1024.54,-158.13 1040.9,-142.49"/>
<polygon fill="#63b8ff" stroke="#63b8ff" points="1043.19,-145.15 1047.85,-135.63 1038.27,-140.17 1043.19,-145.15"/>
</a>
</g>
</g>
<!-- Node24 -->
<g id="Node000024" class="node">
<title>Node24</title>
<g id="a_Node000024"><a xlink:href="uio_8h.html" target="_top" xlink:title="libc header for scatter/gather I/O">
<polygon fill="white" stroke="#666666" points="961.75,-191 902.25,-191 902.25,-170.25 961.75,-170.25 961.75,-191"/>
<text text-anchor="middle" x="932" y="-177.5" font-family="Helvetica,sans-Serif" font-size="10.00">sys/uio.h</text>
</a>
</g>
</g>
<!-- Node20&#45;&gt;Node24 -->
<g id="edge32_Node000020_Node000024" class="edge">
<title>Node20&#45;&gt;Node24</title>
<g id="a_edge32_Node000020_Node000024"><a xlink:title=" ">
<path fill="none" stroke="#63b8ff" d="M582.26,-230.98C655.49,-220.64 814.87,-198.15 890.53,-187.48"/>
<polygon fill="#63b8ff" stroke="#63b8ff" points="891.02,-190.94 900.43,-186.08 890.04,-184.01 891.02,-190.94"/>
</a>
</g>
</g>
<!-- Node25 -->
<g id="Node000025" class="node">
<title>Node25</title>
<g id="a_Node000025"><a xlink:href="architecture_8h.html" target="_top" xlink:title="Platform&#45;independent access to architecture details.">
<polygon fill="white" stroke="#666666" points="187.75,-191 104.25,-191 104.25,-170.25 187.75,-170.25 187.75,-191"/>
<text text-anchor="middle" x="146" y="-177.5" font-family="Helvetica,sans-Serif" font-size="10.00">architecture.h</text>
</a>
</g>
</g>
<!-- Node20&#45;&gt;Node25 -->
<g id="edge35_Node000020_Node000025" class="edge">
<title>Node20&#45;&gt;Node25</title>
<g id="a_edge35_Node000020_Node000025"><a xlink:title=" ">
<path fill="none" stroke="#63b8ff" d="M505.84,-231.13C434.48,-221.31 280.72,-200.16 199.22,-188.95"/>
<polygon fill="#63b8ff" stroke="#63b8ff" points="200.1,-185.53 189.72,-187.64 199.15,-192.47 200.1,-185.53"/>
</a>
</g>
</g>
<!-- Node24&#45;&gt;Node22 -->
<g id="edge33_Node000024_Node000022" class="edge">
<title>Node24&#45;&gt;Node22</title>
<g id="a_edge33_Node000024_Node000022"><a xlink:title=" ">
<path fill="none" stroke="#63b8ff" d="M936.11,-169.84C938.99,-162.99 942.94,-153.59 946.48,-145.15"/>
<polygon fill="#63b8ff" stroke="#63b8ff" points="949.69,-146.55 950.34,-135.97 943.24,-143.84 949.69,-146.55"/>
</a>
</g>
</g>
<!-- Node24&#45;&gt;Node23 -->
<g id="edge34_Node000024_Node000023" class="edge">
<title>Node24&#45;&gt;Node23</title>
<g id="a_edge34_Node000024_Node000023"><a xlink:title=" ">
<path fill="none" stroke="#63b8ff" d="M954.53,-169.84C974.24,-161.27 1003.11,-148.73 1025.35,-139.06"/>
<polygon fill="#63b8ff" stroke="#63b8ff" points="1026.5,-142.38 1034.28,-135.18 1023.71,-135.96 1026.5,-142.38"/>
</a>
</g>
</g>
<!-- Node25&#45;&gt;Node3 -->
<g id="edge36_Node000025_Node000003" class="edge">
<title>Node25&#45;&gt;Node3</title>
<g id="a_edge36_Node000025_Node000003"><a xlink:title=" ">
<path fill="none" stroke="#63b8ff" d="M129.25,-169.91C108.6,-156.76 78.2,-132.7 95,-113.5 143.4,-58.18 672.72,-22.45 819.47,-13.55"/>
<polygon fill="#63b8ff" stroke="#63b8ff" points="819.25,-17.07 829.02,-12.98 818.83,-10.09 819.25,-17.07"/>
</a>
</g>
</g>
<!-- Node25&#45;&gt;Node5 -->
<g id="edge37_Node000025_Node000005" class="edge">
<title>Node25&#45;&gt;Node5</title>
<g id="a_edge37_Node000025_Node000005"><a xlink:title=" ">
<path fill="none" stroke="#63b8ff" d="M179.61,-169.84C210.54,-160.83 256.61,-147.41 290.37,-137.58"/>
<polygon fill="#63b8ff" stroke="#63b8ff" points="291.23,-140.97 299.86,-134.82 289.28,-134.25 291.23,-140.97"/>
</a>
</g>
</g>
<!-- Node26 -->
<g id="Node000026" class="node">
<title>Node26</title>
<g id="a_Node000026"><a xlink:title=" ">
<polygon fill="#e0e0e0" stroke="#999999" points="156.38,-134.25 103.62,-134.25 103.62,-113.5 156.38,-113.5 156.38,-134.25"/>
<text text-anchor="middle" x="130" y="-120.75" font-family="Helvetica,sans-Serif" font-size="10.00">limits.h</text>
</a>
</g>
</g>
<!-- Node25&#45;&gt;Node26 -->
<g id="edge38_Node000025_Node000026" class="edge">
<title>Node25&#45;&gt;Node26</title>
<g id="a_edge38_Node000025_Node000026"><a xlink:title=" ">
<path fill="none" stroke="#63b8ff" d="M143.14,-169.84C141.16,-163.06 138.45,-153.8 136.01,-145.44"/>
<polygon fill="#63b8ff" stroke="#63b8ff" points="139.42,-144.65 133.26,-136.03 132.71,-146.61 139.42,-144.65"/>
</a>
</g>
</g>
<!-- Node27 -->
<g id="Node000027" class="node">
<title>Node27</title>
<g id="a_Node000027"><a xlink:title=" ">
<polygon fill="#e0e0e0" stroke="#999999" points="283.88,-134.25 174.12,-134.25 174.12,-113.5 283.88,-113.5 283.88,-134.25"/>
<text text-anchor="middle" x="229" y="-120.75" font-family="Helvetica,sans-Serif" font-size="10.00">architecture_arch.h</text>
</a>
</g>
</g>
<!-- Node25&#45;&gt;Node27 -->
<g id="edge39_Node000025_Node000027" class="edge">
<title>Node25&#45;&gt;Node27</title>
<g id="a_edge39_Node000025_Node000027"><a xlink:title=" ">
<path fill="none" stroke="#63b8ff" d="M160.84,-169.84C173.11,-161.74 190.79,-150.08 205.06,-140.67"/>
<polygon fill="#63b8ff" stroke="#63b8ff" points="206.61,-143.84 213.03,-135.41 202.75,-138 206.61,-143.84"/>
</a>
</g>
</g>
<!-- Node29&#45;&gt;Node10 -->
<g id="edge44_Node000029_Node000010" class="edge">
<title>Node29&#45;&gt;Node10</title>
<g id="a_edge44_Node000029_Node000010"><a xlink:title=" ">
<path fill="none" stroke="#63b8ff" d="M766.05,-229.82C821.82,-221.54 919.63,-206.5 1003,-191 1100.47,-172.87 1214.18,-147.88 1274.1,-134.4"/>
<polygon fill="#63b8ff" stroke="#63b8ff" points="1274.54,-137.89 1283.53,-132.28 1273,-131.06 1274.54,-137.89"/>
</a>
</g>
</g>
<!-- Node29&#45;&gt;Node11 -->
<g id="edge45_Node000029_Node000011" class="edge">
<title>Node29&#45;&gt;Node11</title>
<g id="a_edge45_Node000029_Node000011"><a xlink:title=" ">
<path fill="none" stroke="#63b8ff" d="M712.9,-226.85C689.91,-199.79 623.91,-122.15 593.59,-86.46"/>
<polygon fill="#63b8ff" stroke="#63b8ff" points="596.49,-84.47 587.35,-79.12 591.15,-89.01 596.49,-84.47"/>
</a>
</g>
</g>
<!-- Node29&#45;&gt;Node16 -->
<g id="edge46_Node000029_Node000016" class="edge">
<title>Node29&#45;&gt;Node16</title>
<g id="a_edge46_Node000029_Node000016"><a xlink:title=" ">
<path fill="none" stroke="#63b8ff" d="M722.71,-226.87C725.91,-209.02 732.89,-170.11 737.24,-145.84"/>
<polygon fill="#63b8ff" stroke="#63b8ff" points="740.65,-146.63 738.97,-136.16 733.76,-145.39 740.65,-146.63"/>
</a>
</g>
</g>
<!-- Node30 -->
<g id="Node000030" class="node">
<title>Node30</title>
<g id="a_Node000030"><a xlink:href="ipv4_2addr_8h.html" target="_top" xlink:title="IPv4 address type and helper functions definitions.">
<polygon fill="white" stroke="#666666" points="845.75,-191 756.25,-191 756.25,-170.25 845.75,-170.25 845.75,-191"/>
<text text-anchor="middle" x="801" y="-177.5" font-family="Helvetica,sans-Serif" font-size="10.00">net/ipv4/addr.h</text>
</a>
</g>
</g>
<!-- Node29&#45;&gt;Node30 -->
<g id="edge47_Node000029_Node000030" class="edge">
<title>Node29&#45;&gt;Node30</title>
<g id="a_edge47_Node000029_Node000030"><a xlink:title=" ">
<path fill="none" stroke="#63b8ff" d="M735.3,-226.59C747.02,-218.57 763.84,-207.06 777.53,-197.69"/>
<polygon fill="#63b8ff" stroke="#63b8ff" points="779.3,-200.72 785.57,-192.18 775.34,-194.94 779.3,-200.72"/>
</a>
</g>
</g>
<!-- Node30&#45;&gt;Node3 -->
<g id="edge49_Node000030_Node000003" class="edge">
<title>Node30&#45;&gt;Node3</title>
<g id="a_edge49_Node000030_Node000003"><a xlink:title=" ">
<path fill="none" stroke="#63b8ff" d="M804.17,-170.1C812.99,-143.62 837.93,-68.68 850.12,-32.05"/>
<polygon fill="#63b8ff" stroke="#63b8ff" points="853.41,-33.25 853.25,-22.65 846.77,-31.04 853.41,-33.25"/>
</a>
</g>
</g>
<!-- Node30&#45;&gt;Node6 -->
<g id="edge50_Node000030_Node000006" class="edge">
<title>Node30&#45;&gt;Node6</title>
<g id="a_edge50_Node000030_Node000006"><a xlink:title=" ">
<path fill="none" stroke="#63b8ff" d="M756,-173.29C679.08,-162.47 523.62,-140.59 451.02,-130.37"/>
<polygon fill="#63b8ff" stroke="#63b8ff" points="451.58,-126.91 441.19,-128.98 450.6,-133.84 451.58,-126.91"/>
</a>
</g>
</g>
<!-- Node30&#45;&gt;Node10 -->
<g id="edge48_Node000030_Node000010" class="edge">
<title>Node30&#45;&gt;Node10</title>
<g id="a_edge48_Node000030_Node000010"><a xlink:title=" ">
<path fill="none" stroke="#63b8ff" d="M845.8,-174.86C944.23,-164.4 1178.2,-139.52 1274,-129.34"/>
<polygon fill="#63b8ff" stroke="#63b8ff" points="1274.17,-132.84 1283.74,-128.3 1273.43,-125.88 1274.17,-132.84"/>
</a>
</g>
</g>
<!-- Node30&#45;&gt;Node16 -->
<g id="edge51_Node000030_Node000016" class="edge">
<title>Node30&#45;&gt;Node16</title>
<g id="a_edge51_Node000030_Node000016"><a xlink:title=" ">
<path fill="none" stroke="#63b8ff" d="M790.27,-169.84C781.91,-162.21 770.09,-151.42 760.12,-142.32"/>
<polygon fill="#63b8ff" stroke="#63b8ff" points="762.5,-139.75 752.75,-135.6 757.78,-144.92 762.5,-139.75"/>
</a>
</g>
</g>
<!-- Node31&#45;&gt;Node3 -->
<g id="edge56_Node000031_Node000003" class="edge">
<title>Node31&#45;&gt;Node3</title>
<g id="a_edge56_Node000031_Node000003"><a xlink:title=" ">
<path fill="none" stroke="#63b8ff" d="M969,-286.04C1008.16,-278.94 1066.57,-266.37 1115,-247.75 1132.96,-240.84 1135.79,-235.61 1153,-227 1245.43,-180.72 1421.14,-193.76 1356,-113.5 1297.71,-41.69 1001.49,-19.05 895.11,-13.17"/>
<polygon fill="#63b8ff" stroke="#63b8ff" points="895.36,-9.68 885.19,-12.64 894.99,-16.67 895.36,-9.68"/>
</a>
</g>
</g>
<!-- Node31&#45;&gt;Node8 -->
<g id="edge54_Node000031_Node000008" class="edge">
<title>Node31&#45;&gt;Node8</title>
<g id="a_edge54_Node000031_Node000008"><a xlink:title=" ">
<path fill="none" stroke="#63b8ff" d="M911.59,-283.34C900.71,-275.4 885.14,-264.03 872.38,-254.71"/>
<polygon fill="#63b8ff" stroke="#63b8ff" points="874.66,-252.04 864.51,-248.97 870.53,-257.69 874.66,-252.04"/>
</a>
</g>
</g>
<!-- Node31&#45;&gt;Node9 -->
<g id="edge55_Node000031_Node000009" class="edge">
<title>Node31&#45;&gt;Node9</title>
<g id="a_edge55_Node000031_Node000009"><a xlink:title=" ">
<path fill="none" stroke="#63b8ff" d="M937.87,-283.34C948.21,-275.47 962.97,-264.25 975.15,-254.99"/>
<polygon fill="#63b8ff" stroke="#63b8ff" points="977.19,-257.83 983.03,-248.99 972.96,-252.26 977.19,-257.83"/>
</a>
</g>
</g>
<!-- Node31&#45;&gt;Node14 -->
<g id="edge59_Node000031_Node000014" class="edge">
<title>Node31&#45;&gt;Node14</title>
<g id="a_edge59_Node000031_Node000014"><a xlink:title=" ">
<path fill="none" stroke="#63b8ff" d="M881.03,-293.05C827.64,-291.29 736.17,-282.81 667,-247.75 644.45,-236.32 624.3,-215.07 611.68,-199.74"/>
<polygon fill="#63b8ff" stroke="#63b8ff" points="614.73,-197.96 605.78,-192.29 609.24,-202.3 614.73,-197.96"/>
</a>
</g>
</g>
<!-- Node31&#45;&gt;Node22 -->
<g id="edge57_Node000031_Node000022" class="edge">
<title>Node31&#45;&gt;Node22</title>
<g id="a_edge57_Node000031_Node000022"><a xlink:title=" ">
<path fill="none" stroke="#63b8ff" d="M923.56,-283.56C922.01,-270.14 920.85,-245.34 930,-227 940.83,-205.3 961,-213.09 971,-191 977.7,-176.21 972.59,-158.23 966.42,-144.75"/>
<polygon fill="#63b8ff" stroke="#63b8ff" points="969.6,-143.3 961.92,-136.01 963.38,-146.5 969.6,-143.3"/>
</a>
</g>
</g>
<!-- Node31&#45;&gt;Node23 -->
<g id="edge58_Node000031_Node000023" class="edge">
<title>Node31&#45;&gt;Node23</title>
<g id="a_edge58_Node000031_Node000023"><a xlink:title=" ">
<path fill="none" stroke="#63b8ff" d="M929.76,-283.28C936.39,-269.98 949.17,-245.76 963,-227 986.66,-194.91 1019.18,-161.86 1039.38,-142.35"/>
<polygon fill="#63b8ff" stroke="#63b8ff" points="1041.56,-145.11 1046.37,-135.68 1036.72,-140.05 1041.56,-145.11"/>
</a>
</g>
</g>
<!-- Node31&#45;&gt;Node29 -->
<g id="edge65_Node000031_Node000029" class="edge">
<title>Node31&#45;&gt;Node29</title>
<g id="a_edge65_Node000031_Node000029"><a xlink:title=" ">
<path fill="none" stroke="#63b8ff" d="M888.53,-283.34C854.98,-274.33 805.04,-260.93 768.41,-251.1"/>
<polygon fill="#63b8ff" stroke="#63b8ff" points="769.53,-247.77 758.96,-248.56 767.71,-254.54 769.53,-247.77"/>
</a>
</g>
</g>
<!-- Node31&#45;&gt;Node30 -->
<g id="edge64_Node000031_Node000030" class="edge">
<title>Node31&#45;&gt;Node30</title>
<g id="a_edge64_Node000031_Node000030"><a xlink:title=" ">
<path fill="none" stroke="#63b8ff" d="M881.09,-285.58C857.82,-279.32 830.67,-268.01 814,-247.75 803.65,-235.17 800.71,-216.72 800.19,-202.5"/>
<polygon fill="#63b8ff" stroke="#63b8ff" points="803.69,-202.87 800.21,-192.86 796.69,-202.85 803.69,-202.87"/>
</a>
</g>
</g>
<!-- Node32 -->
<g id="Node000032" class="node">
<title>Node32</title>
<g id="a_Node000032"><a xlink:href="sock_8h.html" target="_top" xlink:title="Common sock API definitions.">
<polygon fill="white" stroke="#666666" points="1106.12,-247.75 1039.88,-247.75 1039.88,-227 1106.12,-227 1106.12,-247.75"/>
<text text-anchor="middle" x="1073" y="-234.25" font-family="Helvetica,sans-Serif" font-size="10.00">net/sock.h</text>
</a>
</g>
</g>
<!-- Node31&#45;&gt;Node32 -->
<g id="edge60_Node000031_Node000032" class="edge">
<title>Node31&#45;&gt;Node32</title>
<g id="a_edge60_Node000031_Node000032"><a xlink:title=" ">
<path fill="none" stroke="#63b8ff" d="M951.46,-283.34C975.03,-274.62 1009.76,-261.77 1036.07,-252.04"/>
<polygon fill="#63b8ff" stroke="#63b8ff" points="1037.19,-255.36 1045.35,-248.6 1034.76,-248.79 1037.19,-255.36"/>
</a>
</g>
</g>
<!-- Node34 -->
<g id="Node000034" class="node">
<title>Node34</title>
<g id="a_Node000034"><a xlink:title=" ">
<polygon fill="#e0e0e0" stroke="#999999" points="1241.88,-247.75 1162.12,-247.75 1162.12,-227 1241.88,-227 1241.88,-247.75"/>
<text text-anchor="middle" x="1202" y="-234.25" font-family="Helvetica,sans-Serif" font-size="10.00">sock_types.h</text>
</a>
</g>
</g>
<!-- Node31&#45;&gt;Node34 -->
<g id="edge66_Node000031_Node000034" class="edge">
<title>Node31&#45;&gt;Node34</title>
<g id="a_edge66_Node000031_Node000034"><a xlink:title=" ">
<path fill="none" stroke="#63b8ff" d="M968.89,-284.45C1018.35,-274.67 1098.64,-258.8 1150.89,-248.48"/>
<polygon fill="#63b8ff" stroke="#63b8ff" points="1151.3,-251.96 1160.43,-246.59 1149.94,-245.1 1151.3,-251.96"/>
</a>
</g>
</g>
<!-- Node32&#45;&gt;Node3 -->
<g id="edge61_Node000032_Node000003" class="edge">
<title>Node32&#45;&gt;Node3</title>
<g id="a_edge61_Node000032_Node000003"><a xlink:title=" ">
<path fill="none" stroke="#63b8ff" d="M1106.44,-228.04C1137.72,-219.49 1181.09,-205.43 1191,-191 1196.22,-183.4 1195.41,-178.35 1191,-170.25 1131.06,-60.27 968.54,-25.65 894.57,-15.4"/>
<polygon fill="#63b8ff" stroke="#63b8ff" points="895.36,-11.97 884.99,-14.15 894.46,-18.91 895.36,-11.97"/>
</a>
</g>
</g>
<!-- Node32&#45;&gt;Node6 -->
<g id="edge62_Node000032_Node000006" class="edge">
<title>Node32&#45;&gt;Node6</title>
<g id="a_edge62_Node000032_Node000006"><a xlink:title=" ">
<path fill="none" stroke="#63b8ff" d="M1039.59,-228.62C1036.69,-228.04 1033.8,-227.49 1031,-227 905.66,-205.12 872.6,-211.33 747,-191 690.08,-181.79 526.25,-148.4 450.84,-132.89"/>
<polygon fill="#63b8ff" stroke="#63b8ff" points="451.94,-129.54 441.44,-130.96 450.52,-136.4 451.94,-129.54"/>
</a>
</g>
</g>
<!-- Node33 -->
<g id="Node000033" class="node">
<title>Node33</title>
<g id="a_Node000033"><a xlink:href="iolist_8h.html" target="_top" xlink:title="iolist scatter / gather IO">
<polygon fill="white" stroke="#666666" points="1181.5,-191 1132.5,-191 1132.5,-170.25 1181.5,-170.25 1181.5,-191"/>
<text text-anchor="middle" x="1157" y="-177.5" font-family="Helvetica,sans-Serif" font-size="10.00">iolist.h</text>
</a>
</g>
</g>
<!-- Node32&#45;&gt;Node33 -->
<g id="edge63_Node000032_Node000033" class="edge">
<title>Node32&#45;&gt;Node33</title>
<g id="a_edge63_Node000032_Node000033"><a xlink:title=" ">
<path fill="none" stroke="#63b8ff" d="M1088.02,-226.59C1100.44,-218.49 1118.32,-206.83 1132.77,-197.42"/>
<polygon fill="#63b8ff" stroke="#63b8ff" points="1134.38,-200.55 1140.84,-192.15 1130.56,-194.68 1134.38,-200.55"/>
</a>
</g>
</g>
<!-- Node35&#45;&gt;Node3 -->
<g id="edge70_Node000035_Node000003" class="edge">
<title>Node35&#45;&gt;Node3</title>
<g id="a_edge70_Node000035_Node000003"><a xlink:title=" ">
<path fill="none" stroke="#63b8ff" d="M1430.44,-340.2C1445.62,-321.74 1476,-279.67 1476,-238.38 1476,-238.38 1476,-238.38 1476,-122.88 1476,-49.2 1395.31,-75.23 1324,-56.75 1168.43,-16.43 975.27,-11.31 894.86,-11.08"/>
<polygon fill="#63b8ff" stroke="#63b8ff" points="895.35,-7.58 885.35,-11.08 895.35,-14.58 895.35,-7.58"/>
</a>
</g>
</g>
<!-- Node35&#45;&gt;Node10 -->
<g id="edge69_Node000035_Node000010" class="edge">
<title>Node35&#45;&gt;Node10</title>
<g id="a_edge69_Node000035_Node000010"><a xlink:title=" ">
<path fill="none" stroke="#63b8ff" d="M1417.5,-340.12C1405,-313.07 1368.79,-234.9 1338,-170.25 1334.01,-161.87 1329.55,-152.65 1325.7,-144.72"/>
<polygon fill="#63b8ff" stroke="#63b8ff" points="1328.95,-143.41 1321.42,-135.95 1322.66,-146.48 1328.95,-143.41"/>
</a>
</g>
</g>
<!-- Node35&#45;&gt;Node31 -->
<g id="edge71_Node000035_Node000031" class="edge">
<title>Node35&#45;&gt;Node31</title>
<g id="a_edge71_Node000035_Node000031"><a xlink:title=" ">
<path fill="none" stroke="#63b8ff" d="M1379.09,-342.53C1374.34,-341.81 1369.57,-341.11 1365,-340.5 1226.87,-322.04 1063.48,-306.95 980.05,-299.73"/>
<polygon fill="#63b8ff" stroke="#63b8ff" points="980.59,-296.26 970.33,-298.89 979.99,-303.24 980.59,-296.26"/>
</a>
</g>
</g>
<!-- Node36 -->
<g id="Node000036" class="node">
<title>Node36</title>
<g id="a_Node000036"><a xlink:href="sock_2tcp_8h.html" target="_top" xlink:title="TCP sock definitions.">
<polygon fill="white" stroke="#666666" points="1312.12,-304.5 1227.88,-304.5 1227.88,-283.75 1312.12,-283.75 1312.12,-304.5"/>
<text text-anchor="middle" x="1270" y="-291" font-family="Helvetica,sans-Serif" font-size="10.00">net/sock/tcp.h</text>
</a>
</g>
</g>
<!-- Node35&#45;&gt;Node36 -->
<g id="edge72_Node000035_Node000036" class="edge">
<title>Node35&#45;&gt;Node36</title>
<g id="a_edge72_Node000035_Node000036"><a xlink:title=" ">
<path fill="none" stroke="#63b8ff" d="M1394.83,-340.09C1370.58,-331.36 1334.85,-318.48 1307.82,-308.75"/>
<polygon fill="#63b8ff" stroke="#63b8ff" points="1309.21,-305.53 1298.62,-305.43 1306.84,-312.12 1309.21,-305.53"/>
</a>
</g>
</g>
<!-- Node36&#45;&gt;Node3 -->
<g id="edge74_Node000036_Node000003" class="edge">
<title>Node36&#45;&gt;Node3</title>
<g id="a_edge74_Node000036_Node000003"><a xlink:title=" ">
<path fill="none" stroke="#63b8ff" d="M1283.73,-283.44C1320.07,-256.58 1413.47,-178.83 1376,-113.5 1351.15,-70.17 1326.44,-72.38 1279,-56.75 1208.09,-33.39 985,-18.58 895.1,-13.42"/>
<polygon fill="#63b8ff" stroke="#63b8ff" points="895.52,-9.94 885.34,-12.87 895.12,-16.93 895.52,-9.94"/>
</a>
</g>
</g>
<!-- Node36&#45;&gt;Node9 -->
<g id="edge73_Node000036_Node000009" class="edge">
<title>Node36&#45;&gt;Node9</title>
<g id="a_edge73_Node000036_Node000009"><a xlink:title=" ">
<path fill="none" stroke="#63b8ff" d="M1227.47,-286.13C1181.76,-278.37 1106.74,-264.95 1033.37,-248.16"/>
<polygon fill="#63b8ff" stroke="#63b8ff" points="1034.57,-244.85 1024.04,-246 1032.99,-251.67 1034.57,-244.85"/>
</a>
</g>
</g>
<!-- Node36&#45;&gt;Node22 -->
<g id="edge75_Node000036_Node000022" class="edge">
<title>Node36&#45;&gt;Node22</title>
<g id="a_edge75_Node000036_Node000022"><a xlink:title=" ">
<path fill="none" stroke="#63b8ff" d="M1268.86,-283.51C1266.92,-270.04 1262.05,-245.16 1251,-227 1231.92,-195.64 1223.66,-187 1191,-170.25 1173.56,-161.31 1054.59,-141.05 992.52,-130.9"/>
<polygon fill="#63b8ff" stroke="#63b8ff" points="993.2,-127.47 982.77,-129.32 992.08,-134.38 993.2,-127.47"/>
</a>
</g>
</g>
<!-- Node36&#45;&gt;Node23 -->
<g id="edge76_Node000036_Node000023" class="edge">
<title>Node36&#45;&gt;Node23</title>
<g id="a_edge76_Node000036_Node000023"><a xlink:title=" ">
<path fill="none" stroke="#63b8ff" d="M1275.64,-283.35C1282.49,-270.11 1292.17,-245.97 1284,-227 1269.48,-193.29 1255.99,-188.24 1224,-170.25 1186.91,-149.4 1139.72,-137.7 1105.14,-131.43"/>
<polygon fill="#63b8ff" stroke="#63b8ff" points="1105.87,-128.01 1095.42,-129.76 1104.69,-134.91 1105.87,-128.01"/>
</a>
</g>
</g>
<!-- Node36&#45;&gt;Node32 -->
<g id="edge77_Node000036_Node000032" class="edge">
<title>Node36&#45;&gt;Node32</title>
<g id="a_edge77_Node000036_Node000032"><a xlink:title=" ">
<path fill="none" stroke="#63b8ff" d="M1234.78,-283.34C1202.02,-274.23 1153.08,-260.63 1117.61,-250.77"/>
<polygon fill="#63b8ff" stroke="#63b8ff" points="1118.63,-247.42 1108.06,-248.12 1116.76,-254.17 1118.63,-247.42"/>
</a>
</g>
</g>
<!-- Node36&#45;&gt;Node34 -->
<g id="edge78_Node000036_Node000034" class="edge">
<title>Node36&#45;&gt;Node34</title>
<g id="a_edge78_Node000036_Node000034"><a xlink:title=" ">
<path fill="none" stroke="#63b8ff" d="M1257.84,-283.34C1248.17,-275.55 1234.42,-264.47 1222.98,-255.26"/>
<polygon fill="#63b8ff" stroke="#63b8ff" points="1225.21,-252.57 1215.23,-249.03 1220.82,-258.03 1225.21,-252.57"/>
</a>
</g>
</g>
</g>
</svg>
