<?xml version="1.0" encoding="UTF-8" standalone="no"?>
<!DOCTYPE svg PUBLIC "-//W3C//DTD SVG 1.1//EN"
 "http://www.w3.org/Graphics/SVG/1.1/DTD/svg11.dtd">
<!-- Generated by graphviz version 12.1.2 (0)
 -->
<!-- Title: sys/include/luid.h Pages: 1 -->
<svg width="837pt" height="313pt"
 viewBox="0.00 0.00 836.53 312.50" xmlns="http://www.w3.org/2000/svg" xmlns:xlink="http://www.w3.org/1999/xlink">
<g id="graph0" class="graph" transform="scale(1 1) rotate(0) translate(4 308.5)">
<title>sys/include/luid.h</title>
<!-- Node1 -->
<g id="Node000001" class="node">
<title>Node1</title>
<g id="a_Node000001"><a xlink:title="Header of the unique ID generation module.">
<polygon fill="#999999" stroke="#666666" points="479.88,-304.5 379.12,-304.5 379.12,-283.75 479.88,-283.75 479.88,-304.5"/>
<text text-anchor="middle" x="429.5" y="-291" font-family="Helvetica,sans-Serif" font-size="10.00">sys/include/luid.h</text>
</a>
</g>
</g>
<!-- Node2 -->
<g id="Node000002" class="node">
<title>Node2</title>
<g id="a_Node000002"><a xlink:title=" ">
<polygon fill="#e0e0e0" stroke="#999999" points="55,-77.5 0,-77.5 0,-56.75 55,-56.75 55,-77.5"/>
<text text-anchor="middle" x="27.5" y="-64" font-family="Helvetica,sans-Serif" font-size="10.00">stddef.h</text>
</a>
</g>
</g>
<!-- Node1&#45;&gt;Node2 -->
<g id="edge1_Node000001_Node000002" class="edge">
<title>Node1&#45;&gt;Node2</title>
<g id="a_edge1_Node000001_Node000002"><a xlink:title=" ">
<path fill="none" stroke="#63b8ff" d="M378.86,-292.19C285.84,-287.33 90.42,-261.67 15.5,-134.25 7.28,-120.26 11.53,-101.96 17.13,-88.16"/>
<polygon fill="#63b8ff" stroke="#63b8ff" points="20.25,-89.73 21.27,-79.19 13.9,-86.8 20.25,-89.73"/>
</a>
</g>
</g>
<!-- Node3 -->
<g id="Node000003" class="node">
<title>Node3</title>
<g id="a_Node000003"><a xlink:href="eui48_8h.html" target="_top" xlink:title="Definition and IPv6 IID conversion for IEEE EUI&#45;48 identifiers.">
<polygon fill="white" stroke="#666666" points="577.88,-247.75 507.12,-247.75 507.12,-227 577.88,-227 577.88,-247.75"/>
<text text-anchor="middle" x="542.5" y="-234.25" font-family="Helvetica,sans-Serif" font-size="10.00">net/eui48.h</text>
</a>
</g>
</g>
<!-- Node1&#45;&gt;Node3 -->
<g id="edge2_Node000001_Node000003" class="edge">
<title>Node1&#45;&gt;Node3</title>
<g id="a_edge2_Node000001_Node000003"><a xlink:title=" ">
<path fill="none" stroke="#63b8ff" d="M449.7,-283.34C467.06,-274.93 492.33,-262.68 512.13,-253.09"/>
<polygon fill="#63b8ff" stroke="#63b8ff" points="513.64,-256.25 521.11,-248.74 510.59,-249.95 513.64,-256.25"/>
</a>
</g>
</g>
<!-- Node5 -->
<g id="Node000005" class="node">
<title>Node5</title>
<g id="a_Node000005"><a xlink:href="eui64_8h.html" target="_top" xlink:title="EUI&#45;64 data type definition.">
<polygon fill="white" stroke="#666666" points="577.88,-191 507.12,-191 507.12,-170.25 577.88,-170.25 577.88,-191"/>
<text text-anchor="middle" x="542.5" y="-177.5" font-family="Helvetica,sans-Serif" font-size="10.00">net/eui64.h</text>
</a>
</g>
</g>
<!-- Node1&#45;&gt;Node5 -->
<g id="edge13_Node000001_Node000005" class="edge">
<title>Node1&#45;&gt;Node5</title>
<g id="a_edge13_Node000001_Node000005"><a xlink:title=" ">
<path fill="none" stroke="#63b8ff" d="M439.13,-283.62C458.05,-264.95 500.32,-223.24 524.54,-199.35"/>
<polygon fill="#63b8ff" stroke="#63b8ff" points="526.83,-202 531.49,-192.49 521.91,-197.02 526.83,-202"/>
</a>
</g>
</g>
<!-- Node10 -->
<g id="Node000010" class="node">
<title>Node10</title>
<g id="a_Node000010"><a xlink:href="drivers_2include_2net_2netdev_8h.html" target="_top" xlink:title="Definitions low&#45;level network driver interface.">
<polygon fill="white" stroke="#666666" points="400.88,-247.75 324.12,-247.75 324.12,-227 400.88,-227 400.88,-247.75"/>
<text text-anchor="middle" x="362.5" y="-234.25" font-family="Helvetica,sans-Serif" font-size="10.00">net/netdev.h</text>
</a>
</g>
</g>
<!-- Node1&#45;&gt;Node10 -->
<g id="edge14_Node000001_Node000010" class="edge">
<title>Node1&#45;&gt;Node10</title>
<g id="a_edge14_Node000001_Node000010"><a xlink:title=" ">
<path fill="none" stroke="#63b8ff" d="M417.52,-283.34C407.99,-275.55 394.44,-264.47 383.17,-255.26"/>
<polygon fill="#63b8ff" stroke="#63b8ff" points="385.5,-252.65 375.55,-249.04 381.08,-258.07 385.5,-252.65"/>
</a>
</g>
</g>
<!-- Node4 -->
<g id="Node000004" class="node">
<title>Node4</title>
<g id="a_Node000004"><a xlink:title=" ">
<polygon fill="#e0e0e0" stroke="#999999" points="505.88,-20.75 453.12,-20.75 453.12,0 505.88,0 505.88,-20.75"/>
<text text-anchor="middle" x="479.5" y="-7.25" font-family="Helvetica,sans-Serif" font-size="10.00">stdint.h</text>
</a>
</g>
</g>
<!-- Node3&#45;&gt;Node4 -->
<g id="edge3_Node000003_Node000004" class="edge">
<title>Node3&#45;&gt;Node4</title>
<g id="a_edge3_Node000003_Node000004"><a xlink:title=" ">
<path fill="none" stroke="#63b8ff" d="M578.1,-228.49C667.46,-207.19 888.77,-144.12 812.5,-56.75 774.59,-13.32 596.79,-9.9 517.66,-10.6"/>
<polygon fill="#63b8ff" stroke="#63b8ff" points="517.75,-7.1 507.79,-10.72 517.84,-14.1 517.75,-7.1"/>
</a>
</g>
</g>
<!-- Node3&#45;&gt;Node5 -->
<g id="edge4_Node000003_Node000005" class="edge">
<title>Node3&#45;&gt;Node5</title>
<g id="a_edge4_Node000003_Node000005"><a xlink:title=" ">
<path fill="none" stroke="#63b8ff" d="M542.5,-226.59C542.5,-219.97 542.5,-210.97 542.5,-202.77"/>
<polygon fill="#63b8ff" stroke="#63b8ff" points="546,-202.84 542.5,-192.84 539,-202.84 546,-202.84"/>
</a>
</g>
</g>
<!-- Node5&#45;&gt;Node4 -->
<g id="edge5_Node000005_Node000004" class="edge">
<title>Node5&#45;&gt;Node4</title>
<g id="a_edge5_Node000005_Node000004"><a xlink:title=" ">
<path fill="none" stroke="#63b8ff" d="M538.93,-170.1C528.97,-143.5 500.71,-68.02 487.06,-31.57"/>
<polygon fill="#63b8ff" stroke="#63b8ff" points="490.5,-30.77 483.72,-22.63 483.95,-33.23 490.5,-30.77"/>
</a>
</g>
</g>
<!-- Node6 -->
<g id="Node000006" class="node">
<title>Node6</title>
<g id="a_Node000006"><a xlink:href="byteorder_8h.html" target="_top" xlink:title="Functions to work with different byte orders.">
<polygon fill="white" stroke="#666666" points="694.62,-134.25 622.38,-134.25 622.38,-113.5 694.62,-113.5 694.62,-134.25"/>
<text text-anchor="middle" x="658.5" y="-120.75" font-family="Helvetica,sans-Serif" font-size="10.00">byteorder.h</text>
</a>
</g>
</g>
<!-- Node5&#45;&gt;Node6 -->
<g id="edge6_Node000005_Node000006" class="edge">
<title>Node5&#45;&gt;Node6</title>
<g id="a_edge6_Node000005_Node000006"><a xlink:title=" ">
<path fill="none" stroke="#63b8ff" d="M563.24,-169.84C581.14,-161.39 607.24,-149.07 627.6,-139.46"/>
<polygon fill="#63b8ff" stroke="#63b8ff" points="629.02,-142.66 636.57,-135.22 626.04,-136.33 629.02,-142.66"/>
</a>
</g>
</g>
<!-- Node6&#45;&gt;Node4 -->
<g id="edge8_Node000006_Node000004" class="edge">
<title>Node6&#45;&gt;Node4</title>
<g id="a_edge8_Node000006_Node000004"><a xlink:title=" ">
<path fill="none" stroke="#63b8ff" d="M673.74,-113.12C692.5,-99.91 720.09,-75.8 704.5,-56.75 681.3,-28.41 575.39,-17.37 517.53,-13.4"/>
<polygon fill="#63b8ff" stroke="#63b8ff" points="518.01,-9.93 507.81,-12.78 517.56,-16.91 518.01,-9.93"/>
</a>
</g>
</g>
<!-- Node7 -->
<g id="Node000007" class="node">
<title>Node7</title>
<g id="a_Node000007"><a xlink:title=" ">
<polygon fill="#e0e0e0" stroke="#999999" points="803.88,-77.5 751.12,-77.5 751.12,-56.75 803.88,-56.75 803.88,-77.5"/>
<text text-anchor="middle" x="777.5" y="-64" font-family="Helvetica,sans-Serif" font-size="10.00">string.h</text>
</a>
</g>
</g>
<!-- Node6&#45;&gt;Node7 -->
<g id="edge7_Node000006_Node000007" class="edge">
<title>Node6&#45;&gt;Node7</title>
<g id="a_edge7_Node000006_Node000007"><a xlink:title=" ">
<path fill="none" stroke="#63b8ff" d="M679.77,-113.09C698.22,-104.6 725.16,-92.2 746.09,-82.58"/>
<polygon fill="#63b8ff" stroke="#63b8ff" points="747.41,-85.82 755.03,-78.46 744.49,-79.46 747.41,-85.82"/>
</a>
</g>
</g>
<!-- Node8 -->
<g id="Node000008" class="node">
<title>Node8</title>
<g id="a_Node000008"><a xlink:href="endian_8h.html" target="_top" xlink:title="libc header for endian conversion">
<polygon fill="white" stroke="#666666" points="603.5,-77.5 545.5,-77.5 545.5,-56.75 603.5,-56.75 603.5,-77.5"/>
<text text-anchor="middle" x="574.5" y="-64" font-family="Helvetica,sans-Serif" font-size="10.00">endian.h</text>
</a>
</g>
</g>
<!-- Node6&#45;&gt;Node8 -->
<g id="edge9_Node000006_Node000008" class="edge">
<title>Node6&#45;&gt;Node8</title>
<g id="a_edge9_Node000006_Node000008"><a xlink:title=" ">
<path fill="none" stroke="#63b8ff" d="M643.48,-113.09C631.06,-104.99 613.18,-93.33 598.73,-83.92"/>
<polygon fill="#63b8ff" stroke="#63b8ff" points="600.94,-81.18 590.66,-78.65 597.12,-87.05 600.94,-81.18"/>
</a>
</g>
</g>
<!-- Node9 -->
<g id="Node000009" class="node">
<title>Node9</title>
<g id="a_Node000009"><a xlink:href="unaligned_8h.html" target="_top" xlink:title="Unaligned but safe memory access functions.">
<polygon fill="white" stroke="#666666" points="695,-77.5 622,-77.5 622,-56.75 695,-56.75 695,-77.5"/>
<text text-anchor="middle" x="658.5" y="-64" font-family="Helvetica,sans-Serif" font-size="10.00">unaligned.h</text>
</a>
</g>
</g>
<!-- Node6&#45;&gt;Node9 -->
<g id="edge11_Node000006_Node000009" class="edge">
<title>Node6&#45;&gt;Node9</title>
<g id="a_edge11_Node000006_Node000009"><a xlink:title=" ">
<path fill="none" stroke="#63b8ff" d="M658.5,-113.09C658.5,-106.47 658.5,-97.47 658.5,-89.27"/>
<polygon fill="#63b8ff" stroke="#63b8ff" points="662,-89.34 658.5,-79.34 655,-89.34 662,-89.34"/>
</a>
</g>
</g>
<!-- Node8&#45;&gt;Node4 -->
<g id="edge10_Node000008_Node000004" class="edge">
<title>Node8&#45;&gt;Node4</title>
<g id="a_edge10_Node000008_Node000004"><a xlink:title=" ">
<path fill="none" stroke="#63b8ff" d="M557.52,-56.34C543.2,-48.08 522.46,-36.13 505.96,-26.63"/>
<polygon fill="#63b8ff" stroke="#63b8ff" points="508.06,-23.8 497.65,-21.83 504.56,-29.86 508.06,-23.8"/>
</a>
</g>
</g>
<!-- Node9&#45;&gt;Node4 -->
<g id="edge12_Node000009_Node000004" class="edge">
<title>Node9&#45;&gt;Node4</title>
<g id="a_edge12_Node000009_Node000004"><a xlink:title=" ">
<path fill="none" stroke="#63b8ff" d="M626.5,-56.34C595.82,-46.95 549.52,-32.79 517.1,-22.88"/>
<polygon fill="#63b8ff" stroke="#63b8ff" points="518.3,-19.58 507.71,-20 516.25,-26.28 518.3,-19.58"/>
</a>
</g>
</g>
<!-- Node10&#45;&gt;Node4 -->
<g id="edge15_Node000010_Node000004" class="edge">
<title>Node10&#45;&gt;Node4</title>
<g id="a_edge15_Node000010_Node000004"><a xlink:title=" ">
<path fill="none" stroke="#63b8ff" d="M401.02,-228.32C422.03,-221.86 446.53,-210.51 460.5,-191 494.95,-142.87 488.93,-68.07 483.39,-32.09"/>
<polygon fill="#63b8ff" stroke="#63b8ff" points="486.9,-31.85 481.77,-22.58 480,-33.02 486.9,-31.85"/>
</a>
</g>
</g>
<!-- Node11 -->
<g id="Node000011" class="node">
<title>Node11</title>
<g id="a_Node000011"><a xlink:href="errno_8h.html" target="_top" xlink:title=" ">
<polygon fill="white" stroke="#666666" points="451.75,-191 401.25,-191 401.25,-170.25 451.75,-170.25 451.75,-191"/>
<text text-anchor="middle" x="426.5" y="-177.5" font-family="Helvetica,sans-Serif" font-size="10.00">errno.h</text>
</a>
</g>
</g>
<!-- Node10&#45;&gt;Node11 -->
<g id="edge16_Node000010_Node000011" class="edge">
<title>Node10&#45;&gt;Node11</title>
<g id="a_edge16_Node000010_Node000011"><a xlink:title=" ">
<path fill="none" stroke="#63b8ff" d="M373.94,-226.59C382.95,-218.88 395.73,-207.95 406.43,-198.79"/>
<polygon fill="#63b8ff" stroke="#63b8ff" points="408.68,-201.47 414.01,-192.31 404.13,-196.15 408.68,-201.47"/>
</a>
</g>
</g>
<!-- Node12 -->
<g id="Node000012" class="node">
<title>Node12</title>
<g id="a_Node000012"><a xlink:href="iolist_8h.html" target="_top" xlink:title="iolist scatter / gather IO">
<polygon fill="white" stroke="#666666" points="175,-191 126,-191 126,-170.25 175,-170.25 175,-191"/>
<text text-anchor="middle" x="150.5" y="-177.5" font-family="Helvetica,sans-Serif" font-size="10.00">iolist.h</text>
</a>
</g>
</g>
<!-- Node10&#45;&gt;Node12 -->
<g id="edge17_Node000010_Node000012" class="edge">
<title>Node10&#45;&gt;Node12</title>
<g id="a_edge17_Node000010_Node000012"><a xlink:title=" ">
<path fill="none" stroke="#63b8ff" d="M323.9,-226.77C290.14,-218.31 239.49,-205.5 186.38,-191.46"/>
<polygon fill="#63b8ff" stroke="#63b8ff" points="187.39,-188.11 176.83,-188.93 185.6,-194.88 187.39,-188.11"/>
</a>
</g>
</g>
<!-- Node13 -->
<g id="Node000013" class="node">
<title>Node13</title>
<g id="a_Node000013"><a xlink:href="netopt_8h.html" target="_top" xlink:title="Definition of global configuration options.">
<polygon fill="white" stroke="#666666" points="383.12,-191 307.88,-191 307.88,-170.25 383.12,-170.25 383.12,-191"/>
<text text-anchor="middle" x="345.5" y="-177.5" font-family="Helvetica,sans-Serif" font-size="10.00">net/netopt.h</text>
</a>
</g>
</g>
<!-- Node10&#45;&gt;Node13 -->
<g id="edge18_Node000010_Node000013" class="edge">
<title>Node10&#45;&gt;Node13</title>
<g id="a_edge18_Node000010_Node000013"><a xlink:title=" ">
<path fill="none" stroke="#63b8ff" d="M359.46,-226.59C357.36,-219.81 354.48,-210.55 351.89,-202.19"/>
<polygon fill="#63b8ff" stroke="#63b8ff" points="355.27,-201.29 348.96,-192.77 348.58,-203.36 355.27,-201.29"/>
</a>
</g>
</g>
<!-- Node15 -->
<g id="Node000015" class="node">
<title>Node15</title>
<g id="a_Node000015"><a xlink:href="kernel__defines_8h.html" target="_top" xlink:title="Common macros and compiler attributes/pragmas configuration.">
<polygon fill="white" stroke="#666666" points="289.62,-191 193.38,-191 193.38,-170.25 289.62,-170.25 289.62,-191"/>
<text text-anchor="middle" x="241.5" y="-177.5" font-family="Helvetica,sans-Serif" font-size="10.00">kernel_defines.h</text>
</a>
</g>
</g>
<!-- Node10&#45;&gt;Node15 -->
<g id="edge21_Node000010_Node000015" class="edge">
<title>Node10&#45;&gt;Node15</title>
<g id="a_edge21_Node000010_Node000015"><a xlink:title=" ">
<path fill="none" stroke="#63b8ff" d="M340.87,-226.59C322.03,-218.06 294.46,-205.59 273.14,-195.94"/>
<polygon fill="#63b8ff" stroke="#63b8ff" points="274.88,-192.89 264.32,-191.95 271.99,-199.26 274.88,-192.89"/>
</a>
</g>
</g>
<!-- Node13&#45;&gt;Node4 -->
<g id="edge19_Node000013_Node000004" class="edge">
<title>Node13&#45;&gt;Node4</title>
<g id="a_edge19_Node000013_Node000004"><a xlink:title=" ">
<path fill="none" stroke="#63b8ff" d="M369.97,-169.87C386.56,-162.23 408.02,-150.23 422.5,-134.25 436.93,-118.33 459.8,-62.53 471.71,-31.89"/>
<polygon fill="#63b8ff" stroke="#63b8ff" points="474.97,-33.18 475.29,-22.59 468.43,-30.67 474.97,-33.18"/>
</a>
</g>
</g>
<!-- Node14 -->
<g id="Node000014" class="node">
<title>Node14</title>
<g id="a_Node000014"><a xlink:title=" ">
<polygon fill="#e0e0e0" stroke="#999999" points="413,-134.25 352,-134.25 352,-113.5 413,-113.5 413,-134.25"/>
<text text-anchor="middle" x="382.5" y="-120.75" font-family="Helvetica,sans-Serif" font-size="10.00">stdbool.h</text>
</a>
</g>
</g>
<!-- Node13&#45;&gt;Node14 -->
<g id="edge20_Node000013_Node000014" class="edge">
<title>Node13&#45;&gt;Node14</title>
<g id="a_edge20_Node000013_Node000014"><a xlink:title=" ">
<path fill="none" stroke="#63b8ff" d="M352.11,-169.84C356.96,-162.67 363.68,-152.73 369.57,-144.01"/>
<polygon fill="#63b8ff" stroke="#63b8ff" points="372.4,-146.08 375.09,-135.83 366.6,-142.16 372.4,-146.08"/>
</a>
</g>
</g>
<!-- Node16 -->
<g id="Node000016" class="node">
<title>Node16</title>
<g id="a_Node000016"><a xlink:href="modules_8h.html" target="_top" xlink:title="Common macros and compiler attributes/pragmas configuration.">
<polygon fill="white" stroke="#666666" points="295,-134.25 228,-134.25 228,-113.5 295,-113.5 295,-134.25"/>
<text text-anchor="middle" x="261.5" y="-120.75" font-family="Helvetica,sans-Serif" font-size="10.00">modules.h</text>
</a>
</g>
</g>
<!-- Node15&#45;&gt;Node16 -->
<g id="edge22_Node000015_Node000016" class="edge">
<title>Node15&#45;&gt;Node16</title>
<g id="a_edge22_Node000015_Node000016"><a xlink:title=" ">
<path fill="none" stroke="#63b8ff" d="M245.08,-169.84C247.58,-162.99 251.01,-153.59 254.09,-145.15"/>
<polygon fill="#63b8ff" stroke="#63b8ff" points="257.29,-146.59 257.44,-136 250.72,-144.19 257.29,-146.59"/>
</a>
</g>
</g>
<!-- Node17 -->
<g id="Node000017" class="node">
<title>Node17</title>
<g id="a_Node000017"><a xlink:href="riot__version_8h.html" target="_top" xlink:title="Common macros and compiler attributes/pragmas configuration.">
<polygon fill="white" stroke="#666666" points="388.88,-77.5 306.12,-77.5 306.12,-56.75 388.88,-56.75 388.88,-77.5"/>
<text text-anchor="middle" x="347.5" y="-64" font-family="Helvetica,sans-Serif" font-size="10.00">riot_version.h</text>
</a>
</g>
</g>
<!-- Node15&#45;&gt;Node17 -->
<g id="edge23_Node000015_Node000017" class="edge">
<title>Node15&#45;&gt;Node17</title>
<g id="a_edge23_Node000015_Node000017"><a xlink:title=" ">
<path fill="none" stroke="#63b8ff" d="M258.6,-169.75C272.08,-161.42 290.83,-148.59 304.5,-134.25 317.77,-120.33 329.42,-101.78 337.24,-87.87"/>
<polygon fill="#63b8ff" stroke="#63b8ff" points="340.24,-89.68 341.92,-79.22 334.08,-86.35 340.24,-89.68"/>
</a>
</g>
</g>
<!-- Node18 -->
<g id="Node000018" class="node">
<title>Node18</title>
<g id="a_Node000018"><a xlink:href="compiler__hints_8h.html" target="_top" xlink:title="Common macros and compiler attributes/pragmas configuration.">
<polygon fill="white" stroke="#666666" points="210,-134.25 113,-134.25 113,-113.5 210,-113.5 210,-134.25"/>
<text text-anchor="middle" x="161.5" y="-120.75" font-family="Helvetica,sans-Serif" font-size="10.00">compiler_hints.h</text>
</a>
</g>
</g>
<!-- Node15&#45;&gt;Node18 -->
<g id="edge25_Node000015_Node000018" class="edge">
<title>Node15&#45;&gt;Node18</title>
<g id="a_edge25_Node000015_Node000018"><a xlink:title=" ">
<path fill="none" stroke="#63b8ff" d="M227.2,-169.84C215.48,-161.82 198.66,-150.31 184.97,-140.94"/>
<polygon fill="#63b8ff" stroke="#63b8ff" points="187.16,-138.19 176.93,-135.43 183.2,-143.97 187.16,-138.19"/>
</a>
</g>
</g>
<!-- Node20 -->
<g id="Node000020" class="node">
<title>Node20</title>
<g id="a_Node000020"><a xlink:href="container_8h.html" target="_top" xlink:title="Common macros and compiler attributes/pragmas configuration.">
<polygon fill="white" stroke="#666666" points="94.88,-134.25 24.12,-134.25 24.12,-113.5 94.88,-113.5 94.88,-134.25"/>
<text text-anchor="middle" x="59.5" y="-120.75" font-family="Helvetica,sans-Serif" font-size="10.00">container.h</text>
</a>
</g>
</g>
<!-- Node15&#45;&gt;Node20 -->
<g id="edge29_Node000015_Node000020" class="edge">
<title>Node15&#45;&gt;Node20</title>
<g id="a_edge29_Node000015_Node000020"><a xlink:title=" ">
<path fill="none" stroke="#63b8ff" d="M208.96,-169.84C179.42,-160.95 135.62,-147.77 103.07,-137.98"/>
<polygon fill="#63b8ff" stroke="#63b8ff" points="104.1,-134.64 93.51,-135.11 102.08,-141.34 104.1,-134.64"/>
</a>
</g>
</g>
<!-- Node17&#45;&gt;Node4 -->
<g id="edge24_Node000017_Node000004" class="edge">
<title>Node17&#45;&gt;Node4</title>
<g id="a_edge24_Node000017_Node000004"><a xlink:title=" ">
<path fill="none" stroke="#63b8ff" d="M371.1,-56.34C391.84,-47.73 422.27,-35.11 445.61,-25.43"/>
<polygon fill="#63b8ff" stroke="#63b8ff" points="446.81,-28.72 454.71,-21.66 444.13,-22.26 446.81,-28.72"/>
</a>
</g>
</g>
<!-- Node18&#45;&gt;Node4 -->
<g id="edge28_Node000018_Node000004" class="edge">
<title>Node18&#45;&gt;Node4</title>
<g id="a_edge28_Node000018_Node000004"><a xlink:title=" ">
<path fill="none" stroke="#63b8ff" d="M178.6,-113.12C203.89,-99.02 253.08,-72.89 297.5,-56.75 346.18,-39.07 404.62,-25.84 441.91,-18.36"/>
<polygon fill="#63b8ff" stroke="#63b8ff" points="442.14,-21.88 451.28,-16.52 440.79,-15.01 442.14,-21.88"/>
</a>
</g>
</g>
<!-- Node19 -->
<g id="Node000019" class="node">
<title>Node19</title>
<g id="a_Node000019"><a xlink:href="assert_8h.html" target="_top" xlink:title="POSIX.1&#45;2008 compliant version of the assert macro.">
<polygon fill="white" stroke="#666666" points="198,-77.5 143,-77.5 143,-56.75 198,-56.75 198,-77.5"/>
<text text-anchor="middle" x="170.5" y="-64" font-family="Helvetica,sans-Serif" font-size="10.00">assert.h</text>
</a>
</g>
</g>
<!-- Node18&#45;&gt;Node19 -->
<g id="edge26_Node000018_Node000019" class="edge">
<title>Node18&#45;&gt;Node19</title>
<g id="a_edge26_Node000018_Node000019"><a xlink:title=" ">
<path fill="none" stroke="#63b8ff" d="M163.11,-113.09C164.21,-106.39 165.71,-97.26 167.07,-88.98"/>
<polygon fill="#63b8ff" stroke="#63b8ff" points="170.49,-89.76 168.66,-79.32 163.58,-88.62 170.49,-89.76"/>
</a>
</g>
</g>
<!-- Node19&#45;&gt;Node4 -->
<g id="edge27_Node000019_Node000004" class="edge">
<title>Node19&#45;&gt;Node4</title>
<g id="a_edge27_Node000019_Node000004"><a xlink:title=" ">
<path fill="none" stroke="#63b8ff" d="M198.47,-61.17C254.13,-51.31 378.83,-29.21 441.71,-18.07"/>
<polygon fill="#63b8ff" stroke="#63b8ff" points="441.97,-21.58 451.21,-16.39 440.75,-14.69 441.97,-21.58"/>
</a>
</g>
</g>
<!-- Node20&#45;&gt;Node2 -->
<g id="edge30_Node000020_Node000002" class="edge">
<title>Node20&#45;&gt;Node2</title>
<g id="a_edge30_Node000020_Node000002"><a xlink:title=" ">
<path fill="none" stroke="#63b8ff" d="M53.78,-113.09C49.64,-106 43.9,-96.19 38.85,-87.54"/>
<polygon fill="#63b8ff" stroke="#63b8ff" points="42,-86 33.94,-79.14 35.96,-89.53 42,-86"/>
</a>
</g>
</g>
<!-- Node20&#45;&gt;Node4 -->
<g id="edge31_Node000020_Node000004" class="edge">
<title>Node20&#45;&gt;Node4</title>
<g id="a_edge31_Node000020_Node000004"><a xlink:title=" ">
<path fill="none" stroke="#63b8ff" d="M67.26,-113.02C79.68,-98.04 105.58,-69.9 134.5,-56.75 188.64,-32.14 363.58,-18.54 441.48,-13.58"/>
<polygon fill="#63b8ff" stroke="#63b8ff" points="441.4,-17.09 451.17,-12.98 440.97,-10.1 441.4,-17.09"/>
</a>
</g>
</g>
</g>
</svg>
