<?xml version="1.0" encoding="UTF-8" standalone="no"?>
<!DOCTYPE svg PUBLIC "-//W3C//DTD SVG 1.1//EN"
 "http://www.w3.org/Graphics/SVG/1.1/DTD/svg11.dtd">
<!-- Generated by graphviz version 12.1.2 (0)
 -->
<!-- Title: pkg/lwip/include/lwip_init_devs.h Pages: 1 -->
<svg width="1243pt" height="552pt"
 viewBox="0.00 0.00 1242.80 552.25" xmlns="http://www.w3.org/2000/svg" xmlns:xlink="http://www.w3.org/1999/xlink">
<g id="graph0" class="graph" transform="scale(1 1) rotate(0) translate(4 548.25)">
<title>pkg/lwip/include/lwip_init_devs.h</title>
<!-- Node1 -->
<g id="Node000001" class="node">
<title>Node1</title>
<g id="a_Node000001"><a xlink:title="Helpers for simplified network setup.">
<polygon fill="#999999" stroke="#666666" points="1053.38,-544.25 934.62,-544.25 934.62,-510.75 1053.38,-510.75 1053.38,-544.25"/>
<text text-anchor="start" x="942.62" y="-530.75" font-family="Helvetica,sans-Serif" font-size="10.00">pkg/lwip/include/lwip</text>
<text text-anchor="middle" x="994" y="-518" font-family="Helvetica,sans-Serif" font-size="10.00">_init_devs.h</text>
</a>
</g>
</g>
<!-- Node2 -->
<g id="Node000002" class="node">
<title>Node2</title>
<g id="a_Node000002"><a xlink:href="compat_8h.html" target="_top" xlink:title="lwIP definition based on common netif_t struct for network stack&#45;independent API.">
<polygon fill="white" stroke="#666666" points="937.25,-474.75 826.75,-474.75 826.75,-454 937.25,-454 937.25,-474.75"/>
<text text-anchor="middle" x="882" y="-461.25" font-family="Helvetica,sans-Serif" font-size="10.00">lwip/netif/compat.h</text>
</a>
</g>
</g>
<!-- Node1&#45;&gt;Node2 -->
<g id="edge1_Node000001_Node000002" class="edge">
<title>Node1&#45;&gt;Node2</title>
<g id="a_edge1_Node000001_Node000002"><a xlink:title=" ">
<path fill="none" stroke="#63b8ff" d="M964.28,-510.28C947.32,-501.02 926.2,-489.5 909.61,-480.44"/>
<polygon fill="#63b8ff" stroke="#63b8ff" points="911.72,-477.61 901.27,-475.89 908.37,-483.75 911.72,-477.61"/>
</a>
</g>
</g>
<!-- Node24 -->
<g id="Node000024" class="node">
<title>Node24</title>
<g id="a_Node000024"><a xlink:href="drivers_2include_2net_2netdev_8h.html" target="_top" xlink:title="Definitions low&#45;level network driver interface.">
<polygon fill="white" stroke="#666666" points="1032.38,-247.75 955.62,-247.75 955.62,-227 1032.38,-227 1032.38,-247.75"/>
<text text-anchor="middle" x="994" y="-234.25" font-family="Helvetica,sans-Serif" font-size="10.00">net/netdev.h</text>
</a>
</g>
</g>
<!-- Node1&#45;&gt;Node24 -->
<g id="edge42_Node000001_Node000024" class="edge">
<title>Node1&#45;&gt;Node24</title>
<g id="a_edge42_Node000001_Node000024"><a xlink:title=" ">
<path fill="none" stroke="#63b8ff" d="M994,-510.48C994,-487.81 994,-445.05 994,-408.62 994,-408.62 994,-408.62 994,-349.88 994,-318.48 994,-282.12 994,-259.68"/>
<polygon fill="#63b8ff" stroke="#63b8ff" points="997.5,-259.73 994,-249.73 990.5,-259.73 997.5,-259.73"/>
</a>
</g>
</g>
<!-- Node33 -->
<g id="Node000033" class="node">
<title>Node33</title>
<g id="a_Node000033"><a xlink:href="xfa_8h.html" target="_top" xlink:title="Cross File Arrays.">
<polygon fill="white" stroke="#666666" points="1210.38,-247.75 1169.62,-247.75 1169.62,-227 1210.38,-227 1210.38,-247.75"/>
<text text-anchor="middle" x="1190" y="-234.25" font-family="Helvetica,sans-Serif" font-size="10.00">xfa.h</text>
</a>
</g>
</g>
<!-- Node1&#45;&gt;Node33 -->
<g id="edge58_Node000001_Node000033" class="edge">
<title>Node1&#45;&gt;Node33</title>
<g id="a_edge58_Node000001_Node000033"><a xlink:title=" ">
<path fill="none" stroke="#63b8ff" d="M1028.16,-510.27C1062.69,-491.2 1111,-456.06 1111,-408.62 1111,-408.62 1111,-408.62 1111,-349.88 1111,-310.29 1144.56,-274.94 1167.93,-255.12"/>
<polygon fill="#63b8ff" stroke="#63b8ff" points="1169.87,-258.05 1175.42,-249.03 1165.46,-252.62 1169.87,-258.05"/>
</a>
</g>
</g>
<!-- Node3 -->
<g id="Node000003" class="node">
<title>Node3</title>
<g id="a_Node000003"><a xlink:title=" ">
<polygon fill="#e0e0e0" stroke="#999999" points="868.38,-418 815.62,-418 815.62,-397.25 868.38,-397.25 868.38,-418"/>
<text text-anchor="middle" x="842" y="-404.5" font-family="Helvetica,sans-Serif" font-size="10.00">event.h</text>
</a>
</g>
</g>
<!-- Node2&#45;&gt;Node3 -->
<g id="edge2_Node000002_Node000003" class="edge">
<title>Node2&#45;&gt;Node3</title>
<g id="a_edge2_Node000002_Node000003"><a xlink:title=" ">
<path fill="none" stroke="#63b8ff" d="M874.85,-453.59C869.56,-446.35 862.19,-436.26 855.77,-427.47"/>
<polygon fill="#63b8ff" stroke="#63b8ff" points="858.71,-425.56 849.98,-419.55 853.06,-429.69 858.71,-425.56"/>
</a>
</g>
</g>
<!-- Node4 -->
<g id="Node000004" class="node">
<title>Node4</title>
<g id="a_Node000004"><a xlink:title=" ">
<polygon fill="#e0e0e0" stroke="#999999" points="956,-418 886,-418 886,-397.25 956,-397.25 956,-418"/>
<text text-anchor="middle" x="921" y="-404.5" font-family="Helvetica,sans-Serif" font-size="10.00">lwip/netif.h</text>
</a>
</g>
</g>
<!-- Node2&#45;&gt;Node4 -->
<g id="edge3_Node000002_Node000004" class="edge">
<title>Node2&#45;&gt;Node4</title>
<g id="a_edge3_Node000002_Node000004"><a xlink:title=" ">
<path fill="none" stroke="#63b8ff" d="M888.97,-453.59C894.13,-446.35 901.32,-436.26 907.57,-427.47"/>
<polygon fill="#63b8ff" stroke="#63b8ff" points="910.26,-429.74 913.21,-419.56 904.56,-425.68 910.26,-429.74"/>
</a>
</g>
</g>
<!-- Node5 -->
<g id="Node000005" class="node">
<title>Node5</title>
<g id="a_Node000005"><a xlink:href="netif_8h.html" target="_top" xlink:title="Common network interface API definitions.">
<polygon fill="white" stroke="#666666" points="519.75,-418 454.25,-418 454.25,-397.25 519.75,-397.25 519.75,-418"/>
<text text-anchor="middle" x="487" y="-404.5" font-family="Helvetica,sans-Serif" font-size="10.00">net/netif.h</text>
</a>
</g>
</g>
<!-- Node2&#45;&gt;Node5 -->
<g id="edge4_Node000002_Node000005" class="edge">
<title>Node2&#45;&gt;Node5</title>
<g id="a_edge4_Node000002_Node000005"><a xlink:title=" ">
<path fill="none" stroke="#63b8ff" d="M826.66,-455.7C747.46,-444.73 603.36,-424.75 530.97,-414.72"/>
<polygon fill="#63b8ff" stroke="#63b8ff" points="531.88,-411.31 521.49,-413.41 530.92,-418.25 531.88,-411.31"/>
</a>
</g>
</g>
<!-- Node6 -->
<g id="Node000006" class="node">
<title>Node6</title>
<g id="a_Node000006"><a xlink:title=" ">
<polygon fill="#e0e0e0" stroke="#999999" points="597.38,-20.75 544.62,-20.75 544.62,0 597.38,0 597.38,-20.75"/>
<text text-anchor="middle" x="571" y="-7.25" font-family="Helvetica,sans-Serif" font-size="10.00">stdint.h</text>
</a>
</g>
</g>
<!-- Node5&#45;&gt;Node6 -->
<g id="edge5_Node000005_Node000006" class="edge">
<title>Node5&#45;&gt;Node6</title>
<g id="a_edge5_Node000005_Node000006"><a xlink:title=" ">
<path fill="none" stroke="#63b8ff" d="M519.97,-400.95C594.99,-387.09 772,-348.72 772,-295.12 772,-295.12 772,-295.12 772,-236.38 772,-192.02 718.78,-85.49 685,-56.75 663.01,-38.04 632.35,-26.42 608.36,-19.63"/>
<polygon fill="#63b8ff" stroke="#63b8ff" points="609.56,-16.33 598.99,-17.15 607.76,-23.1 609.56,-16.33"/>
</a>
</g>
</g>
<!-- Node7 -->
<g id="Node000007" class="node">
<title>Node7</title>
<g id="a_Node000007"><a xlink:title=" ">
<polygon fill="#e0e0e0" stroke="#999999" points="261.38,-77.5 208.62,-77.5 208.62,-56.75 261.38,-56.75 261.38,-77.5"/>
<text text-anchor="middle" x="235" y="-64" font-family="Helvetica,sans-Serif" font-size="10.00">string.h</text>
</a>
</g>
</g>
<!-- Node5&#45;&gt;Node7 -->
<g id="edge6_Node000005_Node000007" class="edge">
<title>Node5&#45;&gt;Node7</title>
<g id="a_edge6_Node000005_Node000007"><a xlink:title=" ">
<path fill="none" stroke="#63b8ff" d="M453.77,-404.93C354.67,-398.96 68,-374.82 68,-295.12 68,-295.12 68,-295.12 68,-236.38 68,-161 153.48,-107.36 202.12,-82.93"/>
<polygon fill="#63b8ff" stroke="#63b8ff" points="203.66,-86.08 211.12,-78.56 200.59,-79.79 203.66,-86.08"/>
</a>
</g>
</g>
<!-- Node8 -->
<g id="Node000008" class="node">
<title>Node8</title>
<g id="a_Node000008"><a xlink:href="list_8h.html" target="_top" xlink:title="Intrusive linked list.">
<polygon fill="white" stroke="#666666" points="40,-361.25 0,-361.25 0,-340.5 40,-340.5 40,-361.25"/>
<text text-anchor="middle" x="20" y="-347.75" font-family="Helvetica,sans-Serif" font-size="10.00">list.h</text>
</a>
</g>
</g>
<!-- Node5&#45;&gt;Node8 -->
<g id="edge7_Node000005_Node000008" class="edge">
<title>Node5&#45;&gt;Node8</title>
<g id="a_edge7_Node000005_Node000008"><a xlink:title=" ">
<path fill="none" stroke="#63b8ff" d="M453.87,-405.02C381.01,-401.07 201.61,-389.14 54,-361.25 53.17,-361.09 52.32,-360.92 51.47,-360.75"/>
<polygon fill="#63b8ff" stroke="#63b8ff" points="52.38,-357.37 41.84,-358.43 50.74,-364.17 52.38,-357.37"/>
</a>
</g>
</g>
<!-- Node9 -->
<g id="Node000009" class="node">
<title>Node9</title>
<g id="a_Node000009"><a xlink:href="netopt_8h.html" target="_top" xlink:title="Definition of global configuration options.">
<polygon fill="white" stroke="#666666" points="743.62,-191 668.38,-191 668.38,-170.25 743.62,-170.25 743.62,-191"/>
<text text-anchor="middle" x="706" y="-177.5" font-family="Helvetica,sans-Serif" font-size="10.00">net/netopt.h</text>
</a>
</g>
</g>
<!-- Node5&#45;&gt;Node9 -->
<g id="edge8_Node000005_Node000009" class="edge">
<title>Node5&#45;&gt;Node9</title>
<g id="a_edge8_Node000005_Node000009"><a xlink:title=" ">
<path fill="none" stroke="#63b8ff" d="M511.31,-396.86C557.63,-376.81 657.77,-326.16 701,-247.75 708.57,-234.01 709.5,-216.16 708.71,-202.47"/>
<polygon fill="#63b8ff" stroke="#63b8ff" points="712.22,-202.43 707.79,-192.81 705.26,-203.1 712.22,-202.43"/>
</a>
</g>
</g>
<!-- Node11 -->
<g id="Node000011" class="node">
<title>Node11</title>
<g id="a_Node000011"><a xlink:href="ipv6_8h.html" target="_top" xlink:title="IPv6 include gathering header.">
<polygon fill="white" stroke="#666666" points="323.38,-361.25 258.62,-361.25 258.62,-340.5 323.38,-340.5 323.38,-361.25"/>
<text text-anchor="middle" x="291" y="-347.75" font-family="Helvetica,sans-Serif" font-size="10.00">net/ipv6.h</text>
</a>
</g>
</g>
<!-- Node5&#45;&gt;Node11 -->
<g id="edge11_Node000005_Node000011" class="edge">
<title>Node5&#45;&gt;Node11</title>
<g id="a_edge11_Node000005_Node000011"><a xlink:title=" ">
<path fill="none" stroke="#63b8ff" d="M453.75,-397.34C420.89,-388.16 370.45,-374.07 334.44,-364.01"/>
<polygon fill="#63b8ff" stroke="#63b8ff" points="335.79,-360.75 325.22,-361.43 333.91,-367.49 335.79,-360.75"/>
</a>
</g>
</g>
<!-- Node9&#45;&gt;Node6 -->
<g id="edge9_Node000009_Node000006" class="edge">
<title>Node9&#45;&gt;Node6</title>
<g id="a_edge9_Node000009_Node000006"><a xlink:title=" ">
<path fill="none" stroke="#63b8ff" d="M705.17,-169.75C702.78,-147.1 693.99,-90.72 664,-56.75 649.39,-40.2 627.38,-29.08 608.44,-22"/>
<polygon fill="#63b8ff" stroke="#63b8ff" points="609.74,-18.74 599.15,-18.78 607.45,-25.36 609.74,-18.74"/>
</a>
</g>
</g>
<!-- Node10 -->
<g id="Node000010" class="node">
<title>Node10</title>
<g id="a_Node000010"><a xlink:title=" ">
<polygon fill="#e0e0e0" stroke="#999999" points="573.5,-134.25 512.5,-134.25 512.5,-113.5 573.5,-113.5 573.5,-134.25"/>
<text text-anchor="middle" x="543" y="-120.75" font-family="Helvetica,sans-Serif" font-size="10.00">stdbool.h</text>
</a>
</g>
</g>
<!-- Node9&#45;&gt;Node10 -->
<g id="edge10_Node000009_Node000010" class="edge">
<title>Node9&#45;&gt;Node10</title>
<g id="a_edge10_Node000009_Node000010"><a xlink:title=" ">
<path fill="none" stroke="#63b8ff" d="M676.86,-169.84C650.63,-161.03 611.86,-148 582.79,-138.24"/>
<polygon fill="#63b8ff" stroke="#63b8ff" points="584.19,-135.02 573.6,-135.15 581.96,-141.65 584.19,-135.02"/>
</a>
</g>
</g>
<!-- Node12 -->
<g id="Node000012" class="node">
<title>Node12</title>
<g id="a_Node000012"><a xlink:href="ipv6_2addr_8h.html" target="_top" xlink:title="Definitions for IPv6 addresses.">
<polygon fill="white" stroke="#666666" points="298.75,-247.75 209.25,-247.75 209.25,-227 298.75,-227 298.75,-247.75"/>
<text text-anchor="middle" x="254" y="-234.25" font-family="Helvetica,sans-Serif" font-size="10.00">net/ipv6/addr.h</text>
</a>
</g>
</g>
<!-- Node11&#45;&gt;Node12 -->
<g id="edge12_Node000011_Node000012" class="edge">
<title>Node11&#45;&gt;Node12</title>
<g id="a_edge12_Node000011_Node000012"><a xlink:title=" ">
<path fill="none" stroke="#63b8ff" d="M287.85,-340.37C281.9,-322.44 268.89,-283.25 260.85,-259.01"/>
<polygon fill="#63b8ff" stroke="#63b8ff" points="264.2,-258 257.73,-249.61 257.56,-260.21 264.2,-258"/>
</a>
</g>
</g>
<!-- Node18 -->
<g id="Node000018" class="node">
<title>Node18</title>
<g id="a_Node000018"><a xlink:href="ipv6_2ext_8h.html" target="_top" xlink:title="IPv6 extension header definitions.">
<polygon fill="white" stroke="#666666" points="186.75,-247.75 103.25,-247.75 103.25,-227 186.75,-227 186.75,-247.75"/>
<text text-anchor="middle" x="145" y="-234.25" font-family="Helvetica,sans-Serif" font-size="10.00">net/ipv6/ext.h</text>
</a>
</g>
</g>
<!-- Node11&#45;&gt;Node18 -->
<g id="edge27_Node000011_Node000018" class="edge">
<title>Node11&#45;&gt;Node18</title>
<g id="a_edge27_Node000011_Node000018"><a xlink:title=" ">
<path fill="none" stroke="#63b8ff" d="M278.3,-340.18C253.38,-321.15 197.84,-278.73 166.89,-255.09"/>
<polygon fill="#63b8ff" stroke="#63b8ff" points="169.05,-252.34 158.98,-249.05 164.8,-257.9 169.05,-252.34"/>
</a>
</g>
</g>
<!-- Node21 -->
<g id="Node000021" class="node">
<title>Node21</title>
<g id="a_Node000021"><a xlink:href="net_2ipv6_2hdr_8h.html" target="_top" xlink:title="IPv6 header type and helper function definitions.">
<polygon fill="white" stroke="#666666" points="368.75,-304.5 285.25,-304.5 285.25,-283.75 368.75,-283.75 368.75,-304.5"/>
<text text-anchor="middle" x="327" y="-291" font-family="Helvetica,sans-Serif" font-size="10.00">net/ipv6/hdr.h</text>
</a>
</g>
</g>
<!-- Node11&#45;&gt;Node21 -->
<g id="edge35_Node000011_Node000021" class="edge">
<title>Node11&#45;&gt;Node21</title>
<g id="a_edge35_Node000011_Node000021"><a xlink:title=" ">
<path fill="none" stroke="#63b8ff" d="M297.44,-340.09C302.15,-332.92 308.69,-322.98 314.42,-314.26"/>
<polygon fill="#63b8ff" stroke="#63b8ff" points="317.22,-316.37 319.79,-306.09 311.37,-312.53 317.22,-316.37"/>
</a>
</g>
</g>
<!-- Node12&#45;&gt;Node7 -->
<g id="edge14_Node000012_Node000007" class="edge">
<title>Node12&#45;&gt;Node7</title>
<g id="a_edge14_Node000012_Node000007"><a xlink:title=" ">
<path fill="none" stroke="#63b8ff" d="M252.92,-226.85C249.95,-200.48 241.54,-126.08 237.39,-89.28"/>
<polygon fill="#63b8ff" stroke="#63b8ff" points="240.88,-89.02 236.28,-79.47 233.93,-89.8 240.88,-89.02"/>
</a>
</g>
</g>
<!-- Node12&#45;&gt;Node10 -->
<g id="edge13_Node000012_Node000010" class="edge">
<title>Node12&#45;&gt;Node10</title>
<g id="a_edge13_Node000012_Node000010"><a xlink:title=" ">
<path fill="none" stroke="#63b8ff" d="M299.25,-236.18C372.97,-234.79 513.91,-227.32 545,-191 555.5,-178.73 553.86,-159.99 550.25,-145.59"/>
<polygon fill="#63b8ff" stroke="#63b8ff" points="553.66,-144.76 547.42,-136.2 546.96,-146.78 553.66,-144.76"/>
</a>
</g>
</g>
<!-- Node13 -->
<g id="Node000013" class="node">
<title>Node13</title>
<g id="a_Node000013"><a xlink:href="byteorder_8h.html" target="_top" xlink:title="Functions to work with different byte orders.">
<polygon fill="white" stroke="#666666" points="355.12,-134.25 282.88,-134.25 282.88,-113.5 355.12,-113.5 355.12,-134.25"/>
<text text-anchor="middle" x="319" y="-120.75" font-family="Helvetica,sans-Serif" font-size="10.00">byteorder.h</text>
</a>
</g>
</g>
<!-- Node12&#45;&gt;Node13 -->
<g id="edge15_Node000012_Node000013" class="edge">
<title>Node12&#45;&gt;Node13</title>
<g id="a_edge15_Node000012_Node000013"><a xlink:title=" ">
<path fill="none" stroke="#63b8ff" d="M256.61,-226.94C260.52,-213.68 268.67,-189.06 280,-170.25 285.92,-160.42 293.99,-150.63 301.25,-142.67"/>
<polygon fill="#63b8ff" stroke="#63b8ff" points="303.57,-145.32 307.91,-135.66 298.49,-140.5 303.57,-145.32"/>
</a>
</g>
</g>
<!-- Node16 -->
<g id="Node000016" class="node">
<title>Node16</title>
<g id="a_Node000016"><a xlink:href="ipv4_2addr_8h.html" target="_top" xlink:title="IPv4 address type and helper functions definitions.">
<polygon fill="white" stroke="#666666" points="535.75,-191 446.25,-191 446.25,-170.25 535.75,-170.25 535.75,-191"/>
<text text-anchor="middle" x="491" y="-177.5" font-family="Helvetica,sans-Serif" font-size="10.00">net/ipv4/addr.h</text>
</a>
</g>
</g>
<!-- Node12&#45;&gt;Node16 -->
<g id="edge22_Node000012_Node000016" class="edge">
<title>Node12&#45;&gt;Node16</title>
<g id="a_edge22_Node000012_Node000016"><a xlink:title=" ">
<path fill="none" stroke="#63b8ff" d="M296.64,-226.52C336.04,-217.42 394.72,-203.87 437.3,-194.03"/>
<polygon fill="#63b8ff" stroke="#63b8ff" points="437.87,-197.49 446.82,-191.83 436.29,-190.67 437.87,-197.49"/>
</a>
</g>
</g>
<!-- Node13&#45;&gt;Node6 -->
<g id="edge17_Node000013_Node000006" class="edge">
<title>Node13&#45;&gt;Node6</title>
<g id="a_edge17_Node000013_Node000006"><a xlink:title=" ">
<path fill="none" stroke="#63b8ff" d="M313.1,-113.09C305.43,-98.95 294.51,-72.77 308,-56.75 336.31,-23.14 467.07,-14.42 532.91,-12.17"/>
<polygon fill="#63b8ff" stroke="#63b8ff" points="533,-15.66 542.89,-11.86 532.79,-8.67 533,-15.66"/>
</a>
</g>
</g>
<!-- Node13&#45;&gt;Node7 -->
<g id="edge16_Node000013_Node000007" class="edge">
<title>Node13&#45;&gt;Node7</title>
<g id="a_edge16_Node000013_Node000007"><a xlink:title=" ">
<path fill="none" stroke="#63b8ff" d="M303.98,-113.09C291.56,-104.99 273.68,-93.33 259.23,-83.92"/>
<polygon fill="#63b8ff" stroke="#63b8ff" points="261.44,-81.18 251.16,-78.65 257.62,-87.05 261.44,-81.18"/>
</a>
</g>
</g>
<!-- Node14 -->
<g id="Node000014" class="node">
<title>Node14</title>
<g id="a_Node000014"><a xlink:href="endian_8h.html" target="_top" xlink:title="libc header for endian conversion">
<polygon fill="white" stroke="#666666" points="375,-77.5 317,-77.5 317,-56.75 375,-56.75 375,-77.5"/>
<text text-anchor="middle" x="346" y="-64" font-family="Helvetica,sans-Serif" font-size="10.00">endian.h</text>
</a>
</g>
</g>
<!-- Node13&#45;&gt;Node14 -->
<g id="edge18_Node000013_Node000014" class="edge">
<title>Node13&#45;&gt;Node14</title>
<g id="a_edge18_Node000013_Node000014"><a xlink:title=" ">
<path fill="none" stroke="#63b8ff" d="M323.83,-113.09C327.24,-106.16 331.95,-96.62 336.14,-88.11"/>
<polygon fill="#63b8ff" stroke="#63b8ff" points="339.26,-89.7 340.55,-79.19 332.98,-86.61 339.26,-89.7"/>
</a>
</g>
</g>
<!-- Node15 -->
<g id="Node000015" class="node">
<title>Node15</title>
<g id="a_Node000015"><a xlink:href="unaligned_8h.html" target="_top" xlink:title="Unaligned but safe memory access functions.">
<polygon fill="white" stroke="#666666" points="466.5,-77.5 393.5,-77.5 393.5,-56.75 466.5,-56.75 466.5,-77.5"/>
<text text-anchor="middle" x="430" y="-64" font-family="Helvetica,sans-Serif" font-size="10.00">unaligned.h</text>
</a>
</g>
</g>
<!-- Node13&#45;&gt;Node15 -->
<g id="edge20_Node000013_Node000015" class="edge">
<title>Node13&#45;&gt;Node15</title>
<g id="a_edge20_Node000013_Node000015"><a xlink:title=" ">
<path fill="none" stroke="#63b8ff" d="M338.84,-113.09C355.89,-104.68 380.72,-92.43 400.16,-82.84"/>
<polygon fill="#63b8ff" stroke="#63b8ff" points="401.55,-86.06 408.97,-78.5 398.45,-79.78 401.55,-86.06"/>
</a>
</g>
</g>
<!-- Node14&#45;&gt;Node6 -->
<g id="edge19_Node000014_Node000006" class="edge">
<title>Node14&#45;&gt;Node6</title>
<g id="a_edge19_Node000014_Node000006"><a xlink:title=" ">
<path fill="none" stroke="#63b8ff" d="M375.46,-58.85C378.34,-58.14 381.23,-57.43 384,-56.75 435.76,-44.09 495.61,-29.59 533.38,-20.46"/>
<polygon fill="#63b8ff" stroke="#63b8ff" points="533.99,-23.91 542.89,-18.16 532.35,-17.11 533.99,-23.91"/>
</a>
</g>
</g>
<!-- Node15&#45;&gt;Node6 -->
<g id="edge21_Node000015_Node000006" class="edge">
<title>Node15&#45;&gt;Node6</title>
<g id="a_edge21_Node000015_Node000006"><a xlink:title=" ">
<path fill="none" stroke="#63b8ff" d="M455.21,-56.34C477.56,-47.66 510.46,-34.88 535.48,-25.17"/>
<polygon fill="#63b8ff" stroke="#63b8ff" points="536.54,-28.51 544.6,-21.63 534.01,-21.98 536.54,-28.51"/>
</a>
</g>
</g>
<!-- Node16&#45;&gt;Node6 -->
<g id="edge24_Node000016_Node000006" class="edge">
<title>Node16&#45;&gt;Node6</title>
<g id="a_edge24_Node000016_Node000006"><a xlink:title=" ">
<path fill="none" stroke="#63b8ff" d="M488.57,-169.87C485.75,-156.67 482.29,-132.57 489,-113.5 495.66,-94.58 532.1,-53.22 554.1,-29.35"/>
<polygon fill="#63b8ff" stroke="#63b8ff" points="556.46,-31.95 560.7,-22.24 551.33,-27.18 556.46,-31.95"/>
</a>
</g>
</g>
<!-- Node16&#45;&gt;Node10 -->
<g id="edge23_Node000016_Node000010" class="edge">
<title>Node16&#45;&gt;Node10</title>
<g id="a_edge23_Node000016_Node000010"><a xlink:title=" ">
<path fill="none" stroke="#63b8ff" d="M500.3,-169.84C507.4,-162.36 517.37,-151.86 525.9,-142.88"/>
<polygon fill="#63b8ff" stroke="#63b8ff" points="528.39,-145.34 532.74,-135.68 523.32,-140.52 528.39,-145.34"/>
</a>
</g>
</g>
<!-- Node16&#45;&gt;Node13 -->
<g id="edge26_Node000016_Node000013" class="edge">
<title>Node16&#45;&gt;Node13</title>
<g id="a_edge26_Node000016_Node000013"><a xlink:title=" ">
<path fill="none" stroke="#63b8ff" d="M460.25,-169.84C432.45,-160.99 391.3,-147.89 360.58,-138.11"/>
<polygon fill="#63b8ff" stroke="#63b8ff" points="361.81,-134.83 351.22,-135.13 359.68,-141.5 361.81,-134.83"/>
</a>
</g>
</g>
<!-- Node17 -->
<g id="Node000017" class="node">
<title>Node17</title>
<g id="a_Node000017"><a xlink:title=" ">
<polygon fill="#e0e0e0" stroke="#999999" points="654.5,-77.5 599.5,-77.5 599.5,-56.75 654.5,-56.75 654.5,-77.5"/>
<text text-anchor="middle" x="627" y="-64" font-family="Helvetica,sans-Serif" font-size="10.00">stddef.h</text>
</a>
</g>
</g>
<!-- Node16&#45;&gt;Node17 -->
<g id="edge25_Node000016_Node000017" class="edge">
<title>Node16&#45;&gt;Node17</title>
<g id="a_edge25_Node000016_Node000017"><a xlink:title=" ">
<path fill="none" stroke="#63b8ff" d="M489.97,-169.85C489.04,-155.73 489.47,-129.57 503,-113.5 523.99,-88.57 559.92,-77.33 587.71,-72.27"/>
<polygon fill="#63b8ff" stroke="#63b8ff" points="588.24,-75.73 597.57,-70.7 587.14,-68.82 588.24,-75.73"/>
</a>
</g>
</g>
<!-- Node18&#45;&gt;Node6 -->
<g id="edge28_Node000018_Node000006" class="edge">
<title>Node18&#45;&gt;Node6</title>
<g id="a_edge28_Node000018_Node000006"><a xlink:title=" ">
<path fill="none" stroke="#63b8ff" d="M136.13,-226.85C110.01,-197.65 38.06,-108.28 85,-56.75 115.01,-23.8 423.87,-14.36 533.03,-12.05"/>
<polygon fill="#63b8ff" stroke="#63b8ff" points="533,-15.55 542.93,-11.84 532.86,-8.55 533,-15.55"/>
</a>
</g>
</g>
<!-- Node19 -->
<g id="Node000019" class="node">
<title>Node19</title>
<g id="a_Node000019"><a xlink:href="ipv6_2ext_2frag_8h.html" target="_top" xlink:title="Fragmentation extension definitions.">
<polygon fill="white" stroke="#666666" points="428,-191 322,-191 322,-170.25 428,-170.25 428,-191"/>
<text text-anchor="middle" x="375" y="-177.5" font-family="Helvetica,sans-Serif" font-size="10.00">net/ipv6/ext/frag.h</text>
</a>
</g>
</g>
<!-- Node18&#45;&gt;Node19 -->
<g id="edge29_Node000018_Node000019" class="edge">
<title>Node18&#45;&gt;Node19</title>
<g id="a_edge29_Node000018_Node000019"><a xlink:title=" ">
<path fill="none" stroke="#63b8ff" d="M186.39,-226.52C224.53,-217.44 281.32,-203.92 322.62,-194.09"/>
<polygon fill="#63b8ff" stroke="#63b8ff" points="323.17,-197.56 332.09,-191.84 321.55,-190.75 323.17,-197.56"/>
</a>
</g>
</g>
<!-- Node20 -->
<g id="Node000020" class="node">
<title>Node20</title>
<g id="a_Node000020"><a xlink:href="ipv6_2ext_2rh_8h.html" target="_top" xlink:title="Routing extension header definitions.">
<polygon fill="white" stroke="#666666" points="190.12,-77.5 93.88,-77.5 93.88,-56.75 190.12,-56.75 190.12,-77.5"/>
<text text-anchor="middle" x="142" y="-64" font-family="Helvetica,sans-Serif" font-size="10.00">net/ipv6/ext/rh.h</text>
</a>
</g>
</g>
<!-- Node18&#45;&gt;Node20 -->
<g id="edge33_Node000018_Node000020" class="edge">
<title>Node18&#45;&gt;Node20</title>
<g id="a_edge33_Node000018_Node000020"><a xlink:title=" ">
<path fill="none" stroke="#63b8ff" d="M144.83,-226.85C144.36,-200.48 143.03,-126.08 142.38,-89.28"/>
<polygon fill="#63b8ff" stroke="#63b8ff" points="145.88,-89.42 142.2,-79.48 138.88,-89.54 145.88,-89.42"/>
</a>
</g>
</g>
<!-- Node19&#45;&gt;Node6 -->
<g id="edge31_Node000019_Node000006" class="edge">
<title>Node19&#45;&gt;Node6</title>
<g id="a_edge31_Node000019_Node000006"><a xlink:title=" ">
<path fill="none" stroke="#63b8ff" d="M384.75,-169.99C406.4,-148.74 460.43,-96.58 509,-56.75 521.41,-46.57 535.85,-35.94 547.67,-27.53"/>
<polygon fill="#63b8ff" stroke="#63b8ff" points="549.48,-30.53 555.64,-21.91 545.45,-24.81 549.48,-30.53"/>
</a>
</g>
</g>
<!-- Node19&#45;&gt;Node10 -->
<g id="edge30_Node000019_Node000010" class="edge">
<title>Node19&#45;&gt;Node10</title>
<g id="a_edge30_Node000019_Node000010"><a xlink:title=" ">
<path fill="none" stroke="#63b8ff" d="M405.04,-169.84C432.19,-160.99 472.38,-147.89 502.39,-138.11"/>
<polygon fill="#63b8ff" stroke="#63b8ff" points="503.08,-141.57 511.5,-135.14 500.91,-134.91 503.08,-141.57"/>
</a>
</g>
</g>
<!-- Node19&#45;&gt;Node13 -->
<g id="edge32_Node000019_Node000013" class="edge">
<title>Node19&#45;&gt;Node13</title>
<g id="a_edge32_Node000019_Node000013"><a xlink:title=" ">
<path fill="none" stroke="#63b8ff" d="M364.99,-169.84C357.26,-162.28 346.37,-151.64 337.13,-142.6"/>
<polygon fill="#63b8ff" stroke="#63b8ff" points="339.6,-140.12 330.01,-135.64 334.71,-145.13 339.6,-140.12"/>
</a>
</g>
</g>
<!-- Node20&#45;&gt;Node6 -->
<g id="edge34_Node000020_Node000006" class="edge">
<title>Node20&#45;&gt;Node6</title>
<g id="a_edge34_Node000020_Node000006"><a xlink:title=" ">
<path fill="none" stroke="#63b8ff" d="M190.4,-58.16C193.65,-57.67 196.87,-57.19 200,-56.75 321.52,-39.5 465.99,-22.97 533.17,-15.51"/>
<polygon fill="#63b8ff" stroke="#63b8ff" points="533.35,-19.02 542.91,-14.44 532.58,-12.06 533.35,-19.02"/>
</a>
</g>
</g>
<!-- Node21&#45;&gt;Node6 -->
<g id="edge36_Node000021_Node000006" class="edge">
<title>Node21&#45;&gt;Node6</title>
<g id="a_edge36_Node000021_Node000006"><a xlink:title=" ">
<path fill="none" stroke="#63b8ff" d="M369.18,-285.59C421.58,-274.11 510.47,-247.32 563,-191 603.55,-147.52 588.19,-69.31 577.67,-32.11"/>
<polygon fill="#63b8ff" stroke="#63b8ff" points="581.05,-31.19 574.81,-22.63 574.34,-33.21 581.05,-31.19"/>
</a>
</g>
</g>
<!-- Node21&#45;&gt;Node12 -->
<g id="edge41_Node000021_Node000012" class="edge">
<title>Node21&#45;&gt;Node12</title>
<g id="a_edge41_Node000021_Node000012"><a xlink:title=" ">
<path fill="none" stroke="#63b8ff" d="M313.95,-283.34C303.36,-275.4 288.21,-264.03 275.78,-254.71"/>
<polygon fill="#63b8ff" stroke="#63b8ff" points="278.25,-252.19 268.15,-248.99 274.05,-257.79 278.25,-252.19"/>
</a>
</g>
</g>
<!-- Node21&#45;&gt;Node13 -->
<g id="edge37_Node000021_Node000013" class="edge">
<title>Node21&#45;&gt;Node13</title>
<g id="a_edge37_Node000021_Node000013"><a xlink:title=" ">
<path fill="none" stroke="#63b8ff" d="M324.67,-283.28C320.01,-262.47 310.22,-212.46 313,-170.25 313.53,-162.23 314.58,-153.46 315.65,-145.79"/>
<polygon fill="#63b8ff" stroke="#63b8ff" points="319.09,-146.48 317.12,-136.07 312.16,-145.44 319.09,-146.48"/>
</a>
</g>
</g>
<!-- Node22 -->
<g id="Node000022" class="node">
<title>Node22</title>
<g id="a_Node000022"><a xlink:href="inet__csum_8h.html" target="_top" xlink:title="Internet Checksum definitions.">
<polygon fill="white" stroke="#666666" points="692,-247.75 598,-247.75 598,-227 692,-227 692,-247.75"/>
<text text-anchor="middle" x="645" y="-234.25" font-family="Helvetica,sans-Serif" font-size="10.00">net/inet_csum.h</text>
</a>
</g>
</g>
<!-- Node21&#45;&gt;Node22 -->
<g id="edge38_Node000021_Node000022" class="edge">
<title>Node21&#45;&gt;Node22</title>
<g id="a_edge38_Node000021_Node000022"><a xlink:title=" ">
<path fill="none" stroke="#63b8ff" d="M369.23,-285.85C424.98,-276.26 523.4,-259.31 586.35,-248.47"/>
<polygon fill="#63b8ff" stroke="#63b8ff" points="586.92,-251.93 596.18,-246.78 585.73,-245.03 586.92,-251.93"/>
</a>
</g>
</g>
<!-- Node22&#45;&gt;Node17 -->
<g id="edge40_Node000022_Node000017" class="edge">
<title>Node22&#45;&gt;Node17</title>
<g id="a_edge40_Node000022_Node000017"><a xlink:title=" ">
<path fill="none" stroke="#63b8ff" d="M643.98,-226.85C641.16,-200.48 633.2,-126.08 629.26,-89.28"/>
<polygon fill="#63b8ff" stroke="#63b8ff" points="632.76,-89.04 628.21,-79.47 625.8,-89.79 632.76,-89.04"/>
</a>
</g>
</g>
<!-- Node23 -->
<g id="Node000023" class="node">
<title>Node23</title>
<g id="a_Node000023"><a xlink:href="inttypes_8h.html" target="_top" xlink:title="Adds include for missing inttype definitions.">
<polygon fill="white" stroke="#666666" points="1222.38,-191 1157.62,-191 1157.62,-170.25 1222.38,-170.25 1222.38,-191"/>
<text text-anchor="middle" x="1190" y="-177.5" font-family="Helvetica,sans-Serif" font-size="10.00">inttypes.h</text>
</a>
</g>
</g>
<!-- Node22&#45;&gt;Node23 -->
<g id="edge39_Node000022_Node000023" class="edge">
<title>Node22&#45;&gt;Node23</title>
<g id="a_edge39_Node000022_Node000023"><a xlink:title=" ">
<path fill="none" stroke="#63b8ff" d="M692.16,-234.26C779.76,-229.86 973.62,-217.98 1146.08,-191.28"/>
<polygon fill="#63b8ff" stroke="#63b8ff" points="1146.57,-194.74 1155.91,-189.73 1145.49,-187.83 1146.57,-194.74"/>
</a>
</g>
</g>
<!-- Node24&#45;&gt;Node6 -->
<g id="edge43_Node000024_Node000006" class="edge">
<title>Node24&#45;&gt;Node6</title>
<g id="a_edge43_Node000024_Node000006"><a xlink:title=" ">
<path fill="none" stroke="#63b8ff" d="M996.46,-226.77C1003.37,-199.41 1021.95,-122.49 1015,-113.5 965.1,-49.02 707.64,-22.16 609.27,-14.15"/>
<polygon fill="#63b8ff" stroke="#63b8ff" points="609.57,-10.66 599.33,-13.36 609.02,-17.64 609.57,-10.66"/>
</a>
</g>
</g>
<!-- Node24&#45;&gt;Node9 -->
<g id="edge46_Node000024_Node000009" class="edge">
<title>Node24&#45;&gt;Node9</title>
<g id="a_edge46_Node000024_Node000009"><a xlink:title=" ">
<path fill="none" stroke="#63b8ff" d="M955.16,-228.99C903.3,-219.13 811.45,-201.67 754.92,-190.93"/>
<polygon fill="#63b8ff" stroke="#63b8ff" points="755.73,-187.52 745.26,-189.09 754.43,-194.39 755.73,-187.52"/>
</a>
</g>
</g>
<!-- Node25 -->
<g id="Node000025" class="node">
<title>Node25</title>
<g id="a_Node000025"><a xlink:href="errno_8h.html" target="_top" xlink:title=" ">
<polygon fill="white" stroke="#666666" points="1072.25,-191 1021.75,-191 1021.75,-170.25 1072.25,-170.25 1072.25,-191"/>
<text text-anchor="middle" x="1047" y="-177.5" font-family="Helvetica,sans-Serif" font-size="10.00">errno.h</text>
</a>
</g>
</g>
<!-- Node24&#45;&gt;Node25 -->
<g id="edge44_Node000024_Node000025" class="edge">
<title>Node24&#45;&gt;Node25</title>
<g id="a_edge44_Node000024_Node000025"><a xlink:title=" ">
<path fill="none" stroke="#63b8ff" d="M1003.48,-226.59C1010.79,-219.03 1021.09,-208.39 1029.84,-199.35"/>
<polygon fill="#63b8ff" stroke="#63b8ff" points="1032.11,-202.04 1036.55,-192.42 1027.08,-197.17 1032.11,-202.04"/>
</a>
</g>
</g>
<!-- Node26 -->
<g id="Node000026" class="node">
<title>Node26</title>
<g id="a_Node000026"><a xlink:href="iolist_8h.html" target="_top" xlink:title="iolist scatter / gather IO">
<polygon fill="white" stroke="#666666" points="1139.5,-191 1090.5,-191 1090.5,-170.25 1139.5,-170.25 1139.5,-191"/>
<text text-anchor="middle" x="1115" y="-177.5" font-family="Helvetica,sans-Serif" font-size="10.00">iolist.h</text>
</a>
</g>
</g>
<!-- Node24&#45;&gt;Node26 -->
<g id="edge45_Node000024_Node000026" class="edge">
<title>Node24&#45;&gt;Node26</title>
<g id="a_edge45_Node000024_Node000026"><a xlink:title=" ">
<path fill="none" stroke="#63b8ff" d="M1015.63,-226.59C1034.47,-218.06 1062.04,-205.59 1083.36,-195.94"/>
<polygon fill="#63b8ff" stroke="#63b8ff" points="1084.51,-199.26 1092.18,-191.95 1081.62,-192.89 1084.51,-199.26"/>
</a>
</g>
</g>
<!-- Node27 -->
<g id="Node000027" class="node">
<title>Node27</title>
<g id="a_Node000027"><a xlink:href="kernel__defines_8h.html" target="_top" xlink:title="Common macros and compiler attributes/pragmas configuration.">
<polygon fill="white" stroke="#666666" points="966.12,-191 869.88,-191 869.88,-170.25 966.12,-170.25 966.12,-191"/>
<text text-anchor="middle" x="918" y="-177.5" font-family="Helvetica,sans-Serif" font-size="10.00">kernel_defines.h</text>
</a>
</g>
</g>
<!-- Node24&#45;&gt;Node27 -->
<g id="edge47_Node000024_Node000027" class="edge">
<title>Node24&#45;&gt;Node27</title>
<g id="a_edge47_Node000024_Node000027"><a xlink:title=" ">
<path fill="none" stroke="#63b8ff" d="M980.41,-226.59C969.39,-218.65 953.61,-207.28 940.68,-197.96"/>
<polygon fill="#63b8ff" stroke="#63b8ff" points="942.86,-195.22 932.7,-192.21 938.77,-200.9 942.86,-195.22"/>
</a>
</g>
</g>
<!-- Node28 -->
<g id="Node000028" class="node">
<title>Node28</title>
<g id="a_Node000028"><a xlink:href="modules_8h.html" target="_top" xlink:title="Common macros and compiler attributes/pragmas configuration.">
<polygon fill="white" stroke="#666666" points="1005.5,-134.25 938.5,-134.25 938.5,-113.5 1005.5,-113.5 1005.5,-134.25"/>
<text text-anchor="middle" x="972" y="-120.75" font-family="Helvetica,sans-Serif" font-size="10.00">modules.h</text>
</a>
</g>
</g>
<!-- Node27&#45;&gt;Node28 -->
<g id="edge48_Node000027_Node000028" class="edge">
<title>Node27&#45;&gt;Node28</title>
<g id="a_edge48_Node000027_Node000028"><a xlink:title=" ">
<path fill="none" stroke="#63b8ff" d="M927.65,-169.84C935.1,-162.28 945.61,-151.64 954.52,-142.6"/>
<polygon fill="#63b8ff" stroke="#63b8ff" points="956.84,-145.23 961.37,-135.66 951.85,-140.32 956.84,-145.23"/>
</a>
</g>
</g>
<!-- Node29 -->
<g id="Node000029" class="node">
<title>Node29</title>
<g id="a_Node000029"><a xlink:href="riot__version_8h.html" target="_top" xlink:title="Common macros and compiler attributes/pragmas configuration.">
<polygon fill="white" stroke="#666666" points="920.38,-134.25 837.62,-134.25 837.62,-113.5 920.38,-113.5 920.38,-134.25"/>
<text text-anchor="middle" x="879" y="-120.75" font-family="Helvetica,sans-Serif" font-size="10.00">riot_version.h</text>
</a>
</g>
</g>
<!-- Node27&#45;&gt;Node29 -->
<g id="edge49_Node000027_Node000029" class="edge">
<title>Node27&#45;&gt;Node29</title>
<g id="a_edge49_Node000027_Node000029"><a xlink:title=" ">
<path fill="none" stroke="#63b8ff" d="M911.03,-169.84C905.87,-162.6 898.68,-152.51 892.43,-143.72"/>
<polygon fill="#63b8ff" stroke="#63b8ff" points="895.44,-141.93 886.79,-135.81 889.74,-145.99 895.44,-141.93"/>
</a>
</g>
</g>
<!-- Node30 -->
<g id="Node000030" class="node">
<title>Node30</title>
<g id="a_Node000030"><a xlink:href="compiler__hints_8h.html" target="_top" xlink:title="Common macros and compiler attributes/pragmas configuration.">
<polygon fill="white" stroke="#666666" points="1177.5,-134.25 1080.5,-134.25 1080.5,-113.5 1177.5,-113.5 1177.5,-134.25"/>
<text text-anchor="middle" x="1129" y="-120.75" font-family="Helvetica,sans-Serif" font-size="10.00">compiler_hints.h</text>
</a>
</g>
</g>
<!-- Node27&#45;&gt;Node30 -->
<g id="edge51_Node000027_Node000030" class="edge">
<title>Node27&#45;&gt;Node30</title>
<g id="a_edge51_Node000027_Node000030"><a xlink:title=" ">
<path fill="none" stroke="#63b8ff" d="M955.72,-169.84C990.57,-160.79 1042.53,-147.31 1080.46,-137.47"/>
<polygon fill="#63b8ff" stroke="#63b8ff" points="1080.98,-140.95 1089.78,-135.05 1079.23,-134.17 1080.98,-140.95"/>
</a>
</g>
</g>
<!-- Node32 -->
<g id="Node000032" class="node">
<title>Node32</title>
<g id="a_Node000032"><a xlink:href="container_8h.html" target="_top" xlink:title="Common macros and compiler attributes/pragmas configuration.">
<polygon fill="white" stroke="#666666" points="819.38,-134.25 748.62,-134.25 748.62,-113.5 819.38,-113.5 819.38,-134.25"/>
<text text-anchor="middle" x="784" y="-120.75" font-family="Helvetica,sans-Serif" font-size="10.00">container.h</text>
</a>
</g>
</g>
<!-- Node27&#45;&gt;Node32 -->
<g id="edge55_Node000027_Node000032" class="edge">
<title>Node27&#45;&gt;Node32</title>
<g id="a_edge55_Node000027_Node000032"><a xlink:title=" ">
<path fill="none" stroke="#63b8ff" d="M894.04,-169.84C872.99,-161.23 842.1,-148.61 818.4,-138.93"/>
<polygon fill="#63b8ff" stroke="#63b8ff" points="819.73,-135.69 809.15,-135.15 817.08,-142.17 819.73,-135.69"/>
</a>
</g>
</g>
<!-- Node29&#45;&gt;Node6 -->
<g id="edge50_Node000029_Node000006" class="edge">
<title>Node29&#45;&gt;Node6</title>
<g id="a_edge50_Node000029_Node000006"><a xlink:title=" ">
<path fill="none" stroke="#63b8ff" d="M864.61,-113.17C842.84,-98.9 799.86,-72.28 760,-56.75 709.42,-37.05 647.78,-24.19 608.95,-17.36"/>
<polygon fill="#63b8ff" stroke="#63b8ff" points="609.61,-13.92 599.16,-15.68 608.43,-20.82 609.61,-13.92"/>
</a>
</g>
</g>
<!-- Node30&#45;&gt;Node6 -->
<g id="edge54_Node000030_Node000006" class="edge">
<title>Node30&#45;&gt;Node6</title>
<g id="a_edge54_Node000030_Node000006"><a xlink:title=" ">
<path fill="none" stroke="#63b8ff" d="M1132.2,-113.29C1136.33,-98.93 1141.4,-71.9 1127,-56.75 1091.41,-19.29 728.73,-12.75 609.07,-11.61"/>
<polygon fill="#63b8ff" stroke="#63b8ff" points="609.17,-8.11 599.14,-11.53 609.11,-15.11 609.17,-8.11"/>
</a>
</g>
</g>
<!-- Node31 -->
<g id="Node000031" class="node">
<title>Node31</title>
<g id="a_Node000031"><a xlink:href="assert_8h.html" target="_top" xlink:title="POSIX.1&#45;2008 compliant version of the assert macro.">
<polygon fill="white" stroke="#666666" points="1117.5,-77.5 1062.5,-77.5 1062.5,-56.75 1117.5,-56.75 1117.5,-77.5"/>
<text text-anchor="middle" x="1090" y="-64" font-family="Helvetica,sans-Serif" font-size="10.00">assert.h</text>
</a>
</g>
</g>
<!-- Node30&#45;&gt;Node31 -->
<g id="edge52_Node000030_Node000031" class="edge">
<title>Node30&#45;&gt;Node31</title>
<g id="a_edge52_Node000030_Node000031"><a xlink:title=" ">
<path fill="none" stroke="#63b8ff" d="M1122.03,-113.09C1116.87,-105.85 1109.68,-95.76 1103.43,-86.97"/>
<polygon fill="#63b8ff" stroke="#63b8ff" points="1106.44,-85.18 1097.79,-79.06 1100.74,-89.24 1106.44,-85.18"/>
</a>
</g>
</g>
<!-- Node31&#45;&gt;Node6 -->
<g id="edge53_Node000031_Node000006" class="edge">
<title>Node31&#45;&gt;Node6</title>
<g id="a_edge53_Node000031_Node000006"><a xlink:title=" ">
<path fill="none" stroke="#63b8ff" d="M1062.08,-59.38C1057.4,-58.4 1052.57,-57.48 1048,-56.75 885.87,-31.05 690.27,-18.01 609.13,-13.38"/>
<polygon fill="#63b8ff" stroke="#63b8ff" points="609.47,-9.9 599.29,-12.83 609.08,-16.89 609.47,-9.9"/>
</a>
</g>
</g>
<!-- Node32&#45;&gt;Node6 -->
<g id="edge57_Node000032_Node000006" class="edge">
<title>Node32&#45;&gt;Node6</title>
<g id="a_edge57_Node000032_Node000006"><a xlink:title=" ">
<path fill="none" stroke="#63b8ff" d="M779.46,-113.18C772.16,-98.68 756.44,-71.47 735,-56.75 696.92,-30.62 644.19,-19.48 608.91,-14.77"/>
<polygon fill="#63b8ff" stroke="#63b8ff" points="609.51,-11.32 599.16,-13.59 608.66,-18.27 609.51,-11.32"/>
</a>
</g>
</g>
<!-- Node32&#45;&gt;Node17 -->
<g id="edge56_Node000032_Node000017" class="edge">
<title>Node32&#45;&gt;Node17</title>
<g id="a_edge56_Node000032_Node000017"><a xlink:title=" ">
<path fill="none" stroke="#63b8ff" d="M755.93,-113.09C730.7,-104.29 693.42,-91.29 665.43,-81.53"/>
<polygon fill="#63b8ff" stroke="#63b8ff" points="666.85,-78.31 656.25,-78.33 664.54,-84.92 666.85,-78.31"/>
</a>
</g>
</g>
<!-- Node33&#45;&gt;Node23 -->
<g id="edge59_Node000033_Node000023" class="edge">
<title>Node33&#45;&gt;Node23</title>
<g id="a_edge59_Node000033_Node000023"><a xlink:title=" ">
<path fill="none" stroke="#63b8ff" d="M1190,-226.59C1190,-219.97 1190,-210.97 1190,-202.77"/>
<polygon fill="#63b8ff" stroke="#63b8ff" points="1193.5,-202.84 1190,-192.84 1186.5,-202.84 1193.5,-202.84"/>
</a>
</g>
</g>
<!-- Node33&#45;&gt;Node30 -->
<g id="edge60_Node000033_Node000030" class="edge">
<title>Node33&#45;&gt;Node30</title>
<g id="a_edge60_Node000033_Node000030"><a xlink:title=" ">
<path fill="none" stroke="#63b8ff" d="M1203.58,-226.66C1219.99,-213.69 1243.88,-190.07 1231,-170.25 1221.12,-155.04 1204.83,-144.89 1188.14,-138.13"/>
<polygon fill="#63b8ff" stroke="#63b8ff" points="1189.77,-134.99 1179.18,-134.86 1187.37,-141.57 1189.77,-134.99"/>
</a>
</g>
</g>
</g>
</svg>
