<?xml version="1.0" encoding="UTF-8" standalone="no"?>
<!DOCTYPE svg PUBLIC "-//W3C//DTD SVG 1.1//EN"
 "http://www.w3.org/Graphics/SVG/1.1/DTD/svg11.dtd">
<!-- Generated by graphviz version 12.1.2 (0)
 -->
<!-- Title: pkg/wakaama/include/lwm2m_client_objects.h Pages: 1 -->
<svg width="1175pt" height="439pt"
 viewBox="0.00 0.00 1175.12 438.75" xmlns="http://www.w3.org/2000/svg" xmlns:xlink="http://www.w3.org/1999/xlink">
<g id="graph0" class="graph" transform="scale(1 1) rotate(0) translate(4 434.75)">
<title>pkg/wakaama/include/lwm2m_client_objects.h</title>
<!-- Node1 -->
<g id="Node000001" class="node">
<title>Node1</title>
<g id="a_Node000001"><a xlink:title="Public API and definitions for the helper functions to interact with basic objects from a LwM2M clien...">
<polygon fill="#999999" stroke="#666666" points="784,-430.75 646.5,-430.75 646.5,-397.25 784,-397.25 784,-430.75"/>
<text text-anchor="start" x="654.5" y="-417.25" font-family="Helvetica,sans-Serif" font-size="10.00">pkg/wakaama/include</text>
<text text-anchor="middle" x="715.25" y="-404.5" font-family="Helvetica,sans-Serif" font-size="10.00">/lwm2m_client_objects.h</text>
</a>
</g>
</g>
<!-- Node2 -->
<g id="Node000002" class="node">
<title>Node2</title>
<g id="a_Node000002"><a xlink:href="lwm2m__client_8h.html" target="_top" xlink:title="Definitions and public API for a LwM2M client using Wakaama.">
<polygon fill="white" stroke="#666666" points="762.25,-361.25 668.25,-361.25 668.25,-340.5 762.25,-340.5 762.25,-361.25"/>
<text text-anchor="middle" x="715.25" y="-347.75" font-family="Helvetica,sans-Serif" font-size="10.00">lwm2m_client.h</text>
</a>
</g>
</g>
<!-- Node1&#45;&gt;Node2 -->
<g id="edge1_Node000001_Node000002" class="edge">
<title>Node1&#45;&gt;Node2</title>
<g id="a_edge1_Node000001_Node000002"><a xlink:title=" ">
<path fill="none" stroke="#63b8ff" d="M715.25,-396.94C715.25,-389.6 715.25,-380.82 715.25,-372.96"/>
<polygon fill="#63b8ff" stroke="#63b8ff" points="718.75,-373.23 715.25,-363.23 711.75,-373.23 718.75,-373.23"/>
</a>
</g>
</g>
<!-- Node3 -->
<g id="Node000003" class="node">
<title>Node3</title>
<g id="a_Node000003"><a xlink:title=" ">
<polygon fill="#e0e0e0" stroke="#999999" points="259.25,-304.5 207.25,-304.5 207.25,-283.75 259.25,-283.75 259.25,-304.5"/>
<text text-anchor="middle" x="233.25" y="-291" font-family="Helvetica,sans-Serif" font-size="10.00">ctype.h</text>
</a>
</g>
</g>
<!-- Node2&#45;&gt;Node3 -->
<g id="edge2_Node000002_Node000003" class="edge">
<title>Node2&#45;&gt;Node3</title>
<g id="a_edge2_Node000002_Node000003"><a xlink:title=" ">
<path fill="none" stroke="#63b8ff" d="M667.89,-347.01C586.69,-341.65 415.89,-328.44 273.25,-304.5 272.27,-304.33 271.27,-304.16 270.26,-303.98"/>
<polygon fill="#63b8ff" stroke="#63b8ff" points="271.38,-300.63 260.89,-302.06 269.98,-307.49 271.38,-300.63"/>
</a>
</g>
</g>
<!-- Node4 -->
<g id="Node000004" class="node">
<title>Node4</title>
<g id="a_Node000004"><a xlink:href="errno_8h.html" target="_top" xlink:title=" ">
<polygon fill="white" stroke="#666666" points="50.5,-247.75 0,-247.75 0,-227 50.5,-227 50.5,-247.75"/>
<text text-anchor="middle" x="25.25" y="-234.25" font-family="Helvetica,sans-Serif" font-size="10.00">errno.h</text>
</a>
</g>
</g>
<!-- Node2&#45;&gt;Node4 -->
<g id="edge3_Node000002_Node000004" class="edge">
<title>Node2&#45;&gt;Node4</title>
<g id="a_edge3_Node000002_Node000004"><a xlink:title=" ">
<path fill="none" stroke="#63b8ff" d="M668.04,-350.51C590.62,-350.25 432.65,-344.32 306.25,-304.5 287.9,-298.72 286.41,-290.12 268.25,-283.75 181.37,-253.29 154.38,-266.52 64.25,-247.75 63.43,-247.58 62.6,-247.4 61.77,-247.23"/>
<polygon fill="#63b8ff" stroke="#63b8ff" points="62.79,-243.87 52.27,-245.08 61.26,-250.7 62.79,-243.87"/>
</a>
</g>
</g>
<!-- Node5 -->
<g id="Node000005" class="node">
<title>Node5</title>
<g id="a_Node000005"><a xlink:href="stdio_8h.html" target="_top" xlink:title="stdio wrapper to extend the C libs stdio">
<polygon fill="white" stroke="#666666" points="766.75,-304.5 717.75,-304.5 717.75,-283.75 766.75,-283.75 766.75,-304.5"/>
<text text-anchor="middle" x="742.25" y="-291" font-family="Helvetica,sans-Serif" font-size="10.00">stdio.h</text>
</a>
</g>
</g>
<!-- Node2&#45;&gt;Node5 -->
<g id="edge4_Node000002_Node000005" class="edge">
<title>Node2&#45;&gt;Node5</title>
<g id="a_edge4_Node000002_Node000005"><a xlink:title=" ">
<path fill="none" stroke="#63b8ff" d="M720.08,-340.09C723.49,-333.16 728.2,-323.62 732.39,-315.11"/>
<polygon fill="#63b8ff" stroke="#63b8ff" points="735.51,-316.7 736.8,-306.19 729.23,-313.61 735.51,-316.7"/>
</a>
</g>
</g>
<!-- Node7 -->
<g id="Node000007" class="node">
<title>Node7</title>
<g id="a_Node000007"><a xlink:title=" ">
<polygon fill="#e0e0e0" stroke="#999999" points="811.62,-77.5 758.88,-77.5 758.88,-56.75 811.62,-56.75 811.62,-77.5"/>
<text text-anchor="middle" x="785.25" y="-64" font-family="Helvetica,sans-Serif" font-size="10.00">string.h</text>
</a>
</g>
</g>
<!-- Node2&#45;&gt;Node7 -->
<g id="edge21_Node000002_Node000007" class="edge">
<title>Node2&#45;&gt;Node7</title>
<g id="a_edge21_Node000002_Node000007"><a xlink:title=" ">
<path fill="none" stroke="#63b8ff" d="M734.96,-340.07C748.61,-332.27 766.08,-320.09 776.25,-304.5 823.25,-232.48 826.5,-197.32 807.25,-113.5 805.2,-104.57 801.15,-95.36 797.07,-87.58"/>
<polygon fill="#63b8ff" stroke="#63b8ff" points="800.22,-86.04 792.25,-79.05 794.13,-89.48 800.22,-86.04"/>
</a>
</g>
</g>
<!-- Node17 -->
<g id="Node000017" class="node">
<title>Node17</title>
<g id="a_Node000017"><a xlink:title=" ">
<polygon fill="#e0e0e0" stroke="#999999" points="597.25,-247.75 545.25,-247.75 545.25,-227 597.25,-227 597.25,-247.75"/>
<text text-anchor="middle" x="571.25" y="-234.25" font-family="Helvetica,sans-Serif" font-size="10.00">stdlib.h</text>
</a>
</g>
</g>
<!-- Node2&#45;&gt;Node17 -->
<g id="edge20_Node000002_Node000017" class="edge">
<title>Node2&#45;&gt;Node17</title>
<g id="a_edge20_Node000002_Node000017"><a xlink:title=" ">
<path fill="none" stroke="#63b8ff" d="M702.72,-340.18C678.15,-321.15 623.36,-278.73 592.84,-255.09"/>
<polygon fill="#63b8ff" stroke="#63b8ff" points="595.1,-252.41 585.05,-249.06 590.81,-257.95 595.1,-252.41"/>
</a>
</g>
</g>
<!-- Node18 -->
<g id="Node000018" class="node">
<title>Node18</title>
<g id="a_Node000018"><a xlink:title=" ">
<polygon fill="#e0e0e0" stroke="#999999" points="687,-247.75 615.5,-247.75 615.5,-227 687,-227 687,-247.75"/>
<text text-anchor="middle" x="651.25" y="-234.25" font-family="Helvetica,sans-Serif" font-size="10.00">sys/types.h</text>
</a>
</g>
</g>
<!-- Node2&#45;&gt;Node18 -->
<g id="edge22_Node000002_Node000018" class="edge">
<title>Node2&#45;&gt;Node18</title>
<g id="a_edge22_Node000002_Node000018"><a xlink:title=" ">
<path fill="none" stroke="#63b8ff" d="M709.79,-340.37C699.36,-322.19 676.39,-282.17 662.53,-258.02"/>
<polygon fill="#63b8ff" stroke="#63b8ff" points="665.64,-256.42 657.63,-249.49 659.57,-259.9 665.64,-256.42"/>
</a>
</g>
</g>
<!-- Node19 -->
<g id="Node000019" class="node">
<title>Node19</title>
<g id="a_Node000019"><a xlink:href="pm_8h.html" target="_top" xlink:title="Power management interface.">
<polygon fill="white" stroke="#666666" points="927.5,-304.5 853,-304.5 853,-283.75 927.5,-283.75 927.5,-304.5"/>
<text text-anchor="middle" x="890.25" y="-291" font-family="Helvetica,sans-Serif" font-size="10.00">periph/pm.h</text>
</a>
</g>
</g>
<!-- Node2&#45;&gt;Node19 -->
<g id="edge23_Node000002_Node000019" class="edge">
<title>Node2&#45;&gt;Node19</title>
<g id="a_edge23_Node000002_Node000019"><a xlink:title=" ">
<path fill="none" stroke="#63b8ff" d="M746.54,-340.09C774.94,-331.2 817.06,-318.02 848.36,-308.23"/>
<polygon fill="#63b8ff" stroke="#63b8ff" points="849,-311.7 857.5,-305.37 846.91,-305.02 849,-311.7"/>
</a>
</g>
</g>
<!-- Node21 -->
<g id="Node000021" class="node">
<title>Node21</title>
<g id="a_Node000021"><a xlink:href="sock_2udp_8h.html" target="_top" xlink:title="UDP sock definitions.">
<polygon fill="white" stroke="#666666" points="402.88,-304.5 315.62,-304.5 315.62,-283.75 402.88,-283.75 402.88,-304.5"/>
<text text-anchor="middle" x="359.25" y="-291" font-family="Helvetica,sans-Serif" font-size="10.00">net/sock/udp.h</text>
</a>
</g>
</g>
<!-- Node2&#45;&gt;Node21 -->
<g id="edge25_Node000002_Node000021" class="edge">
<title>Node2&#45;&gt;Node21</title>
<g id="a_edge25_Node000002_Node000021"><a xlink:title=" ">
<path fill="none" stroke="#63b8ff" d="M667.98,-342.6C602.4,-332.52 484.07,-314.32 414.51,-303.62"/>
<polygon fill="#63b8ff" stroke="#63b8ff" points="415.27,-300.2 404.85,-302.14 414.21,-307.12 415.27,-300.2"/>
</a>
</g>
</g>
<!-- Node32 -->
<g id="Node000032" class="node">
<title>Node32</title>
<g id="a_Node000032"><a xlink:href="lwm2m__client__config_8h.html" target="_top" xlink:title="LwM2M client configurations.">
<polygon fill="white" stroke="#666666" points="1074.88,-304.5 945.62,-304.5 945.62,-283.75 1074.88,-283.75 1074.88,-304.5"/>
<text text-anchor="middle" x="1010.25" y="-291" font-family="Helvetica,sans-Serif" font-size="10.00">lwm2m_client_config.h</text>
</a>
</g>
</g>
<!-- Node2&#45;&gt;Node32 -->
<g id="edge53_Node000002_Node000032" class="edge">
<title>Node2&#45;&gt;Node32</title>
<g id="a_edge53_Node000002_Node000032"><a xlink:title=" ">
<path fill="none" stroke="#63b8ff" d="M762.65,-341.08C812.4,-331.85 890.91,-317.27 946.17,-307.02"/>
<polygon fill="#63b8ff" stroke="#63b8ff" points="946.56,-310.51 955.75,-305.24 945.28,-303.62 946.56,-310.51"/>
</a>
</g>
</g>
<!-- Node33 -->
<g id="Node000033" class="node">
<title>Node33</title>
<g id="a_Node000033"><a xlink:title=" ">
<polygon fill="#e0e0e0" stroke="#999999" points="1167.12,-304.5 1093.38,-304.5 1093.38,-283.75 1167.12,-283.75 1167.12,-304.5"/>
<text text-anchor="middle" x="1130.25" y="-291" font-family="Helvetica,sans-Serif" font-size="10.00">liblwm2m.h</text>
</a>
</g>
</g>
<!-- Node2&#45;&gt;Node33 -->
<g id="edge54_Node000002_Node000033" class="edge">
<title>Node2&#45;&gt;Node33</title>
<g id="a_edge54_Node000002_Node000033"><a xlink:title=" ">
<path fill="none" stroke="#63b8ff" d="M762.6,-345.26C830.85,-338.34 961.08,-324.15 1081.63,-304.82"/>
<polygon fill="#63b8ff" stroke="#63b8ff" points="1082.08,-308.29 1091.39,-303.24 1080.96,-301.38 1082.08,-308.29"/>
</a>
</g>
</g>
<!-- Node6 -->
<g id="Node000006" class="node">
<title>Node6</title>
<g id="a_Node000006"><a xlink:href="flash__utils_8h.html" target="_top" xlink:title="Utility functions, macros, and types for read&#45;only memory.">
<polygon fill="white" stroke="#666666" points="779.88,-247.75 704.62,-247.75 704.62,-227 779.88,-227 779.88,-247.75"/>
<text text-anchor="middle" x="742.25" y="-234.25" font-family="Helvetica,sans-Serif" font-size="10.00">flash_utils.h</text>
</a>
</g>
</g>
<!-- Node5&#45;&gt;Node6 -->
<g id="edge5_Node000005_Node000006" class="edge">
<title>Node5&#45;&gt;Node6</title>
<g id="a_edge5_Node000005_Node000006"><a xlink:title=" ">
<path fill="none" stroke="#63b8ff" d="M736.93,-283.34C735.66,-276.72 735.24,-267.72 735.66,-259.52"/>
<polygon fill="#63b8ff" stroke="#63b8ff" points="739.14,-259.91 736.78,-249.58 732.18,-259.13 739.14,-259.91"/>
</a>
</g>
</g>
<!-- Node6&#45;&gt;Node5 -->
<g id="edge6_Node000006_Node000005" class="edge">
<title>Node6&#45;&gt;Node5</title>
<g id="a_edge6_Node000006_Node000005"><a xlink:title=" ">
<path fill="none" stroke="#63b8ff" d="M747.55,-248.08C748.85,-254.75 749.27,-263.88 748.83,-272.17"/>
<polygon fill="#63b8ff" stroke="#63b8ff" points="745.39,-271.5 747.74,-281.83 752.34,-272.29 745.39,-271.5"/>
</a>
</g>
</g>
<!-- Node6&#45;&gt;Node7 -->
<g id="edge7_Node000006_Node000007" class="edge">
<title>Node6&#45;&gt;Node7</title>
<g id="a_edge7_Node000006_Node000007"><a xlink:title=" ">
<path fill="none" stroke="#63b8ff" d="M756,-226.59C766.22,-218.41 779.38,-205.72 785.25,-191 798.7,-157.26 794.26,-114.06 789.78,-88.9"/>
<polygon fill="#63b8ff" stroke="#63b8ff" points="793.25,-88.44 787.88,-79.31 786.39,-89.8 793.25,-88.44"/>
</a>
</g>
</g>
<!-- Node8 -->
<g id="Node000008" class="node">
<title>Node8</title>
<g id="a_Node000008"><a xlink:title=" ">
<polygon fill="#e0e0e0" stroke="#999999" points="776.12,-191 708.38,-191 708.38,-170.25 776.12,-170.25 776.12,-191"/>
<text text-anchor="middle" x="742.25" y="-177.5" font-family="Helvetica,sans-Serif" font-size="10.00">cpu_conf.h</text>
</a>
</g>
</g>
<!-- Node6&#45;&gt;Node8 -->
<g id="edge8_Node000006_Node000008" class="edge">
<title>Node6&#45;&gt;Node8</title>
<g id="a_edge8_Node000006_Node000008"><a xlink:title=" ">
<path fill="none" stroke="#63b8ff" d="M742.25,-226.59C742.25,-219.97 742.25,-210.97 742.25,-202.77"/>
<polygon fill="#63b8ff" stroke="#63b8ff" points="745.75,-202.84 742.25,-192.84 738.75,-202.84 745.75,-202.84"/>
</a>
</g>
</g>
<!-- Node9 -->
<g id="Node000009" class="node">
<title>Node9</title>
<g id="a_Node000009"><a xlink:href="kernel__defines_8h.html" target="_top" xlink:title="Common macros and compiler attributes/pragmas configuration.">
<polygon fill="white" stroke="#666666" points="652.38,-191 556.12,-191 556.12,-170.25 652.38,-170.25 652.38,-191"/>
<text text-anchor="middle" x="604.25" y="-177.5" font-family="Helvetica,sans-Serif" font-size="10.00">kernel_defines.h</text>
</a>
</g>
</g>
<!-- Node6&#45;&gt;Node9 -->
<g id="edge9_Node000006_Node000009" class="edge">
<title>Node6&#45;&gt;Node9</title>
<g id="a_edge9_Node000006_Node000009"><a xlink:title=" ">
<path fill="none" stroke="#63b8ff" d="M717.58,-226.59C695.8,-217.94 663.79,-205.25 639.34,-195.55"/>
<polygon fill="#63b8ff" stroke="#63b8ff" points="640.7,-192.32 630.11,-191.89 638.12,-198.83 640.7,-192.32"/>
</a>
</g>
</g>
<!-- Node10 -->
<g id="Node000010" class="node">
<title>Node10</title>
<g id="a_Node000010"><a xlink:href="modules_8h.html" target="_top" xlink:title="Common macros and compiler attributes/pragmas configuration.">
<polygon fill="white" stroke="#666666" points="737.75,-134.25 670.75,-134.25 670.75,-113.5 737.75,-113.5 737.75,-134.25"/>
<text text-anchor="middle" x="704.25" y="-120.75" font-family="Helvetica,sans-Serif" font-size="10.00">modules.h</text>
</a>
</g>
</g>
<!-- Node9&#45;&gt;Node10 -->
<g id="edge10_Node000009_Node000010" class="edge">
<title>Node9&#45;&gt;Node10</title>
<g id="a_edge10_Node000009_Node000010"><a xlink:title=" ">
<path fill="none" stroke="#63b8ff" d="M622.13,-169.84C637.34,-161.51 659.44,-149.41 676.88,-139.86"/>
<polygon fill="#63b8ff" stroke="#63b8ff" points="678.11,-143.18 685.2,-135.31 674.75,-137.04 678.11,-143.18"/>
</a>
</g>
</g>
<!-- Node11 -->
<g id="Node000011" class="node">
<title>Node11</title>
<g id="a_Node000011"><a xlink:href="riot__version_8h.html" target="_top" xlink:title="Common macros and compiler attributes/pragmas configuration.">
<polygon fill="white" stroke="#666666" points="696.62,-77.5 613.88,-77.5 613.88,-56.75 696.62,-56.75 696.62,-77.5"/>
<text text-anchor="middle" x="655.25" y="-64" font-family="Helvetica,sans-Serif" font-size="10.00">riot_version.h</text>
</a>
</g>
</g>
<!-- Node9&#45;&gt;Node11 -->
<g id="edge11_Node000009_Node000011" class="edge">
<title>Node9&#45;&gt;Node11</title>
<g id="a_edge11_Node000009_Node000011"><a xlink:title=" ">
<path fill="none" stroke="#63b8ff" d="M608.6,-170.12C616.87,-152.02 635.05,-112.28 646.11,-88.1"/>
<polygon fill="#63b8ff" stroke="#63b8ff" points="649.16,-89.85 650.14,-79.3 642.8,-86.94 649.16,-89.85"/>
</a>
</g>
</g>
<!-- Node13 -->
<g id="Node000013" class="node">
<title>Node13</title>
<g id="a_Node000013"><a xlink:href="compiler__hints_8h.html" target="_top" xlink:title="Common macros and compiler attributes/pragmas configuration.">
<polygon fill="white" stroke="#666666" points="523.75,-134.25 426.75,-134.25 426.75,-113.5 523.75,-113.5 523.75,-134.25"/>
<text text-anchor="middle" x="475.25" y="-120.75" font-family="Helvetica,sans-Serif" font-size="10.00">compiler_hints.h</text>
</a>
</g>
</g>
<!-- Node9&#45;&gt;Node13 -->
<g id="edge13_Node000009_Node000013" class="edge">
<title>Node9&#45;&gt;Node13</title>
<g id="a_edge13_Node000009_Node000013"><a xlink:title=" ">
<path fill="none" stroke="#63b8ff" d="M581.19,-169.84C561.01,-161.27 531.45,-148.73 508.68,-139.06"/>
<polygon fill="#63b8ff" stroke="#63b8ff" points="510.08,-135.85 499.51,-135.17 507.34,-142.3 510.08,-135.85"/>
</a>
</g>
</g>
<!-- Node15 -->
<g id="Node000015" class="node">
<title>Node15</title>
<g id="a_Node000015"><a xlink:href="container_8h.html" target="_top" xlink:title="Common macros and compiler attributes/pragmas configuration.">
<polygon fill="white" stroke="#666666" points="408.62,-134.25 337.88,-134.25 337.88,-113.5 408.62,-113.5 408.62,-134.25"/>
<text text-anchor="middle" x="373.25" y="-120.75" font-family="Helvetica,sans-Serif" font-size="10.00">container.h</text>
</a>
</g>
</g>
<!-- Node9&#45;&gt;Node15 -->
<g id="edge17_Node000009_Node000015" class="edge">
<title>Node9&#45;&gt;Node15</title>
<g id="a_edge17_Node000009_Node000015"><a xlink:title=" ">
<path fill="none" stroke="#63b8ff" d="M562.69,-169.77C522.47,-160.24 461.62,-145.82 419.8,-135.91"/>
<polygon fill="#63b8ff" stroke="#63b8ff" points="420.81,-132.55 410.28,-133.65 419.2,-139.36 420.81,-132.55"/>
</a>
</g>
</g>
<!-- Node12 -->
<g id="Node000012" class="node">
<title>Node12</title>
<g id="a_Node000012"><a xlink:title=" ">
<polygon fill="#e0e0e0" stroke="#999999" points="387.62,-20.75 334.88,-20.75 334.88,0 387.62,0 387.62,-20.75"/>
<text text-anchor="middle" x="361.25" y="-7.25" font-family="Helvetica,sans-Serif" font-size="10.00">stdint.h</text>
</a>
</g>
</g>
<!-- Node11&#45;&gt;Node12 -->
<g id="edge12_Node000011_Node000012" class="edge">
<title>Node11&#45;&gt;Node12</title>
<g id="a_edge12_Node000011_Node000012"><a xlink:title=" ">
<path fill="none" stroke="#63b8ff" d="M613.44,-58.34C556.16,-47.67 454.14,-28.67 399.05,-18.41"/>
<polygon fill="#63b8ff" stroke="#63b8ff" points="399.99,-15.03 389.52,-16.64 398.71,-21.91 399.99,-15.03"/>
</a>
</g>
</g>
<!-- Node13&#45;&gt;Node12 -->
<g id="edge16_Node000013_Node000012" class="edge">
<title>Node13&#45;&gt;Node12</title>
<g id="a_edge16_Node000013_Node000012"><a xlink:title=" ">
<path fill="none" stroke="#63b8ff" d="M452.56,-113.15C436.26,-105.32 414.55,-93.06 399.25,-77.5 386.06,-64.09 375.81,-45.21 369.3,-31.05"/>
<polygon fill="#63b8ff" stroke="#63b8ff" points="372.69,-30.07 365.49,-22.29 366.27,-32.86 372.69,-30.07"/>
</a>
</g>
</g>
<!-- Node14 -->
<g id="Node000014" class="node">
<title>Node14</title>
<g id="a_Node000014"><a xlink:href="assert_8h.html" target="_top" xlink:title="POSIX.1&#45;2008 compliant version of the assert macro.">
<polygon fill="white" stroke="#666666" points="313.75,-77.5 258.75,-77.5 258.75,-56.75 313.75,-56.75 313.75,-77.5"/>
<text text-anchor="middle" x="286.25" y="-64" font-family="Helvetica,sans-Serif" font-size="10.00">assert.h</text>
</a>
</g>
</g>
<!-- Node13&#45;&gt;Node14 -->
<g id="edge14_Node000013_Node000014" class="edge">
<title>Node13&#45;&gt;Node14</title>
<g id="a_edge14_Node000013_Node000014"><a xlink:title=" ">
<path fill="none" stroke="#63b8ff" d="M441.46,-113.09C408.84,-103.64 359.47,-89.34 325.21,-79.41"/>
<polygon fill="#63b8ff" stroke="#63b8ff" points="326.24,-76.07 315.66,-76.65 324.3,-82.79 326.24,-76.07"/>
</a>
</g>
</g>
<!-- Node14&#45;&gt;Node12 -->
<g id="edge15_Node000014_Node000012" class="edge">
<title>Node14&#45;&gt;Node12</title>
<g id="a_edge15_Node000014_Node000012"><a xlink:title=" ">
<path fill="none" stroke="#63b8ff" d="M299.66,-56.34C310.54,-48.4 326.11,-37.03 338.87,-27.71"/>
<polygon fill="#63b8ff" stroke="#63b8ff" points="340.72,-30.69 346.74,-21.97 336.59,-25.04 340.72,-30.69"/>
</a>
</g>
</g>
<!-- Node15&#45;&gt;Node12 -->
<g id="edge19_Node000015_Node000012" class="edge">
<title>Node15&#45;&gt;Node12</title>
<g id="a_edge19_Node000015_Node000012"><a xlink:title=" ">
<path fill="none" stroke="#63b8ff" d="M371.53,-113.17C369.96,-104 367.67,-89.85 366.25,-77.5 364.52,-62.4 363.24,-45.29 362.41,-32.26"/>
<polygon fill="#63b8ff" stroke="#63b8ff" points="365.91,-32.1 361.82,-22.32 358.92,-32.51 365.91,-32.1"/>
</a>
</g>
</g>
<!-- Node16 -->
<g id="Node000016" class="node">
<title>Node16</title>
<g id="a_Node000016"><a xlink:title=" ">
<polygon fill="#e0e0e0" stroke="#999999" points="201.75,-77.5 146.75,-77.5 146.75,-56.75 201.75,-56.75 201.75,-77.5"/>
<text text-anchor="middle" x="174.25" y="-64" font-family="Helvetica,sans-Serif" font-size="10.00">stddef.h</text>
</a>
</g>
</g>
<!-- Node15&#45;&gt;Node16 -->
<g id="edge18_Node000015_Node000016" class="edge">
<title>Node15&#45;&gt;Node16</title>
<g id="a_edge18_Node000015_Node000016"><a xlink:title=" ">
<path fill="none" stroke="#63b8ff" d="M337.67,-113.09C302.67,-103.46 249.36,-88.79 213.22,-78.85"/>
<polygon fill="#63b8ff" stroke="#63b8ff" points="214.17,-75.48 203.6,-76.2 212.31,-82.23 214.17,-75.48"/>
</a>
</g>
</g>
<!-- Node20 -->
<g id="Node000020" class="node">
<title>Node20</title>
<g id="a_Node000020"><a xlink:title=" ">
<polygon fill="#e0e0e0" stroke="#999999" points="931.38,-247.75 853.12,-247.75 853.12,-227 931.38,-227 931.38,-247.75"/>
<text text-anchor="middle" x="892.25" y="-234.25" font-family="Helvetica,sans-Serif" font-size="10.00">periph_cpu.h</text>
</a>
</g>
</g>
<!-- Node19&#45;&gt;Node20 -->
<g id="edge24_Node000019_Node000020" class="edge">
<title>Node19&#45;&gt;Node20</title>
<g id="a_edge24_Node000019_Node000020"><a xlink:title=" ">
<path fill="none" stroke="#63b8ff" d="M890.61,-283.34C890.85,-276.72 891.18,-267.72 891.48,-259.52"/>
<polygon fill="#63b8ff" stroke="#63b8ff" points="894.97,-259.71 891.84,-249.59 887.98,-259.46 894.97,-259.71"/>
</a>
</g>
</g>
<!-- Node21&#45;&gt;Node4 -->
<g id="edge27_Node000021_Node000004" class="edge">
<title>Node21&#45;&gt;Node4</title>
<g id="a_edge27_Node000021_Node000004"><a xlink:title=" ">
<path fill="none" stroke="#63b8ff" d="M315.24,-285.97C310.52,-285.21 305.78,-284.46 301.25,-283.75 195.99,-267.25 168.81,-268.22 64.25,-247.75 63.43,-247.59 62.6,-247.42 61.77,-247.25"/>
<polygon fill="#63b8ff" stroke="#63b8ff" points="62.77,-243.89 52.25,-245.16 61.27,-250.73 62.77,-243.89"/>
</a>
</g>
</g>
<!-- Node21&#45;&gt;Node12 -->
<g id="edge28_Node000021_Node000012" class="edge">
<title>Node21&#45;&gt;Node12</title>
<g id="a_edge28_Node000021_Node000012"><a xlink:title=" ">
<path fill="none" stroke="#63b8ff" d="M318.3,-283.29C249.05,-265.46 116.25,-225.55 116.25,-181.62 116.25,-181.62 116.25,-181.62 116.25,-122.88 116.25,-92.04 114.3,-77.35 137.25,-56.75 164.19,-32.56 266.58,-19.8 323.14,-14.47"/>
<polygon fill="#63b8ff" stroke="#63b8ff" points="323.32,-17.96 332.96,-13.58 322.68,-10.99 323.32,-17.96"/>
</a>
</g>
</g>
<!-- Node21&#45;&gt;Node14 -->
<g id="edge26_Node000021_Node000014" class="edge">
<title>Node21&#45;&gt;Node14</title>
<g id="a_edge26_Node000021_Node000014"><a xlink:title=" ">
<path fill="none" stroke="#63b8ff" d="M316.73,-283.26C273.32,-270.48 209.26,-243.34 187.25,-191 168.59,-146.64 222.15,-105.3 257.61,-83.73"/>
<polygon fill="#63b8ff" stroke="#63b8ff" points="259.33,-86.78 266.18,-78.7 255.79,-80.74 259.33,-86.78"/>
</a>
</g>
</g>
<!-- Node21&#45;&gt;Node17 -->
<g id="edge29_Node000021_Node000017" class="edge">
<title>Node21&#45;&gt;Node17</title>
<g id="a_edge29_Node000021_Node000017"><a xlink:title=" ">
<path fill="none" stroke="#63b8ff" d="M397.95,-283.33C431.52,-274.81 481.69,-262 534.04,-248.31"/>
<polygon fill="#63b8ff" stroke="#63b8ff" points="534.63,-251.77 543.42,-245.85 532.86,-245 534.63,-251.77"/>
</a>
</g>
</g>
<!-- Node21&#45;&gt;Node18 -->
<g id="edge30_Node000021_Node000018" class="edge">
<title>Node21&#45;&gt;Node18</title>
<g id="a_edge30_Node000021_Node000018"><a xlink:title=" ">
<path fill="none" stroke="#63b8ff" d="M403.03,-285.41C450.14,-277.03 527.54,-263.06 604.12,-248.13"/>
<polygon fill="#63b8ff" stroke="#63b8ff" points="604.78,-251.57 613.92,-246.21 603.43,-244.7 604.78,-251.57"/>
</a>
</g>
</g>
<!-- Node22 -->
<g id="Node000022" class="node">
<title>Node22</title>
<g id="a_Node000022"><a xlink:href="af_8h.html" target="_top" xlink:title="Global UNIX address family definitions.">
<polygon fill="white" stroke="#666666" points="429.62,-247.75 376.88,-247.75 376.88,-227 429.62,-227 429.62,-247.75"/>
<text text-anchor="middle" x="403.25" y="-234.25" font-family="Helvetica,sans-Serif" font-size="10.00">net/af.h</text>
</a>
</g>
</g>
<!-- Node21&#45;&gt;Node22 -->
<g id="edge31_Node000021_Node000022" class="edge">
<title>Node21&#45;&gt;Node22</title>
<g id="a_edge31_Node000021_Node000022"><a xlink:title=" ">
<path fill="none" stroke="#63b8ff" d="M367.12,-283.34C373,-276.02 381.22,-265.79 388.33,-256.94"/>
<polygon fill="#63b8ff" stroke="#63b8ff" points="390.97,-259.25 394.5,-249.26 385.51,-254.86 390.97,-259.25"/>
</a>
</g>
</g>
<!-- Node23 -->
<g id="Node000023" class="node">
<title>Node23</title>
<g id="a_Node000023"><a xlink:href="sock_8h.html" target="_top" xlink:title="Common sock API definitions.">
<polygon fill="white" stroke="#666666" points="88.38,-134.25 22.12,-134.25 22.12,-113.5 88.38,-113.5 88.38,-134.25"/>
<text text-anchor="middle" x="55.25" y="-120.75" font-family="Helvetica,sans-Serif" font-size="10.00">net/sock.h</text>
</a>
</g>
</g>
<!-- Node21&#45;&gt;Node23 -->
<g id="edge32_Node000021_Node000023" class="edge">
<title>Node21&#45;&gt;Node23</title>
<g id="a_edge32_Node000021_Node000023"><a xlink:title=" ">
<path fill="none" stroke="#63b8ff" d="M315.35,-285.94C243.03,-274.02 106.36,-251.14 102.25,-247.75 71.24,-222.15 60.66,-173.66 57.07,-145.86"/>
<polygon fill="#63b8ff" stroke="#63b8ff" points="60.58,-145.77 56.02,-136.2 53.62,-146.52 60.58,-145.77"/>
</a>
</g>
</g>
<!-- Node25 -->
<g id="Node000025" class="node">
<title>Node25</title>
<g id="a_Node000025"><a xlink:href="ipv4_2addr_8h.html" target="_top" xlink:title="IPv4 address type and helper functions definitions.">
<polygon fill="white" stroke="#666666" points="286,-191 196.5,-191 196.5,-170.25 286,-170.25 286,-191"/>
<text text-anchor="middle" x="241.25" y="-177.5" font-family="Helvetica,sans-Serif" font-size="10.00">net/ipv4/addr.h</text>
</a>
</g>
</g>
<!-- Node21&#45;&gt;Node25 -->
<g id="edge36_Node000021_Node000025" class="edge">
<title>Node21&#45;&gt;Node25</title>
<g id="a_edge36_Node000021_Node000025"><a xlink:title=" ">
<path fill="none" stroke="#63b8ff" d="M319.13,-283.38C298.86,-276.54 275.42,-265.38 260.25,-247.75 249.41,-235.14 244.74,-216.69 242.73,-202.48"/>
<polygon fill="#63b8ff" stroke="#63b8ff" points="246.25,-202.43 241.73,-192.84 239.29,-203.15 246.25,-202.43"/>
</a>
</g>
</g>
<!-- Node30 -->
<g id="Node000030" class="node">
<title>Node30</title>
<g id="a_Node000030"><a xlink:href="ipv6_2addr_8h.html" target="_top" xlink:title="Definitions for IPv6 addresses.">
<polygon fill="white" stroke="#666666" points="359,-247.75 269.5,-247.75 269.5,-227 359,-227 359,-247.75"/>
<text text-anchor="middle" x="314.25" y="-234.25" font-family="Helvetica,sans-Serif" font-size="10.00">net/ipv6/addr.h</text>
</a>
</g>
</g>
<!-- Node21&#45;&gt;Node30 -->
<g id="edge47_Node000021_Node000030" class="edge">
<title>Node21&#45;&gt;Node30</title>
<g id="a_edge47_Node000021_Node000030"><a xlink:title=" ">
<path fill="none" stroke="#63b8ff" d="M351.2,-283.34C345.19,-276.02 336.78,-265.79 329.51,-256.94"/>
<polygon fill="#63b8ff" stroke="#63b8ff" points="332.24,-254.75 323.19,-249.25 326.83,-259.2 332.24,-254.75"/>
</a>
</g>
</g>
<!-- Node31 -->
<g id="Node000031" class="node">
<title>Node31</title>
<g id="a_Node000031"><a xlink:title=" ">
<polygon fill="#e0e0e0" stroke="#999999" points="527.12,-247.75 447.38,-247.75 447.38,-227 527.12,-227 527.12,-247.75"/>
<text text-anchor="middle" x="487.25" y="-234.25" font-family="Helvetica,sans-Serif" font-size="10.00">sock_types.h</text>
</a>
</g>
</g>
<!-- Node21&#45;&gt;Node31 -->
<g id="edge52_Node000021_Node000031" class="edge">
<title>Node21&#45;&gt;Node31</title>
<g id="a_edge52_Node000021_Node000031"><a xlink:title=" ">
<path fill="none" stroke="#63b8ff" d="M382.13,-283.34C402.16,-274.77 431.49,-262.23 454.08,-252.56"/>
<polygon fill="#63b8ff" stroke="#63b8ff" points="455.35,-255.82 463.17,-248.67 452.6,-249.39 455.35,-255.82"/>
</a>
</g>
</g>
<!-- Node23&#45;&gt;Node12 -->
<g id="edge33_Node000023_Node000012" class="edge">
<title>Node23&#45;&gt;Node12</title>
<g id="a_edge33_Node000023_Node000012"><a xlink:title=" ">
<path fill="none" stroke="#63b8ff" d="M59.11,-113.41C65.64,-98.69 80.34,-70.59 102.25,-56.75 138.42,-33.91 260.45,-20.19 323.24,-14.48"/>
<polygon fill="#63b8ff" stroke="#63b8ff" points="323.44,-17.98 333.09,-13.61 322.82,-11.01 323.44,-17.98"/>
</a>
</g>
</g>
<!-- Node23&#45;&gt;Node16 -->
<g id="edge34_Node000023_Node000016" class="edge">
<title>Node23&#45;&gt;Node16</title>
<g id="a_edge34_Node000023_Node000016"><a xlink:title=" ">
<path fill="none" stroke="#63b8ff" d="M76.52,-113.09C94.97,-104.6 121.91,-92.2 142.84,-82.58"/>
<polygon fill="#63b8ff" stroke="#63b8ff" points="144.16,-85.82 151.78,-78.46 141.24,-79.46 144.16,-85.82"/>
</a>
</g>
</g>
<!-- Node24 -->
<g id="Node000024" class="node">
<title>Node24</title>
<g id="a_Node000024"><a xlink:href="iolist_8h.html" target="_top" xlink:title="iolist scatter / gather IO">
<polygon fill="white" stroke="#666666" points="49.75,-77.5 0.75,-77.5 0.75,-56.75 49.75,-56.75 49.75,-77.5"/>
<text text-anchor="middle" x="25.25" y="-64" font-family="Helvetica,sans-Serif" font-size="10.00">iolist.h</text>
</a>
</g>
</g>
<!-- Node23&#45;&gt;Node24 -->
<g id="edge35_Node000023_Node000024" class="edge">
<title>Node23&#45;&gt;Node24</title>
<g id="a_edge35_Node000023_Node000024"><a xlink:title=" ">
<path fill="none" stroke="#63b8ff" d="M49.89,-113.09C46.05,-106.08 40.75,-96.41 36.05,-87.83"/>
<polygon fill="#63b8ff" stroke="#63b8ff" points="39.17,-86.24 31.29,-79.16 33.03,-89.61 39.17,-86.24"/>
</a>
</g>
</g>
<!-- Node25&#45;&gt;Node12 -->
<g id="edge38_Node000025_Node000012" class="edge">
<title>Node25&#45;&gt;Node12</title>
<g id="a_edge38_Node000025_Node000012"><a xlink:title=" ">
<path fill="none" stroke="#63b8ff" d="M238.72,-169.87C233.51,-147.47 224.09,-91.59 249.25,-56.75 266.4,-33 298.16,-21.66 323.49,-16.26"/>
<polygon fill="#63b8ff" stroke="#63b8ff" points="323.93,-19.74 333.11,-14.45 322.63,-12.86 323.93,-19.74"/>
</a>
</g>
</g>
<!-- Node25&#45;&gt;Node16 -->
<g id="edge39_Node000025_Node000016" class="edge">
<title>Node25&#45;&gt;Node16</title>
<g id="a_edge39_Node000025_Node000016"><a xlink:title=" ">
<path fill="none" stroke="#63b8ff" d="M235.54,-170.12C224.62,-151.94 200.57,-111.92 186.06,-87.77"/>
<polygon fill="#63b8ff" stroke="#63b8ff" points="189.07,-85.99 180.92,-79.22 183.07,-89.6 189.07,-85.99"/>
</a>
</g>
</g>
<!-- Node26 -->
<g id="Node000026" class="node">
<title>Node26</title>
<g id="a_Node000026"><a xlink:title=" ">
<polygon fill="#e0e0e0" stroke="#999999" points="319.75,-134.25 258.75,-134.25 258.75,-113.5 319.75,-113.5 319.75,-134.25"/>
<text text-anchor="middle" x="289.25" y="-120.75" font-family="Helvetica,sans-Serif" font-size="10.00">stdbool.h</text>
</a>
</g>
</g>
<!-- Node25&#45;&gt;Node26 -->
<g id="edge37_Node000025_Node000026" class="edge">
<title>Node25&#45;&gt;Node26</title>
<g id="a_edge37_Node000025_Node000026"><a xlink:title=" ">
<path fill="none" stroke="#63b8ff" d="M249.83,-169.84C256.32,-162.44 265.4,-152.07 273.22,-143.16"/>
<polygon fill="#63b8ff" stroke="#63b8ff" points="275.78,-145.54 279.75,-135.72 270.52,-140.93 275.78,-145.54"/>
</a>
</g>
</g>
<!-- Node27 -->
<g id="Node000027" class="node">
<title>Node27</title>
<g id="a_Node000027"><a xlink:href="byteorder_8h.html" target="_top" xlink:title="Functions to work with different byte orders.">
<polygon fill="white" stroke="#666666" points="614.38,-134.25 542.12,-134.25 542.12,-113.5 614.38,-113.5 614.38,-134.25"/>
<text text-anchor="middle" x="578.25" y="-120.75" font-family="Helvetica,sans-Serif" font-size="10.00">byteorder.h</text>
</a>
</g>
</g>
<!-- Node25&#45;&gt;Node27 -->
<g id="edge40_Node000025_Node000027" class="edge">
<title>Node25&#45;&gt;Node27</title>
<g id="a_edge40_Node000025_Node000027"><a xlink:title=" ">
<path fill="none" stroke="#63b8ff" d="M286.39,-173.34C341.62,-165.49 438.25,-151.24 530.68,-134.64"/>
<polygon fill="#63b8ff" stroke="#63b8ff" points="531.23,-138.1 540.44,-132.88 529.98,-131.21 531.23,-138.1"/>
</a>
</g>
</g>
<!-- Node27&#45;&gt;Node7 -->
<g id="edge41_Node000027_Node000007" class="edge">
<title>Node27&#45;&gt;Node7</title>
<g id="a_edge41_Node000027_Node000007"><a xlink:title=" ">
<path fill="none" stroke="#63b8ff" d="M614.78,-113.21C652.12,-103.34 709.84,-88.07 747.59,-78.09"/>
<polygon fill="#63b8ff" stroke="#63b8ff" points="748.38,-81.5 757.15,-75.56 746.59,-74.73 748.38,-81.5"/>
</a>
</g>
</g>
<!-- Node27&#45;&gt;Node12 -->
<g id="edge42_Node000027_Node000012" class="edge">
<title>Node27&#45;&gt;Node12</title>
<g id="a_edge42_Node000027_Node000012"><a xlink:title=" ">
<path fill="none" stroke="#63b8ff" d="M579.68,-113.34C581.24,-99.05 581.83,-72.11 567.25,-56.75 544.63,-32.92 452.52,-20.21 399.44,-14.73"/>
<polygon fill="#63b8ff" stroke="#63b8ff" points="399.92,-11.26 389.62,-13.76 399.23,-18.23 399.92,-11.26"/>
</a>
</g>
</g>
<!-- Node28 -->
<g id="Node000028" class="node">
<title>Node28</title>
<g id="a_Node000028"><a xlink:href="endian_8h.html" target="_top" xlink:title="libc header for endian conversion">
<polygon fill="white" stroke="#666666" points="466.25,-77.5 408.25,-77.5 408.25,-56.75 466.25,-56.75 466.25,-77.5"/>
<text text-anchor="middle" x="437.25" y="-64" font-family="Helvetica,sans-Serif" font-size="10.00">endian.h</text>
</a>
</g>
</g>
<!-- Node27&#45;&gt;Node28 -->
<g id="edge43_Node000027_Node000028" class="edge">
<title>Node27&#45;&gt;Node28</title>
<g id="a_edge43_Node000027_Node000028"><a xlink:title=" ">
<path fill="none" stroke="#63b8ff" d="M553.04,-113.09C530.69,-104.41 497.79,-91.63 472.77,-81.92"/>
<polygon fill="#63b8ff" stroke="#63b8ff" points="474.24,-78.73 463.65,-78.38 471.71,-85.26 474.24,-78.73"/>
</a>
</g>
</g>
<!-- Node29 -->
<g id="Node000029" class="node">
<title>Node29</title>
<g id="a_Node000029"><a xlink:href="unaligned_8h.html" target="_top" xlink:title="Unaligned but safe memory access functions.">
<polygon fill="white" stroke="#666666" points="557.75,-77.5 484.75,-77.5 484.75,-56.75 557.75,-56.75 557.75,-77.5"/>
<text text-anchor="middle" x="521.25" y="-64" font-family="Helvetica,sans-Serif" font-size="10.00">unaligned.h</text>
</a>
</g>
</g>
<!-- Node27&#45;&gt;Node29 -->
<g id="edge45_Node000027_Node000029" class="edge">
<title>Node27&#45;&gt;Node29</title>
<g id="a_edge45_Node000027_Node000029"><a xlink:title=" ">
<path fill="none" stroke="#63b8ff" d="M568.06,-113.09C560.12,-105.46 548.88,-94.67 539.41,-85.57"/>
<polygon fill="#63b8ff" stroke="#63b8ff" points="542.08,-83.28 532.44,-78.88 537.23,-88.33 542.08,-83.28"/>
</a>
</g>
</g>
<!-- Node28&#45;&gt;Node12 -->
<g id="edge44_Node000028_Node000012" class="edge">
<title>Node28&#45;&gt;Node12</title>
<g id="a_edge44_Node000028_Node000012"><a xlink:title=" ">
<path fill="none" stroke="#63b8ff" d="M423.66,-56.34C412.64,-48.4 396.86,-37.03 383.93,-27.71"/>
<polygon fill="#63b8ff" stroke="#63b8ff" points="386.11,-24.97 375.95,-21.96 382.02,-30.65 386.11,-24.97"/>
</a>
</g>
</g>
<!-- Node29&#45;&gt;Node12 -->
<g id="edge46_Node000029_Node000012" class="edge">
<title>Node29&#45;&gt;Node12</title>
<g id="a_edge46_Node000029_Node000012"><a xlink:title=" ">
<path fill="none" stroke="#63b8ff" d="M492.65,-56.34C466.46,-47.38 427.53,-34.06 398.84,-24.24"/>
<polygon fill="#63b8ff" stroke="#63b8ff" points="400.04,-20.95 389.44,-21.02 397.77,-27.57 400.04,-20.95"/>
</a>
</g>
</g>
<!-- Node30&#45;&gt;Node7 -->
<g id="edge49_Node000030_Node000007" class="edge">
<title>Node30&#45;&gt;Node7</title>
<g id="a_edge49_Node000030_Node000007"><a xlink:title=" ">
<path fill="none" stroke="#63b8ff" d="M359.3,-228.38C362.33,-227.9 365.33,-227.43 368.25,-227 498.04,-207.77 538.13,-236.33 661.25,-191 671.99,-187.04 739.41,-142.59 747.25,-134.25 760,-120.68 770.21,-102.07 776.82,-88.05"/>
<polygon fill="#63b8ff" stroke="#63b8ff" points="780.01,-89.5 780.89,-78.94 773.62,-86.64 780.01,-89.5"/>
</a>
</g>
</g>
<!-- Node30&#45;&gt;Node25 -->
<g id="edge51_Node000030_Node000025" class="edge">
<title>Node30&#45;&gt;Node25</title>
<g id="a_edge51_Node000030_Node000025"><a xlink:title=" ">
<path fill="none" stroke="#63b8ff" d="M301.2,-226.59C290.61,-218.65 275.46,-207.28 263.03,-197.96"/>
<polygon fill="#63b8ff" stroke="#63b8ff" points="265.5,-195.44 255.4,-192.24 261.3,-201.04 265.5,-195.44"/>
</a>
</g>
</g>
<!-- Node30&#45;&gt;Node26 -->
<g id="edge48_Node000030_Node000026" class="edge">
<title>Node30&#45;&gt;Node26</title>
<g id="a_edge48_Node000030_Node000026"><a xlink:title=" ">
<path fill="none" stroke="#63b8ff" d="M312.12,-226.87C308.12,-209.02 299.39,-170.11 293.95,-145.84"/>
<polygon fill="#63b8ff" stroke="#63b8ff" points="297.38,-145.14 291.78,-136.15 290.55,-146.68 297.38,-145.14"/>
</a>
</g>
</g>
<!-- Node30&#45;&gt;Node27 -->
<g id="edge50_Node000030_Node000027" class="edge">
<title>Node30&#45;&gt;Node27</title>
<g id="a_edge50_Node000030_Node000027"><a xlink:title=" ">
<path fill="none" stroke="#63b8ff" d="M337.22,-226.68C383.93,-206.95 490.18,-162.07 544.66,-139.06"/>
<polygon fill="#63b8ff" stroke="#63b8ff" points="545.9,-142.34 553.75,-135.22 543.18,-135.89 545.9,-142.34"/>
</a>
</g>
</g>
</g>
</svg>
