<?xml version="1.0" encoding="UTF-8" standalone="no"?>
<!DOCTYPE svg PUBLIC "-//W3C//DTD SVG 1.1//EN"
 "http://www.w3.org/Graphics/SVG/1.1/DTD/svg11.dtd">
<!-- Generated by graphviz version 12.1.2 (0)
 -->
<!-- Title: pkg/wakaama/include/lwm2m_client_connection.h Pages: 1 -->
<svg width="974pt" height="439pt"
 viewBox="0.00 0.00 973.97 438.75" xmlns="http://www.w3.org/2000/svg" xmlns:xlink="http://www.w3.org/1999/xlink">
<g id="graph0" class="graph" transform="scale(1 1) rotate(0) translate(4 434.75)">
<title>pkg/wakaama/include/lwm2m_client_connection.h</title>
<!-- Node1 -->
<g id="Node000001" class="node">
<title>Node1</title>
<g id="a_Node000001"><a xlink:title="Public API and definitions of the connection handle for LwM2M client implementation using Wakaama.">
<polygon fill="#999999" stroke="#666666" points="552.1,-430.75 396.6,-430.75 396.6,-397.25 552.1,-397.25 552.1,-430.75"/>
<text text-anchor="start" x="404.6" y="-417.25" font-family="Helvetica,sans-Serif" font-size="10.00">pkg/wakaama/include</text>
<text text-anchor="middle" x="474.35" y="-404.5" font-family="Helvetica,sans-Serif" font-size="10.00">/lwm2m_client_connection.h</text>
</a>
</g>
</g>
<!-- Node2 -->
<g id="Node000002" class="node">
<title>Node2</title>
<g id="a_Node000002"><a xlink:href="ipv6_2addr_8h.html" target="_top" xlink:title="Definitions for IPv6 addresses.">
<polygon fill="white" stroke="#666666" points="140.1,-247.75 50.6,-247.75 50.6,-227 140.1,-227 140.1,-247.75"/>
<text text-anchor="middle" x="95.35" y="-234.25" font-family="Helvetica,sans-Serif" font-size="10.00">net/ipv6/addr.h</text>
</a>
</g>
</g>
<!-- Node1&#45;&gt;Node2 -->
<g id="edge1_Node000001_Node000002" class="edge">
<title>Node1&#45;&gt;Node2</title>
<g id="a_edge1_Node000001_Node000002"><a xlink:title=" ">
<path fill="none" stroke="#63b8ff" d="M439.37,-396.88C366.14,-363.14 197.65,-285.51 127.21,-253.06"/>
<polygon fill="#63b8ff" stroke="#63b8ff" points="128.7,-249.89 118.15,-248.88 125.77,-256.25 128.7,-249.89"/>
</a>
</g>
</g>
<!-- Node11 -->
<g id="Node000011" class="node">
<title>Node11</title>
<g id="a_Node000011"><a xlink:href="sock_2udp_8h.html" target="_top" xlink:title="UDP sock definitions.">
<polygon fill="white" stroke="#666666" points="382.97,-304.5 295.72,-304.5 295.72,-283.75 382.97,-283.75 382.97,-304.5"/>
<text text-anchor="middle" x="339.35" y="-291" font-family="Helvetica,sans-Serif" font-size="10.00">net/sock/udp.h</text>
</a>
</g>
</g>
<!-- Node1&#45;&gt;Node11 -->
<g id="edge16_Node000001_Node000011" class="edge">
<title>Node1&#45;&gt;Node11</title>
<g id="a_edge16_Node000001_Node000011"><a xlink:title=" ">
<path fill="none" stroke="#63b8ff" d="M455.86,-396.86C430.52,-374.73 385.19,-335.15 359.17,-312.43"/>
<polygon fill="#63b8ff" stroke="#63b8ff" points="361.5,-309.82 351.67,-305.88 356.9,-315.1 361.5,-309.82"/>
</a>
</g>
</g>
<!-- Node20 -->
<g id="Node000020" class="node">
<title>Node20</title>
<g id="a_Node000020"><a xlink:href="lwm2m__client_8h.html" target="_top" xlink:title="Definitions and public API for a LwM2M client using Wakaama.">
<polygon fill="white" stroke="#666666" points="566.35,-361.25 472.35,-361.25 472.35,-340.5 566.35,-340.5 566.35,-361.25"/>
<text text-anchor="middle" x="519.35" y="-347.75" font-family="Helvetica,sans-Serif" font-size="10.00">lwm2m_client.h</text>
</a>
</g>
</g>
<!-- Node1&#45;&gt;Node20 -->
<g id="edge31_Node000001_Node000020" class="edge">
<title>Node1&#45;&gt;Node20</title>
<g id="a_edge31_Node000001_Node000020"><a xlink:title=" ">
<path fill="none" stroke="#63b8ff" d="M486.17,-396.94C492.09,-388.91 499.28,-379.13 505.46,-370.74"/>
<polygon fill="#63b8ff" stroke="#63b8ff" points="508.1,-373.06 511.21,-362.94 502.46,-368.91 508.1,-373.06"/>
</a>
</g>
</g>
<!-- Node32 -->
<g id="Node000032" class="node">
<title>Node32</title>
<g id="a_Node000032"><a xlink:href="lwm2m__client__config_8h.html" target="_top" xlink:title="LwM2M client configurations.">
<polygon fill="white" stroke="#666666" points="965.97,-304.5 836.72,-304.5 836.72,-283.75 965.97,-283.75 965.97,-304.5"/>
<text text-anchor="middle" x="901.35" y="-291" font-family="Helvetica,sans-Serif" font-size="10.00">lwm2m_client_config.h</text>
</a>
</g>
</g>
<!-- Node1&#45;&gt;Node32 -->
<g id="edge57_Node000001_Node000032" class="edge">
<title>Node1&#45;&gt;Node32</title>
<g id="a_edge57_Node000001_Node000032"><a xlink:title=" ">
<path fill="none" stroke="#63b8ff" d="M532.83,-396.86C618.49,-373.21 776.4,-329.62 854.74,-307.99"/>
<polygon fill="#63b8ff" stroke="#63b8ff" points="855.54,-311.4 864.25,-305.37 853.68,-304.65 855.54,-311.4"/>
</a>
</g>
</g>
<!-- Node3 -->
<g id="Node000003" class="node">
<title>Node3</title>
<g id="a_Node000003"><a xlink:title=" ">
<polygon fill="#e0e0e0" stroke="#999999" points="245.85,-134.25 184.85,-134.25 184.85,-113.5 245.85,-113.5 245.85,-134.25"/>
<text text-anchor="middle" x="215.35" y="-120.75" font-family="Helvetica,sans-Serif" font-size="10.00">stdbool.h</text>
</a>
</g>
</g>
<!-- Node2&#45;&gt;Node3 -->
<g id="edge2_Node000002_Node000003" class="edge">
<title>Node2&#45;&gt;Node3</title>
<g id="a_edge2_Node000002_Node000003"><a xlink:title=" ">
<path fill="none" stroke="#63b8ff" d="M116.72,-226.58C132.7,-218.55 154.44,-206.08 170.35,-191 184.8,-177.3 197.19,-158.19 205.28,-144.04"/>
<polygon fill="#63b8ff" stroke="#63b8ff" points="208.13,-146.13 209.87,-135.68 201.99,-142.76 208.13,-146.13"/>
</a>
</g>
</g>
<!-- Node4 -->
<g id="Node000004" class="node">
<title>Node4</title>
<g id="a_Node000004"><a xlink:title=" ">
<polygon fill="#e0e0e0" stroke="#999999" points="278.72,-77.5 225.97,-77.5 225.97,-56.75 278.72,-56.75 278.72,-77.5"/>
<text text-anchor="middle" x="252.35" y="-64" font-family="Helvetica,sans-Serif" font-size="10.00">string.h</text>
</a>
</g>
</g>
<!-- Node2&#45;&gt;Node4 -->
<g id="edge3_Node000002_Node000004" class="edge">
<title>Node2&#45;&gt;Node4</title>
<g id="a_edge3_Node000002_Node000004"><a xlink:title=" ">
<path fill="none" stroke="#63b8ff" d="M99.82,-226.71C110.47,-204.5 139.23,-149 176.35,-113.5 189.13,-101.28 205.77,-90.88 220.23,-83.13"/>
<polygon fill="#63b8ff" stroke="#63b8ff" points="221.64,-86.34 228.93,-78.66 218.44,-80.11 221.64,-86.34"/>
</a>
</g>
</g>
<!-- Node5 -->
<g id="Node000005" class="node">
<title>Node5</title>
<g id="a_Node000005"><a xlink:href="byteorder_8h.html" target="_top" xlink:title="Functions to work with different byte orders.">
<polygon fill="white" stroke="#666666" points="90.47,-134.25 18.22,-134.25 18.22,-113.5 90.47,-113.5 90.47,-134.25"/>
<text text-anchor="middle" x="54.35" y="-120.75" font-family="Helvetica,sans-Serif" font-size="10.00">byteorder.h</text>
</a>
</g>
</g>
<!-- Node2&#45;&gt;Node5 -->
<g id="edge4_Node000002_Node000005" class="edge">
<title>Node2&#45;&gt;Node5</title>
<g id="a_edge4_Node000002_Node000005"><a xlink:title=" ">
<path fill="none" stroke="#63b8ff" d="M91.85,-226.87C85.23,-208.86 70.72,-169.39 61.81,-145.18"/>
<polygon fill="#63b8ff" stroke="#63b8ff" points="65.21,-144.27 58.48,-136.1 58.64,-146.69 65.21,-144.27"/>
</a>
</g>
</g>
<!-- Node9 -->
<g id="Node000009" class="node">
<title>Node9</title>
<g id="a_Node000009"><a xlink:href="ipv4_2addr_8h.html" target="_top" xlink:title="IPv4 address type and helper functions definitions.">
<polygon fill="white" stroke="#666666" points="312.1,-191 222.6,-191 222.6,-170.25 312.1,-170.25 312.1,-191"/>
<text text-anchor="middle" x="267.35" y="-177.5" font-family="Helvetica,sans-Serif" font-size="10.00">net/ipv4/addr.h</text>
</a>
</g>
</g>
<!-- Node2&#45;&gt;Node9 -->
<g id="edge11_Node000002_Node000009" class="edge">
<title>Node2&#45;&gt;Node9</title>
<g id="a_edge11_Node000002_Node000009"><a xlink:title=" ">
<path fill="none" stroke="#63b8ff" d="M126.1,-226.59C153.9,-217.74 195.05,-204.64 225.77,-194.86"/>
<polygon fill="#63b8ff" stroke="#63b8ff" points="226.67,-198.25 235.13,-191.88 224.54,-191.58 226.67,-198.25"/>
</a>
</g>
</g>
<!-- Node5&#45;&gt;Node4 -->
<g id="edge5_Node000005_Node000004" class="edge">
<title>Node5&#45;&gt;Node4</title>
<g id="a_edge5_Node000005_Node000004"><a xlink:title=" ">
<path fill="none" stroke="#63b8ff" d="M89.75,-113.09C124.88,-103.37 178.54,-88.54 214.5,-78.59"/>
<polygon fill="#63b8ff" stroke="#63b8ff" points="215.34,-81.99 224.05,-75.95 213.48,-75.24 215.34,-81.99"/>
</a>
</g>
</g>
<!-- Node6 -->
<g id="Node000006" class="node">
<title>Node6</title>
<g id="a_Node000006"><a xlink:title=" ">
<polygon fill="#e0e0e0" stroke="#999999" points="352.72,-20.75 299.97,-20.75 299.97,0 352.72,0 352.72,-20.75"/>
<text text-anchor="middle" x="326.35" y="-7.25" font-family="Helvetica,sans-Serif" font-size="10.00">stdint.h</text>
</a>
</g>
</g>
<!-- Node5&#45;&gt;Node6 -->
<g id="edge6_Node000005_Node000006" class="edge">
<title>Node5&#45;&gt;Node6</title>
<g id="a_edge6_Node000005_Node000006"><a xlink:title=" ">
<path fill="none" stroke="#63b8ff" d="M49.74,-113.03C43.85,-98.82 35.93,-72.54 49.35,-56.75 79.62,-21.12 220.16,-13.41 288.64,-11.78"/>
<polygon fill="#63b8ff" stroke="#63b8ff" points="288.32,-15.29 298.25,-11.59 288.18,-8.29 288.32,-15.29"/>
</a>
</g>
</g>
<!-- Node7 -->
<g id="Node000007" class="node">
<title>Node7</title>
<g id="a_Node000007"><a xlink:href="endian_8h.html" target="_top" xlink:title="libc header for endian conversion">
<polygon fill="white" stroke="#666666" points="116.35,-77.5 58.35,-77.5 58.35,-56.75 116.35,-56.75 116.35,-77.5"/>
<text text-anchor="middle" x="87.35" y="-64" font-family="Helvetica,sans-Serif" font-size="10.00">endian.h</text>
</a>
</g>
</g>
<!-- Node5&#45;&gt;Node7 -->
<g id="edge7_Node000005_Node000007" class="edge">
<title>Node5&#45;&gt;Node7</title>
<g id="a_edge7_Node000005_Node000007"><a xlink:title=" ">
<path fill="none" stroke="#63b8ff" d="M60.25,-113.09C64.52,-106 70.43,-96.19 75.65,-87.54"/>
<polygon fill="#63b8ff" stroke="#63b8ff" points="78.55,-89.5 80.72,-79.12 72.56,-85.88 78.55,-89.5"/>
</a>
</g>
</g>
<!-- Node8 -->
<g id="Node000008" class="node">
<title>Node8</title>
<g id="a_Node000008"><a xlink:href="unaligned_8h.html" target="_top" xlink:title="Unaligned but safe memory access functions.">
<polygon fill="white" stroke="#666666" points="207.85,-77.5 134.85,-77.5 134.85,-56.75 207.85,-56.75 207.85,-77.5"/>
<text text-anchor="middle" x="171.35" y="-64" font-family="Helvetica,sans-Serif" font-size="10.00">unaligned.h</text>
</a>
</g>
</g>
<!-- Node5&#45;&gt;Node8 -->
<g id="edge9_Node000005_Node000008" class="edge">
<title>Node5&#45;&gt;Node8</title>
<g id="a_edge9_Node000005_Node000008"><a xlink:title=" ">
<path fill="none" stroke="#63b8ff" d="M75.27,-113.09C93.32,-104.64 119.65,-92.32 140.18,-82.71"/>
<polygon fill="#63b8ff" stroke="#63b8ff" points="141.67,-85.88 149.24,-78.47 138.7,-79.54 141.67,-85.88"/>
</a>
</g>
</g>
<!-- Node7&#45;&gt;Node6 -->
<g id="edge8_Node000007_Node000006" class="edge">
<title>Node7&#45;&gt;Node6</title>
<g id="a_edge8_Node000007_Node000006"><a xlink:title=" ">
<path fill="none" stroke="#63b8ff" d="M116.73,-59.02C119.97,-58.25 123.23,-57.48 126.35,-56.75 182.83,-43.55 248.43,-28.78 288.66,-19.78"/>
<polygon fill="#63b8ff" stroke="#63b8ff" points="289.32,-23.21 298.32,-17.62 287.8,-16.38 289.32,-23.21"/>
</a>
</g>
</g>
<!-- Node8&#45;&gt;Node6 -->
<g id="edge10_Node000008_Node000006" class="edge">
<title>Node8&#45;&gt;Node6</title>
<g id="a_edge10_Node000008_Node000006"><a xlink:title=" ">
<path fill="none" stroke="#63b8ff" d="M199.06,-56.34C224.09,-47.5 261.12,-34.41 288.8,-24.64"/>
<polygon fill="#63b8ff" stroke="#63b8ff" points="289.96,-27.94 298.23,-21.31 287.63,-21.34 289.96,-27.94"/>
</a>
</g>
</g>
<!-- Node9&#45;&gt;Node3 -->
<g id="edge12_Node000009_Node000003" class="edge">
<title>Node9&#45;&gt;Node3</title>
<g id="a_edge12_Node000009_Node000003"><a xlink:title=" ">
<path fill="none" stroke="#63b8ff" d="M258.05,-169.84C250.95,-162.36 240.97,-151.86 232.45,-142.88"/>
<polygon fill="#63b8ff" stroke="#63b8ff" points="235.03,-140.52 225.61,-135.68 229.96,-145.34 235.03,-140.52"/>
</a>
</g>
</g>
<!-- Node9&#45;&gt;Node5 -->
<g id="edge15_Node000009_Node000005" class="edge">
<title>Node9&#45;&gt;Node5</title>
<g id="a_edge15_Node000009_Node000005"><a xlink:title=" ">
<path fill="none" stroke="#63b8ff" d="M229.27,-169.84C193.55,-160.65 140.01,-146.89 101.58,-137.02"/>
<polygon fill="#63b8ff" stroke="#63b8ff" points="102.7,-133.69 92.14,-134.59 100.96,-140.47 102.7,-133.69"/>
</a>
</g>
</g>
<!-- Node9&#45;&gt;Node6 -->
<g id="edge13_Node000009_Node000006" class="edge">
<title>Node9&#45;&gt;Node6</title>
<g id="a_edge13_Node000009_Node000006"><a xlink:title=" ">
<path fill="none" stroke="#63b8ff" d="M270.69,-170.1C279.98,-143.62 306.26,-68.68 319.1,-32.05"/>
<polygon fill="#63b8ff" stroke="#63b8ff" points="322.39,-33.24 322.4,-22.65 315.78,-30.92 322.39,-33.24"/>
</a>
</g>
</g>
<!-- Node10 -->
<g id="Node000010" class="node">
<title>Node10</title>
<g id="a_Node000010"><a xlink:title=" ">
<polygon fill="#e0e0e0" stroke="#999999" points="495.85,-77.5 440.85,-77.5 440.85,-56.75 495.85,-56.75 495.85,-77.5"/>
<text text-anchor="middle" x="468.35" y="-64" font-family="Helvetica,sans-Serif" font-size="10.00">stddef.h</text>
</a>
</g>
</g>
<!-- Node9&#45;&gt;Node10 -->
<g id="edge14_Node000009_Node000010" class="edge">
<title>Node9&#45;&gt;Node10</title>
<g id="a_edge14_Node000009_Node000010"><a xlink:title=" ">
<path fill="none" stroke="#63b8ff" d="M312.46,-173C343.46,-166.8 384.44,-155.23 415.35,-134.25 433.18,-122.15 447.95,-102.25 457.33,-87.44"/>
<polygon fill="#63b8ff" stroke="#63b8ff" points="460.24,-89.41 462.4,-79.03 454.24,-85.79 460.24,-89.41"/>
</a>
</g>
</g>
<!-- Node11&#45;&gt;Node2 -->
<g id="edge29_Node000011_Node000002" class="edge">
<title>Node11&#45;&gt;Node2</title>
<g id="a_edge29_Node000011_Node000002"><a xlink:title=" ">
<path fill="none" stroke="#63b8ff" d="M295.45,-283.27C254.8,-274.15 194.21,-260.56 150.36,-250.72"/>
<polygon fill="#63b8ff" stroke="#63b8ff" points="151.31,-247.35 140.79,-248.57 149.78,-254.18 151.31,-247.35"/>
</a>
</g>
</g>
<!-- Node11&#45;&gt;Node6 -->
<g id="edge20_Node000011_Node000006" class="edge">
<title>Node11&#45;&gt;Node6</title>
<g id="a_edge20_Node000011_Node000006"><a xlink:title=" ">
<path fill="none" stroke="#63b8ff" d="M295.25,-292.11C221.65,-289.52 78.22,-280.32 41.35,-247.75 2.07,-213.05 16.53,-186.17 9.35,-134.25 4.31,-97.82 8.57,-78.34 38.35,-56.75 77.67,-28.24 219.87,-16.98 288.62,-13.12"/>
<polygon fill="#63b8ff" stroke="#63b8ff" points="288.47,-16.64 298.26,-12.61 288.09,-9.65 288.47,-16.64"/>
</a>
</g>
</g>
<!-- Node11&#45;&gt;Node9 -->
<g id="edge28_Node000011_Node000009" class="edge">
<title>Node11&#45;&gt;Node9</title>
<g id="a_edge28_Node000011_Node000009"><a xlink:title=" ">
<path fill="none" stroke="#63b8ff" d="M323.34,-283.53C311.19,-275.45 294.98,-262.81 285.35,-247.75 276.61,-234.09 272.08,-216.23 269.75,-202.52"/>
<polygon fill="#63b8ff" stroke="#63b8ff" points="273.24,-202.24 268.38,-192.83 266.31,-203.22 273.24,-202.24"/>
</a>
</g>
</g>
<!-- Node12 -->
<g id="Node000012" class="node">
<title>Node12</title>
<g id="a_Node000012"><a xlink:href="assert_8h.html" target="_top" xlink:title="POSIX.1&#45;2008 compliant version of the assert macro.">
<polygon fill="white" stroke="#666666" points="607.85,-77.5 552.85,-77.5 552.85,-56.75 607.85,-56.75 607.85,-77.5"/>
<text text-anchor="middle" x="580.35" y="-64" font-family="Helvetica,sans-Serif" font-size="10.00">assert.h</text>
</a>
</g>
</g>
<!-- Node11&#45;&gt;Node12 -->
<g id="edge17_Node000011_Node000012" class="edge">
<title>Node11&#45;&gt;Node12</title>
<g id="a_edge17_Node000011_Node000012"><a xlink:title=" ">
<path fill="none" stroke="#63b8ff" d="M353.01,-283.41C393.23,-254.64 510.36,-169.68 541.35,-134.25 553.55,-120.3 564,-101.99 571.01,-88.18"/>
<polygon fill="#63b8ff" stroke="#63b8ff" points="574.16,-89.71 575.38,-79.19 567.86,-86.65 574.16,-89.71"/>
</a>
</g>
</g>
<!-- Node13 -->
<g id="Node000013" class="node">
<title>Node13</title>
<g id="a_Node000013"><a xlink:href="errno_8h.html" target="_top" xlink:title=" ">
<polygon fill="white" stroke="#666666" points="650.6,-247.75 600.1,-247.75 600.1,-227 650.6,-227 650.6,-247.75"/>
<text text-anchor="middle" x="625.35" y="-234.25" font-family="Helvetica,sans-Serif" font-size="10.00">errno.h</text>
</a>
</g>
</g>
<!-- Node11&#45;&gt;Node13 -->
<g id="edge19_Node000011_Node000013" class="edge">
<title>Node11&#45;&gt;Node13</title>
<g id="a_edge19_Node000011_Node000013"><a xlink:title=" ">
<path fill="none" stroke="#63b8ff" d="M383.3,-286.45C431.51,-278.86 511.38,-265.48 588.88,-248.16"/>
<polygon fill="#63b8ff" stroke="#63b8ff" points="589.34,-251.64 598.32,-246.02 587.79,-244.82 589.34,-251.64"/>
</a>
</g>
</g>
<!-- Node14 -->
<g id="Node000014" class="node">
<title>Node14</title>
<g id="a_Node000014"><a xlink:title=" ">
<polygon fill="#e0e0e0" stroke="#999999" points="492.35,-247.75 440.35,-247.75 440.35,-227 492.35,-227 492.35,-247.75"/>
<text text-anchor="middle" x="466.35" y="-234.25" font-family="Helvetica,sans-Serif" font-size="10.00">stdlib.h</text>
</a>
</g>
</g>
<!-- Node11&#45;&gt;Node14 -->
<g id="edge21_Node000011_Node000014" class="edge">
<title>Node11&#45;&gt;Node14</title>
<g id="a_edge21_Node000011_Node000014"><a xlink:title=" ">
<path fill="none" stroke="#63b8ff" d="M362.05,-283.34C381.92,-274.77 411.02,-262.23 433.44,-252.56"/>
<polygon fill="#63b8ff" stroke="#63b8ff" points="434.65,-255.85 442.45,-248.68 431.88,-249.42 434.65,-255.85"/>
</a>
</g>
</g>
<!-- Node15 -->
<g id="Node000015" class="node">
<title>Node15</title>
<g id="a_Node000015"><a xlink:title=" ">
<polygon fill="#e0e0e0" stroke="#999999" points="582.1,-247.75 510.6,-247.75 510.6,-227 582.1,-227 582.1,-247.75"/>
<text text-anchor="middle" x="546.35" y="-234.25" font-family="Helvetica,sans-Serif" font-size="10.00">sys/types.h</text>
</a>
</g>
</g>
<!-- Node11&#45;&gt;Node15 -->
<g id="edge22_Node000011_Node000015" class="edge">
<title>Node11&#45;&gt;Node15</title>
<g id="a_edge22_Node000011_Node000015"><a xlink:title=" ">
<path fill="none" stroke="#63b8ff" d="M376.36,-283.34C410.71,-274.25 462.02,-260.68 499.28,-250.82"/>
<polygon fill="#63b8ff" stroke="#63b8ff" points="500.12,-254.22 508.89,-248.28 498.33,-247.46 500.12,-254.22"/>
</a>
</g>
</g>
<!-- Node16 -->
<g id="Node000016" class="node">
<title>Node16</title>
<g id="a_Node000016"><a xlink:href="af_8h.html" target="_top" xlink:title="Global UNIX address family definitions.">
<polygon fill="white" stroke="#666666" points="346.72,-247.75 293.97,-247.75 293.97,-227 346.72,-227 346.72,-247.75"/>
<text text-anchor="middle" x="320.35" y="-234.25" font-family="Helvetica,sans-Serif" font-size="10.00">net/af.h</text>
</a>
</g>
</g>
<!-- Node11&#45;&gt;Node16 -->
<g id="edge23_Node000011_Node000016" class="edge">
<title>Node11&#45;&gt;Node16</title>
<g id="a_edge23_Node000011_Node000016"><a xlink:title=" ">
<path fill="none" stroke="#63b8ff" d="M335.95,-283.34C333.6,-276.56 330.39,-267.3 327.49,-258.94"/>
<polygon fill="#63b8ff" stroke="#63b8ff" points="330.8,-257.81 324.21,-249.51 324.18,-260.1 330.8,-257.81"/>
</a>
</g>
</g>
<!-- Node17 -->
<g id="Node000017" class="node">
<title>Node17</title>
<g id="a_Node000017"><a xlink:href="sock_8h.html" target="_top" xlink:title="Common sock API definitions.">
<polygon fill="white" stroke="#666666" points="406.47,-134.25 340.22,-134.25 340.22,-113.5 406.47,-113.5 406.47,-134.25"/>
<text text-anchor="middle" x="373.35" y="-120.75" font-family="Helvetica,sans-Serif" font-size="10.00">net/sock.h</text>
</a>
</g>
</g>
<!-- Node11&#45;&gt;Node17 -->
<g id="edge24_Node000011_Node000017" class="edge">
<title>Node11&#45;&gt;Node17</title>
<g id="a_edge24_Node000011_Node000017"><a xlink:title=" ">
<path fill="none" stroke="#63b8ff" d="M343.34,-283.55C346.97,-274.48 352.22,-260.4 355.35,-247.75 364.07,-212.46 369.11,-170.35 371.54,-145.72"/>
<polygon fill="#63b8ff" stroke="#63b8ff" points="374.99,-146.34 372.43,-136.06 368.02,-145.7 374.99,-146.34"/>
</a>
</g>
</g>
<!-- Node19 -->
<g id="Node000019" class="node">
<title>Node19</title>
<g id="a_Node000019"><a xlink:title=" ">
<polygon fill="#e0e0e0" stroke="#999999" points="238.22,-247.75 158.47,-247.75 158.47,-227 238.22,-227 238.22,-247.75"/>
<text text-anchor="middle" x="198.35" y="-234.25" font-family="Helvetica,sans-Serif" font-size="10.00">sock_types.h</text>
</a>
</g>
</g>
<!-- Node11&#45;&gt;Node19 -->
<g id="edge30_Node000011_Node000019" class="edge">
<title>Node11&#45;&gt;Node19</title>
<g id="a_edge30_Node000011_Node000019"><a xlink:title=" ">
<path fill="none" stroke="#63b8ff" d="M314.14,-283.34C291.78,-274.66 258.89,-261.88 233.87,-252.17"/>
<polygon fill="#63b8ff" stroke="#63b8ff" points="235.34,-248.98 224.75,-248.63 232.8,-255.51 235.34,-248.98"/>
</a>
</g>
</g>
<!-- Node12&#45;&gt;Node6 -->
<g id="edge18_Node000012_Node000006" class="edge">
<title>Node12&#45;&gt;Node6</title>
<g id="a_edge18_Node000012_Node000006"><a xlink:title=" ">
<path fill="none" stroke="#63b8ff" d="M552.79,-59.94C547.98,-58.87 543.02,-57.77 538.35,-56.75 477.51,-43.45 406.77,-28.39 364.33,-19.4"/>
<polygon fill="#63b8ff" stroke="#63b8ff" points="365.13,-15.99 354.62,-17.34 363.68,-22.84 365.13,-15.99"/>
</a>
</g>
</g>
<!-- Node17&#45;&gt;Node6 -->
<g id="edge25_Node000017_Node000006" class="edge">
<title>Node17&#45;&gt;Node6</title>
<g id="a_edge25_Node000017_Node000006"><a xlink:title=" ">
<path fill="none" stroke="#63b8ff" d="M369.34,-113.37C361.75,-95.36 345.11,-55.89 334.91,-31.68"/>
<polygon fill="#63b8ff" stroke="#63b8ff" points="338.18,-30.43 331.07,-22.57 331.73,-33.14 338.18,-30.43"/>
</a>
</g>
</g>
<!-- Node17&#45;&gt;Node10 -->
<g id="edge26_Node000017_Node000010" class="edge">
<title>Node17&#45;&gt;Node10</title>
<g id="a_edge26_Node000017_Node000010"><a xlink:title=" ">
<path fill="none" stroke="#63b8ff" d="M390.33,-113.09C404.65,-104.83 425.39,-92.88 441.88,-83.38"/>
<polygon fill="#63b8ff" stroke="#63b8ff" points="443.28,-86.61 450.2,-78.58 439.79,-80.55 443.28,-86.61"/>
</a>
</g>
</g>
<!-- Node18 -->
<g id="Node000018" class="node">
<title>Node18</title>
<g id="a_Node000018"><a xlink:href="iolist_8h.html" target="_top" xlink:title="iolist scatter / gather IO">
<polygon fill="white" stroke="#666666" points="422.85,-77.5 373.85,-77.5 373.85,-56.75 422.85,-56.75 422.85,-77.5"/>
<text text-anchor="middle" x="398.35" y="-64" font-family="Helvetica,sans-Serif" font-size="10.00">iolist.h</text>
</a>
</g>
</g>
<!-- Node17&#45;&gt;Node18 -->
<g id="edge27_Node000017_Node000018" class="edge">
<title>Node17&#45;&gt;Node18</title>
<g id="a_edge27_Node000017_Node000018"><a xlink:title=" ">
<path fill="none" stroke="#63b8ff" d="M377.82,-113.09C380.98,-106.16 385.34,-96.62 389.22,-88.11"/>
<polygon fill="#63b8ff" stroke="#63b8ff" points="392.32,-89.76 393.29,-79.21 385.95,-86.85 392.32,-89.76"/>
</a>
</g>
</g>
<!-- Node20&#45;&gt;Node4 -->
<g id="edge50_Node000020_Node000004" class="edge">
<title>Node20&#45;&gt;Node4</title>
<g id="a_edge50_Node000020_Node000004"><a xlink:title=" ">
<path fill="none" stroke="#63b8ff" d="M472.04,-347.14C362.12,-339.7 94.75,-314.93 41.35,-247.75 -5.97,-188.22 -53.71,-259.1 154.35,-113.5 172.97,-100.47 195.93,-89.61 214.94,-81.78"/>
<polygon fill="#63b8ff" stroke="#63b8ff" points="216.21,-85.04 224.21,-78.09 213.62,-78.54 216.21,-85.04"/>
</a>
</g>
</g>
<!-- Node20&#45;&gt;Node11 -->
<g id="edge54_Node000020_Node000011" class="edge">
<title>Node20&#45;&gt;Node11</title>
<g id="a_edge54_Node000020_Node000011"><a xlink:title=" ">
<path fill="none" stroke="#63b8ff" d="M487.17,-340.09C457.95,-331.2 414.64,-318.02 382.44,-308.23"/>
<polygon fill="#63b8ff" stroke="#63b8ff" points="383.59,-304.92 373,-305.36 381.55,-311.62 383.59,-304.92"/>
</a>
</g>
</g>
<!-- Node20&#45;&gt;Node13 -->
<g id="edge33_Node000020_Node000013" class="edge">
<title>Node20&#45;&gt;Node13</title>
<g id="a_edge33_Node000020_Node000013"><a xlink:title=" ">
<path fill="none" stroke="#63b8ff" d="M566.82,-343C590.1,-336.97 616.13,-325.67 630.35,-304.5 639.37,-291.06 636.98,-272.43 632.98,-258.37"/>
<polygon fill="#63b8ff" stroke="#63b8ff" points="636.43,-257.66 629.94,-249.29 629.79,-259.88 636.43,-257.66"/>
</a>
</g>
</g>
<!-- Node20&#45;&gt;Node14 -->
<g id="edge49_Node000020_Node000014" class="edge">
<title>Node20&#45;&gt;Node14</title>
<g id="a_edge49_Node000020_Node000014"><a xlink:title=" ">
<path fill="none" stroke="#63b8ff" d="M479.89,-340.09C461.46,-333.33 441.22,-322.25 430.35,-304.5 420.45,-288.35 433.3,-269.29 446.31,-255.8"/>
<polygon fill="#63b8ff" stroke="#63b8ff" points="448.35,-258.69 453.14,-249.24 443.5,-253.64 448.35,-258.69"/>
</a>
</g>
</g>
<!-- Node20&#45;&gt;Node15 -->
<g id="edge51_Node000020_Node000015" class="edge">
<title>Node20&#45;&gt;Node15</title>
<g id="a_edge51_Node000020_Node000015"><a xlink:title=" ">
<path fill="none" stroke="#63b8ff" d="M521.65,-340.37C525.97,-322.52 535.4,-283.61 541.27,-259.34"/>
<polygon fill="#63b8ff" stroke="#63b8ff" points="544.67,-260.19 543.62,-249.65 537.86,-258.54 544.67,-260.19"/>
</a>
</g>
</g>
<!-- Node21 -->
<g id="Node000021" class="node">
<title>Node21</title>
<g id="a_Node000021"><a xlink:title=" ">
<polygon fill="#e0e0e0" stroke="#999999" points="491.35,-304.5 439.35,-304.5 439.35,-283.75 491.35,-283.75 491.35,-304.5"/>
<text text-anchor="middle" x="465.35" y="-291" font-family="Helvetica,sans-Serif" font-size="10.00">ctype.h</text>
</a>
</g>
</g>
<!-- Node20&#45;&gt;Node21 -->
<g id="edge32_Node000020_Node000021" class="edge">
<title>Node20&#45;&gt;Node21</title>
<g id="a_edge32_Node000020_Node000021"><a xlink:title=" ">
<path fill="none" stroke="#63b8ff" d="M509.7,-340.09C502.25,-332.53 491.74,-321.89 482.83,-312.85"/>
<polygon fill="#63b8ff" stroke="#63b8ff" points="485.5,-310.57 475.98,-305.91 480.51,-315.48 485.5,-310.57"/>
</a>
</g>
</g>
<!-- Node22 -->
<g id="Node000022" class="node">
<title>Node22</title>
<g id="a_Node000022"><a xlink:href="stdio_8h.html" target="_top" xlink:title="stdio wrapper to extend the C libs stdio">
<polygon fill="white" stroke="#666666" points="818.85,-304.5 769.85,-304.5 769.85,-283.75 818.85,-283.75 818.85,-304.5"/>
<text text-anchor="middle" x="794.35" y="-291" font-family="Helvetica,sans-Serif" font-size="10.00">stdio.h</text>
</a>
</g>
</g>
<!-- Node20&#45;&gt;Node22 -->
<g id="edge34_Node000020_Node000022" class="edge">
<title>Node20&#45;&gt;Node22</title>
<g id="a_edge34_Node000020_Node000022"><a xlink:title=" ">
<path fill="none" stroke="#63b8ff" d="M566.69,-342.16C613.08,-334.33 686.01,-321.31 758.39,-304.8"/>
<polygon fill="#63b8ff" stroke="#63b8ff" points="759.1,-308.23 768.05,-302.57 757.52,-301.4 759.1,-308.23"/>
</a>
</g>
</g>
<!-- Node30 -->
<g id="Node000030" class="node">
<title>Node30</title>
<g id="a_Node000030"><a xlink:href="pm_8h.html" target="_top" xlink:title="Power management interface.">
<polygon fill="white" stroke="#666666" points="751.6,-304.5 677.1,-304.5 677.1,-283.75 751.6,-283.75 751.6,-304.5"/>
<text text-anchor="middle" x="714.35" y="-291" font-family="Helvetica,sans-Serif" font-size="10.00">periph/pm.h</text>
</a>
</g>
</g>
<!-- Node20&#45;&gt;Node30 -->
<g id="edge52_Node000020_Node000030" class="edge">
<title>Node20&#45;&gt;Node30</title>
<g id="a_edge52_Node000020_Node000030"><a xlink:title=" ">
<path fill="none" stroke="#63b8ff" d="M554.21,-340.09C586.14,-331.12 633.61,-317.79 668.58,-307.98"/>
<polygon fill="#63b8ff" stroke="#63b8ff" points="669.32,-311.4 678,-305.33 667.43,-304.66 669.32,-311.4"/>
</a>
</g>
</g>
<!-- Node20&#45;&gt;Node32 -->
<g id="edge55_Node000020_Node000032" class="edge">
<title>Node20&#45;&gt;Node32</title>
<g id="a_edge55_Node000020_Node000032"><a xlink:title=" ">
<path fill="none" stroke="#63b8ff" d="M566.57,-343.11C631.26,-333.84 748.18,-317.08 825.29,-306.03"/>
<polygon fill="#63b8ff" stroke="#63b8ff" points="825.47,-309.54 834.87,-304.65 824.48,-302.61 825.47,-309.54"/>
</a>
</g>
</g>
<!-- Node33 -->
<g id="Node000033" class="node">
<title>Node33</title>
<g id="a_Node000033"><a xlink:title=" ">
<polygon fill="#e0e0e0" stroke="#999999" points="621.22,-304.5 547.47,-304.5 547.47,-283.75 621.22,-283.75 621.22,-304.5"/>
<text text-anchor="middle" x="584.35" y="-291" font-family="Helvetica,sans-Serif" font-size="10.00">liblwm2m.h</text>
</a>
</g>
</g>
<!-- Node20&#45;&gt;Node33 -->
<g id="edge56_Node000020_Node000033" class="edge">
<title>Node20&#45;&gt;Node33</title>
<g id="a_edge56_Node000020_Node000033"><a xlink:title=" ">
<path fill="none" stroke="#63b8ff" d="M530.97,-340.09C540.21,-332.3 553.36,-321.22 564.3,-312.01"/>
<polygon fill="#63b8ff" stroke="#63b8ff" points="566.28,-314.92 571.67,-305.8 561.77,-309.57 566.28,-314.92"/>
</a>
</g>
</g>
<!-- Node23 -->
<g id="Node000023" class="node">
<title>Node23</title>
<g id="a_Node000023"><a xlink:href="flash__utils_8h.html" target="_top" xlink:title="Utility functions, macros, and types for read&#45;only memory.">
<polygon fill="white" stroke="#666666" points="839.97,-247.75 764.72,-247.75 764.72,-227 839.97,-227 839.97,-247.75"/>
<text text-anchor="middle" x="802.35" y="-234.25" font-family="Helvetica,sans-Serif" font-size="10.00">flash_utils.h</text>
</a>
</g>
</g>
<!-- Node22&#45;&gt;Node23 -->
<g id="edge35_Node000022_Node000023" class="edge">
<title>Node22&#45;&gt;Node23</title>
<g id="a_edge35_Node000022_Node000023"><a xlink:title=" ">
<path fill="none" stroke="#63b8ff" d="M790.46,-283.34C790.15,-276.56 791.09,-267.3 792.78,-258.94"/>
<polygon fill="#63b8ff" stroke="#63b8ff" points="796.1,-260.1 795.25,-249.54 789.33,-258.33 796.1,-260.1"/>
</a>
</g>
</g>
<!-- Node23&#45;&gt;Node4 -->
<g id="edge37_Node000023_Node000004" class="edge">
<title>Node23&#45;&gt;Node4</title>
<g id="a_edge37_Node000023_Node000004"><a xlink:title=" ">
<path fill="none" stroke="#63b8ff" d="M764.49,-228.68C656.11,-206.59 351.1,-143.92 331.35,-134.25 306.91,-122.29 283.62,-101.19 268.74,-86.04"/>
<polygon fill="#63b8ff" stroke="#63b8ff" points="271.48,-83.84 262.05,-79.01 266.41,-88.67 271.48,-83.84"/>
</a>
</g>
</g>
<!-- Node23&#45;&gt;Node22 -->
<g id="edge36_Node000023_Node000022" class="edge">
<title>Node23&#45;&gt;Node22</title>
<g id="a_edge36_Node000023_Node000022"><a xlink:title=" ">
<path fill="none" stroke="#63b8ff" d="M806.23,-248.08C806.55,-254.83 805.62,-264.09 803.94,-272.46"/>
<polygon fill="#63b8ff" stroke="#63b8ff" points="800.62,-271.31 801.48,-281.87 807.39,-273.08 800.62,-271.31"/>
</a>
</g>
</g>
<!-- Node24 -->
<g id="Node000024" class="node">
<title>Node24</title>
<g id="a_Node000024"><a xlink:title=" ">
<polygon fill="#e0e0e0" stroke="#999999" points="702.22,-191 634.47,-191 634.47,-170.25 702.22,-170.25 702.22,-191"/>
<text text-anchor="middle" x="668.35" y="-177.5" font-family="Helvetica,sans-Serif" font-size="10.00">cpu_conf.h</text>
</a>
</g>
</g>
<!-- Node23&#45;&gt;Node24 -->
<g id="edge38_Node000023_Node000024" class="edge">
<title>Node23&#45;&gt;Node24</title>
<g id="a_edge38_Node000023_Node000024"><a xlink:title=" ">
<path fill="none" stroke="#63b8ff" d="M778.39,-226.59C757.34,-217.98 726.45,-205.36 702.75,-195.68"/>
<polygon fill="#63b8ff" stroke="#63b8ff" points="704.08,-192.44 693.5,-191.9 701.43,-198.92 704.08,-192.44"/>
</a>
</g>
</g>
<!-- Node25 -->
<g id="Node000025" class="node">
<title>Node25</title>
<g id="a_Node000025"><a xlink:href="kernel__defines_8h.html" target="_top" xlink:title="Common macros and compiler attributes/pragmas configuration.">
<polygon fill="white" stroke="#666666" points="816.47,-191 720.22,-191 720.22,-170.25 816.47,-170.25 816.47,-191"/>
<text text-anchor="middle" x="768.35" y="-177.5" font-family="Helvetica,sans-Serif" font-size="10.00">kernel_defines.h</text>
</a>
</g>
</g>
<!-- Node23&#45;&gt;Node25 -->
<g id="edge39_Node000023_Node000025" class="edge">
<title>Node23&#45;&gt;Node25</title>
<g id="a_edge39_Node000023_Node000025"><a xlink:title=" ">
<path fill="none" stroke="#63b8ff" d="M796.27,-226.59C791.87,-219.5 785.78,-209.69 780.41,-201.04"/>
<polygon fill="#63b8ff" stroke="#63b8ff" points="783.42,-199.26 775.17,-192.61 777.48,-202.96 783.42,-199.26"/>
</a>
</g>
</g>
<!-- Node26 -->
<g id="Node000026" class="node">
<title>Node26</title>
<g id="a_Node000026"><a xlink:href="modules_8h.html" target="_top" xlink:title="Common macros and compiler attributes/pragmas configuration.">
<polygon fill="white" stroke="#666666" points="770.85,-134.25 703.85,-134.25 703.85,-113.5 770.85,-113.5 770.85,-134.25"/>
<text text-anchor="middle" x="737.35" y="-120.75" font-family="Helvetica,sans-Serif" font-size="10.00">modules.h</text>
</a>
</g>
</g>
<!-- Node25&#45;&gt;Node26 -->
<g id="edge40_Node000025_Node000026" class="edge">
<title>Node25&#45;&gt;Node26</title>
<g id="a_edge40_Node000025_Node000026"><a xlink:title=" ">
<path fill="none" stroke="#63b8ff" d="M762.81,-169.84C758.84,-162.83 753.36,-153.16 748.5,-144.58"/>
<polygon fill="#63b8ff" stroke="#63b8ff" points="751.56,-142.87 743.59,-135.9 745.47,-146.32 751.56,-142.87"/>
</a>
</g>
</g>
<!-- Node27 -->
<g id="Node000027" class="node">
<title>Node27</title>
<g id="a_Node000027"><a xlink:href="riot__version_8h.html" target="_top" xlink:title="Common macros and compiler attributes/pragmas configuration.">
<polygon fill="white" stroke="#666666" points="793.72,-77.5 710.97,-77.5 710.97,-56.75 793.72,-56.75 793.72,-77.5"/>
<text text-anchor="middle" x="752.35" y="-64" font-family="Helvetica,sans-Serif" font-size="10.00">riot_version.h</text>
</a>
</g>
</g>
<!-- Node25&#45;&gt;Node27 -->
<g id="edge41_Node000025_Node000027" class="edge">
<title>Node25&#45;&gt;Node27</title>
<g id="a_edge41_Node000025_Node000027"><a xlink:title=" ">
<path fill="none" stroke="#63b8ff" d="M772.77,-170.08C778.18,-157.1 785.95,-133.26 780.35,-113.5 777.68,-104.09 772.44,-94.71 767.21,-86.95"/>
<polygon fill="#63b8ff" stroke="#63b8ff" points="770.16,-85.06 761.45,-79.03 764.5,-89.17 770.16,-85.06"/>
</a>
</g>
</g>
<!-- Node28 -->
<g id="Node000028" class="node">
<title>Node28</title>
<g id="a_Node000028"><a xlink:href="compiler__hints_8h.html" target="_top" xlink:title="Common macros and compiler attributes/pragmas configuration.">
<polygon fill="white" stroke="#666666" points="685.85,-134.25 588.85,-134.25 588.85,-113.5 685.85,-113.5 685.85,-134.25"/>
<text text-anchor="middle" x="637.35" y="-120.75" font-family="Helvetica,sans-Serif" font-size="10.00">compiler_hints.h</text>
</a>
</g>
</g>
<!-- Node25&#45;&gt;Node28 -->
<g id="edge43_Node000025_Node000028" class="edge">
<title>Node25&#45;&gt;Node28</title>
<g id="a_edge43_Node000025_Node000028"><a xlink:title=" ">
<path fill="none" stroke="#63b8ff" d="M744.93,-169.84C724.34,-161.23 694.14,-148.61 670.98,-138.93"/>
<polygon fill="#63b8ff" stroke="#63b8ff" points="672.54,-135.79 661.96,-135.16 669.84,-142.25 672.54,-135.79"/>
</a>
</g>
</g>
<!-- Node29 -->
<g id="Node000029" class="node">
<title>Node29</title>
<g id="a_Node000029"><a xlink:href="container_8h.html" target="_top" xlink:title="Common macros and compiler attributes/pragmas configuration.">
<polygon fill="white" stroke="#666666" points="532.72,-134.25 461.97,-134.25 461.97,-113.5 532.72,-113.5 532.72,-134.25"/>
<text text-anchor="middle" x="497.35" y="-120.75" font-family="Helvetica,sans-Serif" font-size="10.00">container.h</text>
</a>
</g>
</g>
<!-- Node25&#45;&gt;Node29 -->
<g id="edge46_Node000025_Node000029" class="edge">
<title>Node25&#45;&gt;Node29</title>
<g id="a_edge46_Node000025_Node000029"><a xlink:title=" ">
<path fill="none" stroke="#63b8ff" d="M719.9,-169.84C670.15,-159.79 593.24,-144.25 544.11,-134.32"/>
<polygon fill="#63b8ff" stroke="#63b8ff" points="544.84,-130.9 534.34,-132.35 543.45,-137.76 544.84,-130.9"/>
</a>
</g>
</g>
<!-- Node27&#45;&gt;Node6 -->
<g id="edge42_Node000027_Node000006" class="edge">
<title>Node27&#45;&gt;Node6</title>
<g id="a_edge42_Node000027_Node000006"><a xlink:title=" ">
<path fill="none" stroke="#63b8ff" d="M710.73,-60.78C627.91,-50.13 443.65,-26.45 364.11,-16.23"/>
<polygon fill="#63b8ff" stroke="#63b8ff" points="365.02,-12.82 354.66,-15.01 364.13,-19.76 365.02,-12.82"/>
</a>
</g>
</g>
<!-- Node28&#45;&gt;Node6 -->
<g id="edge45_Node000028_Node000006" class="edge">
<title>Node28&#45;&gt;Node6</title>
<g id="a_edge45_Node000028_Node000006"><a xlink:title=" ">
<path fill="none" stroke="#63b8ff" d="M637.43,-113.08C636.98,-98.45 633.82,-71.08 617.35,-56.75 580.24,-24.47 434.58,-15.08 364.47,-12.41"/>
<polygon fill="#63b8ff" stroke="#63b8ff" points="364.72,-8.92 354.61,-12.06 364.48,-15.91 364.72,-8.92"/>
</a>
</g>
</g>
<!-- Node28&#45;&gt;Node12 -->
<g id="edge44_Node000028_Node000012" class="edge">
<title>Node28&#45;&gt;Node12</title>
<g id="a_edge44_Node000028_Node000012"><a xlink:title=" ">
<path fill="none" stroke="#63b8ff" d="M627.16,-113.09C619.22,-105.46 607.98,-94.67 598.51,-85.57"/>
<polygon fill="#63b8ff" stroke="#63b8ff" points="601.18,-83.28 591.54,-78.88 596.33,-88.33 601.18,-83.28"/>
</a>
</g>
</g>
<!-- Node29&#45;&gt;Node6 -->
<g id="edge48_Node000029_Node000006" class="edge">
<title>Node29&#45;&gt;Node6</title>
<g id="a_edge48_Node000029_Node000006"><a xlink:title=" ">
<path fill="none" stroke="#63b8ff" d="M502.43,-113.2C508.98,-99.19 518.13,-73.18 505.35,-56.75 488.2,-34.71 411.48,-21.65 364.22,-15.56"/>
<polygon fill="#63b8ff" stroke="#63b8ff" points="364.75,-12.1 354.39,-14.34 363.89,-19.05 364.75,-12.1"/>
</a>
</g>
</g>
<!-- Node29&#45;&gt;Node10 -->
<g id="edge47_Node000029_Node000010" class="edge">
<title>Node29&#45;&gt;Node10</title>
<g id="a_edge47_Node000029_Node000010"><a xlink:title=" ">
<path fill="none" stroke="#63b8ff" d="M492.16,-113.09C488.45,-106.08 483.33,-96.41 478.79,-87.83"/>
<polygon fill="#63b8ff" stroke="#63b8ff" points="481.97,-86.36 474.2,-79.17 475.79,-89.64 481.97,-86.36"/>
</a>
</g>
</g>
<!-- Node31 -->
<g id="Node000031" class="node">
<title>Node31</title>
<g id="a_Node000031"><a xlink:title=" ">
<polygon fill="#e0e0e0" stroke="#999999" points="746.47,-247.75 668.22,-247.75 668.22,-227 746.47,-227 746.47,-247.75"/>
<text text-anchor="middle" x="707.35" y="-234.25" font-family="Helvetica,sans-Serif" font-size="10.00">periph_cpu.h</text>
</a>
</g>
</g>
<!-- Node30&#45;&gt;Node31 -->
<g id="edge53_Node000030_Node000031" class="edge">
<title>Node30&#45;&gt;Node31</title>
<g id="a_edge53_Node000030_Node000031"><a xlink:title=" ">
<path fill="none" stroke="#63b8ff" d="M713.1,-283.34C712.24,-276.64 711.07,-267.51 710.02,-259.23"/>
<polygon fill="#63b8ff" stroke="#63b8ff" points="713.52,-259.06 708.78,-249.58 706.58,-259.94 713.52,-259.06"/>
</a>
</g>
</g>
</g>
</svg>
