<?xml version="1.0" encoding="UTF-8" standalone="no"?>
<!DOCTYPE svg PUBLIC "-//W3C//DTD SVG 1.1//EN"
 "http://www.w3.org/Graphics/SVG/1.1/DTD/svg11.dtd">
<!-- Generated by graphviz version 12.1.2 (0)
 -->
<!-- Title: drivers/mrf24j40/include/mrf24j40_netdev.h Pages: 1 -->
<svg width="534pt" height="325pt"
 viewBox="0.00 0.00 533.68 325.25" xmlns="http://www.w3.org/2000/svg" xmlns:xlink="http://www.w3.org/1999/xlink">
<g id="graph0" class="graph" transform="scale(1 1) rotate(0) translate(4 321.25)">
<title>drivers/mrf24j40/include/mrf24j40_netdev.h</title>
<!-- Node1 -->
<g id="Node000001" class="node">
<title>Node1</title>
<g id="a_Node000001"><a xlink:title="Netdev interface to MRF24J40 drivers.">
<polygon fill="#999999" stroke="#666666" points="172.81,-317.25 37.56,-317.25 37.56,-283.75 172.81,-283.75 172.81,-317.25"/>
<text text-anchor="start" x="45.56" y="-303.75" font-family="Helvetica,sans-Serif" font-size="10.00">drivers/mrf24j40/include</text>
<text text-anchor="middle" x="105.18" y="-291" font-family="Helvetica,sans-Serif" font-size="10.00">/mrf24j40_netdev.h</text>
</a>
</g>
</g>
<!-- Node2 -->
<g id="Node000002" class="node">
<title>Node2</title>
<g id="a_Node000002"><a xlink:href="drivers_2include_2net_2netdev_8h.html" target="_top" xlink:title="Definitions low&#45;level network driver interface.">
<polygon fill="white" stroke="#666666" points="143.56,-247.75 66.81,-247.75 66.81,-227 143.56,-227 143.56,-247.75"/>
<text text-anchor="middle" x="105.18" y="-234.25" font-family="Helvetica,sans-Serif" font-size="10.00">net/netdev.h</text>
</a>
</g>
</g>
<!-- Node1&#45;&gt;Node2 -->
<g id="edge1_Node000001_Node000002" class="edge">
<title>Node1&#45;&gt;Node2</title>
<g id="a_edge1_Node000001_Node000002"><a xlink:title=" ">
<path fill="none" stroke="#63b8ff" d="M105.18,-283.44C105.18,-276.1 105.18,-267.32 105.18,-259.46"/>
<polygon fill="#63b8ff" stroke="#63b8ff" points="108.68,-259.73 105.18,-249.73 101.68,-259.73 108.68,-259.73"/>
</a>
</g>
</g>
<!-- Node3 -->
<g id="Node000003" class="node">
<title>Node3</title>
<g id="a_Node000003"><a xlink:title=" ">
<polygon fill="#e0e0e0" stroke="#999999" points="321.56,-20.75 268.81,-20.75 268.81,0 321.56,0 321.56,-20.75"/>
<text text-anchor="middle" x="295.18" y="-7.25" font-family="Helvetica,sans-Serif" font-size="10.00">stdint.h</text>
</a>
</g>
</g>
<!-- Node2&#45;&gt;Node3 -->
<g id="edge2_Node000002_Node000003" class="edge">
<title>Node2&#45;&gt;Node3</title>
<g id="a_edge2_Node000002_Node000003"><a xlink:title=" ">
<path fill="none" stroke="#63b8ff" d="M66.58,-228.22C31.78,-218.77 -11.81,-200.51 3.18,-170.25 52.1,-71.5 190.5,-31.67 257.68,-17.81"/>
<polygon fill="#63b8ff" stroke="#63b8ff" points="257.97,-21.32 267.11,-15.95 256.62,-14.45 257.97,-21.32"/>
</a>
</g>
</g>
<!-- Node4 -->
<g id="Node000004" class="node">
<title>Node4</title>
<g id="a_Node000004"><a xlink:href="errno_8h.html" target="_top" xlink:title=" ">
<polygon fill="white" stroke="#666666" points="62.43,-191 11.93,-191 11.93,-170.25 62.43,-170.25 62.43,-191"/>
<text text-anchor="middle" x="37.18" y="-177.5" font-family="Helvetica,sans-Serif" font-size="10.00">errno.h</text>
</a>
</g>
</g>
<!-- Node2&#45;&gt;Node4 -->
<g id="edge3_Node000002_Node000004" class="edge">
<title>Node2&#45;&gt;Node4</title>
<g id="a_edge3_Node000002_Node000004"><a xlink:title=" ">
<path fill="none" stroke="#63b8ff" d="M93.02,-226.59C83.35,-218.8 69.6,-207.72 58.16,-198.51"/>
<polygon fill="#63b8ff" stroke="#63b8ff" points="60.4,-195.82 50.41,-192.28 56.01,-201.28 60.4,-195.82"/>
</a>
</g>
</g>
<!-- Node5 -->
<g id="Node000005" class="node">
<title>Node5</title>
<g id="a_Node000005"><a xlink:href="iolist_8h.html" target="_top" xlink:title="iolist scatter / gather IO">
<polygon fill="white" stroke="#666666" points="129.68,-191 80.68,-191 80.68,-170.25 129.68,-170.25 129.68,-191"/>
<text text-anchor="middle" x="105.18" y="-177.5" font-family="Helvetica,sans-Serif" font-size="10.00">iolist.h</text>
</a>
</g>
</g>
<!-- Node2&#45;&gt;Node5 -->
<g id="edge4_Node000002_Node000005" class="edge">
<title>Node2&#45;&gt;Node5</title>
<g id="a_edge4_Node000002_Node000005"><a xlink:title=" ">
<path fill="none" stroke="#63b8ff" d="M105.18,-226.59C105.18,-219.97 105.18,-210.97 105.18,-202.77"/>
<polygon fill="#63b8ff" stroke="#63b8ff" points="108.68,-202.84 105.18,-192.84 101.68,-202.84 108.68,-202.84"/>
</a>
</g>
</g>
<!-- Node6 -->
<g id="Node000006" class="node">
<title>Node6</title>
<g id="a_Node000006"><a xlink:href="netopt_8h.html" target="_top" xlink:title="Definition of global configuration options.">
<polygon fill="white" stroke="#666666" points="222.81,-191 147.56,-191 147.56,-170.25 222.81,-170.25 222.81,-191"/>
<text text-anchor="middle" x="185.18" y="-177.5" font-family="Helvetica,sans-Serif" font-size="10.00">net/netopt.h</text>
</a>
</g>
</g>
<!-- Node2&#45;&gt;Node6 -->
<g id="edge5_Node000002_Node000006" class="edge">
<title>Node2&#45;&gt;Node6</title>
<g id="a_edge5_Node000002_Node000006"><a xlink:title=" ">
<path fill="none" stroke="#63b8ff" d="M119.48,-226.59C131.2,-218.57 148.02,-207.06 161.71,-197.69"/>
<polygon fill="#63b8ff" stroke="#63b8ff" points="163.48,-200.72 169.75,-192.18 159.52,-194.94 163.48,-200.72"/>
</a>
</g>
</g>
<!-- Node8 -->
<g id="Node000008" class="node">
<title>Node8</title>
<g id="a_Node000008"><a xlink:href="kernel__defines_8h.html" target="_top" xlink:title="Common macros and compiler attributes/pragmas configuration.">
<polygon fill="white" stroke="#666666" points="357.31,-191 261.06,-191 261.06,-170.25 357.31,-170.25 357.31,-191"/>
<text text-anchor="middle" x="309.18" y="-177.5" font-family="Helvetica,sans-Serif" font-size="10.00">kernel_defines.h</text>
</a>
</g>
</g>
<!-- Node2&#45;&gt;Node8 -->
<g id="edge8_Node000002_Node000008" class="edge">
<title>Node2&#45;&gt;Node8</title>
<g id="a_edge8_Node000002_Node000008"><a xlink:title=" ">
<path fill="none" stroke="#63b8ff" d="M141.65,-226.59C175.2,-217.58 225.15,-204.18 261.77,-194.35"/>
<polygon fill="#63b8ff" stroke="#63b8ff" points="262.47,-197.79 271.22,-191.81 260.65,-191.02 262.47,-197.79"/>
</a>
</g>
</g>
<!-- Node6&#45;&gt;Node3 -->
<g id="edge6_Node000006_Node000003" class="edge">
<title>Node6&#45;&gt;Node3</title>
<g id="a_edge6_Node000006_Node000003"><a xlink:title=" ">
<path fill="none" stroke="#63b8ff" d="M164.8,-169.9C142.89,-158 112.76,-136.57 125.18,-113.5 152.4,-62.93 216.33,-34.9 257.57,-21.51"/>
<polygon fill="#63b8ff" stroke="#63b8ff" points="258.59,-24.86 267.11,-18.56 256.52,-18.17 258.59,-24.86"/>
</a>
</g>
</g>
<!-- Node7 -->
<g id="Node000007" class="node">
<title>Node7</title>
<g id="a_Node000007"><a xlink:title=" ">
<polygon fill="#e0e0e0" stroke="#999999" points="195.68,-134.25 134.68,-134.25 134.68,-113.5 195.68,-113.5 195.68,-134.25"/>
<text text-anchor="middle" x="165.18" y="-120.75" font-family="Helvetica,sans-Serif" font-size="10.00">stdbool.h</text>
</a>
</g>
</g>
<!-- Node6&#45;&gt;Node7 -->
<g id="edge7_Node000006_Node000007" class="edge">
<title>Node6&#45;&gt;Node7</title>
<g id="a_edge7_Node000006_Node000007"><a xlink:title=" ">
<path fill="none" stroke="#63b8ff" d="M181.61,-169.84C179.1,-162.99 175.67,-153.59 172.59,-145.15"/>
<polygon fill="#63b8ff" stroke="#63b8ff" points="175.96,-144.19 169.24,-136 169.39,-146.59 175.96,-144.19"/>
</a>
</g>
</g>
<!-- Node9 -->
<g id="Node000009" class="node">
<title>Node9</title>
<g id="a_Node000009"><a xlink:href="modules_8h.html" target="_top" xlink:title="Common macros and compiler attributes/pragmas configuration.">
<polygon fill="white" stroke="#666666" points="280.68,-134.25 213.68,-134.25 213.68,-113.5 280.68,-113.5 280.68,-134.25"/>
<text text-anchor="middle" x="247.18" y="-120.75" font-family="Helvetica,sans-Serif" font-size="10.00">modules.h</text>
</a>
</g>
</g>
<!-- Node8&#45;&gt;Node9 -->
<g id="edge9_Node000008_Node000009" class="edge">
<title>Node8&#45;&gt;Node9</title>
<g id="a_edge9_Node000008_Node000009"><a xlink:title=" ">
<path fill="none" stroke="#63b8ff" d="M298.1,-169.84C289.37,-162.13 276.99,-151.2 266.62,-142.04"/>
<polygon fill="#63b8ff" stroke="#63b8ff" points="269.12,-139.58 259.3,-135.58 264.48,-144.82 269.12,-139.58"/>
</a>
</g>
</g>
<!-- Node10 -->
<g id="Node000010" class="node">
<title>Node10</title>
<g id="a_Node000010"><a xlink:href="riot__version_8h.html" target="_top" xlink:title="Common macros and compiler attributes/pragmas configuration.">
<polygon fill="white" stroke="#666666" points="302.56,-77.5 219.81,-77.5 219.81,-56.75 302.56,-56.75 302.56,-77.5"/>
<text text-anchor="middle" x="261.18" y="-64" font-family="Helvetica,sans-Serif" font-size="10.00">riot_version.h</text>
</a>
</g>
</g>
<!-- Node8&#45;&gt;Node10 -->
<g id="edge10_Node000008_Node000010" class="edge">
<title>Node8&#45;&gt;Node10</title>
<g id="a_edge10_Node000008_Node000010"><a xlink:title=" ">
<path fill="none" stroke="#63b8ff" d="M307.08,-169.93C304.05,-156.78 297.85,-132.75 289.18,-113.5 285.11,-104.46 279.54,-95.05 274.45,-87.15"/>
<polygon fill="#63b8ff" stroke="#63b8ff" points="277.5,-85.42 269.03,-79.06 271.69,-89.32 277.5,-85.42"/>
</a>
</g>
</g>
<!-- Node11 -->
<g id="Node000011" class="node">
<title>Node11</title>
<g id="a_Node000011"><a xlink:href="compiler__hints_8h.html" target="_top" xlink:title="Common macros and compiler attributes/pragmas configuration.">
<polygon fill="white" stroke="#666666" points="434.68,-134.25 337.68,-134.25 337.68,-113.5 434.68,-113.5 434.68,-134.25"/>
<text text-anchor="middle" x="386.18" y="-120.75" font-family="Helvetica,sans-Serif" font-size="10.00">compiler_hints.h</text>
</a>
</g>
</g>
<!-- Node8&#45;&gt;Node11 -->
<g id="edge12_Node000008_Node000011" class="edge">
<title>Node8&#45;&gt;Node11</title>
<g id="a_edge12_Node000008_Node000011"><a xlink:title=" ">
<path fill="none" stroke="#63b8ff" d="M322.95,-169.84C334.12,-161.9 350.1,-150.53 363.2,-141.21"/>
<polygon fill="#63b8ff" stroke="#63b8ff" points="365.18,-144.1 371.3,-135.46 361.12,-138.4 365.18,-144.1"/>
</a>
</g>
</g>
<!-- Node13 -->
<g id="Node000013" class="node">
<title>Node13</title>
<g id="a_Node000013"><a xlink:href="container_8h.html" target="_top" xlink:title="Common macros and compiler attributes/pragmas configuration.">
<polygon fill="white" stroke="#666666" points="523.56,-134.25 452.81,-134.25 452.81,-113.5 523.56,-113.5 523.56,-134.25"/>
<text text-anchor="middle" x="488.18" y="-120.75" font-family="Helvetica,sans-Serif" font-size="10.00">container.h</text>
</a>
</g>
</g>
<!-- Node8&#45;&gt;Node13 -->
<g id="edge16_Node000008_Node000013" class="edge">
<title>Node8&#45;&gt;Node13</title>
<g id="a_edge16_Node000008_Node000013"><a xlink:title=" ">
<path fill="none" stroke="#63b8ff" d="M341.18,-169.84C370.24,-160.95 413.31,-147.77 445.33,-137.98"/>
<polygon fill="#63b8ff" stroke="#63b8ff" points="446.17,-141.39 454.71,-135.11 444.12,-134.69 446.17,-141.39"/>
</a>
</g>
</g>
<!-- Node10&#45;&gt;Node3 -->
<g id="edge11_Node000010_Node000003" class="edge">
<title>Node10&#45;&gt;Node3</title>
<g id="a_edge11_Node000010_Node000003"><a xlink:title=" ">
<path fill="none" stroke="#63b8ff" d="M267.26,-56.34C271.66,-49.25 277.75,-39.44 283.12,-30.79"/>
<polygon fill="#63b8ff" stroke="#63b8ff" points="286.05,-32.71 288.36,-22.36 280.11,-29.01 286.05,-32.71"/>
</a>
</g>
</g>
<!-- Node11&#45;&gt;Node3 -->
<g id="edge15_Node000011_Node000003" class="edge">
<title>Node11&#45;&gt;Node3</title>
<g id="a_edge15_Node000011_Node000003"><a xlink:title=" ">
<path fill="none" stroke="#63b8ff" d="M378.42,-113.37C363.39,-94.95 330.04,-54.09 310.42,-30.05"/>
<polygon fill="#63b8ff" stroke="#63b8ff" points="313.17,-27.88 304.14,-22.35 307.75,-32.31 313.17,-27.88"/>
</a>
</g>
</g>
<!-- Node12 -->
<g id="Node000012" class="node">
<title>Node12</title>
<g id="a_Node000012"><a xlink:href="assert_8h.html" target="_top" xlink:title="POSIX.1&#45;2008 compliant version of the assert macro.">
<polygon fill="white" stroke="#666666" points="413.68,-77.5 358.68,-77.5 358.68,-56.75 413.68,-56.75 413.68,-77.5"/>
<text text-anchor="middle" x="386.18" y="-64" font-family="Helvetica,sans-Serif" font-size="10.00">assert.h</text>
</a>
</g>
</g>
<!-- Node11&#45;&gt;Node12 -->
<g id="edge13_Node000011_Node000012" class="edge">
<title>Node11&#45;&gt;Node12</title>
<g id="a_edge13_Node000011_Node000012"><a xlink:title=" ">
<path fill="none" stroke="#63b8ff" d="M386.18,-113.09C386.18,-106.47 386.18,-97.47 386.18,-89.27"/>
<polygon fill="#63b8ff" stroke="#63b8ff" points="389.68,-89.34 386.18,-79.34 382.68,-89.34 389.68,-89.34"/>
</a>
</g>
</g>
<!-- Node12&#45;&gt;Node3 -->
<g id="edge14_Node000012_Node000003" class="edge">
<title>Node12&#45;&gt;Node3</title>
<g id="a_edge14_Node000012_Node000003"><a xlink:title=" ">
<path fill="none" stroke="#63b8ff" d="M369.91,-56.34C356.32,-48.16 336.71,-36.36 320.98,-26.9"/>
<polygon fill="#63b8ff" stroke="#63b8ff" points="322.98,-24.02 312.61,-21.86 319.37,-30.01 322.98,-24.02"/>
</a>
</g>
</g>
<!-- Node13&#45;&gt;Node3 -->
<g id="edge18_Node000013_Node000003" class="edge">
<title>Node13&#45;&gt;Node3</title>
<g id="a_edge18_Node000013_Node000003"><a xlink:title=" ">
<path fill="none" stroke="#63b8ff" d="M481.22,-113.44C470.32,-99.27 447.89,-72.49 423.18,-56.75 395.26,-38.96 359.45,-27.03 332.81,-19.89"/>
<polygon fill="#63b8ff" stroke="#63b8ff" points="334.03,-16.59 323.47,-17.49 332.29,-23.37 334.03,-16.59"/>
</a>
</g>
</g>
<!-- Node14 -->
<g id="Node000014" class="node">
<title>Node14</title>
<g id="a_Node000014"><a xlink:title=" ">
<polygon fill="#e0e0e0" stroke="#999999" points="525.68,-77.5 470.68,-77.5 470.68,-56.75 525.68,-56.75 525.68,-77.5"/>
<text text-anchor="middle" x="498.18" y="-64" font-family="Helvetica,sans-Serif" font-size="10.00">stddef.h</text>
</a>
</g>
</g>
<!-- Node13&#45;&gt;Node14 -->
<g id="edge17_Node000013_Node000014" class="edge">
<title>Node13&#45;&gt;Node14</title>
<g id="a_edge17_Node000013_Node000014"><a xlink:title=" ">
<path fill="none" stroke="#63b8ff" d="M489.97,-113.09C491.19,-106.39 492.86,-97.26 494.37,-88.98"/>
<polygon fill="#63b8ff" stroke="#63b8ff" points="497.78,-89.78 496.14,-79.32 490.9,-88.53 497.78,-89.78"/>
</a>
</g>
</g>
</g>
</svg>
