<?xml version="1.0" encoding="UTF-8" standalone="no"?>
<!DOCTYPE svg PUBLIC "-//W3C//DTD SVG 1.1//EN"
 "http://www.w3.org/Graphics/SVG/1.1/DTD/svg11.dtd">
<!-- Generated by graphviz version 12.1.2 (0)
 -->
<!-- Title: drivers/include/mrf24j40.h Pages: 1 -->
<svg width="1569pt" height="426pt"
 viewBox="0.00 0.00 1568.75 426.00" xmlns="http://www.w3.org/2000/svg" xmlns:xlink="http://www.w3.org/1999/xlink">
<g id="graph0" class="graph" transform="scale(1 1) rotate(0) translate(4 422)">
<title>drivers/include/mrf24j40.h</title>
<!-- Node1 -->
<g id="Node000001" class="node">
<title>Node1</title>
<g id="a_Node000001"><a xlink:title="Interface definition for MRF24J40 based drivers .">
<polygon fill="#999999" stroke="#666666" points="1013.5,-418 869.25,-418 869.25,-397.25 1013.5,-397.25 1013.5,-418"/>
<text text-anchor="middle" x="941.38" y="-404.5" font-family="Helvetica,sans-Serif" font-size="10.00">drivers/include/mrf24j40.h</text>
</a>
</g>
</g>
<!-- Node2 -->
<g id="Node000002" class="node">
<title>Node2</title>
<g id="a_Node000002"><a xlink:title=" ">
<polygon fill="#e0e0e0" stroke="#999999" points="886.75,-20.75 834,-20.75 834,0 886.75,0 886.75,-20.75"/>
<text text-anchor="middle" x="860.38" y="-7.25" font-family="Helvetica,sans-Serif" font-size="10.00">stdint.h</text>
</a>
</g>
</g>
<!-- Node1&#45;&gt;Node2 -->
<g id="edge1_Node000001_Node000002" class="edge">
<title>Node1&#45;&gt;Node2</title>
<g id="a_edge1_Node000001_Node000002"><a xlink:title=" ">
<path fill="none" stroke="#63b8ff" d="M1013.79,-406.59C1160.79,-404.56 1480.38,-389.31 1480.38,-295.12 1480.38,-295.12 1480.38,-295.12 1480.38,-122.88 1480.38,-63.42 1033.09,-24.53 898.34,-14.16"/>
<polygon fill="#63b8ff" stroke="#63b8ff" points="898.76,-10.68 888.52,-13.41 898.23,-17.66 898.76,-10.68"/>
</a>
</g>
</g>
<!-- Node3 -->
<g id="Node000003" class="node">
<title>Node3</title>
<g id="a_Node000003"><a xlink:title=" ">
<polygon fill="#e0e0e0" stroke="#999999" points="1560.75,-361.25 1508,-361.25 1508,-340.5 1560.75,-340.5 1560.75,-361.25"/>
<text text-anchor="middle" x="1534.38" y="-347.75" font-family="Helvetica,sans-Serif" font-size="10.00">board.h</text>
</a>
</g>
</g>
<!-- Node1&#45;&gt;Node3 -->
<g id="edge2_Node000001_Node000003" class="edge">
<title>Node1&#45;&gt;Node3</title>
<g id="a_edge2_Node000001_Node000003"><a xlink:title=" ">
<path fill="none" stroke="#63b8ff" d="M1013.81,-404.11C1119.84,-399.65 1323.33,-388.16 1494.38,-361.25 1495.19,-361.12 1496.02,-360.98 1496.85,-360.84"/>
<polygon fill="#63b8ff" stroke="#63b8ff" points="1497.18,-364.34 1506.32,-358.98 1495.83,-357.48 1497.18,-364.34"/>
</a>
</g>
</g>
<!-- Node4 -->
<g id="Node000004" class="node">
<title>Node4</title>
<g id="a_Node000004"><a xlink:href="spi_8h.html" target="_top" xlink:title="Low&#45;level SPI peripheral driver interface definition.">
<polygon fill="white" stroke="#666666" points="339.88,-191 266.88,-191 266.88,-170.25 339.88,-170.25 339.88,-191"/>
<text text-anchor="middle" x="303.38" y="-177.5" font-family="Helvetica,sans-Serif" font-size="10.00">periph/spi.h</text>
</a>
</g>
</g>
<!-- Node1&#45;&gt;Node4 -->
<g id="edge3_Node000001_Node000004" class="edge">
<title>Node1&#45;&gt;Node4</title>
<g id="a_edge3_Node000001_Node000004"><a xlink:title=" ">
<path fill="none" stroke="#63b8ff" d="M913.55,-396.81C811.78,-360.92 459.62,-236.73 341.98,-195.24"/>
<polygon fill="#63b8ff" stroke="#63b8ff" points="343.37,-192.02 332.77,-191.99 341.04,-198.62 343.37,-192.02"/>
</a>
</g>
</g>
<!-- Node11 -->
<g id="Node000011" class="node">
<title>Node11</title>
<g id="a_Node000011"><a xlink:href="drivers_2include_2periph_2gpio_8h.html" target="_top" xlink:title="Low&#45;level GPIO peripheral driver interface definitions.">
<polygon fill="white" stroke="#666666" points="161.25,-134.25 81.5,-134.25 81.5,-113.5 161.25,-113.5 161.25,-134.25"/>
<text text-anchor="middle" x="121.38" y="-120.75" font-family="Helvetica,sans-Serif" font-size="10.00">periph/gpio.h</text>
</a>
</g>
</g>
<!-- Node1&#45;&gt;Node11 -->
<g id="edge16_Node000001_Node000011" class="edge">
<title>Node1&#45;&gt;Node11</title>
<g id="a_edge16_Node000001_Node000011"><a xlink:title=" ">
<path fill="none" stroke="#63b8ff" d="M868.75,-403.55C678.54,-394.52 180.38,-364.27 180.38,-295.12 180.38,-295.12 180.38,-295.12 180.38,-236.38 180.38,-200.1 155.68,-164.09 138.24,-143.19"/>
<polygon fill="#63b8ff" stroke="#63b8ff" points="141.05,-141.09 131.85,-135.84 135.77,-145.68 141.05,-141.09"/>
</a>
</g>
</g>
<!-- Node13 -->
<g id="Node000013" class="node">
<title>Node13</title>
<g id="a_Node000013"><a xlink:href="drivers_2include_2net_2netdev_8h.html" target="_top" xlink:title="Definitions low&#45;level network driver interface.">
<polygon fill="white" stroke="#666666" points="819.75,-247.75 743,-247.75 743,-227 819.75,-227 819.75,-247.75"/>
<text text-anchor="middle" x="781.38" y="-234.25" font-family="Helvetica,sans-Serif" font-size="10.00">net/netdev.h</text>
</a>
</g>
</g>
<!-- Node1&#45;&gt;Node13 -->
<g id="edge17_Node000001_Node000013" class="edge">
<title>Node1&#45;&gt;Node13</title>
<g id="a_edge17_Node000001_Node000013"><a xlink:title=" ">
<path fill="none" stroke="#63b8ff" d="M919.74,-396.87C903.22,-388.78 880.47,-376.21 863.38,-361.25 829.42,-331.52 803.4,-284.61 790.45,-258.18"/>
<polygon fill="#63b8ff" stroke="#63b8ff" points="793.68,-256.81 786.23,-249.28 787.35,-259.82 793.68,-256.81"/>
</a>
</g>
</g>
<!-- Node22 -->
<g id="Node000022" class="node">
<title>Node22</title>
<g id="a_Node000022"><a xlink:href="drivers_2include_2net_2netdev_2ieee802154_8h.html" target="_top" xlink:title="Definitions for netdev common IEEE 802.15.4 code.">
<polygon fill="white" stroke="#666666" points="1010.12,-361.25 872.62,-361.25 872.62,-340.5 1010.12,-340.5 1010.12,-361.25"/>
<text text-anchor="middle" x="941.38" y="-347.75" font-family="Helvetica,sans-Serif" font-size="10.00">net/netdev/ieee802154.h</text>
</a>
</g>
</g>
<!-- Node1&#45;&gt;Node22 -->
<g id="edge35_Node000001_Node000022" class="edge">
<title>Node1&#45;&gt;Node22</title>
<g id="a_edge35_Node000001_Node000022"><a xlink:title=" ">
<path fill="none" stroke="#63b8ff" d="M941.38,-396.84C941.38,-390.22 941.38,-381.22 941.38,-373.02"/>
<polygon fill="#63b8ff" stroke="#63b8ff" points="944.88,-373.09 941.38,-363.09 937.88,-373.09 944.88,-373.09"/>
</a>
</g>
</g>
<!-- Node31 -->
<g id="Node000031" class="node">
<title>Node31</title>
<g id="a_Node000031"><a xlink:href="nettype_8h.html" target="_top" xlink:title="Protocol type definitions.">
<polygon fill="white" stroke="#666666" points="1232,-304.5 1126.75,-304.5 1126.75,-283.75 1232,-283.75 1232,-304.5"/>
<text text-anchor="middle" x="1179.38" y="-291" font-family="Helvetica,sans-Serif" font-size="10.00">net/gnrc/nettype.h</text>
</a>
</g>
</g>
<!-- Node1&#45;&gt;Node31 -->
<g id="edge62_Node000001_Node000031" class="edge">
<title>Node1&#45;&gt;Node31</title>
<g id="a_edge62_Node000001_Node000031"><a xlink:title=" ">
<path fill="none" stroke="#63b8ff" d="M962.08,-396.93C1003.93,-377.32 1098.78,-332.88 1148.17,-309.75"/>
<polygon fill="#63b8ff" stroke="#63b8ff" points="1149.61,-312.94 1157.18,-305.52 1146.64,-306.6 1149.61,-312.94"/>
</a>
</g>
</g>
<!-- Node4&#45;&gt;Node2 -->
<g id="edge9_Node000004_Node000002" class="edge">
<title>Node4&#45;&gt;Node2</title>
<g id="a_edge9_Node000004_Node000002"><a xlink:title=" ">
<path fill="none" stroke="#63b8ff" d="M302.56,-169.89C301.8,-156.7 301.64,-132.61 308.38,-113.5 318.55,-84.64 320.95,-72.18 347.38,-56.75 388.12,-32.96 710.38,-17.56 822.26,-12.88"/>
<polygon fill="#63b8ff" stroke="#63b8ff" points="822.27,-16.38 832.12,-12.47 821.99,-9.39 822.27,-16.38"/>
</a>
</g>
</g>
<!-- Node5 -->
<g id="Node000005" class="node">
<title>Node5</title>
<g id="a_Node000005"><a xlink:href="endian_8h.html" target="_top" xlink:title="libc header for endian conversion">
<polygon fill="white" stroke="#666666" points="861.38,-77.5 803.38,-77.5 803.38,-56.75 861.38,-56.75 861.38,-77.5"/>
<text text-anchor="middle" x="832.38" y="-64" font-family="Helvetica,sans-Serif" font-size="10.00">endian.h</text>
</a>
</g>
</g>
<!-- Node4&#45;&gt;Node5 -->
<g id="edge4_Node000004_Node000005" class="edge">
<title>Node4&#45;&gt;Node5</title>
<g id="a_edge4_Node000004_Node000005"><a xlink:title=" ">
<path fill="none" stroke="#63b8ff" d="M340.32,-179.58C437.8,-178.91 699.71,-173.41 775.38,-134.25 795.5,-123.83 811.56,-103.03 821.44,-87.53"/>
<polygon fill="#63b8ff" stroke="#63b8ff" points="824.33,-89.5 826.48,-79.13 818.33,-85.9 824.33,-89.5"/>
</a>
</g>
</g>
<!-- Node6 -->
<g id="Node000006" class="node">
<title>Node6</title>
<g id="a_Node000006"><a xlink:href="errno_8h.html" target="_top" xlink:title=" ">
<polygon fill="white" stroke="#666666" points="381.62,-134.25 331.12,-134.25 331.12,-113.5 381.62,-113.5 381.62,-134.25"/>
<text text-anchor="middle" x="356.38" y="-120.75" font-family="Helvetica,sans-Serif" font-size="10.00">errno.h</text>
</a>
</g>
</g>
<!-- Node4&#45;&gt;Node6 -->
<g id="edge6_Node000004_Node000006" class="edge">
<title>Node4&#45;&gt;Node6</title>
<g id="a_edge6_Node000004_Node000006"><a xlink:title=" ">
<path fill="none" stroke="#63b8ff" d="M312.85,-169.84C320.16,-162.28 330.47,-151.64 339.22,-142.6"/>
<polygon fill="#63b8ff" stroke="#63b8ff" points="341.49,-145.29 345.93,-135.67 336.46,-140.42 341.49,-145.29"/>
</a>
</g>
</g>
<!-- Node7 -->
<g id="Node000007" class="node">
<title>Node7</title>
<g id="a_Node000007"><a xlink:title=" ">
<polygon fill="#e0e0e0" stroke="#999999" points="549.88,-134.25 488.88,-134.25 488.88,-113.5 549.88,-113.5 549.88,-134.25"/>
<text text-anchor="middle" x="519.38" y="-120.75" font-family="Helvetica,sans-Serif" font-size="10.00">stdbool.h</text>
</a>
</g>
</g>
<!-- Node4&#45;&gt;Node7 -->
<g id="edge7_Node000004_Node000007" class="edge">
<title>Node4&#45;&gt;Node7</title>
<g id="a_edge7_Node000004_Node000007"><a xlink:title=" ">
<path fill="none" stroke="#63b8ff" d="M340.02,-170.34C378.11,-160.68 437.65,-145.59 477.56,-135.47"/>
<polygon fill="#63b8ff" stroke="#63b8ff" points="478.21,-138.92 487.04,-133.07 476.49,-132.13 478.21,-138.92"/>
</a>
</g>
</g>
<!-- Node8 -->
<g id="Node000008" class="node">
<title>Node8</title>
<g id="a_Node000008"><a xlink:title=" ">
<polygon fill="#e0e0e0" stroke="#999999" points="411.88,-77.5 356.88,-77.5 356.88,-56.75 411.88,-56.75 411.88,-77.5"/>
<text text-anchor="middle" x="384.38" y="-64" font-family="Helvetica,sans-Serif" font-size="10.00">stddef.h</text>
</a>
</g>
</g>
<!-- Node4&#45;&gt;Node8 -->
<g id="edge8_Node000004_Node000008" class="edge">
<title>Node4&#45;&gt;Node8</title>
<g id="a_edge8_Node000004_Node000008"><a xlink:title=" ">
<path fill="none" stroke="#63b8ff" d="M304.2,-169.81C305.77,-156.09 310.21,-130.93 322.38,-113.5 330.84,-101.37 343.62,-91.23 355.37,-83.63"/>
<polygon fill="#63b8ff" stroke="#63b8ff" points="356.86,-86.83 363.6,-78.65 353.23,-80.84 356.86,-86.83"/>
</a>
</g>
</g>
<!-- Node9 -->
<g id="Node000009" class="node">
<title>Node9</title>
<g id="a_Node000009"><a xlink:title=" ">
<polygon fill="#e0e0e0" stroke="#999999" points="149.5,-77.5 71.25,-77.5 71.25,-56.75 149.5,-56.75 149.5,-77.5"/>
<text text-anchor="middle" x="110.38" y="-64" font-family="Helvetica,sans-Serif" font-size="10.00">periph_cpu.h</text>
</a>
</g>
</g>
<!-- Node4&#45;&gt;Node9 -->
<g id="edge10_Node000004_Node000009" class="edge">
<title>Node4&#45;&gt;Node9</title>
<g id="a_edge10_Node000004_Node000009"><a xlink:title=" ">
<path fill="none" stroke="#63b8ff" d="M286.59,-169.93C253.08,-150.57 177.67,-107 137.22,-83.63"/>
<polygon fill="#63b8ff" stroke="#63b8ff" points="138.98,-80.61 128.57,-78.64 135.48,-86.67 138.98,-80.61"/>
</a>
</g>
</g>
<!-- Node10 -->
<g id="Node000010" class="node">
<title>Node10</title>
<g id="a_Node000010"><a xlink:title=" ">
<polygon fill="#e0e0e0" stroke="#999999" points="249,-77.5 167.75,-77.5 167.75,-56.75 249,-56.75 249,-77.5"/>
<text text-anchor="middle" x="208.38" y="-64" font-family="Helvetica,sans-Serif" font-size="10.00">periph_conf.h</text>
</a>
</g>
</g>
<!-- Node4&#45;&gt;Node10 -->
<g id="edge11_Node000004_Node000010" class="edge">
<title>Node4&#45;&gt;Node10</title>
<g id="a_edge11_Node000004_Node000010"><a xlink:title=" ">
<path fill="none" stroke="#63b8ff" d="M290.51,-170.05C279.41,-161.42 263.31,-148 251.38,-134.25 238.77,-119.73 227.05,-101.23 219.04,-87.5"/>
<polygon fill="#63b8ff" stroke="#63b8ff" points="222.19,-85.96 214.21,-78.99 216.1,-89.42 222.19,-85.96"/>
</a>
</g>
</g>
<!-- Node4&#45;&gt;Node11 -->
<g id="edge12_Node000004_Node000011" class="edge">
<title>Node4&#45;&gt;Node11</title>
<g id="a_edge12_Node000004_Node000011"><a xlink:title=" ">
<path fill="none" stroke="#63b8ff" d="M270.84,-169.84C241.29,-160.95 197.5,-147.77 164.94,-137.98"/>
<polygon fill="#63b8ff" stroke="#63b8ff" points="165.97,-134.64 155.39,-135.11 163.95,-141.34 165.97,-134.64"/>
</a>
</g>
</g>
<!-- Node5&#45;&gt;Node2 -->
<g id="edge5_Node000005_Node000002" class="edge">
<title>Node5&#45;&gt;Node2</title>
<g id="a_edge5_Node000005_Node000002"><a xlink:title=" ">
<path fill="none" stroke="#63b8ff" d="M837.38,-56.34C840.96,-49.33 845.91,-39.66 850.3,-31.08"/>
<polygon fill="#63b8ff" stroke="#63b8ff" points="853.29,-32.92 854.72,-22.43 847.05,-29.74 853.29,-32.92"/>
</a>
</g>
</g>
<!-- Node11&#45;&gt;Node9 -->
<g id="edge14_Node000011_Node000009" class="edge">
<title>Node11&#45;&gt;Node9</title>
<g id="a_edge14_Node000011_Node000009"><a xlink:title=" ">
<path fill="none" stroke="#63b8ff" d="M119.41,-113.09C118.06,-106.39 116.23,-97.26 114.56,-88.98"/>
<polygon fill="#63b8ff" stroke="#63b8ff" points="118.02,-88.43 112.62,-79.31 111.16,-89.81 118.02,-88.43"/>
</a>
</g>
</g>
<!-- Node11&#45;&gt;Node10 -->
<g id="edge15_Node000011_Node000010" class="edge">
<title>Node11&#45;&gt;Node10</title>
<g id="a_edge15_Node000011_Node000010"><a xlink:title=" ">
<path fill="none" stroke="#63b8ff" d="M136.93,-113.09C149.8,-104.99 168.32,-93.33 183.28,-83.92"/>
<polygon fill="#63b8ff" stroke="#63b8ff" points="185.08,-86.92 191.67,-78.63 181.35,-81 185.08,-86.92"/>
</a>
</g>
</g>
<!-- Node12 -->
<g id="Node000012" class="node">
<title>Node12</title>
<g id="a_Node000012"><a xlink:title=" ">
<polygon fill="#e0e0e0" stroke="#999999" points="52.75,-77.5 0,-77.5 0,-56.75 52.75,-56.75 52.75,-77.5"/>
<text text-anchor="middle" x="26.38" y="-64" font-family="Helvetica,sans-Serif" font-size="10.00">limits.h</text>
</a>
</g>
</g>
<!-- Node11&#45;&gt;Node12 -->
<g id="edge13_Node000011_Node000012" class="edge">
<title>Node11&#45;&gt;Node12</title>
<g id="a_edge13_Node000011_Node000012"><a xlink:title=" ">
<path fill="none" stroke="#63b8ff" d="M104.39,-113.09C90.07,-104.83 69.33,-92.88 52.84,-83.38"/>
<polygon fill="#63b8ff" stroke="#63b8ff" points="54.94,-80.55 44.52,-78.58 51.44,-86.61 54.94,-80.55"/>
</a>
</g>
</g>
<!-- Node13&#45;&gt;Node2 -->
<g id="edge18_Node000013_Node000002" class="edge">
<title>Node13&#45;&gt;Node2</title>
<g id="a_edge18_Node000013_Node000002"><a xlink:title=" ">
<path fill="none" stroke="#63b8ff" d="M771.21,-226.89C759.1,-214.37 741.32,-191.43 748.38,-170.25 754.7,-151.28 766.82,-152.33 775.38,-134.25 790.54,-102.19 774.22,-85.93 794.38,-56.75 803.04,-44.2 816.4,-34.08 828.83,-26.6"/>
<polygon fill="#63b8ff" stroke="#63b8ff" points="830.17,-29.86 837.18,-21.92 826.75,-23.76 830.17,-29.86"/>
</a>
</g>
</g>
<!-- Node13&#45;&gt;Node6 -->
<g id="edge19_Node000013_Node000006" class="edge">
<title>Node13&#45;&gt;Node6</title>
<g id="a_edge19_Node000013_Node000006"><a xlink:title=" ">
<path fill="none" stroke="#63b8ff" d="M742.82,-227.33C705.14,-218.41 646.2,-204.23 595.38,-191 523.4,-172.27 439.73,-148.71 392.92,-135.36"/>
<polygon fill="#63b8ff" stroke="#63b8ff" points="394.16,-132.07 383.58,-132.69 392.23,-138.8 394.16,-132.07"/>
</a>
</g>
</g>
<!-- Node14 -->
<g id="Node000014" class="node">
<title>Node14</title>
<g id="a_Node000014"><a xlink:href="iolist_8h.html" target="_top" xlink:title="iolist scatter / gather IO">
<polygon fill="white" stroke="#666666" points="805.88,-191 756.88,-191 756.88,-170.25 805.88,-170.25 805.88,-191"/>
<text text-anchor="middle" x="781.38" y="-177.5" font-family="Helvetica,sans-Serif" font-size="10.00">iolist.h</text>
</a>
</g>
</g>
<!-- Node13&#45;&gt;Node14 -->
<g id="edge20_Node000013_Node000014" class="edge">
<title>Node13&#45;&gt;Node14</title>
<g id="a_edge20_Node000013_Node000014"><a xlink:title=" ">
<path fill="none" stroke="#63b8ff" d="M781.38,-226.59C781.38,-219.97 781.38,-210.97 781.38,-202.77"/>
<polygon fill="#63b8ff" stroke="#63b8ff" points="784.88,-202.84 781.38,-192.84 777.88,-202.84 784.88,-202.84"/>
</a>
</g>
</g>
<!-- Node15 -->
<g id="Node000015" class="node">
<title>Node15</title>
<g id="a_Node000015"><a xlink:href="netopt_8h.html" target="_top" xlink:title="Definition of global configuration options.">
<polygon fill="white" stroke="#666666" points="899,-191 823.75,-191 823.75,-170.25 899,-170.25 899,-191"/>
<text text-anchor="middle" x="861.38" y="-177.5" font-family="Helvetica,sans-Serif" font-size="10.00">net/netopt.h</text>
</a>
</g>
</g>
<!-- Node13&#45;&gt;Node15 -->
<g id="edge21_Node000013_Node000015" class="edge">
<title>Node13&#45;&gt;Node15</title>
<g id="a_edge21_Node000013_Node000015"><a xlink:title=" ">
<path fill="none" stroke="#63b8ff" d="M795.68,-226.59C807.39,-218.57 824.21,-207.06 837.9,-197.69"/>
<polygon fill="#63b8ff" stroke="#63b8ff" points="839.67,-200.72 845.95,-192.18 835.72,-194.94 839.67,-200.72"/>
</a>
</g>
</g>
<!-- Node16 -->
<g id="Node000016" class="node">
<title>Node16</title>
<g id="a_Node000016"><a xlink:href="kernel__defines_8h.html" target="_top" xlink:title="Common macros and compiler attributes/pragmas configuration.">
<polygon fill="white" stroke="#666666" points="700.5,-191 604.25,-191 604.25,-170.25 700.5,-170.25 700.5,-191"/>
<text text-anchor="middle" x="652.38" y="-177.5" font-family="Helvetica,sans-Serif" font-size="10.00">kernel_defines.h</text>
</a>
</g>
</g>
<!-- Node13&#45;&gt;Node16 -->
<g id="edge24_Node000013_Node000016" class="edge">
<title>Node13&#45;&gt;Node16</title>
<g id="a_edge24_Node000013_Node000016"><a xlink:title=" ">
<path fill="none" stroke="#63b8ff" d="M758.31,-226.59C738.13,-218.02 708.57,-205.48 685.8,-195.81"/>
<polygon fill="#63b8ff" stroke="#63b8ff" points="687.2,-192.6 676.63,-191.92 684.47,-199.05 687.2,-192.6"/>
</a>
</g>
</g>
<!-- Node15&#45;&gt;Node2 -->
<g id="edge22_Node000015_Node000002" class="edge">
<title>Node15&#45;&gt;Node2</title>
<g id="a_edge22_Node000015_Node000002"><a xlink:title=" ">
<path fill="none" stroke="#63b8ff" d="M863.26,-170.04C867.07,-149.33 874.96,-98.85 870.38,-56.75 869.48,-48.54 867.7,-39.64 865.89,-31.92"/>
<polygon fill="#63b8ff" stroke="#63b8ff" points="869.35,-31.32 863.51,-22.48 862.56,-33.03 869.35,-31.32"/>
</a>
</g>
</g>
<!-- Node15&#45;&gt;Node7 -->
<g id="edge23_Node000015_Node000007" class="edge">
<title>Node15&#45;&gt;Node7</title>
<g id="a_edge23_Node000015_Node000007"><a xlink:title=" ">
<path fill="none" stroke="#63b8ff" d="M823.26,-171.67C820.59,-171.17 817.95,-170.69 815.38,-170.25 705.68,-151.38 674.26,-155.12 561.5,-134.49"/>
<polygon fill="#63b8ff" stroke="#63b8ff" points="562.28,-131.08 551.81,-132.7 561.01,-137.96 562.28,-131.08"/>
</a>
</g>
</g>
<!-- Node17 -->
<g id="Node000017" class="node">
<title>Node17</title>
<g id="a_Node000017"><a xlink:href="modules_8h.html" target="_top" xlink:title="Common macros and compiler attributes/pragmas configuration.">
<polygon fill="white" stroke="#666666" points="1174.88,-134.25 1107.88,-134.25 1107.88,-113.5 1174.88,-113.5 1174.88,-134.25"/>
<text text-anchor="middle" x="1141.38" y="-120.75" font-family="Helvetica,sans-Serif" font-size="10.00">modules.h</text>
</a>
</g>
</g>
<!-- Node16&#45;&gt;Node17 -->
<g id="edge25_Node000016_Node000017" class="edge">
<title>Node16&#45;&gt;Node17</title>
<g id="a_edge25_Node000016_Node000017"><a xlink:title=" ">
<path fill="none" stroke="#63b8ff" d="M700.99,-174.72C806.28,-164.08 1048.94,-139.39 1086.38,-134.25 1089.57,-133.81 1092.86,-133.33 1096.17,-132.82"/>
<polygon fill="#63b8ff" stroke="#63b8ff" points="1096.58,-136.3 1105.9,-131.26 1095.47,-129.39 1096.58,-136.3"/>
</a>
</g>
</g>
<!-- Node18 -->
<g id="Node000018" class="node">
<title>Node18</title>
<g id="a_Node000018"><a xlink:href="riot__version_8h.html" target="_top" xlink:title="Common macros and compiler attributes/pragmas configuration.">
<polygon fill="white" stroke="#666666" points="650.75,-134.25 568,-134.25 568,-113.5 650.75,-113.5 650.75,-134.25"/>
<text text-anchor="middle" x="609.38" y="-120.75" font-family="Helvetica,sans-Serif" font-size="10.00">riot_version.h</text>
</a>
</g>
</g>
<!-- Node16&#45;&gt;Node18 -->
<g id="edge26_Node000016_Node000018" class="edge">
<title>Node16&#45;&gt;Node18</title>
<g id="a_edge26_Node000016_Node000018"><a xlink:title=" ">
<path fill="none" stroke="#63b8ff" d="M644.69,-169.84C638.94,-162.52 630.91,-152.29 623.96,-143.44"/>
<polygon fill="#63b8ff" stroke="#63b8ff" points="626.86,-141.47 617.93,-135.77 621.35,-145.8 626.86,-141.47"/>
</a>
</g>
</g>
<!-- Node19 -->
<g id="Node000019" class="node">
<title>Node19</title>
<g id="a_Node000019"><a xlink:href="compiler__hints_8h.html" target="_top" xlink:title="Common macros and compiler attributes/pragmas configuration.">
<polygon fill="white" stroke="#666666" points="765.88,-134.25 668.88,-134.25 668.88,-113.5 765.88,-113.5 765.88,-134.25"/>
<text text-anchor="middle" x="717.38" y="-120.75" font-family="Helvetica,sans-Serif" font-size="10.00">compiler_hints.h</text>
</a>
</g>
</g>
<!-- Node16&#45;&gt;Node19 -->
<g id="edge28_Node000016_Node000019" class="edge">
<title>Node16&#45;&gt;Node19</title>
<g id="a_edge28_Node000016_Node000019"><a xlink:title=" ">
<path fill="none" stroke="#63b8ff" d="M664,-169.84C673.24,-162.05 686.39,-150.97 697.32,-141.76"/>
<polygon fill="#63b8ff" stroke="#63b8ff" points="699.3,-144.67 704.7,-135.55 694.79,-139.32 699.3,-144.67"/>
</a>
</g>
</g>
<!-- Node21 -->
<g id="Node000021" class="node">
<title>Node21</title>
<g id="a_Node000021"><a xlink:href="container_8h.html" target="_top" xlink:title="Common macros and compiler attributes/pragmas configuration.">
<polygon fill="white" stroke="#666666" points="470.75,-134.25 400,-134.25 400,-113.5 470.75,-113.5 470.75,-134.25"/>
<text text-anchor="middle" x="435.38" y="-120.75" font-family="Helvetica,sans-Serif" font-size="10.00">container.h</text>
</a>
</g>
</g>
<!-- Node16&#45;&gt;Node21 -->
<g id="edge32_Node000016_Node000021" class="edge">
<title>Node16&#45;&gt;Node21</title>
<g id="a_edge32_Node000016_Node000021"><a xlink:title=" ">
<path fill="none" stroke="#63b8ff" d="M613.33,-169.77C576.57,-160.5 521.46,-146.59 482.32,-136.72"/>
<polygon fill="#63b8ff" stroke="#63b8ff" points="483.25,-133.34 472.69,-134.29 481.53,-140.13 483.25,-133.34"/>
</a>
</g>
</g>
<!-- Node18&#45;&gt;Node2 -->
<g id="edge27_Node000018_Node000002" class="edge">
<title>Node18&#45;&gt;Node2</title>
<g id="a_edge27_Node000018_Node000002"><a xlink:title=" ">
<path fill="none" stroke="#63b8ff" d="M611.88,-113.06C616.15,-98.39 626.3,-70.96 645.38,-56.75 673.02,-36.16 768.8,-22.03 822.72,-15.5"/>
<polygon fill="#63b8ff" stroke="#63b8ff" points="822.85,-19 832.37,-14.36 822.03,-12.05 822.85,-19"/>
</a>
</g>
</g>
<!-- Node19&#45;&gt;Node2 -->
<g id="edge31_Node000019_Node000002" class="edge">
<title>Node19&#45;&gt;Node2</title>
<g id="a_edge31_Node000019_Node000002"><a xlink:title=" ">
<path fill="none" stroke="#63b8ff" d="M721.72,-113.11C728.41,-99.01 742.5,-72.87 761.38,-56.75 779.25,-41.49 803.1,-30.35 822.92,-22.93"/>
<polygon fill="#63b8ff" stroke="#63b8ff" points="824.07,-26.24 832.32,-19.59 821.72,-19.64 824.07,-26.24"/>
</a>
</g>
</g>
<!-- Node20 -->
<g id="Node000020" class="node">
<title>Node20</title>
<g id="a_Node000020"><a xlink:href="assert_8h.html" target="_top" xlink:title="POSIX.1&#45;2008 compliant version of the assert macro.">
<polygon fill="white" stroke="#666666" points="708.88,-77.5 653.88,-77.5 653.88,-56.75 708.88,-56.75 708.88,-77.5"/>
<text text-anchor="middle" x="681.38" y="-64" font-family="Helvetica,sans-Serif" font-size="10.00">assert.h</text>
</a>
</g>
</g>
<!-- Node19&#45;&gt;Node20 -->
<g id="edge29_Node000019_Node000020" class="edge">
<title>Node19&#45;&gt;Node20</title>
<g id="a_edge29_Node000019_Node000020"><a xlink:title=" ">
<path fill="none" stroke="#63b8ff" d="M710.94,-113.09C706.23,-105.92 699.69,-95.98 693.96,-87.26"/>
<polygon fill="#63b8ff" stroke="#63b8ff" points="697.01,-85.53 688.59,-79.09 691.16,-89.37 697.01,-85.53"/>
</a>
</g>
</g>
<!-- Node20&#45;&gt;Node2 -->
<g id="edge30_Node000020_Node000002" class="edge">
<title>Node20&#45;&gt;Node2</title>
<g id="a_edge30_Node000020_Node000002"><a xlink:title=" ">
<path fill="none" stroke="#63b8ff" d="M709.34,-57.57C739.91,-48.22 789.03,-33.2 822.91,-22.83"/>
<polygon fill="#63b8ff" stroke="#63b8ff" points="823.78,-26.23 832.32,-19.96 821.74,-19.53 823.78,-26.23"/>
</a>
</g>
</g>
<!-- Node21&#45;&gt;Node2 -->
<g id="edge34_Node000021_Node000002" class="edge">
<title>Node21&#45;&gt;Node2</title>
<g id="a_edge34_Node000021_Node000002"><a xlink:title=" ">
<path fill="none" stroke="#63b8ff" d="M459.78,-113.04C495.45,-98.96 564.13,-72.99 624.38,-56.75 693.27,-38.18 775.43,-24.17 822.39,-16.92"/>
<polygon fill="#63b8ff" stroke="#63b8ff" points="822.69,-20.41 832.04,-15.45 821.63,-13.49 822.69,-20.41"/>
</a>
</g>
</g>
<!-- Node21&#45;&gt;Node8 -->
<g id="edge33_Node000021_Node000008" class="edge">
<title>Node21&#45;&gt;Node8</title>
<g id="a_edge33_Node000021_Node000008"><a xlink:title=" ">
<path fill="none" stroke="#63b8ff" d="M426.26,-113.09C419.29,-105.61 409.51,-95.11 401.14,-86.13"/>
<polygon fill="#63b8ff" stroke="#63b8ff" points="403.82,-83.87 394.45,-78.94 398.7,-88.64 403.82,-83.87"/>
</a>
</g>
</g>
<!-- Node22&#45;&gt;Node13 -->
<g id="edge61_Node000022_Node000013" class="edge">
<title>Node22&#45;&gt;Node13</title>
<g id="a_edge61_Node000022_Node000013"><a xlink:title=" ">
<path fill="none" stroke="#63b8ff" d="M915.35,-340.1C895.73,-332.09 868.64,-319.62 847.38,-304.5 827.86,-290.62 808.9,-270.76 796.34,-256.42"/>
<polygon fill="#63b8ff" stroke="#63b8ff" points="799.22,-254.4 790.06,-249.08 793.9,-258.95 799.22,-254.4"/>
</a>
</g>
</g>
<!-- Node22&#45;&gt;Node15 -->
<g id="edge60_Node000022_Node000015" class="edge">
<title>Node22&#45;&gt;Node15</title>
<g id="a_edge60_Node000022_Node000015"><a xlink:title=" ">
<path fill="none" stroke="#63b8ff" d="M921.03,-340.12C907.26,-332.41 889.91,-320.33 880.38,-304.5 861.31,-272.87 859.24,-228.63 859.97,-202.77"/>
<polygon fill="#63b8ff" stroke="#63b8ff" points="863.46,-203.05 860.43,-192.9 856.47,-202.72 863.46,-203.05"/>
</a>
</g>
</g>
<!-- Node23 -->
<g id="Node000023" class="node">
<title>Node23</title>
<g id="a_Node000023"><a xlink:href="eui__provider_8h.html" target="_top" xlink:title="EUI&#45;48 and EUI&#45;64 address provider.">
<polygon fill="white" stroke="#666666" points="993.62,-304.5 889.12,-304.5 889.12,-283.75 993.62,-283.75 993.62,-304.5"/>
<text text-anchor="middle" x="941.38" y="-291" font-family="Helvetica,sans-Serif" font-size="10.00">net/eui_provider.h</text>
</a>
</g>
</g>
<!-- Node22&#45;&gt;Node23 -->
<g id="edge36_Node000022_Node000023" class="edge">
<title>Node22&#45;&gt;Node23</title>
<g id="a_edge36_Node000022_Node000023"><a xlink:title=" ">
<path fill="none" stroke="#63b8ff" d="M941.38,-340.09C941.38,-333.47 941.38,-324.47 941.38,-316.27"/>
<polygon fill="#63b8ff" stroke="#63b8ff" points="944.88,-316.34 941.38,-306.34 937.88,-316.34 944.88,-316.34"/>
</a>
</g>
</g>
<!-- Node29 -->
<g id="Node000029" class="node">
<title>Node29</title>
<g id="a_Node000029"><a xlink:href="sys_2include_2net_2ieee802154_8h.html" target="_top" xlink:title="IEEE 802.15.4 header definitions.">
<polygon fill="white" stroke="#666666" points="1119.75,-247.75 1019,-247.75 1019,-227 1119.75,-227 1119.75,-247.75"/>
<text text-anchor="middle" x="1069.38" y="-234.25" font-family="Helvetica,sans-Serif" font-size="10.00">net/ieee802154.h</text>
</a>
</g>
</g>
<!-- Node22&#45;&gt;Node29 -->
<g id="edge49_Node000022_Node000029" class="edge">
<title>Node22&#45;&gt;Node29</title>
<g id="a_edge49_Node000022_Node000029"><a xlink:title=" ">
<path fill="none" stroke="#63b8ff" d="M955.36,-340.31C968.01,-331.47 986.95,-317.74 1002.38,-304.5 1020.28,-289.13 1039.3,-270.07 1052.48,-256.36"/>
<polygon fill="#63b8ff" stroke="#63b8ff" points="1054.83,-258.98 1059.19,-249.32 1049.76,-254.15 1054.83,-258.98"/>
</a>
</g>
</g>
<!-- Node22&#45;&gt;Node31 -->
<g id="edge55_Node000022_Node000031" class="edge">
<title>Node22&#45;&gt;Node31</title>
<g id="a_edge55_Node000022_Node000031"><a xlink:title=" ">
<path fill="none" stroke="#63b8ff" d="M984.2,-340.02C1023.76,-330.92 1082.69,-317.37 1125.45,-307.53"/>
<polygon fill="#63b8ff" stroke="#63b8ff" points="1126.06,-310.98 1135.02,-305.33 1124.49,-304.16 1126.06,-310.98"/>
</a>
</g>
</g>
<!-- Node23&#45;&gt;Node13 -->
<g id="edge48_Node000023_Node000013" class="edge">
<title>Node23&#45;&gt;Node13</title>
<g id="a_edge48_Node000023_Node000013"><a xlink:title=" ">
<path fill="none" stroke="#63b8ff" d="M912.77,-283.34C887.14,-274.57 849.3,-261.62 820.81,-251.87"/>
<polygon fill="#63b8ff" stroke="#63b8ff" points="822.03,-248.59 811.43,-248.66 819.76,-255.21 822.03,-248.59"/>
</a>
</g>
</g>
<!-- Node24 -->
<g id="Node000024" class="node">
<title>Node24</title>
<g id="a_Node000024"><a xlink:href="eui48_8h.html" target="_top" xlink:title="Definition and IPv6 IID conversion for IEEE EUI&#45;48 identifiers.">
<polygon fill="white" stroke="#666666" points="962.75,-247.75 892,-247.75 892,-227 962.75,-227 962.75,-247.75"/>
<text text-anchor="middle" x="927.38" y="-234.25" font-family="Helvetica,sans-Serif" font-size="10.00">net/eui48.h</text>
</a>
</g>
</g>
<!-- Node23&#45;&gt;Node24 -->
<g id="edge37_Node000023_Node000024" class="edge">
<title>Node23&#45;&gt;Node24</title>
<g id="a_edge37_Node000023_Node000024"><a xlink:title=" ">
<path fill="none" stroke="#63b8ff" d="M938.87,-283.34C937.16,-276.64 934.83,-267.51 932.71,-259.23"/>
<polygon fill="#63b8ff" stroke="#63b8ff" points="936.1,-258.37 930.23,-249.54 929.32,-260.1 936.1,-258.37"/>
</a>
</g>
</g>
<!-- Node25 -->
<g id="Node000025" class="node">
<title>Node25</title>
<g id="a_Node000025"><a xlink:href="eui64_8h.html" target="_top" xlink:title="EUI&#45;64 data type definition.">
<polygon fill="white" stroke="#666666" points="1025.75,-191 955,-191 955,-170.25 1025.75,-170.25 1025.75,-191"/>
<text text-anchor="middle" x="990.38" y="-177.5" font-family="Helvetica,sans-Serif" font-size="10.00">net/eui64.h</text>
</a>
</g>
</g>
<!-- Node23&#45;&gt;Node25 -->
<g id="edge47_Node000023_Node000025" class="edge">
<title>Node23&#45;&gt;Node25</title>
<g id="a_edge47_Node000023_Node000025"><a xlink:title=" ">
<path fill="none" stroke="#63b8ff" d="M948.97,-283.55C955.67,-274.69 965.29,-260.96 971.38,-247.75 978.11,-233.13 983.02,-215.58 986.16,-202.24"/>
<polygon fill="#63b8ff" stroke="#63b8ff" points="989.5,-203.36 988.22,-192.85 982.66,-201.86 989.5,-203.36"/>
</a>
</g>
</g>
<!-- Node24&#45;&gt;Node2 -->
<g id="edge38_Node000024_Node000002" class="edge">
<title>Node24&#45;&gt;Node2</title>
<g id="a_edge38_Node000024_Node000002"><a xlink:title=" ">
<path fill="none" stroke="#63b8ff" d="M926.07,-226.75C922.18,-199.42 909.37,-119.24 885.38,-56.75 881.96,-47.86 877.1,-38.56 872.56,-30.71"/>
<polygon fill="#63b8ff" stroke="#63b8ff" points="875.7,-29.14 867.54,-22.38 869.7,-32.75 875.7,-29.14"/>
</a>
</g>
</g>
<!-- Node24&#45;&gt;Node25 -->
<g id="edge39_Node000024_Node000025" class="edge">
<title>Node24&#45;&gt;Node25</title>
<g id="a_edge39_Node000024_Node000025"><a xlink:title=" ">
<path fill="none" stroke="#63b8ff" d="M938.64,-226.59C947.51,-218.88 960.09,-207.95 970.62,-198.79"/>
<polygon fill="#63b8ff" stroke="#63b8ff" points="972.81,-201.52 978.07,-192.32 968.22,-196.24 972.81,-201.52"/>
</a>
</g>
</g>
<!-- Node25&#45;&gt;Node2 -->
<g id="edge40_Node000025_Node000002" class="edge">
<title>Node25&#45;&gt;Node2</title>
<g id="a_edge40_Node000025_Node000002"><a xlink:title=" ">
<path fill="none" stroke="#63b8ff" d="M988.78,-169.85C984.66,-147.41 971.81,-91.46 941.38,-56.75 929.55,-43.26 912.69,-32.92 897.42,-25.55"/>
<polygon fill="#63b8ff" stroke="#63b8ff" points="899.11,-22.47 888.55,-21.53 896.22,-28.85 899.11,-22.47"/>
</a>
</g>
</g>
<!-- Node26 -->
<g id="Node000026" class="node">
<title>Node26</title>
<g id="a_Node000026"><a xlink:href="byteorder_8h.html" target="_top" xlink:title="Functions to work with different byte orders.">
<polygon fill="white" stroke="#666666" points="1077.5,-134.25 1005.25,-134.25 1005.25,-113.5 1077.5,-113.5 1077.5,-134.25"/>
<text text-anchor="middle" x="1041.38" y="-120.75" font-family="Helvetica,sans-Serif" font-size="10.00">byteorder.h</text>
</a>
</g>
</g>
<!-- Node25&#45;&gt;Node26 -->
<g id="edge41_Node000025_Node000026" class="edge">
<title>Node25&#45;&gt;Node26</title>
<g id="a_edge41_Node000025_Node000026"><a xlink:title=" ">
<path fill="none" stroke="#63b8ff" d="M999.49,-169.84C1006.46,-162.36 1016.24,-151.86 1024.61,-142.88"/>
<polygon fill="#63b8ff" stroke="#63b8ff" points="1027.05,-145.39 1031.3,-135.69 1021.93,-140.62 1027.05,-145.39"/>
</a>
</g>
</g>
<!-- Node26&#45;&gt;Node2 -->
<g id="edge43_Node000026_Node000002" class="edge">
<title>Node26&#45;&gt;Node2</title>
<g id="a_edge43_Node000026_Node000002"><a xlink:title=" ">
<path fill="none" stroke="#63b8ff" d="M1034.45,-113.02C1023.99,-98.81 1002.9,-72.53 979.38,-56.75 954.49,-40.05 922.6,-28.32 898.1,-20.97"/>
<polygon fill="#63b8ff" stroke="#63b8ff" points="899.1,-17.62 888.52,-18.22 897.17,-24.35 899.1,-17.62"/>
</a>
</g>
</g>
<!-- Node26&#45;&gt;Node5 -->
<g id="edge44_Node000026_Node000005" class="edge">
<title>Node26&#45;&gt;Node5</title>
<g id="a_edge44_Node000026_Node000005"><a xlink:title=" ">
<path fill="none" stroke="#63b8ff" d="M1004.97,-113.34C967.93,-103.63 910.66,-88.63 872.37,-78.6"/>
<polygon fill="#63b8ff" stroke="#63b8ff" points="873.65,-75.32 863.09,-76.17 871.88,-82.09 873.65,-75.32"/>
</a>
</g>
</g>
<!-- Node27 -->
<g id="Node000027" class="node">
<title>Node27</title>
<g id="a_Node000027"><a xlink:title=" ">
<polygon fill="#e0e0e0" stroke="#999999" points="1083.75,-77.5 1031,-77.5 1031,-56.75 1083.75,-56.75 1083.75,-77.5"/>
<text text-anchor="middle" x="1057.38" y="-64" font-family="Helvetica,sans-Serif" font-size="10.00">string.h</text>
</a>
</g>
</g>
<!-- Node26&#45;&gt;Node27 -->
<g id="edge42_Node000026_Node000027" class="edge">
<title>Node26&#45;&gt;Node27</title>
<g id="a_edge42_Node000026_Node000027"><a xlink:title=" ">
<path fill="none" stroke="#63b8ff" d="M1044.24,-113.09C1046.21,-106.31 1048.92,-97.05 1051.37,-88.69"/>
<polygon fill="#63b8ff" stroke="#63b8ff" points="1054.67,-89.86 1054.11,-79.28 1047.95,-87.9 1054.67,-89.86"/>
</a>
</g>
</g>
<!-- Node28 -->
<g id="Node000028" class="node">
<title>Node28</title>
<g id="a_Node000028"><a xlink:href="unaligned_8h.html" target="_top" xlink:title="Unaligned but safe memory access functions.">
<polygon fill="white" stroke="#666666" points="1174.88,-77.5 1101.88,-77.5 1101.88,-56.75 1174.88,-56.75 1174.88,-77.5"/>
<text text-anchor="middle" x="1138.38" y="-64" font-family="Helvetica,sans-Serif" font-size="10.00">unaligned.h</text>
</a>
</g>
</g>
<!-- Node26&#45;&gt;Node28 -->
<g id="edge45_Node000026_Node000028" class="edge">
<title>Node26&#45;&gt;Node28</title>
<g id="a_edge45_Node000026_Node000028"><a xlink:title=" ">
<path fill="none" stroke="#63b8ff" d="M1058.72,-113.09C1073.34,-104.83 1094.51,-92.88 1111.35,-83.38"/>
<polygon fill="#63b8ff" stroke="#63b8ff" points="1112.88,-86.54 1119.87,-78.57 1109.44,-80.44 1112.88,-86.54"/>
</a>
</g>
</g>
<!-- Node28&#45;&gt;Node2 -->
<g id="edge46_Node000028_Node000002" class="edge">
<title>Node28&#45;&gt;Node2</title>
<g id="a_edge46_Node000028_Node000002"><a xlink:title=" ">
<path fill="none" stroke="#63b8ff" d="M1101.72,-58.63C1098.56,-57.99 1095.41,-57.36 1092.38,-56.75 1024.07,-43.11 944.36,-27.61 898.39,-18.71"/>
<polygon fill="#63b8ff" stroke="#63b8ff" points="899.15,-15.3 888.67,-16.83 897.82,-22.17 899.15,-15.3"/>
</a>
</g>
</g>
<!-- Node29&#45;&gt;Node2 -->
<g id="edge50_Node000029_Node000002" class="edge">
<title>Node29&#45;&gt;Node2</title>
<g id="a_edge50_Node000029_Node000002"><a xlink:title=" ">
<path fill="none" stroke="#63b8ff" d="M1089.52,-226.69C1117.99,-211.64 1168.32,-179.55 1184.38,-134.25 1195.88,-101.78 1206.98,-82.74 1184.38,-56.75 1147.68,-14.56 975.77,-10.43 898.35,-10.77"/>
<polygon fill="#63b8ff" stroke="#63b8ff" points="898.69,-7.26 888.71,-10.84 898.74,-14.26 898.69,-7.26"/>
</a>
</g>
</g>
<!-- Node29&#45;&gt;Node17 -->
<g id="edge54_Node000029_Node000017" class="edge">
<title>Node29&#45;&gt;Node17</title>
<g id="a_edge54_Node000029_Node000017"><a xlink:title=" ">
<path fill="none" stroke="#63b8ff" d="M1083.51,-226.72C1094.67,-218.43 1109.9,-205.54 1119.38,-191 1128.38,-177.19 1134.03,-159.34 1137.35,-145.67"/>
<polygon fill="#63b8ff" stroke="#63b8ff" points="1140.74,-146.52 1139.45,-136 1133.9,-145.03 1140.74,-146.52"/>
</a>
</g>
</g>
<!-- Node29&#45;&gt;Node25 -->
<g id="edge53_Node000029_Node000025" class="edge">
<title>Node29&#45;&gt;Node25</title>
<g id="a_edge53_Node000029_Node000025"><a xlink:title=" ">
<path fill="none" stroke="#63b8ff" d="M1055.25,-226.59C1043.68,-218.57 1027.07,-207.06 1013.56,-197.69"/>
<polygon fill="#63b8ff" stroke="#63b8ff" points="1015.83,-195.01 1005.62,-192.19 1011.85,-200.76 1015.83,-195.01"/>
</a>
</g>
</g>
<!-- Node29&#45;&gt;Node26 -->
<g id="edge52_Node000029_Node000026" class="edge">
<title>Node29&#45;&gt;Node26</title>
<g id="a_edge52_Node000029_Node000026"><a xlink:title=" ">
<path fill="none" stroke="#63b8ff" d="M1081.02,-226.56C1094.81,-213.69 1114.68,-190.37 1104.38,-170.25 1097.85,-157.5 1085.89,-147.52 1074.13,-140.2"/>
<polygon fill="#63b8ff" stroke="#63b8ff" points="1076.16,-137.33 1065.73,-135.43 1072.7,-143.42 1076.16,-137.33"/>
</a>
</g>
</g>
<!-- Node30 -->
<g id="Node000030" class="node">
<title>Node30</title>
<g id="a_Node000030"><a xlink:title=" ">
<polygon fill="#e0e0e0" stroke="#999999" points="1095.38,-191 1043.38,-191 1043.38,-170.25 1095.38,-170.25 1095.38,-191"/>
<text text-anchor="middle" x="1069.38" y="-177.5" font-family="Helvetica,sans-Serif" font-size="10.00">stdlib.h</text>
</a>
</g>
</g>
<!-- Node29&#45;&gt;Node30 -->
<g id="edge51_Node000029_Node000030" class="edge">
<title>Node29&#45;&gt;Node30</title>
<g id="a_edge51_Node000029_Node000030"><a xlink:title=" ">
<path fill="none" stroke="#63b8ff" d="M1069.38,-226.59C1069.38,-219.97 1069.38,-210.97 1069.38,-202.77"/>
<polygon fill="#63b8ff" stroke="#63b8ff" points="1072.88,-202.84 1069.38,-192.84 1065.88,-202.84 1072.88,-202.84"/>
</a>
</g>
</g>
<!-- Node31&#45;&gt;Node17 -->
<g id="edge57_Node000031_Node000017" class="edge">
<title>Node31&#45;&gt;Node17</title>
<g id="a_edge57_Node000031_Node000017"><a xlink:title=" ">
<path fill="none" stroke="#63b8ff" d="M1176.36,-283.45C1173.58,-274.3 1169.41,-260.17 1166.38,-247.75 1157.65,-212.1 1149.58,-170.1 1145.08,-145.59"/>
<polygon fill="#63b8ff" stroke="#63b8ff" points="1148.56,-145.2 1143.34,-135.98 1141.67,-146.44 1148.56,-145.2"/>
</a>
</g>
</g>
<!-- Node32 -->
<g id="Node000032" class="node">
<title>Node32</title>
<g id="a_Node000032"><a xlink:href="inttypes_8h.html" target="_top" xlink:title="Adds include for missing inttype definitions.">
<polygon fill="white" stroke="#666666" points="1239.75,-247.75 1175,-247.75 1175,-227 1239.75,-227 1239.75,-247.75"/>
<text text-anchor="middle" x="1207.38" y="-234.25" font-family="Helvetica,sans-Serif" font-size="10.00">inttypes.h</text>
</a>
</g>
</g>
<!-- Node31&#45;&gt;Node32 -->
<g id="edge56_Node000031_Node000032" class="edge">
<title>Node31&#45;&gt;Node32</title>
<g id="a_edge56_Node000031_Node000032"><a xlink:title=" ">
<path fill="none" stroke="#63b8ff" d="M1184.38,-283.34C1187.96,-276.33 1192.91,-266.66 1197.3,-258.08"/>
<polygon fill="#63b8ff" stroke="#63b8ff" points="1200.29,-259.92 1201.72,-249.43 1194.05,-256.74 1200.29,-259.92"/>
</a>
</g>
</g>
<!-- Node33 -->
<g id="Node000033" class="node">
<title>Node33</title>
<g id="a_Node000033"><a xlink:href="ethertype_8h.html" target="_top" xlink:title="Ether type definitions.">
<polygon fill="white" stroke="#666666" points="1348.88,-247.75 1257.88,-247.75 1257.88,-227 1348.88,-227 1348.88,-247.75"/>
<text text-anchor="middle" x="1303.38" y="-234.25" font-family="Helvetica,sans-Serif" font-size="10.00">net/ethertype.h</text>
</a>
</g>
</g>
<!-- Node31&#45;&gt;Node33 -->
<g id="edge58_Node000031_Node000033" class="edge">
<title>Node31&#45;&gt;Node33</title>
<g id="a_edge58_Node000031_Node000033"><a xlink:title=" ">
<path fill="none" stroke="#63b8ff" d="M1201.54,-283.34C1220.85,-274.81 1249.1,-262.34 1270.95,-252.69"/>
<polygon fill="#63b8ff" stroke="#63b8ff" points="1272.28,-255.93 1280.01,-248.69 1269.45,-249.53 1272.28,-255.93"/>
</a>
</g>
</g>
<!-- Node34 -->
<g id="Node000034" class="node">
<title>Node34</title>
<g id="a_Node000034"><a xlink:href="protnum_8h.html" target="_top" xlink:title="Protocol number definitions.">
<polygon fill="white" stroke="#666666" points="1451.88,-247.75 1366.88,-247.75 1366.88,-227 1451.88,-227 1451.88,-247.75"/>
<text text-anchor="middle" x="1409.38" y="-234.25" font-family="Helvetica,sans-Serif" font-size="10.00">net/protnum.h</text>
</a>
</g>
</g>
<!-- Node31&#45;&gt;Node34 -->
<g id="edge59_Node000031_Node000034" class="edge">
<title>Node31&#45;&gt;Node34</title>
<g id="a_edge59_Node000031_Node000034"><a xlink:title=" ">
<path fill="none" stroke="#63b8ff" d="M1220.76,-283.27C1258.91,-274.19 1315.7,-260.67 1356.99,-250.84"/>
<polygon fill="#63b8ff" stroke="#63b8ff" points="1357.54,-254.31 1366.46,-248.59 1355.92,-247.5 1357.54,-254.31"/>
</a>
</g>
</g>
</g>
</svg>
