<?xml version="1.0" encoding="UTF-8" standalone="no"?>
<!DOCTYPE svg PUBLIC "-//W3C//DTD SVG 1.1//EN"
 "http://www.w3.org/Graphics/SVG/1.1/DTD/svg11.dtd">
<!-- Generated by graphviz version 12.1.2 (0)
 -->
<!-- Title: drivers/mrf24j40/include/mrf24j40_internal.h Pages: 1 -->
<svg width="1430pt" height="496pt"
 viewBox="0.00 0.00 1430.38 495.50" xmlns="http://www.w3.org/2000/svg" xmlns:xlink="http://www.w3.org/1999/xlink">
<g id="graph0" class="graph" transform="scale(1 1) rotate(0) translate(4 491.5)">
<title>drivers/mrf24j40/include/mrf24j40_internal.h</title>
<!-- Node1 -->
<g id="Node000001" class="node">
<title>Node1</title>
<g id="a_Node000001"><a xlink:title="Internal interfaces for MRF24J40 drivers.">
<polygon fill="#999999" stroke="#666666" points="795.62,-487.5 660.38,-487.5 660.38,-454 795.62,-454 795.62,-487.5"/>
<text text-anchor="start" x="668.38" y="-474" font-family="Helvetica,sans-Serif" font-size="10.00">drivers/mrf24j40/include</text>
<text text-anchor="middle" x="728" y="-461.25" font-family="Helvetica,sans-Serif" font-size="10.00">/mrf24j40_internal.h</text>
</a>
</g>
</g>
<!-- Node2 -->
<g id="Node000002" class="node">
<title>Node2</title>
<g id="a_Node000002"><a xlink:title=" ">
<polygon fill="#e0e0e0" stroke="#999999" points="435.38,-20.75 382.62,-20.75 382.62,0 435.38,0 435.38,-20.75"/>
<text text-anchor="middle" x="409" y="-7.25" font-family="Helvetica,sans-Serif" font-size="10.00">stdint.h</text>
</a>
</g>
</g>
<!-- Node1&#45;&gt;Node2 -->
<g id="edge1_Node000001_Node000002" class="edge">
<title>Node1&#45;&gt;Node2</title>
<g id="a_edge1_Node000001_Node000002"><a xlink:title=" ">
<path fill="none" stroke="#63b8ff" d="M660.17,-465.85C479.44,-454.57 0,-418.37 0,-351.88 0,-351.88 0,-351.88 0,-122.88 0,-83.19 24.83,-75.13 60,-56.75 113.44,-28.82 291.92,-16.99 370.87,-13.03"/>
<polygon fill="#63b8ff" stroke="#63b8ff" points="370.89,-16.53 380.7,-12.56 370.55,-9.54 370.89,-16.53"/>
</a>
</g>
</g>
<!-- Node3 -->
<g id="Node000003" class="node">
<title>Node3</title>
<g id="a_Node000003"><a xlink:href="mrf24j40_8h.html" target="_top" xlink:title="Interface definition for MRF24J40 based drivers .">
<polygon fill="white" stroke="#666666" points="762.62,-418 693.38,-418 693.38,-397.25 762.62,-397.25 762.62,-418"/>
<text text-anchor="middle" x="728" y="-404.5" font-family="Helvetica,sans-Serif" font-size="10.00">mrf24j40.h</text>
</a>
</g>
</g>
<!-- Node1&#45;&gt;Node3 -->
<g id="edge2_Node000001_Node000003" class="edge">
<title>Node1&#45;&gt;Node3</title>
<g id="a_edge2_Node000001_Node000003"><a xlink:title=" ">
<path fill="none" stroke="#63b8ff" d="M728,-453.69C728,-446.35 728,-437.57 728,-429.71"/>
<polygon fill="#63b8ff" stroke="#63b8ff" points="731.5,-429.98 728,-419.98 724.5,-429.98 731.5,-429.98"/>
</a>
</g>
</g>
<!-- Node17 -->
<g id="Node000017" class="node">
<title>Node17</title>
<g id="a_Node000017"><a xlink:href="kernel__defines_8h.html" target="_top" xlink:title="Common macros and compiler attributes/pragmas configuration.">
<polygon fill="white" stroke="#666666" points="828.12,-191 731.88,-191 731.88,-170.25 828.12,-170.25 828.12,-191"/>
<text text-anchor="middle" x="780" y="-177.5" font-family="Helvetica,sans-Serif" font-size="10.00">kernel_defines.h</text>
</a>
</g>
</g>
<!-- Node1&#45;&gt;Node17 -->
<g id="edge65_Node000001_Node000017" class="edge">
<title>Node1&#45;&gt;Node17</title>
<g id="a_edge65_Node000001_Node000017"><a xlink:title=" ">
<path fill="none" stroke="#63b8ff" d="M767.61,-453.59C833.91,-424.07 965.29,-354.49 1018,-247.75 1022.08,-239.48 1023.88,-234.11 1018,-227 995.82,-200.19 902.9,-189.08 839.94,-184.58"/>
<polygon fill="#63b8ff" stroke="#63b8ff" points="840.28,-181.09 830.06,-183.91 839.81,-188.08 840.28,-181.09"/>
</a>
</g>
</g>
<!-- Node3&#45;&gt;Node2 -->
<g id="edge3_Node000003_Node000002" class="edge">
<title>Node3&#45;&gt;Node2</title>
<g id="a_edge3_Node000003_Node000002"><a xlink:title=" ">
<path fill="none" stroke="#63b8ff" d="M693.31,-404.73C553.39,-396.63 38,-362.24 38,-295.12 38,-295.12 38,-295.12 38,-122.88 38,-81.04 67.58,-75.45 105,-56.75 151.02,-33.75 300.22,-19.65 371.03,-14.1"/>
<polygon fill="#63b8ff" stroke="#63b8ff" points="371.28,-17.59 380.98,-13.33 370.75,-10.61 371.28,-17.59"/>
</a>
</g>
</g>
<!-- Node4 -->
<g id="Node000004" class="node">
<title>Node4</title>
<g id="a_Node000004"><a xlink:title=" ">
<polygon fill="#e0e0e0" stroke="#999999" points="754.38,-361.25 701.62,-361.25 701.62,-340.5 754.38,-340.5 754.38,-361.25"/>
<text text-anchor="middle" x="728" y="-347.75" font-family="Helvetica,sans-Serif" font-size="10.00">board.h</text>
</a>
</g>
</g>
<!-- Node3&#45;&gt;Node4 -->
<g id="edge4_Node000003_Node000004" class="edge">
<title>Node3&#45;&gt;Node4</title>
<g id="a_edge4_Node000003_Node000004"><a xlink:title=" ">
<path fill="none" stroke="#63b8ff" d="M728,-396.84C728,-390.22 728,-381.22 728,-373.02"/>
<polygon fill="#63b8ff" stroke="#63b8ff" points="731.5,-373.09 728,-363.09 724.5,-373.09 731.5,-373.09"/>
</a>
</g>
</g>
<!-- Node5 -->
<g id="Node000005" class="node">
<title>Node5</title>
<g id="a_Node000005"><a xlink:href="spi_8h.html" target="_top" xlink:title="Low&#45;level SPI peripheral driver interface definition.">
<polygon fill="white" stroke="#666666" points="1117.5,-191 1044.5,-191 1044.5,-170.25 1117.5,-170.25 1117.5,-191"/>
<text text-anchor="middle" x="1081" y="-177.5" font-family="Helvetica,sans-Serif" font-size="10.00">periph/spi.h</text>
</a>
</g>
</g>
<!-- Node3&#45;&gt;Node5 -->
<g id="edge5_Node000003_Node000005" class="edge">
<title>Node3&#45;&gt;Node5</title>
<g id="a_edge5_Node000003_Node000005"><a xlink:title=" ">
<path fill="none" stroke="#63b8ff" d="M751.26,-396.86C802.43,-374.76 927.43,-317.38 1018,-247.75 1036.39,-233.62 1054.33,-214.05 1066.33,-199.87"/>
<polygon fill="#63b8ff" stroke="#63b8ff" points="1068.98,-202.15 1072.66,-192.22 1063.59,-197.69 1068.98,-202.15"/>
</a>
</g>
</g>
<!-- Node12 -->
<g id="Node000012" class="node">
<title>Node12</title>
<g id="a_Node000012"><a xlink:href="drivers_2include_2periph_2gpio_8h.html" target="_top" xlink:title="Low&#45;level GPIO peripheral driver interface definitions.">
<polygon fill="white" stroke="#666666" points="1340.88,-134.25 1261.12,-134.25 1261.12,-113.5 1340.88,-113.5 1340.88,-134.25"/>
<text text-anchor="middle" x="1301" y="-120.75" font-family="Helvetica,sans-Serif" font-size="10.00">periph/gpio.h</text>
</a>
</g>
</g>
<!-- Node3&#45;&gt;Node12 -->
<g id="edge18_Node000003_Node000012" class="edge">
<title>Node3&#45;&gt;Node12</title>
<g id="a_edge18_Node000003_Node000012"><a xlink:title=" ">
<path fill="none" stroke="#63b8ff" d="M761.64,-396.83C788.88,-388.5 828.01,-375.62 861,-361.25 1024.37,-290.07 1208.99,-180.85 1275.47,-140.53"/>
<polygon fill="#63b8ff" stroke="#63b8ff" points="1277.08,-143.64 1283.81,-135.45 1273.44,-137.66 1277.08,-143.64"/>
</a>
</g>
</g>
<!-- Node14 -->
<g id="Node000014" class="node">
<title>Node14</title>
<g id="a_Node000014"><a xlink:href="drivers_2include_2net_2netdev_8h.html" target="_top" xlink:title="Definitions low&#45;level network driver interface.">
<polygon fill="white" stroke="#666666" points="608.38,-247.75 531.62,-247.75 531.62,-227 608.38,-227 608.38,-247.75"/>
<text text-anchor="middle" x="570" y="-234.25" font-family="Helvetica,sans-Serif" font-size="10.00">net/netdev.h</text>
</a>
</g>
</g>
<!-- Node3&#45;&gt;Node14 -->
<g id="edge19_Node000003_Node000014" class="edge">
<title>Node3&#45;&gt;Node14</title>
<g id="a_edge19_Node000003_Node000014"><a xlink:title=" ">
<path fill="none" stroke="#63b8ff" d="M719.05,-397.1C693.54,-369.92 620.11,-291.73 586.79,-256.26"/>
<polygon fill="#63b8ff" stroke="#63b8ff" points="589.68,-254.21 580.28,-249.32 584.57,-259.01 589.68,-254.21"/>
</a>
</g>
</g>
<!-- Node23 -->
<g id="Node000023" class="node">
<title>Node23</title>
<g id="a_Node000023"><a xlink:href="drivers_2include_2net_2netdev_2ieee802154_8h.html" target="_top" xlink:title="Definitions for netdev common IEEE 802.15.4 code.">
<polygon fill="white" stroke="#666666" points="642.75,-361.25 505.25,-361.25 505.25,-340.5 642.75,-340.5 642.75,-361.25"/>
<text text-anchor="middle" x="574" y="-347.75" font-family="Helvetica,sans-Serif" font-size="10.00">net/netdev/ieee802154.h</text>
</a>
</g>
</g>
<!-- Node3&#45;&gt;Node23 -->
<g id="edge37_Node000003_Node000023" class="edge">
<title>Node3&#45;&gt;Node23</title>
<g id="a_edge37_Node000003_Node000023"><a xlink:title=" ">
<path fill="none" stroke="#63b8ff" d="M700.47,-396.84C675.91,-388.11 639.7,-375.23 612.32,-365.5"/>
<polygon fill="#63b8ff" stroke="#63b8ff" points="613.57,-362.23 602.98,-362.18 611.23,-368.83 613.57,-362.23"/>
</a>
</g>
</g>
<!-- Node32 -->
<g id="Node000032" class="node">
<title>Node32</title>
<g id="a_Node000032"><a xlink:href="nettype_8h.html" target="_top" xlink:title="Protocol type definitions.">
<polygon fill="white" stroke="#666666" points="831.62,-304.5 726.38,-304.5 726.38,-283.75 831.62,-283.75 831.62,-304.5"/>
<text text-anchor="middle" x="779" y="-291" font-family="Helvetica,sans-Serif" font-size="10.00">net/gnrc/nettype.h</text>
</a>
</g>
</g>
<!-- Node3&#45;&gt;Node32 -->
<g id="edge64_Node000003_Node000032" class="edge">
<title>Node3&#45;&gt;Node32</title>
<g id="a_edge64_Node000003_Node000032"><a xlink:title=" ">
<path fill="none" stroke="#63b8ff" d="M737.4,-396.99C745.35,-388.32 756.46,-374.89 763,-361.25 769.81,-347.05 773.87,-329.69 776.19,-316.33"/>
<polygon fill="#63b8ff" stroke="#63b8ff" points="779.65,-316.88 777.69,-306.47 772.73,-315.83 779.65,-316.88"/>
</a>
</g>
</g>
<!-- Node5&#45;&gt;Node2 -->
<g id="edge11_Node000005_Node000002" class="edge">
<title>Node5&#45;&gt;Node2</title>
<g id="a_edge11_Node000005_Node000002"><a xlink:title=" ">
<path fill="none" stroke="#63b8ff" d="M1091.03,-169.78C1102.91,-156.86 1120,-133.5 1111,-113.5 1095.41,-78.83 1082.04,-71.49 1047,-56.75 937.78,-10.8 567.25,-9.93 447.01,-10.91"/>
<polygon fill="#63b8ff" stroke="#63b8ff" points="447.01,-7.41 437.05,-11 447.08,-14.41 447.01,-7.41"/>
</a>
</g>
</g>
<!-- Node6 -->
<g id="Node000006" class="node">
<title>Node6</title>
<g id="a_Node000006"><a xlink:href="endian_8h.html" target="_top" xlink:title="libc header for endian conversion">
<polygon fill="white" stroke="#666666" points="438,-77.5 380,-77.5 380,-56.75 438,-56.75 438,-77.5"/>
<text text-anchor="middle" x="409" y="-64" font-family="Helvetica,sans-Serif" font-size="10.00">endian.h</text>
</a>
</g>
</g>
<!-- Node5&#45;&gt;Node6 -->
<g id="edge6_Node000005_Node000006" class="edge">
<title>Node5&#45;&gt;Node6</title>
<g id="a_edge6_Node000005_Node000006"><a xlink:title=" ">
<path fill="none" stroke="#63b8ff" d="M1081.39,-170.16C1081.43,-155.44 1079.09,-127.32 1062,-113.5 1060.5,-112.29 591.72,-80.49 449.46,-70.86"/>
<polygon fill="#63b8ff" stroke="#63b8ff" points="449.97,-67.39 439.76,-70.2 449.5,-74.37 449.97,-67.39"/>
</a>
</g>
</g>
<!-- Node7 -->
<g id="Node000007" class="node">
<title>Node7</title>
<g id="a_Node000007"><a xlink:href="errno_8h.html" target="_top" xlink:title=" ">
<polygon fill="white" stroke="#666666" points="973.25,-134.25 922.75,-134.25 922.75,-113.5 973.25,-113.5 973.25,-134.25"/>
<text text-anchor="middle" x="948" y="-120.75" font-family="Helvetica,sans-Serif" font-size="10.00">errno.h</text>
</a>
</g>
</g>
<!-- Node5&#45;&gt;Node7 -->
<g id="edge8_Node000005_Node000007" class="edge">
<title>Node5&#45;&gt;Node7</title>
<g id="a_edge8_Node000005_Node000007"><a xlink:title=" ">
<path fill="none" stroke="#63b8ff" d="M1057.22,-169.84C1036.32,-161.23 1005.66,-148.61 982.14,-138.93"/>
<polygon fill="#63b8ff" stroke="#63b8ff" points="983.55,-135.72 972.97,-135.15 980.89,-142.2 983.55,-135.72"/>
</a>
</g>
</g>
<!-- Node8 -->
<g id="Node000008" class="node">
<title>Node8</title>
<g id="a_Node000008"><a xlink:title=" ">
<polygon fill="#e0e0e0" stroke="#999999" points="1052.5,-134.25 991.5,-134.25 991.5,-113.5 1052.5,-113.5 1052.5,-134.25"/>
<text text-anchor="middle" x="1022" y="-120.75" font-family="Helvetica,sans-Serif" font-size="10.00">stdbool.h</text>
</a>
</g>
</g>
<!-- Node5&#45;&gt;Node8 -->
<g id="edge9_Node000005_Node000008" class="edge">
<title>Node5&#45;&gt;Node8</title>
<g id="a_edge9_Node000005_Node000008"><a xlink:title=" ">
<path fill="none" stroke="#63b8ff" d="M1070.45,-169.84C1062.23,-162.21 1050.6,-151.42 1040.8,-142.32"/>
<polygon fill="#63b8ff" stroke="#63b8ff" points="1043.28,-139.84 1033.57,-135.61 1038.52,-144.98 1043.28,-139.84"/>
</a>
</g>
</g>
<!-- Node9 -->
<g id="Node000009" class="node">
<title>Node9</title>
<g id="a_Node000009"><a xlink:title=" ">
<polygon fill="#e0e0e0" stroke="#999999" points="1037.5,-77.5 982.5,-77.5 982.5,-56.75 1037.5,-56.75 1037.5,-77.5"/>
<text text-anchor="middle" x="1010" y="-64" font-family="Helvetica,sans-Serif" font-size="10.00">stddef.h</text>
</a>
</g>
</g>
<!-- Node5&#45;&gt;Node9 -->
<g id="edge10_Node000005_Node000009" class="edge">
<title>Node5&#45;&gt;Node9</title>
<g id="a_edge10_Node000005_Node000009"><a xlink:title=" ">
<path fill="none" stroke="#63b8ff" d="M1087.1,-169.94C1094.78,-156.38 1105.74,-131.41 1095,-113.5 1084.81,-96.51 1065.86,-85.53 1048.43,-78.63"/>
<polygon fill="#63b8ff" stroke="#63b8ff" points="1049.89,-75.44 1039.3,-75.36 1047.53,-82.03 1049.89,-75.44"/>
</a>
</g>
</g>
<!-- Node10 -->
<g id="Node000010" class="node">
<title>Node10</title>
<g id="a_Node000010"><a xlink:title=" ">
<polygon fill="#e0e0e0" stroke="#999999" points="1252.12,-77.5 1173.88,-77.5 1173.88,-56.75 1252.12,-56.75 1252.12,-77.5"/>
<text text-anchor="middle" x="1213" y="-64" font-family="Helvetica,sans-Serif" font-size="10.00">periph_cpu.h</text>
</a>
</g>
</g>
<!-- Node5&#45;&gt;Node10 -->
<g id="edge12_Node000005_Node000010" class="edge">
<title>Node5&#45;&gt;Node10</title>
<g id="a_edge12_Node000005_Node000010"><a xlink:title=" ">
<path fill="none" stroke="#63b8ff" d="M1109.74,-169.76C1128.71,-162.21 1153.23,-150.34 1171,-134.25 1185.32,-121.28 1196.68,-102.35 1203.95,-88.06"/>
<polygon fill="#63b8ff" stroke="#63b8ff" points="1207.05,-89.7 1208.23,-79.17 1200.74,-86.66 1207.05,-89.7"/>
</a>
</g>
</g>
<!-- Node11 -->
<g id="Node000011" class="node">
<title>Node11</title>
<g id="a_Node000011"><a xlink:title=" ">
<polygon fill="#e0e0e0" stroke="#999999" points="1351.62,-77.5 1270.38,-77.5 1270.38,-56.75 1351.62,-56.75 1351.62,-77.5"/>
<text text-anchor="middle" x="1311" y="-64" font-family="Helvetica,sans-Serif" font-size="10.00">periph_conf.h</text>
</a>
</g>
</g>
<!-- Node5&#45;&gt;Node11 -->
<g id="edge13_Node000005_Node000011" class="edge">
<title>Node5&#45;&gt;Node11</title>
<g id="a_edge13_Node000005_Node000011"><a xlink:title=" ">
<path fill="none" stroke="#63b8ff" d="M1107.66,-169.91C1130.61,-161.29 1164.45,-147.97 1193,-134.25 1225.64,-118.57 1261.76,-97.79 1285.34,-83.74"/>
<polygon fill="#63b8ff" stroke="#63b8ff" points="1286.86,-86.91 1293.63,-78.77 1283.25,-80.91 1286.86,-86.91"/>
</a>
</g>
</g>
<!-- Node5&#45;&gt;Node12 -->
<g id="edge14_Node000005_Node000012" class="edge">
<title>Node5&#45;&gt;Node12</title>
<g id="a_edge14_Node000005_Node000012"><a xlink:title=" ">
<path fill="none" stroke="#63b8ff" d="M1117.82,-170.46C1154.16,-161.42 1210,-147.52 1250.47,-137.45"/>
<polygon fill="#63b8ff" stroke="#63b8ff" points="1251.13,-140.89 1259.98,-135.08 1249.44,-134.1 1251.13,-140.89"/>
</a>
</g>
</g>
<!-- Node6&#45;&gt;Node2 -->
<g id="edge7_Node000006_Node000002" class="edge">
<title>Node6&#45;&gt;Node2</title>
<g id="a_edge7_Node000006_Node000002"><a xlink:title=" ">
<path fill="none" stroke="#63b8ff" d="M409,-56.34C409,-49.72 409,-40.72 409,-32.52"/>
<polygon fill="#63b8ff" stroke="#63b8ff" points="412.5,-32.59 409,-22.59 405.5,-32.59 412.5,-32.59"/>
</a>
</g>
</g>
<!-- Node12&#45;&gt;Node10 -->
<g id="edge16_Node000012_Node000010" class="edge">
<title>Node12&#45;&gt;Node10</title>
<g id="a_edge16_Node000012_Node000010"><a xlink:title=" ">
<path fill="none" stroke="#63b8ff" d="M1285.27,-113.09C1272.13,-104.91 1253.16,-93.11 1237.95,-83.65"/>
<polygon fill="#63b8ff" stroke="#63b8ff" points="1240.22,-80.94 1229.88,-78.63 1236.52,-86.88 1240.22,-80.94"/>
</a>
</g>
</g>
<!-- Node12&#45;&gt;Node11 -->
<g id="edge17_Node000012_Node000011" class="edge">
<title>Node12&#45;&gt;Node11</title>
<g id="a_edge17_Node000012_Node000011"><a xlink:title=" ">
<path fill="none" stroke="#63b8ff" d="M1302.79,-113.09C1304.01,-106.39 1305.68,-97.26 1307.19,-88.98"/>
<polygon fill="#63b8ff" stroke="#63b8ff" points="1310.6,-89.78 1308.96,-79.32 1303.72,-88.53 1310.6,-89.78"/>
</a>
</g>
</g>
<!-- Node13 -->
<g id="Node000013" class="node">
<title>Node13</title>
<g id="a_Node000013"><a xlink:title=" ">
<polygon fill="#e0e0e0" stroke="#999999" points="1422.38,-77.5 1369.62,-77.5 1369.62,-56.75 1422.38,-56.75 1422.38,-77.5"/>
<text text-anchor="middle" x="1396" y="-64" font-family="Helvetica,sans-Serif" font-size="10.00">limits.h</text>
</a>
</g>
</g>
<!-- Node12&#45;&gt;Node13 -->
<g id="edge15_Node000012_Node000013" class="edge">
<title>Node12&#45;&gt;Node13</title>
<g id="a_edge15_Node000012_Node000013"><a xlink:title=" ">
<path fill="none" stroke="#63b8ff" d="M1317.98,-113.09C1332.3,-104.83 1353.04,-92.88 1369.54,-83.38"/>
<polygon fill="#63b8ff" stroke="#63b8ff" points="1370.94,-86.61 1377.85,-78.58 1367.44,-80.55 1370.94,-86.61"/>
</a>
</g>
</g>
<!-- Node14&#45;&gt;Node2 -->
<g id="edge20_Node000014_Node000002" class="edge">
<title>Node14&#45;&gt;Node2</title>
<g id="a_edge20_Node000014_Node000002"><a xlink:title=" ">
<path fill="none" stroke="#63b8ff" d="M538.41,-226.53C520.35,-219.37 498.64,-207.93 485,-191 446.1,-142.71 475.99,-111.57 447,-56.75 441.75,-46.83 434.06,-37.11 426.97,-29.23"/>
<polygon fill="#63b8ff" stroke="#63b8ff" points="429.56,-26.87 420.14,-22.02 424.48,-31.69 429.56,-26.87"/>
</a>
</g>
</g>
<!-- Node14&#45;&gt;Node7 -->
<g id="edge21_Node000014_Node000007" class="edge">
<title>Node14&#45;&gt;Node7</title>
<g id="a_edge21_Node000014_Node000007"><a xlink:title=" ">
<path fill="none" stroke="#63b8ff" d="M569.98,-226.96C570.52,-212.32 573.87,-184.31 591,-170.25 644.21,-126.58 825.33,-145.71 911.26,-134"/>
<polygon fill="#63b8ff" stroke="#63b8ff" points="911.68,-137.48 920.99,-132.43 910.56,-130.57 911.68,-137.48"/>
</a>
</g>
</g>
<!-- Node15 -->
<g id="Node000015" class="node">
<title>Node15</title>
<g id="a_Node000015"><a xlink:href="iolist_8h.html" target="_top" xlink:title="iolist scatter / gather IO">
<polygon fill="white" stroke="#666666" points="543.5,-191 494.5,-191 494.5,-170.25 543.5,-170.25 543.5,-191"/>
<text text-anchor="middle" x="519" y="-177.5" font-family="Helvetica,sans-Serif" font-size="10.00">iolist.h</text>
</a>
</g>
</g>
<!-- Node14&#45;&gt;Node15 -->
<g id="edge22_Node000014_Node000015" class="edge">
<title>Node14&#45;&gt;Node15</title>
<g id="a_edge22_Node000014_Node000015"><a xlink:title=" ">
<path fill="none" stroke="#63b8ff" d="M560.88,-226.59C553.92,-219.11 544.13,-208.61 535.77,-199.63"/>
<polygon fill="#63b8ff" stroke="#63b8ff" points="538.45,-197.37 529.07,-192.44 533.33,-202.14 538.45,-197.37"/>
</a>
</g>
</g>
<!-- Node16 -->
<g id="Node000016" class="node">
<title>Node16</title>
<g id="a_Node000016"><a xlink:href="netopt_8h.html" target="_top" xlink:title="Definition of global configuration options.">
<polygon fill="white" stroke="#666666" points="675.62,-191 600.38,-191 600.38,-170.25 675.62,-170.25 675.62,-191"/>
<text text-anchor="middle" x="638" y="-177.5" font-family="Helvetica,sans-Serif" font-size="10.00">net/netopt.h</text>
</a>
</g>
</g>
<!-- Node14&#45;&gt;Node16 -->
<g id="edge23_Node000014_Node000016" class="edge">
<title>Node14&#45;&gt;Node16</title>
<g id="a_edge23_Node000014_Node000016"><a xlink:title=" ">
<path fill="none" stroke="#63b8ff" d="M582.16,-226.59C591.83,-218.8 605.58,-207.72 617.02,-198.51"/>
<polygon fill="#63b8ff" stroke="#63b8ff" points="619.18,-201.28 624.77,-192.28 614.79,-195.82 619.18,-201.28"/>
</a>
</g>
</g>
<!-- Node14&#45;&gt;Node17 -->
<g id="edge26_Node000014_Node000017" class="edge">
<title>Node14&#45;&gt;Node17</title>
<g id="a_edge26_Node000014_Node000017"><a xlink:title=" ">
<path fill="none" stroke="#63b8ff" d="M607.54,-226.59C642.23,-217.54 693.94,-204.06 731.69,-194.22"/>
<polygon fill="#63b8ff" stroke="#63b8ff" points="732.17,-197.71 740.96,-191.8 730.4,-190.94 732.17,-197.71"/>
</a>
</g>
</g>
<!-- Node16&#45;&gt;Node2 -->
<g id="edge24_Node000016_Node000002" class="edge">
<title>Node16&#45;&gt;Node2</title>
<g id="a_edge24_Node000016_Node000002"><a xlink:title=" ">
<path fill="none" stroke="#63b8ff" d="M600.08,-171.68C575.8,-165.02 544.86,-153.43 523,-134.25 493.39,-108.28 506.98,-85.46 480,-56.75 468.58,-44.6 453.26,-34.28 439.78,-26.56"/>
<polygon fill="#63b8ff" stroke="#63b8ff" points="441.7,-23.62 431.24,-21.91 438.35,-29.77 441.7,-23.62"/>
</a>
</g>
</g>
<!-- Node16&#45;&gt;Node8 -->
<g id="edge25_Node000016_Node000008" class="edge">
<title>Node16&#45;&gt;Node8</title>
<g id="a_edge25_Node000016_Node000008"><a xlink:title=" ">
<path fill="none" stroke="#63b8ff" d="M675.97,-175.1C748.8,-166.34 906.71,-146.97 980.04,-134.4"/>
<polygon fill="#63b8ff" stroke="#63b8ff" points="980.33,-137.91 989.56,-132.71 979.11,-131.01 980.33,-137.91"/>
</a>
</g>
</g>
<!-- Node18 -->
<g id="Node000018" class="node">
<title>Node18</title>
<g id="a_Node000018"><a xlink:href="modules_8h.html" target="_top" xlink:title="Common macros and compiler attributes/pragmas configuration.">
<polygon fill="white" stroke="#666666" points="599.5,-134.25 532.5,-134.25 532.5,-113.5 599.5,-113.5 599.5,-134.25"/>
<text text-anchor="middle" x="566" y="-120.75" font-family="Helvetica,sans-Serif" font-size="10.00">modules.h</text>
</a>
</g>
</g>
<!-- Node17&#45;&gt;Node18 -->
<g id="edge27_Node000017_Node000018" class="edge">
<title>Node17&#45;&gt;Node18</title>
<g id="a_edge27_Node000017_Node000018"><a xlink:title=" ">
<path fill="none" stroke="#63b8ff" d="M741.74,-169.84C704.98,-160.43 649.43,-146.22 610.66,-136.3"/>
<polygon fill="#63b8ff" stroke="#63b8ff" points="611.72,-132.96 601.17,-133.87 609.99,-139.74 611.72,-132.96"/>
</a>
</g>
</g>
<!-- Node19 -->
<g id="Node000019" class="node">
<title>Node19</title>
<g id="a_Node000019"><a xlink:href="riot__version_8h.html" target="_top" xlink:title="Common macros and compiler attributes/pragmas configuration.">
<polygon fill="white" stroke="#666666" points="904.38,-134.25 821.62,-134.25 821.62,-113.5 904.38,-113.5 904.38,-134.25"/>
<text text-anchor="middle" x="863" y="-120.75" font-family="Helvetica,sans-Serif" font-size="10.00">riot_version.h</text>
</a>
</g>
</g>
<!-- Node17&#45;&gt;Node19 -->
<g id="edge28_Node000017_Node000019" class="edge">
<title>Node17&#45;&gt;Node19</title>
<g id="a_edge28_Node000017_Node000019"><a xlink:title=" ">
<path fill="none" stroke="#63b8ff" d="M794.84,-169.84C807.11,-161.74 824.79,-150.08 839.06,-140.67"/>
<polygon fill="#63b8ff" stroke="#63b8ff" points="840.61,-143.84 847.03,-135.41 836.75,-138 840.61,-143.84"/>
</a>
</g>
</g>
<!-- Node20 -->
<g id="Node000020" class="node">
<title>Node20</title>
<g id="a_Node000020"><a xlink:href="compiler__hints_8h.html" target="_top" xlink:title="Common macros and compiler attributes/pragmas configuration.">
<polygon fill="white" stroke="#666666" points="714.5,-134.25 617.5,-134.25 617.5,-113.5 714.5,-113.5 714.5,-134.25"/>
<text text-anchor="middle" x="666" y="-120.75" font-family="Helvetica,sans-Serif" font-size="10.00">compiler_hints.h</text>
</a>
</g>
</g>
<!-- Node17&#45;&gt;Node20 -->
<g id="edge30_Node000017_Node000020" class="edge">
<title>Node17&#45;&gt;Node20</title>
<g id="a_edge30_Node000017_Node000020"><a xlink:title=" ">
<path fill="none" stroke="#63b8ff" d="M759.62,-169.84C742.03,-161.39 716.37,-149.07 696.37,-139.46"/>
<polygon fill="#63b8ff" stroke="#63b8ff" points="698.1,-136.41 687.57,-135.23 695.07,-142.72 698.1,-136.41"/>
</a>
</g>
</g>
<!-- Node22 -->
<g id="Node000022" class="node">
<title>Node22</title>
<g id="a_Node000022"><a xlink:href="container_8h.html" target="_top" xlink:title="Common macros and compiler attributes/pragmas configuration.">
<polygon fill="white" stroke="#666666" points="803.38,-134.25 732.62,-134.25 732.62,-113.5 803.38,-113.5 803.38,-134.25"/>
<text text-anchor="middle" x="768" y="-120.75" font-family="Helvetica,sans-Serif" font-size="10.00">container.h</text>
</a>
</g>
</g>
<!-- Node17&#45;&gt;Node22 -->
<g id="edge34_Node000017_Node000022" class="edge">
<title>Node17&#45;&gt;Node22</title>
<g id="a_edge34_Node000017_Node000022"><a xlink:title=" ">
<path fill="none" stroke="#63b8ff" d="M777.85,-169.84C776.39,-163.14 774.39,-154.01 772.57,-145.73"/>
<polygon fill="#63b8ff" stroke="#63b8ff" points="776.01,-145.08 770.45,-136.06 769.17,-146.57 776.01,-145.08"/>
</a>
</g>
</g>
<!-- Node19&#45;&gt;Node2 -->
<g id="edge29_Node000019_Node000002" class="edge">
<title>Node19&#45;&gt;Node2</title>
<g id="a_edge29_Node000019_Node000002"><a xlink:title=" ">
<path fill="none" stroke="#63b8ff" d="M840.29,-113.03C806.43,-98.69 740.4,-72.13 682,-56.75 599.5,-35.02 500.1,-21.61 446.94,-15.42"/>
<polygon fill="#63b8ff" stroke="#63b8ff" points="447.53,-11.97 437.2,-14.32 446.74,-18.92 447.53,-11.97"/>
</a>
</g>
</g>
<!-- Node20&#45;&gt;Node2 -->
<g id="edge33_Node000020_Node000002" class="edge">
<title>Node20&#45;&gt;Node2</title>
<g id="a_edge33_Node000020_Node000002"><a xlink:title=" ">
<path fill="none" stroke="#63b8ff" d="M662.15,-113.03C655.87,-98.33 641.97,-70.85 621,-56.75 567.96,-21.08 492,-12.77 446.86,-11.21"/>
<polygon fill="#63b8ff" stroke="#63b8ff" points="447.14,-7.72 437.06,-10.98 446.97,-14.72 447.14,-7.72"/>
</a>
</g>
</g>
<!-- Node21 -->
<g id="Node000021" class="node">
<title>Node21</title>
<g id="a_Node000021"><a xlink:href="assert_8h.html" target="_top" xlink:title="POSIX.1&#45;2008 compliant version of the assert macro.">
<polygon fill="white" stroke="#666666" points="612.5,-77.5 557.5,-77.5 557.5,-56.75 612.5,-56.75 612.5,-77.5"/>
<text text-anchor="middle" x="585" y="-64" font-family="Helvetica,sans-Serif" font-size="10.00">assert.h</text>
</a>
</g>
</g>
<!-- Node20&#45;&gt;Node21 -->
<g id="edge31_Node000020_Node000021" class="edge">
<title>Node20&#45;&gt;Node21</title>
<g id="a_edge31_Node000020_Node000021"><a xlink:title=" ">
<path fill="none" stroke="#63b8ff" d="M651.52,-113.09C639.65,-105.07 622.63,-93.56 608.77,-84.19"/>
<polygon fill="#63b8ff" stroke="#63b8ff" points="610.85,-81.38 600.61,-78.68 606.93,-87.18 610.85,-81.38"/>
</a>
</g>
</g>
<!-- Node21&#45;&gt;Node2 -->
<g id="edge32_Node000021_Node000002" class="edge">
<title>Node21&#45;&gt;Node2</title>
<g id="a_edge32_Node000021_Node000002"><a xlink:title=" ">
<path fill="none" stroke="#63b8ff" d="M557.11,-57.45C527.16,-48.13 479.4,-33.27 446.24,-22.96"/>
<polygon fill="#63b8ff" stroke="#63b8ff" points="447.64,-19.73 437.05,-20.1 445.56,-26.41 447.64,-19.73"/>
</a>
</g>
</g>
<!-- Node22&#45;&gt;Node2 -->
<g id="edge36_Node000022_Node000002" class="edge">
<title>Node22&#45;&gt;Node2</title>
<g id="a_edge36_Node000022_Node000002"><a xlink:title=" ">
<path fill="none" stroke="#63b8ff" d="M753.53,-113.2C731.2,-98.72 686.58,-71.53 645,-56.75 577.41,-32.72 494.16,-20.5 446.77,-15.07"/>
<polygon fill="#63b8ff" stroke="#63b8ff" points="447.35,-11.61 437.03,-13.99 446.59,-18.57 447.35,-11.61"/>
</a>
</g>
</g>
<!-- Node22&#45;&gt;Node9 -->
<g id="edge35_Node000022_Node000009" class="edge">
<title>Node22&#45;&gt;Node9</title>
<g id="a_edge35_Node000022_Node000009"><a xlink:title=" ">
<path fill="none" stroke="#63b8ff" d="M803.71,-114.8C848.43,-104.68 924.79,-87.4 971,-76.95"/>
<polygon fill="#63b8ff" stroke="#63b8ff" points="971.61,-80.4 980.59,-74.78 970.06,-73.57 971.61,-80.4"/>
</a>
</g>
</g>
<!-- Node23&#45;&gt;Node14 -->
<g id="edge63_Node000023_Node000014" class="edge">
<title>Node23&#45;&gt;Node14</title>
<g id="a_edge63_Node000023_Node000014"><a xlink:title=" ">
<path fill="none" stroke="#63b8ff" d="M573.66,-340.37C573.02,-322.6 571.64,-283.97 570.76,-259.68"/>
<polygon fill="#63b8ff" stroke="#63b8ff" points="574.26,-259.56 570.41,-249.69 567.27,-259.81 574.26,-259.56"/>
</a>
</g>
</g>
<!-- Node23&#45;&gt;Node16 -->
<g id="edge62_Node000023_Node000016" class="edge">
<title>Node23&#45;&gt;Node16</title>
<g id="a_edge62_Node000023_Node000016"><a xlink:title=" ">
<path fill="none" stroke="#63b8ff" d="M578.45,-340.14C586.61,-322.11 604.3,-282.23 617,-247.75 622.61,-232.52 628.13,-215 632.11,-201.83"/>
<polygon fill="#63b8ff" stroke="#63b8ff" points="635.36,-203.17 634.85,-192.58 628.65,-201.18 635.36,-203.17"/>
</a>
</g>
</g>
<!-- Node24 -->
<g id="Node000024" class="node">
<title>Node24</title>
<g id="a_Node000024"><a xlink:href="eui__provider_8h.html" target="_top" xlink:title="EUI&#45;48 and EUI&#45;64 address provider.">
<polygon fill="white" stroke="#666666" points="382.25,-304.5 277.75,-304.5 277.75,-283.75 382.25,-283.75 382.25,-304.5"/>
<text text-anchor="middle" x="330" y="-291" font-family="Helvetica,sans-Serif" font-size="10.00">net/eui_provider.h</text>
</a>
</g>
</g>
<!-- Node23&#45;&gt;Node24 -->
<g id="edge38_Node000023_Node000024" class="edge">
<title>Node23&#45;&gt;Node24</title>
<g id="a_edge38_Node000023_Node000024"><a xlink:title=" ">
<path fill="none" stroke="#63b8ff" d="M530.1,-340.02C489.45,-330.9 428.86,-317.31 385.01,-307.47"/>
<polygon fill="#63b8ff" stroke="#63b8ff" points="385.96,-304.1 375.44,-305.32 384.43,-310.93 385.96,-304.1"/>
</a>
</g>
</g>
<!-- Node30 -->
<g id="Node000030" class="node">
<title>Node30</title>
<g id="a_Node000030"><a xlink:href="sys_2include_2net_2ieee802154_8h.html" target="_top" xlink:title="IEEE 802.15.4 header definitions.">
<polygon fill="white" stroke="#666666" points="417.38,-247.75 316.62,-247.75 316.62,-227 417.38,-227 417.38,-247.75"/>
<text text-anchor="middle" x="367" y="-234.25" font-family="Helvetica,sans-Serif" font-size="10.00">net/ieee802154.h</text>
</a>
</g>
</g>
<!-- Node23&#45;&gt;Node30 -->
<g id="edge51_Node000023_Node000030" class="edge">
<title>Node23&#45;&gt;Node30</title>
<g id="a_edge51_Node000023_Node000030"><a xlink:title=" ">
<path fill="none" stroke="#63b8ff" d="M555.99,-340.18C519.9,-320.74 438.48,-276.88 395.24,-253.58"/>
<polygon fill="#63b8ff" stroke="#63b8ff" points="396.91,-250.51 386.45,-248.85 393.59,-256.67 396.91,-250.51"/>
</a>
</g>
</g>
<!-- Node23&#45;&gt;Node32 -->
<g id="edge57_Node000023_Node000032" class="edge">
<title>Node23&#45;&gt;Node32</title>
<g id="a_edge57_Node000023_Node000032"><a xlink:title=" ">
<path fill="none" stroke="#63b8ff" d="M610.65,-340.09C644.36,-331.08 694.55,-317.68 731.36,-307.85"/>
<polygon fill="#63b8ff" stroke="#63b8ff" points="732.1,-311.27 740.86,-305.31 730.3,-304.51 732.1,-311.27"/>
</a>
</g>
</g>
<!-- Node24&#45;&gt;Node14 -->
<g id="edge50_Node000024_Node000014" class="edge">
<title>Node24&#45;&gt;Node14</title>
<g id="a_edge50_Node000024_Node000014"><a xlink:title=" ">
<path fill="none" stroke="#63b8ff" d="M373.18,-283.27C414.44,-273.86 476.59,-259.68 519.98,-249.79"/>
<polygon fill="#63b8ff" stroke="#63b8ff" points="520.68,-253.22 529.66,-247.58 519.13,-246.39 520.68,-253.22"/>
</a>
</g>
</g>
<!-- Node25 -->
<g id="Node000025" class="node">
<title>Node25</title>
<g id="a_Node000025"><a xlink:href="eui48_8h.html" target="_top" xlink:title="Definition and IPv6 IID conversion for IEEE EUI&#45;48 identifiers.">
<polygon fill="white" stroke="#666666" points="254.38,-247.75 183.62,-247.75 183.62,-227 254.38,-227 254.38,-247.75"/>
<text text-anchor="middle" x="219" y="-234.25" font-family="Helvetica,sans-Serif" font-size="10.00">net/eui48.h</text>
</a>
</g>
</g>
<!-- Node24&#45;&gt;Node25 -->
<g id="edge39_Node000024_Node000025" class="edge">
<title>Node24&#45;&gt;Node25</title>
<g id="a_edge39_Node000024_Node000025"><a xlink:title=" ">
<path fill="none" stroke="#63b8ff" d="M310.16,-283.34C293.11,-274.93 268.28,-262.68 248.84,-253.09"/>
<polygon fill="#63b8ff" stroke="#63b8ff" points="250.55,-250.03 240.03,-248.75 247.45,-256.31 250.55,-250.03"/>
</a>
</g>
</g>
<!-- Node26 -->
<g id="Node000026" class="node">
<title>Node26</title>
<g id="a_Node000026"><a xlink:href="eui64_8h.html" target="_top" xlink:title="EUI&#45;64 data type definition.">
<polygon fill="white" stroke="#666666" points="254.38,-191 183.62,-191 183.62,-170.25 254.38,-170.25 254.38,-191"/>
<text text-anchor="middle" x="219" y="-177.5" font-family="Helvetica,sans-Serif" font-size="10.00">net/eui64.h</text>
</a>
</g>
</g>
<!-- Node24&#45;&gt;Node26 -->
<g id="edge49_Node000024_Node000026" class="edge">
<title>Node24&#45;&gt;Node26</title>
<g id="a_edge49_Node000024_Node000026"><a xlink:title=" ">
<path fill="none" stroke="#63b8ff" d="M320.54,-283.62C301.95,-264.95 260.43,-223.24 236.64,-199.35"/>
<polygon fill="#63b8ff" stroke="#63b8ff" points="239.36,-197.12 229.82,-192.5 234.4,-202.05 239.36,-197.12"/>
</a>
</g>
</g>
<!-- Node25&#45;&gt;Node2 -->
<g id="edge40_Node000025_Node000002" class="edge">
<title>Node25&#45;&gt;Node2</title>
<g id="a_edge40_Node000025_Node000002"><a xlink:title=" ">
<path fill="none" stroke="#63b8ff" d="M205.85,-226.56C169.15,-198.04 71.4,-113.58 120,-56.75 151.89,-19.46 300.31,-12.61 371.16,-11.5"/>
<polygon fill="#63b8ff" stroke="#63b8ff" points="370.77,-15 380.73,-11.38 370.68,-8 370.77,-15"/>
</a>
</g>
</g>
<!-- Node25&#45;&gt;Node26 -->
<g id="edge41_Node000025_Node000026" class="edge">
<title>Node25&#45;&gt;Node26</title>
<g id="a_edge41_Node000025_Node000026"><a xlink:title=" ">
<path fill="none" stroke="#63b8ff" d="M219,-226.59C219,-219.97 219,-210.97 219,-202.77"/>
<polygon fill="#63b8ff" stroke="#63b8ff" points="222.5,-202.84 219,-192.84 215.5,-202.84 222.5,-202.84"/>
</a>
</g>
</g>
<!-- Node26&#45;&gt;Node2 -->
<g id="edge42_Node000026_Node000002" class="edge">
<title>Node26&#45;&gt;Node2</title>
<g id="a_edge42_Node000026_Node000002"><a xlink:title=" ">
<path fill="none" stroke="#63b8ff" d="M202.87,-169.78C169.68,-148.33 99.55,-96.15 133,-56.75 163.09,-21.31 302.61,-13.5 371,-11.81"/>
<polygon fill="#63b8ff" stroke="#63b8ff" points="371.07,-15.31 381,-11.6 370.93,-8.32 371.07,-15.31"/>
</a>
</g>
</g>
<!-- Node27 -->
<g id="Node000027" class="node">
<title>Node27</title>
<g id="a_Node000027"><a xlink:href="byteorder_8h.html" target="_top" xlink:title="Functions to work with different byte orders.">
<polygon fill="white" stroke="#666666" points="299.12,-134.25 226.88,-134.25 226.88,-113.5 299.12,-113.5 299.12,-134.25"/>
<text text-anchor="middle" x="263" y="-120.75" font-family="Helvetica,sans-Serif" font-size="10.00">byteorder.h</text>
</a>
</g>
</g>
<!-- Node26&#45;&gt;Node27 -->
<g id="edge43_Node000026_Node000027" class="edge">
<title>Node26&#45;&gt;Node27</title>
<g id="a_edge43_Node000026_Node000027"><a xlink:title=" ">
<path fill="none" stroke="#63b8ff" d="M226.87,-169.84C232.75,-162.52 240.97,-152.29 248.08,-143.44"/>
<polygon fill="#63b8ff" stroke="#63b8ff" points="250.72,-145.75 254.25,-135.76 245.26,-141.36 250.72,-145.75"/>
</a>
</g>
</g>
<!-- Node27&#45;&gt;Node2 -->
<g id="edge45_Node000027_Node000002" class="edge">
<title>Node27&#45;&gt;Node2</title>
<g id="a_edge45_Node000027_Node000002"><a xlink:title=" ">
<path fill="none" stroke="#63b8ff" d="M259.76,-113.25C255.72,-99.32 250.75,-73.39 263,-56.75 287.68,-23.24 336.88,-13.76 371.32,-11.44"/>
<polygon fill="#63b8ff" stroke="#63b8ff" points="371.05,-14.96 380.87,-10.98 370.71,-7.96 371.05,-14.96"/>
</a>
</g>
</g>
<!-- Node27&#45;&gt;Node6 -->
<g id="edge46_Node000027_Node000006" class="edge">
<title>Node27&#45;&gt;Node6</title>
<g id="a_edge46_Node000027_Node000006"><a xlink:title=" ">
<path fill="none" stroke="#63b8ff" d="M289.1,-113.09C312.35,-104.37 346.62,-91.52 372.57,-81.79"/>
<polygon fill="#63b8ff" stroke="#63b8ff" points="373.57,-85.15 381.71,-78.36 371.11,-78.59 373.57,-85.15"/>
</a>
</g>
</g>
<!-- Node28 -->
<g id="Node000028" class="node">
<title>Node28</title>
<g id="a_Node000028"><a xlink:title=" ">
<polygon fill="#e0e0e0" stroke="#999999" points="324.38,-77.5 271.62,-77.5 271.62,-56.75 324.38,-56.75 324.38,-77.5"/>
<text text-anchor="middle" x="298" y="-64" font-family="Helvetica,sans-Serif" font-size="10.00">string.h</text>
</a>
</g>
</g>
<!-- Node27&#45;&gt;Node28 -->
<g id="edge44_Node000027_Node000028" class="edge">
<title>Node27&#45;&gt;Node28</title>
<g id="a_edge44_Node000027_Node000028"><a xlink:title=" ">
<path fill="none" stroke="#63b8ff" d="M269.26,-113.09C273.84,-105.92 280.2,-95.98 285.77,-87.26"/>
<polygon fill="#63b8ff" stroke="#63b8ff" points="288.54,-89.41 290.98,-79.1 282.65,-85.64 288.54,-89.41"/>
</a>
</g>
</g>
<!-- Node29 -->
<g id="Node000029" class="node">
<title>Node29</title>
<g id="a_Node000029"><a xlink:href="unaligned_8h.html" target="_top" xlink:title="Unaligned but safe memory access functions.">
<polygon fill="white" stroke="#666666" points="215.5,-77.5 142.5,-77.5 142.5,-56.75 215.5,-56.75 215.5,-77.5"/>
<text text-anchor="middle" x="179" y="-64" font-family="Helvetica,sans-Serif" font-size="10.00">unaligned.h</text>
</a>
</g>
</g>
<!-- Node27&#45;&gt;Node29 -->
<g id="edge47_Node000027_Node000029" class="edge">
<title>Node27&#45;&gt;Node29</title>
<g id="a_edge47_Node000027_Node000029"><a xlink:title=" ">
<path fill="none" stroke="#63b8ff" d="M247.98,-113.09C235.56,-104.99 217.68,-93.33 203.23,-83.92"/>
<polygon fill="#63b8ff" stroke="#63b8ff" points="205.44,-81.18 195.16,-78.65 201.62,-87.05 205.44,-81.18"/>
</a>
</g>
</g>
<!-- Node29&#45;&gt;Node2 -->
<g id="edge48_Node000029_Node000002" class="edge">
<title>Node29&#45;&gt;Node2</title>
<g id="a_edge48_Node000029_Node000002"><a xlink:title=" ">
<path fill="none" stroke="#63b8ff" d="M215.95,-57.33C258.53,-47.19 328.12,-30.63 371.09,-20.4"/>
<polygon fill="#63b8ff" stroke="#63b8ff" points="371.81,-23.83 380.73,-18.11 370.19,-17.02 371.81,-23.83"/>
</a>
</g>
</g>
<!-- Node30&#45;&gt;Node2 -->
<g id="edge52_Node000030_Node000002" class="edge">
<title>Node30&#45;&gt;Node2</title>
<g id="a_edge52_Node000030_Node000002"><a xlink:title=" ">
<path fill="none" stroke="#63b8ff" d="M358.79,-226.7C351.99,-217.99 342.84,-204.54 339,-191 336.48,-182.13 337.74,-179.39 339,-170.25 346.18,-118.33 346.52,-103.09 371,-56.75 376.24,-46.82 383.93,-37.11 391.02,-29.23"/>
<polygon fill="#63b8ff" stroke="#63b8ff" points="393.52,-31.68 397.85,-22.02 388.43,-26.87 393.52,-31.68"/>
</a>
</g>
</g>
<!-- Node30&#45;&gt;Node18 -->
<g id="edge56_Node000030_Node000018" class="edge">
<title>Node30&#45;&gt;Node18</title>
<g id="a_edge56_Node000030_Node000018"><a xlink:title=" ">
<path fill="none" stroke="#63b8ff" d="M384.31,-226.68C418.93,-207.28 496.95,-163.56 538.59,-140.23"/>
<polygon fill="#63b8ff" stroke="#63b8ff" points="540.25,-143.31 547.27,-135.37 536.83,-137.21 540.25,-143.31"/>
</a>
</g>
</g>
<!-- Node30&#45;&gt;Node26 -->
<g id="edge55_Node000030_Node000026" class="edge">
<title>Node30&#45;&gt;Node26</title>
<g id="a_edge55_Node000030_Node000026"><a xlink:title=" ">
<path fill="none" stroke="#63b8ff" d="M340.54,-226.59C316.97,-217.87 282.24,-205.02 255.93,-195.29"/>
<polygon fill="#63b8ff" stroke="#63b8ff" points="257.24,-192.04 246.65,-191.85 254.81,-198.61 257.24,-192.04"/>
</a>
</g>
</g>
<!-- Node30&#45;&gt;Node27 -->
<g id="edge54_Node000030_Node000027" class="edge">
<title>Node30&#45;&gt;Node27</title>
<g id="a_edge54_Node000030_Node000027"><a xlink:title=" ">
<path fill="none" stroke="#63b8ff" d="M350.73,-226.57C337.67,-218.18 319.37,-205.24 306,-191 292.83,-176.98 281.17,-158.44 273.33,-144.56"/>
<polygon fill="#63b8ff" stroke="#63b8ff" points="276.48,-143.03 268.62,-135.93 270.34,-146.39 276.48,-143.03"/>
</a>
</g>
</g>
<!-- Node31 -->
<g id="Node000031" class="node">
<title>Node31</title>
<g id="a_Node000031"><a xlink:title=" ">
<polygon fill="#e0e0e0" stroke="#999999" points="400,-191 348,-191 348,-170.25 400,-170.25 400,-191"/>
<text text-anchor="middle" x="374" y="-177.5" font-family="Helvetica,sans-Serif" font-size="10.00">stdlib.h</text>
</a>
</g>
</g>
<!-- Node30&#45;&gt;Node31 -->
<g id="edge53_Node000030_Node000031" class="edge">
<title>Node30&#45;&gt;Node31</title>
<g id="a_edge53_Node000030_Node000031"><a xlink:title=" ">
<path fill="none" stroke="#63b8ff" d="M368.25,-226.59C369.11,-219.89 370.27,-210.76 371.33,-202.48"/>
<polygon fill="#63b8ff" stroke="#63b8ff" points="374.77,-203.19 372.57,-192.83 367.83,-202.31 374.77,-203.19"/>
</a>
</g>
</g>
<!-- Node32&#45;&gt;Node18 -->
<g id="edge59_Node000032_Node000018" class="edge">
<title>Node32&#45;&gt;Node18</title>
<g id="a_edge59_Node000032_Node000018"><a xlink:title=" ">
<path fill="none" stroke="#63b8ff" d="M763.99,-283.36C752.03,-275 735.43,-262.07 724,-247.75 699.95,-217.61 713.62,-196.09 685,-170.25 673.54,-159.9 639.17,-147.34 610.29,-138.06"/>
<polygon fill="#63b8ff" stroke="#63b8ff" points="611.59,-134.8 601,-135.13 609.48,-141.48 611.59,-134.8"/>
</a>
</g>
</g>
<!-- Node33 -->
<g id="Node000033" class="node">
<title>Node33</title>
<g id="a_Node000033"><a xlink:href="inttypes_8h.html" target="_top" xlink:title="Adds include for missing inttype definitions.">
<polygon fill="white" stroke="#666666" points="1009.38,-247.75 944.62,-247.75 944.62,-227 1009.38,-227 1009.38,-247.75"/>
<text text-anchor="middle" x="977" y="-234.25" font-family="Helvetica,sans-Serif" font-size="10.00">inttypes.h</text>
</a>
</g>
</g>
<!-- Node32&#45;&gt;Node33 -->
<g id="edge58_Node000032_Node000033" class="edge">
<title>Node32&#45;&gt;Node33</title>
<g id="a_edge58_Node000032_Node000033"><a xlink:title=" ">
<path fill="none" stroke="#63b8ff" d="M814.4,-283.34C847.62,-274.15 897.42,-260.38 933.14,-250.5"/>
<polygon fill="#63b8ff" stroke="#63b8ff" points="934.04,-253.88 942.75,-247.85 932.18,-247.14 934.04,-253.88"/>
</a>
</g>
</g>
<!-- Node34 -->
<g id="Node000034" class="node">
<title>Node34</title>
<g id="a_Node000034"><a xlink:href="ethertype_8h.html" target="_top" xlink:title="Ether type definitions.">
<polygon fill="white" stroke="#666666" points="823.5,-247.75 732.5,-247.75 732.5,-227 823.5,-227 823.5,-247.75"/>
<text text-anchor="middle" x="778" y="-234.25" font-family="Helvetica,sans-Serif" font-size="10.00">net/ethertype.h</text>
</a>
</g>
</g>
<!-- Node32&#45;&gt;Node34 -->
<g id="edge60_Node000032_Node000034" class="edge">
<title>Node32&#45;&gt;Node34</title>
<g id="a_edge60_Node000032_Node000034"><a xlink:title=" ">
<path fill="none" stroke="#63b8ff" d="M778.82,-283.34C778.7,-276.72 778.54,-267.72 778.39,-259.52"/>
<polygon fill="#63b8ff" stroke="#63b8ff" points="781.89,-259.53 778.2,-249.59 774.89,-259.65 781.89,-259.53"/>
</a>
</g>
</g>
<!-- Node35 -->
<g id="Node000035" class="node">
<title>Node35</title>
<g id="a_Node000035"><a xlink:href="protnum_8h.html" target="_top" xlink:title="Protocol number definitions.">
<polygon fill="white" stroke="#666666" points="926.5,-247.75 841.5,-247.75 841.5,-227 926.5,-227 926.5,-247.75"/>
<text text-anchor="middle" x="884" y="-234.25" font-family="Helvetica,sans-Serif" font-size="10.00">net/protnum.h</text>
</a>
</g>
</g>
<!-- Node32&#45;&gt;Node35 -->
<g id="edge61_Node000032_Node000035" class="edge">
<title>Node32&#45;&gt;Node35</title>
<g id="a_edge61_Node000032_Node000035"><a xlink:title=" ">
<path fill="none" stroke="#63b8ff" d="M797.77,-283.34C813.75,-275.01 836.95,-262.91 855.26,-253.36"/>
<polygon fill="#63b8ff" stroke="#63b8ff" points="856.8,-256.51 864.05,-248.78 853.56,-250.3 856.8,-256.51"/>
</a>
</g>
</g>
</g>
</svg>
