<?xml version="1.0" encoding="UTF-8" standalone="no"?>
<!DOCTYPE svg PUBLIC "-//W3C//DTD SVG 1.1//EN"
 "http://www.w3.org/Graphics/SVG/1.1/DTD/svg11.dtd">
<!-- Generated by graphviz version 12.1.2 (0)
 -->
<!-- Title: drivers/mrf24j40/include/mrf24j40_params.h Pages: 1 -->
<svg width="1459pt" height="496pt"
 viewBox="0.00 0.00 1459.38 495.50" xmlns="http://www.w3.org/2000/svg" xmlns:xlink="http://www.w3.org/1999/xlink">
<g id="graph0" class="graph" transform="scale(1 1) rotate(0) translate(4 491.5)">
<title>drivers/mrf24j40/include/mrf24j40_params.h</title>
<!-- Node1 -->
<g id="Node000001" class="node">
<title>Node1</title>
<g id="a_Node000001"><a xlink:title="Default configuration for the MRF24J40 driver.">
<polygon fill="#999999" stroke="#666666" points="494,-487.5 358.75,-487.5 358.75,-454 494,-454 494,-487.5"/>
<text text-anchor="start" x="366.75" y="-474" font-family="Helvetica,sans-Serif" font-size="10.00">drivers/mrf24j40/include</text>
<text text-anchor="middle" x="426.38" y="-461.25" font-family="Helvetica,sans-Serif" font-size="10.00">/mrf24j40_params.h</text>
</a>
</g>
</g>
<!-- Node2 -->
<g id="Node000002" class="node">
<title>Node2</title>
<g id="a_Node000002"><a xlink:title=" ">
<polygon fill="#e0e0e0" stroke="#999999" points="263.75,-361.25 211,-361.25 211,-340.5 263.75,-340.5 263.75,-361.25"/>
<text text-anchor="middle" x="237.38" y="-347.75" font-family="Helvetica,sans-Serif" font-size="10.00">board.h</text>
</a>
</g>
</g>
<!-- Node1&#45;&gt;Node2 -->
<g id="edge1_Node000001_Node000002" class="edge">
<title>Node1&#45;&gt;Node2</title>
<g id="a_edge1_Node000001_Node000002"><a xlink:title=" ">
<path fill="none" stroke="#63b8ff" d="M400.49,-453.61C364.24,-431 298.75,-390.15 262.76,-367.71"/>
<polygon fill="#63b8ff" stroke="#63b8ff" points="264.65,-364.76 254.31,-362.44 260.94,-370.7 264.65,-364.76"/>
</a>
</g>
</g>
<!-- Node3 -->
<g id="Node000003" class="node">
<title>Node3</title>
<g id="a_Node000003"><a xlink:href="mrf24j40_8h.html" target="_top" xlink:title="Interface definition for MRF24J40 based drivers .">
<polygon fill="white" stroke="#666666" points="590,-418 520.75,-418 520.75,-397.25 590,-397.25 590,-418"/>
<text text-anchor="middle" x="555.38" y="-404.5" font-family="Helvetica,sans-Serif" font-size="10.00">mrf24j40.h</text>
</a>
</g>
</g>
<!-- Node1&#45;&gt;Node3 -->
<g id="edge2_Node000001_Node000003" class="edge">
<title>Node1&#45;&gt;Node3</title>
<g id="a_edge2_Node000001_Node000003"><a xlink:title=" ">
<path fill="none" stroke="#63b8ff" d="M460.61,-453.53C480.42,-444.14 505.15,-432.42 524.38,-423.31"/>
<polygon fill="#63b8ff" stroke="#63b8ff" points="525.81,-426.51 533.35,-419.06 522.81,-420.18 525.81,-426.51"/>
</a>
</g>
</g>
<!-- Node3&#45;&gt;Node2 -->
<g id="edge4_Node000003_Node000002" class="edge">
<title>Node3&#45;&gt;Node2</title>
<g id="a_edge4_Node000003_Node000002"><a xlink:title=" ">
<path fill="none" stroke="#63b8ff" d="M520.57,-401.73C467.78,-394.12 364.43,-378.54 277.38,-361.25 276.56,-361.09 275.74,-360.92 274.91,-360.75"/>
<polygon fill="#63b8ff" stroke="#63b8ff" points="275.99,-357.41 265.48,-358.7 274.51,-364.25 275.99,-357.41"/>
</a>
</g>
</g>
<!-- Node4 -->
<g id="Node000004" class="node">
<title>Node4</title>
<g id="a_Node000004"><a xlink:title=" ">
<polygon fill="#e0e0e0" stroke="#999999" points="915.75,-20.75 863,-20.75 863,0 915.75,0 915.75,-20.75"/>
<text text-anchor="middle" x="889.38" y="-7.25" font-family="Helvetica,sans-Serif" font-size="10.00">stdint.h</text>
</a>
</g>
</g>
<!-- Node3&#45;&gt;Node4 -->
<g id="edge3_Node000003_Node000004" class="edge">
<title>Node3&#45;&gt;Node4</title>
<g id="a_edge3_Node000003_Node000004"><a xlink:title=" ">
<path fill="none" stroke="#63b8ff" d="M590.5,-406.02C756.16,-402.7 1451.38,-383.5 1451.38,-295.12 1451.38,-295.12 1451.38,-295.12 1451.38,-122.88 1451.38,-15.79 1053.85,-9.96 927.47,-10.81"/>
<polygon fill="#63b8ff" stroke="#63b8ff" points="927.59,-7.31 917.62,-10.9 927.65,-14.31 927.59,-7.31"/>
</a>
</g>
</g>
<!-- Node5 -->
<g id="Node000005" class="node">
<title>Node5</title>
<g id="a_Node000005"><a xlink:href="spi_8h.html" target="_top" xlink:title="Low&#45;level SPI peripheral driver interface definition.">
<polygon fill="white" stroke="#666666" points="392.88,-191 319.88,-191 319.88,-170.25 392.88,-170.25 392.88,-191"/>
<text text-anchor="middle" x="356.38" y="-177.5" font-family="Helvetica,sans-Serif" font-size="10.00">periph/spi.h</text>
</a>
</g>
</g>
<!-- Node3&#45;&gt;Node5 -->
<g id="edge5_Node000003_Node000005" class="edge">
<title>Node3&#45;&gt;Node5</title>
<g id="a_edge5_Node000003_Node000005"><a xlink:title=" ">
<path fill="none" stroke="#63b8ff" d="M546.82,-396.96C516.33,-362.48 412.62,-245.22 372.45,-199.8"/>
<polygon fill="#63b8ff" stroke="#63b8ff" points="375.14,-197.56 365.9,-192.39 369.9,-202.2 375.14,-197.56"/>
</a>
</g>
</g>
<!-- Node12 -->
<g id="Node000012" class="node">
<title>Node12</title>
<g id="a_Node000012"><a xlink:href="drivers_2include_2periph_2gpio_8h.html" target="_top" xlink:title="Low&#45;level GPIO peripheral driver interface definitions.">
<polygon fill="white" stroke="#666666" points="161.25,-134.25 81.5,-134.25 81.5,-113.5 161.25,-113.5 161.25,-134.25"/>
<text text-anchor="middle" x="121.38" y="-120.75" font-family="Helvetica,sans-Serif" font-size="10.00">periph/gpio.h</text>
</a>
</g>
</g>
<!-- Node3&#45;&gt;Node12 -->
<g id="edge18_Node000003_Node000012" class="edge">
<title>Node3&#45;&gt;Node12</title>
<g id="a_edge18_Node000003_Node000012"><a xlink:title=" ">
<path fill="none" stroke="#63b8ff" d="M520.32,-407.21C448.5,-406.4 291.38,-393.39 291.38,-295.12 291.38,-295.12 291.38,-295.12 291.38,-236.38 291.38,-178.95 222.71,-149.48 172.66,-135.63"/>
<polygon fill="#63b8ff" stroke="#63b8ff" points="173.69,-132.28 163.13,-133.13 171.91,-139.05 173.69,-132.28"/>
</a>
</g>
</g>
<!-- Node14 -->
<g id="Node000014" class="node">
<title>Node14</title>
<g id="a_Node000014"><a xlink:href="drivers_2include_2net_2netdev_8h.html" target="_top" xlink:title="Definitions low&#45;level network driver interface.">
<polygon fill="white" stroke="#666666" points="760.75,-247.75 684,-247.75 684,-227 760.75,-227 760.75,-247.75"/>
<text text-anchor="middle" x="722.38" y="-234.25" font-family="Helvetica,sans-Serif" font-size="10.00">net/netdev.h</text>
</a>
</g>
</g>
<!-- Node3&#45;&gt;Node14 -->
<g id="edge19_Node000003_Node000014" class="edge">
<title>Node3&#45;&gt;Node14</title>
<g id="a_edge19_Node000003_Node000014"><a xlink:title=" ">
<path fill="none" stroke="#63b8ff" d="M564.83,-397.1C591.8,-369.92 669.41,-291.73 704.62,-256.26"/>
<polygon fill="#63b8ff" stroke="#63b8ff" points="706.98,-258.85 711.54,-249.29 702.01,-253.92 706.98,-258.85"/>
</a>
</g>
</g>
<!-- Node23 -->
<g id="Node000023" class="node">
<title>Node23</title>
<g id="a_Node000023"><a xlink:href="drivers_2include_2net_2netdev_2ieee802154_8h.html" target="_top" xlink:title="Definitions for netdev common IEEE 802.15.4 code.">
<polygon fill="white" stroke="#666666" points="936.12,-361.25 798.62,-361.25 798.62,-340.5 936.12,-340.5 936.12,-361.25"/>
<text text-anchor="middle" x="867.38" y="-347.75" font-family="Helvetica,sans-Serif" font-size="10.00">net/netdev/ieee802154.h</text>
</a>
</g>
</g>
<!-- Node3&#45;&gt;Node23 -->
<g id="edge37_Node000003_Node000023" class="edge">
<title>Node3&#45;&gt;Node23</title>
<g id="a_edge37_Node000003_Node000023"><a xlink:title=" ">
<path fill="none" stroke="#63b8ff" d="M590.26,-400.5C640.81,-391.63 735.43,-375.03 799.89,-363.72"/>
<polygon fill="#63b8ff" stroke="#63b8ff" points="800.43,-367.18 809.67,-362 799.22,-360.28 800.43,-367.18"/>
</a>
</g>
</g>
<!-- Node32 -->
<g id="Node000032" class="node">
<title>Node32</title>
<g id="a_Node000032"><a xlink:href="nettype_8h.html" target="_top" xlink:title="Protocol type definitions.">
<polygon fill="white" stroke="#666666" points="1249,-304.5 1143.75,-304.5 1143.75,-283.75 1249,-283.75 1249,-304.5"/>
<text text-anchor="middle" x="1196.38" y="-291" font-family="Helvetica,sans-Serif" font-size="10.00">net/gnrc/nettype.h</text>
</a>
</g>
</g>
<!-- Node3&#45;&gt;Node32 -->
<g id="edge64_Node000003_Node000032" class="edge">
<title>Node3&#45;&gt;Node32</title>
<g id="a_edge64_Node000003_Node000032"><a xlink:title=" ">
<path fill="none" stroke="#63b8ff" d="M590.32,-404.23C658.87,-399.16 815.6,-385.77 945.38,-361.25 1019.73,-347.2 1104.53,-323.13 1154.09,-308.23"/>
<polygon fill="#63b8ff" stroke="#63b8ff" points="1155,-311.61 1163.56,-305.37 1152.97,-304.91 1155,-311.61"/>
</a>
</g>
</g>
<!-- Node5&#45;&gt;Node4 -->
<g id="edge11_Node000005_Node000004" class="edge">
<title>Node5&#45;&gt;Node4</title>
<g id="a_edge11_Node000005_Node000004"><a xlink:title=" ">
<path fill="none" stroke="#63b8ff" d="M342.73,-169.94C326.85,-157.4 304.04,-134.63 314.38,-113.5 332.43,-76.59 349.14,-71.82 387.38,-56.75 471.85,-23.45 749.27,-14.32 851.29,-12.06"/>
<polygon fill="#63b8ff" stroke="#63b8ff" points="851.12,-15.56 861.05,-11.85 850.98,-8.56 851.12,-15.56"/>
</a>
</g>
</g>
<!-- Node6 -->
<g id="Node000006" class="node">
<title>Node6</title>
<g id="a_Node000006"><a xlink:href="endian_8h.html" target="_top" xlink:title="libc header for endian conversion">
<polygon fill="white" stroke="#666666" points="1032.38,-77.5 974.38,-77.5 974.38,-56.75 1032.38,-56.75 1032.38,-77.5"/>
<text text-anchor="middle" x="1003.38" y="-64" font-family="Helvetica,sans-Serif" font-size="10.00">endian.h</text>
</a>
</g>
</g>
<!-- Node5&#45;&gt;Node6 -->
<g id="edge6_Node000005_Node000006" class="edge">
<title>Node5&#45;&gt;Node6</title>
<g id="a_edge6_Node000005_Node000006"><a xlink:title=" ">
<path fill="none" stroke="#63b8ff" d="M393.13,-177.8C466.43,-173.7 635.76,-161.84 775.38,-134.25 843.03,-120.88 919.64,-96.74 964.61,-81.62"/>
<polygon fill="#63b8ff" stroke="#63b8ff" points="965.55,-85 973.9,-78.47 963.3,-78.37 965.55,-85"/>
</a>
</g>
</g>
<!-- Node7 -->
<g id="Node000007" class="node">
<title>Node7</title>
<g id="a_Node000007"><a xlink:href="errno_8h.html" target="_top" xlink:title=" ">
<polygon fill="white" stroke="#666666" points="381.62,-134.25 331.12,-134.25 331.12,-113.5 381.62,-113.5 381.62,-134.25"/>
<text text-anchor="middle" x="356.38" y="-120.75" font-family="Helvetica,sans-Serif" font-size="10.00">errno.h</text>
</a>
</g>
</g>
<!-- Node5&#45;&gt;Node7 -->
<g id="edge8_Node000005_Node000007" class="edge">
<title>Node5&#45;&gt;Node7</title>
<g id="a_edge8_Node000005_Node000007"><a xlink:title=" ">
<path fill="none" stroke="#63b8ff" d="M356.38,-169.84C356.38,-163.22 356.38,-154.22 356.38,-146.02"/>
<polygon fill="#63b8ff" stroke="#63b8ff" points="359.88,-146.09 356.38,-136.09 352.88,-146.09 359.88,-146.09"/>
</a>
</g>
</g>
<!-- Node8 -->
<g id="Node000008" class="node">
<title>Node8</title>
<g id="a_Node000008"><a xlink:title=" ">
<polygon fill="#e0e0e0" stroke="#999999" points="460.88,-134.25 399.88,-134.25 399.88,-113.5 460.88,-113.5 460.88,-134.25"/>
<text text-anchor="middle" x="430.38" y="-120.75" font-family="Helvetica,sans-Serif" font-size="10.00">stdbool.h</text>
</a>
</g>
</g>
<!-- Node5&#45;&gt;Node8 -->
<g id="edge9_Node000005_Node000008" class="edge">
<title>Node5&#45;&gt;Node8</title>
<g id="a_edge9_Node000005_Node000008"><a xlink:title=" ">
<path fill="none" stroke="#63b8ff" d="M369.6,-169.84C380.34,-161.9 395.7,-150.53 408.29,-141.21"/>
<polygon fill="#63b8ff" stroke="#63b8ff" points="410.09,-144.24 416.04,-135.48 405.92,-138.61 410.09,-144.24"/>
</a>
</g>
</g>
<!-- Node9 -->
<g id="Node000009" class="node">
<title>Node9</title>
<g id="a_Node000009"><a xlink:title=" ">
<polygon fill="#e0e0e0" stroke="#999999" points="451.88,-77.5 396.88,-77.5 396.88,-56.75 451.88,-56.75 451.88,-77.5"/>
<text text-anchor="middle" x="424.38" y="-64" font-family="Helvetica,sans-Serif" font-size="10.00">stddef.h</text>
</a>
</g>
</g>
<!-- Node5&#45;&gt;Node9 -->
<g id="edge10_Node000005_Node000009" class="edge">
<title>Node5&#45;&gt;Node9</title>
<g id="a_edge10_Node000005_Node000009"><a xlink:title=" ">
<path fill="none" stroke="#63b8ff" d="M344.86,-169.87C330.71,-156.66 310,-132.55 322.38,-113.5 336.28,-92.09 362.89,-80.7 385.44,-74.68"/>
<polygon fill="#63b8ff" stroke="#63b8ff" points="386.05,-78.14 394.97,-72.42 384.43,-71.33 386.05,-78.14"/>
</a>
</g>
</g>
<!-- Node10 -->
<g id="Node000010" class="node">
<title>Node10</title>
<g id="a_Node000010"><a xlink:title=" ">
<polygon fill="#e0e0e0" stroke="#999999" points="149.5,-77.5 71.25,-77.5 71.25,-56.75 149.5,-56.75 149.5,-77.5"/>
<text text-anchor="middle" x="110.38" y="-64" font-family="Helvetica,sans-Serif" font-size="10.00">periph_cpu.h</text>
</a>
</g>
</g>
<!-- Node5&#45;&gt;Node10 -->
<g id="edge12_Node000005_Node000010" class="edge">
<title>Node5&#45;&gt;Node10</title>
<g id="a_edge12_Node000005_Node000010"><a xlink:title=" ">
<path fill="none" stroke="#63b8ff" d="M323.95,-169.82C297.71,-161.49 260.05,-148.61 228.38,-134.25 195.21,-119.21 158.93,-98.13 135.48,-83.85"/>
<polygon fill="#63b8ff" stroke="#63b8ff" points="137.6,-81.04 127.25,-78.79 133.93,-87.01 137.6,-81.04"/>
</a>
</g>
</g>
<!-- Node11 -->
<g id="Node000011" class="node">
<title>Node11</title>
<g id="a_Node000011"><a xlink:title=" ">
<polygon fill="#e0e0e0" stroke="#999999" points="249,-77.5 167.75,-77.5 167.75,-56.75 249,-56.75 249,-77.5"/>
<text text-anchor="middle" x="208.38" y="-64" font-family="Helvetica,sans-Serif" font-size="10.00">periph_conf.h</text>
</a>
</g>
</g>
<!-- Node5&#45;&gt;Node11 -->
<g id="edge13_Node000005_Node000011" class="edge">
<title>Node5&#45;&gt;Node11</title>
<g id="a_edge13_Node000005_Node000011"><a xlink:title=" ">
<path fill="none" stroke="#63b8ff" d="M320.43,-169.9C298.7,-162.69 271.41,-151.16 251.38,-134.25 236.51,-121.7 224.91,-102.73 217.52,-88.31"/>
<polygon fill="#63b8ff" stroke="#63b8ff" points="220.67,-86.79 213.17,-79.31 214.37,-89.84 220.67,-86.79"/>
</a>
</g>
</g>
<!-- Node5&#45;&gt;Node12 -->
<g id="edge14_Node000005_Node000012" class="edge">
<title>Node5&#45;&gt;Node12</title>
<g id="a_edge14_Node000005_Node000012"><a xlink:title=" ">
<path fill="none" stroke="#63b8ff" d="M319.4,-171.01C279.92,-161.81 217.08,-147.17 172.79,-136.85"/>
<polygon fill="#63b8ff" stroke="#63b8ff" points="173.69,-133.47 163.15,-134.61 172.1,-140.29 173.69,-133.47"/>
</a>
</g>
</g>
<!-- Node6&#45;&gt;Node4 -->
<g id="edge7_Node000006_Node000004" class="edge">
<title>Node6&#45;&gt;Node4</title>
<g id="a_edge7_Node000006_Node000004"><a xlink:title=" ">
<path fill="none" stroke="#63b8ff" d="M982.99,-56.34C965.41,-47.89 939.75,-35.57 919.74,-25.96"/>
<polygon fill="#63b8ff" stroke="#63b8ff" points="921.47,-22.91 910.94,-21.73 918.44,-29.22 921.47,-22.91"/>
</a>
</g>
</g>
<!-- Node12&#45;&gt;Node10 -->
<g id="edge16_Node000012_Node000010" class="edge">
<title>Node12&#45;&gt;Node10</title>
<g id="a_edge16_Node000012_Node000010"><a xlink:title=" ">
<path fill="none" stroke="#63b8ff" d="M119.41,-113.09C118.06,-106.39 116.23,-97.26 114.56,-88.98"/>
<polygon fill="#63b8ff" stroke="#63b8ff" points="118.02,-88.43 112.62,-79.31 111.16,-89.81 118.02,-88.43"/>
</a>
</g>
</g>
<!-- Node12&#45;&gt;Node11 -->
<g id="edge17_Node000012_Node000011" class="edge">
<title>Node12&#45;&gt;Node11</title>
<g id="a_edge17_Node000012_Node000011"><a xlink:title=" ">
<path fill="none" stroke="#63b8ff" d="M136.93,-113.09C149.8,-104.99 168.32,-93.33 183.28,-83.92"/>
<polygon fill="#63b8ff" stroke="#63b8ff" points="185.08,-86.92 191.67,-78.63 181.35,-81 185.08,-86.92"/>
</a>
</g>
</g>
<!-- Node13 -->
<g id="Node000013" class="node">
<title>Node13</title>
<g id="a_Node000013"><a xlink:title=" ">
<polygon fill="#e0e0e0" stroke="#999999" points="52.75,-77.5 0,-77.5 0,-56.75 52.75,-56.75 52.75,-77.5"/>
<text text-anchor="middle" x="26.38" y="-64" font-family="Helvetica,sans-Serif" font-size="10.00">limits.h</text>
</a>
</g>
</g>
<!-- Node12&#45;&gt;Node13 -->
<g id="edge15_Node000012_Node000013" class="edge">
<title>Node12&#45;&gt;Node13</title>
<g id="a_edge15_Node000012_Node000013"><a xlink:title=" ">
<path fill="none" stroke="#63b8ff" d="M104.39,-113.09C90.07,-104.83 69.33,-92.88 52.84,-83.38"/>
<polygon fill="#63b8ff" stroke="#63b8ff" points="54.94,-80.55 44.52,-78.58 51.44,-86.61 54.94,-80.55"/>
</a>
</g>
</g>
<!-- Node14&#45;&gt;Node4 -->
<g id="edge20_Node000014_Node000004" class="edge">
<title>Node14&#45;&gt;Node4</title>
<g id="a_edge20_Node000014_Node000004"><a xlink:title=" ">
<path fill="none" stroke="#63b8ff" d="M729.95,-226.69C737.08,-217.54 748.04,-203.4 757.38,-191 801.25,-132.72 852.08,-62.88 875.84,-30.1"/>
<polygon fill="#63b8ff" stroke="#63b8ff" points="878.38,-32.55 881.41,-22.4 872.71,-28.44 878.38,-32.55"/>
</a>
</g>
</g>
<!-- Node14&#45;&gt;Node7 -->
<g id="edge21_Node000014_Node000007" class="edge">
<title>Node14&#45;&gt;Node7</title>
<g id="a_edge21_Node000014_Node000007"><a xlink:title=" ">
<path fill="none" stroke="#63b8ff" d="M705.57,-226.67C674.49,-208.76 610.68,-172.13 605.38,-170.25 517.43,-139.12 487.22,-153.94 393.1,-134.62"/>
<polygon fill="#63b8ff" stroke="#63b8ff" points="393.92,-131.21 383.4,-132.54 392.45,-138.06 393.92,-131.21"/>
</a>
</g>
</g>
<!-- Node15 -->
<g id="Node000015" class="node">
<title>Node15</title>
<g id="a_Node000015"><a xlink:href="iolist_8h.html" target="_top" xlink:title="iolist scatter / gather IO">
<polygon fill="white" stroke="#666666" points="595.88,-191 546.88,-191 546.88,-170.25 595.88,-170.25 595.88,-191"/>
<text text-anchor="middle" x="571.38" y="-177.5" font-family="Helvetica,sans-Serif" font-size="10.00">iolist.h</text>
</a>
</g>
</g>
<!-- Node14&#45;&gt;Node15 -->
<g id="edge22_Node000014_Node000015" class="edge">
<title>Node14&#45;&gt;Node15</title>
<g id="a_edge22_Node000014_Node000015"><a xlink:title=" ">
<path fill="none" stroke="#63b8ff" d="M695.38,-226.59C670.63,-217.61 633.81,-204.26 606.72,-194.44"/>
<polygon fill="#63b8ff" stroke="#63b8ff" points="608.15,-191.24 597.56,-191.12 605.77,-197.82 608.15,-191.24"/>
</a>
</g>
</g>
<!-- Node16 -->
<g id="Node000016" class="node">
<title>Node16</title>
<g id="a_Node000016"><a xlink:href="netopt_8h.html" target="_top" xlink:title="Definition of global configuration options.">
<polygon fill="white" stroke="#666666" points="880,-191 804.75,-191 804.75,-170.25 880,-170.25 880,-191"/>
<text text-anchor="middle" x="842.38" y="-177.5" font-family="Helvetica,sans-Serif" font-size="10.00">net/netopt.h</text>
</a>
</g>
</g>
<!-- Node14&#45;&gt;Node16 -->
<g id="edge23_Node000014_Node000016" class="edge">
<title>Node14&#45;&gt;Node16</title>
<g id="a_edge23_Node000014_Node000016"><a xlink:title=" ">
<path fill="none" stroke="#63b8ff" d="M743.83,-226.59C762.43,-218.1 789.6,-205.7 810.7,-196.08"/>
<polygon fill="#63b8ff" stroke="#63b8ff" points="812.09,-199.29 819.73,-191.96 809.18,-192.92 812.09,-199.29"/>
</a>
</g>
</g>
<!-- Node17 -->
<g id="Node000017" class="node">
<title>Node17</title>
<g id="a_Node000017"><a xlink:href="kernel__defines_8h.html" target="_top" xlink:title="Common macros and compiler attributes/pragmas configuration.">
<polygon fill="white" stroke="#666666" points="748.5,-191 652.25,-191 652.25,-170.25 748.5,-170.25 748.5,-191"/>
<text text-anchor="middle" x="700.38" y="-177.5" font-family="Helvetica,sans-Serif" font-size="10.00">kernel_defines.h</text>
</a>
</g>
</g>
<!-- Node14&#45;&gt;Node17 -->
<g id="edge26_Node000014_Node000017" class="edge">
<title>Node14&#45;&gt;Node17</title>
<g id="a_edge26_Node000014_Node000017"><a xlink:title=" ">
<path fill="none" stroke="#63b8ff" d="M718.44,-226.59C715.69,-219.74 711.91,-210.34 708.52,-201.9"/>
<polygon fill="#63b8ff" stroke="#63b8ff" points="711.81,-200.71 704.84,-192.73 705.32,-203.32 711.81,-200.71"/>
</a>
</g>
</g>
<!-- Node16&#45;&gt;Node4 -->
<g id="edge24_Node000016_Node000004" class="edge">
<title>Node16&#45;&gt;Node4</title>
<g id="a_edge24_Node000016_Node000004"><a xlink:title=" ">
<path fill="none" stroke="#63b8ff" d="M845.04,-170.1C852.43,-143.62 873.37,-68.68 883.6,-32.05"/>
<polygon fill="#63b8ff" stroke="#63b8ff" points="886.9,-33.25 886.22,-22.68 880.16,-31.36 886.9,-33.25"/>
</a>
</g>
</g>
<!-- Node16&#45;&gt;Node8 -->
<g id="edge25_Node000016_Node000008" class="edge">
<title>Node16&#45;&gt;Node8</title>
<g id="a_edge25_Node000016_Node000008"><a xlink:title=" ">
<path fill="none" stroke="#63b8ff" d="M804.35,-175.22C722.36,-165.71 532.16,-143.44 472.51,-134.31"/>
<polygon fill="#63b8ff" stroke="#63b8ff" points="473.24,-130.89 462.81,-132.72 472.11,-137.79 473.24,-130.89"/>
</a>
</g>
</g>
<!-- Node18 -->
<g id="Node000018" class="node">
<title>Node18</title>
<g id="a_Node000018"><a xlink:href="modules_8h.html" target="_top" xlink:title="Common macros and compiler attributes/pragmas configuration.">
<polygon fill="white" stroke="#666666" points="1401.88,-134.25 1334.88,-134.25 1334.88,-113.5 1401.88,-113.5 1401.88,-134.25"/>
<text text-anchor="middle" x="1368.38" y="-120.75" font-family="Helvetica,sans-Serif" font-size="10.00">modules.h</text>
</a>
</g>
</g>
<!-- Node17&#45;&gt;Node18 -->
<g id="edge27_Node000017_Node000018" class="edge">
<title>Node17&#45;&gt;Node18</title>
<g id="a_edge27_Node000017_Node000018"><a xlink:title=" ">
<path fill="none" stroke="#63b8ff" d="M748.69,-174.67C763.65,-173.19 780.19,-171.6 795.38,-170.25 991.7,-152.79 1226.17,-135.26 1323.06,-128.16"/>
<polygon fill="#63b8ff" stroke="#63b8ff" points="1323.22,-131.66 1332.94,-127.44 1322.71,-124.68 1323.22,-131.66"/>
</a>
</g>
</g>
<!-- Node19 -->
<g id="Node000019" class="node">
<title>Node19</title>
<g id="a_Node000019"><a xlink:href="riot__version_8h.html" target="_top" xlink:title="Common macros and compiler attributes/pragmas configuration.">
<polygon fill="white" stroke="#666666" points="650.75,-134.25 568,-134.25 568,-113.5 650.75,-113.5 650.75,-134.25"/>
<text text-anchor="middle" x="609.38" y="-120.75" font-family="Helvetica,sans-Serif" font-size="10.00">riot_version.h</text>
</a>
</g>
</g>
<!-- Node17&#45;&gt;Node19 -->
<g id="edge28_Node000017_Node000019" class="edge">
<title>Node17&#45;&gt;Node19</title>
<g id="a_edge28_Node000017_Node000019"><a xlink:title=" ">
<path fill="none" stroke="#63b8ff" d="M684.11,-169.84C670.52,-161.66 650.9,-149.86 635.17,-140.4"/>
<polygon fill="#63b8ff" stroke="#63b8ff" points="637.17,-137.52 626.8,-135.36 633.56,-143.51 637.17,-137.52"/>
</a>
</g>
</g>
<!-- Node20 -->
<g id="Node000020" class="node">
<title>Node20</title>
<g id="a_Node000020"><a xlink:href="compiler__hints_8h.html" target="_top" xlink:title="Common macros and compiler attributes/pragmas configuration.">
<polygon fill="white" stroke="#666666" points="765.88,-134.25 668.88,-134.25 668.88,-113.5 765.88,-113.5 765.88,-134.25"/>
<text text-anchor="middle" x="717.38" y="-120.75" font-family="Helvetica,sans-Serif" font-size="10.00">compiler_hints.h</text>
</a>
</g>
</g>
<!-- Node17&#45;&gt;Node20 -->
<g id="edge30_Node000017_Node000020" class="edge">
<title>Node17&#45;&gt;Node20</title>
<g id="a_edge30_Node000017_Node000020"><a xlink:title=" ">
<path fill="none" stroke="#63b8ff" d="M703.41,-169.84C705.52,-163.06 708.39,-153.8 710.99,-145.44"/>
<polygon fill="#63b8ff" stroke="#63b8ff" points="714.29,-146.61 713.91,-136.02 707.61,-144.54 714.29,-146.61"/>
</a>
</g>
</g>
<!-- Node22 -->
<g id="Node000022" class="node">
<title>Node22</title>
<g id="a_Node000022"><a xlink:href="container_8h.html" target="_top" xlink:title="Common macros and compiler attributes/pragmas configuration.">
<polygon fill="white" stroke="#666666" points="549.75,-134.25 479,-134.25 479,-113.5 549.75,-113.5 549.75,-134.25"/>
<text text-anchor="middle" x="514.38" y="-120.75" font-family="Helvetica,sans-Serif" font-size="10.00">container.h</text>
</a>
</g>
</g>
<!-- Node17&#45;&gt;Node22 -->
<g id="edge34_Node000017_Node000022" class="edge">
<title>Node17&#45;&gt;Node22</title>
<g id="a_edge34_Node000017_Node000022"><a xlink:title=" ">
<path fill="none" stroke="#63b8ff" d="M667.12,-169.84C636.8,-160.91 591.78,-147.66 558.46,-137.85"/>
<polygon fill="#63b8ff" stroke="#63b8ff" points="559.69,-134.56 549.11,-135.1 557.71,-141.28 559.69,-134.56"/>
</a>
</g>
</g>
<!-- Node19&#45;&gt;Node4 -->
<g id="edge29_Node000019_Node000004" class="edge">
<title>Node19&#45;&gt;Node4</title>
<g id="a_edge29_Node000019_Node000004"><a xlink:title=" ">
<path fill="none" stroke="#63b8ff" d="M623.36,-113.04C644.11,-98.84 684.65,-72.58 722.38,-56.75 765.19,-38.78 817.16,-25.97 851.64,-18.64"/>
<polygon fill="#63b8ff" stroke="#63b8ff" points="852.06,-22.13 861.14,-16.67 850.64,-15.27 852.06,-22.13"/>
</a>
</g>
</g>
<!-- Node20&#45;&gt;Node4 -->
<g id="edge33_Node000020_Node000004" class="edge">
<title>Node20&#45;&gt;Node4</title>
<g id="a_edge33_Node000020_Node000004"><a xlink:title=" ">
<path fill="none" stroke="#63b8ff" d="M717.87,-113.34C719.13,-99.05 723.59,-72.11 739.38,-56.75 769.47,-27.47 817.78,-17.01 851.42,-13.31"/>
<polygon fill="#63b8ff" stroke="#63b8ff" points="851.51,-16.81 861.14,-12.4 850.86,-9.84 851.51,-16.81"/>
</a>
</g>
</g>
<!-- Node21 -->
<g id="Node000021" class="node">
<title>Node21</title>
<g id="a_Node000021"><a xlink:href="assert_8h.html" target="_top" xlink:title="POSIX.1&#45;2008 compliant version of the assert macro.">
<polygon fill="white" stroke="#666666" points="802.88,-77.5 747.88,-77.5 747.88,-56.75 802.88,-56.75 802.88,-77.5"/>
<text text-anchor="middle" x="775.38" y="-64" font-family="Helvetica,sans-Serif" font-size="10.00">assert.h</text>
</a>
</g>
</g>
<!-- Node20&#45;&gt;Node21 -->
<g id="edge31_Node000020_Node000021" class="edge">
<title>Node20&#45;&gt;Node21</title>
<g id="a_edge31_Node000020_Node000021"><a xlink:title=" ">
<path fill="none" stroke="#63b8ff" d="M727.74,-113.09C735.83,-105.46 747.26,-94.67 756.9,-85.57"/>
<polygon fill="#63b8ff" stroke="#63b8ff" points="759.13,-88.28 763.99,-78.87 754.32,-83.19 759.13,-88.28"/>
</a>
</g>
</g>
<!-- Node21&#45;&gt;Node4 -->
<g id="edge32_Node000021_Node000004" class="edge">
<title>Node21&#45;&gt;Node4</title>
<g id="a_edge32_Node000021_Node000004"><a xlink:title=" ">
<path fill="none" stroke="#63b8ff" d="M795.76,-56.34C813.34,-47.89 839,-35.57 859.01,-25.96"/>
<polygon fill="#63b8ff" stroke="#63b8ff" points="860.31,-29.22 867.81,-21.73 857.28,-22.91 860.31,-29.22"/>
</a>
</g>
</g>
<!-- Node22&#45;&gt;Node4 -->
<g id="edge36_Node000022_Node000004" class="edge">
<title>Node22&#45;&gt;Node4</title>
<g id="a_edge36_Node000022_Node000004"><a xlink:title=" ">
<path fill="none" stroke="#63b8ff" d="M534.91,-113.11C565.26,-99 624.12,-72.84 676.38,-56.75 736.49,-38.24 808.42,-24.63 851.43,-17.36"/>
<polygon fill="#63b8ff" stroke="#63b8ff" points="851.97,-20.82 861.26,-15.73 850.83,-13.91 851.97,-20.82"/>
</a>
</g>
</g>
<!-- Node22&#45;&gt;Node9 -->
<g id="edge35_Node000022_Node000009" class="edge">
<title>Node22&#45;&gt;Node9</title>
<g id="a_edge35_Node000022_Node000009"><a xlink:title=" ">
<path fill="none" stroke="#63b8ff" d="M498.28,-113.09C484.85,-104.91 465.44,-93.11 449.89,-83.65"/>
<polygon fill="#63b8ff" stroke="#63b8ff" points="451.98,-80.82 441.62,-78.62 448.34,-86.8 451.98,-80.82"/>
</a>
</g>
</g>
<!-- Node23&#45;&gt;Node14 -->
<g id="edge63_Node000023_Node000014" class="edge">
<title>Node23&#45;&gt;Node14</title>
<g id="a_edge63_Node000023_Node000014"><a xlink:title=" ">
<path fill="none" stroke="#63b8ff" d="M854.76,-340.18C830.02,-321.15 774.85,-278.73 744.11,-255.09"/>
<polygon fill="#63b8ff" stroke="#63b8ff" points="746.32,-252.38 736.26,-249.05 742.06,-257.92 746.32,-252.38"/>
</a>
</g>
</g>
<!-- Node23&#45;&gt;Node16 -->
<g id="edge62_Node000023_Node000016" class="edge">
<title>Node23&#45;&gt;Node16</title>
<g id="a_edge62_Node000023_Node000016"><a xlink:title=" ">
<path fill="none" stroke="#63b8ff" d="M861.5,-340.2C856.43,-331.28 849.46,-317.51 846.38,-304.5 838.07,-269.48 838.97,-227.29 840.55,-202.56"/>
<polygon fill="#63b8ff" stroke="#63b8ff" points="844.02,-203.1 841.28,-192.87 837.04,-202.57 844.02,-203.1"/>
</a>
</g>
</g>
<!-- Node24 -->
<g id="Node000024" class="node">
<title>Node24</title>
<g id="a_Node000024"><a xlink:href="eui__provider_8h.html" target="_top" xlink:title="EUI&#45;48 and EUI&#45;64 address provider.">
<polygon fill="white" stroke="#666666" points="959.62,-304.5 855.12,-304.5 855.12,-283.75 959.62,-283.75 959.62,-304.5"/>
<text text-anchor="middle" x="907.38" y="-291" font-family="Helvetica,sans-Serif" font-size="10.00">net/eui_provider.h</text>
</a>
</g>
</g>
<!-- Node23&#45;&gt;Node24 -->
<g id="edge38_Node000023_Node000024" class="edge">
<title>Node23&#45;&gt;Node24</title>
<g id="a_edge38_Node000023_Node000024"><a xlink:title=" ">
<path fill="none" stroke="#63b8ff" d="M874.53,-340.09C879.82,-332.85 887.19,-322.76 893.6,-313.97"/>
<polygon fill="#63b8ff" stroke="#63b8ff" points="896.32,-316.19 899.39,-306.05 890.67,-312.06 896.32,-316.19"/>
</a>
</g>
</g>
<!-- Node30 -->
<g id="Node000030" class="node">
<title>Node30</title>
<g id="a_Node000030"><a xlink:href="sys_2include_2net_2ieee802154_8h.html" target="_top" xlink:title="IEEE 802.15.4 header definitions.">
<polygon fill="white" stroke="#666666" points="1089.75,-247.75 989,-247.75 989,-227 1089.75,-227 1089.75,-247.75"/>
<text text-anchor="middle" x="1039.38" y="-234.25" font-family="Helvetica,sans-Serif" font-size="10.00">net/ieee802154.h</text>
</a>
</g>
</g>
<!-- Node23&#45;&gt;Node30 -->
<g id="edge51_Node000023_Node000030" class="edge">
<title>Node23&#45;&gt;Node30</title>
<g id="a_edge51_Node000023_Node000030"><a xlink:title=" ">
<path fill="none" stroke="#63b8ff" d="M895.65,-340.04C916.64,-332.08 945.47,-319.7 968.38,-304.5 989.29,-290.61 1009.92,-270.48 1023.51,-256.08"/>
<polygon fill="#63b8ff" stroke="#63b8ff" points="1025.76,-258.8 1029.97,-249.08 1020.62,-254.05 1025.76,-258.8"/>
</a>
</g>
</g>
<!-- Node23&#45;&gt;Node32 -->
<g id="edge57_Node000023_Node000032" class="edge">
<title>Node23&#45;&gt;Node32</title>
<g id="a_edge57_Node000023_Node000032"><a xlink:title=" ">
<path fill="none" stroke="#63b8ff" d="M926.57,-340.02C984.54,-330.38 1072.59,-315.72 1132.2,-305.8"/>
<polygon fill="#63b8ff" stroke="#63b8ff" points="1132.58,-309.29 1141.87,-304.2 1131.43,-302.39 1132.58,-309.29"/>
</a>
</g>
</g>
<!-- Node24&#45;&gt;Node14 -->
<g id="edge50_Node000024_Node000014" class="edge">
<title>Node24&#45;&gt;Node14</title>
<g id="a_edge50_Node000024_Node000014"><a xlink:title=" ">
<path fill="none" stroke="#63b8ff" d="M874.3,-283.34C844.14,-274.41 799.36,-261.16 766.23,-251.35"/>
<polygon fill="#63b8ff" stroke="#63b8ff" points="767.51,-248.08 756.93,-248.6 765.52,-254.79 767.51,-248.08"/>
</a>
</g>
</g>
<!-- Node25 -->
<g id="Node000025" class="node">
<title>Node25</title>
<g id="a_Node000025"><a xlink:href="eui48_8h.html" target="_top" xlink:title="Definition and IPv6 IID conversion for IEEE EUI&#45;48 identifiers.">
<polygon fill="white" stroke="#666666" points="933.75,-247.75 863,-247.75 863,-227 933.75,-227 933.75,-247.75"/>
<text text-anchor="middle" x="898.38" y="-234.25" font-family="Helvetica,sans-Serif" font-size="10.00">net/eui48.h</text>
</a>
</g>
</g>
<!-- Node24&#45;&gt;Node25 -->
<g id="edge39_Node000024_Node000025" class="edge">
<title>Node24&#45;&gt;Node25</title>
<g id="a_edge39_Node000024_Node000025"><a xlink:title=" ">
<path fill="none" stroke="#63b8ff" d="M905.77,-283.34C904.67,-276.64 903.16,-267.51 901.8,-259.23"/>
<polygon fill="#63b8ff" stroke="#63b8ff" points="905.29,-258.87 900.22,-249.57 898.38,-260.01 905.29,-258.87"/>
</a>
</g>
</g>
<!-- Node26 -->
<g id="Node000026" class="node">
<title>Node26</title>
<g id="a_Node000026"><a xlink:href="eui64_8h.html" target="_top" xlink:title="EUI&#45;64 data type definition.">
<polygon fill="white" stroke="#666666" points="1006.75,-191 936,-191 936,-170.25 1006.75,-170.25 1006.75,-191"/>
<text text-anchor="middle" x="971.38" y="-177.5" font-family="Helvetica,sans-Serif" font-size="10.00">net/eui64.h</text>
</a>
</g>
</g>
<!-- Node24&#45;&gt;Node26 -->
<g id="edge49_Node000024_Node000026" class="edge">
<title>Node24&#45;&gt;Node26</title>
<g id="a_edge49_Node000024_Node000026"><a xlink:title=" ">
<path fill="none" stroke="#63b8ff" d="M915.9,-283.53C923.48,-274.67 934.56,-260.93 942.38,-247.75 951.08,-233.07 958.72,-215.31 963.98,-201.89"/>
<polygon fill="#63b8ff" stroke="#63b8ff" points="967.15,-203.41 967.41,-192.82 960.6,-200.93 967.15,-203.41"/>
</a>
</g>
</g>
<!-- Node25&#45;&gt;Node4 -->
<g id="edge40_Node000025_Node000004" class="edge">
<title>Node25&#45;&gt;Node4</title>
<g id="a_edge40_Node000025_Node000004"><a xlink:title=" ">
<path fill="none" stroke="#63b8ff" d="M897.99,-226.71C896.64,-192.95 892.11,-79.84 890.22,-32.5"/>
<polygon fill="#63b8ff" stroke="#63b8ff" points="893.72,-32.37 889.82,-22.52 886.72,-32.65 893.72,-32.37"/>
</a>
</g>
</g>
<!-- Node25&#45;&gt;Node26 -->
<g id="edge41_Node000025_Node000026" class="edge">
<title>Node25&#45;&gt;Node26</title>
<g id="a_edge41_Node000025_Node000026"><a xlink:title=" ">
<path fill="none" stroke="#63b8ff" d="M911.43,-226.59C922.01,-218.65 937.17,-207.28 949.59,-197.96"/>
<polygon fill="#63b8ff" stroke="#63b8ff" points="951.33,-201.04 957.23,-192.24 947.13,-195.44 951.33,-201.04"/>
</a>
</g>
</g>
<!-- Node26&#45;&gt;Node4 -->
<g id="edge42_Node000026_Node000004" class="edge">
<title>Node26&#45;&gt;Node4</title>
<g id="a_edge42_Node000026_Node000004"><a xlink:title=" ">
<path fill="none" stroke="#63b8ff" d="M968.45,-170.01C961.81,-148.82 944.45,-96.77 922.38,-56.75 917.28,-47.51 910.59,-37.97 904.57,-30.04"/>
<polygon fill="#63b8ff" stroke="#63b8ff" points="907.33,-27.89 898.4,-22.18 901.82,-32.21 907.33,-27.89"/>
</a>
</g>
</g>
<!-- Node27 -->
<g id="Node000027" class="node">
<title>Node27</title>
<g id="a_Node000027"><a xlink:href="byteorder_8h.html" target="_top" xlink:title="Functions to work with different byte orders.">
<polygon fill="white" stroke="#666666" points="1092.5,-134.25 1020.25,-134.25 1020.25,-113.5 1092.5,-113.5 1092.5,-134.25"/>
<text text-anchor="middle" x="1056.38" y="-120.75" font-family="Helvetica,sans-Serif" font-size="10.00">byteorder.h</text>
</a>
</g>
</g>
<!-- Node26&#45;&gt;Node27 -->
<g id="edge43_Node000026_Node000027" class="edge">
<title>Node26&#45;&gt;Node27</title>
<g id="a_edge43_Node000026_Node000027"><a xlink:title=" ">
<path fill="none" stroke="#63b8ff" d="M986.57,-169.84C999.14,-161.74 1017.24,-150.08 1031.86,-140.67"/>
<polygon fill="#63b8ff" stroke="#63b8ff" points="1033.53,-143.76 1040.04,-135.4 1029.74,-137.87 1033.53,-143.76"/>
</a>
</g>
</g>
<!-- Node27&#45;&gt;Node4 -->
<g id="edge45_Node000027_Node000004" class="edge">
<title>Node27&#45;&gt;Node4</title>
<g id="a_edge45_Node000027_Node000004"><a xlink:title=" ">
<path fill="none" stroke="#63b8ff" d="M1057.01,-113.42C1057.42,-99.22 1056.01,-72.4 1041.38,-56.75 1011.97,-25.3 961.8,-15.34 927.18,-12.35"/>
<polygon fill="#63b8ff" stroke="#63b8ff" points="927.82,-8.89 917.61,-11.69 927.34,-15.87 927.82,-8.89"/>
</a>
</g>
</g>
<!-- Node27&#45;&gt;Node6 -->
<g id="edge46_Node000027_Node000006" class="edge">
<title>Node27&#45;&gt;Node6</title>
<g id="a_edge46_Node000027_Node000006"><a xlink:title=" ">
<path fill="none" stroke="#63b8ff" d="M1046.9,-113.09C1039.59,-105.53 1029.28,-94.89 1020.53,-85.85"/>
<polygon fill="#63b8ff" stroke="#63b8ff" points="1023.29,-83.67 1013.82,-78.92 1018.26,-88.54 1023.29,-83.67"/>
</a>
</g>
</g>
<!-- Node28 -->
<g id="Node000028" class="node">
<title>Node28</title>
<g id="a_Node000028"><a xlink:title=" ">
<polygon fill="#e0e0e0" stroke="#999999" points="1232.75,-77.5 1180,-77.5 1180,-56.75 1232.75,-56.75 1232.75,-77.5"/>
<text text-anchor="middle" x="1206.38" y="-64" font-family="Helvetica,sans-Serif" font-size="10.00">string.h</text>
</a>
</g>
</g>
<!-- Node27&#45;&gt;Node28 -->
<g id="edge44_Node000027_Node000028" class="edge">
<title>Node27&#45;&gt;Node28</title>
<g id="a_edge44_Node000027_Node000028"><a xlink:title=" ">
<path fill="none" stroke="#63b8ff" d="M1083.19,-113.09C1107.11,-104.36 1142.38,-91.48 1169.05,-81.75"/>
<polygon fill="#63b8ff" stroke="#63b8ff" points="1169.92,-85.16 1178.12,-78.44 1167.52,-78.58 1169.92,-85.16"/>
</a>
</g>
</g>
<!-- Node29 -->
<g id="Node000029" class="node">
<title>Node29</title>
<g id="a_Node000029"><a xlink:href="unaligned_8h.html" target="_top" xlink:title="Unaligned but safe memory access functions.">
<polygon fill="white" stroke="#666666" points="1161.88,-77.5 1088.88,-77.5 1088.88,-56.75 1161.88,-56.75 1161.88,-77.5"/>
<text text-anchor="middle" x="1125.38" y="-64" font-family="Helvetica,sans-Serif" font-size="10.00">unaligned.h</text>
</a>
</g>
</g>
<!-- Node27&#45;&gt;Node29 -->
<g id="edge47_Node000027_Node000029" class="edge">
<title>Node27&#45;&gt;Node29</title>
<g id="a_edge47_Node000027_Node000029"><a xlink:title=" ">
<path fill="none" stroke="#63b8ff" d="M1068.71,-113.09C1078.62,-105.22 1092.76,-94 1104.44,-84.74"/>
<polygon fill="#63b8ff" stroke="#63b8ff" points="1106.3,-87.73 1111.96,-78.77 1101.95,-82.24 1106.3,-87.73"/>
</a>
</g>
</g>
<!-- Node29&#45;&gt;Node4 -->
<g id="edge48_Node000029_Node000004" class="edge">
<title>Node29&#45;&gt;Node4</title>
<g id="a_edge48_Node000029_Node000004"><a xlink:title=" ">
<path fill="none" stroke="#63b8ff" d="M1088.5,-57.57C1044.59,-47.38 971.62,-30.46 927.27,-20.17"/>
<polygon fill="#63b8ff" stroke="#63b8ff" points="928.11,-16.77 917.58,-17.92 926.53,-23.59 928.11,-16.77"/>
</a>
</g>
</g>
<!-- Node30&#45;&gt;Node4 -->
<g id="edge52_Node000030_Node000004" class="edge">
<title>Node30&#45;&gt;Node4</title>
<g id="a_edge52_Node000030_Node000004"><a xlink:title=" ">
<path fill="none" stroke="#63b8ff" d="M1067.54,-226.52C1136.75,-200.89 1304.98,-129.08 1241.38,-56.75 1220.88,-33.44 1014.53,-18.71 927.63,-13.5"/>
<polygon fill="#63b8ff" stroke="#63b8ff" points="927.89,-10.01 917.7,-12.91 927.48,-17 927.89,-10.01"/>
</a>
</g>
</g>
<!-- Node30&#45;&gt;Node18 -->
<g id="edge56_Node000030_Node000018" class="edge">
<title>Node30&#45;&gt;Node18</title>
<g id="a_edge56_Node000030_Node000018"><a xlink:title=" ">
<path fill="none" stroke="#63b8ff" d="M1090.11,-228.4C1093.24,-227.93 1096.35,-227.45 1099.38,-227 1154.88,-218.67 1307.07,-227.88 1349.38,-191 1362.18,-179.84 1366.62,-160.68 1368.04,-145.85"/>
<polygon fill="#63b8ff" stroke="#63b8ff" points="1371.52,-146.36 1368.56,-136.19 1364.53,-145.99 1371.52,-146.36"/>
</a>
</g>
</g>
<!-- Node30&#45;&gt;Node26 -->
<g id="edge55_Node000030_Node000026" class="edge">
<title>Node30&#45;&gt;Node26</title>
<g id="a_edge55_Node000030_Node000026"><a xlink:title=" ">
<path fill="none" stroke="#63b8ff" d="M1027.22,-226.59C1017.55,-218.8 1003.79,-207.72 992.35,-198.51"/>
<polygon fill="#63b8ff" stroke="#63b8ff" points="994.59,-195.82 984.61,-192.28 990.2,-201.28 994.59,-195.82"/>
</a>
</g>
</g>
<!-- Node30&#45;&gt;Node27 -->
<g id="edge54_Node000030_Node000027" class="edge">
<title>Node30&#45;&gt;Node27</title>
<g id="a_edge54_Node000030_Node000027"><a xlink:title=" ">
<path fill="none" stroke="#63b8ff" d="M1040.82,-226.87C1043.55,-209.02 1049.48,-170.11 1053.18,-145.84"/>
<polygon fill="#63b8ff" stroke="#63b8ff" points="1056.61,-146.58 1054.65,-136.17 1049.69,-145.53 1056.61,-146.58"/>
</a>
</g>
</g>
<!-- Node31 -->
<g id="Node000031" class="node">
<title>Node31</title>
<g id="a_Node000031"><a xlink:title=" ">
<polygon fill="#e0e0e0" stroke="#999999" points="1340.38,-191 1288.38,-191 1288.38,-170.25 1340.38,-170.25 1340.38,-191"/>
<text text-anchor="middle" x="1314.38" y="-177.5" font-family="Helvetica,sans-Serif" font-size="10.00">stdlib.h</text>
</a>
</g>
</g>
<!-- Node30&#45;&gt;Node31 -->
<g id="edge53_Node000030_Node000031" class="edge">
<title>Node30&#45;&gt;Node31</title>
<g id="a_edge53_Node000030_Node000031"><a xlink:title=" ">
<path fill="none" stroke="#63b8ff" d="M1089.92,-227.21C1137.59,-218.43 1210.98,-204.54 1274.38,-191 1275.35,-190.79 1276.34,-190.58 1277.34,-190.36"/>
<polygon fill="#63b8ff" stroke="#63b8ff" points="1277.69,-193.87 1286.68,-188.26 1276.16,-187.04 1277.69,-193.87"/>
</a>
</g>
</g>
<!-- Node32&#45;&gt;Node18 -->
<g id="edge59_Node000032_Node000018" class="edge">
<title>Node32&#45;&gt;Node18</title>
<g id="a_edge59_Node000032_Node000018"><a xlink:title=" ">
<path fill="none" stroke="#63b8ff" d="M1249.17,-288.36C1301.55,-282.4 1376.52,-270.16 1394.38,-247.75 1418.38,-217.62 1396.87,-170.56 1381.24,-144.29"/>
<polygon fill="#63b8ff" stroke="#63b8ff" points="1384.32,-142.61 1376.04,-135.99 1378.38,-146.32 1384.32,-142.61"/>
</a>
</g>
</g>
<!-- Node33 -->
<g id="Node000033" class="node">
<title>Node33</title>
<g id="a_Node000033"><a xlink:href="inttypes_8h.html" target="_top" xlink:title="Adds include for missing inttype definitions.">
<polygon fill="white" stroke="#666666" points="1275.75,-247.75 1211,-247.75 1211,-227 1275.75,-227 1275.75,-247.75"/>
<text text-anchor="middle" x="1243.38" y="-234.25" font-family="Helvetica,sans-Serif" font-size="10.00">inttypes.h</text>
</a>
</g>
</g>
<!-- Node32&#45;&gt;Node33 -->
<g id="edge58_Node000032_Node000033" class="edge">
<title>Node32&#45;&gt;Node33</title>
<g id="a_edge58_Node000032_Node000033"><a xlink:title=" ">
<path fill="none" stroke="#63b8ff" d="M1204.78,-283.34C1211.13,-275.94 1220.03,-265.57 1227.68,-256.66"/>
<polygon fill="#63b8ff" stroke="#63b8ff" points="1230.2,-259.09 1234.06,-249.23 1224.89,-254.53 1230.2,-259.09"/>
</a>
</g>
</g>
<!-- Node34 -->
<g id="Node000034" class="node">
<title>Node34</title>
<g id="a_Node000034"><a xlink:href="ethertype_8h.html" target="_top" xlink:title="Ether type definitions.">
<polygon fill="white" stroke="#666666" points="1384.88,-247.75 1293.88,-247.75 1293.88,-227 1384.88,-227 1384.88,-247.75"/>
<text text-anchor="middle" x="1339.38" y="-234.25" font-family="Helvetica,sans-Serif" font-size="10.00">net/ethertype.h</text>
</a>
</g>
</g>
<!-- Node32&#45;&gt;Node34 -->
<g id="edge60_Node000032_Node000034" class="edge">
<title>Node32&#45;&gt;Node34</title>
<g id="a_edge60_Node000032_Node000034"><a xlink:title=" ">
<path fill="none" stroke="#63b8ff" d="M1221.94,-283.34C1244.61,-274.66 1277.97,-261.88 1303.35,-252.17"/>
<polygon fill="#63b8ff" stroke="#63b8ff" points="1304.53,-255.46 1312.62,-248.62 1302.03,-248.93 1304.53,-255.46"/>
</a>
</g>
</g>
<!-- Node35 -->
<g id="Node000035" class="node">
<title>Node35</title>
<g id="a_Node000035"><a xlink:href="protnum_8h.html" target="_top" xlink:title="Protocol number definitions.">
<polygon fill="white" stroke="#666666" points="1192.88,-247.75 1107.88,-247.75 1107.88,-227 1192.88,-227 1192.88,-247.75"/>
<text text-anchor="middle" x="1150.38" y="-234.25" font-family="Helvetica,sans-Serif" font-size="10.00">net/protnum.h</text>
</a>
</g>
</g>
<!-- Node32&#45;&gt;Node35 -->
<g id="edge61_Node000032_Node000035" class="edge">
<title>Node32&#45;&gt;Node35</title>
<g id="a_edge61_Node000032_Node000035"><a xlink:title=" ">
<path fill="none" stroke="#63b8ff" d="M1188.15,-283.34C1181.94,-275.94 1173.23,-265.57 1165.74,-256.66"/>
<polygon fill="#63b8ff" stroke="#63b8ff" points="1168.61,-254.64 1159.5,-249.24 1163.25,-259.15 1168.61,-254.64"/>
</a>
</g>
</g>
</g>
</svg>
