<?xml version="1.0" encoding="UTF-8" standalone="no"?>
<!DOCTYPE svg PUBLIC "-//W3C//DTD SVG 1.1//EN"
 "http://www.w3.org/Graphics/SVG/1.1/DTD/svg11.dtd">
<!-- Generated by graphviz version 12.1.2 (0)
 -->
<!-- Title: drivers/include/mtd.h Pages: 1 -->
<svg width="635pt" height="98pt"
 viewBox="0.00 0.00 634.50 98.25" xmlns="http://www.w3.org/2000/svg" xmlns:xlink="http://www.w3.org/1999/xlink">
<g id="graph0" class="graph" transform="scale(1 1) rotate(0) translate(4 94.25)">
<title>drivers/include/mtd.h</title>
<!-- Node1 -->
<g id="Node000001" class="node">
<title>Node1</title>
<g id="a_Node000001"><a xlink:title=" ">
<polygon fill="#999999" stroke="#666666" points="373,-90.25 253.5,-90.25 253.5,-69.5 373,-69.5 373,-90.25"/>
<text text-anchor="middle" x="313.25" y="-76.75" font-family="Helvetica,sans-Serif" font-size="10.00">drivers/include/mtd.h</text>
</a>
</g>
</g>
<!-- Node2 -->
<g id="Node000002" class="node">
<title>Node2</title>
<g id="a_Node000002"><a xlink:href="mtd__at24cxxx_8h.html" target="_top" xlink:title="Interface definition for at24cxxx MTD wrapper.">
<polygon fill="white" stroke="#666666" points="110.5,-33.5 0,-33.5 0,0 110.5,0 110.5,-33.5"/>
<text text-anchor="start" x="8" y="-20" font-family="Helvetica,sans-Serif" font-size="10.00">drivers/include/mtd</text>
<text text-anchor="middle" x="55.25" y="-7.25" font-family="Helvetica,sans-Serif" font-size="10.00">_at24cxxx.h</text>
</a>
</g>
</g>
<!-- Node1&#45;&gt;Node2 -->
<g id="edge1_Node000001_Node000002" class="edge">
<title>Node1&#45;&gt;Node2</title>
<g id="a_edge1_Node000001_Node000002"><a xlink:title=" ">
<path fill="none" stroke="#63b8ff" d="M260.04,-66.47C221.27,-57.4 167.48,-44.77 120.25,-33.5 117.2,-32.77 114.07,-32.02 110.91,-31.26"/>
<polygon fill="#63b8ff" stroke="#63b8ff" points="259.05,-69.83 269.59,-68.7 260.65,-63.02 259.05,-69.83"/>
</a>
</g>
</g>
<!-- Node3 -->
<g id="Node000003" class="node">
<title>Node3</title>
<g id="a_Node000003"><a xlink:href="mtd__flashpage_8h.html" target="_top" xlink:title="Interface definition for the flashpage memory driver.">
<polygon fill="white" stroke="#666666" points="239.5,-33.5 129,-33.5 129,0 239.5,0 239.5,-33.5"/>
<text text-anchor="start" x="137" y="-20" font-family="Helvetica,sans-Serif" font-size="10.00">drivers/include/mtd</text>
<text text-anchor="middle" x="184.25" y="-7.25" font-family="Helvetica,sans-Serif" font-size="10.00">_flashpage.h</text>
</a>
</g>
</g>
<!-- Node1&#45;&gt;Node3 -->
<g id="edge2_Node000001_Node000003" class="edge">
<title>Node1&#45;&gt;Node3</title>
<g id="a_edge2_Node000001_Node000003"><a xlink:title=" ">
<path fill="none" stroke="#63b8ff" d="M282.2,-64.16C262.99,-55.06 238.3,-43.36 218.51,-33.98"/>
<polygon fill="#63b8ff" stroke="#63b8ff" points="280.62,-67.29 291.16,-68.41 283.62,-60.96 280.62,-67.29"/>
</a>
</g>
</g>
<!-- Node4 -->
<g id="Node000004" class="node">
<title>Node4</title>
<g id="a_Node000004"><a xlink:href="mtd__sdcard_8h.html" target="_top" xlink:title="Interface definition for the mtd_sdcard driver.">
<polygon fill="white" stroke="#666666" points="368.5,-33.5 258,-33.5 258,0 368.5,0 368.5,-33.5"/>
<text text-anchor="start" x="266" y="-20" font-family="Helvetica,sans-Serif" font-size="10.00">drivers/include/mtd</text>
<text text-anchor="middle" x="313.25" y="-7.25" font-family="Helvetica,sans-Serif" font-size="10.00">_sdcard.h</text>
</a>
</g>
</g>
<!-- Node1&#45;&gt;Node4 -->
<g id="edge3_Node000001_Node000004" class="edge">
<title>Node1&#45;&gt;Node4</title>
<g id="a_edge3_Node000001_Node000004"><a xlink:title=" ">
<path fill="none" stroke="#63b8ff" d="M313.25,-57.59C313.25,-49.85 313.25,-41.22 313.25,-33.98"/>
<polygon fill="#63b8ff" stroke="#63b8ff" points="309.75,-57.54 313.25,-67.54 316.75,-57.54 309.75,-57.54"/>
</a>
</g>
</g>
<!-- Node5 -->
<g id="Node000005" class="node">
<title>Node5</title>
<g id="a_Node000005"><a xlink:href="mtd__sdmmc_8h.html" target="_top" xlink:title="Interface definition for the mtd_sdmmc driver.">
<polygon fill="white" stroke="#666666" points="497.5,-33.5 387,-33.5 387,0 497.5,0 497.5,-33.5"/>
<text text-anchor="start" x="395" y="-20" font-family="Helvetica,sans-Serif" font-size="10.00">drivers/include/mtd</text>
<text text-anchor="middle" x="442.25" y="-7.25" font-family="Helvetica,sans-Serif" font-size="10.00">_sdmmc.h</text>
</a>
</g>
</g>
<!-- Node1&#45;&gt;Node5 -->
<g id="edge4_Node000001_Node000005" class="edge">
<title>Node1&#45;&gt;Node5</title>
<g id="a_edge4_Node000001_Node000005"><a xlink:title=" ">
<path fill="none" stroke="#63b8ff" d="M344.3,-64.16C363.51,-55.06 388.2,-43.36 407.99,-33.98"/>
<polygon fill="#63b8ff" stroke="#63b8ff" points="342.88,-60.96 335.34,-68.41 345.88,-67.29 342.88,-60.96"/>
</a>
</g>
</g>
<!-- Node6 -->
<g id="Node000006" class="node">
<title>Node6</title>
<g id="a_Node000006"><a xlink:href="mtd__spi__nor_8h.html" target="_top" xlink:title="Interface definition for the serial flash memory driver.">
<polygon fill="white" stroke="#666666" points="626.5,-33.5 516,-33.5 516,0 626.5,0 626.5,-33.5"/>
<text text-anchor="start" x="524" y="-20" font-family="Helvetica,sans-Serif" font-size="10.00">drivers/include/mtd</text>
<text text-anchor="middle" x="571.25" y="-7.25" font-family="Helvetica,sans-Serif" font-size="10.00">_spi_nor.h</text>
</a>
</g>
</g>
<!-- Node1&#45;&gt;Node6 -->
<g id="edge5_Node000001_Node000006" class="edge">
<title>Node1&#45;&gt;Node6</title>
<g id="a_edge5_Node000001_Node000006"><a xlink:title=" ">
<path fill="none" stroke="#63b8ff" d="M366.46,-66.47C405.23,-57.4 459.02,-44.77 506.25,-33.5 509.3,-32.77 512.43,-32.02 515.59,-31.26"/>
<polygon fill="#63b8ff" stroke="#63b8ff" points="365.85,-63.02 356.91,-68.7 367.45,-69.83 365.85,-63.02"/>
</a>
</g>
</g>
</g>
</svg>
