<?xml version="1.0" encoding="UTF-8" standalone="no"?>
<!DOCTYPE svg PUBLIC "-//W3C//DTD SVG 1.1//EN"
 "http://www.w3.org/Graphics/SVG/1.1/DTD/svg11.dtd">
<!-- Generated by graphviz version 12.1.2 (0)
 -->
<!-- Title: sys/include/net/netstats/neighbor.h Pages: 1 -->
<svg width="914pt" height="496pt"
 viewBox="0.00 0.00 913.53 495.50" xmlns="http://www.w3.org/2000/svg" xmlns:xlink="http://www.w3.org/1999/xlink">
<g id="graph0" class="graph" transform="scale(1 1) rotate(0) translate(4 491.5)">
<title>sys/include/net/netstats/neighbor.h</title>
<!-- Node1 -->
<g id="Node000001" class="node">
<title>Node1</title>
<g id="a_Node000001"><a xlink:title="Records statistics about link layer neighbors.">
<polygon fill="#999999" stroke="#666666" points="502.12,-487.5 369.88,-487.5 369.88,-454 502.12,-454 502.12,-487.5"/>
<text text-anchor="start" x="377.88" y="-474" font-family="Helvetica,sans-Serif" font-size="10.00">sys/include/net/netstats</text>
<text text-anchor="middle" x="436" y="-461.25" font-family="Helvetica,sans-Serif" font-size="10.00">/neighbor.h</text>
</a>
</g>
</g>
<!-- Node2 -->
<g id="Node000002" class="node">
<title>Node2</title>
<g id="a_Node000002"><a xlink:title=" ">
<polygon fill="#e0e0e0" stroke="#999999" points="83.38,-77.5 30.62,-77.5 30.62,-56.75 83.38,-56.75 83.38,-77.5"/>
<text text-anchor="middle" x="57" y="-64" font-family="Helvetica,sans-Serif" font-size="10.00">string.h</text>
</a>
</g>
</g>
<!-- Node1&#45;&gt;Node2 -->
<g id="edge1_Node000001_Node000002" class="edge">
<title>Node1&#45;&gt;Node2</title>
<g id="a_edge1_Node000001_Node000002"><a xlink:title=" ">
<path fill="none" stroke="#63b8ff" d="M369.78,-465.6C247.81,-456.11 0,-427.54 0,-351.88 0,-351.88 0,-351.88 0,-179.62 0,-143.59 23.89,-107.48 40.74,-86.49"/>
<polygon fill="#63b8ff" stroke="#63b8ff" points="43.38,-88.79 47.12,-78.88 38.02,-84.3 43.38,-88.79"/>
</a>
</g>
</g>
<!-- Node3 -->
<g id="Node000003" class="node">
<title>Node3</title>
<g id="a_Node000003"><a xlink:href="netif_8h.html" target="_top" xlink:title="Common network interface API definitions.">
<polygon fill="white" stroke="#666666" points="468.75,-418 403.25,-418 403.25,-397.25 468.75,-397.25 468.75,-418"/>
<text text-anchor="middle" x="436" y="-404.5" font-family="Helvetica,sans-Serif" font-size="10.00">net/netif.h</text>
</a>
</g>
</g>
<!-- Node1&#45;&gt;Node3 -->
<g id="edge2_Node000001_Node000003" class="edge">
<title>Node1&#45;&gt;Node3</title>
<g id="a_edge2_Node000001_Node000003"><a xlink:title=" ">
<path fill="none" stroke="#63b8ff" d="M436,-453.69C436,-446.35 436,-437.57 436,-429.71"/>
<polygon fill="#63b8ff" stroke="#63b8ff" points="439.5,-429.98 436,-419.98 432.5,-429.98 439.5,-429.98"/>
</a>
</g>
</g>
<!-- Node21 -->
<g id="Node000021" class="node">
<title>Node21</title>
<g id="a_Node000021"><a xlink:href="timex_8h.html" target="_top" xlink:title="Utility library for comparing and computing timestamps.">
<polygon fill="white" stroke="#666666" points="836.75,-247.75 783.25,-247.75 783.25,-227 836.75,-227 836.75,-247.75"/>
<text text-anchor="middle" x="810" y="-234.25" font-family="Helvetica,sans-Serif" font-size="10.00">timex.h</text>
</a>
</g>
</g>
<!-- Node1&#45;&gt;Node21 -->
<g id="edge40_Node000001_Node000021" class="edge">
<title>Node1&#45;&gt;Node21</title>
<g id="a_edge40_Node000001_Node000021"><a xlink:title=" ">
<path fill="none" stroke="#63b8ff" d="M502.48,-455.81C563.69,-440.47 654.64,-411.12 720,-361.25 757.16,-332.9 785.91,-285.12 800.15,-258.26"/>
<polygon fill="#63b8ff" stroke="#63b8ff" points="803.2,-259.99 804.65,-249.49 796.97,-256.79 803.2,-259.99"/>
</a>
</g>
</g>
<!-- Node3&#45;&gt;Node2 -->
<g id="edge4_Node000003_Node000002" class="edge">
<title>Node3&#45;&gt;Node2</title>
<g id="a_edge4_Node000003_Node000002"><a xlink:title=" ">
<path fill="none" stroke="#63b8ff" d="M402.75,-404.47C307.1,-397.36 38,-370.65 38,-295.12 38,-295.12 38,-295.12 38,-179.62 38,-147.63 45.7,-111.2 51.29,-88.93"/>
<polygon fill="#63b8ff" stroke="#63b8ff" points="54.66,-89.9 53.81,-79.34 47.89,-88.12 54.66,-89.9"/>
</a>
</g>
</g>
<!-- Node4 -->
<g id="Node000004" class="node">
<title>Node4</title>
<g id="a_Node000004"><a xlink:title=" ">
<polygon fill="#e0e0e0" stroke="#999999" points="483.38,-20.75 430.62,-20.75 430.62,0 483.38,0 483.38,-20.75"/>
<text text-anchor="middle" x="457" y="-7.25" font-family="Helvetica,sans-Serif" font-size="10.00">stdint.h</text>
</a>
</g>
</g>
<!-- Node3&#45;&gt;Node4 -->
<g id="edge3_Node000003_Node000004" class="edge">
<title>Node3&#45;&gt;Node4</title>
<g id="a_edge3_Node000003_Node000004"><a xlink:title=" ">
<path fill="none" stroke="#63b8ff" d="M469.11,-407.51C541.21,-407.55 706,-396.55 706,-295.12 706,-295.12 706,-295.12 706,-122.88 706,-31.53 564.7,-14.54 494.99,-11.71"/>
<polygon fill="#63b8ff" stroke="#63b8ff" points="495.27,-8.21 485.16,-11.4 495.04,-15.21 495.27,-8.21"/>
</a>
</g>
</g>
<!-- Node5 -->
<g id="Node000005" class="node">
<title>Node5</title>
<g id="a_Node000005"><a xlink:href="list_8h.html" target="_top" xlink:title="Intrusive linked list.">
<polygon fill="white" stroke="#666666" points="386,-361.25 346,-361.25 346,-340.5 386,-340.5 386,-361.25"/>
<text text-anchor="middle" x="366" y="-347.75" font-family="Helvetica,sans-Serif" font-size="10.00">list.h</text>
</a>
</g>
</g>
<!-- Node3&#45;&gt;Node5 -->
<g id="edge5_Node000003_Node000005" class="edge">
<title>Node3&#45;&gt;Node5</title>
<g id="a_edge5_Node000003_Node000005"><a xlink:title=" ">
<path fill="none" stroke="#63b8ff" d="M423.49,-396.84C413.43,-388.97 399.09,-377.75 387.24,-368.49"/>
<polygon fill="#63b8ff" stroke="#63b8ff" points="389.63,-365.91 379.6,-362.51 385.32,-371.43 389.63,-365.91"/>
</a>
</g>
</g>
<!-- Node6 -->
<g id="Node000006" class="node">
<title>Node6</title>
<g id="a_Node000006"><a xlink:href="netopt_8h.html" target="_top" xlink:title="Definition of global configuration options.">
<polygon fill="white" stroke="#666666" points="677.62,-191 602.38,-191 602.38,-170.25 677.62,-170.25 677.62,-191"/>
<text text-anchor="middle" x="640" y="-177.5" font-family="Helvetica,sans-Serif" font-size="10.00">net/netopt.h</text>
</a>
</g>
</g>
<!-- Node3&#45;&gt;Node6 -->
<g id="edge6_Node000003_Node000006" class="edge">
<title>Node3&#45;&gt;Node6</title>
<g id="a_edge6_Node000003_Node000006"><a xlink:title=" ">
<path fill="none" stroke="#63b8ff" d="M444.77,-396.96C476.09,-362.41 582.78,-244.73 623.78,-199.52"/>
<polygon fill="#63b8ff" stroke="#63b8ff" points="626.13,-202.14 630.25,-192.38 620.94,-197.44 626.13,-202.14"/>
</a>
</g>
</g>
<!-- Node8 -->
<g id="Node000008" class="node">
<title>Node8</title>
<g id="a_Node000008"><a xlink:href="ipv6_8h.html" target="_top" xlink:title="IPv6 include gathering header.">
<polygon fill="white" stroke="#666666" points="468.38,-361.25 403.62,-361.25 403.62,-340.5 468.38,-340.5 468.38,-361.25"/>
<text text-anchor="middle" x="436" y="-347.75" font-family="Helvetica,sans-Serif" font-size="10.00">net/ipv6.h</text>
</a>
</g>
</g>
<!-- Node3&#45;&gt;Node8 -->
<g id="edge9_Node000003_Node000008" class="edge">
<title>Node3&#45;&gt;Node8</title>
<g id="a_edge9_Node000003_Node000008"><a xlink:title=" ">
<path fill="none" stroke="#63b8ff" d="M436,-396.84C436,-390.22 436,-381.22 436,-373.02"/>
<polygon fill="#63b8ff" stroke="#63b8ff" points="439.5,-373.09 436,-363.09 432.5,-373.09 439.5,-373.09"/>
</a>
</g>
</g>
<!-- Node6&#45;&gt;Node4 -->
<g id="edge7_Node000006_Node000004" class="edge">
<title>Node6&#45;&gt;Node4</title>
<g id="a_edge7_Node000006_Node000004"><a xlink:title=" ">
<path fill="none" stroke="#63b8ff" d="M641.13,-170.2C642.27,-156.52 642.49,-130.9 631,-113.5 598.97,-65.01 535.38,-36.48 494.58,-22.4"/>
<polygon fill="#63b8ff" stroke="#63b8ff" points="495.76,-19.1 485.17,-19.29 493.56,-25.75 495.76,-19.1"/>
</a>
</g>
</g>
<!-- Node7 -->
<g id="Node000007" class="node">
<title>Node7</title>
<g id="a_Node000007"><a xlink:title=" ">
<polygon fill="#e0e0e0" stroke="#999999" points="390.5,-134.25 329.5,-134.25 329.5,-113.5 390.5,-113.5 390.5,-134.25"/>
<text text-anchor="middle" x="360" y="-120.75" font-family="Helvetica,sans-Serif" font-size="10.00">stdbool.h</text>
</a>
</g>
</g>
<!-- Node6&#45;&gt;Node7 -->
<g id="edge8_Node000006_Node000007" class="edge">
<title>Node6&#45;&gt;Node7</title>
<g id="a_edge8_Node000006_Node000007"><a xlink:title=" ">
<path fill="none" stroke="#63b8ff" d="M601.95,-172.18C549.71,-161.97 456.11,-143.67 401.92,-133.07"/>
<polygon fill="#63b8ff" stroke="#63b8ff" points="402.63,-129.64 392.14,-131.16 401.28,-136.51 402.63,-129.64"/>
</a>
</g>
</g>
<!-- Node9 -->
<g id="Node000009" class="node">
<title>Node9</title>
<g id="a_Node000009"><a xlink:href="ipv6_2addr_8h.html" target="_top" xlink:title="Definitions for IPv6 addresses.">
<polygon fill="white" stroke="#666666" points="158.75,-247.75 69.25,-247.75 69.25,-227 158.75,-227 158.75,-247.75"/>
<text text-anchor="middle" x="114" y="-234.25" font-family="Helvetica,sans-Serif" font-size="10.00">net/ipv6/addr.h</text>
</a>
</g>
</g>
<!-- Node8&#45;&gt;Node9 -->
<g id="edge10_Node000008_Node000009" class="edge">
<title>Node8&#45;&gt;Node9</title>
<g id="a_edge10_Node000008_Node000009"><a xlink:title=" ">
<path fill="none" stroke="#63b8ff" d="M403.37,-340.86C372.63,-332.17 325.39,-318.36 285,-304.5 236.91,-288.01 182.27,-266.35 147.97,-252.4"/>
<polygon fill="#63b8ff" stroke="#63b8ff" points="149.56,-249.27 138.98,-248.73 146.91,-255.75 149.56,-249.27"/>
</a>
</g>
</g>
<!-- Node15 -->
<g id="Node000015" class="node">
<title>Node15</title>
<g id="a_Node000015"><a xlink:href="ipv6_2ext_8h.html" target="_top" xlink:title="IPv6 extension header definitions.">
<polygon fill="white" stroke="#666666" points="568.75,-247.75 485.25,-247.75 485.25,-227 568.75,-227 568.75,-247.75"/>
<text text-anchor="middle" x="527" y="-234.25" font-family="Helvetica,sans-Serif" font-size="10.00">net/ipv6/ext.h</text>
</a>
</g>
</g>
<!-- Node8&#45;&gt;Node15 -->
<g id="edge25_Node000008_Node000015" class="edge">
<title>Node8&#45;&gt;Node15</title>
<g id="a_edge25_Node000008_Node000015"><a xlink:title=" ">
<path fill="none" stroke="#63b8ff" d="M443.76,-340.37C458.79,-321.95 492.14,-281.09 511.76,-257.05"/>
<polygon fill="#63b8ff" stroke="#63b8ff" points="514.43,-259.31 518.04,-249.35 509.01,-254.88 514.43,-259.31"/>
</a>
</g>
</g>
<!-- Node18 -->
<g id="Node000018" class="node">
<title>Node18</title>
<g id="a_Node000018"><a xlink:href="net_2ipv6_2hdr_8h.html" target="_top" xlink:title="IPv6 header type and helper function definitions.">
<polygon fill="white" stroke="#666666" points="377.75,-304.5 294.25,-304.5 294.25,-283.75 377.75,-283.75 377.75,-304.5"/>
<text text-anchor="middle" x="336" y="-291" font-family="Helvetica,sans-Serif" font-size="10.00">net/ipv6/hdr.h</text>
</a>
</g>
</g>
<!-- Node8&#45;&gt;Node18 -->
<g id="edge33_Node000008_Node000018" class="edge">
<title>Node8&#45;&gt;Node18</title>
<g id="a_edge33_Node000008_Node000018"><a xlink:title=" ">
<path fill="none" stroke="#63b8ff" d="M418.12,-340.09C402.91,-331.76 380.81,-319.66 363.37,-310.11"/>
<polygon fill="#63b8ff" stroke="#63b8ff" points="365.5,-307.29 355.05,-305.56 362.14,-313.43 365.5,-307.29"/>
</a>
</g>
</g>
<!-- Node9&#45;&gt;Node2 -->
<g id="edge12_Node000009_Node000002" class="edge">
<title>Node9&#45;&gt;Node2</title>
<g id="a_edge12_Node000009_Node000002"><a xlink:title=" ">
<path fill="none" stroke="#63b8ff" d="M110.77,-226.85C101.8,-200.37 76.41,-125.43 64,-88.8"/>
<polygon fill="#63b8ff" stroke="#63b8ff" points="67.34,-87.75 60.82,-79.4 60.71,-90 67.34,-87.75"/>
</a>
</g>
</g>
<!-- Node9&#45;&gt;Node7 -->
<g id="edge11_Node000009_Node000007" class="edge">
<title>Node9&#45;&gt;Node7</title>
<g id="a_edge11_Node000009_Node000007"><a xlink:title=" ">
<path fill="none" stroke="#63b8ff" d="M158.93,-229.26C193.2,-222.61 240.85,-210.69 279,-191 303.54,-178.33 327.52,-157.37 342.94,-142.44"/>
<polygon fill="#63b8ff" stroke="#63b8ff" points="345.27,-145.06 349.89,-135.52 340.34,-140.09 345.27,-145.06"/>
</a>
</g>
</g>
<!-- Node10 -->
<g id="Node000010" class="node">
<title>Node10</title>
<g id="a_Node000010"><a xlink:href="byteorder_8h.html" target="_top" xlink:title="Functions to work with different byte orders.">
<polygon fill="white" stroke="#666666" points="238.12,-134.25 165.88,-134.25 165.88,-113.5 238.12,-113.5 238.12,-134.25"/>
<text text-anchor="middle" x="202" y="-120.75" font-family="Helvetica,sans-Serif" font-size="10.00">byteorder.h</text>
</a>
</g>
</g>
<!-- Node9&#45;&gt;Node10 -->
<g id="edge13_Node000009_Node000010" class="edge">
<title>Node9&#45;&gt;Node10</title>
<g id="a_edge13_Node000009_Node000010"><a xlink:title=" ">
<path fill="none" stroke="#63b8ff" d="M115.66,-226.52C118.37,-212.76 124.82,-187.54 138,-170.25 147.16,-158.23 160.4,-148.11 172.46,-140.49"/>
<polygon fill="#63b8ff" stroke="#63b8ff" points="174.09,-143.6 180.9,-135.48 170.52,-137.58 174.09,-143.6"/>
</a>
</g>
</g>
<!-- Node13 -->
<g id="Node000013" class="node">
<title>Node13</title>
<g id="a_Node000013"><a xlink:href="ipv4_2addr_8h.html" target="_top" xlink:title="IPv4 address type and helper functions definitions.">
<polygon fill="white" stroke="#666666" points="269.75,-191 180.25,-191 180.25,-170.25 269.75,-170.25 269.75,-191"/>
<text text-anchor="middle" x="225" y="-177.5" font-family="Helvetica,sans-Serif" font-size="10.00">net/ipv4/addr.h</text>
</a>
</g>
</g>
<!-- Node9&#45;&gt;Node13 -->
<g id="edge20_Node000009_Node000013" class="edge">
<title>Node9&#45;&gt;Node13</title>
<g id="a_edge20_Node000009_Node000013"><a xlink:title=" ">
<path fill="none" stroke="#63b8ff" d="M133.84,-226.59C150.89,-218.18 175.72,-205.93 195.16,-196.34"/>
<polygon fill="#63b8ff" stroke="#63b8ff" points="196.55,-199.56 203.97,-192 193.45,-193.28 196.55,-199.56"/>
</a>
</g>
</g>
<!-- Node10&#45;&gt;Node2 -->
<g id="edge14_Node000010_Node000002" class="edge">
<title>Node10&#45;&gt;Node2</title>
<g id="a_edge14_Node000010_Node000002"><a xlink:title=" ">
<path fill="none" stroke="#63b8ff" d="M176.08,-113.09C152.98,-104.37 118.96,-91.52 93.18,-81.79"/>
<polygon fill="#63b8ff" stroke="#63b8ff" points="94.71,-78.62 84.11,-78.36 92.23,-85.17 94.71,-78.62"/>
</a>
</g>
</g>
<!-- Node10&#45;&gt;Node4 -->
<g id="edge15_Node000010_Node000004" class="edge">
<title>Node10&#45;&gt;Node4</title>
<g id="a_edge15_Node000010_Node000004"><a xlink:title=" ">
<path fill="none" stroke="#63b8ff" d="M237.9,-113.03C265.95,-104.86 305.64,-92.21 339,-77.5 372.5,-62.73 408.97,-41.42 432.36,-27.02"/>
<polygon fill="#63b8ff" stroke="#63b8ff" points="433.91,-30.18 440.55,-21.92 430.21,-24.23 433.91,-30.18"/>
</a>
</g>
</g>
<!-- Node11 -->
<g id="Node000011" class="node">
<title>Node11</title>
<g id="a_Node000011"><a xlink:href="endian_8h.html" target="_top" xlink:title="libc header for endian conversion">
<polygon fill="white" stroke="#666666" points="235,-77.5 177,-77.5 177,-56.75 235,-56.75 235,-77.5"/>
<text text-anchor="middle" x="206" y="-64" font-family="Helvetica,sans-Serif" font-size="10.00">endian.h</text>
</a>
</g>
</g>
<!-- Node10&#45;&gt;Node11 -->
<g id="edge16_Node000010_Node000011" class="edge">
<title>Node10&#45;&gt;Node11</title>
<g id="a_edge16_Node000010_Node000011"><a xlink:title=" ">
<path fill="none" stroke="#63b8ff" d="M202.72,-113.09C203.2,-106.47 203.86,-97.47 204.46,-89.27"/>
<polygon fill="#63b8ff" stroke="#63b8ff" points="207.94,-89.57 205.18,-79.34 200.96,-89.06 207.94,-89.57"/>
</a>
</g>
</g>
<!-- Node12 -->
<g id="Node000012" class="node">
<title>Node12</title>
<g id="a_Node000012"><a xlink:href="unaligned_8h.html" target="_top" xlink:title="Unaligned but safe memory access functions.">
<polygon fill="white" stroke="#666666" points="330.5,-77.5 257.5,-77.5 257.5,-56.75 330.5,-56.75 330.5,-77.5"/>
<text text-anchor="middle" x="294" y="-64" font-family="Helvetica,sans-Serif" font-size="10.00">unaligned.h</text>
</a>
</g>
</g>
<!-- Node10&#45;&gt;Node12 -->
<g id="edge18_Node000010_Node000012" class="edge">
<title>Node10&#45;&gt;Node12</title>
<g id="a_edge18_Node000010_Node000012"><a xlink:title=" ">
<path fill="none" stroke="#63b8ff" d="M218.45,-113.09C232.18,-104.91 252.02,-93.11 267.92,-83.65"/>
<polygon fill="#63b8ff" stroke="#63b8ff" points="269.59,-86.72 276.39,-78.6 266.01,-80.71 269.59,-86.72"/>
</a>
</g>
</g>
<!-- Node11&#45;&gt;Node4 -->
<g id="edge17_Node000011_Node000004" class="edge">
<title>Node11&#45;&gt;Node4</title>
<g id="a_edge17_Node000011_Node000004"><a xlink:title=" ">
<path fill="none" stroke="#63b8ff" d="M235.37,-59.55C239.61,-58.6 243.91,-57.65 248,-56.75 307.83,-43.58 377.35,-28.54 419.22,-19.51"/>
<polygon fill="#63b8ff" stroke="#63b8ff" points="419.75,-22.97 428.79,-17.45 418.27,-16.13 419.75,-22.97"/>
</a>
</g>
</g>
<!-- Node12&#45;&gt;Node4 -->
<g id="edge19_Node000012_Node000004" class="edge">
<title>Node12&#45;&gt;Node4</title>
<g id="a_edge19_Node000012_Node000004"><a xlink:title=" ">
<path fill="none" stroke="#63b8ff" d="M323.14,-56.34C350.1,-47.28 390.31,-33.78 419.62,-23.93"/>
<polygon fill="#63b8ff" stroke="#63b8ff" points="420.47,-27.34 428.84,-20.83 418.24,-20.7 420.47,-27.34"/>
</a>
</g>
</g>
<!-- Node13&#45;&gt;Node4 -->
<g id="edge22_Node000013_Node000004" class="edge">
<title>Node13&#45;&gt;Node4</title>
<g id="a_edge22_Node000013_Node000004"><a xlink:title=" ">
<path fill="none" stroke="#63b8ff" d="M199.16,-169.79C183.91,-162.49 165.9,-150.89 157,-134.25 146.9,-115.36 156.28,-68.06 168,-56.75 203.15,-22.83 348.67,-14.27 418.83,-12.1"/>
<polygon fill="#63b8ff" stroke="#63b8ff" points="418.8,-15.61 428.7,-11.83 418.61,-8.61 418.8,-15.61"/>
</a>
</g>
</g>
<!-- Node13&#45;&gt;Node7 -->
<g id="edge21_Node000013_Node000007" class="edge">
<title>Node13&#45;&gt;Node7</title>
<g id="a_edge21_Node000013_Node000007"><a xlink:title=" ">
<path fill="none" stroke="#63b8ff" d="M249.14,-169.84C270.44,-161.19 301.75,-148.5 325.67,-138.8"/>
<polygon fill="#63b8ff" stroke="#63b8ff" points="326.72,-142.15 334.67,-135.15 324.09,-135.66 326.72,-142.15"/>
</a>
</g>
</g>
<!-- Node13&#45;&gt;Node10 -->
<g id="edge24_Node000013_Node000010" class="edge">
<title>Node13&#45;&gt;Node10</title>
<g id="a_edge24_Node000013_Node000010"><a xlink:title=" ">
<path fill="none" stroke="#63b8ff" d="M220.89,-169.84C218.01,-162.99 214.06,-153.59 210.52,-145.15"/>
<polygon fill="#63b8ff" stroke="#63b8ff" points="213.76,-143.84 206.66,-135.97 207.31,-146.55 213.76,-143.84"/>
</a>
</g>
</g>
<!-- Node14 -->
<g id="Node000014" class="node">
<title>Node14</title>
<g id="a_Node000014"><a xlink:title=" ">
<polygon fill="#e0e0e0" stroke="#999999" points="311.5,-134.25 256.5,-134.25 256.5,-113.5 311.5,-113.5 311.5,-134.25"/>
<text text-anchor="middle" x="284" y="-120.75" font-family="Helvetica,sans-Serif" font-size="10.00">stddef.h</text>
</a>
</g>
</g>
<!-- Node13&#45;&gt;Node14 -->
<g id="edge23_Node000013_Node000014" class="edge">
<title>Node13&#45;&gt;Node14</title>
<g id="a_edge23_Node000013_Node000014"><a xlink:title=" ">
<path fill="none" stroke="#63b8ff" d="M235.55,-169.84C243.77,-162.21 255.4,-151.42 265.2,-142.32"/>
<polygon fill="#63b8ff" stroke="#63b8ff" points="267.48,-144.98 272.43,-135.61 262.72,-139.84 267.48,-144.98"/>
</a>
</g>
</g>
<!-- Node15&#45;&gt;Node4 -->
<g id="edge26_Node000015_Node000004" class="edge">
<title>Node15&#45;&gt;Node4</title>
<g id="a_edge26_Node000015_Node000004"><a xlink:title=" ">
<path fill="none" stroke="#63b8ff" d="M526.19,-226.83C524.96,-213.86 522.17,-190.02 517,-170.25 503.58,-118.88 479.35,-61.16 466.16,-31.45"/>
<polygon fill="#63b8ff" stroke="#63b8ff" points="469.45,-30.24 462.16,-22.55 463.07,-33.11 469.45,-30.24"/>
</a>
</g>
</g>
<!-- Node16 -->
<g id="Node000016" class="node">
<title>Node16</title>
<g id="a_Node000016"><a xlink:href="ipv6_2ext_2frag_8h.html" target="_top" xlink:title="Fragmentation extension definitions.">
<polygon fill="white" stroke="#666666" points="508,-191 402,-191 402,-170.25 508,-170.25 508,-191"/>
<text text-anchor="middle" x="455" y="-177.5" font-family="Helvetica,sans-Serif" font-size="10.00">net/ipv6/ext/frag.h</text>
</a>
</g>
</g>
<!-- Node15&#45;&gt;Node16 -->
<g id="edge27_Node000015_Node000016" class="edge">
<title>Node15&#45;&gt;Node16</title>
<g id="a_edge27_Node000015_Node000016"><a xlink:title=" ">
<path fill="none" stroke="#63b8ff" d="M514.13,-226.59C503.79,-218.72 489.03,-207.5 476.85,-198.24"/>
<polygon fill="#63b8ff" stroke="#63b8ff" points="479.04,-195.51 468.97,-192.24 474.81,-201.08 479.04,-195.51"/>
</a>
</g>
</g>
<!-- Node17 -->
<g id="Node000017" class="node">
<title>Node17</title>
<g id="a_Node000017"><a xlink:href="ipv6_2ext_2rh_8h.html" target="_top" xlink:title="Routing extension header definitions.">
<polygon fill="white" stroke="#666666" points="622.12,-134.25 525.88,-134.25 525.88,-113.5 622.12,-113.5 622.12,-134.25"/>
<text text-anchor="middle" x="574" y="-120.75" font-family="Helvetica,sans-Serif" font-size="10.00">net/ipv6/ext/rh.h</text>
</a>
</g>
</g>
<!-- Node15&#45;&gt;Node17 -->
<g id="edge31_Node000015_Node000017" class="edge">
<title>Node15&#45;&gt;Node17</title>
<g id="a_edge31_Node000015_Node000017"><a xlink:title=" ">
<path fill="none" stroke="#63b8ff" d="M532.28,-226.8C537.18,-217.73 544.53,-203.64 550,-191 556.54,-175.9 562.84,-158.37 567.35,-145.16"/>
<polygon fill="#63b8ff" stroke="#63b8ff" points="570.6,-146.46 570.46,-135.87 563.97,-144.24 570.6,-146.46"/>
</a>
</g>
</g>
<!-- Node16&#45;&gt;Node4 -->
<g id="edge29_Node000016_Node000004" class="edge">
<title>Node16&#45;&gt;Node4</title>
<g id="a_edge29_Node000016_Node000004"><a xlink:title=" ">
<path fill="none" stroke="#63b8ff" d="M455.11,-170.1C455.43,-143.73 456.31,-69.33 456.75,-32.53"/>
<polygon fill="#63b8ff" stroke="#63b8ff" points="460.25,-32.77 456.86,-22.73 453.25,-32.69 460.25,-32.77"/>
</a>
</g>
</g>
<!-- Node16&#45;&gt;Node7 -->
<g id="edge28_Node000016_Node000007" class="edge">
<title>Node16&#45;&gt;Node7</title>
<g id="a_edge28_Node000016_Node000007"><a xlink:title=" ">
<path fill="none" stroke="#63b8ff" d="M438.02,-169.84C423.7,-161.58 402.96,-149.63 386.46,-140.13"/>
<polygon fill="#63b8ff" stroke="#63b8ff" points="388.56,-137.3 378.15,-135.33 385.06,-143.36 388.56,-137.3"/>
</a>
</g>
</g>
<!-- Node16&#45;&gt;Node10 -->
<g id="edge30_Node000016_Node000010" class="edge">
<title>Node16&#45;&gt;Node10</title>
<g id="a_edge30_Node000016_Node000010"><a xlink:title=" ">
<path fill="none" stroke="#63b8ff" d="M409.48,-169.77C364.36,-160.01 295.54,-145.12 249.68,-135.19"/>
<polygon fill="#63b8ff" stroke="#63b8ff" points="250.54,-131.8 240.03,-133.1 249.06,-138.64 250.54,-131.8"/>
</a>
</g>
</g>
<!-- Node17&#45;&gt;Node4 -->
<g id="edge32_Node000017_Node000004" class="edge">
<title>Node17&#45;&gt;Node4</title>
<g id="a_edge32_Node000017_Node000004"><a xlink:title=" ">
<path fill="none" stroke="#63b8ff" d="M565.54,-113.09C553.93,-99.85 532.2,-75.7 512,-56.75 501.36,-46.76 488.85,-36.35 478.46,-28.02"/>
<polygon fill="#63b8ff" stroke="#63b8ff" points="480.82,-25.43 470.8,-21.97 476.48,-30.92 480.82,-25.43"/>
</a>
</g>
</g>
<!-- Node18&#45;&gt;Node4 -->
<g id="edge34_Node000018_Node000004" class="edge">
<title>Node18&#45;&gt;Node4</title>
<g id="a_edge34_Node000018_Node000004"><a xlink:title=" ">
<path fill="none" stroke="#63b8ff" d="M338.2,-283.54C341.32,-270.52 347.48,-246.63 355,-227 371.39,-184.21 380.36,-175.64 400,-134.25 417.15,-98.1 436.69,-55.72 447.86,-31.36"/>
<polygon fill="#63b8ff" stroke="#63b8ff" points="451.01,-32.89 451.99,-22.34 444.64,-29.97 451.01,-32.89"/>
</a>
</g>
</g>
<!-- Node18&#45;&gt;Node9 -->
<g id="edge39_Node000018_Node000009" class="edge">
<title>Node18&#45;&gt;Node9</title>
<g id="a_edge39_Node000018_Node000009"><a xlink:title=" ">
<path fill="none" stroke="#63b8ff" d="M296.05,-283.27C259.39,-274.23 204.88,-260.79 165.07,-250.97"/>
<polygon fill="#63b8ff" stroke="#63b8ff" points="166.02,-247.6 155.47,-248.6 164.34,-254.39 166.02,-247.6"/>
</a>
</g>
</g>
<!-- Node18&#45;&gt;Node10 -->
<g id="edge35_Node000018_Node000010" class="edge">
<title>Node18&#45;&gt;Node10</title>
<g id="a_edge35_Node000018_Node000010"><a xlink:title=" ">
<path fill="none" stroke="#63b8ff" d="M302.43,-283.35C262.86,-269.82 198.95,-241.18 171,-191 162.18,-175.16 172.88,-156.38 184.05,-142.89"/>
<polygon fill="#63b8ff" stroke="#63b8ff" points="186.51,-145.39 190.61,-135.62 181.32,-140.7 186.51,-145.39"/>
</a>
</g>
</g>
<!-- Node19 -->
<g id="Node000019" class="node">
<title>Node19</title>
<g id="a_Node000019"><a xlink:href="inet__csum_8h.html" target="_top" xlink:title="Internet Checksum definitions.">
<polygon fill="white" stroke="#666666" points="458,-247.75 364,-247.75 364,-227 458,-227 458,-247.75"/>
<text text-anchor="middle" x="411" y="-234.25" font-family="Helvetica,sans-Serif" font-size="10.00">net/inet_csum.h</text>
</a>
</g>
</g>
<!-- Node18&#45;&gt;Node19 -->
<g id="edge36_Node000018_Node000019" class="edge">
<title>Node18&#45;&gt;Node19</title>
<g id="a_edge36_Node000018_Node000019"><a xlink:title=" ">
<path fill="none" stroke="#63b8ff" d="M349.41,-283.34C360.29,-275.4 375.86,-264.03 388.62,-254.71"/>
<polygon fill="#63b8ff" stroke="#63b8ff" points="390.47,-257.69 396.49,-248.97 386.34,-252.04 390.47,-257.69"/>
</a>
</g>
</g>
<!-- Node19&#45;&gt;Node14 -->
<g id="edge38_Node000019_Node000014" class="edge">
<title>Node19&#45;&gt;Node14</title>
<g id="a_edge38_Node000019_Node000014"><a xlink:title=" ">
<path fill="none" stroke="#63b8ff" d="M400.17,-226.87C378.72,-208.04 330.57,-165.76 303.48,-141.97"/>
<polygon fill="#63b8ff" stroke="#63b8ff" points="306.12,-139.64 296.3,-135.67 301.51,-144.9 306.12,-139.64"/>
</a>
</g>
</g>
<!-- Node20 -->
<g id="Node000020" class="node">
<title>Node20</title>
<g id="a_Node000020"><a xlink:href="inttypes_8h.html" target="_top" xlink:title="Adds include for missing inttype definitions.">
<polygon fill="white" stroke="#666666" points="798.38,-191 733.62,-191 733.62,-170.25 798.38,-170.25 798.38,-191"/>
<text text-anchor="middle" x="766" y="-177.5" font-family="Helvetica,sans-Serif" font-size="10.00">inttypes.h</text>
</a>
</g>
</g>
<!-- Node19&#45;&gt;Node20 -->
<g id="edge37_Node000019_Node000020" class="edge">
<title>Node19&#45;&gt;Node20</title>
<g id="a_edge37_Node000019_Node000020"><a xlink:title=" ">
<path fill="none" stroke="#63b8ff" d="M458.14,-229.1C527.32,-218.44 655.37,-198.69 722.45,-188.34"/>
<polygon fill="#63b8ff" stroke="#63b8ff" points="722.61,-191.86 731.96,-186.88 721.54,-184.94 722.61,-191.86"/>
</a>
</g>
</g>
<!-- Node21&#45;&gt;Node4 -->
<g id="edge41_Node000021_Node000004" class="edge">
<title>Node21&#45;&gt;Node4</title>
<g id="a_edge41_Node000021_Node000004"><a xlink:title=" ">
<path fill="none" stroke="#63b8ff" d="M837.1,-229.66C869.86,-220.08 918.65,-200.26 902,-170.25 855.75,-86.89 809.08,-90.71 720,-56.75 643.48,-27.58 547.27,-17.06 495.02,-13.34"/>
<polygon fill="#63b8ff" stroke="#63b8ff" points="495.36,-9.86 485.15,-12.69 494.9,-16.84 495.36,-9.86"/>
</a>
</g>
</g>
<!-- Node21&#45;&gt;Node20 -->
<g id="edge42_Node000021_Node000020" class="edge">
<title>Node21&#45;&gt;Node20</title>
<g id="a_edge42_Node000021_Node000020"><a xlink:title=" ">
<path fill="none" stroke="#63b8ff" d="M802.13,-226.59C796.25,-219.27 788.03,-209.04 780.92,-200.19"/>
<polygon fill="#63b8ff" stroke="#63b8ff" points="783.74,-198.11 774.75,-192.51 778.28,-202.5 783.74,-198.11"/>
</a>
</g>
</g>
<!-- Node22 -->
<g id="Node000022" class="node">
<title>Node22</title>
<g id="a_Node000022"><a xlink:href="time__units_8h.html" target="_top" xlink:title="Utility header providing time unit defines.">
<polygon fill="white" stroke="#666666" points="893.38,-191 816.62,-191 816.62,-170.25 893.38,-170.25 893.38,-191"/>
<text text-anchor="middle" x="855" y="-177.5" font-family="Helvetica,sans-Serif" font-size="10.00">time_units.h</text>
</a>
</g>
</g>
<!-- Node21&#45;&gt;Node22 -->
<g id="edge43_Node000021_Node000022" class="edge">
<title>Node21&#45;&gt;Node22</title>
<g id="a_edge43_Node000021_Node000022"><a xlink:title=" ">
<path fill="none" stroke="#63b8ff" d="M818.05,-226.59C824.06,-219.27 832.47,-209.04 839.74,-200.19"/>
<polygon fill="#63b8ff" stroke="#63b8ff" points="842.42,-202.45 846.06,-192.5 837.01,-198 842.42,-202.45"/>
</a>
</g>
</g>
</g>
</svg>
