<?xml version="1.0" encoding="UTF-8" standalone="no"?>
<!DOCTYPE svg PUBLIC "-//W3C//DTD SVG 1.1//EN"
 "http://www.w3.org/Graphics/SVG/1.1/DTD/svg11.dtd">
<!-- Generated by graphviz version 12.1.2 (0)
 -->
<!-- Title: sys/include/net/coap.h Pages: 1 -->
<svg width="792pt" height="364pt"
 viewBox="0.00 0.00 792.01 363.50" xmlns="http://www.w3.org/2000/svg" xmlns:xlink="http://www.w3.org/1999/xlink">
<g id="graph0" class="graph" transform="scale(1 1) rotate(0) translate(4 359.5)">
<title>sys/include/net/coap.h</title>
<!-- Node1 -->
<g id="Node000001" class="node">
<title>Node1</title>
<g id="a_Node000001"><a xlink:title="Generic CoAP values as defined by RFC7252.">
<polygon fill="#999999" stroke="#666666" points="659.25,-355.5 534.5,-355.5 534.5,-334.75 659.25,-334.75 659.25,-355.5"/>
<text text-anchor="middle" x="596.88" y="-342" font-family="Helvetica,sans-Serif" font-size="10.00">sys/include/net/coap.h</text>
</a>
</g>
</g>
<!-- Node2 -->
<g id="Node000002" class="node">
<title>Node2</title>
<g id="a_Node000002"><a xlink:href="gcoap_2dns_8h.html" target="_top" xlink:title="gcoap_dns definitions">
<polygon fill="white" stroke="#666666" points="121.75,-96.62 0,-96.62 0,-63.12 121.75,-63.12 121.75,-96.62"/>
<text text-anchor="start" x="8" y="-83.12" font-family="Helvetica,sans-Serif" font-size="10.00">sys/include/net/gcoap</text>
<text text-anchor="middle" x="60.88" y="-70.38" font-family="Helvetica,sans-Serif" font-size="10.00">/dns.h</text>
</a>
</g>
</g>
<!-- Node1&#45;&gt;Node2 -->
<g id="edge1_Node000001_Node000002" class="edge">
<title>Node1&#45;&gt;Node2</title>
<g id="a_edge1_Node000001_Node000002"><a xlink:title=" ">
<path fill="none" stroke="#63b8ff" d="M523.11,-340.94C389.05,-333.51 113.48,-310.14 50.88,-242 13.9,-201.76 39.05,-129.33 53.14,-97.11"/>
<polygon fill="#63b8ff" stroke="#63b8ff" points="522.78,-344.43 532.95,-341.47 523.16,-337.44 522.78,-344.43"/>
</a>
</g>
</g>
<!-- Node4 -->
<g id="Node000004" class="node">
<title>Node4</title>
<g id="a_Node000004"><a xlink:href="forward__proxy_8h.html" target="_top" xlink:title="Definitions for the GCoAP forward proxy.">
<polygon fill="white" stroke="#666666" points="766.75,-96.62 645,-96.62 645,-63.12 766.75,-63.12 766.75,-96.62"/>
<text text-anchor="start" x="653" y="-83.12" font-family="Helvetica,sans-Serif" font-size="10.00">sys/include/net/gcoap</text>
<text text-anchor="middle" x="705.88" y="-70.38" font-family="Helvetica,sans-Serif" font-size="10.00">/forward_proxy.h</text>
</a>
</g>
</g>
<!-- Node1&#45;&gt;Node4 -->
<g id="edge3_Node000001_Node000004" class="edge">
<title>Node1&#45;&gt;Node4</title>
<g id="a_edge3_Node000001_Node000004"><a xlink:title=" ">
<path fill="none" stroke="#63b8ff" d="M670.27,-332.28C707.34,-324.65 746.79,-313.4 757.88,-298.75 800.73,-242.14 783.21,-205.32 757.88,-139 751.54,-122.43 738.08,-107.6 726.43,-97.06"/>
<polygon fill="#63b8ff" stroke="#63b8ff" points="670,-328.77 660.87,-334.14 671.36,-335.63 670,-328.77"/>
</a>
</g>
</g>
<!-- Node5 -->
<g id="Node000005" class="node">
<title>Node5</title>
<g id="a_Node000005"><a xlink:href="nanocoap_8h.html" target="_top" xlink:title="nanocoap API">
<polygon fill="white" stroke="#666666" points="524.25,-298.75 375.5,-298.75 375.5,-278 524.25,-278 524.25,-298.75"/>
<text text-anchor="middle" x="449.88" y="-285.25" font-family="Helvetica,sans-Serif" font-size="10.00">sys/include/net/nanocoap.h</text>
</a>
</g>
</g>
<!-- Node1&#45;&gt;Node5 -->
<g id="edge4_Node000001_Node000005" class="edge">
<title>Node1&#45;&gt;Node5</title>
<g id="a_edge4_Node000001_Node000005"><a xlink:title=" ">
<path fill="none" stroke="#63b8ff" d="M559.94,-330.37C533.76,-320.62 499.27,-307.77 475.93,-299.08"/>
<polygon fill="#63b8ff" stroke="#63b8ff" points="558.58,-333.6 569.18,-333.81 561.03,-327.04 558.58,-333.6"/>
</a>
</g>
</g>
<!-- Node8 -->
<g id="Node000008" class="node">
<title>Node8</title>
<g id="a_Node000008"><a xlink:href="forward__proxy__internal_8h.html" target="_top" xlink:title="Definitions for the GCoAP forward proxy internal communication.">
<polygon fill="white" stroke="#666666" points="454.5,-103 313.25,-103 313.25,-56.75 454.5,-56.75 454.5,-103"/>
<text text-anchor="start" x="321.25" y="-89.5" font-family="Helvetica,sans-Serif" font-size="10.00">sys/net/application</text>
<text text-anchor="start" x="321.25" y="-76.75" font-family="Helvetica,sans-Serif" font-size="10.00">_layer/gcoap/include</text>
<text text-anchor="middle" x="383.88" y="-64" font-family="Helvetica,sans-Serif" font-size="10.00">/forward_proxy_internal.h</text>
</a>
</g>
</g>
<!-- Node1&#45;&gt;Node8 -->
<g id="edge18_Node000001_Node000008" class="edge">
<title>Node1&#45;&gt;Node8</title>
<g id="a_edge18_Node000001_Node000008"><a xlink:title=" ">
<path fill="none" stroke="#63b8ff" d="M618.95,-327.37C640.95,-309.15 673.36,-277.79 686.88,-242 703.05,-199.18 716.04,-174.29 686.88,-139 658,-104.06 534.87,-89.91 454.73,-84.34"/>
<polygon fill="#63b8ff" stroke="#63b8ff" points="617.03,-324.42 611.42,-333.41 621.41,-329.88 617.03,-324.42"/>
</a>
</g>
</g>
<!-- Node3 -->
<g id="Node000003" class="node">
<title>Node3</title>
<g id="a_Node000003"><a xlink:href="dns_8h.html" target="_top" xlink:title="Generic DNS values.">
<polygon fill="white" stroke="#666666" points="120.25,-20.75 1.5,-20.75 1.5,0 120.25,0 120.25,-20.75"/>
<text text-anchor="middle" x="60.88" y="-7.25" font-family="Helvetica,sans-Serif" font-size="10.00">sys/include/net/dns.h</text>
</a>
</g>
</g>
<!-- Node2&#45;&gt;Node3 -->
<g id="edge2_Node000002_Node000003" class="edge">
<title>Node2&#45;&gt;Node3</title>
<g id="a_edge2_Node000002_Node000003"><a xlink:title=" ">
<path fill="none" stroke="#63b8ff" d="M60.88,-51.41C60.88,-40.71 60.88,-29.13 60.88,-21.2"/>
<polygon fill="#63b8ff" stroke="#63b8ff" points="57.38,-51.36 60.88,-61.36 64.38,-51.36 57.38,-51.36"/>
</a>
</g>
</g>
<!-- Node5&#45;&gt;Node4 -->
<g id="edge10_Node000005_Node000004" class="edge">
<title>Node5&#45;&gt;Node4</title>
<g id="a_edge10_Node000005_Node000004"><a xlink:title=" ">
<path fill="none" stroke="#63b8ff" d="M535.96,-281.45C595.11,-275.48 666.5,-263.9 686.88,-242 724.29,-201.79 715.73,-129.35 709.53,-97.11"/>
<polygon fill="#63b8ff" stroke="#63b8ff" points="535.82,-277.95 526.2,-282.39 536.49,-284.91 535.82,-277.95"/>
</a>
</g>
</g>
<!-- Node6 -->
<g id="Node000006" class="node">
<title>Node6</title>
<g id="a_Node000006"><a xlink:href="lc_8h.html" target="_top" xlink:title="CoRE Resource Directory lookup interface.">
<polygon fill="white" stroke="#666666" points="203.75,-235.62 70,-235.62 70,-214.88 203.75,-214.88 203.75,-235.62"/>
<text text-anchor="middle" x="136.88" y="-222.12" font-family="Helvetica,sans-Serif" font-size="10.00">sys/include/net/cord/lc.h</text>
</a>
</g>
</g>
<!-- Node5&#45;&gt;Node6 -->
<g id="edge5_Node000005_Node000006" class="edge">
<title>Node5&#45;&gt;Node6</title>
<g id="a_edge5_Node000005_Node000006"><a xlink:title=" ">
<path fill="none" stroke="#63b8ff" d="M386.02,-275.42C338.29,-266.42 271.45,-253.68 212.88,-242 203.49,-240.13 193.47,-238.09 183.88,-236.11"/>
<polygon fill="#63b8ff" stroke="#63b8ff" points="385.15,-278.82 395.63,-277.23 386.45,-271.94 385.15,-278.82"/>
</a>
</g>
</g>
<!-- Node7 -->
<g id="Node000007" class="node">
<title>Node7</title>
<g id="a_Node000007"><a xlink:href="gcoap_8h.html" target="_top" xlink:title="gcoap definition">
<polygon fill="white" stroke="#666666" points="183.25,-166.12 52.5,-166.12 52.5,-145.38 183.25,-145.38 183.25,-166.12"/>
<text text-anchor="middle" x="117.88" y="-152.62" font-family="Helvetica,sans-Serif" font-size="10.00">sys/include/net/gcoap.h</text>
</a>
</g>
</g>
<!-- Node5&#45;&gt;Node7 -->
<g id="edge6_Node000005_Node000007" class="edge">
<title>Node5&#45;&gt;Node7</title>
<g id="a_edge6_Node000005_Node000007"><a xlink:title=" ">
<path fill="none" stroke="#63b8ff" d="M364.18,-283.33C255.76,-277.31 80.69,-264.26 60.88,-242 38.74,-217.13 79.36,-183.11 102.86,-166.57"/>
<polygon fill="#63b8ff" stroke="#63b8ff" points="363.74,-286.81 373.92,-283.86 364.12,-279.82 363.74,-286.81"/>
</a>
</g>
</g>
<!-- Node9 -->
<g id="Node000009" class="node">
<title>Node9</title>
<g id="a_Node000009"><a xlink:href="nanocoap_2cache_8h.html" target="_top" xlink:title="nanocoap&#45;cache API">
<polygon fill="white" stroke="#666666" points="519.75,-242 380,-242 380,-208.5 519.75,-208.5 519.75,-242"/>
<text text-anchor="start" x="388" y="-228.5" font-family="Helvetica,sans-Serif" font-size="10.00">sys/include/net/nanocoap</text>
<text text-anchor="middle" x="449.88" y="-215.75" font-family="Helvetica,sans-Serif" font-size="10.00">/cache.h</text>
</a>
</g>
</g>
<!-- Node5&#45;&gt;Node9 -->
<g id="edge11_Node000005_Node000009" class="edge">
<title>Node5&#45;&gt;Node9</title>
<g id="a_edge11_Node000005_Node000009"><a xlink:title=" ">
<path fill="none" stroke="#63b8ff" d="M449.88,-266.09C449.88,-258.35 449.88,-249.72 449.88,-242.48"/>
<polygon fill="#63b8ff" stroke="#63b8ff" points="446.38,-266.04 449.88,-276.04 453.38,-266.04 446.38,-266.04"/>
</a>
</g>
</g>
<!-- Node10 -->
<g id="Node000010" class="node">
<title>Node10</title>
<g id="a_Node000010"><a xlink:href="fileserver_8h.html" target="_top" xlink:title="Resource handler for the CoAP file system server.">
<polygon fill="white" stroke="#666666" points="361.75,-242 222,-242 222,-208.5 361.75,-208.5 361.75,-242"/>
<text text-anchor="start" x="230" y="-228.5" font-family="Helvetica,sans-Serif" font-size="10.00">sys/include/net/nanocoap</text>
<text text-anchor="middle" x="291.88" y="-215.75" font-family="Helvetica,sans-Serif" font-size="10.00">/fileserver.h</text>
</a>
</g>
</g>
<!-- Node5&#45;&gt;Node10 -->
<g id="edge13_Node000005_Node000010" class="edge">
<title>Node5&#45;&gt;Node10</title>
<g id="a_edge13_Node000005_Node000010"><a xlink:title=" ">
<path fill="none" stroke="#63b8ff" d="M413.8,-273.42C390,-264.21 358.75,-252.12 333.84,-242.48"/>
<polygon fill="#63b8ff" stroke="#63b8ff" points="412.49,-276.66 423.08,-277.01 415.01,-270.14 412.49,-276.66"/>
</a>
</g>
</g>
<!-- Node11 -->
<g id="Node000011" class="node">
<title>Node11</title>
<g id="a_Node000011"><a xlink:href="nanocoap__sock_8h.html" target="_top" xlink:title="nanocoap high&#45;level API">
<polygon fill="white" stroke="#666666" points="677.75,-242 538,-242 538,-208.5 677.75,-208.5 677.75,-242"/>
<text text-anchor="start" x="546" y="-228.5" font-family="Helvetica,sans-Serif" font-size="10.00">sys/include/net/nanocoap</text>
<text text-anchor="middle" x="607.88" y="-215.75" font-family="Helvetica,sans-Serif" font-size="10.00">_sock.h</text>
</a>
</g>
</g>
<!-- Node5&#45;&gt;Node11 -->
<g id="edge14_Node000005_Node000011" class="edge">
<title>Node5&#45;&gt;Node11</title>
<g id="a_edge14_Node000005_Node000011"><a xlink:title=" ">
<path fill="none" stroke="#63b8ff" d="M485.95,-273.42C509.75,-264.21 541,-252.12 565.91,-242.48"/>
<polygon fill="#63b8ff" stroke="#63b8ff" points="484.74,-270.14 476.67,-277.01 487.26,-276.66 484.74,-270.14"/>
</a>
</g>
</g>
<!-- Node7&#45;&gt;Node2 -->
<g id="edge7_Node000007_Node000002" class="edge">
<title>Node7&#45;&gt;Node2</title>
<g id="a_edge7_Node000007_Node000002"><a xlink:title=" ">
<path fill="none" stroke="#63b8ff" d="M103.65,-136.32C94.34,-124.24 82.28,-108.62 73.34,-97.03"/>
<polygon fill="#63b8ff" stroke="#63b8ff" points="100.62,-138.11 109.5,-143.89 106.16,-133.84 100.62,-138.11"/>
</a>
</g>
</g>
<!-- Node7&#45;&gt;Node4 -->
<g id="edge8_Node000007_Node000004" class="edge">
<title>Node7&#45;&gt;Node4</title>
<g id="a_edge8_Node000007_Node000004"><a xlink:title=" ">
<path fill="none" stroke="#63b8ff" d="M172.17,-142.72C179.12,-141.36 186.15,-140.08 192.88,-139 355.25,-112.81 548.42,-94.3 644.82,-85.92"/>
<polygon fill="#63b8ff" stroke="#63b8ff" points="171.97,-139.19 162.85,-144.59 173.35,-146.05 171.97,-139.19"/>
</a>
</g>
</g>
<!-- Node7&#45;&gt;Node8 -->
<g id="edge9_Node000007_Node000008" class="edge">
<title>Node7&#45;&gt;Node8</title>
<g id="a_edge9_Node000007_Node000008"><a xlink:title=" ">
<path fill="none" stroke="#63b8ff" d="M164.23,-141.88C205.25,-130.48 265.76,-113.68 312.88,-100.59"/>
<polygon fill="#63b8ff" stroke="#63b8ff" points="163.35,-138.49 154.66,-144.53 165.23,-145.23 163.35,-138.49"/>
</a>
</g>
</g>
<!-- Node9&#45;&gt;Node7 -->
<g id="edge12_Node000009_Node000007" class="edge">
<title>Node9&#45;&gt;Node7</title>
<g id="a_edge12_Node000009_Node000007"><a xlink:title=" ">
<path fill="none" stroke="#63b8ff" d="M368.7,-207.98C306.47,-195.49 225.84,-179.28 192.88,-172.5 183.62,-170.6 173.73,-168.54 164.27,-166.56"/>
<polygon fill="#63b8ff" stroke="#63b8ff" points="367.72,-211.35 378.21,-209.89 369.1,-204.49 367.72,-211.35"/>
</a>
</g>
</g>
<!-- Node12 -->
<g id="Node000012" class="node">
<title>Node12</title>
<g id="a_Node000012"><a xlink:href="fs_8h.html" target="_top" xlink:title="nanoCoAP virtual file system">
<polygon fill="white" stroke="#666666" points="362.25,-166.12 201.5,-166.12 201.5,-145.38 362.25,-145.38 362.25,-166.12"/>
<text text-anchor="middle" x="281.88" y="-152.62" font-family="Helvetica,sans-Serif" font-size="10.00">sys/include/net/nanocoap/fs.h</text>
</a>
</g>
</g>
<!-- Node11&#45;&gt;Node12 -->
<g id="edge15_Node000011_Node000012" class="edge">
<title>Node11&#45;&gt;Node12</title>
<g id="a_edge15_Node000011_Node000012"><a xlink:title=" ">
<path fill="none" stroke="#63b8ff" d="M526.6,-207.42C464.52,-194.57 381.09,-177.29 329.44,-166.6"/>
<polygon fill="#63b8ff" stroke="#63b8ff" points="525.56,-210.78 536.06,-209.38 526.97,-203.92 525.56,-210.78"/>
</a>
</g>
</g>
<!-- Node13 -->
<g id="Node000013" class="node">
<title>Node13</title>
<g id="a_Node000013"><a xlink:href="link__format_8h.html" target="_top" xlink:title="NanoCoAP Link Format helper functions.">
<polygon fill="white" stroke="#666666" points="519.75,-172.5 380,-172.5 380,-139 519.75,-139 519.75,-172.5"/>
<text text-anchor="start" x="388" y="-159" font-family="Helvetica,sans-Serif" font-size="10.00">sys/include/net/nanocoap</text>
<text text-anchor="middle" x="449.88" y="-146.25" font-family="Helvetica,sans-Serif" font-size="10.00">/link_format.h</text>
</a>
</g>
</g>
<!-- Node11&#45;&gt;Node13 -->
<g id="edge16_Node000011_Node000013" class="edge">
<title>Node11&#45;&gt;Node13</title>
<g id="a_edge16_Node000011_Node000013"><a xlink:title=" ">
<path fill="none" stroke="#63b8ff" d="M559.73,-203.68C536.61,-193.8 509.29,-182.13 487.68,-172.9"/>
<polygon fill="#63b8ff" stroke="#63b8ff" points="558.07,-206.78 568.64,-207.49 560.82,-200.34 558.07,-206.78"/>
</a>
</g>
</g>
<!-- Node14 -->
<g id="Node000014" class="node">
<title>Node14</title>
<g id="a_Node000014"><a xlink:href="nanocoap__vfs_8h.html" target="_top" xlink:title="VFS NanoCoAP helper functions.">
<polygon fill="white" stroke="#666666" points="677.75,-172.5 538,-172.5 538,-139 677.75,-139 677.75,-172.5"/>
<text text-anchor="start" x="546" y="-159" font-family="Helvetica,sans-Serif" font-size="10.00">sys/include/net/nanocoap</text>
<text text-anchor="middle" x="607.88" y="-146.25" font-family="Helvetica,sans-Serif" font-size="10.00">_vfs.h</text>
</a>
</g>
</g>
<!-- Node11&#45;&gt;Node14 -->
<g id="edge17_Node000011_Node000014" class="edge">
<title>Node11&#45;&gt;Node14</title>
<g id="a_edge17_Node000011_Node000014"><a xlink:title=" ">
<path fill="none" stroke="#63b8ff" d="M607.88,-196.81C607.88,-188.59 607.88,-179.84 607.88,-172.63"/>
<polygon fill="#63b8ff" stroke="#63b8ff" points="604.38,-196.74 607.88,-206.74 611.38,-196.74 604.38,-196.74"/>
</a>
</g>
</g>
</g>
</svg>
