<?xml version="1.0" encoding="UTF-8" standalone="no"?>
<!DOCTYPE svg PUBLIC "-//W3C//DTD SVG 1.1//EN"
 "http://www.w3.org/Graphics/SVG/1.1/DTD/svg11.dtd">
<!-- Generated by graphviz version 12.1.2 (0)
 -->
<!-- Title: sys/include/net/gnrc/netif/hdr.h Pages: 1 -->
<svg width="1568pt" height="484pt"
 viewBox="0.00 0.00 1568.00 484.00" xmlns="http://www.w3.org/2000/svg" xmlns:xlink="http://www.w3.org/1999/xlink">
<g id="graph0" class="graph" transform="scale(1 1) rotate(0) translate(4 480)">
<title>sys/include/net/gnrc/netif/hdr.h</title>
<!-- Node1 -->
<g id="Node000001" class="node">
<title>Node1</title>
<g id="a_Node000001"><a xlink:title="Generic network interface header.">
<polygon fill="#999999" stroke="#666666" points="746.5,-476 633,-476 633,-442.5 746.5,-442.5 746.5,-476"/>
<text text-anchor="start" x="641" y="-462.5" font-family="Helvetica,sans-Serif" font-size="10.00">sys/include/net/gnrc</text>
<text text-anchor="middle" x="689.75" y="-449.75" font-family="Helvetica,sans-Serif" font-size="10.00">/netif/hdr.h</text>
</a>
</g>
</g>
<!-- Node2 -->
<g id="Node000002" class="node">
<title>Node2</title>
<g id="a_Node000002"><a xlink:href="lwipopts_8h.html" target="_top" xlink:title="Option definitions.">
<polygon fill="white" stroke="#666666" points="535.12,-400.12 386.38,-400.12 386.38,-379.38 535.12,-379.38 535.12,-400.12"/>
<text text-anchor="middle" x="460.75" y="-386.62" font-family="Helvetica,sans-Serif" font-size="10.00">pkg/lwip/include/lwipopts.h</text>
</a>
</g>
</g>
<!-- Node1&#45;&gt;Node2 -->
<g id="edge1_Node000001_Node000002" class="edge">
<title>Node1&#45;&gt;Node2</title>
<g id="a_edge1_Node000001_Node000002"><a xlink:title=" ">
<path fill="none" stroke="#63b8ff" d="M624.09,-438.9C581.65,-426.39 528.19,-410.63 494.23,-400.62"/>
<polygon fill="#63b8ff" stroke="#63b8ff" points="622.87,-442.18 633.45,-441.65 624.84,-435.47 622.87,-442.18"/>
</a>
</g>
</g>
<!-- Node3 -->
<g id="Node000003" class="node">
<title>Node3</title>
<g id="a_Node000003"><a xlink:href="gnrc_8h.html" target="_top" xlink:title="Includes all essential GNRC network stack base modules.">
<polygon fill="white" stroke="#666666" points="509,-261.12 386.5,-261.12 386.5,-240.38 509,-240.38 509,-261.12"/>
<text text-anchor="middle" x="447.75" y="-247.62" font-family="Helvetica,sans-Serif" font-size="10.00">sys/include/net/gnrc.h</text>
</a>
</g>
</g>
<!-- Node1&#45;&gt;Node3 -->
<g id="edge2_Node000001_Node000003" class="edge">
<title>Node1&#45;&gt;Node3</title>
<g id="a_edge2_Node000001_Node000003"><a xlink:title=" ">
<path fill="none" stroke="#63b8ff" d="M639.06,-437.42C621.65,-429.09 602.57,-418.58 586.75,-406.5 527.34,-361.12 473.13,-287.95 454.55,-261.6"/>
<polygon fill="#63b8ff" stroke="#63b8ff" points="637.17,-440.4 647.71,-441.43 640.12,-434.05 637.17,-440.4"/>
</a>
</g>
</g>
<!-- Node6 -->
<g id="Node000006" class="node">
<title>Node6</title>
<g id="a_Node000006"><a xlink:href="gnrc__ipv6__auto__subnets_8c.html" target="_top" xlink:title=" ">
<polygon fill="white" stroke="#666666" points="575,-128.5 440.5,-128.5 440.5,-82.25 575,-82.25 575,-128.5"/>
<text text-anchor="start" x="448.5" y="-115" font-family="Helvetica,sans-Serif" font-size="10.00">sys/net/gnrc/routing</text>
<text text-anchor="start" x="448.5" y="-102.25" font-family="Helvetica,sans-Serif" font-size="10.00">/ipv6_auto_subnets/gnrc</text>
<text text-anchor="middle" x="507.75" y="-89.5" font-family="Helvetica,sans-Serif" font-size="10.00">_ipv6_auto_subnets.c</text>
</a>
</g>
</g>
<!-- Node1&#45;&gt;Node6 -->
<g id="edge43_Node000001_Node000006" class="edge">
<title>Node1&#45;&gt;Node6</title>
<g id="a_edge43_Node000001_Node000006"><a xlink:title=" ">
<path fill="none" stroke="#63b8ff" d="M652.31,-435.51C641.76,-427.5 631.15,-417.68 623.75,-406.5 602.09,-373.78 600.75,-360.49 600.75,-321.25 600.75,-321.25 600.75,-321.25 600.75,-249.75 600.75,-210.93 602.44,-197.35 581.75,-164.5 572.87,-150.4 559.32,-138.31 546.23,-128.86"/>
<polygon fill="#63b8ff" stroke="#63b8ff" points="650.09,-438.22 660.26,-441.19 654.16,-432.53 650.09,-438.22"/>
</a>
</g>
</g>
<!-- Node13 -->
<g id="Node000013" class="node">
<title>Node13</title>
<g id="a_Node000013"><a xlink:href="echo_8h.html" target="_top" xlink:title="ICMPv6 echo message definitions.">
<polygon fill="white" stroke="#666666" points="883.5,-337 770,-337 770,-303.5 883.5,-303.5 883.5,-337"/>
<text text-anchor="start" x="778" y="-323.5" font-family="Helvetica,sans-Serif" font-size="10.00">sys/include/net/gnrc</text>
<text text-anchor="middle" x="826.75" y="-310.75" font-family="Helvetica,sans-Serif" font-size="10.00">/icmpv6/echo.h</text>
</a>
</g>
</g>
<!-- Node1&#45;&gt;Node13 -->
<g id="edge15_Node000001_Node000013" class="edge">
<title>Node1&#45;&gt;Node13</title>
<g id="a_edge15_Node000001_Node000013"><a xlink:title=" ">
<path fill="none" stroke="#63b8ff" d="M721.77,-435.32C732.95,-426.76 745.3,-416.64 755.75,-406.5 778.69,-384.23 801.73,-354.99 815.1,-337.19"/>
<polygon fill="#63b8ff" stroke="#63b8ff" points="719.83,-432.4 713.93,-441.2 724.03,-438 719.83,-432.4"/>
</a>
</g>
</g>
<!-- Node16 -->
<g id="Node000016" class="node">
<title>Node16</title>
<g id="a_Node000016"><a xlink:href="nc_8h.html" target="_top" xlink:title="Neighbor cache definitions.">
<polygon fill="white" stroke="#666666" points="746.5,-406.5 633,-406.5 633,-373 746.5,-373 746.5,-406.5"/>
<text text-anchor="start" x="641" y="-393" font-family="Helvetica,sans-Serif" font-size="10.00">sys/include/net/gnrc</text>
<text text-anchor="middle" x="689.75" y="-380.25" font-family="Helvetica,sans-Serif" font-size="10.00">/ipv6/nib/nc.h</text>
</a>
</g>
</g>
<!-- Node1&#45;&gt;Node16 -->
<g id="edge18_Node000001_Node000016" class="edge">
<title>Node1&#45;&gt;Node16</title>
<g id="a_edge18_Node000001_Node000016"><a xlink:title=" ">
<path fill="none" stroke="#63b8ff" d="M689.75,-430.81C689.75,-422.59 689.75,-413.84 689.75,-406.63"/>
<polygon fill="#63b8ff" stroke="#63b8ff" points="686.25,-430.74 689.75,-440.74 693.25,-430.74 686.25,-430.74"/>
</a>
</g>
</g>
<!-- Node25 -->
<g id="Node000025" class="node">
<title>Node25</title>
<g id="a_Node000025"><a xlink:href="gnrc_2sixlowpan_2frag_8h.html" target="_top" xlink:title="6LoWPAN Fragmentation definitions">
<polygon fill="white" stroke="#666666" points="1049.5,-406.5 936,-406.5 936,-373 1049.5,-373 1049.5,-406.5"/>
<text text-anchor="start" x="944" y="-393" font-family="Helvetica,sans-Serif" font-size="10.00">sys/include/net/gnrc</text>
<text text-anchor="middle" x="992.75" y="-380.25" font-family="Helvetica,sans-Serif" font-size="10.00">/sixlowpan/frag.h</text>
</a>
</g>
</g>
<!-- Node1&#45;&gt;Node25 -->
<g id="edge34_Node000001_Node000025" class="edge">
<title>Node1&#45;&gt;Node25</title>
<g id="a_edge34_Node000001_Node000025"><a xlink:title=" ">
<path fill="none" stroke="#63b8ff" d="M757.86,-443.08C811.45,-431.14 885.26,-414.7 935.76,-403.45"/>
<polygon fill="#63b8ff" stroke="#63b8ff" points="757.22,-439.63 748.22,-445.22 758.74,-446.47 757.22,-439.63"/>
</a>
</g>
</g>
<!-- Node28 -->
<g id="Node000028" class="node">
<title>Node28</title>
<g id="a_Node000028"><a xlink:href="rb_8h.html" target="_top" xlink:title="Reassembly buffer definitions.">
<polygon fill="white" stroke="#666666" points="1214.5,-406.5 1101,-406.5 1101,-373 1214.5,-373 1214.5,-406.5"/>
<text text-anchor="start" x="1109" y="-393" font-family="Helvetica,sans-Serif" font-size="10.00">sys/include/net/gnrc</text>
<text text-anchor="middle" x="1157.75" y="-380.25" font-family="Helvetica,sans-Serif" font-size="10.00">/sixlowpan/frag/rb.h</text>
</a>
</g>
</g>
<!-- Node1&#45;&gt;Node28 -->
<g id="edge37_Node000001_Node000028" class="edge">
<title>Node1&#45;&gt;Node28</title>
<g id="a_edge37_Node000001_Node000028"><a xlink:title=" ">
<path fill="none" stroke="#63b8ff" d="M757.71,-449.1C831.78,-439.04 953.78,-422.21 1058.75,-406.5 1072.35,-404.47 1086.98,-402.19 1100.72,-400.01"/>
<polygon fill="#63b8ff" stroke="#63b8ff" points="757.63,-445.58 748.19,-450.39 758.57,-452.52 757.63,-445.58"/>
</a>
</g>
</g>
<!-- Node4 -->
<g id="Node000004" class="node">
<title>Node4</title>
<g id="a_Node000004"><a xlink:href="rpl_8h.html" target="_top" xlink:title="RPL header.">
<polygon fill="white" stroke="#666666" points="440.5,-198 327,-198 327,-164.5 440.5,-164.5 440.5,-198"/>
<text text-anchor="start" x="335" y="-184.5" font-family="Helvetica,sans-Serif" font-size="10.00">sys/include/net/gnrc</text>
<text text-anchor="middle" x="383.75" y="-171.75" font-family="Helvetica,sans-Serif" font-size="10.00">/rpl.h</text>
</a>
</g>
</g>
<!-- Node3&#45;&gt;Node4 -->
<g id="edge3_Node000003_Node000004" class="edge">
<title>Node3&#45;&gt;Node4</title>
<g id="a_edge3_Node000003_Node000004"><a xlink:title=" ">
<path fill="none" stroke="#63b8ff" d="M430.7,-231.76C420.86,-221.39 408.61,-208.47 399.08,-198.42"/>
<polygon fill="#63b8ff" stroke="#63b8ff" points="428.12,-234.13 437.54,-238.98 433.2,-229.32 428.12,-234.13"/>
</a>
</g>
</g>
<!-- Node7 -->
<g id="Node000007" class="node">
<title>Node7</title>
<g id="a_Node000007"><a xlink:href="p2p_8h.html" target="_top" xlink:title="Definititions for P2P&#45;RPL.">
<polygon fill="white" stroke="#666666" points="113.5,-198 0,-198 0,-164.5 113.5,-164.5 113.5,-198"/>
<text text-anchor="start" x="8" y="-184.5" font-family="Helvetica,sans-Serif" font-size="10.00">sys/include/net/gnrc</text>
<text text-anchor="middle" x="56.75" y="-171.75" font-family="Helvetica,sans-Serif" font-size="10.00">/rpl/p2p.h</text>
</a>
</g>
</g>
<!-- Node3&#45;&gt;Node7 -->
<g id="edge7_Node000003_Node000007" class="edge">
<title>Node3&#45;&gt;Node7</title>
<g id="a_edge7_Node000003_Node000007"><a xlink:title=" ">
<path fill="none" stroke="#63b8ff" d="M375.05,-239.92C308.79,-230.55 208.33,-215.33 121.75,-198 119.13,-197.48 116.46,-196.92 113.76,-196.34"/>
<polygon fill="#63b8ff" stroke="#63b8ff" points="374.31,-243.35 384.7,-241.27 375.29,-236.41 374.31,-243.35"/>
</a>
</g>
</g>
<!-- Node8 -->
<g id="Node000008" class="node">
<title>Node8</title>
<g id="a_Node000008"><a xlink:href="gnrc_2udp_8h.html" target="_top" xlink:title="UDP GNRC definition.">
<polygon fill="white" stroke="#666666" points="572.5,-198 459,-198 459,-164.5 572.5,-164.5 572.5,-198"/>
<text text-anchor="start" x="467" y="-184.5" font-family="Helvetica,sans-Serif" font-size="10.00">sys/include/net/gnrc</text>
<text text-anchor="middle" x="515.75" y="-171.75" font-family="Helvetica,sans-Serif" font-size="10.00">/udp.h</text>
</a>
</g>
</g>
<!-- Node3&#45;&gt;Node8 -->
<g id="edge8_Node000003_Node000008" class="edge">
<title>Node3&#45;&gt;Node8</title>
<g id="a_edge8_Node000003_Node000008"><a xlink:title=" ">
<path fill="none" stroke="#63b8ff" d="M465.55,-232.08C476.05,-221.66 489.24,-208.57 499.46,-198.42"/>
<polygon fill="#63b8ff" stroke="#63b8ff" points="463.2,-229.48 458.57,-239.01 468.13,-234.45 463.2,-229.48"/>
</a>
</g>
</g>
<!-- Node9 -->
<g id="Node000009" class="node">
<title>Node9</title>
<g id="a_Node000009"><a xlink:href="gnrc__sock__internal_8h.html" target="_top" xlink:title="Internal GNRC&#45;specific types and function definitions.">
<polygon fill="white" stroke="#666666" points="284.25,-122.12 145.25,-122.12 145.25,-88.62 284.25,-88.62 284.25,-122.12"/>
<text text-anchor="start" x="153.25" y="-108.62" font-family="Helvetica,sans-Serif" font-size="10.00">sys/net/gnrc/sock/include</text>
<text text-anchor="middle" x="214.75" y="-95.88" font-family="Helvetica,sans-Serif" font-size="10.00">/gnrc_sock_internal.h</text>
</a>
</g>
</g>
<!-- Node3&#45;&gt;Node9 -->
<g id="edge10_Node000003_Node000009" class="edge">
<title>Node3&#45;&gt;Node9</title>
<g id="a_edge10_Node000003_Node000009"><a xlink:title=" ">
<path fill="none" stroke="#63b8ff" d="M403.24,-236.34C377.25,-227.48 344.43,-214.47 317.75,-198 313.01,-195.08 260.79,-148.03 232.58,-122.52"/>
<polygon fill="#63b8ff" stroke="#63b8ff" points="401.89,-239.58 412.48,-239.41 404.09,-232.94 401.89,-239.58"/>
</a>
</g>
</g>
<!-- Node10 -->
<g id="Node000010" class="node">
<title>Node10</title>
<g id="a_Node000010"><a xlink:href="sys_2net_2gnrc_2sock_2include_2sock__types_8h.html" target="_top" xlink:title="GNRC&#45;specific types and function definitions.">
<polygon fill="white" stroke="#666666" points="270.25,-198 131.25,-198 131.25,-164.5 270.25,-164.5 270.25,-198"/>
<text text-anchor="start" x="139.25" y="-184.5" font-family="Helvetica,sans-Serif" font-size="10.00">sys/net/gnrc/sock/include</text>
<text text-anchor="middle" x="200.75" y="-171.75" font-family="Helvetica,sans-Serif" font-size="10.00">/sock_types.h</text>
</a>
</g>
</g>
<!-- Node3&#45;&gt;Node10 -->
<g id="edge11_Node000003_Node000010" class="edge">
<title>Node3&#45;&gt;Node10</title>
<g id="a_edge11_Node000003_Node000010"><a xlink:title=" ">
<path fill="none" stroke="#63b8ff" d="M400.81,-236.92C360.86,-226.01 303.28,-210.27 260.13,-198.48"/>
<polygon fill="#63b8ff" stroke="#63b8ff" points="399.81,-240.28 410.37,-239.54 401.65,-233.52 399.81,-240.28"/>
</a>
</g>
</g>
<!-- Node11 -->
<g id="Node000011" class="node">
<title>Node11</title>
<g id="a_Node000011"><a xlink:href="gnrc__tcp__fsm_8h.html" target="_top" xlink:title="TCP finite state maschine declarations.">
<polygon fill="white" stroke="#666666" points="718.88,-128.5 592.62,-128.5 592.62,-82.25 718.88,-82.25 718.88,-128.5"/>
<text text-anchor="start" x="600.62" y="-115" font-family="Helvetica,sans-Serif" font-size="10.00">sys/net/gnrc/transport</text>
<text text-anchor="start" x="600.62" y="-102.25" font-family="Helvetica,sans-Serif" font-size="10.00">_layer/tcp/include/gnrc</text>
<text text-anchor="middle" x="655.75" y="-89.5" font-family="Helvetica,sans-Serif" font-size="10.00">_tcp_fsm.h</text>
</a>
</g>
</g>
<!-- Node3&#45;&gt;Node11 -->
<g id="edge13_Node000003_Node000011" class="edge">
<title>Node3&#45;&gt;Node11</title>
<g id="a_edge13_Node000003_Node000011"><a xlink:title=" ">
<path fill="none" stroke="#63b8ff" d="M499.78,-236.62C526,-228.35 557.33,-215.8 581.75,-198 607.52,-179.21 629.37,-149.3 642.5,-128.79"/>
<polygon fill="#63b8ff" stroke="#63b8ff" points="498.9,-233.23 490.33,-239.47 500.92,-239.94 498.9,-233.23"/>
</a>
</g>
</g>
<!-- Node12 -->
<g id="Node000012" class="node">
<title>Node12</title>
<g id="a_Node000012"><a xlink:href="gnrc__tcp__pkt_8h.html" target="_top" xlink:title="TCP packet handling declarations.">
<polygon fill="white" stroke="#666666" points="862.88,-128.5 736.62,-128.5 736.62,-82.25 862.88,-82.25 862.88,-128.5"/>
<text text-anchor="start" x="744.62" y="-115" font-family="Helvetica,sans-Serif" font-size="10.00">sys/net/gnrc/transport</text>
<text text-anchor="start" x="744.62" y="-102.25" font-family="Helvetica,sans-Serif" font-size="10.00">_layer/tcp/include/gnrc</text>
<text text-anchor="middle" x="799.75" y="-89.5" font-family="Helvetica,sans-Serif" font-size="10.00">_tcp_pkt.h</text>
</a>
</g>
</g>
<!-- Node3&#45;&gt;Node12 -->
<g id="edge14_Node000003_Node000012" class="edge">
<title>Node3&#45;&gt;Node12</title>
<g id="a_edge14_Node000003_Node000012"><a xlink:title=" ">
<path fill="none" stroke="#63b8ff" d="M495.49,-236.86C528.8,-227.36 574.05,-213.45 612.75,-198 664.12,-177.5 720.88,-148.77 758.24,-128.98"/>
<polygon fill="#63b8ff" stroke="#63b8ff" points="494.81,-233.41 486.14,-239.49 496.71,-240.15 494.81,-233.41"/>
</a>
</g>
</g>
<!-- Node5 -->
<g id="Node000005" class="node">
<title>Node5</title>
<g id="a_Node000005"><a xlink:href="dodag_8h.html" target="_top" xlink:title="DODAG&#45;related functions for RPL.">
<polygon fill="white" stroke="#666666" points="422.5,-122.12 309,-122.12 309,-88.62 422.5,-88.62 422.5,-122.12"/>
<text text-anchor="start" x="317" y="-108.62" font-family="Helvetica,sans-Serif" font-size="10.00">sys/include/net/gnrc</text>
<text text-anchor="middle" x="365.75" y="-95.88" font-family="Helvetica,sans-Serif" font-size="10.00">/rpl/dodag.h</text>
</a>
</g>
</g>
<!-- Node4&#45;&gt;Node5 -->
<g id="edge4_Node000004_Node000005" class="edge">
<title>Node4&#45;&gt;Node5</title>
<g id="a_edge4_Node000004_Node000005"><a xlink:title=" ">
<path fill="none" stroke="#63b8ff" d="M370.72,-153.53C367.69,-143.09 365.14,-131.47 363.97,-122.37"/>
<polygon fill="#63b8ff" stroke="#63b8ff" points="367.31,-154.33 373.7,-162.78 373.97,-152.19 367.31,-154.33"/>
</a>
</g>
</g>
<!-- Node4&#45;&gt;Node6 -->
<g id="edge6_Node000004_Node000006" class="edge">
<title>Node4&#45;&gt;Node6</title>
<g id="a_edge6_Node000004_Node000006"><a xlink:title=" ">
<path fill="none" stroke="#63b8ff" d="M420.73,-158.22C436.21,-149 454.2,-138.28 469.78,-128.99"/>
<polygon fill="#63b8ff" stroke="#63b8ff" points="419.06,-155.14 412.26,-163.26 422.64,-161.15 419.06,-155.14"/>
</a>
</g>
</g>
<!-- Node5&#45;&gt;Node4 -->
<g id="edge5_Node000005_Node000004" class="edge">
<title>Node5&#45;&gt;Node4</title>
<g id="a_edge5_Node000005_Node000004"><a xlink:title=" ">
<path fill="none" stroke="#63b8ff" d="M378.76,-133.06C381.8,-143.5 384.36,-155.12 385.52,-164.22"/>
<polygon fill="#63b8ff" stroke="#63b8ff" points="382.18,-132.26 375.79,-123.81 375.52,-134.41 382.18,-132.26"/>
</a>
</g>
</g>
<!-- Node8&#45;&gt;Node6 -->
<g id="edge9_Node000008_Node000006" class="edge">
<title>Node8&#45;&gt;Node6</title>
<g id="a_edge9_Node000008_Node000006"><a xlink:title=" ">
<path fill="none" stroke="#63b8ff" d="M512.79,-152.89C511.93,-144.96 511,-136.41 510.18,-128.82"/>
<polygon fill="#63b8ff" stroke="#63b8ff" points="509.29,-153.15 513.85,-162.72 516.25,-152.4 509.29,-153.15"/>
</a>
</g>
</g>
<!-- Node10&#45;&gt;Node9 -->
<g id="edge12_Node000010_Node000009" class="edge">
<title>Node10&#45;&gt;Node9</title>
<g id="a_edge12_Node000010_Node000009"><a xlink:title=" ">
<path fill="none" stroke="#63b8ff" d="M205.88,-153.2C207.84,-142.84 210.01,-131.37 211.72,-122.37"/>
<polygon fill="#63b8ff" stroke="#63b8ff" points="202.49,-152.26 204.07,-162.73 209.37,-153.56 202.49,-152.26"/>
</a>
</g>
</g>
<!-- Node14 -->
<g id="Node000014" class="node">
<title>Node14</title>
<g id="a_Node000014"><a xlink:href="gnrc_2icmpv6_8h.html" target="_top" xlink:title="Definitions for GNRC&#39;s ICMPv6 implementation.">
<polygon fill="white" stroke="#666666" points="1558.5,-122.12 1445,-122.12 1445,-88.62 1558.5,-88.62 1558.5,-122.12"/>
<text text-anchor="start" x="1453" y="-108.62" font-family="Helvetica,sans-Serif" font-size="10.00">sys/include/net/gnrc</text>
<text text-anchor="middle" x="1501.75" y="-95.88" font-family="Helvetica,sans-Serif" font-size="10.00">/icmpv6.h</text>
</a>
</g>
</g>
<!-- Node13&#45;&gt;Node14 -->
<g id="edge16_Node000013_Node000014" class="edge">
<title>Node13&#45;&gt;Node14</title>
<g id="a_edge16_Node000013_Node000014"><a xlink:title=" ">
<path fill="none" stroke="#63b8ff" d="M874.87,-298.7C952.36,-266.28 1110.15,-202.98 1248.75,-164.5 1330.3,-141.86 1353.89,-150 1435.75,-128.5 1442.41,-126.75 1449.38,-124.68 1456.19,-122.53"/>
<polygon fill="#63b8ff" stroke="#63b8ff" points="873.74,-295.38 865.87,-302.48 876.45,-301.84 873.74,-295.38"/>
</a>
</g>
</g>
<!-- Node15 -->
<g id="Node000015" class="node">
<title>Node15</title>
<g id="a_Node000015"><a xlink:href="validation_8h.html" target="_top" xlink:title="RPL control message validation functions.">
<polygon fill="white" stroke="#666666" points="1560,-46.25 1443.5,-46.25 1443.5,0 1560,0 1560,-46.25"/>
<text text-anchor="start" x="1451.5" y="-32.75" font-family="Helvetica,sans-Serif" font-size="10.00">sys/net/gnrc/routing</text>
<text text-anchor="start" x="1451.5" y="-20" font-family="Helvetica,sans-Serif" font-size="10.00">/rpl/gnrc_rpl_internal</text>
<text text-anchor="middle" x="1501.75" y="-7.25" font-family="Helvetica,sans-Serif" font-size="10.00">/validation.h</text>
</a>
</g>
</g>
<!-- Node14&#45;&gt;Node15 -->
<g id="edge17_Node000014_Node000015" class="edge">
<title>Node14&#45;&gt;Node15</title>
<g id="a_edge17_Node000014_Node000015"><a xlink:title=" ">
<path fill="none" stroke="#63b8ff" d="M1501.75,-76.89C1501.75,-67.05 1501.75,-56.1 1501.75,-46.73"/>
<polygon fill="#63b8ff" stroke="#63b8ff" points="1498.25,-76.62 1501.75,-86.62 1505.25,-76.62 1498.25,-76.62"/>
</a>
</g>
</g>
<!-- Node17 -->
<g id="Node000017" class="node">
<title>Node17</title>
<g id="a_Node000017"><a xlink:href="nib_8h.html" target="_top" xlink:title="NIB definitions.">
<polygon fill="white" stroke="#666666" points="746.5,-337 633,-337 633,-303.5 746.5,-303.5 746.5,-337"/>
<text text-anchor="start" x="641" y="-323.5" font-family="Helvetica,sans-Serif" font-size="10.00">sys/include/net/gnrc</text>
<text text-anchor="middle" x="689.75" y="-310.75" font-family="Helvetica,sans-Serif" font-size="10.00">/ipv6/nib.h</text>
</a>
</g>
</g>
<!-- Node16&#45;&gt;Node17 -->
<g id="edge19_Node000016_Node000017" class="edge">
<title>Node16&#45;&gt;Node17</title>
<g id="a_edge19_Node000016_Node000017"><a xlink:title=" ">
<path fill="none" stroke="#63b8ff" d="M689.75,-361.31C689.75,-353.09 689.75,-344.34 689.75,-337.13"/>
<polygon fill="#63b8ff" stroke="#63b8ff" points="686.25,-361.24 689.75,-371.24 693.25,-361.24 686.25,-361.24"/>
</a>
</g>
</g>
<!-- Node17&#45;&gt;Node6 -->
<g id="edge33_Node000017_Node000006" class="edge">
<title>Node17&#45;&gt;Node6</title>
<g id="a_edge33_Node000017_Node000006"><a xlink:title=" ">
<path fill="none" stroke="#63b8ff" d="M682.39,-292.57C672.04,-259.16 650.34,-201.78 614.75,-164.5 600.74,-149.82 582.19,-137.98 564.47,-128.91"/>
<polygon fill="#63b8ff" stroke="#63b8ff" points="678.95,-293.28 685.16,-301.87 685.66,-291.29 678.95,-293.28"/>
</a>
</g>
</g>
<!-- Node18 -->
<g id="Node000018" class="node">
<title>Node18</title>
<g id="a_Node000018"><a xlink:href="gnrc_2ipv6_8h.html" target="_top" xlink:title="Definitions for GNRC&#39;s IPv6 implementation.">
<polygon fill="white" stroke="#666666" points="851.5,-267.5 738,-267.5 738,-234 851.5,-234 851.5,-267.5"/>
<text text-anchor="start" x="746" y="-254" font-family="Helvetica,sans-Serif" font-size="10.00">sys/include/net/gnrc</text>
<text text-anchor="middle" x="794.75" y="-241.25" font-family="Helvetica,sans-Serif" font-size="10.00">/ipv6.h</text>
</a>
</g>
</g>
<!-- Node17&#45;&gt;Node18 -->
<g id="edge20_Node000017_Node000018" class="edge">
<title>Node17&#45;&gt;Node18</title>
<g id="a_edge20_Node000017_Node000018"><a xlink:title=" ">
<path fill="none" stroke="#63b8ff" d="M724.29,-297.04C739.16,-287.49 756.2,-276.53 769.81,-267.79"/>
<polygon fill="#63b8ff" stroke="#63b8ff" points="722.69,-293.91 716.17,-302.26 726.48,-299.8 722.69,-293.91"/>
</a>
</g>
</g>
<!-- Node18&#45;&gt;Node4 -->
<g id="edge23_Node000018_Node000004" class="edge">
<title>Node18&#45;&gt;Node4</title>
<g id="a_edge23_Node000018_Node000004"><a xlink:title=" ">
<path fill="none" stroke="#63b8ff" d="M726.46,-241.26C656.64,-232.16 545.22,-216.52 449.75,-198 446.86,-197.44 443.9,-196.84 440.92,-196.21"/>
<polygon fill="#63b8ff" stroke="#63b8ff" points="725.85,-244.71 736.22,-242.52 726.75,-237.76 725.85,-244.71"/>
</a>
</g>
</g>
<!-- Node18&#45;&gt;Node6 -->
<g id="edge32_Node000018_Node000006" class="edge">
<title>Node18&#45;&gt;Node6</title>
<g id="a_edge32_Node000018_Node000006"><a xlink:title=" ">
<path fill="none" stroke="#63b8ff" d="M761.4,-227.65C733.15,-209.44 691.22,-183.61 652.75,-164.5 626.4,-151.41 596.33,-138.98 570.44,-128.99"/>
<polygon fill="#63b8ff" stroke="#63b8ff" points="759.23,-230.41 769.52,-232.92 763.04,-224.54 759.23,-230.41"/>
</a>
</g>
</g>
<!-- Node19 -->
<g id="Node000019" class="node">
<title>Node19</title>
<g id="a_Node000019"><a xlink:href="net_2gnrc_2icmpv6_2error_8h.html" target="_top" xlink:title="ICMPv6 error message definitions.">
<polygon fill="white" stroke="#666666" points="1064.5,-198 951,-198 951,-164.5 1064.5,-164.5 1064.5,-198"/>
<text text-anchor="start" x="959" y="-184.5" font-family="Helvetica,sans-Serif" font-size="10.00">sys/include/net/gnrc</text>
<text text-anchor="middle" x="1007.75" y="-171.75" font-family="Helvetica,sans-Serif" font-size="10.00">/icmpv6/error.h</text>
</a>
</g>
</g>
<!-- Node18&#45;&gt;Node19 -->
<g id="edge21_Node000018_Node000019" class="edge">
<title>Node18&#45;&gt;Node19</title>
<g id="a_edge21_Node000018_Node000019"><a xlink:title=" ">
<path fill="none" stroke="#63b8ff" d="M856.72,-230.11C888.5,-220.04 926.73,-207.92 956.78,-198.4"/>
<polygon fill="#63b8ff" stroke="#63b8ff" points="855.69,-226.77 847.21,-233.12 857.8,-233.44 855.69,-226.77"/>
</a>
</g>
</g>
<!-- Node20 -->
<g id="Node000020" class="node">
<title>Node20</title>
<g id="a_Node000020"><a xlink:href="gnrc_2tcp_8h.html" target="_top" xlink:title="GNRC TCP API.">
<polygon fill="white" stroke="#666666" points="1426.5,-122.12 1313,-122.12 1313,-88.62 1426.5,-88.62 1426.5,-122.12"/>
<text text-anchor="start" x="1321" y="-108.62" font-family="Helvetica,sans-Serif" font-size="10.00">sys/include/net/gnrc</text>
<text text-anchor="middle" x="1369.75" y="-95.88" font-family="Helvetica,sans-Serif" font-size="10.00">/tcp.h</text>
</a>
</g>
</g>
<!-- Node18&#45;&gt;Node20 -->
<g id="edge24_Node000018_Node000020" class="edge">
<title>Node18&#45;&gt;Node20</title>
<g id="a_edge24_Node000018_Node000020"><a xlink:title=" ">
<path fill="none" stroke="#63b8ff" d="M846.24,-228.88C864.97,-220.37 885.9,-209.77 903.75,-198 922.55,-185.61 921.11,-173.49 941.75,-164.5 1089.98,-99.93 1145.66,-162.41 1303.75,-128.5 1311.08,-126.93 1318.72,-124.82 1326.11,-122.53"/>
<polygon fill="#63b8ff" stroke="#63b8ff" points="844.91,-225.64 837.18,-232.89 847.75,-232.04 844.91,-225.64"/>
</a>
</g>
</g>
<!-- Node21 -->
<g id="Node000021" class="node">
<title>Node21</title>
<g id="a_Node000021"><a xlink:href="tcb_8h.html" target="_top" xlink:title="GNRC TCP transmission control block (TCB)">
<polygon fill="white" stroke="#666666" points="894.5,-198 781,-198 781,-164.5 894.5,-164.5 894.5,-198"/>
<text text-anchor="start" x="789" y="-184.5" font-family="Helvetica,sans-Serif" font-size="10.00">sys/include/net/gnrc</text>
<text text-anchor="middle" x="837.75" y="-171.75" font-family="Helvetica,sans-Serif" font-size="10.00">/tcp/tcb.h</text>
</a>
</g>
</g>
<!-- Node18&#45;&gt;Node21 -->
<g id="edge25_Node000018_Node000021" class="edge">
<title>Node18&#45;&gt;Node21</title>
<g id="a_edge25_Node000018_Node000021"><a xlink:title=" ">
<path fill="none" stroke="#63b8ff" d="M810.96,-224.31C816.55,-215.52 822.66,-205.93 827.63,-198.13"/>
<polygon fill="#63b8ff" stroke="#63b8ff" points="808.17,-222.16 805.75,-232.48 814.08,-225.92 808.17,-222.16"/>
</a>
</g>
</g>
<!-- Node19&#45;&gt;Node14 -->
<g id="edge22_Node000019_Node000014" class="edge">
<title>Node19&#45;&gt;Node14</title>
<g id="a_edge22_Node000019_Node000014"><a xlink:title=" ">
<path fill="none" stroke="#63b8ff" d="M1076.21,-164.92C1077.06,-164.77 1077.91,-164.64 1078.75,-164.5 1236.2,-139.19 1279.85,-162.05 1435.75,-128.5 1443.08,-126.92 1450.72,-124.81 1458.11,-122.52"/>
<polygon fill="#63b8ff" stroke="#63b8ff" points="1075.7,-161.45 1066.48,-166.68 1076.94,-168.34 1075.7,-161.45"/>
</a>
</g>
</g>
<!-- Node21&#45;&gt;Node11 -->
<g id="edge28_Node000021_Node000011" class="edge">
<title>Node21&#45;&gt;Node11</title>
<g id="a_edge28_Node000021_Node000011"><a xlink:title=" ">
<path fill="none" stroke="#63b8ff" d="M787.34,-159.79C763.78,-150.23 735.66,-138.81 711.47,-128.99"/>
<polygon fill="#63b8ff" stroke="#63b8ff" points="785.82,-162.95 796.41,-163.47 788.46,-156.46 785.82,-162.95"/>
</a>
</g>
</g>
<!-- Node21&#45;&gt;Node12 -->
<g id="edge30_Node000021_Node000012" class="edge">
<title>Node21&#45;&gt;Node12</title>
<g id="a_edge30_Node000021_Node000012"><a xlink:title=" ">
<path fill="none" stroke="#63b8ff" d="M824.25,-154C820.01,-145.77 815.38,-136.76 811.29,-128.82"/>
<polygon fill="#63b8ff" stroke="#63b8ff" points="821.13,-155.58 828.81,-162.87 827.35,-152.38 821.13,-155.58"/>
</a>
</g>
</g>
<!-- Node21&#45;&gt;Node20 -->
<g id="edge26_Node000021_Node000020" class="edge">
<title>Node21&#45;&gt;Node20</title>
<g id="a_edge26_Node000021_Node000020"><a xlink:title=" ">
<path fill="none" stroke="#63b8ff" d="M906.21,-164.91C907.06,-164.77 907.91,-164.63 908.75,-164.5 1082.93,-137.36 1131.24,-164.76 1303.75,-128.5 1311.08,-126.96 1318.73,-124.87 1326.12,-122.58"/>
<polygon fill="#63b8ff" stroke="#63b8ff" points="905.71,-161.44 896.47,-166.63 906.93,-168.33 905.71,-161.44"/>
</a>
</g>
</g>
<!-- Node22 -->
<g id="Node000022" class="node">
<title>Node22</title>
<g id="a_Node000022"><a xlink:href="gnrc__tcp__common_8h.html" target="_top" xlink:title="Internally used defines, macros and variable declarations.">
<polygon fill="white" stroke="#666666" points="1006.88,-128.5 880.62,-128.5 880.62,-82.25 1006.88,-82.25 1006.88,-128.5"/>
<text text-anchor="start" x="888.62" y="-115" font-family="Helvetica,sans-Serif" font-size="10.00">sys/net/gnrc/transport</text>
<text text-anchor="start" x="888.62" y="-102.25" font-family="Helvetica,sans-Serif" font-size="10.00">_layer/tcp/include/gnrc</text>
<text text-anchor="middle" x="943.75" y="-89.5" font-family="Helvetica,sans-Serif" font-size="10.00">_tcp_common.h</text>
</a>
</g>
</g>
<!-- Node21&#45;&gt;Node22 -->
<g id="edge27_Node000021_Node000022" class="edge">
<title>Node21&#45;&gt;Node22</title>
<g id="a_edge27_Node000021_Node000022"><a xlink:title=" ">
<path fill="none" stroke="#63b8ff" d="M870.12,-157.69C883.18,-148.59 898.22,-138.1 911.29,-128.99"/>
<polygon fill="#63b8ff" stroke="#63b8ff" points="868.46,-154.58 862.25,-163.17 872.46,-160.33 868.46,-154.58"/>
</a>
</g>
</g>
<!-- Node23 -->
<g id="Node000023" class="node">
<title>Node23</title>
<g id="a_Node000023"><a xlink:href="gnrc__tcp__option_8h.html" target="_top" xlink:title="TCP option handling declarations.">
<polygon fill="white" stroke="#666666" points="1150.88,-128.5 1024.62,-128.5 1024.62,-82.25 1150.88,-82.25 1150.88,-128.5"/>
<text text-anchor="start" x="1032.62" y="-115" font-family="Helvetica,sans-Serif" font-size="10.00">sys/net/gnrc/transport</text>
<text text-anchor="start" x="1032.62" y="-102.25" font-family="Helvetica,sans-Serif" font-size="10.00">_layer/tcp/include/gnrc</text>
<text text-anchor="middle" x="1087.75" y="-89.5" font-family="Helvetica,sans-Serif" font-size="10.00">_tcp_option.h</text>
</a>
</g>
</g>
<!-- Node21&#45;&gt;Node23 -->
<g id="edge29_Node000021_Node000023" class="edge">
<title>Node21&#45;&gt;Node23</title>
<g id="a_edge29_Node000021_Node000023"><a xlink:title=" ">
<path fill="none" stroke="#63b8ff" d="M905.32,-160.87C938.61,-151.25 979.32,-139.39 1015.75,-128.5 1018.51,-127.68 1021.32,-126.83 1024.16,-125.97"/>
<polygon fill="#63b8ff" stroke="#63b8ff" points="904.42,-157.48 895.79,-163.62 906.36,-164.21 904.42,-157.48"/>
</a>
</g>
</g>
<!-- Node24 -->
<g id="Node000024" class="node">
<title>Node24</title>
<g id="a_Node000024"><a xlink:href="gnrc__tcp__rcvbuf_8h.html" target="_top" xlink:title="Functions for allocating and freeing the receive buffer.">
<polygon fill="white" stroke="#666666" points="1294.88,-128.5 1168.62,-128.5 1168.62,-82.25 1294.88,-82.25 1294.88,-128.5"/>
<text text-anchor="start" x="1176.62" y="-115" font-family="Helvetica,sans-Serif" font-size="10.00">sys/net/gnrc/transport</text>
<text text-anchor="start" x="1176.62" y="-102.25" font-family="Helvetica,sans-Serif" font-size="10.00">_layer/tcp/include/gnrc</text>
<text text-anchor="middle" x="1231.75" y="-89.5" font-family="Helvetica,sans-Serif" font-size="10.00">_tcp_rcvbuf.h</text>
</a>
</g>
</g>
<!-- Node21&#45;&gt;Node24 -->
<g id="edge31_Node000021_Node000024" class="edge">
<title>Node21&#45;&gt;Node24</title>
<g id="a_edge31_Node000021_Node000024"><a xlink:title=" ">
<path fill="none" stroke="#63b8ff" d="M905.71,-165.06C906.73,-164.87 907.74,-164.68 908.75,-164.5 1019.62,-144.28 1049.78,-153.13 1159.75,-128.5 1162.56,-127.87 1165.41,-127.19 1168.29,-126.46"/>
<polygon fill="#63b8ff" stroke="#63b8ff" points="905.26,-161.58 896.12,-166.94 906.61,-168.45 905.26,-161.58"/>
</a>
</g>
</g>
<!-- Node26 -->
<g id="Node000026" class="node">
<title>Node26</title>
<g id="a_Node000026"><a xlink:href="gnrc_2sixlowpan_8h.html" target="_top" xlink:title="Definitions for 6LoWPAN.">
<polygon fill="white" stroke="#666666" points="1049.5,-337 936,-337 936,-303.5 1049.5,-303.5 1049.5,-337"/>
<text text-anchor="start" x="944" y="-323.5" font-family="Helvetica,sans-Serif" font-size="10.00">sys/include/net/gnrc</text>
<text text-anchor="middle" x="992.75" y="-310.75" font-family="Helvetica,sans-Serif" font-size="10.00">/sixlowpan.h</text>
</a>
</g>
</g>
<!-- Node25&#45;&gt;Node26 -->
<g id="edge35_Node000025_Node000026" class="edge">
<title>Node25&#45;&gt;Node26</title>
<g id="a_edge35_Node000025_Node000026"><a xlink:title=" ">
<path fill="none" stroke="#63b8ff" d="M992.75,-361.31C992.75,-353.09 992.75,-344.34 992.75,-337.13"/>
<polygon fill="#63b8ff" stroke="#63b8ff" points="989.25,-361.24 992.75,-371.24 996.25,-361.24 989.25,-361.24"/>
</a>
</g>
</g>
<!-- Node27 -->
<g id="Node000027" class="node">
<title>Node27</title>
<g id="a_Node000027"><a xlink:href="minfwd_8h.html" target="_top" xlink:title="Minimal fragment forwarding definitions.">
<polygon fill="white" stroke="#666666" points="1260.62,-267.5 1120.88,-267.5 1120.88,-234 1260.62,-234 1260.62,-267.5"/>
<text text-anchor="start" x="1128.88" y="-254" font-family="Helvetica,sans-Serif" font-size="10.00">sys/include/net/gnrc</text>
<text text-anchor="middle" x="1190.75" y="-241.25" font-family="Helvetica,sans-Serif" font-size="10.00">/sixlowpan/frag/minfwd.h</text>
</a>
</g>
</g>
<!-- Node25&#45;&gt;Node27 -->
<g id="edge36_Node000025_Node000027" class="edge">
<title>Node25&#45;&gt;Node27</title>
<g id="a_edge36_Node000025_Node000027"><a xlink:title=" ">
<path fill="none" stroke="#63b8ff" d="M1025.16,-366.32C1065.18,-338.64 1132.24,-292.23 1167.49,-267.84"/>
<polygon fill="#63b8ff" stroke="#63b8ff" points="1023.33,-363.34 1017.1,-371.91 1027.31,-369.09 1023.33,-363.34"/>
</a>
</g>
</g>
<!-- Node29 -->
<g id="Node000029" class="node">
<title>Node29</title>
<g id="a_Node000029"><a xlink:href="vrb_8h.html" target="_top" xlink:title="Virtual reassembly buffer definitions.">
<polygon fill="white" stroke="#666666" points="1250.12,-337 1131.38,-337 1131.38,-303.5 1250.12,-303.5 1250.12,-337"/>
<text text-anchor="start" x="1139.38" y="-323.5" font-family="Helvetica,sans-Serif" font-size="10.00">sys/include/net/gnrc</text>
<text text-anchor="middle" x="1190.75" y="-310.75" font-family="Helvetica,sans-Serif" font-size="10.00">/sixlowpan/frag/vrb.h</text>
</a>
</g>
</g>
<!-- Node28&#45;&gt;Node29 -->
<g id="edge38_Node000028_Node000029" class="edge">
<title>Node28&#45;&gt;Node29</title>
<g id="a_edge38_Node000028_Node000029"><a xlink:title=" ">
<path fill="none" stroke="#63b8ff" d="M1170.6,-362.46C1174.79,-353.91 1179.3,-344.68 1182.99,-337.13"/>
<polygon fill="#63b8ff" stroke="#63b8ff" points="1167.48,-360.87 1166.24,-371.39 1173.77,-363.95 1167.48,-360.87"/>
</a>
</g>
</g>
<!-- Node29&#45;&gt;Node27 -->
<g id="edge39_Node000029_Node000027" class="edge">
<title>Node29&#45;&gt;Node27</title>
<g id="a_edge39_Node000029_Node000027"><a xlink:title=" ">
<path fill="none" stroke="#63b8ff" d="M1190.75,-291.81C1190.75,-283.59 1190.75,-274.84 1190.75,-267.63"/>
<polygon fill="#63b8ff" stroke="#63b8ff" points="1187.25,-291.74 1190.75,-301.74 1194.25,-291.74 1187.25,-291.74"/>
</a>
</g>
</g>
<!-- Node30 -->
<g id="Node000030" class="node">
<title>Node30</title>
<g id="a_Node000030"><a xlink:href="gnrc_2sixlowpan_2frag_2sfr_8h.html" target="_top" xlink:title="6LoWPAN selective fragment recovery definitions for GNRC">
<polygon fill="white" stroke="#666666" points="1394.62,-267.5 1278.88,-267.5 1278.88,-234 1394.62,-234 1394.62,-267.5"/>
<text text-anchor="start" x="1286.88" y="-254" font-family="Helvetica,sans-Serif" font-size="10.00">sys/include/net/gnrc</text>
<text text-anchor="middle" x="1336.75" y="-241.25" font-family="Helvetica,sans-Serif" font-size="10.00">/sixlowpan/frag/sfr.h</text>
</a>
</g>
</g>
<!-- Node29&#45;&gt;Node30 -->
<g id="edge40_Node000029_Node000030" class="edge">
<title>Node29&#45;&gt;Node30</title>
<g id="a_edge40_Node000029_Node000030"><a xlink:title=" ">
<path fill="none" stroke="#63b8ff" d="M1236.1,-298.28C1257.29,-288.49 1282.12,-277.01 1301.81,-267.9"/>
<polygon fill="#63b8ff" stroke="#63b8ff" points="1234.7,-295.07 1227.09,-302.45 1237.64,-301.43 1234.7,-295.07"/>
</a>
</g>
</g>
<!-- Node31 -->
<g id="Node000031" class="node">
<title>Node31</title>
<g id="a_Node000031"><a xlink:href="net_2gnrc_2sixlowpan_2frag_2sfr_2congure_8h.html" target="_top" xlink:title="Congure definitions for 6LoWPAN selective fragment recovery.">
<polygon fill="white" stroke="#666666" points="1415.62,-198 1257.88,-198 1257.88,-164.5 1415.62,-164.5 1415.62,-198"/>
<text text-anchor="start" x="1265.88" y="-184.5" font-family="Helvetica,sans-Serif" font-size="10.00">sys/include/net/gnrc</text>
<text text-anchor="middle" x="1336.75" y="-171.75" font-family="Helvetica,sans-Serif" font-size="10.00">/sixlowpan/frag/sfr/congure.h</text>
</a>
</g>
</g>
<!-- Node30&#45;&gt;Node31 -->
<g id="edge41_Node000030_Node000031" class="edge">
<title>Node30&#45;&gt;Node31</title>
<g id="a_edge41_Node000030_Node000031"><a xlink:title=" ">
<path fill="none" stroke="#63b8ff" d="M1336.75,-222.31C1336.75,-214.09 1336.75,-205.34 1336.75,-198.13"/>
<polygon fill="#63b8ff" stroke="#63b8ff" points="1333.25,-222.24 1336.75,-232.24 1340.25,-222.24 1333.25,-222.24"/>
</a>
</g>
</g>
<!-- Node31&#45;&gt;Node31 -->
<g id="edge42_Node000031_Node000031" class="edge">
<title>Node31&#45;&gt;Node31</title>
<g id="a_edge42_Node000031_Node000031"><a xlink:title=" ">
<path fill="none" stroke="#63b8ff" d="M1426.84,-189.5C1431.11,-187.43 1433.62,-184.68 1433.62,-181.25 1433.62,-175.48 1426.51,-171.63 1415.81,-169.69"/>
<polygon fill="#63b8ff" stroke="#63b8ff" points="1425.83,-186.15 1417.26,-192.38 1427.84,-192.85 1425.83,-186.15"/>
</a>
</g>
</g>
</g>
</svg>
