<?xml version="1.0" encoding="UTF-8" standalone="no"?>
<!DOCTYPE svg PUBLIC "-//W3C//DTD SVG 1.1//EN"
 "http://www.w3.org/Graphics/SVG/1.1/DTD/svg11.dtd">
<!-- Generated by graphviz version 12.1.2 (0)
 -->
<!-- Title: sys/include/net/sock/async/event.h Pages: 1 -->
<svg width="1040pt" height="382pt"
 viewBox="0.00 0.00 1039.75 382.00" xmlns="http://www.w3.org/2000/svg" xmlns:xlink="http://www.w3.org/1999/xlink">
<g id="graph0" class="graph" transform="scale(1 1) rotate(0) translate(4 378)">
<title>sys/include/net/sock/async/event.h</title>
<!-- Node1 -->
<g id="Node000001" class="node">
<title>Node1</title>
<g id="a_Node000001"><a xlink:title="Asynchronous sock using Event Queue definitions.">
<polygon fill="#999999" stroke="#666666" points="436.5,-374 321.5,-374 321.5,-340.5 436.5,-340.5 436.5,-374"/>
<text text-anchor="start" x="329.5" y="-360.5" font-family="Helvetica,sans-Serif" font-size="10.00">sys/include/net/sock</text>
<text text-anchor="middle" x="379" y="-347.75" font-family="Helvetica,sans-Serif" font-size="10.00">/async/event.h</text>
</a>
</g>
</g>
<!-- Node1&#45;&gt;Node1 -->
<g id="edge1_Node000001_Node000001" class="edge">
<title>Node1&#45;&gt;Node1</title>
<g id="a_edge1_Node000001_Node000001"><a xlink:title=" ">
<path fill="none" stroke="#63b8ff" d="M436.93,-368.39C447.27,-366.94 454.5,-363.23 454.5,-357.25 454.5,-353.7 451.95,-350.95 447.72,-349"/>
<polygon fill="#63b8ff" stroke="#63b8ff" points="448.96,-345.7 438.39,-346.5 447.15,-352.47 448.96,-345.7"/>
</a>
</g>
</g>
<!-- Node2 -->
<g id="Node000002" class="node">
<title>Node2</title>
<g id="a_Node000002"><a xlink:href="ip_8h.html" target="_top" xlink:title="Raw IPv4/IPv6 sock definitions.">
<polygon fill="white" stroke="#666666" points="220.12,-304.5 141.88,-304.5 141.88,-283.75 220.12,-283.75 220.12,-304.5"/>
<text text-anchor="middle" x="181" y="-291" font-family="Helvetica,sans-Serif" font-size="10.00">net/sock/ip.h</text>
</a>
</g>
</g>
<!-- Node1&#45;&gt;Node2 -->
<g id="edge2_Node000001_Node000002" class="edge">
<title>Node1&#45;&gt;Node2</title>
<g id="a_edge2_Node000001_Node000002"><a xlink:title=" ">
<path fill="none" stroke="#63b8ff" d="M326.46,-340.03C294.36,-330.12 253.83,-317.61 223.71,-308.31"/>
<polygon fill="#63b8ff" stroke="#63b8ff" points="224.75,-304.97 214.16,-305.36 222.68,-311.66 224.75,-304.97"/>
</a>
</g>
</g>
<!-- Node11 -->
<g id="Node000011" class="node">
<title>Node11</title>
<g id="a_Node000011"><a xlink:href="sock_2tcp_8h.html" target="_top" xlink:title="TCP sock definitions.">
<polygon fill="white" stroke="#666666" points="337.12,-304.5 252.88,-304.5 252.88,-283.75 337.12,-283.75 337.12,-304.5"/>
<text text-anchor="middle" x="295" y="-291" font-family="Helvetica,sans-Serif" font-size="10.00">net/sock/tcp.h</text>
</a>
</g>
</g>
<!-- Node1&#45;&gt;Node11 -->
<g id="edge12_Node000001_Node000011" class="edge">
<title>Node1&#45;&gt;Node11</title>
<g id="a_edge12_Node000001_Node000011"><a xlink:title=" ">
<path fill="none" stroke="#63b8ff" d="M356.93,-340.19C344.81,-331.37 329.81,-320.45 317.6,-311.57"/>
<polygon fill="#63b8ff" stroke="#63b8ff" points="319.89,-308.91 309.75,-305.86 315.78,-314.57 319.89,-308.91"/>
</a>
</g>
</g>
<!-- Node12 -->
<g id="Node000012" class="node">
<title>Node12</title>
<g id="a_Node000012"><a xlink:href="sock_2udp_8h.html" target="_top" xlink:title="UDP sock definitions.">
<polygon fill="white" stroke="#666666" points="507.62,-304.5 420.38,-304.5 420.38,-283.75 507.62,-283.75 507.62,-304.5"/>
<text text-anchor="middle" x="464" y="-291" font-family="Helvetica,sans-Serif" font-size="10.00">net/sock/udp.h</text>
</a>
</g>
</g>
<!-- Node1&#45;&gt;Node12 -->
<g id="edge19_Node000001_Node000012" class="edge">
<title>Node1&#45;&gt;Node12</title>
<g id="a_edge19_Node000001_Node000012"><a xlink:title=" ">
<path fill="none" stroke="#63b8ff" d="M401.33,-340.19C413.6,-331.37 428.78,-320.45 441.13,-311.57"/>
<polygon fill="#63b8ff" stroke="#63b8ff" points="443.01,-314.53 449.08,-305.85 438.92,-308.85 443.01,-314.53"/>
</a>
</g>
</g>
<!-- Node22 -->
<g id="Node000022" class="node">
<title>Node22</title>
<g id="a_Node000022"><a xlink:href="async_8h.html" target="_top" xlink:title="Definitions for sock extension for asynchronous access.">
<polygon fill="white" stroke="#666666" points="788.88,-304.5 691.12,-304.5 691.12,-283.75 788.88,-283.75 788.88,-304.5"/>
<text text-anchor="middle" x="740" y="-291" font-family="Helvetica,sans-Serif" font-size="10.00">net/sock/async.h</text>
</a>
</g>
</g>
<!-- Node1&#45;&gt;Node22 -->
<g id="edge45_Node000001_Node000022" class="edge">
<title>Node1&#45;&gt;Node22</title>
<g id="a_edge45_Node000001_Node000022"><a xlink:title=" ">
<path fill="none" stroke="#63b8ff" d="M436.6,-346.5C503.03,-335.25 611.74,-316.84 679.41,-305.38"/>
<polygon fill="#63b8ff" stroke="#63b8ff" points="679.96,-308.84 689.23,-303.72 678.79,-301.94 679.96,-308.84"/>
</a>
</g>
</g>
<!-- Node3 -->
<g id="Node000003" class="node">
<title>Node3</title>
<g id="a_Node000003"><a xlink:href="errno_8h.html" target="_top" xlink:title=" ">
<polygon fill="white" stroke="#666666" points="206.25,-247.75 155.75,-247.75 155.75,-227 206.25,-227 206.25,-247.75"/>
<text text-anchor="middle" x="181" y="-234.25" font-family="Helvetica,sans-Serif" font-size="10.00">errno.h</text>
</a>
</g>
</g>
<!-- Node2&#45;&gt;Node3 -->
<g id="edge3_Node000002_Node000003" class="edge">
<title>Node2&#45;&gt;Node3</title>
<g id="a_edge3_Node000002_Node000003"><a xlink:title=" ">
<path fill="none" stroke="#63b8ff" d="M181,-283.34C181,-276.72 181,-267.72 181,-259.52"/>
<polygon fill="#63b8ff" stroke="#63b8ff" points="184.5,-259.59 181,-249.59 177.5,-259.59 184.5,-259.59"/>
</a>
</g>
</g>
<!-- Node4 -->
<g id="Node000004" class="node">
<title>Node4</title>
<g id="a_Node000004"><a xlink:title=" ">
<polygon fill="#e0e0e0" stroke="#999999" points="629.38,-20.75 576.62,-20.75 576.62,0 629.38,0 629.38,-20.75"/>
<text text-anchor="middle" x="603" y="-7.25" font-family="Helvetica,sans-Serif" font-size="10.00">stdint.h</text>
</a>
</g>
</g>
<!-- Node2&#45;&gt;Node4 -->
<g id="edge4_Node000002_Node000004" class="edge">
<title>Node2&#45;&gt;Node4</title>
<g id="a_edge4_Node000002_Node000004"><a xlink:title=" ">
<path fill="none" stroke="#63b8ff" d="M141.73,-286.86C88.49,-275.88 0,-247.69 0,-181.62 0,-181.62 0,-181.62 0,-122.88 0,-65.13 433.08,-25.18 565.19,-14.34"/>
<polygon fill="#63b8ff" stroke="#63b8ff" points="565.12,-17.85 574.8,-13.56 564.55,-10.88 565.12,-17.85"/>
</a>
</g>
</g>
<!-- Node5 -->
<g id="Node000005" class="node">
<title>Node5</title>
<g id="a_Node000005"><a xlink:title=" ">
<polygon fill="#e0e0e0" stroke="#999999" points="398,-247.75 346,-247.75 346,-227 398,-227 398,-247.75"/>
<text text-anchor="middle" x="372" y="-234.25" font-family="Helvetica,sans-Serif" font-size="10.00">stdlib.h</text>
</a>
</g>
</g>
<!-- Node2&#45;&gt;Node5 -->
<g id="edge5_Node000002_Node000005" class="edge">
<title>Node2&#45;&gt;Node5</title>
<g id="a_edge5_Node000002_Node000005"><a xlink:title=" ">
<path fill="none" stroke="#63b8ff" d="M215.15,-283.34C248.84,-273.68 300.21,-258.95 334.89,-249.01"/>
<polygon fill="#63b8ff" stroke="#63b8ff" points="335.42,-252.5 344.07,-246.38 333.49,-245.77 335.42,-252.5"/>
</a>
</g>
</g>
<!-- Node6 -->
<g id="Node000006" class="node">
<title>Node6</title>
<g id="a_Node000006"><a xlink:title=" ">
<polygon fill="#e0e0e0" stroke="#999999" points="137.75,-247.75 66.25,-247.75 66.25,-227 137.75,-227 137.75,-247.75"/>
<text text-anchor="middle" x="102" y="-234.25" font-family="Helvetica,sans-Serif" font-size="10.00">sys/types.h</text>
</a>
</g>
</g>
<!-- Node2&#45;&gt;Node6 -->
<g id="edge6_Node000002_Node000006" class="edge">
<title>Node2&#45;&gt;Node6</title>
<g id="a_edge6_Node000002_Node000006"><a xlink:title=" ">
<path fill="none" stroke="#63b8ff" d="M166.88,-283.34C155.31,-275.32 138.7,-263.81 125.18,-254.44"/>
<polygon fill="#63b8ff" stroke="#63b8ff" points="127.46,-251.76 117.25,-248.94 123.47,-257.51 127.46,-251.76"/>
</a>
</g>
</g>
<!-- Node7 -->
<g id="Node000007" class="node">
<title>Node7</title>
<g id="a_Node000007"><a xlink:href="sock_8h.html" target="_top" xlink:title="Common sock API definitions.">
<polygon fill="white" stroke="#666666" points="328.12,-247.75 261.88,-247.75 261.88,-227 328.12,-227 328.12,-247.75"/>
<text text-anchor="middle" x="295" y="-234.25" font-family="Helvetica,sans-Serif" font-size="10.00">net/sock.h</text>
</a>
</g>
</g>
<!-- Node2&#45;&gt;Node7 -->
<g id="edge7_Node000002_Node000007" class="edge">
<title>Node2&#45;&gt;Node7</title>
<g id="a_edge7_Node000002_Node000007"><a xlink:title=" ">
<path fill="none" stroke="#63b8ff" d="M201.38,-283.34C218.97,-274.89 244.63,-262.57 264.63,-252.96"/>
<polygon fill="#63b8ff" stroke="#63b8ff" points="265.93,-256.22 273.43,-248.73 262.9,-249.91 265.93,-256.22"/>
</a>
</g>
</g>
<!-- Node10 -->
<g id="Node000010" class="node">
<title>Node10</title>
<g id="a_Node000010"><a xlink:title=" ">
<polygon fill="#e0e0e0" stroke="#999999" points="503.88,-191 424.12,-191 424.12,-170.25 503.88,-170.25 503.88,-191"/>
<text text-anchor="middle" x="464" y="-177.5" font-family="Helvetica,sans-Serif" font-size="10.00">sock_types.h</text>
</a>
</g>
</g>
<!-- Node2&#45;&gt;Node10 -->
<g id="edge11_Node000002_Node000010" class="edge">
<title>Node2&#45;&gt;Node10</title>
<g id="a_edge11_Node000002_Node000010"><a xlink:title=" ">
<path fill="none" stroke="#63b8ff" d="M141.42,-286.65C95.27,-277.49 28.68,-258.3 57,-227 108.59,-169.98 318.44,-199.97 412.33,-191.13"/>
<polygon fill="#63b8ff" stroke="#63b8ff" points="412.7,-194.61 422.21,-189.95 411.87,-187.66 412.7,-194.61"/>
</a>
</g>
</g>
<!-- Node7&#45;&gt;Node4 -->
<g id="edge8_Node000007_Node000004" class="edge">
<title>Node7&#45;&gt;Node4</title>
<g id="a_edge8_Node000007_Node000004"><a xlink:title=" ">
<path fill="none" stroke="#63b8ff" d="M297.91,-226.7C302.29,-213.16 311.54,-188.2 325,-170.25 386.87,-87.72 505.09,-41.37 565.48,-22.1"/>
<polygon fill="#63b8ff" stroke="#63b8ff" points="566.44,-25.47 574.95,-19.16 564.37,-18.78 566.44,-25.47"/>
</a>
</g>
</g>
<!-- Node8 -->
<g id="Node000008" class="node">
<title>Node8</title>
<g id="a_Node000008"><a xlink:title=" ">
<polygon fill="#e0e0e0" stroke="#999999" points="454.5,-134.25 399.5,-134.25 399.5,-113.5 454.5,-113.5 454.5,-134.25"/>
<text text-anchor="middle" x="427" y="-120.75" font-family="Helvetica,sans-Serif" font-size="10.00">stddef.h</text>
</a>
</g>
</g>
<!-- Node7&#45;&gt;Node8 -->
<g id="edge9_Node000007_Node000008" class="edge">
<title>Node7&#45;&gt;Node8</title>
<g id="a_edge9_Node000007_Node000008"><a xlink:title=" ">
<path fill="none" stroke="#63b8ff" d="M301.09,-226.93C310.25,-213.22 328.71,-187.57 349,-170.25 363.14,-158.19 380.92,-147.56 395.94,-139.63"/>
<polygon fill="#63b8ff" stroke="#63b8ff" points="397.15,-142.94 404.46,-135.27 393.96,-136.71 397.15,-142.94"/>
</a>
</g>
</g>
<!-- Node9 -->
<g id="Node000009" class="node">
<title>Node9</title>
<g id="a_Node000009"><a xlink:href="iolist_8h.html" target="_top" xlink:title="iolist scatter / gather IO">
<polygon fill="white" stroke="#666666" points="406.5,-191 357.5,-191 357.5,-170.25 406.5,-170.25 406.5,-191"/>
<text text-anchor="middle" x="382" y="-177.5" font-family="Helvetica,sans-Serif" font-size="10.00">iolist.h</text>
</a>
</g>
</g>
<!-- Node7&#45;&gt;Node9 -->
<g id="edge10_Node000007_Node000009" class="edge">
<title>Node7&#45;&gt;Node9</title>
<g id="a_edge10_Node000007_Node000009"><a xlink:title=" ">
<path fill="none" stroke="#63b8ff" d="M310.55,-226.59C323.42,-218.49 341.94,-206.83 356.91,-197.42"/>
<polygon fill="#63b8ff" stroke="#63b8ff" points="358.7,-200.42 365.3,-192.13 354.97,-194.5 358.7,-200.42"/>
</a>
</g>
</g>
<!-- Node11&#45;&gt;Node3 -->
<g id="edge13_Node000011_Node000003" class="edge">
<title>Node11&#45;&gt;Node3</title>
<g id="a_edge13_Node000011_Node000003"><a xlink:title=" ">
<path fill="none" stroke="#63b8ff" d="M274.62,-283.34C257.03,-274.89 231.37,-262.57 211.37,-252.96"/>
<polygon fill="#63b8ff" stroke="#63b8ff" points="213.1,-249.91 202.57,-248.73 210.07,-256.22 213.1,-249.91"/>
</a>
</g>
</g>
<!-- Node11&#45;&gt;Node4 -->
<g id="edge14_Node000011_Node000004" class="edge">
<title>Node11&#45;&gt;Node4</title>
<g id="a_edge14_Node000011_Node000004"><a xlink:title=" ">
<path fill="none" stroke="#63b8ff" d="M283.43,-283.44C273.97,-274.94 260.91,-261.78 253,-247.75 237.98,-221.11 234,-212.2 234,-181.62 234,-181.62 234,-181.62 234,-122.88 234,-54.28 470.58,-24.05 564.88,-14.72"/>
<polygon fill="#63b8ff" stroke="#63b8ff" points="565.04,-18.22 574.66,-13.78 564.37,-11.26 565.04,-18.22"/>
</a>
</g>
</g>
<!-- Node11&#45;&gt;Node5 -->
<g id="edge15_Node000011_Node000005" class="edge">
<title>Node11&#45;&gt;Node5</title>
<g id="a_edge15_Node000011_Node000005"><a xlink:title=" ">
<path fill="none" stroke="#63b8ff" d="M308.77,-283.34C319.93,-275.4 335.92,-264.03 349.02,-254.71"/>
<polygon fill="#63b8ff" stroke="#63b8ff" points="351,-257.6 357.12,-248.96 346.94,-251.9 351,-257.6"/>
</a>
</g>
</g>
<!-- Node11&#45;&gt;Node6 -->
<g id="edge16_Node000011_Node000006" class="edge">
<title>Node11&#45;&gt;Node6</title>
<g id="a_edge16_Node000011_Node000006"><a xlink:title=" ">
<path fill="none" stroke="#63b8ff" d="M260.5,-283.34C228.89,-274.37 181.91,-261.04 147.3,-251.23"/>
<polygon fill="#63b8ff" stroke="#63b8ff" points="148.56,-247.95 137.99,-248.58 146.65,-254.68 148.56,-247.95"/>
</a>
</g>
</g>
<!-- Node11&#45;&gt;Node7 -->
<g id="edge17_Node000011_Node000007" class="edge">
<title>Node11&#45;&gt;Node7</title>
<g id="a_edge17_Node000011_Node000007"><a xlink:title=" ">
<path fill="none" stroke="#63b8ff" d="M295,-283.34C295,-276.72 295,-267.72 295,-259.52"/>
<polygon fill="#63b8ff" stroke="#63b8ff" points="298.5,-259.59 295,-249.59 291.5,-259.59 298.5,-259.59"/>
</a>
</g>
</g>
<!-- Node11&#45;&gt;Node10 -->
<g id="edge18_Node000011_Node000010" class="edge">
<title>Node11&#45;&gt;Node10</title>
<g id="a_edge18_Node000011_Node000010"><a xlink:title=" ">
<path fill="none" stroke="#63b8ff" d="M331.24,-283.28C354.32,-275.88 384.07,-264.19 407,-247.75 425.01,-234.83 441.05,-215.09 451.49,-200.54"/>
<polygon fill="#63b8ff" stroke="#63b8ff" points="454.11,-202.91 456.91,-192.69 448.35,-198.93 454.11,-202.91"/>
</a>
</g>
</g>
<!-- Node12&#45;&gt;Node3 -->
<g id="edge22_Node000012_Node000003" class="edge">
<title>Node12&#45;&gt;Node3</title>
<g id="a_edge22_Node000012_Node000003"><a xlink:title=" ">
<path fill="none" stroke="#63b8ff" d="M420.09,-284.63C364.38,-273.85 269.31,-255.46 217.42,-245.42"/>
<polygon fill="#63b8ff" stroke="#63b8ff" points="218.39,-242.04 207.91,-243.58 217.06,-248.92 218.39,-242.04"/>
</a>
</g>
</g>
<!-- Node12&#45;&gt;Node4 -->
<g id="edge23_Node000012_Node000004" class="edge">
<title>Node12&#45;&gt;Node4</title>
<g id="a_edge23_Node000012_Node000004"><a xlink:title=" ">
<path fill="none" stroke="#63b8ff" d="M499.87,-283.28C518.5,-276.34 540.02,-265.12 553,-247.75 589.33,-199.13 565.22,-172.83 578,-113.5 584.11,-85.14 592.27,-52.64 597.58,-32.06"/>
<polygon fill="#63b8ff" stroke="#63b8ff" points="600.89,-33.22 600.02,-22.66 594.12,-31.45 600.89,-33.22"/>
</a>
</g>
</g>
<!-- Node12&#45;&gt;Node5 -->
<g id="edge24_Node000012_Node000005" class="edge">
<title>Node12&#45;&gt;Node5</title>
<g id="a_edge24_Node000012_Node000005"><a xlink:title=" ">
<path fill="none" stroke="#63b8ff" d="M447.55,-283.34C433.82,-275.16 413.98,-263.36 398.08,-253.9"/>
<polygon fill="#63b8ff" stroke="#63b8ff" points="399.99,-250.96 389.61,-248.85 396.41,-256.97 399.99,-250.96"/>
</a>
</g>
</g>
<!-- Node12&#45;&gt;Node6 -->
<g id="edge25_Node000012_Node000006" class="edge">
<title>Node12&#45;&gt;Node6</title>
<g id="a_edge25_Node000012_Node000006"><a xlink:title=" ">
<path fill="none" stroke="#63b8ff" d="M420.02,-287.72C360.84,-280.26 252.05,-265.85 149.06,-248.01"/>
<polygon fill="#63b8ff" stroke="#63b8ff" points="149.77,-244.59 139.31,-246.31 148.56,-251.48 149.77,-244.59"/>
</a>
</g>
</g>
<!-- Node12&#45;&gt;Node7 -->
<g id="edge27_Node000012_Node000007" class="edge">
<title>Node12&#45;&gt;Node7</title>
<g id="a_edge27_Node000012_Node000007"><a xlink:title=" ">
<path fill="none" stroke="#63b8ff" d="M433.79,-283.34C406.47,-274.49 366.04,-261.39 335.85,-251.61"/>
<polygon fill="#63b8ff" stroke="#63b8ff" points="337.27,-248.39 326.68,-248.64 335.11,-255.05 337.27,-248.39"/>
</a>
</g>
</g>
<!-- Node12&#45;&gt;Node10 -->
<g id="edge44_Node000012_Node000010" class="edge">
<title>Node12&#45;&gt;Node10</title>
<g id="a_edge44_Node000012_Node000010"><a xlink:title=" ">
<path fill="none" stroke="#63b8ff" d="M464,-283.62C464,-265.85 464,-227.22 464,-202.93"/>
<polygon fill="#63b8ff" stroke="#63b8ff" points="467.5,-202.94 464,-192.94 460.5,-202.94 467.5,-202.94"/>
</a>
</g>
</g>
<!-- Node13 -->
<g id="Node000013" class="node">
<title>Node13</title>
<g id="a_Node000013"><a xlink:href="assert_8h.html" target="_top" xlink:title="POSIX.1&#45;2008 compliant version of the assert macro.">
<polygon fill="white" stroke="#666666" points="641.5,-134.25 586.5,-134.25 586.5,-113.5 641.5,-113.5 641.5,-134.25"/>
<text text-anchor="middle" x="614" y="-120.75" font-family="Helvetica,sans-Serif" font-size="10.00">assert.h</text>
</a>
</g>
</g>
<!-- Node12&#45;&gt;Node13 -->
<g id="edge20_Node000012_Node000013" class="edge">
<title>Node12&#45;&gt;Node13</title>
<g id="a_edge20_Node000012_Node000013"><a xlink:title=" ">
<path fill="none" stroke="#63b8ff" d="M508.01,-287.36C534.28,-281.64 566.27,-270.27 586,-247.75 611.03,-219.18 614.99,-172.86 614.94,-145.99"/>
<polygon fill="#63b8ff" stroke="#63b8ff" points="618.44,-145.96 614.71,-136.05 611.45,-146.12 618.44,-145.96"/>
</a>
</g>
</g>
<!-- Node14 -->
<g id="Node000014" class="node">
<title>Node14</title>
<g id="a_Node000014"><a xlink:href="af_8h.html" target="_top" xlink:title="Global UNIX address family definitions.">
<polygon fill="white" stroke="#666666" points="544.38,-247.75 491.62,-247.75 491.62,-227 544.38,-227 544.38,-247.75"/>
<text text-anchor="middle" x="518" y="-234.25" font-family="Helvetica,sans-Serif" font-size="10.00">net/af.h</text>
</a>
</g>
</g>
<!-- Node12&#45;&gt;Node14 -->
<g id="edge26_Node000012_Node000014" class="edge">
<title>Node12&#45;&gt;Node14</title>
<g id="a_edge26_Node000012_Node000014"><a xlink:title=" ">
<path fill="none" stroke="#63b8ff" d="M473.65,-283.34C481.1,-275.78 491.61,-265.14 500.52,-256.1"/>
<polygon fill="#63b8ff" stroke="#63b8ff" points="502.84,-258.73 507.37,-249.16 497.85,-253.82 502.84,-258.73"/>
</a>
</g>
</g>
<!-- Node15 -->
<g id="Node000015" class="node">
<title>Node15</title>
<g id="a_Node000015"><a xlink:href="ipv4_2addr_8h.html" target="_top" xlink:title="IPv4 address type and helper functions definitions.">
<polygon fill="white" stroke="#666666" points="753.75,-191 664.25,-191 664.25,-170.25 753.75,-170.25 753.75,-191"/>
<text text-anchor="middle" x="709" y="-177.5" font-family="Helvetica,sans-Serif" font-size="10.00">net/ipv4/addr.h</text>
</a>
</g>
</g>
<!-- Node12&#45;&gt;Node15 -->
<g id="edge28_Node000012_Node000015" class="edge">
<title>Node12&#45;&gt;Node15</title>
<g id="a_edge28_Node000012_Node000015"><a xlink:title=" ">
<path fill="none" stroke="#63b8ff" d="M508.12,-285.38C541.24,-278.46 587.04,-266.47 624,-247.75 649.61,-234.78 675.08,-213.58 691.37,-198.68"/>
<polygon fill="#63b8ff" stroke="#63b8ff" points="693.4,-201.58 698.3,-192.19 688.61,-196.47 693.4,-201.58"/>
</a>
</g>
</g>
<!-- Node21 -->
<g id="Node000021" class="node">
<title>Node21</title>
<g id="a_Node000021"><a xlink:href="ipv6_2addr_8h.html" target="_top" xlink:title="Definitions for IPv6 addresses.">
<polygon fill="white" stroke="#666666" points="911.75,-247.75 822.25,-247.75 822.25,-227 911.75,-227 911.75,-247.75"/>
<text text-anchor="middle" x="867" y="-234.25" font-family="Helvetica,sans-Serif" font-size="10.00">net/ipv6/addr.h</text>
</a>
</g>
</g>
<!-- Node12&#45;&gt;Node21 -->
<g id="edge39_Node000012_Node000021" class="edge">
<title>Node12&#45;&gt;Node21</title>
<g id="a_edge39_Node000012_Node000021"><a xlink:title=" ">
<path fill="none" stroke="#63b8ff" d="M507.88,-288.03C572.04,-280.44 695.48,-265.35 810.81,-248.03"/>
<polygon fill="#63b8ff" stroke="#63b8ff" points="811.08,-251.53 820.45,-246.57 810.03,-244.61 811.08,-251.53"/>
</a>
</g>
</g>
<!-- Node13&#45;&gt;Node4 -->
<g id="edge21_Node000013_Node000004" class="edge">
<title>Node13&#45;&gt;Node4</title>
<g id="a_edge21_Node000013_Node000004"><a xlink:title=" ">
<path fill="none" stroke="#63b8ff" d="M613.06,-113.37C611.3,-95.52 607.46,-56.61 605.07,-32.34"/>
<polygon fill="#63b8ff" stroke="#63b8ff" points="608.58,-32.29 604.12,-22.68 601.61,-32.98 608.58,-32.29"/>
</a>
</g>
</g>
<!-- Node15&#45;&gt;Node4 -->
<g id="edge30_Node000015_Node000004" class="edge">
<title>Node15&#45;&gt;Node4</title>
<g id="a_edge30_Node000015_Node000004"><a xlink:title=" ">
<path fill="none" stroke="#63b8ff" d="M703,-170.1C686.1,-143.27 637.86,-66.71 615.13,-30.63"/>
<polygon fill="#63b8ff" stroke="#63b8ff" points="618.3,-29.09 610.01,-22.5 612.38,-32.82 618.3,-29.09"/>
</a>
</g>
</g>
<!-- Node15&#45;&gt;Node8 -->
<g id="edge31_Node000015_Node000008" class="edge">
<title>Node15&#45;&gt;Node8</title>
<g id="a_edge31_Node000015_Node000008"><a xlink:title=" ">
<path fill="none" stroke="#63b8ff" d="M664,-170.89C609.21,-160.25 517.59,-142.46 465.78,-132.4"/>
<polygon fill="#63b8ff" stroke="#63b8ff" points="466.71,-129.02 456.22,-130.55 465.37,-135.89 466.71,-129.02"/>
</a>
</g>
</g>
<!-- Node16 -->
<g id="Node000016" class="node">
<title>Node16</title>
<g id="a_Node000016"><a xlink:title=" ">
<polygon fill="#e0e0e0" stroke="#999999" points="765.5,-134.25 704.5,-134.25 704.5,-113.5 765.5,-113.5 765.5,-134.25"/>
<text text-anchor="middle" x="735" y="-120.75" font-family="Helvetica,sans-Serif" font-size="10.00">stdbool.h</text>
</a>
</g>
</g>
<!-- Node15&#45;&gt;Node16 -->
<g id="edge29_Node000015_Node000016" class="edge">
<title>Node15&#45;&gt;Node16</title>
<g id="a_edge29_Node000015_Node000016"><a xlink:title=" ">
<path fill="none" stroke="#63b8ff" d="M713.65,-169.84C716.94,-162.91 721.47,-153.37 725.51,-144.86"/>
<polygon fill="#63b8ff" stroke="#63b8ff" points="728.61,-146.48 729.74,-135.95 722.29,-143.48 728.61,-146.48"/>
</a>
</g>
</g>
<!-- Node17 -->
<g id="Node000017" class="node">
<title>Node17</title>
<g id="a_Node000017"><a xlink:href="byteorder_8h.html" target="_top" xlink:title="Functions to work with different byte orders.">
<polygon fill="white" stroke="#666666" points="864.12,-134.25 791.88,-134.25 791.88,-113.5 864.12,-113.5 864.12,-134.25"/>
<text text-anchor="middle" x="828" y="-120.75" font-family="Helvetica,sans-Serif" font-size="10.00">byteorder.h</text>
</a>
</g>
</g>
<!-- Node15&#45;&gt;Node17 -->
<g id="edge32_Node000015_Node000017" class="edge">
<title>Node15&#45;&gt;Node17</title>
<g id="a_edge32_Node000015_Node000017"><a xlink:title=" ">
<path fill="none" stroke="#63b8ff" d="M730.27,-169.84C748.72,-161.35 775.66,-148.95 796.59,-139.33"/>
<polygon fill="#63b8ff" stroke="#63b8ff" points="797.91,-142.57 805.53,-135.21 794.99,-136.21 797.91,-142.57"/>
</a>
</g>
</g>
<!-- Node17&#45;&gt;Node4 -->
<g id="edge34_Node000017_Node000004" class="edge">
<title>Node17&#45;&gt;Node4</title>
<g id="a_edge34_Node000017_Node000004"><a xlink:title=" ">
<path fill="none" stroke="#63b8ff" d="M831.46,-113.08C835.77,-98.94 841.09,-72.74 828,-56.75 804.8,-28.41 698.89,-17.37 641.03,-13.4"/>
<polygon fill="#63b8ff" stroke="#63b8ff" points="641.51,-9.93 631.31,-12.78 641.06,-16.91 641.51,-9.93"/>
</a>
</g>
</g>
<!-- Node18 -->
<g id="Node000018" class="node">
<title>Node18</title>
<g id="a_Node000018"><a xlink:title=" ">
<polygon fill="#e0e0e0" stroke="#999999" points="927.38,-77.5 874.62,-77.5 874.62,-56.75 927.38,-56.75 927.38,-77.5"/>
<text text-anchor="middle" x="901" y="-64" font-family="Helvetica,sans-Serif" font-size="10.00">string.h</text>
</a>
</g>
</g>
<!-- Node17&#45;&gt;Node18 -->
<g id="edge33_Node000017_Node000018" class="edge">
<title>Node17&#45;&gt;Node18</title>
<g id="a_edge33_Node000017_Node000018"><a xlink:title=" ">
<path fill="none" stroke="#63b8ff" d="M841.05,-113.09C851.64,-105.15 866.79,-93.78 879.22,-84.46"/>
<polygon fill="#63b8ff" stroke="#63b8ff" points="880.95,-87.54 886.85,-78.74 876.75,-81.94 880.95,-87.54"/>
</a>
</g>
</g>
<!-- Node19 -->
<g id="Node000019" class="node">
<title>Node19</title>
<g id="a_Node000019"><a xlink:href="endian_8h.html" target="_top" xlink:title="libc header for endian conversion">
<polygon fill="white" stroke="#666666" points="727,-77.5 669,-77.5 669,-56.75 727,-56.75 727,-77.5"/>
<text text-anchor="middle" x="698" y="-64" font-family="Helvetica,sans-Serif" font-size="10.00">endian.h</text>
</a>
</g>
</g>
<!-- Node17&#45;&gt;Node19 -->
<g id="edge35_Node000017_Node000019" class="edge">
<title>Node17&#45;&gt;Node19</title>
<g id="a_edge35_Node000017_Node000019"><a xlink:title=" ">
<path fill="none" stroke="#63b8ff" d="M804.76,-113.09C784.33,-104.48 754.36,-91.86 731.37,-82.18"/>
<polygon fill="#63b8ff" stroke="#63b8ff" points="733.01,-79.07 722.44,-78.42 730.29,-85.52 733.01,-79.07"/>
</a>
</g>
</g>
<!-- Node20 -->
<g id="Node000020" class="node">
<title>Node20</title>
<g id="a_Node000020"><a xlink:href="unaligned_8h.html" target="_top" xlink:title="Unaligned but safe memory access functions.">
<polygon fill="white" stroke="#666666" points="818.5,-77.5 745.5,-77.5 745.5,-56.75 818.5,-56.75 818.5,-77.5"/>
<text text-anchor="middle" x="782" y="-64" font-family="Helvetica,sans-Serif" font-size="10.00">unaligned.h</text>
</a>
</g>
</g>
<!-- Node17&#45;&gt;Node20 -->
<g id="edge37_Node000017_Node000020" class="edge">
<title>Node17&#45;&gt;Node20</title>
<g id="a_edge37_Node000017_Node000020"><a xlink:title=" ">
<path fill="none" stroke="#63b8ff" d="M819.78,-113.09C813.56,-105.69 804.85,-95.32 797.36,-86.41"/>
<polygon fill="#63b8ff" stroke="#63b8ff" points="800.24,-84.39 791.13,-78.99 794.88,-88.9 800.24,-84.39"/>
</a>
</g>
</g>
<!-- Node19&#45;&gt;Node4 -->
<g id="edge36_Node000019_Node000004" class="edge">
<title>Node19&#45;&gt;Node4</title>
<g id="a_edge36_Node000019_Node000004"><a xlink:title=" ">
<path fill="none" stroke="#63b8ff" d="M681.02,-56.34C666.7,-48.08 645.96,-36.13 629.46,-26.63"/>
<polygon fill="#63b8ff" stroke="#63b8ff" points="631.56,-23.8 621.15,-21.83 628.06,-29.86 631.56,-23.8"/>
</a>
</g>
</g>
<!-- Node20&#45;&gt;Node4 -->
<g id="edge38_Node000020_Node000004" class="edge">
<title>Node20&#45;&gt;Node4</title>
<g id="a_edge38_Node000020_Node000004"><a xlink:title=" ">
<path fill="none" stroke="#63b8ff" d="M750,-56.34C719.32,-46.95 673.02,-32.79 640.6,-22.88"/>
<polygon fill="#63b8ff" stroke="#63b8ff" points="641.8,-19.58 631.21,-20 639.75,-26.28 641.8,-19.58"/>
</a>
</g>
</g>
<!-- Node21&#45;&gt;Node15 -->
<g id="edge43_Node000021_Node000015" class="edge">
<title>Node21&#45;&gt;Node15</title>
<g id="a_edge43_Node000021_Node000015"><a xlink:title=" ">
<path fill="none" stroke="#63b8ff" d="M838.75,-226.59C813.44,-217.82 776.08,-204.87 747.94,-195.12"/>
<polygon fill="#63b8ff" stroke="#63b8ff" points="749.29,-191.88 738.7,-191.92 747,-198.5 749.29,-191.88"/>
</a>
</g>
</g>
<!-- Node21&#45;&gt;Node16 -->
<g id="edge40_Node000021_Node000016" class="edge">
<title>Node21&#45;&gt;Node16</title>
<g id="a_edge40_Node000021_Node000016"><a xlink:title=" ">
<path fill="none" stroke="#63b8ff" d="M855.75,-226.87C833.45,-208.04 783.4,-165.76 755.24,-141.97"/>
<polygon fill="#63b8ff" stroke="#63b8ff" points="757.66,-139.43 747.76,-135.65 753.14,-144.78 757.66,-139.43"/>
</a>
</g>
</g>
<!-- Node21&#45;&gt;Node17 -->
<g id="edge42_Node000021_Node000017" class="edge">
<title>Node21&#45;&gt;Node17</title>
<g id="a_edge42_Node000021_Node000017"><a xlink:title=" ">
<path fill="none" stroke="#63b8ff" d="M863.67,-226.87C857.4,-208.94 843.7,-169.75 835.22,-145.51"/>
<polygon fill="#63b8ff" stroke="#63b8ff" points="838.53,-144.39 831.93,-136.1 831.93,-146.7 838.53,-144.39"/>
</a>
</g>
</g>
<!-- Node21&#45;&gt;Node18 -->
<g id="edge41_Node000021_Node000018" class="edge">
<title>Node21&#45;&gt;Node18</title>
<g id="a_edge41_Node000021_Node000018"><a xlink:title=" ">
<path fill="none" stroke="#63b8ff" d="M868.93,-226.85C874.28,-200.37 889.42,-125.43 896.82,-88.8"/>
<polygon fill="#63b8ff" stroke="#63b8ff" points="900.16,-89.95 898.71,-79.45 893.3,-88.56 900.16,-89.95"/>
</a>
</g>
</g>
<!-- Node23 -->
<g id="Node000023" class="node">
<title>Node23</title>
<g id="a_Node000023"><a xlink:href="sys_2include_2net_2sock_2async_2types_8h.html" target="_top" xlink:title="Definitions for sock extension for asynchronous access.">
<polygon fill="white" stroke="#666666" points="803.88,-247.75 676.12,-247.75 676.12,-227 803.88,-227 803.88,-247.75"/>
<text text-anchor="middle" x="740" y="-234.25" font-family="Helvetica,sans-Serif" font-size="10.00">net/sock/async/types.h</text>
</a>
</g>
</g>
<!-- Node22&#45;&gt;Node23 -->
<g id="edge46_Node000022_Node000023" class="edge">
<title>Node22&#45;&gt;Node23</title>
<g id="a_edge46_Node000022_Node000023"><a xlink:title=" ">
<path fill="none" stroke="#63b8ff" d="M740,-283.34C740,-276.72 740,-267.72 740,-259.52"/>
<polygon fill="#63b8ff" stroke="#63b8ff" points="743.5,-259.59 740,-249.59 736.5,-259.59 743.5,-259.59"/>
</a>
</g>
</g>
<!-- Node24 -->
<g id="Node000024" class="node">
<title>Node24</title>
<g id="a_Node000024"><a xlink:href="sock__async__ctx_8h.html" target="_top" xlink:title="Type definitions for asynchronous socks with Event Queue.">
<polygon fill="white" stroke="#666666" points="1031.75,-247.75 930.25,-247.75 930.25,-227 1031.75,-227 1031.75,-247.75"/>
<text text-anchor="middle" x="981" y="-234.25" font-family="Helvetica,sans-Serif" font-size="10.00">sock_async_ctx.h</text>
</a>
</g>
</g>
<!-- Node22&#45;&gt;Node24 -->
<g id="edge48_Node000022_Node000024" class="edge">
<title>Node22&#45;&gt;Node24</title>
<g id="a_edge48_Node000022_Node000024"><a xlink:title=" ">
<path fill="none" stroke="#63b8ff" d="M783.36,-283.27C823.42,-274.17 883.1,-260.62 926.39,-250.78"/>
<polygon fill="#63b8ff" stroke="#63b8ff" points="927.13,-254.2 936.1,-248.57 925.58,-247.38 927.13,-254.2"/>
</a>
</g>
</g>
<!-- Node23&#45;&gt;Node10 -->
<g id="edge47_Node000023_Node000010" class="edge">
<title>Node23&#45;&gt;Node10</title>
<g id="a_edge47_Node000023_Node000010"><a xlink:title=" ">
<path fill="none" stroke="#63b8ff" d="M690.34,-226.52C640.95,-216.73 565.52,-201.76 515.5,-191.84"/>
<polygon fill="#63b8ff" stroke="#63b8ff" points="516.28,-188.43 505.79,-189.91 514.91,-195.29 516.28,-188.43"/>
</a>
</g>
</g>
<!-- Node25 -->
<g id="Node000025" class="node">
<title>Node25</title>
<g id="a_Node000025"><a xlink:title=" ">
<polygon fill="#e0e0e0" stroke="#999999" points="1007.38,-191 954.62,-191 954.62,-170.25 1007.38,-170.25 1007.38,-191"/>
<text text-anchor="middle" x="981" y="-177.5" font-family="Helvetica,sans-Serif" font-size="10.00">event.h</text>
</a>
</g>
</g>
<!-- Node24&#45;&gt;Node25 -->
<g id="edge49_Node000024_Node000025" class="edge">
<title>Node24&#45;&gt;Node25</title>
<g id="a_edge49_Node000024_Node000025"><a xlink:title=" ">
<path fill="none" stroke="#63b8ff" d="M981,-226.59C981,-219.97 981,-210.97 981,-202.77"/>
<polygon fill="#63b8ff" stroke="#63b8ff" points="984.5,-202.84 981,-192.84 977.5,-202.84 984.5,-202.84"/>
</a>
</g>
</g>
</g>
</svg>
