<?xml version="1.0" encoding="UTF-8" standalone="no"?>
<!DOCTYPE svg PUBLIC "-//W3C//DTD SVG 1.1//EN"
 "http://www.w3.org/Graphics/SVG/1.1/DTD/svg11.dtd">
<!-- Generated by graphviz version 12.1.2 (0)
 -->
<!-- Title: cpu/native/include/netdev_tap.h Pages: 1 -->
<svg width="776pt" height="325pt"
 viewBox="0.00 0.00 775.50 325.25" xmlns="http://www.w3.org/2000/svg" xmlns:xlink="http://www.w3.org/1999/xlink">
<g id="graph0" class="graph" transform="scale(1 1) rotate(0) translate(4 321.25)">
<title>cpu/native/include/netdev_tap.h</title>
<!-- Node1 -->
<g id="Node000001" class="node">
<title>Node1</title>
<g id="a_Node000001"><a xlink:title="Low&#45;level ethernet driver for native tap interfaces.">
<polygon fill="#999999" stroke="#666666" points="425.62,-317.25 320.38,-317.25 320.38,-283.75 425.62,-283.75 425.62,-317.25"/>
<text text-anchor="start" x="328.38" y="-303.75" font-family="Helvetica,sans-Serif" font-size="10.00">cpu/native/include</text>
<text text-anchor="middle" x="373" y="-291" font-family="Helvetica,sans-Serif" font-size="10.00">/netdev_tap.h</text>
</a>
</g>
</g>
<!-- Node2 -->
<g id="Node000002" class="node">
<title>Node2</title>
<g id="a_Node000002"><a xlink:title=" ">
<polygon fill="#e0e0e0" stroke="#999999" points="412.38,-20.75 359.62,-20.75 359.62,0 412.38,0 412.38,-20.75"/>
<text text-anchor="middle" x="386" y="-7.25" font-family="Helvetica,sans-Serif" font-size="10.00">stdint.h</text>
</a>
</g>
</g>
<!-- Node1&#45;&gt;Node2 -->
<g id="edge1_Node000001_Node000002" class="edge">
<title>Node1&#45;&gt;Node2</title>
<g id="a_edge1_Node000001_Node000002"><a xlink:title=" ">
<path fill="none" stroke="#63b8ff" d="M319.95,-293.94C216.98,-281.66 0,-247.93 0,-181.62 0,-181.62 0,-181.62 0,-122.88 0,-50.98 250.31,-22.57 347.79,-14.23"/>
<polygon fill="#63b8ff" stroke="#63b8ff" points="347.98,-17.73 357.66,-13.42 347.4,-10.75 347.98,-17.73"/>
</a>
</g>
</g>
<!-- Node3 -->
<g id="Node000003" class="node">
<title>Node3</title>
<g id="a_Node000003"><a xlink:title=" ">
<polygon fill="#e0e0e0" stroke="#999999" points="89.5,-134.25 28.5,-134.25 28.5,-113.5 89.5,-113.5 89.5,-134.25"/>
<text text-anchor="middle" x="59" y="-120.75" font-family="Helvetica,sans-Serif" font-size="10.00">stdbool.h</text>
</a>
</g>
</g>
<!-- Node1&#45;&gt;Node3 -->
<g id="edge2_Node000001_Node000003" class="edge">
<title>Node1&#45;&gt;Node3</title>
<g id="a_edge2_Node000001_Node000003"><a xlink:title=" ">
<path fill="none" stroke="#63b8ff" d="M320.07,-294.44C254.08,-285.31 142.19,-260.03 78,-191 66.68,-178.82 62.05,-160.33 60.18,-146"/>
<polygon fill="#63b8ff" stroke="#63b8ff" points="63.69,-145.88 59.3,-136.24 56.72,-146.52 63.69,-145.88"/>
</a>
</g>
</g>
<!-- Node4 -->
<g id="Node000004" class="node">
<title>Node4</title>
<g id="a_Node000004"><a xlink:href="drivers_2include_2net_2netdev_8h.html" target="_top" xlink:title="Definitions low&#45;level network driver interface.">
<polygon fill="white" stroke="#666666" points="411.38,-247.75 334.62,-247.75 334.62,-227 411.38,-227 411.38,-247.75"/>
<text text-anchor="middle" x="373" y="-234.25" font-family="Helvetica,sans-Serif" font-size="10.00">net/netdev.h</text>
</a>
</g>
</g>
<!-- Node1&#45;&gt;Node4 -->
<g id="edge3_Node000001_Node000004" class="edge">
<title>Node1&#45;&gt;Node4</title>
<g id="a_edge3_Node000001_Node000004"><a xlink:title=" ">
<path fill="none" stroke="#63b8ff" d="M373,-283.44C373,-276.1 373,-267.32 373,-259.46"/>
<polygon fill="#63b8ff" stroke="#63b8ff" points="376.5,-259.73 373,-249.73 369.5,-259.73 376.5,-259.73"/>
</a>
</g>
</g>
<!-- Node15 -->
<g id="Node000015" class="node">
<title>Node15</title>
<g id="a_Node000015"><a xlink:href="net_2ethernet_2hdr_8h.html" target="_top" xlink:title="Ethernet header definitions.">
<polygon fill="white" stroke="#666666" points="687.88,-191 584.12,-191 584.12,-170.25 687.88,-170.25 687.88,-191"/>
<text text-anchor="middle" x="636" y="-177.5" font-family="Helvetica,sans-Serif" font-size="10.00">net/ethernet/hdr.h</text>
</a>
</g>
</g>
<!-- Node1&#45;&gt;Node15 -->
<g id="edge21_Node000001_Node000015" class="edge">
<title>Node1&#45;&gt;Node15</title>
<g id="a_edge21_Node000001_Node000015"><a xlink:title=" ">
<path fill="none" stroke="#63b8ff" d="M387.39,-283.5C403.14,-266.96 429.93,-241.54 458,-227 478.51,-216.37 532.82,-203.24 576.11,-193.84"/>
<polygon fill="#63b8ff" stroke="#63b8ff" points="576.6,-197.32 585.65,-191.8 575.14,-190.47 576.6,-197.32"/>
</a>
</g>
</g>
<!-- Node21 -->
<g id="Node000021" class="node">
<title>Node21</title>
<g id="a_Node000021"><a xlink:title=" ">
<polygon fill="#e0e0e0" stroke="#999999" points="516.88,-247.75 467.12,-247.75 467.12,-227 516.88,-227 516.88,-247.75"/>
<text text-anchor="middle" x="492" y="-234.25" font-family="Helvetica,sans-Serif" font-size="10.00">net/if.h</text>
</a>
</g>
</g>
<!-- Node1&#45;&gt;Node21 -->
<g id="edge30_Node000001_Node000021" class="edge">
<title>Node1&#45;&gt;Node21</title>
<g id="a_edge30_Node000001_Node000021"><a xlink:title=" ">
<path fill="none" stroke="#63b8ff" d="M404.58,-283.28C422.77,-273.94 445.46,-262.28 463.16,-253.19"/>
<polygon fill="#63b8ff" stroke="#63b8ff" points="464.3,-256.54 471.59,-248.86 461.1,-250.31 464.3,-256.54"/>
</a>
</g>
</g>
<!-- Node4&#45;&gt;Node2 -->
<g id="edge4_Node000004_Node000002" class="edge">
<title>Node4&#45;&gt;Node2</title>
<g id="a_edge4_Node000004_Node000002"><a xlink:title=" ">
<path fill="none" stroke="#63b8ff" d="M383.39,-226.74C405.62,-205.83 456.49,-156.42 465,-134.25 480.93,-92.77 438.06,-50.52 409.4,-27.98"/>
<polygon fill="#63b8ff" stroke="#63b8ff" points="411.63,-25.27 401.55,-22.03 407.41,-30.85 411.63,-25.27"/>
</a>
</g>
</g>
<!-- Node5 -->
<g id="Node000005" class="node">
<title>Node5</title>
<g id="a_Node000005"><a xlink:href="errno_8h.html" target="_top" xlink:title=" ">
<polygon fill="white" stroke="#666666" points="499.25,-191 448.75,-191 448.75,-170.25 499.25,-170.25 499.25,-191"/>
<text text-anchor="middle" x="474" y="-177.5" font-family="Helvetica,sans-Serif" font-size="10.00">errno.h</text>
</a>
</g>
</g>
<!-- Node4&#45;&gt;Node5 -->
<g id="edge5_Node000004_Node000005" class="edge">
<title>Node4&#45;&gt;Node5</title>
<g id="a_edge5_Node000004_Node000005"><a xlink:title=" ">
<path fill="none" stroke="#63b8ff" d="M391.06,-226.59C406.42,-218.26 428.74,-206.16 446.36,-196.61"/>
<polygon fill="#63b8ff" stroke="#63b8ff" points="447.65,-199.89 454.77,-192.05 444.31,-193.74 447.65,-199.89"/>
</a>
</g>
</g>
<!-- Node6 -->
<g id="Node000006" class="node">
<title>Node6</title>
<g id="a_Node000006"><a xlink:href="iolist_8h.html" target="_top" xlink:title="iolist scatter / gather IO">
<polygon fill="white" stroke="#666666" points="566.5,-191 517.5,-191 517.5,-170.25 566.5,-170.25 566.5,-191"/>
<text text-anchor="middle" x="542" y="-177.5" font-family="Helvetica,sans-Serif" font-size="10.00">iolist.h</text>
</a>
</g>
</g>
<!-- Node4&#45;&gt;Node6 -->
<g id="edge6_Node000004_Node000006" class="edge">
<title>Node4&#45;&gt;Node6</title>
<g id="a_edge6_Node000004_Node000006"><a xlink:title=" ">
<path fill="none" stroke="#63b8ff" d="M403.21,-226.59C432.22,-217.19 476.02,-203 506.63,-193.08"/>
<polygon fill="#63b8ff" stroke="#63b8ff" points="507.39,-196.52 515.82,-190.11 505.23,-189.86 507.39,-196.52"/>
</a>
</g>
</g>
<!-- Node7 -->
<g id="Node000007" class="node">
<title>Node7</title>
<g id="a_Node000007"><a xlink:href="netopt_8h.html" target="_top" xlink:title="Definition of global configuration options.">
<polygon fill="white" stroke="#666666" points="162.62,-191 87.38,-191 87.38,-170.25 162.62,-170.25 162.62,-191"/>
<text text-anchor="middle" x="125" y="-177.5" font-family="Helvetica,sans-Serif" font-size="10.00">net/netopt.h</text>
</a>
</g>
</g>
<!-- Node4&#45;&gt;Node7 -->
<g id="edge7_Node000004_Node000007" class="edge">
<title>Node4&#45;&gt;Node7</title>
<g id="a_edge7_Node000004_Node000007"><a xlink:title=" ">
<path fill="none" stroke="#63b8ff" d="M334.25,-227.82C291.08,-218.29 221.2,-202.86 174.2,-192.49"/>
<polygon fill="#63b8ff" stroke="#63b8ff" points="175.07,-189.09 164.55,-190.36 173.56,-195.93 175.07,-189.09"/>
</a>
</g>
</g>
<!-- Node8 -->
<g id="Node000008" class="node">
<title>Node8</title>
<g id="a_Node000008"><a xlink:href="kernel__defines_8h.html" target="_top" xlink:title="Common macros and compiler attributes/pragmas configuration.">
<polygon fill="white" stroke="#666666" points="383.12,-191 286.88,-191 286.88,-170.25 383.12,-170.25 383.12,-191"/>
<text text-anchor="middle" x="335" y="-177.5" font-family="Helvetica,sans-Serif" font-size="10.00">kernel_defines.h</text>
</a>
</g>
</g>
<!-- Node4&#45;&gt;Node8 -->
<g id="edge10_Node000004_Node000008" class="edge">
<title>Node4&#45;&gt;Node8</title>
<g id="a_edge10_Node000004_Node000008"><a xlink:title=" ">
<path fill="none" stroke="#63b8ff" d="M366.21,-226.59C361.23,-219.42 354.33,-209.48 348.28,-200.76"/>
<polygon fill="#63b8ff" stroke="#63b8ff" points="351.18,-198.79 342.6,-192.57 345.42,-202.78 351.18,-198.79"/>
</a>
</g>
</g>
<!-- Node7&#45;&gt;Node2 -->
<g id="edge8_Node000007_Node000002" class="edge">
<title>Node7&#45;&gt;Node2</title>
<g id="a_edge8_Node000007_Node000002"><a xlink:title=" ">
<path fill="none" stroke="#63b8ff" d="M122.46,-169.78C117.16,-146.69 107.68,-88.61 137,-56.75 164.89,-26.45 285.4,-16.2 347.97,-12.88"/>
<polygon fill="#63b8ff" stroke="#63b8ff" points="347.98,-16.38 357.79,-12.39 347.63,-9.39 347.98,-16.38"/>
</a>
</g>
</g>
<!-- Node7&#45;&gt;Node3 -->
<g id="edge9_Node000007_Node000003" class="edge">
<title>Node7&#45;&gt;Node3</title>
<g id="a_edge9_Node000007_Node000003"><a xlink:title=" ">
<path fill="none" stroke="#63b8ff" d="M113.2,-169.84C103.82,-162.05 90.46,-150.97 79.36,-141.76"/>
<polygon fill="#63b8ff" stroke="#63b8ff" points="81.79,-139.24 71.86,-135.54 77.32,-144.62 81.79,-139.24"/>
</a>
</g>
</g>
<!-- Node9 -->
<g id="Node000009" class="node">
<title>Node9</title>
<g id="a_Node000009"><a xlink:href="modules_8h.html" target="_top" xlink:title="Common macros and compiler attributes/pragmas configuration.">
<polygon fill="white" stroke="#666666" points="455.5,-134.25 388.5,-134.25 388.5,-113.5 455.5,-113.5 455.5,-134.25"/>
<text text-anchor="middle" x="422" y="-120.75" font-family="Helvetica,sans-Serif" font-size="10.00">modules.h</text>
</a>
</g>
</g>
<!-- Node8&#45;&gt;Node9 -->
<g id="edge11_Node000008_Node000009" class="edge">
<title>Node8&#45;&gt;Node9</title>
<g id="a_edge11_Node000008_Node000009"><a xlink:title=" ">
<path fill="none" stroke="#63b8ff" d="M350.55,-169.84C363.42,-161.74 381.94,-150.08 396.91,-140.67"/>
<polygon fill="#63b8ff" stroke="#63b8ff" points="398.7,-143.67 405.3,-135.38 394.97,-137.75 398.7,-143.67"/>
</a>
</g>
</g>
<!-- Node10 -->
<g id="Node000010" class="node">
<title>Node10</title>
<g id="a_Node000010"><a xlink:href="riot__version_8h.html" target="_top" xlink:title="Common macros and compiler attributes/pragmas configuration.">
<polygon fill="white" stroke="#666666" points="228.38,-77.5 145.62,-77.5 145.62,-56.75 228.38,-56.75 228.38,-77.5"/>
<text text-anchor="middle" x="187" y="-64" font-family="Helvetica,sans-Serif" font-size="10.00">riot_version.h</text>
</a>
</g>
</g>
<!-- Node8&#45;&gt;Node10 -->
<g id="edge12_Node000008_Node000010" class="edge">
<title>Node8&#45;&gt;Node10</title>
<g id="a_edge12_Node000008_Node000010"><a xlink:title=" ">
<path fill="none" stroke="#63b8ff" d="M286.64,-172.42C244.66,-165.05 188.54,-152.16 175,-134.25 165.01,-121.03 169.8,-102.12 176.04,-87.91"/>
<polygon fill="#63b8ff" stroke="#63b8ff" points="179.12,-89.59 180.43,-79.07 172.85,-86.47 179.12,-89.59"/>
</a>
</g>
</g>
<!-- Node11 -->
<g id="Node000011" class="node">
<title>Node11</title>
<g id="a_Node000011"><a xlink:href="compiler__hints_8h.html" target="_top" xlink:title="Common macros and compiler attributes/pragmas configuration.">
<polygon fill="white" stroke="#666666" points="281.5,-134.25 184.5,-134.25 184.5,-113.5 281.5,-113.5 281.5,-134.25"/>
<text text-anchor="middle" x="233" y="-120.75" font-family="Helvetica,sans-Serif" font-size="10.00">compiler_hints.h</text>
</a>
</g>
</g>
<!-- Node8&#45;&gt;Node11 -->
<g id="edge14_Node000008_Node000011" class="edge">
<title>Node8&#45;&gt;Node11</title>
<g id="a_edge14_Node000008_Node000011"><a xlink:title=" ">
<path fill="none" stroke="#63b8ff" d="M316.76,-169.84C301.32,-161.55 278.91,-149.52 261.16,-139.99"/>
<polygon fill="#63b8ff" stroke="#63b8ff" points="262.88,-136.94 252.41,-135.29 259.57,-143.11 262.88,-136.94"/>
</a>
</g>
</g>
<!-- Node13 -->
<g id="Node000013" class="node">
<title>Node13</title>
<g id="a_Node000013"><a xlink:href="container_8h.html" target="_top" xlink:title="Common macros and compiler attributes/pragmas configuration.">
<polygon fill="white" stroke="#666666" points="370.38,-134.25 299.62,-134.25 299.62,-113.5 370.38,-113.5 370.38,-134.25"/>
<text text-anchor="middle" x="335" y="-120.75" font-family="Helvetica,sans-Serif" font-size="10.00">container.h</text>
</a>
</g>
</g>
<!-- Node8&#45;&gt;Node13 -->
<g id="edge18_Node000008_Node000013" class="edge">
<title>Node8&#45;&gt;Node13</title>
<g id="a_edge18_Node000008_Node000013"><a xlink:title=" ">
<path fill="none" stroke="#63b8ff" d="M335,-169.84C335,-163.22 335,-154.22 335,-146.02"/>
<polygon fill="#63b8ff" stroke="#63b8ff" points="338.5,-146.09 335,-136.09 331.5,-146.09 338.5,-146.09"/>
</a>
</g>
</g>
<!-- Node10&#45;&gt;Node2 -->
<g id="edge13_Node000010_Node000002" class="edge">
<title>Node10&#45;&gt;Node2</title>
<g id="a_edge13_Node000010_Node000002"><a xlink:title=" ">
<path fill="none" stroke="#63b8ff" d="M222.58,-56.34C257.99,-46.6 312.12,-31.7 348.27,-21.76"/>
<polygon fill="#63b8ff" stroke="#63b8ff" points="349.15,-25.14 357.87,-19.12 347.3,-18.39 349.15,-25.14"/>
</a>
</g>
</g>
<!-- Node11&#45;&gt;Node2 -->
<g id="edge17_Node000011_Node000002" class="edge">
<title>Node11&#45;&gt;Node2</title>
<g id="a_edge17_Node000011_Node000002"><a xlink:title=" ">
<path fill="none" stroke="#63b8ff" d="M252.24,-113.05C268.44,-104.46 291.94,-91.24 311,-77.5 331.76,-62.53 353.47,-42.88 368.17,-28.9"/>
<polygon fill="#63b8ff" stroke="#63b8ff" points="370.48,-31.53 375.25,-22.07 365.62,-26.49 370.48,-31.53"/>
</a>
</g>
</g>
<!-- Node12 -->
<g id="Node000012" class="node">
<title>Node12</title>
<g id="a_Node000012"><a xlink:href="assert_8h.html" target="_top" xlink:title="POSIX.1&#45;2008 compliant version of the assert macro.">
<polygon fill="white" stroke="#666666" points="301.5,-77.5 246.5,-77.5 246.5,-56.75 301.5,-56.75 301.5,-77.5"/>
<text text-anchor="middle" x="274" y="-64" font-family="Helvetica,sans-Serif" font-size="10.00">assert.h</text>
</a>
</g>
</g>
<!-- Node11&#45;&gt;Node12 -->
<g id="edge15_Node000011_Node000012" class="edge">
<title>Node11&#45;&gt;Node12</title>
<g id="a_edge15_Node000011_Node000012"><a xlink:title=" ">
<path fill="none" stroke="#63b8ff" d="M240.33,-113.09C245.75,-105.85 253.31,-95.76 259.89,-86.97"/>
<polygon fill="#63b8ff" stroke="#63b8ff" points="262.63,-89.14 265.83,-79.04 257.03,-84.95 262.63,-89.14"/>
</a>
</g>
</g>
<!-- Node12&#45;&gt;Node2 -->
<g id="edge16_Node000012_Node000002" class="edge">
<title>Node12&#45;&gt;Node2</title>
<g id="a_edge16_Node000012_Node000002"><a xlink:title=" ">
<path fill="none" stroke="#63b8ff" d="M294.02,-56.34C311.22,-47.93 336.28,-35.68 355.9,-26.09"/>
<polygon fill="#63b8ff" stroke="#63b8ff" points="357.34,-29.28 364.79,-21.74 354.27,-22.99 357.34,-29.28"/>
</a>
</g>
</g>
<!-- Node13&#45;&gt;Node2 -->
<g id="edge20_Node000013_Node000002" class="edge">
<title>Node13&#45;&gt;Node2</title>
<g id="a_edge20_Node000013_Node000002"><a xlink:title=" ">
<path fill="none" stroke="#63b8ff" d="M370.86,-114.12C389.89,-107.45 411.64,-96.14 423,-77.5 432.92,-61.22 419.75,-42.18 406.46,-28.72"/>
<polygon fill="#63b8ff" stroke="#63b8ff" points="409.16,-26.46 399.47,-22.18 404.37,-31.57 409.16,-26.46"/>
</a>
</g>
</g>
<!-- Node14 -->
<g id="Node000014" class="node">
<title>Node14</title>
<g id="a_Node000014"><a xlink:title=" ">
<polygon fill="#e0e0e0" stroke="#999999" points="413.5,-77.5 358.5,-77.5 358.5,-56.75 413.5,-56.75 413.5,-77.5"/>
<text text-anchor="middle" x="386" y="-64" font-family="Helvetica,sans-Serif" font-size="10.00">stddef.h</text>
</a>
</g>
</g>
<!-- Node13&#45;&gt;Node14 -->
<g id="edge19_Node000013_Node000014" class="edge">
<title>Node13&#45;&gt;Node14</title>
<g id="a_edge19_Node000013_Node000014"><a xlink:title=" ">
<path fill="none" stroke="#63b8ff" d="M344.12,-113.09C351.08,-105.61 360.87,-95.11 369.23,-86.13"/>
<polygon fill="#63b8ff" stroke="#63b8ff" points="371.67,-88.64 375.93,-78.94 366.55,-83.87 371.67,-88.64"/>
</a>
</g>
</g>
<!-- Node16 -->
<g id="Node000016" class="node">
<title>Node16</title>
<g id="a_Node000016"><a xlink:href="inttypes_8h.html" target="_top" xlink:title="Adds include for missing inttype definitions.">
<polygon fill="white" stroke="#666666" points="587.38,-134.25 522.62,-134.25 522.62,-113.5 587.38,-113.5 587.38,-134.25"/>
<text text-anchor="middle" x="555" y="-120.75" font-family="Helvetica,sans-Serif" font-size="10.00">inttypes.h</text>
</a>
</g>
</g>
<!-- Node15&#45;&gt;Node16 -->
<g id="edge22_Node000015_Node000016" class="edge">
<title>Node15&#45;&gt;Node16</title>
<g id="a_edge22_Node000015_Node000016"><a xlink:title=" ">
<path fill="none" stroke="#63b8ff" d="M621.52,-169.84C609.65,-161.82 592.63,-150.31 578.77,-140.94"/>
<polygon fill="#63b8ff" stroke="#63b8ff" points="580.85,-138.13 570.61,-135.43 576.93,-143.93 580.85,-138.13"/>
</a>
</g>
</g>
<!-- Node17 -->
<g id="Node000017" class="node">
<title>Node17</title>
<g id="a_Node000017"><a xlink:href="byteorder_8h.html" target="_top" xlink:title="Functions to work with different byte orders.">
<polygon fill="white" stroke="#666666" points="678.12,-134.25 605.88,-134.25 605.88,-113.5 678.12,-113.5 678.12,-134.25"/>
<text text-anchor="middle" x="642" y="-120.75" font-family="Helvetica,sans-Serif" font-size="10.00">byteorder.h</text>
</a>
</g>
</g>
<!-- Node15&#45;&gt;Node17 -->
<g id="edge23_Node000015_Node000017" class="edge">
<title>Node15&#45;&gt;Node17</title>
<g id="a_edge23_Node000015_Node000017"><a xlink:title=" ">
<path fill="none" stroke="#63b8ff" d="M637.07,-169.84C637.8,-163.22 638.78,-154.22 639.68,-146.02"/>
<polygon fill="#63b8ff" stroke="#63b8ff" points="643.16,-146.4 640.77,-136.08 636.2,-145.64 643.16,-146.4"/>
</a>
</g>
</g>
<!-- Node17&#45;&gt;Node2 -->
<g id="edge25_Node000017_Node000002" class="edge">
<title>Node17&#45;&gt;Node2</title>
<g id="a_edge25_Node000017_Node000002"><a xlink:title=" ">
<path fill="none" stroke="#63b8ff" d="M618.99,-113.01C598.05,-103.97 566.32,-90.11 539,-77.5 519.73,-68.61 515.37,-65.41 496,-56.75 471.43,-45.76 443.38,-34.21 421.75,-25.51"/>
<polygon fill="#63b8ff" stroke="#63b8ff" points="423.07,-22.27 412.48,-21.8 420.47,-28.76 423.07,-22.27"/>
</a>
</g>
</g>
<!-- Node18 -->
<g id="Node000018" class="node">
<title>Node18</title>
<g id="a_Node000018"><a xlink:title=" ">
<polygon fill="#e0e0e0" stroke="#999999" points="600.38,-77.5 547.62,-77.5 547.62,-56.75 600.38,-56.75 600.38,-77.5"/>
<text text-anchor="middle" x="574" y="-64" font-family="Helvetica,sans-Serif" font-size="10.00">string.h</text>
</a>
</g>
</g>
<!-- Node17&#45;&gt;Node18 -->
<g id="edge24_Node000017_Node000018" class="edge">
<title>Node17&#45;&gt;Node18</title>
<g id="a_edge24_Node000017_Node000018"><a xlink:title=" ">
<path fill="none" stroke="#63b8ff" d="M629.84,-113.09C620.17,-105.3 606.42,-94.22 594.98,-85.01"/>
<polygon fill="#63b8ff" stroke="#63b8ff" points="597.21,-82.32 587.23,-78.78 592.82,-87.78 597.21,-82.32"/>
</a>
</g>
</g>
<!-- Node19 -->
<g id="Node000019" class="node">
<title>Node19</title>
<g id="a_Node000019"><a xlink:href="endian_8h.html" target="_top" xlink:title="libc header for endian conversion">
<polygon fill="white" stroke="#666666" points="676,-77.5 618,-77.5 618,-56.75 676,-56.75 676,-77.5"/>
<text text-anchor="middle" x="647" y="-64" font-family="Helvetica,sans-Serif" font-size="10.00">endian.h</text>
</a>
</g>
</g>
<!-- Node17&#45;&gt;Node19 -->
<g id="edge26_Node000017_Node000019" class="edge">
<title>Node17&#45;&gt;Node19</title>
<g id="a_edge26_Node000017_Node000019"><a xlink:title=" ">
<path fill="none" stroke="#63b8ff" d="M642.89,-113.09C643.5,-106.47 644.32,-97.47 645.07,-89.27"/>
<polygon fill="#63b8ff" stroke="#63b8ff" points="648.55,-89.61 645.98,-79.34 641.58,-88.98 648.55,-89.61"/>
</a>
</g>
</g>
<!-- Node20 -->
<g id="Node000020" class="node">
<title>Node20</title>
<g id="a_Node000020"><a xlink:href="unaligned_8h.html" target="_top" xlink:title="Unaligned but safe memory access functions.">
<polygon fill="white" stroke="#666666" points="767.5,-77.5 694.5,-77.5 694.5,-56.75 767.5,-56.75 767.5,-77.5"/>
<text text-anchor="middle" x="731" y="-64" font-family="Helvetica,sans-Serif" font-size="10.00">unaligned.h</text>
</a>
</g>
</g>
<!-- Node17&#45;&gt;Node20 -->
<g id="edge28_Node000017_Node000020" class="edge">
<title>Node17&#45;&gt;Node20</title>
<g id="a_edge28_Node000017_Node000020"><a xlink:title=" ">
<path fill="none" stroke="#63b8ff" d="M657.91,-113.09C671.2,-104.91 690.39,-93.11 705.77,-83.65"/>
<polygon fill="#63b8ff" stroke="#63b8ff" points="707.25,-86.84 713.94,-78.62 703.59,-80.88 707.25,-86.84"/>
</a>
</g>
</g>
<!-- Node19&#45;&gt;Node2 -->
<g id="edge27_Node000019_Node000002" class="edge">
<title>Node19&#45;&gt;Node2</title>
<g id="a_edge27_Node000019_Node000002"><a xlink:title=" ">
<path fill="none" stroke="#63b8ff" d="M617.57,-58.74C614.68,-58.05 611.78,-57.38 609,-56.75 544.25,-42.18 468.45,-27.19 423.99,-18.61"/>
<polygon fill="#63b8ff" stroke="#63b8ff" points="424.82,-15.21 414.34,-16.75 423.5,-22.08 424.82,-15.21"/>
</a>
</g>
</g>
<!-- Node20&#45;&gt;Node2 -->
<g id="edge29_Node000020_Node000002" class="edge">
<title>Node20&#45;&gt;Node2</title>
<g id="a_edge29_Node000020_Node000002"><a xlink:title=" ">
<path fill="none" stroke="#63b8ff" d="M694.37,-58.49C691.21,-57.88 688.05,-57.29 685,-56.75 591.37,-40.12 480.56,-24.31 423.75,-16.48"/>
<polygon fill="#63b8ff" stroke="#63b8ff" points="424.35,-13.03 413.97,-15.14 423.4,-19.97 424.35,-13.03"/>
</a>
</g>
</g>
</g>
</svg>
