<?xml version="1.0" encoding="UTF-8" standalone="no"?>
<!DOCTYPE svg PUBLIC "-//W3C//DTD SVG 1.1//EN"
 "http://www.w3.org/Graphics/SVG/1.1/DTD/svg11.dtd">
<!-- Generated by graphviz version 12.1.2 (0)
 -->
<!-- Title: sys/include/net/gnrc/netif/mac.h Pages: 1 -->
<svg width="1432pt" height="496pt"
 viewBox="0.00 0.00 1431.65 495.50" xmlns="http://www.w3.org/2000/svg" xmlns:xlink="http://www.w3.org/1999/xlink">
<g id="graph0" class="graph" transform="scale(1 1) rotate(0) translate(4 491.5)">
<title>sys/include/net/gnrc/netif/mac.h</title>
<!-- Node1 -->
<g id="Node000001" class="node">
<title>Node1</title>
<g id="a_Node000001"><a xlink:title="Common MAC module definitions for Network interface API">
<polygon fill="#999999" stroke="#666666" points="1050.4,-487.5 936.9,-487.5 936.9,-454 1050.4,-454 1050.4,-487.5"/>
<text text-anchor="start" x="944.9" y="-474" font-family="Helvetica,sans-Serif" font-size="10.00">sys/include/net/gnrc</text>
<text text-anchor="middle" x="993.65" y="-461.25" font-family="Helvetica,sans-Serif" font-size="10.00">/netif/mac.h</text>
</a>
</g>
</g>
<!-- Node2 -->
<g id="Node000002" class="node">
<title>Node2</title>
<g id="a_Node000002"><a xlink:href="sys_2include_2net_2gnrc_2mac_2types_8h.html" target="_top" xlink:title="Internal data types used by GNRC_MAC.">
<polygon fill="white" stroke="#666666" points="929.02,-418 810.27,-418 810.27,-397.25 929.02,-397.25 929.02,-418"/>
<text text-anchor="middle" x="869.65" y="-404.5" font-family="Helvetica,sans-Serif" font-size="10.00">net/gnrc/mac/types.h</text>
</a>
</g>
</g>
<!-- Node1&#45;&gt;Node2 -->
<g id="edge1_Node000001_Node000002" class="edge">
<title>Node1&#45;&gt;Node2</title>
<g id="a_edge1_Node000001_Node000002"><a xlink:title=" ">
<path fill="none" stroke="#63b8ff" d="M960.75,-453.53C941.79,-444.19 918.15,-432.53 899.7,-423.44"/>
<polygon fill="#63b8ff" stroke="#63b8ff" points="901.38,-420.37 890.87,-419.08 898.29,-426.65 901.38,-420.37"/>
</a>
</g>
</g>
<!-- Node31 -->
<g id="Node000031" class="node">
<title>Node31</title>
<g id="a_Node000031"><a xlink:href="csma__sender_8h.html" target="_top" xlink:title="Interface definition for the CSMA/CA helper.">
<polygon fill="white" stroke="#666666" points="1280.77,-304.5 1172.52,-304.5 1172.52,-283.75 1280.77,-283.75 1280.77,-304.5"/>
<text text-anchor="middle" x="1226.65" y="-291" font-family="Helvetica,sans-Serif" font-size="10.00">net/csma_sender.h</text>
</a>
</g>
</g>
<!-- Node1&#45;&gt;Node31 -->
<g id="edge54_Node000001_Node000031" class="edge">
<title>Node1&#45;&gt;Node31</title>
<g id="a_edge54_Node000001_Node000031"><a xlink:title=" ">
<path fill="none" stroke="#63b8ff" d="M1015.15,-453.63C1059.25,-420.59 1159.52,-345.44 1204.31,-311.87"/>
<polygon fill="#63b8ff" stroke="#63b8ff" points="1206.36,-314.7 1212.26,-305.91 1202.16,-309.1 1206.36,-314.7"/>
</a>
</g>
</g>
<!-- Node3 -->
<g id="Node000003" class="node">
<title>Node3</title>
<g id="a_Node000003"><a xlink:title=" ">
<polygon fill="#e0e0e0" stroke="#999999" points="773.02,-20.75 720.27,-20.75 720.27,0 773.02,0 773.02,-20.75"/>
<text text-anchor="middle" x="746.65" y="-7.25" font-family="Helvetica,sans-Serif" font-size="10.00">stdint.h</text>
</a>
</g>
</g>
<!-- Node2&#45;&gt;Node3 -->
<g id="edge2_Node000002_Node000003" class="edge">
<title>Node2&#45;&gt;Node3</title>
<g id="a_edge2_Node000002_Node000003"><a xlink:title=" ">
<path fill="none" stroke="#63b8ff" d="M871.83,-397.03C874.92,-384.01 881.05,-360.1 888.65,-340.5 918.46,-263.57 991.22,-247.65 962.65,-170.25 961.21,-166.36 869.04,-59.14 865.65,-56.75 840.89,-39.3 808.54,-27.53 783.83,-20.36"/>
<polygon fill="#63b8ff" stroke="#63b8ff" points="785.09,-17.08 774.52,-17.79 783.23,-23.82 785.09,-17.08"/>
</a>
</g>
</g>
<!-- Node4 -->
<g id="Node000004" class="node">
<title>Node4</title>
<g id="a_Node000004"><a xlink:title=" ">
<polygon fill="#e0e0e0" stroke="#999999" points="1117.15,-134.25 1056.15,-134.25 1056.15,-113.5 1117.15,-113.5 1117.15,-134.25"/>
<text text-anchor="middle" x="1086.65" y="-120.75" font-family="Helvetica,sans-Serif" font-size="10.00">stdbool.h</text>
</a>
</g>
</g>
<!-- Node2&#45;&gt;Node4 -->
<g id="edge3_Node000002_Node000004" class="edge">
<title>Node2&#45;&gt;Node4</title>
<g id="a_edge3_Node000002_Node000004"><a xlink:title=" ">
<path fill="none" stroke="#63b8ff" d="M929.33,-399.1C978.09,-391.78 1041.91,-379.13 1060.65,-361.25 1082.77,-340.14 1079.65,-325.7 1079.65,-295.12 1079.65,-295.12 1079.65,-295.12 1079.65,-236.38 1079.65,-204.92 1082.46,-168.57 1084.52,-146.15"/>
<polygon fill="#63b8ff" stroke="#63b8ff" points="1088,-146.5 1085.47,-136.21 1081.03,-145.83 1088,-146.5"/>
</a>
</g>
</g>
<!-- Node5 -->
<g id="Node000005" class="node">
<title>Node5</title>
<g id="a_Node000005"><a xlink:href="net_2gnrc_2pkt_8h.html" target="_top" xlink:title="General definitions for network packets and their helper functions.">
<polygon fill="white" stroke="#666666" points="760.4,-304.5 676.9,-304.5 676.9,-283.75 760.4,-283.75 760.4,-304.5"/>
<text text-anchor="middle" x="718.65" y="-291" font-family="Helvetica,sans-Serif" font-size="10.00">net/gnrc/pkt.h</text>
</a>
</g>
</g>
<!-- Node2&#45;&gt;Node5 -->
<g id="edge4_Node000002_Node000005" class="edge">
<title>Node2&#45;&gt;Node5</title>
<g id="a_edge4_Node000002_Node000005"><a xlink:title=" ">
<path fill="none" stroke="#63b8ff" d="M856.51,-396.93C830.63,-377.81 772.8,-335.11 740.87,-311.54"/>
<polygon fill="#63b8ff" stroke="#63b8ff" points="743.2,-308.91 733.08,-305.78 739.05,-314.54 743.2,-308.91"/>
</a>
</g>
</g>
<!-- Node22 -->
<g id="Node000022" class="node">
<title>Node22</title>
<g id="a_Node000022"><a xlink:href="priority__pktqueue_8h.html" target="_top" xlink:title="gnrc priority packet queue API">
<polygon fill="white" stroke="#666666" points="1051.65,-361.25 897.65,-361.25 897.65,-340.5 1051.65,-340.5 1051.65,-361.25"/>
<text text-anchor="middle" x="974.65" y="-347.75" font-family="Helvetica,sans-Serif" font-size="10.00">net/gnrc/priority_pktqueue.h</text>
</a>
</g>
</g>
<!-- Node2&#45;&gt;Node22 -->
<g id="edge32_Node000002_Node000022" class="edge">
<title>Node2&#45;&gt;Node22</title>
<g id="a_edge32_Node000002_Node000022"><a xlink:title=" ">
<path fill="none" stroke="#63b8ff" d="M888.42,-396.84C904.4,-388.51 927.6,-376.41 945.91,-366.86"/>
<polygon fill="#63b8ff" stroke="#63b8ff" points="947.45,-370.01 954.7,-362.28 944.21,-363.8 947.45,-370.01"/>
</a>
</g>
</g>
<!-- Node24 -->
<g id="Node000024" class="node">
<title>Node24</title>
<g id="a_Node000024"><a xlink:href="sys_2include_2net_2ieee802154_8h.html" target="_top" xlink:title="IEEE 802.15.4 header definitions.">
<polygon fill="white" stroke="#666666" points="163.02,-247.75 62.27,-247.75 62.27,-227 163.02,-227 163.02,-247.75"/>
<text text-anchor="middle" x="112.65" y="-234.25" font-family="Helvetica,sans-Serif" font-size="10.00">net/ieee802154.h</text>
</a>
</g>
</g>
<!-- Node2&#45;&gt;Node24 -->
<g id="edge38_Node000002_Node000024" class="edge">
<title>Node2&#45;&gt;Node24</title>
<g id="a_edge38_Node000002_Node000024"><a xlink:title=" ">
<path fill="none" stroke="#63b8ff" d="M809.92,-404.97C716.63,-401.53 531.06,-391.22 376.65,-361.25 290.55,-344.54 264.32,-347.1 187.65,-304.5 164.78,-291.79 142.84,-271.13 128.67,-256.28"/>
<polygon fill="#63b8ff" stroke="#63b8ff" points="131.3,-253.97 121.93,-249.02 126.17,-258.73 131.3,-253.97"/>
</a>
</g>
</g>
<!-- Node30 -->
<g id="Node000030" class="node">
<title>Node30</title>
<g id="a_Node000030"><a xlink:href="mac_2mac_8h.html" target="_top" xlink:title="Definitions of GNRC_MAC.">
<polygon fill="white" stroke="#666666" points="498.02,-361.25 385.27,-361.25 385.27,-340.5 498.02,-340.5 498.02,-361.25"/>
<text text-anchor="middle" x="441.65" y="-347.75" font-family="Helvetica,sans-Serif" font-size="10.00">net/gnrc/mac/mac.h</text>
</a>
</g>
</g>
<!-- Node2&#45;&gt;Node30 -->
<g id="edge52_Node000002_Node000030" class="edge">
<title>Node2&#45;&gt;Node30</title>
<g id="a_edge52_Node000002_Node000030"><a xlink:title=" ">
<path fill="none" stroke="#63b8ff" d="M810.14,-399.01C731.27,-388.92 592.47,-371.17 509.58,-360.57"/>
<polygon fill="#63b8ff" stroke="#63b8ff" points="510.13,-357.11 499.77,-359.31 509.25,-364.05 510.13,-357.11"/>
</a>
</g>
</g>
<!-- Node6 -->
<g id="Node000006" class="node">
<title>Node6</title>
<g id="a_Node000006"><a xlink:href="inttypes_8h.html" target="_top" xlink:title="Adds include for missing inttype definitions.">
<polygon fill="white" stroke="#666666" points="615.02,-191 550.27,-191 550.27,-170.25 615.02,-170.25 615.02,-191"/>
<text text-anchor="middle" x="582.65" y="-177.5" font-family="Helvetica,sans-Serif" font-size="10.00">inttypes.h</text>
</a>
</g>
</g>
<!-- Node5&#45;&gt;Node6 -->
<g id="edge5_Node000005_Node000006" class="edge">
<title>Node5&#45;&gt;Node6</title>
<g id="a_edge5_Node000005_Node000006"><a xlink:title=" ">
<path fill="none" stroke="#63b8ff" d="M707.05,-283.62C684.08,-264.79 632.52,-222.51 603.5,-198.72"/>
<polygon fill="#63b8ff" stroke="#63b8ff" points="605.73,-196.02 595.77,-192.38 601.29,-201.43 605.73,-196.02"/>
</a>
</g>
</g>
<!-- Node7 -->
<g id="Node000007" class="node">
<title>Node7</title>
<g id="a_Node000007"><a xlink:title=" ">
<polygon fill="#e0e0e0" stroke="#999999" points="281.65,-191 229.65,-191 229.65,-170.25 281.65,-170.25 281.65,-191"/>
<text text-anchor="middle" x="255.65" y="-177.5" font-family="Helvetica,sans-Serif" font-size="10.00">stdlib.h</text>
</a>
</g>
</g>
<!-- Node5&#45;&gt;Node7 -->
<g id="edge6_Node000005_Node000007" class="edge">
<title>Node5&#45;&gt;Node7</title>
<g id="a_edge6_Node000005_Node000007"><a xlink:title=" ">
<path fill="none" stroke="#63b8ff" d="M676.67,-289.57C619.07,-284.04 512.67,-271.45 424.65,-247.75 375.04,-234.39 320.06,-211.22 286.68,-196.16"/>
<polygon fill="#63b8ff" stroke="#63b8ff" points="288.16,-192.98 277.6,-192.02 285.25,-199.35 288.16,-192.98"/>
</a>
</g>
</g>
<!-- Node8 -->
<g id="Node000008" class="node">
<title>Node8</title>
<g id="a_Node000008"><a xlink:href="sched_8h.html" target="_top" xlink:title="Scheduler API definition.">
<polygon fill="white" stroke="#666666" points="745.4,-247.75 691.9,-247.75 691.9,-227 745.4,-227 745.4,-247.75"/>
<text text-anchor="middle" x="718.65" y="-234.25" font-family="Helvetica,sans-Serif" font-size="10.00">sched.h</text>
</a>
</g>
</g>
<!-- Node5&#45;&gt;Node8 -->
<g id="edge7_Node000005_Node000008" class="edge">
<title>Node5&#45;&gt;Node8</title>
<g id="a_edge7_Node000005_Node000008"><a xlink:title=" ">
<path fill="none" stroke="#63b8ff" d="M718.65,-283.34C718.65,-276.72 718.65,-267.72 718.65,-259.52"/>
<polygon fill="#63b8ff" stroke="#63b8ff" points="722.15,-259.59 718.65,-249.59 715.15,-259.59 722.15,-259.59"/>
</a>
</g>
</g>
<!-- Node18 -->
<g id="Node000018" class="node">
<title>Node18</title>
<g id="a_Node000018"><a xlink:href="list_8h.html" target="_top" xlink:title="Intrusive linked list.">
<polygon fill="white" stroke="#666666" points="885.65,-134.25 845.65,-134.25 845.65,-113.5 885.65,-113.5 885.65,-134.25"/>
<text text-anchor="middle" x="865.65" y="-120.75" font-family="Helvetica,sans-Serif" font-size="10.00">list.h</text>
</a>
</g>
</g>
<!-- Node5&#45;&gt;Node18 -->
<g id="edge31_Node000005_Node000018" class="edge">
<title>Node5&#45;&gt;Node18</title>
<g id="a_edge31_Node000005_Node000018"><a xlink:title=" ">
<path fill="none" stroke="#63b8ff" d="M760.75,-287.98C814.51,-278.9 905.5,-254.52 946.65,-191 962.67,-166.28 925.83,-146.33 896.71,-135.03"/>
<polygon fill="#63b8ff" stroke="#63b8ff" points="898.07,-131.8 887.48,-131.66 895.67,-138.38 898.07,-131.8"/>
</a>
</g>
</g>
<!-- Node19 -->
<g id="Node000019" class="node">
<title>Node19</title>
<g id="a_Node000019"><a xlink:href="nettype_8h.html" target="_top" xlink:title="Protocol type definitions.">
<polygon fill="white" stroke="#666666" points="539.27,-247.75 434.02,-247.75 434.02,-227 539.27,-227 539.27,-247.75"/>
<text text-anchor="middle" x="486.65" y="-234.25" font-family="Helvetica,sans-Serif" font-size="10.00">net/gnrc/nettype.h</text>
</a>
</g>
</g>
<!-- Node5&#45;&gt;Node19 -->
<g id="edge26_Node000005_Node000019" class="edge">
<title>Node5&#45;&gt;Node19</title>
<g id="a_edge26_Node000005_Node000019"><a xlink:title=" ">
<path fill="none" stroke="#63b8ff" d="M676.9,-283.27C638.42,-274.19 581.14,-260.67 539.49,-250.84"/>
<polygon fill="#63b8ff" stroke="#63b8ff" points="540.46,-247.48 529.92,-248.59 538.85,-254.29 540.46,-247.48"/>
</a>
</g>
</g>
<!-- Node8&#45;&gt;Node6 -->
<g id="edge9_Node000008_Node000006" class="edge">
<title>Node8&#45;&gt;Node6</title>
<g id="a_edge9_Node000008_Node000006"><a xlink:title=" ">
<path fill="none" stroke="#63b8ff" d="M694.34,-226.59C672.87,-217.94 641.33,-205.25 617.24,-195.55"/>
<polygon fill="#63b8ff" stroke="#63b8ff" points="618.74,-192.38 608.16,-191.89 616.13,-198.88 618.74,-192.38"/>
</a>
</g>
</g>
<!-- Node9 -->
<g id="Node000009" class="node">
<title>Node9</title>
<g id="a_Node000009"><a xlink:title=" ">
<polygon fill="#e0e0e0" stroke="#999999" points="718.15,-77.5 663.15,-77.5 663.15,-56.75 718.15,-56.75 718.15,-77.5"/>
<text text-anchor="middle" x="690.65" y="-64" font-family="Helvetica,sans-Serif" font-size="10.00">stddef.h</text>
</a>
</g>
</g>
<!-- Node8&#45;&gt;Node9 -->
<g id="edge8_Node000008_Node000009" class="edge">
<title>Node8&#45;&gt;Node9</title>
<g id="a_edge8_Node000008_Node000009"><a xlink:title=" ">
<path fill="none" stroke="#63b8ff" d="M698.6,-226.53C685.43,-218.85 669.28,-206.84 661.65,-191 645.15,-156.77 664.29,-112.56 678.37,-87.58"/>
<polygon fill="#63b8ff" stroke="#63b8ff" points="681.28,-89.53 683.39,-79.14 675.27,-85.95 681.28,-89.53"/>
</a>
</g>
</g>
<!-- Node10 -->
<g id="Node000010" class="node">
<title>Node10</title>
<g id="a_Node000010"><a xlink:href="kernel__defines_8h.html" target="_top" xlink:title="Common macros and compiler attributes/pragmas configuration.">
<polygon fill="white" stroke="#666666" points="766.77,-191 670.52,-191 670.52,-170.25 766.77,-170.25 766.77,-191"/>
<text text-anchor="middle" x="718.65" y="-177.5" font-family="Helvetica,sans-Serif" font-size="10.00">kernel_defines.h</text>
</a>
</g>
</g>
<!-- Node8&#45;&gt;Node10 -->
<g id="edge10_Node000008_Node000010" class="edge">
<title>Node8&#45;&gt;Node10</title>
<g id="a_edge10_Node000008_Node000010"><a xlink:title=" ">
<path fill="none" stroke="#63b8ff" d="M718.65,-226.59C718.65,-219.97 718.65,-210.97 718.65,-202.77"/>
<polygon fill="#63b8ff" stroke="#63b8ff" points="722.15,-202.84 718.65,-192.84 715.15,-202.84 722.15,-202.84"/>
</a>
</g>
</g>
<!-- Node16 -->
<g id="Node000016" class="node">
<title>Node16</title>
<g id="a_Node000016"><a xlink:href="native__sched_8h.html" target="_top" xlink:title="Add definitions required on the native board.">
<polygon fill="white" stroke="#666666" points="937.4,-191 847.9,-191 847.9,-170.25 937.4,-170.25 937.4,-191"/>
<text text-anchor="middle" x="892.65" y="-177.5" font-family="Helvetica,sans-Serif" font-size="10.00">native_sched.h</text>
</a>
</g>
</g>
<!-- Node8&#45;&gt;Node16 -->
<g id="edge21_Node000008_Node000016" class="edge">
<title>Node8&#45;&gt;Node16</title>
<g id="a_edge21_Node000008_Node000016"><a xlink:title=" ">
<path fill="none" stroke="#63b8ff" d="M745.84,-227.82C774,-218.96 818.38,-204.99 850.98,-194.74"/>
<polygon fill="#63b8ff" stroke="#63b8ff" points="851.61,-198.21 860.1,-191.87 849.51,-191.53 851.61,-198.21"/>
</a>
</g>
</g>
<!-- Node17 -->
<g id="Node000017" class="node">
<title>Node17</title>
<g id="a_Node000017"><a xlink:href="clist_8h.html" target="_top" xlink:title="Circular linked list.">
<polygon fill="white" stroke="#666666" points="830.27,-191 785.02,-191 785.02,-170.25 830.27,-170.25 830.27,-191"/>
<text text-anchor="middle" x="807.65" y="-177.5" font-family="Helvetica,sans-Serif" font-size="10.00">clist.h</text>
</a>
</g>
</g>
<!-- Node8&#45;&gt;Node17 -->
<g id="edge22_Node000008_Node000017" class="edge">
<title>Node8&#45;&gt;Node17</title>
<g id="a_edge22_Node000008_Node000017"><a xlink:title=" ">
<path fill="none" stroke="#63b8ff" d="M734.56,-226.59C747.85,-218.41 767.04,-206.61 782.42,-197.15"/>
<polygon fill="#63b8ff" stroke="#63b8ff" points="783.9,-200.34 790.59,-192.12 780.24,-194.38 783.9,-200.34"/>
</a>
</g>
</g>
<!-- Node11 -->
<g id="Node000011" class="node">
<title>Node11</title>
<g id="a_Node000011"><a xlink:href="modules_8h.html" target="_top" xlink:title="Common macros and compiler attributes/pragmas configuration.">
<polygon fill="white" stroke="#666666" points="409.15,-134.25 342.15,-134.25 342.15,-113.5 409.15,-113.5 409.15,-134.25"/>
<text text-anchor="middle" x="375.65" y="-120.75" font-family="Helvetica,sans-Serif" font-size="10.00">modules.h</text>
</a>
</g>
</g>
<!-- Node10&#45;&gt;Node11 -->
<g id="edge11_Node000010_Node000011" class="edge">
<title>Node10&#45;&gt;Node11</title>
<g id="a_edge11_Node000010_Node000011"><a xlink:title=" ">
<path fill="none" stroke="#63b8ff" d="M670.23,-171.9C603.69,-161.27 484.88,-142.31 420.35,-132.01"/>
<polygon fill="#63b8ff" stroke="#63b8ff" points="421.26,-128.61 410.83,-130.49 420.15,-135.52 421.26,-128.61"/>
</a>
</g>
</g>
<!-- Node12 -->
<g id="Node000012" class="node">
<title>Node12</title>
<g id="a_Node000012"><a xlink:href="riot__version_8h.html" target="_top" xlink:title="Common macros and compiler attributes/pragmas configuration.">
<polygon fill="white" stroke="#666666" points="857.02,-77.5 774.27,-77.5 774.27,-56.75 857.02,-56.75 857.02,-77.5"/>
<text text-anchor="middle" x="815.65" y="-64" font-family="Helvetica,sans-Serif" font-size="10.00">riot_version.h</text>
</a>
</g>
</g>
<!-- Node10&#45;&gt;Node12 -->
<g id="edge12_Node000010_Node000012" class="edge">
<title>Node10&#45;&gt;Node12</title>
<g id="a_edge12_Node000010_Node000012"><a xlink:title=" ">
<path fill="none" stroke="#63b8ff" d="M741.88,-169.82C757.55,-162.17 777.66,-150.16 790.65,-134.25 801.46,-121.02 807.9,-102.62 811.54,-88.59"/>
<polygon fill="#63b8ff" stroke="#63b8ff" points="814.89,-89.63 813.71,-79.1 808.07,-88.07 814.89,-89.63"/>
</a>
</g>
</g>
<!-- Node13 -->
<g id="Node000013" class="node">
<title>Node13</title>
<g id="a_Node000013"><a xlink:href="compiler__hints_8h.html" target="_top" xlink:title="Common macros and compiler attributes/pragmas configuration.">
<polygon fill="white" stroke="#666666" points="614.15,-134.25 517.15,-134.25 517.15,-113.5 614.15,-113.5 614.15,-134.25"/>
<text text-anchor="middle" x="565.65" y="-120.75" font-family="Helvetica,sans-Serif" font-size="10.00">compiler_hints.h</text>
</a>
</g>
</g>
<!-- Node10&#45;&gt;Node13 -->
<g id="edge14_Node000010_Node000013" class="edge">
<title>Node10&#45;&gt;Node13</title>
<g id="a_edge14_Node000010_Node000013"><a xlink:title=" ">
<path fill="none" stroke="#63b8ff" d="M691.3,-169.84C666.89,-161.11 630.92,-148.23 603.72,-138.5"/>
<polygon fill="#63b8ff" stroke="#63b8ff" points="605.04,-135.25 594.45,-135.18 602.68,-141.85 605.04,-135.25"/>
</a>
</g>
</g>
<!-- Node15 -->
<g id="Node000015" class="node">
<title>Node15</title>
<g id="a_Node000015"><a xlink:href="container_8h.html" target="_top" xlink:title="Common macros and compiler attributes/pragmas configuration.">
<polygon fill="white" stroke="#666666" points="782.02,-134.25 711.27,-134.25 711.27,-113.5 782.02,-113.5 782.02,-134.25"/>
<text text-anchor="middle" x="746.65" y="-120.75" font-family="Helvetica,sans-Serif" font-size="10.00">container.h</text>
</a>
</g>
</g>
<!-- Node10&#45;&gt;Node15 -->
<g id="edge18_Node000010_Node000015" class="edge">
<title>Node10&#45;&gt;Node15</title>
<g id="a_edge18_Node000010_Node000015"><a xlink:title=" ">
<path fill="none" stroke="#63b8ff" d="M723.66,-169.84C727.24,-162.83 732.19,-153.16 736.57,-144.58"/>
<polygon fill="#63b8ff" stroke="#63b8ff" points="739.56,-146.42 741,-135.93 733.33,-143.24 739.56,-146.42"/>
</a>
</g>
</g>
<!-- Node12&#45;&gt;Node3 -->
<g id="edge13_Node000012_Node000003" class="edge">
<title>Node12&#45;&gt;Node3</title>
<g id="a_edge13_Node000012_Node000003"><a xlink:title=" ">
<path fill="none" stroke="#63b8ff" d="M803.31,-56.34C793.4,-48.47 779.26,-37.25 767.59,-27.99"/>
<polygon fill="#63b8ff" stroke="#63b8ff" points="770.07,-25.49 760.06,-22.02 765.72,-30.98 770.07,-25.49"/>
</a>
</g>
</g>
<!-- Node13&#45;&gt;Node3 -->
<g id="edge17_Node000013_Node000003" class="edge">
<title>Node13&#45;&gt;Node3</title>
<g id="a_edge17_Node000013_Node000003"><a xlink:title=" ">
<path fill="none" stroke="#63b8ff" d="M564.97,-113.37C564.5,-99.12 565.83,-72.23 580.65,-56.75 613.97,-21.93 671.21,-12.98 709,-11.12"/>
<polygon fill="#63b8ff" stroke="#63b8ff" points="708.66,-14.63 718.54,-10.8 708.43,-7.63 708.66,-14.63"/>
</a>
</g>
</g>
<!-- Node14 -->
<g id="Node000014" class="node">
<title>Node14</title>
<g id="a_Node000014"><a xlink:href="assert_8h.html" target="_top" xlink:title="POSIX.1&#45;2008 compliant version of the assert macro.">
<polygon fill="white" stroke="#666666" points="645.15,-77.5 590.15,-77.5 590.15,-56.75 645.15,-56.75 645.15,-77.5"/>
<text text-anchor="middle" x="617.65" y="-64" font-family="Helvetica,sans-Serif" font-size="10.00">assert.h</text>
</a>
</g>
</g>
<!-- Node13&#45;&gt;Node14 -->
<g id="edge15_Node000013_Node000014" class="edge">
<title>Node13&#45;&gt;Node14</title>
<g id="a_edge15_Node000013_Node000014"><a xlink:title=" ">
<path fill="none" stroke="#63b8ff" d="M574.95,-113.09C582.04,-105.61 592.02,-95.11 600.55,-86.13"/>
<polygon fill="#63b8ff" stroke="#63b8ff" points="603.04,-88.59 607.39,-78.93 597.97,-83.77 603.04,-88.59"/>
</a>
</g>
</g>
<!-- Node14&#45;&gt;Node3 -->
<g id="edge16_Node000014_Node000003" class="edge">
<title>Node14&#45;&gt;Node3</title>
<g id="a_edge16_Node000014_Node000003"><a xlink:title=" ">
<path fill="none" stroke="#63b8ff" d="M640.71,-56.34C660.89,-47.77 690.45,-35.23 713.22,-25.56"/>
<polygon fill="#63b8ff" stroke="#63b8ff" points="714.56,-28.8 722.39,-21.67 711.82,-22.35 714.56,-28.8"/>
</a>
</g>
</g>
<!-- Node15&#45;&gt;Node3 -->
<g id="edge20_Node000015_Node000003" class="edge">
<title>Node15&#45;&gt;Node3</title>
<g id="a_edge20_Node000015_Node000003"><a xlink:title=" ">
<path fill="none" stroke="#63b8ff" d="M746.65,-113.37C746.65,-95.6 746.65,-56.97 746.65,-32.68"/>
<polygon fill="#63b8ff" stroke="#63b8ff" points="750.15,-32.69 746.65,-22.69 743.15,-32.69 750.15,-32.69"/>
</a>
</g>
</g>
<!-- Node15&#45;&gt;Node9 -->
<g id="edge19_Node000015_Node000009" class="edge">
<title>Node15&#45;&gt;Node9</title>
<g id="a_edge19_Node000015_Node000009"><a xlink:title=" ">
<path fill="none" stroke="#63b8ff" d="M736.64,-113.09C728.91,-105.53 718.02,-94.89 708.78,-85.85"/>
<polygon fill="#63b8ff" stroke="#63b8ff" points="711.25,-83.37 701.66,-78.89 706.36,-88.38 711.25,-83.37"/>
</a>
</g>
</g>
<!-- Node17&#45;&gt;Node4 -->
<g id="edge23_Node000017_Node000004" class="edge">
<title>Node17&#45;&gt;Node4</title>
<g id="a_edge23_Node000017_Node000004"><a xlink:title=" ">
<path fill="none" stroke="#63b8ff" d="M830.59,-172.34C833.29,-171.59 836.02,-170.87 838.65,-170.25 926.88,-149.39 953.33,-152.95 1044.85,-134.71"/>
<polygon fill="#63b8ff" stroke="#63b8ff" points="1045.45,-138.16 1054.55,-132.74 1044.05,-131.3 1045.45,-138.16"/>
</a>
</g>
</g>
<!-- Node17&#45;&gt;Node9 -->
<g id="edge24_Node000017_Node000009" class="edge">
<title>Node17&#45;&gt;Node9</title>
<g id="a_edge24_Node000017_Node000009"><a xlink:title=" ">
<path fill="none" stroke="#63b8ff" d="M784.58,-172.49C757.02,-163.51 713.27,-147.62 702.65,-134.25 692.55,-121.53 689.88,-103.09 689.56,-88.91"/>
<polygon fill="#63b8ff" stroke="#63b8ff" points="693.05,-89.37 689.72,-79.31 686.05,-89.25 693.05,-89.37"/>
</a>
</g>
</g>
<!-- Node17&#45;&gt;Node18 -->
<g id="edge25_Node000017_Node000018" class="edge">
<title>Node17&#45;&gt;Node18</title>
<g id="a_edge25_Node000017_Node000018"><a xlink:title=" ">
<path fill="none" stroke="#63b8ff" d="M818.02,-169.84C826.1,-162.21 837.53,-151.42 847.17,-142.32"/>
<polygon fill="#63b8ff" stroke="#63b8ff" points="849.4,-145.03 854.27,-135.62 844.59,-139.94 849.4,-145.03"/>
</a>
</g>
</g>
<!-- Node19&#45;&gt;Node6 -->
<g id="edge27_Node000019_Node000006" class="edge">
<title>Node19&#45;&gt;Node6</title>
<g id="a_edge27_Node000019_Node000006"><a xlink:title=" ">
<path fill="none" stroke="#63b8ff" d="M503.81,-226.59C518.28,-218.33 539.24,-206.38 555.91,-196.88"/>
<polygon fill="#63b8ff" stroke="#63b8ff" points="557.37,-200.07 564.32,-192.08 553.9,-193.99 557.37,-200.07"/>
</a>
</g>
</g>
<!-- Node19&#45;&gt;Node11 -->
<g id="edge28_Node000019_Node000011" class="edge">
<title>Node19&#45;&gt;Node11</title>
<g id="a_edge28_Node000019_Node000011"><a xlink:title=" ">
<path fill="none" stroke="#63b8ff" d="M433.62,-228.12C392.87,-220.57 341.44,-207.98 328.65,-191 316.14,-174.39 333.69,-154.94 350.8,-141.46"/>
<polygon fill="#63b8ff" stroke="#63b8ff" points="352.86,-144.28 358.84,-135.53 348.71,-138.64 352.86,-144.28"/>
</a>
</g>
</g>
<!-- Node20 -->
<g id="Node000020" class="node">
<title>Node20</title>
<g id="a_Node000020"><a xlink:href="ethertype_8h.html" target="_top" xlink:title="Ether type definitions.">
<polygon fill="white" stroke="#666666" points="532.15,-191 441.15,-191 441.15,-170.25 532.15,-170.25 532.15,-191"/>
<text text-anchor="middle" x="486.65" y="-177.5" font-family="Helvetica,sans-Serif" font-size="10.00">net/ethertype.h</text>
</a>
</g>
</g>
<!-- Node19&#45;&gt;Node20 -->
<g id="edge29_Node000019_Node000020" class="edge">
<title>Node19&#45;&gt;Node20</title>
<g id="a_edge29_Node000019_Node000020"><a xlink:title=" ">
<path fill="none" stroke="#63b8ff" d="M486.65,-226.59C486.65,-219.97 486.65,-210.97 486.65,-202.77"/>
<polygon fill="#63b8ff" stroke="#63b8ff" points="490.15,-202.84 486.65,-192.84 483.15,-202.84 490.15,-202.84"/>
</a>
</g>
</g>
<!-- Node21 -->
<g id="Node000021" class="node">
<title>Node21</title>
<g id="a_Node000021"><a xlink:href="protnum_8h.html" target="_top" xlink:title="Protocol number definitions.">
<polygon fill="white" stroke="#666666" points="423.15,-191 338.15,-191 338.15,-170.25 423.15,-170.25 423.15,-191"/>
<text text-anchor="middle" x="380.65" y="-177.5" font-family="Helvetica,sans-Serif" font-size="10.00">net/protnum.h</text>
</a>
</g>
</g>
<!-- Node19&#45;&gt;Node21 -->
<g id="edge30_Node000019_Node000021" class="edge">
<title>Node19&#45;&gt;Node21</title>
<g id="a_edge30_Node000019_Node000021"><a xlink:title=" ">
<path fill="none" stroke="#63b8ff" d="M467.7,-226.59C451.57,-218.26 428.15,-206.16 409.66,-196.61"/>
<polygon fill="#63b8ff" stroke="#63b8ff" points="411.27,-193.5 400.78,-192.02 408.06,-199.72 411.27,-193.5"/>
</a>
</g>
</g>
<!-- Node22&#45;&gt;Node3 -->
<g id="edge33_Node000022_Node000003" class="edge">
<title>Node22&#45;&gt;Node3</title>
<g id="a_edge33_Node000022_Node000003"><a xlink:title=" ">
<path fill="none" stroke="#63b8ff" d="M1052.09,-346.48C1180.53,-338.72 1423.65,-314.03 1423.65,-238.38 1423.65,-238.38 1423.65,-238.38 1423.65,-122.88 1423.65,-43.87 1335.48,-75.13 1258.65,-56.75 1085.38,-15.31 870.97,-10.91 784.97,-10.98"/>
<polygon fill="#63b8ff" stroke="#63b8ff" points="784.97,-7.48 774.98,-11.01 784.99,-14.48 784.97,-7.48"/>
</a>
</g>
</g>
<!-- Node22&#45;&gt;Node5 -->
<g id="edge37_Node000022_Node000005" class="edge">
<title>Node22&#45;&gt;Node5</title>
<g id="a_edge37_Node000022_Node000005"><a xlink:title=" ">
<path fill="none" stroke="#63b8ff" d="M928.59,-340.02C884.43,-330.58 817.84,-316.34 771.54,-306.44"/>
<polygon fill="#63b8ff" stroke="#63b8ff" points="772.52,-303.07 762.01,-304.4 771.05,-309.91 772.52,-303.07"/>
</a>
</g>
</g>
<!-- Node23 -->
<g id="Node000023" class="node">
<title>Node23</title>
<g id="a_Node000023"><a xlink:href="priority__queue_8h.html" target="_top" xlink:title="A simple priority queue.">
<polygon fill="white" stroke="#666666" points="1038.4,-134.25 942.9,-134.25 942.9,-113.5 1038.4,-113.5 1038.4,-134.25"/>
<text text-anchor="middle" x="990.65" y="-120.75" font-family="Helvetica,sans-Serif" font-size="10.00">priority_queue.h</text>
</a>
</g>
</g>
<!-- Node22&#45;&gt;Node23 -->
<g id="edge34_Node000022_Node000023" class="edge">
<title>Node22&#45;&gt;Node23</title>
<g id="a_edge34_Node000022_Node000023"><a xlink:title=" ">
<path fill="none" stroke="#63b8ff" d="M980.31,-340.16C990.23,-322.48 1010.41,-283.58 1017.65,-247.75 1024.47,-213.99 1026.78,-203.46 1017.65,-170.25 1015.11,-161.01 1010.14,-151.76 1005.16,-144.04"/>
<polygon fill="#63b8ff" stroke="#63b8ff" points="1008.03,-142.04 999.43,-135.85 1002.29,-146.05 1008.03,-142.04"/>
</a>
</g>
</g>
<!-- Node23&#45;&gt;Node3 -->
<g id="edge36_Node000023_Node000003" class="edge">
<title>Node23&#45;&gt;Node3</title>
<g id="a_edge36_Node000023_Node000003"><a xlink:title=" ">
<path fill="none" stroke="#63b8ff" d="M984.29,-113.13C974.26,-98.56 953.35,-71.25 928.65,-56.75 883.48,-30.23 823.21,-19.12 784.66,-14.53"/>
<polygon fill="#63b8ff" stroke="#63b8ff" points="785.26,-11.07 774.94,-13.47 784.5,-18.03 785.26,-11.07"/>
</a>
</g>
</g>
<!-- Node23&#45;&gt;Node9 -->
<g id="edge35_Node000023_Node000009" class="edge">
<title>Node23&#45;&gt;Node9</title>
<g id="a_edge35_Node000023_Node000009"><a xlink:title=" ">
<path fill="none" stroke="#63b8ff" d="M942.45,-114.08C883.35,-103.29 784.33,-85.22 729.73,-75.26"/>
<polygon fill="#63b8ff" stroke="#63b8ff" points="730.42,-71.83 719.96,-73.47 729.16,-78.71 730.42,-71.83"/>
</a>
</g>
</g>
<!-- Node24&#45;&gt;Node3 -->
<g id="edge39_Node000024_Node000003" class="edge">
<title>Node24&#45;&gt;Node3</title>
<g id="a_edge39_Node000024_Node000003"><a xlink:title=" ">
<path fill="none" stroke="#63b8ff" d="M92.49,-226.58C78.5,-218.79 60.48,-206.61 49.65,-191 14.74,-140.69 -23.28,-101.38 18.65,-56.75 42.48,-31.39 562.15,-16.13 708.57,-12.32"/>
<polygon fill="#63b8ff" stroke="#63b8ff" points="708.59,-15.82 718.5,-12.06 708.41,-8.82 708.59,-15.82"/>
</a>
</g>
</g>
<!-- Node24&#45;&gt;Node7 -->
<g id="edge40_Node000024_Node000007" class="edge">
<title>Node24&#45;&gt;Node7</title>
<g id="a_edge40_Node000024_Node000007"><a xlink:title=" ">
<path fill="none" stroke="#63b8ff" d="M138.21,-226.59C160.89,-217.91 194.25,-205.13 219.62,-195.42"/>
<polygon fill="#63b8ff" stroke="#63b8ff" points="220.8,-198.71 228.89,-191.87 218.3,-192.18 220.8,-198.71"/>
</a>
</g>
</g>
<!-- Node24&#45;&gt;Node11 -->
<g id="edge51_Node000024_Node000011" class="edge">
<title>Node24&#45;&gt;Node11</title>
<g id="a_edge51_Node000024_Node000011"><a xlink:title=" ">
<path fill="none" stroke="#63b8ff" d="M120.8,-226.65C133.54,-212.1 159.62,-184.83 187.65,-170.25 200.32,-163.66 279.18,-145.79 330.66,-134.54"/>
<polygon fill="#63b8ff" stroke="#63b8ff" points="331.32,-137.98 340.35,-132.43 329.84,-131.14 331.32,-137.98"/>
</a>
</g>
</g>
<!-- Node25 -->
<g id="Node000025" class="node">
<title>Node25</title>
<g id="a_Node000025"><a xlink:href="byteorder_8h.html" target="_top" xlink:title="Functions to work with different byte orders.">
<polygon fill="white" stroke="#666666" points="156.77,-134.25 84.52,-134.25 84.52,-113.5 156.77,-113.5 156.77,-134.25"/>
<text text-anchor="middle" x="120.65" y="-120.75" font-family="Helvetica,sans-Serif" font-size="10.00">byteorder.h</text>
</a>
</g>
</g>
<!-- Node24&#45;&gt;Node25 -->
<g id="edge41_Node000024_Node000025" class="edge">
<title>Node24&#45;&gt;Node25</title>
<g id="a_edge41_Node000024_Node000025"><a xlink:title=" ">
<path fill="none" stroke="#63b8ff" d="M93.96,-226.69C73.45,-214.67 44.91,-192.97 56.65,-170.25 63.29,-157.39 75.45,-147.39 87.39,-140.09"/>
<polygon fill="#63b8ff" stroke="#63b8ff" points="88.9,-143.26 95.93,-135.33 85.49,-137.14 88.9,-143.26"/>
</a>
</g>
</g>
<!-- Node29 -->
<g id="Node000029" class="node">
<title>Node29</title>
<g id="a_Node000029"><a xlink:href="eui64_8h.html" target="_top" xlink:title="EUI&#45;64 data type definition.">
<polygon fill="white" stroke="#666666" points="136.02,-191 65.27,-191 65.27,-170.25 136.02,-170.25 136.02,-191"/>
<text text-anchor="middle" x="100.65" y="-177.5" font-family="Helvetica,sans-Serif" font-size="10.00">net/eui64.h</text>
</a>
</g>
</g>
<!-- Node24&#45;&gt;Node29 -->
<g id="edge48_Node000024_Node000029" class="edge">
<title>Node24&#45;&gt;Node29</title>
<g id="a_edge48_Node000024_Node000029"><a xlink:title=" ">
<path fill="none" stroke="#63b8ff" d="M110.5,-226.59C109.04,-219.89 107.04,-210.76 105.22,-202.48"/>
<polygon fill="#63b8ff" stroke="#63b8ff" points="108.66,-201.83 103.1,-192.81 101.82,-203.32 108.66,-201.83"/>
</a>
</g>
</g>
<!-- Node25&#45;&gt;Node3 -->
<g id="edge43_Node000025_Node000003" class="edge">
<title>Node25&#45;&gt;Node3</title>
<g id="a_edge43_Node000025_Node000003"><a xlink:title=" ">
<path fill="none" stroke="#63b8ff" d="M154.06,-113.04C181.85,-104.54 222.29,-91.46 256.65,-77.5 276.31,-69.51 279.23,-62.52 299.65,-56.75 446.73,-15.19 630.53,-10.67 708.67,-10.83"/>
<polygon fill="#63b8ff" stroke="#63b8ff" points="708.32,-14.33 718.34,-10.88 708.36,-7.33 708.32,-14.33"/>
</a>
</g>
</g>
<!-- Node26 -->
<g id="Node000026" class="node">
<title>Node26</title>
<g id="a_Node000026"><a xlink:title=" ">
<polygon fill="#e0e0e0" stroke="#999999" points="248.02,-77.5 195.27,-77.5 195.27,-56.75 248.02,-56.75 248.02,-77.5"/>
<text text-anchor="middle" x="221.65" y="-64" font-family="Helvetica,sans-Serif" font-size="10.00">string.h</text>
</a>
</g>
</g>
<!-- Node25&#45;&gt;Node26 -->
<g id="edge42_Node000025_Node000026" class="edge">
<title>Node25&#45;&gt;Node26</title>
<g id="a_edge42_Node000025_Node000026"><a xlink:title=" ">
<path fill="none" stroke="#63b8ff" d="M138.71,-113.09C154.07,-104.76 176.39,-92.66 194.01,-83.11"/>
<polygon fill="#63b8ff" stroke="#63b8ff" points="195.29,-86.39 202.42,-78.55 191.96,-80.24 195.29,-86.39"/>
</a>
</g>
</g>
<!-- Node27 -->
<g id="Node000027" class="node">
<title>Node27</title>
<g id="a_Node000027"><a xlink:href="endian_8h.html" target="_top" xlink:title="libc header for endian conversion">
<polygon fill="white" stroke="#666666" points="85.65,-77.5 27.65,-77.5 27.65,-56.75 85.65,-56.75 85.65,-77.5"/>
<text text-anchor="middle" x="56.65" y="-64" font-family="Helvetica,sans-Serif" font-size="10.00">endian.h</text>
</a>
</g>
</g>
<!-- Node25&#45;&gt;Node27 -->
<g id="edge44_Node000025_Node000027" class="edge">
<title>Node25&#45;&gt;Node27</title>
<g id="a_edge44_Node000025_Node000027"><a xlink:title=" ">
<path fill="none" stroke="#63b8ff" d="M109.21,-113.09C100.2,-105.38 87.42,-94.45 76.71,-85.29"/>
<polygon fill="#63b8ff" stroke="#63b8ff" points="79.02,-82.65 69.14,-78.81 74.47,-87.97 79.02,-82.65"/>
</a>
</g>
</g>
<!-- Node28 -->
<g id="Node000028" class="node">
<title>Node28</title>
<g id="a_Node000028"><a xlink:href="unaligned_8h.html" target="_top" xlink:title="Unaligned but safe memory access functions.">
<polygon fill="white" stroke="#666666" points="177.15,-77.5 104.15,-77.5 104.15,-56.75 177.15,-56.75 177.15,-77.5"/>
<text text-anchor="middle" x="140.65" y="-64" font-family="Helvetica,sans-Serif" font-size="10.00">unaligned.h</text>
</a>
</g>
</g>
<!-- Node25&#45;&gt;Node28 -->
<g id="edge46_Node000025_Node000028" class="edge">
<title>Node25&#45;&gt;Node28</title>
<g id="a_edge46_Node000025_Node000028"><a xlink:title=" ">
<path fill="none" stroke="#63b8ff" d="M124.22,-113.09C126.73,-106.24 130.16,-96.84 133.24,-88.4"/>
<polygon fill="#63b8ff" stroke="#63b8ff" points="136.44,-89.84 136.59,-79.25 129.87,-87.44 136.44,-89.84"/>
</a>
</g>
</g>
<!-- Node27&#45;&gt;Node3 -->
<g id="edge45_Node000027_Node000003" class="edge">
<title>Node27&#45;&gt;Node3</title>
<g id="a_edge45_Node000027_Node000003"><a xlink:title=" ">
<path fill="none" stroke="#63b8ff" d="M86.01,-58.35C88.91,-57.74 91.83,-57.19 94.65,-56.75 325.97,-20.44 608.02,-13.19 708.71,-11.74"/>
<polygon fill="#63b8ff" stroke="#63b8ff" points="708.6,-15.24 718.56,-11.61 708.51,-8.24 708.6,-15.24"/>
</a>
</g>
</g>
<!-- Node28&#45;&gt;Node3 -->
<g id="edge47_Node000028_Node000003" class="edge">
<title>Node28&#45;&gt;Node3</title>
<g id="a_edge47_Node000028_Node000003"><a xlink:title=" ">
<path fill="none" stroke="#63b8ff" d="M177.49,-58.21C180.58,-57.67 183.66,-57.17 186.65,-56.75 381.89,-29.05 618.02,-16.8 708.68,-12.88"/>
<polygon fill="#63b8ff" stroke="#63b8ff" points="708.64,-16.38 718.49,-12.46 708.35,-9.39 708.64,-16.38"/>
</a>
</g>
</g>
<!-- Node29&#45;&gt;Node3 -->
<g id="edge49_Node000029_Node000003" class="edge">
<title>Node29&#45;&gt;Node3</title>
<g id="a_edge49_Node000029_Node000003"><a xlink:title=" ">
<path fill="none" stroke="#63b8ff" d="M133.59,-169.84C178.47,-156.59 261.41,-132.43 332.65,-113.5 470.85,-76.77 636.2,-37.33 709.05,-20.17"/>
<polygon fill="#63b8ff" stroke="#63b8ff" points="709.52,-23.66 718.45,-17.96 707.92,-16.84 709.52,-23.66"/>
</a>
</g>
</g>
<!-- Node29&#45;&gt;Node25 -->
<g id="edge50_Node000029_Node000025" class="edge">
<title>Node29&#45;&gt;Node25</title>
<g id="a_edge50_Node000029_Node000025"><a xlink:title=" ">
<path fill="none" stroke="#63b8ff" d="M104.22,-169.84C106.73,-162.99 110.16,-153.59 113.24,-145.15"/>
<polygon fill="#63b8ff" stroke="#63b8ff" points="116.44,-146.59 116.59,-136 109.87,-144.19 116.44,-146.59"/>
</a>
</g>
</g>
<!-- Node30&#45;&gt;Node11 -->
<g id="edge53_Node000030_Node000011" class="edge">
<title>Node30&#45;&gt;Node11</title>
<g id="a_edge53_Node000030_Node000011"><a xlink:title=" ">
<path fill="none" stroke="#63b8ff" d="M414.49,-340.04C365.12,-320.48 261.93,-271.52 220.65,-191 216.44,-182.79 215.12,-177.63 220.65,-170.25 233.94,-152.51 289.95,-139.37 330.84,-131.92"/>
<polygon fill="#63b8ff" stroke="#63b8ff" points="331.19,-135.41 340.43,-130.23 329.97,-128.52 331.19,-135.41"/>
</a>
</g>
</g>
<!-- Node31&#45;&gt;Node3 -->
<g id="edge55_Node000031_Node000003" class="edge">
<title>Node31&#45;&gt;Node3</title>
<g id="a_edge55_Node000031_Node000003"><a xlink:title=" ">
<path fill="none" stroke="#63b8ff" d="M1268.01,-283.36C1315.12,-269.48 1385.65,-239.11 1385.65,-181.62 1385.65,-181.62 1385.65,-181.62 1385.65,-122.88 1385.65,-61.46 921.67,-23.75 784.44,-13.94"/>
<polygon fill="#63b8ff" stroke="#63b8ff" points="785.02,-10.47 774.8,-13.26 784.53,-17.46 785.02,-10.47"/>
</a>
</g>
</g>
<!-- Node32 -->
<g id="Node000032" class="node">
<title>Node32</title>
<g id="a_Node000032"><a xlink:href="drivers_2include_2net_2netdev_8h.html" target="_top" xlink:title="Definitions low&#45;level network driver interface.">
<polygon fill="white" stroke="#666666" points="1265.02,-247.75 1188.27,-247.75 1188.27,-227 1265.02,-227 1265.02,-247.75"/>
<text text-anchor="middle" x="1226.65" y="-234.25" font-family="Helvetica,sans-Serif" font-size="10.00">net/netdev.h</text>
</a>
</g>
</g>
<!-- Node31&#45;&gt;Node32 -->
<g id="edge56_Node000031_Node000032" class="edge">
<title>Node31&#45;&gt;Node32</title>
<g id="a_edge56_Node000031_Node000032"><a xlink:title=" ">
<path fill="none" stroke="#63b8ff" d="M1226.65,-283.34C1226.65,-276.72 1226.65,-267.72 1226.65,-259.52"/>
<polygon fill="#63b8ff" stroke="#63b8ff" points="1230.15,-259.59 1226.65,-249.59 1223.15,-259.59 1230.15,-259.59"/>
</a>
</g>
</g>
<!-- Node32&#45;&gt;Node3 -->
<g id="edge57_Node000032_Node000003" class="edge">
<title>Node32&#45;&gt;Node3</title>
<g id="a_edge57_Node000032_Node000003"><a xlink:title=" ">
<path fill="none" stroke="#63b8ff" d="M1238,-226.72C1251.97,-213.63 1272.47,-189.65 1260.65,-170.25 1203.4,-76.29 1145.27,-90.81 1040.65,-56.75 951.7,-27.8 841.46,-17.1 784.57,-13.32"/>
<polygon fill="#63b8ff" stroke="#63b8ff" points="784.97,-9.84 774.78,-12.71 784.54,-16.82 784.97,-9.84"/>
</a>
</g>
</g>
<!-- Node32&#45;&gt;Node10 -->
<g id="edge63_Node000032_Node000010" class="edge">
<title>Node32&#45;&gt;Node10</title>
<g id="a_edge63_Node000032_Node000010"><a xlink:title=" ">
<path fill="none" stroke="#63b8ff" d="M1187.94,-233.3C1111.65,-227.08 936.25,-211.88 778.46,-191.3"/>
<polygon fill="#63b8ff" stroke="#63b8ff" points="779,-187.84 768.63,-190.01 778.09,-194.78 779,-187.84"/>
</a>
</g>
</g>
<!-- Node33 -->
<g id="Node000033" class="node">
<title>Node33</title>
<g id="a_Node000033"><a xlink:href="errno_8h.html" target="_top" xlink:title=" ">
<polygon fill="white" stroke="#666666" points="1251.9,-191 1201.4,-191 1201.4,-170.25 1251.9,-170.25 1251.9,-191"/>
<text text-anchor="middle" x="1226.65" y="-177.5" font-family="Helvetica,sans-Serif" font-size="10.00">errno.h</text>
</a>
</g>
</g>
<!-- Node32&#45;&gt;Node33 -->
<g id="edge58_Node000032_Node000033" class="edge">
<title>Node32&#45;&gt;Node33</title>
<g id="a_edge58_Node000032_Node000033"><a xlink:title=" ">
<path fill="none" stroke="#63b8ff" d="M1226.65,-226.59C1226.65,-219.97 1226.65,-210.97 1226.65,-202.77"/>
<polygon fill="#63b8ff" stroke="#63b8ff" points="1230.15,-202.84 1226.65,-192.84 1223.15,-202.84 1230.15,-202.84"/>
</a>
</g>
</g>
<!-- Node34 -->
<g id="Node000034" class="node">
<title>Node34</title>
<g id="a_Node000034"><a xlink:href="iolist_8h.html" target="_top" xlink:title="iolist scatter / gather IO">
<polygon fill="white" stroke="#666666" points="1357.15,-191 1308.15,-191 1308.15,-170.25 1357.15,-170.25 1357.15,-191"/>
<text text-anchor="middle" x="1332.65" y="-177.5" font-family="Helvetica,sans-Serif" font-size="10.00">iolist.h</text>
</a>
</g>
</g>
<!-- Node32&#45;&gt;Node34 -->
<g id="edge59_Node000032_Node000034" class="edge">
<title>Node32&#45;&gt;Node34</title>
<g id="a_edge59_Node000032_Node000034"><a xlink:title=" ">
<path fill="none" stroke="#63b8ff" d="M1245.6,-226.59C1261.73,-218.26 1285.15,-206.16 1303.64,-196.61"/>
<polygon fill="#63b8ff" stroke="#63b8ff" points="1305.24,-199.72 1312.52,-192.02 1302.03,-193.5 1305.24,-199.72"/>
</a>
</g>
</g>
<!-- Node35 -->
<g id="Node000035" class="node">
<title>Node35</title>
<g id="a_Node000035"><a xlink:href="netopt_8h.html" target="_top" xlink:title="Definition of global configuration options.">
<polygon fill="white" stroke="#666666" points="1183.27,-191 1108.02,-191 1108.02,-170.25 1183.27,-170.25 1183.27,-191"/>
<text text-anchor="middle" x="1145.65" y="-177.5" font-family="Helvetica,sans-Serif" font-size="10.00">net/netopt.h</text>
</a>
</g>
</g>
<!-- Node32&#45;&gt;Node35 -->
<g id="edge60_Node000032_Node000035" class="edge">
<title>Node32&#45;&gt;Node35</title>
<g id="a_edge60_Node000032_Node000035"><a xlink:title=" ">
<path fill="none" stroke="#63b8ff" d="M1212.17,-226.59C1200.3,-218.57 1183.27,-207.06 1169.42,-197.69"/>
<polygon fill="#63b8ff" stroke="#63b8ff" points="1171.5,-194.88 1161.26,-192.18 1167.58,-200.68 1171.5,-194.88"/>
</a>
</g>
</g>
<!-- Node35&#45;&gt;Node3 -->
<g id="edge61_Node000035_Node000003" class="edge">
<title>Node35&#45;&gt;Node3</title>
<g id="a_edge61_Node000035_Node000003"><a xlink:title=" ">
<path fill="none" stroke="#63b8ff" d="M1145.58,-170.17C1144.96,-155.99 1141.71,-129.18 1126.65,-113.5 1079.03,-63.91 871.38,-29.17 784.78,-16.58"/>
<polygon fill="#63b8ff" stroke="#63b8ff" points="785.29,-13.12 774.89,-15.17 784.3,-20.05 785.29,-13.12"/>
</a>
</g>
</g>
<!-- Node35&#45;&gt;Node4 -->
<g id="edge62_Node000035_Node000004" class="edge">
<title>Node35&#45;&gt;Node4</title>
<g id="a_edge62_Node000035_Node000004"><a xlink:title=" ">
<path fill="none" stroke="#63b8ff" d="M1135.1,-169.84C1126.88,-162.21 1115.25,-151.42 1105.45,-142.32"/>
<polygon fill="#63b8ff" stroke="#63b8ff" points="1107.93,-139.84 1098.22,-135.61 1103.16,-144.98 1107.93,-139.84"/>
</a>
</g>
</g>
</g>
</svg>
