<?xml version="1.0" encoding="UTF-8" standalone="no"?>
<!DOCTYPE svg PUBLIC "-//W3C//DTD SVG 1.1//EN"
 "http://www.w3.org/Graphics/SVG/1.1/DTD/svg11.dtd">
<!-- Generated by graphviz version 12.1.2 (0)
 -->
<!-- Title: drivers/nrf24l01p_ng/include/nrf24l01p_ng_params.h Pages: 1 -->
<svg width="1137pt" height="452pt"
 viewBox="0.00 0.00 1136.86 451.50" xmlns="http://www.w3.org/2000/svg" xmlns:xlink="http://www.w3.org/1999/xlink">
<g id="graph0" class="graph" transform="scale(1 1) rotate(0) translate(4 447.5)">
<title>drivers/nrf24l01p_ng/include/nrf24l01p_ng_params.h</title>
<!-- Node1 -->
<g id="Node000001" class="node">
<title>Node1</title>
<g id="a_Node000001"><a xlink:title="Board specific configuration for all NRF24L01+ (NG) devices.">
<polygon fill="#999999" stroke="#666666" points="430.36,-443.5 309.36,-443.5 309.36,-397.25 430.36,-397.25 430.36,-443.5"/>
<text text-anchor="start" x="317.36" y="-430" font-family="Helvetica,sans-Serif" font-size="10.00">drivers/nrf24l01p_ng</text>
<text text-anchor="start" x="317.36" y="-417.25" font-family="Helvetica,sans-Serif" font-size="10.00">/include/nrf24l01p_ng</text>
<text text-anchor="middle" x="369.86" y="-404.5" font-family="Helvetica,sans-Serif" font-size="10.00">_params.h</text>
</a>
</g>
</g>
<!-- Node2 -->
<g id="Node000002" class="node">
<title>Node2</title>
<g id="a_Node000002"><a xlink:title=" ">
<polygon fill="#e0e0e0" stroke="#999999" points="245.23,-247.75 192.48,-247.75 192.48,-227 245.23,-227 245.23,-247.75"/>
<text text-anchor="middle" x="218.86" y="-234.25" font-family="Helvetica,sans-Serif" font-size="10.00">board.h</text>
</a>
</g>
</g>
<!-- Node1&#45;&gt;Node2 -->
<g id="edge1_Node000001_Node000002" class="edge">
<title>Node1&#45;&gt;Node2</title>
<g id="a_edge1_Node000001_Node000002"><a xlink:title=" ">
<path fill="none" stroke="#63b8ff" d="M351.04,-396.82C320.82,-360.59 262.04,-290.14 234.2,-256.76"/>
<polygon fill="#63b8ff" stroke="#63b8ff" points="236.98,-254.63 227.88,-249.19 231.6,-259.11 236.98,-254.63"/>
</a>
</g>
</g>
<!-- Node3 -->
<g id="Node000003" class="node">
<title>Node3</title>
<g id="a_Node000003"><a xlink:href="drivers_2include_2periph_2gpio_8h.html" target="_top" xlink:title="Low&#45;level GPIO peripheral driver interface definitions.">
<polygon fill="white" stroke="#666666" points="157.73,-191 77.98,-191 77.98,-170.25 157.73,-170.25 157.73,-191"/>
<text text-anchor="middle" x="117.86" y="-177.5" font-family="Helvetica,sans-Serif" font-size="10.00">periph/gpio.h</text>
</a>
</g>
</g>
<!-- Node1&#45;&gt;Node3 -->
<g id="edge2_Node000001_Node000003" class="edge">
<title>Node1&#45;&gt;Node3</title>
<g id="a_edge2_Node000001_Node000003"><a xlink:title=" ">
<path fill="none" stroke="#63b8ff" d="M343.52,-397.02C331.07,-386.33 316.07,-373.27 302.86,-361.25 239.6,-303.7 167.73,-232.01 135.33,-199.34"/>
<polygon fill="#63b8ff" stroke="#63b8ff" points="137.86,-196.92 128.34,-192.27 132.89,-201.84 137.86,-196.92"/>
</a>
</g>
</g>
<!-- Node7 -->
<g id="Node000007" class="node">
<title>Node7</title>
<g id="a_Node000007"><a xlink:href="spi_8h.html" target="_top" xlink:title="Low&#45;level SPI peripheral driver interface definition.">
<polygon fill="white" stroke="#666666" points="374.36,-247.75 301.36,-247.75 301.36,-227 374.36,-227 374.36,-247.75"/>
<text text-anchor="middle" x="337.86" y="-234.25" font-family="Helvetica,sans-Serif" font-size="10.00">periph/spi.h</text>
</a>
</g>
</g>
<!-- Node1&#45;&gt;Node7 -->
<g id="edge6_Node000001_Node000007" class="edge">
<title>Node1&#45;&gt;Node7</title>
<g id="a_edge6_Node000001_Node000007"><a xlink:title=" ">
<path fill="none" stroke="#63b8ff" d="M365.87,-396.82C359.6,-361.37 347.54,-293.15 341.5,-258.96"/>
<polygon fill="#63b8ff" stroke="#63b8ff" points="345.02,-258.76 339.83,-249.52 338.12,-259.98 345.02,-258.76"/>
</a>
</g>
</g>
<!-- Node13 -->
<g id="Node000013" class="node">
<title>Node13</title>
<g id="a_Node000013"><a xlink:href="kernel__defines_8h.html" target="_top" xlink:title="Common macros and compiler attributes/pragmas configuration.">
<polygon fill="white" stroke="#666666" points="767.98,-191 671.73,-191 671.73,-170.25 767.98,-170.25 767.98,-191"/>
<text text-anchor="middle" x="719.86" y="-177.5" font-family="Helvetica,sans-Serif" font-size="10.00">kernel_defines.h</text>
</a>
</g>
</g>
<!-- Node1&#45;&gt;Node13 -->
<g id="edge16_Node000001_Node000013" class="edge">
<title>Node1&#45;&gt;Node13</title>
<g id="a_edge16_Node000001_Node000013"><a xlink:title=" ">
<path fill="none" stroke="#63b8ff" d="M430.85,-410.34C472.95,-402.15 529.03,-387.25 572.86,-361.25 633.81,-325.09 642.95,-304.9 684.86,-247.75 695.54,-233.18 704.95,-214.93 711.31,-201.29"/>
<polygon fill="#63b8ff" stroke="#63b8ff" points="714.36,-203.04 715.28,-192.49 707.98,-200.17 714.36,-203.04"/>
</a>
</g>
</g>
<!-- Node19 -->
<g id="Node000019" class="node">
<title>Node19</title>
<g id="a_Node000019"><a xlink:href="nrf24l01p__ng__constants_8h.html" target="_top" xlink:title="Constants from the datasheet of the NRF24L01+ (NG) transceiver.">
<polygon fill="white" stroke="#666666" points="563.48,-361.25 422.23,-361.25 422.23,-340.5 563.48,-340.5 563.48,-361.25"/>
<text text-anchor="middle" x="492.86" y="-347.75" font-family="Helvetica,sans-Serif" font-size="10.00">nrf24l01p_ng_constants.h</text>
</a>
</g>
</g>
<!-- Node1&#45;&gt;Node19 -->
<g id="edge27_Node000001_Node000019" class="edge">
<title>Node1&#45;&gt;Node19</title>
<g id="a_edge27_Node000001_Node000019"><a xlink:title=" ">
<path fill="none" stroke="#63b8ff" d="M410.82,-396.9C428.7,-387.08 449.21,-375.83 465.24,-367.03"/>
<polygon fill="#63b8ff" stroke="#63b8ff" points="466.65,-370.25 473.74,-362.37 463.29,-364.11 466.65,-370.25"/>
</a>
</g>
</g>
<!-- Node20 -->
<g id="Node000020" class="node">
<title>Node20</title>
<g id="a_Node000020"><a xlink:href="nrf24l01p__ng_8h.html" target="_top" xlink:title="Public interface for NRF24L01+ (NG) devices.">
<polygon fill="white" stroke="#666666" points="538.23,-304.5 449.48,-304.5 449.48,-283.75 538.23,-283.75 538.23,-304.5"/>
<text text-anchor="middle" x="493.86" y="-291" font-family="Helvetica,sans-Serif" font-size="10.00">nrf24l01p_ng.h</text>
</a>
</g>
</g>
<!-- Node1&#45;&gt;Node20 -->
<g id="edge49_Node000001_Node000020" class="edge">
<title>Node1&#45;&gt;Node20</title>
<g id="a_edge49_Node000001_Node000020"><a xlink:title=" ">
<path fill="none" stroke="#63b8ff" d="M378.13,-396.82C385.28,-379.75 396.96,-356.58 412.86,-340.5 425.66,-327.55 442.93,-317.2 458.23,-309.67"/>
<polygon fill="#63b8ff" stroke="#63b8ff" points="459.48,-312.95 467.07,-305.55 456.52,-306.61 459.48,-312.95"/>
</a>
</g>
</g>
<!-- Node4 -->
<g id="Node000004" class="node">
<title>Node4</title>
<g id="a_Node000004"><a xlink:title=" ">
<polygon fill="#e0e0e0" stroke="#999999" points="64.23,-134.25 11.48,-134.25 11.48,-113.5 64.23,-113.5 64.23,-134.25"/>
<text text-anchor="middle" x="37.86" y="-120.75" font-family="Helvetica,sans-Serif" font-size="10.00">limits.h</text>
</a>
</g>
</g>
<!-- Node3&#45;&gt;Node4 -->
<g id="edge3_Node000003_Node000004" class="edge">
<title>Node3&#45;&gt;Node4</title>
<g id="a_edge3_Node000003_Node000004"><a xlink:title=" ">
<path fill="none" stroke="#63b8ff" d="M103.56,-169.84C91.84,-161.82 75.02,-150.31 61.33,-140.94"/>
<polygon fill="#63b8ff" stroke="#63b8ff" points="63.52,-138.19 53.29,-135.43 59.56,-143.97 63.52,-138.19"/>
</a>
</g>
</g>
<!-- Node5 -->
<g id="Node000005" class="node">
<title>Node5</title>
<g id="a_Node000005"><a xlink:title=" ">
<polygon fill="#e0e0e0" stroke="#999999" points="160.98,-134.25 82.73,-134.25 82.73,-113.5 160.98,-113.5 160.98,-134.25"/>
<text text-anchor="middle" x="121.86" y="-120.75" font-family="Helvetica,sans-Serif" font-size="10.00">periph_cpu.h</text>
</a>
</g>
</g>
<!-- Node3&#45;&gt;Node5 -->
<g id="edge4_Node000003_Node000005" class="edge">
<title>Node3&#45;&gt;Node5</title>
<g id="a_edge4_Node000003_Node000005"><a xlink:title=" ">
<path fill="none" stroke="#63b8ff" d="M118.57,-169.84C119.06,-163.22 119.71,-154.22 120.31,-146.02"/>
<polygon fill="#63b8ff" stroke="#63b8ff" points="123.8,-146.32 121.04,-136.09 116.82,-145.81 123.8,-146.32"/>
</a>
</g>
</g>
<!-- Node6 -->
<g id="Node000006" class="node">
<title>Node6</title>
<g id="a_Node000006"><a xlink:title=" ">
<polygon fill="#e0e0e0" stroke="#999999" points="260.48,-134.25 179.23,-134.25 179.23,-113.5 260.48,-113.5 260.48,-134.25"/>
<text text-anchor="middle" x="219.86" y="-120.75" font-family="Helvetica,sans-Serif" font-size="10.00">periph_conf.h</text>
</a>
</g>
</g>
<!-- Node3&#45;&gt;Node6 -->
<g id="edge5_Node000003_Node000006" class="edge">
<title>Node3&#45;&gt;Node6</title>
<g id="a_edge5_Node000003_Node000006"><a xlink:title=" ">
<path fill="none" stroke="#63b8ff" d="M136.09,-169.84C151.54,-161.55 173.94,-149.52 191.7,-139.99"/>
<polygon fill="#63b8ff" stroke="#63b8ff" points="193.29,-143.11 200.45,-135.29 189.98,-136.94 193.29,-143.11"/>
</a>
</g>
</g>
<!-- Node7&#45;&gt;Node3 -->
<g id="edge15_Node000007_Node000003" class="edge">
<title>Node7&#45;&gt;Node3</title>
<g id="a_edge15_Node000007_Node000003"><a xlink:title=" ">
<path fill="none" stroke="#63b8ff" d="M301.04,-227.21C264.7,-218.17 208.86,-204.27 168.39,-194.2"/>
<polygon fill="#63b8ff" stroke="#63b8ff" points="169.42,-190.85 158.87,-191.83 167.73,-197.64 169.42,-190.85"/>
</a>
</g>
</g>
<!-- Node7&#45;&gt;Node5 -->
<g id="edge13_Node000007_Node000005" class="edge">
<title>Node7&#45;&gt;Node5</title>
<g id="a_edge13_Node000007_Node000005"><a xlink:title=" ">
<path fill="none" stroke="#63b8ff" d="M311.87,-226.57C289.9,-218 257.8,-204.79 230.86,-191 200.58,-175.5 167.38,-154.78 145.67,-140.7"/>
<polygon fill="#63b8ff" stroke="#63b8ff" points="147.83,-137.93 137.55,-135.38 144,-143.78 147.83,-137.93"/>
</a>
</g>
</g>
<!-- Node7&#45;&gt;Node6 -->
<g id="edge14_Node000007_Node000006" class="edge">
<title>Node7&#45;&gt;Node6</title>
<g id="a_edge14_Node000007_Node000006"><a xlink:title=" ">
<path fill="none" stroke="#63b8ff" d="M306.08,-226.62C287.08,-219.4 263.64,-207.87 247.86,-191 236,-178.33 228.76,-159.88 224.62,-145.69"/>
<polygon fill="#63b8ff" stroke="#63b8ff" points="228.01,-144.84 222.12,-136.03 221.24,-146.59 228.01,-144.84"/>
</a>
</g>
</g>
<!-- Node8 -->
<g id="Node000008" class="node">
<title>Node8</title>
<g id="a_Node000008"><a xlink:href="endian_8h.html" target="_top" xlink:title="libc header for endian conversion">
<polygon fill="white" stroke="#666666" points="136.86,-77.5 78.86,-77.5 78.86,-56.75 136.86,-56.75 136.86,-77.5"/>
<text text-anchor="middle" x="107.86" y="-64" font-family="Helvetica,sans-Serif" font-size="10.00">endian.h</text>
</a>
</g>
</g>
<!-- Node7&#45;&gt;Node8 -->
<g id="edge7_Node000007_Node000008" class="edge">
<title>Node7&#45;&gt;Node8</title>
<g id="a_edge7_Node000007_Node000008"><a xlink:title=" ">
<path fill="none" stroke="#63b8ff" d="M301.03,-231.28C232.3,-221.62 89.57,-200.72 68.86,-191 33.84,-174.57 19,-169.41 2.86,-134.25 -11.37,-103.24 32.18,-85.3 67.48,-76.11"/>
<polygon fill="#63b8ff" stroke="#63b8ff" points="68.19,-79.54 77.09,-73.79 66.55,-72.74 68.19,-79.54"/>
</a>
</g>
</g>
<!-- Node9 -->
<g id="Node000009" class="node">
<title>Node9</title>
<g id="a_Node000009"><a xlink:title=" ">
<polygon fill="#e0e0e0" stroke="#999999" points="668.23,-20.75 615.48,-20.75 615.48,0 668.23,0 668.23,-20.75"/>
<text text-anchor="middle" x="641.86" y="-7.25" font-family="Helvetica,sans-Serif" font-size="10.00">stdint.h</text>
</a>
</g>
</g>
<!-- Node7&#45;&gt;Node9 -->
<g id="edge12_Node000007_Node000009" class="edge">
<title>Node7&#45;&gt;Node9</title>
<g id="a_edge12_Node000007_Node000009"><a xlink:title=" ">
<path fill="none" stroke="#63b8ff" d="M330.23,-226.6C323.91,-217.83 315.41,-204.34 311.86,-191 302.89,-157.32 302.38,-140.95 323.86,-113.5 392.08,-26.29 535.46,-12.36 603.91,-10.91"/>
<polygon fill="#63b8ff" stroke="#63b8ff" points="603.54,-14.42 613.5,-10.79 603.46,-7.42 603.54,-14.42"/>
</a>
</g>
</g>
<!-- Node10 -->
<g id="Node000010" class="node">
<title>Node10</title>
<g id="a_Node000010"><a xlink:href="errno_8h.html" target="_top" xlink:title=" ">
<polygon fill="white" stroke="#666666" points="378.11,-191 327.61,-191 327.61,-170.25 378.11,-170.25 378.11,-191"/>
<text text-anchor="middle" x="352.86" y="-177.5" font-family="Helvetica,sans-Serif" font-size="10.00">errno.h</text>
</a>
</g>
</g>
<!-- Node7&#45;&gt;Node10 -->
<g id="edge9_Node000007_Node000010" class="edge">
<title>Node7&#45;&gt;Node10</title>
<g id="a_edge9_Node000007_Node000010"><a xlink:title=" ">
<path fill="none" stroke="#63b8ff" d="M340.54,-226.59C342.4,-219.81 344.93,-210.55 347.23,-202.19"/>
<polygon fill="#63b8ff" stroke="#63b8ff" points="350.53,-203.36 349.8,-192.79 343.78,-201.51 350.53,-203.36"/>
</a>
</g>
</g>
<!-- Node11 -->
<g id="Node000011" class="node">
<title>Node11</title>
<g id="a_Node000011"><a xlink:title=" ">
<polygon fill="#e0e0e0" stroke="#999999" points="394.36,-134.25 333.36,-134.25 333.36,-113.5 394.36,-113.5 394.36,-134.25"/>
<text text-anchor="middle" x="363.86" y="-120.75" font-family="Helvetica,sans-Serif" font-size="10.00">stdbool.h</text>
</a>
</g>
</g>
<!-- Node7&#45;&gt;Node11 -->
<g id="edge10_Node000007_Node000011" class="edge">
<title>Node7&#45;&gt;Node11</title>
<g id="a_edge10_Node000007_Node000011"><a xlink:title=" ">
<path fill="none" stroke="#63b8ff" d="M331.11,-226.73C322.84,-213.65 310.85,-189.69 318.86,-170.25 323.44,-159.13 332.2,-149.3 340.79,-141.65"/>
<polygon fill="#63b8ff" stroke="#63b8ff" points="342.81,-144.52 348.32,-135.47 338.37,-139.11 342.81,-144.52"/>
</a>
</g>
</g>
<!-- Node12 -->
<g id="Node000012" class="node">
<title>Node12</title>
<g id="a_Node000012"><a xlink:title=" ">
<polygon fill="#e0e0e0" stroke="#999999" points="694.36,-77.5 639.36,-77.5 639.36,-56.75 694.36,-56.75 694.36,-77.5"/>
<text text-anchor="middle" x="666.86" y="-64" font-family="Helvetica,sans-Serif" font-size="10.00">stddef.h</text>
</a>
</g>
</g>
<!-- Node7&#45;&gt;Node12 -->
<g id="edge11_Node000007_Node000012" class="edge">
<title>Node7&#45;&gt;Node12</title>
<g id="a_edge11_Node000007_Node000012"><a xlink:title=" ">
<path fill="none" stroke="#63b8ff" d="M374.77,-227.68C404.29,-220.01 446.31,-207.5 480.86,-191 545.07,-160.34 612.98,-110.34 646.17,-84.6"/>
<polygon fill="#63b8ff" stroke="#63b8ff" points="648.03,-87.58 653.75,-78.66 643.72,-82.07 648.03,-87.58"/>
</a>
</g>
</g>
<!-- Node8&#45;&gt;Node9 -->
<g id="edge8_Node000008_Node000009" class="edge">
<title>Node8&#45;&gt;Node9</title>
<g id="a_edge8_Node000008_Node000009"><a xlink:title=" ">
<path fill="none" stroke="#63b8ff" d="M137.33,-63.1C227.98,-53.81 502.63,-25.65 603.86,-15.27"/>
<polygon fill="#63b8ff" stroke="#63b8ff" points="603.95,-18.78 613.54,-14.28 603.24,-11.82 603.95,-18.78"/>
</a>
</g>
</g>
<!-- Node14 -->
<g id="Node000014" class="node">
<title>Node14</title>
<g id="a_Node000014"><a xlink:href="modules_8h.html" target="_top" xlink:title="Common macros and compiler attributes/pragmas configuration.">
<polygon fill="white" stroke="#666666" points="987.36,-134.25 920.36,-134.25 920.36,-113.5 987.36,-113.5 987.36,-134.25"/>
<text text-anchor="middle" x="953.86" y="-120.75" font-family="Helvetica,sans-Serif" font-size="10.00">modules.h</text>
</a>
</g>
</g>
<!-- Node13&#45;&gt;Node14 -->
<g id="edge17_Node000013_Node000014" class="edge">
<title>Node13&#45;&gt;Node14</title>
<g id="a_edge17_Node000013_Node000014"><a xlink:title=" ">
<path fill="none" stroke="#63b8ff" d="M761.96,-169.77C803.43,-160.07 866.54,-145.31 908.95,-135.38"/>
<polygon fill="#63b8ff" stroke="#63b8ff" points="909.64,-138.82 918.58,-133.13 908.05,-132 909.64,-138.82"/>
</a>
</g>
</g>
<!-- Node15 -->
<g id="Node000015" class="node">
<title>Node15</title>
<g id="a_Node000015"><a xlink:href="riot__version_8h.html" target="_top" xlink:title="Common macros and compiler attributes/pragmas configuration.">
<polygon fill="white" stroke="#666666" points="833.23,-77.5 750.48,-77.5 750.48,-56.75 833.23,-56.75 833.23,-77.5"/>
<text text-anchor="middle" x="791.86" y="-64" font-family="Helvetica,sans-Serif" font-size="10.00">riot_version.h</text>
</a>
</g>
</g>
<!-- Node13&#45;&gt;Node15 -->
<g id="edge18_Node000013_Node000015" class="edge">
<title>Node13&#45;&gt;Node15</title>
<g id="a_edge18_Node000013_Node000015"><a xlink:title=" ">
<path fill="none" stroke="#63b8ff" d="M728.98,-170.03C737.13,-161.18 749.11,-147.43 757.86,-134.25 767.68,-119.46 776.76,-101.48 783.06,-88.01"/>
<polygon fill="#63b8ff" stroke="#63b8ff" points="786.07,-89.84 787.03,-79.29 779.7,-86.94 786.07,-89.84"/>
</a>
</g>
</g>
<!-- Node16 -->
<g id="Node000016" class="node">
<title>Node16</title>
<g id="a_Node000016"><a xlink:href="compiler__hints_8h.html" target="_top" xlink:title="Common macros and compiler attributes/pragmas configuration.">
<polygon fill="white" stroke="#666666" points="902.36,-134.25 805.36,-134.25 805.36,-113.5 902.36,-113.5 902.36,-134.25"/>
<text text-anchor="middle" x="853.86" y="-120.75" font-family="Helvetica,sans-Serif" font-size="10.00">compiler_hints.h</text>
</a>
</g>
</g>
<!-- Node13&#45;&gt;Node16 -->
<g id="edge20_Node000013_Node000016" class="edge">
<title>Node13&#45;&gt;Node16</title>
<g id="a_edge20_Node000013_Node000016"><a xlink:title=" ">
<path fill="none" stroke="#63b8ff" d="M743.82,-169.84C764.87,-161.23 795.76,-148.61 819.46,-138.93"/>
<polygon fill="#63b8ff" stroke="#63b8ff" points="820.78,-142.17 828.71,-135.15 818.13,-135.69 820.78,-142.17"/>
</a>
</g>
</g>
<!-- Node18 -->
<g id="Node000018" class="node">
<title>Node18</title>
<g id="a_Node000018"><a xlink:href="container_8h.html" target="_top" xlink:title="Common macros and compiler attributes/pragmas configuration.">
<polygon fill="white" stroke="#666666" points="749.23,-134.25 678.48,-134.25 678.48,-113.5 749.23,-113.5 749.23,-134.25"/>
<text text-anchor="middle" x="713.86" y="-120.75" font-family="Helvetica,sans-Serif" font-size="10.00">container.h</text>
</a>
</g>
</g>
<!-- Node13&#45;&gt;Node18 -->
<g id="edge24_Node000013_Node000018" class="edge">
<title>Node13&#45;&gt;Node18</title>
<g id="a_edge24_Node000013_Node000018"><a xlink:title=" ">
<path fill="none" stroke="#63b8ff" d="M718.79,-169.84C718.06,-163.22 717.08,-154.22 716.18,-146.02"/>
<polygon fill="#63b8ff" stroke="#63b8ff" points="719.66,-145.64 715.09,-136.08 712.7,-146.4 719.66,-145.64"/>
</a>
</g>
</g>
<!-- Node15&#45;&gt;Node9 -->
<g id="edge19_Node000015_Node000009" class="edge">
<title>Node15&#45;&gt;Node9</title>
<g id="a_edge19_Node000015_Node000009"><a xlink:title=" ">
<path fill="none" stroke="#63b8ff" d="M765.04,-56.34C741.12,-47.61 705.85,-34.73 679.18,-25"/>
<polygon fill="#63b8ff" stroke="#63b8ff" points="680.71,-21.83 670.12,-21.69 678.31,-28.41 680.71,-21.83"/>
</a>
</g>
</g>
<!-- Node16&#45;&gt;Node9 -->
<g id="edge23_Node000016_Node000009" class="edge">
<title>Node16&#45;&gt;Node9</title>
<g id="a_edge23_Node000016_Node000009"><a xlink:title=" ">
<path fill="none" stroke="#63b8ff" d="M874.74,-113.08C898.96,-100.41 933.47,-77.51 915.86,-56.75 886.07,-21.62 748.17,-13.65 680.09,-11.87"/>
<polygon fill="#63b8ff" stroke="#63b8ff" points="680.21,-8.37 670.13,-11.65 680.05,-15.37 680.21,-8.37"/>
</a>
</g>
</g>
<!-- Node17 -->
<g id="Node000017" class="node">
<title>Node17</title>
<g id="a_Node000017"><a xlink:href="assert_8h.html" target="_top" xlink:title="POSIX.1&#45;2008 compliant version of the assert macro.">
<polygon fill="white" stroke="#666666" points="906.36,-77.5 851.36,-77.5 851.36,-56.75 906.36,-56.75 906.36,-77.5"/>
<text text-anchor="middle" x="878.86" y="-64" font-family="Helvetica,sans-Serif" font-size="10.00">assert.h</text>
</a>
</g>
</g>
<!-- Node16&#45;&gt;Node17 -->
<g id="edge21_Node000016_Node000017" class="edge">
<title>Node16&#45;&gt;Node17</title>
<g id="a_edge21_Node000016_Node000017"><a xlink:title=" ">
<path fill="none" stroke="#63b8ff" d="M858.33,-113.09C861.49,-106.16 865.85,-96.62 869.73,-88.11"/>
<polygon fill="#63b8ff" stroke="#63b8ff" points="872.83,-89.76 873.8,-79.21 866.46,-86.85 872.83,-89.76"/>
</a>
</g>
</g>
<!-- Node17&#45;&gt;Node9 -->
<g id="edge22_Node000017_Node000009" class="edge">
<title>Node17&#45;&gt;Node9</title>
<g id="a_edge22_Node000017_Node000009"><a xlink:title=" ">
<path fill="none" stroke="#63b8ff" d="M851,-58.99C847.92,-58.22 844.82,-57.46 841.86,-56.75 785.46,-43.21 719.84,-28.53 679.58,-19.64"/>
<polygon fill="#63b8ff" stroke="#63b8ff" points="680.43,-16.24 669.91,-17.51 678.93,-23.08 680.43,-16.24"/>
</a>
</g>
</g>
<!-- Node18&#45;&gt;Node9 -->
<g id="edge26_Node000018_Node000009" class="edge">
<title>Node18&#45;&gt;Node9</title>
<g id="a_edge26_Node000018_Node000009"><a xlink:title=" ">
<path fill="none" stroke="#63b8ff" d="M714.62,-113.12C715.22,-99.49 714.57,-74.43 703.86,-56.75 696.43,-44.48 684.31,-34.52 672.74,-27.08"/>
<polygon fill="#63b8ff" stroke="#63b8ff" points="674.54,-24.08 664.16,-21.98 670.96,-30.1 674.54,-24.08"/>
</a>
</g>
</g>
<!-- Node18&#45;&gt;Node12 -->
<g id="edge25_Node000018_Node000012" class="edge">
<title>Node18&#45;&gt;Node12</title>
<g id="a_edge25_Node000018_Node000012"><a xlink:title=" ">
<path fill="none" stroke="#63b8ff" d="M705.46,-113.09C699.11,-105.69 690.21,-95.32 682.55,-86.41"/>
<polygon fill="#63b8ff" stroke="#63b8ff" points="685.34,-84.28 676.17,-78.98 680.03,-88.84 685.34,-84.28"/>
</a>
</g>
</g>
<!-- Node19&#45;&gt;Node20 -->
<g id="edge28_Node000019_Node000020" class="edge">
<title>Node19&#45;&gt;Node20</title>
<g id="a_edge28_Node000019_Node000020"><a xlink:title=" ">
<path fill="none" stroke="#63b8ff" d="M493.04,-340.09C493.16,-333.47 493.32,-324.47 493.47,-316.27"/>
<polygon fill="#63b8ff" stroke="#63b8ff" points="496.97,-316.4 493.65,-306.34 489.97,-316.28 496.97,-316.4"/>
</a>
</g>
</g>
<!-- Node20&#45;&gt;Node2 -->
<g id="edge30_Node000020_Node000002" class="edge">
<title>Node20&#45;&gt;Node2</title>
<g id="a_edge30_Node000020_Node000002"><a xlink:title=" ">
<path fill="none" stroke="#63b8ff" d="M449.14,-285.03C401.78,-276.34 324.89,-261.86 258.86,-247.75 258.05,-247.58 257.23,-247.4 256.4,-247.22"/>
<polygon fill="#63b8ff" stroke="#63b8ff" points="257.51,-243.88 246.98,-245.11 255.97,-250.71 257.51,-243.88"/>
</a>
</g>
</g>
<!-- Node20&#45;&gt;Node3 -->
<g id="edge45_Node000020_Node000003" class="edge">
<title>Node20&#45;&gt;Node3</title>
<g id="a_edge45_Node000020_Node000003"><a xlink:title=" ">
<path fill="none" stroke="#63b8ff" d="M449.09,-286.75C407.45,-279.97 344.16,-267.46 291.86,-247.75 273.85,-240.96 271.5,-234.69 253.86,-227 224.61,-214.25 190.55,-202.9 163.84,-194.73"/>
<polygon fill="#63b8ff" stroke="#63b8ff" points="164.9,-191.4 154.32,-191.87 162.89,-198.1 164.9,-191.4"/>
</a>
</g>
</g>
<!-- Node20&#45;&gt;Node7 -->
<g id="edge46_Node000020_Node000007" class="edge">
<title>Node20&#45;&gt;Node7</title>
<g id="a_edge46_Node000020_Node000007"><a xlink:title=" ">
<path fill="none" stroke="#63b8ff" d="M465.97,-283.34C440.98,-274.57 404.09,-261.62 376.3,-251.87"/>
<polygon fill="#63b8ff" stroke="#63b8ff" points="377.79,-248.68 367.2,-248.67 375.47,-255.29 377.79,-248.68"/>
</a>
</g>
</g>
<!-- Node20&#45;&gt;Node9 -->
<g id="edge29_Node000020_Node000009" class="edge">
<title>Node20&#45;&gt;Node9</title>
<g id="a_edge29_Node000020_Node000009"><a xlink:title=" ">
<path fill="none" stroke="#63b8ff" d="M538.51,-290.02C683.05,-279.37 1128.86,-241.65 1128.86,-181.62 1128.86,-181.62 1128.86,-181.62 1128.86,-122.88 1128.86,-30.83 794.13,-14.77 679.69,-11.97"/>
<polygon fill="#63b8ff" stroke="#63b8ff" points="679.98,-8.47 669.9,-11.75 679.82,-15.47 679.98,-8.47"/>
</a>
</g>
</g>
<!-- Node20&#45;&gt;Node13 -->
<g id="edge31_Node000020_Node000013" class="edge">
<title>Node20&#45;&gt;Node13</title>
<g id="a_edge31_Node000020_Node000013"><a xlink:title=" ">
<path fill="none" stroke="#63b8ff" d="M538.59,-287.49C573.13,-281.6 621.07,-269.99 657.86,-247.75 677.97,-235.59 695.71,-215.13 707,-200.18"/>
<polygon fill="#63b8ff" stroke="#63b8ff" points="709.52,-202.66 712.57,-192.52 703.86,-198.55 709.52,-202.66"/>
</a>
</g>
</g>
<!-- Node21 -->
<g id="Node000021" class="node">
<title>Node21</title>
<g id="a_Node000021"><a xlink:href="nettype_8h.html" target="_top" xlink:title="Protocol type definitions.">
<polygon fill="white" stroke="#666666" points="908.48,-247.75 803.23,-247.75 803.23,-227 908.48,-227 908.48,-247.75"/>
<text text-anchor="middle" x="855.86" y="-234.25" font-family="Helvetica,sans-Serif" font-size="10.00">net/gnrc/nettype.h</text>
</a>
</g>
</g>
<!-- Node20&#45;&gt;Node21 -->
<g id="edge32_Node000020_Node000021" class="edge">
<title>Node20&#45;&gt;Node21</title>
<g id="a_edge32_Node000020_Node000021"><a xlink:title=" ">
<path fill="none" stroke="#63b8ff" d="M538.61,-286.36C602.17,-276.74 718.95,-259.08 791.72,-248.08"/>
<polygon fill="#63b8ff" stroke="#63b8ff" points="792.14,-251.55 801.51,-246.6 791.09,-244.63 792.14,-251.55"/>
</a>
</g>
</g>
<!-- Node25 -->
<g id="Node000025" class="node">
<title>Node25</title>
<g id="a_Node000025"><a xlink:href="drivers_2include_2net_2netdev_8h.html" target="_top" xlink:title="Definitions low&#45;level network driver interface.">
<polygon fill="white" stroke="#666666" points="537.23,-247.75 460.48,-247.75 460.48,-227 537.23,-227 537.23,-247.75"/>
<text text-anchor="middle" x="498.86" y="-234.25" font-family="Helvetica,sans-Serif" font-size="10.00">net/netdev.h</text>
</a>
</g>
</g>
<!-- Node20&#45;&gt;Node25 -->
<g id="edge37_Node000020_Node000025" class="edge">
<title>Node20&#45;&gt;Node25</title>
<g id="a_edge37_Node000020_Node000025"><a xlink:title=" ">
<path fill="none" stroke="#63b8ff" d="M494.75,-283.34C495.36,-276.72 496.18,-267.72 496.93,-259.52"/>
<polygon fill="#63b8ff" stroke="#63b8ff" points="500.41,-259.86 497.84,-249.59 493.44,-259.23 500.41,-259.86"/>
</a>
</g>
</g>
<!-- Node28 -->
<g id="Node000028" class="node">
<title>Node28</title>
<g id="a_Node000028"><a xlink:href="nrf24l01p__ng__types_8h.html" target="_top" xlink:title="Definitions of user visible types for the NRF24L01+ (NG) device driver.">
<polygon fill="white" stroke="#666666" points="621.36,-77.5 500.36,-77.5 500.36,-56.75 621.36,-56.75 621.36,-77.5"/>
<text text-anchor="middle" x="560.86" y="-64" font-family="Helvetica,sans-Serif" font-size="10.00">nrf24l01p_ng_types.h</text>
</a>
</g>
</g>
<!-- Node20&#45;&gt;Node28 -->
<g id="edge47_Node000020_Node000028" class="edge">
<title>Node20&#45;&gt;Node28</title>
<g id="a_edge47_Node000020_Node000028"><a xlink:title=" ">
<path fill="none" stroke="#63b8ff" d="M516.66,-283.31C547.8,-268.48 602.33,-237.12 624.86,-191 643.46,-152.91 606.13,-109.04 581.05,-85.39"/>
<polygon fill="#63b8ff" stroke="#63b8ff" points="583.68,-83.05 573.93,-78.93 578.98,-88.24 583.68,-83.05"/>
</a>
</g>
</g>
<!-- Node21&#45;&gt;Node14 -->
<g id="edge34_Node000021_Node000014" class="edge">
<title>Node21&#45;&gt;Node14</title>
<g id="a_edge34_Node000021_Node000014"><a xlink:title=" ">
<path fill="none" stroke="#63b8ff" d="M842.26,-226.68C825.51,-213.53 800.9,-189.49 814.86,-170.25 820.66,-162.26 870.78,-147.21 909.19,-136.64"/>
<polygon fill="#63b8ff" stroke="#63b8ff" points="909.98,-140.06 918.71,-134.05 908.14,-133.3 909.98,-140.06"/>
</a>
</g>
</g>
<!-- Node22 -->
<g id="Node000022" class="node">
<title>Node22</title>
<g id="a_Node000022"><a xlink:href="inttypes_8h.html" target="_top" xlink:title="Adds include for missing inttype definitions.">
<polygon fill="white" stroke="#666666" points="888.23,-191 823.48,-191 823.48,-170.25 888.23,-170.25 888.23,-191"/>
<text text-anchor="middle" x="855.86" y="-177.5" font-family="Helvetica,sans-Serif" font-size="10.00">inttypes.h</text>
</a>
</g>
</g>
<!-- Node21&#45;&gt;Node22 -->
<g id="edge33_Node000021_Node000022" class="edge">
<title>Node21&#45;&gt;Node22</title>
<g id="a_edge33_Node000021_Node000022"><a xlink:title=" ">
<path fill="none" stroke="#63b8ff" d="M855.86,-226.59C855.86,-219.97 855.86,-210.97 855.86,-202.77"/>
<polygon fill="#63b8ff" stroke="#63b8ff" points="859.36,-202.84 855.86,-192.84 852.36,-202.84 859.36,-202.84"/>
</a>
</g>
</g>
<!-- Node23 -->
<g id="Node000023" class="node">
<title>Node23</title>
<g id="a_Node000023"><a xlink:href="ethertype_8h.html" target="_top" xlink:title="Ether type definitions.">
<polygon fill="white" stroke="#666666" points="997.36,-191 906.36,-191 906.36,-170.25 997.36,-170.25 997.36,-191"/>
<text text-anchor="middle" x="951.86" y="-177.5" font-family="Helvetica,sans-Serif" font-size="10.00">net/ethertype.h</text>
</a>
</g>
</g>
<!-- Node21&#45;&gt;Node23 -->
<g id="edge35_Node000021_Node000023" class="edge">
<title>Node21&#45;&gt;Node23</title>
<g id="a_edge35_Node000021_Node000023"><a xlink:title=" ">
<path fill="none" stroke="#63b8ff" d="M873.02,-226.59C887.49,-218.33 908.45,-206.38 925.12,-196.88"/>
<polygon fill="#63b8ff" stroke="#63b8ff" points="926.58,-200.07 933.53,-192.08 923.11,-193.99 926.58,-200.07"/>
</a>
</g>
</g>
<!-- Node24 -->
<g id="Node000024" class="node">
<title>Node24</title>
<g id="a_Node000024"><a xlink:href="protnum_8h.html" target="_top" xlink:title="Protocol number definitions.">
<polygon fill="white" stroke="#666666" points="1100.36,-191 1015.36,-191 1015.36,-170.25 1100.36,-170.25 1100.36,-191"/>
<text text-anchor="middle" x="1057.86" y="-177.5" font-family="Helvetica,sans-Serif" font-size="10.00">net/protnum.h</text>
</a>
</g>
</g>
<!-- Node21&#45;&gt;Node24 -->
<g id="edge36_Node000021_Node000024" class="edge">
<title>Node21&#45;&gt;Node24</title>
<g id="a_edge36_Node000021_Node000024"><a xlink:title=" ">
<path fill="none" stroke="#63b8ff" d="M891.97,-226.59C925.19,-217.58 974.65,-204.18 1010.92,-194.35"/>
<polygon fill="#63b8ff" stroke="#63b8ff" points="1011.52,-197.81 1020.26,-191.82 1009.69,-191.05 1011.52,-197.81"/>
</a>
</g>
</g>
<!-- Node25&#45;&gt;Node9 -->
<g id="edge38_Node000025_Node000009" class="edge">
<title>Node25&#45;&gt;Node9</title>
<g id="a_edge38_Node000025_Node000009"><a xlink:title=" ">
<path fill="none" stroke="#63b8ff" d="M496.93,-226.57C490.56,-193.09 471.77,-83.81 491.86,-56.75 517.43,-22.3 568.4,-13.08 603.79,-11.07"/>
<polygon fill="#63b8ff" stroke="#63b8ff" points="603.76,-14.57 613.62,-10.7 603.49,-7.58 603.76,-14.57"/>
</a>
</g>
</g>
<!-- Node25&#45;&gt;Node10 -->
<g id="edge39_Node000025_Node000010" class="edge">
<title>Node25&#45;&gt;Node10</title>
<g id="a_edge39_Node000025_Node000010"><a xlink:title=" ">
<path fill="none" stroke="#63b8ff" d="M472.76,-226.59C449.36,-217.81 414.82,-204.86 388.81,-195.11"/>
<polygon fill="#63b8ff" stroke="#63b8ff" points="390.26,-191.91 379.66,-191.68 387.8,-198.46 390.26,-191.91"/>
</a>
</g>
</g>
<!-- Node25&#45;&gt;Node13 -->
<g id="edge44_Node000025_Node000013" class="edge">
<title>Node25&#45;&gt;Node13</title>
<g id="a_edge44_Node000025_Node000013"><a xlink:title=" ">
<path fill="none" stroke="#63b8ff" d="M537.61,-226.78C574.08,-217.74 628.92,-204.15 668.92,-194.25"/>
<polygon fill="#63b8ff" stroke="#63b8ff" points="669.7,-197.66 678.57,-191.85 668.02,-190.86 669.7,-197.66"/>
</a>
</g>
</g>
<!-- Node26 -->
<g id="Node000026" class="node">
<title>Node26</title>
<g id="a_Node000026"><a xlink:href="iolist_8h.html" target="_top" xlink:title="iolist scatter / gather IO">
<polygon fill="white" stroke="#666666" points="615.36,-191 566.36,-191 566.36,-170.25 615.36,-170.25 615.36,-191"/>
<text text-anchor="middle" x="590.86" y="-177.5" font-family="Helvetica,sans-Serif" font-size="10.00">iolist.h</text>
</a>
</g>
</g>
<!-- Node25&#45;&gt;Node26 -->
<g id="edge40_Node000025_Node000026" class="edge">
<title>Node25&#45;&gt;Node26</title>
<g id="a_edge40_Node000025_Node000026"><a xlink:title=" ">
<path fill="none" stroke="#63b8ff" d="M515.31,-226.59C529.04,-218.41 548.88,-206.61 564.78,-197.15"/>
<polygon fill="#63b8ff" stroke="#63b8ff" points="566.45,-200.22 573.25,-192.1 562.87,-194.21 566.45,-200.22"/>
</a>
</g>
</g>
<!-- Node27 -->
<g id="Node000027" class="node">
<title>Node27</title>
<g id="a_Node000027"><a xlink:href="netopt_8h.html" target="_top" xlink:title="Definition of global configuration options.">
<polygon fill="white" stroke="#666666" points="471.48,-191 396.23,-191 396.23,-170.25 471.48,-170.25 471.48,-191"/>
<text text-anchor="middle" x="433.86" y="-177.5" font-family="Helvetica,sans-Serif" font-size="10.00">net/netopt.h</text>
</a>
</g>
</g>
<!-- Node25&#45;&gt;Node27 -->
<g id="edge41_Node000025_Node000027" class="edge">
<title>Node25&#45;&gt;Node27</title>
<g id="a_edge41_Node000025_Node000027"><a xlink:title=" ">
<path fill="none" stroke="#63b8ff" d="M487.24,-226.59C478,-218.8 464.84,-207.72 453.91,-198.51"/>
<polygon fill="#63b8ff" stroke="#63b8ff" points="456.44,-196.07 446.54,-192.3 451.93,-201.42 456.44,-196.07"/>
</a>
</g>
</g>
<!-- Node27&#45;&gt;Node9 -->
<g id="edge42_Node000027_Node000009" class="edge">
<title>Node27&#45;&gt;Node9</title>
<g id="a_edge42_Node000027_Node000009"><a xlink:title=" ">
<path fill="none" stroke="#63b8ff" d="M432.57,-169.77C430.14,-146.67 427.58,-88.55 457.86,-56.75 477.67,-35.95 556.05,-22.41 603.89,-15.91"/>
<polygon fill="#63b8ff" stroke="#63b8ff" points="604.09,-19.41 613.55,-14.64 603.18,-12.47 604.09,-19.41"/>
</a>
</g>
</g>
<!-- Node27&#45;&gt;Node11 -->
<g id="edge43_Node000027_Node000011" class="edge">
<title>Node27&#45;&gt;Node11</title>
<g id="a_edge43_Node000027_Node000011"><a xlink:title=" ">
<path fill="none" stroke="#63b8ff" d="M421.34,-169.84C411.29,-161.97 396.94,-150.75 385.1,-141.49"/>
<polygon fill="#63b8ff" stroke="#63b8ff" points="387.49,-138.91 377.46,-135.51 383.18,-144.43 387.49,-138.91"/>
</a>
</g>
</g>
<!-- Node28&#45;&gt;Node9 -->
<g id="edge48_Node000028_Node000009" class="edge">
<title>Node28&#45;&gt;Node9</title>
<g id="a_edge48_Node000028_Node000009"><a xlink:title=" ">
<path fill="none" stroke="#63b8ff" d="M575.34,-56.34C587.2,-48.32 604.23,-36.81 618.09,-27.44"/>
<polygon fill="#63b8ff" stroke="#63b8ff" points="619.92,-30.43 626.25,-21.93 616,-24.63 619.92,-30.43"/>
</a>
</g>
</g>
</g>
</svg>
