<?xml version="1.0" encoding="UTF-8" standalone="no"?>
<!DOCTYPE svg PUBLIC "-//W3C//DTD SVG 1.1//EN"
 "http://www.w3.org/Graphics/SVG/1.1/DTD/svg11.dtd">
<!-- Generated by graphviz version 12.1.2 (0)
 -->
<!-- Title: drivers/nrf24l01p_ng/include/nrf24l01p_ng_registers.h Pages: 1 -->
<svg width="1126pt" height="452pt"
 viewBox="0.00 0.00 1125.71 451.50" xmlns="http://www.w3.org/2000/svg" xmlns:xlink="http://www.w3.org/1999/xlink">
<g id="graph0" class="graph" transform="scale(1 1) rotate(0) translate(4 447.5)">
<title>drivers/nrf24l01p_ng/include/nrf24l01p_ng_registers.h</title>
<!-- Node1 -->
<g id="Node000001" class="node">
<title>Node1</title>
<g id="a_Node000001"><a xlink:title="Register map of NRF24L01+ (NG) devices.">
<polygon fill="#999999" stroke="#666666" points="793.03,-443.5 672.03,-443.5 672.03,-397.25 793.03,-397.25 793.03,-443.5"/>
<text text-anchor="start" x="680.03" y="-430" font-family="Helvetica,sans-Serif" font-size="10.00">drivers/nrf24l01p_ng</text>
<text text-anchor="start" x="680.03" y="-417.25" font-family="Helvetica,sans-Serif" font-size="10.00">/include/nrf24l01p_ng</text>
<text text-anchor="middle" x="732.53" y="-404.5" font-family="Helvetica,sans-Serif" font-size="10.00">_registers.h</text>
</a>
</g>
</g>
<!-- Node2 -->
<g id="Node000002" class="node">
<title>Node2</title>
<g id="a_Node000002"><a xlink:title=" ">
<polygon fill="#e0e0e0" stroke="#999999" points="525.91,-20.75 473.16,-20.75 473.16,0 525.91,0 525.91,-20.75"/>
<text text-anchor="middle" x="499.53" y="-7.25" font-family="Helvetica,sans-Serif" font-size="10.00">stdint.h</text>
</a>
</g>
</g>
<!-- Node1&#45;&gt;Node2 -->
<g id="edge1_Node000001_Node000002" class="edge">
<title>Node1&#45;&gt;Node2</title>
<g id="a_edge1_Node000001_Node000002"><a xlink:title=" ">
<path fill="none" stroke="#63b8ff" d="M793.38,-412.46C901.66,-398.46 1116.53,-362.22 1116.53,-295.12 1116.53,-295.12 1116.53,-295.12 1116.53,-122.88 1116.53,-92.3 1121.24,-76.06 1097.53,-56.75 1054.17,-21.44 662.5,-13.44 537.61,-11.78"/>
<polygon fill="#63b8ff" stroke="#63b8ff" points="537.93,-8.28 527.89,-11.66 537.85,-15.28 537.93,-8.28"/>
</a>
</g>
</g>
<!-- Node3 -->
<g id="Node000003" class="node">
<title>Node3</title>
<g id="a_Node000003"><a xlink:href="nrf24l01p__ng_8h.html" target="_top" xlink:title="Public interface for NRF24L01+ (NG) devices.">
<polygon fill="white" stroke="#666666" points="663.91,-304.5 575.16,-304.5 575.16,-283.75 663.91,-283.75 663.91,-304.5"/>
<text text-anchor="middle" x="619.53" y="-291" font-family="Helvetica,sans-Serif" font-size="10.00">nrf24l01p_ng.h</text>
</a>
</g>
</g>
<!-- Node1&#45;&gt;Node3 -->
<g id="edge2_Node000001_Node000003" class="edge">
<title>Node1&#45;&gt;Node3</title>
<g id="a_edge2_Node000001_Node000003"><a xlink:title=" ">
<path fill="none" stroke="#63b8ff" d="M681.31,-396.85C665.66,-387.78 649.66,-375.93 638.53,-361.25 628.59,-348.13 623.85,-329.97 621.59,-316"/>
<polygon fill="#63b8ff" stroke="#63b8ff" points="625.06,-315.59 620.32,-306.12 618.12,-316.48 625.06,-315.59"/>
</a>
</g>
</g>
<!-- Node28 -->
<g id="Node000028" class="node">
<title>Node28</title>
<g id="a_Node000028"><a xlink:href="nrf24l01p__ng__communication_8h.html" target="_top" xlink:title="Functions to communicate with the NRF24L01+ (NG) transceiver via SPI.">
<polygon fill="white" stroke="#666666" points="817.41,-361.25 647.66,-361.25 647.66,-340.5 817.41,-340.5 817.41,-361.25"/>
<text text-anchor="middle" x="732.53" y="-347.75" font-family="Helvetica,sans-Serif" font-size="10.00">nrf24l01p_ng_communication.h</text>
</a>
</g>
</g>
<!-- Node1&#45;&gt;Node28 -->
<g id="edge45_Node000001_Node000028" class="edge">
<title>Node1&#45;&gt;Node28</title>
<g id="a_edge45_Node000001_Node000028"><a xlink:title=" ">
<path fill="none" stroke="#63b8ff" d="M732.53,-396.9C732.53,-389.23 732.53,-380.69 732.53,-373.13"/>
<polygon fill="#63b8ff" stroke="#63b8ff" points="736.03,-373.15 732.53,-363.15 729.03,-373.15 736.03,-373.15"/>
</a>
</g>
</g>
<!-- Node3&#45;&gt;Node2 -->
<g id="edge3_Node000003_Node000002" class="edge">
<title>Node3&#45;&gt;Node2</title>
<g id="a_edge3_Node000003_Node000002"><a xlink:title=" ">
<path fill="none" stroke="#63b8ff" d="M646.47,-283.32C662.08,-276.09 680.4,-264.55 689.53,-247.75 697.35,-233.37 681.67,-105.31 633.53,-56.75 608.04,-31.03 567.47,-19.89 537.64,-15.06"/>
<polygon fill="#63b8ff" stroke="#63b8ff" points="538.28,-11.62 527.89,-13.67 537.29,-18.55 538.28,-11.62"/>
</a>
</g>
</g>
<!-- Node4 -->
<g id="Node000004" class="node">
<title>Node4</title>
<g id="a_Node000004"><a xlink:title=" ">
<polygon fill="#e0e0e0" stroke="#999999" points="408.91,-247.75 356.16,-247.75 356.16,-227 408.91,-227 408.91,-247.75"/>
<text text-anchor="middle" x="382.53" y="-234.25" font-family="Helvetica,sans-Serif" font-size="10.00">board.h</text>
</a>
</g>
</g>
<!-- Node3&#45;&gt;Node4 -->
<g id="edge4_Node000003_Node000004" class="edge">
<title>Node3&#45;&gt;Node4</title>
<g id="a_edge4_Node000003_Node000004"><a xlink:title=" ">
<path fill="none" stroke="#63b8ff" d="M576.48,-283.26C536.56,-274.1 475.52,-260.06 422.53,-247.75 421.72,-247.56 420.91,-247.37 420.08,-247.18"/>
<polygon fill="#63b8ff" stroke="#63b8ff" points="421.22,-243.85 410.68,-244.99 419.63,-250.67 421.22,-243.85"/>
</a>
</g>
</g>
<!-- Node5 -->
<g id="Node000005" class="node">
<title>Node5</title>
<g id="a_Node000005"><a xlink:href="kernel__defines_8h.html" target="_top" xlink:title="Common macros and compiler attributes/pragmas configuration.">
<polygon fill="white" stroke="#666666" points="405.66,-191 309.41,-191 309.41,-170.25 405.66,-170.25 405.66,-191"/>
<text text-anchor="middle" x="357.53" y="-177.5" font-family="Helvetica,sans-Serif" font-size="10.00">kernel_defines.h</text>
</a>
</g>
</g>
<!-- Node3&#45;&gt;Node5 -->
<g id="edge5_Node000003_Node000005" class="edge">
<title>Node3&#45;&gt;Node5</title>
<g id="a_edge5_Node000003_Node000005"><a xlink:title=" ">
<path fill="none" stroke="#63b8ff" d="M574.66,-284.82C540.9,-277.6 494.04,-265.49 455.53,-247.75 426.8,-234.51 397.14,-213.24 378.09,-198.41"/>
<polygon fill="#63b8ff" stroke="#63b8ff" points="380.34,-195.74 370.34,-192.26 375.99,-201.22 380.34,-195.74"/>
</a>
</g>
</g>
<!-- Node12 -->
<g id="Node000012" class="node">
<title>Node12</title>
<g id="a_Node000012"><a xlink:href="nettype_8h.html" target="_top" xlink:title="Protocol type definitions.">
<polygon fill="white" stroke="#666666" points="218.16,-247.75 112.91,-247.75 112.91,-227 218.16,-227 218.16,-247.75"/>
<text text-anchor="middle" x="165.53" y="-234.25" font-family="Helvetica,sans-Serif" font-size="10.00">net/gnrc/nettype.h</text>
</a>
</g>
</g>
<!-- Node3&#45;&gt;Node12 -->
<g id="edge16_Node000003_Node000012" class="edge">
<title>Node3&#45;&gt;Node12</title>
<g id="a_edge16_Node000003_Node000012"><a xlink:title=" ">
<path fill="none" stroke="#63b8ff" d="M574.76,-287.73C493.91,-277.98 323.28,-257.4 229.92,-246.14"/>
<polygon fill="#63b8ff" stroke="#63b8ff" points="230.5,-242.68 220.15,-244.96 229.66,-249.63 230.5,-242.68"/>
</a>
</g>
</g>
<!-- Node16 -->
<g id="Node000016" class="node">
<title>Node16</title>
<g id="a_Node000016"><a xlink:href="drivers_2include_2net_2netdev_8h.html" target="_top" xlink:title="Definitions low&#45;level network driver interface.">
<polygon fill="white" stroke="#666666" points="540.91,-247.75 464.16,-247.75 464.16,-227 540.91,-227 540.91,-247.75"/>
<text text-anchor="middle" x="502.53" y="-234.25" font-family="Helvetica,sans-Serif" font-size="10.00">net/netdev.h</text>
</a>
</g>
</g>
<!-- Node3&#45;&gt;Node16 -->
<g id="edge21_Node000003_Node000016" class="edge">
<title>Node3&#45;&gt;Node16</title>
<g id="a_edge21_Node000003_Node000016"><a xlink:title=" ">
<path fill="none" stroke="#63b8ff" d="M598.62,-283.34C580.56,-274.89 554.23,-262.57 533.7,-252.96"/>
<polygon fill="#63b8ff" stroke="#63b8ff" points="535.18,-249.79 524.64,-248.72 532.21,-256.13 535.18,-249.79"/>
</a>
</g>
</g>
<!-- Node21 -->
<g id="Node000021" class="node">
<title>Node21</title>
<g id="a_Node000021"><a xlink:href="drivers_2include_2periph_2gpio_8h.html" target="_top" xlink:title="Low&#45;level GPIO peripheral driver interface definitions.">
<polygon fill="white" stroke="#666666" points="1021.41,-134.25 941.66,-134.25 941.66,-113.5 1021.41,-113.5 1021.41,-134.25"/>
<text text-anchor="middle" x="981.53" y="-120.75" font-family="Helvetica,sans-Serif" font-size="10.00">periph/gpio.h</text>
</a>
</g>
</g>
<!-- Node3&#45;&gt;Node21 -->
<g id="edge29_Node000003_Node000021" class="edge">
<title>Node3&#45;&gt;Node21</title>
<g id="a_edge29_Node000003_Node000021"><a xlink:title=" ">
<path fill="none" stroke="#63b8ff" d="M652.37,-283.31C679.2,-274.93 717.88,-261.99 750.53,-247.75 827.3,-214.28 913.31,-165.28 955.43,-140.49"/>
<polygon fill="#63b8ff" stroke="#63b8ff" points="957.04,-143.61 963.86,-135.5 953.47,-137.58 957.04,-143.61"/>
</a>
</g>
</g>
<!-- Node25 -->
<g id="Node000025" class="node">
<title>Node25</title>
<g id="a_Node000025"><a xlink:href="spi_8h.html" target="_top" xlink:title="Low&#45;level SPI peripheral driver interface definition.">
<polygon fill="white" stroke="#666666" points="836.03,-191 763.03,-191 763.03,-170.25 836.03,-170.25 836.03,-191"/>
<text text-anchor="middle" x="799.53" y="-177.5" font-family="Helvetica,sans-Serif" font-size="10.00">periph/spi.h</text>
</a>
</g>
</g>
<!-- Node3&#45;&gt;Node25 -->
<g id="edge33_Node000003_Node000025" class="edge">
<title>Node3&#45;&gt;Node25</title>
<g id="a_edge33_Node000003_Node000025"><a xlink:title=" ">
<path fill="none" stroke="#63b8ff" d="M647.76,-283.28C669.11,-275.23 698.73,-262.75 722.53,-247.75 744.96,-233.62 767.63,-213.25 782.5,-198.87"/>
<polygon fill="#63b8ff" stroke="#63b8ff" points="784.56,-201.75 789.22,-192.24 779.64,-196.77 784.56,-201.75"/>
</a>
</g>
</g>
<!-- Node27 -->
<g id="Node000027" class="node">
<title>Node27</title>
<g id="a_Node000027"><a xlink:href="nrf24l01p__ng__types_8h.html" target="_top" xlink:title="Definitions of user visible types for the NRF24L01+ (NG) device driver.">
<polygon fill="white" stroke="#666666" points="680.03,-247.75 559.03,-247.75 559.03,-227 680.03,-227 680.03,-247.75"/>
<text text-anchor="middle" x="619.53" y="-234.25" font-family="Helvetica,sans-Serif" font-size="10.00">nrf24l01p_ng_types.h</text>
</a>
</g>
</g>
<!-- Node3&#45;&gt;Node27 -->
<g id="edge43_Node000003_Node000027" class="edge">
<title>Node3&#45;&gt;Node27</title>
<g id="a_edge43_Node000003_Node000027"><a xlink:title=" ">
<path fill="none" stroke="#63b8ff" d="M619.53,-283.34C619.53,-276.72 619.53,-267.72 619.53,-259.52"/>
<polygon fill="#63b8ff" stroke="#63b8ff" points="623.03,-259.59 619.53,-249.59 616.03,-259.59 623.03,-259.59"/>
</a>
</g>
</g>
<!-- Node6 -->
<g id="Node000006" class="node">
<title>Node6</title>
<g id="a_Node000006"><a xlink:href="modules_8h.html" target="_top" xlink:title="Common macros and compiler attributes/pragmas configuration.">
<polygon fill="white" stroke="#666666" points="105.03,-134.25 38.03,-134.25 38.03,-113.5 105.03,-113.5 105.03,-134.25"/>
<text text-anchor="middle" x="71.53" y="-120.75" font-family="Helvetica,sans-Serif" font-size="10.00">modules.h</text>
</a>
</g>
</g>
<!-- Node5&#45;&gt;Node6 -->
<g id="edge6_Node000005_Node000006" class="edge">
<title>Node5&#45;&gt;Node6</title>
<g id="a_edge6_Node000005_Node000006"><a xlink:title=" ">
<path fill="none" stroke="#63b8ff" d="M309.02,-170.34C255.23,-160.04 169.17,-143.57 116.75,-133.53"/>
<polygon fill="#63b8ff" stroke="#63b8ff" points="117.43,-130.1 106.95,-131.66 116.12,-136.97 117.43,-130.1"/>
</a>
</g>
</g>
<!-- Node7 -->
<g id="Node000007" class="node">
<title>Node7</title>
<g id="a_Node000007"><a xlink:href="riot__version_8h.html" target="_top" xlink:title="Common macros and compiler attributes/pragmas configuration.">
<polygon fill="white" stroke="#666666" points="262.91,-77.5 180.16,-77.5 180.16,-56.75 262.91,-56.75 262.91,-77.5"/>
<text text-anchor="middle" x="221.53" y="-64" font-family="Helvetica,sans-Serif" font-size="10.00">riot_version.h</text>
</a>
</g>
</g>
<!-- Node5&#45;&gt;Node7 -->
<g id="edge7_Node000005_Node000007" class="edge">
<title>Node5&#45;&gt;Node7</title>
<g id="a_edge7_Node000005_Node000007"><a xlink:title=" ">
<path fill="none" stroke="#63b8ff" d="M308.92,-171.96C284.6,-165.71 256.58,-154.45 238.53,-134.25 227.54,-121.94 223.48,-103.47 222.05,-89.17"/>
<polygon fill="#63b8ff" stroke="#63b8ff" points="225.56,-89.22 221.47,-79.45 218.58,-89.64 225.56,-89.22"/>
</a>
</g>
</g>
<!-- Node8 -->
<g id="Node000008" class="node">
<title>Node8</title>
<g id="a_Node000008"><a xlink:href="compiler__hints_8h.html" target="_top" xlink:title="Common macros and compiler attributes/pragmas configuration.">
<polygon fill="white" stroke="#666666" points="345.03,-134.25 248.03,-134.25 248.03,-113.5 345.03,-113.5 345.03,-134.25"/>
<text text-anchor="middle" x="296.53" y="-120.75" font-family="Helvetica,sans-Serif" font-size="10.00">compiler_hints.h</text>
</a>
</g>
</g>
<!-- Node5&#45;&gt;Node8 -->
<g id="edge9_Node000005_Node000008" class="edge">
<title>Node5&#45;&gt;Node8</title>
<g id="a_edge9_Node000005_Node000008"><a xlink:title=" ">
<path fill="none" stroke="#63b8ff" d="M346.63,-169.84C338.04,-162.13 325.86,-151.2 315.66,-142.04"/>
<polygon fill="#63b8ff" stroke="#63b8ff" points="318.25,-139.66 308.47,-135.59 313.57,-144.87 318.25,-139.66"/>
</a>
</g>
</g>
<!-- Node10 -->
<g id="Node000010" class="node">
<title>Node10</title>
<g id="a_Node000010"><a xlink:href="container_8h.html" target="_top" xlink:title="Common macros and compiler attributes/pragmas configuration.">
<polygon fill="white" stroke="#666666" points="433.91,-134.25 363.16,-134.25 363.16,-113.5 433.91,-113.5 433.91,-134.25"/>
<text text-anchor="middle" x="398.53" y="-120.75" font-family="Helvetica,sans-Serif" font-size="10.00">container.h</text>
</a>
</g>
</g>
<!-- Node5&#45;&gt;Node10 -->
<g id="edge13_Node000005_Node000010" class="edge">
<title>Node5&#45;&gt;Node10</title>
<g id="a_edge13_Node000005_Node000010"><a xlink:title=" ">
<path fill="none" stroke="#63b8ff" d="M364.86,-169.84C370.28,-162.6 377.84,-152.51 384.42,-143.72"/>
<polygon fill="#63b8ff" stroke="#63b8ff" points="387.17,-145.89 390.36,-135.79 381.56,-141.7 387.17,-145.89"/>
</a>
</g>
</g>
<!-- Node7&#45;&gt;Node2 -->
<g id="edge8_Node000007_Node000002" class="edge">
<title>Node7&#45;&gt;Node2</title>
<g id="a_edge8_Node000007_Node000002"><a xlink:title=" ">
<path fill="none" stroke="#63b8ff" d="M263.15,-57.93C316.95,-47.33 409.84,-29.04 461.71,-18.82"/>
<polygon fill="#63b8ff" stroke="#63b8ff" points="462.12,-22.31 471.26,-16.94 460.77,-15.44 462.12,-22.31"/>
</a>
</g>
</g>
<!-- Node8&#45;&gt;Node2 -->
<g id="edge12_Node000008_Node000002" class="edge">
<title>Node8&#45;&gt;Node2</title>
<g id="a_edge12_Node000008_Node000002"><a xlink:title=" ">
<path fill="none" stroke="#63b8ff" d="M314.19,-113.18C349.59,-93.74 429.43,-49.88 471.84,-26.58"/>
<polygon fill="#63b8ff" stroke="#63b8ff" points="473.36,-29.74 480.44,-21.86 469.99,-23.61 473.36,-29.74"/>
</a>
</g>
</g>
<!-- Node9 -->
<g id="Node000009" class="node">
<title>Node9</title>
<g id="a_Node000009"><a xlink:href="assert_8h.html" target="_top" xlink:title="POSIX.1&#45;2008 compliant version of the assert macro.">
<polygon fill="white" stroke="#666666" points="347.03,-77.5 292.03,-77.5 292.03,-56.75 347.03,-56.75 347.03,-77.5"/>
<text text-anchor="middle" x="319.53" y="-64" font-family="Helvetica,sans-Serif" font-size="10.00">assert.h</text>
</a>
</g>
</g>
<!-- Node8&#45;&gt;Node9 -->
<g id="edge10_Node000008_Node000009" class="edge">
<title>Node8&#45;&gt;Node9</title>
<g id="a_edge10_Node000008_Node000009"><a xlink:title=" ">
<path fill="none" stroke="#63b8ff" d="M300.64,-113.09C303.52,-106.24 307.47,-96.84 311.01,-88.4"/>
<polygon fill="#63b8ff" stroke="#63b8ff" points="314.22,-89.8 314.87,-79.22 307.77,-87.09 314.22,-89.8"/>
</a>
</g>
</g>
<!-- Node9&#45;&gt;Node2 -->
<g id="edge11_Node000009_Node000002" class="edge">
<title>Node9&#45;&gt;Node2</title>
<g id="a_edge11_Node000009_Node000002"><a xlink:title=" ">
<path fill="none" stroke="#63b8ff" d="M347.26,-57.69C378.01,-48.34 427.77,-33.2 461.99,-22.8"/>
<polygon fill="#63b8ff" stroke="#63b8ff" points="462.95,-26.16 471.5,-19.9 460.91,-19.46 462.95,-26.16"/>
</a>
</g>
</g>
<!-- Node10&#45;&gt;Node2 -->
<g id="edge15_Node000010_Node000002" class="edge">
<title>Node10&#45;&gt;Node2</title>
<g id="a_edge15_Node000010_Node000002"><a xlink:title=" ">
<path fill="none" stroke="#63b8ff" d="M404.6,-113.4C413.33,-100.11 430.28,-75.44 447.53,-56.75 456.89,-46.61 468.36,-36.41 478.14,-28.25"/>
<polygon fill="#63b8ff" stroke="#63b8ff" points="480.16,-31.12 485.7,-22.09 475.74,-25.69 480.16,-31.12"/>
</a>
</g>
</g>
<!-- Node11 -->
<g id="Node000011" class="node">
<title>Node11</title>
<g id="a_Node000011"><a xlink:title=" ">
<polygon fill="#e0e0e0" stroke="#999999" points="624.03,-77.5 569.03,-77.5 569.03,-56.75 624.03,-56.75 624.03,-77.5"/>
<text text-anchor="middle" x="596.53" y="-64" font-family="Helvetica,sans-Serif" font-size="10.00">stddef.h</text>
</a>
</g>
</g>
<!-- Node10&#45;&gt;Node11 -->
<g id="edge14_Node000010_Node000011" class="edge">
<title>Node10&#45;&gt;Node11</title>
<g id="a_edge14_Node000010_Node000011"><a xlink:title=" ">
<path fill="none" stroke="#63b8ff" d="M433.93,-113.09C468.76,-103.46 521.8,-88.79 557.75,-78.85"/>
<polygon fill="#63b8ff" stroke="#63b8ff" points="558.62,-82.24 567.32,-76.2 556.75,-75.49 558.62,-82.24"/>
</a>
</g>
</g>
<!-- Node12&#45;&gt;Node6 -->
<g id="edge18_Node000012_Node000006" class="edge">
<title>Node12&#45;&gt;Node6</title>
<g id="a_edge18_Node000012_Node000006"><a xlink:title=" ">
<path fill="none" stroke="#63b8ff" d="M112.76,-228.48C71.05,-221.04 17.72,-208.42 4.53,-191 -10.08,-171.7 14.64,-152.61 38.07,-139.93"/>
<polygon fill="#63b8ff" stroke="#63b8ff" points="39.58,-143.09 46.9,-135.44 36.4,-136.85 39.58,-143.09"/>
</a>
</g>
</g>
<!-- Node13 -->
<g id="Node000013" class="node">
<title>Node13</title>
<g id="a_Node000013"><a xlink:href="inttypes_8h.html" target="_top" xlink:title="Adds include for missing inttype definitions.">
<polygon fill="white" stroke="#666666" points="290.91,-191 226.16,-191 226.16,-170.25 290.91,-170.25 290.91,-191"/>
<text text-anchor="middle" x="258.53" y="-177.5" font-family="Helvetica,sans-Serif" font-size="10.00">inttypes.h</text>
</a>
</g>
</g>
<!-- Node12&#45;&gt;Node13 -->
<g id="edge17_Node000012_Node000013" class="edge">
<title>Node12&#45;&gt;Node13</title>
<g id="a_edge17_Node000012_Node000013"><a xlink:title=" ">
<path fill="none" stroke="#63b8ff" d="M182.16,-226.59C196.05,-218.41 216.09,-206.61 232.17,-197.15"/>
<polygon fill="#63b8ff" stroke="#63b8ff" points="233.9,-200.19 240.75,-192.1 230.35,-194.15 233.9,-200.19"/>
</a>
</g>
</g>
<!-- Node14 -->
<g id="Node000014" class="node">
<title>Node14</title>
<g id="a_Node000014"><a xlink:href="ethertype_8h.html" target="_top" xlink:title="Ether type definitions.">
<polygon fill="white" stroke="#666666" points="105.03,-191 14.03,-191 14.03,-170.25 105.03,-170.25 105.03,-191"/>
<text text-anchor="middle" x="59.53" y="-177.5" font-family="Helvetica,sans-Serif" font-size="10.00">net/ethertype.h</text>
</a>
</g>
</g>
<!-- Node12&#45;&gt;Node14 -->
<g id="edge19_Node000012_Node000014" class="edge">
<title>Node12&#45;&gt;Node14</title>
<g id="a_edge19_Node000012_Node000014"><a xlink:title=" ">
<path fill="none" stroke="#63b8ff" d="M146.58,-226.59C130.45,-218.26 107.03,-206.16 88.54,-196.61"/>
<polygon fill="#63b8ff" stroke="#63b8ff" points="90.16,-193.5 79.66,-192.02 86.94,-199.72 90.16,-193.5"/>
</a>
</g>
</g>
<!-- Node15 -->
<g id="Node000015" class="node">
<title>Node15</title>
<g id="a_Node000015"><a xlink:href="protnum_8h.html" target="_top" xlink:title="Protocol number definitions.">
<polygon fill="white" stroke="#666666" points="208.03,-191 123.03,-191 123.03,-170.25 208.03,-170.25 208.03,-191"/>
<text text-anchor="middle" x="165.53" y="-177.5" font-family="Helvetica,sans-Serif" font-size="10.00">net/protnum.h</text>
</a>
</g>
</g>
<!-- Node12&#45;&gt;Node15 -->
<g id="edge20_Node000012_Node000015" class="edge">
<title>Node12&#45;&gt;Node15</title>
<g id="a_edge20_Node000012_Node000015"><a xlink:title=" ">
<path fill="none" stroke="#63b8ff" d="M165.53,-226.59C165.53,-219.97 165.53,-210.97 165.53,-202.77"/>
<polygon fill="#63b8ff" stroke="#63b8ff" points="169.03,-202.84 165.53,-192.84 162.03,-202.84 169.03,-202.84"/>
</a>
</g>
</g>
<!-- Node16&#45;&gt;Node2 -->
<g id="edge22_Node000016_Node000002" class="edge">
<title>Node16&#45;&gt;Node2</title>
<g id="a_edge22_Node000016_Node000002"><a xlink:title=" ">
<path fill="none" stroke="#63b8ff" d="M486.12,-226.78C474.33,-218.86 459.37,-206.43 452.53,-191 427.92,-135.42 465.07,-64.25 486.35,-30.62"/>
<polygon fill="#63b8ff" stroke="#63b8ff" points="489.22,-32.63 491.77,-22.35 483.36,-28.79 489.22,-32.63"/>
</a>
</g>
</g>
<!-- Node16&#45;&gt;Node5 -->
<g id="edge28_Node000016_Node000005" class="edge">
<title>Node16&#45;&gt;Node5</title>
<g id="a_edge28_Node000016_Node000005"><a xlink:title=" ">
<path fill="none" stroke="#63b8ff" d="M476.61,-226.59C453.52,-217.87 419.49,-205.02 393.72,-195.29"/>
<polygon fill="#63b8ff" stroke="#63b8ff" points="395.24,-192.12 384.65,-191.86 392.77,-198.67 395.24,-192.12"/>
</a>
</g>
</g>
<!-- Node17 -->
<g id="Node000017" class="node">
<title>Node17</title>
<g id="a_Node000017"><a xlink:href="errno_8h.html" target="_top" xlink:title=" ">
<polygon fill="white" stroke="#666666" points="733.78,-134.25 683.28,-134.25 683.28,-113.5 733.78,-113.5 733.78,-134.25"/>
<text text-anchor="middle" x="708.53" y="-120.75" font-family="Helvetica,sans-Serif" font-size="10.00">errno.h</text>
</a>
</g>
</g>
<!-- Node16&#45;&gt;Node17 -->
<g id="edge23_Node000016_Node000017" class="edge">
<title>Node16&#45;&gt;Node17</title>
<g id="a_edge23_Node000016_Node000017"><a xlink:title=" ">
<path fill="none" stroke="#63b8ff" d="M530.86,-226.58C553.53,-218.3 585.84,-205.48 612.53,-191 639.65,-176.29 668.51,-155.65 687.42,-141.36"/>
<polygon fill="#63b8ff" stroke="#63b8ff" points="689.33,-144.31 695.14,-135.45 685.07,-138.75 689.33,-144.31"/>
</a>
</g>
</g>
<!-- Node18 -->
<g id="Node000018" class="node">
<title>Node18</title>
<g id="a_Node000018"><a xlink:href="iolist_8h.html" target="_top" xlink:title="iolist scatter / gather IO">
<polygon fill="white" stroke="#666666" points="604.03,-191 555.03,-191 555.03,-170.25 604.03,-170.25 604.03,-191"/>
<text text-anchor="middle" x="579.53" y="-177.5" font-family="Helvetica,sans-Serif" font-size="10.00">iolist.h</text>
</a>
</g>
</g>
<!-- Node16&#45;&gt;Node18 -->
<g id="edge24_Node000016_Node000018" class="edge">
<title>Node16&#45;&gt;Node18</title>
<g id="a_edge24_Node000016_Node000018"><a xlink:title=" ">
<path fill="none" stroke="#63b8ff" d="M516.3,-226.59C527.47,-218.65 543.45,-207.28 556.55,-197.96"/>
<polygon fill="#63b8ff" stroke="#63b8ff" points="558.53,-200.85 564.65,-192.21 554.47,-195.15 558.53,-200.85"/>
</a>
</g>
</g>
<!-- Node19 -->
<g id="Node000019" class="node">
<title>Node19</title>
<g id="a_Node000019"><a xlink:href="netopt_8h.html" target="_top" xlink:title="Definition of global configuration options.">
<polygon fill="white" stroke="#666666" points="537.16,-191 461.91,-191 461.91,-170.25 537.16,-170.25 537.16,-191"/>
<text text-anchor="middle" x="499.53" y="-177.5" font-family="Helvetica,sans-Serif" font-size="10.00">net/netopt.h</text>
</a>
</g>
</g>
<!-- Node16&#45;&gt;Node19 -->
<g id="edge25_Node000016_Node000019" class="edge">
<title>Node16&#45;&gt;Node19</title>
<g id="a_edge25_Node000016_Node000019"><a xlink:title=" ">
<path fill="none" stroke="#63b8ff" d="M502,-226.59C501.63,-219.97 501.14,-210.97 500.69,-202.77"/>
<polygon fill="#63b8ff" stroke="#63b8ff" points="504.19,-202.63 500.15,-192.84 497.2,-203.02 504.19,-202.63"/>
</a>
</g>
</g>
<!-- Node19&#45;&gt;Node2 -->
<g id="edge26_Node000019_Node000002" class="edge">
<title>Node19&#45;&gt;Node2</title>
<g id="a_edge26_Node000019_Node000002"><a xlink:title=" ">
<path fill="none" stroke="#63b8ff" d="M499.53,-170.1C499.53,-143.73 499.53,-69.33 499.53,-32.53"/>
<polygon fill="#63b8ff" stroke="#63b8ff" points="503.03,-32.73 499.53,-22.73 496.03,-32.73 503.03,-32.73"/>
</a>
</g>
</g>
<!-- Node20 -->
<g id="Node000020" class="node">
<title>Node20</title>
<g id="a_Node000020"><a xlink:title=" ">
<polygon fill="#e0e0e0" stroke="#999999" points="627.03,-134.25 566.03,-134.25 566.03,-113.5 627.03,-113.5 627.03,-134.25"/>
<text text-anchor="middle" x="596.53" y="-120.75" font-family="Helvetica,sans-Serif" font-size="10.00">stdbool.h</text>
</a>
</g>
</g>
<!-- Node19&#45;&gt;Node20 -->
<g id="edge27_Node000019_Node000020" class="edge">
<title>Node19&#45;&gt;Node20</title>
<g id="a_edge27_Node000019_Node000020"><a xlink:title=" ">
<path fill="none" stroke="#63b8ff" d="M516.87,-169.84C531.5,-161.58 552.67,-149.63 569.51,-140.13"/>
<polygon fill="#63b8ff" stroke="#63b8ff" points="571.03,-143.29 578.02,-135.32 567.59,-137.19 571.03,-143.29"/>
</a>
</g>
</g>
<!-- Node22 -->
<g id="Node000022" class="node">
<title>Node22</title>
<g id="a_Node000022"><a xlink:title=" ">
<polygon fill="#e0e0e0" stroke="#999999" points="1088.91,-77.5 1036.16,-77.5 1036.16,-56.75 1088.91,-56.75 1088.91,-77.5"/>
<text text-anchor="middle" x="1062.53" y="-64" font-family="Helvetica,sans-Serif" font-size="10.00">limits.h</text>
</a>
</g>
</g>
<!-- Node21&#45;&gt;Node22 -->
<g id="edge30_Node000021_Node000022" class="edge">
<title>Node21&#45;&gt;Node22</title>
<g id="a_edge30_Node000021_Node000022"><a xlink:title=" ">
<path fill="none" stroke="#63b8ff" d="M996.01,-113.09C1007.88,-105.07 1024.91,-93.56 1038.77,-84.19"/>
<polygon fill="#63b8ff" stroke="#63b8ff" points="1040.6,-87.18 1046.92,-78.68 1036.68,-81.38 1040.6,-87.18"/>
</a>
</g>
</g>
<!-- Node23 -->
<g id="Node000023" class="node">
<title>Node23</title>
<g id="a_Node000023"><a xlink:title=" ">
<polygon fill="#e0e0e0" stroke="#999999" points="918.66,-77.5 840.41,-77.5 840.41,-56.75 918.66,-56.75 918.66,-77.5"/>
<text text-anchor="middle" x="879.53" y="-64" font-family="Helvetica,sans-Serif" font-size="10.00">periph_cpu.h</text>
</a>
</g>
</g>
<!-- Node21&#45;&gt;Node23 -->
<g id="edge31_Node000021_Node000023" class="edge">
<title>Node21&#45;&gt;Node23</title>
<g id="a_edge31_Node000021_Node000023"><a xlink:title=" ">
<path fill="none" stroke="#63b8ff" d="M963.3,-113.09C947.85,-104.8 925.45,-92.77 907.7,-83.24"/>
<polygon fill="#63b8ff" stroke="#63b8ff" points="909.41,-80.19 898.94,-78.54 906.1,-86.36 909.41,-80.19"/>
</a>
</g>
</g>
<!-- Node24 -->
<g id="Node000024" class="node">
<title>Node24</title>
<g id="a_Node000024"><a xlink:title=" ">
<polygon fill="#e0e0e0" stroke="#999999" points="1018.16,-77.5 936.91,-77.5 936.91,-56.75 1018.16,-56.75 1018.16,-77.5"/>
<text text-anchor="middle" x="977.53" y="-64" font-family="Helvetica,sans-Serif" font-size="10.00">periph_conf.h</text>
</a>
</g>
</g>
<!-- Node21&#45;&gt;Node24 -->
<g id="edge32_Node000021_Node000024" class="edge">
<title>Node21&#45;&gt;Node24</title>
<g id="a_edge32_Node000021_Node000024"><a xlink:title=" ">
<path fill="none" stroke="#63b8ff" d="M980.82,-113.09C980.33,-106.47 979.68,-97.47 979.08,-89.27"/>
<polygon fill="#63b8ff" stroke="#63b8ff" points="982.57,-89.06 978.35,-79.34 975.59,-89.57 982.57,-89.06"/>
</a>
</g>
</g>
<!-- Node25&#45;&gt;Node2 -->
<g id="edge39_Node000025_Node000002" class="edge">
<title>Node25&#45;&gt;Node2</title>
<g id="a_edge39_Node000025_Node000002"><a xlink:title=" ">
<path fill="none" stroke="#63b8ff" d="M797.05,-170.04C793.04,-156.16 783.99,-130.29 768.53,-113.5 706.48,-46.13 595.31,-22.87 537.22,-15.1"/>
<polygon fill="#63b8ff" stroke="#63b8ff" points="537.86,-11.66 527.51,-13.89 537,-18.6 537.86,-11.66"/>
</a>
</g>
</g>
<!-- Node25&#45;&gt;Node11 -->
<g id="edge38_Node000025_Node000011" class="edge">
<title>Node25&#45;&gt;Node11</title>
<g id="a_edge38_Node000025_Node000011"><a xlink:title=" ">
<path fill="none" stroke="#63b8ff" d="M793.78,-170.04C784.68,-155.67 765.6,-128.63 742.53,-113.5 709.86,-92.08 666.49,-80.29 635.53,-74.14"/>
<polygon fill="#63b8ff" stroke="#63b8ff" points="636.28,-70.72 625.81,-72.33 634.99,-77.6 636.28,-70.72"/>
</a>
</g>
</g>
<!-- Node25&#45;&gt;Node17 -->
<g id="edge36_Node000025_Node000017" class="edge">
<title>Node25&#45;&gt;Node17</title>
<g id="a_edge36_Node000025_Node000017"><a xlink:title=" ">
<path fill="none" stroke="#63b8ff" d="M783.26,-169.84C769.68,-161.66 750.06,-149.86 734.33,-140.4"/>
<polygon fill="#63b8ff" stroke="#63b8ff" points="736.33,-137.52 725.96,-135.36 732.72,-143.51 736.33,-137.52"/>
</a>
</g>
</g>
<!-- Node25&#45;&gt;Node20 -->
<g id="edge37_Node000025_Node000020" class="edge">
<title>Node25&#45;&gt;Node20</title>
<g id="a_edge37_Node000025_Node000020"><a xlink:title=" ">
<path fill="none" stroke="#63b8ff" d="M763.24,-169.84C728.2,-160.39 675.19,-146.09 638.39,-136.16"/>
<polygon fill="#63b8ff" stroke="#63b8ff" points="639.56,-132.85 628.99,-133.63 637.73,-139.61 639.56,-132.85"/>
</a>
</g>
</g>
<!-- Node25&#45;&gt;Node21 -->
<g id="edge42_Node000025_Node000021" class="edge">
<title>Node25&#45;&gt;Node21</title>
<g id="a_edge42_Node000025_Node000021"><a xlink:title=" ">
<path fill="none" stroke="#63b8ff" d="M832.07,-169.84C861.61,-160.95 905.41,-147.77 937.97,-137.98"/>
<polygon fill="#63b8ff" stroke="#63b8ff" points="938.95,-141.34 947.52,-135.11 936.94,-134.64 938.95,-141.34"/>
</a>
</g>
</g>
<!-- Node25&#45;&gt;Node23 -->
<g id="edge40_Node000025_Node000023" class="edge">
<title>Node25&#45;&gt;Node23</title>
<g id="a_edge40_Node000025_Node000023"><a xlink:title=" ">
<path fill="none" stroke="#63b8ff" d="M806.35,-170.12C819.51,-151.78 848.63,-111.2 865.9,-87.12"/>
<polygon fill="#63b8ff" stroke="#63b8ff" points="868.63,-89.32 871.62,-79.15 862.95,-85.24 868.63,-89.32"/>
</a>
</g>
</g>
<!-- Node25&#45;&gt;Node24 -->
<g id="edge41_Node000025_Node000024" class="edge">
<title>Node25&#45;&gt;Node24</title>
<g id="a_edge41_Node000025_Node000024"><a xlink:title=" ">
<path fill="none" stroke="#63b8ff" d="M815.02,-169.93C845.79,-150.65 914.88,-107.37 952.3,-83.93"/>
<polygon fill="#63b8ff" stroke="#63b8ff" points="954.06,-86.96 960.67,-78.69 950.34,-81.03 954.06,-86.96"/>
</a>
</g>
</g>
<!-- Node26 -->
<g id="Node000026" class="node">
<title>Node26</title>
<g id="a_Node000026"><a xlink:href="endian_8h.html" target="_top" xlink:title="libc header for endian conversion">
<polygon fill="white" stroke="#666666" points="822.53,-77.5 764.53,-77.5 764.53,-56.75 822.53,-56.75 822.53,-77.5"/>
<text text-anchor="middle" x="793.53" y="-64" font-family="Helvetica,sans-Serif" font-size="10.00">endian.h</text>
</a>
</g>
</g>
<!-- Node25&#45;&gt;Node26 -->
<g id="edge34_Node000025_Node000026" class="edge">
<title>Node25&#45;&gt;Node26</title>
<g id="a_edge34_Node000025_Node000026"><a xlink:title=" ">
<path fill="none" stroke="#63b8ff" d="M804.22,-169.77C809.76,-156.85 817.74,-133.48 813.53,-113.5 811.7,-104.78 808.08,-95.7 804.42,-87.97"/>
<polygon fill="#63b8ff" stroke="#63b8ff" points="807.58,-86.48 799.92,-79.16 801.35,-89.66 807.58,-86.48"/>
</a>
</g>
</g>
<!-- Node26&#45;&gt;Node2 -->
<g id="edge35_Node000026_Node000002" class="edge">
<title>Node26&#45;&gt;Node2</title>
<g id="a_edge35_Node000026_Node000002"><a xlink:title=" ">
<path fill="none" stroke="#63b8ff" d="M764.42,-59.63C759.78,-58.64 755.03,-57.65 750.53,-56.75 675.15,-41.72 586.59,-26.21 537.39,-17.78"/>
<polygon fill="#63b8ff" stroke="#63b8ff" points="538.28,-14.38 527.83,-16.15 537.1,-21.28 538.28,-14.38"/>
</a>
</g>
</g>
<!-- Node27&#45;&gt;Node2 -->
<g id="edge44_Node000027_Node000002" class="edge">
<title>Node27&#45;&gt;Node2</title>
<g id="a_edge44_Node000027_Node000002"><a xlink:title=" ">
<path fill="none" stroke="#63b8ff" d="M620.98,-226.57C622.49,-212.88 623.32,-187.74 612.53,-170.25 597.01,-145.06 575.97,-156.55 556.53,-134.25 529.72,-103.49 513.07,-57.98 505.12,-31.84"/>
<polygon fill="#63b8ff" stroke="#63b8ff" points="508.55,-31.11 502.41,-22.47 501.83,-33.05 508.55,-31.11"/>
</a>
</g>
</g>
<!-- Node28&#45;&gt;Node3 -->
<g id="edge46_Node000028_Node000003" class="edge">
<title>Node28&#45;&gt;Node3</title>
<g id="a_edge46_Node000028_Node000003"><a xlink:title=" ">
<path fill="none" stroke="#63b8ff" d="M712.33,-340.09C694.98,-331.68 669.7,-319.43 649.91,-309.84"/>
<polygon fill="#63b8ff" stroke="#63b8ff" points="651.45,-306.7 640.92,-305.49 648.4,-313 651.45,-306.7"/>
</a>
</g>
</g>
</g>
</svg>
