<?xml version="1.0" encoding="UTF-8" standalone="no"?>
<!DOCTYPE svg PUBLIC "-//W3C//DTD SVG 1.1//EN"
 "http://www.w3.org/Graphics/SVG/1.1/DTD/svg11.dtd">
<!-- Generated by graphviz version 12.1.2 (0)
 -->
<!-- Title: drivers/nrf24l01p_ng/include/nrf24l01p_ng_diagnostics.h Pages: 1 -->
<svg width="1228pt" height="395pt"
 viewBox="0.00 0.00 1228.00 394.75" xmlns="http://www.w3.org/2000/svg" xmlns:xlink="http://www.w3.org/1999/xlink">
<g id="graph0" class="graph" transform="scale(1 1) rotate(0) translate(4 390.75)">
<title>drivers/nrf24l01p_ng/include/nrf24l01p_ng_diagnostics.h</title>
<!-- Node1 -->
<g id="Node000001" class="node">
<title>Node1</title>
<g id="a_Node000001"><a xlink:title="Functions to print NRF24L01+ (NG) debug information.">
<polygon fill="#999999" stroke="#666666" points="750,-386.75 629,-386.75 629,-340.5 750,-340.5 750,-386.75"/>
<text text-anchor="start" x="637" y="-373.25" font-family="Helvetica,sans-Serif" font-size="10.00">drivers/nrf24l01p_ng</text>
<text text-anchor="start" x="637" y="-360.5" font-family="Helvetica,sans-Serif" font-size="10.00">/include/nrf24l01p_ng</text>
<text text-anchor="middle" x="689.5" y="-347.75" font-family="Helvetica,sans-Serif" font-size="10.00">_diagnostics.h</text>
</a>
</g>
</g>
<!-- Node2 -->
<g id="Node000002" class="node">
<title>Node2</title>
<g id="a_Node000002"><a xlink:href="nrf24l01p__ng_8h.html" target="_top" xlink:title="Public interface for NRF24L01+ (NG) devices.">
<polygon fill="white" stroke="#666666" points="733.88,-304.5 645.12,-304.5 645.12,-283.75 733.88,-283.75 733.88,-304.5"/>
<text text-anchor="middle" x="689.5" y="-291" font-family="Helvetica,sans-Serif" font-size="10.00">nrf24l01p_ng.h</text>
</a>
</g>
</g>
<!-- Node1&#45;&gt;Node2 -->
<g id="edge1_Node000001_Node000002" class="edge">
<title>Node1&#45;&gt;Node2</title>
<g id="a_edge1_Node000001_Node000002"><a xlink:title=" ">
<path fill="none" stroke="#63b8ff" d="M689.5,-340.15C689.5,-332.48 689.5,-323.94 689.5,-316.38"/>
<polygon fill="#63b8ff" stroke="#63b8ff" points="693,-316.4 689.5,-306.4 686,-316.4 693,-316.4"/>
</a>
</g>
</g>
<!-- Node3 -->
<g id="Node000003" class="node">
<title>Node3</title>
<g id="a_Node000003"><a xlink:title=" ">
<polygon fill="#e0e0e0" stroke="#999999" points="570.88,-20.75 518.12,-20.75 518.12,0 570.88,0 570.88,-20.75"/>
<text text-anchor="middle" x="544.5" y="-7.25" font-family="Helvetica,sans-Serif" font-size="10.00">stdint.h</text>
</a>
</g>
</g>
<!-- Node2&#45;&gt;Node3 -->
<g id="edge2_Node000002_Node000003" class="edge">
<title>Node2&#45;&gt;Node3</title>
<g id="a_edge2_Node000002_Node000003"><a xlink:title=" ">
<path fill="none" stroke="#63b8ff" d="M734.33,-289.52C835.04,-280.2 1070.5,-250.98 1070.5,-181.62 1070.5,-181.62 1070.5,-181.62 1070.5,-122.88 1070.5,-92.3 1075.08,-76.22 1051.5,-56.75 1015.54,-27.06 694.26,-15.48 582.56,-12.33"/>
<polygon fill="#63b8ff" stroke="#63b8ff" points="582.82,-8.84 572.73,-12.06 582.63,-15.84 582.82,-8.84"/>
</a>
</g>
</g>
<!-- Node4 -->
<g id="Node000004" class="node">
<title>Node4</title>
<g id="a_Node000004"><a xlink:title=" ">
<polygon fill="#e0e0e0" stroke="#999999" points="513.88,-247.75 461.12,-247.75 461.12,-227 513.88,-227 513.88,-247.75"/>
<text text-anchor="middle" x="487.5" y="-234.25" font-family="Helvetica,sans-Serif" font-size="10.00">board.h</text>
</a>
</g>
</g>
<!-- Node2&#45;&gt;Node4 -->
<g id="edge3_Node000002_Node000004" class="edge">
<title>Node2&#45;&gt;Node4</title>
<g id="a_edge3_Node000002_Node000004"><a xlink:title=" ">
<path fill="none" stroke="#63b8ff" d="M653.39,-283.34C617.19,-273.53 561.7,-258.49 525.01,-248.54"/>
<polygon fill="#63b8ff" stroke="#63b8ff" points="526.3,-245.27 515.73,-246.03 524.47,-252.02 526.3,-245.27"/>
</a>
</g>
</g>
<!-- Node5 -->
<g id="Node000005" class="node">
<title>Node5</title>
<g id="a_Node000005"><a xlink:href="kernel__defines_8h.html" target="_top" xlink:title="Common macros and compiler attributes/pragmas configuration.">
<polygon fill="white" stroke="#666666" points="429.62,-191 333.38,-191 333.38,-170.25 429.62,-170.25 429.62,-191"/>
<text text-anchor="middle" x="381.5" y="-177.5" font-family="Helvetica,sans-Serif" font-size="10.00">kernel_defines.h</text>
</a>
</g>
</g>
<!-- Node2&#45;&gt;Node5 -->
<g id="edge4_Node000002_Node000005" class="edge">
<title>Node2&#45;&gt;Node5</title>
<g id="a_edge4_Node000002_Node000005"><a xlink:title=" ">
<path fill="none" stroke="#63b8ff" d="M656.86,-283.26C630.44,-274.89 592.49,-262 560.5,-247.75 542.92,-239.92 540.18,-234.59 522.5,-227 492.28,-214.03 457.07,-202.69 429.39,-194.59"/>
<polygon fill="#63b8ff" stroke="#63b8ff" points="430.45,-191.26 419.87,-191.86 428.51,-197.98 430.45,-191.26"/>
</a>
</g>
</g>
<!-- Node12 -->
<g id="Node000012" class="node">
<title>Node12</title>
<g id="a_Node000012"><a xlink:href="nettype_8h.html" target="_top" xlink:title="Protocol type definitions.">
<polygon fill="white" stroke="#666666" points="275.12,-247.75 169.88,-247.75 169.88,-227 275.12,-227 275.12,-247.75"/>
<text text-anchor="middle" x="222.5" y="-234.25" font-family="Helvetica,sans-Serif" font-size="10.00">net/gnrc/nettype.h</text>
</a>
</g>
</g>
<!-- Node2&#45;&gt;Node12 -->
<g id="edge15_Node000002_Node000012" class="edge">
<title>Node2&#45;&gt;Node12</title>
<g id="a_edge15_Node000002_Node000012"><a xlink:title=" ">
<path fill="none" stroke="#63b8ff" d="M644.72,-287.88C561.47,-278.11 382.61,-257.15 286.58,-245.89"/>
<polygon fill="#63b8ff" stroke="#63b8ff" points="287.13,-242.43 276.79,-244.74 286.32,-249.38 287.13,-242.43"/>
</a>
</g>
</g>
<!-- Node16 -->
<g id="Node000016" class="node">
<title>Node16</title>
<g id="a_Node000016"><a xlink:href="drivers_2include_2net_2netdev_8h.html" target="_top" xlink:title="Definitions low&#45;level network driver interface.">
<polygon fill="white" stroke="#666666" points="645.88,-247.75 569.12,-247.75 569.12,-227 645.88,-227 645.88,-247.75"/>
<text text-anchor="middle" x="607.5" y="-234.25" font-family="Helvetica,sans-Serif" font-size="10.00">net/netdev.h</text>
</a>
</g>
</g>
<!-- Node2&#45;&gt;Node16 -->
<g id="edge20_Node000002_Node000016" class="edge">
<title>Node2&#45;&gt;Node16</title>
<g id="a_edge20_Node000002_Node000016"><a xlink:title=" ">
<path fill="none" stroke="#63b8ff" d="M674.84,-283.34C662.83,-275.32 645.59,-263.81 631.56,-254.44"/>
<polygon fill="#63b8ff" stroke="#63b8ff" points="633.55,-251.56 623.29,-248.92 629.66,-257.38 633.55,-251.56"/>
</a>
</g>
</g>
<!-- Node21 -->
<g id="Node000021" class="node">
<title>Node21</title>
<g id="a_Node000021"><a xlink:href="drivers_2include_2periph_2gpio_8h.html" target="_top" xlink:title="Low&#45;level GPIO peripheral driver interface definitions.">
<polygon fill="white" stroke="#666666" points="1009.38,-134.25 929.62,-134.25 929.62,-113.5 1009.38,-113.5 1009.38,-134.25"/>
<text text-anchor="middle" x="969.5" y="-120.75" font-family="Helvetica,sans-Serif" font-size="10.00">periph/gpio.h</text>
</a>
</g>
</g>
<!-- Node2&#45;&gt;Node21 -->
<g id="edge28_Node000002_Node000021" class="edge">
<title>Node2&#45;&gt;Node21</title>
<g id="a_edge28_Node000002_Node000021"><a xlink:title=" ">
<path fill="none" stroke="#63b8ff" d="M705.76,-283.35C752.35,-255.36 886.59,-174.69 943.5,-140.5"/>
<polygon fill="#63b8ff" stroke="#63b8ff" points="945.12,-143.61 951.89,-135.45 941.52,-137.61 945.12,-143.61"/>
</a>
</g>
</g>
<!-- Node25 -->
<g id="Node000025" class="node">
<title>Node25</title>
<g id="a_Node000025"><a xlink:href="spi_8h.html" target="_top" xlink:title="Low&#45;level SPI peripheral driver interface definition.">
<polygon fill="white" stroke="#666666" points="824,-191 751,-191 751,-170.25 824,-170.25 824,-191"/>
<text text-anchor="middle" x="787.5" y="-177.5" font-family="Helvetica,sans-Serif" font-size="10.00">periph/spi.h</text>
</a>
</g>
</g>
<!-- Node2&#45;&gt;Node25 -->
<g id="edge32_Node000002_Node000025" class="edge">
<title>Node2&#45;&gt;Node25</title>
<g id="a_edge32_Node000002_Node000025"><a xlink:title=" ">
<path fill="none" stroke="#63b8ff" d="M697.86,-283.62C714.12,-265.11 750.28,-223.97 771.37,-199.98"/>
<polygon fill="#63b8ff" stroke="#63b8ff" points="773.91,-202.38 777.89,-192.56 768.66,-197.76 773.91,-202.38"/>
</a>
</g>
</g>
<!-- Node27 -->
<g id="Node000027" class="node">
<title>Node27</title>
<g id="a_Node000027"><a xlink:href="nrf24l01p__ng__types_8h.html" target="_top" xlink:title="Definitions of user visible types for the NRF24L01+ (NG) device driver.">
<polygon fill="white" stroke="#666666" points="1220,-247.75 1099,-247.75 1099,-227 1220,-227 1220,-247.75"/>
<text text-anchor="middle" x="1159.5" y="-234.25" font-family="Helvetica,sans-Serif" font-size="10.00">nrf24l01p_ng_types.h</text>
</a>
</g>
</g>
<!-- Node2&#45;&gt;Node27 -->
<g id="edge42_Node000002_Node000027" class="edge">
<title>Node2&#45;&gt;Node27</title>
<g id="a_edge42_Node000002_Node000027"><a xlink:title=" ">
<path fill="none" stroke="#63b8ff" d="M734.24,-288.13C807.48,-279.93 957.54,-262.98 1084.5,-247.75 1085.5,-247.63 1086.5,-247.51 1087.51,-247.39"/>
<polygon fill="#63b8ff" stroke="#63b8ff" points="1087.51,-250.91 1097.02,-246.23 1086.67,-243.96 1087.51,-250.91"/>
</a>
</g>
</g>
<!-- Node6 -->
<g id="Node000006" class="node">
<title>Node6</title>
<g id="a_Node000006"><a xlink:href="modules_8h.html" target="_top" xlink:title="Common macros and compiler attributes/pragmas configuration.">
<polygon fill="white" stroke="#666666" points="255,-134.25 188,-134.25 188,-113.5 255,-113.5 255,-134.25"/>
<text text-anchor="middle" x="221.5" y="-120.75" font-family="Helvetica,sans-Serif" font-size="10.00">modules.h</text>
</a>
</g>
</g>
<!-- Node5&#45;&gt;Node6 -->
<g id="edge5_Node000005_Node000006" class="edge">
<title>Node5&#45;&gt;Node6</title>
<g id="a_edge5_Node000005_Node000006"><a xlink:title=" ">
<path fill="none" stroke="#63b8ff" d="M352.9,-169.84C327.26,-161.07 289.43,-148.12 260.93,-138.37"/>
<polygon fill="#63b8ff" stroke="#63b8ff" points="262.15,-135.09 251.56,-135.16 259.89,-141.71 262.15,-135.09"/>
</a>
</g>
</g>
<!-- Node7 -->
<g id="Node000007" class="node">
<title>Node7</title>
<g id="a_Node000007"><a xlink:href="riot__version_8h.html" target="_top" xlink:title="Common macros and compiler attributes/pragmas configuration.">
<polygon fill="white" stroke="#666666" points="273.88,-77.5 191.12,-77.5 191.12,-56.75 273.88,-56.75 273.88,-77.5"/>
<text text-anchor="middle" x="232.5" y="-64" font-family="Helvetica,sans-Serif" font-size="10.00">riot_version.h</text>
</a>
</g>
</g>
<!-- Node5&#45;&gt;Node7 -->
<g id="edge6_Node000005_Node000007" class="edge">
<title>Node5&#45;&gt;Node7</title>
<g id="a_edge6_Node000005_Node000007"><a xlink:title=" ">
<path fill="none" stroke="#63b8ff" d="M361.55,-169.84C345.07,-161.37 321.41,-148.31 302.5,-134.25 282.91,-119.69 262.89,-100.23 249.31,-86.19"/>
<polygon fill="#63b8ff" stroke="#63b8ff" points="251.85,-83.79 242.43,-78.95 246.78,-88.61 251.85,-83.79"/>
</a>
</g>
</g>
<!-- Node8 -->
<g id="Node000008" class="node">
<title>Node8</title>
<g id="a_Node000008"><a xlink:href="compiler__hints_8h.html" target="_top" xlink:title="Common macros and compiler attributes/pragmas configuration.">
<polygon fill="white" stroke="#666666" points="409,-134.25 312,-134.25 312,-113.5 409,-113.5 409,-134.25"/>
<text text-anchor="middle" x="360.5" y="-120.75" font-family="Helvetica,sans-Serif" font-size="10.00">compiler_hints.h</text>
</a>
</g>
</g>
<!-- Node5&#45;&gt;Node8 -->
<g id="edge8_Node000005_Node000008" class="edge">
<title>Node5&#45;&gt;Node8</title>
<g id="a_edge8_Node000005_Node000008"><a xlink:title=" ">
<path fill="none" stroke="#63b8ff" d="M377.75,-169.84C375.12,-162.99 371.51,-153.59 368.28,-145.15"/>
<polygon fill="#63b8ff" stroke="#63b8ff" points="371.61,-144.07 364.76,-135.99 365.08,-146.58 371.61,-144.07"/>
</a>
</g>
</g>
<!-- Node10 -->
<g id="Node000010" class="node">
<title>Node10</title>
<g id="a_Node000010"><a xlink:href="container_8h.html" target="_top" xlink:title="Common macros and compiler attributes/pragmas configuration.">
<polygon fill="white" stroke="#666666" points="497.88,-134.25 427.12,-134.25 427.12,-113.5 497.88,-113.5 497.88,-134.25"/>
<text text-anchor="middle" x="462.5" y="-120.75" font-family="Helvetica,sans-Serif" font-size="10.00">container.h</text>
</a>
</g>
</g>
<!-- Node5&#45;&gt;Node10 -->
<g id="edge12_Node000005_Node000010" class="edge">
<title>Node5&#45;&gt;Node10</title>
<g id="a_edge12_Node000005_Node000010"><a xlink:title=" ">
<path fill="none" stroke="#63b8ff" d="M395.98,-169.84C407.85,-161.82 424.87,-150.31 438.73,-140.94"/>
<polygon fill="#63b8ff" stroke="#63b8ff" points="440.57,-143.93 446.89,-135.43 436.65,-138.13 440.57,-143.93"/>
</a>
</g>
</g>
<!-- Node7&#45;&gt;Node3 -->
<g id="edge7_Node000007_Node000003" class="edge">
<title>Node7&#45;&gt;Node3</title>
<g id="a_edge7_Node000007_Node000003"><a xlink:title=" ">
<path fill="none" stroke="#63b8ff" d="M274.23,-58.26C277.03,-57.74 279.81,-57.24 282.5,-56.75 362.16,-42.38 455.61,-26.41 506.59,-17.77"/>
<polygon fill="#63b8ff" stroke="#63b8ff" points="506.93,-21.26 516.21,-16.14 505.76,-14.36 506.93,-21.26"/>
</a>
</g>
</g>
<!-- Node8&#45;&gt;Node3 -->
<g id="edge11_Node000008_Node000003" class="edge">
<title>Node8&#45;&gt;Node3</title>
<g id="a_edge11_Node000008_Node000003"><a xlink:title=" ">
<path fill="none" stroke="#63b8ff" d="M367.72,-113.03C378.59,-98.82 400.47,-72.55 424.5,-56.75 449.84,-40.09 482.17,-28.32 506.88,-20.94"/>
<polygon fill="#63b8ff" stroke="#63b8ff" points="507.54,-24.4 516.2,-18.28 505.62,-17.67 507.54,-24.4"/>
</a>
</g>
</g>
<!-- Node9 -->
<g id="Node000009" class="node">
<title>Node9</title>
<g id="a_Node000009"><a xlink:href="assert_8h.html" target="_top" xlink:title="POSIX.1&#45;2008 compliant version of the assert macro.">
<polygon fill="white" stroke="#666666" points="347,-77.5 292,-77.5 292,-56.75 347,-56.75 347,-77.5"/>
<text text-anchor="middle" x="319.5" y="-64" font-family="Helvetica,sans-Serif" font-size="10.00">assert.h</text>
</a>
</g>
</g>
<!-- Node8&#45;&gt;Node9 -->
<g id="edge9_Node000008_Node000009" class="edge">
<title>Node8&#45;&gt;Node9</title>
<g id="a_edge9_Node000008_Node000009"><a xlink:title=" ">
<path fill="none" stroke="#63b8ff" d="M353.17,-113.09C347.75,-105.85 340.19,-95.76 333.61,-86.97"/>
<polygon fill="#63b8ff" stroke="#63b8ff" points="336.47,-84.95 327.67,-79.04 330.87,-89.14 336.47,-84.95"/>
</a>
</g>
</g>
<!-- Node9&#45;&gt;Node3 -->
<g id="edge10_Node000009_Node000003" class="edge">
<title>Node9&#45;&gt;Node3</title>
<g id="a_edge10_Node000009_Node000003"><a xlink:title=" ">
<path fill="none" stroke="#63b8ff" d="M347.09,-59.41C387.14,-49.67 461.51,-31.57 506.65,-20.58"/>
<polygon fill="#63b8ff" stroke="#63b8ff" points="507.38,-24.01 516.27,-18.25 505.72,-17.21 507.38,-24.01"/>
</a>
</g>
</g>
<!-- Node10&#45;&gt;Node3 -->
<g id="edge14_Node000010_Node000003" class="edge">
<title>Node10&#45;&gt;Node3</title>
<g id="a_edge14_Node000010_Node000003"><a xlink:title=" ">
<path fill="none" stroke="#63b8ff" d="M452.35,-113.38C439.36,-100.06 419.96,-75.36 432.5,-56.75 448.97,-32.31 481.09,-21.03 506.73,-15.82"/>
<polygon fill="#63b8ff" stroke="#63b8ff" points="507.24,-19.29 516.48,-14.1 506.02,-12.39 507.24,-19.29"/>
</a>
</g>
</g>
<!-- Node11 -->
<g id="Node000011" class="node">
<title>Node11</title>
<g id="a_Node000011"><a xlink:title=" ">
<polygon fill="#e0e0e0" stroke="#999999" points="497,-77.5 442,-77.5 442,-56.75 497,-56.75 497,-77.5"/>
<text text-anchor="middle" x="469.5" y="-64" font-family="Helvetica,sans-Serif" font-size="10.00">stddef.h</text>
</a>
</g>
</g>
<!-- Node10&#45;&gt;Node11 -->
<g id="edge13_Node000010_Node000011" class="edge">
<title>Node10&#45;&gt;Node11</title>
<g id="a_edge13_Node000010_Node000011"><a xlink:title=" ">
<path fill="none" stroke="#63b8ff" d="M463.75,-113.09C464.61,-106.39 465.77,-97.26 466.83,-88.98"/>
<polygon fill="#63b8ff" stroke="#63b8ff" points="470.27,-89.69 468.07,-79.33 463.33,-88.81 470.27,-89.69"/>
</a>
</g>
</g>
<!-- Node12&#45;&gt;Node6 -->
<g id="edge17_Node000012_Node000006" class="edge">
<title>Node12&#45;&gt;Node6</title>
<g id="a_edge17_Node000012_Node000006"><a xlink:title=" ">
<path fill="none" stroke="#63b8ff" d="M222.41,-226.87C222.26,-209.1 221.91,-170.47 221.69,-146.18"/>
<polygon fill="#63b8ff" stroke="#63b8ff" points="225.19,-146.16 221.6,-136.19 218.19,-146.22 225.19,-146.16"/>
</a>
</g>
</g>
<!-- Node13 -->
<g id="Node000013" class="node">
<title>Node13</title>
<g id="a_Node000013"><a xlink:href="inttypes_8h.html" target="_top" xlink:title="Adds include for missing inttype definitions.">
<polygon fill="white" stroke="#666666" points="314.88,-191 250.12,-191 250.12,-170.25 314.88,-170.25 314.88,-191"/>
<text text-anchor="middle" x="282.5" y="-177.5" font-family="Helvetica,sans-Serif" font-size="10.00">inttypes.h</text>
</a>
</g>
</g>
<!-- Node12&#45;&gt;Node13 -->
<g id="edge16_Node000012_Node000013" class="edge">
<title>Node12&#45;&gt;Node13</title>
<g id="a_edge16_Node000012_Node000013"><a xlink:title=" ">
<path fill="none" stroke="#63b8ff" d="M233.23,-226.59C241.59,-218.96 253.41,-208.17 263.38,-199.07"/>
<polygon fill="#63b8ff" stroke="#63b8ff" points="265.72,-201.67 270.75,-192.35 261,-196.5 265.72,-201.67"/>
</a>
</g>
</g>
<!-- Node14 -->
<g id="Node000014" class="node">
<title>Node14</title>
<g id="a_Node000014"><a xlink:href="ethertype_8h.html" target="_top" xlink:title="Ether type definitions.">
<polygon fill="white" stroke="#666666" points="91,-191 0,-191 0,-170.25 91,-170.25 91,-191"/>
<text text-anchor="middle" x="45.5" y="-177.5" font-family="Helvetica,sans-Serif" font-size="10.00">net/ethertype.h</text>
</a>
</g>
</g>
<!-- Node12&#45;&gt;Node14 -->
<g id="edge18_Node000012_Node000014" class="edge">
<title>Node12&#45;&gt;Node14</title>
<g id="a_edge18_Node000012_Node000014"><a xlink:title=" ">
<path fill="none" stroke="#63b8ff" d="M190.86,-226.59C162.13,-217.7 119.53,-204.52 87.87,-194.73"/>
<polygon fill="#63b8ff" stroke="#63b8ff" points="89.2,-191.48 78.61,-191.87 87.13,-198.17 89.2,-191.48"/>
</a>
</g>
</g>
<!-- Node15 -->
<g id="Node000015" class="node">
<title>Node15</title>
<g id="a_Node000015"><a xlink:href="protnum_8h.html" target="_top" xlink:title="Protocol number definitions.">
<polygon fill="white" stroke="#666666" points="194,-191 109,-191 109,-170.25 194,-170.25 194,-191"/>
<text text-anchor="middle" x="151.5" y="-177.5" font-family="Helvetica,sans-Serif" font-size="10.00">net/protnum.h</text>
</a>
</g>
</g>
<!-- Node12&#45;&gt;Node15 -->
<g id="edge19_Node000012_Node000015" class="edge">
<title>Node12&#45;&gt;Node15</title>
<g id="a_edge19_Node000012_Node000015"><a xlink:title=" ">
<path fill="none" stroke="#63b8ff" d="M209.81,-226.59C199.61,-218.72 185.06,-207.5 173.04,-198.24"/>
<polygon fill="#63b8ff" stroke="#63b8ff" points="175.34,-195.59 165.28,-192.25 171.06,-201.13 175.34,-195.59"/>
</a>
</g>
</g>
<!-- Node16&#45;&gt;Node3 -->
<g id="edge21_Node000016_Node000003" class="edge">
<title>Node16&#45;&gt;Node3</title>
<g id="a_edge21_Node000016_Node000003"><a xlink:title=" ">
<path fill="none" stroke="#63b8ff" d="M592.88,-226.72C581.92,-218.6 567.64,-205.94 560.5,-191 535.25,-138.17 538.35,-66.66 541.86,-31.96"/>
<polygon fill="#63b8ff" stroke="#63b8ff" points="545.29,-32.78 542.95,-22.45 538.33,-31.99 545.29,-32.78"/>
</a>
</g>
</g>
<!-- Node16&#45;&gt;Node5 -->
<g id="edge27_Node000016_Node000005" class="edge">
<title>Node16&#45;&gt;Node5</title>
<g id="a_edge27_Node000016_Node000005"><a xlink:title=" ">
<path fill="none" stroke="#63b8ff" d="M568.65,-226.96C531.27,-217.91 474.52,-204.16 433.31,-194.18"/>
<polygon fill="#63b8ff" stroke="#63b8ff" points="434.14,-190.78 423.6,-191.82 432.49,-197.58 434.14,-190.78"/>
</a>
</g>
</g>
<!-- Node17 -->
<g id="Node000017" class="node">
<title>Node17</title>
<g id="a_Node000017"><a xlink:href="errno_8h.html" target="_top" xlink:title=" ">
<polygon fill="white" stroke="#666666" points="721.75,-134.25 671.25,-134.25 671.25,-113.5 721.75,-113.5 721.75,-134.25"/>
<text text-anchor="middle" x="696.5" y="-120.75" font-family="Helvetica,sans-Serif" font-size="10.00">errno.h</text>
</a>
</g>
</g>
<!-- Node16&#45;&gt;Node17 -->
<g id="edge22_Node000016_Node000017" class="edge">
<title>Node16&#45;&gt;Node17</title>
<g id="a_edge22_Node000016_Node000017"><a xlink:title=" ">
<path fill="none" stroke="#63b8ff" d="M619.07,-226.61C629.07,-217.85 643.6,-204.36 654.5,-191 666.58,-176.2 678.04,-157.74 685.94,-144.08"/>
<polygon fill="#63b8ff" stroke="#63b8ff" points="688.83,-146.07 690.7,-135.64 682.73,-142.63 688.83,-146.07"/>
</a>
</g>
</g>
<!-- Node18 -->
<g id="Node000018" class="node">
<title>Node18</title>
<g id="a_Node000018"><a xlink:href="iolist_8h.html" target="_top" xlink:title="iolist scatter / gather IO">
<polygon fill="white" stroke="#666666" points="497,-191 448,-191 448,-170.25 497,-170.25 497,-191"/>
<text text-anchor="middle" x="472.5" y="-177.5" font-family="Helvetica,sans-Serif" font-size="10.00">iolist.h</text>
</a>
</g>
</g>
<!-- Node16&#45;&gt;Node18 -->
<g id="edge23_Node000016_Node000018" class="edge">
<title>Node16&#45;&gt;Node18</title>
<g id="a_edge23_Node000016_Node000018"><a xlink:title=" ">
<path fill="none" stroke="#63b8ff" d="M583.36,-226.59C562.06,-217.94 530.75,-205.25 506.83,-195.55"/>
<polygon fill="#63b8ff" stroke="#63b8ff" points="508.41,-192.41 497.83,-191.9 505.78,-198.9 508.41,-192.41"/>
</a>
</g>
</g>
<!-- Node19 -->
<g id="Node000019" class="node">
<title>Node19</title>
<g id="a_Node000019"><a xlink:href="netopt_8h.html" target="_top" xlink:title="Definition of global configuration options.">
<polygon fill="white" stroke="#666666" points="645.12,-191 569.88,-191 569.88,-170.25 645.12,-170.25 645.12,-191"/>
<text text-anchor="middle" x="607.5" y="-177.5" font-family="Helvetica,sans-Serif" font-size="10.00">net/netopt.h</text>
</a>
</g>
</g>
<!-- Node16&#45;&gt;Node19 -->
<g id="edge24_Node000016_Node000019" class="edge">
<title>Node16&#45;&gt;Node19</title>
<g id="a_edge24_Node000016_Node000019"><a xlink:title=" ">
<path fill="none" stroke="#63b8ff" d="M607.5,-226.59C607.5,-219.97 607.5,-210.97 607.5,-202.77"/>
<polygon fill="#63b8ff" stroke="#63b8ff" points="611,-202.84 607.5,-192.84 604,-202.84 611,-202.84"/>
</a>
</g>
</g>
<!-- Node19&#45;&gt;Node3 -->
<g id="edge25_Node000019_Node000003" class="edge">
<title>Node19&#45;&gt;Node3</title>
<g id="a_edge25_Node000019_Node000003"><a xlink:title=" ">
<path fill="none" stroke="#63b8ff" d="M601.34,-169.83C595.86,-160.83 587.92,-147 582.5,-134.25 567.71,-99.44 555.86,-56.9 549.53,-32.1"/>
<polygon fill="#63b8ff" stroke="#63b8ff" points="552.98,-31.5 547.17,-22.64 546.19,-33.19 552.98,-31.5"/>
</a>
</g>
</g>
<!-- Node20 -->
<g id="Node000020" class="node">
<title>Node20</title>
<g id="a_Node000020"><a xlink:title=" ">
<polygon fill="#e0e0e0" stroke="#999999" points="653,-134.25 592,-134.25 592,-113.5 653,-113.5 653,-134.25"/>
<text text-anchor="middle" x="622.5" y="-120.75" font-family="Helvetica,sans-Serif" font-size="10.00">stdbool.h</text>
</a>
</g>
</g>
<!-- Node19&#45;&gt;Node20 -->
<g id="edge26_Node000019_Node000020" class="edge">
<title>Node19&#45;&gt;Node20</title>
<g id="a_edge26_Node000019_Node000020"><a xlink:title=" ">
<path fill="none" stroke="#63b8ff" d="M610.18,-169.84C612.04,-163.06 614.58,-153.8 616.87,-145.44"/>
<polygon fill="#63b8ff" stroke="#63b8ff" points="620.17,-146.61 619.44,-136.04 613.42,-144.76 620.17,-146.61"/>
</a>
</g>
</g>
<!-- Node22 -->
<g id="Node000022" class="node">
<title>Node22</title>
<g id="a_Node000022"><a xlink:title=" ">
<polygon fill="#e0e0e0" stroke="#999999" points="1042.88,-77.5 990.12,-77.5 990.12,-56.75 1042.88,-56.75 1042.88,-77.5"/>
<text text-anchor="middle" x="1016.5" y="-64" font-family="Helvetica,sans-Serif" font-size="10.00">limits.h</text>
</a>
</g>
</g>
<!-- Node21&#45;&gt;Node22 -->
<g id="edge29_Node000021_Node000022" class="edge">
<title>Node21&#45;&gt;Node22</title>
<g id="a_edge29_Node000021_Node000022"><a xlink:title=" ">
<path fill="none" stroke="#63b8ff" d="M977.9,-113.09C984.25,-105.69 993.15,-95.32 1000.8,-86.41"/>
<polygon fill="#63b8ff" stroke="#63b8ff" points="1003.33,-88.84 1007.18,-78.98 998.01,-84.28 1003.33,-88.84"/>
</a>
</g>
</g>
<!-- Node23 -->
<g id="Node000023" class="node">
<title>Node23</title>
<g id="a_Node000023"><a xlink:title=" ">
<polygon fill="#e0e0e0" stroke="#999999" points="872.62,-77.5 794.38,-77.5 794.38,-56.75 872.62,-56.75 872.62,-77.5"/>
<text text-anchor="middle" x="833.5" y="-64" font-family="Helvetica,sans-Serif" font-size="10.00">periph_cpu.h</text>
</a>
</g>
</g>
<!-- Node21&#45;&gt;Node23 -->
<g id="edge30_Node000021_Node000023" class="edge">
<title>Node21&#45;&gt;Node23</title>
<g id="a_edge30_Node000021_Node000023"><a xlink:title=" ">
<path fill="none" stroke="#63b8ff" d="M945.19,-113.09C923.72,-104.44 892.18,-91.75 868.09,-82.05"/>
<polygon fill="#63b8ff" stroke="#63b8ff" points="869.59,-78.88 859.01,-78.39 866.98,-85.38 869.59,-78.88"/>
</a>
</g>
</g>
<!-- Node24 -->
<g id="Node000024" class="node">
<title>Node24</title>
<g id="a_Node000024"><a xlink:title=" ">
<polygon fill="#e0e0e0" stroke="#999999" points="972.12,-77.5 890.88,-77.5 890.88,-56.75 972.12,-56.75 972.12,-77.5"/>
<text text-anchor="middle" x="931.5" y="-64" font-family="Helvetica,sans-Serif" font-size="10.00">periph_conf.h</text>
</a>
</g>
</g>
<!-- Node21&#45;&gt;Node24 -->
<g id="edge31_Node000021_Node000024" class="edge">
<title>Node21&#45;&gt;Node24</title>
<g id="a_edge31_Node000021_Node000024"><a xlink:title=" ">
<path fill="none" stroke="#63b8ff" d="M962.71,-113.09C957.73,-105.92 950.83,-95.98 944.78,-87.26"/>
<polygon fill="#63b8ff" stroke="#63b8ff" points="947.68,-85.29 939.1,-79.07 941.92,-89.28 947.68,-85.29"/>
</a>
</g>
</g>
<!-- Node25&#45;&gt;Node3 -->
<g id="edge38_Node000025_Node000003" class="edge">
<title>Node25&#45;&gt;Node3</title>
<g id="a_edge38_Node000025_Node000003"><a xlink:title=" ">
<path fill="none" stroke="#63b8ff" d="M785.17,-169.89C781.36,-155.82 772.55,-129.72 756.5,-113.5 730.34,-87.07 634.18,-46.58 580.8,-25.4"/>
<polygon fill="#63b8ff" stroke="#63b8ff" points="582.1,-22.15 571.51,-21.74 579.53,-28.66 582.1,-22.15"/>
</a>
</g>
</g>
<!-- Node25&#45;&gt;Node11 -->
<g id="edge37_Node000025_Node000011" class="edge">
<title>Node25&#45;&gt;Node11</title>
<g id="a_edge37_Node000025_Node000011"><a xlink:title=" ">
<path fill="none" stroke="#63b8ff" d="M782.27,-170.14C773.59,-155.4 754.76,-127.25 730.5,-113.5 693.19,-92.35 571.74,-77.94 508.53,-71.67"/>
<polygon fill="#63b8ff" stroke="#63b8ff" points="508.87,-68.18 498.58,-70.7 508.2,-75.15 508.87,-68.18"/>
</a>
</g>
</g>
<!-- Node25&#45;&gt;Node17 -->
<g id="edge35_Node000025_Node000017" class="edge">
<title>Node25&#45;&gt;Node17</title>
<g id="a_edge35_Node000025_Node000017"><a xlink:title=" ">
<path fill="none" stroke="#63b8ff" d="M771.23,-169.84C757.64,-161.66 738.03,-149.86 722.3,-140.4"/>
<polygon fill="#63b8ff" stroke="#63b8ff" points="724.3,-137.52 713.93,-135.36 720.69,-143.51 724.3,-137.52"/>
</a>
</g>
</g>
<!-- Node25&#45;&gt;Node20 -->
<g id="edge36_Node000025_Node000020" class="edge">
<title>Node25&#45;&gt;Node20</title>
<g id="a_edge36_Node000025_Node000020"><a xlink:title=" ">
<path fill="none" stroke="#63b8ff" d="M758,-169.84C731.45,-161.03 692.2,-148 662.77,-138.24"/>
<polygon fill="#63b8ff" stroke="#63b8ff" points="664.05,-134.97 653.46,-135.15 661.85,-141.62 664.05,-134.97"/>
</a>
</g>
</g>
<!-- Node25&#45;&gt;Node21 -->
<g id="edge41_Node000025_Node000021" class="edge">
<title>Node25&#45;&gt;Node21</title>
<g id="a_edge41_Node000025_Node000021"><a xlink:title=" ">
<path fill="none" stroke="#63b8ff" d="M820.04,-169.84C849.58,-160.95 893.38,-147.77 925.93,-137.98"/>
<polygon fill="#63b8ff" stroke="#63b8ff" points="926.92,-141.34 935.49,-135.11 924.9,-134.64 926.92,-141.34"/>
</a>
</g>
</g>
<!-- Node25&#45;&gt;Node23 -->
<g id="edge39_Node000025_Node000023" class="edge">
<title>Node25&#45;&gt;Node23</title>
<g id="a_edge39_Node000025_Node000023"><a xlink:title=" ">
<path fill="none" stroke="#63b8ff" d="M795.49,-169.76C802.27,-160.94 811.77,-147.41 817.5,-134.25 823.79,-119.81 827.87,-102.46 830.33,-89.16"/>
<polygon fill="#63b8ff" stroke="#63b8ff" points="833.77,-89.81 831.97,-79.37 826.87,-88.66 833.77,-89.81"/>
</a>
</g>
</g>
<!-- Node25&#45;&gt;Node24 -->
<g id="edge40_Node000025_Node000024" class="edge">
<title>Node25&#45;&gt;Node24</title>
<g id="a_edge40_Node000025_Node000024"><a xlink:title=" ">
<path fill="none" stroke="#63b8ff" d="M800.03,-169.93C824.6,-150.9 879.39,-108.48 909.91,-84.84"/>
<polygon fill="#63b8ff" stroke="#63b8ff" points="911.94,-87.7 917.7,-78.81 907.65,-82.16 911.94,-87.7"/>
</a>
</g>
</g>
<!-- Node26 -->
<g id="Node000026" class="node">
<title>Node26</title>
<g id="a_Node000026"><a xlink:href="endian_8h.html" target="_top" xlink:title="libc header for endian conversion">
<polygon fill="white" stroke="#666666" points="776.5,-77.5 718.5,-77.5 718.5,-56.75 776.5,-56.75 776.5,-77.5"/>
<text text-anchor="middle" x="747.5" y="-64" font-family="Helvetica,sans-Serif" font-size="10.00">endian.h</text>
</a>
</g>
</g>
<!-- Node25&#45;&gt;Node26 -->
<g id="edge33_Node000025_Node000026" class="edge">
<title>Node25&#45;&gt;Node26</title>
<g id="a_edge33_Node000025_Node000026"><a xlink:title=" ">
<path fill="none" stroke="#63b8ff" d="M793.3,-169.77C800.33,-156.45 810.22,-132.22 801.5,-113.5 795.97,-101.64 785.65,-91.78 775.5,-84.31"/>
<polygon fill="#63b8ff" stroke="#63b8ff" points="777.49,-81.42 767.24,-78.74 773.58,-87.23 777.49,-81.42"/>
</a>
</g>
</g>
<!-- Node26&#45;&gt;Node3 -->
<g id="edge34_Node000026_Node000003" class="edge">
<title>Node26&#45;&gt;Node3</title>
<g id="a_edge34_Node000026_Node000003"><a xlink:title=" ">
<path fill="none" stroke="#63b8ff" d="M718.42,-58.28C682.59,-48.62 621.66,-32.19 582.26,-21.56"/>
<polygon fill="#63b8ff" stroke="#63b8ff" points="583.29,-18.21 572.73,-18.99 581.47,-24.97 583.29,-18.21"/>
</a>
</g>
</g>
<!-- Node27&#45;&gt;Node3 -->
<g id="edge43_Node000027_Node000003" class="edge">
<title>Node27&#45;&gt;Node3</title>
<g id="a_edge43_Node000027_Node000003"><a xlink:title=" ">
<path fill="none" stroke="#63b8ff" d="M1158.83,-226.9C1156.09,-196.24 1142.96,-99.33 1084.5,-56.75 1044.11,-27.33 698.76,-15.49 582.51,-12.31"/>
<polygon fill="#63b8ff" stroke="#63b8ff" points="582.65,-8.81 572.56,-12.05 582.47,-15.81 582.65,-8.81"/>
</a>
</g>
</g>
</g>
</svg>
