<?xml version="1.0" encoding="UTF-8" standalone="no"?>
<!DOCTYPE svg PUBLIC "-//W3C//DTD SVG 1.1//EN"
 "http://www.w3.org/Graphics/SVG/1.1/DTD/svg11.dtd">
<!-- Generated by graphviz version 12.1.2 (0)
 -->
<!-- Title: pkg/openthread/include/ot.h Pages: 1 -->
<svg width="924pt" height="313pt"
 viewBox="0.00 0.00 923.76 312.50" xmlns="http://www.w3.org/2000/svg" xmlns:xlink="http://www.w3.org/1999/xlink">
<g id="graph0" class="graph" transform="scale(1 1) rotate(0) translate(4 308.5)">
<title>pkg/openthread/include/ot.h</title>
<!-- Node1 -->
<g id="Node000001" class="node">
<title>Node1</title>
<g id="a_Node000001"><a xlink:title=" ">
<polygon fill="#999999" stroke="#666666" points="664.64,-304.5 512.14,-304.5 512.14,-283.75 664.64,-283.75 664.64,-304.5"/>
<text text-anchor="middle" x="588.39" y="-291" font-family="Helvetica,sans-Serif" font-size="10.00">pkg/openthread/include/ot.h</text>
</a>
</g>
</g>
<!-- Node2 -->
<g id="Node000002" class="node">
<title>Node2</title>
<g id="a_Node000002"><a xlink:href="netopt_8h.html" target="_top" xlink:title="Definition of global configuration options.">
<polygon fill="white" stroke="#666666" points="560.01,-191 484.76,-191 484.76,-170.25 560.01,-170.25 560.01,-191"/>
<text text-anchor="middle" x="522.39" y="-177.5" font-family="Helvetica,sans-Serif" font-size="10.00">net/netopt.h</text>
</a>
</g>
</g>
<!-- Node1&#45;&gt;Node2 -->
<g id="edge1_Node000001_Node000002" class="edge">
<title>Node1&#45;&gt;Node2</title>
<g id="a_edge1_Node000001_Node000002"><a xlink:title=" ">
<path fill="none" stroke="#63b8ff" d="M574.97,-283.39C564.4,-275.05 550.04,-262.14 541.39,-247.75 533,-233.8 528.16,-215.96 525.47,-202.33"/>
<polygon fill="#63b8ff" stroke="#63b8ff" points="528.96,-201.98 523.81,-192.72 522.06,-203.17 528.96,-201.98"/>
</a>
</g>
</g>
<!-- Node5 -->
<g id="Node000005" class="node">
<title>Node5</title>
<g id="a_Node000005"><a xlink:href="sys_2include_2net_2ieee802154_8h.html" target="_top" xlink:title="IEEE 802.15.4 header definitions.">
<polygon fill="white" stroke="#666666" points="425.76,-247.75 325.01,-247.75 325.01,-227 425.76,-227 425.76,-247.75"/>
<text text-anchor="middle" x="375.39" y="-234.25" font-family="Helvetica,sans-Serif" font-size="10.00">net/ieee802154.h</text>
</a>
</g>
</g>
<!-- Node1&#45;&gt;Node5 -->
<g id="edge4_Node000001_Node000005" class="edge">
<title>Node1&#45;&gt;Node5</title>
<g id="a_edge4_Node000001_Node000005"><a xlink:title=" ">
<path fill="none" stroke="#63b8ff" d="M550.31,-283.34C515.13,-274.29 462.68,-260.81 424.39,-250.97"/>
<polygon fill="#63b8ff" stroke="#63b8ff" points="425.52,-247.65 414.96,-248.55 423.78,-254.43 425.52,-247.65"/>
</a>
</g>
</g>
<!-- Node13 -->
<g id="Node000013" class="node">
<title>Node13</title>
<g id="a_Node000013"><a xlink:href="ethernet_8h.html" target="_top" xlink:title="Definitions for Ethernet.">
<polygon fill="white" stroke="#666666" points="237.89,-247.75 152.89,-247.75 152.89,-227 237.89,-227 237.89,-247.75"/>
<text text-anchor="middle" x="195.39" y="-234.25" font-family="Helvetica,sans-Serif" font-size="10.00">net/ethernet.h</text>
</a>
</g>
</g>
<!-- Node1&#45;&gt;Node13 -->
<g id="edge18_Node000001_Node000013" class="edge">
<title>Node1&#45;&gt;Node13</title>
<g id="a_edge18_Node000001_Node000013"><a xlink:title=" ">
<path fill="none" stroke="#63b8ff" d="M517.67,-283.27C440.64,-272.54 319.11,-255.61 249.38,-245.9"/>
<polygon fill="#63b8ff" stroke="#63b8ff" points="250.12,-242.47 239.73,-244.55 249.15,-249.4 250.12,-242.47"/>
</a>
</g>
</g>
<!-- Node16 -->
<g id="Node000016" class="node">
<title>Node16</title>
<g id="a_Node000016"><a xlink:href="drivers_2include_2net_2netdev_8h.html" target="_top" xlink:title="Definitions low&#45;level network driver interface.">
<polygon fill="white" stroke="#666666" points="626.76,-247.75 550.01,-247.75 550.01,-227 626.76,-227 626.76,-247.75"/>
<text text-anchor="middle" x="588.39" y="-234.25" font-family="Helvetica,sans-Serif" font-size="10.00">net/netdev.h</text>
</a>
</g>
</g>
<!-- Node1&#45;&gt;Node16 -->
<g id="edge24_Node000001_Node000016" class="edge">
<title>Node1&#45;&gt;Node16</title>
<g id="a_edge24_Node000001_Node000016"><a xlink:title=" ">
<path fill="none" stroke="#63b8ff" d="M588.39,-283.34C588.39,-276.72 588.39,-267.72 588.39,-259.52"/>
<polygon fill="#63b8ff" stroke="#63b8ff" points="591.89,-259.59 588.39,-249.59 584.89,-259.59 591.89,-259.59"/>
</a>
</g>
</g>
<!-- Node25 -->
<g id="Node000025" class="node">
<title>Node25</title>
<g id="a_Node000025"><a xlink:title=" ">
<polygon fill="#e0e0e0" stroke="#999999" points="701.64,-247.75 645.14,-247.75 645.14,-227 701.64,-227 701.64,-247.75"/>
<text text-anchor="middle" x="673.39" y="-234.25" font-family="Helvetica,sans-Serif" font-size="10.00">thread.h</text>
</a>
</g>
</g>
<!-- Node1&#45;&gt;Node25 -->
<g id="edge40_Node000001_Node000025" class="edge">
<title>Node1&#45;&gt;Node25</title>
<g id="a_edge40_Node000001_Node000025"><a xlink:title=" ">
<path fill="none" stroke="#63b8ff" d="M603.59,-283.34C616.16,-275.24 634.25,-263.58 648.87,-254.17"/>
<polygon fill="#63b8ff" stroke="#63b8ff" points="650.54,-257.26 657.05,-248.9 646.75,-251.37 650.54,-257.26"/>
</a>
</g>
</g>
<!-- Node26 -->
<g id="Node000026" class="node">
<title>Node26</title>
<g id="a_Node000026"><a xlink:title=" ">
<polygon fill="#e0e0e0" stroke="#999999" points="844.76,-247.75 720.01,-247.75 720.01,-227 844.76,-227 844.76,-247.75"/>
<text text-anchor="middle" x="782.39" y="-234.25" font-family="Helvetica,sans-Serif" font-size="10.00">openthread/instance.h</text>
</a>
</g>
</g>
<!-- Node1&#45;&gt;Node26 -->
<g id="edge41_Node000001_Node000026" class="edge">
<title>Node1&#45;&gt;Node26</title>
<g id="a_edge41_Node000001_Node000026"><a xlink:title=" ">
<path fill="none" stroke="#63b8ff" d="M623.07,-283.34C654.84,-274.37 702.06,-261.04 736.86,-251.23"/>
<polygon fill="#63b8ff" stroke="#63b8ff" points="737.55,-254.67 746.22,-248.58 735.65,-247.93 737.55,-254.67"/>
</a>
</g>
</g>
<!-- Node27 -->
<g id="Node000027" class="node">
<title>Node27</title>
<g id="a_Node000027"><a xlink:title=" ">
<polygon fill="#e0e0e0" stroke="#999999" points="915.76,-247.75 863.01,-247.75 863.01,-227 915.76,-227 915.76,-247.75"/>
<text text-anchor="middle" x="889.39" y="-234.25" font-family="Helvetica,sans-Serif" font-size="10.00">event.h</text>
</a>
</g>
</g>
<!-- Node1&#45;&gt;Node27 -->
<g id="edge42_Node000001_Node000027" class="edge">
<title>Node1&#45;&gt;Node27</title>
<g id="a_edge42_Node000001_Node000027"><a xlink:title=" ">
<path fill="none" stroke="#63b8ff" d="M655.4,-283.27C706.53,-275.38 778.94,-263.41 851.53,-247.99"/>
<polygon fill="#63b8ff" stroke="#63b8ff" points="852.19,-251.43 861.23,-245.91 850.72,-244.59 852.19,-251.43"/>
</a>
</g>
</g>
<!-- Node3 -->
<g id="Node000003" class="node">
<title>Node3</title>
<g id="a_Node000003"><a xlink:title=" ">
<polygon fill="#e0e0e0" stroke="#999999" points="393.76,-20.75 341.01,-20.75 341.01,0 393.76,0 393.76,-20.75"/>
<text text-anchor="middle" x="367.39" y="-7.25" font-family="Helvetica,sans-Serif" font-size="10.00">stdint.h</text>
</a>
</g>
</g>
<!-- Node2&#45;&gt;Node3 -->
<g id="edge2_Node000002_Node000003" class="edge">
<title>Node2&#45;&gt;Node3</title>
<g id="a_edge2_Node000002_Node000003"><a xlink:title=" ">
<path fill="none" stroke="#63b8ff" d="M484.45,-173.54C459.14,-167.6 426.86,-156.11 406.39,-134.25 379.71,-105.76 371.28,-59.07 368.62,-32.19"/>
<polygon fill="#63b8ff" stroke="#63b8ff" points="372.14,-32.27 367.86,-22.57 365.16,-32.82 372.14,-32.27"/>
</a>
</g>
</g>
<!-- Node4 -->
<g id="Node000004" class="node">
<title>Node4</title>
<g id="a_Node000004"><a xlink:title=" ">
<polygon fill="#e0e0e0" stroke="#999999" points="475.89,-134.25 414.89,-134.25 414.89,-113.5 475.89,-113.5 475.89,-134.25"/>
<text text-anchor="middle" x="445.39" y="-120.75" font-family="Helvetica,sans-Serif" font-size="10.00">stdbool.h</text>
</a>
</g>
</g>
<!-- Node2&#45;&gt;Node4 -->
<g id="edge3_Node000002_Node000004" class="edge">
<title>Node2&#45;&gt;Node4</title>
<g id="a_edge3_Node000002_Node000004"><a xlink:title=" ">
<path fill="none" stroke="#63b8ff" d="M508.62,-169.84C497.45,-161.9 481.47,-150.53 468.37,-141.21"/>
<polygon fill="#63b8ff" stroke="#63b8ff" points="470.45,-138.4 460.27,-135.46 466.39,-144.1 470.45,-138.4"/>
</a>
</g>
</g>
<!-- Node5&#45;&gt;Node3 -->
<g id="edge5_Node000005_Node000003" class="edge">
<title>Node5&#45;&gt;Node3</title>
<g id="a_edge5_Node000005_Node000003"><a xlink:title=" ">
<path fill="none" stroke="#63b8ff" d="M373.18,-226.7C371.21,-217.56 368.48,-203.43 367.39,-191 362.38,-133.7 364.59,-65.73 366.21,-32.2"/>
<polygon fill="#63b8ff" stroke="#63b8ff" points="369.69,-32.82 366.71,-22.65 362.7,-32.45 369.69,-32.82"/>
</a>
</g>
</g>
<!-- Node6 -->
<g id="Node000006" class="node">
<title>Node6</title>
<g id="a_Node000006"><a xlink:title=" ">
<polygon fill="#e0e0e0" stroke="#999999" points="428.39,-191 376.39,-191 376.39,-170.25 428.39,-170.25 428.39,-191"/>
<text text-anchor="middle" x="402.39" y="-177.5" font-family="Helvetica,sans-Serif" font-size="10.00">stdlib.h</text>
</a>
</g>
</g>
<!-- Node5&#45;&gt;Node6 -->
<g id="edge6_Node000005_Node000006" class="edge">
<title>Node5&#45;&gt;Node6</title>
<g id="a_edge6_Node000005_Node000006"><a xlink:title=" ">
<path fill="none" stroke="#63b8ff" d="M380.22,-226.59C383.63,-219.66 388.34,-210.12 392.53,-201.61"/>
<polygon fill="#63b8ff" stroke="#63b8ff" points="395.65,-203.2 396.93,-192.69 389.37,-200.11 395.65,-203.2"/>
</a>
</g>
</g>
<!-- Node7 -->
<g id="Node000007" class="node">
<title>Node7</title>
<g id="a_Node000007"><a xlink:href="byteorder_8h.html" target="_top" xlink:title="Functions to work with different byte orders.">
<polygon fill="white" stroke="#666666" points="254.51,-134.25 182.26,-134.25 182.26,-113.5 254.51,-113.5 254.51,-134.25"/>
<text text-anchor="middle" x="218.39" y="-120.75" font-family="Helvetica,sans-Serif" font-size="10.00">byteorder.h</text>
</a>
</g>
</g>
<!-- Node5&#45;&gt;Node7 -->
<g id="edge7_Node000005_Node000007" class="edge">
<title>Node5&#45;&gt;Node7</title>
<g id="a_edge7_Node000005_Node000007"><a xlink:title=" ">
<path fill="none" stroke="#63b8ff" d="M363.74,-226.53C347.81,-213.23 318.14,-189 291.39,-170.25 276.35,-159.7 258.89,-148.81 244.82,-140.33"/>
<polygon fill="#63b8ff" stroke="#63b8ff" points="246.94,-137.52 236.55,-135.41 243.35,-143.54 246.94,-137.52"/>
</a>
</g>
</g>
<!-- Node11 -->
<g id="Node000011" class="node">
<title>Node11</title>
<g id="a_Node000011"><a xlink:href="eui64_8h.html" target="_top" xlink:title="EUI&#45;64 data type definition.">
<polygon fill="white" stroke="#666666" points="282.76,-191 212.01,-191 212.01,-170.25 282.76,-170.25 282.76,-191"/>
<text text-anchor="middle" x="247.39" y="-177.5" font-family="Helvetica,sans-Serif" font-size="10.00">net/eui64.h</text>
</a>
</g>
</g>
<!-- Node5&#45;&gt;Node11 -->
<g id="edge14_Node000005_Node000011" class="edge">
<title>Node5&#45;&gt;Node11</title>
<g id="a_edge14_Node000005_Node000011"><a xlink:title=" ">
<path fill="none" stroke="#63b8ff" d="M352.51,-226.59C332.48,-218.02 303.15,-205.48 280.56,-195.81"/>
<polygon fill="#63b8ff" stroke="#63b8ff" points="282.04,-192.64 271.47,-191.92 279.28,-199.07 282.04,-192.64"/>
</a>
</g>
</g>
<!-- Node12 -->
<g id="Node000012" class="node">
<title>Node12</title>
<g id="a_Node000012"><a xlink:href="modules_8h.html" target="_top" xlink:title="Common macros and compiler attributes/pragmas configuration.">
<polygon fill="white" stroke="#666666" points="560.89,-134.25 493.89,-134.25 493.89,-113.5 560.89,-113.5 560.89,-134.25"/>
<text text-anchor="middle" x="527.39" y="-120.75" font-family="Helvetica,sans-Serif" font-size="10.00">modules.h</text>
</a>
</g>
</g>
<!-- Node5&#45;&gt;Node12 -->
<g id="edge17_Node000005_Node000012" class="edge">
<title>Node5&#45;&gt;Node12</title>
<g id="a_edge17_Node000005_Node000012"><a xlink:title=" ">
<path fill="none" stroke="#63b8ff" d="M388.7,-226.65C401.26,-217.46 420.61,-203.3 437.39,-191 460.34,-174.17 486.57,-154.89 504.77,-141.51"/>
<polygon fill="#63b8ff" stroke="#63b8ff" points="506.77,-144.38 512.76,-135.64 502.63,-138.74 506.77,-144.38"/>
</a>
</g>
</g>
<!-- Node7&#45;&gt;Node3 -->
<g id="edge9_Node000007_Node000003" class="edge">
<title>Node7&#45;&gt;Node3</title>
<g id="a_edge9_Node000007_Node000003"><a xlink:title=" ">
<path fill="none" stroke="#63b8ff" d="M228.62,-113.43C243.19,-100.16 270.97,-75.52 296.39,-56.75 310.64,-46.23 327.3,-35.5 340.9,-27.13"/>
<polygon fill="#63b8ff" stroke="#63b8ff" points="342.6,-30.19 349.32,-22 338.96,-24.21 342.6,-30.19"/>
</a>
</g>
</g>
<!-- Node8 -->
<g id="Node000008" class="node">
<title>Node8</title>
<g id="a_Node000008"><a xlink:title=" ">
<polygon fill="#e0e0e0" stroke="#999999" points="152.76,-77.5 100.01,-77.5 100.01,-56.75 152.76,-56.75 152.76,-77.5"/>
<text text-anchor="middle" x="126.39" y="-64" font-family="Helvetica,sans-Serif" font-size="10.00">string.h</text>
</a>
</g>
</g>
<!-- Node7&#45;&gt;Node8 -->
<g id="edge8_Node000007_Node000008" class="edge">
<title>Node7&#45;&gt;Node8</title>
<g id="a_edge8_Node000007_Node000008"><a xlink:title=" ">
<path fill="none" stroke="#63b8ff" d="M201.94,-113.09C188.2,-104.91 168.37,-93.11 152.47,-83.65"/>
<polygon fill="#63b8ff" stroke="#63b8ff" points="154.38,-80.71 144,-78.6 150.8,-86.72 154.38,-80.71"/>
</a>
</g>
</g>
<!-- Node9 -->
<g id="Node000009" class="node">
<title>Node9</title>
<g id="a_Node000009"><a xlink:href="endian_8h.html" target="_top" xlink:title="libc header for endian conversion">
<polygon fill="white" stroke="#666666" points="82.39,-77.5 24.39,-77.5 24.39,-56.75 82.39,-56.75 82.39,-77.5"/>
<text text-anchor="middle" x="53.39" y="-64" font-family="Helvetica,sans-Serif" font-size="10.00">endian.h</text>
</a>
</g>
</g>
<!-- Node7&#45;&gt;Node9 -->
<g id="edge10_Node000007_Node000009" class="edge">
<title>Node7&#45;&gt;Node9</title>
<g id="a_edge10_Node000007_Node000009"><a xlink:title=" ">
<path fill="none" stroke="#63b8ff" d="M188.89,-113.09C162.26,-104.25 122.85,-91.17 93.39,-81.4"/>
<polygon fill="#63b8ff" stroke="#63b8ff" points="94.66,-78.13 84.07,-78.31 92.46,-84.78 94.66,-78.13"/>
</a>
</g>
</g>
<!-- Node10 -->
<g id="Node000010" class="node">
<title>Node10</title>
<g id="a_Node000010"><a xlink:href="unaligned_8h.html" target="_top" xlink:title="Unaligned but safe memory access functions.">
<polygon fill="white" stroke="#666666" points="243.89,-77.5 170.89,-77.5 170.89,-56.75 243.89,-56.75 243.89,-77.5"/>
<text text-anchor="middle" x="207.39" y="-64" font-family="Helvetica,sans-Serif" font-size="10.00">unaligned.h</text>
</a>
</g>
</g>
<!-- Node7&#45;&gt;Node10 -->
<g id="edge12_Node000007_Node000010" class="edge">
<title>Node7&#45;&gt;Node10</title>
<g id="a_edge12_Node000007_Node000010"><a xlink:title=" ">
<path fill="none" stroke="#63b8ff" d="M216.42,-113.09C215.08,-106.39 213.24,-97.26 211.58,-88.98"/>
<polygon fill="#63b8ff" stroke="#63b8ff" points="215.04,-88.43 209.64,-79.31 208.18,-89.81 215.04,-88.43"/>
</a>
</g>
</g>
<!-- Node9&#45;&gt;Node3 -->
<g id="edge11_Node000009_Node000003" class="edge">
<title>Node9&#45;&gt;Node3</title>
<g id="a_edge11_Node000009_Node000003"><a xlink:title=" ">
<path fill="none" stroke="#63b8ff" d="M82.8,-58.63C85.69,-57.96 88.59,-57.32 91.39,-56.75 175.86,-39.42 275.94,-24.3 329.33,-16.66"/>
<polygon fill="#63b8ff" stroke="#63b8ff" points="329.71,-20.14 339.12,-15.27 328.73,-13.21 329.71,-20.14"/>
</a>
</g>
</g>
<!-- Node10&#45;&gt;Node3 -->
<g id="edge13_Node000010_Node000003" class="edge">
<title>Node10&#45;&gt;Node3</title>
<g id="a_edge13_Node000010_Node000003"><a xlink:title=" ">
<path fill="none" stroke="#63b8ff" d="M235.99,-56.34C262.18,-47.38 301.11,-34.06 329.8,-24.24"/>
<polygon fill="#63b8ff" stroke="#63b8ff" points="330.87,-27.57 339.2,-21.02 328.6,-20.95 330.87,-27.57"/>
</a>
</g>
</g>
<!-- Node11&#45;&gt;Node3 -->
<g id="edge15_Node000011_Node000003" class="edge">
<title>Node11&#45;&gt;Node3</title>
<g id="a_edge15_Node000011_Node000003"><a xlink:title=" ">
<path fill="none" stroke="#63b8ff" d="M254.12,-170.04C268.67,-149.31 304.22,-98.8 334.39,-56.75 340.69,-47.97 347.72,-38.28 353.67,-30.12"/>
<polygon fill="#63b8ff" stroke="#63b8ff" points="356.31,-32.45 359.38,-22.31 350.66,-28.32 356.31,-32.45"/>
</a>
</g>
</g>
<!-- Node11&#45;&gt;Node7 -->
<g id="edge16_Node000011_Node000007" class="edge">
<title>Node11&#45;&gt;Node7</title>
<g id="a_edge16_Node000011_Node000007"><a xlink:title=" ">
<path fill="none" stroke="#63b8ff" d="M242.2,-169.84C238.49,-162.83 233.37,-153.16 228.83,-144.58"/>
<polygon fill="#63b8ff" stroke="#63b8ff" points="232.01,-143.11 224.24,-135.92 225.83,-146.39 232.01,-143.11"/>
</a>
</g>
</g>
<!-- Node13&#45;&gt;Node3 -->
<g id="edge19_Node000013_Node000003" class="edge">
<title>Node13&#45;&gt;Node3</title>
<g id="a_edge19_Node000013_Node000003"><a xlink:title=" ">
<path fill="none" stroke="#63b8ff" d="M152.51,-226.63C129.43,-219.7 101.64,-208.46 81.39,-191 31.03,-147.59 -28.52,-106.68 15.39,-56.75 35.89,-33.44 242.24,-18.71 329.14,-13.5"/>
<polygon fill="#63b8ff" stroke="#63b8ff" points="329.29,-17 339.06,-12.91 328.87,-10.01 329.29,-17"/>
</a>
</g>
</g>
<!-- Node13&#45;&gt;Node11 -->
<g id="edge23_Node000013_Node000011" class="edge">
<title>Node13&#45;&gt;Node11</title>
<g id="a_edge23_Node000013_Node000011"><a xlink:title=" ">
<path fill="none" stroke="#63b8ff" d="M204.69,-226.59C211.78,-219.11 221.76,-208.61 230.29,-199.63"/>
<polygon fill="#63b8ff" stroke="#63b8ff" points="232.78,-202.09 237.13,-192.43 227.71,-197.27 232.78,-202.09"/>
</a>
</g>
</g>
<!-- Node14 -->
<g id="Node000014" class="node">
<title>Node14</title>
<g id="a_Node000014"><a xlink:href="net_2ethernet_2hdr_8h.html" target="_top" xlink:title="Ethernet header definitions.">
<polygon fill="white" stroke="#666666" points="194.26,-191 90.51,-191 90.51,-170.25 194.26,-170.25 194.26,-191"/>
<text text-anchor="middle" x="142.39" y="-177.5" font-family="Helvetica,sans-Serif" font-size="10.00">net/ethernet/hdr.h</text>
</a>
</g>
</g>
<!-- Node13&#45;&gt;Node14 -->
<g id="edge20_Node000013_Node000014" class="edge">
<title>Node13&#45;&gt;Node14</title>
<g id="a_edge20_Node000013_Node000014"><a xlink:title=" ">
<path fill="none" stroke="#63b8ff" d="M185.91,-226.59C178.6,-219.03 168.3,-208.39 159.55,-199.35"/>
<polygon fill="#63b8ff" stroke="#63b8ff" points="162.31,-197.17 152.84,-192.42 157.28,-202.04 162.31,-197.17"/>
</a>
</g>
</g>
<!-- Node14&#45;&gt;Node7 -->
<g id="edge22_Node000014_Node000007" class="edge">
<title>Node14&#45;&gt;Node7</title>
<g id="a_edge22_Node000014_Node000007"><a xlink:title=" ">
<path fill="none" stroke="#63b8ff" d="M155.98,-169.84C167,-161.9 182.78,-150.53 195.71,-141.21"/>
<polygon fill="#63b8ff" stroke="#63b8ff" points="197.62,-144.15 203.69,-135.46 193.53,-138.47 197.62,-144.15"/>
</a>
</g>
</g>
<!-- Node15 -->
<g id="Node000015" class="node">
<title>Node15</title>
<g id="a_Node000015"><a xlink:href="inttypes_8h.html" target="_top" xlink:title="Adds include for missing inttype definitions.">
<polygon fill="white" stroke="#666666" points="163.76,-134.25 99.01,-134.25 99.01,-113.5 163.76,-113.5 163.76,-134.25"/>
<text text-anchor="middle" x="131.39" y="-120.75" font-family="Helvetica,sans-Serif" font-size="10.00">inttypes.h</text>
</a>
</g>
</g>
<!-- Node14&#45;&gt;Node15 -->
<g id="edge21_Node000014_Node000015" class="edge">
<title>Node14&#45;&gt;Node15</title>
<g id="a_edge21_Node000014_Node000015"><a xlink:title=" ">
<path fill="none" stroke="#63b8ff" d="M140.42,-169.84C139.08,-163.14 137.24,-154.01 135.58,-145.73"/>
<polygon fill="#63b8ff" stroke="#63b8ff" points="139.04,-145.18 133.64,-136.06 132.18,-146.56 139.04,-145.18"/>
</a>
</g>
</g>
<!-- Node16&#45;&gt;Node2 -->
<g id="edge28_Node000016_Node000002" class="edge">
<title>Node16&#45;&gt;Node2</title>
<g id="a_edge28_Node000016_Node000002"><a xlink:title=" ">
<path fill="none" stroke="#63b8ff" d="M576.59,-226.59C567.2,-218.8 553.85,-207.72 542.75,-198.51"/>
<polygon fill="#63b8ff" stroke="#63b8ff" points="545.18,-195.99 535.25,-192.29 540.71,-201.37 545.18,-195.99"/>
</a>
</g>
</g>
<!-- Node16&#45;&gt;Node3 -->
<g id="edge25_Node000016_Node000003" class="edge">
<title>Node16&#45;&gt;Node3</title>
<g id="a_edge25_Node000016_Node000003"><a xlink:title=" ">
<path fill="none" stroke="#63b8ff" d="M589.77,-226.66C592.38,-204.35 595.75,-148.64 570.39,-113.5 530.49,-58.2 451.92,-31.02 405.1,-19.2"/>
<polygon fill="#63b8ff" stroke="#63b8ff" points="405.93,-15.8 395.39,-16.87 404.3,-22.6 405.93,-15.8"/>
</a>
</g>
</g>
<!-- Node17 -->
<g id="Node000017" class="node">
<title>Node17</title>
<g id="a_Node000017"><a xlink:href="errno_8h.html" target="_top" xlink:title=" ">
<polygon fill="white" stroke="#666666" points="781.64,-191 731.14,-191 731.14,-170.25 781.64,-170.25 781.64,-191"/>
<text text-anchor="middle" x="756.39" y="-177.5" font-family="Helvetica,sans-Serif" font-size="10.00">errno.h</text>
</a>
</g>
</g>
<!-- Node16&#45;&gt;Node17 -->
<g id="edge26_Node000016_Node000017" class="edge">
<title>Node16&#45;&gt;Node17</title>
<g id="a_edge26_Node000016_Node000017"><a xlink:title=" ">
<path fill="none" stroke="#63b8ff" d="M618.42,-226.59C646.92,-217.3 689.78,-203.33 720.16,-193.43"/>
<polygon fill="#63b8ff" stroke="#63b8ff" points="720.88,-196.88 729.3,-190.45 718.71,-190.22 720.88,-196.88"/>
</a>
</g>
</g>
<!-- Node18 -->
<g id="Node000018" class="node">
<title>Node18</title>
<g id="a_Node000018"><a xlink:href="iolist_8h.html" target="_top" xlink:title="iolist scatter / gather IO">
<polygon fill="white" stroke="#666666" points="848.89,-191 799.89,-191 799.89,-170.25 848.89,-170.25 848.89,-191"/>
<text text-anchor="middle" x="824.39" y="-177.5" font-family="Helvetica,sans-Serif" font-size="10.00">iolist.h</text>
</a>
</g>
</g>
<!-- Node16&#45;&gt;Node18 -->
<g id="edge27_Node000016_Node000018" class="edge">
<title>Node16&#45;&gt;Node18</title>
<g id="a_edge27_Node000016_Node000018"><a xlink:title=" ">
<path fill="none" stroke="#63b8ff" d="M627.24,-228.23C665.7,-220.03 726.52,-206.74 788.39,-191.41"/>
<polygon fill="#63b8ff" stroke="#63b8ff" points="789.22,-194.81 798.07,-188.99 787.52,-188.02 789.22,-194.81"/>
</a>
</g>
</g>
<!-- Node19 -->
<g id="Node000019" class="node">
<title>Node19</title>
<g id="a_Node000019"><a xlink:href="kernel__defines_8h.html" target="_top" xlink:title="Common macros and compiler attributes/pragmas configuration.">
<polygon fill="white" stroke="#666666" points="713.51,-191 617.26,-191 617.26,-170.25 713.51,-170.25 713.51,-191"/>
<text text-anchor="middle" x="665.39" y="-177.5" font-family="Helvetica,sans-Serif" font-size="10.00">kernel_defines.h</text>
</a>
</g>
</g>
<!-- Node16&#45;&gt;Node19 -->
<g id="edge29_Node000016_Node000019" class="edge">
<title>Node16&#45;&gt;Node19</title>
<g id="a_edge29_Node000016_Node000019"><a xlink:title=" ">
<path fill="none" stroke="#63b8ff" d="M602.16,-226.59C613.32,-218.65 629.31,-207.28 642.41,-197.96"/>
<polygon fill="#63b8ff" stroke="#63b8ff" points="644.39,-200.85 650.51,-192.21 640.33,-195.15 644.39,-200.85"/>
</a>
</g>
</g>
<!-- Node19&#45;&gt;Node12 -->
<g id="edge30_Node000019_Node000012" class="edge">
<title>Node19&#45;&gt;Node12</title>
<g id="a_edge30_Node000019_Node000012"><a xlink:title=" ">
<path fill="none" stroke="#63b8ff" d="M640.72,-169.84C618.94,-161.19 586.93,-148.5 562.48,-138.8"/>
<polygon fill="#63b8ff" stroke="#63b8ff" points="563.84,-135.57 553.25,-135.14 561.26,-142.08 563.84,-135.57"/>
</a>
</g>
</g>
<!-- Node20 -->
<g id="Node000020" class="node">
<title>Node20</title>
<g id="a_Node000020"><a xlink:href="riot__version_8h.html" target="_top" xlink:title="Common macros and compiler attributes/pragmas configuration.">
<polygon fill="white" stroke="#666666" points="643.76,-77.5 561.01,-77.5 561.01,-56.75 643.76,-56.75 643.76,-77.5"/>
<text text-anchor="middle" x="602.39" y="-64" font-family="Helvetica,sans-Serif" font-size="10.00">riot_version.h</text>
</a>
</g>
</g>
<!-- Node19&#45;&gt;Node20 -->
<g id="edge31_Node000019_Node000020" class="edge">
<title>Node19&#45;&gt;Node20</title>
<g id="a_edge31_Node000019_Node000020"><a xlink:title=" ">
<path fill="none" stroke="#63b8ff" d="M660.02,-170.12C649.75,-151.94 627.14,-111.92 613.49,-87.77"/>
<polygon fill="#63b8ff" stroke="#63b8ff" points="616.64,-86.23 608.67,-79.24 610.54,-89.67 616.64,-86.23"/>
</a>
</g>
</g>
<!-- Node21 -->
<g id="Node000021" class="node">
<title>Node21</title>
<g id="a_Node000021"><a xlink:href="compiler__hints_8h.html" target="_top" xlink:title="Common macros and compiler attributes/pragmas configuration.">
<polygon fill="white" stroke="#666666" points="752.89,-134.25 655.89,-134.25 655.89,-113.5 752.89,-113.5 752.89,-134.25"/>
<text text-anchor="middle" x="704.39" y="-120.75" font-family="Helvetica,sans-Serif" font-size="10.00">compiler_hints.h</text>
</a>
</g>
</g>
<!-- Node19&#45;&gt;Node21 -->
<g id="edge33_Node000019_Node000021" class="edge">
<title>Node19&#45;&gt;Node21</title>
<g id="a_edge33_Node000019_Node000021"><a xlink:title=" ">
<path fill="none" stroke="#63b8ff" d="M672.36,-169.84C677.52,-162.6 684.7,-152.51 690.96,-143.72"/>
<polygon fill="#63b8ff" stroke="#63b8ff" points="693.65,-145.99 696.6,-135.81 687.95,-141.93 693.65,-145.99"/>
</a>
</g>
</g>
<!-- Node23 -->
<g id="Node000023" class="node">
<title>Node23</title>
<g id="a_Node000023"><a xlink:href="container_8h.html" target="_top" xlink:title="Common macros and compiler attributes/pragmas configuration.">
<polygon fill="white" stroke="#666666" points="841.76,-134.25 771.01,-134.25 771.01,-113.5 841.76,-113.5 841.76,-134.25"/>
<text text-anchor="middle" x="806.39" y="-120.75" font-family="Helvetica,sans-Serif" font-size="10.00">container.h</text>
</a>
</g>
</g>
<!-- Node19&#45;&gt;Node23 -->
<g id="edge37_Node000019_Node000023" class="edge">
<title>Node19&#45;&gt;Node23</title>
<g id="a_edge37_Node000019_Node000023"><a xlink:title=" ">
<path fill="none" stroke="#63b8ff" d="M690.6,-169.84C712.95,-161.16 745.85,-148.38 770.87,-138.67"/>
<polygon fill="#63b8ff" stroke="#63b8ff" points="771.93,-142.01 779.99,-135.13 769.4,-135.48 771.93,-142.01"/>
</a>
</g>
</g>
<!-- Node20&#45;&gt;Node3 -->
<g id="edge32_Node000020_Node000003" class="edge">
<title>Node20&#45;&gt;Node3</title>
<g id="a_edge32_Node000020_Node000003"><a xlink:title=" ">
<path fill="none" stroke="#63b8ff" d="M560.65,-56.4C516.55,-46.13 447.63,-30.07 405.12,-20.16"/>
<polygon fill="#63b8ff" stroke="#63b8ff" points="406.14,-16.81 395.6,-17.95 404.55,-23.63 406.14,-16.81"/>
</a>
</g>
</g>
<!-- Node21&#45;&gt;Node3 -->
<g id="edge36_Node000021_Node000003" class="edge">
<title>Node21&#45;&gt;Node3</title>
<g id="a_edge36_Node000021_Node000003"><a xlink:title=" ">
<path fill="none" stroke="#63b8ff" d="M699.86,-113.36C692.29,-98.57 675.56,-70.36 652.39,-56.75 611.23,-32.57 473.43,-19.25 405.67,-14.01"/>
<polygon fill="#63b8ff" stroke="#63b8ff" points="406,-10.53 395.77,-13.27 405.48,-17.51 406,-10.53"/>
</a>
</g>
</g>
<!-- Node22 -->
<g id="Node000022" class="node">
<title>Node22</title>
<g id="a_Node000022"><a xlink:href="assert_8h.html" target="_top" xlink:title="POSIX.1&#45;2008 compliant version of the assert macro.">
<polygon fill="white" stroke="#666666" points="754.89,-77.5 699.89,-77.5 699.89,-56.75 754.89,-56.75 754.89,-77.5"/>
<text text-anchor="middle" x="727.39" y="-64" font-family="Helvetica,sans-Serif" font-size="10.00">assert.h</text>
</a>
</g>
</g>
<!-- Node21&#45;&gt;Node22 -->
<g id="edge34_Node000021_Node000022" class="edge">
<title>Node21&#45;&gt;Node22</title>
<g id="a_edge34_Node000021_Node000022"><a xlink:title=" ">
<path fill="none" stroke="#63b8ff" d="M708.5,-113.09C711.38,-106.24 715.33,-96.84 718.87,-88.4"/>
<polygon fill="#63b8ff" stroke="#63b8ff" points="722.08,-89.8 722.73,-79.22 715.63,-87.09 722.08,-89.8"/>
</a>
</g>
</g>
<!-- Node22&#45;&gt;Node3 -->
<g id="edge35_Node000022_Node000003" class="edge">
<title>Node22&#45;&gt;Node3</title>
<g id="a_edge35_Node000022_Node000003"><a xlink:title=" ">
<path fill="none" stroke="#63b8ff" d="M699.44,-59.57C694.76,-58.56 689.95,-57.58 685.39,-56.75 584.58,-38.34 464.66,-22.98 404.99,-15.78"/>
<polygon fill="#63b8ff" stroke="#63b8ff" points="405.73,-12.34 395.39,-14.63 404.9,-19.29 405.73,-12.34"/>
</a>
</g>
</g>
<!-- Node23&#45;&gt;Node3 -->
<g id="edge39_Node000023_Node000003" class="edge">
<title>Node23&#45;&gt;Node3</title>
<g id="a_edge39_Node000023_Node000003"><a xlink:title=" ">
<path fill="none" stroke="#63b8ff" d="M803.32,-113.28C798.02,-98.38 785.6,-70.03 764.39,-56.75 705.14,-19.66 493.16,-12.85 405.62,-11.63"/>
<polygon fill="#63b8ff" stroke="#63b8ff" points="405.68,-8.13 395.64,-11.51 405.6,-15.13 405.68,-8.13"/>
</a>
</g>
</g>
<!-- Node24 -->
<g id="Node000024" class="node">
<title>Node24</title>
<g id="a_Node000024"><a xlink:title=" ">
<polygon fill="#e0e0e0" stroke="#999999" points="866.89,-77.5 811.89,-77.5 811.89,-56.75 866.89,-56.75 866.89,-77.5"/>
<text text-anchor="middle" x="839.39" y="-64" font-family="Helvetica,sans-Serif" font-size="10.00">stddef.h</text>
</a>
</g>
</g>
<!-- Node23&#45;&gt;Node24 -->
<g id="edge38_Node000023_Node000024" class="edge">
<title>Node23&#45;&gt;Node24</title>
<g id="a_edge38_Node000023_Node000024"><a xlink:title=" ">
<path fill="none" stroke="#63b8ff" d="M812.29,-113.09C816.56,-106 822.47,-96.19 827.69,-87.54"/>
<polygon fill="#63b8ff" stroke="#63b8ff" points="830.59,-89.5 832.76,-79.12 824.6,-85.88 830.59,-89.5"/>
</a>
</g>
</g>
</g>
</svg>
