<?xml version="1.0" encoding="UTF-8" standalone="no"?>
<!DOCTYPE svg PUBLIC "-//W3C//DTD SVG 1.1//EN"
 "http://www.w3.org/Graphics/SVG/1.1/DTD/svg11.dtd">
<!-- Generated by graphviz version 12.1.2 (0)
 -->
<!-- Title: pkg/paho&#45;mqtt/include/paho_mqtt.h Pages: 1 -->
<svg width="1339pt" height="496pt"
 viewBox="0.00 0.00 1338.75 495.50" xmlns="http://www.w3.org/2000/svg" xmlns:xlink="http://www.w3.org/1999/xlink">
<g id="graph0" class="graph" transform="scale(1 1) rotate(0) translate(4 491.5)">
<title>pkg/paho&#45;mqtt/include/paho_mqtt.h</title>
<!-- Node1 -->
<g id="Node000001" class="node">
<title>Node1</title>
<g id="a_Node000001"><a xlink:title="Network MQTT interface definitions.">
<polygon fill="#999999" stroke="#666666" points="840.88,-487.5 714.62,-487.5 714.62,-454 840.88,-454 840.88,-487.5"/>
<text text-anchor="start" x="722.62" y="-474" font-family="Helvetica,sans-Serif" font-size="10.00">pkg/paho&#45;mqtt/include</text>
<text text-anchor="middle" x="777.75" y="-461.25" font-family="Helvetica,sans-Serif" font-size="10.00">/paho_mqtt.h</text>
</a>
</g>
</g>
<!-- Node2 -->
<g id="Node000002" class="node">
<title>Node2</title>
<g id="a_Node000002"><a xlink:href="mutex_8h.html" target="_top" xlink:title="Mutex for thread synchronization.">
<polygon fill="white" stroke="#666666" points="806,-418 749.5,-418 749.5,-397.25 806,-397.25 806,-418"/>
<text text-anchor="middle" x="777.75" y="-404.5" font-family="Helvetica,sans-Serif" font-size="10.00">mutex.h</text>
</a>
</g>
</g>
<!-- Node1&#45;&gt;Node2 -->
<g id="edge1_Node000001_Node000002" class="edge">
<title>Node1&#45;&gt;Node2</title>
<g id="a_edge1_Node000001_Node000002"><a xlink:title=" ">
<path fill="none" stroke="#63b8ff" d="M777.75,-453.69C777.75,-446.35 777.75,-437.57 777.75,-429.71"/>
<polygon fill="#63b8ff" stroke="#63b8ff" points="781.25,-429.98 777.75,-419.98 774.25,-429.98 781.25,-429.98"/>
</a>
</g>
</g>
<!-- Node26 -->
<g id="Node000026" class="node">
<title>Node26</title>
<g id="a_Node000026"><a xlink:title=" ">
<polygon fill="#e0e0e0" stroke="#999999" points="881,-418 824.5,-418 824.5,-397.25 881,-397.25 881,-418"/>
<text text-anchor="middle" x="852.75" y="-404.5" font-family="Helvetica,sans-Serif" font-size="10.00">thread.h</text>
</a>
</g>
</g>
<!-- Node1&#45;&gt;Node26 -->
<g id="edge43_Node000001_Node000026" class="edge">
<title>Node1&#45;&gt;Node26</title>
<g id="a_edge43_Node000001_Node000026"><a xlink:title=" ">
<path fill="none" stroke="#63b8ff" d="M797.46,-453.69C808.06,-445.05 821.14,-434.38 831.92,-425.6"/>
<polygon fill="#63b8ff" stroke="#63b8ff" points="833.96,-428.45 839.5,-419.42 829.54,-423.03 833.96,-428.45"/>
</a>
</g>
</g>
<!-- Node27 -->
<g id="Node000027" class="node">
<title>Node27</title>
<g id="a_Node000027"><a xlink:href="sock_2tcp_8h.html" target="_top" xlink:title="TCP sock definitions.">
<polygon fill="white" stroke="#666666" points="330.88,-191 246.62,-191 246.62,-170.25 330.88,-170.25 330.88,-191"/>
<text text-anchor="middle" x="288.75" y="-177.5" font-family="Helvetica,sans-Serif" font-size="10.00">net/sock/tcp.h</text>
</a>
</g>
</g>
<!-- Node1&#45;&gt;Node27 -->
<g id="edge44_Node000001_Node000027" class="edge">
<title>Node1&#45;&gt;Node27</title>
<g id="a_edge44_Node000001_Node000027"><a xlink:title=" ">
<path fill="none" stroke="#63b8ff" d="M714.15,-466.48C589.2,-458.31 323.75,-431.58 323.75,-351.88 323.75,-351.88 323.75,-351.88 323.75,-293.12 323.75,-259.93 309.46,-223.63 299.14,-201.74"/>
<polygon fill="#63b8ff" stroke="#63b8ff" points="302.29,-200.23 294.73,-192.8 296.01,-203.32 302.29,-200.23"/>
</a>
</g>
</g>
<!-- Node3 -->
<g id="Node000003" class="node">
<title>Node3</title>
<g id="a_Node000003"><a xlink:title=" ">
<polygon fill="#e0e0e0" stroke="#999999" points="603.25,-77.5 548.25,-77.5 548.25,-56.75 603.25,-56.75 603.25,-77.5"/>
<text text-anchor="middle" x="575.75" y="-64" font-family="Helvetica,sans-Serif" font-size="10.00">stddef.h</text>
</a>
</g>
</g>
<!-- Node2&#45;&gt;Node3 -->
<g id="edge2_Node000002_Node000003" class="edge">
<title>Node2&#45;&gt;Node3</title>
<g id="a_edge2_Node000002_Node000003"><a xlink:title=" ">
<path fill="none" stroke="#63b8ff" d="M749.32,-404.44C683.37,-399.05 521.86,-383.88 472.75,-361.25 432.09,-342.51 396.75,-339.9 396.75,-295.12 396.75,-295.12 396.75,-295.12 396.75,-236.38 396.75,-170.97 428.18,-156.18 477.75,-113.5 495.05,-98.6 518.07,-87.61 537.45,-80.18"/>
<polygon fill="#63b8ff" stroke="#63b8ff" points="538.45,-83.54 546.65,-76.83 536.06,-76.96 538.45,-83.54"/>
</a>
</g>
</g>
<!-- Node4 -->
<g id="Node000004" class="node">
<title>Node4</title>
<g id="a_Node000004"><a xlink:title=" ">
<polygon fill="#e0e0e0" stroke="#999999" points="931.12,-20.75 878.38,-20.75 878.38,0 931.12,0 931.12,-20.75"/>
<text text-anchor="middle" x="904.75" y="-7.25" font-family="Helvetica,sans-Serif" font-size="10.00">stdint.h</text>
</a>
</g>
</g>
<!-- Node2&#45;&gt;Node4 -->
<g id="edge3_Node000002_Node000004" class="edge">
<title>Node2&#45;&gt;Node4</title>
<g id="a_edge3_Node000002_Node000004"><a xlink:title=" ">
<path fill="none" stroke="#63b8ff" d="M806.35,-399.42C809.52,-398.67 812.7,-397.93 815.75,-397.25 929.64,-371.92 1330.75,-411.8 1330.75,-295.12 1330.75,-295.12 1330.75,-295.12 1330.75,-122.88 1330.75,-43.01 1046.96,-19.24 942.63,-13.2"/>
<polygon fill="#63b8ff" stroke="#63b8ff" points="943.09,-9.72 932.91,-12.66 942.7,-16.71 943.09,-9.72"/>
</a>
</g>
</g>
<!-- Node5 -->
<g id="Node000005" class="node">
<title>Node5</title>
<g id="a_Node000005"><a xlink:title=" ">
<polygon fill="#e0e0e0" stroke="#999999" points="547.25,-134.25 486.25,-134.25 486.25,-113.5 547.25,-113.5 547.25,-134.25"/>
<text text-anchor="middle" x="516.75" y="-120.75" font-family="Helvetica,sans-Serif" font-size="10.00">stdbool.h</text>
</a>
</g>
</g>
<!-- Node2&#45;&gt;Node5 -->
<g id="edge4_Node000002_Node000005" class="edge">
<title>Node2&#45;&gt;Node5</title>
<g id="a_edge4_Node000002_Node000005"><a xlink:title=" ">
<path fill="none" stroke="#63b8ff" d="M749.1,-403.56C666.66,-393.94 434.75,-361.03 434.75,-295.12 434.75,-295.12 434.75,-295.12 434.75,-236.38 434.75,-196.49 469.22,-161.46 493.46,-141.75"/>
<polygon fill="#63b8ff" stroke="#63b8ff" points="495.53,-144.57 501.27,-135.66 491.23,-139.05 495.53,-144.57"/>
</a>
</g>
</g>
<!-- Node6 -->
<g id="Node000006" class="node">
<title>Node6</title>
<g id="a_Node000006"><a xlink:href="architecture_8h.html" target="_top" xlink:title="Platform&#45;independent access to architecture details.">
<polygon fill="white" stroke="#666666" points="1181.5,-247.75 1098,-247.75 1098,-227 1181.5,-227 1181.5,-247.75"/>
<text text-anchor="middle" x="1139.75" y="-234.25" font-family="Helvetica,sans-Serif" font-size="10.00">architecture.h</text>
</a>
</g>
</g>
<!-- Node2&#45;&gt;Node6 -->
<g id="edge5_Node000002_Node000006" class="edge">
<title>Node2&#45;&gt;Node6</title>
<g id="a_edge5_Node000002_Node000006"><a xlink:title=" ">
<path fill="none" stroke="#63b8ff" d="M804.76,-396.85C828.45,-388.09 863.71,-374.59 893.75,-361.25 974.13,-325.54 1066.22,-277.59 1111.54,-253.51"/>
<polygon fill="#63b8ff" stroke="#63b8ff" points="1112.99,-256.7 1120.17,-248.91 1109.7,-250.53 1112.99,-256.7"/>
</a>
</g>
</g>
<!-- Node10 -->
<g id="Node000010" class="node">
<title>Node10</title>
<g id="a_Node000010"><a xlink:href="kernel__defines_8h.html" target="_top" xlink:title="Common macros and compiler attributes/pragmas configuration.">
<polygon fill="white" stroke="#666666" points="946.88,-191 850.62,-191 850.62,-170.25 946.88,-170.25 946.88,-191"/>
<text text-anchor="middle" x="898.75" y="-177.5" font-family="Helvetica,sans-Serif" font-size="10.00">kernel_defines.h</text>
</a>
</g>
</g>
<!-- Node2&#45;&gt;Node10 -->
<g id="edge10_Node000002_Node000010" class="edge">
<title>Node2&#45;&gt;Node10</title>
<g id="a_edge10_Node000002_Node000010"><a xlink:title=" ">
<path fill="none" stroke="#63b8ff" d="M795.51,-396.84C808.57,-388.82 825.88,-376.35 836.75,-361.25 872.79,-311.17 889.26,-238.39 895.52,-202.81"/>
<polygon fill="#63b8ff" stroke="#63b8ff" points="898.97,-203.42 897.14,-192.99 892.06,-202.29 898.97,-203.42"/>
</a>
</g>
</g>
<!-- Node16 -->
<g id="Node000016" class="node">
<title>Node16</title>
<g id="a_Node000016"><a xlink:href="list_8h.html" target="_top" xlink:title="Intrusive linked list.">
<polygon fill="white" stroke="#666666" points="744.75,-134.25 704.75,-134.25 704.75,-113.5 744.75,-113.5 744.75,-134.25"/>
<text text-anchor="middle" x="724.75" y="-120.75" font-family="Helvetica,sans-Serif" font-size="10.00">list.h</text>
</a>
</g>
</g>
<!-- Node2&#45;&gt;Node16 -->
<g id="edge21_Node000002_Node000016" class="edge">
<title>Node2&#45;&gt;Node16</title>
<g id="a_edge21_Node000002_Node000016"><a xlink:title=" ">
<path fill="none" stroke="#63b8ff" d="M784.58,-397.01C797.17,-378.33 822.75,-335.41 822.75,-295.12 822.75,-295.12 822.75,-295.12 822.75,-236.38 822.75,-193.49 781.35,-159.25 752.37,-140.54"/>
<polygon fill="#63b8ff" stroke="#63b8ff" points="754.36,-137.65 744.01,-135.37 750.68,-143.6 754.36,-137.65"/>
</a>
</g>
</g>
<!-- Node17 -->
<g id="Node000017" class="node">
<title>Node17</title>
<g id="a_Node000017"><a xlink:href="core_2include_2thread_8h.html" target="_top" xlink:title="Threading API.">
<polygon fill="white" stroke="#666666" points="762,-361.25 705.5,-361.25 705.5,-340.5 762,-340.5 762,-361.25"/>
<text text-anchor="middle" x="733.75" y="-347.75" font-family="Helvetica,sans-Serif" font-size="10.00">thread.h</text>
</a>
</g>
</g>
<!-- Node2&#45;&gt;Node17 -->
<g id="edge22_Node000002_Node000017" class="edge">
<title>Node2&#45;&gt;Node17</title>
<g id="a_edge22_Node000002_Node000017"><a xlink:title=" ">
<path fill="none" stroke="#63b8ff" d="M769.88,-396.84C764,-389.52 755.78,-379.29 748.67,-370.44"/>
<polygon fill="#63b8ff" stroke="#63b8ff" points="751.49,-368.36 742.5,-362.76 746.03,-372.75 751.49,-368.36"/>
</a>
</g>
</g>
<!-- Node6&#45;&gt;Node4 -->
<g id="edge6_Node000006_Node000004" class="edge">
<title>Node6&#45;&gt;Node4</title>
<g id="a_edge6_Node000006_Node000004"><a xlink:title=" ">
<path fill="none" stroke="#63b8ff" d="M1181.69,-232.17C1228.45,-225.52 1294.92,-209.09 1273.75,-170.25 1207.58,-48.84 1022.6,-20.19 942.51,-13.45"/>
<polygon fill="#63b8ff" stroke="#63b8ff" points="943.23,-9.99 932.99,-12.72 942.69,-16.97 943.23,-9.99"/>
</a>
</g>
</g>
<!-- Node7 -->
<g id="Node000007" class="node">
<title>Node7</title>
<g id="a_Node000007"><a xlink:href="inttypes_8h.html" target="_top" xlink:title="Adds include for missing inttype definitions.">
<polygon fill="white" stroke="#666666" points="1067.12,-191 1002.38,-191 1002.38,-170.25 1067.12,-170.25 1067.12,-191"/>
<text text-anchor="middle" x="1034.75" y="-177.5" font-family="Helvetica,sans-Serif" font-size="10.00">inttypes.h</text>
</a>
</g>
</g>
<!-- Node6&#45;&gt;Node7 -->
<g id="edge7_Node000006_Node000007" class="edge">
<title>Node6&#45;&gt;Node7</title>
<g id="a_edge7_Node000006_Node000007"><a xlink:title=" ">
<path fill="none" stroke="#63b8ff" d="M1120.98,-226.59C1105,-218.26 1081.8,-206.16 1063.49,-196.61"/>
<polygon fill="#63b8ff" stroke="#63b8ff" points="1065.19,-193.55 1054.7,-192.03 1061.95,-199.76 1065.19,-193.55"/>
</a>
</g>
</g>
<!-- Node8 -->
<g id="Node000008" class="node">
<title>Node8</title>
<g id="a_Node000008"><a xlink:title=" ">
<polygon fill="#e0e0e0" stroke="#999999" points="1265.12,-191 1212.38,-191 1212.38,-170.25 1265.12,-170.25 1265.12,-191"/>
<text text-anchor="middle" x="1238.75" y="-177.5" font-family="Helvetica,sans-Serif" font-size="10.00">limits.h</text>
</a>
</g>
</g>
<!-- Node6&#45;&gt;Node8 -->
<g id="edge8_Node000006_Node000008" class="edge">
<title>Node6&#45;&gt;Node8</title>
<g id="a_edge8_Node000006_Node000008"><a xlink:title=" ">
<path fill="none" stroke="#63b8ff" d="M1157.45,-226.59C1172.37,-218.33 1193.98,-206.38 1211.17,-196.88"/>
<polygon fill="#63b8ff" stroke="#63b8ff" points="1212.82,-199.96 1219.88,-192.06 1209.43,-193.84 1212.82,-199.96"/>
</a>
</g>
</g>
<!-- Node9 -->
<g id="Node000009" class="node">
<title>Node9</title>
<g id="a_Node000009"><a xlink:title=" ">
<polygon fill="#e0e0e0" stroke="#999999" points="1194.62,-191 1084.88,-191 1084.88,-170.25 1194.62,-170.25 1194.62,-191"/>
<text text-anchor="middle" x="1139.75" y="-177.5" font-family="Helvetica,sans-Serif" font-size="10.00">architecture_arch.h</text>
</a>
</g>
</g>
<!-- Node6&#45;&gt;Node9 -->
<g id="edge9_Node000006_Node000009" class="edge">
<title>Node6&#45;&gt;Node9</title>
<g id="a_edge9_Node000006_Node000009"><a xlink:title=" ">
<path fill="none" stroke="#63b8ff" d="M1139.75,-226.59C1139.75,-219.97 1139.75,-210.97 1139.75,-202.77"/>
<polygon fill="#63b8ff" stroke="#63b8ff" points="1143.25,-202.84 1139.75,-192.84 1136.25,-202.84 1143.25,-202.84"/>
</a>
</g>
</g>
<!-- Node11 -->
<g id="Node000011" class="node">
<title>Node11</title>
<g id="a_Node000011"><a xlink:href="modules_8h.html" target="_top" xlink:title="Common macros and compiler attributes/pragmas configuration.">
<polygon fill="white" stroke="#666666" points="994.25,-134.25 927.25,-134.25 927.25,-113.5 994.25,-113.5 994.25,-134.25"/>
<text text-anchor="middle" x="960.75" y="-120.75" font-family="Helvetica,sans-Serif" font-size="10.00">modules.h</text>
</a>
</g>
</g>
<!-- Node10&#45;&gt;Node11 -->
<g id="edge11_Node000010_Node000011" class="edge">
<title>Node10&#45;&gt;Node11</title>
<g id="a_edge11_Node000010_Node000011"><a xlink:title=" ">
<path fill="none" stroke="#63b8ff" d="M909.83,-169.84C918.56,-162.13 930.94,-151.2 941.31,-142.04"/>
<polygon fill="#63b8ff" stroke="#63b8ff" points="943.45,-144.82 948.63,-135.58 938.81,-139.58 943.45,-144.82"/>
</a>
</g>
</g>
<!-- Node12 -->
<g id="Node000012" class="node">
<title>Node12</title>
<g id="a_Node000012"><a xlink:href="riot__version_8h.html" target="_top" xlink:title="Common macros and compiler attributes/pragmas configuration.">
<polygon fill="white" stroke="#666666" points="946.12,-77.5 863.38,-77.5 863.38,-56.75 946.12,-56.75 946.12,-77.5"/>
<text text-anchor="middle" x="904.75" y="-64" font-family="Helvetica,sans-Serif" font-size="10.00">riot_version.h</text>
</a>
</g>
</g>
<!-- Node10&#45;&gt;Node12 -->
<g id="edge12_Node000010_Node000012" class="edge">
<title>Node10&#45;&gt;Node12</title>
<g id="a_edge12_Node000010_Node000012"><a xlink:title=" ">
<path fill="none" stroke="#63b8ff" d="M899.26,-170.12C900.22,-152.27 902.32,-113.36 903.62,-89.09"/>
<polygon fill="#63b8ff" stroke="#63b8ff" points="907.1,-89.61 904.14,-79.44 900.11,-89.23 907.1,-89.61"/>
</a>
</g>
</g>
<!-- Node13 -->
<g id="Node000013" class="node">
<title>Node13</title>
<g id="a_Node000013"><a xlink:href="compiler__hints_8h.html" target="_top" xlink:title="Common macros and compiler attributes/pragmas configuration.">
<polygon fill="white" stroke="#666666" points="1109.25,-134.25 1012.25,-134.25 1012.25,-113.5 1109.25,-113.5 1109.25,-134.25"/>
<text text-anchor="middle" x="1060.75" y="-120.75" font-family="Helvetica,sans-Serif" font-size="10.00">compiler_hints.h</text>
</a>
</g>
</g>
<!-- Node10&#45;&gt;Node13 -->
<g id="edge14_Node000010_Node000013" class="edge">
<title>Node10&#45;&gt;Node13</title>
<g id="a_edge14_Node000010_Node000013"><a xlink:title=" ">
<path fill="none" stroke="#63b8ff" d="M927.71,-169.84C953.78,-161.03 992.31,-148 1021.21,-138.24"/>
<polygon fill="#63b8ff" stroke="#63b8ff" points="1021.98,-141.67 1030.33,-135.16 1019.74,-135.04 1021.98,-141.67"/>
</a>
</g>
</g>
<!-- Node15 -->
<g id="Node000015" class="node">
<title>Node15</title>
<g id="a_Node000015"><a xlink:href="container_8h.html" target="_top" xlink:title="Common macros and compiler attributes/pragmas configuration.">
<polygon fill="white" stroke="#666666" points="871.12,-134.25 800.38,-134.25 800.38,-113.5 871.12,-113.5 871.12,-134.25"/>
<text text-anchor="middle" x="835.75" y="-120.75" font-family="Helvetica,sans-Serif" font-size="10.00">container.h</text>
</a>
</g>
</g>
<!-- Node10&#45;&gt;Node15 -->
<g id="edge18_Node000010_Node000015" class="edge">
<title>Node10&#45;&gt;Node15</title>
<g id="a_edge18_Node000010_Node000015"><a xlink:title=" ">
<path fill="none" stroke="#63b8ff" d="M887.49,-169.84C878.62,-162.13 866.04,-151.2 855.5,-142.04"/>
<polygon fill="#63b8ff" stroke="#63b8ff" points="857.9,-139.49 848.06,-135.57 853.31,-144.77 857.9,-139.49"/>
</a>
</g>
</g>
<!-- Node12&#45;&gt;Node4 -->
<g id="edge13_Node000012_Node000004" class="edge">
<title>Node12&#45;&gt;Node4</title>
<g id="a_edge13_Node000012_Node000004"><a xlink:title=" ">
<path fill="none" stroke="#63b8ff" d="M904.75,-56.34C904.75,-49.72 904.75,-40.72 904.75,-32.52"/>
<polygon fill="#63b8ff" stroke="#63b8ff" points="908.25,-32.59 904.75,-22.59 901.25,-32.59 908.25,-32.59"/>
</a>
</g>
</g>
<!-- Node13&#45;&gt;Node4 -->
<g id="edge17_Node000013_Node000004" class="edge">
<title>Node13&#45;&gt;Node4</title>
<g id="a_edge17_Node000013_Node000004"><a xlink:title=" ">
<path fill="none" stroke="#63b8ff" d="M1047.18,-113.18C1020.44,-94.06 960.69,-51.36 927.71,-27.79"/>
<polygon fill="#63b8ff" stroke="#63b8ff" points="929.8,-24.98 919.63,-22.01 925.73,-30.67 929.8,-24.98"/>
</a>
</g>
</g>
<!-- Node14 -->
<g id="Node000014" class="node">
<title>Node14</title>
<g id="a_Node000014"><a xlink:href="assert_8h.html" target="_top" xlink:title="POSIX.1&#45;2008 compliant version of the assert macro.">
<polygon fill="white" stroke="#666666" points="1088.25,-77.5 1033.25,-77.5 1033.25,-56.75 1088.25,-56.75 1088.25,-77.5"/>
<text text-anchor="middle" x="1060.75" y="-64" font-family="Helvetica,sans-Serif" font-size="10.00">assert.h</text>
</a>
</g>
</g>
<!-- Node13&#45;&gt;Node14 -->
<g id="edge15_Node000013_Node000014" class="edge">
<title>Node13&#45;&gt;Node14</title>
<g id="a_edge15_Node000013_Node000014"><a xlink:title=" ">
<path fill="none" stroke="#63b8ff" d="M1060.75,-113.09C1060.75,-106.47 1060.75,-97.47 1060.75,-89.27"/>
<polygon fill="#63b8ff" stroke="#63b8ff" points="1064.25,-89.34 1060.75,-79.34 1057.25,-89.34 1064.25,-89.34"/>
</a>
</g>
</g>
<!-- Node14&#45;&gt;Node4 -->
<g id="edge16_Node000014_Node000004" class="edge">
<title>Node14&#45;&gt;Node4</title>
<g id="a_edge16_Node000014_Node000004"><a xlink:title=" ">
<path fill="none" stroke="#63b8ff" d="M1032.86,-56.34C1007.56,-47.46 970.06,-34.3 942.17,-24.51"/>
<polygon fill="#63b8ff" stroke="#63b8ff" points="943.64,-21.31 933.04,-21.31 941.32,-27.92 943.64,-21.31"/>
</a>
</g>
</g>
<!-- Node15&#45;&gt;Node3 -->
<g id="edge19_Node000015_Node000003" class="edge">
<title>Node15&#45;&gt;Node3</title>
<g id="a_edge19_Node000015_Node000003"><a xlink:title=" ">
<path fill="none" stroke="#63b8ff" d="M800.14,-115.38C751.5,-105.13 664.6,-86.84 614.41,-76.27"/>
<polygon fill="#63b8ff" stroke="#63b8ff" points="615.38,-72.89 604.87,-74.26 613.93,-79.74 615.38,-72.89"/>
</a>
</g>
</g>
<!-- Node15&#45;&gt;Node4 -->
<g id="edge20_Node000015_Node000004" class="edge">
<title>Node15&#45;&gt;Node4</title>
<g id="a_edge20_Node000015_Node000004"><a xlink:title=" ">
<path fill="none" stroke="#63b8ff" d="M836.84,-113.23C838.72,-99.72 843.51,-74.8 854.75,-56.75 861.63,-45.7 871.94,-35.71 881.42,-27.92"/>
<polygon fill="#63b8ff" stroke="#63b8ff" points="883.5,-30.74 889.26,-21.85 879.21,-25.21 883.5,-30.74"/>
</a>
</g>
</g>
<!-- Node18 -->
<g id="Node000018" class="node">
<title>Node18</title>
<g id="a_Node000018"><a xlink:href="clist_8h.html" target="_top" xlink:title="Circular linked list.">
<polygon fill="white" stroke="#666666" points="756.38,-191 711.12,-191 711.12,-170.25 756.38,-170.25 756.38,-191"/>
<text text-anchor="middle" x="733.75" y="-177.5" font-family="Helvetica,sans-Serif" font-size="10.00">clist.h</text>
</a>
</g>
</g>
<!-- Node17&#45;&gt;Node18 -->
<g id="edge23_Node000017_Node000018" class="edge">
<title>Node17&#45;&gt;Node18</title>
<g id="a_edge23_Node000017_Node000018"><a xlink:title=" ">
<path fill="none" stroke="#63b8ff" d="M743.42,-340.07C751.14,-331.49 761.38,-318.28 765.75,-304.5 777.19,-268.42 758.89,-225.46 745.6,-201.08"/>
<polygon fill="#63b8ff" stroke="#63b8ff" points="748.74,-199.52 740.72,-192.59 742.67,-203.01 748.74,-199.52"/>
</a>
</g>
</g>
<!-- Node19 -->
<g id="Node000019" class="node">
<title>Node19</title>
<g id="a_Node000019"><a xlink:href="cib_8h.html" target="_top" xlink:title="Circular integer buffer interface.">
<polygon fill="white" stroke="#666666" points="975.38,-247.75 936.12,-247.75 936.12,-227 975.38,-227 975.38,-247.75"/>
<text text-anchor="middle" x="955.75" y="-234.25" font-family="Helvetica,sans-Serif" font-size="10.00">cib.h</text>
</a>
</g>
</g>
<!-- Node17&#45;&gt;Node19 -->
<g id="edge27_Node000017_Node000019" class="edge">
<title>Node17&#45;&gt;Node19</title>
<g id="a_edge27_Node000017_Node000019"><a xlink:title=" ">
<path fill="none" stroke="#63b8ff" d="M753.06,-340.18C791.93,-320.65 879.83,-276.51 926.06,-253.29"/>
<polygon fill="#63b8ff" stroke="#63b8ff" points="927.61,-256.43 934.97,-248.81 924.46,-250.17 927.61,-256.43"/>
</a>
</g>
</g>
<!-- Node20 -->
<g id="Node000020" class="node">
<title>Node20</title>
<g id="a_Node000020"><a xlink:href="core_2include_2msg_8h.html" target="_top" xlink:title="Messaging API for inter process communication.">
<polygon fill="white" stroke="#666666" points="756.75,-304.5 710.75,-304.5 710.75,-283.75 756.75,-283.75 756.75,-304.5"/>
<text text-anchor="middle" x="733.75" y="-291" font-family="Helvetica,sans-Serif" font-size="10.00">msg.h</text>
</a>
</g>
</g>
<!-- Node17&#45;&gt;Node20 -->
<g id="edge29_Node000017_Node000020" class="edge">
<title>Node17&#45;&gt;Node20</title>
<g id="a_edge29_Node000017_Node000020"><a xlink:title=" ">
<path fill="none" stroke="#63b8ff" d="M733.75,-340.09C733.75,-333.47 733.75,-324.47 733.75,-316.27"/>
<polygon fill="#63b8ff" stroke="#63b8ff" points="737.25,-316.34 733.75,-306.34 730.25,-316.34 737.25,-316.34"/>
</a>
</g>
</g>
<!-- Node21 -->
<g id="Node000021" class="node">
<title>Node21</title>
<g id="a_Node000021"><a xlink:href="sched_8h.html" target="_top" xlink:title="Scheduler API definition.">
<polygon fill="white" stroke="#666666" points="714.5,-247.75 661,-247.75 661,-227 714.5,-227 714.5,-247.75"/>
<text text-anchor="middle" x="687.75" y="-234.25" font-family="Helvetica,sans-Serif" font-size="10.00">sched.h</text>
</a>
</g>
</g>
<!-- Node17&#45;&gt;Node21 -->
<g id="edge38_Node000017_Node000021" class="edge">
<title>Node17&#45;&gt;Node21</title>
<g id="a_edge38_Node000017_Node000021"><a xlink:title=" ">
<path fill="none" stroke="#63b8ff" d="M725.1,-340.14C717.79,-331.41 707.61,-317.93 701.75,-304.5 695.49,-290.16 691.95,-272.81 690,-259.48"/>
<polygon fill="#63b8ff" stroke="#63b8ff" points="693.49,-259.15 688.77,-249.67 686.54,-260.03 693.49,-259.15"/>
</a>
</g>
</g>
<!-- Node23 -->
<g id="Node000023" class="node">
<title>Node23</title>
<g id="a_Node000023"><a xlink:href="thread__config_8h.html" target="_top" xlink:title="Thread configuration defines.">
<polygon fill="white" stroke="#666666" points="654.62,-304.5 562.88,-304.5 562.88,-283.75 654.62,-283.75 654.62,-304.5"/>
<text text-anchor="middle" x="608.75" y="-291" font-family="Helvetica,sans-Serif" font-size="10.00">thread_config.h</text>
</a>
</g>
</g>
<!-- Node17&#45;&gt;Node23 -->
<g id="edge39_Node000017_Node000023" class="edge">
<title>Node17&#45;&gt;Node23</title>
<g id="a_edge39_Node000017_Node000023"><a xlink:title=" ">
<path fill="none" stroke="#63b8ff" d="M711.4,-340.09C691.94,-331.56 663.46,-319.09 641.44,-309.44"/>
<polygon fill="#63b8ff" stroke="#63b8ff" points="642.85,-306.24 632.29,-305.44 640.05,-312.65 642.85,-306.24"/>
</a>
</g>
</g>
<!-- Node25 -->
<g id="Node000025" class="node">
<title>Node25</title>
<g id="a_Node000025"><a xlink:title=" ">
<polygon fill="#e0e0e0" stroke="#999999" points="545.12,-304.5 462.38,-304.5 462.38,-283.75 545.12,-283.75 545.12,-304.5"/>
<text text-anchor="middle" x="503.75" y="-291" font-family="Helvetica,sans-Serif" font-size="10.00">thread_arch.h</text>
</a>
</g>
</g>
<!-- Node17&#45;&gt;Node25 -->
<g id="edge42_Node000017_Node000025" class="edge">
<title>Node17&#45;&gt;Node25</title>
<g id="a_edge42_Node000017_Node000025"><a xlink:title=" ">
<path fill="none" stroke="#63b8ff" d="M705.09,-343.05C667.82,-334.18 602.04,-318.52 555.84,-307.52"/>
<polygon fill="#63b8ff" stroke="#63b8ff" points="556.85,-304.17 546.31,-305.26 555.23,-310.98 556.85,-304.17"/>
</a>
</g>
</g>
<!-- Node18&#45;&gt;Node3 -->
<g id="edge25_Node000018_Node000003" class="edge">
<title>Node18&#45;&gt;Node3</title>
<g id="a_edge25_Node000018_Node000003"><a xlink:title=" ">
<path fill="none" stroke="#63b8ff" d="M720,-169.93C692.81,-150.73 631.89,-107.74 598.57,-84.23"/>
<polygon fill="#63b8ff" stroke="#63b8ff" points="601,-81.66 590.81,-78.75 596.96,-87.38 601,-81.66"/>
</a>
</g>
</g>
<!-- Node18&#45;&gt;Node5 -->
<g id="edge24_Node000018_Node000005" class="edge">
<title>Node18&#45;&gt;Node5</title>
<g id="a_edge24_Node000018_Node000005"><a xlink:title=" ">
<path fill="none" stroke="#63b8ff" d="M710.77,-172.52C708.07,-171.73 705.35,-170.96 702.75,-170.25 653.49,-156.8 596.38,-143.16 558.57,-134.39"/>
<polygon fill="#63b8ff" stroke="#63b8ff" points="559.5,-131.01 548.97,-132.17 557.92,-137.83 559.5,-131.01"/>
</a>
</g>
</g>
<!-- Node18&#45;&gt;Node16 -->
<g id="edge26_Node000018_Node000016" class="edge">
<title>Node18&#45;&gt;Node16</title>
<g id="a_edge26_Node000018_Node000016"><a xlink:title=" ">
<path fill="none" stroke="#63b8ff" d="M732.14,-169.84C731.04,-163.14 729.54,-154.01 728.18,-145.73"/>
<polygon fill="#63b8ff" stroke="#63b8ff" points="731.67,-145.37 726.59,-136.07 724.76,-146.51 731.67,-145.37"/>
</a>
</g>
</g>
<!-- Node19&#45;&gt;Node14 -->
<g id="edge28_Node000019_Node000014" class="edge">
<title>Node19&#45;&gt;Node14</title>
<g id="a_edge28_Node000019_Node000014"><a xlink:title=" ">
<path fill="none" stroke="#63b8ff" d="M958.69,-226.72C963.58,-212.27 974.78,-185.12 993.75,-170.25 1039.25,-134.58 1083.98,-180.44 1118.75,-134.25 1132.4,-116.11 1110.64,-96.74 1089.98,-83.68"/>
<polygon fill="#63b8ff" stroke="#63b8ff" points="1091.78,-80.68 1081.4,-78.59 1088.21,-86.7 1091.78,-80.68"/>
</a>
</g>
</g>
<!-- Node20&#45;&gt;Node4 -->
<g id="edge30_Node000020_Node000004" class="edge">
<title>Node20&#45;&gt;Node4</title>
<g id="a_edge30_Node000020_Node000004"><a xlink:title=" ">
<path fill="none" stroke="#63b8ff" d="M736.76,-283.44C748.02,-247.21 787.31,-121.3 791.75,-113.5 813.09,-76 853.12,-44.82 879.36,-27.13"/>
<polygon fill="#63b8ff" stroke="#63b8ff" points="880.96,-30.27 887.41,-21.86 877.12,-24.41 880.96,-30.27"/>
</a>
</g>
</g>
<!-- Node20&#45;&gt;Node5 -->
<g id="edge31_Node000020_Node000005" class="edge">
<title>Node20&#45;&gt;Node5</title>
<g id="a_edge31_Node000020_Node000005"><a xlink:title=" ">
<path fill="none" stroke="#63b8ff" d="M713.99,-283.38C697.03,-274.75 672.17,-261.42 651.75,-247.75 618.18,-225.28 610.64,-218.18 580.75,-191 563.69,-175.48 545.51,-156.43 532.91,-142.78"/>
<polygon fill="#63b8ff" stroke="#63b8ff" points="535.85,-140.81 526.52,-135.79 530.68,-145.53 535.85,-140.81"/>
</a>
</g>
</g>
<!-- Node20&#45;&gt;Node21 -->
<g id="edge32_Node000020_Node000021" class="edge">
<title>Node20&#45;&gt;Node21</title>
<g id="a_edge32_Node000020_Node000021"><a xlink:title=" ">
<path fill="none" stroke="#63b8ff" d="M725.53,-283.34C719.31,-275.94 710.6,-265.57 703.11,-256.66"/>
<polygon fill="#63b8ff" stroke="#63b8ff" points="705.99,-254.64 696.88,-249.24 700.63,-259.15 705.99,-254.64"/>
</a>
</g>
</g>
<!-- Node21&#45;&gt;Node3 -->
<g id="edge33_Node000021_Node000003" class="edge">
<title>Node21&#45;&gt;Node3</title>
<g id="a_edge33_Node000021_Node000003"><a xlink:title=" ">
<path fill="none" stroke="#63b8ff" d="M660.91,-230.51C639.53,-224.38 610.63,-212.55 594.75,-191 572.63,-160.98 571.71,-115.53 573.45,-89.14"/>
<polygon fill="#63b8ff" stroke="#63b8ff" points="576.92,-89.64 574.31,-79.37 569.95,-89.03 576.92,-89.64"/>
</a>
</g>
</g>
<!-- Node21&#45;&gt;Node7 -->
<g id="edge34_Node000021_Node000007" class="edge">
<title>Node21&#45;&gt;Node7</title>
<g id="a_edge34_Node000021_Node000007"><a xlink:title=" ">
<path fill="none" stroke="#63b8ff" d="M714.98,-232.08C774.81,-222.64 918.17,-200.02 990.88,-188.55"/>
<polygon fill="#63b8ff" stroke="#63b8ff" points="991.09,-192.06 1000.42,-187.04 990,-185.14 991.09,-192.06"/>
</a>
</g>
</g>
<!-- Node21&#45;&gt;Node10 -->
<g id="edge35_Node000021_Node000010" class="edge">
<title>Node21&#45;&gt;Node10</title>
<g id="a_edge35_Node000021_Node000010"><a xlink:title=" ">
<path fill="none" stroke="#63b8ff" d="M714.9,-229.33C748.96,-220.49 807.96,-205.18 849.93,-194.29"/>
<polygon fill="#63b8ff" stroke="#63b8ff" points="850.75,-197.7 859.55,-191.8 848.99,-190.92 850.75,-197.7"/>
</a>
</g>
</g>
<!-- Node21&#45;&gt;Node18 -->
<g id="edge37_Node000021_Node000018" class="edge">
<title>Node21&#45;&gt;Node18</title>
<g id="a_edge37_Node000021_Node000018"><a xlink:title=" ">
<path fill="none" stroke="#63b8ff" d="M695.97,-226.59C702.19,-219.19 710.9,-208.82 718.39,-199.91"/>
<polygon fill="#63b8ff" stroke="#63b8ff" points="720.87,-202.4 724.62,-192.49 715.51,-197.89 720.87,-202.4"/>
</a>
</g>
</g>
<!-- Node22 -->
<g id="Node000022" class="node">
<title>Node22</title>
<g id="a_Node000022"><a xlink:href="native__sched_8h.html" target="_top" xlink:title="Add definitions required on the native board.">
<polygon fill="white" stroke="#666666" points="693.5,-191 604,-191 604,-170.25 693.5,-170.25 693.5,-191"/>
<text text-anchor="middle" x="648.75" y="-177.5" font-family="Helvetica,sans-Serif" font-size="10.00">native_sched.h</text>
</a>
</g>
</g>
<!-- Node21&#45;&gt;Node22 -->
<g id="edge36_Node000021_Node000022" class="edge">
<title>Node21&#45;&gt;Node22</title>
<g id="a_edge36_Node000021_Node000022"><a xlink:title=" ">
<path fill="none" stroke="#63b8ff" d="M680.78,-226.59C675.62,-219.35 668.43,-209.26 662.18,-200.47"/>
<polygon fill="#63b8ff" stroke="#63b8ff" points="665.19,-198.68 656.54,-192.56 659.49,-202.74 665.19,-198.68"/>
</a>
</g>
</g>
<!-- Node23&#45;&gt;Node21 -->
<g id="edge41_Node000023_Node000021" class="edge">
<title>Node23&#45;&gt;Node21</title>
<g id="a_edge41_Node000023_Node000021"><a xlink:title=" ">
<path fill="none" stroke="#63b8ff" d="M622.87,-283.34C634.44,-275.32 651.05,-263.81 664.57,-254.44"/>
<polygon fill="#63b8ff" stroke="#63b8ff" points="666.28,-257.51 672.5,-248.94 662.29,-251.76 666.28,-257.51"/>
</a>
</g>
</g>
<!-- Node24 -->
<g id="Node000024" class="node">
<title>Node24</title>
<g id="a_Node000024"><a xlink:title=" ">
<polygon fill="#e0e0e0" stroke="#999999" points="530.62,-247.75 462.88,-247.75 462.88,-227 530.62,-227 530.62,-247.75"/>
<text text-anchor="middle" x="496.75" y="-234.25" font-family="Helvetica,sans-Serif" font-size="10.00">cpu_conf.h</text>
</a>
</g>
</g>
<!-- Node23&#45;&gt;Node24 -->
<g id="edge40_Node000023_Node000024" class="edge">
<title>Node23&#45;&gt;Node24</title>
<g id="a_edge40_Node000023_Node000024"><a xlink:title=" ">
<path fill="none" stroke="#63b8ff" d="M588.73,-283.34C571.53,-274.93 546.47,-262.68 526.85,-253.09"/>
<polygon fill="#63b8ff" stroke="#63b8ff" points="528.48,-249.99 517.96,-248.74 525.41,-256.28 528.48,-249.99"/>
</a>
</g>
</g>
<!-- Node27&#45;&gt;Node4 -->
<g id="edge46_Node000027_Node000004" class="edge">
<title>Node27&#45;&gt;Node4</title>
<g id="a_edge46_Node000027_Node000004"><a xlink:title=" ">
<path fill="none" stroke="#63b8ff" d="M315.4,-169.89C338.35,-161.26 372.18,-147.94 400.75,-134.25 464.54,-103.69 472.52,-78.74 539.75,-56.75 654.54,-19.2 798.96,-12.37 866.56,-11.36"/>
<polygon fill="#63b8ff" stroke="#63b8ff" points="866.41,-14.86 876.37,-11.25 866.33,-7.86 866.41,-14.86"/>
</a>
</g>
</g>
<!-- Node28 -->
<g id="Node000028" class="node">
<title>Node28</title>
<g id="a_Node000028"><a xlink:href="errno_8h.html" target="_top" xlink:title=" ">
<polygon fill="white" stroke="#666666" points="238,-134.25 187.5,-134.25 187.5,-113.5 238,-113.5 238,-134.25"/>
<text text-anchor="middle" x="212.75" y="-120.75" font-family="Helvetica,sans-Serif" font-size="10.00">errno.h</text>
</a>
</g>
</g>
<!-- Node27&#45;&gt;Node28 -->
<g id="edge45_Node000027_Node000028" class="edge">
<title>Node27&#45;&gt;Node28</title>
<g id="a_edge45_Node000027_Node000028"><a xlink:title=" ">
<path fill="none" stroke="#63b8ff" d="M275.16,-169.84C264.14,-161.9 248.36,-150.53 235.43,-141.21"/>
<polygon fill="#63b8ff" stroke="#63b8ff" points="237.61,-138.47 227.45,-135.46 233.52,-144.15 237.61,-138.47"/>
</a>
</g>
</g>
<!-- Node29 -->
<g id="Node000029" class="node">
<title>Node29</title>
<g id="a_Node000029"><a xlink:title=" ">
<polygon fill="#e0e0e0" stroke="#999999" points="391.75,-134.25 339.75,-134.25 339.75,-113.5 391.75,-113.5 391.75,-134.25"/>
<text text-anchor="middle" x="365.75" y="-120.75" font-family="Helvetica,sans-Serif" font-size="10.00">stdlib.h</text>
</a>
</g>
</g>
<!-- Node27&#45;&gt;Node29 -->
<g id="edge47_Node000027_Node000029" class="edge">
<title>Node27&#45;&gt;Node29</title>
<g id="a_edge47_Node000027_Node000029"><a xlink:title=" ">
<path fill="none" stroke="#63b8ff" d="M302.52,-169.84C313.68,-161.9 329.67,-150.53 342.77,-141.21"/>
<polygon fill="#63b8ff" stroke="#63b8ff" points="344.75,-144.1 350.87,-135.46 340.69,-138.4 344.75,-144.1"/>
</a>
</g>
</g>
<!-- Node30 -->
<g id="Node000030" class="node">
<title>Node30</title>
<g id="a_Node000030"><a xlink:title=" ">
<polygon fill="#e0e0e0" stroke="#999999" points="71.5,-134.25 0,-134.25 0,-113.5 71.5,-113.5 71.5,-134.25"/>
<text text-anchor="middle" x="35.75" y="-120.75" font-family="Helvetica,sans-Serif" font-size="10.00">sys/types.h</text>
</a>
</g>
</g>
<!-- Node27&#45;&gt;Node30 -->
<g id="edge48_Node000027_Node000030" class="edge">
<title>Node27&#45;&gt;Node30</title>
<g id="a_edge48_Node000027_Node000030"><a xlink:title=" ">
<path fill="none" stroke="#63b8ff" d="M246.4,-170.46C201.18,-160.67 129.69,-145.2 82.76,-135.05"/>
<polygon fill="#63b8ff" stroke="#63b8ff" points="83.67,-131.66 73.15,-132.97 82.19,-138.51 83.67,-131.66"/>
</a>
</g>
</g>
<!-- Node31 -->
<g id="Node000031" class="node">
<title>Node31</title>
<g id="a_Node000031"><a xlink:href="sock_8h.html" target="_top" xlink:title="Common sock API definitions.">
<polygon fill="white" stroke="#666666" points="321.88,-134.25 255.62,-134.25 255.62,-113.5 321.88,-113.5 321.88,-134.25"/>
<text text-anchor="middle" x="288.75" y="-120.75" font-family="Helvetica,sans-Serif" font-size="10.00">net/sock.h</text>
</a>
</g>
</g>
<!-- Node27&#45;&gt;Node31 -->
<g id="edge49_Node000027_Node000031" class="edge">
<title>Node27&#45;&gt;Node31</title>
<g id="a_edge49_Node000027_Node000031"><a xlink:title=" ">
<path fill="none" stroke="#63b8ff" d="M288.75,-169.84C288.75,-163.22 288.75,-154.22 288.75,-146.02"/>
<polygon fill="#63b8ff" stroke="#63b8ff" points="292.25,-146.09 288.75,-136.09 285.25,-146.09 292.25,-146.09"/>
</a>
</g>
</g>
<!-- Node33 -->
<g id="Node000033" class="node">
<title>Node33</title>
<g id="a_Node000033"><a xlink:title=" ">
<polygon fill="#e0e0e0" stroke="#999999" points="169.62,-134.25 89.88,-134.25 89.88,-113.5 169.62,-113.5 169.62,-134.25"/>
<text text-anchor="middle" x="129.75" y="-120.75" font-family="Helvetica,sans-Serif" font-size="10.00">sock_types.h</text>
</a>
</g>
</g>
<!-- Node27&#45;&gt;Node33 -->
<g id="edge53_Node000027_Node000033" class="edge">
<title>Node27&#45;&gt;Node33</title>
<g id="a_edge53_Node000027_Node000033"><a xlink:title=" ">
<path fill="none" stroke="#63b8ff" d="M260.32,-169.84C234.85,-161.07 197.25,-148.12 168.93,-138.37"/>
<polygon fill="#63b8ff" stroke="#63b8ff" points="170.22,-135.11 159.63,-135.16 167.94,-141.73 170.22,-135.11"/>
</a>
</g>
</g>
<!-- Node31&#45;&gt;Node3 -->
<g id="edge51_Node000031_Node000003" class="edge">
<title>Node31&#45;&gt;Node3</title>
<g id="a_edge51_Node000031_Node000003"><a xlink:title=" ">
<path fill="none" stroke="#63b8ff" d="M322.2,-115.29C325.09,-114.67 327.97,-114.07 330.75,-113.5 403.19,-98.71 488.1,-83.45 536.55,-74.93"/>
<polygon fill="#63b8ff" stroke="#63b8ff" points="537.02,-78.4 546.27,-73.23 535.82,-71.51 537.02,-78.4"/>
</a>
</g>
</g>
<!-- Node31&#45;&gt;Node4 -->
<g id="edge50_Node000031_Node000004" class="edge">
<title>Node31&#45;&gt;Node4</title>
<g id="a_edge50_Node000031_Node000004"><a xlink:title=" ">
<path fill="none" stroke="#63b8ff" d="M301.58,-113.16C322.26,-98.11 364.77,-69.54 405.75,-56.75 491.73,-29.91 765.13,-16.8 866.47,-12.77"/>
<polygon fill="#63b8ff" stroke="#63b8ff" points="866.58,-16.27 876.44,-12.38 866.31,-9.28 866.58,-16.27"/>
</a>
</g>
</g>
<!-- Node32 -->
<g id="Node000032" class="node">
<title>Node32</title>
<g id="a_Node000032"><a xlink:href="iolist_8h.html" target="_top" xlink:title="iolist scatter / gather IO">
<polygon fill="white" stroke="#666666" points="313.25,-77.5 264.25,-77.5 264.25,-56.75 313.25,-56.75 313.25,-77.5"/>
<text text-anchor="middle" x="288.75" y="-64" font-family="Helvetica,sans-Serif" font-size="10.00">iolist.h</text>
</a>
</g>
</g>
<!-- Node31&#45;&gt;Node32 -->
<g id="edge52_Node000031_Node000032" class="edge">
<title>Node31&#45;&gt;Node32</title>
<g id="a_edge52_Node000031_Node000032"><a xlink:title=" ">
<path fill="none" stroke="#63b8ff" d="M288.75,-113.09C288.75,-106.47 288.75,-97.47 288.75,-89.27"/>
<polygon fill="#63b8ff" stroke="#63b8ff" points="292.25,-89.34 288.75,-79.34 285.25,-89.34 292.25,-89.34"/>
</a>
</g>
</g>
</g>
</svg>
