<?xml version="1.0" encoding="UTF-8" standalone="no"?>
<!DOCTYPE svg PUBLIC "-//W3C//DTD SVG 1.1//EN"
 "http://www.w3.org/Graphics/SVG/1.1/DTD/svg11.dtd">
<!-- Generated by graphviz version 12.1.2 (0)
 -->
<!-- Title: pkg/openwsn/sock/sock_types.h Pages: 1 -->
<svg width="1173pt" height="439pt"
 viewBox="0.00 0.00 1173.38 438.75" xmlns="http://www.w3.org/2000/svg" xmlns:xlink="http://www.w3.org/1999/xlink">
<g id="graph0" class="graph" transform="scale(1 1) rotate(0) translate(4 434.75)">
<title>pkg/openwsn/sock/sock_types.h</title>
<!-- Node1 -->
<g id="Node000001" class="node">
<title>Node1</title>
<g id="a_Node000001"><a xlink:title="OpenWSN&#45;specific types.">
<polygon fill="#999999" stroke="#666666" points="811.75,-430.75 680.25,-430.75 680.25,-397.25 811.75,-397.25 811.75,-430.75"/>
<text text-anchor="start" x="688.25" y="-417.25" font-family="Helvetica,sans-Serif" font-size="10.00">pkg/openwsn/sock/sock</text>
<text text-anchor="middle" x="746" y="-404.5" font-family="Helvetica,sans-Serif" font-size="10.00">_types.h</text>
</a>
</g>
</g>
<!-- Node2 -->
<g id="Node000002" class="node">
<title>Node2</title>
<g id="a_Node000002"><a xlink:href="mbox_8h.html" target="_top" xlink:title="Mailbox API.">
<polygon fill="white" stroke="#666666" points="474.38,-361.25 421.62,-361.25 421.62,-340.5 474.38,-340.5 474.38,-361.25"/>
<text text-anchor="middle" x="448" y="-347.75" font-family="Helvetica,sans-Serif" font-size="10.00">mbox.h</text>
</a>
</g>
</g>
<!-- Node1&#45;&gt;Node2 -->
<g id="edge1_Node000001_Node000002" class="edge">
<title>Node1&#45;&gt;Node2</title>
<g id="a_edge1_Node000001_Node000002"><a xlink:title=" ">
<path fill="none" stroke="#63b8ff" d="M679.86,-399.43C620.18,-387.19 534.48,-369.61 485.72,-359.61"/>
<polygon fill="#63b8ff" stroke="#63b8ff" points="486.72,-356.24 476.22,-357.66 485.32,-363.1 486.72,-356.24"/>
</a>
</g>
</g>
<!-- Node19 -->
<g id="Node000019" class="node">
<title>Node19</title>
<g id="a_Node000019"><a xlink:href="af_8h.html" target="_top" xlink:title="Global UNIX address family definitions.">
<polygon fill="white" stroke="#666666" points="1165.38,-247.75 1112.62,-247.75 1112.62,-227 1165.38,-227 1165.38,-247.75"/>
<text text-anchor="middle" x="1139" y="-234.25" font-family="Helvetica,sans-Serif" font-size="10.00">net/af.h</text>
</a>
</g>
</g>
<!-- Node1&#45;&gt;Node19 -->
<g id="edge27_Node000001_Node000019" class="edge">
<title>Node1&#45;&gt;Node19</title>
<g id="a_edge27_Node000001_Node000019"><a xlink:title=" ">
<path fill="none" stroke="#63b8ff" d="M782.27,-396.88C858.36,-363.07 1033.64,-285.19 1106.41,-252.86"/>
<polygon fill="#63b8ff" stroke="#63b8ff" points="1107.68,-256.12 1115.4,-248.86 1104.84,-249.72 1107.68,-256.12"/>
</a>
</g>
</g>
<!-- Node20 -->
<g id="Node000020" class="node">
<title>Node20</title>
<g id="a_Node000020"><a xlink:href="sock_2udp_8h.html" target="_top" xlink:title="UDP sock definitions.">
<polygon fill="white" stroke="#666666" points="789.62,-304.5 702.38,-304.5 702.38,-283.75 789.62,-283.75 789.62,-304.5"/>
<text text-anchor="middle" x="746" y="-291" font-family="Helvetica,sans-Serif" font-size="10.00">net/sock/udp.h</text>
</a>
</g>
</g>
<!-- Node1&#45;&gt;Node20 -->
<g id="edge28_Node000001_Node000020" class="edge">
<title>Node1&#45;&gt;Node20</title>
<g id="a_edge28_Node000001_Node000020"><a xlink:title=" ">
<path fill="none" stroke="#63b8ff" d="M746,-397.1C746,-376.21 746,-339.46 746,-316.25"/>
<polygon fill="#63b8ff" stroke="#63b8ff" points="749.5,-316.45 746,-306.45 742.5,-316.45 749.5,-316.45"/>
</a>
</g>
</g>
<!-- Node3 -->
<g id="Node000003" class="node">
<title>Node3</title>
<g id="a_Node000003"><a xlink:href="list_8h.html" target="_top" xlink:title="Intrusive linked list.">
<polygon fill="white" stroke="#666666" points="509,-134.25 469,-134.25 469,-113.5 509,-113.5 509,-134.25"/>
<text text-anchor="middle" x="489" y="-120.75" font-family="Helvetica,sans-Serif" font-size="10.00">list.h</text>
</a>
</g>
</g>
<!-- Node2&#45;&gt;Node3 -->
<g id="edge2_Node000002_Node000003" class="edge">
<title>Node2&#45;&gt;Node3</title>
<g id="a_edge2_Node000002_Node000003"><a xlink:title=" ">
<path fill="none" stroke="#63b8ff" d="M449.76,-340.21C455.93,-306.38 476.61,-192.86 485.21,-145.69"/>
<polygon fill="#63b8ff" stroke="#63b8ff" points="488.62,-146.46 486.97,-136 481.74,-145.21 488.62,-146.46"/>
</a>
</g>
</g>
<!-- Node4 -->
<g id="Node000004" class="node">
<title>Node4</title>
<g id="a_Node000004"><a xlink:href="cib_8h.html" target="_top" xlink:title="Circular integer buffer interface.">
<polygon fill="white" stroke="#666666" points="188.62,-304.5 149.38,-304.5 149.38,-283.75 188.62,-283.75 188.62,-304.5"/>
<text text-anchor="middle" x="169" y="-291" font-family="Helvetica,sans-Serif" font-size="10.00">cib.h</text>
</a>
</g>
</g>
<!-- Node2&#45;&gt;Node4 -->
<g id="edge3_Node000002_Node000004" class="edge">
<title>Node2&#45;&gt;Node4</title>
<g id="a_edge3_Node000002_Node000004"><a xlink:title=" ">
<path fill="none" stroke="#63b8ff" d="M421.25,-344.63C369.41,-334.45 255.51,-312.1 200.27,-301.26"/>
<polygon fill="#63b8ff" stroke="#63b8ff" points="201.08,-297.85 190.59,-299.36 199.73,-304.72 201.08,-297.85"/>
</a>
</g>
</g>
<!-- Node7 -->
<g id="Node000007" class="node">
<title>Node7</title>
<g id="a_Node000007"><a xlink:href="core_2include_2msg_8h.html" target="_top" xlink:title="Messaging API for inter process communication.">
<polygon fill="white" stroke="#666666" points="414,-304.5 368,-304.5 368,-283.75 414,-283.75 414,-304.5"/>
<text text-anchor="middle" x="391" y="-291" font-family="Helvetica,sans-Serif" font-size="10.00">msg.h</text>
</a>
</g>
</g>
<!-- Node2&#45;&gt;Node7 -->
<g id="edge6_Node000002_Node000007" class="edge">
<title>Node2&#45;&gt;Node7</title>
<g id="a_edge6_Node000002_Node000007"><a xlink:title=" ">
<path fill="none" stroke="#63b8ff" d="M437.81,-340.09C429.87,-332.46 418.63,-321.67 409.16,-312.57"/>
<polygon fill="#63b8ff" stroke="#63b8ff" points="411.83,-310.28 402.19,-305.88 406.98,-315.33 411.83,-310.28"/>
</a>
</g>
</g>
<!-- Node5 -->
<g id="Node000005" class="node">
<title>Node5</title>
<g id="a_Node000005"><a xlink:href="assert_8h.html" target="_top" xlink:title="POSIX.1&#45;2008 compliant version of the assert macro.">
<polygon fill="white" stroke="#666666" points="141.5,-77.5 86.5,-77.5 86.5,-56.75 141.5,-56.75 141.5,-77.5"/>
<text text-anchor="middle" x="114" y="-64" font-family="Helvetica,sans-Serif" font-size="10.00">assert.h</text>
</a>
</g>
</g>
<!-- Node4&#45;&gt;Node5 -->
<g id="edge4_Node000004_Node000005" class="edge">
<title>Node4&#45;&gt;Node5</title>
<g id="a_edge4_Node000004_Node000005"><a xlink:title=" ">
<path fill="none" stroke="#63b8ff" d="M149.06,-291.15C123.85,-287.47 81.38,-277.02 62,-247.75 29.06,-198 37.31,-167.82 62,-113.5 67.34,-101.76 77.37,-91.88 87.22,-84.36"/>
<polygon fill="#63b8ff" stroke="#63b8ff" points="89.02,-87.37 95.2,-78.76 85,-81.64 89.02,-87.37"/>
</a>
</g>
</g>
<!-- Node6 -->
<g id="Node000006" class="node">
<title>Node6</title>
<g id="a_Node000006"><a xlink:title=" ">
<polygon fill="#e0e0e0" stroke="#999999" points="601.38,-20.75 548.62,-20.75 548.62,0 601.38,0 601.38,-20.75"/>
<text text-anchor="middle" x="575" y="-7.25" font-family="Helvetica,sans-Serif" font-size="10.00">stdint.h</text>
</a>
</g>
</g>
<!-- Node5&#45;&gt;Node6 -->
<g id="edge5_Node000005_Node000006" class="edge">
<title>Node5&#45;&gt;Node6</title>
<g id="a_edge5_Node000005_Node000006"><a xlink:title=" ">
<path fill="none" stroke="#63b8ff" d="M141.8,-62.82C220.79,-53.44 446.68,-26.62 537,-15.89"/>
<polygon fill="#63b8ff" stroke="#63b8ff" points="537.3,-19.38 546.82,-14.72 536.48,-12.43 537.3,-19.38"/>
</a>
</g>
</g>
<!-- Node7&#45;&gt;Node6 -->
<g id="edge7_Node000007_Node000006" class="edge">
<title>Node7&#45;&gt;Node6</title>
<g id="a_edge7_Node000007_Node000006"><a xlink:title=" ">
<path fill="none" stroke="#63b8ff" d="M367.71,-291.57C283.54,-285.32 0,-258.57 0,-181.62 0,-181.62 0,-181.62 0,-122.88 0,-13.05 409.38,-9.18 537.28,-10.65"/>
<polygon fill="#63b8ff" stroke="#63b8ff" points="536.86,-14.14 546.91,-10.78 536.95,-7.14 536.86,-14.14"/>
</a>
</g>
</g>
<!-- Node8 -->
<g id="Node000008" class="node">
<title>Node8</title>
<g id="a_Node000008"><a xlink:title=" ">
<polygon fill="#e0e0e0" stroke="#999999" points="664.5,-134.25 603.5,-134.25 603.5,-113.5 664.5,-113.5 664.5,-134.25"/>
<text text-anchor="middle" x="634" y="-120.75" font-family="Helvetica,sans-Serif" font-size="10.00">stdbool.h</text>
</a>
</g>
</g>
<!-- Node7&#45;&gt;Node8 -->
<g id="edge8_Node000007_Node000008" class="edge">
<title>Node7&#45;&gt;Node8</title>
<g id="a_edge8_Node000007_Node000008"><a xlink:title=" ">
<path fill="none" stroke="#63b8ff" d="M408.41,-283.5C439.11,-266.26 504.5,-228.45 556,-191 577.36,-175.46 600.24,-155.65 615.66,-141.78"/>
<polygon fill="#63b8ff" stroke="#63b8ff" points="617.64,-144.71 622.69,-135.39 612.93,-139.53 617.64,-144.71"/>
</a>
</g>
</g>
<!-- Node9 -->
<g id="Node000009" class="node">
<title>Node9</title>
<g id="a_Node000009"><a xlink:href="sched_8h.html" target="_top" xlink:title="Scheduler API definition.">
<polygon fill="white" stroke="#666666" points="395.75,-247.75 342.25,-247.75 342.25,-227 395.75,-227 395.75,-247.75"/>
<text text-anchor="middle" x="369" y="-234.25" font-family="Helvetica,sans-Serif" font-size="10.00">sched.h</text>
</a>
</g>
</g>
<!-- Node7&#45;&gt;Node9 -->
<g id="edge9_Node000007_Node000009" class="edge">
<title>Node7&#45;&gt;Node9</title>
<g id="a_edge9_Node000007_Node000009"><a xlink:title=" ">
<path fill="none" stroke="#63b8ff" d="M387.07,-283.34C384.31,-276.49 380.54,-267.09 377.15,-258.65"/>
<polygon fill="#63b8ff" stroke="#63b8ff" points="380.44,-257.46 373.46,-249.48 373.94,-260.07 380.44,-257.46"/>
</a>
</g>
</g>
<!-- Node10 -->
<g id="Node000010" class="node">
<title>Node10</title>
<g id="a_Node000010"><a xlink:title=" ">
<polygon fill="#e0e0e0" stroke="#999999" points="546.5,-77.5 491.5,-77.5 491.5,-56.75 546.5,-56.75 546.5,-77.5"/>
<text text-anchor="middle" x="519" y="-64" font-family="Helvetica,sans-Serif" font-size="10.00">stddef.h</text>
</a>
</g>
</g>
<!-- Node9&#45;&gt;Node10 -->
<g id="edge10_Node000009_Node000010" class="edge">
<title>Node9&#45;&gt;Node10</title>
<g id="a_edge10_Node000009_Node000010"><a xlink:title=" ">
<path fill="none" stroke="#63b8ff" d="M380.74,-226.74C390.85,-218.06 405.43,-204.62 416,-191 440.27,-159.7 434.01,-143.39 460,-113.5 469.71,-102.34 482.53,-92.09 493.74,-84.16"/>
<polygon fill="#63b8ff" stroke="#63b8ff" points="495.5,-87.2 501.81,-78.68 491.57,-81.41 495.5,-87.2"/>
</a>
</g>
</g>
<!-- Node11 -->
<g id="Node000011" class="node">
<title>Node11</title>
<g id="a_Node000011"><a xlink:href="inttypes_8h.html" target="_top" xlink:title="Adds include for missing inttype definitions.">
<polygon fill="white" stroke="#666666" points="185.38,-191 120.62,-191 120.62,-170.25 185.38,-170.25 185.38,-191"/>
<text text-anchor="middle" x="153" y="-177.5" font-family="Helvetica,sans-Serif" font-size="10.00">inttypes.h</text>
</a>
</g>
</g>
<!-- Node9&#45;&gt;Node11 -->
<g id="edge11_Node000009_Node000011" class="edge">
<title>Node9&#45;&gt;Node11</title>
<g id="a_edge11_Node000009_Node000011"><a xlink:title=" ">
<path fill="none" stroke="#63b8ff" d="M342.08,-229.55C305.64,-220.32 240.18,-203.72 196.66,-192.69"/>
<polygon fill="#63b8ff" stroke="#63b8ff" points="197.58,-189.31 187.02,-190.25 195.86,-196.1 197.58,-189.31"/>
</a>
</g>
</g>
<!-- Node12 -->
<g id="Node000012" class="node">
<title>Node12</title>
<g id="a_Node000012"><a xlink:href="kernel__defines_8h.html" target="_top" xlink:title="Common macros and compiler attributes/pragmas configuration.">
<polygon fill="white" stroke="#666666" points="407.12,-191 310.88,-191 310.88,-170.25 407.12,-170.25 407.12,-191"/>
<text text-anchor="middle" x="359" y="-177.5" font-family="Helvetica,sans-Serif" font-size="10.00">kernel_defines.h</text>
</a>
</g>
</g>
<!-- Node9&#45;&gt;Node12 -->
<g id="edge12_Node000009_Node000012" class="edge">
<title>Node9&#45;&gt;Node12</title>
<g id="a_edge12_Node000009_Node000012"><a xlink:title=" ">
<path fill="none" stroke="#63b8ff" d="M367.21,-226.59C365.99,-219.89 364.32,-210.76 362.81,-202.48"/>
<polygon fill="#63b8ff" stroke="#63b8ff" points="366.28,-202.03 361.04,-192.82 359.4,-203.28 366.28,-202.03"/>
</a>
</g>
</g>
<!-- Node17 -->
<g id="Node000017" class="node">
<title>Node17</title>
<g id="a_Node000017"><a xlink:href="native__sched_8h.html" target="_top" xlink:title="Add definitions required on the native board.">
<polygon fill="white" stroke="#666666" points="292.75,-191 203.25,-191 203.25,-170.25 292.75,-170.25 292.75,-191"/>
<text text-anchor="middle" x="248" y="-177.5" font-family="Helvetica,sans-Serif" font-size="10.00">native_sched.h</text>
</a>
</g>
</g>
<!-- Node9&#45;&gt;Node17 -->
<g id="edge22_Node000009_Node000017" class="edge">
<title>Node9&#45;&gt;Node17</title>
<g id="a_edge22_Node000009_Node000017"><a xlink:title=" ">
<path fill="none" stroke="#63b8ff" d="M347.37,-226.59C328.53,-218.06 300.96,-205.59 279.64,-195.94"/>
<polygon fill="#63b8ff" stroke="#63b8ff" points="281.38,-192.89 270.82,-191.95 278.49,-199.26 281.38,-192.89"/>
</a>
</g>
</g>
<!-- Node18 -->
<g id="Node000018" class="node">
<title>Node18</title>
<g id="a_Node000018"><a xlink:href="clist_8h.html" target="_top" xlink:title="Circular linked list.">
<polygon fill="white" stroke="#666666" points="546.62,-191 501.38,-191 501.38,-170.25 546.62,-170.25 546.62,-191"/>
<text text-anchor="middle" x="524" y="-177.5" font-family="Helvetica,sans-Serif" font-size="10.00">clist.h</text>
</a>
</g>
</g>
<!-- Node9&#45;&gt;Node18 -->
<g id="edge23_Node000009_Node000018" class="edge">
<title>Node9&#45;&gt;Node18</title>
<g id="a_edge23_Node000009_Node000018"><a xlink:title=" ">
<path fill="none" stroke="#63b8ff" d="M396,-226.84C422.34,-217.53 462.47,-203.36 490.76,-193.37"/>
<polygon fill="#63b8ff" stroke="#63b8ff" points="491.65,-196.77 499.91,-190.13 489.32,-190.16 491.65,-196.77"/>
</a>
</g>
</g>
<!-- Node13 -->
<g id="Node000013" class="node">
<title>Node13</title>
<g id="a_Node000013"><a xlink:href="modules_8h.html" target="_top" xlink:title="Common macros and compiler attributes/pragmas configuration.">
<polygon fill="white" stroke="#666666" points="286.5,-134.25 219.5,-134.25 219.5,-113.5 286.5,-113.5 286.5,-134.25"/>
<text text-anchor="middle" x="253" y="-120.75" font-family="Helvetica,sans-Serif" font-size="10.00">modules.h</text>
</a>
</g>
</g>
<!-- Node12&#45;&gt;Node13 -->
<g id="edge13_Node000012_Node000013" class="edge">
<title>Node12&#45;&gt;Node13</title>
<g id="a_edge13_Node000012_Node000013"><a xlink:title=" ">
<path fill="none" stroke="#63b8ff" d="M340.05,-169.84C323.92,-161.51 300.5,-149.41 282.01,-139.86"/>
<polygon fill="#63b8ff" stroke="#63b8ff" points="283.62,-136.75 273.13,-135.27 280.41,-142.97 283.62,-136.75"/>
</a>
</g>
</g>
<!-- Node14 -->
<g id="Node000014" class="node">
<title>Node14</title>
<g id="a_Node000014"><a xlink:href="riot__version_8h.html" target="_top" xlink:title="Common macros and compiler attributes/pragmas configuration.">
<polygon fill="white" stroke="#666666" points="376.38,-77.5 293.62,-77.5 293.62,-56.75 376.38,-56.75 376.38,-77.5"/>
<text text-anchor="middle" x="335" y="-64" font-family="Helvetica,sans-Serif" font-size="10.00">riot_version.h</text>
</a>
</g>
</g>
<!-- Node12&#45;&gt;Node14 -->
<g id="edge14_Node000012_Node000014" class="edge">
<title>Node12&#45;&gt;Node14</title>
<g id="a_edge14_Node000012_Node000014"><a xlink:title=" ">
<path fill="none" stroke="#63b8ff" d="M351.66,-169.8C345.58,-161 337.41,-147.49 334,-134.25 330.18,-119.42 330.62,-102.09 331.91,-88.9"/>
<polygon fill="#63b8ff" stroke="#63b8ff" points="335.35,-89.59 333.11,-79.23 328.4,-88.72 335.35,-89.59"/>
</a>
</g>
</g>
<!-- Node15 -->
<g id="Node000015" class="node">
<title>Node15</title>
<g id="a_Node000015"><a xlink:href="compiler__hints_8h.html" target="_top" xlink:title="Common macros and compiler attributes/pragmas configuration.">
<polygon fill="white" stroke="#666666" points="201.5,-134.25 104.5,-134.25 104.5,-113.5 201.5,-113.5 201.5,-134.25"/>
<text text-anchor="middle" x="153" y="-120.75" font-family="Helvetica,sans-Serif" font-size="10.00">compiler_hints.h</text>
</a>
</g>
</g>
<!-- Node12&#45;&gt;Node15 -->
<g id="edge16_Node000012_Node000015" class="edge">
<title>Node12&#45;&gt;Node15</title>
<g id="a_edge16_Node000012_Node000015"><a xlink:title=" ">
<path fill="none" stroke="#63b8ff" d="M322.17,-169.84C288.3,-160.83 237.86,-147.43 200.87,-137.6"/>
<polygon fill="#63b8ff" stroke="#63b8ff" points="201.88,-134.25 191.32,-135.06 200.08,-141.01 201.88,-134.25"/>
</a>
</g>
</g>
<!-- Node16 -->
<g id="Node000016" class="node">
<title>Node16</title>
<g id="a_Node000016"><a xlink:href="container_8h.html" target="_top" xlink:title="Common macros and compiler attributes/pragmas configuration.">
<polygon fill="white" stroke="#666666" points="413.38,-134.25 342.62,-134.25 342.62,-113.5 413.38,-113.5 413.38,-134.25"/>
<text text-anchor="middle" x="378" y="-120.75" font-family="Helvetica,sans-Serif" font-size="10.00">container.h</text>
</a>
</g>
</g>
<!-- Node12&#45;&gt;Node16 -->
<g id="edge19_Node000012_Node000016" class="edge">
<title>Node12&#45;&gt;Node16</title>
<g id="a_edge19_Node000012_Node000016"><a xlink:title=" ">
<path fill="none" stroke="#63b8ff" d="M362.4,-169.84C364.75,-163.06 367.96,-153.8 370.86,-145.44"/>
<polygon fill="#63b8ff" stroke="#63b8ff" points="374.16,-146.6 374.14,-136.01 367.55,-144.31 374.16,-146.6"/>
</a>
</g>
</g>
<!-- Node14&#45;&gt;Node6 -->
<g id="edge15_Node000014_Node000006" class="edge">
<title>Node14&#45;&gt;Node6</title>
<g id="a_edge15_Node000014_Node000006"><a xlink:title=" ">
<path fill="none" stroke="#63b8ff" d="M376.8,-56.59C422.05,-46.27 493.56,-29.95 537.19,-20"/>
<polygon fill="#63b8ff" stroke="#63b8ff" points="537.73,-23.47 546.7,-17.83 536.17,-16.64 537.73,-23.47"/>
</a>
</g>
</g>
<!-- Node15&#45;&gt;Node5 -->
<g id="edge17_Node000015_Node000005" class="edge">
<title>Node15&#45;&gt;Node5</title>
<g id="a_edge17_Node000015_Node000005"><a xlink:title=" ">
<path fill="none" stroke="#63b8ff" d="M146.03,-113.09C140.87,-105.85 133.68,-95.76 127.43,-86.97"/>
<polygon fill="#63b8ff" stroke="#63b8ff" points="130.44,-85.18 121.79,-79.06 124.74,-89.24 130.44,-85.18"/>
</a>
</g>
</g>
<!-- Node15&#45;&gt;Node6 -->
<g id="edge18_Node000015_Node000006" class="edge">
<title>Node15&#45;&gt;Node6</title>
<g id="a_edge18_Node000015_Node000006"><a xlink:title=" ">
<path fill="none" stroke="#63b8ff" d="M168.58,-113.06C192.6,-98.39 240.57,-70.97 285,-56.75 372.68,-28.68 481.02,-17.63 537.21,-13.56"/>
<polygon fill="#63b8ff" stroke="#63b8ff" points="537.13,-17.07 546.87,-12.9 536.65,-10.09 537.13,-17.07"/>
</a>
</g>
</g>
<!-- Node16&#45;&gt;Node6 -->
<g id="edge21_Node000016_Node000006" class="edge">
<title>Node16&#45;&gt;Node6</title>
<g id="a_edge21_Node000016_Node000006"><a xlink:title=" ">
<path fill="none" stroke="#63b8ff" d="M392.16,-113.15C411.89,-99.77 448.95,-75.24 482,-56.75 501.83,-45.66 524.76,-34.45 542.89,-25.95"/>
<polygon fill="#63b8ff" stroke="#63b8ff" points="544.25,-29.18 551.85,-21.79 541.31,-22.83 544.25,-29.18"/>
</a>
</g>
</g>
<!-- Node16&#45;&gt;Node10 -->
<g id="edge20_Node000016_Node000010" class="edge">
<title>Node16&#45;&gt;Node10</title>
<g id="a_edge20_Node000016_Node000010"><a xlink:title=" ">
<path fill="none" stroke="#63b8ff" d="M403.21,-113.09C425.56,-104.41 458.46,-91.63 483.48,-81.92"/>
<polygon fill="#63b8ff" stroke="#63b8ff" points="484.54,-85.26 492.6,-78.38 482.01,-78.73 484.54,-85.26"/>
</a>
</g>
</g>
<!-- Node18&#45;&gt;Node3 -->
<g id="edge26_Node000018_Node000003" class="edge">
<title>Node18&#45;&gt;Node3</title>
<g id="a_edge26_Node000018_Node000003"><a xlink:title=" ">
<path fill="none" stroke="#63b8ff" d="M517.74,-169.84C513.16,-162.67 506.8,-152.73 501.23,-144.01"/>
<polygon fill="#63b8ff" stroke="#63b8ff" points="504.35,-142.39 496.02,-135.85 498.46,-146.16 504.35,-142.39"/>
</a>
</g>
</g>
<!-- Node18&#45;&gt;Node8 -->
<g id="edge24_Node000018_Node000008" class="edge">
<title>Node18&#45;&gt;Node8</title>
<g id="a_edge24_Node000018_Node000008"><a xlink:title=" ">
<path fill="none" stroke="#63b8ff" d="M543.67,-169.84C560.56,-161.43 585.17,-149.18 604.43,-139.59"/>
<polygon fill="#63b8ff" stroke="#63b8ff" points="605.76,-142.84 613.15,-135.25 602.64,-136.58 605.76,-142.84"/>
</a>
</g>
</g>
<!-- Node18&#45;&gt;Node10 -->
<g id="edge25_Node000018_Node000010" class="edge">
<title>Node18&#45;&gt;Node10</title>
<g id="a_edge25_Node000018_Node000010"><a xlink:title=" ">
<path fill="none" stroke="#63b8ff" d="M523.57,-170.12C522.78,-152.35 521.04,-113.72 519.96,-89.43"/>
<polygon fill="#63b8ff" stroke="#63b8ff" points="523.45,-89.27 519.51,-79.44 516.46,-89.58 523.45,-89.27"/>
</a>
</g>
</g>
<!-- Node20&#45;&gt;Node5 -->
<g id="edge29_Node000020_Node000005" class="edge">
<title>Node20&#45;&gt;Node5</title>
<g id="a_edge29_Node000020_Node000005"><a xlink:title=" ">
<path fill="none" stroke="#63b8ff" d="M701.98,-292.32C572.51,-289.03 196.8,-272.5 112,-191 86.58,-166.56 88.05,-148.07 95,-113.5 96.74,-104.84 100.18,-95.76 103.66,-88.03"/>
<polygon fill="#63b8ff" stroke="#63b8ff" points="106.72,-89.74 107.93,-79.22 100.42,-86.69 106.72,-89.74"/>
</a>
</g>
</g>
<!-- Node20&#45;&gt;Node6 -->
<g id="edge31_Node000020_Node000006" class="edge">
<title>Node20&#45;&gt;Node6</title>
<g id="a_edge31_Node000020_Node000006"><a xlink:title=" ">
<path fill="none" stroke="#63b8ff" d="M701.94,-291.06C668.06,-287.14 622.38,-276.43 594,-247.75 572.49,-226.02 575,-212.2 575,-181.62 575,-181.62 575,-181.62 575,-122.88 575,-91.48 575,-55.12 575,-32.68"/>
<polygon fill="#63b8ff" stroke="#63b8ff" points="578.5,-32.73 575,-22.73 571.5,-32.73 578.5,-32.73"/>
</a>
</g>
</g>
<!-- Node20&#45;&gt;Node19 -->
<g id="edge34_Node000020_Node000019" class="edge">
<title>Node20&#45;&gt;Node19</title>
<g id="a_edge34_Node000020_Node000019"><a xlink:title=" ">
<path fill="none" stroke="#63b8ff" d="M790.12,-289.47C855.95,-283.61 983.91,-270.57 1101.37,-248.05"/>
<polygon fill="#63b8ff" stroke="#63b8ff" points="1101.7,-251.55 1110.85,-246.21 1100.36,-244.68 1101.7,-251.55"/>
</a>
</g>
</g>
<!-- Node21 -->
<g id="Node000021" class="node">
<title>Node21</title>
<g id="a_Node000021"><a xlink:href="errno_8h.html" target="_top" xlink:title=" ">
<polygon fill="white" stroke="#666666" points="653.25,-247.75 602.75,-247.75 602.75,-227 653.25,-227 653.25,-247.75"/>
<text text-anchor="middle" x="628" y="-234.25" font-family="Helvetica,sans-Serif" font-size="10.00">errno.h</text>
</a>
</g>
</g>
<!-- Node20&#45;&gt;Node21 -->
<g id="edge30_Node000020_Node000021" class="edge">
<title>Node20&#45;&gt;Node21</title>
<g id="a_edge30_Node000020_Node000021"><a xlink:title=" ">
<path fill="none" stroke="#63b8ff" d="M724.9,-283.34C706.61,-274.85 679.9,-262.45 659.14,-252.83"/>
<polygon fill="#63b8ff" stroke="#63b8ff" points="660.83,-249.75 650.29,-248.72 657.88,-256.1 660.83,-249.75"/>
</a>
</g>
</g>
<!-- Node22 -->
<g id="Node000022" class="node">
<title>Node22</title>
<g id="a_Node000022"><a xlink:title=" ">
<polygon fill="#e0e0e0" stroke="#999999" points="799,-247.75 747,-247.75 747,-227 799,-227 799,-247.75"/>
<text text-anchor="middle" x="773" y="-234.25" font-family="Helvetica,sans-Serif" font-size="10.00">stdlib.h</text>
</a>
</g>
</g>
<!-- Node20&#45;&gt;Node22 -->
<g id="edge32_Node000020_Node000022" class="edge">
<title>Node20&#45;&gt;Node22</title>
<g id="a_edge32_Node000020_Node000022"><a xlink:title=" ">
<path fill="none" stroke="#63b8ff" d="M750.83,-283.34C754.24,-276.41 758.95,-266.87 763.14,-258.36"/>
<polygon fill="#63b8ff" stroke="#63b8ff" points="766.26,-259.95 767.55,-249.44 759.98,-256.86 766.26,-259.95"/>
</a>
</g>
</g>
<!-- Node23 -->
<g id="Node000023" class="node">
<title>Node23</title>
<g id="a_Node000023"><a xlink:title=" ">
<polygon fill="#e0e0e0" stroke="#999999" points="888.75,-247.75 817.25,-247.75 817.25,-227 888.75,-227 888.75,-247.75"/>
<text text-anchor="middle" x="853" y="-234.25" font-family="Helvetica,sans-Serif" font-size="10.00">sys/types.h</text>
</a>
</g>
</g>
<!-- Node20&#45;&gt;Node23 -->
<g id="edge33_Node000020_Node000023" class="edge">
<title>Node20&#45;&gt;Node23</title>
<g id="a_edge33_Node000020_Node000023"><a xlink:title=" ">
<path fill="none" stroke="#63b8ff" d="M765.13,-283.34C781.49,-274.97 805.28,-262.79 823.98,-253.22"/>
<polygon fill="#63b8ff" stroke="#63b8ff" points="825.38,-256.44 832.69,-248.77 822.19,-250.21 825.38,-256.44"/>
</a>
</g>
</g>
<!-- Node24 -->
<g id="Node000024" class="node">
<title>Node24</title>
<g id="a_Node000024"><a xlink:href="sock_8h.html" target="_top" xlink:title="Common sock API definitions.">
<polygon fill="white" stroke="#666666" points="787.12,-134.25 720.88,-134.25 720.88,-113.5 787.12,-113.5 787.12,-134.25"/>
<text text-anchor="middle" x="754" y="-120.75" font-family="Helvetica,sans-Serif" font-size="10.00">net/sock.h</text>
</a>
</g>
</g>
<!-- Node20&#45;&gt;Node24 -->
<g id="edge35_Node000020_Node000024" class="edge">
<title>Node20&#45;&gt;Node24</title>
<g id="a_edge35_Node000020_Node000024"><a xlink:title=" ">
<path fill="none" stroke="#63b8ff" d="M741.15,-283.33C736.99,-274.33 731.31,-260.5 729,-247.75 722.43,-211.49 735.48,-169.45 745.08,-145.13"/>
<polygon fill="#63b8ff" stroke="#63b8ff" points="748.22,-146.7 748.83,-136.12 741.76,-144.01 748.22,-146.7"/>
</a>
</g>
</g>
<!-- Node26 -->
<g id="Node000026" class="node">
<title>Node26</title>
<g id="a_Node000026"><a xlink:href="ipv4_2addr_8h.html" target="_top" xlink:title="IPv4 address type and helper functions definitions.">
<polygon fill="white" stroke="#666666" points="853.75,-191 764.25,-191 764.25,-170.25 853.75,-170.25 853.75,-191"/>
<text text-anchor="middle" x="809" y="-177.5" font-family="Helvetica,sans-Serif" font-size="10.00">net/ipv4/addr.h</text>
</a>
</g>
</g>
<!-- Node20&#45;&gt;Node26 -->
<g id="edge39_Node000020_Node000026" class="edge">
<title>Node20&#45;&gt;Node26</title>
<g id="a_edge39_Node000020_Node000026"><a xlink:title=" ">
<path fill="none" stroke="#63b8ff" d="M741.47,-283.48C735.84,-269.97 728.11,-245.05 738,-227 745.26,-213.74 758.24,-203.79 771.13,-196.64"/>
<polygon fill="#63b8ff" stroke="#63b8ff" points="772.63,-199.8 779.98,-192.17 769.48,-193.55 772.63,-199.8"/>
</a>
</g>
</g>
<!-- Node31 -->
<g id="Node000031" class="node">
<title>Node31</title>
<g id="a_Node000031"><a xlink:href="ipv6_2addr_8h.html" target="_top" xlink:title="Definitions for IPv6 addresses.">
<polygon fill="white" stroke="#666666" points="1094.75,-247.75 1005.25,-247.75 1005.25,-227 1094.75,-227 1094.75,-247.75"/>
<text text-anchor="middle" x="1050" y="-234.25" font-family="Helvetica,sans-Serif" font-size="10.00">net/ipv6/addr.h</text>
</a>
</g>
</g>
<!-- Node20&#45;&gt;Node31 -->
<g id="edge50_Node000020_Node000031" class="edge">
<title>Node20&#45;&gt;Node31</title>
<g id="a_edge50_Node000020_Node000031"><a xlink:title=" ">
<path fill="none" stroke="#63b8ff" d="M789.88,-285.22C843.68,-275.53 934.94,-259.1 993.82,-248.49"/>
<polygon fill="#63b8ff" stroke="#63b8ff" points="994.43,-251.94 1003.65,-246.72 993.19,-245.05 994.43,-251.94"/>
</a>
</g>
</g>
<!-- Node32 -->
<g id="Node000032" class="node">
<title>Node32</title>
<g id="a_Node000032"><a xlink:title=" ">
<polygon fill="#e0e0e0" stroke="#999999" points="986.88,-247.75 907.12,-247.75 907.12,-227 986.88,-227 986.88,-247.75"/>
<text text-anchor="middle" x="947" y="-234.25" font-family="Helvetica,sans-Serif" font-size="10.00">sock_types.h</text>
</a>
</g>
</g>
<!-- Node20&#45;&gt;Node32 -->
<g id="edge55_Node000020_Node000032" class="edge">
<title>Node20&#45;&gt;Node32</title>
<g id="a_edge55_Node000020_Node000032"><a xlink:title=" ">
<path fill="none" stroke="#63b8ff" d="M781.93,-283.34C814.99,-274.33 864.2,-260.93 900.29,-251.1"/>
<polygon fill="#63b8ff" stroke="#63b8ff" points="900.85,-254.57 909.58,-248.57 899.01,-247.82 900.85,-254.57"/>
</a>
</g>
</g>
<!-- Node24&#45;&gt;Node6 -->
<g id="edge36_Node000024_Node000006" class="edge">
<title>Node24&#45;&gt;Node6</title>
<g id="a_edge36_Node000024_Node000006"><a xlink:title=" ">
<path fill="none" stroke="#63b8ff" d="M738.43,-113.18C707.48,-93.9 638,-50.62 600.37,-27.18"/>
<polygon fill="#63b8ff" stroke="#63b8ff" points="602.29,-24.25 591.95,-21.93 598.59,-30.19 602.29,-24.25"/>
</a>
</g>
</g>
<!-- Node24&#45;&gt;Node10 -->
<g id="edge37_Node000024_Node000010" class="edge">
<title>Node24&#45;&gt;Node10</title>
<g id="a_edge37_Node000024_Node000010"><a xlink:title=" ">
<path fill="none" stroke="#63b8ff" d="M720.83,-115.15C678,-105.17 603.57,-87.83 558.06,-77.22"/>
<polygon fill="#63b8ff" stroke="#63b8ff" points="558.87,-73.82 548.34,-74.96 557.28,-80.64 558.87,-73.82"/>
</a>
</g>
</g>
<!-- Node25 -->
<g id="Node000025" class="node">
<title>Node25</title>
<g id="a_Node000025"><a xlink:href="iolist_8h.html" target="_top" xlink:title="iolist scatter / gather IO">
<polygon fill="white" stroke="#666666" points="773.5,-77.5 724.5,-77.5 724.5,-56.75 773.5,-56.75 773.5,-77.5"/>
<text text-anchor="middle" x="749" y="-64" font-family="Helvetica,sans-Serif" font-size="10.00">iolist.h</text>
</a>
</g>
</g>
<!-- Node24&#45;&gt;Node25 -->
<g id="edge38_Node000024_Node000025" class="edge">
<title>Node24&#45;&gt;Node25</title>
<g id="a_edge38_Node000024_Node000025"><a xlink:title=" ">
<path fill="none" stroke="#63b8ff" d="M753.11,-113.09C752.5,-106.47 751.68,-97.47 750.93,-89.27"/>
<polygon fill="#63b8ff" stroke="#63b8ff" points="754.42,-88.98 750.02,-79.34 747.45,-89.61 754.42,-88.98"/>
</a>
</g>
</g>
<!-- Node26&#45;&gt;Node6 -->
<g id="edge41_Node000026_Node000006" class="edge">
<title>Node26&#45;&gt;Node6</title>
<g id="a_edge41_Node000026_Node000006"><a xlink:title=" ">
<path fill="none" stroke="#63b8ff" d="M810.16,-170.01C812.38,-146.91 814.46,-87.89 783,-56.75 759.37,-33.36 666.24,-20.44 612.95,-14.82"/>
<polygon fill="#63b8ff" stroke="#63b8ff" points="613.4,-11.35 603.1,-13.82 612.7,-18.31 613.4,-11.35"/>
</a>
</g>
</g>
<!-- Node26&#45;&gt;Node8 -->
<g id="edge40_Node000026_Node000008" class="edge">
<title>Node26&#45;&gt;Node8</title>
<g id="a_edge40_Node000026_Node000008"><a xlink:title=" ">
<path fill="none" stroke="#63b8ff" d="M777.71,-169.84C749.13,-160.89 706.67,-147.61 675.31,-137.8"/>
<polygon fill="#63b8ff" stroke="#63b8ff" points="676.76,-134.58 666.17,-134.94 674.67,-141.26 676.76,-134.58"/>
</a>
</g>
</g>
<!-- Node26&#45;&gt;Node10 -->
<g id="edge42_Node000026_Node000010" class="edge">
<title>Node26&#45;&gt;Node10</title>
<g id="a_edge42_Node000026_Node000010"><a xlink:title=" ">
<path fill="none" stroke="#63b8ff" d="M787.24,-169.91C767.46,-160.98 737.54,-147.18 712,-134.25 694.83,-125.56 691.78,-120.86 674,-113.5 635.58,-97.6 589.66,-84.9 557.82,-77.02"/>
<polygon fill="#63b8ff" stroke="#63b8ff" points="558.78,-73.65 548.24,-74.7 557.13,-80.46 558.78,-73.65"/>
</a>
</g>
</g>
<!-- Node27 -->
<g id="Node000027" class="node">
<title>Node27</title>
<g id="a_Node000027"><a xlink:href="byteorder_8h.html" target="_top" xlink:title="Functions to work with different byte orders.">
<polygon fill="white" stroke="#666666" points="1003.12,-134.25 930.88,-134.25 930.88,-113.5 1003.12,-113.5 1003.12,-134.25"/>
<text text-anchor="middle" x="967" y="-120.75" font-family="Helvetica,sans-Serif" font-size="10.00">byteorder.h</text>
</a>
</g>
</g>
<!-- Node26&#45;&gt;Node27 -->
<g id="edge43_Node000026_Node000027" class="edge">
<title>Node26&#45;&gt;Node27</title>
<g id="a_edge43_Node000026_Node000027"><a xlink:title=" ">
<path fill="none" stroke="#63b8ff" d="M837.25,-169.84C862.56,-161.07 899.92,-148.12 928.06,-138.37"/>
<polygon fill="#63b8ff" stroke="#63b8ff" points="929,-141.75 937.3,-135.17 926.71,-135.13 929,-141.75"/>
</a>
</g>
</g>
<!-- Node27&#45;&gt;Node6 -->
<g id="edge45_Node000027_Node000006" class="edge">
<title>Node27&#45;&gt;Node6</title>
<g id="a_edge45_Node000027_Node000006"><a xlink:title=" ">
<path fill="none" stroke="#63b8ff" d="M975.51,-113.14C986.75,-99.07 1003.54,-72.97 989,-56.75 964.13,-29 710.84,-16.52 613.15,-12.71"/>
<polygon fill="#63b8ff" stroke="#63b8ff" points="613.4,-9.22 603.28,-12.34 613.14,-16.21 613.4,-9.22"/>
</a>
</g>
</g>
<!-- Node28 -->
<g id="Node000028" class="node">
<title>Node28</title>
<g id="a_Node000028"><a xlink:title=" ">
<polygon fill="#e0e0e0" stroke="#999999" points="1088.38,-77.5 1035.62,-77.5 1035.62,-56.75 1088.38,-56.75 1088.38,-77.5"/>
<text text-anchor="middle" x="1062" y="-64" font-family="Helvetica,sans-Serif" font-size="10.00">string.h</text>
</a>
</g>
</g>
<!-- Node27&#45;&gt;Node28 -->
<g id="edge44_Node000027_Node000028" class="edge">
<title>Node27&#45;&gt;Node28</title>
<g id="a_edge44_Node000027_Node000028"><a xlink:title=" ">
<path fill="none" stroke="#63b8ff" d="M983.98,-113.09C998.3,-104.83 1019.04,-92.88 1035.54,-83.38"/>
<polygon fill="#63b8ff" stroke="#63b8ff" points="1036.94,-86.61 1043.85,-78.58 1033.44,-80.55 1036.94,-86.61"/>
</a>
</g>
</g>
<!-- Node29 -->
<g id="Node000029" class="node">
<title>Node29</title>
<g id="a_Node000029"><a xlink:href="endian_8h.html" target="_top" xlink:title="libc header for endian conversion">
<polygon fill="white" stroke="#666666" points="888,-77.5 830,-77.5 830,-56.75 888,-56.75 888,-77.5"/>
<text text-anchor="middle" x="859" y="-64" font-family="Helvetica,sans-Serif" font-size="10.00">endian.h</text>
</a>
</g>
</g>
<!-- Node27&#45;&gt;Node29 -->
<g id="edge46_Node000027_Node000029" class="edge">
<title>Node27&#45;&gt;Node29</title>
<g id="a_edge46_Node000027_Node000029"><a xlink:title=" ">
<path fill="none" stroke="#63b8ff" d="M947.69,-113.09C931.18,-104.72 907.17,-92.54 888.29,-82.97"/>
<polygon fill="#63b8ff" stroke="#63b8ff" points="889.99,-79.91 879.49,-78.51 886.83,-86.16 889.99,-79.91"/>
</a>
</g>
</g>
<!-- Node30 -->
<g id="Node000030" class="node">
<title>Node30</title>
<g id="a_Node000030"><a xlink:href="unaligned_8h.html" target="_top" xlink:title="Unaligned but safe memory access functions.">
<polygon fill="white" stroke="#666666" points="979.5,-77.5 906.5,-77.5 906.5,-56.75 979.5,-56.75 979.5,-77.5"/>
<text text-anchor="middle" x="943" y="-64" font-family="Helvetica,sans-Serif" font-size="10.00">unaligned.h</text>
</a>
</g>
</g>
<!-- Node27&#45;&gt;Node30 -->
<g id="edge48_Node000027_Node000030" class="edge">
<title>Node27&#45;&gt;Node30</title>
<g id="a_edge48_Node000027_Node000030"><a xlink:title=" ">
<path fill="none" stroke="#63b8ff" d="M962.71,-113.09C959.67,-106.16 955.49,-96.62 951.76,-88.11"/>
<polygon fill="#63b8ff" stroke="#63b8ff" points="955.08,-86.97 947.86,-79.21 948.67,-89.78 955.08,-86.97"/>
</a>
</g>
</g>
<!-- Node29&#45;&gt;Node6 -->
<g id="edge47_Node000029_Node000006" class="edge">
<title>Node29&#45;&gt;Node6</title>
<g id="a_edge47_Node000029_Node000006"><a xlink:title=" ">
<path fill="none" stroke="#63b8ff" d="M829.88,-59.66C825.24,-58.66 820.49,-57.66 816,-56.75 744.46,-42.22 660.63,-26.8 613.08,-18.2"/>
<polygon fill="#63b8ff" stroke="#63b8ff" points="613.75,-14.76 603.29,-16.43 612.51,-21.65 613.75,-14.76"/>
</a>
</g>
</g>
<!-- Node30&#45;&gt;Node6 -->
<g id="edge49_Node000030_Node000006" class="edge">
<title>Node30&#45;&gt;Node6</title>
<g id="a_edge49_Node000030_Node000006"><a xlink:title=" ">
<path fill="none" stroke="#63b8ff" d="M906.13,-58.4C903.05,-57.82 899.97,-57.26 897,-56.75 794.77,-39.15 673.4,-23.44 613.04,-15.97"/>
<polygon fill="#63b8ff" stroke="#63b8ff" points="613.66,-12.52 603.3,-14.77 612.8,-19.47 613.66,-12.52"/>
</a>
</g>
</g>
<!-- Node31&#45;&gt;Node8 -->
<g id="edge51_Node000031_Node000008" class="edge">
<title>Node31&#45;&gt;Node8</title>
<g id="a_edge51_Node000031_Node000008"><a xlink:title=" ">
<path fill="none" stroke="#63b8ff" d="M1004.93,-228.47C1001.91,-227.96 998.91,-227.47 996,-227 889.09,-209.74 857.66,-225.5 755,-191 718.83,-178.84 680.79,-156.19 657.23,-140.82"/>
<polygon fill="#63b8ff" stroke="#63b8ff" points="659.3,-137.99 649.04,-135.37 655.43,-143.82 659.3,-137.99"/>
</a>
</g>
</g>
<!-- Node31&#45;&gt;Node26 -->
<g id="edge54_Node000031_Node000026" class="edge">
<title>Node31&#45;&gt;Node26</title>
<g id="a_edge54_Node000031_Node000026"><a xlink:title=" ">
<path fill="none" stroke="#63b8ff" d="M1006.64,-226.52C966.58,-217.42 906.9,-203.87 863.61,-194.03"/>
<polygon fill="#63b8ff" stroke="#63b8ff" points="864.42,-190.63 853.9,-191.82 862.87,-197.45 864.42,-190.63"/>
</a>
</g>
</g>
<!-- Node31&#45;&gt;Node27 -->
<g id="edge53_Node000031_Node000027" class="edge">
<title>Node31&#45;&gt;Node27</title>
<g id="a_edge53_Node000031_Node000027"><a xlink:title=" ">
<path fill="none" stroke="#63b8ff" d="M1042.92,-226.87C1029.27,-208.53 999.07,-167.95 981.14,-143.87"/>
<polygon fill="#63b8ff" stroke="#63b8ff" points="983.98,-141.82 975.2,-135.89 978.36,-146 983.98,-141.82"/>
</a>
</g>
</g>
<!-- Node31&#45;&gt;Node28 -->
<g id="edge52_Node000031_Node000028" class="edge">
<title>Node31&#45;&gt;Node28</title>
<g id="a_edge52_Node000031_Node000028"><a xlink:title=" ">
<path fill="none" stroke="#63b8ff" d="M1050.68,-226.85C1052.56,-200.48 1057.87,-126.08 1060.49,-89.28"/>
<polygon fill="#63b8ff" stroke="#63b8ff" points="1063.97,-89.7 1061.19,-79.48 1056.99,-89.2 1063.97,-89.7"/>
</a>
</g>
</g>
</g>
</svg>
