<?xml version="1.0" encoding="UTF-8" standalone="no"?>
<!DOCTYPE svg PUBLIC "-//W3C//DTD SVG 1.1//EN"
 "http://www.w3.org/Graphics/SVG/1.1/DTD/svg11.dtd">
<!-- Generated by graphviz version 12.1.2 (0)
 -->
<!-- Title: pkg/semtech&#45;loramac/include/semtech&#45;loramac/timer.h Pages: 1 -->
<svg width="1383pt" height="622pt"
 viewBox="0.00 0.00 1382.99 621.75" xmlns="http://www.w3.org/2000/svg" xmlns:xlink="http://www.w3.org/1999/xlink">
<g id="graph0" class="graph" transform="scale(1 1) rotate(0) translate(4 617.75)">
<title>pkg/semtech&#45;loramac/include/semtech&#45;loramac/timer.h</title>
<!-- Node1 -->
<g id="Node000001" class="node">
<title>Node1</title>
<g id="a_Node000001"><a xlink:title="Semtech LoRaMAC timer compatibility definitions.">
<polygon fill="#999999" stroke="#666666" points="1296.36,-613.75 1153.61,-613.75 1153.61,-567.5 1296.36,-567.5 1296.36,-613.75"/>
<text text-anchor="start" x="1161.61" y="-600.25" font-family="Helvetica,sans-Serif" font-size="10.00">pkg/semtech&#45;loramac</text>
<text text-anchor="start" x="1161.61" y="-587.5" font-family="Helvetica,sans-Serif" font-size="10.00">/include/semtech&#45;loramac</text>
<text text-anchor="middle" x="1224.99" y="-574.75" font-family="Helvetica,sans-Serif" font-size="10.00">/timer.h</text>
</a>
</g>
</g>
<!-- Node2 -->
<g id="Node000002" class="node">
<title>Node2</title>
<g id="a_Node000002"><a xlink:href="ztimer_8h.html" target="_top" xlink:title="ztimer API">
<polygon fill="white" stroke="#666666" points="1253.24,-531.5 1196.74,-531.5 1196.74,-510.75 1253.24,-510.75 1253.24,-531.5"/>
<text text-anchor="middle" x="1224.99" y="-518" font-family="Helvetica,sans-Serif" font-size="10.00">ztimer.h</text>
</a>
</g>
</g>
<!-- Node1&#45;&gt;Node2 -->
<g id="edge1_Node000001_Node000002" class="edge">
<title>Node1&#45;&gt;Node2</title>
<g id="a_edge1_Node000001_Node000002"><a xlink:title=" ">
<path fill="none" stroke="#63b8ff" d="M1224.99,-567.15C1224.99,-559.48 1224.99,-550.94 1224.99,-543.38"/>
<polygon fill="#63b8ff" stroke="#63b8ff" points="1228.49,-543.4 1224.99,-533.4 1221.49,-543.4 1228.49,-543.4"/>
</a>
</g>
</g>
<!-- Node17 -->
<g id="Node000017" class="node">
<title>Node17</title>
<g id="a_Node000017"><a xlink:title=" ">
<polygon fill="#e0e0e0" stroke="#999999" points="1374.99,-474.75 1328.99,-474.75 1328.99,-454 1374.99,-454 1374.99,-474.75"/>
<text text-anchor="middle" x="1351.99" y="-461.25" font-family="Helvetica,sans-Serif" font-size="10.00">msg.h</text>
</a>
</g>
</g>
<!-- Node1&#45;&gt;Node17 -->
<g id="edge51_Node000001_Node000017" class="edge">
<title>Node1&#45;&gt;Node17</title>
<g id="a_edge51_Node000001_Node000017"><a xlink:title=" ">
<path fill="none" stroke="#63b8ff" d="M1247.99,-567.12C1272.72,-542.92 1311.53,-504.95 1334.09,-482.88"/>
<polygon fill="#63b8ff" stroke="#63b8ff" points="1336.36,-485.56 1341.06,-476.06 1331.47,-480.56 1336.36,-485.56"/>
</a>
</g>
</g>
<!-- Node29 -->
<g id="Node000029" class="node">
<title>Node29</title>
<g id="a_Node000029"><a xlink:href="semtech__loramac_8h.html" target="_top" xlink:title="Public API and definitions of the Semtech LoRaMAC.">
<polygon fill="white" stroke="#666666" points="682.99,-474.75 570.99,-474.75 570.99,-454 682.99,-454 682.99,-474.75"/>
<text text-anchor="middle" x="626.99" y="-461.25" font-family="Helvetica,sans-Serif" font-size="10.00">semtech_loramac.h</text>
</a>
</g>
</g>
<!-- Node1&#45;&gt;Node29 -->
<g id="edge52_Node000001_Node000029" class="edge">
<title>Node1&#45;&gt;Node29</title>
<g id="a_edge52_Node000001_Node000029"><a xlink:title=" ">
<path fill="none" stroke="#63b8ff" d="M1153.15,-574.7C1033.56,-549.85 795.92,-500.48 685.68,-477.57"/>
<polygon fill="#63b8ff" stroke="#63b8ff" points="686.45,-474.16 675.95,-475.55 685.03,-481.01 686.45,-474.16"/>
</a>
</g>
</g>
<!-- Node3 -->
<g id="Node000003" class="node">
<title>Node3</title>
<g id="a_Node000003"><a xlink:title=" ">
<polygon fill="#e0e0e0" stroke="#999999" points="653.36,-20.75 600.61,-20.75 600.61,0 653.36,0 653.36,-20.75"/>
<text text-anchor="middle" x="626.99" y="-7.25" font-family="Helvetica,sans-Serif" font-size="10.00">stdint.h</text>
</a>
</g>
</g>
<!-- Node2&#45;&gt;Node3 -->
<g id="edge2_Node000002_Node000003" class="edge">
<title>Node2&#45;&gt;Node3</title>
<g id="a_edge2_Node000002_Node000003"><a xlink:title=" ">
<path fill="none" stroke="#63b8ff" d="M1237.88,-510.31C1259.56,-492.58 1300.99,-452.9 1300.99,-408.62 1300.99,-408.62 1300.99,-408.62 1300.99,-122.88 1300.99,-70.7 1253.2,-74.07 1203.99,-56.75 1104.08,-21.59 777.42,-13.57 665.23,-11.83"/>
<polygon fill="#63b8ff" stroke="#63b8ff" points="665.4,-8.33 655.35,-11.69 665.3,-15.33 665.4,-8.33"/>
</a>
</g>
</g>
<!-- Node4 -->
<g id="Node000004" class="node">
<title>Node4</title>
<g id="a_Node000004"><a xlink:href="sched_8h.html" target="_top" xlink:title="Scheduler API definition.">
<polygon fill="white" stroke="#666666" points="1035.74,-247.75 982.24,-247.75 982.24,-227 1035.74,-227 1035.74,-247.75"/>
<text text-anchor="middle" x="1008.99" y="-234.25" font-family="Helvetica,sans-Serif" font-size="10.00">sched.h</text>
</a>
</g>
</g>
<!-- Node2&#45;&gt;Node4 -->
<g id="edge3_Node000002_Node000004" class="edge">
<title>Node2&#45;&gt;Node4</title>
<g id="a_edge3_Node000002_Node000004"><a xlink:title=" ">
<path fill="none" stroke="#63b8ff" d="M1218.04,-510.53C1194.54,-478.18 1115.69,-370.23 1046.99,-283.75 1039.82,-274.73 1031.64,-264.91 1024.71,-256.71"/>
<polygon fill="#63b8ff" stroke="#63b8ff" points="1027.42,-254.49 1018.27,-249.14 1022.09,-259.03 1027.42,-254.49"/>
</a>
</g>
</g>
<!-- Node2&#45;&gt;Node17 -->
<g id="edge22_Node000002_Node000017" class="edge">
<title>Node2&#45;&gt;Node17</title>
<g id="a_edge22_Node000002_Node000017"><a xlink:title=" ">
<path fill="none" stroke="#63b8ff" d="M1247.69,-510.34C1267.56,-501.77 1296.66,-489.23 1319.08,-479.56"/>
<polygon fill="#63b8ff" stroke="#63b8ff" points="1320.29,-482.85 1328.09,-475.68 1317.52,-476.42 1320.29,-482.85"/>
</a>
</g>
</g>
<!-- Node18 -->
<g id="Node000018" class="node">
<title>Node18</title>
<g id="a_Node000018"><a xlink:href="mutex_8h.html" target="_top" xlink:title="Mutex for thread synchronization.">
<polygon fill="white" stroke="#666666" points="794.24,-418 737.74,-418 737.74,-397.25 794.24,-397.25 794.24,-418"/>
<text text-anchor="middle" x="765.99" y="-404.5" font-family="Helvetica,sans-Serif" font-size="10.00">mutex.h</text>
</a>
</g>
</g>
<!-- Node2&#45;&gt;Node18 -->
<g id="edge23_Node000002_Node000018" class="edge">
<title>Node2&#45;&gt;Node18</title>
<g id="a_edge23_Node000002_Node000018"><a xlink:title=" ">
<path fill="none" stroke="#63b8ff" d="M1196.28,-513.15C1117.31,-493.97 896.72,-440.38 805.87,-418.31"/>
<polygon fill="#63b8ff" stroke="#63b8ff" points="806.7,-414.91 796.16,-415.95 805.05,-421.72 806.7,-414.91"/>
</a>
</g>
</g>
<!-- Node28 -->
<g id="Node000028" class="node">
<title>Node28</title>
<g id="a_Node000028"><a xlink:href="rmutex_8h.html" target="_top" xlink:title="Recursive Mutex for thread synchronization.">
<polygon fill="white" stroke="#666666" points="1137.11,-474.75 1076.86,-474.75 1076.86,-454 1137.11,-454 1137.11,-474.75"/>
<text text-anchor="middle" x="1106.99" y="-461.25" font-family="Helvetica,sans-Serif" font-size="10.00">rmutex.h</text>
</a>
</g>
</g>
<!-- Node2&#45;&gt;Node28 -->
<g id="edge47_Node000002_Node000028" class="edge">
<title>Node2&#45;&gt;Node28</title>
<g id="a_edge47_Node000002_Node000028"><a xlink:title=" ">
<path fill="none" stroke="#63b8ff" d="M1203.89,-510.34C1185.6,-501.85 1158.88,-489.45 1138.13,-479.83"/>
<polygon fill="#63b8ff" stroke="#63b8ff" points="1139.82,-476.75 1129.27,-475.72 1136.87,-483.1 1139.82,-476.75"/>
</a>
</g>
</g>
<!-- Node5 -->
<g id="Node000005" class="node">
<title>Node5</title>
<g id="a_Node000005"><a xlink:title=" ">
<polygon fill="#e0e0e0" stroke="#999999" points="1060.49,-77.5 1005.49,-77.5 1005.49,-56.75 1060.49,-56.75 1060.49,-77.5"/>
<text text-anchor="middle" x="1032.99" y="-64" font-family="Helvetica,sans-Serif" font-size="10.00">stddef.h</text>
</a>
</g>
</g>
<!-- Node4&#45;&gt;Node5 -->
<g id="edge4_Node000004_Node000005" class="edge">
<title>Node4&#45;&gt;Node5</title>
<g id="a_edge4_Node000004_Node000005"><a xlink:title=" ">
<path fill="none" stroke="#63b8ff" d="M1020.92,-226.55C1030.78,-217.97 1044.62,-204.75 1053.99,-191 1069.51,-168.22 1073.31,-161.22 1078.99,-134.25 1080.89,-125.23 1082.55,-122.01 1078.99,-113.5 1074.3,-102.29 1065.34,-92.44 1056.56,-84.8"/>
<polygon fill="#63b8ff" stroke="#63b8ff" points="1058.85,-82.15 1048.85,-78.63 1054.47,-87.62 1058.85,-82.15"/>
</a>
</g>
</g>
<!-- Node6 -->
<g id="Node000006" class="node">
<title>Node6</title>
<g id="a_Node000006"><a xlink:href="inttypes_8h.html" target="_top" xlink:title="Adds include for missing inttype definitions.">
<polygon fill="white" stroke="#666666" points="798.36,-191 733.61,-191 733.61,-170.25 798.36,-170.25 798.36,-191"/>
<text text-anchor="middle" x="765.99" y="-177.5" font-family="Helvetica,sans-Serif" font-size="10.00">inttypes.h</text>
</a>
</g>
</g>
<!-- Node4&#45;&gt;Node6 -->
<g id="edge5_Node000004_Node000006" class="edge">
<title>Node4&#45;&gt;Node6</title>
<g id="a_edge5_Node000004_Node000006"><a xlink:title=" ">
<path fill="none" stroke="#63b8ff" d="M981.89,-229.2C978.89,-228.44 975.88,-227.69 972.99,-227 916.9,-213.56 851.89,-199.56 809.91,-190.73"/>
<polygon fill="#63b8ff" stroke="#63b8ff" points="810.69,-187.32 800.18,-188.7 809.25,-194.17 810.69,-187.32"/>
</a>
</g>
</g>
<!-- Node7 -->
<g id="Node000007" class="node">
<title>Node7</title>
<g id="a_Node000007"><a xlink:href="kernel__defines_8h.html" target="_top" xlink:title="Common macros and compiler attributes/pragmas configuration.">
<polygon fill="white" stroke="#666666" points="385.11,-191 288.86,-191 288.86,-170.25 385.11,-170.25 385.11,-191"/>
<text text-anchor="middle" x="336.99" y="-177.5" font-family="Helvetica,sans-Serif" font-size="10.00">kernel_defines.h</text>
</a>
</g>
</g>
<!-- Node4&#45;&gt;Node7 -->
<g id="edge6_Node000004_Node000007" class="edge">
<title>Node4&#45;&gt;Node7</title>
<g id="a_edge6_Node000004_Node000007"><a xlink:title=" ">
<path fill="none" stroke="#63b8ff" d="M981.98,-228.75C978.96,-228.07 975.92,-227.47 972.99,-227 721.99,-186.9 652.16,-219.02 396.58,-191.17"/>
<polygon fill="#63b8ff" stroke="#63b8ff" points="397.28,-187.73 386.96,-190.1 396.51,-194.69 397.28,-187.73"/>
</a>
</g>
</g>
<!-- Node13 -->
<g id="Node000013" class="node">
<title>Node13</title>
<g id="a_Node000013"><a xlink:href="native__sched_8h.html" target="_top" xlink:title="Add definitions required on the native board.">
<polygon fill="white" stroke="#666666" points="1044.74,-191 955.24,-191 955.24,-170.25 1044.74,-170.25 1044.74,-191"/>
<text text-anchor="middle" x="999.99" y="-177.5" font-family="Helvetica,sans-Serif" font-size="10.00">native_sched.h</text>
</a>
</g>
</g>
<!-- Node4&#45;&gt;Node13 -->
<g id="edge17_Node000004_Node000013" class="edge">
<title>Node4&#45;&gt;Node13</title>
<g id="a_edge17_Node000004_Node000013"><a xlink:title=" ">
<path fill="none" stroke="#63b8ff" d="M1007.38,-226.59C1006.28,-219.89 1004.78,-210.76 1003.42,-202.48"/>
<polygon fill="#63b8ff" stroke="#63b8ff" points="1006.9,-202.12 1001.83,-192.82 1000,-203.26 1006.9,-202.12"/>
</a>
</g>
</g>
<!-- Node14 -->
<g id="Node000014" class="node">
<title>Node14</title>
<g id="a_Node000014"><a xlink:href="clist_8h.html" target="_top" xlink:title="Circular linked list.">
<polygon fill="white" stroke="#666666" points="937.61,-191 892.36,-191 892.36,-170.25 937.61,-170.25 937.61,-191"/>
<text text-anchor="middle" x="914.99" y="-177.5" font-family="Helvetica,sans-Serif" font-size="10.00">clist.h</text>
</a>
</g>
</g>
<!-- Node4&#45;&gt;Node14 -->
<g id="edge18_Node000004_Node000014" class="edge">
<title>Node4&#45;&gt;Node14</title>
<g id="a_edge18_Node000004_Node000014"><a xlink:title=" ">
<path fill="none" stroke="#63b8ff" d="M992.18,-226.59C978.01,-218.33 957.5,-206.38 941.17,-196.88"/>
<polygon fill="#63b8ff" stroke="#63b8ff" points="943.36,-194.1 932.96,-192.09 939.84,-200.15 943.36,-194.1"/>
</a>
</g>
</g>
<!-- Node8 -->
<g id="Node000008" class="node">
<title>Node8</title>
<g id="a_Node000008"><a xlink:href="modules_8h.html" target="_top" xlink:title="Common macros and compiler attributes/pragmas configuration.">
<polygon fill="white" stroke="#666666" points="363.49,-134.25 296.49,-134.25 296.49,-113.5 363.49,-113.5 363.49,-134.25"/>
<text text-anchor="middle" x="329.99" y="-120.75" font-family="Helvetica,sans-Serif" font-size="10.00">modules.h</text>
</a>
</g>
</g>
<!-- Node7&#45;&gt;Node8 -->
<g id="edge7_Node000007_Node000008" class="edge">
<title>Node7&#45;&gt;Node8</title>
<g id="a_edge7_Node000007_Node000008"><a xlink:title=" ">
<path fill="none" stroke="#63b8ff" d="M335.74,-169.84C334.88,-163.14 333.71,-154.01 332.65,-145.73"/>
<polygon fill="#63b8ff" stroke="#63b8ff" points="336.16,-145.56 331.42,-136.08 329.22,-146.44 336.16,-145.56"/>
</a>
</g>
</g>
<!-- Node9 -->
<g id="Node000009" class="node">
<title>Node9</title>
<g id="a_Node000009"><a xlink:href="riot__version_8h.html" target="_top" xlink:title="Common macros and compiler attributes/pragmas configuration.">
<polygon fill="white" stroke="#666666" points="455.36,-77.5 372.61,-77.5 372.61,-56.75 455.36,-56.75 455.36,-77.5"/>
<text text-anchor="middle" x="413.99" y="-64" font-family="Helvetica,sans-Serif" font-size="10.00">riot_version.h</text>
</a>
</g>
</g>
<!-- Node7&#45;&gt;Node9 -->
<g id="edge8_Node000007_Node000009" class="edge">
<title>Node7&#45;&gt;Node9</title>
<g id="a_edge8_Node000007_Node000009"><a xlink:title=" ">
<path fill="none" stroke="#63b8ff" d="M344.76,-170.08C352.03,-161.03 363.08,-146.96 371.99,-134.25 382.83,-118.79 394.27,-100.64 402.47,-87.27"/>
<polygon fill="#63b8ff" stroke="#63b8ff" points="405.28,-89.38 407.49,-79.01 399.3,-85.74 405.28,-89.38"/>
</a>
</g>
</g>
<!-- Node10 -->
<g id="Node000010" class="node">
<title>Node10</title>
<g id="a_Node000010"><a xlink:href="compiler__hints_8h.html" target="_top" xlink:title="Common macros and compiler attributes/pragmas configuration.">
<polygon fill="white" stroke="#666666" points="709.49,-134.25 612.49,-134.25 612.49,-113.5 709.49,-113.5 709.49,-134.25"/>
<text text-anchor="middle" x="660.99" y="-120.75" font-family="Helvetica,sans-Serif" font-size="10.00">compiler_hints.h</text>
</a>
</g>
</g>
<!-- Node7&#45;&gt;Node10 -->
<g id="edge10_Node000007_Node000010" class="edge">
<title>Node7&#45;&gt;Node10</title>
<g id="a_edge10_Node000007_Node000010"><a xlink:title=" ">
<path fill="none" stroke="#63b8ff" d="M385.49,-171.43C443,-161.71 538.84,-145.52 600.96,-135.02"/>
<polygon fill="#63b8ff" stroke="#63b8ff" points="601.38,-138.5 610.66,-133.38 600.21,-131.6 601.38,-138.5"/>
</a>
</g>
</g>
<!-- Node12 -->
<g id="Node000012" class="node">
<title>Node12</title>
<g id="a_Node000012"><a xlink:href="container_8h.html" target="_top" xlink:title="Common macros and compiler attributes/pragmas configuration.">
<polygon fill="white" stroke="#666666" points="798.36,-134.25 727.61,-134.25 727.61,-113.5 798.36,-113.5 798.36,-134.25"/>
<text text-anchor="middle" x="762.99" y="-120.75" font-family="Helvetica,sans-Serif" font-size="10.00">container.h</text>
</a>
</g>
</g>
<!-- Node7&#45;&gt;Node12 -->
<g id="edge14_Node000007_Node000012" class="edge">
<title>Node7&#45;&gt;Node12</title>
<g id="a_edge14_Node000007_Node000012"><a xlink:title=" ">
<path fill="none" stroke="#63b8ff" d="M385.47,-171.47C388.35,-171.04 391.21,-170.63 393.99,-170.25 534.02,-150.97 573.02,-156.75 716.23,-134.39"/>
<polygon fill="#63b8ff" stroke="#63b8ff" points="716.36,-137.91 725.69,-132.89 715.26,-131 716.36,-137.91"/>
</a>
</g>
</g>
<!-- Node9&#45;&gt;Node3 -->
<g id="edge9_Node000009_Node000003" class="edge">
<title>Node9&#45;&gt;Node3</title>
<g id="a_edge9_Node000009_Node000003"><a xlink:title=" ">
<path fill="none" stroke="#63b8ff" d="M452.07,-56.34C490.95,-46.34 550.93,-30.93 589.57,-20.99"/>
<polygon fill="#63b8ff" stroke="#63b8ff" points="590.07,-24.48 598.88,-18.6 588.32,-17.7 590.07,-24.48"/>
</a>
</g>
</g>
<!-- Node10&#45;&gt;Node3 -->
<g id="edge13_Node000010_Node000003" class="edge">
<title>Node10&#45;&gt;Node3</title>
<g id="a_edge13_Node000010_Node000003"><a xlink:title=" ">
<path fill="none" stroke="#63b8ff" d="M658.09,-113.37C652.62,-95.44 640.67,-56.25 633.28,-32.01"/>
<polygon fill="#63b8ff" stroke="#63b8ff" points="636.68,-31.17 630.42,-22.62 629.99,-33.21 636.68,-31.17"/>
</a>
</g>
</g>
<!-- Node11 -->
<g id="Node000011" class="node">
<title>Node11</title>
<g id="a_Node000011"><a xlink:href="assert_8h.html" target="_top" xlink:title="POSIX.1&#45;2008 compliant version of the assert macro.">
<polygon fill="white" stroke="#666666" points="616.49,-77.5 561.49,-77.5 561.49,-56.75 616.49,-56.75 616.49,-77.5"/>
<text text-anchor="middle" x="588.99" y="-64" font-family="Helvetica,sans-Serif" font-size="10.00">assert.h</text>
</a>
</g>
</g>
<!-- Node10&#45;&gt;Node11 -->
<g id="edge11_Node000010_Node000011" class="edge">
<title>Node10&#45;&gt;Node11</title>
<g id="a_edge11_Node000010_Node000011"><a xlink:title=" ">
<path fill="none" stroke="#63b8ff" d="M648.12,-113.09C637.78,-105.22 623.02,-94 610.84,-84.74"/>
<polygon fill="#63b8ff" stroke="#63b8ff" points="613.03,-82.01 602.95,-78.74 608.8,-87.58 613.03,-82.01"/>
</a>
</g>
</g>
<!-- Node11&#45;&gt;Node3 -->
<g id="edge12_Node000011_Node000003" class="edge">
<title>Node11&#45;&gt;Node3</title>
<g id="a_edge12_Node000011_Node000003"><a xlink:title=" ">
<path fill="none" stroke="#63b8ff" d="M595.78,-56.34C600.75,-49.17 607.66,-39.23 613.71,-30.51"/>
<polygon fill="#63b8ff" stroke="#63b8ff" points="616.56,-32.53 619.39,-22.32 610.81,-28.54 616.56,-32.53"/>
</a>
</g>
</g>
<!-- Node12&#45;&gt;Node3 -->
<g id="edge16_Node000012_Node000003" class="edge">
<title>Node12&#45;&gt;Node3</title>
<g id="a_edge16_Node000012_Node000003"><a xlink:title=" ">
<path fill="none" stroke="#63b8ff" d="M751.39,-113.37C728.42,-94.54 676.86,-52.26 647.84,-28.47"/>
<polygon fill="#63b8ff" stroke="#63b8ff" points="650.06,-25.77 640.11,-22.13 645.63,-31.18 650.06,-25.77"/>
</a>
</g>
</g>
<!-- Node12&#45;&gt;Node5 -->
<g id="edge15_Node000012_Node000005" class="edge">
<title>Node12&#45;&gt;Node5</title>
<g id="a_edge15_Node000012_Node000005"><a xlink:title=" ">
<path fill="none" stroke="#63b8ff" d="M798.84,-115.6C849.52,-105.33 941.74,-86.63 994.05,-76.02"/>
<polygon fill="#63b8ff" stroke="#63b8ff" points="994.6,-79.48 1003.71,-74.06 993.21,-72.62 994.6,-79.48"/>
</a>
</g>
</g>
<!-- Node14&#45;&gt;Node5 -->
<g id="edge20_Node000014_Node000005" class="edge">
<title>Node14&#45;&gt;Node5</title>
<g id="a_edge20_Node000014_Node000005"><a xlink:title=" ">
<path fill="none" stroke="#63b8ff" d="M925.05,-170.12C944.89,-151.37 989.33,-109.38 1014.56,-85.53"/>
<polygon fill="#63b8ff" stroke="#63b8ff" points="1016.65,-88.38 1021.52,-78.96 1011.84,-83.29 1016.65,-88.38"/>
</a>
</g>
</g>
<!-- Node15 -->
<g id="Node000015" class="node">
<title>Node15</title>
<g id="a_Node000015"><a xlink:title=" ">
<polygon fill="#e0e0e0" stroke="#999999" points="1070.49,-134.25 1009.49,-134.25 1009.49,-113.5 1070.49,-113.5 1070.49,-134.25"/>
<text text-anchor="middle" x="1039.99" y="-120.75" font-family="Helvetica,sans-Serif" font-size="10.00">stdbool.h</text>
</a>
</g>
</g>
<!-- Node14&#45;&gt;Node15 -->
<g id="edge19_Node000014_Node000015" class="edge">
<title>Node14&#45;&gt;Node15</title>
<g id="a_edge19_Node000014_Node000015"><a xlink:title=" ">
<path fill="none" stroke="#63b8ff" d="M937.34,-169.84C956.8,-161.31 985.27,-148.84 1007.3,-139.19"/>
<polygon fill="#63b8ff" stroke="#63b8ff" points="1008.69,-142.4 1016.45,-135.19 1005.88,-135.99 1008.69,-142.4"/>
</a>
</g>
</g>
<!-- Node16 -->
<g id="Node000016" class="node">
<title>Node16</title>
<g id="a_Node000016"><a xlink:href="list_8h.html" target="_top" xlink:title="Intrusive linked list.">
<polygon fill="white" stroke="#666666" points="914.99,-134.25 874.99,-134.25 874.99,-113.5 914.99,-113.5 914.99,-134.25"/>
<text text-anchor="middle" x="894.99" y="-120.75" font-family="Helvetica,sans-Serif" font-size="10.00">list.h</text>
</a>
</g>
</g>
<!-- Node14&#45;&gt;Node16 -->
<g id="edge21_Node000014_Node000016" class="edge">
<title>Node14&#45;&gt;Node16</title>
<g id="a_edge21_Node000014_Node000016"><a xlink:title=" ">
<path fill="none" stroke="#63b8ff" d="M911.41,-169.84C908.91,-162.99 905.48,-153.59 902.4,-145.15"/>
<polygon fill="#63b8ff" stroke="#63b8ff" points="905.77,-144.19 899.05,-136 899.2,-146.59 905.77,-144.19"/>
</a>
</g>
</g>
<!-- Node18&#45;&gt;Node3 -->
<g id="edge25_Node000018_Node000003" class="edge">
<title>Node18&#45;&gt;Node3</title>
<g id="a_edge25_Node000018_Node000003"><a xlink:title=" ">
<path fill="none" stroke="#63b8ff" d="M750.89,-396.95C721.54,-376.87 661.57,-328.74 683.99,-283.75 714.53,-222.47 776.45,-252.28 806.99,-191 822.35,-160.17 824.19,-143.34 806.99,-113.5 776.68,-60.92 708.01,-33.27 664.79,-20.54"/>
<polygon fill="#63b8ff" stroke="#63b8ff" points="665.89,-17.21 655.32,-17.88 664,-23.95 665.89,-17.21"/>
</a>
</g>
</g>
<!-- Node18&#45;&gt;Node5 -->
<g id="edge24_Node000018_Node000005" class="edge">
<title>Node18&#45;&gt;Node5</title>
<g id="a_edge24_Node000018_Node000005"><a xlink:title=" ">
<path fill="none" stroke="#63b8ff" d="M794.35,-406.43C852.06,-405.24 986.61,-398.34 1091.99,-361.25 1167.9,-334.53 1224.99,-318.85 1224.99,-238.38 1224.99,-238.38 1224.99,-238.38 1224.99,-179.62 1224.99,-109.63 1128.39,-82.83 1072.23,-73.17"/>
<polygon fill="#63b8ff" stroke="#63b8ff" points="1072.83,-69.72 1062.4,-71.6 1071.72,-76.63 1072.83,-69.72"/>
</a>
</g>
</g>
<!-- Node18&#45;&gt;Node7 -->
<g id="edge32_Node000018_Node000007" class="edge">
<title>Node18&#45;&gt;Node7</title>
<g id="a_edge32_Node000018_Node000007"><a xlink:title=" ">
<path fill="none" stroke="#63b8ff" d="M737.33,-399.72C708.76,-392.27 664.07,-379.03 627.99,-361.25 532.95,-314.41 522.73,-280.01 430.99,-227 411.28,-215.61 388.27,-204.47 369.95,-196.08"/>
<polygon fill="#63b8ff" stroke="#63b8ff" points="371.43,-192.91 360.88,-191.98 368.55,-199.29 371.43,-192.91"/>
</a>
</g>
</g>
<!-- Node18&#45;&gt;Node15 -->
<g id="edge26_Node000018_Node000015" class="edge">
<title>Node18&#45;&gt;Node15</title>
<g id="a_edge26_Node000018_Node000015"><a xlink:title=" ">
<path fill="none" stroke="#63b8ff" d="M794.56,-403.83C878.5,-394.96 1121.35,-364.47 1167.99,-304.5 1213.84,-245.54 1115.5,-172.14 1066.09,-140.54"/>
<polygon fill="#63b8ff" stroke="#63b8ff" points="1068.25,-137.77 1057.92,-135.43 1064.54,-143.7 1068.25,-137.77"/>
</a>
</g>
</g>
<!-- Node18&#45;&gt;Node16 -->
<g id="edge33_Node000018_Node000016" class="edge">
<title>Node18&#45;&gt;Node16</title>
<g id="a_edge33_Node000018_Node000016"><a xlink:title=" ">
<path fill="none" stroke="#63b8ff" d="M737.28,-407.05C669.85,-406.39 506.99,-394.5 506.99,-295.12 506.99,-295.12 506.99,-295.12 506.99,-236.38 506.99,-205.8 502.73,-190.1 525.99,-170.25 532.41,-164.77 774.66,-137.95 863.1,-128.33"/>
<polygon fill="#63b8ff" stroke="#63b8ff" points="863.44,-131.81 873.01,-127.25 862.69,-124.85 863.44,-131.81"/>
</a>
</g>
</g>
<!-- Node19 -->
<g id="Node000019" class="node">
<title>Node19</title>
<g id="a_Node000019"><a xlink:href="architecture_8h.html" target="_top" xlink:title="Platform&#45;independent access to architecture details.">
<polygon fill="white" stroke="#666666" points="622.74,-247.75 539.24,-247.75 539.24,-227 622.74,-227 622.74,-247.75"/>
<text text-anchor="middle" x="580.99" y="-234.25" font-family="Helvetica,sans-Serif" font-size="10.00">architecture.h</text>
</a>
</g>
</g>
<!-- Node18&#45;&gt;Node19 -->
<g id="edge27_Node000018_Node000019" class="edge">
<title>Node18&#45;&gt;Node19</title>
<g id="a_edge27_Node000018_Node000019"><a xlink:title=" ">
<path fill="none" stroke="#63b8ff" d="M737.66,-401.07C712.5,-394.93 675.96,-382.91 650.99,-361.25 618.5,-333.07 597.7,-285.93 587.8,-258.96"/>
<polygon fill="#63b8ff" stroke="#63b8ff" points="591.12,-257.85 584.52,-249.56 584.51,-260.16 591.12,-257.85"/>
</a>
</g>
</g>
<!-- Node22 -->
<g id="Node000022" class="node">
<title>Node22</title>
<g id="a_Node000022"><a xlink:href="core_2include_2thread_8h.html" target="_top" xlink:title="Threading API.">
<polygon fill="white" stroke="#666666" points="889.24,-361.25 832.74,-361.25 832.74,-340.5 889.24,-340.5 889.24,-361.25"/>
<text text-anchor="middle" x="860.99" y="-347.75" font-family="Helvetica,sans-Serif" font-size="10.00">thread.h</text>
</a>
</g>
</g>
<!-- Node18&#45;&gt;Node22 -->
<g id="edge34_Node000018_Node000022" class="edge">
<title>Node18&#45;&gt;Node22</title>
<g id="a_edge34_Node000018_Node000022"><a xlink:title=" ">
<path fill="none" stroke="#63b8ff" d="M782.97,-396.84C797.29,-388.58 818.03,-376.63 834.52,-367.13"/>
<polygon fill="#63b8ff" stroke="#63b8ff" points="835.92,-370.36 842.84,-362.33 832.43,-364.3 835.92,-370.36"/>
</a>
</g>
</g>
<!-- Node19&#45;&gt;Node3 -->
<g id="edge28_Node000019_Node000003" class="edge">
<title>Node19&#45;&gt;Node3</title>
<g id="a_edge28_Node000019_Node000003"><a xlink:title=" ">
<path fill="none" stroke="#63b8ff" d="M538.91,-233.05C460.1,-226.39 296.66,-210.38 279.99,-191 273.97,-184.01 279.42,-179.45 279.99,-170.25 281.55,-144.88 274.16,-135.44 286.99,-113.5 308.45,-76.8 324.88,-73.42 363.99,-56.75 439.51,-24.55 536.49,-15.19 589.04,-12.47"/>
<polygon fill="#63b8ff" stroke="#63b8ff" points="589.14,-15.97 598.97,-12.02 588.82,-8.98 589.14,-15.97"/>
</a>
</g>
</g>
<!-- Node19&#45;&gt;Node6 -->
<g id="edge29_Node000019_Node000006" class="edge">
<title>Node19&#45;&gt;Node6</title>
<g id="a_edge29_Node000019_Node000006"><a xlink:title=" ">
<path fill="none" stroke="#63b8ff" d="M614.06,-226.59C644.32,-217.63 689.28,-204.33 722.44,-194.51"/>
<polygon fill="#63b8ff" stroke="#63b8ff" points="723.15,-197.95 731.75,-191.76 721.17,-191.24 723.15,-197.95"/>
</a>
</g>
</g>
<!-- Node20 -->
<g id="Node000020" class="node">
<title>Node20</title>
<g id="a_Node000020"><a xlink:title=" ">
<polygon fill="#e0e0e0" stroke="#999999" points="715.36,-191 662.61,-191 662.61,-170.25 715.36,-170.25 715.36,-191"/>
<text text-anchor="middle" x="688.99" y="-177.5" font-family="Helvetica,sans-Serif" font-size="10.00">limits.h</text>
</a>
</g>
</g>
<!-- Node19&#45;&gt;Node20 -->
<g id="edge30_Node000019_Node000020" class="edge">
<title>Node19&#45;&gt;Node20</title>
<g id="a_edge30_Node000019_Node000020"><a xlink:title=" ">
<path fill="none" stroke="#63b8ff" d="M600.3,-226.59C616.81,-218.22 640.82,-206.04 659.7,-196.47"/>
<polygon fill="#63b8ff" stroke="#63b8ff" points="661.16,-199.66 668.5,-192.01 658,-193.41 661.16,-199.66"/>
</a>
</g>
</g>
<!-- Node21 -->
<g id="Node000021" class="node">
<title>Node21</title>
<g id="a_Node000021"><a xlink:title=" ">
<polygon fill="#e0e0e0" stroke="#999999" points="644.86,-191 535.11,-191 535.11,-170.25 644.86,-170.25 644.86,-191"/>
<text text-anchor="middle" x="589.99" y="-177.5" font-family="Helvetica,sans-Serif" font-size="10.00">architecture_arch.h</text>
</a>
</g>
</g>
<!-- Node19&#45;&gt;Node21 -->
<g id="edge31_Node000019_Node000021" class="edge">
<title>Node19&#45;&gt;Node21</title>
<g id="a_edge31_Node000019_Node000021"><a xlink:title=" ">
<path fill="none" stroke="#63b8ff" d="M582.6,-226.59C583.7,-219.89 585.2,-210.76 586.56,-202.48"/>
<polygon fill="#63b8ff" stroke="#63b8ff" points="589.98,-203.26 588.15,-192.82 583.07,-202.12 589.98,-203.26"/>
</a>
</g>
</g>
<!-- Node22&#45;&gt;Node4 -->
<g id="edge42_Node000022_Node000004" class="edge">
<title>Node22&#45;&gt;Node4</title>
<g id="a_edge42_Node000022_Node000004"><a xlink:title=" ">
<path fill="none" stroke="#63b8ff" d="M889.72,-347.33C918.95,-343.22 963.6,-332.48 989.99,-304.5 1001.53,-292.27 1006.12,-273.5 1007.92,-259.07"/>
<polygon fill="#63b8ff" stroke="#63b8ff" points="1011.39,-259.56 1008.75,-249.3 1004.41,-258.97 1011.39,-259.56"/>
</a>
</g>
</g>
<!-- Node22&#45;&gt;Node14 -->
<g id="edge35_Node000022_Node000014" class="edge">
<title>Node22&#45;&gt;Node14</title>
<g id="a_edge35_Node000022_Node000014"><a xlink:title=" ">
<path fill="none" stroke="#63b8ff" d="M861.88,-340.3C864.1,-319.19 870.87,-267.28 886.99,-227 890.67,-217.8 896.17,-208.36 901.33,-200.48"/>
<polygon fill="#63b8ff" stroke="#63b8ff" points="904.08,-202.66 906.86,-192.44 898.31,-198.69 904.08,-202.66"/>
</a>
</g>
</g>
<!-- Node23 -->
<g id="Node000023" class="node">
<title>Node23</title>
<g id="a_Node000023"><a xlink:href="cib_8h.html" target="_top" xlink:title="Circular integer buffer interface.">
<polygon fill="white" stroke="#666666" points="732.61,-304.5 693.36,-304.5 693.36,-283.75 732.61,-283.75 732.61,-304.5"/>
<text text-anchor="middle" x="712.99" y="-291" font-family="Helvetica,sans-Serif" font-size="10.00">cib.h</text>
</a>
</g>
</g>
<!-- Node22&#45;&gt;Node23 -->
<g id="edge36_Node000022_Node000023" class="edge">
<title>Node22&#45;&gt;Node23</title>
<g id="a_edge36_Node000022_Node000023"><a xlink:title=" ">
<path fill="none" stroke="#63b8ff" d="M834.53,-340.09C809.07,-330.67 770.58,-316.43 743.76,-306.51"/>
<polygon fill="#63b8ff" stroke="#63b8ff" points="745.06,-303.26 734.47,-303.07 742.64,-309.82 745.06,-303.26"/>
</a>
</g>
</g>
<!-- Node24 -->
<g id="Node000024" class="node">
<title>Node24</title>
<g id="a_Node000024"><a xlink:href="core_2include_2msg_8h.html" target="_top" xlink:title="Messaging API for inter process communication.">
<polygon fill="white" stroke="#666666" points="1158.99,-304.5 1112.99,-304.5 1112.99,-283.75 1158.99,-283.75 1158.99,-304.5"/>
<text text-anchor="middle" x="1135.99" y="-291" font-family="Helvetica,sans-Serif" font-size="10.00">msg.h</text>
</a>
</g>
</g>
<!-- Node22&#45;&gt;Node24 -->
<g id="edge38_Node000022_Node000024" class="edge">
<title>Node22&#45;&gt;Node24</title>
<g id="a_edge38_Node000022_Node000024"><a xlink:title=" ">
<path fill="none" stroke="#63b8ff" d="M889.64,-344.17C940.52,-334.04 1046.44,-312.95 1101.34,-302.02"/>
<polygon fill="#63b8ff" stroke="#63b8ff" points="1101.94,-305.47 1111.07,-300.09 1100.58,-298.61 1101.94,-305.47"/>
</a>
</g>
</g>
<!-- Node25 -->
<g id="Node000025" class="node">
<title>Node25</title>
<g id="a_Node000025"><a xlink:href="thread__config_8h.html" target="_top" xlink:title="Thread configuration defines.">
<polygon fill="white" stroke="#666666" points="980.86,-304.5 889.11,-304.5 889.11,-283.75 980.86,-283.75 980.86,-304.5"/>
<text text-anchor="middle" x="934.99" y="-291" font-family="Helvetica,sans-Serif" font-size="10.00">thread_config.h</text>
</a>
</g>
</g>
<!-- Node22&#45;&gt;Node25 -->
<g id="edge43_Node000022_Node000025" class="edge">
<title>Node22&#45;&gt;Node25</title>
<g id="a_edge43_Node000022_Node000025"><a xlink:title=" ">
<path fill="none" stroke="#63b8ff" d="M874.22,-340.09C884.95,-332.15 900.31,-320.78 912.91,-311.46"/>
<polygon fill="#63b8ff" stroke="#63b8ff" points="914.7,-314.49 920.66,-305.73 910.54,-308.86 914.7,-314.49"/>
</a>
</g>
</g>
<!-- Node27 -->
<g id="Node000027" class="node">
<title>Node27</title>
<g id="a_Node000027"><a xlink:title=" ">
<polygon fill="#e0e0e0" stroke="#999999" points="833.36,-304.5 750.61,-304.5 750.61,-283.75 833.36,-283.75 833.36,-304.5"/>
<text text-anchor="middle" x="791.99" y="-291" font-family="Helvetica,sans-Serif" font-size="10.00">thread_arch.h</text>
</a>
</g>
</g>
<!-- Node22&#45;&gt;Node27 -->
<g id="edge46_Node000022_Node000027" class="edge">
<title>Node22&#45;&gt;Node27</title>
<g id="a_edge46_Node000022_Node000027"><a xlink:title=" ">
<path fill="none" stroke="#63b8ff" d="M848.65,-340.09C838.74,-332.22 824.6,-321 812.92,-311.74"/>
<polygon fill="#63b8ff" stroke="#63b8ff" points="815.41,-309.24 805.4,-305.77 811.06,-314.73 815.41,-309.24"/>
</a>
</g>
</g>
<!-- Node23&#45;&gt;Node11 -->
<g id="edge37_Node000023_Node000011" class="edge">
<title>Node23&#45;&gt;Node11</title>
<g id="a_edge37_Node000023_Node000011"><a xlink:title=" ">
<path fill="none" stroke="#63b8ff" d="M730.54,-283.34C766.25,-262.22 841.17,-210.99 806.99,-170.25 747.81,-99.72 669.19,-198.24 602.99,-134.25 591.11,-122.77 588.06,-103.92 587.73,-89.28"/>
<polygon fill="#63b8ff" stroke="#63b8ff" points="591.22,-89.37 587.94,-79.3 584.23,-89.22 591.22,-89.37"/>
</a>
</g>
</g>
<!-- Node24&#45;&gt;Node3 -->
<g id="edge39_Node000024_Node000003" class="edge">
<title>Node24&#45;&gt;Node3</title>
<g id="a_edge39_Node000024_Node000003"><a xlink:title=" ">
<path fill="none" stroke="#63b8ff" d="M1143.96,-283.37C1158.3,-264.78 1186.99,-222.5 1186.99,-181.62 1186.99,-181.62 1186.99,-181.62 1186.99,-122.88 1186.99,-16.16 790.88,-10.08 664.94,-10.84"/>
<polygon fill="#63b8ff" stroke="#63b8ff" points="665.11,-7.34 655.13,-10.92 665.16,-14.34 665.11,-7.34"/>
</a>
</g>
</g>
<!-- Node24&#45;&gt;Node4 -->
<g id="edge41_Node000024_Node000004" class="edge">
<title>Node24&#45;&gt;Node4</title>
<g id="a_edge41_Node000024_Node000004"><a xlink:title=" ">
<path fill="none" stroke="#63b8ff" d="M1113.28,-283.34C1093.42,-274.77 1064.31,-262.23 1041.9,-252.56"/>
<polygon fill="#63b8ff" stroke="#63b8ff" points="1043.46,-249.42 1032.89,-248.68 1040.68,-255.85 1043.46,-249.42"/>
</a>
</g>
</g>
<!-- Node24&#45;&gt;Node15 -->
<g id="edge40_Node000024_Node000015" class="edge">
<title>Node24&#45;&gt;Node15</title>
<g id="a_edge40_Node000024_Node000015"><a xlink:title=" ">
<path fill="none" stroke="#63b8ff" d="M1130.55,-283.6C1115.31,-256.89 1071.94,-180.87 1051.24,-144.6"/>
<polygon fill="#63b8ff" stroke="#63b8ff" points="1054.35,-142.98 1046.35,-136.03 1048.27,-146.45 1054.35,-142.98"/>
</a>
</g>
</g>
<!-- Node25&#45;&gt;Node4 -->
<g id="edge45_Node000025_Node000004" class="edge">
<title>Node25&#45;&gt;Node4</title>
<g id="a_edge45_Node000025_Node000004"><a xlink:title=" ">
<path fill="none" stroke="#63b8ff" d="M948.22,-283.34C958.95,-275.4 974.31,-264.03 986.91,-254.71"/>
<polygon fill="#63b8ff" stroke="#63b8ff" points="988.7,-257.74 994.66,-248.98 984.54,-252.11 988.7,-257.74"/>
</a>
</g>
</g>
<!-- Node26 -->
<g id="Node000026" class="node">
<title>Node26</title>
<g id="a_Node000026"><a xlink:title=" ">
<polygon fill="#e0e0e0" stroke="#999999" points="963.86,-247.75 896.11,-247.75 896.11,-227 963.86,-227 963.86,-247.75"/>
<text text-anchor="middle" x="929.99" y="-234.25" font-family="Helvetica,sans-Serif" font-size="10.00">cpu_conf.h</text>
</a>
</g>
</g>
<!-- Node25&#45;&gt;Node26 -->
<g id="edge44_Node000025_Node000026" class="edge">
<title>Node25&#45;&gt;Node26</title>
<g id="a_edge44_Node000025_Node000026"><a xlink:title=" ">
<path fill="none" stroke="#63b8ff" d="M934.09,-283.34C933.49,-276.72 932.67,-267.72 931.92,-259.52"/>
<polygon fill="#63b8ff" stroke="#63b8ff" points="935.41,-259.23 931.01,-249.59 928.44,-259.86 935.41,-259.23"/>
</a>
</g>
</g>
<!-- Node28&#45;&gt;Node3 -->
<g id="edge48_Node000028_Node000003" class="edge">
<title>Node28&#45;&gt;Node3</title>
<g id="a_edge48_Node000028_Node000003"><a xlink:title=" ">
<path fill="none" stroke="#63b8ff" d="M1137.44,-456.31C1182.84,-443.76 1262.99,-412.96 1262.99,-351.88 1262.99,-351.88 1262.99,-351.88 1262.99,-122.88 1262.99,-63.53 1203.64,-74.43 1146.99,-56.75 1056.91,-28.63 769.27,-16.23 665.11,-12.59"/>
<polygon fill="#63b8ff" stroke="#63b8ff" points="665.25,-9.09 655.13,-12.25 665.01,-16.09 665.25,-9.09"/>
</a>
</g>
</g>
<!-- Node28&#45;&gt;Node4 -->
<g id="edge50_Node000028_Node000004" class="edge">
<title>Node28&#45;&gt;Node4</title>
<g id="a_edge50_Node000028_Node000004"><a xlink:title=" ">
<path fill="none" stroke="#63b8ff" d="M1102.78,-453.71C1087.95,-419.67 1037.96,-304.9 1017.67,-258.3"/>
<polygon fill="#63b8ff" stroke="#63b8ff" points="1020.99,-257.17 1013.79,-249.39 1014.57,-259.96 1020.99,-257.17"/>
</a>
</g>
</g>
<!-- Node28&#45;&gt;Node18 -->
<g id="edge49_Node000028_Node000018" class="edge">
<title>Node28&#45;&gt;Node18</title>
<g id="a_edge49_Node000028_Node000018"><a xlink:title=" ">
<path fill="none" stroke="#63b8ff" d="M1076.43,-458.47C1014.61,-448.54 874.78,-426.09 805.88,-415.03"/>
<polygon fill="#63b8ff" stroke="#63b8ff" points="806.59,-411.6 796.16,-413.47 805.48,-418.51 806.59,-411.6"/>
</a>
</g>
</g>
<!-- Node29&#45;&gt;Node6 -->
<g id="edge53_Node000029_Node000006" class="edge">
<title>Node29&#45;&gt;Node6</title>
<g id="a_edge53_Node000029_Node000006"><a xlink:title=" ">
<path fill="none" stroke="#63b8ff" d="M626.03,-453.71C623.69,-425.59 619.97,-342.09 650.99,-283.75 671.33,-245.49 712.09,-214.7 739.21,-197.29"/>
<polygon fill="#63b8ff" stroke="#63b8ff" points="740.94,-200.33 747.58,-192.08 737.24,-194.39 740.94,-200.33"/>
</a>
</g>
</g>
<!-- Node29&#45;&gt;Node18 -->
<g id="edge54_Node000029_Node000018" class="edge">
<title>Node29&#45;&gt;Node18</title>
<g id="a_edge54_Node000029_Node000018"><a xlink:title=" ">
<path fill="none" stroke="#63b8ff" d="M651.84,-453.59C673.88,-444.91 706.31,-432.13 730.97,-422.42"/>
<polygon fill="#63b8ff" stroke="#63b8ff" points="731.92,-425.8 739.94,-418.88 729.36,-419.29 731.92,-425.8"/>
</a>
</g>
</g>
<!-- Node30 -->
<g id="Node000030" class="node">
<title>Node30</title>
<g id="a_Node000030"><a xlink:href="drivers_2include_2net_2netdev_8h.html" target="_top" xlink:title="Definitions low&#45;level network driver interface.">
<polygon fill="white" stroke="#666666" points="260.36,-247.75 183.61,-247.75 183.61,-227 260.36,-227 260.36,-247.75"/>
<text text-anchor="middle" x="221.99" y="-234.25" font-family="Helvetica,sans-Serif" font-size="10.00">net/netdev.h</text>
</a>
</g>
</g>
<!-- Node29&#45;&gt;Node30 -->
<g id="edge55_Node000029_Node000030" class="edge">
<title>Node29&#45;&gt;Node30</title>
<g id="a_edge55_Node000029_Node000030"><a xlink:title=" ">
<path fill="none" stroke="#63b8ff" d="M570.58,-460.91C523.36,-456.81 455.48,-446.05 402.99,-418 326.97,-377.38 261.89,-294.65 235.08,-257.36"/>
<polygon fill="#63b8ff" stroke="#63b8ff" points="238.05,-255.5 229.43,-249.35 232.33,-259.54 238.05,-255.5"/>
</a>
</g>
</g>
<!-- Node34 -->
<g id="Node000034" class="node">
<title>Node34</title>
<g id="a_Node000034"><a xlink:href="loramac_8h.html" target="_top" xlink:title="LoRaMAC header definitions.">
<polygon fill="white" stroke="#666666" points="232.74,-191 149.24,-191 149.24,-170.25 232.74,-170.25 232.74,-191"/>
<text text-anchor="middle" x="190.99" y="-177.5" font-family="Helvetica,sans-Serif" font-size="10.00">net/loramac.h</text>
</a>
</g>
</g>
<!-- Node29&#45;&gt;Node34 -->
<g id="edge63_Node000029_Node000034" class="edge">
<title>Node29&#45;&gt;Node34</title>
<g id="a_edge63_Node000029_Node000034"><a xlink:title=" ">
<path fill="none" stroke="#63b8ff" d="M570.71,-457.67C508.51,-447.88 416.99,-421.64 416.99,-351.88 416.99,-351.88 416.99,-351.88 416.99,-293.12 416.99,-253.63 304.57,-214.38 238.31,-194.68"/>
<polygon fill="#63b8ff" stroke="#63b8ff" points="239.33,-191.33 228.75,-191.88 237.37,-198.05 239.33,-191.33"/>
</a>
</g>
</g>
<!-- Node30&#45;&gt;Node3 -->
<g id="edge56_Node000030_Node000003" class="edge">
<title>Node30&#45;&gt;Node3</title>
<g id="a_edge56_Node000030_Node000003"><a xlink:title=" ">
<path fill="none" stroke="#63b8ff" d="M183.44,-234.03C127,-229.71 26.18,-218.29 3.99,-191 -1.83,-183.85 -0.33,-178.4 3.99,-170.25 45.98,-90.94 86.63,-87.36 170.99,-56.75 247.64,-28.94 493.9,-16.57 589.01,-12.75"/>
<polygon fill="#63b8ff" stroke="#63b8ff" points="588.99,-16.25 598.85,-12.36 588.72,-9.26 588.99,-16.25"/>
</a>
</g>
</g>
<!-- Node30&#45;&gt;Node7 -->
<g id="edge62_Node000030_Node000007" class="edge">
<title>Node30&#45;&gt;Node7</title>
<g id="a_edge62_Node000030_Node000007"><a xlink:title=" ">
<path fill="none" stroke="#63b8ff" d="M242.55,-226.59C260.29,-218.14 286.17,-205.82 306.36,-196.21"/>
<polygon fill="#63b8ff" stroke="#63b8ff" points="307.72,-199.44 315.24,-191.98 304.71,-193.12 307.72,-199.44"/>
</a>
</g>
</g>
<!-- Node31 -->
<g id="Node000031" class="node">
<title>Node31</title>
<g id="a_Node000031"><a xlink:href="errno_8h.html" target="_top" xlink:title=" ">
<polygon fill="white" stroke="#666666" points="131.24,-191 80.74,-191 80.74,-170.25 131.24,-170.25 131.24,-191"/>
<text text-anchor="middle" x="105.99" y="-177.5" font-family="Helvetica,sans-Serif" font-size="10.00">errno.h</text>
</a>
</g>
</g>
<!-- Node30&#45;&gt;Node31 -->
<g id="edge57_Node000030_Node000031" class="edge">
<title>Node30&#45;&gt;Node31</title>
<g id="a_edge57_Node000030_Node000031"><a xlink:title=" ">
<path fill="none" stroke="#63b8ff" d="M201.25,-226.59C183.35,-218.14 157.25,-205.82 136.89,-196.21"/>
<polygon fill="#63b8ff" stroke="#63b8ff" points="138.45,-193.08 127.92,-191.97 135.47,-199.41 138.45,-193.08"/>
</a>
</g>
</g>
<!-- Node32 -->
<g id="Node000032" class="node">
<title>Node32</title>
<g id="a_Node000032"><a xlink:href="iolist_8h.html" target="_top" xlink:title="iolist scatter / gather IO">
<polygon fill="white" stroke="#666666" points="62.49,-191 13.49,-191 13.49,-170.25 62.49,-170.25 62.49,-191"/>
<text text-anchor="middle" x="37.99" y="-177.5" font-family="Helvetica,sans-Serif" font-size="10.00">iolist.h</text>
</a>
</g>
</g>
<!-- Node30&#45;&gt;Node32 -->
<g id="edge58_Node000030_Node000032" class="edge">
<title>Node30&#45;&gt;Node32</title>
<g id="a_edge58_Node000030_Node000032"><a xlink:title=" ">
<path fill="none" stroke="#63b8ff" d="M189.09,-226.59C156.59,-216.91 107.01,-202.16 73.6,-192.22"/>
<polygon fill="#63b8ff" stroke="#63b8ff" points="74.97,-188.98 64.38,-189.48 72.97,-195.69 74.97,-188.98"/>
</a>
</g>
</g>
<!-- Node33 -->
<g id="Node000033" class="node">
<title>Node33</title>
<g id="a_Node000033"><a xlink:href="netopt_8h.html" target="_top" xlink:title="Definition of global configuration options.">
<polygon fill="white" stroke="#666666" points="478.61,-191 403.36,-191 403.36,-170.25 478.61,-170.25 478.61,-191"/>
<text text-anchor="middle" x="440.99" y="-177.5" font-family="Helvetica,sans-Serif" font-size="10.00">net/netopt.h</text>
</a>
</g>
</g>
<!-- Node30&#45;&gt;Node33 -->
<g id="edge59_Node000030_Node000033" class="edge">
<title>Node30&#45;&gt;Node33</title>
<g id="a_edge59_Node000030_Node000033"><a xlink:title=" ">
<path fill="none" stroke="#63b8ff" d="M260.64,-226.71C297.26,-217.56 352.42,-203.77 392.09,-193.85"/>
<polygon fill="#63b8ff" stroke="#63b8ff" points="392.77,-197.29 401.62,-191.47 391.07,-190.5 392.77,-197.29"/>
</a>
</g>
</g>
<!-- Node33&#45;&gt;Node3 -->
<g id="edge60_Node000033_Node000003" class="edge">
<title>Node33&#45;&gt;Node3</title>
<g id="a_edge60_Node000033_Node000003"><a xlink:title=" ">
<path fill="none" stroke="#63b8ff" d="M448.23,-169.81C464.84,-147.76 507.65,-93.35 551.99,-56.75 565.97,-45.21 583.17,-34.59 597.57,-26.53"/>
<polygon fill="#63b8ff" stroke="#63b8ff" points="599.04,-29.71 606.15,-21.86 595.69,-23.56 599.04,-29.71"/>
</a>
</g>
</g>
<!-- Node33&#45;&gt;Node15 -->
<g id="edge61_Node000033_Node000015" class="edge">
<title>Node33&#45;&gt;Node15</title>
<g id="a_edge61_Node000033_Node000015"><a xlink:title=" ">
<path fill="none" stroke="#63b8ff" d="M479.05,-175.25C493.71,-173.61 510.62,-171.78 525.99,-170.25 701.13,-152.86 910.19,-135.44 997.94,-128.27"/>
<polygon fill="#63b8ff" stroke="#63b8ff" points="998.07,-131.78 1007.75,-127.48 997.5,-124.8 998.07,-131.78"/>
</a>
</g>
</g>
<!-- Node34&#45;&gt;Node3 -->
<g id="edge65_Node000034_Node000003" class="edge">
<title>Node34&#45;&gt;Node3</title>
<g id="a_edge65_Node000034_Node000003"><a xlink:title=" ">
<path fill="none" stroke="#63b8ff" d="M173.04,-169.95C152.58,-157.59 123.6,-135.2 136.99,-113.5 166.49,-65.67 196.18,-72.96 249.99,-56.75 370.22,-20.53 520.25,-13.09 589.17,-11.65"/>
<polygon fill="#63b8ff" stroke="#63b8ff" points="588.85,-15.16 598.78,-11.49 588.72,-8.16 588.85,-15.16"/>
</a>
</g>
</g>
<!-- Node34&#45;&gt;Node8 -->
<g id="edge67_Node000034_Node000008" class="edge">
<title>Node34&#45;&gt;Node8</title>
<g id="a_edge67_Node000034_Node000008"><a xlink:title=" ">
<path fill="none" stroke="#63b8ff" d="M215.84,-169.84C237.88,-161.16 270.31,-148.38 294.97,-138.67"/>
<polygon fill="#63b8ff" stroke="#63b8ff" points="295.92,-142.05 303.94,-135.13 293.36,-135.54 295.92,-142.05"/>
</a>
</g>
</g>
<!-- Node34&#45;&gt;Node11 -->
<g id="edge64_Node000034_Node000011" class="edge">
<title>Node34&#45;&gt;Node11</title>
<g id="a_edge64_Node000034_Node000011"><a xlink:title=" ">
<path fill="none" stroke="#63b8ff" d="M201.55,-169.88C218.29,-155.05 252.54,-127.1 286.99,-113.5 334.17,-94.87 479.54,-78.74 549.96,-71.78"/>
<polygon fill="#63b8ff" stroke="#63b8ff" points="549.87,-75.31 559.49,-70.85 549.19,-68.34 549.87,-75.31"/>
</a>
</g>
</g>
<!-- Node35 -->
<g id="Node000035" class="node">
<title>Node35</title>
<g id="a_Node000035"><a xlink:title=" ">
<polygon fill="#e0e0e0" stroke="#999999" points="197.99,-134.25 145.99,-134.25 145.99,-113.5 197.99,-113.5 197.99,-134.25"/>
<text text-anchor="middle" x="171.99" y="-120.75" font-family="Helvetica,sans-Serif" font-size="10.00">stdlib.h</text>
</a>
</g>
</g>
<!-- Node34&#45;&gt;Node35 -->
<g id="edge66_Node000034_Node000035" class="edge">
<title>Node34&#45;&gt;Node35</title>
<g id="a_edge66_Node000034_Node000035"><a xlink:title=" ">
<path fill="none" stroke="#63b8ff" d="M187.59,-169.84C185.24,-163.06 182.03,-153.8 179.12,-145.44"/>
<polygon fill="#63b8ff" stroke="#63b8ff" points="182.44,-144.31 175.85,-136.01 175.82,-146.6 182.44,-144.31"/>
</a>
</g>
</g>
</g>
</svg>
