<?xml version="1.0" encoding="UTF-8" standalone="no"?>
<!DOCTYPE svg PUBLIC "-//W3C//DTD SVG 1.1//EN"
 "http://www.w3.org/Graphics/SVG/1.1/DTD/svg11.dtd">
<!-- Generated by graphviz version 12.1.2 (0)
 -->
<!-- Title: pkg/lwip/include/lwip/netif/netdev.h Pages: 1 -->
<svg width="794pt" height="325pt"
 viewBox="0.00 0.00 794.40 325.25" xmlns="http://www.w3.org/2000/svg" xmlns:xlink="http://www.w3.org/1999/xlink">
<g id="graph0" class="graph" transform="scale(1 1) rotate(0) translate(4 321.25)">
<title>pkg/lwip/include/lwip/netif/netdev.h</title>
<!-- Node1 -->
<g id="Node000001" class="node">
<title>Node1</title>
<g id="a_Node000001"><a xlink:title="lwIP netdev adapter definitions">
<polygon fill="#999999" stroke="#666666" points="564.4,-317.25 445.65,-317.25 445.65,-283.75 564.4,-283.75 564.4,-317.25"/>
<text text-anchor="start" x="453.65" y="-303.75" font-family="Helvetica,sans-Serif" font-size="10.00">pkg/lwip/include/lwip</text>
<text text-anchor="middle" x="505.03" y="-291" font-family="Helvetica,sans-Serif" font-size="10.00">/netif/netdev.h</text>
</a>
</g>
</g>
<!-- Node2 -->
<g id="Node000002" class="node">
<title>Node2</title>
<g id="a_Node000002"><a xlink:href="ethernet_8h.html" target="_top" xlink:title="Definitions for Ethernet.">
<polygon fill="white" stroke="#666666" points="197.53,-247.75 112.53,-247.75 112.53,-227 197.53,-227 197.53,-247.75"/>
<text text-anchor="middle" x="155.03" y="-234.25" font-family="Helvetica,sans-Serif" font-size="10.00">net/ethernet.h</text>
</a>
</g>
</g>
<!-- Node1&#45;&gt;Node2 -->
<g id="edge1_Node000001_Node000002" class="edge">
<title>Node1&#45;&gt;Node2</title>
<g id="a_edge1_Node000001_Node000002"><a xlink:title=" ">
<path fill="none" stroke="#63b8ff" d="M445.26,-289.06C378.95,-277.48 272.91,-258.96 209.03,-247.81"/>
<polygon fill="#63b8ff" stroke="#63b8ff" points="209.94,-244.41 199.48,-246.14 208.73,-251.31 209.94,-244.41"/>
</a>
</g>
</g>
<!-- Node11 -->
<g id="Node000011" class="node">
<title>Node11</title>
<g id="a_Node000011"><a xlink:href="drivers_2include_2net_2netdev_8h.html" target="_top" xlink:title="Definitions low&#45;level network driver interface.">
<polygon fill="white" stroke="#666666" points="456.4,-247.75 379.65,-247.75 379.65,-227 456.4,-227 456.4,-247.75"/>
<text text-anchor="middle" x="418.03" y="-234.25" font-family="Helvetica,sans-Serif" font-size="10.00">net/netdev.h</text>
</a>
</g>
</g>
<!-- Node1&#45;&gt;Node11 -->
<g id="edge15_Node000001_Node000011" class="edge">
<title>Node1&#45;&gt;Node11</title>
<g id="a_edge15_Node000001_Node000011"><a xlink:title=" ">
<path fill="none" stroke="#63b8ff" d="M482.17,-283.44C469.61,-274.62 454.08,-263.7 441.44,-254.82"/>
<polygon fill="#63b8ff" stroke="#63b8ff" points="443.47,-251.97 433.27,-249.09 439.44,-257.7 443.47,-251.97"/>
</a>
</g>
</g>
<!-- Node23 -->
<g id="Node000023" class="node">
<title>Node23</title>
<g id="a_Node000023"><a xlink:title=" ">
<polygon fill="#e0e0e0" stroke="#999999" points="535.9,-247.75 474.15,-247.75 474.15,-227 535.9,-227 535.9,-247.75"/>
<text text-anchor="middle" x="505.03" y="-234.25" font-family="Helvetica,sans-Serif" font-size="10.00">lwip/err.h</text>
</a>
</g>
</g>
<!-- Node1&#45;&gt;Node23 -->
<g id="edge33_Node000001_Node000023" class="edge">
<title>Node1&#45;&gt;Node23</title>
<g id="a_edge33_Node000001_Node000023"><a xlink:title=" ">
<path fill="none" stroke="#63b8ff" d="M505.03,-283.44C505.03,-276.1 505.03,-267.32 505.03,-259.46"/>
<polygon fill="#63b8ff" stroke="#63b8ff" points="508.53,-259.73 505.03,-249.73 501.53,-259.73 508.53,-259.73"/>
</a>
</g>
</g>
<!-- Node24 -->
<g id="Node000024" class="node">
<title>Node24</title>
<g id="a_Node000024"><a xlink:title=" ">
<polygon fill="#e0e0e0" stroke="#999999" points="624.03,-247.75 554.03,-247.75 554.03,-227 624.03,-227 624.03,-247.75"/>
<text text-anchor="middle" x="589.03" y="-234.25" font-family="Helvetica,sans-Serif" font-size="10.00">lwip/netif.h</text>
</a>
</g>
</g>
<!-- Node1&#45;&gt;Node24 -->
<g id="edge34_Node000001_Node000024" class="edge">
<title>Node1&#45;&gt;Node24</title>
<g id="a_edge34_Node000001_Node000024"><a xlink:title=" ">
<path fill="none" stroke="#63b8ff" d="M527.1,-283.44C539.22,-274.62 554.22,-263.7 566.42,-254.82"/>
<polygon fill="#63b8ff" stroke="#63b8ff" points="568.25,-257.82 574.28,-249.11 564.13,-252.16 568.25,-257.82"/>
</a>
</g>
</g>
<!-- Node25 -->
<g id="Node000025" class="node">
<title>Node25</title>
<g id="a_Node000025"><a xlink:title=" ">
<polygon fill="#e0e0e0" stroke="#999999" points="714.15,-247.75 641.9,-247.75 641.9,-227 714.15,-227 714.15,-247.75"/>
<text text-anchor="middle" x="678.03" y="-234.25" font-family="Helvetica,sans-Serif" font-size="10.00">lwip/tcpip.h</text>
</a>
</g>
</g>
<!-- Node1&#45;&gt;Node25 -->
<g id="edge35_Node000001_Node000025" class="edge">
<title>Node1&#45;&gt;Node25</title>
<g id="a_edge35_Node000001_Node000025"><a xlink:title=" ">
<path fill="none" stroke="#63b8ff" d="M550.93,-283.28C578.61,-273.5 613.46,-261.19 639.66,-251.93"/>
<polygon fill="#63b8ff" stroke="#63b8ff" points="640.63,-255.3 648.89,-248.67 638.3,-248.7 640.63,-255.3"/>
</a>
</g>
</g>
<!-- Node3 -->
<g id="Node000003" class="node">
<title>Node3</title>
<g id="a_Node000003"><a xlink:title=" ">
<polygon fill="#e0e0e0" stroke="#999999" points="357.4,-20.75 304.65,-20.75 304.65,0 357.4,0 357.4,-20.75"/>
<text text-anchor="middle" x="331.03" y="-7.25" font-family="Helvetica,sans-Serif" font-size="10.00">stdint.h</text>
</a>
</g>
</g>
<!-- Node2&#45;&gt;Node3 -->
<g id="edge2_Node000002_Node000003" class="edge">
<title>Node2&#45;&gt;Node3</title>
<g id="a_edge2_Node000002_Node000003"><a xlink:title=" ">
<path fill="none" stroke="#63b8ff" d="M112.19,-227.73C88.71,-221.09 60.5,-209.78 41.03,-191 -2.19,-149.32 -16.99,-98.63 26.03,-56.75 63.27,-20.49 219.51,-13.13 292.78,-11.69"/>
<polygon fill="#63b8ff" stroke="#63b8ff" points="292.76,-15.19 302.7,-11.53 292.65,-8.19 292.76,-15.19"/>
</a>
</g>
</g>
<!-- Node4 -->
<g id="Node000004" class="node">
<title>Node4</title>
<g id="a_Node000004"><a xlink:href="net_2ethernet_2hdr_8h.html" target="_top" xlink:title="Ethernet header definitions.">
<polygon fill="white" stroke="#666666" points="153.9,-191 50.15,-191 50.15,-170.25 153.9,-170.25 153.9,-191"/>
<text text-anchor="middle" x="102.03" y="-177.5" font-family="Helvetica,sans-Serif" font-size="10.00">net/ethernet/hdr.h</text>
</a>
</g>
</g>
<!-- Node2&#45;&gt;Node4 -->
<g id="edge3_Node000002_Node000004" class="edge">
<title>Node2&#45;&gt;Node4</title>
<g id="a_edge3_Node000002_Node000004"><a xlink:title=" ">
<path fill="none" stroke="#63b8ff" d="M145.55,-226.59C138.24,-219.03 127.93,-208.39 119.18,-199.35"/>
<polygon fill="#63b8ff" stroke="#63b8ff" points="121.94,-197.17 112.47,-192.42 116.91,-202.04 121.94,-197.17"/>
</a>
</g>
</g>
<!-- Node10 -->
<g id="Node000010" class="node">
<title>Node10</title>
<g id="a_Node000010"><a xlink:href="eui64_8h.html" target="_top" xlink:title="EUI&#45;64 data type definition.">
<polygon fill="white" stroke="#666666" points="242.4,-191 171.65,-191 171.65,-170.25 242.4,-170.25 242.4,-191"/>
<text text-anchor="middle" x="207.03" y="-177.5" font-family="Helvetica,sans-Serif" font-size="10.00">net/eui64.h</text>
</a>
</g>
</g>
<!-- Node2&#45;&gt;Node10 -->
<g id="edge12_Node000002_Node000010" class="edge">
<title>Node2&#45;&gt;Node10</title>
<g id="a_edge12_Node000002_Node000010"><a xlink:title=" ">
<path fill="none" stroke="#63b8ff" d="M164.32,-226.59C171.42,-219.11 181.4,-208.61 189.93,-199.63"/>
<polygon fill="#63b8ff" stroke="#63b8ff" points="192.42,-202.09 196.77,-192.43 187.34,-197.27 192.42,-202.09"/>
</a>
</g>
</g>
<!-- Node5 -->
<g id="Node000005" class="node">
<title>Node5</title>
<g id="a_Node000005"><a xlink:href="inttypes_8h.html" target="_top" xlink:title="Adds include for missing inttype definitions.">
<polygon fill="white" stroke="#666666" points="89.4,-134.25 24.65,-134.25 24.65,-113.5 89.4,-113.5 89.4,-134.25"/>
<text text-anchor="middle" x="57.03" y="-120.75" font-family="Helvetica,sans-Serif" font-size="10.00">inttypes.h</text>
</a>
</g>
</g>
<!-- Node4&#45;&gt;Node5 -->
<g id="edge4_Node000004_Node000005" class="edge">
<title>Node4&#45;&gt;Node5</title>
<g id="a_edge4_Node000004_Node000005"><a xlink:title=" ">
<path fill="none" stroke="#63b8ff" d="M93.98,-169.84C87.97,-162.52 79.56,-152.29 72.28,-143.44"/>
<polygon fill="#63b8ff" stroke="#63b8ff" points="75.02,-141.25 65.96,-135.75 69.61,-145.7 75.02,-141.25"/>
</a>
</g>
</g>
<!-- Node6 -->
<g id="Node000006" class="node">
<title>Node6</title>
<g id="a_Node000006"><a xlink:href="byteorder_8h.html" target="_top" xlink:title="Functions to work with different byte orders.">
<polygon fill="white" stroke="#666666" points="180.15,-134.25 107.9,-134.25 107.9,-113.5 180.15,-113.5 180.15,-134.25"/>
<text text-anchor="middle" x="144.03" y="-120.75" font-family="Helvetica,sans-Serif" font-size="10.00">byteorder.h</text>
</a>
</g>
</g>
<!-- Node4&#45;&gt;Node6 -->
<g id="edge5_Node000004_Node000006" class="edge">
<title>Node4&#45;&gt;Node6</title>
<g id="a_edge5_Node000004_Node000006"><a xlink:title=" ">
<path fill="none" stroke="#63b8ff" d="M109.53,-169.84C115.15,-162.52 122.99,-152.29 129.78,-143.44"/>
<polygon fill="#63b8ff" stroke="#63b8ff" points="132.35,-145.84 135.66,-135.78 126.8,-141.58 132.35,-145.84"/>
</a>
</g>
</g>
<!-- Node6&#45;&gt;Node3 -->
<g id="edge7_Node000006_Node000003" class="edge">
<title>Node6&#45;&gt;Node3</title>
<g id="a_edge7_Node000006_Node000003"><a xlink:title=" ">
<path fill="none" stroke="#63b8ff" d="M107.41,-115.11C67.3,-104.97 11.69,-85.12 36.03,-56.75 68.71,-18.66 220.84,-12.23 292.94,-11.36"/>
<polygon fill="#63b8ff" stroke="#63b8ff" points="292.72,-14.86 302.69,-11.28 292.66,-7.86 292.72,-14.86"/>
</a>
</g>
</g>
<!-- Node7 -->
<g id="Node000007" class="node">
<title>Node7</title>
<g id="a_Node000007"><a xlink:title=" ">
<polygon fill="#e0e0e0" stroke="#999999" points="97.4,-77.5 44.65,-77.5 44.65,-56.75 97.4,-56.75 97.4,-77.5"/>
<text text-anchor="middle" x="71.03" y="-64" font-family="Helvetica,sans-Serif" font-size="10.00">string.h</text>
</a>
</g>
</g>
<!-- Node6&#45;&gt;Node7 -->
<g id="edge6_Node000006_Node000007" class="edge">
<title>Node6&#45;&gt;Node7</title>
<g id="a_edge6_Node000006_Node000007"><a xlink:title=" ">
<path fill="none" stroke="#63b8ff" d="M130.97,-113.09C120.39,-105.15 105.23,-93.78 92.81,-84.46"/>
<polygon fill="#63b8ff" stroke="#63b8ff" points="95.27,-81.94 85.17,-78.74 91.07,-87.54 95.27,-81.94"/>
</a>
</g>
</g>
<!-- Node8 -->
<g id="Node000008" class="node">
<title>Node8</title>
<g id="a_Node000008"><a xlink:href="endian_8h.html" target="_top" xlink:title="libc header for endian conversion">
<polygon fill="white" stroke="#666666" points="173.03,-77.5 115.03,-77.5 115.03,-56.75 173.03,-56.75 173.03,-77.5"/>
<text text-anchor="middle" x="144.03" y="-64" font-family="Helvetica,sans-Serif" font-size="10.00">endian.h</text>
</a>
</g>
</g>
<!-- Node6&#45;&gt;Node8 -->
<g id="edge8_Node000006_Node000008" class="edge">
<title>Node6&#45;&gt;Node8</title>
<g id="a_edge8_Node000006_Node000008"><a xlink:title=" ">
<path fill="none" stroke="#63b8ff" d="M144.03,-113.09C144.03,-106.47 144.03,-97.47 144.03,-89.27"/>
<polygon fill="#63b8ff" stroke="#63b8ff" points="147.53,-89.34 144.03,-79.34 140.53,-89.34 147.53,-89.34"/>
</a>
</g>
</g>
<!-- Node9 -->
<g id="Node000009" class="node">
<title>Node9</title>
<g id="a_Node000009"><a xlink:href="unaligned_8h.html" target="_top" xlink:title="Unaligned but safe memory access functions.">
<polygon fill="white" stroke="#666666" points="264.53,-77.5 191.53,-77.5 191.53,-56.75 264.53,-56.75 264.53,-77.5"/>
<text text-anchor="middle" x="228.03" y="-64" font-family="Helvetica,sans-Serif" font-size="10.00">unaligned.h</text>
</a>
</g>
</g>
<!-- Node6&#45;&gt;Node9 -->
<g id="edge10_Node000006_Node000009" class="edge">
<title>Node6&#45;&gt;Node9</title>
<g id="a_edge10_Node000006_Node000009"><a xlink:title=" ">
<path fill="none" stroke="#63b8ff" d="M159.04,-113.09C171.47,-104.99 189.35,-93.33 203.8,-83.92"/>
<polygon fill="#63b8ff" stroke="#63b8ff" points="205.4,-87.05 211.87,-78.65 201.58,-81.18 205.4,-87.05"/>
</a>
</g>
</g>
<!-- Node8&#45;&gt;Node3 -->
<g id="edge9_Node000008_Node000003" class="edge">
<title>Node8&#45;&gt;Node3</title>
<g id="a_edge9_Node000008_Node000003"><a xlink:title=" ">
<path fill="none" stroke="#63b8ff" d="M173.24,-57.57C205.69,-48.07 258.14,-32.71 293.57,-22.34"/>
<polygon fill="#63b8ff" stroke="#63b8ff" points="294.37,-25.76 302.98,-19.59 292.4,-19.04 294.37,-25.76"/>
</a>
</g>
</g>
<!-- Node9&#45;&gt;Node3 -->
<g id="edge11_Node000009_Node000003" class="edge">
<title>Node9&#45;&gt;Node3</title>
<g id="a_edge11_Node000009_Node000003"><a xlink:title=" ">
<path fill="none" stroke="#63b8ff" d="M246.44,-56.34C262.11,-48.01 284.87,-35.91 302.84,-26.36"/>
<polygon fill="#63b8ff" stroke="#63b8ff" points="304.25,-29.57 311.43,-21.79 300.96,-23.39 304.25,-29.57"/>
</a>
</g>
</g>
<!-- Node10&#45;&gt;Node3 -->
<g id="edge13_Node000010_Node000003" class="edge">
<title>Node10&#45;&gt;Node3</title>
<g id="a_edge13_Node000010_Node000003"><a xlink:title=" ">
<path fill="none" stroke="#63b8ff" d="M214.05,-170.1C233.9,-143.16 290.73,-66.06 317.17,-30.17"/>
<polygon fill="#63b8ff" stroke="#63b8ff" points="319.76,-32.56 322.87,-22.44 314.12,-28.41 319.76,-32.56"/>
</a>
</g>
</g>
<!-- Node10&#45;&gt;Node6 -->
<g id="edge14_Node000010_Node000006" class="edge">
<title>Node10&#45;&gt;Node6</title>
<g id="a_edge14_Node000010_Node000006"><a xlink:title=" ">
<path fill="none" stroke="#63b8ff" d="M195.76,-169.84C186.89,-162.13 174.31,-151.2 163.78,-142.04"/>
<polygon fill="#63b8ff" stroke="#63b8ff" points="166.18,-139.49 156.33,-135.57 161.59,-144.77 166.18,-139.49"/>
</a>
</g>
</g>
<!-- Node11&#45;&gt;Node3 -->
<g id="edge16_Node000011_Node000003" class="edge">
<title>Node11&#45;&gt;Node3</title>
<g id="a_edge16_Node000011_Node000003"><a xlink:title=" ">
<path fill="none" stroke="#63b8ff" d="M393.46,-226.54C378.31,-219.12 359.94,-207.4 350.03,-191 319.68,-140.81 323.53,-68.08 327.81,-32.53"/>
<polygon fill="#63b8ff" stroke="#63b8ff" points="331.26,-33.11 329.14,-22.73 324.33,-32.17 331.26,-33.11"/>
</a>
</g>
</g>
<!-- Node12 -->
<g id="Node000012" class="node">
<title>Node12</title>
<g id="a_Node000012"><a xlink:href="errno_8h.html" target="_top" xlink:title=" ">
<polygon fill="white" stroke="#666666" points="409.28,-191 358.78,-191 358.78,-170.25 409.28,-170.25 409.28,-191"/>
<text text-anchor="middle" x="384.03" y="-177.5" font-family="Helvetica,sans-Serif" font-size="10.00">errno.h</text>
</a>
</g>
</g>
<!-- Node11&#45;&gt;Node12 -->
<g id="edge17_Node000011_Node000012" class="edge">
<title>Node11&#45;&gt;Node12</title>
<g id="a_edge17_Node000011_Node000012"><a xlink:title=" ">
<path fill="none" stroke="#63b8ff" d="M411.95,-226.59C407.55,-219.5 401.45,-209.69 396.08,-201.04"/>
<polygon fill="#63b8ff" stroke="#63b8ff" points="399.1,-199.26 390.85,-192.61 393.15,-202.96 399.1,-199.26"/>
</a>
</g>
</g>
<!-- Node13 -->
<g id="Node000013" class="node">
<title>Node13</title>
<g id="a_Node000013"><a xlink:href="iolist_8h.html" target="_top" xlink:title="iolist scatter / gather IO">
<polygon fill="white" stroke="#666666" points="476.53,-191 427.53,-191 427.53,-170.25 476.53,-170.25 476.53,-191"/>
<text text-anchor="middle" x="452.03" y="-177.5" font-family="Helvetica,sans-Serif" font-size="10.00">iolist.h</text>
</a>
</g>
</g>
<!-- Node11&#45;&gt;Node13 -->
<g id="edge18_Node000011_Node000013" class="edge">
<title>Node11&#45;&gt;Node13</title>
<g id="a_edge18_Node000011_Node000013"><a xlink:title=" ">
<path fill="none" stroke="#63b8ff" d="M424.1,-226.59C428.5,-219.5 434.6,-209.69 439.97,-201.04"/>
<polygon fill="#63b8ff" stroke="#63b8ff" points="442.9,-202.96 445.2,-192.61 436.95,-199.26 442.9,-202.96"/>
</a>
</g>
</g>
<!-- Node14 -->
<g id="Node000014" class="node">
<title>Node14</title>
<g id="a_Node000014"><a xlink:href="netopt_8h.html" target="_top" xlink:title="Definition of global configuration options.">
<polygon fill="white" stroke="#666666" points="569.65,-191 494.4,-191 494.4,-170.25 569.65,-170.25 569.65,-191"/>
<text text-anchor="middle" x="532.03" y="-177.5" font-family="Helvetica,sans-Serif" font-size="10.00">net/netopt.h</text>
</a>
</g>
</g>
<!-- Node11&#45;&gt;Node14 -->
<g id="edge19_Node000011_Node000014" class="edge">
<title>Node11&#45;&gt;Node14</title>
<g id="a_edge19_Node000011_Node000014"><a xlink:title=" ">
<path fill="none" stroke="#63b8ff" d="M438.41,-226.59C456,-218.14 481.65,-205.82 501.66,-196.21"/>
<polygon fill="#63b8ff" stroke="#63b8ff" points="502.96,-199.47 510.46,-191.98 499.93,-193.16 502.96,-199.47"/>
</a>
</g>
</g>
<!-- Node16 -->
<g id="Node000016" class="node">
<title>Node16</title>
<g id="a_Node000016"><a xlink:href="kernel__defines_8h.html" target="_top" xlink:title="Common macros and compiler attributes/pragmas configuration.">
<polygon fill="white" stroke="#666666" points="684.15,-191 587.9,-191 587.9,-170.25 684.15,-170.25 684.15,-191"/>
<text text-anchor="middle" x="636.03" y="-177.5" font-family="Helvetica,sans-Serif" font-size="10.00">kernel_defines.h</text>
</a>
</g>
</g>
<!-- Node11&#45;&gt;Node16 -->
<g id="edge22_Node000011_Node000016" class="edge">
<title>Node11&#45;&gt;Node16</title>
<g id="a_edge22_Node000011_Node000016"><a xlink:title=" ">
<path fill="none" stroke="#63b8ff" d="M456.75,-226.65C492.79,-217.6 546.72,-204.05 586.01,-194.19"/>
<polygon fill="#63b8ff" stroke="#63b8ff" points="586.61,-197.64 595.46,-191.81 584.91,-190.85 586.61,-197.64"/>
</a>
</g>
</g>
<!-- Node14&#45;&gt;Node3 -->
<g id="edge20_Node000014_Node000003" class="edge">
<title>Node14&#45;&gt;Node3</title>
<g id="a_edge20_Node000014_Node000003"><a xlink:title=" ">
<path fill="none" stroke="#63b8ff" d="M494.08,-171.22C457.3,-162.44 404.81,-148.05 389.03,-134.25 372.65,-119.93 349.76,-62.46 338.25,-31.46"/>
<polygon fill="#63b8ff" stroke="#63b8ff" points="341.67,-30.62 334.95,-22.43 335.1,-33.03 341.67,-30.62"/>
</a>
</g>
</g>
<!-- Node15 -->
<g id="Node000015" class="node">
<title>Node15</title>
<g id="a_Node000015"><a xlink:title=" ">
<polygon fill="#e0e0e0" stroke="#999999" points="458.53,-134.25 397.53,-134.25 397.53,-113.5 458.53,-113.5 458.53,-134.25"/>
<text text-anchor="middle" x="428.03" y="-120.75" font-family="Helvetica,sans-Serif" font-size="10.00">stdbool.h</text>
</a>
</g>
</g>
<!-- Node14&#45;&gt;Node15 -->
<g id="edge21_Node000014_Node000015" class="edge">
<title>Node14&#45;&gt;Node15</title>
<g id="a_edge21_Node000014_Node000015"><a xlink:title=" ">
<path fill="none" stroke="#63b8ff" d="M513.43,-169.84C497.61,-161.51 474.63,-149.41 456.49,-139.86"/>
<polygon fill="#63b8ff" stroke="#63b8ff" points="458.28,-136.84 447.8,-135.28 455.02,-143.04 458.28,-136.84"/>
</a>
</g>
</g>
<!-- Node17 -->
<g id="Node000017" class="node">
<title>Node17</title>
<g id="a_Node000017"><a xlink:href="modules_8h.html" target="_top" xlink:title="Common macros and compiler attributes/pragmas configuration.">
<polygon fill="white" stroke="#666666" points="543.53,-134.25 476.53,-134.25 476.53,-113.5 543.53,-113.5 543.53,-134.25"/>
<text text-anchor="middle" x="510.03" y="-120.75" font-family="Helvetica,sans-Serif" font-size="10.00">modules.h</text>
</a>
</g>
</g>
<!-- Node16&#45;&gt;Node17 -->
<g id="edge23_Node000016_Node000017" class="edge">
<title>Node16&#45;&gt;Node17</title>
<g id="a_edge23_Node000016_Node000017"><a xlink:title=" ">
<path fill="none" stroke="#63b8ff" d="M613.5,-169.84C593.79,-161.27 564.92,-148.73 542.67,-139.06"/>
<polygon fill="#63b8ff" stroke="#63b8ff" points="544.31,-135.96 533.74,-135.18 541.52,-142.38 544.31,-135.96"/>
</a>
</g>
</g>
<!-- Node18 -->
<g id="Node000018" class="node">
<title>Node18</title>
<g id="a_Node000018"><a xlink:href="riot__version_8h.html" target="_top" xlink:title="Common macros and compiler attributes/pragmas configuration.">
<polygon fill="white" stroke="#666666" points="484.4,-77.5 401.65,-77.5 401.65,-56.75 484.4,-56.75 484.4,-77.5"/>
<text text-anchor="middle" x="443.03" y="-64" font-family="Helvetica,sans-Serif" font-size="10.00">riot_version.h</text>
</a>
</g>
</g>
<!-- Node16&#45;&gt;Node18 -->
<g id="edge24_Node000016_Node000018" class="edge">
<title>Node16&#45;&gt;Node18</title>
<g id="a_edge24_Node000016_Node000018"><a xlink:title=" ">
<path fill="none" stroke="#63b8ff" d="M625.73,-169.82C610.7,-155.89 581.45,-130.23 553.03,-113.5 531.19,-100.65 505.04,-89.7 483.71,-81.78"/>
<polygon fill="#63b8ff" stroke="#63b8ff" points="485.06,-78.54 474.47,-78.43 482.68,-85.13 485.06,-78.54"/>
</a>
</g>
</g>
<!-- Node19 -->
<g id="Node000019" class="node">
<title>Node19</title>
<g id="a_Node000019"><a xlink:href="compiler__hints_8h.html" target="_top" xlink:title="Common macros and compiler attributes/pragmas configuration.">
<polygon fill="white" stroke="#666666" points="697.53,-134.25 600.53,-134.25 600.53,-113.5 697.53,-113.5 697.53,-134.25"/>
<text text-anchor="middle" x="649.03" y="-120.75" font-family="Helvetica,sans-Serif" font-size="10.00">compiler_hints.h</text>
</a>
</g>
</g>
<!-- Node16&#45;&gt;Node19 -->
<g id="edge26_Node000016_Node000019" class="edge">
<title>Node16&#45;&gt;Node19</title>
<g id="a_edge26_Node000016_Node000019"><a xlink:title=" ">
<path fill="none" stroke="#63b8ff" d="M638.35,-169.84C639.94,-163.14 642.11,-154.01 644.07,-145.73"/>
<polygon fill="#63b8ff" stroke="#63b8ff" points="647.47,-146.59 646.37,-136.05 640.66,-144.97 647.47,-146.59"/>
</a>
</g>
</g>
<!-- Node21 -->
<g id="Node000021" class="node">
<title>Node21</title>
<g id="a_Node000021"><a xlink:href="container_8h.html" target="_top" xlink:title="Common macros and compiler attributes/pragmas configuration.">
<polygon fill="white" stroke="#666666" points="786.4,-134.25 715.65,-134.25 715.65,-113.5 786.4,-113.5 786.4,-134.25"/>
<text text-anchor="middle" x="751.03" y="-120.75" font-family="Helvetica,sans-Serif" font-size="10.00">container.h</text>
</a>
</g>
</g>
<!-- Node16&#45;&gt;Node21 -->
<g id="edge30_Node000016_Node000021" class="edge">
<title>Node16&#45;&gt;Node21</title>
<g id="a_edge30_Node000016_Node000021"><a xlink:title=" ">
<path fill="none" stroke="#63b8ff" d="M656.59,-169.84C674.33,-161.39 700.21,-149.07 720.39,-139.46"/>
<polygon fill="#63b8ff" stroke="#63b8ff" points="721.75,-142.69 729.28,-135.23 718.74,-136.37 721.75,-142.69"/>
</a>
</g>
</g>
<!-- Node18&#45;&gt;Node3 -->
<g id="edge25_Node000018_Node000003" class="edge">
<title>Node18&#45;&gt;Node3</title>
<g id="a_edge25_Node000018_Node000003"><a xlink:title=" ">
<path fill="none" stroke="#63b8ff" d="M423,-56.34C405.8,-47.93 380.75,-35.68 361.13,-26.09"/>
<polygon fill="#63b8ff" stroke="#63b8ff" points="362.76,-22.99 352.24,-21.74 359.68,-29.28 362.76,-22.99"/>
</a>
</g>
</g>
<!-- Node19&#45;&gt;Node3 -->
<g id="edge29_Node000019_Node000003" class="edge">
<title>Node19&#45;&gt;Node3</title>
<g id="a_edge29_Node000019_Node000003"><a xlink:title=" ">
<path fill="none" stroke="#63b8ff" d="M628.17,-113.02C598.56,-99.27 542.44,-74.06 493.03,-56.75 451.11,-42.06 401.83,-28.81 368.72,-20.48"/>
<polygon fill="#63b8ff" stroke="#63b8ff" points="369.74,-17.12 359.19,-18.1 368.05,-23.92 369.74,-17.12"/>
</a>
</g>
</g>
<!-- Node20 -->
<g id="Node000020" class="node">
<title>Node20</title>
<g id="a_Node000020"><a xlink:href="assert_8h.html" target="_top" xlink:title="POSIX.1&#45;2008 compliant version of the assert macro.">
<polygon fill="white" stroke="#666666" points="652.53,-77.5 597.53,-77.5 597.53,-56.75 652.53,-56.75 652.53,-77.5"/>
<text text-anchor="middle" x="625.03" y="-64" font-family="Helvetica,sans-Serif" font-size="10.00">assert.h</text>
</a>
</g>
</g>
<!-- Node19&#45;&gt;Node20 -->
<g id="edge27_Node000019_Node000020" class="edge">
<title>Node19&#45;&gt;Node20</title>
<g id="a_edge27_Node000019_Node000020"><a xlink:title=" ">
<path fill="none" stroke="#63b8ff" d="M644.73,-113.09C641.7,-106.16 637.52,-96.62 633.79,-88.11"/>
<polygon fill="#63b8ff" stroke="#63b8ff" points="637.11,-86.97 629.89,-79.21 630.7,-89.78 637.11,-86.97"/>
</a>
</g>
</g>
<!-- Node20&#45;&gt;Node3 -->
<g id="edge28_Node000020_Node000003" class="edge">
<title>Node20&#45;&gt;Node3</title>
<g id="a_edge28_Node000020_Node000003"><a xlink:title=" ">
<path fill="none" stroke="#63b8ff" d="M597.1,-60.92C544.02,-51.04 428.54,-29.53 368.68,-18.39"/>
<polygon fill="#63b8ff" stroke="#63b8ff" points="369.45,-14.97 358.98,-16.58 368.17,-21.85 369.45,-14.97"/>
</a>
</g>
</g>
<!-- Node21&#45;&gt;Node3 -->
<g id="edge32_Node000021_Node000003" class="edge">
<title>Node21&#45;&gt;Node3</title>
<g id="a_edge32_Node000021_Node000003"><a xlink:title=" ">
<path fill="none" stroke="#63b8ff" d="M741.4,-113.06C726.1,-98.13 694.64,-70.06 662.03,-56.75 561.89,-15.87 432,-10.47 368.84,-10.55"/>
<polygon fill="#63b8ff" stroke="#63b8ff" points="368.98,-7.05 359,-10.62 369.02,-14.05 368.98,-7.05"/>
</a>
</g>
</g>
<!-- Node22 -->
<g id="Node000022" class="node">
<title>Node22</title>
<g id="a_Node000022"><a xlink:title=" ">
<polygon fill="#e0e0e0" stroke="#999999" points="778.53,-77.5 723.53,-77.5 723.53,-56.75 778.53,-56.75 778.53,-77.5"/>
<text text-anchor="middle" x="751.03" y="-64" font-family="Helvetica,sans-Serif" font-size="10.00">stddef.h</text>
</a>
</g>
</g>
<!-- Node21&#45;&gt;Node22 -->
<g id="edge31_Node000021_Node000022" class="edge">
<title>Node21&#45;&gt;Node22</title>
<g id="a_edge31_Node000021_Node000022"><a xlink:title=" ">
<path fill="none" stroke="#63b8ff" d="M751.03,-113.09C751.03,-106.47 751.03,-97.47 751.03,-89.27"/>
<polygon fill="#63b8ff" stroke="#63b8ff" points="754.53,-89.34 751.03,-79.34 747.53,-89.34 754.53,-89.34"/>
</a>
</g>
</g>
</g>
</svg>
