<?xml version="1.0" encoding="UTF-8" standalone="no"?>
<!DOCTYPE svg PUBLIC "-//W3C//DTD SVG 1.1//EN"
 "http://www.w3.org/Graphics/SVG/1.1/DTD/svg11.dtd">
<!-- Generated by graphviz version 12.1.2 (0)
 -->
<!-- Title: pkg/wakaama/include/objects/device.h Pages: 1 -->
<svg width="972pt" height="439pt"
 viewBox="0.00 0.00 972.12 438.75" xmlns="http://www.w3.org/2000/svg" xmlns:xlink="http://www.w3.org/1999/xlink">
<g id="graph0" class="graph" transform="scale(1 1) rotate(0) translate(4 434.75)">
<title>pkg/wakaama/include/objects/device.h</title>
<!-- Node1 -->
<g id="Node000001" class="node">
<title>Node1</title>
<g id="a_Node000001"><a xlink:title=" ">
<polygon fill="#999999" stroke="#666666" points="402,-430.75 278.75,-430.75 278.75,-397.25 402,-397.25 402,-430.75"/>
<text text-anchor="start" x="286.75" y="-417.25" font-family="Helvetica,sans-Serif" font-size="10.00">pkg/wakaama/include</text>
<text text-anchor="middle" x="340.38" y="-404.5" font-family="Helvetica,sans-Serif" font-size="10.00">/objects/device.h</text>
</a>
</g>
</g>
<!-- Node2 -->
<g id="Node000002" class="node">
<title>Node2</title>
<g id="a_Node000002"><a xlink:href="stdio_8h.html" target="_top" xlink:title="stdio wrapper to extend the C libs stdio">
<polygon fill="white" stroke="#666666" points="128.88,-304.5 79.88,-304.5 79.88,-283.75 128.88,-283.75 128.88,-304.5"/>
<text text-anchor="middle" x="104.38" y="-291" font-family="Helvetica,sans-Serif" font-size="10.00">stdio.h</text>
</a>
</g>
</g>
<!-- Node1&#45;&gt;Node2 -->
<g id="edge1_Node000001_Node000002" class="edge">
<title>Node1&#45;&gt;Node2</title>
<g id="a_edge1_Node000001_Node000002"><a xlink:title=" ">
<path fill="none" stroke="#63b8ff" d="M278.43,-407.08C238.86,-400.79 188.09,-387.86 150.38,-361.25 133.8,-349.56 121.24,-329.89 113.47,-315.04"/>
<polygon fill="#63b8ff" stroke="#63b8ff" points="116.68,-313.63 109.14,-306.19 110.39,-316.71 116.68,-313.63"/>
</a>
</g>
</g>
<!-- Node4 -->
<g id="Node000004" class="node">
<title>Node4</title>
<g id="a_Node000004"><a xlink:title=" ">
<polygon fill="#e0e0e0" stroke="#999999" points="352.75,-77.5 300,-77.5 300,-56.75 352.75,-56.75 352.75,-77.5"/>
<text text-anchor="middle" x="326.38" y="-64" font-family="Helvetica,sans-Serif" font-size="10.00">string.h</text>
</a>
</g>
</g>
<!-- Node1&#45;&gt;Node4 -->
<g id="edge18_Node000001_Node000004" class="edge">
<title>Node1&#45;&gt;Node4</title>
<g id="a_edge18_Node000001_Node000004"><a xlink:title=" ">
<path fill="none" stroke="#63b8ff" d="M295.15,-396.86C276.45,-388.47 255.62,-376.69 240.38,-361.25 200.7,-321.09 196.39,-302.68 183.38,-247.75 181.25,-238.78 178.89,-235.06 183.38,-227 198.12,-200.49 217.84,-210.14 241.38,-191 268.38,-169.03 275.73,-163 295.38,-134.25 305.22,-119.84 313.44,-101.8 318.94,-88.21"/>
<polygon fill="#63b8ff" stroke="#63b8ff" points="322.15,-89.61 322.5,-79.02 315.62,-87.09 322.15,-89.61"/>
</a>
</g>
</g>
<!-- Node14 -->
<g id="Node000014" class="node">
<title>Node14</title>
<g id="a_Node000014"><a xlink:title=" ">
<polygon fill="#e0e0e0" stroke="#999999" points="340.38,-247.75 288.38,-247.75 288.38,-227 340.38,-227 340.38,-247.75"/>
<text text-anchor="middle" x="314.38" y="-234.25" font-family="Helvetica,sans-Serif" font-size="10.00">stdlib.h</text>
</a>
</g>
</g>
<!-- Node1&#45;&gt;Node14 -->
<g id="edge17_Node000001_Node000014" class="edge">
<title>Node1&#45;&gt;Node14</title>
<g id="a_edge17_Node000001_Node000014"><a xlink:title=" ">
<path fill="none" stroke="#63b8ff" d="M311.69,-396.78C282.73,-378.58 239.72,-346.06 221.38,-304.5 217.65,-296.06 216.49,-291.57 221.38,-283.75 227.95,-273.23 254.5,-260.85 277.56,-251.68"/>
<polygon fill="#63b8ff" stroke="#63b8ff" points="278.68,-255 286.75,-248.14 276.16,-248.47 278.68,-255"/>
</a>
</g>
</g>
<!-- Node15 -->
<g id="Node000015" class="node">
<title>Node15</title>
<g id="a_Node000015"><a xlink:title=" ">
<polygon fill="#e0e0e0" stroke="#999999" points="761.25,-304.5 687.5,-304.5 687.5,-283.75 761.25,-283.75 761.25,-304.5"/>
<text text-anchor="middle" x="724.38" y="-291" font-family="Helvetica,sans-Serif" font-size="10.00">liblwm2m.h</text>
</a>
</g>
</g>
<!-- Node1&#45;&gt;Node15 -->
<g id="edge19_Node000001_Node000015" class="edge">
<title>Node1&#45;&gt;Node15</title>
<g id="a_edge19_Node000001_Node000015"><a xlink:title=" ">
<path fill="none" stroke="#63b8ff" d="M402.2,-397.89C440.71,-388.16 491.18,-374.82 535.38,-361.25 588.91,-344.81 649.91,-322.87 687.78,-308.87"/>
<polygon fill="#63b8ff" stroke="#63b8ff" points="688.72,-312.26 696.87,-305.5 686.28,-305.7 688.72,-312.26"/>
</a>
</g>
</g>
<!-- Node16 -->
<g id="Node000016" class="node">
<title>Node16</title>
<g id="a_Node000016"><a xlink:href="lwm2m__client_8h.html" target="_top" xlink:title="Definitions and public API for a LwM2M client using Wakaama.">
<polygon fill="white" stroke="#666666" points="526.38,-361.25 432.38,-361.25 432.38,-340.5 526.38,-340.5 526.38,-361.25"/>
<text text-anchor="middle" x="479.38" y="-347.75" font-family="Helvetica,sans-Serif" font-size="10.00">lwm2m_client.h</text>
</a>
</g>
</g>
<!-- Node1&#45;&gt;Node16 -->
<g id="edge20_Node000001_Node000016" class="edge">
<title>Node1&#45;&gt;Node16</title>
<g id="a_edge20_Node000001_Node000016"><a xlink:title=" ">
<path fill="none" stroke="#63b8ff" d="M377.26,-396.78C398.9,-387.26 426,-375.35 446.85,-366.18"/>
<polygon fill="#63b8ff" stroke="#63b8ff" points="447.98,-369.5 455.73,-362.27 445.16,-363.1 447.98,-369.5"/>
</a>
</g>
</g>
<!-- Node33 -->
<g id="Node000033" class="node">
<title>Node33</title>
<g id="a_Node000033"><a xlink:href="lwm2m__client__config_8h.html" target="_top" xlink:title="LwM2M client configurations.">
<polygon fill="white" stroke="#666666" points="909,-304.5 779.75,-304.5 779.75,-283.75 909,-283.75 909,-304.5"/>
<text text-anchor="middle" x="844.38" y="-291" font-family="Helvetica,sans-Serif" font-size="10.00">lwm2m_client_config.h</text>
</a>
</g>
</g>
<!-- Node1&#45;&gt;Node33 -->
<g id="edge59_Node000001_Node000033" class="edge">
<title>Node1&#45;&gt;Node33</title>
<g id="a_edge59_Node000001_Node000033"><a xlink:title=" ">
<path fill="none" stroke="#63b8ff" d="M402.41,-400.21C450.94,-390.06 520.08,-375.3 580.38,-361.25 655.83,-343.67 742.93,-321.48 795.8,-307.8"/>
<polygon fill="#63b8ff" stroke="#63b8ff" points="796.6,-311.21 805.41,-305.31 794.85,-304.43 796.6,-311.21"/>
</a>
</g>
</g>
<!-- Node3 -->
<g id="Node000003" class="node">
<title>Node3</title>
<g id="a_Node000003"><a xlink:href="flash__utils_8h.html" target="_top" xlink:title="Utility functions, macros, and types for read&#45;only memory.">
<polygon fill="white" stroke="#666666" points="136,-247.75 60.75,-247.75 60.75,-227 136,-227 136,-247.75"/>
<text text-anchor="middle" x="98.38" y="-234.25" font-family="Helvetica,sans-Serif" font-size="10.00">flash_utils.h</text>
</a>
</g>
</g>
<!-- Node2&#45;&gt;Node3 -->
<g id="edge2_Node000002_Node000003" class="edge">
<title>Node2&#45;&gt;Node3</title>
<g id="a_edge2_Node000002_Node000003"><a xlink:title=" ">
<path fill="none" stroke="#63b8ff" d="M97.99,-283.34C95.99,-276.72 94.58,-267.72 94.1,-259.52"/>
<polygon fill="#63b8ff" stroke="#63b8ff" points="97.6,-259.6 94.13,-249.59 90.6,-259.58 97.6,-259.6"/>
</a>
</g>
</g>
<!-- Node3&#45;&gt;Node2 -->
<g id="edge3_Node000003_Node000002" class="edge">
<title>Node3&#45;&gt;Node2</title>
<g id="a_edge3_Node000003_Node000002"><a xlink:title=" ">
<path fill="none" stroke="#63b8ff" d="M104.74,-248.08C106.74,-254.68 108.16,-263.66 108.64,-271.88"/>
<polygon fill="#63b8ff" stroke="#63b8ff" points="105.14,-271.82 108.62,-281.82 112.14,-271.83 105.14,-271.82"/>
</a>
</g>
</g>
<!-- Node3&#45;&gt;Node4 -->
<g id="edge4_Node000003_Node000004" class="edge">
<title>Node3&#45;&gt;Node4</title>
<g id="a_edge4_Node000003_Node000004"><a xlink:title=" ">
<path fill="none" stroke="#63b8ff" d="M135.76,-226.55C159.6,-219.17 190.41,-207.48 214.38,-191 256.79,-161.84 294.46,-113.68 313.41,-87.14"/>
<polygon fill="#63b8ff" stroke="#63b8ff" points="316.21,-89.25 319.07,-79.05 310.47,-85.24 316.21,-89.25"/>
</a>
</g>
</g>
<!-- Node5 -->
<g id="Node000005" class="node">
<title>Node5</title>
<g id="a_Node000005"><a xlink:title=" ">
<polygon fill="#e0e0e0" stroke="#999999" points="205.25,-191 137.5,-191 137.5,-170.25 205.25,-170.25 205.25,-191"/>
<text text-anchor="middle" x="171.38" y="-177.5" font-family="Helvetica,sans-Serif" font-size="10.00">cpu_conf.h</text>
</a>
</g>
</g>
<!-- Node3&#45;&gt;Node5 -->
<g id="edge5_Node000003_Node000005" class="edge">
<title>Node3&#45;&gt;Node5</title>
<g id="a_edge5_Node000003_Node000005"><a xlink:title=" ">
<path fill="none" stroke="#63b8ff" d="M111.43,-226.59C122.01,-218.65 137.17,-207.28 149.59,-197.96"/>
<polygon fill="#63b8ff" stroke="#63b8ff" points="151.33,-201.04 157.23,-192.24 147.13,-195.44 151.33,-201.04"/>
</a>
</g>
</g>
<!-- Node6 -->
<g id="Node000006" class="node">
<title>Node6</title>
<g id="a_Node000006"><a xlink:href="kernel__defines_8h.html" target="_top" xlink:title="Common macros and compiler attributes/pragmas configuration.">
<polygon fill="white" stroke="#666666" points="119.5,-191 23.25,-191 23.25,-170.25 119.5,-170.25 119.5,-191"/>
<text text-anchor="middle" x="71.38" y="-177.5" font-family="Helvetica,sans-Serif" font-size="10.00">kernel_defines.h</text>
</a>
</g>
</g>
<!-- Node3&#45;&gt;Node6 -->
<g id="edge6_Node000003_Node000006" class="edge">
<title>Node3&#45;&gt;Node6</title>
<g id="a_edge6_Node000003_Node000006"><a xlink:title=" ">
<path fill="none" stroke="#63b8ff" d="M93.55,-226.59C90.13,-219.66 85.43,-210.12 81.23,-201.61"/>
<polygon fill="#63b8ff" stroke="#63b8ff" points="84.39,-200.11 76.83,-192.69 78.11,-203.2 84.39,-200.11"/>
</a>
</g>
</g>
<!-- Node7 -->
<g id="Node000007" class="node">
<title>Node7</title>
<g id="a_Node000007"><a xlink:href="modules_8h.html" target="_top" xlink:title="Common macros and compiler attributes/pragmas configuration.">
<polygon fill="white" stroke="#666666" points="204.88,-134.25 137.88,-134.25 137.88,-113.5 204.88,-113.5 204.88,-134.25"/>
<text text-anchor="middle" x="171.38" y="-120.75" font-family="Helvetica,sans-Serif" font-size="10.00">modules.h</text>
</a>
</g>
</g>
<!-- Node6&#45;&gt;Node7 -->
<g id="edge7_Node000006_Node000007" class="edge">
<title>Node6&#45;&gt;Node7</title>
<g id="a_edge7_Node000006_Node000007"><a xlink:title=" ">
<path fill="none" stroke="#63b8ff" d="M89.25,-169.84C104.47,-161.51 126.57,-149.41 144.01,-139.86"/>
<polygon fill="#63b8ff" stroke="#63b8ff" points="145.23,-143.18 152.32,-135.31 141.87,-137.04 145.23,-143.18"/>
</a>
</g>
</g>
<!-- Node8 -->
<g id="Node000008" class="node">
<title>Node8</title>
<g id="a_Node000008"><a xlink:href="riot__version_8h.html" target="_top" xlink:title="Common macros and compiler attributes/pragmas configuration.">
<polygon fill="white" stroke="#666666" points="82.75,-77.5 0,-77.5 0,-56.75 82.75,-56.75 82.75,-77.5"/>
<text text-anchor="middle" x="41.38" y="-64" font-family="Helvetica,sans-Serif" font-size="10.00">riot_version.h</text>
</a>
</g>
</g>
<!-- Node6&#45;&gt;Node8 -->
<g id="edge8_Node000006_Node000008" class="edge">
<title>Node6&#45;&gt;Node8</title>
<g id="a_edge8_Node000006_Node000008"><a xlink:title=" ">
<path fill="none" stroke="#63b8ff" d="M50.98,-169.87C37.59,-162.23 21.16,-150.22 13.38,-134.25 5.64,-118.38 15.03,-99.83 24.97,-86.42"/>
<polygon fill="#63b8ff" stroke="#63b8ff" points="27.53,-88.83 31.11,-78.86 22.09,-84.42 27.53,-88.83"/>
</a>
</g>
</g>
<!-- Node10 -->
<g id="Node000010" class="node">
<title>Node10</title>
<g id="a_Node000010"><a xlink:href="compiler__hints_8h.html" target="_top" xlink:title="Common macros and compiler attributes/pragmas configuration.">
<polygon fill="white" stroke="#666666" points="119.88,-134.25 22.88,-134.25 22.88,-113.5 119.88,-113.5 119.88,-134.25"/>
<text text-anchor="middle" x="71.38" y="-120.75" font-family="Helvetica,sans-Serif" font-size="10.00">compiler_hints.h</text>
</a>
</g>
</g>
<!-- Node6&#45;&gt;Node10 -->
<g id="edge10_Node000006_Node000010" class="edge">
<title>Node6&#45;&gt;Node10</title>
<g id="a_edge10_Node000006_Node000010"><a xlink:title=" ">
<path fill="none" stroke="#63b8ff" d="M71.38,-169.84C71.38,-163.22 71.38,-154.22 71.38,-146.02"/>
<polygon fill="#63b8ff" stroke="#63b8ff" points="74.88,-146.09 71.38,-136.09 67.88,-146.09 74.88,-146.09"/>
</a>
</g>
</g>
<!-- Node12 -->
<g id="Node000012" class="node">
<title>Node12</title>
<g id="a_Node000012"><a xlink:href="container_8h.html" target="_top" xlink:title="Common macros and compiler attributes/pragmas configuration.">
<polygon fill="white" stroke="#666666" points="574.75,-134.25 504,-134.25 504,-113.5 574.75,-113.5 574.75,-134.25"/>
<text text-anchor="middle" x="539.38" y="-120.75" font-family="Helvetica,sans-Serif" font-size="10.00">container.h</text>
</a>
</g>
</g>
<!-- Node6&#45;&gt;Node12 -->
<g id="edge14_Node000006_Node000012" class="edge">
<title>Node6&#45;&gt;Node12</title>
<g id="a_edge14_Node000006_Node000012"><a xlink:title=" ">
<path fill="none" stroke="#63b8ff" d="M119.85,-171.43C122.73,-171.01 125.59,-170.62 128.38,-170.25 286.8,-149.45 330.84,-158.52 492.26,-134.41"/>
<polygon fill="#63b8ff" stroke="#63b8ff" points="492.72,-137.88 502.08,-132.92 491.67,-130.96 492.72,-137.88"/>
</a>
</g>
</g>
<!-- Node9 -->
<g id="Node000009" class="node">
<title>Node9</title>
<g id="a_Node000009"><a xlink:title=" ">
<polygon fill="#e0e0e0" stroke="#999999" points="526.75,-20.75 474,-20.75 474,0 526.75,0 526.75,-20.75"/>
<text text-anchor="middle" x="500.38" y="-7.25" font-family="Helvetica,sans-Serif" font-size="10.00">stdint.h</text>
</a>
</g>
</g>
<!-- Node8&#45;&gt;Node9 -->
<g id="edge9_Node000008_Node000009" class="edge">
<title>Node8&#45;&gt;Node9</title>
<g id="a_edge9_Node000008_Node000009"><a xlink:title=" ">
<path fill="none" stroke="#63b8ff" d="M82.92,-61.17C171.44,-50.61 377.49,-26.03 462.58,-15.88"/>
<polygon fill="#63b8ff" stroke="#63b8ff" points="462.74,-19.39 472.26,-14.73 461.91,-12.44 462.74,-19.39"/>
</a>
</g>
</g>
<!-- Node10&#45;&gt;Node9 -->
<g id="edge13_Node000010_Node000009" class="edge">
<title>Node10&#45;&gt;Node9</title>
<g id="a_edge13_Node000010_Node000009"><a xlink:title=" ">
<path fill="none" stroke="#63b8ff" d="M88.76,-113.15C115.54,-98.6 168.88,-71.33 217.38,-56.75 302.83,-31.05 407.44,-19.09 462.43,-14.23"/>
<polygon fill="#63b8ff" stroke="#63b8ff" points="462.53,-17.74 472.2,-13.4 461.94,-10.76 462.53,-17.74"/>
</a>
</g>
</g>
<!-- Node11 -->
<g id="Node000011" class="node">
<title>Node11</title>
<g id="a_Node000011"><a xlink:href="assert_8h.html" target="_top" xlink:title="POSIX.1&#45;2008 compliant version of the assert macro.">
<polygon fill="white" stroke="#666666" points="281.88,-77.5 226.88,-77.5 226.88,-56.75 281.88,-56.75 281.88,-77.5"/>
<text text-anchor="middle" x="254.38" y="-64" font-family="Helvetica,sans-Serif" font-size="10.00">assert.h</text>
</a>
</g>
</g>
<!-- Node10&#45;&gt;Node11 -->
<g id="edge11_Node000010_Node000011" class="edge">
<title>Node10&#45;&gt;Node11</title>
<g id="a_edge11_Node000010_Node000011"><a xlink:title=" ">
<path fill="none" stroke="#63b8ff" d="M104.09,-113.09C135.4,-103.72 182.64,-89.59 215.78,-79.67"/>
<polygon fill="#63b8ff" stroke="#63b8ff" points="216.41,-83.14 224.98,-76.92 214.4,-76.43 216.41,-83.14"/>
</a>
</g>
</g>
<!-- Node11&#45;&gt;Node9 -->
<g id="edge12_Node000011_Node000009" class="edge">
<title>Node11&#45;&gt;Node9</title>
<g id="a_edge12_Node000011_Node000009"><a xlink:title=" ">
<path fill="none" stroke="#63b8ff" d="M282.23,-58.96C285.31,-58.2 288.41,-57.45 291.38,-56.75 351.01,-42.73 420.59,-27.93 462.52,-19.18"/>
<polygon fill="#63b8ff" stroke="#63b8ff" points="463.03,-22.65 472.1,-17.19 461.6,-15.8 463.03,-22.65"/>
</a>
</g>
</g>
<!-- Node12&#45;&gt;Node9 -->
<g id="edge16_Node000012_Node000009" class="edge">
<title>Node12&#45;&gt;Node9</title>
<g id="a_edge16_Node000012_Node000009"><a xlink:title=" ">
<path fill="none" stroke="#63b8ff" d="M548.88,-113.22C560.57,-100.12 577.66,-76.13 567.38,-56.75 560.41,-43.63 547.77,-33.61 535.33,-26.36"/>
<polygon fill="#63b8ff" stroke="#63b8ff" points="537.32,-23.45 526.85,-21.85 534.03,-29.63 537.32,-23.45"/>
</a>
</g>
</g>
<!-- Node13 -->
<g id="Node000013" class="node">
<title>Node13</title>
<g id="a_Node000013"><a xlink:title=" ">
<polygon fill="#e0e0e0" stroke="#999999" points="729.88,-77.5 674.88,-77.5 674.88,-56.75 729.88,-56.75 729.88,-77.5"/>
<text text-anchor="middle" x="702.38" y="-64" font-family="Helvetica,sans-Serif" font-size="10.00">stddef.h</text>
</a>
</g>
</g>
<!-- Node12&#45;&gt;Node13 -->
<g id="edge15_Node000012_Node000013" class="edge">
<title>Node12&#45;&gt;Node13</title>
<g id="a_edge15_Node000012_Node000013"><a xlink:title=" ">
<path fill="none" stroke="#63b8ff" d="M568.52,-113.09C595.15,-104.14 634.72,-90.85 663.93,-81.04"/>
<polygon fill="#63b8ff" stroke="#63b8ff" points="664.77,-84.45 673.14,-77.94 662.55,-77.81 664.77,-84.45"/>
</a>
</g>
</g>
<!-- Node16&#45;&gt;Node2 -->
<g id="edge23_Node000016_Node000002" class="edge">
<title>Node16&#45;&gt;Node2</title>
<g id="a_edge23_Node000016_Node000002"><a xlink:title=" ">
<path fill="none" stroke="#63b8ff" d="M431.88,-342.94C355.84,-331.84 208.42,-310.32 140.38,-300.38"/>
<polygon fill="#63b8ff" stroke="#63b8ff" points="140.92,-296.92 130.52,-298.94 139.91,-303.85 140.92,-296.92"/>
</a>
</g>
</g>
<!-- Node16&#45;&gt;Node4 -->
<g id="edge25_Node000016_Node000004" class="edge">
<title>Node16&#45;&gt;Node4</title>
<g id="a_edge25_Node000016_Node000004"><a xlink:title=" ">
<path fill="none" stroke="#63b8ff" d="M464.69,-340.19C453.02,-331.87 436.96,-318.97 426.38,-304.5 374.66,-233.79 343.4,-132.29 331.68,-88.98"/>
<polygon fill="#63b8ff" stroke="#63b8ff" points="335.09,-88.19 329.16,-79.41 328.32,-89.97 335.09,-88.19"/>
</a>
</g>
</g>
<!-- Node16&#45;&gt;Node14 -->
<g id="edge24_Node000016_Node000014" class="edge">
<title>Node16&#45;&gt;Node14</title>
<g id="a_edge24_Node000016_Node000014"><a xlink:title=" ">
<path fill="none" stroke="#63b8ff" d="M431.91,-340.1C407.4,-333.25 378.16,-322.09 356.38,-304.5 341.18,-292.23 329.81,-272.92 322.77,-258.33"/>
<polygon fill="#63b8ff" stroke="#63b8ff" points="325.97,-256.92 318.67,-249.24 319.59,-259.79 325.97,-256.92"/>
</a>
</g>
</g>
<!-- Node16&#45;&gt;Node15 -->
<g id="edge58_Node000016_Node000015" class="edge">
<title>Node16&#45;&gt;Node15</title>
<g id="a_edge58_Node000016_Node000015"><a xlink:title=" ">
<path fill="none" stroke="#63b8ff" d="M523.46,-340.02C566.42,-330.42 631.59,-315.86 675.97,-305.94"/>
<polygon fill="#63b8ff" stroke="#63b8ff" points="676.58,-309.39 685.58,-303.79 675.06,-302.56 676.58,-309.39"/>
</a>
</g>
</g>
<!-- Node17 -->
<g id="Node000017" class="node">
<title>Node17</title>
<g id="a_Node000017"><a xlink:title=" ">
<polygon fill="#e0e0e0" stroke="#999999" points="631.38,-304.5 579.38,-304.5 579.38,-283.75 631.38,-283.75 631.38,-304.5"/>
<text text-anchor="middle" x="605.38" y="-291" font-family="Helvetica,sans-Serif" font-size="10.00">ctype.h</text>
</a>
</g>
</g>
<!-- Node16&#45;&gt;Node17 -->
<g id="edge21_Node000016_Node000017" class="edge">
<title>Node16&#45;&gt;Node17</title>
<g id="a_edge21_Node000016_Node000017"><a xlink:title=" ">
<path fill="none" stroke="#63b8ff" d="M501.9,-340.09C521.61,-331.52 550.48,-318.98 572.73,-309.31"/>
<polygon fill="#63b8ff" stroke="#63b8ff" points="573.88,-312.63 581.66,-305.43 571.09,-306.21 573.88,-312.63"/>
</a>
</g>
</g>
<!-- Node18 -->
<g id="Node000018" class="node">
<title>Node18</title>
<g id="a_Node000018"><a xlink:href="errno_8h.html" target="_top" xlink:title=" ">
<polygon fill="white" stroke="#666666" points="874.62,-247.75 824.12,-247.75 824.12,-227 874.62,-227 874.62,-247.75"/>
<text text-anchor="middle" x="849.38" y="-234.25" font-family="Helvetica,sans-Serif" font-size="10.00">errno.h</text>
</a>
</g>
</g>
<!-- Node16&#45;&gt;Node18 -->
<g id="edge22_Node000016_Node000018" class="edge">
<title>Node16&#45;&gt;Node18</title>
<g id="a_edge22_Node000016_Node000018"><a xlink:title=" ">
<path fill="none" stroke="#63b8ff" d="M489.29,-340.11C505.01,-325.26 537.3,-297.29 570.38,-283.75 670.19,-242.88 704.51,-268.37 810.38,-247.75 811.2,-247.59 812.02,-247.42 812.86,-247.25"/>
<polygon fill="#63b8ff" stroke="#63b8ff" points="813.35,-250.73 822.37,-245.17 811.85,-243.89 813.35,-250.73"/>
</a>
</g>
</g>
<!-- Node19 -->
<g id="Node000019" class="node">
<title>Node19</title>
<g id="a_Node000019"><a xlink:title=" ">
<polygon fill="#e0e0e0" stroke="#999999" points="964.12,-247.75 892.62,-247.75 892.62,-227 964.12,-227 964.12,-247.75"/>
<text text-anchor="middle" x="928.38" y="-234.25" font-family="Helvetica,sans-Serif" font-size="10.00">sys/types.h</text>
</a>
</g>
</g>
<!-- Node16&#45;&gt;Node19 -->
<g id="edge26_Node000016_Node000019" class="edge">
<title>Node16&#45;&gt;Node19</title>
<g id="a_edge26_Node000016_Node000019"><a xlink:title=" ">
<path fill="none" stroke="#63b8ff" d="M524.35,-340.08C557.15,-332.24 602.33,-320.02 640.38,-304.5 658.19,-297.23 660.21,-290.11 678.38,-283.75 762.36,-254.34 790.4,-264.33 881.42,-248.01"/>
<polygon fill="#63b8ff" stroke="#63b8ff" points="881.85,-251.49 891.05,-246.22 880.57,-244.61 881.85,-251.49"/>
</a>
</g>
</g>
<!-- Node20 -->
<g id="Node000020" class="node">
<title>Node20</title>
<g id="a_Node000020"><a xlink:href="pm_8h.html" target="_top" xlink:title="Power management interface.">
<polygon fill="white" stroke="#666666" points="304.62,-304.5 230.12,-304.5 230.12,-283.75 304.62,-283.75 304.62,-304.5"/>
<text text-anchor="middle" x="267.38" y="-291" font-family="Helvetica,sans-Serif" font-size="10.00">periph/pm.h</text>
</a>
</g>
</g>
<!-- Node16&#45;&gt;Node20 -->
<g id="edge27_Node000016_Node000020" class="edge">
<title>Node16&#45;&gt;Node20</title>
<g id="a_edge27_Node000016_Node000020"><a xlink:title=" ">
<path fill="none" stroke="#63b8ff" d="M441.47,-340.09C406.35,-331.02 353.93,-317.48 315.8,-307.63"/>
<polygon fill="#63b8ff" stroke="#63b8ff" points="316.97,-304.32 306.41,-305.21 315.22,-311.1 316.97,-304.32"/>
</a>
</g>
</g>
<!-- Node22 -->
<g id="Node000022" class="node">
<title>Node22</title>
<g id="a_Node000022"><a xlink:href="sock_2udp_8h.html" target="_top" xlink:title="UDP sock definitions.">
<polygon fill="white" stroke="#666666" points="523,-304.5 435.75,-304.5 435.75,-283.75 523,-283.75 523,-304.5"/>
<text text-anchor="middle" x="479.38" y="-291" font-family="Helvetica,sans-Serif" font-size="10.00">net/sock/udp.h</text>
</a>
</g>
</g>
<!-- Node16&#45;&gt;Node22 -->
<g id="edge29_Node000016_Node000022" class="edge">
<title>Node16&#45;&gt;Node22</title>
<g id="a_edge29_Node000016_Node000022"><a xlink:title=" ">
<path fill="none" stroke="#63b8ff" d="M479.38,-340.09C479.38,-333.47 479.38,-324.47 479.38,-316.27"/>
<polygon fill="#63b8ff" stroke="#63b8ff" points="482.88,-316.34 479.38,-306.34 475.88,-316.34 482.88,-316.34"/>
</a>
</g>
</g>
<!-- Node16&#45;&gt;Node33 -->
<g id="edge57_Node000016_Node000033" class="edge">
<title>Node16&#45;&gt;Node33</title>
<g id="a_edge57_Node000016_Node000033"><a xlink:title=" ">
<path fill="none" stroke="#63b8ff" d="M526.72,-342.77C587.87,-333.6 695.09,-317.52 767.88,-306.6"/>
<polygon fill="#63b8ff" stroke="#63b8ff" points="768.38,-310.06 777.75,-305.12 767.34,-303.14 768.38,-310.06"/>
</a>
</g>
</g>
<!-- Node21 -->
<g id="Node000021" class="node">
<title>Node21</title>
<g id="a_Node000021"><a xlink:title=" ">
<polygon fill="#e0e0e0" stroke="#999999" points="270.5,-247.75 192.25,-247.75 192.25,-227 270.5,-227 270.5,-247.75"/>
<text text-anchor="middle" x="231.38" y="-234.25" font-family="Helvetica,sans-Serif" font-size="10.00">periph_cpu.h</text>
</a>
</g>
</g>
<!-- Node20&#45;&gt;Node21 -->
<g id="edge28_Node000020_Node000021" class="edge">
<title>Node20&#45;&gt;Node21</title>
<g id="a_edge28_Node000020_Node000021"><a xlink:title=" ">
<path fill="none" stroke="#63b8ff" d="M260.94,-283.34C256.23,-276.17 249.69,-266.23 243.96,-257.51"/>
<polygon fill="#63b8ff" stroke="#63b8ff" points="247.01,-255.78 238.59,-249.34 241.16,-259.62 247.01,-255.78"/>
</a>
</g>
</g>
<!-- Node22&#45;&gt;Node9 -->
<g id="edge32_Node000022_Node000009" class="edge">
<title>Node22&#45;&gt;Node9</title>
<g id="a_edge32_Node000022_Node000009"><a xlink:title=" ">
<path fill="none" stroke="#63b8ff" d="M523.49,-285.18C591.19,-272.91 713.37,-250.5 717.38,-247.75 745.87,-228.17 758.38,-216.2 758.38,-181.62 758.38,-181.62 758.38,-181.62 758.38,-122.88 758.38,-92.3 761.97,-77.35 739.38,-56.75 710.41,-30.34 597.79,-18.37 538.06,-13.79"/>
<polygon fill="#63b8ff" stroke="#63b8ff" points="538.6,-10.32 528.37,-13.08 538.09,-17.3 538.6,-10.32"/>
</a>
</g>
</g>
<!-- Node22&#45;&gt;Node11 -->
<g id="edge30_Node000022_Node000011" class="edge">
<title>Node22&#45;&gt;Node11</title>
<g id="a_edge30_Node000022_Node000011"><a xlink:title=" ">
<path fill="none" stroke="#63b8ff" d="M467.03,-283.41C455.87,-274.46 439.12,-260.66 425.38,-247.75 365.44,-191.42 299.73,-119.13 270.24,-86.07"/>
<polygon fill="#63b8ff" stroke="#63b8ff" points="273.18,-84.11 263.92,-78.96 267.95,-88.76 273.18,-84.11"/>
</a>
</g>
</g>
<!-- Node22&#45;&gt;Node14 -->
<g id="edge33_Node000022_Node000014" class="edge">
<title>Node22&#45;&gt;Node14</title>
<g id="a_edge33_Node000022_Node000014"><a xlink:title=" ">
<path fill="none" stroke="#63b8ff" d="M449.88,-283.34C422.34,-274.2 381.15,-260.53 351.41,-250.66"/>
<polygon fill="#63b8ff" stroke="#63b8ff" points="352.66,-247.39 342.06,-247.56 350.45,-254.03 352.66,-247.39"/>
</a>
</g>
</g>
<!-- Node22&#45;&gt;Node18 -->
<g id="edge31_Node000022_Node000018" class="edge">
<title>Node22&#45;&gt;Node18</title>
<g id="a_edge31_Node000022_Node000018"><a xlink:title=" ">
<path fill="none" stroke="#63b8ff" d="M523.37,-285.88C528.1,-285.14 532.83,-284.42 537.38,-283.75 658.46,-265.98 690.05,-270.08 810.38,-247.75 811.2,-247.6 812.03,-247.44 812.86,-247.27"/>
<polygon fill="#63b8ff" stroke="#63b8ff" points="813.34,-250.75 822.38,-245.23 811.87,-243.91 813.34,-250.75"/>
</a>
</g>
</g>
<!-- Node22&#45;&gt;Node19 -->
<g id="edge34_Node000022_Node000019" class="edge">
<title>Node22&#45;&gt;Node19</title>
<g id="a_edge34_Node000022_Node000019"><a xlink:title=" ">
<path fill="none" stroke="#63b8ff" d="M523.18,-288.44C613.95,-278.7 818.73,-256.55 881.44,-247.8"/>
<polygon fill="#63b8ff" stroke="#63b8ff" points="881.7,-251.3 891.07,-246.37 880.67,-244.38 881.7,-251.3"/>
</a>
</g>
</g>
<!-- Node23 -->
<g id="Node000023" class="node">
<title>Node23</title>
<g id="a_Node000023"><a xlink:href="af_8h.html" target="_top" xlink:title="Global UNIX address family definitions.">
<polygon fill="white" stroke="#666666" points="594.75,-247.75 542,-247.75 542,-227 594.75,-227 594.75,-247.75"/>
<text text-anchor="middle" x="568.38" y="-234.25" font-family="Helvetica,sans-Serif" font-size="10.00">net/af.h</text>
</a>
</g>
</g>
<!-- Node22&#45;&gt;Node23 -->
<g id="edge35_Node000022_Node000023" class="edge">
<title>Node22&#45;&gt;Node23</title>
<g id="a_edge35_Node000022_Node000023"><a xlink:title=" ">
<path fill="none" stroke="#63b8ff" d="M495.29,-283.34C508.58,-275.16 527.76,-263.36 543.14,-253.9"/>
<polygon fill="#63b8ff" stroke="#63b8ff" points="544.63,-257.09 551.31,-248.87 540.96,-251.13 544.63,-257.09"/>
</a>
</g>
</g>
<!-- Node24 -->
<g id="Node000024" class="node">
<title>Node24</title>
<g id="a_Node000024"><a xlink:href="sock_8h.html" target="_top" xlink:title="Common sock API definitions.">
<polygon fill="white" stroke="#666666" points="852.5,-134.25 786.25,-134.25 786.25,-113.5 852.5,-113.5 852.5,-134.25"/>
<text text-anchor="middle" x="819.38" y="-120.75" font-family="Helvetica,sans-Serif" font-size="10.00">net/sock.h</text>
</a>
</g>
</g>
<!-- Node22&#45;&gt;Node24 -->
<g id="edge36_Node000022_Node000024" class="edge">
<title>Node22&#45;&gt;Node24</title>
<g id="a_edge36_Node000022_Node000024"><a xlink:title=" ">
<path fill="none" stroke="#63b8ff" d="M523.33,-285.1C526.05,-284.64 528.75,-284.18 531.38,-283.75 584.8,-274.95 730.16,-281.67 772.38,-247.75 803.87,-222.44 814.28,-173.43 817.71,-145.57"/>
<polygon fill="#63b8ff" stroke="#63b8ff" points="821.16,-146.22 818.69,-135.92 814.2,-145.51 821.16,-146.22"/>
</a>
</g>
</g>
<!-- Node26 -->
<g id="Node000026" class="node">
<title>Node26</title>
<g id="a_Node000026"><a xlink:href="ipv4_2addr_8h.html" target="_top" xlink:title="IPv4 address type and helper functions definitions.">
<polygon fill="white" stroke="#666666" points="697.12,-191 607.62,-191 607.62,-170.25 697.12,-170.25 697.12,-191"/>
<text text-anchor="middle" x="652.38" y="-177.5" font-family="Helvetica,sans-Serif" font-size="10.00">net/ipv4/addr.h</text>
</a>
</g>
</g>
<!-- Node22&#45;&gt;Node26 -->
<g id="edge40_Node000022_Node000026" class="edge">
<title>Node22&#45;&gt;Node26</title>
<g id="a_edge40_Node000022_Node000026"><a xlink:title=" ">
<path fill="none" stroke="#63b8ff" d="M523.4,-285.59C586.5,-274.58 695.73,-254.66 701.38,-247.75 714.84,-231.25 696.02,-211.56 677.95,-197.97"/>
<polygon fill="#63b8ff" stroke="#63b8ff" points="680.16,-195.25 669.97,-192.35 676.13,-200.97 680.16,-195.25"/>
</a>
</g>
</g>
<!-- Node31 -->
<g id="Node000031" class="node">
<title>Node31</title>
<g id="a_Node000031"><a xlink:href="ipv6_2addr_8h.html" target="_top" xlink:title="Definitions for IPv6 addresses.">
<polygon fill="white" stroke="#666666" points="524.12,-247.75 434.62,-247.75 434.62,-227 524.12,-227 524.12,-247.75"/>
<text text-anchor="middle" x="479.38" y="-234.25" font-family="Helvetica,sans-Serif" font-size="10.00">net/ipv6/addr.h</text>
</a>
</g>
</g>
<!-- Node22&#45;&gt;Node31 -->
<g id="edge51_Node000022_Node000031" class="edge">
<title>Node22&#45;&gt;Node31</title>
<g id="a_edge51_Node000022_Node000031"><a xlink:title=" ">
<path fill="none" stroke="#63b8ff" d="M479.38,-283.34C479.38,-276.72 479.38,-267.72 479.38,-259.52"/>
<polygon fill="#63b8ff" stroke="#63b8ff" points="482.88,-259.59 479.38,-249.59 475.88,-259.59 482.88,-259.59"/>
</a>
</g>
</g>
<!-- Node32 -->
<g id="Node000032" class="node">
<title>Node32</title>
<g id="a_Node000032"><a xlink:title=" ">
<polygon fill="#e0e0e0" stroke="#999999" points="692.25,-247.75 612.5,-247.75 612.5,-227 692.25,-227 692.25,-247.75"/>
<text text-anchor="middle" x="652.38" y="-234.25" font-family="Helvetica,sans-Serif" font-size="10.00">sock_types.h</text>
</a>
</g>
</g>
<!-- Node22&#45;&gt;Node32 -->
<g id="edge56_Node000022_Node000032" class="edge">
<title>Node22&#45;&gt;Node32</title>
<g id="a_edge56_Node000022_Node000032"><a xlink:title=" ">
<path fill="none" stroke="#63b8ff" d="M510.3,-283.34C538.26,-274.49 579.65,-261.39 610.56,-251.61"/>
<polygon fill="#63b8ff" stroke="#63b8ff" points="611.5,-254.98 619.98,-248.63 609.39,-248.31 611.5,-254.98"/>
</a>
</g>
</g>
<!-- Node24&#45;&gt;Node9 -->
<g id="edge37_Node000024_Node000009" class="edge">
<title>Node24&#45;&gt;Node9</title>
<g id="a_edge37_Node000024_Node000009"><a xlink:title=" ">
<path fill="none" stroke="#63b8ff" d="M815.53,-113.39C809.01,-98.64 794.34,-70.5 772.38,-56.75 733.98,-32.73 603.74,-19.43 538.4,-14.12"/>
<polygon fill="#63b8ff" stroke="#63b8ff" points="538.75,-10.64 528.51,-13.34 538.2,-17.62 538.75,-10.64"/>
</a>
</g>
</g>
<!-- Node24&#45;&gt;Node13 -->
<g id="edge38_Node000024_Node000013" class="edge">
<title>Node24&#45;&gt;Node13</title>
<g id="a_edge38_Node000024_Node000013"><a xlink:title=" ">
<path fill="none" stroke="#63b8ff" d="M798.46,-113.09C780.41,-104.64 754.07,-92.32 733.54,-82.71"/>
<polygon fill="#63b8ff" stroke="#63b8ff" points="735.02,-79.54 724.48,-78.47 732.06,-85.88 735.02,-79.54"/>
</a>
</g>
</g>
<!-- Node25 -->
<g id="Node000025" class="node">
<title>Node25</title>
<g id="a_Node000025"><a xlink:href="iolist_8h.html" target="_top" xlink:title="iolist scatter / gather IO">
<polygon fill="white" stroke="#666666" points="873.88,-77.5 824.88,-77.5 824.88,-56.75 873.88,-56.75 873.88,-77.5"/>
<text text-anchor="middle" x="849.38" y="-64" font-family="Helvetica,sans-Serif" font-size="10.00">iolist.h</text>
</a>
</g>
</g>
<!-- Node24&#45;&gt;Node25 -->
<g id="edge39_Node000024_Node000025" class="edge">
<title>Node24&#45;&gt;Node25</title>
<g id="a_edge39_Node000024_Node000025"><a xlink:title=" ">
<path fill="none" stroke="#63b8ff" d="M824.74,-113.09C828.58,-106.08 833.88,-96.41 838.58,-87.83"/>
<polygon fill="#63b8ff" stroke="#63b8ff" points="841.59,-89.61 843.33,-79.16 835.46,-86.24 841.59,-89.61"/>
</a>
</g>
</g>
<!-- Node26&#45;&gt;Node9 -->
<g id="edge42_Node000026_Node000009" class="edge">
<title>Node26&#45;&gt;Node9</title>
<g id="a_edge42_Node000026_Node000009"><a xlink:title=" ">
<path fill="none" stroke="#63b8ff" d="M657.46,-170.08C663.85,-156.68 672.88,-131.9 663.38,-113.5 638.07,-64.52 577.61,-36.24 537.87,-22.33"/>
<polygon fill="#63b8ff" stroke="#63b8ff" points="539.03,-19.03 528.44,-19.19 536.82,-25.67 539.03,-19.03"/>
</a>
</g>
</g>
<!-- Node26&#45;&gt;Node13 -->
<g id="edge43_Node000026_Node000013" class="edge">
<title>Node26&#45;&gt;Node13</title>
<g id="a_edge43_Node000026_Node000013"><a xlink:title=" ">
<path fill="none" stroke="#63b8ff" d="M666.06,-169.76C676.32,-161.52 689.69,-148.81 696.38,-134.25 702.86,-120.12 704.18,-102.52 703.97,-89.03"/>
<polygon fill="#63b8ff" stroke="#63b8ff" points="707.47,-88.94 703.5,-79.12 700.48,-89.27 707.47,-88.94"/>
</a>
</g>
</g>
<!-- Node27 -->
<g id="Node000027" class="node">
<title>Node27</title>
<g id="a_Node000027"><a xlink:title=" ">
<polygon fill="#e0e0e0" stroke="#999999" points="653.88,-134.25 592.88,-134.25 592.88,-113.5 653.88,-113.5 653.88,-134.25"/>
<text text-anchor="middle" x="623.38" y="-120.75" font-family="Helvetica,sans-Serif" font-size="10.00">stdbool.h</text>
</a>
</g>
</g>
<!-- Node26&#45;&gt;Node27 -->
<g id="edge41_Node000026_Node000027" class="edge">
<title>Node26&#45;&gt;Node27</title>
<g id="a_edge41_Node000026_Node000027"><a xlink:title=" ">
<path fill="none" stroke="#63b8ff" d="M647.19,-169.84C643.48,-162.83 638.36,-153.16 633.81,-144.58"/>
<polygon fill="#63b8ff" stroke="#63b8ff" points="637,-143.11 629.22,-135.92 630.81,-146.39 637,-143.11"/>
</a>
</g>
</g>
<!-- Node28 -->
<g id="Node000028" class="node">
<title>Node28</title>
<g id="a_Node000028"><a xlink:href="byteorder_8h.html" target="_top" xlink:title="Functions to work with different byte orders.">
<polygon fill="white" stroke="#666666" points="485.5,-134.25 413.25,-134.25 413.25,-113.5 485.5,-113.5 485.5,-134.25"/>
<text text-anchor="middle" x="449.38" y="-120.75" font-family="Helvetica,sans-Serif" font-size="10.00">byteorder.h</text>
</a>
</g>
</g>
<!-- Node26&#45;&gt;Node28 -->
<g id="edge44_Node000026_Node000028" class="edge">
<title>Node26&#45;&gt;Node28</title>
<g id="a_edge44_Node000026_Node000028"><a xlink:title=" ">
<path fill="none" stroke="#63b8ff" d="M616.08,-169.84C582.7,-160.83 533,-147.43 496.55,-137.6"/>
<polygon fill="#63b8ff" stroke="#63b8ff" points="497.72,-134.29 487.16,-135.06 495.9,-141.05 497.72,-134.29"/>
</a>
</g>
</g>
<!-- Node28&#45;&gt;Node4 -->
<g id="edge45_Node000028_Node000004" class="edge">
<title>Node28&#45;&gt;Node4</title>
<g id="a_edge45_Node000028_Node000004"><a xlink:title=" ">
<path fill="none" stroke="#63b8ff" d="M427.39,-113.09C408.23,-104.56 380.21,-92.09 358.54,-82.44"/>
<polygon fill="#63b8ff" stroke="#63b8ff" points="360.12,-79.31 349.56,-78.44 357.27,-85.71 360.12,-79.31"/>
</a>
</g>
</g>
<!-- Node28&#45;&gt;Node9 -->
<g id="edge46_Node000028_Node000009" class="edge">
<title>Node28&#45;&gt;Node9</title>
<g id="a_edge46_Node000028_Node000009"><a xlink:title=" ">
<path fill="none" stroke="#63b8ff" d="M453.72,-113.37C462,-95.27 480.18,-55.53 491.24,-31.35"/>
<polygon fill="#63b8ff" stroke="#63b8ff" points="494.29,-33.1 495.26,-22.55 487.92,-30.19 494.29,-33.1"/>
</a>
</g>
</g>
<!-- Node29 -->
<g id="Node000029" class="node">
<title>Node29</title>
<g id="a_Node000029"><a xlink:href="endian_8h.html" target="_top" xlink:title="libc header for endian conversion">
<polygon fill="white" stroke="#666666" points="558.38,-77.5 500.38,-77.5 500.38,-56.75 558.38,-56.75 558.38,-77.5"/>
<text text-anchor="middle" x="529.38" y="-64" font-family="Helvetica,sans-Serif" font-size="10.00">endian.h</text>
</a>
</g>
</g>
<!-- Node28&#45;&gt;Node29 -->
<g id="edge47_Node000028_Node000029" class="edge">
<title>Node28&#45;&gt;Node29</title>
<g id="a_edge47_Node000028_Node000029"><a xlink:title=" ">
<path fill="none" stroke="#63b8ff" d="M463.68,-113.09C475.39,-105.07 492.21,-93.56 505.9,-84.19"/>
<polygon fill="#63b8ff" stroke="#63b8ff" points="507.67,-87.22 513.95,-78.68 503.72,-81.44 507.67,-87.22"/>
</a>
</g>
</g>
<!-- Node30 -->
<g id="Node000030" class="node">
<title>Node30</title>
<g id="a_Node000030"><a xlink:href="unaligned_8h.html" target="_top" xlink:title="Unaligned but safe memory access functions.">
<polygon fill="white" stroke="#666666" points="443.88,-77.5 370.88,-77.5 370.88,-56.75 443.88,-56.75 443.88,-77.5"/>
<text text-anchor="middle" x="407.38" y="-64" font-family="Helvetica,sans-Serif" font-size="10.00">unaligned.h</text>
</a>
</g>
</g>
<!-- Node28&#45;&gt;Node30 -->
<g id="edge49_Node000028_Node000030" class="edge">
<title>Node28&#45;&gt;Node30</title>
<g id="a_edge49_Node000028_Node000030"><a xlink:title=" ">
<path fill="none" stroke="#63b8ff" d="M441.87,-113.09C436.25,-105.77 428.41,-95.54 421.62,-86.69"/>
<polygon fill="#63b8ff" stroke="#63b8ff" points="424.6,-84.83 415.74,-79.03 419.05,-89.09 424.6,-84.83"/>
</a>
</g>
</g>
<!-- Node29&#45;&gt;Node9 -->
<g id="edge48_Node000029_Node000009" class="edge">
<title>Node29&#45;&gt;Node9</title>
<g id="a_edge48_Node000029_Node000009"><a xlink:title=" ">
<path fill="none" stroke="#63b8ff" d="M524.19,-56.34C520.48,-49.33 515.36,-39.66 510.81,-31.08"/>
<polygon fill="#63b8ff" stroke="#63b8ff" points="514,-29.61 506.22,-22.42 507.81,-32.89 514,-29.61"/>
</a>
</g>
</g>
<!-- Node30&#45;&gt;Node9 -->
<g id="edge50_Node000030_Node000009" class="edge">
<title>Node30&#45;&gt;Node9</title>
<g id="a_edge50_Node000030_Node000009"><a xlink:title=" ">
<path fill="none" stroke="#63b8ff" d="M424,-56.34C437.89,-48.16 457.94,-36.36 474.01,-26.9"/>
<polygon fill="#63b8ff" stroke="#63b8ff" points="475.75,-29.94 482.59,-21.85 472.19,-23.9 475.75,-29.94"/>
</a>
</g>
</g>
<!-- Node31&#45;&gt;Node4 -->
<g id="edge53_Node000031_Node000004" class="edge">
<title>Node31&#45;&gt;Node4</title>
<g id="a_edge53_Node000031_Node000004"><a xlink:title=" ">
<path fill="none" stroke="#63b8ff" d="M470.71,-226.85C446.11,-199.79 375.5,-122.15 343.05,-86.46"/>
<polygon fill="#63b8ff" stroke="#63b8ff" points="345.66,-84.13 336.34,-79.09 340.48,-88.84 345.66,-84.13"/>
</a>
</g>
</g>
<!-- Node31&#45;&gt;Node26 -->
<g id="edge55_Node000031_Node000026" class="edge">
<title>Node31&#45;&gt;Node26</title>
<g id="a_edge55_Node000031_Node000026"><a xlink:title=" ">
<path fill="none" stroke="#63b8ff" d="M510.3,-226.59C538.26,-217.74 579.65,-204.64 610.56,-194.86"/>
<polygon fill="#63b8ff" stroke="#63b8ff" points="611.5,-198.23 619.98,-191.88 609.39,-191.56 611.5,-198.23"/>
</a>
</g>
</g>
<!-- Node31&#45;&gt;Node27 -->
<g id="edge52_Node000031_Node000027" class="edge">
<title>Node31&#45;&gt;Node27</title>
<g id="a_edge52_Node000031_Node000027"><a xlink:title=" ">
<path fill="none" stroke="#63b8ff" d="M491.9,-226.68C516.48,-207.65 571.26,-165.23 601.79,-141.59"/>
<polygon fill="#63b8ff" stroke="#63b8ff" points="603.81,-144.45 609.58,-135.56 599.53,-138.91 603.81,-144.45"/>
</a>
</g>
</g>
<!-- Node31&#45;&gt;Node28 -->
<g id="edge54_Node000031_Node000028" class="edge">
<title>Node31&#45;&gt;Node28</title>
<g id="a_edge54_Node000031_Node000028"><a xlink:title=" ">
<path fill="none" stroke="#63b8ff" d="M476.82,-226.87C471.99,-208.94 461.45,-169.75 454.93,-145.51"/>
<polygon fill="#63b8ff" stroke="#63b8ff" points="458.38,-144.88 452.41,-136.14 451.62,-146.7 458.38,-144.88"/>
</a>
</g>
</g>
</g>
</svg>
