<?xml version="1.0" encoding="UTF-8" standalone="no"?>
<!DOCTYPE svg PUBLIC "-//W3C//DTD SVG 1.1//EN"
 "http://www.w3.org/Graphics/SVG/1.1/DTD/svg11.dtd">
<!-- Generated by graphviz version 12.1.2 (0)
 -->
<!-- Title: pkg/wakaama/include/objects/common.h Pages: 1 -->
<svg width="1043pt" height="439pt"
 viewBox="0.00 0.00 1043.38 438.75" xmlns="http://www.w3.org/2000/svg" xmlns:xlink="http://www.w3.org/1999/xlink">
<g id="graph0" class="graph" transform="scale(1 1) rotate(0) translate(4 434.75)">
<title>pkg/wakaama/include/objects/common.h</title>
<!-- Node1 -->
<g id="Node000001" class="node">
<title>Node1</title>
<g id="a_Node000001"><a xlink:title=" ">
<polygon fill="#999999" stroke="#666666" points="249.62,-430.75 126.38,-430.75 126.38,-397.25 249.62,-397.25 249.62,-430.75"/>
<text text-anchor="start" x="134.38" y="-417.25" font-family="Helvetica,sans-Serif" font-size="10.00">pkg/wakaama/include</text>
<text text-anchor="middle" x="188" y="-404.5" font-family="Helvetica,sans-Serif" font-size="10.00">/objects/common.h</text>
</a>
</g>
</g>
<!-- Node2 -->
<g id="Node000002" class="node">
<title>Node2</title>
<g id="a_Node000002"><a xlink:title=" ">
<polygon fill="#e0e0e0" stroke="#999999" points="118.88,-304.5 45.12,-304.5 45.12,-283.75 118.88,-283.75 118.88,-304.5"/>
<text text-anchor="middle" x="82" y="-291" font-family="Helvetica,sans-Serif" font-size="10.00">liblwm2m.h</text>
</a>
</g>
</g>
<!-- Node1&#45;&gt;Node2 -->
<g id="edge1_Node000001_Node000002" class="edge">
<title>Node1&#45;&gt;Node2</title>
<g id="a_edge1_Node000001_Node000002"><a xlink:title=" ">
<path fill="none" stroke="#63b8ff" d="M173.7,-397.1C154.14,-375.34 119.09,-336.37 98.45,-313.42"/>
<polygon fill="#63b8ff" stroke="#63b8ff" points="101.12,-311.15 91.83,-306.06 95.92,-315.83 101.12,-311.15"/>
</a>
</g>
</g>
<!-- Node3 -->
<g id="Node000003" class="node">
<title>Node3</title>
<g id="a_Node000003"><a xlink:href="lwm2m__client_8h.html" target="_top" xlink:title="Definitions and public API for a LwM2M client using Wakaama.">
<polygon fill="white" stroke="#666666" points="342,-361.25 248,-361.25 248,-340.5 342,-340.5 342,-361.25"/>
<text text-anchor="middle" x="295" y="-347.75" font-family="Helvetica,sans-Serif" font-size="10.00">lwm2m_client.h</text>
</a>
</g>
</g>
<!-- Node1&#45;&gt;Node3 -->
<g id="edge2_Node000001_Node000003" class="edge">
<title>Node1&#45;&gt;Node3</title>
<g id="a_edge2_Node000001_Node000003"><a xlink:title=" ">
<path fill="none" stroke="#63b8ff" d="M216.39,-396.78C232.44,-387.61 252.39,-376.22 268.17,-367.2"/>
<polygon fill="#63b8ff" stroke="#63b8ff" points="269.6,-370.42 276.55,-362.42 266.13,-364.34 269.6,-370.42"/>
</a>
</g>
</g>
<!-- Node3&#45;&gt;Node2 -->
<g id="edge55_Node000003_Node000002" class="edge">
<title>Node3&#45;&gt;Node2</title>
<g id="a_edge55_Node000003_Node000002"><a xlink:title=" ">
<path fill="none" stroke="#63b8ff" d="M256.92,-340.09C221.42,-330.96 168.32,-317.31 129.94,-307.45"/>
<polygon fill="#63b8ff" stroke="#63b8ff" points="131.06,-304.12 120.5,-305.02 129.32,-310.9 131.06,-304.12"/>
</a>
</g>
</g>
<!-- Node4 -->
<g id="Node000004" class="node">
<title>Node4</title>
<g id="a_Node000004"><a xlink:title=" ">
<polygon fill="#e0e0e0" stroke="#999999" points="649,-304.5 597,-304.5 597,-283.75 649,-283.75 649,-304.5"/>
<text text-anchor="middle" x="623" y="-291" font-family="Helvetica,sans-Serif" font-size="10.00">ctype.h</text>
</a>
</g>
</g>
<!-- Node3&#45;&gt;Node4 -->
<g id="edge3_Node000003_Node000004" class="edge">
<title>Node3&#45;&gt;Node4</title>
<g id="a_edge3_Node000003_Node000004"><a xlink:title=" ">
<path fill="none" stroke="#63b8ff" d="M342.48,-344.13C398.4,-337 494.26,-323.69 585.59,-304.82"/>
<polygon fill="#63b8ff" stroke="#63b8ff" points="586.15,-308.28 595.22,-302.81 584.71,-301.43 586.15,-308.28"/>
</a>
</g>
</g>
<!-- Node5 -->
<g id="Node000005" class="node">
<title>Node5</title>
<g id="a_Node000005"><a xlink:href="errno_8h.html" target="_top" xlink:title=" ">
<polygon fill="white" stroke="#666666" points="210.25,-247.75 159.75,-247.75 159.75,-227 210.25,-227 210.25,-247.75"/>
<text text-anchor="middle" x="185" y="-234.25" font-family="Helvetica,sans-Serif" font-size="10.00">errno.h</text>
</a>
</g>
</g>
<!-- Node3&#45;&gt;Node5 -->
<g id="edge4_Node000003_Node000005" class="edge">
<title>Node3&#45;&gt;Node5</title>
<g id="a_edge4_Node000003_Node000005"><a xlink:title=" ">
<path fill="none" stroke="#63b8ff" d="M282.76,-340.28C271.71,-331.41 255.21,-317.67 242,-304.5 226.8,-289.35 210.97,-270.72 199.86,-257.1"/>
<polygon fill="#63b8ff" stroke="#63b8ff" points="202.63,-254.97 193.63,-249.37 197.18,-259.36 202.63,-254.97"/>
</a>
</g>
</g>
<!-- Node6 -->
<g id="Node000006" class="node">
<title>Node6</title>
<g id="a_Node000006"><a xlink:href="stdio_8h.html" target="_top" xlink:title="stdio wrapper to extend the C libs stdio">
<polygon fill="white" stroke="#666666" points="814.5,-304.5 765.5,-304.5 765.5,-283.75 814.5,-283.75 814.5,-304.5"/>
<text text-anchor="middle" x="790" y="-291" font-family="Helvetica,sans-Serif" font-size="10.00">stdio.h</text>
</a>
</g>
</g>
<!-- Node3&#45;&gt;Node6 -->
<g id="edge5_Node000003_Node000006" class="edge">
<title>Node3&#45;&gt;Node6</title>
<g id="a_edge5_Node000003_Node000006"><a xlink:title=" ">
<path fill="none" stroke="#63b8ff" d="M342.46,-344.63C441.02,-333.72 665.97,-308.84 753.86,-299.12"/>
<polygon fill="#63b8ff" stroke="#63b8ff" points="754.03,-302.63 763.58,-298.05 753.26,-295.67 754.03,-302.63"/>
</a>
</g>
</g>
<!-- Node8 -->
<g id="Node000008" class="node">
<title>Node8</title>
<g id="a_Node000008"><a xlink:title=" ">
<polygon fill="#e0e0e0" stroke="#999999" points="726.38,-77.5 673.62,-77.5 673.62,-56.75 726.38,-56.75 726.38,-77.5"/>
<text text-anchor="middle" x="700" y="-64" font-family="Helvetica,sans-Serif" font-size="10.00">string.h</text>
</a>
</g>
</g>
<!-- Node3&#45;&gt;Node8 -->
<g id="edge22_Node000003_Node000008" class="edge">
<title>Node3&#45;&gt;Node8</title>
<g id="a_edge22_Node000003_Node000008"><a xlink:title=" ">
<path fill="none" stroke="#63b8ff" d="M342.23,-348.37C464.42,-344.13 784.24,-330.64 824,-304.5 895.98,-257.17 923.06,-168.79 857,-113.5 852.31,-109.57 782.67,-90.34 737.73,-78.21"/>
<polygon fill="#63b8ff" stroke="#63b8ff" points="738.64,-74.83 728.07,-75.61 736.82,-81.59 738.64,-74.83"/>
</a>
</g>
</g>
<!-- Node18 -->
<g id="Node000018" class="node">
<title>Node18</title>
<g id="a_Node000018"><a xlink:title=" ">
<polygon fill="#e0e0e0" stroke="#999999" points="52,-247.75 0,-247.75 0,-227 52,-227 52,-247.75"/>
<text text-anchor="middle" x="26" y="-234.25" font-family="Helvetica,sans-Serif" font-size="10.00">stdlib.h</text>
</a>
</g>
</g>
<!-- Node3&#45;&gt;Node18 -->
<g id="edge21_Node000003_Node000018" class="edge">
<title>Node3&#45;&gt;Node18</title>
<g id="a_edge21_Node000003_Node000018"><a xlink:title=" ">
<path fill="none" stroke="#63b8ff" d="M269.33,-340C245.97,-330.95 210.56,-317.09 180,-304.5 137.88,-287.15 89.69,-266.3 58.6,-252.71"/>
<polygon fill="#63b8ff" stroke="#63b8ff" points="60.31,-249.63 49.74,-248.83 57.5,-256.05 60.31,-249.63"/>
</a>
</g>
</g>
<!-- Node19 -->
<g id="Node000019" class="node">
<title>Node19</title>
<g id="a_Node000019"><a xlink:title=" ">
<polygon fill="#e0e0e0" stroke="#999999" points="141.75,-247.75 70.25,-247.75 70.25,-227 141.75,-227 141.75,-247.75"/>
<text text-anchor="middle" x="106" y="-234.25" font-family="Helvetica,sans-Serif" font-size="10.00">sys/types.h</text>
</a>
</g>
</g>
<!-- Node3&#45;&gt;Node19 -->
<g id="edge23_Node000003_Node000019" class="edge">
<title>Node3&#45;&gt;Node19</title>
<g id="a_edge23_Node000003_Node000019"><a xlink:title=" ">
<path fill="none" stroke="#63b8ff" d="M278.56,-340.18C245.75,-320.82 171.9,-277.25 132.28,-253.88"/>
<polygon fill="#63b8ff" stroke="#63b8ff" points="134.23,-250.97 123.84,-248.9 130.68,-257 134.23,-250.97"/>
</a>
</g>
</g>
<!-- Node20 -->
<g id="Node000020" class="node">
<title>Node20</title>
<g id="a_Node000020"><a xlink:href="pm_8h.html" target="_top" xlink:title="Power management interface.">
<polygon fill="white" stroke="#666666" points="431.25,-304.5 356.75,-304.5 356.75,-283.75 431.25,-283.75 431.25,-304.5"/>
<text text-anchor="middle" x="394" y="-291" font-family="Helvetica,sans-Serif" font-size="10.00">periph/pm.h</text>
</a>
</g>
</g>
<!-- Node3&#45;&gt;Node20 -->
<g id="edge24_Node000003_Node000020" class="edge">
<title>Node3&#45;&gt;Node20</title>
<g id="a_edge24_Node000003_Node000020"><a xlink:title=" ">
<path fill="none" stroke="#63b8ff" d="M312.7,-340.09C327.62,-331.83 349.23,-319.88 366.42,-310.38"/>
<polygon fill="#63b8ff" stroke="#63b8ff" points="368.07,-313.46 375.13,-305.56 364.68,-307.34 368.07,-313.46"/>
</a>
</g>
</g>
<!-- Node22 -->
<g id="Node000022" class="node">
<title>Node22</title>
<g id="a_Node000022"><a xlink:href="sock_2udp_8h.html" target="_top" xlink:title="UDP sock definitions.">
<polygon fill="white" stroke="#666666" points="338.62,-304.5 251.38,-304.5 251.38,-283.75 338.62,-283.75 338.62,-304.5"/>
<text text-anchor="middle" x="295" y="-291" font-family="Helvetica,sans-Serif" font-size="10.00">net/sock/udp.h</text>
</a>
</g>
</g>
<!-- Node3&#45;&gt;Node22 -->
<g id="edge26_Node000003_Node000022" class="edge">
<title>Node3&#45;&gt;Node22</title>
<g id="a_edge26_Node000003_Node000022"><a xlink:title=" ">
<path fill="none" stroke="#63b8ff" d="M295,-340.09C295,-333.47 295,-324.47 295,-316.27"/>
<polygon fill="#63b8ff" stroke="#63b8ff" points="298.5,-316.34 295,-306.34 291.5,-316.34 298.5,-316.34"/>
</a>
</g>
</g>
<!-- Node33 -->
<g id="Node000033" class="node">
<title>Node33</title>
<g id="a_Node000033"><a xlink:href="lwm2m__client__config_8h.html" target="_top" xlink:title="LwM2M client configurations.">
<polygon fill="white" stroke="#666666" points="578.62,-304.5 449.38,-304.5 449.38,-283.75 578.62,-283.75 578.62,-304.5"/>
<text text-anchor="middle" x="514" y="-291" font-family="Helvetica,sans-Serif" font-size="10.00">lwm2m_client_config.h</text>
</a>
</g>
</g>
<!-- Node3&#45;&gt;Node33 -->
<g id="edge54_Node000003_Node000033" class="edge">
<title>Node3&#45;&gt;Node33</title>
<g id="a_edge54_Node000003_Node000033"><a xlink:title=" ">
<path fill="none" stroke="#63b8ff" d="M334.41,-340.02C370.57,-330.98 424.34,-317.54 463.62,-307.72"/>
<polygon fill="#63b8ff" stroke="#63b8ff" points="464.22,-311.18 473.07,-305.36 462.52,-304.39 464.22,-311.18"/>
</a>
</g>
</g>
<!-- Node7 -->
<g id="Node000007" class="node">
<title>Node7</title>
<g id="a_Node000007"><a xlink:href="flash__utils_8h.html" target="_top" xlink:title="Utility functions, macros, and types for read&#45;only memory.">
<polygon fill="white" stroke="#666666" points="827.62,-247.75 752.38,-247.75 752.38,-227 827.62,-227 827.62,-247.75"/>
<text text-anchor="middle" x="790" y="-234.25" font-family="Helvetica,sans-Serif" font-size="10.00">flash_utils.h</text>
</a>
</g>
</g>
<!-- Node6&#45;&gt;Node7 -->
<g id="edge6_Node000006_Node000007" class="edge">
<title>Node6&#45;&gt;Node7</title>
<g id="a_edge6_Node000006_Node000007"><a xlink:title=" ">
<path fill="none" stroke="#63b8ff" d="M784.68,-283.34C783.41,-276.72 782.99,-267.72 783.41,-259.52"/>
<polygon fill="#63b8ff" stroke="#63b8ff" points="786.89,-259.91 784.53,-249.58 779.93,-259.13 786.89,-259.91"/>
</a>
</g>
</g>
<!-- Node7&#45;&gt;Node6 -->
<g id="edge7_Node000007_Node000006" class="edge">
<title>Node7&#45;&gt;Node6</title>
<g id="a_edge7_Node000007_Node000006"><a xlink:title=" ">
<path fill="none" stroke="#63b8ff" d="M795.3,-248.08C796.6,-254.75 797.02,-263.88 796.58,-272.17"/>
<polygon fill="#63b8ff" stroke="#63b8ff" points="793.14,-271.5 795.49,-281.83 800.09,-272.29 793.14,-271.5"/>
</a>
</g>
</g>
<!-- Node7&#45;&gt;Node8 -->
<g id="edge8_Node000007_Node000008" class="edge">
<title>Node7&#45;&gt;Node8</title>
<g id="a_edge8_Node000007_Node000008"><a xlink:title=" ">
<path fill="none" stroke="#63b8ff" d="M784.9,-226.85C770.61,-200.14 729.95,-124.12 710.55,-87.85"/>
<polygon fill="#63b8ff" stroke="#63b8ff" points="713.78,-86.47 705.98,-79.3 707.61,-89.77 713.78,-86.47"/>
</a>
</g>
</g>
<!-- Node9 -->
<g id="Node000009" class="node">
<title>Node9</title>
<g id="a_Node000009"><a xlink:title=" ">
<polygon fill="#e0e0e0" stroke="#999999" points="723.88,-191 656.12,-191 656.12,-170.25 723.88,-170.25 723.88,-191"/>
<text text-anchor="middle" x="690" y="-177.5" font-family="Helvetica,sans-Serif" font-size="10.00">cpu_conf.h</text>
</a>
</g>
</g>
<!-- Node7&#45;&gt;Node9 -->
<g id="edge9_Node000007_Node000009" class="edge">
<title>Node7&#45;&gt;Node9</title>
<g id="a_edge9_Node000007_Node000009"><a xlink:title=" ">
<path fill="none" stroke="#63b8ff" d="M772.12,-226.59C756.91,-218.26 734.81,-206.16 717.37,-196.61"/>
<polygon fill="#63b8ff" stroke="#63b8ff" points="719.5,-193.79 709.05,-192.06 716.14,-199.93 719.5,-193.79"/>
</a>
</g>
</g>
<!-- Node10 -->
<g id="Node000010" class="node">
<title>Node10</title>
<g id="a_Node000010"><a xlink:href="kernel__defines_8h.html" target="_top" xlink:title="Common macros and compiler attributes/pragmas configuration.">
<polygon fill="white" stroke="#666666" points="876.12,-191 779.88,-191 779.88,-170.25 876.12,-170.25 876.12,-191"/>
<text text-anchor="middle" x="828" y="-177.5" font-family="Helvetica,sans-Serif" font-size="10.00">kernel_defines.h</text>
</a>
</g>
</g>
<!-- Node7&#45;&gt;Node10 -->
<g id="edge10_Node000007_Node000010" class="edge">
<title>Node7&#45;&gt;Node10</title>
<g id="a_edge10_Node000007_Node000010"><a xlink:title=" ">
<path fill="none" stroke="#63b8ff" d="M796.79,-226.59C801.77,-219.42 808.67,-209.48 814.72,-200.76"/>
<polygon fill="#63b8ff" stroke="#63b8ff" points="817.58,-202.78 820.4,-192.57 811.82,-198.79 817.58,-202.78"/>
</a>
</g>
</g>
<!-- Node11 -->
<g id="Node000011" class="node">
<title>Node11</title>
<g id="a_Node000011"><a xlink:href="modules_8h.html" target="_top" xlink:title="Common macros and compiler attributes/pragmas configuration.">
<polygon fill="white" stroke="#666666" points="847.5,-134.25 780.5,-134.25 780.5,-113.5 847.5,-113.5 847.5,-134.25"/>
<text text-anchor="middle" x="814" y="-120.75" font-family="Helvetica,sans-Serif" font-size="10.00">modules.h</text>
</a>
</g>
</g>
<!-- Node10&#45;&gt;Node11 -->
<g id="edge11_Node000010_Node000011" class="edge">
<title>Node10&#45;&gt;Node11</title>
<g id="a_edge11_Node000010_Node000011"><a xlink:title=" ">
<path fill="none" stroke="#63b8ff" d="M825.5,-169.84C823.78,-163.14 821.45,-154.01 819.33,-145.73"/>
<polygon fill="#63b8ff" stroke="#63b8ff" points="822.72,-144.87 816.86,-136.04 815.94,-146.6 822.72,-144.87"/>
</a>
</g>
</g>
<!-- Node12 -->
<g id="Node000012" class="node">
<title>Node12</title>
<g id="a_Node000012"><a xlink:href="riot__version_8h.html" target="_top" xlink:title="Common macros and compiler attributes/pragmas configuration.">
<polygon fill="white" stroke="#666666" points="1035.38,-77.5 952.62,-77.5 952.62,-56.75 1035.38,-56.75 1035.38,-77.5"/>
<text text-anchor="middle" x="994" y="-64" font-family="Helvetica,sans-Serif" font-size="10.00">riot_version.h</text>
</a>
</g>
</g>
<!-- Node10&#45;&gt;Node12 -->
<g id="edge12_Node000010_Node000012" class="edge">
<title>Node10&#45;&gt;Node12</title>
<g id="a_edge12_Node000010_Node000012"><a xlink:title=" ">
<path fill="none" stroke="#63b8ff" d="M876.4,-174.33C924.87,-167.91 994.56,-155.26 1011,-134.25 1021.48,-120.86 1014.88,-101.71 1007.05,-87.47"/>
<polygon fill="#63b8ff" stroke="#63b8ff" points="1010.07,-85.71 1001.87,-79 1004.1,-89.36 1010.07,-85.71"/>
</a>
</g>
</g>
<!-- Node14 -->
<g id="Node000014" class="node">
<title>Node14</title>
<g id="a_Node000014"><a xlink:href="compiler__hints_8h.html" target="_top" xlink:title="Common macros and compiler attributes/pragmas configuration.">
<polygon fill="white" stroke="#666666" points="1001.5,-134.25 904.5,-134.25 904.5,-113.5 1001.5,-113.5 1001.5,-134.25"/>
<text text-anchor="middle" x="953" y="-120.75" font-family="Helvetica,sans-Serif" font-size="10.00">compiler_hints.h</text>
</a>
</g>
</g>
<!-- Node10&#45;&gt;Node14 -->
<g id="edge14_Node000010_Node000014" class="edge">
<title>Node10&#45;&gt;Node14</title>
<g id="a_edge14_Node000010_Node000014"><a xlink:title=" ">
<path fill="none" stroke="#63b8ff" d="M850.35,-169.84C869.81,-161.31 898.29,-148.84 920.31,-139.19"/>
<polygon fill="#63b8ff" stroke="#63b8ff" points="921.7,-142.4 929.46,-135.19 918.9,-135.99 921.7,-142.4"/>
</a>
</g>
</g>
<!-- Node16 -->
<g id="Node000016" class="node">
<title>Node16</title>
<g id="a_Node000016"><a xlink:href="container_8h.html" target="_top" xlink:title="Common macros and compiler attributes/pragmas configuration.">
<polygon fill="white" stroke="#666666" points="646.38,-134.25 575.62,-134.25 575.62,-113.5 646.38,-113.5 646.38,-134.25"/>
<text text-anchor="middle" x="611" y="-120.75" font-family="Helvetica,sans-Serif" font-size="10.00">container.h</text>
</a>
</g>
</g>
<!-- Node10&#45;&gt;Node16 -->
<g id="edge18_Node000010_Node000016" class="edge">
<title>Node10&#45;&gt;Node16</title>
<g id="a_edge18_Node000010_Node000016"><a xlink:title=" ">
<path fill="none" stroke="#63b8ff" d="M788.95,-169.77C752.19,-160.5 697.08,-146.59 657.94,-136.72"/>
<polygon fill="#63b8ff" stroke="#63b8ff" points="658.87,-133.34 648.32,-134.29 657.16,-140.13 658.87,-133.34"/>
</a>
</g>
</g>
<!-- Node13 -->
<g id="Node000013" class="node">
<title>Node13</title>
<g id="a_Node000013"><a xlink:title=" ">
<polygon fill="#e0e0e0" stroke="#999999" points="565.38,-20.75 512.62,-20.75 512.62,0 565.38,0 565.38,-20.75"/>
<text text-anchor="middle" x="539" y="-7.25" font-family="Helvetica,sans-Serif" font-size="10.00">stdint.h</text>
</a>
</g>
</g>
<!-- Node12&#45;&gt;Node13 -->
<g id="edge13_Node000012_Node000013" class="edge">
<title>Node12&#45;&gt;Node13</title>
<g id="a_edge13_Node000012_Node000013"><a xlink:title=" ">
<path fill="none" stroke="#63b8ff" d="M952.42,-61.12C864.71,-50.57 661.93,-26.17 577.24,-15.98"/>
<polygon fill="#63b8ff" stroke="#63b8ff" points="577.72,-12.51 567.37,-14.79 576.88,-19.46 577.72,-12.51"/>
</a>
</g>
</g>
<!-- Node14&#45;&gt;Node13 -->
<g id="edge17_Node000014_Node000013" class="edge">
<title>Node14&#45;&gt;Node13</title>
<g id="a_edge17_Node000014_Node000013"><a xlink:title=" ">
<path fill="none" stroke="#63b8ff" d="M935.86,-113.18C909.45,-98.68 856.85,-71.47 809,-56.75 728.33,-31.93 629.67,-19.71 576.78,-14.55"/>
<polygon fill="#63b8ff" stroke="#63b8ff" points="577.39,-11.09 567.1,-13.64 576.73,-18.06 577.39,-11.09"/>
</a>
</g>
</g>
<!-- Node15 -->
<g id="Node000015" class="node">
<title>Node15</title>
<g id="a_Node000015"><a xlink:href="assert_8h.html" target="_top" xlink:title="POSIX.1&#45;2008 compliant version of the assert macro.">
<polygon fill="white" stroke="#666666" points="799.5,-77.5 744.5,-77.5 744.5,-56.75 799.5,-56.75 799.5,-77.5"/>
<text text-anchor="middle" x="772" y="-64" font-family="Helvetica,sans-Serif" font-size="10.00">assert.h</text>
</a>
</g>
</g>
<!-- Node14&#45;&gt;Node15 -->
<g id="edge15_Node000014_Node000015" class="edge">
<title>Node14&#45;&gt;Node15</title>
<g id="a_edge15_Node000014_Node000015"><a xlink:title=" ">
<path fill="none" stroke="#63b8ff" d="M920.64,-113.09C889.9,-103.79 843.63,-89.79 810.89,-79.89"/>
<polygon fill="#63b8ff" stroke="#63b8ff" points="811.96,-76.56 801.37,-77.01 809.93,-83.26 811.96,-76.56"/>
</a>
</g>
</g>
<!-- Node15&#45;&gt;Node13 -->
<g id="edge16_Node000015_Node000013" class="edge">
<title>Node15&#45;&gt;Node13</title>
<g id="a_edge16_Node000015_Node000013"><a xlink:title=" ">
<path fill="none" stroke="#63b8ff" d="M744.13,-59C741.05,-58.23 737.96,-57.47 735,-56.75 680.13,-43.45 616.4,-28.85 576.88,-19.9"/>
<polygon fill="#63b8ff" stroke="#63b8ff" points="577.67,-16.49 567.15,-17.7 576.13,-23.32 577.67,-16.49"/>
</a>
</g>
</g>
<!-- Node16&#45;&gt;Node13 -->
<g id="edge20_Node000016_Node000013" class="edge">
<title>Node16&#45;&gt;Node13</title>
<g id="a_edge20_Node000016_Node000013"><a xlink:title=" ">
<path fill="none" stroke="#63b8ff" d="M617.6,-113.2C625.93,-99.66 637.94,-74.7 627,-56.75 615.98,-38.68 595.2,-27.49 576.6,-20.75"/>
<polygon fill="#63b8ff" stroke="#63b8ff" points="577.73,-17.44 567.14,-17.66 575.56,-24.09 577.73,-17.44"/>
</a>
</g>
</g>
<!-- Node17 -->
<g id="Node000017" class="node">
<title>Node17</title>
<g id="a_Node000017"><a xlink:title=" ">
<polygon fill="#e0e0e0" stroke="#999999" points="373.5,-77.5 318.5,-77.5 318.5,-56.75 373.5,-56.75 373.5,-77.5"/>
<text text-anchor="middle" x="346" y="-64" font-family="Helvetica,sans-Serif" font-size="10.00">stddef.h</text>
</a>
</g>
</g>
<!-- Node16&#45;&gt;Node17 -->
<g id="edge19_Node000016_Node000017" class="edge">
<title>Node16&#45;&gt;Node17</title>
<g id="a_edge19_Node000016_Node000017"><a xlink:title=" ">
<path fill="none" stroke="#63b8ff" d="M575.46,-115.28C572.6,-114.67 569.75,-114.08 567,-113.5 503.3,-100.17 429.19,-85.03 385.02,-76.05"/>
<polygon fill="#63b8ff" stroke="#63b8ff" points="385.9,-72.65 375.41,-74.09 384.51,-79.51 385.9,-72.65"/>
</a>
</g>
</g>
<!-- Node21 -->
<g id="Node000021" class="node">
<title>Node21</title>
<g id="a_Node000021"><a xlink:title=" ">
<polygon fill="#e0e0e0" stroke="#999999" points="734.12,-247.75 655.88,-247.75 655.88,-227 734.12,-227 734.12,-247.75"/>
<text text-anchor="middle" x="695" y="-234.25" font-family="Helvetica,sans-Serif" font-size="10.00">periph_cpu.h</text>
</a>
</g>
</g>
<!-- Node20&#45;&gt;Node21 -->
<g id="edge25_Node000020_Node000021" class="edge">
<title>Node20&#45;&gt;Node21</title>
<g id="a_edge25_Node000020_Node000021"><a xlink:title=" ">
<path fill="none" stroke="#63b8ff" d="M431.64,-285.37C434.47,-284.82 437.28,-284.27 440,-283.75 449.98,-281.84 573.09,-259.99 644.53,-247.32"/>
<polygon fill="#63b8ff" stroke="#63b8ff" points="644.8,-250.83 654.04,-245.64 643.58,-243.94 644.8,-250.83"/>
</a>
</g>
</g>
<!-- Node22&#45;&gt;Node5 -->
<g id="edge28_Node000022_Node000005" class="edge">
<title>Node22&#45;&gt;Node5</title>
<g id="a_edge28_Node000022_Node000005"><a xlink:title=" ">
<path fill="none" stroke="#63b8ff" d="M275.33,-283.34C258.44,-274.93 233.83,-262.68 214.57,-253.09"/>
<polygon fill="#63b8ff" stroke="#63b8ff" points="216.36,-250.08 205.85,-248.75 213.24,-256.34 216.36,-250.08"/>
</a>
</g>
</g>
<!-- Node22&#45;&gt;Node13 -->
<g id="edge29_Node000022_Node000013" class="edge">
<title>Node22&#45;&gt;Node13</title>
<g id="a_edge29_Node000022_Node000013"><a xlink:title=" ">
<path fill="none" stroke="#63b8ff" d="M287.38,-283.67C260.32,-248.93 173.67,-126.72 234,-56.75 268.1,-17.21 427.31,-11.58 501.18,-11.14"/>
<polygon fill="#63b8ff" stroke="#63b8ff" points="500.77,-14.64 510.76,-11.12 500.75,-7.64 500.77,-14.64"/>
</a>
</g>
</g>
<!-- Node22&#45;&gt;Node15 -->
<g id="edge27_Node000022_Node000015" class="edge">
<title>Node22&#45;&gt;Node15</title>
<g id="a_edge27_Node000022_Node000015"><a xlink:title=" ">
<path fill="none" stroke="#63b8ff" d="M338.94,-285.22C342,-284.71 345.05,-284.21 348,-283.75 405.84,-274.65 561.55,-282.05 609,-247.75 640.09,-225.27 623.15,-200.3 647,-170.25 675.7,-134.08 719.24,-102.17 746.62,-84.01"/>
<polygon fill="#63b8ff" stroke="#63b8ff" points="748.18,-87.17 754.66,-78.79 744.36,-81.31 748.18,-87.17"/>
</a>
</g>
</g>
<!-- Node22&#45;&gt;Node18 -->
<g id="edge30_Node000022_Node000018" class="edge">
<title>Node22&#45;&gt;Node18</title>
<g id="a_edge30_Node000022_Node000018"><a xlink:title=" ">
<path fill="none" stroke="#63b8ff" d="M251.25,-285.59C206.4,-277.65 134.39,-264.33 63.27,-248.15"/>
<polygon fill="#63b8ff" stroke="#63b8ff" points="64.33,-244.81 53.8,-245.98 62.76,-251.63 64.33,-244.81"/>
</a>
</g>
</g>
<!-- Node22&#45;&gt;Node19 -->
<g id="edge31_Node000022_Node000019" class="edge">
<title>Node22&#45;&gt;Node19</title>
<g id="a_edge31_Node000022_Node000019"><a xlink:title=" ">
<path fill="none" stroke="#63b8ff" d="M261.21,-283.34C230.4,-274.41 184.65,-261.16 150.8,-251.35"/>
<polygon fill="#63b8ff" stroke="#63b8ff" points="151.85,-248.01 141.27,-248.59 149.9,-254.74 151.85,-248.01"/>
</a>
</g>
</g>
<!-- Node23 -->
<g id="Node000023" class="node">
<title>Node23</title>
<g id="a_Node000023"><a xlink:href="af_8h.html" target="_top" xlink:title="Global UNIX address family definitions.">
<polygon fill="white" stroke="#666666" points="502.38,-247.75 449.62,-247.75 449.62,-227 502.38,-227 502.38,-247.75"/>
<text text-anchor="middle" x="476" y="-234.25" font-family="Helvetica,sans-Serif" font-size="10.00">net/af.h</text>
</a>
</g>
</g>
<!-- Node22&#45;&gt;Node23 -->
<g id="edge32_Node000022_Node000023" class="edge">
<title>Node22&#45;&gt;Node23</title>
<g id="a_edge32_Node000022_Node000023"><a xlink:title=" ">
<path fill="none" stroke="#63b8ff" d="M327.36,-283.34C358.47,-273.93 405.47,-259.71 438.26,-249.79"/>
<polygon fill="#63b8ff" stroke="#63b8ff" points="439.22,-253.16 447.77,-246.91 437.19,-246.46 439.22,-253.16"/>
</a>
</g>
</g>
<!-- Node24 -->
<g id="Node000024" class="node">
<title>Node24</title>
<g id="a_Node000024"><a xlink:href="sock_8h.html" target="_top" xlink:title="Common sock API definitions.">
<polygon fill="white" stroke="#666666" points="309.12,-134.25 242.88,-134.25 242.88,-113.5 309.12,-113.5 309.12,-134.25"/>
<text text-anchor="middle" x="276" y="-120.75" font-family="Helvetica,sans-Serif" font-size="10.00">net/sock.h</text>
</a>
</g>
</g>
<!-- Node22&#45;&gt;Node24 -->
<g id="edge33_Node000022_Node000024" class="edge">
<title>Node22&#45;&gt;Node24</title>
<g id="a_edge33_Node000022_Node000024"><a xlink:title=" ">
<path fill="none" stroke="#63b8ff" d="M293.92,-283.6C290.95,-257.23 282.54,-182.83 278.39,-146.03"/>
<polygon fill="#63b8ff" stroke="#63b8ff" points="281.88,-145.77 277.28,-136.22 274.93,-146.55 281.88,-145.77"/>
</a>
</g>
</g>
<!-- Node26 -->
<g id="Node000026" class="node">
<title>Node26</title>
<g id="a_Node000026"><a xlink:href="ipv4_2addr_8h.html" target="_top" xlink:title="IPv4 address type and helper functions definitions.">
<polygon fill="white" stroke="#666666" points="418.75,-191 329.25,-191 329.25,-170.25 418.75,-170.25 418.75,-191"/>
<text text-anchor="middle" x="374" y="-177.5" font-family="Helvetica,sans-Serif" font-size="10.00">net/ipv4/addr.h</text>
</a>
</g>
</g>
<!-- Node22&#45;&gt;Node26 -->
<g id="edge37_Node000022_Node000026" class="edge">
<title>Node22&#45;&gt;Node26</title>
<g id="a_edge37_Node000022_Node000026"><a xlink:title=" ">
<path fill="none" stroke="#63b8ff" d="M299.8,-283.31C306.48,-270.04 319.3,-245.85 333,-227 339.98,-217.39 348.69,-207.51 356.29,-199.44"/>
<polygon fill="#63b8ff" stroke="#63b8ff" points="358.76,-201.91 363.19,-192.28 353.72,-197.05 358.76,-201.91"/>
</a>
</g>
</g>
<!-- Node31 -->
<g id="Node000031" class="node">
<title>Node31</title>
<g id="a_Node000031"><a xlink:href="ipv6_2addr_8h.html" target="_top" xlink:title="Definitions for IPv6 addresses.">
<polygon fill="white" stroke="#666666" points="431.75,-247.75 342.25,-247.75 342.25,-227 431.75,-227 431.75,-247.75"/>
<text text-anchor="middle" x="387" y="-234.25" font-family="Helvetica,sans-Serif" font-size="10.00">net/ipv6/addr.h</text>
</a>
</g>
</g>
<!-- Node22&#45;&gt;Node31 -->
<g id="edge48_Node000022_Node000031" class="edge">
<title>Node22&#45;&gt;Node31</title>
<g id="a_edge48_Node000022_Node000031"><a xlink:title=" ">
<path fill="none" stroke="#63b8ff" d="M311.45,-283.34C325.18,-275.16 345.02,-263.36 360.92,-253.9"/>
<polygon fill="#63b8ff" stroke="#63b8ff" points="362.59,-256.97 369.39,-248.85 359.01,-250.96 362.59,-256.97"/>
</a>
</g>
</g>
<!-- Node32 -->
<g id="Node000032" class="node">
<title>Node32</title>
<g id="a_Node000032"><a xlink:title=" ">
<polygon fill="#e0e0e0" stroke="#999999" points="599.88,-247.75 520.12,-247.75 520.12,-227 599.88,-227 599.88,-247.75"/>
<text text-anchor="middle" x="560" y="-234.25" font-family="Helvetica,sans-Serif" font-size="10.00">sock_types.h</text>
</a>
</g>
</g>
<!-- Node22&#45;&gt;Node32 -->
<g id="edge53_Node000022_Node000032" class="edge">
<title>Node22&#45;&gt;Node32</title>
<g id="a_edge53_Node000022_Node000032"><a xlink:title=" ">
<path fill="none" stroke="#63b8ff" d="M339.06,-284.02C385.75,-274.37 459.42,-259.15 508.7,-248.97"/>
<polygon fill="#63b8ff" stroke="#63b8ff" points="509.18,-252.45 518.27,-247 507.77,-245.59 509.18,-252.45"/>
</a>
</g>
</g>
<!-- Node24&#45;&gt;Node13 -->
<g id="edge34_Node000024_Node000013" class="edge">
<title>Node24&#45;&gt;Node13</title>
<g id="a_edge34_Node000024_Node000013"><a xlink:title=" ">
<path fill="none" stroke="#63b8ff" d="M264.53,-113.03C249.89,-99.28 228.12,-74.08 243,-56.75 275.88,-18.45 429.2,-12.14 501.32,-11.33"/>
<polygon fill="#63b8ff" stroke="#63b8ff" points="501.08,-14.84 511.06,-11.26 501.03,-7.84 501.08,-14.84"/>
</a>
</g>
</g>
<!-- Node24&#45;&gt;Node17 -->
<g id="edge35_Node000024_Node000017" class="edge">
<title>Node24&#45;&gt;Node17</title>
<g id="a_edge35_Node000024_Node000017"><a xlink:title=" ">
<path fill="none" stroke="#63b8ff" d="M288.51,-113.09C298.57,-105.22 312.91,-94 324.76,-84.74"/>
<polygon fill="#63b8ff" stroke="#63b8ff" points="326.68,-87.68 332.4,-78.76 322.37,-82.16 326.68,-87.68"/>
</a>
</g>
</g>
<!-- Node25 -->
<g id="Node000025" class="node">
<title>Node25</title>
<g id="a_Node000025"><a xlink:href="iolist_8h.html" target="_top" xlink:title="iolist scatter / gather IO">
<polygon fill="white" stroke="#666666" points="300.5,-77.5 251.5,-77.5 251.5,-56.75 300.5,-56.75 300.5,-77.5"/>
<text text-anchor="middle" x="276" y="-64" font-family="Helvetica,sans-Serif" font-size="10.00">iolist.h</text>
</a>
</g>
</g>
<!-- Node24&#45;&gt;Node25 -->
<g id="edge36_Node000024_Node000025" class="edge">
<title>Node24&#45;&gt;Node25</title>
<g id="a_edge36_Node000024_Node000025"><a xlink:title=" ">
<path fill="none" stroke="#63b8ff" d="M276,-113.09C276,-106.47 276,-97.47 276,-89.27"/>
<polygon fill="#63b8ff" stroke="#63b8ff" points="279.5,-89.34 276,-79.34 272.5,-89.34 279.5,-89.34"/>
</a>
</g>
</g>
<!-- Node26&#45;&gt;Node13 -->
<g id="edge39_Node000026_Node000013" class="edge">
<title>Node26&#45;&gt;Node13</title>
<g id="a_edge39_Node000026_Node000013"><a xlink:title=" ">
<path fill="none" stroke="#63b8ff" d="M376.12,-170.18C379.35,-156.92 386.28,-132.29 397,-113.5 413.37,-84.81 418.89,-76.98 445,-56.75 462.04,-43.54 483.55,-32.81 501.69,-25.11"/>
<polygon fill="#63b8ff" stroke="#63b8ff" points="502.86,-28.41 510.8,-21.39 500.21,-21.93 502.86,-28.41"/>
</a>
</g>
</g>
<!-- Node26&#45;&gt;Node17 -->
<g id="edge40_Node000026_Node000017" class="edge">
<title>Node26&#45;&gt;Node17</title>
<g id="a_edge40_Node000026_Node000017"><a xlink:title=" ">
<path fill="none" stroke="#63b8ff" d="M371.61,-170.12C367.13,-152.27 357.36,-113.36 351.27,-89.09"/>
<polygon fill="#63b8ff" stroke="#63b8ff" points="354.66,-88.24 348.83,-79.39 347.87,-89.94 354.66,-88.24"/>
</a>
</g>
</g>
<!-- Node27 -->
<g id="Node000027" class="node">
<title>Node27</title>
<g id="a_Node000027"><a xlink:title=" ">
<polygon fill="#e0e0e0" stroke="#999999" points="557.5,-134.25 496.5,-134.25 496.5,-113.5 557.5,-113.5 557.5,-134.25"/>
<text text-anchor="middle" x="527" y="-120.75" font-family="Helvetica,sans-Serif" font-size="10.00">stdbool.h</text>
</a>
</g>
</g>
<!-- Node26&#45;&gt;Node27 -->
<g id="edge38_Node000026_Node000027" class="edge">
<title>Node26&#45;&gt;Node27</title>
<g id="a_edge38_Node000026_Node000027"><a xlink:title=" ">
<path fill="none" stroke="#63b8ff" d="M401.35,-169.84C425.75,-161.11 461.72,-148.23 488.93,-138.5"/>
<polygon fill="#63b8ff" stroke="#63b8ff" points="489.96,-141.85 498.2,-135.18 487.61,-135.25 489.96,-141.85"/>
</a>
</g>
</g>
<!-- Node28 -->
<g id="Node000028" class="node">
<title>Node28</title>
<g id="a_Node000028"><a xlink:href="byteorder_8h.html" target="_top" xlink:title="Functions to work with different byte orders.">
<polygon fill="white" stroke="#666666" points="478.12,-134.25 405.88,-134.25 405.88,-113.5 478.12,-113.5 478.12,-134.25"/>
<text text-anchor="middle" x="442" y="-120.75" font-family="Helvetica,sans-Serif" font-size="10.00">byteorder.h</text>
</a>
</g>
</g>
<!-- Node26&#45;&gt;Node28 -->
<g id="edge41_Node000026_Node000028" class="edge">
<title>Node26&#45;&gt;Node28</title>
<g id="a_edge41_Node000026_Node000028"><a xlink:title=" ">
<path fill="none" stroke="#63b8ff" d="M386.16,-169.84C395.83,-162.05 409.58,-150.97 421.02,-141.76"/>
<polygon fill="#63b8ff" stroke="#63b8ff" points="423.18,-144.53 428.77,-135.53 418.79,-139.07 423.18,-144.53"/>
</a>
</g>
</g>
<!-- Node28&#45;&gt;Node8 -->
<g id="edge42_Node000028_Node000008" class="edge">
<title>Node28&#45;&gt;Node8</title>
<g id="a_edge42_Node000028_Node000008"><a xlink:title=" ">
<path fill="none" stroke="#63b8ff" d="M478.42,-115.15C527.03,-104.83 612.7,-86.65 662.07,-76.17"/>
<polygon fill="#63b8ff" stroke="#63b8ff" points="662.66,-79.63 671.72,-74.13 661.21,-72.78 662.66,-79.63"/>
</a>
</g>
</g>
<!-- Node28&#45;&gt;Node13 -->
<g id="edge43_Node000028_Node000013" class="edge">
<title>Node28&#45;&gt;Node13</title>
<g id="a_edge43_Node000028_Node000013"><a xlink:title=" ">
<path fill="none" stroke="#63b8ff" d="M442.18,-113.33C442.9,-99.5 446.03,-73.69 459,-56.75 469.88,-42.53 486.58,-32.06 501.91,-24.79"/>
<polygon fill="#63b8ff" stroke="#63b8ff" points="503.08,-28.1 510.83,-20.87 500.27,-21.69 503.08,-28.1"/>
</a>
</g>
</g>
<!-- Node29 -->
<g id="Node000029" class="node">
<title>Node29</title>
<g id="a_Node000029"><a xlink:href="endian_8h.html" target="_top" xlink:title="libc header for endian conversion">
<polygon fill="white" stroke="#666666" points="526,-77.5 468,-77.5 468,-56.75 526,-56.75 526,-77.5"/>
<text text-anchor="middle" x="497" y="-64" font-family="Helvetica,sans-Serif" font-size="10.00">endian.h</text>
</a>
</g>
</g>
<!-- Node28&#45;&gt;Node29 -->
<g id="edge44_Node000028_Node000029" class="edge">
<title>Node28&#45;&gt;Node29</title>
<g id="a_edge44_Node000028_Node000029"><a xlink:title=" ">
<path fill="none" stroke="#63b8ff" d="M451.83,-113.09C459.42,-105.53 470.12,-94.89 479.2,-85.85"/>
<polygon fill="#63b8ff" stroke="#63b8ff" points="481.56,-88.43 486.18,-78.9 476.62,-83.47 481.56,-88.43"/>
</a>
</g>
</g>
<!-- Node30 -->
<g id="Node000030" class="node">
<title>Node30</title>
<g id="a_Node000030"><a xlink:href="unaligned_8h.html" target="_top" xlink:title="Unaligned but safe memory access functions.">
<polygon fill="white" stroke="#666666" points="617.5,-77.5 544.5,-77.5 544.5,-56.75 617.5,-56.75 617.5,-77.5"/>
<text text-anchor="middle" x="581" y="-64" font-family="Helvetica,sans-Serif" font-size="10.00">unaligned.h</text>
</a>
</g>
</g>
<!-- Node28&#45;&gt;Node30 -->
<g id="edge46_Node000028_Node000030" class="edge">
<title>Node28&#45;&gt;Node30</title>
<g id="a_edge46_Node000028_Node000030"><a xlink:title=" ">
<path fill="none" stroke="#63b8ff" d="M466.85,-113.09C488.89,-104.41 521.32,-91.63 545.98,-81.92"/>
<polygon fill="#63b8ff" stroke="#63b8ff" points="546.93,-85.3 554.96,-78.38 544.37,-78.79 546.93,-85.3"/>
</a>
</g>
</g>
<!-- Node29&#45;&gt;Node13 -->
<g id="edge45_Node000029_Node000013" class="edge">
<title>Node29&#45;&gt;Node13</title>
<g id="a_edge45_Node000029_Node000013"><a xlink:title=" ">
<path fill="none" stroke="#63b8ff" d="M504.51,-56.34C510.12,-49.02 517.97,-38.79 524.76,-29.94"/>
<polygon fill="#63b8ff" stroke="#63b8ff" points="527.33,-32.34 530.64,-22.28 521.77,-28.08 527.33,-32.34"/>
</a>
</g>
</g>
<!-- Node30&#45;&gt;Node13 -->
<g id="edge47_Node000030_Node000013" class="edge">
<title>Node30&#45;&gt;Node13</title>
<g id="a_edge47_Node000030_Node000013"><a xlink:title=" ">
<path fill="none" stroke="#63b8ff" d="M573.49,-56.34C567.88,-49.02 560.03,-38.79 553.24,-29.94"/>
<polygon fill="#63b8ff" stroke="#63b8ff" points="556.23,-28.08 547.36,-22.28 550.67,-32.34 556.23,-28.08"/>
</a>
</g>
</g>
<!-- Node31&#45;&gt;Node8 -->
<g id="edge50_Node000031_Node000008" class="edge">
<title>Node31&#45;&gt;Node8</title>
<g id="a_edge50_Node000031_Node000008"><a xlink:title=" ">
<path fill="none" stroke="#63b8ff" d="M431.93,-227.97C488.78,-215.52 587.41,-187.65 655,-134.25 670.8,-121.76 683.14,-102.2 690.87,-87.59"/>
<polygon fill="#63b8ff" stroke="#63b8ff" points="693.86,-89.44 695.19,-78.93 687.59,-86.32 693.86,-89.44"/>
</a>
</g>
</g>
<!-- Node31&#45;&gt;Node26 -->
<g id="edge52_Node000031_Node000026" class="edge">
<title>Node31&#45;&gt;Node26</title>
<g id="a_edge52_Node000031_Node000026"><a xlink:title=" ">
<path fill="none" stroke="#63b8ff" d="M384.68,-226.59C383.09,-219.89 380.92,-210.76 378.95,-202.48"/>
<polygon fill="#63b8ff" stroke="#63b8ff" points="382.37,-201.72 376.65,-192.8 375.56,-203.34 382.37,-201.72"/>
</a>
</g>
</g>
<!-- Node31&#45;&gt;Node27 -->
<g id="edge49_Node000031_Node000027" class="edge">
<title>Node31&#45;&gt;Node27</title>
<g id="a_edge49_Node000031_Node000027"><a xlink:title=" ">
<path fill="none" stroke="#63b8ff" d="M399.74,-226.74C411.75,-217.63 430.2,-203.52 446,-191 466.81,-174.51 490.29,-155.27 506.59,-141.81"/>
<polygon fill="#63b8ff" stroke="#63b8ff" points="508.64,-144.66 514.12,-135.58 504.18,-139.26 508.64,-144.66"/>
</a>
</g>
</g>
<!-- Node31&#45;&gt;Node28 -->
<g id="edge51_Node000031_Node000028" class="edge">
<title>Node31&#45;&gt;Node28</title>
<g id="a_edge51_Node000031_Node000028"><a xlink:title=" ">
<path fill="none" stroke="#63b8ff" d="M398.54,-226.78C407.93,-218.33 420.76,-205.19 428,-191 435.19,-176.9 438.69,-159.3 440.39,-145.8"/>
<polygon fill="#63b8ff" stroke="#63b8ff" points="443.87,-146.17 441.39,-135.87 436.91,-145.48 443.87,-146.17"/>
</a>
</g>
</g>
</g>
</svg>
