<?xml version="1.0" encoding="UTF-8" standalone="no"?>
<!DOCTYPE svg PUBLIC "-//W3C//DTD SVG 1.1//EN"
 "http://www.w3.org/Graphics/SVG/1.1/DTD/svg11.dtd">
<!-- Generated by graphviz version 12.1.2 (0)
 -->
<!-- Title: sys/include/net/gnrc/pktbuf.h Pages: 1 -->
<svg width="1542pt" height="566pt"
 viewBox="0.00 0.00 1541.50 566.25" xmlns="http://www.w3.org/2000/svg" xmlns:xlink="http://www.w3.org/1999/xlink">
<g id="graph0" class="graph" transform="scale(1 1) rotate(0) translate(4 562.25)">
<title>sys/include/net/gnrc/pktbuf.h</title>
<!-- Node1 -->
<g id="Node000001" class="node">
<title>Node1</title>
<g id="a_Node000001"><a xlink:title="Interface definition for the global network buffer.">
<polygon fill="#999999" stroke="#666666" points="592.75,-558.25 479.25,-558.25 479.25,-524.75 592.75,-524.75 592.75,-558.25"/>
<text text-anchor="start" x="487.25" y="-544.75" font-family="Helvetica,sans-Serif" font-size="10.00">sys/include/net/gnrc</text>
<text text-anchor="middle" x="536" y="-532" font-family="Helvetica,sans-Serif" font-size="10.00">/pktbuf.h</text>
</a>
</g>
</g>
<!-- Node2 -->
<g id="Node000002" class="node">
<title>Node2</title>
<g id="a_Node000002"><a xlink:href="DSMEMessage_8h.html" target="_top" xlink:title="DSME Message interface implementation for GNRC.">
<polygon fill="white" stroke="#666666" points="154,-482.38 0,-482.38 0,-448.88 154,-448.88 154,-482.38"/>
<text text-anchor="start" x="8" y="-468.88" font-family="Helvetica,sans-Serif" font-size="10.00">pkg/opendsme/include</text>
<text text-anchor="middle" x="77" y="-456.12" font-family="Helvetica,sans-Serif" font-size="10.00">/opendsme/DSMEMessage.h</text>
</a>
</g>
</g>
<!-- Node1&#45;&gt;Node2 -->
<g id="edge1_Node000001_Node000002" class="edge">
<title>Node1&#45;&gt;Node2</title>
<g id="a_edge1_Node000001_Node000002"><a xlink:title=" ">
<path fill="none" stroke="#63b8ff" d="M467.62,-533.38C392.52,-525.01 268.54,-509.58 163,-488.75 154.38,-487.05 145.33,-485.01 136.48,-482.86"/>
<polygon fill="#63b8ff" stroke="#63b8ff" points="466.96,-536.83 477.29,-534.45 467.73,-529.87 466.96,-536.83"/>
</a>
</g>
</g>
<!-- Node4 -->
<g id="Node000004" class="node">
<title>Node4</title>
<g id="a_Node000004"><a xlink:href="isotp_8h.html" target="_top" xlink:title="ISO TP high level interface.">
<polygon fill="white" stroke="#666666" points="299.5,-476 172.5,-476 172.5,-455.25 299.5,-455.25 299.5,-476"/>
<text text-anchor="middle" x="236" y="-462.5" font-family="Helvetica,sans-Serif" font-size="10.00">sys/include/can/isotp.h</text>
</a>
</g>
</g>
<!-- Node1&#45;&gt;Node4 -->
<g id="edge3_Node000001_Node000004" class="edge">
<title>Node1&#45;&gt;Node4</title>
<g id="a_edge3_Node000001_Node000004"><a xlink:title=" ">
<path fill="none" stroke="#63b8ff" d="M467.63,-525.44C423.63,-515.54 365.29,-501.99 314,-488.75 299.28,-484.95 283.1,-480.42 269.31,-476.45"/>
<polygon fill="#63b8ff" stroke="#63b8ff" points="466.78,-528.84 477.31,-527.61 468.32,-522.01 466.78,-528.84"/>
</a>
</g>
</g>
<!-- Node6 -->
<g id="Node000006" class="node">
<title>Node6</title>
<g id="a_Node000006"><a xlink:href="gnrc_8h.html" target="_top" xlink:title="Includes all essential GNRC network stack base modules.">
<polygon fill="white" stroke="#666666" points="860.25,-261.12 737.75,-261.12 737.75,-240.38 860.25,-240.38 860.25,-261.12"/>
<text text-anchor="middle" x="799" y="-247.62" font-family="Helvetica,sans-Serif" font-size="10.00">sys/include/net/gnrc.h</text>
</a>
</g>
</g>
<!-- Node1&#45;&gt;Node6 -->
<g id="edge5_Node000001_Node000006" class="edge">
<title>Node1&#45;&gt;Node6</title>
<g id="a_edge5_Node000001_Node000006"><a xlink:title=" ">
<path fill="none" stroke="#63b8ff" d="M479.4,-520.05C408.16,-491.14 300.43,-434.9 347,-373 359.62,-356.22 646.67,-287.46 756.65,-261.62"/>
<polygon fill="#63b8ff" stroke="#63b8ff" points="478.06,-523.29 488.65,-523.73 480.65,-516.78 478.06,-523.29"/>
</a>
</g>
</g>
<!-- Node16 -->
<g id="Node000016" class="node">
<title>Node16</title>
<g id="a_Node000016"><a xlink:href="gnrc_2ipv6_2ext_2frag_8h.html" target="_top" xlink:title="GNRC fragmentation extension definitions.">
<polygon fill="white" stroke="#666666" points="724.75,-482.38 611.25,-482.38 611.25,-448.88 724.75,-448.88 724.75,-482.38"/>
<text text-anchor="start" x="619.25" y="-468.88" font-family="Helvetica,sans-Serif" font-size="10.00">sys/include/net/gnrc</text>
<text text-anchor="middle" x="668" y="-456.12" font-family="Helvetica,sans-Serif" font-size="10.00">/ipv6/ext/frag.h</text>
</a>
</g>
</g>
<!-- Node1&#45;&gt;Node16 -->
<g id="edge18_Node000001_Node000016" class="edge">
<title>Node1&#45;&gt;Node16</title>
<g id="a_edge18_Node000001_Node000016"><a xlink:title=" ">
<path fill="none" stroke="#63b8ff" d="M574.97,-518.69C595.52,-507.19 620.29,-493.33 639.1,-482.8"/>
<polygon fill="#63b8ff" stroke="#63b8ff" points="573.31,-515.61 566.29,-523.55 576.72,-521.72 573.31,-515.61"/>
</a>
</g>
</g>
<!-- Node17 -->
<g id="Node000017" class="node">
<title>Node17</title>
<g id="a_Node000017"><a xlink:href="net_2gnrc_2netif_2hdr_8h.html" target="_top" xlink:title="Generic network interface header.">
<polygon fill="white" stroke="#666666" points="592.75,-482.38 479.25,-482.38 479.25,-448.88 592.75,-448.88 592.75,-482.38"/>
<text text-anchor="start" x="487.25" y="-468.88" font-family="Helvetica,sans-Serif" font-size="10.00">sys/include/net/gnrc</text>
<text text-anchor="middle" x="536" y="-456.12" font-family="Helvetica,sans-Serif" font-size="10.00">/netif/hdr.h</text>
</a>
</g>
</g>
<!-- Node1&#45;&gt;Node17 -->
<g id="edge19_Node000001_Node000017" class="edge">
<title>Node1&#45;&gt;Node17</title>
<g id="a_edge19_Node000001_Node000017"><a xlink:title=" ">
<path fill="none" stroke="#63b8ff" d="M536,-513.11C536,-502.85 536,-491.52 536,-482.62"/>
<polygon fill="#63b8ff" stroke="#63b8ff" points="532.5,-512.96 536,-522.96 539.5,-512.96 532.5,-512.96"/>
</a>
</g>
</g>
<!-- Node38 -->
<g id="Node000038" class="node">
<title>Node38</title>
<g id="a_Node000038"><a xlink:href="tx__sync_8h.html" target="_top" xlink:title="Definitions for TX sync.">
<polygon fill="white" stroke="#666666" points="856.75,-482.38 743.25,-482.38 743.25,-448.88 856.75,-448.88 856.75,-482.38"/>
<text text-anchor="start" x="751.25" y="-468.88" font-family="Helvetica,sans-Serif" font-size="10.00">sys/include/net/gnrc</text>
<text text-anchor="middle" x="800" y="-456.12" font-family="Helvetica,sans-Serif" font-size="10.00">/tx_sync.h</text>
</a>
</g>
</g>
<!-- Node1&#45;&gt;Node38 -->
<g id="edge51_Node000001_Node000038" class="edge">
<title>Node1&#45;&gt;Node38</title>
<g id="a_edge51_Node000001_Node000038"><a xlink:title=" ">
<path fill="none" stroke="#63b8ff" d="M604.08,-523.92C642.42,-514.28 691.08,-501.54 734,-488.75 740.14,-486.92 746.56,-484.9 752.89,-482.85"/>
<polygon fill="#63b8ff" stroke="#63b8ff" points="603.36,-520.49 594.51,-526.31 605.06,-527.28 603.36,-520.49"/>
</a>
</g>
</g>
<!-- Node39 -->
<g id="Node000039" class="node">
<title>Node39</title>
<g id="a_Node000039"><a xlink:href="gnrc__lorawan__internal_8h.html" target="_top" xlink:title="GNRC LoRaWAN internal header.">
<polygon fill="white" stroke="#666666" points="1097.12,-488.75 970.88,-488.75 970.88,-442.5 1097.12,-442.5 1097.12,-488.75"/>
<text text-anchor="start" x="978.88" y="-475.25" font-family="Helvetica,sans-Serif" font-size="10.00">sys/net/gnrc/link_layer</text>
<text text-anchor="start" x="978.88" y="-462.5" font-family="Helvetica,sans-Serif" font-size="10.00">/lorawan/include/gnrc</text>
<text text-anchor="middle" x="1034" y="-449.75" font-family="Helvetica,sans-Serif" font-size="10.00">_lorawan_internal.h</text>
</a>
</g>
</g>
<!-- Node1&#45;&gt;Node39 -->
<g id="edge52_Node000001_Node000039" class="edge">
<title>Node1&#45;&gt;Node39</title>
<g id="a_edge52_Node000001_Node000039"><a xlink:title=" ">
<path fill="none" stroke="#63b8ff" d="M604.23,-530.38C700.92,-516.04 876.48,-489.99 970.51,-476.04"/>
<polygon fill="#63b8ff" stroke="#63b8ff" points="604,-526.87 594.62,-531.8 605.03,-533.8 604,-526.87"/>
</a>
</g>
</g>
<!-- Node3 -->
<g id="Node000003" class="node">
<title>Node3</title>
<g id="a_Node000003"><a xlink:href="DSMEPlatform_8h.html" target="_top" xlink:title="DSME Platform interface implementation.">
<polygon fill="white" stroke="#666666" points="153.25,-406.5 0.75,-406.5 0.75,-373 153.25,-373 153.25,-406.5"/>
<text text-anchor="start" x="8.75" y="-393" font-family="Helvetica,sans-Serif" font-size="10.00">pkg/opendsme/include</text>
<text text-anchor="middle" x="77" y="-380.25" font-family="Helvetica,sans-Serif" font-size="10.00">/opendsme/DSMEPlatform.h</text>
</a>
</g>
</g>
<!-- Node2&#45;&gt;Node3 -->
<g id="edge2_Node000002_Node000003" class="edge">
<title>Node2&#45;&gt;Node3</title>
<g id="a_edge2_Node000002_Node000003"><a xlink:title=" ">
<path fill="none" stroke="#63b8ff" d="M77,-437.24C77,-426.97 77,-415.65 77,-406.75"/>
<polygon fill="#63b8ff" stroke="#63b8ff" points="73.5,-437.08 77,-447.08 80.5,-437.08 73.5,-437.08"/>
</a>
</g>
</g>
<!-- Node5 -->
<g id="Node000005" class="node">
<title>Node5</title>
<g id="a_Node000005"><a xlink:href="conn_2isotp_8h.html" target="_top" xlink:title="Definitions of generic CAN interface.">
<polygon fill="white" stroke="#666666" points="294.62,-406.5 177.38,-406.5 177.38,-373 294.62,-373 294.62,-406.5"/>
<text text-anchor="start" x="185.38" y="-393" font-family="Helvetica,sans-Serif" font-size="10.00">sys/include/can/conn</text>
<text text-anchor="middle" x="236" y="-380.25" font-family="Helvetica,sans-Serif" font-size="10.00">/isotp.h</text>
</a>
</g>
</g>
<!-- Node4&#45;&gt;Node5 -->
<g id="edge4_Node000004_Node000005" class="edge">
<title>Node4&#45;&gt;Node5</title>
<g id="a_edge4_Node000004_Node000005"><a xlink:title=" ">
<path fill="none" stroke="#63b8ff" d="M236,-443.63C236,-431.97 236,-417.69 236,-406.91"/>
<polygon fill="#63b8ff" stroke="#63b8ff" points="232.5,-443.45 236,-453.45 239.5,-443.45 232.5,-443.45"/>
</a>
</g>
</g>
<!-- Node7 -->
<g id="Node000007" class="node">
<title>Node7</title>
<g id="a_Node000007"><a xlink:href="rpl_8h.html" target="_top" xlink:title="RPL header.">
<polygon fill="white" stroke="#666666" points="256.75,-198 143.25,-198 143.25,-164.5 256.75,-164.5 256.75,-198"/>
<text text-anchor="start" x="151.25" y="-184.5" font-family="Helvetica,sans-Serif" font-size="10.00">sys/include/net/gnrc</text>
<text text-anchor="middle" x="200" y="-171.75" font-family="Helvetica,sans-Serif" font-size="10.00">/rpl.h</text>
</a>
</g>
</g>
<!-- Node6&#45;&gt;Node7 -->
<g id="edge6_Node000006_Node000007" class="edge">
<title>Node6&#45;&gt;Node7</title>
<g id="a_edge6_Node000006_Node000007"><a xlink:title=" ">
<path fill="none" stroke="#63b8ff" d="M748.39,-237.59C741.89,-236.25 735.3,-235.01 729,-234 683.27,-226.65 383.96,-199 256.89,-187.41"/>
<polygon fill="#63b8ff" stroke="#63b8ff" points="747.2,-240.91 757.71,-239.58 748.66,-234.06 747.2,-240.91"/>
</a>
</g>
</g>
<!-- Node10 -->
<g id="Node000010" class="node">
<title>Node10</title>
<g id="a_Node000010"><a xlink:href="p2p_8h.html" target="_top" xlink:title="Definititions for P2P&#45;RPL.">
<polygon fill="white" stroke="#666666" points="1050.75,-198 937.25,-198 937.25,-164.5 1050.75,-164.5 1050.75,-198"/>
<text text-anchor="start" x="945.25" y="-184.5" font-family="Helvetica,sans-Serif" font-size="10.00">sys/include/net/gnrc</text>
<text text-anchor="middle" x="994" y="-171.75" font-family="Helvetica,sans-Serif" font-size="10.00">/rpl/p2p.h</text>
</a>
</g>
</g>
<!-- Node6&#45;&gt;Node10 -->
<g id="edge10_Node000006_Node000010" class="edge">
<title>Node6&#45;&gt;Node10</title>
<g id="a_edge10_Node000006_Node000010"><a xlink:title=" ">
<path fill="none" stroke="#63b8ff" d="M837.9,-236.29C869.34,-225.4 913.72,-210.04 947.12,-198.48"/>
<polygon fill="#63b8ff" stroke="#63b8ff" points="837.09,-232.86 828.78,-239.44 839.38,-239.48 837.09,-232.86"/>
</a>
</g>
</g>
<!-- Node11 -->
<g id="Node000011" class="node">
<title>Node11</title>
<g id="a_Node000011"><a xlink:href="gnrc_2udp_8h.html" target="_top" xlink:title="UDP GNRC definition.">
<polygon fill="white" stroke="#666666" points="502.75,-198 389.25,-198 389.25,-164.5 502.75,-164.5 502.75,-198"/>
<text text-anchor="start" x="397.25" y="-184.5" font-family="Helvetica,sans-Serif" font-size="10.00">sys/include/net/gnrc</text>
<text text-anchor="middle" x="446" y="-171.75" font-family="Helvetica,sans-Serif" font-size="10.00">/udp.h</text>
</a>
</g>
</g>
<!-- Node6&#45;&gt;Node11 -->
<g id="edge11_Node000006_Node000011" class="edge">
<title>Node6&#45;&gt;Node11</title>
<g id="a_edge11_Node000006_Node000011"><a xlink:title=" ">
<path fill="none" stroke="#63b8ff" d="M746.21,-237.54C740.41,-236.29 734.59,-235.09 729,-234 633.05,-215.26 607.83,-217.36 512,-198 509.11,-197.42 506.16,-196.8 503.18,-196.15"/>
<polygon fill="#63b8ff" stroke="#63b8ff" points="745.26,-240.91 755.78,-239.63 746.75,-234.07 745.26,-240.91"/>
</a>
</g>
</g>
<!-- Node12 -->
<g id="Node000012" class="node">
<title>Node12</title>
<g id="a_Node000012"><a xlink:href="gnrc__sock__internal_8h.html" target="_top" xlink:title="Internal GNRC&#45;specific types and function definitions.">
<polygon fill="white" stroke="#666666" points="1533.5,-122.12 1394.5,-122.12 1394.5,-88.62 1533.5,-88.62 1533.5,-122.12"/>
<text text-anchor="start" x="1402.5" y="-108.62" font-family="Helvetica,sans-Serif" font-size="10.00">sys/net/gnrc/sock/include</text>
<text text-anchor="middle" x="1464" y="-95.88" font-family="Helvetica,sans-Serif" font-size="10.00">/gnrc_sock_internal.h</text>
</a>
</g>
</g>
<!-- Node6&#45;&gt;Node12 -->
<g id="edge13_Node000006_Node000012" class="edge">
<title>Node6&#45;&gt;Node12</title>
<g id="a_edge13_Node000006_Node000012"><a xlink:title=" ">
<path fill="none" stroke="#63b8ff" d="M863.31,-237.84C937.69,-223.95 1051.12,-202.32 1060,-198 1080.55,-188.01 1078.11,-173.76 1099,-164.5 1216.11,-112.56 1259.42,-153.84 1385,-128.5 1393.24,-126.84 1401.87,-124.77 1410.29,-122.56"/>
<polygon fill="#63b8ff" stroke="#63b8ff" points="862.86,-234.37 853.67,-239.64 864.15,-241.25 862.86,-234.37"/>
</a>
</g>
</g>
<!-- Node13 -->
<g id="Node000013" class="node">
<title>Node13</title>
<g id="a_Node000013"><a xlink:href="sys_2net_2gnrc_2sock_2include_2sock__types_8h.html" target="_top" xlink:title="GNRC&#45;specific types and function definitions.">
<polygon fill="white" stroke="#666666" points="1246.5,-198 1107.5,-198 1107.5,-164.5 1246.5,-164.5 1246.5,-198"/>
<text text-anchor="start" x="1115.5" y="-184.5" font-family="Helvetica,sans-Serif" font-size="10.00">sys/net/gnrc/sock/include</text>
<text text-anchor="middle" x="1177" y="-171.75" font-family="Helvetica,sans-Serif" font-size="10.00">/sock_types.h</text>
</a>
</g>
</g>
<!-- Node6&#45;&gt;Node13 -->
<g id="edge14_Node000006_Node000013" class="edge">
<title>Node6&#45;&gt;Node13</title>
<g id="a_edge14_Node000006_Node000013"><a xlink:title=" ">
<path fill="none" stroke="#63b8ff" d="M864.01,-237.93C871.42,-236.6 878.87,-235.26 886,-234 977.94,-217.68 1001.11,-214.6 1093,-198 1097.67,-197.16 1102.49,-196.28 1107.34,-195.38"/>
<polygon fill="#63b8ff" stroke="#63b8ff" points="863.53,-234.46 854.31,-239.68 864.78,-241.35 863.53,-234.46"/>
</a>
</g>
</g>
<!-- Node14 -->
<g id="Node000014" class="node">
<title>Node14</title>
<g id="a_Node000014"><a xlink:href="gnrc__tcp__fsm_8h.html" target="_top" xlink:title="TCP finite state maschine declarations.">
<polygon fill="white" stroke="#666666" points="800.12,-128.5 673.88,-128.5 673.88,-82.25 800.12,-82.25 800.12,-128.5"/>
<text text-anchor="start" x="681.88" y="-115" font-family="Helvetica,sans-Serif" font-size="10.00">sys/net/gnrc/transport</text>
<text text-anchor="start" x="681.88" y="-102.25" font-family="Helvetica,sans-Serif" font-size="10.00">_layer/tcp/include/gnrc</text>
<text text-anchor="middle" x="737" y="-89.5" font-family="Helvetica,sans-Serif" font-size="10.00">_tcp_fsm.h</text>
</a>
</g>
</g>
<!-- Node6&#45;&gt;Node14 -->
<g id="edge16_Node000006_Node000014" class="edge">
<title>Node6&#45;&gt;Node14</title>
<g id="a_edge16_Node000006_Node000014"><a xlink:title=" ">
<path fill="none" stroke="#63b8ff" d="M781.31,-231.6C773.1,-222.24 763.88,-210.24 758,-198 747.33,-175.79 741.94,-147.9 739.32,-128.76"/>
<polygon fill="#63b8ff" stroke="#63b8ff" points="778.65,-233.88 788,-238.87 783.8,-229.14 778.65,-233.88"/>
</a>
</g>
</g>
<!-- Node15 -->
<g id="Node000015" class="node">
<title>Node15</title>
<g id="a_Node000015"><a xlink:href="gnrc__tcp__pkt_8h.html" target="_top" xlink:title="TCP packet handling declarations.">
<polygon fill="white" stroke="#666666" points="1376.12,-128.5 1249.88,-128.5 1249.88,-82.25 1376.12,-82.25 1376.12,-128.5"/>
<text text-anchor="start" x="1257.88" y="-115" font-family="Helvetica,sans-Serif" font-size="10.00">sys/net/gnrc/transport</text>
<text text-anchor="start" x="1257.88" y="-102.25" font-family="Helvetica,sans-Serif" font-size="10.00">_layer/tcp/include/gnrc</text>
<text text-anchor="middle" x="1313" y="-89.5" font-family="Helvetica,sans-Serif" font-size="10.00">_tcp_pkt.h</text>
</a>
</g>
</g>
<!-- Node6&#45;&gt;Node15 -->
<g id="edge17_Node000006_Node000015" class="edge">
<title>Node6&#45;&gt;Node15</title>
<g id="a_edge17_Node000006_Node000015"><a xlink:title=" ">
<path fill="none" stroke="#63b8ff" d="M828.94,-234.73C847.16,-225.11 870.58,-211.86 890,-198 908.33,-184.92 907.43,-173.65 928,-164.5 1055.94,-107.59 1103.94,-157.19 1241,-128.5 1243.82,-127.91 1246.68,-127.26 1249.56,-126.56"/>
<polygon fill="#63b8ff" stroke="#63b8ff" points="827.48,-231.54 820.22,-239.26 830.71,-237.75 827.48,-231.54"/>
</a>
</g>
</g>
<!-- Node8 -->
<g id="Node000008" class="node">
<title>Node8</title>
<g id="a_Node000008"><a xlink:href="dodag_8h.html" target="_top" xlink:title="DODAG&#45;related functions for RPL.">
<polygon fill="white" stroke="#666666" points="239.75,-122.12 126.25,-122.12 126.25,-88.62 239.75,-88.62 239.75,-122.12"/>
<text text-anchor="start" x="134.25" y="-108.62" font-family="Helvetica,sans-Serif" font-size="10.00">sys/include/net/gnrc</text>
<text text-anchor="middle" x="183" y="-95.88" font-family="Helvetica,sans-Serif" font-size="10.00">/rpl/dodag.h</text>
</a>
</g>
</g>
<!-- Node7&#45;&gt;Node8 -->
<g id="edge7_Node000007_Node000008" class="edge">
<title>Node7&#45;&gt;Node8</title>
<g id="a_edge7_Node000007_Node000008"><a xlink:title=" ">
<path fill="none" stroke="#63b8ff" d="M187.34,-153.53C184.44,-143.09 182.05,-131.47 181.01,-122.37"/>
<polygon fill="#63b8ff" stroke="#63b8ff" points="183.9,-154.25 190.19,-162.77 190.58,-152.19 183.9,-154.25"/>
</a>
</g>
</g>
<!-- Node9 -->
<g id="Node000009" class="node">
<title>Node9</title>
<g id="a_Node000009"><a xlink:href="gnrc__ipv6__auto__subnets_8c.html" target="_top" xlink:title=" ">
<polygon fill="white" stroke="#666666" points="392.25,-128.5 257.75,-128.5 257.75,-82.25 392.25,-82.25 392.25,-128.5"/>
<text text-anchor="start" x="265.75" y="-115" font-family="Helvetica,sans-Serif" font-size="10.00">sys/net/gnrc/routing</text>
<text text-anchor="start" x="265.75" y="-102.25" font-family="Helvetica,sans-Serif" font-size="10.00">/ipv6_auto_subnets/gnrc</text>
<text text-anchor="middle" x="325" y="-89.5" font-family="Helvetica,sans-Serif" font-size="10.00">_ipv6_auto_subnets.c</text>
</a>
</g>
</g>
<!-- Node7&#45;&gt;Node9 -->
<g id="edge9_Node000007_Node000009" class="edge">
<title>Node7&#45;&gt;Node9</title>
<g id="a_edge9_Node000007_Node000009"><a xlink:title=" ">
<path fill="none" stroke="#63b8ff" d="M237.27,-158.22C252.88,-149 271.01,-138.28 286.73,-128.99"/>
<polygon fill="#63b8ff" stroke="#63b8ff" points="235.56,-155.17 228.73,-163.27 239.12,-161.19 235.56,-155.17"/>
</a>
</g>
</g>
<!-- Node8&#45;&gt;Node7 -->
<g id="edge8_Node000008_Node000007" class="edge">
<title>Node8&#45;&gt;Node7</title>
<g id="a_edge8_Node000008_Node000007"><a xlink:title=" ">
<path fill="none" stroke="#63b8ff" d="M195.65,-133.06C198.55,-143.5 200.95,-155.12 201.99,-164.22"/>
<polygon fill="#63b8ff" stroke="#63b8ff" points="199.1,-132.34 192.8,-123.82 192.41,-134.41 199.1,-132.34"/>
</a>
</g>
</g>
<!-- Node11&#45;&gt;Node9 -->
<g id="edge12_Node000011_Node000009" class="edge">
<title>Node11&#45;&gt;Node9</title>
<g id="a_edge12_Node000011_Node000009"><a xlink:title=" ">
<path fill="none" stroke="#63b8ff" d="M409.92,-158.22C394.81,-149 377.26,-138.28 362.05,-128.99"/>
<polygon fill="#63b8ff" stroke="#63b8ff" points="407.8,-161.03 418.15,-163.25 411.44,-155.05 407.8,-161.03"/>
</a>
</g>
</g>
<!-- Node13&#45;&gt;Node12 -->
<g id="edge15_Node000013_Node000012" class="edge">
<title>Node13&#45;&gt;Node12</title>
<g id="a_edge15_Node000013_Node000012"><a xlink:title=" ">
<path fill="none" stroke="#63b8ff" d="M1255.14,-161.38C1294.21,-151.8 1342.18,-139.82 1385,-128.5 1392.16,-126.61 1399.67,-124.57 1407.1,-122.53"/>
<polygon fill="#63b8ff" stroke="#63b8ff" points="1254.46,-157.95 1245.57,-163.72 1256.12,-164.75 1254.46,-157.95"/>
</a>
</g>
</g>
<!-- Node17&#45;&gt;Node6 -->
<g id="edge21_Node000017_Node000006" class="edge">
<title>Node17&#45;&gt;Node6</title>
<g id="a_edge21_Node000017_Node000006"><a xlink:title=" ">
<path fill="none" stroke="#63b8ff" d="M535.56,-437.35C536.58,-417.62 540.87,-391.32 555,-373 604.69,-308.58 697.76,-275.99 753.48,-261.54"/>
<polygon fill="#63b8ff" stroke="#63b8ff" points="532.06,-437.06 535.32,-447.14 539.06,-437.23 532.06,-437.06"/>
</a>
</g>
</g>
<!-- Node17&#45;&gt;Node9 -->
<g id="edge50_Node000017_Node000009" class="edge">
<title>Node17&#45;&gt;Node9</title>
<g id="a_edge50_Node000017_Node000009"><a xlink:title=" ">
<path fill="none" stroke="#63b8ff" d="M520.6,-438.72C509.41,-420.19 493.71,-394.77 479,-373 425.07,-293.14 393.26,-284.6 351,-198 340.05,-175.56 332.97,-147.72 329.01,-128.65"/>
<polygon fill="#63b8ff" stroke="#63b8ff" points="517.54,-440.43 525.69,-447.21 523.54,-436.83 517.54,-440.43"/>
</a>
</g>
</g>
<!-- Node18 -->
<g id="Node000018" class="node">
<title>Node18</title>
<g id="a_Node000018"><a xlink:href="lwipopts_8h.html" target="_top" xlink:title="Option definitions.">
<polygon fill="white" stroke="#666666" points="712.38,-400.12 563.62,-400.12 563.62,-379.38 712.38,-379.38 712.38,-400.12"/>
<text text-anchor="middle" x="638" y="-386.62" font-family="Helvetica,sans-Serif" font-size="10.00">pkg/lwip/include/lwipopts.h</text>
</a>
</g>
</g>
<!-- Node17&#45;&gt;Node18 -->
<g id="edge20_Node000017_Node000018" class="edge">
<title>Node17&#45;&gt;Node18</title>
<g id="a_edge20_Node000017_Node000018"><a xlink:title=" ">
<path fill="none" stroke="#63b8ff" d="M567.62,-441.72C586.69,-427.91 610,-411.03 624.43,-400.58"/>
<polygon fill="#63b8ff" stroke="#63b8ff" points="565.66,-438.82 559.61,-447.53 569.76,-444.49 565.66,-438.82"/>
</a>
</g>
</g>
<!-- Node19 -->
<g id="Node000019" class="node">
<title>Node19</title>
<g id="a_Node000019"><a xlink:href="echo_8h.html" target="_top" xlink:title="ICMPv6 echo message definitions.">
<polygon fill="white" stroke="#666666" points="719.75,-267.5 606.25,-267.5 606.25,-234 719.75,-234 719.75,-267.5"/>
<text text-anchor="start" x="614.25" y="-254" font-family="Helvetica,sans-Serif" font-size="10.00">sys/include/net/gnrc</text>
<text text-anchor="middle" x="663" y="-241.25" font-family="Helvetica,sans-Serif" font-size="10.00">/icmpv6/echo.h</text>
</a>
</g>
</g>
<!-- Node17&#45;&gt;Node19 -->
<g id="edge22_Node000017_Node000019" class="edge">
<title>Node17&#45;&gt;Node19</title>
<g id="a_edge22_Node000017_Node000019"><a xlink:title=" ">
<path fill="none" stroke="#63b8ff" d="M594.73,-444.84C597.18,-444.04 599.61,-443.26 602,-442.5 654.65,-425.72 688.07,-450.87 721,-406.5 753.83,-362.27 704.79,-297.34 678.22,-267.64"/>
<polygon fill="#63b8ff" stroke="#63b8ff" points="593.74,-441.48 585.33,-447.91 595.92,-448.13 593.74,-441.48"/>
</a>
</g>
</g>
<!-- Node22 -->
<g id="Node000022" class="node">
<title>Node22</title>
<g id="a_Node000022"><a xlink:href="nc_8h.html" target="_top" xlink:title="Neighbor cache definitions.">
<polygon fill="white" stroke="#666666" points="469.75,-406.5 356.25,-406.5 356.25,-373 469.75,-373 469.75,-406.5"/>
<text text-anchor="start" x="364.25" y="-393" font-family="Helvetica,sans-Serif" font-size="10.00">sys/include/net/gnrc</text>
<text text-anchor="middle" x="413" y="-380.25" font-family="Helvetica,sans-Serif" font-size="10.00">/ipv6/nib/nc.h</text>
</a>
</g>
</g>
<!-- Node17&#45;&gt;Node22 -->
<g id="edge25_Node000017_Node000022" class="edge">
<title>Node17&#45;&gt;Node22</title>
<g id="a_edge25_Node000017_Node000022"><a xlink:title=" ">
<path fill="none" stroke="#63b8ff" d="M499.16,-442.5C480.12,-431.06 457.3,-417.36 439.93,-406.92"/>
<polygon fill="#63b8ff" stroke="#63b8ff" points="497.33,-445.49 507.71,-447.63 500.94,-439.48 497.33,-445.49"/>
</a>
</g>
</g>
<!-- Node31 -->
<g id="Node000031" class="node">
<title>Node31</title>
<g id="a_Node000031"><a xlink:href="gnrc_2sixlowpan_2frag_8h.html" target="_top" xlink:title="6LoWPAN Fragmentation definitions">
<polygon fill="white" stroke="#666666" points="881.75,-406.5 768.25,-406.5 768.25,-373 881.75,-373 881.75,-406.5"/>
<text text-anchor="start" x="776.25" y="-393" font-family="Helvetica,sans-Serif" font-size="10.00">sys/include/net/gnrc</text>
<text text-anchor="middle" x="825" y="-380.25" font-family="Helvetica,sans-Serif" font-size="10.00">/sixlowpan/frag.h</text>
</a>
</g>
</g>
<!-- Node17&#45;&gt;Node31 -->
<g id="edge41_Node000017_Node000031" class="edge">
<title>Node17&#45;&gt;Node31</title>
<g id="a_edge41_Node000017_Node000031"><a xlink:title=" ">
<path fill="none" stroke="#63b8ff" d="M593.16,-445.09C596.14,-444.19 599.1,-443.32 602,-442.5 617.89,-438 707.19,-417.52 767.85,-403.71"/>
<polygon fill="#63b8ff" stroke="#63b8ff" points="592.29,-441.7 583.79,-448.02 594.37,-448.38 592.29,-441.7"/>
</a>
</g>
</g>
<!-- Node34 -->
<g id="Node000034" class="node">
<title>Node34</title>
<g id="a_Node000034"><a xlink:href="rb_8h.html" target="_top" xlink:title="Reassembly buffer definitions.">
<polygon fill="white" stroke="#666666" points="1033.75,-406.5 920.25,-406.5 920.25,-373 1033.75,-373 1033.75,-406.5"/>
<text text-anchor="start" x="928.25" y="-393" font-family="Helvetica,sans-Serif" font-size="10.00">sys/include/net/gnrc</text>
<text text-anchor="middle" x="977" y="-380.25" font-family="Helvetica,sans-Serif" font-size="10.00">/sixlowpan/frag/rb.h</text>
</a>
</g>
</g>
<!-- Node17&#45;&gt;Node34 -->
<g id="edge44_Node000017_Node000034" class="edge">
<title>Node17&#45;&gt;Node34</title>
<g id="a_edge44_Node000017_Node000034"><a xlink:title=" ">
<path fill="none" stroke="#63b8ff" d="M591.23,-445.22C594.85,-444.22 598.46,-443.3 602,-442.5 728.21,-413.79 763.07,-426.17 891,-406.5 900.45,-405.05 910.46,-403.36 920.18,-401.63"/>
<polygon fill="#63b8ff" stroke="#63b8ff" points="590.45,-441.8 581.84,-447.98 592.42,-448.52 590.45,-441.8"/>
</a>
</g>
</g>
<!-- Node20 -->
<g id="Node000020" class="node">
<title>Node20</title>
<g id="a_Node000020"><a xlink:href="gnrc_2icmpv6_8h.html" target="_top" xlink:title="Definitions for GNRC&#39;s ICMPv6 implementation.">
<polygon fill="white" stroke="#666666" points="523.75,-122.12 410.25,-122.12 410.25,-88.62 523.75,-88.62 523.75,-122.12"/>
<text text-anchor="start" x="418.25" y="-108.62" font-family="Helvetica,sans-Serif" font-size="10.00">sys/include/net/gnrc</text>
<text text-anchor="middle" x="467" y="-95.88" font-family="Helvetica,sans-Serif" font-size="10.00">/icmpv6.h</text>
</a>
</g>
</g>
<!-- Node19&#45;&gt;Node20 -->
<g id="edge23_Node000019_Node000020" class="edge">
<title>Node19&#45;&gt;Node20</title>
<g id="a_edge23_Node000019_Node000020"><a xlink:title=" ">
<path fill="none" stroke="#63b8ff" d="M663.62,-222.56C662.6,-204.04 658.23,-180.14 644,-164.5 609.1,-126.14 582.25,-144.74 533,-128.5 527.26,-126.61 521.25,-124.61 515.28,-122.62"/>
<polygon fill="#63b8ff" stroke="#63b8ff" points="660.12,-222.38 663.85,-232.29 667.11,-222.22 660.12,-222.38"/>
</a>
</g>
</g>
<!-- Node21 -->
<g id="Node000021" class="node">
<title>Node21</title>
<g id="a_Node000021"><a xlink:href="validation_8h.html" target="_top" xlink:title="RPL control message validation functions.">
<polygon fill="white" stroke="#666666" points="525.25,-46.25 408.75,-46.25 408.75,0 525.25,0 525.25,-46.25"/>
<text text-anchor="start" x="416.75" y="-32.75" font-family="Helvetica,sans-Serif" font-size="10.00">sys/net/gnrc/routing</text>
<text text-anchor="start" x="416.75" y="-20" font-family="Helvetica,sans-Serif" font-size="10.00">/rpl/gnrc_rpl_internal</text>
<text text-anchor="middle" x="467" y="-7.25" font-family="Helvetica,sans-Serif" font-size="10.00">/validation.h</text>
</a>
</g>
</g>
<!-- Node20&#45;&gt;Node21 -->
<g id="edge24_Node000020_Node000021" class="edge">
<title>Node20&#45;&gt;Node21</title>
<g id="a_edge24_Node000020_Node000021"><a xlink:title=" ">
<path fill="none" stroke="#63b8ff" d="M467,-76.89C467,-67.05 467,-56.1 467,-46.73"/>
<polygon fill="#63b8ff" stroke="#63b8ff" points="463.5,-76.62 467,-86.62 470.5,-76.62 463.5,-76.62"/>
</a>
</g>
</g>
<!-- Node23 -->
<g id="Node000023" class="node">
<title>Node23</title>
<g id="a_Node000023"><a xlink:href="nib_8h.html" target="_top" xlink:title="NIB definitions.">
<polygon fill="white" stroke="#666666" points="363.75,-337 250.25,-337 250.25,-303.5 363.75,-303.5 363.75,-337"/>
<text text-anchor="start" x="258.25" y="-323.5" font-family="Helvetica,sans-Serif" font-size="10.00">sys/include/net/gnrc</text>
<text text-anchor="middle" x="307" y="-310.75" font-family="Helvetica,sans-Serif" font-size="10.00">/ipv6/nib.h</text>
</a>
</g>
</g>
<!-- Node22&#45;&gt;Node23 -->
<g id="edge26_Node000022_Node000023" class="edge">
<title>Node22&#45;&gt;Node23</title>
<g id="a_edge26_Node000022_Node000023"><a xlink:title=" ">
<path fill="none" stroke="#63b8ff" d="M378.13,-366.54C363.12,-356.99 345.91,-346.03 332.18,-337.29"/>
<polygon fill="#63b8ff" stroke="#63b8ff" points="376.02,-369.35 386.33,-371.77 379.78,-363.45 376.02,-369.35"/>
</a>
</g>
</g>
<!-- Node23&#45;&gt;Node9 -->
<g id="edge40_Node000023_Node000009" class="edge">
<title>Node23&#45;&gt;Node9</title>
<g id="a_edge40_Node000023_Node000009"><a xlink:title=" ">
<path fill="none" stroke="#63b8ff" d="M309.32,-291.85C312.91,-249.3 319.78,-168.14 323.1,-128.82"/>
<polygon fill="#63b8ff" stroke="#63b8ff" points="305.84,-291.48 308.48,-301.74 312.81,-292.07 305.84,-291.48"/>
</a>
</g>
</g>
<!-- Node24 -->
<g id="Node000024" class="node">
<title>Node24</title>
<g id="a_Node000024"><a xlink:href="gnrc_2ipv6_8h.html" target="_top" xlink:title="Definitions for GNRC&#39;s IPv6 implementation.">
<polygon fill="white" stroke="#666666" points="525.75,-267.5 412.25,-267.5 412.25,-234 525.75,-234 525.75,-267.5"/>
<text text-anchor="start" x="420.25" y="-254" font-family="Helvetica,sans-Serif" font-size="10.00">sys/include/net/gnrc</text>
<text text-anchor="middle" x="469" y="-241.25" font-family="Helvetica,sans-Serif" font-size="10.00">/ipv6.h</text>
</a>
</g>
</g>
<!-- Node23&#45;&gt;Node24 -->
<g id="edge27_Node000023_Node000024" class="edge">
<title>Node23&#45;&gt;Node24</title>
<g id="a_edge27_Node000023_Node000024"><a xlink:title=" ">
<path fill="none" stroke="#63b8ff" d="M356.36,-298.68C380.07,-288.8 408.08,-277.13 430.23,-267.9"/>
<polygon fill="#63b8ff" stroke="#63b8ff" points="355.08,-295.42 347.2,-302.5 357.78,-301.88 355.08,-295.42"/>
</a>
</g>
</g>
<!-- Node24&#45;&gt;Node7 -->
<g id="edge30_Node000024_Node000007" class="edge">
<title>Node24&#45;&gt;Node7</title>
<g id="a_edge30_Node000024_Node000007"><a xlink:title=" ">
<path fill="none" stroke="#63b8ff" d="M400.94,-232.67C356.46,-221.51 299.03,-207.1 256.97,-196.54"/>
<polygon fill="#63b8ff" stroke="#63b8ff" points="399.93,-236.03 410.48,-235.07 401.64,-229.24 399.93,-236.03"/>
</a>
</g>
</g>
<!-- Node24&#45;&gt;Node9 -->
<g id="edge39_Node000024_Node000009" class="edge">
<title>Node24&#45;&gt;Node9</title>
<g id="a_edge39_Node000024_Node000009"><a xlink:title=" ">
<path fill="none" stroke="#63b8ff" d="M422.05,-228.25C407.48,-220.14 392.1,-209.93 380,-198 359.66,-177.94 343.89,-148.86 334.55,-128.87"/>
<polygon fill="#63b8ff" stroke="#63b8ff" points="420.14,-231.2 430.61,-232.82 423.44,-225.03 420.14,-231.2"/>
</a>
</g>
</g>
<!-- Node25 -->
<g id="Node000025" class="node">
<title>Node25</title>
<g id="a_Node000025"><a xlink:href="net_2gnrc_2icmpv6_2error_8h.html" target="_top" xlink:title="ICMPv6 error message definitions.">
<polygon fill="white" stroke="#666666" points="634.75,-198 521.25,-198 521.25,-164.5 634.75,-164.5 634.75,-198"/>
<text text-anchor="start" x="529.25" y="-184.5" font-family="Helvetica,sans-Serif" font-size="10.00">sys/include/net/gnrc</text>
<text text-anchor="middle" x="578" y="-171.75" font-family="Helvetica,sans-Serif" font-size="10.00">/icmpv6/error.h</text>
</a>
</g>
</g>
<!-- Node24&#45;&gt;Node25 -->
<g id="edge28_Node000024_Node000025" class="edge">
<title>Node24&#45;&gt;Node25</title>
<g id="a_edge28_Node000024_Node000025"><a xlink:title=" ">
<path fill="none" stroke="#63b8ff" d="M504.86,-227.54C520.29,-217.99 537.98,-207.03 552.1,-198.29"/>
<polygon fill="#63b8ff" stroke="#63b8ff" points="503.05,-224.54 496.4,-232.79 506.74,-230.5 503.05,-224.54"/>
</a>
</g>
</g>
<!-- Node26 -->
<g id="Node000026" class="node">
<title>Node26</title>
<g id="a_Node000026"><a xlink:href="gnrc_2tcp_8h.html" target="_top" xlink:title="GNRC TCP API.">
<polygon fill="white" stroke="#666666" points="655.75,-122.12 542.25,-122.12 542.25,-88.62 655.75,-88.62 655.75,-122.12"/>
<text text-anchor="start" x="550.25" y="-108.62" font-family="Helvetica,sans-Serif" font-size="10.00">sys/include/net/gnrc</text>
<text text-anchor="middle" x="599" y="-95.88" font-family="Helvetica,sans-Serif" font-size="10.00">/tcp.h</text>
</a>
</g>
</g>
<!-- Node24&#45;&gt;Node26 -->
<g id="edge31_Node000024_Node000026" class="edge">
<title>Node24&#45;&gt;Node26</title>
<g id="a_edge31_Node000024_Node000026"><a xlink:title=" ">
<path fill="none" stroke="#63b8ff" d="M537.08,-238.24C580.43,-229.36 630.83,-215.63 644,-198 661.93,-174.01 636.57,-141.76 617.27,-122.62"/>
<polygon fill="#63b8ff" stroke="#63b8ff" points="536.56,-234.77 527.43,-240.15 537.92,-241.64 536.56,-234.77"/>
</a>
</g>
</g>
<!-- Node27 -->
<g id="Node000027" class="node">
<title>Node27</title>
<g id="a_Node000027"><a xlink:href="tcb_8h.html" target="_top" xlink:title="GNRC TCP transmission control block (TCB)">
<polygon fill="white" stroke="#666666" points="880.75,-198 767.25,-198 767.25,-164.5 880.75,-164.5 880.75,-198"/>
<text text-anchor="start" x="775.25" y="-184.5" font-family="Helvetica,sans-Serif" font-size="10.00">sys/include/net/gnrc</text>
<text text-anchor="middle" x="824" y="-171.75" font-family="Helvetica,sans-Serif" font-size="10.00">/tcp/tcb.h</text>
</a>
</g>
</g>
<!-- Node24&#45;&gt;Node27 -->
<g id="edge32_Node000024_Node000027" class="edge">
<title>Node24&#45;&gt;Node27</title>
<g id="a_edge32_Node000024_Node000027"><a xlink:title=" ">
<path fill="none" stroke="#63b8ff" d="M537.25,-236.77C603.92,-224.1 704.22,-205.03 766.81,-193.12"/>
<polygon fill="#63b8ff" stroke="#63b8ff" points="536.69,-233.32 527.52,-238.62 538,-240.19 536.69,-233.32"/>
</a>
</g>
</g>
<!-- Node25&#45;&gt;Node20 -->
<g id="edge29_Node000025_Node000020" class="edge">
<title>Node25&#45;&gt;Node20</title>
<g id="a_edge29_Node000025_Node000020"><a xlink:title=" ">
<path fill="none" stroke="#63b8ff" d="M544.52,-157.97C527.38,-146.56 506.91,-132.93 491.3,-122.55"/>
<polygon fill="#63b8ff" stroke="#63b8ff" points="542.12,-160.57 552.38,-163.2 545.99,-154.74 542.12,-160.57"/>
</a>
</g>
</g>
<!-- Node27&#45;&gt;Node14 -->
<g id="edge35_Node000027_Node000014" class="edge">
<title>Node27&#45;&gt;Node14</title>
<g id="a_edge35_Node000027_Node000014"><a xlink:title=" ">
<path fill="none" stroke="#63b8ff" d="M796.63,-157.01C786.03,-148.01 773.94,-137.74 763.43,-128.82"/>
<polygon fill="#63b8ff" stroke="#63b8ff" points="794.08,-159.44 803.97,-163.24 798.61,-154.1 794.08,-159.44"/>
</a>
</g>
</g>
<!-- Node27&#45;&gt;Node15 -->
<g id="edge37_Node000027_Node000015" class="edge">
<title>Node27&#45;&gt;Node15</title>
<g id="a_edge37_Node000027_Node000015"><a xlink:title=" ">
<path fill="none" stroke="#63b8ff" d="M892.46,-164.92C893.31,-164.78 894.16,-164.64 895,-164.5 1047.61,-139.72 1089.5,-159.35 1241,-128.5 1243.82,-127.93 1246.69,-127.29 1249.57,-126.6"/>
<polygon fill="#63b8ff" stroke="#63b8ff" points="891.94,-161.46 882.73,-166.69 893.2,-168.34 891.94,-161.46"/>
</a>
</g>
</g>
<!-- Node27&#45;&gt;Node26 -->
<g id="edge33_Node000027_Node000026" class="edge">
<title>Node27&#45;&gt;Node26</title>
<g id="a_edge33_Node000027_Node000026"><a xlink:title=" ">
<path fill="none" stroke="#63b8ff" d="M763.23,-160.61C733.58,-150.99 697.41,-139.2 665,-128.5 659.26,-126.6 653.25,-124.61 647.28,-122.62"/>
<polygon fill="#63b8ff" stroke="#63b8ff" points="761.8,-163.83 772.4,-163.58 763.96,-157.17 761.8,-163.83"/>
</a>
</g>
</g>
<!-- Node28 -->
<g id="Node000028" class="node">
<title>Node28</title>
<g id="a_Node000028"><a xlink:href="gnrc__tcp__common_8h.html" target="_top" xlink:title="Internally used defines, macros and variable declarations.">
<polygon fill="white" stroke="#666666" points="944.12,-128.5 817.88,-128.5 817.88,-82.25 944.12,-82.25 944.12,-128.5"/>
<text text-anchor="start" x="825.88" y="-115" font-family="Helvetica,sans-Serif" font-size="10.00">sys/net/gnrc/transport</text>
<text text-anchor="start" x="825.88" y="-102.25" font-family="Helvetica,sans-Serif" font-size="10.00">_layer/tcp/include/gnrc</text>
<text text-anchor="middle" x="881" y="-89.5" font-family="Helvetica,sans-Serif" font-size="10.00">_tcp_common.h</text>
</a>
</g>
</g>
<!-- Node27&#45;&gt;Node28 -->
<g id="edge34_Node000027_Node000028" class="edge">
<title>Node27&#45;&gt;Node28</title>
<g id="a_edge34_Node000027_Node000028"><a xlink:title=" ">
<path fill="none" stroke="#63b8ff" d="M843.4,-155.11C849.98,-146.58 857.28,-137.12 863.68,-128.82"/>
<polygon fill="#63b8ff" stroke="#63b8ff" points="840.63,-152.97 837.29,-163.02 846.17,-157.24 840.63,-152.97"/>
</a>
</g>
</g>
<!-- Node29 -->
<g id="Node000029" class="node">
<title>Node29</title>
<g id="a_Node000029"><a xlink:href="gnrc__tcp__option_8h.html" target="_top" xlink:title="TCP option handling declarations.">
<polygon fill="white" stroke="#666666" points="1088.12,-128.5 961.88,-128.5 961.88,-82.25 1088.12,-82.25 1088.12,-128.5"/>
<text text-anchor="start" x="969.88" y="-115" font-family="Helvetica,sans-Serif" font-size="10.00">sys/net/gnrc/transport</text>
<text text-anchor="start" x="969.88" y="-102.25" font-family="Helvetica,sans-Serif" font-size="10.00">_layer/tcp/include/gnrc</text>
<text text-anchor="middle" x="1025" y="-89.5" font-family="Helvetica,sans-Serif" font-size="10.00">_tcp_option.h</text>
</a>
</g>
</g>
<!-- Node27&#45;&gt;Node29 -->
<g id="edge36_Node000027_Node000029" class="edge">
<title>Node27&#45;&gt;Node29</title>
<g id="a_edge36_Node000027_Node000029"><a xlink:title=" ">
<path fill="none" stroke="#63b8ff" d="M878.62,-160.17C904.85,-150.53 936.39,-138.94 963.46,-128.99"/>
<polygon fill="#63b8ff" stroke="#63b8ff" points="877.71,-156.78 869.53,-163.52 880.12,-163.35 877.71,-156.78"/>
</a>
</g>
</g>
<!-- Node30 -->
<g id="Node000030" class="node">
<title>Node30</title>
<g id="a_Node000030"><a xlink:href="gnrc__tcp__rcvbuf_8h.html" target="_top" xlink:title="Functions for allocating and freeing the receive buffer.">
<polygon fill="white" stroke="#666666" points="1232.12,-128.5 1105.88,-128.5 1105.88,-82.25 1232.12,-82.25 1232.12,-128.5"/>
<text text-anchor="start" x="1113.88" y="-115" font-family="Helvetica,sans-Serif" font-size="10.00">sys/net/gnrc/transport</text>
<text text-anchor="start" x="1113.88" y="-102.25" font-family="Helvetica,sans-Serif" font-size="10.00">_layer/tcp/include/gnrc</text>
<text text-anchor="middle" x="1169" y="-89.5" font-family="Helvetica,sans-Serif" font-size="10.00">_tcp_rcvbuf.h</text>
</a>
</g>
</g>
<!-- Node27&#45;&gt;Node30 -->
<g id="edge38_Node000027_Node000030" class="edge">
<title>Node27&#45;&gt;Node30</title>
<g id="a_edge38_Node000027_Node000030"><a xlink:title=" ">
<path fill="none" stroke="#63b8ff" d="M891.97,-165.11C892.99,-164.9 894,-164.7 895,-164.5 984.42,-146.62 1008.36,-149.93 1097,-128.5 1099.8,-127.82 1102.64,-127.1 1105.51,-126.34"/>
<polygon fill="#63b8ff" stroke="#63b8ff" points="891.48,-161.64 882.4,-167.1 892.91,-168.49 891.48,-161.64"/>
</a>
</g>
</g>
<!-- Node32 -->
<g id="Node000032" class="node">
<title>Node32</title>
<g id="a_Node000032"><a xlink:href="gnrc_2sixlowpan_8h.html" target="_top" xlink:title="Definitions for 6LoWPAN.">
<polygon fill="white" stroke="#666666" points="881.75,-337 768.25,-337 768.25,-303.5 881.75,-303.5 881.75,-337"/>
<text text-anchor="start" x="776.25" y="-323.5" font-family="Helvetica,sans-Serif" font-size="10.00">sys/include/net/gnrc</text>
<text text-anchor="middle" x="825" y="-310.75" font-family="Helvetica,sans-Serif" font-size="10.00">/sixlowpan.h</text>
</a>
</g>
</g>
<!-- Node31&#45;&gt;Node32 -->
<g id="edge42_Node000031_Node000032" class="edge">
<title>Node31&#45;&gt;Node32</title>
<g id="a_edge42_Node000031_Node000032"><a xlink:title=" ">
<path fill="none" stroke="#63b8ff" d="M825,-361.31C825,-353.09 825,-344.34 825,-337.13"/>
<polygon fill="#63b8ff" stroke="#63b8ff" points="821.5,-361.24 825,-371.24 828.5,-361.24 821.5,-361.24"/>
</a>
</g>
</g>
<!-- Node33 -->
<g id="Node000033" class="node">
<title>Node33</title>
<g id="a_Node000033"><a xlink:href="minfwd_8h.html" target="_top" xlink:title="Minimal fragment forwarding definitions.">
<polygon fill="white" stroke="#666666" points="1034.88,-267.5 895.12,-267.5 895.12,-234 1034.88,-234 1034.88,-267.5"/>
<text text-anchor="start" x="903.12" y="-254" font-family="Helvetica,sans-Serif" font-size="10.00">sys/include/net/gnrc</text>
<text text-anchor="middle" x="965" y="-241.25" font-family="Helvetica,sans-Serif" font-size="10.00">/sixlowpan/frag/minfwd.h</text>
</a>
</g>
</g>
<!-- Node31&#45;&gt;Node33 -->
<g id="edge43_Node000031_Node000033" class="edge">
<title>Node31&#45;&gt;Node33</title>
<g id="a_edge43_Node000031_Node000033"><a xlink:title=" ">
<path fill="none" stroke="#63b8ff" d="M856.9,-365.7C868.07,-357.13 880.45,-347.04 891,-337 914.43,-314.71 938.4,-285.74 952.48,-267.96"/>
<polygon fill="#63b8ff" stroke="#63b8ff" points="854.96,-362.78 849.08,-371.6 859.17,-368.37 854.96,-362.78"/>
</a>
</g>
</g>
<!-- Node35 -->
<g id="Node000035" class="node">
<title>Node35</title>
<g id="a_Node000035"><a xlink:href="vrb_8h.html" target="_top" xlink:title="Virtual reassembly buffer definitions.">
<polygon fill="white" stroke="#666666" points="1056.38,-337 937.62,-337 937.62,-303.5 1056.38,-303.5 1056.38,-337"/>
<text text-anchor="start" x="945.62" y="-323.5" font-family="Helvetica,sans-Serif" font-size="10.00">sys/include/net/gnrc</text>
<text text-anchor="middle" x="997" y="-310.75" font-family="Helvetica,sans-Serif" font-size="10.00">/sixlowpan/frag/vrb.h</text>
</a>
</g>
</g>
<!-- Node34&#45;&gt;Node35 -->
<g id="edge45_Node000034_Node000035" class="edge">
<title>Node34&#45;&gt;Node35</title>
<g id="a_edge45_Node000034_Node000035"><a xlink:title=" ">
<path fill="none" stroke="#63b8ff" d="M984.96,-361.89C987.45,-353.5 990.11,-344.51 992.29,-337.13"/>
<polygon fill="#63b8ff" stroke="#63b8ff" points="981.65,-360.72 982.17,-371.3 988.37,-362.71 981.65,-360.72"/>
</a>
</g>
</g>
<!-- Node35&#45;&gt;Node33 -->
<g id="edge46_Node000035_Node000033" class="edge">
<title>Node35&#45;&gt;Node33</title>
<g id="a_edge46_Node000035_Node000033"><a xlink:title=" ">
<path fill="none" stroke="#63b8ff" d="M984.54,-292.96C980.48,-284.41 976.11,-275.18 972.53,-267.63"/>
<polygon fill="#63b8ff" stroke="#63b8ff" points="981.32,-294.35 988.77,-301.89 987.65,-291.35 981.32,-294.35"/>
</a>
</g>
</g>
<!-- Node36 -->
<g id="Node000036" class="node">
<title>Node36</title>
<g id="a_Node000036"><a xlink:href="gnrc_2sixlowpan_2frag_2sfr_8h.html" target="_top" xlink:title="6LoWPAN selective fragment recovery definitions for GNRC">
<polygon fill="white" stroke="#666666" points="1228.88,-267.5 1113.12,-267.5 1113.12,-234 1228.88,-234 1228.88,-267.5"/>
<text text-anchor="start" x="1121.12" y="-254" font-family="Helvetica,sans-Serif" font-size="10.00">sys/include/net/gnrc</text>
<text text-anchor="middle" x="1171" y="-241.25" font-family="Helvetica,sans-Serif" font-size="10.00">/sixlowpan/frag/sfr.h</text>
</a>
</g>
</g>
<!-- Node35&#45;&gt;Node36 -->
<g id="edge47_Node000035_Node000036" class="edge">
<title>Node35&#45;&gt;Node36</title>
<g id="a_edge47_Node000035_Node000036"><a xlink:title=" ">
<path fill="none" stroke="#63b8ff" d="M1049.33,-298.95C1074.94,-289.01 1105.35,-277.22 1129.36,-267.9"/>
<polygon fill="#63b8ff" stroke="#63b8ff" points="1048.15,-295.65 1040.09,-302.53 1050.68,-302.18 1048.15,-295.65"/>
</a>
</g>
</g>
<!-- Node37 -->
<g id="Node000037" class="node">
<title>Node37</title>
<g id="a_Node000037"><a xlink:href="net_2gnrc_2sixlowpan_2frag_2sfr_2congure_8h.html" target="_top" xlink:title="Congure definitions for 6LoWPAN selective fragment recovery.">
<polygon fill="white" stroke="#666666" points="1421.88,-198 1264.12,-198 1264.12,-164.5 1421.88,-164.5 1421.88,-198"/>
<text text-anchor="start" x="1272.12" y="-184.5" font-family="Helvetica,sans-Serif" font-size="10.00">sys/include/net/gnrc</text>
<text text-anchor="middle" x="1343" y="-171.75" font-family="Helvetica,sans-Serif" font-size="10.00">/sixlowpan/frag/sfr/congure.h</text>
</a>
</g>
</g>
<!-- Node36&#45;&gt;Node37 -->
<g id="edge48_Node000036_Node000037" class="edge">
<title>Node36&#45;&gt;Node37</title>
<g id="a_edge48_Node000036_Node000037"><a xlink:title=" ">
<path fill="none" stroke="#63b8ff" d="M1222.73,-229.45C1248.05,-219.51 1278.11,-207.72 1301.84,-198.4"/>
<polygon fill="#63b8ff" stroke="#63b8ff" points="1221.64,-226.12 1213.61,-233.03 1224.19,-232.63 1221.64,-226.12"/>
</a>
</g>
</g>
<!-- Node37&#45;&gt;Node37 -->
<g id="edge49_Node000037_Node000037" class="edge">
<title>Node37&#45;&gt;Node37</title>
<g id="a_edge49_Node000037_Node000037"><a xlink:title=" ">
<path fill="none" stroke="#63b8ff" d="M1433.09,-189.5C1437.36,-187.43 1439.88,-184.68 1439.88,-181.25 1439.88,-175.48 1432.76,-171.63 1422.06,-169.69"/>
<polygon fill="#63b8ff" stroke="#63b8ff" points="1432.08,-186.15 1423.51,-192.38 1434.09,-192.85 1432.08,-186.15"/>
</a>
</g>
</g>
<!-- Node40 -->
<g id="Node000040" class="node">
<title>Node40</title>
<g id="a_Node000040"><a xlink:href="lorawan_8h.html" target="_top" xlink:title="GNRC LoRaWAN API definition.">
<polygon fill="white" stroke="#666666" points="1187.75,-406.5 1074.25,-406.5 1074.25,-373 1187.75,-373 1187.75,-406.5"/>
<text text-anchor="start" x="1082.25" y="-393" font-family="Helvetica,sans-Serif" font-size="10.00">sys/include/net/gnrc</text>
<text text-anchor="middle" x="1131" y="-380.25" font-family="Helvetica,sans-Serif" font-size="10.00">/lorawan.h</text>
</a>
</g>
</g>
<!-- Node39&#45;&gt;Node40 -->
<g id="edge53_Node000039_Node000040" class="edge">
<title>Node39&#45;&gt;Node40</title>
<g id="a_edge53_Node000039_Node000040"><a xlink:title=" ">
<path fill="none" stroke="#63b8ff" d="M1072.65,-435.19C1085.34,-425.53 1098.96,-415.15 1109.86,-406.85"/>
<polygon fill="#63b8ff" stroke="#63b8ff" points="1070.67,-432.3 1064.83,-441.14 1074.91,-437.87 1070.67,-432.3"/>
</a>
</g>
</g>
<!-- Node41 -->
<g id="Node000041" class="node">
<title>Node41</title>
<g id="a_Node000041"><a xlink:href="region_8h.html" target="_top" xlink:title="GNRC LoRaWAN region specific functions.">
<polygon fill="white" stroke="#666666" points="1187.75,-337 1074.25,-337 1074.25,-303.5 1187.75,-303.5 1187.75,-337"/>
<text text-anchor="start" x="1082.25" y="-323.5" font-family="Helvetica,sans-Serif" font-size="10.00">sys/include/net/gnrc</text>
<text text-anchor="middle" x="1131" y="-310.75" font-family="Helvetica,sans-Serif" font-size="10.00">/lorawan/region.h</text>
</a>
</g>
</g>
<!-- Node40&#45;&gt;Node41 -->
<g id="edge54_Node000040_Node000041" class="edge">
<title>Node40&#45;&gt;Node41</title>
<g id="a_edge54_Node000040_Node000041"><a xlink:title=" ">
<path fill="none" stroke="#63b8ff" d="M1131,-361.31C1131,-353.09 1131,-344.34 1131,-337.13"/>
<polygon fill="#63b8ff" stroke="#63b8ff" points="1127.5,-361.24 1131,-371.24 1134.5,-361.24 1127.5,-361.24"/>
</a>
</g>
</g>
<!-- Node42 -->
<g id="Node000042" class="node">
<title>Node42</title>
<g id="a_Node000042"><a xlink:href="netif_2lorawan_8h.html" target="_top" xlink:title="LoRaWAN adaption for Network interface API.">
<polygon fill="white" stroke="#666666" points="1319.75,-337 1206.25,-337 1206.25,-303.5 1319.75,-303.5 1319.75,-337"/>
<text text-anchor="start" x="1214.25" y="-323.5" font-family="Helvetica,sans-Serif" font-size="10.00">sys/include/net/gnrc</text>
<text text-anchor="middle" x="1263" y="-310.75" font-family="Helvetica,sans-Serif" font-size="10.00">/netif/lorawan.h</text>
</a>
</g>
</g>
<!-- Node40&#45;&gt;Node42 -->
<g id="edge55_Node000040_Node000042" class="edge">
<title>Node40&#45;&gt;Node42</title>
<g id="a_edge55_Node000040_Node000042"><a xlink:title=" ">
<path fill="none" stroke="#63b8ff" d="M1172.83,-367.36C1191.88,-357.62 1214.05,-346.28 1231.64,-337.29"/>
<polygon fill="#63b8ff" stroke="#63b8ff" points="1171.27,-364.22 1163.96,-371.89 1174.46,-370.46 1171.27,-364.22"/>
</a>
</g>
</g>
</g>
</svg>
