<?xml version="1.0" encoding="UTF-8" standalone="no"?>
<!DOCTYPE svg PUBLIC "-//W3C//DTD SVG 1.1//EN"
 "http://www.w3.org/Graphics/SVG/1.1/DTD/svg11.dtd">
<!-- Generated by graphviz version 12.1.2 (0)
 -->
<!-- Title: sys/include/net/gnrc/ipv6/nib/pl.h Pages: 1 -->
<svg width="1258pt" height="415pt"
 viewBox="0.00 0.00 1258.00 414.50" xmlns="http://www.w3.org/2000/svg" xmlns:xlink="http://www.w3.org/1999/xlink">
<g id="graph0" class="graph" transform="scale(1 1) rotate(0) translate(4 410.5)">
<title>sys/include/net/gnrc/ipv6/nib/pl.h</title>
<!-- Node1 -->
<g id="Node000001" class="node">
<title>Node1</title>
<g id="a_Node000001"><a xlink:title="Prefix list definitions.">
<polygon fill="#999999" stroke="#666666" points="1092.5,-406.5 979,-406.5 979,-373 1092.5,-373 1092.5,-406.5"/>
<text text-anchor="start" x="987" y="-393" font-family="Helvetica,sans-Serif" font-size="10.00">sys/include/net/gnrc</text>
<text text-anchor="middle" x="1035.75" y="-380.25" font-family="Helvetica,sans-Serif" font-size="10.00">/ipv6/nib/pl.h</text>
</a>
</g>
</g>
<!-- Node2 -->
<g id="Node000002" class="node">
<title>Node2</title>
<g id="a_Node000002"><a xlink:href="nib_8h.html" target="_top" xlink:title="NIB definitions.">
<polygon fill="white" stroke="#666666" points="1092.5,-337 979,-337 979,-303.5 1092.5,-303.5 1092.5,-337"/>
<text text-anchor="start" x="987" y="-323.5" font-family="Helvetica,sans-Serif" font-size="10.00">sys/include/net/gnrc</text>
<text text-anchor="middle" x="1035.75" y="-310.75" font-family="Helvetica,sans-Serif" font-size="10.00">/ipv6/nib.h</text>
</a>
</g>
</g>
<!-- Node1&#45;&gt;Node2 -->
<g id="edge1_Node000001_Node000002" class="edge">
<title>Node1&#45;&gt;Node2</title>
<g id="a_edge1_Node000001_Node000002"><a xlink:title=" ">
<path fill="none" stroke="#63b8ff" d="M1035.75,-361.31C1035.75,-353.09 1035.75,-344.34 1035.75,-337.13"/>
<polygon fill="#63b8ff" stroke="#63b8ff" points="1032.25,-361.24 1035.75,-371.24 1039.25,-361.24 1032.25,-361.24"/>
</a>
</g>
</g>
<!-- Node3 -->
<g id="Node000003" class="node">
<title>Node3</title>
<g id="a_Node000003"><a xlink:href="gnrc_2ipv6_8h.html" target="_top" xlink:title="Definitions for GNRC&#39;s IPv6 implementation.">
<polygon fill="white" stroke="#666666" points="1031.5,-267.5 918,-267.5 918,-234 1031.5,-234 1031.5,-267.5"/>
<text text-anchor="start" x="926" y="-254" font-family="Helvetica,sans-Serif" font-size="10.00">sys/include/net/gnrc</text>
<text text-anchor="middle" x="974.75" y="-241.25" font-family="Helvetica,sans-Serif" font-size="10.00">/ipv6.h</text>
</a>
</g>
</g>
<!-- Node2&#45;&gt;Node3 -->
<g id="edge2_Node000002_Node000003" class="edge">
<title>Node2&#45;&gt;Node3</title>
<g id="a_edge2_Node000002_Node000003"><a xlink:title=" ">
<path fill="none" stroke="#63b8ff" d="M1013.78,-294.94C1005.57,-285.85 996.45,-275.77 989.1,-267.63"/>
<polygon fill="#63b8ff" stroke="#63b8ff" points="1010.98,-297.06 1020.28,-302.13 1016.17,-292.36 1010.98,-297.06"/>
</a>
</g>
</g>
<!-- Node9 -->
<g id="Node000009" class="node">
<title>Node9</title>
<g id="a_Node000009"><a xlink:href="gnrc__ipv6__auto__subnets_8c.html" target="_top" xlink:title=" ">
<polygon fill="white" stroke="#666666" points="1250,-128.5 1115.5,-128.5 1115.5,-82.25 1250,-82.25 1250,-128.5"/>
<text text-anchor="start" x="1123.5" y="-115" font-family="Helvetica,sans-Serif" font-size="10.00">sys/net/gnrc/routing</text>
<text text-anchor="start" x="1123.5" y="-102.25" font-family="Helvetica,sans-Serif" font-size="10.00">/ipv6_auto_subnets/gnrc</text>
<text text-anchor="middle" x="1182.75" y="-89.5" font-family="Helvetica,sans-Serif" font-size="10.00">_ipv6_auto_subnets.c</text>
</a>
</g>
</g>
<!-- Node2&#45;&gt;Node9 -->
<g id="edge19_Node000002_Node000009" class="edge">
<title>Node2&#45;&gt;Node9</title>
<g id="a_edge19_Node000002_Node000009"><a xlink:title=" ">
<path fill="none" stroke="#63b8ff" d="M1059.85,-294.77C1082.14,-271.29 1115.27,-234.15 1138.75,-198 1153.26,-175.65 1165.96,-147.79 1173.94,-128.69"/>
<polygon fill="#63b8ff" stroke="#63b8ff" points="1057.33,-292.34 1052.93,-301.98 1062.38,-297.19 1057.33,-292.34"/>
</a>
</g>
</g>
<!-- Node4 -->
<g id="Node000004" class="node">
<title>Node4</title>
<g id="a_Node000004"><a xlink:href="net_2gnrc_2icmpv6_2error_8h.html" target="_top" xlink:title="ICMPv6 error message definitions.">
<polygon fill="white" stroke="#666666" points="965.5,-198 852,-198 852,-164.5 965.5,-164.5 965.5,-198"/>
<text text-anchor="start" x="860" y="-184.5" font-family="Helvetica,sans-Serif" font-size="10.00">sys/include/net/gnrc</text>
<text text-anchor="middle" x="908.75" y="-171.75" font-family="Helvetica,sans-Serif" font-size="10.00">/icmpv6/error.h</text>
</a>
</g>
</g>
<!-- Node3&#45;&gt;Node4 -->
<g id="edge3_Node000003_Node000004" class="edge">
<title>Node3&#45;&gt;Node4</title>
<g id="a_edge3_Node000003_Node000004"><a xlink:title=" ">
<path fill="none" stroke="#63b8ff" d="M951.25,-225.72C942.3,-216.56 932.32,-206.35 924.28,-198.13"/>
<polygon fill="#63b8ff" stroke="#63b8ff" points="948.56,-227.97 958.05,-232.67 953.56,-223.07 948.56,-227.97"/>
</a>
</g>
</g>
<!-- Node7 -->
<g id="Node000007" class="node">
<title>Node7</title>
<g id="a_Node000007"><a xlink:href="rpl_8h.html" target="_top" xlink:title="RPL header.">
<polygon fill="white" stroke="#666666" points="1097.5,-198 984,-198 984,-164.5 1097.5,-164.5 1097.5,-198"/>
<text text-anchor="start" x="992" y="-184.5" font-family="Helvetica,sans-Serif" font-size="10.00">sys/include/net/gnrc</text>
<text text-anchor="middle" x="1040.75" y="-171.75" font-family="Helvetica,sans-Serif" font-size="10.00">/rpl.h</text>
</a>
</g>
</g>
<!-- Node3&#45;&gt;Node7 -->
<g id="edge6_Node000003_Node000007" class="edge">
<title>Node3&#45;&gt;Node7</title>
<g id="a_edge6_Node000003_Node000007"><a xlink:title=" ">
<path fill="none" stroke="#63b8ff" d="M998.25,-225.72C1007.2,-216.56 1017.18,-206.35 1025.22,-198.13"/>
<polygon fill="#63b8ff" stroke="#63b8ff" points="995.94,-223.07 991.45,-232.67 1000.94,-227.97 995.94,-223.07"/>
</a>
</g>
</g>
<!-- Node3&#45;&gt;Node9 -->
<g id="edge18_Node000003_Node000009" class="edge">
<title>Node3&#45;&gt;Node9</title>
<g id="a_edge18_Node000003_Node000009"><a xlink:title=" ">
<path fill="none" stroke="#63b8ff" d="M1042.67,-230.55C1064.34,-222.54 1087.64,-211.82 1106.75,-198 1132.88,-179.11 1155.38,-149.22 1168.98,-128.75"/>
<polygon fill="#63b8ff" stroke="#63b8ff" points="1041.54,-227.24 1033.28,-233.88 1043.88,-233.84 1041.54,-227.24"/>
</a>
</g>
</g>
<!-- Node10 -->
<g id="Node000010" class="node">
<title>Node10</title>
<g id="a_Node000010"><a xlink:href="gnrc_2tcp_8h.html" target="_top" xlink:title="GNRC TCP API.">
<polygon fill="white" stroke="#666666" points="113.5,-122.12 0,-122.12 0,-88.62 113.5,-88.62 113.5,-122.12"/>
<text text-anchor="start" x="8" y="-108.62" font-family="Helvetica,sans-Serif" font-size="10.00">sys/include/net/gnrc</text>
<text text-anchor="middle" x="56.75" y="-95.88" font-family="Helvetica,sans-Serif" font-size="10.00">/tcp.h</text>
</a>
</g>
</g>
<!-- Node3&#45;&gt;Node10 -->
<g id="edge10_Node000003_Node000010" class="edge">
<title>Node3&#45;&gt;Node10</title>
<g id="a_edge10_Node000003_Node000010"><a xlink:title=" ">
<path fill="none" stroke="#63b8ff" d="M906.35,-246.49C800.75,-240.76 591.89,-226.68 416.75,-198 284.25,-176.3 251.87,-165.32 122.75,-128.5 116.47,-126.71 109.91,-124.69 103.46,-122.62"/>
<polygon fill="#63b8ff" stroke="#63b8ff" points="906.1,-249.98 916.27,-247.02 906.47,-242.99 906.1,-249.98"/>
</a>
</g>
</g>
<!-- Node11 -->
<g id="Node000011" class="node">
<title>Node11</title>
<g id="a_Node000011"><a xlink:href="tcb_8h.html" target="_top" xlink:title="GNRC TCP transmission control block (TCB)">
<polygon fill="white" stroke="#666666" points="539.5,-198 426,-198 426,-164.5 539.5,-164.5 539.5,-198"/>
<text text-anchor="start" x="434" y="-184.5" font-family="Helvetica,sans-Serif" font-size="10.00">sys/include/net/gnrc</text>
<text text-anchor="middle" x="482.75" y="-171.75" font-family="Helvetica,sans-Serif" font-size="10.00">/tcp/tcb.h</text>
</a>
</g>
</g>
<!-- Node3&#45;&gt;Node11 -->
<g id="edge11_Node000003_Node000011" class="edge">
<title>Node3&#45;&gt;Node11</title>
<g id="a_edge11_Node000003_Node000011"><a xlink:title=" ">
<path fill="none" stroke="#63b8ff" d="M906.62,-240.4C809,-227.01 631.07,-202.6 539.92,-190.09"/>
<polygon fill="#63b8ff" stroke="#63b8ff" points="905.95,-243.84 916.33,-241.74 906.9,-236.91 905.95,-243.84"/>
</a>
</g>
</g>
<!-- Node5 -->
<g id="Node000005" class="node">
<title>Node5</title>
<g id="a_Node000005"><a xlink:href="gnrc_2icmpv6_8h.html" target="_top" xlink:title="Definitions for GNRC&#39;s ICMPv6 implementation.">
<polygon fill="white" stroke="#666666" points="965.5,-122.12 852,-122.12 852,-88.62 965.5,-88.62 965.5,-122.12"/>
<text text-anchor="start" x="860" y="-108.62" font-family="Helvetica,sans-Serif" font-size="10.00">sys/include/net/gnrc</text>
<text text-anchor="middle" x="908.75" y="-95.88" font-family="Helvetica,sans-Serif" font-size="10.00">/icmpv6.h</text>
</a>
</g>
</g>
<!-- Node4&#45;&gt;Node5 -->
<g id="edge4_Node000004_Node000005" class="edge">
<title>Node4&#45;&gt;Node5</title>
<g id="a_edge4_Node000004_Node000005"><a xlink:title=" ">
<path fill="none" stroke="#63b8ff" d="M908.75,-152.86C908.75,-142.6 908.75,-131.27 908.75,-122.37"/>
<polygon fill="#63b8ff" stroke="#63b8ff" points="905.25,-152.71 908.75,-162.71 912.25,-152.71 905.25,-152.71"/>
</a>
</g>
</g>
<!-- Node6 -->
<g id="Node000006" class="node">
<title>Node6</title>
<g id="a_Node000006"><a xlink:href="validation_8h.html" target="_top" xlink:title="RPL control message validation functions.">
<polygon fill="white" stroke="#666666" points="967,-46.25 850.5,-46.25 850.5,0 967,0 967,-46.25"/>
<text text-anchor="start" x="858.5" y="-32.75" font-family="Helvetica,sans-Serif" font-size="10.00">sys/net/gnrc/routing</text>
<text text-anchor="start" x="858.5" y="-20" font-family="Helvetica,sans-Serif" font-size="10.00">/rpl/gnrc_rpl_internal</text>
<text text-anchor="middle" x="908.75" y="-7.25" font-family="Helvetica,sans-Serif" font-size="10.00">/validation.h</text>
</a>
</g>
</g>
<!-- Node5&#45;&gt;Node6 -->
<g id="edge5_Node000005_Node000006" class="edge">
<title>Node5&#45;&gt;Node6</title>
<g id="a_edge5_Node000005_Node000006"><a xlink:title=" ">
<path fill="none" stroke="#63b8ff" d="M908.75,-76.89C908.75,-67.05 908.75,-56.1 908.75,-46.73"/>
<polygon fill="#63b8ff" stroke="#63b8ff" points="905.25,-76.62 908.75,-86.62 912.25,-76.62 905.25,-76.62"/>
</a>
</g>
</g>
<!-- Node8 -->
<g id="Node000008" class="node">
<title>Node8</title>
<g id="a_Node000008"><a xlink:href="dodag_8h.html" target="_top" xlink:title="DODAG&#45;related functions for RPL.">
<polygon fill="white" stroke="#666666" points="1097.5,-122.12 984,-122.12 984,-88.62 1097.5,-88.62 1097.5,-122.12"/>
<text text-anchor="start" x="992" y="-108.62" font-family="Helvetica,sans-Serif" font-size="10.00">sys/include/net/gnrc</text>
<text text-anchor="middle" x="1040.75" y="-95.88" font-family="Helvetica,sans-Serif" font-size="10.00">/rpl/dodag.h</text>
</a>
</g>
</g>
<!-- Node7&#45;&gt;Node8 -->
<g id="edge7_Node000007_Node000008" class="edge">
<title>Node7&#45;&gt;Node8</title>
<g id="a_edge7_Node000007_Node000008"><a xlink:title=" ">
<path fill="none" stroke="#63b8ff" d="M1034.2,-152.86C1033.76,-142.6 1034.05,-131.27 1035.08,-122.37"/>
<polygon fill="#63b8ff" stroke="#63b8ff" points="1030.71,-153.01 1034.96,-162.71 1037.69,-152.47 1030.71,-153.01"/>
</a>
</g>
</g>
<!-- Node7&#45;&gt;Node9 -->
<g id="edge9_Node000007_Node000009" class="edge">
<title>Node7&#45;&gt;Node9</title>
<g id="a_edge9_Node000007_Node000009"><a xlink:title=" ">
<path fill="none" stroke="#63b8ff" d="M1082.08,-158.75C1100.04,-149.41 1121.08,-138.46 1139.27,-128.99"/>
<polygon fill="#63b8ff" stroke="#63b8ff" points="1080.51,-155.62 1073.26,-163.34 1083.74,-161.83 1080.51,-155.62"/>
</a>
</g>
</g>
<!-- Node8&#45;&gt;Node7 -->
<g id="edge8_Node000008_Node000007" class="edge">
<title>Node8&#45;&gt;Node7</title>
<g id="a_edge8_Node000008_Node000007"><a xlink:title=" ">
<path fill="none" stroke="#63b8ff" d="M1047.29,-133.73C1047.74,-143.99 1047.46,-155.31 1046.43,-164.22"/>
<polygon fill="#63b8ff" stroke="#63b8ff" points="1050.79,-133.59 1046.54,-123.88 1043.81,-134.12 1050.79,-133.59"/>
</a>
</g>
</g>
<!-- Node11&#45;&gt;Node10 -->
<g id="edge12_Node000011_Node000010" class="edge">
<title>Node11&#45;&gt;Node10</title>
<g id="a_edge12_Node000011_Node000010"><a xlink:title=" ">
<path fill="none" stroke="#63b8ff" d="M414.42,-174.14C341.5,-166.76 222.91,-152.28 122.75,-128.5 115.81,-126.85 108.57,-124.79 101.52,-122.59"/>
<polygon fill="#63b8ff" stroke="#63b8ff" points="413.92,-177.61 424.22,-175.11 414.61,-170.64 413.92,-177.61"/>
</a>
</g>
</g>
<!-- Node12 -->
<g id="Node000012" class="node">
<title>Node12</title>
<g id="a_Node000012"><a xlink:href="gnrc__tcp__common_8h.html" target="_top" xlink:title="Internally used defines, macros and variable declarations.">
<polygon fill="white" stroke="#666666" points="401.88,-128.5 275.62,-128.5 275.62,-82.25 401.88,-82.25 401.88,-128.5"/>
<text text-anchor="start" x="283.62" y="-115" font-family="Helvetica,sans-Serif" font-size="10.00">sys/net/gnrc/transport</text>
<text text-anchor="start" x="283.62" y="-102.25" font-family="Helvetica,sans-Serif" font-size="10.00">_layer/tcp/include/gnrc</text>
<text text-anchor="middle" x="338.75" y="-89.5" font-family="Helvetica,sans-Serif" font-size="10.00">_tcp_common.h</text>
</a>
</g>
</g>
<!-- Node11&#45;&gt;Node12 -->
<g id="edge13_Node000011_Node000012" class="edge">
<title>Node11&#45;&gt;Node12</title>
<g id="a_edge13_Node000011_Node000012"><a xlink:title=" ">
<path fill="none" stroke="#63b8ff" d="M441.09,-158.88C422.83,-149.51 401.37,-138.5 382.84,-128.99"/>
<polygon fill="#63b8ff" stroke="#63b8ff" points="439.31,-161.9 449.8,-163.35 442.5,-155.67 439.31,-161.9"/>
</a>
</g>
</g>
<!-- Node13 -->
<g id="Node000013" class="node">
<title>Node13</title>
<g id="a_Node000013"><a xlink:href="gnrc__tcp__fsm_8h.html" target="_top" xlink:title="TCP finite state maschine declarations.">
<polygon fill="white" stroke="#666666" points="545.88,-128.5 419.62,-128.5 419.62,-82.25 545.88,-82.25 545.88,-128.5"/>
<text text-anchor="start" x="427.62" y="-115" font-family="Helvetica,sans-Serif" font-size="10.00">sys/net/gnrc/transport</text>
<text text-anchor="start" x="427.62" y="-102.25" font-family="Helvetica,sans-Serif" font-size="10.00">_layer/tcp/include/gnrc</text>
<text text-anchor="middle" x="482.75" y="-89.5" font-family="Helvetica,sans-Serif" font-size="10.00">_tcp_fsm.h</text>
</a>
</g>
</g>
<!-- Node11&#45;&gt;Node13 -->
<g id="edge14_Node000011_Node000013" class="edge">
<title>Node11&#45;&gt;Node13</title>
<g id="a_edge14_Node000011_Node000013"><a xlink:title=" ">
<path fill="none" stroke="#63b8ff" d="M482.75,-152.89C482.75,-144.96 482.75,-136.41 482.75,-128.82"/>
<polygon fill="#63b8ff" stroke="#63b8ff" points="479.25,-152.71 482.75,-162.71 486.25,-152.71 479.25,-152.71"/>
</a>
</g>
</g>
<!-- Node14 -->
<g id="Node000014" class="node">
<title>Node14</title>
<g id="a_Node000014"><a xlink:href="gnrc__tcp__option_8h.html" target="_top" xlink:title="TCP option handling declarations.">
<polygon fill="white" stroke="#666666" points="689.88,-128.5 563.62,-128.5 563.62,-82.25 689.88,-82.25 689.88,-128.5"/>
<text text-anchor="start" x="571.62" y="-115" font-family="Helvetica,sans-Serif" font-size="10.00">sys/net/gnrc/transport</text>
<text text-anchor="start" x="571.62" y="-102.25" font-family="Helvetica,sans-Serif" font-size="10.00">_layer/tcp/include/gnrc</text>
<text text-anchor="middle" x="626.75" y="-89.5" font-family="Helvetica,sans-Serif" font-size="10.00">_tcp_option.h</text>
</a>
</g>
</g>
<!-- Node11&#45;&gt;Node14 -->
<g id="edge15_Node000011_Node000014" class="edge">
<title>Node11&#45;&gt;Node14</title>
<g id="a_edge15_Node000011_Node000014"><a xlink:title=" ">
<path fill="none" stroke="#63b8ff" d="M524.41,-158.88C542.67,-149.51 564.13,-138.5 582.66,-128.99"/>
<polygon fill="#63b8ff" stroke="#63b8ff" points="523,-155.67 515.7,-163.35 526.19,-161.9 523,-155.67"/>
</a>
</g>
</g>
<!-- Node15 -->
<g id="Node000015" class="node">
<title>Node15</title>
<g id="a_Node000015"><a xlink:href="gnrc__tcp__pkt_8h.html" target="_top" xlink:title="TCP packet handling declarations.">
<polygon fill="white" stroke="#666666" points="833.88,-128.5 707.62,-128.5 707.62,-82.25 833.88,-82.25 833.88,-128.5"/>
<text text-anchor="start" x="715.62" y="-115" font-family="Helvetica,sans-Serif" font-size="10.00">sys/net/gnrc/transport</text>
<text text-anchor="start" x="715.62" y="-102.25" font-family="Helvetica,sans-Serif" font-size="10.00">_layer/tcp/include/gnrc</text>
<text text-anchor="middle" x="770.75" y="-89.5" font-family="Helvetica,sans-Serif" font-size="10.00">_tcp_pkt.h</text>
</a>
</g>
</g>
<!-- Node11&#45;&gt;Node15 -->
<g id="edge16_Node000011_Node000015" class="edge">
<title>Node11&#45;&gt;Node15</title>
<g id="a_edge16_Node000011_Node000015"><a xlink:title=" ">
<path fill="none" stroke="#63b8ff" d="M550.95,-165.07C593.6,-155.29 649.58,-141.93 698.75,-128.5 701.53,-127.74 704.36,-126.95 707.21,-126.14"/>
<polygon fill="#63b8ff" stroke="#63b8ff" points="550.29,-161.63 541.32,-167.27 551.85,-168.45 550.29,-161.63"/>
</a>
</g>
</g>
<!-- Node16 -->
<g id="Node000016" class="node">
<title>Node16</title>
<g id="a_Node000016"><a xlink:href="gnrc__tcp__rcvbuf_8h.html" target="_top" xlink:title="Functions for allocating and freeing the receive buffer.">
<polygon fill="white" stroke="#666666" points="257.88,-128.5 131.62,-128.5 131.62,-82.25 257.88,-82.25 257.88,-128.5"/>
<text text-anchor="start" x="139.62" y="-115" font-family="Helvetica,sans-Serif" font-size="10.00">sys/net/gnrc/transport</text>
<text text-anchor="start" x="139.62" y="-102.25" font-family="Helvetica,sans-Serif" font-size="10.00">_layer/tcp/include/gnrc</text>
<text text-anchor="middle" x="194.75" y="-89.5" font-family="Helvetica,sans-Serif" font-size="10.00">_tcp_rcvbuf.h</text>
</a>
</g>
</g>
<!-- Node11&#45;&gt;Node16 -->
<g id="edge17_Node000011_Node000016" class="edge">
<title>Node11&#45;&gt;Node16</title>
<g id="a_edge17_Node000011_Node000016"><a xlink:title=" ">
<path fill="none" stroke="#63b8ff" d="M414.55,-165.07C371.9,-155.29 315.92,-141.93 266.75,-128.5 263.97,-127.74 261.14,-126.95 258.29,-126.14"/>
<polygon fill="#63b8ff" stroke="#63b8ff" points="413.65,-168.45 424.18,-167.27 415.21,-161.63 413.65,-168.45"/>
</a>
</g>
</g>
</g>
</svg>
