<?xml version="1.0" encoding="UTF-8" standalone="no"?>
<!DOCTYPE svg PUBLIC "-//W3C//DTD SVG 1.1//EN"
 "http://www.w3.org/Graphics/SVG/1.1/DTD/svg11.dtd">
<!-- Generated by graphviz version 12.1.2 (0)
 -->
<!-- Title: sys/psa_crypto/include/psa_ecc.h Pages: 1 -->
<svg width="604pt" height="439pt"
 viewBox="0.00 0.00 603.88 438.75" xmlns="http://www.w3.org/2000/svg" xmlns:xlink="http://www.w3.org/1999/xlink">
<g id="graph0" class="graph" transform="scale(1 1) rotate(0) translate(4 434.75)">
<title>sys/psa_crypto/include/psa_ecc.h</title>
<!-- Node1 -->
<g id="Node000001" class="node">
<title>Node1</title>
<g id="a_Node000001"><a xlink:title="Function declarations for low level wrapper functions for ECC operations.">
<polygon fill="#999999" stroke="#666666" points="298,-430.75 171,-430.75 171,-397.25 298,-397.25 298,-430.75"/>
<text text-anchor="start" x="179" y="-417.25" font-family="Helvetica,sans-Serif" font-size="10.00">sys/psa_crypto/include</text>
<text text-anchor="middle" x="234.5" y="-404.5" font-family="Helvetica,sans-Serif" font-size="10.00">/psa_ecc.h</text>
</a>
</g>
</g>
<!-- Node2 -->
<g id="Node000002" class="node">
<title>Node2</title>
<g id="a_Node000002"><a xlink:href="crypto_8h.html" target="_top" xlink:title="Function declarations for PSA Crypto.">
<polygon fill="white" stroke="#666666" points="426.5,-361.25 350.5,-361.25 350.5,-340.5 426.5,-340.5 426.5,-361.25"/>
<text text-anchor="middle" x="388.5" y="-347.75" font-family="Helvetica,sans-Serif" font-size="10.00">psa/crypto.h</text>
</a>
</g>
</g>
<!-- Node1&#45;&gt;Node2 -->
<g id="edge1_Node000001_Node000002" class="edge">
<title>Node1&#45;&gt;Node2</title>
<g id="a_edge1_Node000001_Node000002"><a xlink:title=" ">
<path fill="none" stroke="#63b8ff" d="M275.36,-396.78C299.67,-387.13 330.2,-375.02 353.41,-365.8"/>
<polygon fill="#63b8ff" stroke="#63b8ff" points="354.42,-369.17 362.43,-362.22 351.84,-362.66 354.42,-369.17"/>
</a>
</g>
</g>
<!-- Node5 -->
<g id="Node000005" class="node">
<title>Node5</title>
<g id="a_Node000005"><a xlink:href="kernel__defines_8h.html" target="_top" xlink:title="Common macros and compiler attributes/pragmas configuration.">
<polygon fill="white" stroke="#666666" points="197.62,-191 101.38,-191 101.38,-170.25 197.62,-170.25 197.62,-191"/>
<text text-anchor="middle" x="149.5" y="-177.5" font-family="Helvetica,sans-Serif" font-size="10.00">kernel_defines.h</text>
</a>
</g>
</g>
<!-- Node1&#45;&gt;Node5 -->
<g id="edge29_Node000001_Node000005" class="edge">
<title>Node1&#45;&gt;Node5</title>
<g id="a_edge29_Node000001_Node000005"><a xlink:title=" ">
<path fill="none" stroke="#63b8ff" d="M222.17,-396.79C201.46,-368.43 160.48,-307.15 145.5,-247.75 141.75,-232.88 142.99,-215.55 145.04,-202.37"/>
<polygon fill="#63b8ff" stroke="#63b8ff" points="148.45,-203.17 146.85,-192.7 141.57,-201.89 148.45,-203.17"/>
</a>
</g>
</g>
<!-- Node3 -->
<g id="Node000003" class="node">
<title>Node3</title>
<g id="a_Node000003"><a xlink:title=" ">
<polygon fill="#e0e0e0" stroke="#999999" points="487.5,-304.5 435.5,-304.5 435.5,-283.75 487.5,-283.75 487.5,-304.5"/>
<text text-anchor="middle" x="461.5" y="-291" font-family="Helvetica,sans-Serif" font-size="10.00">stdlib.h</text>
</a>
</g>
</g>
<!-- Node2&#45;&gt;Node3 -->
<g id="edge2_Node000002_Node000003" class="edge">
<title>Node2&#45;&gt;Node3</title>
<g id="a_edge2_Node000002_Node000003"><a xlink:title=" ">
<path fill="none" stroke="#63b8ff" d="M401.55,-340.09C412.14,-332.15 427.29,-320.78 439.72,-311.46"/>
<polygon fill="#63b8ff" stroke="#63b8ff" points="441.45,-314.54 447.35,-305.74 437.25,-308.94 441.45,-314.54"/>
</a>
</g>
</g>
<!-- Node4 -->
<g id="Node000004" class="node">
<title>Node4</title>
<g id="a_Node000004"><a xlink:title=" ">
<polygon fill="#e0e0e0" stroke="#999999" points="595.88,-304.5 543.12,-304.5 543.12,-283.75 595.88,-283.75 595.88,-304.5"/>
<text text-anchor="middle" x="569.5" y="-291" font-family="Helvetica,sans-Serif" font-size="10.00">string.h</text>
</a>
</g>
</g>
<!-- Node2&#45;&gt;Node4 -->
<g id="edge3_Node000002_Node000004" class="edge">
<title>Node2&#45;&gt;Node4</title>
<g id="a_edge3_Node000002_Node000004"><a xlink:title=" ">
<path fill="none" stroke="#63b8ff" d="M420.86,-340.09C451.97,-330.68 498.97,-316.46 531.76,-306.54"/>
<polygon fill="#63b8ff" stroke="#63b8ff" points="532.72,-309.91 541.27,-303.66 530.69,-303.21 532.72,-309.91"/>
</a>
</g>
</g>
<!-- Node2&#45;&gt;Node5 -->
<g id="edge4_Node000002_Node000005" class="edge">
<title>Node2&#45;&gt;Node5</title>
<g id="a_edge4_Node000002_Node000005"><a xlink:title=" ">
<path fill="none" stroke="#63b8ff" d="M350.08,-345.87C295.92,-337.9 199.08,-314.58 157.5,-247.75 149.17,-234.37 147.45,-216.5 147.65,-202.7"/>
<polygon fill="#63b8ff" stroke="#63b8ff" points="151.13,-203.12 148.17,-192.94 144.14,-202.75 151.13,-203.12"/>
</a>
</g>
</g>
<!-- Node13 -->
<g id="Node000013" class="node">
<title>Node13</title>
<g id="a_Node000013"><a xlink:href="crypto__sizes_8h.html" target="_top" xlink:title="Size definitions for PSA Crypto.">
<polygon fill="white" stroke="#666666" points="411.38,-247.75 325.62,-247.75 325.62,-227 411.38,-227 411.38,-247.75"/>
<text text-anchor="middle" x="368.5" y="-234.25" font-family="Helvetica,sans-Serif" font-size="10.00">crypto_sizes.h</text>
</a>
</g>
</g>
<!-- Node2&#45;&gt;Node13 -->
<g id="edge15_Node000002_Node000013" class="edge">
<title>Node2&#45;&gt;Node13</title>
<g id="a_edge15_Node000002_Node000013"><a xlink:title=" ">
<path fill="none" stroke="#63b8ff" d="M386.79,-340.37C383.59,-322.52 376.61,-283.61 372.26,-259.34"/>
<polygon fill="#63b8ff" stroke="#63b8ff" points="375.74,-258.89 370.53,-249.66 368.85,-260.13 375.74,-258.89"/>
</a>
</g>
</g>
<!-- Node14 -->
<g id="Node000014" class="node">
<title>Node14</title>
<g id="a_Node000014"><a xlink:href="crypto__values_8h.html" target="_top" xlink:title="Value definitions for PSA Crypto.">
<polygon fill="white" stroke="#666666" points="464.12,-191 370.88,-191 370.88,-170.25 464.12,-170.25 464.12,-191"/>
<text text-anchor="middle" x="417.5" y="-177.5" font-family="Helvetica,sans-Serif" font-size="10.00">crypto_values.h</text>
</a>
</g>
</g>
<!-- Node2&#45;&gt;Node14 -->
<g id="edge27_Node000002_Node000014" class="edge">
<title>Node2&#45;&gt;Node14</title>
<g id="a_edge27_Node000002_Node000014"><a xlink:title=" ">
<path fill="none" stroke="#63b8ff" d="M392.6,-340.25C399.96,-322.41 415.13,-282.83 420.5,-247.75 421.89,-238.63 420.8,-236.22 420.5,-227 420.24,-219.02 419.71,-210.26 419.18,-202.58"/>
<polygon fill="#63b8ff" stroke="#63b8ff" points="422.68,-202.57 418.44,-192.86 415.7,-203.1 422.68,-202.57"/>
</a>
</g>
</g>
<!-- Node15 -->
<g id="Node000015" class="node">
<title>Node15</title>
<g id="a_Node000015"><a xlink:href="crypto__types_8h.html" target="_top" xlink:title="Type definitions for PSA Crypto.">
<polygon fill="white" stroke="#666666" points="461.5,-134.25 373.5,-134.25 373.5,-113.5 461.5,-113.5 461.5,-134.25"/>
<text text-anchor="middle" x="417.5" y="-120.75" font-family="Helvetica,sans-Serif" font-size="10.00">crypto_types.h</text>
</a>
</g>
</g>
<!-- Node2&#45;&gt;Node15 -->
<g id="edge28_Node000002_Node000015" class="edge">
<title>Node2&#45;&gt;Node15</title>
<g id="a_edge28_Node000002_Node000015"><a xlink:title=" ">
<path fill="none" stroke="#63b8ff" d="M426.82,-344.62C451.23,-339.07 481.08,-327.71 496.5,-304.5 515.52,-275.88 547.16,-291.79 473.5,-170.25 466.4,-158.53 455.13,-148.54 444.56,-140.94"/>
<polygon fill="#63b8ff" stroke="#63b8ff" points="446.69,-138.16 436.44,-135.49 442.79,-143.97 446.69,-138.16"/>
</a>
</g>
</g>
<!-- Node17 -->
<g id="Node000017" class="node">
<title>Node17</title>
<g id="a_Node000017"><a xlink:href="crypto__struct_8h.html" target="_top" xlink:title="Structure definitions for PSA Crypto.">
<polygon fill="white" stroke="#666666" points="341.88,-304.5 253.12,-304.5 253.12,-283.75 341.88,-283.75 341.88,-304.5"/>
<text text-anchor="middle" x="297.5" y="-291" font-family="Helvetica,sans-Serif" font-size="10.00">crypto_struct.h</text>
</a>
</g>
</g>
<!-- Node2&#45;&gt;Node17 -->
<g id="edge22_Node000002_Node000017" class="edge">
<title>Node2&#45;&gt;Node17</title>
<g id="a_edge22_Node000002_Node000017"><a xlink:title=" ">
<path fill="none" stroke="#63b8ff" d="M372.23,-340.09C358.64,-331.91 339.03,-320.11 323.3,-310.65"/>
<polygon fill="#63b8ff" stroke="#63b8ff" points="325.3,-307.77 314.93,-305.61 321.69,-313.76 325.3,-307.77"/>
</a>
</g>
</g>
<!-- Node6 -->
<g id="Node000006" class="node">
<title>Node6</title>
<g id="a_Node000006"><a xlink:href="modules_8h.html" target="_top" xlink:title="Common macros and compiler attributes/pragmas configuration.">
<polygon fill="white" stroke="#666666" points="67,-134.25 0,-134.25 0,-113.5 67,-113.5 67,-134.25"/>
<text text-anchor="middle" x="33.5" y="-120.75" font-family="Helvetica,sans-Serif" font-size="10.00">modules.h</text>
</a>
</g>
</g>
<!-- Node5&#45;&gt;Node6 -->
<g id="edge5_Node000005_Node000006" class="edge">
<title>Node5&#45;&gt;Node6</title>
<g id="a_edge5_Node000005_Node000006"><a xlink:title=" ">
<path fill="none" stroke="#63b8ff" d="M128.76,-169.84C110.86,-161.39 84.76,-149.07 64.4,-139.46"/>
<polygon fill="#63b8ff" stroke="#63b8ff" points="65.96,-136.33 55.43,-135.22 62.98,-142.66 65.96,-136.33"/>
</a>
</g>
</g>
<!-- Node7 -->
<g id="Node000007" class="node">
<title>Node7</title>
<g id="a_Node000007"><a xlink:href="riot__version_8h.html" target="_top" xlink:title="Common macros and compiler attributes/pragmas configuration.">
<polygon fill="white" stroke="#666666" points="242.88,-77.5 160.12,-77.5 160.12,-56.75 242.88,-56.75 242.88,-77.5"/>
<text text-anchor="middle" x="201.5" y="-64" font-family="Helvetica,sans-Serif" font-size="10.00">riot_version.h</text>
</a>
</g>
</g>
<!-- Node5&#45;&gt;Node7 -->
<g id="edge6_Node000005_Node000007" class="edge">
<title>Node5&#45;&gt;Node7</title>
<g id="a_edge6_Node000005_Node000007"><a xlink:title=" ">
<path fill="none" stroke="#63b8ff" d="M153.93,-170.12C162.37,-152.02 180.91,-112.28 192.19,-88.1"/>
<polygon fill="#63b8ff" stroke="#63b8ff" points="195.24,-89.84 196.29,-79.3 188.89,-86.88 195.24,-89.84"/>
</a>
</g>
</g>
<!-- Node9 -->
<g id="Node000009" class="node">
<title>Node9</title>
<g id="a_Node000009"><a xlink:href="compiler__hints_8h.html" target="_top" xlink:title="Common macros and compiler attributes/pragmas configuration.">
<polygon fill="white" stroke="#666666" points="337,-134.25 240,-134.25 240,-113.5 337,-113.5 337,-134.25"/>
<text text-anchor="middle" x="288.5" y="-120.75" font-family="Helvetica,sans-Serif" font-size="10.00">compiler_hints.h</text>
</a>
</g>
</g>
<!-- Node5&#45;&gt;Node9 -->
<g id="edge8_Node000005_Node000009" class="edge">
<title>Node5&#45;&gt;Node9</title>
<g id="a_edge8_Node000005_Node000009"><a xlink:title=" ">
<path fill="none" stroke="#63b8ff" d="M174.35,-169.84C196.39,-161.16 228.82,-148.38 253.48,-138.67"/>
<polygon fill="#63b8ff" stroke="#63b8ff" points="254.43,-142.05 262.46,-135.13 251.87,-135.54 254.43,-142.05"/>
</a>
</g>
</g>
<!-- Node11 -->
<g id="Node000011" class="node">
<title>Node11</title>
<g id="a_Node000011"><a xlink:href="container_8h.html" target="_top" xlink:title="Common macros and compiler attributes/pragmas configuration.">
<polygon fill="white" stroke="#666666" points="155.88,-134.25 85.12,-134.25 85.12,-113.5 155.88,-113.5 155.88,-134.25"/>
<text text-anchor="middle" x="120.5" y="-120.75" font-family="Helvetica,sans-Serif" font-size="10.00">container.h</text>
</a>
</g>
</g>
<!-- Node5&#45;&gt;Node11 -->
<g id="edge12_Node000005_Node000011" class="edge">
<title>Node5&#45;&gt;Node11</title>
<g id="a_edge12_Node000005_Node000011"><a xlink:title=" ">
<path fill="none" stroke="#63b8ff" d="M144.32,-169.84C140.6,-162.83 135.48,-153.16 130.94,-144.58"/>
<polygon fill="#63b8ff" stroke="#63b8ff" points="134.12,-143.11 126.35,-135.92 127.94,-146.39 134.12,-143.11"/>
</a>
</g>
</g>
<!-- Node8 -->
<g id="Node000008" class="node">
<title>Node8</title>
<g id="a_Node000008"><a xlink:title=" ">
<polygon fill="#e0e0e0" stroke="#999999" points="342.88,-20.75 290.12,-20.75 290.12,0 342.88,0 342.88,-20.75"/>
<text text-anchor="middle" x="316.5" y="-7.25" font-family="Helvetica,sans-Serif" font-size="10.00">stdint.h</text>
</a>
</g>
</g>
<!-- Node7&#45;&gt;Node8 -->
<g id="edge7_Node000007_Node000008" class="edge">
<title>Node7&#45;&gt;Node8</title>
<g id="a_edge7_Node000007_Node000008"><a xlink:title=" ">
<path fill="none" stroke="#63b8ff" d="M222.06,-56.34C239.8,-47.89 265.68,-35.57 285.87,-25.96"/>
<polygon fill="#63b8ff" stroke="#63b8ff" points="287.23,-29.19 294.75,-21.73 284.22,-22.87 287.23,-29.19"/>
</a>
</g>
</g>
<!-- Node9&#45;&gt;Node8 -->
<g id="edge11_Node000009_Node000008" class="edge">
<title>Node9&#45;&gt;Node8</title>
<g id="a_edge11_Node000009_Node000008"><a xlink:title=" ">
<path fill="none" stroke="#63b8ff" d="M300.01,-113.03C308.88,-104.62 320.45,-91.67 325.5,-77.5 330.74,-62.79 327.97,-45.25 324.17,-31.93"/>
<polygon fill="#63b8ff" stroke="#63b8ff" points="327.52,-30.92 321.07,-22.52 320.87,-33.11 327.52,-30.92"/>
</a>
</g>
</g>
<!-- Node10 -->
<g id="Node000010" class="node">
<title>Node10</title>
<g id="a_Node000010"><a xlink:href="assert_8h.html" target="_top" xlink:title="POSIX.1&#45;2008 compliant version of the assert macro.">
<polygon fill="white" stroke="#666666" points="316,-77.5 261,-77.5 261,-56.75 316,-56.75 316,-77.5"/>
<text text-anchor="middle" x="288.5" y="-64" font-family="Helvetica,sans-Serif" font-size="10.00">assert.h</text>
</a>
</g>
</g>
<!-- Node9&#45;&gt;Node10 -->
<g id="edge9_Node000009_Node000010" class="edge">
<title>Node9&#45;&gt;Node10</title>
<g id="a_edge9_Node000009_Node000010"><a xlink:title=" ">
<path fill="none" stroke="#63b8ff" d="M288.5,-113.09C288.5,-106.47 288.5,-97.47 288.5,-89.27"/>
<polygon fill="#63b8ff" stroke="#63b8ff" points="292,-89.34 288.5,-79.34 285,-89.34 292,-89.34"/>
</a>
</g>
</g>
<!-- Node10&#45;&gt;Node8 -->
<g id="edge10_Node000010_Node000008" class="edge">
<title>Node10&#45;&gt;Node8</title>
<g id="a_edge10_Node000010_Node000008"><a xlink:title=" ">
<path fill="none" stroke="#63b8ff" d="M293.51,-56.34C297.09,-49.33 302.04,-39.66 306.42,-31.08"/>
<polygon fill="#63b8ff" stroke="#63b8ff" points="309.41,-32.92 310.85,-22.43 303.18,-29.74 309.41,-32.92"/>
</a>
</g>
</g>
<!-- Node11&#45;&gt;Node8 -->
<g id="edge14_Node000011_Node000008" class="edge">
<title>Node11&#45;&gt;Node8</title>
<g id="a_edge14_Node000011_Node000008"><a xlink:title=" ">
<path fill="none" stroke="#63b8ff" d="M106.33,-113.2C88.52,-99.88 62.04,-75.42 77.5,-56.75 102.56,-26.48 217.48,-16.24 278.37,-12.91"/>
<polygon fill="#63b8ff" stroke="#63b8ff" points="278.47,-16.41 288.28,-12.4 278.11,-9.42 278.47,-16.41"/>
</a>
</g>
</g>
<!-- Node12 -->
<g id="Node000012" class="node">
<title>Node12</title>
<g id="a_Node000012"><a xlink:title=" ">
<polygon fill="#e0e0e0" stroke="#999999" points="142,-77.5 87,-77.5 87,-56.75 142,-56.75 142,-77.5"/>
<text text-anchor="middle" x="114.5" y="-64" font-family="Helvetica,sans-Serif" font-size="10.00">stddef.h</text>
</a>
</g>
</g>
<!-- Node11&#45;&gt;Node12 -->
<g id="edge13_Node000011_Node000012" class="edge">
<title>Node11&#45;&gt;Node12</title>
<g id="a_edge13_Node000011_Node000012"><a xlink:title=" ">
<path fill="none" stroke="#63b8ff" d="M119.43,-113.09C118.7,-106.47 117.72,-97.47 116.82,-89.27"/>
<polygon fill="#63b8ff" stroke="#63b8ff" points="120.3,-88.89 115.73,-79.33 113.34,-89.65 120.3,-88.89"/>
</a>
</g>
</g>
<!-- Node13&#45;&gt;Node5 -->
<g id="edge16_Node000013_Node000005" class="edge">
<title>Node13&#45;&gt;Node5</title>
<g id="a_edge16_Node000013_Node000005"><a xlink:title=" ">
<path fill="none" stroke="#63b8ff" d="M329.09,-226.52C292.93,-217.48 239.16,-204.04 199.88,-194.22"/>
<polygon fill="#63b8ff" stroke="#63b8ff" points="200.98,-190.89 190.43,-191.86 199.28,-197.68 200.98,-190.89"/>
</a>
</g>
</g>
<!-- Node13&#45;&gt;Node14 -->
<g id="edge17_Node000013_Node000014" class="edge">
<title>Node13&#45;&gt;Node14</title>
<g id="a_edge17_Node000013_Node000014"><a xlink:title=" ">
<path fill="none" stroke="#63b8ff" d="M377.26,-226.59C383.95,-219.11 393.35,-208.61 401.39,-199.63"/>
<polygon fill="#63b8ff" stroke="#63b8ff" points="403.75,-202.24 407.81,-192.46 398.53,-197.57 403.75,-202.24"/>
</a>
</g>
</g>
<!-- Node14&#45;&gt;Node15 -->
<g id="edge18_Node000014_Node000015" class="edge">
<title>Node14&#45;&gt;Node15</title>
<g id="a_edge18_Node000014_Node000015"><a xlink:title=" ">
<path fill="none" stroke="#63b8ff" d="M417.5,-169.84C417.5,-163.22 417.5,-154.22 417.5,-146.02"/>
<polygon fill="#63b8ff" stroke="#63b8ff" points="421,-146.09 417.5,-136.09 414,-146.09 421,-146.09"/>
</a>
</g>
</g>
<!-- Node15&#45;&gt;Node8 -->
<g id="edge19_Node000015_Node000008" class="edge">
<title>Node15&#45;&gt;Node8</title>
<g id="a_edge19_Node000015_Node000008"><a xlink:title=" ">
<path fill="none" stroke="#63b8ff" d="M428.28,-113.34C442.08,-99.97 462.71,-75.21 449.5,-56.75 428.1,-26.84 385.79,-16.42 354.61,-12.91"/>
<polygon fill="#63b8ff" stroke="#63b8ff" points="355.06,-9.44 344.78,-12.01 354.42,-16.41 355.06,-9.44"/>
</a>
</g>
</g>
<!-- Node16 -->
<g id="Node000016" class="node">
<title>Node16</title>
<g id="a_Node000016"><a xlink:href="psa__crypto_2psa_2error_8h.html" target="_top" xlink:title="Error definitions for the PSA Crypto API.">
<polygon fill="white" stroke="#666666" points="440.75,-77.5 372.25,-77.5 372.25,-56.75 440.75,-56.75 440.75,-77.5"/>
<text text-anchor="middle" x="406.5" y="-64" font-family="Helvetica,sans-Serif" font-size="10.00">psa/error.h</text>
</a>
</g>
</g>
<!-- Node15&#45;&gt;Node16 -->
<g id="edge20_Node000015_Node000016" class="edge">
<title>Node15&#45;&gt;Node16</title>
<g id="a_edge20_Node000015_Node000016"><a xlink:title=" ">
<path fill="none" stroke="#63b8ff" d="M415.53,-113.09C414.19,-106.39 412.35,-97.26 410.69,-88.98"/>
<polygon fill="#63b8ff" stroke="#63b8ff" points="414.15,-88.43 408.75,-79.31 407.29,-89.81 414.15,-88.43"/>
</a>
</g>
</g>
<!-- Node16&#45;&gt;Node8 -->
<g id="edge21_Node000016_Node000008" class="edge">
<title>Node16&#45;&gt;Node8</title>
<g id="a_edge21_Node000016_Node000008"><a xlink:title=" ">
<path fill="none" stroke="#63b8ff" d="M390.41,-56.34C376.97,-48.16 357.57,-36.36 342.01,-26.9"/>
<polygon fill="#63b8ff" stroke="#63b8ff" points="344.11,-24.07 333.74,-21.87 340.47,-30.05 344.11,-24.07"/>
</a>
</g>
</g>
<!-- Node17&#45;&gt;Node13 -->
<g id="edge24_Node000017_Node000013" class="edge">
<title>Node17&#45;&gt;Node13</title>
<g id="a_edge24_Node000017_Node000013"><a xlink:title=" ">
<path fill="none" stroke="#63b8ff" d="M310.19,-283.34C320.39,-275.47 334.94,-264.25 346.96,-254.99"/>
<polygon fill="#63b8ff" stroke="#63b8ff" points="348.94,-257.88 354.72,-249 344.66,-252.34 348.94,-257.88"/>
</a>
</g>
</g>
<!-- Node17&#45;&gt;Node15 -->
<g id="edge23_Node000017_Node000015" class="edge">
<title>Node17&#45;&gt;Node15</title>
<g id="a_edge23_Node000017_Node000015"><a xlink:title=" ">
<path fill="none" stroke="#63b8ff" d="M299.09,-283.27C301.51,-269.94 306.88,-245.69 316.5,-227 335.05,-190.94 370.78,-159.49 394.38,-141.34"/>
<polygon fill="#63b8ff" stroke="#63b8ff" points="396.25,-144.32 402.16,-135.52 392.06,-138.71 396.25,-144.32"/>
</a>
</g>
</g>
<!-- Node18 -->
<g id="Node000018" class="node">
<title>Node18</title>
<g id="a_Node000018"><a xlink:href="crypto__contexts_8h.html" target="_top" xlink:title="Context definitions for PSA Crypto.">
<polygon fill="white" stroke="#666666" points="269,-247.75 166,-247.75 166,-227 269,-227 269,-247.75"/>
<text text-anchor="middle" x="217.5" y="-234.25" font-family="Helvetica,sans-Serif" font-size="10.00">crypto_contexts.h</text>
</a>
</g>
</g>
<!-- Node17&#45;&gt;Node18 -->
<g id="edge25_Node000017_Node000018" class="edge">
<title>Node17&#45;&gt;Node18</title>
<g id="a_edge25_Node000017_Node000018"><a xlink:title=" ">
<path fill="none" stroke="#63b8ff" d="M283.2,-283.34C271.48,-275.32 254.66,-263.81 240.97,-254.44"/>
<polygon fill="#63b8ff" stroke="#63b8ff" points="243.16,-251.69 232.93,-248.93 239.2,-257.47 243.16,-251.69"/>
</a>
</g>
</g>
<!-- Node18&#45;&gt;Node5 -->
<g id="edge26_Node000018_Node000005" class="edge">
<title>Node18&#45;&gt;Node5</title>
<g id="a_edge26_Node000018_Node000005"><a xlink:title=" ">
<path fill="none" stroke="#63b8ff" d="M205.34,-226.59C195.67,-218.8 181.92,-207.72 170.48,-198.51"/>
<polygon fill="#63b8ff" stroke="#63b8ff" points="172.71,-195.82 162.73,-192.28 168.32,-201.28 172.71,-195.82"/>
</a>
</g>
</g>
</g>
</svg>
