<?xml version="1.0" encoding="UTF-8" standalone="no"?>
<!DOCTYPE svg PUBLIC "-//W3C//DTD SVG 1.1//EN"
 "http://www.w3.org/Graphics/SVG/1.1/DTD/svg11.dtd">
<!-- Generated by graphviz version 12.1.2 (0)
 -->
<!-- Title: sys/psa_crypto/include/psa_crypto_slot_management.h Pages: 1 -->
<svg width="617pt" height="496pt"
 viewBox="0.00 0.00 617.25 495.50" xmlns="http://www.w3.org/2000/svg" xmlns:xlink="http://www.w3.org/1999/xlink">
<g id="graph0" class="graph" transform="scale(1 1) rotate(0) translate(4 491.5)">
<title>sys/psa_crypto/include/psa_crypto_slot_management.h</title>
<!-- Node1 -->
<g id="Node000001" class="node">
<title>Node1</title>
<g id="a_Node000001"><a xlink:title="PSA key slot management function declarations.">
<polygon fill="#999999" stroke="#666666" points="354.5,-487.5 179.5,-487.5 179.5,-454 354.5,-454 354.5,-487.5"/>
<text text-anchor="start" x="187.5" y="-474" font-family="Helvetica,sans-Serif" font-size="10.00">sys/psa_crypto/include</text>
<text text-anchor="middle" x="267" y="-461.25" font-family="Helvetica,sans-Serif" font-size="10.00">/psa_crypto_slot_management.h</text>
</a>
</g>
</g>
<!-- Node2 -->
<g id="Node000002" class="node">
<title>Node2</title>
<g id="a_Node000002"><a xlink:href="clist_8h.html" target="_top" xlink:title="Circular linked list.">
<polygon fill="white" stroke="#666666" points="119.62,-418 74.38,-418 74.38,-397.25 119.62,-397.25 119.62,-418"/>
<text text-anchor="middle" x="97" y="-404.5" font-family="Helvetica,sans-Serif" font-size="10.00">clist.h</text>
</a>
</g>
</g>
<!-- Node1&#45;&gt;Node2 -->
<g id="edge1_Node000001_Node000002" class="edge">
<title>Node1&#45;&gt;Node2</title>
<g id="a_edge1_Node000001_Node000002"><a xlink:title=" ">
<path fill="none" stroke="#63b8ff" d="M221.89,-453.53C193.14,-443.19 156.52,-430.03 130.38,-420.63"/>
<polygon fill="#63b8ff" stroke="#63b8ff" points="131.89,-417.45 121.3,-417.36 129.53,-424.04 131.89,-417.45"/>
</a>
</g>
</g>
<!-- Node6 -->
<g id="Node000006" class="node">
<title>Node6</title>
<g id="a_Node000006"><a xlink:href="crypto_8h.html" target="_top" xlink:title="Function declarations for PSA Crypto.">
<polygon fill="white" stroke="#666666" points="361,-361.25 285,-361.25 285,-340.5 361,-340.5 361,-361.25"/>
<text text-anchor="middle" x="323" y="-347.75" font-family="Helvetica,sans-Serif" font-size="10.00">psa/crypto.h</text>
</a>
</g>
</g>
<!-- Node1&#45;&gt;Node6 -->
<g id="edge5_Node000001_Node000006" class="edge">
<title>Node1&#45;&gt;Node6</title>
<g id="a_edge5_Node000001_Node000006"><a xlink:title=" ">
<path fill="none" stroke="#63b8ff" d="M269.17,-453.78C271.7,-438.6 276.74,-415.46 286,-397.25 291.03,-387.35 298.51,-377.64 305.42,-369.75"/>
<polygon fill="#63b8ff" stroke="#63b8ff" points="307.86,-372.27 312.08,-362.55 302.72,-367.52 307.86,-372.27"/>
</a>
</g>
</g>
<!-- Node22 -->
<g id="Node000022" class="node">
<title>Node22</title>
<g id="a_Node000022"><a xlink:href="psa__crypto__se__management_8h.html" target="_top" xlink:title="PSA Secure Element management function declarations.">
<polygon fill="white" stroke="#666666" points="460.62,-418 295.38,-418 295.38,-397.25 460.62,-397.25 460.62,-418"/>
<text text-anchor="middle" x="378" y="-404.5" font-family="Helvetica,sans-Serif" font-size="10.00">psa_crypto_se_management.h</text>
</a>
</g>
</g>
<!-- Node1&#45;&gt;Node22 -->
<g id="edge33_Node000001_Node000022" class="edge">
<title>Node1&#45;&gt;Node22</title>
<g id="a_edge33_Node000001_Node000022"><a xlink:title=" ">
<path fill="none" stroke="#63b8ff" d="M296.45,-453.53C313.1,-444.36 333.8,-432.97 350.17,-423.95"/>
<polygon fill="#63b8ff" stroke="#63b8ff" points="351.82,-427.03 358.9,-419.15 348.45,-420.9 351.82,-427.03"/>
</a>
</g>
</g>
<!-- Node3 -->
<g id="Node000003" class="node">
<title>Node3</title>
<g id="a_Node000003"><a xlink:title=" ">
<polygon fill="#e0e0e0" stroke="#999999" points="161.5,-361.25 100.5,-361.25 100.5,-340.5 161.5,-340.5 161.5,-361.25"/>
<text text-anchor="middle" x="131" y="-347.75" font-family="Helvetica,sans-Serif" font-size="10.00">stdbool.h</text>
</a>
</g>
</g>
<!-- Node2&#45;&gt;Node3 -->
<g id="edge2_Node000002_Node000003" class="edge">
<title>Node2&#45;&gt;Node3</title>
<g id="a_edge2_Node000002_Node000003"><a xlink:title=" ">
<path fill="none" stroke="#63b8ff" d="M103.08,-396.84C107.48,-389.75 113.57,-379.94 118.94,-371.29"/>
<polygon fill="#63b8ff" stroke="#63b8ff" points="121.87,-373.21 124.18,-362.86 115.93,-369.51 121.87,-373.21"/>
</a>
</g>
</g>
<!-- Node4 -->
<g id="Node000004" class="node">
<title>Node4</title>
<g id="a_Node000004"><a xlink:title=" ">
<polygon fill="#e0e0e0" stroke="#999999" points="58.5,-77.5 3.5,-77.5 3.5,-56.75 58.5,-56.75 58.5,-77.5"/>
<text text-anchor="middle" x="31" y="-64" font-family="Helvetica,sans-Serif" font-size="10.00">stddef.h</text>
</a>
</g>
</g>
<!-- Node2&#45;&gt;Node4 -->
<g id="edge3_Node000002_Node000004" class="edge">
<title>Node2&#45;&gt;Node4</title>
<g id="a_edge3_Node000002_Node000004"><a xlink:title=" ">
<path fill="none" stroke="#63b8ff" d="M79.21,-396.88C51.21,-380.08 0,-342.85 0,-295.12 0,-295.12 0,-295.12 0,-179.62 0,-146.58 12.79,-109.98 21.94,-88.03"/>
<polygon fill="#63b8ff" stroke="#63b8ff" points="25.04,-89.67 25.82,-79.11 18.62,-86.88 25.04,-89.67"/>
</a>
</g>
</g>
<!-- Node5 -->
<g id="Node000005" class="node">
<title>Node5</title>
<g id="a_Node000005"><a xlink:href="list_8h.html" target="_top" xlink:title="Intrusive linked list.">
<polygon fill="white" stroke="#666666" points="82,-361.25 42,-361.25 42,-340.5 82,-340.5 82,-361.25"/>
<text text-anchor="middle" x="62" y="-347.75" font-family="Helvetica,sans-Serif" font-size="10.00">list.h</text>
</a>
</g>
</g>
<!-- Node2&#45;&gt;Node5 -->
<g id="edge4_Node000002_Node000005" class="edge">
<title>Node2&#45;&gt;Node5</title>
<g id="a_edge4_Node000002_Node000005"><a xlink:title=" ">
<path fill="none" stroke="#63b8ff" d="M90.74,-396.84C86.16,-389.67 79.8,-379.73 74.23,-371.01"/>
<polygon fill="#63b8ff" stroke="#63b8ff" points="77.35,-369.39 69.02,-362.85 71.46,-373.16 77.35,-369.39"/>
</a>
</g>
</g>
<!-- Node7 -->
<g id="Node000007" class="node">
<title>Node7</title>
<g id="a_Node000007"><a xlink:title=" ">
<polygon fill="#e0e0e0" stroke="#999999" points="532,-191 480,-191 480,-170.25 532,-170.25 532,-191"/>
<text text-anchor="middle" x="506" y="-177.5" font-family="Helvetica,sans-Serif" font-size="10.00">stdlib.h</text>
</a>
</g>
</g>
<!-- Node6&#45;&gt;Node7 -->
<g id="edge6_Node000006_Node000007" class="edge">
<title>Node6&#45;&gt;Node7</title>
<g id="a_edge6_Node000006_Node000007"><a xlink:title=" ">
<path fill="none" stroke="#63b8ff" d="M348.33,-340.1C366.67,-332.24 391.41,-319.98 410,-304.5 414.99,-300.34 466.52,-233.27 491.95,-200.02"/>
<polygon fill="#63b8ff" stroke="#63b8ff" points="494.44,-202.53 497.73,-192.46 488.88,-198.28 494.44,-202.53"/>
</a>
</g>
</g>
<!-- Node8 -->
<g id="Node000008" class="node">
<title>Node8</title>
<g id="a_Node000008"><a xlink:title=" ">
<polygon fill="#e0e0e0" stroke="#999999" points="349.38,-304.5 296.62,-304.5 296.62,-283.75 349.38,-283.75 349.38,-304.5"/>
<text text-anchor="middle" x="323" y="-291" font-family="Helvetica,sans-Serif" font-size="10.00">string.h</text>
</a>
</g>
</g>
<!-- Node6&#45;&gt;Node8 -->
<g id="edge7_Node000006_Node000008" class="edge">
<title>Node6&#45;&gt;Node8</title>
<g id="a_edge7_Node000006_Node000008"><a xlink:title=" ">
<path fill="none" stroke="#63b8ff" d="M323,-340.09C323,-333.47 323,-324.47 323,-316.27"/>
<polygon fill="#63b8ff" stroke="#63b8ff" points="326.5,-316.34 323,-306.34 319.5,-316.34 326.5,-316.34"/>
</a>
</g>
</g>
<!-- Node9 -->
<g id="Node000009" class="node">
<title>Node9</title>
<g id="a_Node000009"><a xlink:href="kernel__defines_8h.html" target="_top" xlink:title="Common macros and compiler attributes/pragmas configuration.">
<polygon fill="white" stroke="#666666" points="207.12,-191 110.88,-191 110.88,-170.25 207.12,-170.25 207.12,-191"/>
<text text-anchor="middle" x="159" y="-177.5" font-family="Helvetica,sans-Serif" font-size="10.00">kernel_defines.h</text>
</a>
</g>
</g>
<!-- Node6&#45;&gt;Node9 -->
<g id="edge8_Node000006_Node000009" class="edge">
<title>Node6&#45;&gt;Node9</title>
<g id="a_edge8_Node000006_Node000009"><a xlink:title=" ">
<path fill="none" stroke="#63b8ff" d="M284.83,-346.8C246.75,-342.28 187.77,-331.24 144,-304.5 109.02,-283.13 75.05,-263.35 94,-227 100.71,-214.13 112.93,-204.16 124.97,-196.89"/>
<polygon fill="#63b8ff" stroke="#63b8ff" points="126.52,-200.03 133.6,-192.14 123.15,-193.9 126.52,-200.03"/>
</a>
</g>
</g>
<!-- Node16 -->
<g id="Node000016" class="node">
<title>Node16</title>
<g id="a_Node000016"><a xlink:href="crypto__sizes_8h.html" target="_top" xlink:title="Size definitions for PSA Crypto.">
<polygon fill="white" stroke="#666666" points="348.88,-247.75 263.12,-247.75 263.12,-227 348.88,-227 348.88,-247.75"/>
<text text-anchor="middle" x="306" y="-234.25" font-family="Helvetica,sans-Serif" font-size="10.00">crypto_sizes.h</text>
</a>
</g>
</g>
<!-- Node6&#45;&gt;Node16 -->
<g id="edge19_Node000006_Node000016" class="edge">
<title>Node6&#45;&gt;Node16</title>
<g id="a_edge19_Node000006_Node000016"><a xlink:title=" ">
<path fill="none" stroke="#63b8ff" d="M312.44,-340.24C304,-331.78 292.81,-318.63 288,-304.5 282.72,-289.02 288.31,-271.09 294.61,-257.81"/>
<polygon fill="#63b8ff" stroke="#63b8ff" points="297.56,-259.72 299.14,-249.24 291.37,-256.45 297.56,-259.72"/>
</a>
</g>
</g>
<!-- Node17 -->
<g id="Node000017" class="node">
<title>Node17</title>
<g id="a_Node000017"><a xlink:href="crypto__values_8h.html" target="_top" xlink:title="Value definitions for PSA Crypto.">
<polygon fill="white" stroke="#666666" points="461.62,-191 368.38,-191 368.38,-170.25 461.62,-170.25 461.62,-191"/>
<text text-anchor="middle" x="415" y="-177.5" font-family="Helvetica,sans-Serif" font-size="10.00">crypto_values.h</text>
</a>
</g>
</g>
<!-- Node6&#45;&gt;Node17 -->
<g id="edge31_Node000006_Node000017" class="edge">
<title>Node6&#45;&gt;Node17</title>
<g id="a_edge31_Node000006_Node000017"><a xlink:title=" ">
<path fill="none" stroke="#63b8ff" d="M346.43,-340.07C361.5,-332.54 380.22,-320.68 391,-304.5 411.62,-273.55 415.4,-229.09 415.63,-202.99"/>
<polygon fill="#63b8ff" stroke="#63b8ff" points="419.13,-202.98 415.53,-193.01 412.14,-203.05 419.13,-202.98"/>
</a>
</g>
</g>
<!-- Node18 -->
<g id="Node000018" class="node">
<title>Node18</title>
<g id="a_Node000018"><a xlink:href="crypto__types_8h.html" target="_top" xlink:title="Type definitions for PSA Crypto.">
<polygon fill="white" stroke="#666666" points="454,-134.25 366,-134.25 366,-113.5 454,-113.5 454,-134.25"/>
<text text-anchor="middle" x="410" y="-120.75" font-family="Helvetica,sans-Serif" font-size="10.00">crypto_types.h</text>
</a>
</g>
</g>
<!-- Node6&#45;&gt;Node18 -->
<g id="edge32_Node000006_Node000018" class="edge">
<title>Node6&#45;&gt;Node18</title>
<g id="a_edge32_Node000006_Node000018"><a xlink:title=" ">
<path fill="none" stroke="#63b8ff" d="M333.53,-340.23C341.95,-331.76 353.13,-318.61 358,-304.5 360.43,-297.45 355.92,-177.04 359,-170.25 364.21,-158.75 373.91,-148.97 383.47,-141.46"/>
<polygon fill="#63b8ff" stroke="#63b8ff" points="385.51,-144.31 391.57,-135.62 381.41,-138.63 385.51,-144.31"/>
</a>
</g>
</g>
<!-- Node20 -->
<g id="Node000020" class="node">
<title>Node20</title>
<g id="a_Node000020"><a xlink:href="crypto__struct_8h.html" target="_top" xlink:title="Structure definitions for PSA Crypto.">
<polygon fill="white" stroke="#666666" points="241.38,-304.5 152.62,-304.5 152.62,-283.75 241.38,-283.75 241.38,-304.5"/>
<text text-anchor="middle" x="197" y="-291" font-family="Helvetica,sans-Serif" font-size="10.00">crypto_struct.h</text>
</a>
</g>
</g>
<!-- Node6&#45;&gt;Node20 -->
<g id="edge26_Node000006_Node000020" class="edge">
<title>Node6&#45;&gt;Node20</title>
<g id="a_edge26_Node000006_Node000020"><a xlink:title=" ">
<path fill="none" stroke="#63b8ff" d="M300.47,-340.09C280.76,-331.52 251.89,-318.98 229.65,-309.31"/>
<polygon fill="#63b8ff" stroke="#63b8ff" points="231.29,-306.21 220.72,-305.43 228.5,-312.63 231.29,-306.21"/>
</a>
</g>
</g>
<!-- Node10 -->
<g id="Node000010" class="node">
<title>Node10</title>
<g id="a_Node000010"><a xlink:href="modules_8h.html" target="_top" xlink:title="Common macros and compiler attributes/pragmas configuration.">
<polygon fill="white" stroke="#666666" points="298.5,-134.25 231.5,-134.25 231.5,-113.5 298.5,-113.5 298.5,-134.25"/>
<text text-anchor="middle" x="265" y="-120.75" font-family="Helvetica,sans-Serif" font-size="10.00">modules.h</text>
</a>
</g>
</g>
<!-- Node9&#45;&gt;Node10 -->
<g id="edge9_Node000009_Node000010" class="edge">
<title>Node9&#45;&gt;Node10</title>
<g id="a_edge9_Node000009_Node000010"><a xlink:title=" ">
<path fill="none" stroke="#63b8ff" d="M177.95,-169.84C194.08,-161.51 217.5,-149.41 235.99,-139.86"/>
<polygon fill="#63b8ff" stroke="#63b8ff" points="237.59,-142.97 244.87,-135.27 234.38,-136.75 237.59,-142.97"/>
</a>
</g>
</g>
<!-- Node11 -->
<g id="Node000011" class="node">
<title>Node11</title>
<g id="a_Node000011"><a xlink:href="riot__version_8h.html" target="_top" xlink:title="Common macros and compiler attributes/pragmas configuration.">
<polygon fill="white" stroke="#666666" points="349.38,-77.5 266.62,-77.5 266.62,-56.75 349.38,-56.75 349.38,-77.5"/>
<text text-anchor="middle" x="308" y="-64" font-family="Helvetica,sans-Serif" font-size="10.00">riot_version.h</text>
</a>
</g>
</g>
<!-- Node9&#45;&gt;Node11 -->
<g id="edge10_Node000009_Node000011" class="edge">
<title>Node9&#45;&gt;Node11</title>
<g id="a_edge10_Node000009_Node000011"><a xlink:title=" ">
<path fill="none" stroke="#63b8ff" d="M207.5,-171.27C246.19,-163.49 295.85,-150.65 308,-134.25 317.51,-121.41 316.68,-102.98 313.94,-88.83"/>
<polygon fill="#63b8ff" stroke="#63b8ff" points="317.37,-88.12 311.61,-79.23 310.57,-89.77 317.37,-88.12"/>
</a>
</g>
</g>
<!-- Node13 -->
<g id="Node000013" class="node">
<title>Node13</title>
<g id="a_Node000013"><a xlink:href="compiler__hints_8h.html" target="_top" xlink:title="Common macros and compiler attributes/pragmas configuration.">
<polygon fill="white" stroke="#666666" points="213.5,-134.25 116.5,-134.25 116.5,-113.5 213.5,-113.5 213.5,-134.25"/>
<text text-anchor="middle" x="165" y="-120.75" font-family="Helvetica,sans-Serif" font-size="10.00">compiler_hints.h</text>
</a>
</g>
</g>
<!-- Node9&#45;&gt;Node13 -->
<g id="edge12_Node000009_Node000013" class="edge">
<title>Node9&#45;&gt;Node13</title>
<g id="a_edge12_Node000009_Node000013"><a xlink:title=" ">
<path fill="none" stroke="#63b8ff" d="M160.07,-169.84C160.8,-163.22 161.78,-154.22 162.68,-146.02"/>
<polygon fill="#63b8ff" stroke="#63b8ff" points="166.16,-146.4 163.77,-136.08 159.2,-145.64 166.16,-146.4"/>
</a>
</g>
</g>
<!-- Node15 -->
<g id="Node000015" class="node">
<title>Node15</title>
<g id="a_Node000015"><a xlink:href="container_8h.html" target="_top" xlink:title="Common macros and compiler attributes/pragmas configuration.">
<polygon fill="white" stroke="#666666" points="98.38,-134.25 27.62,-134.25 27.62,-113.5 98.38,-113.5 98.38,-134.25"/>
<text text-anchor="middle" x="63" y="-120.75" font-family="Helvetica,sans-Serif" font-size="10.00">container.h</text>
</a>
</g>
</g>
<!-- Node9&#45;&gt;Node15 -->
<g id="edge16_Node000009_Node000015" class="edge">
<title>Node9&#45;&gt;Node15</title>
<g id="a_edge16_Node000009_Node000015"><a xlink:title=" ">
<path fill="none" stroke="#63b8ff" d="M141.84,-169.84C127.37,-161.58 106.41,-149.63 89.74,-140.13"/>
<polygon fill="#63b8ff" stroke="#63b8ff" points="91.75,-137.24 81.33,-135.33 88.28,-143.32 91.75,-137.24"/>
</a>
</g>
</g>
<!-- Node12 -->
<g id="Node000012" class="node">
<title>Node12</title>
<g id="a_Node000012"><a xlink:title=" ">
<polygon fill="#e0e0e0" stroke="#999999" points="334.38,-20.75 281.62,-20.75 281.62,0 334.38,0 334.38,-20.75"/>
<text text-anchor="middle" x="308" y="-7.25" font-family="Helvetica,sans-Serif" font-size="10.00">stdint.h</text>
</a>
</g>
</g>
<!-- Node11&#45;&gt;Node12 -->
<g id="edge11_Node000011_Node000012" class="edge">
<title>Node11&#45;&gt;Node12</title>
<g id="a_edge11_Node000011_Node000012"><a xlink:title=" ">
<path fill="none" stroke="#63b8ff" d="M308,-56.34C308,-49.72 308,-40.72 308,-32.52"/>
<polygon fill="#63b8ff" stroke="#63b8ff" points="311.5,-32.59 308,-22.59 304.5,-32.59 311.5,-32.59"/>
</a>
</g>
</g>
<!-- Node13&#45;&gt;Node12 -->
<g id="edge15_Node000013_Node000012" class="edge">
<title>Node13&#45;&gt;Node12</title>
<g id="a_edge15_Node000013_Node000012"><a xlink:title=" ">
<path fill="none" stroke="#63b8ff" d="M165.15,-113.01C165.91,-98.78 169.35,-72.48 184,-56.75 206.35,-32.75 242.45,-21.41 269.94,-16.06"/>
<polygon fill="#63b8ff" stroke="#63b8ff" points="270.39,-19.54 279.65,-14.38 269.19,-12.64 270.39,-19.54"/>
</a>
</g>
</g>
<!-- Node14 -->
<g id="Node000014" class="node">
<title>Node14</title>
<g id="a_Node000014"><a xlink:href="assert_8h.html" target="_top" xlink:title="POSIX.1&#45;2008 compliant version of the assert macro.">
<polygon fill="white" stroke="#666666" points="248.5,-77.5 193.5,-77.5 193.5,-56.75 248.5,-56.75 248.5,-77.5"/>
<text text-anchor="middle" x="221" y="-64" font-family="Helvetica,sans-Serif" font-size="10.00">assert.h</text>
</a>
</g>
</g>
<!-- Node13&#45;&gt;Node14 -->
<g id="edge13_Node000013_Node000014" class="edge">
<title>Node13&#45;&gt;Node14</title>
<g id="a_edge13_Node000013_Node000014"><a xlink:title=" ">
<path fill="none" stroke="#63b8ff" d="M175.01,-113.09C182.74,-105.53 193.63,-94.89 202.87,-85.85"/>
<polygon fill="#63b8ff" stroke="#63b8ff" points="205.29,-88.38 209.99,-78.89 200.4,-83.37 205.29,-88.38"/>
</a>
</g>
</g>
<!-- Node14&#45;&gt;Node12 -->
<g id="edge14_Node000014_Node000012" class="edge">
<title>Node14&#45;&gt;Node12</title>
<g id="a_edge14_Node000014_Node000012"><a xlink:title=" ">
<path fill="none" stroke="#63b8ff" d="M236.55,-56.34C249.42,-48.24 267.94,-36.58 282.91,-27.17"/>
<polygon fill="#63b8ff" stroke="#63b8ff" points="284.7,-30.17 291.3,-21.88 280.97,-24.25 284.7,-30.17"/>
</a>
</g>
</g>
<!-- Node15&#45;&gt;Node4 -->
<g id="edge17_Node000015_Node000004" class="edge">
<title>Node15&#45;&gt;Node4</title>
<g id="a_edge17_Node000015_Node000004"><a xlink:title=" ">
<path fill="none" stroke="#63b8ff" d="M57.28,-113.09C53.14,-106 47.4,-96.19 42.35,-87.54"/>
<polygon fill="#63b8ff" stroke="#63b8ff" points="45.5,-86 37.44,-79.14 39.46,-89.53 45.5,-86"/>
</a>
</g>
</g>
<!-- Node15&#45;&gt;Node12 -->
<g id="edge18_Node000015_Node000012" class="edge">
<title>Node15&#45;&gt;Node12</title>
<g id="a_edge18_Node000015_Node000012"><a xlink:title=" ">
<path fill="none" stroke="#63b8ff" d="M75.98,-113.2C95.24,-99.2 132.88,-73.19 168,-56.75 201.4,-41.12 241.64,-28.69 270.39,-20.82"/>
<polygon fill="#63b8ff" stroke="#63b8ff" points="270.98,-24.29 279.73,-18.32 269.17,-17.53 270.98,-24.29"/>
</a>
</g>
</g>
<!-- Node16&#45;&gt;Node9 -->
<g id="edge20_Node000016_Node000009" class="edge">
<title>Node16&#45;&gt;Node9</title>
<g id="a_edge20_Node000016_Node000009"><a xlink:title=" ">
<path fill="none" stroke="#63b8ff" d="M279.72,-226.59C256.31,-217.87 221.81,-205.02 195.68,-195.29"/>
<polygon fill="#63b8ff" stroke="#63b8ff" points="197.06,-192.07 186.47,-191.86 194.62,-198.63 197.06,-192.07"/>
</a>
</g>
</g>
<!-- Node16&#45;&gt;Node17 -->
<g id="edge21_Node000016_Node000017" class="edge">
<title>Node16&#45;&gt;Node17</title>
<g id="a_edge21_Node000016_Node000017"><a xlink:title=" ">
<path fill="none" stroke="#63b8ff" d="M325.49,-226.59C342.15,-218.22 366.38,-206.04 385.44,-196.47"/>
<polygon fill="#63b8ff" stroke="#63b8ff" points="386.96,-199.62 394.33,-192.01 383.82,-193.37 386.96,-199.62"/>
</a>
</g>
</g>
<!-- Node17&#45;&gt;Node18 -->
<g id="edge22_Node000017_Node000018" class="edge">
<title>Node17&#45;&gt;Node18</title>
<g id="a_edge22_Node000017_Node000018"><a xlink:title=" ">
<path fill="none" stroke="#63b8ff" d="M414.11,-169.84C413.5,-163.22 412.68,-154.22 411.93,-146.02"/>
<polygon fill="#63b8ff" stroke="#63b8ff" points="415.42,-145.73 411.02,-136.09 408.45,-146.36 415.42,-145.73"/>
</a>
</g>
</g>
<!-- Node18&#45;&gt;Node12 -->
<g id="edge23_Node000018_Node000012" class="edge">
<title>Node18&#45;&gt;Node12</title>
<g id="a_edge23_Node000018_Node000012"><a xlink:title=" ">
<path fill="none" stroke="#63b8ff" d="M403.07,-113.05C393.53,-99.76 375.52,-75.56 358,-56.75 348.77,-46.84 337.69,-36.64 328.31,-28.42"/>
<polygon fill="#63b8ff" stroke="#63b8ff" points="330.64,-25.81 320.77,-21.94 326.07,-31.12 330.64,-25.81"/>
</a>
</g>
</g>
<!-- Node19 -->
<g id="Node000019" class="node">
<title>Node19</title>
<g id="a_Node000019"><a xlink:href="psa__crypto_2psa_2error_8h.html" target="_top" xlink:title="Error definitions for the PSA Crypto API.">
<polygon fill="white" stroke="#666666" points="473.25,-77.5 404.75,-77.5 404.75,-56.75 473.25,-56.75 473.25,-77.5"/>
<text text-anchor="middle" x="439" y="-64" font-family="Helvetica,sans-Serif" font-size="10.00">psa/error.h</text>
</a>
</g>
</g>
<!-- Node18&#45;&gt;Node19 -->
<g id="edge24_Node000018_Node000019" class="edge">
<title>Node18&#45;&gt;Node19</title>
<g id="a_edge24_Node000018_Node000019"><a xlink:title=" ">
<path fill="none" stroke="#63b8ff" d="M415.18,-113.09C418.9,-106.08 424.02,-96.41 428.56,-87.83"/>
<polygon fill="#63b8ff" stroke="#63b8ff" points="431.56,-89.64 433.15,-79.17 425.38,-86.36 431.56,-89.64"/>
</a>
</g>
</g>
<!-- Node19&#45;&gt;Node12 -->
<g id="edge25_Node000019_Node000012" class="edge">
<title>Node19&#45;&gt;Node12</title>
<g id="a_edge25_Node000019_Node000012"><a xlink:title=" ">
<path fill="none" stroke="#63b8ff" d="M415.58,-56.34C395,-47.73 364.8,-35.11 341.63,-25.43"/>
<polygon fill="#63b8ff" stroke="#63b8ff" points="343.19,-22.29 332.61,-21.66 340.49,-28.75 343.19,-22.29"/>
</a>
</g>
</g>
<!-- Node20&#45;&gt;Node16 -->
<g id="edge28_Node000020_Node000016" class="edge">
<title>Node20&#45;&gt;Node16</title>
<g id="a_edge28_Node000020_Node000016"><a xlink:title=" ">
<path fill="none" stroke="#63b8ff" d="M216.49,-283.34C233.15,-274.97 257.38,-262.79 276.44,-253.22"/>
<polygon fill="#63b8ff" stroke="#63b8ff" points="277.96,-256.37 285.33,-248.76 274.82,-250.12 277.96,-256.37"/>
</a>
</g>
</g>
<!-- Node20&#45;&gt;Node18 -->
<g id="edge27_Node000020_Node000018" class="edge">
<title>Node20&#45;&gt;Node18</title>
<g id="a_edge27_Node000020_Node000018"><a xlink:title=" ">
<path fill="none" stroke="#63b8ff" d="M204.22,-283.64C214.57,-270.34 234.51,-245.65 254,-227 283.44,-198.83 291.95,-192.63 326,-170.25 343.04,-159.05 363.11,-148.13 379.35,-139.82"/>
<polygon fill="#63b8ff" stroke="#63b8ff" points="380.7,-143.06 388.06,-135.43 377.55,-136.81 380.7,-143.06"/>
</a>
</g>
</g>
<!-- Node21 -->
<g id="Node000021" class="node">
<title>Node21</title>
<g id="a_Node000021"><a xlink:href="crypto__contexts_8h.html" target="_top" xlink:title="Context definitions for PSA Crypto.">
<polygon fill="white" stroke="#666666" points="206.5,-247.75 103.5,-247.75 103.5,-227 206.5,-227 206.5,-247.75"/>
<text text-anchor="middle" x="155" y="-234.25" font-family="Helvetica,sans-Serif" font-size="10.00">crypto_contexts.h</text>
</a>
</g>
</g>
<!-- Node20&#45;&gt;Node21 -->
<g id="edge29_Node000020_Node000021" class="edge">
<title>Node20&#45;&gt;Node21</title>
<g id="a_edge29_Node000020_Node000021"><a xlink:title=" ">
<path fill="none" stroke="#63b8ff" d="M189.49,-283.34C183.88,-276.02 176.03,-265.79 169.24,-256.94"/>
<polygon fill="#63b8ff" stroke="#63b8ff" points="172.23,-255.08 163.36,-249.28 166.67,-259.34 172.23,-255.08"/>
</a>
</g>
</g>
<!-- Node21&#45;&gt;Node9 -->
<g id="edge30_Node000021_Node000009" class="edge">
<title>Node21&#45;&gt;Node9</title>
<g id="a_edge30_Node000021_Node000009"><a xlink:title=" ">
<path fill="none" stroke="#63b8ff" d="M155.72,-226.59C156.2,-219.97 156.86,-210.97 157.46,-202.77"/>
<polygon fill="#63b8ff" stroke="#63b8ff" points="160.94,-203.07 158.18,-192.84 153.96,-202.56 160.94,-203.07"/>
</a>
</g>
</g>
<!-- Node22&#45;&gt;Node6 -->
<g id="edge34_Node000022_Node000006" class="edge">
<title>Node22&#45;&gt;Node6</title>
<g id="a_edge34_Node000022_Node000006"><a xlink:title=" ">
<path fill="none" stroke="#63b8ff" d="M368.17,-396.84C360.58,-389.28 349.88,-378.64 340.8,-369.6"/>
<polygon fill="#63b8ff" stroke="#63b8ff" points="343.38,-367.22 333.82,-362.65 338.44,-372.18 343.38,-367.22"/>
</a>
</g>
</g>
<!-- Node23 -->
<g id="Node000023" class="node">
<title>Node23</title>
<g id="a_Node000023"><a xlink:href="psa__crypto__se__driver_8h.html" target="_top" xlink:title="PSA external cryptoprocessor driver module.">
<polygon fill="white" stroke="#666666" points="609.25,-247.75 480.75,-247.75 480.75,-227 609.25,-227 609.25,-247.75"/>
<text text-anchor="middle" x="545" y="-234.25" font-family="Helvetica,sans-Serif" font-size="10.00">psa_crypto_se_driver.h</text>
</a>
</g>
</g>
<!-- Node22&#45;&gt;Node23 -->
<g id="edge35_Node000022_Node000023" class="edge">
<title>Node22&#45;&gt;Node23</title>
<g id="a_edge35_Node000022_Node000023"><a xlink:title=" ">
<path fill="none" stroke="#63b8ff" d="M387.46,-397.1C414.43,-369.92 492.04,-291.73 527.25,-256.26"/>
<polygon fill="#63b8ff" stroke="#63b8ff" points="529.6,-258.85 534.16,-249.29 524.64,-253.92 529.6,-258.85"/>
</a>
</g>
</g>
<!-- Node23&#45;&gt;Node7 -->
<g id="edge37_Node000023_Node000007" class="edge">
<title>Node23&#45;&gt;Node7</title>
<g id="a_edge37_Node000023_Node000007"><a xlink:title=" ">
<path fill="none" stroke="#63b8ff" d="M538.03,-226.59C532.87,-219.35 525.68,-209.26 519.43,-200.47"/>
<polygon fill="#63b8ff" stroke="#63b8ff" points="522.44,-198.68 513.79,-192.56 516.74,-202.74 522.44,-198.68"/>
</a>
</g>
</g>
<!-- Node23&#45;&gt;Node12 -->
<g id="edge36_Node000023_Node000012" class="edge">
<title>Node23&#45;&gt;Node12</title>
<g id="a_edge36_Node000023_Node000012"><a xlink:title=" ">
<path fill="none" stroke="#63b8ff" d="M550.02,-226.82C556.17,-213.84 565.06,-189.99 559,-170.25 541.1,-111.98 531.79,-91.91 482,-56.75 441.27,-27.99 383.64,-17.45 346.04,-13.6"/>
<polygon fill="#63b8ff" stroke="#63b8ff" points="346.37,-10.11 336.1,-12.7 345.74,-17.08 346.37,-10.11"/>
</a>
</g>
</g>
<!-- Node23&#45;&gt;Node17 -->
<g id="edge38_Node000023_Node000017" class="edge">
<title>Node23&#45;&gt;Node17</title>
<g id="a_edge38_Node000023_Node000017"><a xlink:title=" ">
<path fill="none" stroke="#63b8ff" d="M521.76,-226.59C501.33,-217.98 471.36,-205.36 448.37,-195.68"/>
<polygon fill="#63b8ff" stroke="#63b8ff" points="450.01,-192.57 439.44,-191.92 447.29,-199.02 450.01,-192.57"/>
</a>
</g>
</g>
<!-- Node23&#45;&gt;Node18 -->
<g id="edge39_Node000023_Node000018" class="edge">
<title>Node23&#45;&gt;Node18</title>
<g id="a_edge39_Node000023_Node000018"><a xlink:title=" ">
<path fill="none" stroke="#63b8ff" d="M547.46,-226.71C550.41,-212.73 553.51,-186.74 541,-170.25 523.23,-146.82 492.59,-135.42 465.4,-129.9"/>
<polygon fill="#63b8ff" stroke="#63b8ff" points="466.36,-126.52 455.9,-128.21 465.13,-133.41 466.36,-126.52"/>
</a>
</g>
</g>
</g>
</svg>
