<?xml version="1.0" encoding="UTF-8" standalone="no"?>
<!DOCTYPE svg PUBLIC "-//W3C//DTD SVG 1.1//EN"
 "http://www.w3.org/Graphics/SVG/1.1/DTD/svg11.dtd">
<!-- Generated by graphviz version 12.1.2 (0)
 -->
<!-- Title: sys/psa_crypto/include/psa_ciphers.h Pages: 1 -->
<svg width="548pt" height="439pt"
 viewBox="0.00 0.00 547.90 438.75" xmlns="http://www.w3.org/2000/svg" xmlns:xlink="http://www.w3.org/1999/xlink">
<g id="graph0" class="graph" transform="scale(1 1) rotate(0) translate(4 434.75)">
<title>sys/psa_crypto/include/psa_ciphers.h</title>
<!-- Node1 -->
<g id="Node000001" class="node">
<title>Node1</title>
<g id="a_Node000001"><a xlink:title="Function declarations for low level wrapper functions for cipher operations.">
<polygon fill="#999999" stroke="#666666" points="251,-430.75 124,-430.75 124,-397.25 251,-397.25 251,-430.75"/>
<text text-anchor="start" x="132" y="-417.25" font-family="Helvetica,sans-Serif" font-size="10.00">sys/psa_crypto/include</text>
<text text-anchor="middle" x="187.5" y="-404.5" font-family="Helvetica,sans-Serif" font-size="10.00">/psa_ciphers.h</text>
</a>
</g>
</g>
<!-- Node2 -->
<g id="Node000002" class="node">
<title>Node2</title>
<g id="a_Node000002"><a xlink:href="crypto_8h.html" target="_top" xlink:title="Function declarations for PSA Crypto.">
<polygon fill="white" stroke="#666666" points="355.5,-361.25 279.5,-361.25 279.5,-340.5 355.5,-340.5 355.5,-361.25"/>
<text text-anchor="middle" x="317.5" y="-347.75" font-family="Helvetica,sans-Serif" font-size="10.00">psa/crypto.h</text>
</a>
</g>
</g>
<!-- Node1&#45;&gt;Node2 -->
<g id="edge1_Node000001_Node000002" class="edge">
<title>Node1&#45;&gt;Node2</title>
<g id="a_edge1_Node000001_Node000002"><a xlink:title=" ">
<path fill="none" stroke="#63b8ff" d="M222,-396.78C241.96,-387.39 266.89,-375.67 286.27,-366.56"/>
<polygon fill="#63b8ff" stroke="#63b8ff" points="287.75,-369.73 295.31,-362.31 284.77,-363.4 287.75,-369.73"/>
</a>
</g>
</g>
<!-- Node18 -->
<g id="Node000018" class="node">
<title>Node18</title>
<g id="a_Node000018"><a xlink:href="crypto__contexts_8h.html" target="_top" xlink:title="Context definitions for PSA Crypto.">
<polygon fill="white" stroke="#666666" points="145,-247.75 42,-247.75 42,-227 145,-227 145,-247.75"/>
<text text-anchor="middle" x="93.5" y="-234.25" font-family="Helvetica,sans-Serif" font-size="10.00">crypto_contexts.h</text>
</a>
</g>
</g>
<!-- Node1&#45;&gt;Node18 -->
<g id="edge29_Node000001_Node000018" class="edge">
<title>Node1&#45;&gt;Node18</title>
<g id="a_edge29_Node000001_Node000018"><a xlink:title=" ">
<path fill="none" stroke="#63b8ff" d="M178.83,-396.88C161.52,-364.73 122.76,-292.73 104.03,-257.94"/>
<polygon fill="#63b8ff" stroke="#63b8ff" points="107.24,-256.52 99.42,-249.38 101.08,-259.84 107.24,-256.52"/>
</a>
</g>
</g>
<!-- Node3 -->
<g id="Node000003" class="node">
<title>Node3</title>
<g id="a_Node000003"><a xlink:title=" ">
<polygon fill="#e0e0e0" stroke="#999999" points="253.5,-304.5 201.5,-304.5 201.5,-283.75 253.5,-283.75 253.5,-304.5"/>
<text text-anchor="middle" x="227.5" y="-291" font-family="Helvetica,sans-Serif" font-size="10.00">stdlib.h</text>
</a>
</g>
</g>
<!-- Node2&#45;&gt;Node3 -->
<g id="edge2_Node000002_Node000003" class="edge">
<title>Node2&#45;&gt;Node3</title>
<g id="a_edge2_Node000002_Node000003"><a xlink:title=" ">
<path fill="none" stroke="#63b8ff" d="M301.41,-340.09C287.97,-331.91 268.57,-320.11 253.01,-310.65"/>
<polygon fill="#63b8ff" stroke="#63b8ff" points="255.11,-307.82 244.74,-305.62 251.47,-313.8 255.11,-307.82"/>
</a>
</g>
</g>
<!-- Node4 -->
<g id="Node000004" class="node">
<title>Node4</title>
<g id="a_Node000004"><a xlink:title=" ">
<polygon fill="#e0e0e0" stroke="#999999" points="505.88,-304.5 453.12,-304.5 453.12,-283.75 505.88,-283.75 505.88,-304.5"/>
<text text-anchor="middle" x="479.5" y="-291" font-family="Helvetica,sans-Serif" font-size="10.00">string.h</text>
</a>
</g>
</g>
<!-- Node2&#45;&gt;Node4 -->
<g id="edge3_Node000002_Node000004" class="edge">
<title>Node2&#45;&gt;Node4</title>
<g id="a_edge3_Node000002_Node000004"><a xlink:title=" ">
<path fill="none" stroke="#63b8ff" d="M346.46,-340.09C373.17,-331.06 412.98,-317.61 442.09,-307.77"/>
<polygon fill="#63b8ff" stroke="#63b8ff" points="442.88,-311.19 451.24,-304.68 440.64,-304.56 442.88,-311.19"/>
</a>
</g>
</g>
<!-- Node5 -->
<g id="Node000005" class="node">
<title>Node5</title>
<g id="a_Node000005"><a xlink:href="kernel__defines_8h.html" target="_top" xlink:title="Common macros and compiler attributes/pragmas configuration.">
<polygon fill="white" stroke="#666666" points="221.62,-191 125.38,-191 125.38,-170.25 221.62,-170.25 221.62,-191"/>
<text text-anchor="middle" x="173.5" y="-177.5" font-family="Helvetica,sans-Serif" font-size="10.00">kernel_defines.h</text>
</a>
</g>
</g>
<!-- Node2&#45;&gt;Node5 -->
<g id="edge4_Node000002_Node000005" class="edge">
<title>Node2&#45;&gt;Node5</title>
<g id="a_edge4_Node000002_Node000005"><a xlink:title=" ">
<path fill="none" stroke="#63b8ff" d="M279.07,-346.22C250.78,-341.41 213.68,-330.27 192.5,-304.5 168.71,-275.55 168.44,-229.36 170.74,-202.63"/>
<polygon fill="#63b8ff" stroke="#63b8ff" points="174.22,-203.05 171.82,-192.73 167.26,-202.29 174.22,-203.05"/>
</a>
</g>
</g>
<!-- Node13 -->
<g id="Node000013" class="node">
<title>Node13</title>
<g id="a_Node000013"><a xlink:href="crypto__sizes_8h.html" target="_top" xlink:title="Size definitions for PSA Crypto.">
<polygon fill="white" stroke="#666666" points="325.38,-247.75 239.62,-247.75 239.62,-227 325.38,-227 325.38,-247.75"/>
<text text-anchor="middle" x="282.5" y="-234.25" font-family="Helvetica,sans-Serif" font-size="10.00">crypto_sizes.h</text>
</a>
</g>
</g>
<!-- Node2&#45;&gt;Node13 -->
<g id="edge15_Node000002_Node000013" class="edge">
<title>Node2&#45;&gt;Node13</title>
<g id="a_edge15_Node000002_Node000013"><a xlink:title=" ">
<path fill="none" stroke="#63b8ff" d="M313.59,-340.23C309.96,-331.11 304.53,-316.99 300.5,-304.5 295.63,-289.4 290.95,-272.08 287.58,-258.96"/>
<polygon fill="#63b8ff" stroke="#63b8ff" points="290.99,-258.19 285.16,-249.34 284.2,-259.89 290.99,-258.19"/>
</a>
</g>
</g>
<!-- Node14 -->
<g id="Node000014" class="node">
<title>Node14</title>
<g id="a_Node000014"><a xlink:href="crypto__values_8h.html" target="_top" xlink:title="Value definitions for PSA Crypto.">
<polygon fill="white" stroke="#666666" points="475.12,-191 381.88,-191 381.88,-170.25 475.12,-170.25 475.12,-191"/>
<text text-anchor="middle" x="428.5" y="-177.5" font-family="Helvetica,sans-Serif" font-size="10.00">crypto_values.h</text>
</a>
</g>
</g>
<!-- Node2&#45;&gt;Node14 -->
<g id="edge27_Node000002_Node000014" class="edge">
<title>Node2&#45;&gt;Node14</title>
<g id="a_edge27_Node000002_Node000014"><a xlink:title=" ">
<path fill="none" stroke="#63b8ff" d="M353.42,-340.07C372.06,-333.14 393.58,-321.91 406.5,-304.5 428.8,-274.43 431.02,-229 430.11,-202.62"/>
<polygon fill="#63b8ff" stroke="#63b8ff" points="433.62,-202.66 429.57,-192.87 426.63,-203.05 433.62,-202.66"/>
</a>
</g>
</g>
<!-- Node15 -->
<g id="Node000015" class="node">
<title>Node15</title>
<g id="a_Node000015"><a xlink:href="crypto__types_8h.html" target="_top" xlink:title="Type definitions for PSA Crypto.">
<polygon fill="white" stroke="#666666" points="472.5,-134.25 384.5,-134.25 384.5,-113.5 472.5,-113.5 472.5,-134.25"/>
<text text-anchor="middle" x="428.5" y="-120.75" font-family="Helvetica,sans-Serif" font-size="10.00">crypto_types.h</text>
</a>
</g>
</g>
<!-- Node2&#45;&gt;Node15 -->
<g id="edge28_Node000002_Node000015" class="edge">
<title>Node2&#45;&gt;Node15</title>
<g id="a_edge28_Node000002_Node000015"><a xlink:title=" ">
<path fill="none" stroke="#63b8ff" d="M355.8,-346.61C407.41,-341.33 495.05,-328.94 514.5,-304.5 537.01,-276.21 569.51,-301.69 484.5,-170.25 477.01,-158.67 465.58,-148.64 455,-140.99"/>
<polygon fill="#63b8ff" stroke="#63b8ff" points="457.15,-138.22 446.91,-135.49 453.22,-144.01 457.15,-138.22"/>
</a>
</g>
</g>
<!-- Node17 -->
<g id="Node000017" class="node">
<title>Node17</title>
<g id="a_Node000017"><a xlink:href="crypto__struct_8h.html" target="_top" xlink:title="Structure definitions for PSA Crypto.">
<polygon fill="white" stroke="#666666" points="397.88,-304.5 309.12,-304.5 309.12,-283.75 397.88,-283.75 397.88,-304.5"/>
<text text-anchor="middle" x="353.5" y="-291" font-family="Helvetica,sans-Serif" font-size="10.00">crypto_struct.h</text>
</a>
</g>
</g>
<!-- Node2&#45;&gt;Node17 -->
<g id="edge22_Node000002_Node000017" class="edge">
<title>Node2&#45;&gt;Node17</title>
<g id="a_edge22_Node000002_Node000017"><a xlink:title=" ">
<path fill="none" stroke="#63b8ff" d="M323.94,-340.09C328.65,-332.92 335.19,-322.98 340.92,-314.26"/>
<polygon fill="#63b8ff" stroke="#63b8ff" points="343.72,-316.37 346.29,-306.09 337.87,-312.53 343.72,-316.37"/>
</a>
</g>
</g>
<!-- Node6 -->
<g id="Node000006" class="node">
<title>Node6</title>
<g id="a_Node000006"><a xlink:href="modules_8h.html" target="_top" xlink:title="Common macros and compiler attributes/pragmas configuration.">
<polygon fill="white" stroke="#666666" points="67,-134.25 0,-134.25 0,-113.5 67,-113.5 67,-134.25"/>
<text text-anchor="middle" x="33.5" y="-120.75" font-family="Helvetica,sans-Serif" font-size="10.00">modules.h</text>
</a>
</g>
</g>
<!-- Node5&#45;&gt;Node6 -->
<g id="edge5_Node000005_Node000006" class="edge">
<title>Node5&#45;&gt;Node6</title>
<g id="a_edge5_Node000005_Node000006"><a xlink:title=" ">
<path fill="none" stroke="#63b8ff" d="M148.47,-169.84C126.27,-161.16 93.61,-148.38 68.77,-138.67"/>
<polygon fill="#63b8ff" stroke="#63b8ff" points="70.31,-135.51 59.72,-135.13 67.76,-142.03 70.31,-135.51"/>
</a>
</g>
</g>
<!-- Node7 -->
<g id="Node000007" class="node">
<title>Node7</title>
<g id="a_Node000007"><a xlink:href="riot__version_8h.html" target="_top" xlink:title="Common macros and compiler attributes/pragmas configuration.">
<polygon fill="white" stroke="#666666" points="242.88,-77.5 160.12,-77.5 160.12,-56.75 242.88,-56.75 242.88,-77.5"/>
<text text-anchor="middle" x="201.5" y="-64" font-family="Helvetica,sans-Serif" font-size="10.00">riot_version.h</text>
</a>
</g>
</g>
<!-- Node5&#45;&gt;Node7 -->
<g id="edge6_Node000005_Node000007" class="edge">
<title>Node5&#45;&gt;Node7</title>
<g id="a_edge6_Node000005_Node000007"><a xlink:title=" ">
<path fill="none" stroke="#63b8ff" d="M175.89,-170.12C180.37,-152.27 190.14,-113.36 196.23,-89.09"/>
<polygon fill="#63b8ff" stroke="#63b8ff" points="199.63,-89.94 198.67,-79.39 192.84,-88.24 199.63,-89.94"/>
</a>
</g>
</g>
<!-- Node9 -->
<g id="Node000009" class="node">
<title>Node9</title>
<g id="a_Node000009"><a xlink:href="compiler__hints_8h.html" target="_top" xlink:title="Common macros and compiler attributes/pragmas configuration.">
<polygon fill="white" stroke="#666666" points="337,-134.25 240,-134.25 240,-113.5 337,-113.5 337,-134.25"/>
<text text-anchor="middle" x="288.5" y="-120.75" font-family="Helvetica,sans-Serif" font-size="10.00">compiler_hints.h</text>
</a>
</g>
</g>
<!-- Node5&#45;&gt;Node9 -->
<g id="edge8_Node000005_Node000009" class="edge">
<title>Node5&#45;&gt;Node9</title>
<g id="a_edge8_Node000005_Node000009"><a xlink:title=" ">
<path fill="none" stroke="#63b8ff" d="M194.06,-169.84C211.8,-161.39 237.68,-149.07 257.87,-139.46"/>
<polygon fill="#63b8ff" stroke="#63b8ff" points="259.23,-142.69 266.75,-135.23 256.22,-136.37 259.23,-142.69"/>
</a>
</g>
</g>
<!-- Node11 -->
<g id="Node000011" class="node">
<title>Node11</title>
<g id="a_Node000011"><a xlink:href="container_8h.html" target="_top" xlink:title="Common macros and compiler attributes/pragmas configuration.">
<polygon fill="white" stroke="#666666" points="155.88,-134.25 85.12,-134.25 85.12,-113.5 155.88,-113.5 155.88,-134.25"/>
<text text-anchor="middle" x="120.5" y="-120.75" font-family="Helvetica,sans-Serif" font-size="10.00">container.h</text>
</a>
</g>
</g>
<!-- Node5&#45;&gt;Node11 -->
<g id="edge12_Node000005_Node000011" class="edge">
<title>Node5&#45;&gt;Node11</title>
<g id="a_edge12_Node000005_Node000011"><a xlink:title=" ">
<path fill="none" stroke="#63b8ff" d="M164.02,-169.84C156.71,-162.28 146.41,-151.64 137.66,-142.6"/>
<polygon fill="#63b8ff" stroke="#63b8ff" points="140.42,-140.42 130.95,-135.67 135.39,-145.29 140.42,-140.42"/>
</a>
</g>
</g>
<!-- Node8 -->
<g id="Node000008" class="node">
<title>Node8</title>
<g id="a_Node000008"><a xlink:title=" ">
<polygon fill="#e0e0e0" stroke="#999999" points="342.88,-20.75 290.12,-20.75 290.12,0 342.88,0 342.88,-20.75"/>
<text text-anchor="middle" x="316.5" y="-7.25" font-family="Helvetica,sans-Serif" font-size="10.00">stdint.h</text>
</a>
</g>
</g>
<!-- Node7&#45;&gt;Node8 -->
<g id="edge7_Node000007_Node000008" class="edge">
<title>Node7&#45;&gt;Node8</title>
<g id="a_edge7_Node000007_Node000008"><a xlink:title=" ">
<path fill="none" stroke="#63b8ff" d="M222.06,-56.34C239.8,-47.89 265.68,-35.57 285.87,-25.96"/>
<polygon fill="#63b8ff" stroke="#63b8ff" points="287.23,-29.19 294.75,-21.73 284.22,-22.87 287.23,-29.19"/>
</a>
</g>
</g>
<!-- Node9&#45;&gt;Node8 -->
<g id="edge11_Node000009_Node000008" class="edge">
<title>Node9&#45;&gt;Node8</title>
<g id="a_edge11_Node000009_Node000008"><a xlink:title=" ">
<path fill="none" stroke="#63b8ff" d="M300.01,-113.03C308.88,-104.62 320.45,-91.67 325.5,-77.5 330.74,-62.79 327.97,-45.25 324.17,-31.93"/>
<polygon fill="#63b8ff" stroke="#63b8ff" points="327.52,-30.92 321.07,-22.52 320.87,-33.11 327.52,-30.92"/>
</a>
</g>
</g>
<!-- Node10 -->
<g id="Node000010" class="node">
<title>Node10</title>
<g id="a_Node000010"><a xlink:href="assert_8h.html" target="_top" xlink:title="POSIX.1&#45;2008 compliant version of the assert macro.">
<polygon fill="white" stroke="#666666" points="316,-77.5 261,-77.5 261,-56.75 316,-56.75 316,-77.5"/>
<text text-anchor="middle" x="288.5" y="-64" font-family="Helvetica,sans-Serif" font-size="10.00">assert.h</text>
</a>
</g>
</g>
<!-- Node9&#45;&gt;Node10 -->
<g id="edge9_Node000009_Node000010" class="edge">
<title>Node9&#45;&gt;Node10</title>
<g id="a_edge9_Node000009_Node000010"><a xlink:title=" ">
<path fill="none" stroke="#63b8ff" d="M288.5,-113.09C288.5,-106.47 288.5,-97.47 288.5,-89.27"/>
<polygon fill="#63b8ff" stroke="#63b8ff" points="292,-89.34 288.5,-79.34 285,-89.34 292,-89.34"/>
</a>
</g>
</g>
<!-- Node10&#45;&gt;Node8 -->
<g id="edge10_Node000010_Node000008" class="edge">
<title>Node10&#45;&gt;Node8</title>
<g id="a_edge10_Node000010_Node000008"><a xlink:title=" ">
<path fill="none" stroke="#63b8ff" d="M293.51,-56.34C297.09,-49.33 302.04,-39.66 306.42,-31.08"/>
<polygon fill="#63b8ff" stroke="#63b8ff" points="309.41,-32.92 310.85,-22.43 303.18,-29.74 309.41,-32.92"/>
</a>
</g>
</g>
<!-- Node11&#45;&gt;Node8 -->
<g id="edge14_Node000011_Node000008" class="edge">
<title>Node11&#45;&gt;Node8</title>
<g id="a_edge14_Node000011_Node000008"><a xlink:title=" ">
<path fill="none" stroke="#63b8ff" d="M106.33,-113.2C88.52,-99.88 62.04,-75.42 77.5,-56.75 102.56,-26.48 217.48,-16.24 278.37,-12.91"/>
<polygon fill="#63b8ff" stroke="#63b8ff" points="278.47,-16.41 288.28,-12.4 278.11,-9.42 278.47,-16.41"/>
</a>
</g>
</g>
<!-- Node12 -->
<g id="Node000012" class="node">
<title>Node12</title>
<g id="a_Node000012"><a xlink:title=" ">
<polygon fill="#e0e0e0" stroke="#999999" points="142,-77.5 87,-77.5 87,-56.75 142,-56.75 142,-77.5"/>
<text text-anchor="middle" x="114.5" y="-64" font-family="Helvetica,sans-Serif" font-size="10.00">stddef.h</text>
</a>
</g>
</g>
<!-- Node11&#45;&gt;Node12 -->
<g id="edge13_Node000011_Node000012" class="edge">
<title>Node11&#45;&gt;Node12</title>
<g id="a_edge13_Node000011_Node000012"><a xlink:title=" ">
<path fill="none" stroke="#63b8ff" d="M119.43,-113.09C118.7,-106.47 117.72,-97.47 116.82,-89.27"/>
<polygon fill="#63b8ff" stroke="#63b8ff" points="120.3,-88.89 115.73,-79.33 113.34,-89.65 120.3,-88.89"/>
</a>
</g>
</g>
<!-- Node13&#45;&gt;Node5 -->
<g id="edge16_Node000013_Node000005" class="edge">
<title>Node13&#45;&gt;Node5</title>
<g id="a_edge16_Node000013_Node000005"><a xlink:title=" ">
<path fill="none" stroke="#63b8ff" d="M263.01,-226.59C246.35,-218.22 222.12,-206.04 203.06,-196.47"/>
<polygon fill="#63b8ff" stroke="#63b8ff" points="204.68,-193.37 194.17,-192.01 201.54,-199.62 204.68,-193.37"/>
</a>
</g>
</g>
<!-- Node13&#45;&gt;Node14 -->
<g id="edge17_Node000013_Node000014" class="edge">
<title>Node13&#45;&gt;Node14</title>
<g id="a_edge17_Node000013_Node000014"><a xlink:title=" ">
<path fill="none" stroke="#63b8ff" d="M308.6,-226.59C331.85,-217.87 366.12,-205.02 392.07,-195.29"/>
<polygon fill="#63b8ff" stroke="#63b8ff" points="393.07,-198.65 401.21,-191.86 390.61,-192.09 393.07,-198.65"/>
</a>
</g>
</g>
<!-- Node14&#45;&gt;Node15 -->
<g id="edge18_Node000014_Node000015" class="edge">
<title>Node14&#45;&gt;Node15</title>
<g id="a_edge18_Node000014_Node000015"><a xlink:title=" ">
<path fill="none" stroke="#63b8ff" d="M428.5,-169.84C428.5,-163.22 428.5,-154.22 428.5,-146.02"/>
<polygon fill="#63b8ff" stroke="#63b8ff" points="432,-146.09 428.5,-136.09 425,-146.09 432,-146.09"/>
</a>
</g>
</g>
<!-- Node15&#45;&gt;Node8 -->
<g id="edge19_Node000015_Node000008" class="edge">
<title>Node15&#45;&gt;Node8</title>
<g id="a_edge19_Node000015_Node000008"><a xlink:title=" ">
<path fill="none" stroke="#63b8ff" d="M436.63,-113.06C446.95,-99.34 461.98,-74.19 449.5,-56.75 428.1,-26.84 385.79,-16.42 354.61,-12.91"/>
<polygon fill="#63b8ff" stroke="#63b8ff" points="355.06,-9.44 344.78,-12.01 354.42,-16.41 355.06,-9.44"/>
</a>
</g>
</g>
<!-- Node16 -->
<g id="Node000016" class="node">
<title>Node16</title>
<g id="a_Node000016"><a xlink:href="psa__crypto_2psa_2error_8h.html" target="_top" xlink:title="Error definitions for the PSA Crypto API.">
<polygon fill="white" stroke="#666666" points="440.75,-77.5 372.25,-77.5 372.25,-56.75 440.75,-56.75 440.75,-77.5"/>
<text text-anchor="middle" x="406.5" y="-64" font-family="Helvetica,sans-Serif" font-size="10.00">psa/error.h</text>
</a>
</g>
</g>
<!-- Node15&#45;&gt;Node16 -->
<g id="edge20_Node000015_Node000016" class="edge">
<title>Node15&#45;&gt;Node16</title>
<g id="a_edge20_Node000015_Node000016"><a xlink:title=" ">
<path fill="none" stroke="#63b8ff" d="M424.57,-113.09C421.81,-106.24 418.04,-96.84 414.65,-88.4"/>
<polygon fill="#63b8ff" stroke="#63b8ff" points="417.94,-87.21 410.96,-79.23 411.44,-89.82 417.94,-87.21"/>
</a>
</g>
</g>
<!-- Node16&#45;&gt;Node8 -->
<g id="edge21_Node000016_Node000008" class="edge">
<title>Node16&#45;&gt;Node8</title>
<g id="a_edge21_Node000016_Node000008"><a xlink:title=" ">
<path fill="none" stroke="#63b8ff" d="M390.41,-56.34C376.97,-48.16 357.57,-36.36 342.01,-26.9"/>
<polygon fill="#63b8ff" stroke="#63b8ff" points="344.11,-24.07 333.74,-21.87 340.47,-30.05 344.11,-24.07"/>
</a>
</g>
</g>
<!-- Node17&#45;&gt;Node13 -->
<g id="edge24_Node000017_Node000013" class="edge">
<title>Node17&#45;&gt;Node13</title>
<g id="a_edge24_Node000017_Node000013"><a xlink:title=" ">
<path fill="none" stroke="#63b8ff" d="M340.81,-283.34C330.61,-275.47 316.06,-264.25 304.04,-254.99"/>
<polygon fill="#63b8ff" stroke="#63b8ff" points="306.34,-252.34 296.28,-249 302.06,-257.88 306.34,-252.34"/>
</a>
</g>
</g>
<!-- Node17&#45;&gt;Node15 -->
<g id="edge23_Node000017_Node000015" class="edge">
<title>Node17&#45;&gt;Node15</title>
<g id="a_edge23_Node000017_Node000015"><a xlink:title=" ">
<path fill="none" stroke="#63b8ff" d="M352.74,-283.43C351.49,-261.62 350.99,-207.68 372.5,-170.25 379.28,-158.46 390.4,-148.49 400.95,-140.94"/>
<polygon fill="#63b8ff" stroke="#63b8ff" points="402.7,-143.98 409.08,-135.53 398.82,-138.15 402.7,-143.98"/>
</a>
</g>
</g>
<!-- Node17&#45;&gt;Node18 -->
<g id="edge25_Node000017_Node000018" class="edge">
<title>Node17&#45;&gt;Node18</title>
<g id="a_edge25_Node000017_Node000018"><a xlink:title=" ">
<path fill="none" stroke="#63b8ff" d="M308.8,-283.71C265.25,-274.54 198.84,-260.56 151.29,-250.54"/>
<polygon fill="#63b8ff" stroke="#63b8ff" points="152.23,-247.17 141.72,-248.53 150.79,-254.01 152.23,-247.17"/>
</a>
</g>
</g>
<!-- Node18&#45;&gt;Node5 -->
<g id="edge26_Node000018_Node000005" class="edge">
<title>Node18&#45;&gt;Node5</title>
<g id="a_edge26_Node000018_Node000005"><a xlink:title=" ">
<path fill="none" stroke="#63b8ff" d="M107.8,-226.59C119.52,-218.57 136.34,-207.06 150.03,-197.69"/>
<polygon fill="#63b8ff" stroke="#63b8ff" points="151.8,-200.72 158.07,-192.18 147.84,-194.94 151.8,-200.72"/>
</a>
</g>
</g>
</g>
</svg>
