<?xml version="1.0" encoding="UTF-8" standalone="no"?>
<!DOCTYPE svg PUBLIC "-//W3C//DTD SVG 1.1//EN"
 "http://www.w3.org/Graphics/SVG/1.1/DTD/svg11.dtd">
<!-- Generated by graphviz version 12.1.2 (0)
 -->
<!-- Title: sys/psa_crypto/include/psa_hashes.h Pages: 1 -->
<svg width="589pt" height="439pt"
 viewBox="0.00 0.00 588.50 438.75" xmlns="http://www.w3.org/2000/svg" xmlns:xlink="http://www.w3.org/1999/xlink">
<g id="graph0" class="graph" transform="scale(1 1) rotate(0) translate(4 434.75)">
<title>sys/psa_crypto/include/psa_hashes.h</title>
<!-- Node1 -->
<g id="Node000001" class="node">
<title>Node1</title>
<g id="a_Node000001"><a xlink:title="Function declarations for low level wrapper functions for hash operations.">
<polygon fill="#999999" stroke="#666666" points="195,-430.75 68,-430.75 68,-397.25 195,-397.25 195,-430.75"/>
<text text-anchor="start" x="76" y="-417.25" font-family="Helvetica,sans-Serif" font-size="10.00">sys/psa_crypto/include</text>
<text text-anchor="middle" x="131.5" y="-404.5" font-family="Helvetica,sans-Serif" font-size="10.00">/psa_hashes.h</text>
</a>
</g>
</g>
<!-- Node2 -->
<g id="Node000002" class="node">
<title>Node2</title>
<g id="a_Node000002"><a xlink:href="kernel__defines_8h.html" target="_top" xlink:title="Common macros and compiler attributes/pragmas configuration.">
<polygon fill="white" stroke="#666666" points="238.62,-191 142.38,-191 142.38,-170.25 238.62,-170.25 238.62,-191"/>
<text text-anchor="middle" x="190.5" y="-177.5" font-family="Helvetica,sans-Serif" font-size="10.00">kernel_defines.h</text>
</a>
</g>
</g>
<!-- Node1&#45;&gt;Node2 -->
<g id="edge1_Node000001_Node000002" class="edge">
<title>Node1&#45;&gt;Node2</title>
<g id="a_edge1_Node000001_Node000002"><a xlink:title=" ">
<path fill="none" stroke="#63b8ff" d="M134.37,-396.89C140.33,-364.4 155.02,-288.85 173.5,-227 175.99,-218.65 179.25,-209.63 182.25,-201.84"/>
<polygon fill="#63b8ff" stroke="#63b8ff" points="185.47,-203.22 185.91,-192.64 178.96,-200.64 185.47,-203.22"/>
</a>
</g>
</g>
<!-- Node10 -->
<g id="Node000010" class="node">
<title>Node10</title>
<g id="a_Node000010"><a xlink:href="crypto_8h.html" target="_top" xlink:title="Function declarations for PSA Crypto.">
<polygon fill="white" stroke="#666666" points="394.5,-361.25 318.5,-361.25 318.5,-340.5 394.5,-340.5 394.5,-361.25"/>
<text text-anchor="middle" x="356.5" y="-347.75" font-family="Helvetica,sans-Serif" font-size="10.00">psa/crypto.h</text>
</a>
</g>
</g>
<!-- Node1&#45;&gt;Node10 -->
<g id="edge12_Node000001_Node000010" class="edge">
<title>Node1&#45;&gt;Node10</title>
<g id="a_edge12_Node000001_Node000010"><a xlink:title=" ">
<path fill="none" stroke="#63b8ff" d="M191.21,-396.78C228.33,-386.7 275.37,-373.92 309.77,-364.57"/>
<polygon fill="#63b8ff" stroke="#63b8ff" points="310.27,-368.06 319,-362.06 308.43,-361.31 310.27,-368.06"/>
</a>
</g>
</g>
<!-- Node18 -->
<g id="Node000018" class="node">
<title>Node18</title>
<g id="a_Node000018"><a xlink:href="crypto__contexts_8h.html" target="_top" xlink:title="Context definitions for PSA Crypto.">
<polygon fill="white" stroke="#666666" points="292,-247.75 189,-247.75 189,-227 292,-227 292,-247.75"/>
<text text-anchor="middle" x="240.5" y="-234.25" font-family="Helvetica,sans-Serif" font-size="10.00">crypto_contexts.h</text>
</a>
</g>
</g>
<!-- Node1&#45;&gt;Node18 -->
<g id="edge30_Node000001_Node000018" class="edge">
<title>Node1&#45;&gt;Node18</title>
<g id="a_edge30_Node000001_Node000018"><a xlink:title=" ">
<path fill="none" stroke="#63b8ff" d="M137.68,-397.02C147.86,-371.71 169.72,-321.42 196.5,-283.75 203.6,-273.77 212.87,-263.86 221.07,-255.87"/>
<polygon fill="#63b8ff" stroke="#63b8ff" points="223.42,-258.47 228.3,-249.06 218.62,-253.37 223.42,-258.47"/>
</a>
</g>
</g>
<!-- Node3 -->
<g id="Node000003" class="node">
<title>Node3</title>
<g id="a_Node000003"><a xlink:href="modules_8h.html" target="_top" xlink:title="Common macros and compiler attributes/pragmas configuration.">
<polygon fill="white" stroke="#666666" points="67,-134.25 0,-134.25 0,-113.5 67,-113.5 67,-134.25"/>
<text text-anchor="middle" x="33.5" y="-120.75" font-family="Helvetica,sans-Serif" font-size="10.00">modules.h</text>
</a>
</g>
</g>
<!-- Node2&#45;&gt;Node3 -->
<g id="edge2_Node000002_Node000003" class="edge">
<title>Node2&#45;&gt;Node3</title>
<g id="a_edge2_Node000002_Node000003"><a xlink:title=" ">
<path fill="none" stroke="#63b8ff" d="M162.43,-169.84C137.28,-161.07 100.15,-148.12 72.19,-138.37"/>
<polygon fill="#63b8ff" stroke="#63b8ff" points="73.61,-135.16 63.02,-135.17 71.31,-141.77 73.61,-135.16"/>
</a>
</g>
</g>
<!-- Node4 -->
<g id="Node000004" class="node">
<title>Node4</title>
<g id="a_Node000004"><a xlink:href="riot__version_8h.html" target="_top" xlink:title="Common macros and compiler attributes/pragmas configuration.">
<polygon fill="white" stroke="#666666" points="242.88,-77.5 160.12,-77.5 160.12,-56.75 242.88,-56.75 242.88,-77.5"/>
<text text-anchor="middle" x="201.5" y="-64" font-family="Helvetica,sans-Serif" font-size="10.00">riot_version.h</text>
</a>
</g>
</g>
<!-- Node2&#45;&gt;Node4 -->
<g id="edge3_Node000002_Node000004" class="edge">
<title>Node2&#45;&gt;Node4</title>
<g id="a_edge3_Node000002_Node000004"><a xlink:title=" ">
<path fill="none" stroke="#63b8ff" d="M191.44,-170.12C193.2,-152.27 197.04,-113.36 199.43,-89.09"/>
<polygon fill="#63b8ff" stroke="#63b8ff" points="202.89,-89.73 200.38,-79.43 195.92,-89.04 202.89,-89.73"/>
</a>
</g>
</g>
<!-- Node6 -->
<g id="Node000006" class="node">
<title>Node6</title>
<g id="a_Node000006"><a xlink:href="compiler__hints_8h.html" target="_top" xlink:title="Common macros and compiler attributes/pragmas configuration.">
<polygon fill="white" stroke="#666666" points="337,-134.25 240,-134.25 240,-113.5 337,-113.5 337,-134.25"/>
<text text-anchor="middle" x="288.5" y="-120.75" font-family="Helvetica,sans-Serif" font-size="10.00">compiler_hints.h</text>
</a>
</g>
</g>
<!-- Node2&#45;&gt;Node6 -->
<g id="edge5_Node000002_Node000006" class="edge">
<title>Node2&#45;&gt;Node6</title>
<g id="a_edge5_Node000002_Node000006"><a xlink:title=" ">
<path fill="none" stroke="#63b8ff" d="M208.02,-169.84C222.79,-161.58 244.18,-149.63 261.2,-140.13"/>
<polygon fill="#63b8ff" stroke="#63b8ff" points="262.79,-143.25 269.81,-135.32 259.37,-137.14 262.79,-143.25"/>
</a>
</g>
</g>
<!-- Node8 -->
<g id="Node000008" class="node">
<title>Node8</title>
<g id="a_Node000008"><a xlink:href="container_8h.html" target="_top" xlink:title="Common macros and compiler attributes/pragmas configuration.">
<polygon fill="white" stroke="#666666" points="155.88,-134.25 85.12,-134.25 85.12,-113.5 155.88,-113.5 155.88,-134.25"/>
<text text-anchor="middle" x="120.5" y="-120.75" font-family="Helvetica,sans-Serif" font-size="10.00">container.h</text>
</a>
</g>
</g>
<!-- Node2&#45;&gt;Node8 -->
<g id="edge9_Node000002_Node000008" class="edge">
<title>Node2&#45;&gt;Node8</title>
<g id="a_edge9_Node000002_Node000008"><a xlink:title=" ">
<path fill="none" stroke="#63b8ff" d="M177.99,-169.84C167.93,-161.97 153.59,-150.75 141.74,-141.49"/>
<polygon fill="#63b8ff" stroke="#63b8ff" points="144.13,-138.91 134.1,-135.51 139.82,-144.43 144.13,-138.91"/>
</a>
</g>
</g>
<!-- Node5 -->
<g id="Node000005" class="node">
<title>Node5</title>
<g id="a_Node000005"><a xlink:title=" ">
<polygon fill="#e0e0e0" stroke="#999999" points="342.88,-20.75 290.12,-20.75 290.12,0 342.88,0 342.88,-20.75"/>
<text text-anchor="middle" x="316.5" y="-7.25" font-family="Helvetica,sans-Serif" font-size="10.00">stdint.h</text>
</a>
</g>
</g>
<!-- Node4&#45;&gt;Node5 -->
<g id="edge4_Node000004_Node000005" class="edge">
<title>Node4&#45;&gt;Node5</title>
<g id="a_edge4_Node000004_Node000005"><a xlink:title=" ">
<path fill="none" stroke="#63b8ff" d="M222.06,-56.34C239.8,-47.89 265.68,-35.57 285.87,-25.96"/>
<polygon fill="#63b8ff" stroke="#63b8ff" points="287.23,-29.19 294.75,-21.73 284.22,-22.87 287.23,-29.19"/>
</a>
</g>
</g>
<!-- Node6&#45;&gt;Node5 -->
<g id="edge8_Node000006_Node000005" class="edge">
<title>Node6&#45;&gt;Node5</title>
<g id="a_edge8_Node000006_Node000005"><a xlink:title=" ">
<path fill="none" stroke="#63b8ff" d="M300.01,-113.03C308.88,-104.62 320.45,-91.67 325.5,-77.5 330.74,-62.79 327.97,-45.25 324.17,-31.93"/>
<polygon fill="#63b8ff" stroke="#63b8ff" points="327.52,-30.92 321.07,-22.52 320.87,-33.11 327.52,-30.92"/>
</a>
</g>
</g>
<!-- Node7 -->
<g id="Node000007" class="node">
<title>Node7</title>
<g id="a_Node000007"><a xlink:href="assert_8h.html" target="_top" xlink:title="POSIX.1&#45;2008 compliant version of the assert macro.">
<polygon fill="white" stroke="#666666" points="316,-77.5 261,-77.5 261,-56.75 316,-56.75 316,-77.5"/>
<text text-anchor="middle" x="288.5" y="-64" font-family="Helvetica,sans-Serif" font-size="10.00">assert.h</text>
</a>
</g>
</g>
<!-- Node6&#45;&gt;Node7 -->
<g id="edge6_Node000006_Node000007" class="edge">
<title>Node6&#45;&gt;Node7</title>
<g id="a_edge6_Node000006_Node000007"><a xlink:title=" ">
<path fill="none" stroke="#63b8ff" d="M288.5,-113.09C288.5,-106.47 288.5,-97.47 288.5,-89.27"/>
<polygon fill="#63b8ff" stroke="#63b8ff" points="292,-89.34 288.5,-79.34 285,-89.34 292,-89.34"/>
</a>
</g>
</g>
<!-- Node7&#45;&gt;Node5 -->
<g id="edge7_Node000007_Node000005" class="edge">
<title>Node7&#45;&gt;Node5</title>
<g id="a_edge7_Node000007_Node000005"><a xlink:title=" ">
<path fill="none" stroke="#63b8ff" d="M293.51,-56.34C297.09,-49.33 302.04,-39.66 306.42,-31.08"/>
<polygon fill="#63b8ff" stroke="#63b8ff" points="309.41,-32.92 310.85,-22.43 303.18,-29.74 309.41,-32.92"/>
</a>
</g>
</g>
<!-- Node8&#45;&gt;Node5 -->
<g id="edge11_Node000008_Node000005" class="edge">
<title>Node8&#45;&gt;Node5</title>
<g id="a_edge11_Node000008_Node000005"><a xlink:title=" ">
<path fill="none" stroke="#63b8ff" d="M106.33,-113.2C88.52,-99.88 62.04,-75.42 77.5,-56.75 102.56,-26.48 217.48,-16.24 278.37,-12.91"/>
<polygon fill="#63b8ff" stroke="#63b8ff" points="278.47,-16.41 288.28,-12.4 278.11,-9.42 278.47,-16.41"/>
</a>
</g>
</g>
<!-- Node9 -->
<g id="Node000009" class="node">
<title>Node9</title>
<g id="a_Node000009"><a xlink:title=" ">
<polygon fill="#e0e0e0" stroke="#999999" points="142,-77.5 87,-77.5 87,-56.75 142,-56.75 142,-77.5"/>
<text text-anchor="middle" x="114.5" y="-64" font-family="Helvetica,sans-Serif" font-size="10.00">stddef.h</text>
</a>
</g>
</g>
<!-- Node8&#45;&gt;Node9 -->
<g id="edge10_Node000008_Node000009" class="edge">
<title>Node8&#45;&gt;Node9</title>
<g id="a_edge10_Node000008_Node000009"><a xlink:title=" ">
<path fill="none" stroke="#63b8ff" d="M119.43,-113.09C118.7,-106.47 117.72,-97.47 116.82,-89.27"/>
<polygon fill="#63b8ff" stroke="#63b8ff" points="120.3,-88.89 115.73,-79.33 113.34,-89.65 120.3,-88.89"/>
</a>
</g>
</g>
<!-- Node10&#45;&gt;Node2 -->
<g id="edge15_Node000010_Node000002" class="edge">
<title>Node10&#45;&gt;Node2</title>
<g id="a_edge15_Node000010_Node000002"><a xlink:title=" ">
<path fill="none" stroke="#63b8ff" d="M318.28,-349.21C282.13,-346.5 228.73,-336.78 196.5,-304.5 169.93,-277.89 177.07,-229.78 184.12,-202.31"/>
<polygon fill="#63b8ff" stroke="#63b8ff" points="187.46,-203.33 186.81,-192.76 180.73,-201.43 187.46,-203.33"/>
</a>
</g>
</g>
<!-- Node11 -->
<g id="Node000011" class="node">
<title>Node11</title>
<g id="a_Node000011"><a xlink:title=" ">
<polygon fill="#e0e0e0" stroke="#999999" points="580.5,-304.5 528.5,-304.5 528.5,-283.75 580.5,-283.75 580.5,-304.5"/>
<text text-anchor="middle" x="554.5" y="-291" font-family="Helvetica,sans-Serif" font-size="10.00">stdlib.h</text>
</a>
</g>
</g>
<!-- Node10&#45;&gt;Node11 -->
<g id="edge13_Node000010_Node000011" class="edge">
<title>Node10&#45;&gt;Node11</title>
<g id="a_edge13_Node000010_Node000011"><a xlink:title=" ">
<path fill="none" stroke="#63b8ff" d="M391.9,-340.09C427.23,-330.32 481.3,-315.37 517.26,-305.42"/>
<polygon fill="#63b8ff" stroke="#63b8ff" points="518.09,-308.82 526.8,-302.78 516.23,-302.08 518.09,-308.82"/>
</a>
</g>
</g>
<!-- Node12 -->
<g id="Node000012" class="node">
<title>Node12</title>
<g id="a_Node000012"><a xlink:title=" ">
<polygon fill="#e0e0e0" stroke="#999999" points="257.88,-304.5 205.12,-304.5 205.12,-283.75 257.88,-283.75 257.88,-304.5"/>
<text text-anchor="middle" x="231.5" y="-291" font-family="Helvetica,sans-Serif" font-size="10.00">string.h</text>
</a>
</g>
</g>
<!-- Node10&#45;&gt;Node12 -->
<g id="edge14_Node000010_Node000012" class="edge">
<title>Node10&#45;&gt;Node12</title>
<g id="a_edge14_Node000010_Node000012"><a xlink:title=" ">
<path fill="none" stroke="#63b8ff" d="M334.15,-340.09C314.69,-331.56 286.21,-319.09 264.19,-309.44"/>
<polygon fill="#63b8ff" stroke="#63b8ff" points="265.6,-306.24 255.04,-305.44 262.8,-312.65 265.6,-306.24"/>
</a>
</g>
</g>
<!-- Node13 -->
<g id="Node000013" class="node">
<title>Node13</title>
<g id="a_Node000013"><a xlink:href="crypto__sizes_8h.html" target="_top" xlink:title="Size definitions for PSA Crypto.">
<polygon fill="white" stroke="#666666" points="434.38,-247.75 348.62,-247.75 348.62,-227 434.38,-227 434.38,-247.75"/>
<text text-anchor="middle" x="391.5" y="-234.25" font-family="Helvetica,sans-Serif" font-size="10.00">crypto_sizes.h</text>
</a>
</g>
</g>
<!-- Node10&#45;&gt;Node13 -->
<g id="edge16_Node000010_Node000013" class="edge">
<title>Node10&#45;&gt;Node13</title>
<g id="a_edge16_Node000010_Node000013"><a xlink:title=" ">
<path fill="none" stroke="#63b8ff" d="M360.41,-340.23C364.04,-331.11 369.47,-316.99 373.5,-304.5 378.37,-289.4 383.05,-272.08 386.42,-258.96"/>
<polygon fill="#63b8ff" stroke="#63b8ff" points="389.8,-259.89 388.84,-249.34 383.01,-258.19 389.8,-259.89"/>
</a>
</g>
</g>
<!-- Node14 -->
<g id="Node000014" class="node">
<title>Node14</title>
<g id="a_Node000014"><a xlink:href="crypto__values_8h.html" target="_top" xlink:title="Value definitions for PSA Crypto.">
<polygon fill="white" stroke="#666666" points="457.12,-191 363.88,-191 363.88,-170.25 457.12,-170.25 457.12,-191"/>
<text text-anchor="middle" x="410.5" y="-177.5" font-family="Helvetica,sans-Serif" font-size="10.00">crypto_values.h</text>
</a>
</g>
</g>
<!-- Node10&#45;&gt;Node14 -->
<g id="edge28_Node000010_Node000014" class="edge">
<title>Node10&#45;&gt;Node14</title>
<g id="a_edge28_Node000010_Node000014"><a xlink:title=" ">
<path fill="none" stroke="#63b8ff" d="M369.1,-340.26C389.39,-323.89 428.53,-288.4 443.5,-247.75 449.71,-230.89 439.25,-212.69 428.51,-199.66"/>
<polygon fill="#63b8ff" stroke="#63b8ff" points="431.17,-197.39 421.88,-192.31 425.97,-202.08 431.17,-197.39"/>
</a>
</g>
</g>
<!-- Node15 -->
<g id="Node000015" class="node">
<title>Node15</title>
<g id="a_Node000015"><a xlink:href="crypto__types_8h.html" target="_top" xlink:title="Type definitions for PSA Crypto.">
<polygon fill="white" stroke="#666666" points="454.5,-134.25 366.5,-134.25 366.5,-113.5 454.5,-113.5 454.5,-134.25"/>
<text text-anchor="middle" x="410.5" y="-120.75" font-family="Helvetica,sans-Serif" font-size="10.00">crypto_types.h</text>
</a>
</g>
</g>
<!-- Node10&#45;&gt;Node15 -->
<g id="edge29_Node000010_Node000015" class="edge">
<title>Node10&#45;&gt;Node15</title>
<g id="a_edge29_Node000010_Node000015"><a xlink:title=" ">
<path fill="none" stroke="#63b8ff" d="M378.84,-340.01C394.56,-332.18 415.26,-319.99 429.5,-304.5 448.67,-283.65 449.96,-274.76 458.5,-247.75 468.94,-214.73 481.4,-201.51 466.5,-170.25 460.73,-158.14 449.97,-148.22 439.42,-140.77"/>
<polygon fill="#63b8ff" stroke="#63b8ff" points="441.5,-137.95 431.2,-135.46 437.7,-143.83 441.5,-137.95"/>
</a>
</g>
</g>
<!-- Node17 -->
<g id="Node000017" class="node">
<title>Node17</title>
<g id="a_Node000017"><a xlink:href="crypto__struct_8h.html" target="_top" xlink:title="Structure definitions for PSA Crypto.">
<polygon fill="white" stroke="#666666" points="364.88,-304.5 276.12,-304.5 276.12,-283.75 364.88,-283.75 364.88,-304.5"/>
<text text-anchor="middle" x="320.5" y="-291" font-family="Helvetica,sans-Serif" font-size="10.00">crypto_struct.h</text>
</a>
</g>
</g>
<!-- Node10&#45;&gt;Node17 -->
<g id="edge23_Node000010_Node000017" class="edge">
<title>Node10&#45;&gt;Node17</title>
<g id="a_edge23_Node000010_Node000017"><a xlink:title=" ">
<path fill="none" stroke="#63b8ff" d="M350.06,-340.09C345.35,-332.92 338.81,-322.98 333.08,-314.26"/>
<polygon fill="#63b8ff" stroke="#63b8ff" points="336.13,-312.53 327.71,-306.09 330.28,-316.37 336.13,-312.53"/>
</a>
</g>
</g>
<!-- Node13&#45;&gt;Node2 -->
<g id="edge17_Node000013_Node000002" class="edge">
<title>Node13&#45;&gt;Node2</title>
<g id="a_edge17_Node000013_Node000002"><a xlink:title=" ">
<path fill="none" stroke="#63b8ff" d="M355.57,-226.59C322.51,-217.58 273.3,-204.18 237.21,-194.35"/>
<polygon fill="#63b8ff" stroke="#63b8ff" points="238.49,-191.07 227.92,-191.82 236.65,-197.82 238.49,-191.07"/>
</a>
</g>
</g>
<!-- Node13&#45;&gt;Node14 -->
<g id="edge18_Node000013_Node000014" class="edge">
<title>Node13&#45;&gt;Node14</title>
<g id="a_edge18_Node000013_Node000014"><a xlink:title=" ">
<path fill="none" stroke="#63b8ff" d="M394.9,-226.59C397.25,-219.81 400.46,-210.55 403.36,-202.19"/>
<polygon fill="#63b8ff" stroke="#63b8ff" points="406.66,-203.35 406.64,-192.76 400.05,-201.06 406.66,-203.35"/>
</a>
</g>
</g>
<!-- Node14&#45;&gt;Node15 -->
<g id="edge19_Node000014_Node000015" class="edge">
<title>Node14&#45;&gt;Node15</title>
<g id="a_edge19_Node000014_Node000015"><a xlink:title=" ">
<path fill="none" stroke="#63b8ff" d="M410.5,-169.84C410.5,-163.22 410.5,-154.22 410.5,-146.02"/>
<polygon fill="#63b8ff" stroke="#63b8ff" points="414,-146.09 410.5,-136.09 407,-146.09 414,-146.09"/>
</a>
</g>
</g>
<!-- Node15&#45;&gt;Node5 -->
<g id="edge20_Node000015_Node000005" class="edge">
<title>Node15&#45;&gt;Node5</title>
<g id="a_edge20_Node000015_Node000005"><a xlink:title=" ">
<path fill="none" stroke="#63b8ff" d="M423.54,-113.13C439.6,-99.93 463.15,-75.83 449.5,-56.75 428.1,-26.84 385.79,-16.42 354.61,-12.91"/>
<polygon fill="#63b8ff" stroke="#63b8ff" points="355.06,-9.44 344.78,-12.01 354.42,-16.41 355.06,-9.44"/>
</a>
</g>
</g>
<!-- Node16 -->
<g id="Node000016" class="node">
<title>Node16</title>
<g id="a_Node000016"><a xlink:href="psa__crypto_2psa_2error_8h.html" target="_top" xlink:title="Error definitions for the PSA Crypto API.">
<polygon fill="white" stroke="#666666" points="440.75,-77.5 372.25,-77.5 372.25,-56.75 440.75,-56.75 440.75,-77.5"/>
<text text-anchor="middle" x="406.5" y="-64" font-family="Helvetica,sans-Serif" font-size="10.00">psa/error.h</text>
</a>
</g>
</g>
<!-- Node15&#45;&gt;Node16 -->
<g id="edge21_Node000015_Node000016" class="edge">
<title>Node15&#45;&gt;Node16</title>
<g id="a_edge21_Node000015_Node000016"><a xlink:title=" ">
<path fill="none" stroke="#63b8ff" d="M409.78,-113.09C409.3,-106.47 408.64,-97.47 408.04,-89.27"/>
<polygon fill="#63b8ff" stroke="#63b8ff" points="411.54,-89.06 407.32,-79.34 404.56,-89.57 411.54,-89.06"/>
</a>
</g>
</g>
<!-- Node16&#45;&gt;Node5 -->
<g id="edge22_Node000016_Node000005" class="edge">
<title>Node16&#45;&gt;Node5</title>
<g id="a_edge22_Node000016_Node000005"><a xlink:title=" ">
<path fill="none" stroke="#63b8ff" d="M390.41,-56.34C376.97,-48.16 357.57,-36.36 342.01,-26.9"/>
<polygon fill="#63b8ff" stroke="#63b8ff" points="344.11,-24.07 333.74,-21.87 340.47,-30.05 344.11,-24.07"/>
</a>
</g>
</g>
<!-- Node17&#45;&gt;Node13 -->
<g id="edge25_Node000017_Node000013" class="edge">
<title>Node17&#45;&gt;Node13</title>
<g id="a_edge25_Node000017_Node000013"><a xlink:title=" ">
<path fill="none" stroke="#63b8ff" d="M333.19,-283.34C343.39,-275.47 357.94,-264.25 369.96,-254.99"/>
<polygon fill="#63b8ff" stroke="#63b8ff" points="371.94,-257.88 377.72,-249 367.66,-252.34 371.94,-257.88"/>
</a>
</g>
</g>
<!-- Node17&#45;&gt;Node15 -->
<g id="edge24_Node000017_Node000015" class="edge">
<title>Node17&#45;&gt;Node15</title>
<g id="a_edge24_Node000017_Node000015"><a xlink:title=" ">
<path fill="none" stroke="#63b8ff" d="M321.19,-283.37C323.14,-261.45 330.24,-207.28 354.5,-170.25 362.06,-158.71 373.49,-148.69 384.06,-141.03"/>
<polygon fill="#63b8ff" stroke="#63b8ff" points="385.85,-144.05 392.14,-135.53 381.91,-138.26 385.85,-144.05"/>
</a>
</g>
</g>
<!-- Node17&#45;&gt;Node18 -->
<g id="edge26_Node000017_Node000018" class="edge">
<title>Node17&#45;&gt;Node18</title>
<g id="a_edge26_Node000017_Node000018"><a xlink:title=" ">
<path fill="none" stroke="#63b8ff" d="M306.2,-283.34C294.48,-275.32 277.66,-263.81 263.97,-254.44"/>
<polygon fill="#63b8ff" stroke="#63b8ff" points="266.16,-251.69 255.93,-248.93 262.2,-257.47 266.16,-251.69"/>
</a>
</g>
</g>
<!-- Node18&#45;&gt;Node2 -->
<g id="edge27_Node000018_Node000002" class="edge">
<title>Node18&#45;&gt;Node2</title>
<g id="a_edge27_Node000018_Node000002"><a xlink:title=" ">
<path fill="none" stroke="#63b8ff" d="M231.56,-226.59C224.74,-219.11 215.14,-208.61 206.94,-199.63"/>
<polygon fill="#63b8ff" stroke="#63b8ff" points="209.71,-197.47 200.38,-192.45 204.54,-202.19 209.71,-197.47"/>
</a>
</g>
</g>
</g>
</svg>
