<?xml version="1.0" encoding="UTF-8" standalone="no"?>
<!DOCTYPE svg PUBLIC "-//W3C//DTD SVG 1.1//EN"
 "http://www.w3.org/Graphics/SVG/1.1/DTD/svg11.dtd">
<!-- Generated by graphviz version 12.1.2 (0)
 -->
<!-- Title: sys/psa_crypto/include/psa_crypto_location_dispatch.h Pages: 1 -->
<svg width="580pt" height="439pt"
 viewBox="0.00 0.00 579.75 438.75" xmlns="http://www.w3.org/2000/svg" xmlns:xlink="http://www.w3.org/1999/xlink">
<g id="graph0" class="graph" transform="scale(1 1) rotate(0) translate(4 434.75)">
<title>sys/psa_crypto/include/psa_crypto_location_dispatch.h</title>
<!-- Node1 -->
<g id="Node000001" class="node">
<title>Node1</title>
<g id="a_Node000001"><a xlink:title="Function declarations for the PSA Crypto location dispatcher.">
<polygon fill="#999999" stroke="#666666" points="218.38,-430.75 46.38,-430.75 46.38,-397.25 218.38,-397.25 218.38,-430.75"/>
<text text-anchor="start" x="54.38" y="-417.25" font-family="Helvetica,sans-Serif" font-size="10.00">sys/psa_crypto/include</text>
<text text-anchor="middle" x="132.38" y="-404.5" font-family="Helvetica,sans-Serif" font-size="10.00">/psa_crypto_location_dispatch.h</text>
</a>
</g>
</g>
<!-- Node2 -->
<g id="Node000002" class="node">
<title>Node2</title>
<g id="a_Node000002"><a xlink:title=" ">
<polygon fill="#e0e0e0" stroke="#999999" points="158.38,-304.5 106.38,-304.5 106.38,-283.75 158.38,-283.75 158.38,-304.5"/>
<text text-anchor="middle" x="132.38" y="-291" font-family="Helvetica,sans-Serif" font-size="10.00">stdlib.h</text>
</a>
</g>
</g>
<!-- Node1&#45;&gt;Node2 -->
<g id="edge1_Node000001_Node000002" class="edge">
<title>Node1&#45;&gt;Node2</title>
<g id="a_edge1_Node000001_Node000002"><a xlink:title=" ">
<path fill="none" stroke="#63b8ff" d="M132.38,-397.1C132.38,-376.21 132.38,-339.46 132.38,-316.25"/>
<polygon fill="#63b8ff" stroke="#63b8ff" points="135.88,-316.45 132.38,-306.45 128.88,-316.45 135.88,-316.45"/>
</a>
</g>
</g>
<!-- Node3 -->
<g id="Node000003" class="node">
<title>Node3</title>
<g id="a_Node000003"><a xlink:href="kernel__defines_8h.html" target="_top" xlink:title="Common macros and compiler attributes/pragmas configuration.">
<polygon fill="white" stroke="#666666" points="232.5,-191 136.25,-191 136.25,-170.25 232.5,-170.25 232.5,-191"/>
<text text-anchor="middle" x="184.38" y="-177.5" font-family="Helvetica,sans-Serif" font-size="10.00">kernel_defines.h</text>
</a>
</g>
</g>
<!-- Node1&#45;&gt;Node3 -->
<g id="edge2_Node000001_Node000003" class="edge">
<title>Node1&#45;&gt;Node3</title>
<g id="a_edge2_Node000001_Node000003"><a xlink:title=" ">
<path fill="none" stroke="#63b8ff" d="M121.63,-396.8C106.61,-372.03 82.76,-323.45 97.38,-283.75 110.41,-248.34 141.8,-216.84 163.08,-198.49"/>
<polygon fill="#63b8ff" stroke="#63b8ff" points="165.18,-201.3 170.61,-192.21 160.69,-195.93 165.18,-201.3"/>
</a>
</g>
</g>
<!-- Node11 -->
<g id="Node000011" class="node">
<title>Node11</title>
<g id="a_Node000011"><a xlink:href="crypto_8h.html" target="_top" xlink:title="Function declarations for PSA Crypto.">
<polygon fill="white" stroke="#666666" points="384.38,-361.25 308.38,-361.25 308.38,-340.5 384.38,-340.5 384.38,-361.25"/>
<text text-anchor="middle" x="346.38" y="-347.75" font-family="Helvetica,sans-Serif" font-size="10.00">psa/crypto.h</text>
</a>
</g>
</g>
<!-- Node1&#45;&gt;Node11 -->
<g id="edge13_Node000001_Node000011" class="edge">
<title>Node1&#45;&gt;Node11</title>
<g id="a_edge13_Node000001_Node000011"><a xlink:title=" ">
<path fill="none" stroke="#63b8ff" d="M189.16,-396.78C224.16,-386.78 268.44,-374.14 301.07,-364.81"/>
<polygon fill="#63b8ff" stroke="#63b8ff" points="301.99,-368.19 310.64,-362.08 300.07,-361.46 301.99,-368.19"/>
</a>
</g>
</g>
<!-- Node4 -->
<g id="Node000004" class="node">
<title>Node4</title>
<g id="a_Node000004"><a xlink:href="modules_8h.html" target="_top" xlink:title="Common macros and compiler attributes/pragmas configuration.">
<polygon fill="white" stroke="#666666" points="126.88,-134.25 59.88,-134.25 59.88,-113.5 126.88,-113.5 126.88,-134.25"/>
<text text-anchor="middle" x="93.38" y="-120.75" font-family="Helvetica,sans-Serif" font-size="10.00">modules.h</text>
</a>
</g>
</g>
<!-- Node3&#45;&gt;Node4 -->
<g id="edge3_Node000003_Node000004" class="edge">
<title>Node3&#45;&gt;Node4</title>
<g id="a_edge3_Node000003_Node000004"><a xlink:title=" ">
<path fill="none" stroke="#63b8ff" d="M168.11,-169.84C154.52,-161.66 134.9,-149.86 119.17,-140.4"/>
<polygon fill="#63b8ff" stroke="#63b8ff" points="121.17,-137.52 110.8,-135.36 117.56,-143.51 121.17,-137.52"/>
</a>
</g>
</g>
<!-- Node5 -->
<g id="Node000005" class="node">
<title>Node5</title>
<g id="a_Node000005"><a xlink:href="riot__version_8h.html" target="_top" xlink:title="Common macros and compiler attributes/pragmas configuration.">
<polygon fill="white" stroke="#666666" points="82.75,-77.5 0,-77.5 0,-56.75 82.75,-56.75 82.75,-77.5"/>
<text text-anchor="middle" x="41.38" y="-64" font-family="Helvetica,sans-Serif" font-size="10.00">riot_version.h</text>
</a>
</g>
</g>
<!-- Node3&#45;&gt;Node5 -->
<g id="edge4_Node000003_Node000005" class="edge">
<title>Node3&#45;&gt;Node5</title>
<g id="a_edge4_Node000003_Node000005"><a xlink:title=" ">
<path fill="none" stroke="#63b8ff" d="M136.02,-175.77C106.79,-170.8 71.24,-159.54 50.38,-134.25 40.11,-121.81 38.35,-103.34 38.88,-89.08"/>
<polygon fill="#63b8ff" stroke="#63b8ff" points="42.34,-89.65 39.65,-79.4 35.36,-89.09 42.34,-89.65"/>
</a>
</g>
</g>
<!-- Node7 -->
<g id="Node000007" class="node">
<title>Node7</title>
<g id="a_Node000007"><a xlink:href="compiler__hints_8h.html" target="_top" xlink:title="Common macros and compiler attributes/pragmas configuration.">
<polygon fill="white" stroke="#666666" points="241.88,-134.25 144.88,-134.25 144.88,-113.5 241.88,-113.5 241.88,-134.25"/>
<text text-anchor="middle" x="193.38" y="-120.75" font-family="Helvetica,sans-Serif" font-size="10.00">compiler_hints.h</text>
</a>
</g>
</g>
<!-- Node3&#45;&gt;Node7 -->
<g id="edge6_Node000003_Node000007" class="edge">
<title>Node3&#45;&gt;Node7</title>
<g id="a_edge6_Node000003_Node000007"><a xlink:title=" ">
<path fill="none" stroke="#63b8ff" d="M185.98,-169.84C187.08,-163.14 188.59,-154.01 189.95,-145.73"/>
<polygon fill="#63b8ff" stroke="#63b8ff" points="193.37,-146.51 191.53,-136.07 186.46,-145.37 193.37,-146.51"/>
</a>
</g>
</g>
<!-- Node9 -->
<g id="Node000009" class="node">
<title>Node9</title>
<g id="a_Node000009"><a xlink:href="container_8h.html" target="_top" xlink:title="Common macros and compiler attributes/pragmas configuration.">
<polygon fill="white" stroke="#666666" points="330.75,-134.25 260,-134.25 260,-113.5 330.75,-113.5 330.75,-134.25"/>
<text text-anchor="middle" x="295.38" y="-120.75" font-family="Helvetica,sans-Serif" font-size="10.00">container.h</text>
</a>
</g>
</g>
<!-- Node3&#45;&gt;Node9 -->
<g id="edge10_Node000003_Node000009" class="edge">
<title>Node3&#45;&gt;Node9</title>
<g id="a_edge10_Node000003_Node000009"><a xlink:title=" ">
<path fill="none" stroke="#63b8ff" d="M204.22,-169.84C221.27,-161.43 246.1,-149.18 265.54,-139.59"/>
<polygon fill="#63b8ff" stroke="#63b8ff" points="266.92,-142.81 274.34,-135.25 263.83,-136.53 266.92,-142.81"/>
</a>
</g>
</g>
<!-- Node6 -->
<g id="Node000006" class="node">
<title>Node6</title>
<g id="a_Node000006"><a xlink:title=" ">
<polygon fill="#e0e0e0" stroke="#999999" points="275.75,-20.75 223,-20.75 223,0 275.75,0 275.75,-20.75"/>
<text text-anchor="middle" x="249.38" y="-7.25" font-family="Helvetica,sans-Serif" font-size="10.00">stdint.h</text>
</a>
</g>
</g>
<!-- Node5&#45;&gt;Node6 -->
<g id="edge5_Node000005_Node000006" class="edge">
<title>Node5&#45;&gt;Node6</title>
<g id="a_edge5_Node000005_Node000006"><a xlink:title=" ">
<path fill="none" stroke="#63b8ff" d="M78.56,-56.34C116.15,-46.44 173.95,-31.23 211.71,-21.29"/>
<polygon fill="#63b8ff" stroke="#63b8ff" points="212.5,-24.7 221.28,-18.77 210.72,-17.93 212.5,-24.7"/>
</a>
</g>
</g>
<!-- Node7&#45;&gt;Node6 -->
<g id="edge9_Node000007_Node000006" class="edge">
<title>Node7&#45;&gt;Node6</title>
<g id="a_edge9_Node000007_Node000006"><a xlink:title=" ">
<path fill="none" stroke="#63b8ff" d="M195.15,-113.02C197.8,-99.69 203.59,-75.45 213.38,-56.75 218.47,-47.02 225.77,-37.33 232.47,-29.42"/>
<polygon fill="#63b8ff" stroke="#63b8ff" points="234.87,-31.99 238.88,-22.18 229.63,-27.34 234.87,-31.99"/>
</a>
</g>
</g>
<!-- Node8 -->
<g id="Node000008" class="node">
<title>Node8</title>
<g id="a_Node000008"><a xlink:href="assert_8h.html" target="_top" xlink:title="POSIX.1&#45;2008 compliant version of the assert macro.">
<polygon fill="white" stroke="#666666" points="164.88,-77.5 109.88,-77.5 109.88,-56.75 164.88,-56.75 164.88,-77.5"/>
<text text-anchor="middle" x="137.38" y="-64" font-family="Helvetica,sans-Serif" font-size="10.00">assert.h</text>
</a>
</g>
</g>
<!-- Node7&#45;&gt;Node8 -->
<g id="edge7_Node000007_Node000008" class="edge">
<title>Node7&#45;&gt;Node8</title>
<g id="a_edge7_Node000007_Node000008"><a xlink:title=" ">
<path fill="none" stroke="#63b8ff" d="M183.36,-113.09C175.64,-105.53 164.75,-94.89 155.5,-85.85"/>
<polygon fill="#63b8ff" stroke="#63b8ff" points="157.98,-83.37 148.38,-78.89 153.09,-88.38 157.98,-83.37"/>
</a>
</g>
</g>
<!-- Node8&#45;&gt;Node6 -->
<g id="edge8_Node000008_Node000006" class="edge">
<title>Node8&#45;&gt;Node6</title>
<g id="a_edge8_Node000008_Node000006"><a xlink:title=" ">
<path fill="none" stroke="#63b8ff" d="M157.4,-56.34C174.6,-47.93 199.65,-35.68 219.27,-26.09"/>
<polygon fill="#63b8ff" stroke="#63b8ff" points="220.72,-29.28 228.17,-21.74 217.64,-22.99 220.72,-29.28"/>
</a>
</g>
</g>
<!-- Node9&#45;&gt;Node6 -->
<g id="edge12_Node000009_Node000006" class="edge">
<title>Node9&#45;&gt;Node6</title>
<g id="a_edge12_Node000009_Node000006"><a xlink:title=" ">
<path fill="none" stroke="#63b8ff" d="M295.67,-113.02C295.71,-99.69 294.5,-75.45 286.38,-56.75 282.01,-46.7 274.76,-37.07 267.83,-29.28"/>
<polygon fill="#63b8ff" stroke="#63b8ff" points="270.5,-27.01 261.07,-22.17 265.43,-31.83 270.5,-27.01"/>
</a>
</g>
</g>
<!-- Node10 -->
<g id="Node000010" class="node">
<title>Node10</title>
<g id="a_Node000010"><a xlink:title=" ">
<polygon fill="#e0e0e0" stroke="#999999" points="276.88,-77.5 221.88,-77.5 221.88,-56.75 276.88,-56.75 276.88,-77.5"/>
<text text-anchor="middle" x="249.38" y="-64" font-family="Helvetica,sans-Serif" font-size="10.00">stddef.h</text>
</a>
</g>
</g>
<!-- Node9&#45;&gt;Node10 -->
<g id="edge11_Node000009_Node000010" class="edge">
<title>Node9&#45;&gt;Node10</title>
<g id="a_edge11_Node000009_Node000010"><a xlink:title=" ">
<path fill="none" stroke="#63b8ff" d="M287.15,-113.09C280.94,-105.69 272.23,-95.32 264.74,-86.41"/>
<polygon fill="#63b8ff" stroke="#63b8ff" points="267.61,-84.39 258.5,-78.99 262.25,-88.9 267.61,-84.39"/>
</a>
</g>
</g>
<!-- Node11&#45;&gt;Node2 -->
<g id="edge14_Node000011_Node000002" class="edge">
<title>Node11&#45;&gt;Node2</title>
<g id="a_edge14_Node000011_Node000002"><a xlink:title=" ">
<path fill="none" stroke="#63b8ff" d="M308.12,-340.09C268.94,-330.06 208.45,-314.59 169.64,-304.66"/>
<polygon fill="#63b8ff" stroke="#63b8ff" points="170.85,-301.36 160.29,-302.27 169.11,-308.14 170.85,-301.36"/>
</a>
</g>
</g>
<!-- Node11&#45;&gt;Node3 -->
<g id="edge16_Node000011_Node000003" class="edge">
<title>Node11&#45;&gt;Node3</title>
<g id="a_edge16_Node000011_Node000003"><a xlink:title=" ">
<path fill="none" stroke="#63b8ff" d="M308.1,-340.3C265.6,-327.34 199.3,-299.63 171.38,-247.75 163.66,-233.42 168.17,-215.15 173.89,-201.44"/>
<polygon fill="#63b8ff" stroke="#63b8ff" points="176.98,-203.1 178.09,-192.56 170.65,-200.1 176.98,-203.1"/>
</a>
</g>
</g>
<!-- Node12 -->
<g id="Node000012" class="node">
<title>Node12</title>
<g id="a_Node000012"><a xlink:title=" ">
<polygon fill="#e0e0e0" stroke="#999999" points="571.75,-304.5 519,-304.5 519,-283.75 571.75,-283.75 571.75,-304.5"/>
<text text-anchor="middle" x="545.38" y="-291" font-family="Helvetica,sans-Serif" font-size="10.00">string.h</text>
</a>
</g>
</g>
<!-- Node11&#45;&gt;Node12 -->
<g id="edge15_Node000011_Node000012" class="edge">
<title>Node11&#45;&gt;Node12</title>
<g id="a_edge15_Node000011_Node000012"><a xlink:title=" ">
<path fill="none" stroke="#63b8ff" d="M381.95,-340.09C417.36,-330.35 471.5,-315.45 507.64,-305.51"/>
<polygon fill="#63b8ff" stroke="#63b8ff" points="508.53,-308.89 517.24,-302.87 506.67,-302.14 508.53,-308.89"/>
</a>
</g>
</g>
<!-- Node13 -->
<g id="Node000013" class="node">
<title>Node13</title>
<g id="a_Node000013"><a xlink:href="crypto__sizes_8h.html" target="_top" xlink:title="Size definitions for PSA Crypto.">
<polygon fill="white" stroke="#666666" points="425.25,-247.75 339.5,-247.75 339.5,-227 425.25,-227 425.25,-247.75"/>
<text text-anchor="middle" x="382.38" y="-234.25" font-family="Helvetica,sans-Serif" font-size="10.00">crypto_sizes.h</text>
</a>
</g>
</g>
<!-- Node11&#45;&gt;Node13 -->
<g id="edge17_Node000011_Node000013" class="edge">
<title>Node11&#45;&gt;Node13</title>
<g id="a_edge17_Node000011_Node000013"><a xlink:title=" ">
<path fill="none" stroke="#63b8ff" d="M350.25,-340.22C353.85,-331.08 359.26,-316.96 363.38,-304.5 368.37,-289.37 373.32,-272.06 376.91,-258.94"/>
<polygon fill="#63b8ff" stroke="#63b8ff" points="380.28,-259.89 379.51,-249.33 373.52,-258.07 380.28,-259.89"/>
</a>
</g>
</g>
<!-- Node14 -->
<g id="Node000014" class="node">
<title>Node14</title>
<g id="a_Node000014"><a xlink:href="crypto__values_8h.html" target="_top" xlink:title="Value definitions for PSA Crypto.">
<polygon fill="white" stroke="#666666" points="455,-191 361.75,-191 361.75,-170.25 455,-170.25 455,-191"/>
<text text-anchor="middle" x="408.38" y="-177.5" font-family="Helvetica,sans-Serif" font-size="10.00">crypto_values.h</text>
</a>
</g>
</g>
<!-- Node11&#45;&gt;Node14 -->
<g id="edge29_Node000011_Node000014" class="edge">
<title>Node11&#45;&gt;Node14</title>
<g id="a_edge29_Node000011_Node000014"><a xlink:title=" ">
<path fill="none" stroke="#63b8ff" d="M359.45,-340.03C380.06,-323.6 419.3,-288.34 434.38,-247.75 440.33,-231.72 432.21,-213.65 423.51,-200.46"/>
<polygon fill="#63b8ff" stroke="#63b8ff" points="426.56,-198.71 417.86,-192.66 420.89,-202.82 426.56,-198.71"/>
</a>
</g>
</g>
<!-- Node15 -->
<g id="Node000015" class="node">
<title>Node15</title>
<g id="a_Node000015"><a xlink:href="crypto__types_8h.html" target="_top" xlink:title="Type definitions for PSA Crypto.">
<polygon fill="white" stroke="#666666" points="452.38,-134.25 364.38,-134.25 364.38,-113.5 452.38,-113.5 452.38,-134.25"/>
<text text-anchor="middle" x="408.38" y="-120.75" font-family="Helvetica,sans-Serif" font-size="10.00">crypto_types.h</text>
</a>
</g>
</g>
<!-- Node11&#45;&gt;Node15 -->
<g id="edge30_Node000011_Node000015" class="edge">
<title>Node11&#45;&gt;Node15</title>
<g id="a_edge30_Node000011_Node000015"><a xlink:title=" ">
<path fill="none" stroke="#63b8ff" d="M369.02,-340.07C384.96,-332.28 405.94,-320.1 420.38,-304.5 439.61,-283.71 439.25,-274.2 449.38,-247.75 461.91,-214.98 479.47,-201.92 464.38,-170.25 458.6,-158.14 447.85,-148.22 437.29,-140.77"/>
<polygon fill="#63b8ff" stroke="#63b8ff" points="439.37,-137.95 429.08,-135.46 435.57,-143.83 439.37,-137.95"/>
</a>
</g>
</g>
<!-- Node17 -->
<g id="Node000017" class="node">
<title>Node17</title>
<g id="a_Node000017"><a xlink:href="crypto__struct_8h.html" target="_top" xlink:title="Structure definitions for PSA Crypto.">
<polygon fill="white" stroke="#666666" points="354.75,-304.5 266,-304.5 266,-283.75 354.75,-283.75 354.75,-304.5"/>
<text text-anchor="middle" x="310.38" y="-291" font-family="Helvetica,sans-Serif" font-size="10.00">crypto_struct.h</text>
</a>
</g>
</g>
<!-- Node11&#45;&gt;Node17 -->
<g id="edge24_Node000011_Node000017" class="edge">
<title>Node11&#45;&gt;Node17</title>
<g id="a_edge24_Node000011_Node000017"><a xlink:title=" ">
<path fill="none" stroke="#63b8ff" d="M339.94,-340.09C335.23,-332.92 328.69,-322.98 322.96,-314.26"/>
<polygon fill="#63b8ff" stroke="#63b8ff" points="326.01,-312.53 317.59,-306.09 320.16,-316.37 326.01,-312.53"/>
</a>
</g>
</g>
<!-- Node13&#45;&gt;Node3 -->
<g id="edge18_Node000013_Node000003" class="edge">
<title>Node13&#45;&gt;Node3</title>
<g id="a_edge18_Node000013_Node000003"><a xlink:title=" ">
<path fill="none" stroke="#63b8ff" d="M346.98,-226.59C314.56,-217.62 266.36,-204.29 230.85,-194.48"/>
<polygon fill="#63b8ff" stroke="#63b8ff" points="231.83,-191.12 221.26,-191.82 229.96,-197.86 231.83,-191.12"/>
</a>
</g>
</g>
<!-- Node13&#45;&gt;Node14 -->
<g id="edge19_Node000013_Node000014" class="edge">
<title>Node13&#45;&gt;Node14</title>
<g id="a_edge19_Node000013_Node000014"><a xlink:title=" ">
<path fill="none" stroke="#63b8ff" d="M387.02,-226.59C390.31,-219.66 394.84,-210.12 398.88,-201.61"/>
<polygon fill="#63b8ff" stroke="#63b8ff" points="401.99,-203.23 403.12,-192.7 395.67,-200.23 401.99,-203.23"/>
</a>
</g>
</g>
<!-- Node14&#45;&gt;Node15 -->
<g id="edge20_Node000014_Node000015" class="edge">
<title>Node14&#45;&gt;Node15</title>
<g id="a_edge20_Node000014_Node000015"><a xlink:title=" ">
<path fill="none" stroke="#63b8ff" d="M408.38,-169.84C408.38,-163.22 408.38,-154.22 408.38,-146.02"/>
<polygon fill="#63b8ff" stroke="#63b8ff" points="411.88,-146.09 408.38,-136.09 404.88,-146.09 411.88,-146.09"/>
</a>
</g>
</g>
<!-- Node15&#45;&gt;Node6 -->
<g id="edge21_Node000015_Node000006" class="edge">
<title>Node15&#45;&gt;Node6</title>
<g id="a_edge21_Node000015_Node000006"><a xlink:title=" ">
<path fill="none" stroke="#63b8ff" d="M412.1,-113.21C416.8,-99.23 422.85,-73.23 410.38,-56.75 395.52,-37.13 329.78,-23.6 287.04,-16.7"/>
<polygon fill="#63b8ff" stroke="#63b8ff" points="287.83,-13.28 277.41,-15.2 286.75,-20.2 287.83,-13.28"/>
</a>
</g>
</g>
<!-- Node16 -->
<g id="Node000016" class="node">
<title>Node16</title>
<g id="a_Node000016"><a xlink:href="psa__crypto_2psa_2error_8h.html" target="_top" xlink:title="Error definitions for the PSA Crypto API.">
<polygon fill="white" stroke="#666666" points="401.62,-77.5 333.12,-77.5 333.12,-56.75 401.62,-56.75 401.62,-77.5"/>
<text text-anchor="middle" x="367.38" y="-64" font-family="Helvetica,sans-Serif" font-size="10.00">psa/error.h</text>
</a>
</g>
</g>
<!-- Node15&#45;&gt;Node16 -->
<g id="edge22_Node000015_Node000016" class="edge">
<title>Node15&#45;&gt;Node16</title>
<g id="a_edge22_Node000015_Node000016"><a xlink:title=" ">
<path fill="none" stroke="#63b8ff" d="M401.05,-113.09C395.62,-105.85 388.07,-95.76 381.49,-86.97"/>
<polygon fill="#63b8ff" stroke="#63b8ff" points="384.34,-84.95 375.55,-79.04 378.74,-89.14 384.34,-84.95"/>
</a>
</g>
</g>
<!-- Node16&#45;&gt;Node6 -->
<g id="edge23_Node000016_Node000006" class="edge">
<title>Node16&#45;&gt;Node6</title>
<g id="a_edge23_Node000016_Node000006"><a xlink:title=" ">
<path fill="none" stroke="#63b8ff" d="M346.28,-56.34C327.99,-47.85 301.27,-35.45 280.52,-25.83"/>
<polygon fill="#63b8ff" stroke="#63b8ff" points="282.21,-22.75 271.66,-21.72 279.26,-29.1 282.21,-22.75"/>
</a>
</g>
</g>
<!-- Node17&#45;&gt;Node13 -->
<g id="edge26_Node000017_Node000013" class="edge">
<title>Node17&#45;&gt;Node13</title>
<g id="a_edge26_Node000017_Node000013"><a xlink:title=" ">
<path fill="none" stroke="#63b8ff" d="M323.25,-283.34C333.59,-275.47 348.34,-264.25 360.53,-254.99"/>
<polygon fill="#63b8ff" stroke="#63b8ff" points="362.57,-257.83 368.41,-248.99 358.33,-252.26 362.57,-257.83"/>
</a>
</g>
</g>
<!-- Node17&#45;&gt;Node15 -->
<g id="edge25_Node000017_Node000015" class="edge">
<title>Node17&#45;&gt;Node15</title>
<g id="a_edge25_Node000017_Node000015"><a xlink:title=" ">
<path fill="none" stroke="#63b8ff" d="M311.71,-283.29C315.12,-261.19 325.82,-206.69 352.38,-170.25 360.61,-158.95 372.33,-148.86 382.93,-141.09"/>
<polygon fill="#63b8ff" stroke="#63b8ff" points="384.75,-144.08 390.96,-135.5 380.75,-138.34 384.75,-144.08"/>
</a>
</g>
</g>
<!-- Node18 -->
<g id="Node000018" class="node">
<title>Node18</title>
<g id="a_Node000018"><a xlink:href="crypto__contexts_8h.html" target="_top" xlink:title="Context definitions for PSA Crypto.">
<polygon fill="white" stroke="#666666" points="282.88,-247.75 179.88,-247.75 179.88,-227 282.88,-227 282.88,-247.75"/>
<text text-anchor="middle" x="231.38" y="-234.25" font-family="Helvetica,sans-Serif" font-size="10.00">crypto_contexts.h</text>
</a>
</g>
</g>
<!-- Node17&#45;&gt;Node18 -->
<g id="edge27_Node000017_Node000018" class="edge">
<title>Node17&#45;&gt;Node18</title>
<g id="a_edge27_Node000017_Node000018"><a xlink:title=" ">
<path fill="none" stroke="#63b8ff" d="M296.25,-283.34C284.68,-275.32 268.07,-263.81 254.56,-254.44"/>
<polygon fill="#63b8ff" stroke="#63b8ff" points="256.83,-251.76 246.62,-248.94 252.85,-257.51 256.83,-251.76"/>
</a>
</g>
</g>
<!-- Node18&#45;&gt;Node3 -->
<g id="edge28_Node000018_Node000003" class="edge">
<title>Node18&#45;&gt;Node3</title>
<g id="a_edge28_Node000018_Node000003"><a xlink:title=" ">
<path fill="none" stroke="#63b8ff" d="M222.97,-226.59C216.62,-219.19 207.72,-208.82 200.07,-199.91"/>
<polygon fill="#63b8ff" stroke="#63b8ff" points="202.86,-197.78 193.69,-192.48 197.55,-202.34 202.86,-197.78"/>
</a>
</g>
</g>
</g>
</svg>
