<?xml version="1.0" encoding="UTF-8" standalone="no"?>
<!DOCTYPE svg PUBLIC "-//W3C//DTD SVG 1.1//EN"
 "http://www.w3.org/Graphics/SVG/1.1/DTD/svg11.dtd">
<!-- Generated by graphviz version 12.1.2 (0)
 -->
<!-- Title: sys/psa_crypto/include/psa_crypto_operation_encoder.h Pages: 1 -->
<svg width="742pt" height="565pt"
 viewBox="0.00 0.00 741.75 565.00" xmlns="http://www.w3.org/2000/svg" xmlns:xlink="http://www.w3.org/1999/xlink">
<g id="graph0" class="graph" transform="scale(1 1) rotate(0) translate(4 561)">
<title>sys/psa_crypto/include/psa_crypto_operation_encoder.h</title>
<!-- Node1 -->
<g id="Node000001" class="node">
<title>Node1</title>
<g id="a_Node000001"><a xlink:title="Macros used to map PSA algorithms, key types and key sizes to specific key types and operations to ca...">
<polygon fill="#999999" stroke="#666666" points="565,-557 438,-557 438,-510.75 565,-510.75 565,-557"/>
<text text-anchor="start" x="446" y="-543.5" font-family="Helvetica,sans-Serif" font-size="10.00">sys/psa_crypto/include</text>
<text text-anchor="start" x="446" y="-530.75" font-family="Helvetica,sans-Serif" font-size="10.00">/psa_crypto_operation</text>
<text text-anchor="middle" x="501.5" y="-518" font-family="Helvetica,sans-Serif" font-size="10.00">_encoder.h</text>
</a>
</g>
</g>
<!-- Node2 -->
<g id="Node000002" class="node">
<title>Node2</title>
<g id="a_Node000002"><a xlink:href="crypto_8h.html" target="_top" xlink:title="Function declarations for PSA Crypto.">
<polygon fill="white" stroke="#666666" points="539.5,-361.25 463.5,-361.25 463.5,-340.5 539.5,-340.5 539.5,-361.25"/>
<text text-anchor="middle" x="501.5" y="-347.75" font-family="Helvetica,sans-Serif" font-size="10.00">psa/crypto.h</text>
</a>
</g>
</g>
<!-- Node1&#45;&gt;Node2 -->
<g id="edge1_Node000001_Node000002" class="edge">
<title>Node1&#45;&gt;Node2</title>
<g id="a_edge1_Node000001_Node000002"><a xlink:title=" ">
<path fill="none" stroke="#63b8ff" d="M535.27,-510.44C570.95,-483.84 618.82,-437.96 593.5,-397.25 583.86,-381.74 567.18,-371.38 550.65,-364.52"/>
<polygon fill="#63b8ff" stroke="#63b8ff" points="551.89,-361.25 541.3,-361.04 549.45,-367.81 551.89,-361.25"/>
</a>
</g>
</g>
<!-- Node19 -->
<g id="Node000019" class="node">
<title>Node19</title>
<g id="a_Node000019"><a xlink:href="psa__crypto__slot__management_8h.html" target="_top" xlink:title="PSA key slot management function declarations.">
<polygon fill="white" stroke="#666666" points="530.5,-474.75 358.5,-474.75 358.5,-454 530.5,-454 530.5,-474.75"/>
<text text-anchor="middle" x="444.5" y="-461.25" font-family="Helvetica,sans-Serif" font-size="10.00">psa_crypto_slot_management.h</text>
</a>
</g>
</g>
<!-- Node1&#45;&gt;Node19 -->
<g id="edge29_Node000001_Node000019" class="edge">
<title>Node1&#45;&gt;Node19</title>
<g id="a_edge29_Node000001_Node000019"><a xlink:title=" ">
<path fill="none" stroke="#63b8ff" d="M482.52,-510.4C475.26,-501.8 467.06,-492.09 460.15,-483.9"/>
<polygon fill="#63b8ff" stroke="#63b8ff" points="462.85,-481.68 453.72,-476.3 457.5,-486.2 462.85,-481.68"/>
</a>
</g>
</g>
<!-- Node3 -->
<g id="Node000003" class="node">
<title>Node3</title>
<g id="a_Node000003"><a xlink:title=" ">
<polygon fill="#e0e0e0" stroke="#999999" points="619.5,-191 567.5,-191 567.5,-170.25 619.5,-170.25 619.5,-191"/>
<text text-anchor="middle" x="593.5" y="-177.5" font-family="Helvetica,sans-Serif" font-size="10.00">stdlib.h</text>
</a>
</g>
</g>
<!-- Node2&#45;&gt;Node3 -->
<g id="edge2_Node000002_Node000003" class="edge">
<title>Node2&#45;&gt;Node3</title>
<g id="a_edge2_Node000002_Node000003"><a xlink:title=" ">
<path fill="none" stroke="#63b8ff" d="M516.71,-340.02C528.3,-331.8 543.85,-319.09 553.5,-304.5 574.66,-272.48 585.41,-228.37 590.2,-202.64"/>
<polygon fill="#63b8ff" stroke="#63b8ff" points="593.65,-203.26 591.89,-192.81 586.75,-202.07 593.65,-203.26"/>
</a>
</g>
</g>
<!-- Node4 -->
<g id="Node000004" class="node">
<title>Node4</title>
<g id="a_Node000004"><a xlink:title=" ">
<polygon fill="#e0e0e0" stroke="#999999" points="657.88,-304.5 605.12,-304.5 605.12,-283.75 657.88,-283.75 657.88,-304.5"/>
<text text-anchor="middle" x="631.5" y="-291" font-family="Helvetica,sans-Serif" font-size="10.00">string.h</text>
</a>
</g>
</g>
<!-- Node2&#45;&gt;Node4 -->
<g id="edge3_Node000002_Node000004" class="edge">
<title>Node2&#45;&gt;Node4</title>
<g id="a_edge3_Node000002_Node000004"><a xlink:title=" ">
<path fill="none" stroke="#63b8ff" d="M524.74,-340.09C545.17,-331.48 575.14,-318.86 598.13,-309.18"/>
<polygon fill="#63b8ff" stroke="#63b8ff" points="599.21,-312.52 607.06,-305.42 596.49,-306.07 599.21,-312.52"/>
</a>
</g>
</g>
<!-- Node5 -->
<g id="Node000005" class="node">
<title>Node5</title>
<g id="a_Node000005"><a xlink:href="kernel__defines_8h.html" target="_top" xlink:title="Common macros and compiler attributes/pragmas configuration.">
<polygon fill="white" stroke="#666666" points="327.62,-191 231.38,-191 231.38,-170.25 327.62,-170.25 327.62,-191"/>
<text text-anchor="middle" x="279.5" y="-177.5" font-family="Helvetica,sans-Serif" font-size="10.00">kernel_defines.h</text>
</a>
</g>
</g>
<!-- Node2&#45;&gt;Node5 -->
<g id="edge4_Node000002_Node000005" class="edge">
<title>Node2&#45;&gt;Node5</title>
<g id="a_edge4_Node000002_Node000005"><a xlink:title=" ">
<path fill="none" stroke="#63b8ff" d="M463.03,-350.16C397.67,-348.22 267.29,-333.27 218.5,-247.75 207.26,-228.05 228.41,-209.42 248.81,-196.98"/>
<polygon fill="#63b8ff" stroke="#63b8ff" points="250.35,-200.14 257.31,-192.15 246.88,-194.05 250.35,-200.14"/>
</a>
</g>
</g>
<!-- Node13 -->
<g id="Node000013" class="node">
<title>Node13</title>
<g id="a_Node000013"><a xlink:href="crypto__sizes_8h.html" target="_top" xlink:title="Size definitions for PSA Crypto.">
<polygon fill="white" stroke="#666666" points="473.38,-247.75 387.62,-247.75 387.62,-227 473.38,-227 473.38,-247.75"/>
<text text-anchor="middle" x="430.5" y="-234.25" font-family="Helvetica,sans-Serif" font-size="10.00">crypto_sizes.h</text>
</a>
</g>
</g>
<!-- Node2&#45;&gt;Node13 -->
<g id="edge15_Node000002_Node000013" class="edge">
<title>Node2&#45;&gt;Node13</title>
<g id="a_edge15_Node000002_Node000013"><a xlink:title=" ">
<path fill="none" stroke="#63b8ff" d="M495.45,-340.37C483.82,-322.11 458.16,-281.81 442.8,-257.7"/>
<polygon fill="#63b8ff" stroke="#63b8ff" points="445.88,-256.01 437.55,-249.45 439.97,-259.77 445.88,-256.01"/>
</a>
</g>
</g>
<!-- Node14 -->
<g id="Node000014" class="node">
<title>Node14</title>
<g id="a_Node000014"><a xlink:href="crypto__values_8h.html" target="_top" xlink:title="Value definitions for PSA Crypto.">
<polygon fill="white" stroke="#666666" points="511.12,-191 417.88,-191 417.88,-170.25 511.12,-170.25 511.12,-191"/>
<text text-anchor="middle" x="464.5" y="-177.5" font-family="Helvetica,sans-Serif" font-size="10.00">crypto_values.h</text>
</a>
</g>
</g>
<!-- Node2&#45;&gt;Node14 -->
<g id="edge27_Node000002_Node000014" class="edge">
<title>Node2&#45;&gt;Node14</title>
<g id="a_edge27_Node000002_Node000014"><a xlink:title=" ">
<path fill="none" stroke="#63b8ff" d="M500.74,-340.16C498.95,-319.19 493.72,-268.24 482.5,-227 480.23,-218.64 476.9,-209.71 473.72,-202.01"/>
<polygon fill="#63b8ff" stroke="#63b8ff" points="476.95,-200.67 469.77,-192.89 470.53,-203.45 476.95,-200.67"/>
</a>
</g>
</g>
<!-- Node15 -->
<g id="Node000015" class="node">
<title>Node15</title>
<g id="a_Node000015"><a xlink:href="crypto__types_8h.html" target="_top" xlink:title="Type definitions for PSA Crypto.">
<polygon fill="white" stroke="#666666" points="590.5,-134.25 502.5,-134.25 502.5,-113.5 590.5,-113.5 590.5,-134.25"/>
<text text-anchor="middle" x="546.5" y="-120.75" font-family="Helvetica,sans-Serif" font-size="10.00">crypto_types.h</text>
</a>
</g>
</g>
<!-- Node2&#45;&gt;Node15 -->
<g id="edge28_Node000002_Node000015" class="edge">
<title>Node2&#45;&gt;Node15</title>
<g id="a_edge28_Node000002_Node000015"><a xlink:title=" ">
<path fill="none" stroke="#63b8ff" d="M503.43,-340.21C510.2,-306.38 532.9,-192.86 542.34,-145.69"/>
<polygon fill="#63b8ff" stroke="#63b8ff" points="545.75,-146.48 544.28,-135.99 538.88,-145.11 545.75,-146.48"/>
</a>
</g>
</g>
<!-- Node17 -->
<g id="Node000017" class="node">
<title>Node17</title>
<g id="a_Node000017"><a xlink:href="crypto__struct_8h.html" target="_top" xlink:title="Structure definitions for PSA Crypto.">
<polygon fill="white" stroke="#666666" points="411.88,-304.5 323.12,-304.5 323.12,-283.75 411.88,-283.75 411.88,-304.5"/>
<text text-anchor="middle" x="367.5" y="-291" font-family="Helvetica,sans-Serif" font-size="10.00">crypto_struct.h</text>
</a>
</g>
</g>
<!-- Node2&#45;&gt;Node17 -->
<g id="edge22_Node000002_Node000017" class="edge">
<title>Node2&#45;&gt;Node17</title>
<g id="a_edge22_Node000002_Node000017"><a xlink:title=" ">
<path fill="none" stroke="#63b8ff" d="M477.54,-340.09C456.49,-331.48 425.6,-318.86 401.9,-309.18"/>
<polygon fill="#63b8ff" stroke="#63b8ff" points="403.23,-305.94 392.65,-305.4 400.58,-312.42 403.23,-305.94"/>
</a>
</g>
</g>
<!-- Node6 -->
<g id="Node000006" class="node">
<title>Node6</title>
<g id="a_Node000006"><a xlink:href="modules_8h.html" target="_top" xlink:title="Common macros and compiler attributes/pragmas configuration.">
<polygon fill="white" stroke="#666666" points="369,-134.25 302,-134.25 302,-113.5 369,-113.5 369,-134.25"/>
<text text-anchor="middle" x="335.5" y="-120.75" font-family="Helvetica,sans-Serif" font-size="10.00">modules.h</text>
</a>
</g>
</g>
<!-- Node5&#45;&gt;Node6 -->
<g id="edge5_Node000005_Node000006" class="edge">
<title>Node5&#45;&gt;Node6</title>
<g id="a_edge5_Node000005_Node000006"><a xlink:title=" ">
<path fill="none" stroke="#63b8ff" d="M289.51,-169.84C297.24,-162.28 308.13,-151.64 317.37,-142.6"/>
<polygon fill="#63b8ff" stroke="#63b8ff" points="319.79,-145.13 324.49,-135.64 314.9,-140.12 319.79,-145.13"/>
</a>
</g>
</g>
<!-- Node7 -->
<g id="Node000007" class="node">
<title>Node7</title>
<g id="a_Node000007"><a xlink:href="riot__version_8h.html" target="_top" xlink:title="Common macros and compiler attributes/pragmas configuration.">
<polygon fill="white" stroke="#666666" points="346.88,-77.5 264.12,-77.5 264.12,-56.75 346.88,-56.75 346.88,-77.5"/>
<text text-anchor="middle" x="305.5" y="-64" font-family="Helvetica,sans-Serif" font-size="10.00">riot_version.h</text>
</a>
</g>
</g>
<!-- Node5&#45;&gt;Node7 -->
<g id="edge6_Node000005_Node000007" class="edge">
<title>Node5&#45;&gt;Node7</title>
<g id="a_edge6_Node000005_Node000007"><a xlink:title=" ">
<path fill="none" stroke="#63b8ff" d="M281.35,-170.17C283.89,-157.31 288.72,-133.59 293.5,-113.5 295.43,-105.38 297.74,-96.5 299.81,-88.77"/>
<polygon fill="#63b8ff" stroke="#63b8ff" points="303.14,-89.85 302.39,-79.29 296.39,-88.02 303.14,-89.85"/>
</a>
</g>
</g>
<!-- Node9 -->
<g id="Node000009" class="node">
<title>Node9</title>
<g id="a_Node000009"><a xlink:href="compiler__hints_8h.html" target="_top" xlink:title="Common macros and compiler attributes/pragmas configuration.">
<polygon fill="white" stroke="#666666" points="484,-134.25 387,-134.25 387,-113.5 484,-113.5 484,-134.25"/>
<text text-anchor="middle" x="435.5" y="-120.75" font-family="Helvetica,sans-Serif" font-size="10.00">compiler_hints.h</text>
</a>
</g>
</g>
<!-- Node5&#45;&gt;Node9 -->
<g id="edge8_Node000005_Node000009" class="edge">
<title>Node5&#45;&gt;Node9</title>
<g id="a_edge8_Node000005_Node000009"><a xlink:title=" ">
<path fill="none" stroke="#63b8ff" d="M307.39,-169.84C332.38,-161.07 369.27,-148.12 397.06,-138.37"/>
<polygon fill="#63b8ff" stroke="#63b8ff" points="397.88,-141.79 406.16,-135.17 395.57,-135.18 397.88,-141.79"/>
</a>
</g>
</g>
<!-- Node11 -->
<g id="Node000011" class="node">
<title>Node11</title>
<g id="a_Node000011"><a xlink:href="container_8h.html" target="_top" xlink:title="Common macros and compiler attributes/pragmas configuration.">
<polygon fill="white" stroke="#666666" points="245.88,-134.25 175.12,-134.25 175.12,-113.5 245.88,-113.5 245.88,-134.25"/>
<text text-anchor="middle" x="210.5" y="-120.75" font-family="Helvetica,sans-Serif" font-size="10.00">container.h</text>
</a>
</g>
</g>
<!-- Node5&#45;&gt;Node11 -->
<g id="edge12_Node000005_Node000011" class="edge">
<title>Node5&#45;&gt;Node11</title>
<g id="a_edge12_Node000005_Node000011"><a xlink:title=" ">
<path fill="none" stroke="#63b8ff" d="M267.16,-169.84C257.25,-161.97 243.11,-150.75 231.44,-141.49"/>
<polygon fill="#63b8ff" stroke="#63b8ff" points="233.92,-138.99 223.91,-135.52 229.57,-144.48 233.92,-138.99"/>
</a>
</g>
</g>
<!-- Node8 -->
<g id="Node000008" class="node">
<title>Node8</title>
<g id="a_Node000008"><a xlink:title=" ">
<polygon fill="#e0e0e0" stroke="#999999" points="461.88,-20.75 409.12,-20.75 409.12,0 461.88,0 461.88,-20.75"/>
<text text-anchor="middle" x="435.5" y="-7.25" font-family="Helvetica,sans-Serif" font-size="10.00">stdint.h</text>
</a>
</g>
</g>
<!-- Node7&#45;&gt;Node8 -->
<g id="edge7_Node000007_Node000008" class="edge">
<title>Node7&#45;&gt;Node8</title>
<g id="a_edge7_Node000007_Node000008"><a xlink:title=" ">
<path fill="none" stroke="#63b8ff" d="M328.74,-56.34C349.17,-47.73 379.14,-35.11 402.13,-25.43"/>
<polygon fill="#63b8ff" stroke="#63b8ff" points="403.21,-28.77 411.06,-21.67 400.49,-22.32 403.21,-28.77"/>
</a>
</g>
</g>
<!-- Node9&#45;&gt;Node8 -->
<g id="edge11_Node000009_Node000008" class="edge">
<title>Node9&#45;&gt;Node8</title>
<g id="a_edge11_Node000009_Node000008"><a xlink:title=" ">
<path fill="none" stroke="#63b8ff" d="M424.65,-113.31C415.97,-104.87 404.46,-91.74 399.5,-77.5 393.49,-60.25 404.77,-42.13 416.25,-29.23"/>
<polygon fill="#63b8ff" stroke="#63b8ff" points="418.53,-31.91 422.97,-22.29 413.5,-27.04 418.53,-31.91"/>
</a>
</g>
</g>
<!-- Node10 -->
<g id="Node000010" class="node">
<title>Node10</title>
<g id="a_Node000010"><a xlink:href="assert_8h.html" target="_top" xlink:title="POSIX.1&#45;2008 compliant version of the assert macro.">
<polygon fill="white" stroke="#666666" points="463,-77.5 408,-77.5 408,-56.75 463,-56.75 463,-77.5"/>
<text text-anchor="middle" x="435.5" y="-64" font-family="Helvetica,sans-Serif" font-size="10.00">assert.h</text>
</a>
</g>
</g>
<!-- Node9&#45;&gt;Node10 -->
<g id="edge9_Node000009_Node000010" class="edge">
<title>Node9&#45;&gt;Node10</title>
<g id="a_edge9_Node000009_Node000010"><a xlink:title=" ">
<path fill="none" stroke="#63b8ff" d="M435.5,-113.09C435.5,-106.47 435.5,-97.47 435.5,-89.27"/>
<polygon fill="#63b8ff" stroke="#63b8ff" points="439,-89.34 435.5,-79.34 432,-89.34 439,-89.34"/>
</a>
</g>
</g>
<!-- Node10&#45;&gt;Node8 -->
<g id="edge10_Node000010_Node000008" class="edge">
<title>Node10&#45;&gt;Node8</title>
<g id="a_edge10_Node000010_Node000008"><a xlink:title=" ">
<path fill="none" stroke="#63b8ff" d="M435.5,-56.34C435.5,-49.72 435.5,-40.72 435.5,-32.52"/>
<polygon fill="#63b8ff" stroke="#63b8ff" points="439,-32.59 435.5,-22.59 432,-32.59 439,-32.59"/>
</a>
</g>
</g>
<!-- Node11&#45;&gt;Node8 -->
<g id="edge14_Node000011_Node000008" class="edge">
<title>Node11&#45;&gt;Node8</title>
<g id="a_edge14_Node000011_Node000008"><a xlink:title=" ">
<path fill="none" stroke="#63b8ff" d="M214.41,-113.12C220.78,-98.54 234.79,-71.23 255.5,-56.75 298.11,-26.96 358.49,-16.7 397.33,-13.18"/>
<polygon fill="#63b8ff" stroke="#63b8ff" points="397.44,-16.68 407.14,-12.41 396.89,-9.7 397.44,-16.68"/>
</a>
</g>
</g>
<!-- Node12 -->
<g id="Node000012" class="node">
<title>Node12</title>
<g id="a_Node000012"><a xlink:title=" ">
<polygon fill="#e0e0e0" stroke="#999999" points="180,-77.5 125,-77.5 125,-56.75 180,-56.75 180,-77.5"/>
<text text-anchor="middle" x="152.5" y="-64" font-family="Helvetica,sans-Serif" font-size="10.00">stddef.h</text>
</a>
</g>
</g>
<!-- Node11&#45;&gt;Node12 -->
<g id="edge13_Node000011_Node000012" class="edge">
<title>Node11&#45;&gt;Node12</title>
<g id="a_edge13_Node000011_Node000012"><a xlink:title=" ">
<path fill="none" stroke="#63b8ff" d="M200.13,-113.09C192.05,-105.46 180.62,-94.67 170.98,-85.57"/>
<polygon fill="#63b8ff" stroke="#63b8ff" points="173.55,-83.19 163.88,-78.87 168.75,-88.28 173.55,-83.19"/>
</a>
</g>
</g>
<!-- Node13&#45;&gt;Node5 -->
<g id="edge16_Node000013_Node000005" class="edge">
<title>Node13&#45;&gt;Node5</title>
<g id="a_edge16_Node000013_Node000005"><a xlink:title=" ">
<path fill="none" stroke="#63b8ff" d="M403.5,-226.59C379.42,-217.86 343.92,-204.98 317.07,-195.25"/>
<polygon fill="#63b8ff" stroke="#63b8ff" points="318.53,-192.05 307.94,-191.94 316.15,-198.64 318.53,-192.05"/>
</a>
</g>
</g>
<!-- Node13&#45;&gt;Node14 -->
<g id="edge17_Node000013_Node000014" class="edge">
<title>Node13&#45;&gt;Node14</title>
<g id="a_edge17_Node000013_Node000014"><a xlink:title=" ">
<path fill="none" stroke="#63b8ff" d="M436.58,-226.59C440.98,-219.5 447.07,-209.69 452.44,-201.04"/>
<polygon fill="#63b8ff" stroke="#63b8ff" points="455.37,-202.96 457.68,-192.61 449.43,-199.26 455.37,-202.96"/>
</a>
</g>
</g>
<!-- Node14&#45;&gt;Node15 -->
<g id="edge18_Node000014_Node000015" class="edge">
<title>Node14&#45;&gt;Node15</title>
<g id="a_edge18_Node000014_Node000015"><a xlink:title=" ">
<path fill="none" stroke="#63b8ff" d="M479.16,-169.84C491.17,-161.82 508.41,-150.31 522.44,-140.94"/>
<polygon fill="#63b8ff" stroke="#63b8ff" points="524.34,-143.88 530.71,-135.42 520.45,-138.06 524.34,-143.88"/>
</a>
</g>
</g>
<!-- Node15&#45;&gt;Node8 -->
<g id="edge19_Node000015_Node000008" class="edge">
<title>Node15&#45;&gt;Node8</title>
<g id="a_edge19_Node000015_Node000008"><a xlink:title=" ">
<path fill="none" stroke="#63b8ff" d="M537.04,-113.37C518.45,-94.7 476.93,-52.99 453.14,-29.1"/>
<polygon fill="#63b8ff" stroke="#63b8ff" points="455.86,-26.87 446.32,-22.25 450.9,-31.8 455.86,-26.87"/>
</a>
</g>
</g>
<!-- Node16 -->
<g id="Node000016" class="node">
<title>Node16</title>
<g id="a_Node000016"><a xlink:href="psa__crypto_2psa_2error_8h.html" target="_top" xlink:title="Error definitions for the PSA Crypto API.">
<polygon fill="white" stroke="#666666" points="587.75,-77.5 519.25,-77.5 519.25,-56.75 587.75,-56.75 587.75,-77.5"/>
<text text-anchor="middle" x="553.5" y="-64" font-family="Helvetica,sans-Serif" font-size="10.00">psa/error.h</text>
</a>
</g>
</g>
<!-- Node15&#45;&gt;Node16 -->
<g id="edge20_Node000015_Node000016" class="edge">
<title>Node15&#45;&gt;Node16</title>
<g id="a_edge20_Node000015_Node000016"><a xlink:title=" ">
<path fill="none" stroke="#63b8ff" d="M547.75,-113.09C548.61,-106.39 549.77,-97.26 550.83,-88.98"/>
<polygon fill="#63b8ff" stroke="#63b8ff" points="554.27,-89.69 552.07,-79.33 547.33,-88.81 554.27,-89.69"/>
</a>
</g>
</g>
<!-- Node16&#45;&gt;Node8 -->
<g id="edge21_Node000016_Node000008" class="edge">
<title>Node16&#45;&gt;Node8</title>
<g id="a_edge21_Node000016_Node000008"><a xlink:title=" ">
<path fill="none" stroke="#63b8ff" d="M532.4,-56.34C514.11,-47.85 487.4,-35.45 466.64,-25.83"/>
<polygon fill="#63b8ff" stroke="#63b8ff" points="468.33,-22.75 457.79,-21.72 465.38,-29.1 468.33,-22.75"/>
</a>
</g>
</g>
<!-- Node17&#45;&gt;Node13 -->
<g id="edge24_Node000017_Node000013" class="edge">
<title>Node17&#45;&gt;Node13</title>
<g id="a_edge24_Node000017_Node000013"><a xlink:title=" ">
<path fill="none" stroke="#63b8ff" d="M378.76,-283.34C387.63,-275.63 400.21,-264.7 410.75,-255.54"/>
<polygon fill="#63b8ff" stroke="#63b8ff" points="412.94,-258.27 418.19,-249.07 408.35,-252.99 412.94,-258.27"/>
</a>
</g>
</g>
<!-- Node17&#45;&gt;Node15 -->
<g id="edge23_Node000017_Node000015" class="edge">
<title>Node17&#45;&gt;Node15</title>
<g id="a_edge23_Node000017_Node000015"><a xlink:title=" ">
<path fill="none" stroke="#63b8ff" d="M367.56,-283.29C368.27,-259.71 373.62,-199.7 408.5,-170.25 421.88,-158.96 461.32,-146.57 494.63,-137.6"/>
<polygon fill="#63b8ff" stroke="#63b8ff" points="495.4,-141.01 504.18,-135.08 493.62,-134.24 495.4,-141.01"/>
</a>
</g>
</g>
<!-- Node18 -->
<g id="Node000018" class="node">
<title>Node18</title>
<g id="a_Node000018"><a xlink:href="crypto__contexts_8h.html" target="_top" xlink:title="Context definitions for PSA Crypto.">
<polygon fill="white" stroke="#666666" points="331,-247.75 228,-247.75 228,-227 331,-227 331,-247.75"/>
<text text-anchor="middle" x="279.5" y="-234.25" font-family="Helvetica,sans-Serif" font-size="10.00">crypto_contexts.h</text>
</a>
</g>
</g>
<!-- Node17&#45;&gt;Node18 -->
<g id="edge25_Node000017_Node000018" class="edge">
<title>Node17&#45;&gt;Node18</title>
<g id="a_edge25_Node000017_Node000018"><a xlink:title=" ">
<path fill="none" stroke="#63b8ff" d="M351.77,-283.34C338.63,-275.16 319.66,-263.36 304.45,-253.9"/>
<polygon fill="#63b8ff" stroke="#63b8ff" points="306.72,-251.19 296.38,-248.88 303.02,-257.13 306.72,-251.19"/>
</a>
</g>
</g>
<!-- Node18&#45;&gt;Node5 -->
<g id="edge26_Node000018_Node000005" class="edge">
<title>Node18&#45;&gt;Node5</title>
<g id="a_edge26_Node000018_Node000005"><a xlink:title=" ">
<path fill="none" stroke="#63b8ff" d="M279.5,-226.59C279.5,-219.97 279.5,-210.97 279.5,-202.77"/>
<polygon fill="#63b8ff" stroke="#63b8ff" points="283,-202.84 279.5,-192.84 276,-202.84 283,-202.84"/>
</a>
</g>
</g>
<!-- Node19&#45;&gt;Node2 -->
<g id="edge34_Node000019_Node000002" class="edge">
<title>Node19&#45;&gt;Node2</title>
<g id="a_edge34_Node000019_Node000002"><a xlink:title=" ">
<path fill="none" stroke="#63b8ff" d="M432.85,-453.73C418.5,-440.64 397.43,-416.66 409.5,-397.25 419.14,-381.74 435.82,-371.38 452.35,-364.52"/>
<polygon fill="#63b8ff" stroke="#63b8ff" points="453.55,-367.81 461.7,-361.04 451.11,-361.25 453.55,-367.81"/>
</a>
</g>
</g>
<!-- Node20 -->
<g id="Node000020" class="node">
<title>Node20</title>
<g id="a_Node000020"><a xlink:href="clist_8h.html" target="_top" xlink:title="Circular linked list.">
<polygon fill="white" stroke="#666666" points="146.12,-418 100.88,-418 100.88,-397.25 146.12,-397.25 146.12,-418"/>
<text text-anchor="middle" x="123.5" y="-404.5" font-family="Helvetica,sans-Serif" font-size="10.00">clist.h</text>
</a>
</g>
</g>
<!-- Node19&#45;&gt;Node20 -->
<g id="edge30_Node000019_Node000020" class="edge">
<title>Node19&#45;&gt;Node20</title>
<g id="a_edge30_Node000019_Node000020"><a xlink:title=" ">
<path fill="none" stroke="#63b8ff" d="M386.74,-453.52C319.98,-442.14 212.3,-423.77 157.66,-414.45"/>
<polygon fill="#63b8ff" stroke="#63b8ff" points="158.47,-411.04 148.02,-412.81 157.29,-417.94 158.47,-411.04"/>
</a>
</g>
</g>
<!-- Node23 -->
<g id="Node000023" class="node">
<title>Node23</title>
<g id="a_Node000023"><a xlink:href="psa__crypto__se__management_8h.html" target="_top" xlink:title="PSA Secure Element management function declarations.">
<polygon fill="white" stroke="#666666" points="584.12,-418 418.88,-418 418.88,-397.25 584.12,-397.25 584.12,-418"/>
<text text-anchor="middle" x="501.5" y="-404.5" font-family="Helvetica,sans-Serif" font-size="10.00">psa_crypto_se_management.h</text>
</a>
</g>
</g>
<!-- Node19&#45;&gt;Node23 -->
<g id="edge35_Node000019_Node000023" class="edge">
<title>Node19&#45;&gt;Node23</title>
<g id="a_edge35_Node000019_Node000023"><a xlink:title=" ">
<path fill="none" stroke="#63b8ff" d="M454.69,-453.59C462.63,-445.96 473.87,-435.17 483.34,-426.07"/>
<polygon fill="#63b8ff" stroke="#63b8ff" points="485.52,-428.83 490.31,-419.38 480.67,-423.78 485.52,-428.83"/>
</a>
</g>
</g>
<!-- Node20&#45;&gt;Node12 -->
<g id="edge32_Node000020_Node000012" class="edge">
<title>Node20&#45;&gt;Node12</title>
<g id="a_edge32_Node000020_Node000012"><a xlink:title=" ">
<path fill="none" stroke="#63b8ff" d="M127.04,-396.93C133.72,-377.76 147.5,-333.54 147.5,-295.12 147.5,-295.12 147.5,-295.12 147.5,-179.62 147.5,-148.2 149.51,-111.84 150.98,-89.42"/>
<polygon fill="#63b8ff" stroke="#63b8ff" points="154.47,-89.69 151.66,-79.47 147.48,-89.21 154.47,-89.69"/>
</a>
</g>
</g>
<!-- Node21 -->
<g id="Node000021" class="node">
<title>Node21</title>
<g id="a_Node000021"><a xlink:title=" ">
<polygon fill="#e0e0e0" stroke="#999999" points="61,-361.25 0,-361.25 0,-340.5 61,-340.5 61,-361.25"/>
<text text-anchor="middle" x="30.5" y="-347.75" font-family="Helvetica,sans-Serif" font-size="10.00">stdbool.h</text>
</a>
</g>
</g>
<!-- Node20&#45;&gt;Node21 -->
<g id="edge31_Node000020_Node000021" class="edge">
<title>Node20&#45;&gt;Node21</title>
<g id="a_edge31_Node000020_Node000021"><a xlink:title=" ">
<path fill="none" stroke="#63b8ff" d="M106.87,-396.84C92.99,-388.66 72.94,-376.86 56.87,-367.4"/>
<polygon fill="#63b8ff" stroke="#63b8ff" points="58.68,-364.4 48.29,-362.35 55.13,-370.44 58.68,-364.4"/>
</a>
</g>
</g>
<!-- Node22 -->
<g id="Node000022" class="node">
<title>Node22</title>
<g id="a_Node000022"><a xlink:href="list_8h.html" target="_top" xlink:title="Intrusive linked list.">
<polygon fill="white" stroke="#666666" points="119.5,-361.25 79.5,-361.25 79.5,-340.5 119.5,-340.5 119.5,-361.25"/>
<text text-anchor="middle" x="99.5" y="-347.75" font-family="Helvetica,sans-Serif" font-size="10.00">list.h</text>
</a>
</g>
</g>
<!-- Node20&#45;&gt;Node22 -->
<g id="edge33_Node000020_Node000022" class="edge">
<title>Node20&#45;&gt;Node22</title>
<g id="a_edge33_Node000020_Node000022"><a xlink:title=" ">
<path fill="none" stroke="#63b8ff" d="M119.21,-396.84C116.17,-389.91 111.99,-380.37 108.26,-371.86"/>
<polygon fill="#63b8ff" stroke="#63b8ff" points="111.58,-370.72 104.36,-362.96 105.17,-373.53 111.58,-370.72"/>
</a>
</g>
</g>
<!-- Node23&#45;&gt;Node2 -->
<g id="edge36_Node000023_Node000002" class="edge">
<title>Node23&#45;&gt;Node2</title>
<g id="a_edge36_Node000023_Node000002"><a xlink:title=" ">
<path fill="none" stroke="#63b8ff" d="M501.5,-396.84C501.5,-390.22 501.5,-381.22 501.5,-373.02"/>
<polygon fill="#63b8ff" stroke="#63b8ff" points="505,-373.09 501.5,-363.09 498,-373.09 505,-373.09"/>
</a>
</g>
</g>
<!-- Node24 -->
<g id="Node000024" class="node">
<title>Node24</title>
<g id="a_Node000024"><a xlink:href="psa__crypto__se__driver_8h.html" target="_top" xlink:title="PSA external cryptoprocessor driver module.">
<polygon fill="white" stroke="#666666" points="733.75,-247.75 605.25,-247.75 605.25,-227 733.75,-227 733.75,-247.75"/>
<text text-anchor="middle" x="669.5" y="-234.25" font-family="Helvetica,sans-Serif" font-size="10.00">psa_crypto_se_driver.h</text>
</a>
</g>
</g>
<!-- Node23&#45;&gt;Node24 -->
<g id="edge37_Node000023_Node000024" class="edge">
<title>Node23&#45;&gt;Node24</title>
<g id="a_edge37_Node000023_Node000024"><a xlink:title=" ">
<path fill="none" stroke="#63b8ff" d="M534.34,-396.76C573.51,-383.05 637.33,-354.18 666.5,-304.5 674.43,-290.99 674.77,-273.13 673.35,-259.37"/>
<polygon fill="#63b8ff" stroke="#63b8ff" points="676.84,-259.03 671.94,-249.64 669.91,-260.03 676.84,-259.03"/>
</a>
</g>
</g>
<!-- Node24&#45;&gt;Node3 -->
<g id="edge39_Node000024_Node000003" class="edge">
<title>Node24&#45;&gt;Node3</title>
<g id="a_edge39_Node000024_Node000003"><a xlink:title=" ">
<path fill="none" stroke="#63b8ff" d="M655.91,-226.59C644.89,-218.65 629.11,-207.28 616.18,-197.96"/>
<polygon fill="#63b8ff" stroke="#63b8ff" points="618.36,-195.22 608.2,-192.21 614.27,-200.9 618.36,-195.22"/>
</a>
</g>
</g>
<!-- Node24&#45;&gt;Node8 -->
<g id="edge38_Node000024_Node000008" class="edge">
<title>Node24&#45;&gt;Node8</title>
<g id="a_edge38_Node000024_Node000008"><a xlink:title=" ">
<path fill="none" stroke="#63b8ff" d="M668.65,-226.79C665.45,-196.63 651.31,-102.98 596.5,-56.75 561.7,-27.39 509.14,-16.98 473.63,-13.31"/>
<polygon fill="#63b8ff" stroke="#63b8ff" points="474.06,-9.84 463.79,-12.44 473.45,-16.81 474.06,-9.84"/>
</a>
</g>
</g>
<!-- Node24&#45;&gt;Node14 -->
<g id="edge40_Node000024_Node000014" class="edge">
<title>Node24&#45;&gt;Node14</title>
<g id="a_edge40_Node000024_Node000014"><a xlink:title=" ">
<path fill="none" stroke="#63b8ff" d="M632.85,-226.59C599.14,-217.58 548.95,-204.18 512.14,-194.35"/>
<polygon fill="#63b8ff" stroke="#63b8ff" points="513.2,-191.01 502.64,-191.81 511.4,-197.77 513.2,-191.01"/>
</a>
</g>
</g>
<!-- Node24&#45;&gt;Node15 -->
<g id="edge41_Node000024_Node000015" class="edge">
<title>Node24&#45;&gt;Node15</title>
<g id="a_edge41_Node000024_Node000015"><a xlink:title=" ">
<path fill="none" stroke="#63b8ff" d="M665.46,-226.78C659.23,-212.89 646.11,-187.01 628.5,-170.25 615.09,-157.49 597.41,-147.11 581.9,-139.52"/>
<polygon fill="#63b8ff" stroke="#63b8ff" points="583.5,-136.4 572.96,-135.35 580.54,-142.75 583.5,-136.4"/>
</a>
</g>
</g>
</g>
</svg>
