<?xml version="1.0" encoding="UTF-8" standalone="no"?>
<!DOCTYPE svg PUBLIC "-//W3C//DTD SVG 1.1//EN"
 "http://www.w3.org/Graphics/SVG/1.1/DTD/svg11.dtd">
<!-- Generated by graphviz version 12.1.2 (0)
 -->
<!-- Title: sys/psa_crypto/include/psa_crypto_se_management.h Pages: 1 -->
<svg width="604pt" height="439pt"
 viewBox="0.00 0.00 603.62 438.75" xmlns="http://www.w3.org/2000/svg" xmlns:xlink="http://www.w3.org/1999/xlink">
<g id="graph0" class="graph" transform="scale(1 1) rotate(0) translate(4 434.75)">
<title>sys/psa_crypto/include/psa_crypto_se_management.h</title>
<!-- Node1 -->
<g id="Node000001" class="node">
<title>Node1</title>
<g id="a_Node000001"><a xlink:title="PSA Secure Element management function declarations.">
<polygon fill="#999999" stroke="#666666" points="477.5,-430.75 309.25,-430.75 309.25,-397.25 477.5,-397.25 477.5,-430.75"/>
<text text-anchor="start" x="317.25" y="-417.25" font-family="Helvetica,sans-Serif" font-size="10.00">sys/psa_crypto/include</text>
<text text-anchor="middle" x="393.38" y="-404.5" font-family="Helvetica,sans-Serif" font-size="10.00">/psa_crypto_se_management.h</text>
</a>
</g>
</g>
<!-- Node2 -->
<g id="Node000002" class="node">
<title>Node2</title>
<g id="a_Node000002"><a xlink:href="crypto_8h.html" target="_top" xlink:title="Function declarations for PSA Crypto.">
<polygon fill="white" stroke="#666666" points="374.38,-361.25 298.38,-361.25 298.38,-340.5 374.38,-340.5 374.38,-361.25"/>
<text text-anchor="middle" x="336.38" y="-347.75" font-family="Helvetica,sans-Serif" font-size="10.00">psa/crypto.h</text>
</a>
</g>
</g>
<!-- Node1&#45;&gt;Node2 -->
<g id="edge1_Node000001_Node000002" class="edge">
<title>Node1&#45;&gt;Node2</title>
<g id="a_edge1_Node000001_Node000002"><a xlink:title=" ">
<path fill="none" stroke="#63b8ff" d="M378.4,-396.94C370.66,-388.64 361.2,-378.49 353.21,-369.93"/>
<polygon fill="#63b8ff" stroke="#63b8ff" points="355.96,-367.75 346.59,-362.82 350.85,-372.52 355.96,-367.75"/>
</a>
</g>
</g>
<!-- Node19 -->
<g id="Node000019" class="node">
<title>Node19</title>
<g id="a_Node000019"><a xlink:href="psa__crypto__se__driver_8h.html" target="_top" xlink:title="PSA external cryptoprocessor driver module.">
<polygon fill="white" stroke="#666666" points="595.62,-247.75 467.12,-247.75 467.12,-227 595.62,-227 595.62,-247.75"/>
<text text-anchor="middle" x="531.38" y="-234.25" font-family="Helvetica,sans-Serif" font-size="10.00">psa_crypto_se_driver.h</text>
</a>
</g>
</g>
<!-- Node1&#45;&gt;Node19 -->
<g id="edge29_Node000001_Node000019" class="edge">
<title>Node1&#45;&gt;Node19</title>
<g id="a_edge29_Node000001_Node000019"><a xlink:title=" ">
<path fill="none" stroke="#63b8ff" d="M406.11,-396.88C431.74,-364.46 489.41,-291.48 516.62,-257.04"/>
<polygon fill="#63b8ff" stroke="#63b8ff" points="519.34,-259.25 522.8,-249.23 513.85,-254.91 519.34,-259.25"/>
</a>
</g>
</g>
<!-- Node3 -->
<g id="Node000003" class="node">
<title>Node3</title>
<g id="a_Node000003"><a xlink:title=" ">
<polygon fill="#e0e0e0" stroke="#999999" points="481.38,-191 429.38,-191 429.38,-170.25 481.38,-170.25 481.38,-191"/>
<text text-anchor="middle" x="455.38" y="-177.5" font-family="Helvetica,sans-Serif" font-size="10.00">stdlib.h</text>
</a>
</g>
</g>
<!-- Node2&#45;&gt;Node3 -->
<g id="edge2_Node000002_Node000003" class="edge">
<title>Node2&#45;&gt;Node3</title>
<g id="a_edge2_Node000002_Node000003"><a xlink:title=" ">
<path fill="none" stroke="#63b8ff" d="M363.62,-340.16C380.68,-332.79 401.91,-321.08 415.38,-304.5 439.8,-274.42 449.48,-228.99 453.19,-202.62"/>
<polygon fill="#63b8ff" stroke="#63b8ff" points="456.64,-203.21 454.38,-192.86 449.69,-202.36 456.64,-203.21"/>
</a>
</g>
</g>
<!-- Node4 -->
<g id="Node000004" class="node">
<title>Node4</title>
<g id="a_Node000004"><a xlink:title=" ">
<polygon fill="#e0e0e0" stroke="#999999" points="335.75,-304.5 283,-304.5 283,-283.75 335.75,-283.75 335.75,-304.5"/>
<text text-anchor="middle" x="309.38" y="-291" font-family="Helvetica,sans-Serif" font-size="10.00">string.h</text>
</a>
</g>
</g>
<!-- Node2&#45;&gt;Node4 -->
<g id="edge3_Node000002_Node000004" class="edge">
<title>Node2&#45;&gt;Node4</title>
<g id="a_edge3_Node000002_Node000004"><a xlink:title=" ">
<path fill="none" stroke="#63b8ff" d="M331.55,-340.09C328.13,-333.16 323.43,-323.62 319.23,-315.11"/>
<polygon fill="#63b8ff" stroke="#63b8ff" points="322.39,-313.61 314.83,-306.19 316.11,-316.7 322.39,-313.61"/>
</a>
</g>
</g>
<!-- Node5 -->
<g id="Node000005" class="node">
<title>Node5</title>
<g id="a_Node000005"><a xlink:href="kernel__defines_8h.html" target="_top" xlink:title="Common macros and compiler attributes/pragmas configuration.">
<polygon fill="white" stroke="#666666" points="189.5,-191 93.25,-191 93.25,-170.25 189.5,-170.25 189.5,-191"/>
<text text-anchor="middle" x="141.38" y="-177.5" font-family="Helvetica,sans-Serif" font-size="10.00">kernel_defines.h</text>
</a>
</g>
</g>
<!-- Node2&#45;&gt;Node5 -->
<g id="edge4_Node000002_Node000005" class="edge">
<title>Node2&#45;&gt;Node5</title>
<g id="a_edge4_Node000002_Node000005"><a xlink:title=" ">
<path fill="none" stroke="#63b8ff" d="M298.1,-348.5C254.67,-345.4 183.06,-335.56 130.38,-304.5 95.06,-283.68 61.97,-263.63 80.38,-227 86.65,-214.5 98.19,-204.58 109.55,-197.24"/>
<polygon fill="#63b8ff" stroke="#63b8ff" points="111.21,-200.32 118.05,-192.22 107.66,-194.29 111.21,-200.32"/>
</a>
</g>
</g>
<!-- Node13 -->
<g id="Node000013" class="node">
<title>Node13</title>
<g id="a_Node000013"><a xlink:href="crypto__sizes_8h.html" target="_top" xlink:title="Size definitions for PSA Crypto.">
<polygon fill="white" stroke="#666666" points="335.25,-247.75 249.5,-247.75 249.5,-227 335.25,-227 335.25,-247.75"/>
<text text-anchor="middle" x="292.38" y="-234.25" font-family="Helvetica,sans-Serif" font-size="10.00">crypto_sizes.h</text>
</a>
</g>
</g>
<!-- Node2&#45;&gt;Node13 -->
<g id="edge15_Node000002_Node000013" class="edge">
<title>Node2&#45;&gt;Node13</title>
<g id="a_edge15_Node000002_Node000013"><a xlink:title=" ">
<path fill="none" stroke="#63b8ff" d="M314,-340.14C299.82,-332.65 282.64,-320.8 274.38,-304.5 266.9,-289.76 272.83,-271.56 279.82,-257.98"/>
<polygon fill="#63b8ff" stroke="#63b8ff" points="282.72,-259.97 284.67,-249.55 276.65,-256.48 282.72,-259.97"/>
</a>
</g>
</g>
<!-- Node14 -->
<g id="Node000014" class="node">
<title>Node14</title>
<g id="a_Node000014"><a xlink:href="crypto__values_8h.html" target="_top" xlink:title="Value definitions for PSA Crypto.">
<polygon fill="white" stroke="#666666" points="373,-191 279.75,-191 279.75,-170.25 373,-170.25 373,-191"/>
<text text-anchor="middle" x="326.38" y="-177.5" font-family="Helvetica,sans-Serif" font-size="10.00">crypto_values.h</text>
</a>
</g>
</g>
<!-- Node2&#45;&gt;Node14 -->
<g id="edge27_Node000002_Node000014" class="edge">
<title>Node2&#45;&gt;Node14</title>
<g id="a_edge27_Node000002_Node000014"><a xlink:title=" ">
<path fill="none" stroke="#63b8ff" d="M338.64,-340.21C343.19,-319.34 352.32,-268.58 344.38,-227 342.75,-218.49 339.55,-209.53 336.29,-201.85"/>
<polygon fill="#63b8ff" stroke="#63b8ff" points="339.48,-200.4 332.13,-192.77 333.11,-203.32 339.48,-200.4"/>
</a>
</g>
</g>
<!-- Node15 -->
<g id="Node000015" class="node">
<title>Node15</title>
<g id="a_Node000015"><a xlink:href="crypto__types_8h.html" target="_top" xlink:title="Type definitions for PSA Crypto.">
<polygon fill="white" stroke="#666666" points="445.38,-134.25 357.38,-134.25 357.38,-113.5 445.38,-113.5 445.38,-134.25"/>
<text text-anchor="middle" x="401.38" y="-120.75" font-family="Helvetica,sans-Serif" font-size="10.00">crypto_types.h</text>
</a>
</g>
</g>
<!-- Node2&#45;&gt;Node15 -->
<g id="edge28_Node000002_Node000015" class="edge">
<title>Node2&#45;&gt;Node15</title>
<g id="a_edge28_Node000002_Node000015"><a xlink:title=" ">
<path fill="none" stroke="#63b8ff" d="M342.2,-340.09C347.34,-331.1 354.72,-317.28 359.38,-304.5 379.69,-248.73 392.61,-179.57 398.19,-145.64"/>
<polygon fill="#63b8ff" stroke="#63b8ff" points="401.61,-146.38 399.73,-135.95 394.7,-145.28 401.61,-146.38"/>
</a>
</g>
</g>
<!-- Node17 -->
<g id="Node000017" class="node">
<title>Node17</title>
<g id="a_Node000017"><a xlink:href="crypto__struct_8h.html" target="_top" xlink:title="Structure definitions for PSA Crypto.">
<polygon fill="white" stroke="#666666" points="227.75,-304.5 139,-304.5 139,-283.75 227.75,-283.75 227.75,-304.5"/>
<text text-anchor="middle" x="183.38" y="-291" font-family="Helvetica,sans-Serif" font-size="10.00">crypto_struct.h</text>
</a>
</g>
</g>
<!-- Node2&#45;&gt;Node17 -->
<g id="edge22_Node000002_Node000017" class="edge">
<title>Node2&#45;&gt;Node17</title>
<g id="a_edge22_Node000002_Node000017"><a xlink:title=" ">
<path fill="none" stroke="#63b8ff" d="M309.02,-340.09C284.62,-331.36 248.65,-318.48 221.44,-308.75"/>
<polygon fill="#63b8ff" stroke="#63b8ff" points="222.77,-305.5 212.17,-305.43 220.41,-312.1 222.77,-305.5"/>
</a>
</g>
</g>
<!-- Node6 -->
<g id="Node000006" class="node">
<title>Node6</title>
<g id="a_Node000006"><a xlink:href="modules_8h.html" target="_top" xlink:title="Common macros and compiler attributes/pragmas configuration.">
<polygon fill="white" stroke="#666666" points="250.88,-134.25 183.88,-134.25 183.88,-113.5 250.88,-113.5 250.88,-134.25"/>
<text text-anchor="middle" x="217.38" y="-120.75" font-family="Helvetica,sans-Serif" font-size="10.00">modules.h</text>
</a>
</g>
</g>
<!-- Node5&#45;&gt;Node6 -->
<g id="edge5_Node000005_Node000006" class="edge">
<title>Node5&#45;&gt;Node6</title>
<g id="a_edge5_Node000005_Node000006"><a xlink:title=" ">
<path fill="none" stroke="#63b8ff" d="M154.96,-169.84C165.99,-161.9 181.76,-150.53 194.7,-141.21"/>
<polygon fill="#63b8ff" stroke="#63b8ff" points="196.61,-144.15 202.68,-135.46 192.52,-138.47 196.61,-144.15"/>
</a>
</g>
</g>
<!-- Node7 -->
<g id="Node000007" class="node">
<title>Node7</title>
<g id="a_Node000007"><a xlink:href="riot__version_8h.html" target="_top" xlink:title="Common macros and compiler attributes/pragmas configuration.">
<polygon fill="white" stroke="#666666" points="82.75,-77.5 0,-77.5 0,-56.75 82.75,-56.75 82.75,-77.5"/>
<text text-anchor="middle" x="41.38" y="-64" font-family="Helvetica,sans-Serif" font-size="10.00">riot_version.h</text>
</a>
</g>
</g>
<!-- Node5&#45;&gt;Node7 -->
<g id="edge6_Node000005_Node000007" class="edge">
<title>Node5&#45;&gt;Node7</title>
<g id="a_edge6_Node000005_Node000007"><a xlink:title=" ">
<path fill="none" stroke="#63b8ff" d="M111.63,-169.89C94.02,-162.68 72.64,-151.14 59.38,-134.25 49.25,-121.35 44.81,-103.18 42.87,-89.15"/>
<polygon fill="#63b8ff" stroke="#63b8ff" points="46.35,-88.79 41.85,-79.2 39.39,-89.5 46.35,-88.79"/>
</a>
</g>
</g>
<!-- Node9 -->
<g id="Node000009" class="node">
<title>Node9</title>
<g id="a_Node000009"><a xlink:href="compiler__hints_8h.html" target="_top" xlink:title="Common macros and compiler attributes/pragmas configuration.">
<polygon fill="white" stroke="#666666" points="165.88,-134.25 68.88,-134.25 68.88,-113.5 165.88,-113.5 165.88,-134.25"/>
<text text-anchor="middle" x="117.38" y="-120.75" font-family="Helvetica,sans-Serif" font-size="10.00">compiler_hints.h</text>
</a>
</g>
</g>
<!-- Node5&#45;&gt;Node9 -->
<g id="edge8_Node000005_Node000009" class="edge">
<title>Node5&#45;&gt;Node9</title>
<g id="a_edge8_Node000005_Node000009"><a xlink:title=" ">
<path fill="none" stroke="#63b8ff" d="M137.08,-169.84C134.05,-162.91 129.87,-153.37 126.14,-144.86"/>
<polygon fill="#63b8ff" stroke="#63b8ff" points="129.46,-143.72 122.24,-135.96 123.05,-146.53 129.46,-143.72"/>
</a>
</g>
</g>
<!-- Node11 -->
<g id="Node000011" class="node">
<title>Node11</title>
<g id="a_Node000011"><a xlink:href="container_8h.html" target="_top" xlink:title="Common macros and compiler attributes/pragmas configuration.">
<polygon fill="white" stroke="#666666" points="339.75,-134.25 269,-134.25 269,-113.5 339.75,-113.5 339.75,-134.25"/>
<text text-anchor="middle" x="304.38" y="-120.75" font-family="Helvetica,sans-Serif" font-size="10.00">container.h</text>
</a>
</g>
</g>
<!-- Node5&#45;&gt;Node11 -->
<g id="edge12_Node000005_Node000011" class="edge">
<title>Node5&#45;&gt;Node11</title>
<g id="a_edge12_Node000005_Node000011"><a xlink:title=" ">
<path fill="none" stroke="#63b8ff" d="M170.52,-169.84C196.74,-161.03 235.52,-148 264.59,-138.24"/>
<polygon fill="#63b8ff" stroke="#63b8ff" points="265.41,-141.65 273.78,-135.15 263.18,-135.02 265.41,-141.65"/>
</a>
</g>
</g>
<!-- Node8 -->
<g id="Node000008" class="node">
<title>Node8</title>
<g id="a_Node000008"><a xlink:title=" ">
<polygon fill="#e0e0e0" stroke="#999999" points="326.75,-20.75 274,-20.75 274,0 326.75,0 326.75,-20.75"/>
<text text-anchor="middle" x="300.38" y="-7.25" font-family="Helvetica,sans-Serif" font-size="10.00">stdint.h</text>
</a>
</g>
</g>
<!-- Node7&#45;&gt;Node8 -->
<g id="edge7_Node000007_Node000008" class="edge">
<title>Node7&#45;&gt;Node8</title>
<g id="a_edge7_Node000007_Node000008"><a xlink:title=" ">
<path fill="none" stroke="#63b8ff" d="M82.99,-57.33C132.53,-46.86 214.55,-29.52 262.42,-19.4"/>
<polygon fill="#63b8ff" stroke="#63b8ff" points="262.99,-22.86 272.05,-17.36 261.54,-16.01 262.99,-22.86"/>
</a>
</g>
</g>
<!-- Node9&#45;&gt;Node8 -->
<g id="edge11_Node000009_Node000008" class="edge">
<title>Node9&#45;&gt;Node8</title>
<g id="a_edge11_Node000009_Node000008"><a xlink:title=" ">
<path fill="none" stroke="#63b8ff" d="M129.12,-113.17C145.87,-99.6 177.84,-74.61 207.38,-56.75 226.56,-45.15 249.14,-34.08 267.25,-25.77"/>
<polygon fill="#63b8ff" stroke="#63b8ff" points="268.55,-29.03 276.23,-21.72 265.67,-22.64 268.55,-29.03"/>
</a>
</g>
</g>
<!-- Node10 -->
<g id="Node000010" class="node">
<title>Node10</title>
<g id="a_Node000010"><a xlink:href="assert_8h.html" target="_top" xlink:title="POSIX.1&#45;2008 compliant version of the assert macro.">
<polygon fill="white" stroke="#666666" points="157.88,-77.5 102.88,-77.5 102.88,-56.75 157.88,-56.75 157.88,-77.5"/>
<text text-anchor="middle" x="130.38" y="-64" font-family="Helvetica,sans-Serif" font-size="10.00">assert.h</text>
</a>
</g>
</g>
<!-- Node9&#45;&gt;Node10 -->
<g id="edge9_Node000009_Node000010" class="edge">
<title>Node9&#45;&gt;Node10</title>
<g id="a_edge9_Node000009_Node000010"><a xlink:title=" ">
<path fill="none" stroke="#63b8ff" d="M119.7,-113.09C121.29,-106.39 123.46,-97.26 125.42,-88.98"/>
<polygon fill="#63b8ff" stroke="#63b8ff" points="128.82,-89.84 127.72,-79.3 122.01,-88.22 128.82,-89.84"/>
</a>
</g>
</g>
<!-- Node10&#45;&gt;Node8 -->
<g id="edge10_Node000010_Node000008" class="edge">
<title>Node10&#45;&gt;Node8</title>
<g id="a_edge10_Node000010_Node000008"><a xlink:title=" ">
<path fill="none" stroke="#63b8ff" d="M158.07,-57.21C186.6,-48.02 231.25,-33.64 262.92,-23.44"/>
<polygon fill="#63b8ff" stroke="#63b8ff" points="263.65,-26.88 272.1,-20.48 261.5,-20.22 263.65,-26.88"/>
</a>
</g>
</g>
<!-- Node11&#45;&gt;Node8 -->
<g id="edge14_Node000011_Node000008" class="edge">
<title>Node11&#45;&gt;Node8</title>
<g id="a_edge14_Node000011_Node000008"><a xlink:title=" ">
<path fill="none" stroke="#63b8ff" d="M304.03,-113.37C303.4,-95.6 302.01,-56.97 301.14,-32.68"/>
<polygon fill="#63b8ff" stroke="#63b8ff" points="304.64,-32.56 300.78,-22.69 297.64,-32.81 304.64,-32.56"/>
</a>
</g>
</g>
<!-- Node12 -->
<g id="Node000012" class="node">
<title>Node12</title>
<g id="a_Node000012"><a xlink:title=" ">
<polygon fill="#e0e0e0" stroke="#999999" points="271.88,-77.5 216.88,-77.5 216.88,-56.75 271.88,-56.75 271.88,-77.5"/>
<text text-anchor="middle" x="244.38" y="-64" font-family="Helvetica,sans-Serif" font-size="10.00">stddef.h</text>
</a>
</g>
</g>
<!-- Node11&#45;&gt;Node12 -->
<g id="edge13_Node000011_Node000012" class="edge">
<title>Node11&#45;&gt;Node12</title>
<g id="a_edge13_Node000011_Node000012"><a xlink:title=" ">
<path fill="none" stroke="#63b8ff" d="M293.65,-113.09C285.29,-105.46 273.46,-94.67 263.49,-85.57"/>
<polygon fill="#63b8ff" stroke="#63b8ff" points="265.87,-83 256.13,-78.85 261.15,-88.17 265.87,-83"/>
</a>
</g>
</g>
<!-- Node13&#45;&gt;Node5 -->
<g id="edge16_Node000013_Node000005" class="edge">
<title>Node13&#45;&gt;Node5</title>
<g id="a_edge16_Node000013_Node000005"><a xlink:title=" ">
<path fill="none" stroke="#63b8ff" d="M265.38,-226.59C241.3,-217.86 205.8,-204.98 178.95,-195.25"/>
<polygon fill="#63b8ff" stroke="#63b8ff" points="180.41,-192.05 169.81,-191.94 178.02,-198.64 180.41,-192.05"/>
</a>
</g>
</g>
<!-- Node13&#45;&gt;Node14 -->
<g id="edge17_Node000013_Node000014" class="edge">
<title>Node13&#45;&gt;Node14</title>
<g id="a_edge17_Node000013_Node000014"><a xlink:title=" ">
<path fill="none" stroke="#63b8ff" d="M298.45,-226.59C302.85,-219.5 308.95,-209.69 314.32,-201.04"/>
<polygon fill="#63b8ff" stroke="#63b8ff" points="317.25,-202.96 319.55,-192.61 311.3,-199.26 317.25,-202.96"/>
</a>
</g>
</g>
<!-- Node14&#45;&gt;Node15 -->
<g id="edge18_Node000014_Node000015" class="edge">
<title>Node14&#45;&gt;Node15</title>
<g id="a_edge18_Node000014_Node000015"><a xlink:title=" ">
<path fill="none" stroke="#63b8ff" d="M339.78,-169.84C350.66,-161.9 366.23,-150.53 378.99,-141.21"/>
<polygon fill="#63b8ff" stroke="#63b8ff" points="380.85,-144.19 386.86,-135.47 376.72,-138.54 380.85,-144.19"/>
</a>
</g>
</g>
<!-- Node15&#45;&gt;Node8 -->
<g id="edge19_Node000015_Node000008" class="edge">
<title>Node15&#45;&gt;Node8</title>
<g id="a_edge19_Node000015_Node000008"><a xlink:title=" ">
<path fill="none" stroke="#63b8ff" d="M405.23,-113.43C410.15,-99.71 416.75,-74.05 405.38,-56.75 390.57,-34.22 361.93,-22.82 338.3,-17.09"/>
<polygon fill="#63b8ff" stroke="#63b8ff" points="339.17,-13.7 328.66,-15.02 337.7,-20.54 339.17,-13.7"/>
</a>
</g>
</g>
<!-- Node16 -->
<g id="Node000016" class="node">
<title>Node16</title>
<g id="a_Node000016"><a xlink:href="psa__crypto_2psa_2error_8h.html" target="_top" xlink:title="Error definitions for the PSA Crypto API.">
<polygon fill="white" stroke="#666666" points="396.62,-77.5 328.12,-77.5 328.12,-56.75 396.62,-56.75 396.62,-77.5"/>
<text text-anchor="middle" x="362.38" y="-64" font-family="Helvetica,sans-Serif" font-size="10.00">psa/error.h</text>
</a>
</g>
</g>
<!-- Node15&#45;&gt;Node16 -->
<g id="edge20_Node000015_Node000016" class="edge">
<title>Node15&#45;&gt;Node16</title>
<g id="a_edge20_Node000015_Node000016"><a xlink:title=" ">
<path fill="none" stroke="#63b8ff" d="M394.4,-113.09C389.24,-105.85 382.06,-95.76 375.8,-86.97"/>
<polygon fill="#63b8ff" stroke="#63b8ff" points="378.82,-85.18 370.17,-79.06 373.12,-89.24 378.82,-85.18"/>
</a>
</g>
</g>
<!-- Node16&#45;&gt;Node8 -->
<g id="edge21_Node000016_Node000008" class="edge">
<title>Node16&#45;&gt;Node8</title>
<g id="a_edge21_Node000016_Node000008"><a xlink:title=" ">
<path fill="none" stroke="#63b8ff" d="M351.29,-56.34C342.56,-48.63 330.18,-37.7 319.81,-28.54"/>
<polygon fill="#63b8ff" stroke="#63b8ff" points="322.31,-26.08 312.5,-22.08 317.68,-31.32 322.31,-26.08"/>
</a>
</g>
</g>
<!-- Node17&#45;&gt;Node13 -->
<g id="edge24_Node000017_Node000013" class="edge">
<title>Node17&#45;&gt;Node13</title>
<g id="a_edge24_Node000017_Node000013"><a xlink:title=" ">
<path fill="none" stroke="#63b8ff" d="M202.86,-283.34C219.52,-274.97 243.76,-262.79 262.81,-253.22"/>
<polygon fill="#63b8ff" stroke="#63b8ff" points="264.34,-256.37 271.7,-248.76 261.2,-250.12 264.34,-256.37"/>
</a>
</g>
</g>
<!-- Node17&#45;&gt;Node15 -->
<g id="edge23_Node000017_Node000015" class="edge">
<title>Node17&#45;&gt;Node15</title>
<g id="a_edge23_Node000017_Node000015"><a xlink:title=" ">
<path fill="none" stroke="#63b8ff" d="M187.72,-283.26C198.39,-260.13 228.15,-201.95 270.38,-170.25 292.49,-153.64 321.14,-142.8 346.01,-135.9"/>
<polygon fill="#63b8ff" stroke="#63b8ff" points="346.88,-139.29 355.67,-133.38 345.11,-132.52 346.88,-139.29"/>
</a>
</g>
</g>
<!-- Node18 -->
<g id="Node000018" class="node">
<title>Node18</title>
<g id="a_Node000018"><a xlink:href="crypto__contexts_8h.html" target="_top" xlink:title="Context definitions for PSA Crypto.">
<polygon fill="white" stroke="#666666" points="192.88,-247.75 89.88,-247.75 89.88,-227 192.88,-227 192.88,-247.75"/>
<text text-anchor="middle" x="141.38" y="-234.25" font-family="Helvetica,sans-Serif" font-size="10.00">crypto_contexts.h</text>
</a>
</g>
</g>
<!-- Node17&#45;&gt;Node18 -->
<g id="edge25_Node000017_Node000018" class="edge">
<title>Node17&#45;&gt;Node18</title>
<g id="a_edge25_Node000017_Node000018"><a xlink:title=" ">
<path fill="none" stroke="#63b8ff" d="M175.87,-283.34C170.25,-276.02 162.41,-265.79 155.62,-256.94"/>
<polygon fill="#63b8ff" stroke="#63b8ff" points="158.6,-255.08 149.74,-249.28 153.05,-259.34 158.6,-255.08"/>
</a>
</g>
</g>
<!-- Node18&#45;&gt;Node5 -->
<g id="edge26_Node000018_Node000005" class="edge">
<title>Node18&#45;&gt;Node5</title>
<g id="a_edge26_Node000018_Node000005"><a xlink:title=" ">
<path fill="none" stroke="#63b8ff" d="M141.38,-226.59C141.38,-219.97 141.38,-210.97 141.38,-202.77"/>
<polygon fill="#63b8ff" stroke="#63b8ff" points="144.88,-202.84 141.38,-192.84 137.88,-202.84 144.88,-202.84"/>
</a>
</g>
</g>
<!-- Node19&#45;&gt;Node3 -->
<g id="edge31_Node000019_Node000003" class="edge">
<title>Node19&#45;&gt;Node3</title>
<g id="a_edge31_Node000019_Node000003"><a xlink:title=" ">
<path fill="none" stroke="#63b8ff" d="M517.79,-226.59C506.76,-218.65 490.99,-207.28 478.05,-197.96"/>
<polygon fill="#63b8ff" stroke="#63b8ff" points="480.23,-195.22 470.07,-192.21 476.14,-200.9 480.23,-195.22"/>
</a>
</g>
</g>
<!-- Node19&#45;&gt;Node8 -->
<g id="edge30_Node000019_Node000008" class="edge">
<title>Node19&#45;&gt;Node8</title>
<g id="a_edge30_Node000019_Node000008"><a xlink:title=" ">
<path fill="none" stroke="#63b8ff" d="M529.79,-226.52C527.37,-213.19 521.99,-188.94 512.38,-170.25 482.93,-113 474.46,-94.59 422.38,-56.75 397.17,-38.44 363.72,-26.69 338.22,-19.74"/>
<polygon fill="#63b8ff" stroke="#63b8ff" points="339.15,-16.37 328.59,-17.26 337.4,-23.15 339.15,-16.37"/>
</a>
</g>
</g>
<!-- Node19&#45;&gt;Node14 -->
<g id="edge32_Node000019_Node000014" class="edge">
<title>Node19&#45;&gt;Node14</title>
<g id="a_edge32_Node000019_Node000014"><a xlink:title=" ">
<path fill="none" stroke="#63b8ff" d="M494.73,-226.59C461.01,-217.58 410.82,-204.18 374.01,-194.35"/>
<polygon fill="#63b8ff" stroke="#63b8ff" points="375.08,-191.01 364.51,-191.81 373.27,-197.77 375.08,-191.01"/>
</a>
</g>
</g>
<!-- Node19&#45;&gt;Node15 -->
<g id="edge33_Node000019_Node000015" class="edge">
<title>Node19&#45;&gt;Node15</title>
<g id="a_edge33_Node000019_Node000015"><a xlink:title=" ">
<path fill="none" stroke="#63b8ff" d="M527.41,-226.7C521.27,-212.71 508.27,-186.71 490.38,-170.25 476.03,-157.06 457.13,-146.7 440.43,-139.24"/>
<polygon fill="#63b8ff" stroke="#63b8ff" points="441.82,-136.02 431.25,-135.34 439.08,-142.47 441.82,-136.02"/>
</a>
</g>
</g>
</g>
</svg>
