<?xml version="1.0" encoding="UTF-8" standalone="no"?>
<!DOCTYPE svg PUBLIC "-//W3C//DTD SVG 1.1//EN"
 "http://www.w3.org/Graphics/SVG/1.1/DTD/svg11.dtd">
<!-- Generated by graphviz version 12.1.2 (0)
 -->
<!-- Title: sys/posix/pthread/include/pthread_cond.h Pages: 1 -->
<svg width="1060pt" height="496pt"
 viewBox="0.00 0.00 1059.75 495.50" xmlns="http://www.w3.org/2000/svg" xmlns:xlink="http://www.w3.org/1999/xlink">
<g id="graph0" class="graph" transform="scale(1 1) rotate(0) translate(4 491.5)">
<title>sys/posix/pthread/include/pthread_cond.h</title>
<!-- Node1 -->
<g id="Node000001" class="node">
<title>Node1</title>
<g id="a_Node000001"><a xlink:title="RIOT POSIX condition variable API.">
<polygon fill="#999999" stroke="#666666" points="836.25,-487.5 695.75,-487.5 695.75,-454 836.25,-454 836.25,-487.5"/>
<text text-anchor="start" x="703.75" y="-474" font-family="Helvetica,sans-Serif" font-size="10.00">sys/posix/pthread/include</text>
<text text-anchor="middle" x="766" y="-461.25" font-family="Helvetica,sans-Serif" font-size="10.00">/pthread_cond.h</text>
</a>
</g>
</g>
<!-- Node2 -->
<g id="Node000002" class="node">
<title>Node2</title>
<g id="a_Node000002"><a xlink:href="mutex_8h.html" target="_top" xlink:title="Mutex for thread synchronization.">
<polygon fill="white" stroke="#666666" points="638.25,-418 581.75,-418 581.75,-397.25 638.25,-397.25 638.25,-418"/>
<text text-anchor="middle" x="610" y="-404.5" font-family="Helvetica,sans-Serif" font-size="10.00">mutex.h</text>
</a>
</g>
</g>
<!-- Node1&#45;&gt;Node2 -->
<g id="edge1_Node000001_Node000002" class="edge">
<title>Node1&#45;&gt;Node2</title>
<g id="a_edge1_Node000001_Node000002"><a xlink:title=" ">
<path fill="none" stroke="#63b8ff" d="M724.6,-453.53C699.98,-443.88 669.06,-431.77 645.55,-422.55"/>
<polygon fill="#63b8ff" stroke="#63b8ff" points="646.98,-419.36 636.39,-418.97 644.43,-425.87 646.98,-419.36"/>
</a>
</g>
</g>
<!-- Node26 -->
<g id="Node000026" class="node">
<title>Node26</title>
<g id="a_Node000026"><a xlink:href="priority__queue_8h.html" target="_top" xlink:title="A simple priority queue.">
<polygon fill="white" stroke="#666666" points="1051.75,-134.25 956.25,-134.25 956.25,-113.5 1051.75,-113.5 1051.75,-134.25"/>
<text text-anchor="middle" x="1004" y="-120.75" font-family="Helvetica,sans-Serif" font-size="10.00">priority_queue.h</text>
</a>
</g>
</g>
<!-- Node1&#45;&gt;Node26 -->
<g id="edge43_Node000001_Node000026" class="edge">
<title>Node1&#45;&gt;Node26</title>
<g id="a_edge43_Node000001_Node000026"><a xlink:title=" ">
<path fill="none" stroke="#63b8ff" d="M836.58,-462.94C903.86,-452.1 995,-424.09 995,-351.88 995,-351.88 995,-351.88 995,-236.38 995,-204.73 998.65,-168.2 1001.3,-145.82"/>
<polygon fill="#63b8ff" stroke="#63b8ff" points="1004.73,-146.55 1002.49,-136.2 997.79,-145.69 1004.73,-146.55"/>
</a>
</g>
</g>
<!-- Node3 -->
<g id="Node000003" class="node">
<title>Node3</title>
<g id="a_Node000003"><a xlink:title=" ">
<polygon fill="#e0e0e0" stroke="#999999" points="510.5,-77.5 455.5,-77.5 455.5,-56.75 510.5,-56.75 510.5,-77.5"/>
<text text-anchor="middle" x="483" y="-64" font-family="Helvetica,sans-Serif" font-size="10.00">stddef.h</text>
</a>
</g>
</g>
<!-- Node2&#45;&gt;Node3 -->
<g id="edge2_Node000002_Node000003" class="edge">
<title>Node2&#45;&gt;Node3</title>
<g id="a_edge2_Node000002_Node000003"><a xlink:title=" ">
<path fill="none" stroke="#63b8ff" d="M618.44,-396.95C633.62,-378.49 664,-336.42 664,-295.12 664,-295.12 664,-295.12 664,-179.62 664,-148.92 665.92,-135 644,-113.5 611.45,-81.57 558.27,-71.74 522,-68.91"/>
<polygon fill="#63b8ff" stroke="#63b8ff" points="522.58,-65.44 512.38,-68.31 522.15,-72.42 522.58,-65.44"/>
</a>
</g>
</g>
<!-- Node4 -->
<g id="Node000004" class="node">
<title>Node4</title>
<g id="a_Node000004"><a xlink:title=" ">
<polygon fill="#e0e0e0" stroke="#999999" points="221.38,-20.75 168.62,-20.75 168.62,0 221.38,0 221.38,-20.75"/>
<text text-anchor="middle" x="195" y="-7.25" font-family="Helvetica,sans-Serif" font-size="10.00">stdint.h</text>
</a>
</g>
</g>
<!-- Node2&#45;&gt;Node4 -->
<g id="edge3_Node000002_Node000004" class="edge">
<title>Node2&#45;&gt;Node4</title>
<g id="a_edge3_Node000002_Node000004"><a xlink:title=" ">
<path fill="none" stroke="#63b8ff" d="M581.4,-404.47C460.8,-395.03 0,-355.01 0,-295.12 0,-295.12 0,-295.12 0,-122.88 0,-51.18 100.56,-24.96 157.25,-15.87"/>
<polygon fill="#63b8ff" stroke="#63b8ff" points="157.42,-19.38 166.8,-14.45 156.39,-12.46 157.42,-19.38"/>
</a>
</g>
</g>
<!-- Node5 -->
<g id="Node000005" class="node">
<title>Node5</title>
<g id="a_Node000005"><a xlink:title=" ">
<polygon fill="#e0e0e0" stroke="#999999" points="572.5,-134.25 511.5,-134.25 511.5,-113.5 572.5,-113.5 572.5,-134.25"/>
<text text-anchor="middle" x="542" y="-120.75" font-family="Helvetica,sans-Serif" font-size="10.00">stdbool.h</text>
</a>
</g>
</g>
<!-- Node2&#45;&gt;Node5 -->
<g id="edge4_Node000002_Node000005" class="edge">
<title>Node2&#45;&gt;Node5</title>
<g id="a_edge4_Node000002_Node000005"><a xlink:title=" ">
<path fill="none" stroke="#63b8ff" d="M607.66,-396.93C597.93,-356.62 560.58,-201.86 546.99,-145.53"/>
<polygon fill="#63b8ff" stroke="#63b8ff" points="550.43,-144.9 544.69,-136 543.63,-146.55 550.43,-144.9"/>
</a>
</g>
</g>
<!-- Node6 -->
<g id="Node000006" class="node">
<title>Node6</title>
<g id="a_Node000006"><a xlink:href="architecture_8h.html" target="_top" xlink:title="Platform&#45;independent access to architecture details.">
<polygon fill="white" stroke="#666666" points="775.75,-247.75 692.25,-247.75 692.25,-227 775.75,-227 775.75,-247.75"/>
<text text-anchor="middle" x="734" y="-234.25" font-family="Helvetica,sans-Serif" font-size="10.00">architecture.h</text>
</a>
</g>
</g>
<!-- Node2&#45;&gt;Node6 -->
<g id="edge5_Node000002_Node000006" class="edge">
<title>Node2&#45;&gt;Node6</title>
<g id="a_edge5_Node000002_Node000006"><a xlink:title=" ">
<path fill="none" stroke="#63b8ff" d="M630.67,-396.78C645.45,-388.88 664.94,-376.6 678,-361.25 704.36,-330.27 720.71,-284.83 728.52,-258.77"/>
<polygon fill="#63b8ff" stroke="#63b8ff" points="731.8,-260.02 731.17,-249.44 725.07,-258.1 731.8,-260.02"/>
</a>
</g>
</g>
<!-- Node10 -->
<g id="Node000010" class="node">
<title>Node10</title>
<g id="a_Node000010"><a xlink:href="kernel__defines_8h.html" target="_top" xlink:title="Common macros and compiler attributes/pragmas configuration.">
<polygon fill="white" stroke="#666666" points="268.12,-191 171.88,-191 171.88,-170.25 268.12,-170.25 268.12,-191"/>
<text text-anchor="middle" x="220" y="-177.5" font-family="Helvetica,sans-Serif" font-size="10.00">kernel_defines.h</text>
</a>
</g>
</g>
<!-- Node2&#45;&gt;Node10 -->
<g id="edge10_Node000002_Node000010" class="edge">
<title>Node2&#45;&gt;Node10</title>
<g id="a_edge10_Node000002_Node000010"><a xlink:title=" ">
<path fill="none" stroke="#63b8ff" d="M581.5,-404.51C494.14,-397.33 233.22,-370.6 188,-304.5 166.12,-272.52 189.37,-226.52 206.1,-200.84"/>
<polygon fill="#63b8ff" stroke="#63b8ff" points="208.89,-202.95 211.65,-192.72 203.12,-199 208.89,-202.95"/>
</a>
</g>
</g>
<!-- Node16 -->
<g id="Node000016" class="node">
<title>Node16</title>
<g id="a_Node000016"><a xlink:href="list_8h.html" target="_top" xlink:title="Intrusive linked list.">
<polygon fill="white" stroke="#666666" points="635,-134.25 595,-134.25 595,-113.5 635,-113.5 635,-134.25"/>
<text text-anchor="middle" x="615" y="-120.75" font-family="Helvetica,sans-Serif" font-size="10.00">list.h</text>
</a>
</g>
</g>
<!-- Node2&#45;&gt;Node16 -->
<g id="edge21_Node000002_Node000016" class="edge">
<title>Node2&#45;&gt;Node16</title>
<g id="a_edge21_Node000002_Node000016"><a xlink:title=" ">
<path fill="none" stroke="#63b8ff" d="M638.6,-401.93C711.76,-389.12 900,-350.75 900,-295.12 900,-295.12 900,-295.12 900,-236.38 900,-205.8 903.79,-190.64 881,-170.25 846.81,-139.65 709.21,-129.31 646.47,-126.14"/>
<polygon fill="#63b8ff" stroke="#63b8ff" points="646.98,-122.67 636.83,-125.69 646.65,-129.66 646.98,-122.67"/>
</a>
</g>
</g>
<!-- Node17 -->
<g id="Node000017" class="node">
<title>Node17</title>
<g id="a_Node000017"><a xlink:href="core_2include_2thread_8h.html" target="_top" xlink:title="Threading API.">
<polygon fill="white" stroke="#666666" points="399.25,-361.25 342.75,-361.25 342.75,-340.5 399.25,-340.5 399.25,-361.25"/>
<text text-anchor="middle" x="371" y="-347.75" font-family="Helvetica,sans-Serif" font-size="10.00">thread.h</text>
</a>
</g>
</g>
<!-- Node2&#45;&gt;Node17 -->
<g id="edge22_Node000002_Node000017" class="edge">
<title>Node2&#45;&gt;Node17</title>
<g id="a_edge22_Node000002_Node000017"><a xlink:title=" ">
<path fill="none" stroke="#63b8ff" d="M581.65,-400.13C539.18,-390.4 458.89,-372.01 410.64,-360.96"/>
<polygon fill="#63b8ff" stroke="#63b8ff" points="411.69,-357.61 401.17,-358.79 410.13,-364.43 411.69,-357.61"/>
</a>
</g>
</g>
<!-- Node6&#45;&gt;Node4 -->
<g id="edge6_Node000006_Node000004" class="edge">
<title>Node6&#45;&gt;Node4</title>
<g id="a_edge6_Node000006_Node000004"><a xlink:title=" ">
<path fill="none" stroke="#63b8ff" d="M776.18,-232.72C829.28,-226.41 910.24,-210.06 881,-170.25 802.59,-63.49 365.34,-23.63 232.98,-13.91"/>
<polygon fill="#63b8ff" stroke="#63b8ff" points="233.58,-10.44 223.35,-13.22 233.08,-17.43 233.58,-10.44"/>
</a>
</g>
</g>
<!-- Node7 -->
<g id="Node000007" class="node">
<title>Node7</title>
<g id="a_Node000007"><a xlink:href="inttypes_8h.html" target="_top" xlink:title="Adds include for missing inttype definitions.">
<polygon fill="white" stroke="#666666" points="636.38,-191 571.62,-191 571.62,-170.25 636.38,-170.25 636.38,-191"/>
<text text-anchor="middle" x="604" y="-177.5" font-family="Helvetica,sans-Serif" font-size="10.00">inttypes.h</text>
</a>
</g>
</g>
<!-- Node6&#45;&gt;Node7 -->
<g id="edge7_Node000006_Node000007" class="edge">
<title>Node6&#45;&gt;Node7</title>
<g id="a_edge7_Node000006_Node000007"><a xlink:title=" ">
<path fill="none" stroke="#63b8ff" d="M710.76,-226.59C690.33,-217.98 660.36,-205.36 637.37,-195.68"/>
<polygon fill="#63b8ff" stroke="#63b8ff" points="639.01,-192.57 628.44,-191.92 636.29,-199.02 639.01,-192.57"/>
</a>
</g>
</g>
<!-- Node8 -->
<g id="Node000008" class="node">
<title>Node8</title>
<g id="a_Node000008"><a xlink:title=" ">
<polygon fill="#e0e0e0" stroke="#999999" points="744.38,-191 691.62,-191 691.62,-170.25 744.38,-170.25 744.38,-191"/>
<text text-anchor="middle" x="718" y="-177.5" font-family="Helvetica,sans-Serif" font-size="10.00">limits.h</text>
</a>
</g>
</g>
<!-- Node6&#45;&gt;Node8 -->
<g id="edge8_Node000006_Node000008" class="edge">
<title>Node6&#45;&gt;Node8</title>
<g id="a_edge8_Node000006_Node000008"><a xlink:title=" ">
<path fill="none" stroke="#63b8ff" d="M731.14,-226.59C729.16,-219.81 726.45,-210.55 724.01,-202.19"/>
<polygon fill="#63b8ff" stroke="#63b8ff" points="727.42,-201.4 721.26,-192.78 720.71,-203.36 727.42,-201.4"/>
</a>
</g>
</g>
<!-- Node9 -->
<g id="Node000009" class="node">
<title>Node9</title>
<g id="a_Node000009"><a xlink:title=" ">
<polygon fill="#e0e0e0" stroke="#999999" points="871.88,-191 762.12,-191 762.12,-170.25 871.88,-170.25 871.88,-191"/>
<text text-anchor="middle" x="817" y="-177.5" font-family="Helvetica,sans-Serif" font-size="10.00">architecture_arch.h</text>
</a>
</g>
</g>
<!-- Node6&#45;&gt;Node9 -->
<g id="edge9_Node000006_Node000009" class="edge">
<title>Node6&#45;&gt;Node9</title>
<g id="a_edge9_Node000006_Node000009"><a xlink:title=" ">
<path fill="none" stroke="#63b8ff" d="M748.84,-226.59C761.11,-218.49 778.79,-206.83 793.06,-197.42"/>
<polygon fill="#63b8ff" stroke="#63b8ff" points="794.61,-200.59 801.03,-192.16 790.75,-194.75 794.61,-200.59"/>
</a>
</g>
</g>
<!-- Node11 -->
<g id="Node000011" class="node">
<title>Node11</title>
<g id="a_Node000011"><a xlink:href="modules_8h.html" target="_top" xlink:title="Common macros and compiler attributes/pragmas configuration.">
<polygon fill="white" stroke="#666666" points="325.5,-134.25 258.5,-134.25 258.5,-113.5 325.5,-113.5 325.5,-134.25"/>
<text text-anchor="middle" x="292" y="-120.75" font-family="Helvetica,sans-Serif" font-size="10.00">modules.h</text>
</a>
</g>
</g>
<!-- Node10&#45;&gt;Node11 -->
<g id="edge11_Node000010_Node000011" class="edge">
<title>Node10&#45;&gt;Node11</title>
<g id="a_edge11_Node000010_Node000011"><a xlink:title=" ">
<path fill="none" stroke="#63b8ff" d="M232.87,-169.84C243.21,-161.97 257.97,-150.75 270.15,-141.49"/>
<polygon fill="#63b8ff" stroke="#63b8ff" points="272.19,-144.33 278.03,-135.49 267.96,-138.76 272.19,-144.33"/>
</a>
</g>
</g>
<!-- Node12 -->
<g id="Node000012" class="node">
<title>Node12</title>
<g id="a_Node000012"><a xlink:href="riot__version_8h.html" target="_top" xlink:title="Common macros and compiler attributes/pragmas configuration.">
<polygon fill="white" stroke="#666666" points="271.38,-77.5 188.62,-77.5 188.62,-56.75 271.38,-56.75 271.38,-77.5"/>
<text text-anchor="middle" x="230" y="-64" font-family="Helvetica,sans-Serif" font-size="10.00">riot_version.h</text>
</a>
</g>
</g>
<!-- Node10&#45;&gt;Node12 -->
<g id="edge12_Node000010_Node000012" class="edge">
<title>Node10&#45;&gt;Node12</title>
<g id="a_edge12_Node000010_Node000012"><a xlink:title=" ">
<path fill="none" stroke="#63b8ff" d="M220.85,-170.12C222.45,-152.27 225.94,-113.36 228.12,-89.09"/>
<polygon fill="#63b8ff" stroke="#63b8ff" points="231.58,-89.71 228.99,-79.43 224.61,-89.08 231.58,-89.71"/>
</a>
</g>
</g>
<!-- Node13 -->
<g id="Node000013" class="node">
<title>Node13</title>
<g id="a_Node000013"><a xlink:href="compiler__hints_8h.html" target="_top" xlink:title="Common macros and compiler attributes/pragmas configuration.">
<polygon fill="white" stroke="#666666" points="201.5,-134.25 104.5,-134.25 104.5,-113.5 201.5,-113.5 201.5,-134.25"/>
<text text-anchor="middle" x="153" y="-120.75" font-family="Helvetica,sans-Serif" font-size="10.00">compiler_hints.h</text>
</a>
</g>
</g>
<!-- Node10&#45;&gt;Node13 -->
<g id="edge14_Node000010_Node000013" class="edge">
<title>Node10&#45;&gt;Node13</title>
<g id="a_edge14_Node000010_Node000013"><a xlink:title=" ">
<path fill="none" stroke="#63b8ff" d="M208.02,-169.84C198.49,-162.05 184.94,-150.97 173.67,-141.76"/>
<polygon fill="#63b8ff" stroke="#63b8ff" points="176,-139.15 166.05,-135.54 171.58,-144.57 176,-139.15"/>
</a>
</g>
</g>
<!-- Node15 -->
<g id="Node000015" class="node">
<title>Node15</title>
<g id="a_Node000015"><a xlink:href="container_8h.html" target="_top" xlink:title="Common macros and compiler attributes/pragmas configuration.">
<polygon fill="white" stroke="#666666" points="414.38,-134.25 343.62,-134.25 343.62,-113.5 414.38,-113.5 414.38,-134.25"/>
<text text-anchor="middle" x="379" y="-120.75" font-family="Helvetica,sans-Serif" font-size="10.00">container.h</text>
</a>
</g>
</g>
<!-- Node10&#45;&gt;Node15 -->
<g id="edge18_Node000010_Node000015" class="edge">
<title>Node10&#45;&gt;Node15</title>
<g id="a_edge18_Node000010_Node000015"><a xlink:title=" ">
<path fill="none" stroke="#63b8ff" d="M248.43,-169.84C273.9,-161.07 311.5,-148.12 339.82,-138.37"/>
<polygon fill="#63b8ff" stroke="#63b8ff" points="340.81,-141.73 349.12,-135.16 338.53,-135.11 340.81,-141.73"/>
</a>
</g>
</g>
<!-- Node12&#45;&gt;Node4 -->
<g id="edge13_Node000012_Node000004" class="edge">
<title>Node12&#45;&gt;Node4</title>
<g id="a_edge13_Node000012_Node000004"><a xlink:title=" ">
<path fill="none" stroke="#63b8ff" d="M223.74,-56.34C219.16,-49.17 212.8,-39.23 207.23,-30.51"/>
<polygon fill="#63b8ff" stroke="#63b8ff" points="210.35,-28.89 202.02,-22.35 204.46,-32.66 210.35,-28.89"/>
</a>
</g>
</g>
<!-- Node13&#45;&gt;Node4 -->
<g id="edge17_Node000013_Node000004" class="edge">
<title>Node13&#45;&gt;Node4</title>
<g id="a_edge17_Node000013_Node000004"><a xlink:title=" ">
<path fill="none" stroke="#63b8ff" d="M156.58,-113.37C163.37,-95.36 178.23,-55.89 187.35,-31.68"/>
<polygon fill="#63b8ff" stroke="#63b8ff" points="190.53,-33.18 190.77,-22.59 183.97,-30.72 190.53,-33.18"/>
</a>
</g>
</g>
<!-- Node14 -->
<g id="Node000014" class="node">
<title>Node14</title>
<g id="a_Node000014"><a xlink:href="assert_8h.html" target="_top" xlink:title="POSIX.1&#45;2008 compliant version of the assert macro.">
<polygon fill="white" stroke="#666666" points="132.5,-77.5 77.5,-77.5 77.5,-56.75 132.5,-56.75 132.5,-77.5"/>
<text text-anchor="middle" x="105" y="-64" font-family="Helvetica,sans-Serif" font-size="10.00">assert.h</text>
</a>
</g>
</g>
<!-- Node13&#45;&gt;Node14 -->
<g id="edge15_Node000013_Node000014" class="edge">
<title>Node13&#45;&gt;Node14</title>
<g id="a_edge15_Node000013_Node000014"><a xlink:title=" ">
<path fill="none" stroke="#63b8ff" d="M144.42,-113.09C137.93,-105.69 128.85,-95.32 121.03,-86.41"/>
<polygon fill="#63b8ff" stroke="#63b8ff" points="123.73,-84.18 114.5,-78.97 118.47,-88.79 123.73,-84.18"/>
</a>
</g>
</g>
<!-- Node14&#45;&gt;Node4 -->
<g id="edge16_Node000014_Node000004" class="edge">
<title>Node14&#45;&gt;Node4</title>
<g id="a_edge16_Node000014_Node000004"><a xlink:title=" ">
<path fill="none" stroke="#63b8ff" d="M121.09,-56.34C134.53,-48.16 153.93,-36.36 169.49,-26.9"/>
<polygon fill="#63b8ff" stroke="#63b8ff" points="171.03,-30.05 177.76,-21.87 167.39,-24.07 171.03,-30.05"/>
</a>
</g>
</g>
<!-- Node15&#45;&gt;Node3 -->
<g id="edge19_Node000015_Node000003" class="edge">
<title>Node15&#45;&gt;Node3</title>
<g id="a_edge19_Node000015_Node000003"><a xlink:title=" ">
<path fill="none" stroke="#63b8ff" d="M397.59,-113.09C413.42,-104.76 436.4,-92.66 454.54,-83.11"/>
<polygon fill="#63b8ff" stroke="#63b8ff" points="456.01,-86.29 463.23,-78.53 452.75,-80.09 456.01,-86.29"/>
</a>
</g>
</g>
<!-- Node15&#45;&gt;Node4 -->
<g id="edge20_Node000015_Node000004" class="edge">
<title>Node15&#45;&gt;Node4</title>
<g id="a_edge20_Node000015_Node000004"><a xlink:title=" ">
<path fill="none" stroke="#63b8ff" d="M365.18,-113.01C346.3,-99.69 311.21,-75.44 280,-56.75 261.99,-45.96 241.21,-34.85 224.7,-26.32"/>
<polygon fill="#63b8ff" stroke="#63b8ff" points="226.39,-23.25 215.89,-21.8 223.2,-29.48 226.39,-23.25"/>
</a>
</g>
</g>
<!-- Node18 -->
<g id="Node000018" class="node">
<title>Node18</title>
<g id="a_Node000018"><a xlink:href="clist_8h.html" target="_top" xlink:title="Circular linked list.">
<polygon fill="white" stroke="#666666" points="515.62,-191 470.38,-191 470.38,-170.25 515.62,-170.25 515.62,-191"/>
<text text-anchor="middle" x="493" y="-177.5" font-family="Helvetica,sans-Serif" font-size="10.00">clist.h</text>
</a>
</g>
</g>
<!-- Node17&#45;&gt;Node18 -->
<g id="edge23_Node000017_Node000018" class="edge">
<title>Node17&#45;&gt;Node18</title>
<g id="a_edge23_Node000017_Node000018"><a xlink:title=" ">
<path fill="none" stroke="#63b8ff" d="M399.73,-348.87C430.31,-346.08 477.36,-336.47 500,-304.5 521.53,-274.11 510.49,-228.14 501.26,-201.89"/>
<polygon fill="#63b8ff" stroke="#63b8ff" points="504.62,-200.88 497.8,-192.77 498.07,-203.36 504.62,-200.88"/>
</a>
</g>
</g>
<!-- Node19 -->
<g id="Node000019" class="node">
<title>Node19</title>
<g id="a_Node000019"><a xlink:href="cib_8h.html" target="_top" xlink:title="Circular integer buffer interface.">
<polygon fill="white" stroke="#666666" points="105.62,-247.75 66.38,-247.75 66.38,-227 105.62,-227 105.62,-247.75"/>
<text text-anchor="middle" x="86" y="-234.25" font-family="Helvetica,sans-Serif" font-size="10.00">cib.h</text>
</a>
</g>
</g>
<!-- Node17&#45;&gt;Node19 -->
<g id="edge27_Node000017_Node000019" class="edge">
<title>Node17&#45;&gt;Node19</title>
<g id="a_edge27_Node000017_Node000019"><a xlink:title=" ">
<path fill="none" stroke="#63b8ff" d="M342.47,-345.81C305.64,-339.9 240.1,-327.09 188,-304.5 158.02,-291.5 126.99,-270.04 107.15,-255.1"/>
<polygon fill="#63b8ff" stroke="#63b8ff" points="109.37,-252.4 99.31,-249.09 105.11,-257.95 109.37,-252.4"/>
</a>
</g>
</g>
<!-- Node20 -->
<g id="Node000020" class="node">
<title>Node20</title>
<g id="a_Node000020"><a xlink:href="core_2include_2msg_8h.html" target="_top" xlink:title="Messaging API for inter process communication.">
<polygon fill="white" stroke="#666666" points="343,-304.5 297,-304.5 297,-283.75 343,-283.75 343,-304.5"/>
<text text-anchor="middle" x="320" y="-291" font-family="Helvetica,sans-Serif" font-size="10.00">msg.h</text>
</a>
</g>
</g>
<!-- Node17&#45;&gt;Node20 -->
<g id="edge29_Node000017_Node000020" class="edge">
<title>Node17&#45;&gt;Node20</title>
<g id="a_edge29_Node000017_Node000020"><a xlink:title=" ">
<path fill="none" stroke="#63b8ff" d="M361.88,-340.09C354.92,-332.61 345.13,-322.11 336.77,-313.13"/>
<polygon fill="#63b8ff" stroke="#63b8ff" points="339.45,-310.87 330.07,-305.94 334.33,-315.64 339.45,-310.87"/>
</a>
</g>
</g>
<!-- Node21 -->
<g id="Node000021" class="node">
<title>Node21</title>
<g id="a_Node000021"><a xlink:href="sched_8h.html" target="_top" xlink:title="Scheduler API definition.">
<polygon fill="white" stroke="#666666" points="397.75,-247.75 344.25,-247.75 344.25,-227 397.75,-227 397.75,-247.75"/>
<text text-anchor="middle" x="371" y="-234.25" font-family="Helvetica,sans-Serif" font-size="10.00">sched.h</text>
</a>
</g>
</g>
<!-- Node17&#45;&gt;Node21 -->
<g id="edge38_Node000017_Node000021" class="edge">
<title>Node17&#45;&gt;Node21</title>
<g id="a_edge38_Node000017_Node000021"><a xlink:title=" ">
<path fill="none" stroke="#63b8ff" d="M371,-340.37C371,-322.6 371,-283.97 371,-259.68"/>
<polygon fill="#63b8ff" stroke="#63b8ff" points="374.5,-259.69 371,-249.69 367.5,-259.69 374.5,-259.69"/>
</a>
</g>
</g>
<!-- Node23 -->
<g id="Node000023" class="node">
<title>Node23</title>
<g id="a_Node000023"><a xlink:href="thread__config_8h.html" target="_top" xlink:title="Thread configuration defines.">
<polygon fill="white" stroke="#666666" points="490.88,-304.5 399.12,-304.5 399.12,-283.75 490.88,-283.75 490.88,-304.5"/>
<text text-anchor="middle" x="445" y="-291" font-family="Helvetica,sans-Serif" font-size="10.00">thread_config.h</text>
</a>
</g>
</g>
<!-- Node17&#45;&gt;Node23 -->
<g id="edge39_Node000017_Node000023" class="edge">
<title>Node17&#45;&gt;Node23</title>
<g id="a_edge39_Node000017_Node000023"><a xlink:title=" ">
<path fill="none" stroke="#63b8ff" d="M384.23,-340.09C394.96,-332.15 410.32,-320.78 422.92,-311.46"/>
<polygon fill="#63b8ff" stroke="#63b8ff" points="424.71,-314.49 430.67,-305.73 420.55,-308.86 424.71,-314.49"/>
</a>
</g>
</g>
<!-- Node25 -->
<g id="Node000025" class="node">
<title>Node25</title>
<g id="a_Node000025"><a xlink:title=" ">
<polygon fill="#e0e0e0" stroke="#999999" points="279.38,-304.5 196.62,-304.5 196.62,-283.75 279.38,-283.75 279.38,-304.5"/>
<text text-anchor="middle" x="238" y="-291" font-family="Helvetica,sans-Serif" font-size="10.00">thread_arch.h</text>
</a>
</g>
</g>
<!-- Node17&#45;&gt;Node25 -->
<g id="edge42_Node000017_Node000025" class="edge">
<title>Node17&#45;&gt;Node25</title>
<g id="a_edge42_Node000017_Node000025"><a xlink:title=" ">
<path fill="none" stroke="#63b8ff" d="M347.22,-340.09C326.32,-331.48 295.66,-318.86 272.14,-309.18"/>
<polygon fill="#63b8ff" stroke="#63b8ff" points="273.55,-305.97 262.97,-305.4 270.89,-312.45 273.55,-305.97"/>
</a>
</g>
</g>
<!-- Node18&#45;&gt;Node3 -->
<g id="edge25_Node000018_Node000003" class="edge">
<title>Node18&#45;&gt;Node3</title>
<g id="a_edge25_Node000018_Node000003"><a xlink:title=" ">
<path fill="none" stroke="#63b8ff" d="M492.15,-170.12C490.55,-152.27 487.06,-113.36 484.88,-89.09"/>
<polygon fill="#63b8ff" stroke="#63b8ff" points="488.39,-89.08 484.01,-79.43 481.42,-89.71 488.39,-89.08"/>
</a>
</g>
</g>
<!-- Node18&#45;&gt;Node5 -->
<g id="edge24_Node000018_Node000005" class="edge">
<title>Node18&#45;&gt;Node5</title>
<g id="a_edge24_Node000018_Node000005"><a xlink:title=" ">
<path fill="none" stroke="#63b8ff" d="M501.76,-169.84C508.45,-162.36 517.85,-151.86 525.89,-142.88"/>
<polygon fill="#63b8ff" stroke="#63b8ff" points="528.25,-145.49 532.31,-135.71 523.03,-140.82 528.25,-145.49"/>
</a>
</g>
</g>
<!-- Node18&#45;&gt;Node16 -->
<g id="edge26_Node000018_Node000016" class="edge">
<title>Node18&#45;&gt;Node16</title>
<g id="a_edge26_Node000018_Node000016"><a xlink:title=" ">
<path fill="none" stroke="#63b8ff" d="M514.81,-169.84C534.16,-161.15 562.63,-148.38 584.28,-138.66"/>
<polygon fill="#63b8ff" stroke="#63b8ff" points="585.52,-141.94 593.21,-134.65 582.66,-135.55 585.52,-141.94"/>
</a>
</g>
</g>
<!-- Node19&#45;&gt;Node14 -->
<g id="edge28_Node000019_Node000014" class="edge">
<title>Node19&#45;&gt;Node14</title>
<g id="a_edge28_Node000019_Node000014"><a xlink:title=" ">
<path fill="none" stroke="#63b8ff" d="M86.23,-226.76C86.84,-205.99 88.88,-155.41 95,-113.5 96.19,-105.33 98.03,-96.44 99.81,-88.71"/>
<polygon fill="#63b8ff" stroke="#63b8ff" points="103.14,-89.8 102.09,-79.26 96.34,-88.16 103.14,-89.8"/>
</a>
</g>
</g>
<!-- Node20&#45;&gt;Node4 -->
<g id="edge30_Node000020_Node000004" class="edge">
<title>Node20&#45;&gt;Node4</title>
<g id="a_edge30_Node000020_Node000004"><a xlink:title=" ">
<path fill="none" stroke="#63b8ff" d="M296.67,-285.91C293.77,-285.12 290.82,-284.38 288,-283.75 186.59,-261.1 134.92,-316.48 57,-247.75 34.07,-227.52 38,-212.2 38,-181.62 38,-181.62 38,-181.62 38,-122.88 38,-90.6 44.26,-78.61 68,-56.75 92.64,-34.06 129.41,-22.56 157.05,-16.83"/>
<polygon fill="#63b8ff" stroke="#63b8ff" points="157.61,-20.29 166.78,-14.99 156.31,-13.41 157.61,-20.29"/>
</a>
</g>
</g>
<!-- Node20&#45;&gt;Node5 -->
<g id="edge31_Node000020_Node000005" class="edge">
<title>Node20&#45;&gt;Node5</title>
<g id="a_edge31_Node000020_Node000005"><a xlink:title=" ">
<path fill="none" stroke="#63b8ff" d="M315.78,-283.48C306.58,-260.82 287.66,-203.6 315,-170.25 337.93,-142.28 440.84,-131.21 499.92,-127.1"/>
<polygon fill="#63b8ff" stroke="#63b8ff" points="499.86,-130.61 509.61,-126.47 499.4,-123.63 499.86,-130.61"/>
</a>
</g>
</g>
<!-- Node20&#45;&gt;Node21 -->
<g id="edge32_Node000020_Node000021" class="edge">
<title>Node20&#45;&gt;Node21</title>
<g id="a_edge32_Node000020_Node000021"><a xlink:title=" ">
<path fill="none" stroke="#63b8ff" d="M329.12,-283.34C336.08,-275.86 345.87,-265.36 354.23,-256.38"/>
<polygon fill="#63b8ff" stroke="#63b8ff" points="356.67,-258.89 360.93,-249.19 351.55,-254.12 356.67,-258.89"/>
</a>
</g>
</g>
<!-- Node21&#45;&gt;Node3 -->
<g id="edge33_Node000021_Node000003" class="edge">
<title>Node21&#45;&gt;Node3</title>
<g id="a_edge33_Node000021_Node000003"><a xlink:title=" ">
<path fill="none" stroke="#63b8ff" d="M384.74,-226.82C396.1,-218.39 412.07,-205.27 423,-191 447.93,-158.46 466.52,-113.92 475.99,-88.37"/>
<polygon fill="#63b8ff" stroke="#63b8ff" points="479.19,-89.8 479.28,-79.21 472.61,-87.44 479.19,-89.8"/>
</a>
</g>
</g>
<!-- Node21&#45;&gt;Node7 -->
<g id="edge34_Node000021_Node000007" class="edge">
<title>Node21&#45;&gt;Node7</title>
<g id="a_edge34_Node000021_Node000007"><a xlink:title=" ">
<path fill="none" stroke="#63b8ff" d="M398.11,-229.23C401.1,-228.46 404.11,-227.71 407,-227 459.43,-214.14 519.98,-200.35 559.96,-191.39"/>
<polygon fill="#63b8ff" stroke="#63b8ff" points="560.69,-194.82 569.69,-189.22 559.17,-187.98 560.69,-194.82"/>
</a>
</g>
</g>
<!-- Node21&#45;&gt;Node10 -->
<g id="edge35_Node000021_Node000010" class="edge">
<title>Node21&#45;&gt;Node10</title>
<g id="a_edge35_Node000021_Node000010"><a xlink:title=" ">
<path fill="none" stroke="#63b8ff" d="M344,-226.59C319.92,-217.86 284.42,-204.98 257.57,-195.25"/>
<polygon fill="#63b8ff" stroke="#63b8ff" points="259.03,-192.05 248.44,-191.94 256.65,-198.64 259.03,-192.05"/>
</a>
</g>
</g>
<!-- Node21&#45;&gt;Node18 -->
<g id="edge37_Node000021_Node000018" class="edge">
<title>Node21&#45;&gt;Node18</title>
<g id="a_edge37_Node000021_Node000018"><a xlink:title=" ">
<path fill="none" stroke="#63b8ff" d="M392.81,-226.59C411.81,-218.06 439.6,-205.59 461.09,-195.94"/>
<polygon fill="#63b8ff" stroke="#63b8ff" points="462.31,-199.24 470,-191.95 459.44,-192.85 462.31,-199.24"/>
</a>
</g>
</g>
<!-- Node22 -->
<g id="Node000022" class="node">
<title>Node22</title>
<g id="a_Node000022"><a xlink:href="native__sched_8h.html" target="_top" xlink:title="Add definitions required on the native board.">
<polygon fill="white" stroke="#666666" points="413.75,-191 324.25,-191 324.25,-170.25 413.75,-170.25 413.75,-191"/>
<text text-anchor="middle" x="369" y="-177.5" font-family="Helvetica,sans-Serif" font-size="10.00">native_sched.h</text>
</a>
</g>
</g>
<!-- Node21&#45;&gt;Node22 -->
<g id="edge36_Node000021_Node000022" class="edge">
<title>Node21&#45;&gt;Node22</title>
<g id="a_edge36_Node000021_Node000022"><a xlink:title=" ">
<path fill="none" stroke="#63b8ff" d="M370.64,-226.59C370.4,-219.97 370.07,-210.97 369.77,-202.77"/>
<polygon fill="#63b8ff" stroke="#63b8ff" points="373.27,-202.71 369.41,-192.84 366.28,-202.96 373.27,-202.71"/>
</a>
</g>
</g>
<!-- Node23&#45;&gt;Node21 -->
<g id="edge41_Node000023_Node000021" class="edge">
<title>Node23&#45;&gt;Node21</title>
<g id="a_edge41_Node000023_Node000021"><a xlink:title=" ">
<path fill="none" stroke="#63b8ff" d="M431.77,-283.34C421.04,-275.4 405.68,-264.03 393.08,-254.71"/>
<polygon fill="#63b8ff" stroke="#63b8ff" points="395.45,-252.11 385.33,-248.98 391.29,-257.74 395.45,-252.11"/>
</a>
</g>
</g>
<!-- Node24 -->
<g id="Node000024" class="node">
<title>Node24</title>
<g id="a_Node000024"><a xlink:title=" ">
<polygon fill="#e0e0e0" stroke="#999999" points="483.88,-247.75 416.12,-247.75 416.12,-227 483.88,-227 483.88,-247.75"/>
<text text-anchor="middle" x="450" y="-234.25" font-family="Helvetica,sans-Serif" font-size="10.00">cpu_conf.h</text>
</a>
</g>
</g>
<!-- Node23&#45;&gt;Node24 -->
<g id="edge40_Node000023_Node000024" class="edge">
<title>Node23&#45;&gt;Node24</title>
<g id="a_edge40_Node000023_Node000024"><a xlink:title=" ">
<path fill="none" stroke="#63b8ff" d="M445.89,-283.34C446.5,-276.72 447.32,-267.72 448.07,-259.52"/>
<polygon fill="#63b8ff" stroke="#63b8ff" points="451.55,-259.86 448.98,-249.59 444.58,-259.23 451.55,-259.86"/>
</a>
</g>
</g>
<!-- Node26&#45;&gt;Node3 -->
<g id="edge44_Node000026_Node000003" class="edge">
<title>Node26&#45;&gt;Node3</title>
<g id="a_edge44_Node000026_Node000003"><a xlink:title=" ">
<path fill="none" stroke="#63b8ff" d="M955.92,-117.82C853.61,-107.07 616.05,-82.11 522.18,-72.24"/>
<polygon fill="#63b8ff" stroke="#63b8ff" points="522.76,-68.78 512.45,-71.22 522.03,-75.75 522.76,-68.78"/>
</a>
</g>
</g>
<!-- Node26&#45;&gt;Node4 -->
<g id="edge45_Node000026_Node000004" class="edge">
<title>Node26&#45;&gt;Node4</title>
<g id="a_edge45_Node000026_Node000004"><a xlink:title=" ">
<path fill="none" stroke="#63b8ff" d="M998.27,-113.05C988.77,-97.83 968.21,-69.06 942,-56.75 877.52,-26.46 375.19,-14.77 232.61,-12.04"/>
<polygon fill="#63b8ff" stroke="#63b8ff" points="233.04,-8.54 222.97,-11.86 232.91,-15.54 233.04,-8.54"/>
</a>
</g>
</g>
</g>
</svg>
