<?xml version="1.0" encoding="UTF-8" standalone="no"?>
<!DOCTYPE svg PUBLIC "-//W3C//DTD SVG 1.1//EN"
 "http://www.w3.org/Graphics/SVG/1.1/DTD/svg11.dtd">
<!-- Generated by graphviz version 12.1.2 (0)
 -->
<!-- Title: sys/posix/pthread/include/pthread.h Pages: 1 -->
<svg width="1868pt" height="552pt"
 viewBox="0.00 0.00 1868.08 552.25" xmlns="http://www.w3.org/2000/svg" xmlns:xlink="http://www.w3.org/1999/xlink">
<g id="graph0" class="graph" transform="scale(1 1) rotate(0) translate(4 548.25)">
<title>sys/posix/pthread/include/pthread.h</title>
<!-- Node1 -->
<g id="Node000001" class="node">
<title>Node1</title>
<g id="a_Node000001"><a xlink:title="POSIX conforming multi&#45;threading features.">
<polygon fill="#999999" stroke="#666666" points="959.45,-544.25 818.95,-544.25 818.95,-510.75 959.45,-510.75 959.45,-544.25"/>
<text text-anchor="start" x="826.95" y="-530.75" font-family="Helvetica,sans-Serif" font-size="10.00">sys/posix/pthread/include</text>
<text text-anchor="middle" x="889.2" y="-518" font-family="Helvetica,sans-Serif" font-size="10.00">/pthread.h</text>
</a>
</g>
</g>
<!-- Node2 -->
<g id="Node000002" class="node">
<title>Node2</title>
<g id="a_Node000002"><a xlink:href="mutex_8h.html" target="_top" xlink:title="Mutex for thread synchronization.">
<polygon fill="white" stroke="#666666" points="532.45,-418 475.95,-418 475.95,-397.25 532.45,-397.25 532.45,-418"/>
<text text-anchor="middle" x="504.2" y="-404.5" font-family="Helvetica,sans-Serif" font-size="10.00">mutex.h</text>
</a>
</g>
</g>
<!-- Node1&#45;&gt;Node2 -->
<g id="edge1_Node000001_Node000002" class="edge">
<title>Node1&#45;&gt;Node2</title>
<g id="a_edge1_Node000001_Node000002"><a xlink:title=" ">
<path fill="none" stroke="#63b8ff" d="M818.54,-522.09C758.78,-516.44 671.86,-503.63 601.2,-474.75 585.6,-468.37 549.68,-442.64 526.2,-425.22"/>
<polygon fill="#63b8ff" stroke="#63b8ff" points="528.31,-422.43 518.21,-419.25 524.13,-428.04 528.31,-422.43"/>
</a>
</g>
</g>
<!-- Node21 -->
<g id="Node000021" class="node">
<title>Node21</title>
<g id="a_Node000021"><a xlink:href="sched_8h.html" target="_top" xlink:title="Scheduler API definition.">
<polygon fill="white" stroke="#666666" points="663.95,-247.75 610.45,-247.75 610.45,-227 663.95,-227 663.95,-247.75"/>
<text text-anchor="middle" x="637.2" y="-234.25" font-family="Helvetica,sans-Serif" font-size="10.00">sched.h</text>
</a>
</g>
</g>
<!-- Node1&#45;&gt;Node21 -->
<g id="edge43_Node000001_Node000021" class="edge">
<title>Node1&#45;&gt;Node21</title>
<g id="a_edge43_Node000001_Node000021"><a xlink:title=" ">
<path fill="none" stroke="#63b8ff" d="M818.78,-514.21C793.83,-506.63 767.45,-494.41 749.2,-474.75 728.4,-452.34 730.2,-439.2 730.2,-408.62 730.2,-408.62 730.2,-408.62 730.2,-349.88 730.2,-307.89 690.84,-273.34 663.33,-254.33"/>
<polygon fill="#63b8ff" stroke="#63b8ff" points="665.36,-251.47 655.09,-248.87 661.5,-257.31 665.36,-251.47"/>
</a>
</g>
</g>
<!-- Node26 -->
<g id="Node000026" class="node">
<title>Node26</title>
<g id="a_Node000026"><a xlink:href="pthread__threading__attr_8h.html" target="_top" xlink:title="Thread creation features (attributes).">
<polygon fill="white" stroke="#666666" points="436.58,-474.75 299.83,-474.75 299.83,-454 436.58,-454 436.58,-474.75"/>
<text text-anchor="middle" x="368.2" y="-461.25" font-family="Helvetica,sans-Serif" font-size="10.00">pthread_threading_attr.h</text>
</a>
</g>
</g>
<!-- Node1&#45;&gt;Node26 -->
<g id="edge44_Node000001_Node000026" class="edge">
<title>Node1&#45;&gt;Node26</title>
<g id="a_edge44_Node000001_Node000026"><a xlink:title=" ">
<path fill="none" stroke="#63b8ff" d="M818.83,-518.41C733.57,-508.58 585.25,-491.41 448.16,-475.1"/>
<polygon fill="#63b8ff" stroke="#63b8ff" points="448.9,-471.66 438.55,-473.95 448.07,-478.61 448.9,-471.66"/>
</a>
</g>
</g>
<!-- Node27 -->
<g id="Node000027" class="node">
<title>Node27</title>
<g id="a_Node000027"><a xlink:href="pthread__threading_8h.html" target="_top" xlink:title="Thread creation features.">
<polygon fill="white" stroke="#666666" points="213.33,-361.25 99.08,-361.25 99.08,-340.5 213.33,-340.5 213.33,-361.25"/>
<text text-anchor="middle" x="156.2" y="-347.75" font-family="Helvetica,sans-Serif" font-size="10.00">pthread_threading.h</text>
</a>
</g>
</g>
<!-- Node1&#45;&gt;Node27 -->
<g id="edge45_Node000001_Node000027" class="edge">
<title>Node1&#45;&gt;Node27</title>
<g id="a_edge45_Node000001_Node000027"><a xlink:title=" ">
<path fill="none" stroke="#63b8ff" d="M818.64,-526.34C647.24,-525.27 219.62,-518.23 173.2,-474.75 145.54,-448.83 147.88,-400.46 152.05,-372.76"/>
<polygon fill="#63b8ff" stroke="#63b8ff" points="155.45,-373.6 153.73,-363.14 148.56,-372.39 155.45,-373.6"/>
</a>
</g>
</g>
<!-- Node28 -->
<g id="Node000028" class="node">
<title>Node28</title>
<g id="a_Node000028"><a xlink:href="pthread__mutex__attr_8h.html" target="_top" xlink:title="Attributes for pthread mutexes.">
<polygon fill="white" stroke="#666666" points="1020.08,-474.75 898.33,-474.75 898.33,-454 1020.08,-454 1020.08,-474.75"/>
<text text-anchor="middle" x="959.2" y="-461.25" font-family="Helvetica,sans-Serif" font-size="10.00">pthread_mutex_attr.h</text>
</a>
</g>
</g>
<!-- Node1&#45;&gt;Node28 -->
<g id="edge47_Node000001_Node000028" class="edge">
<title>Node1&#45;&gt;Node28</title>
<g id="a_edge47_Node000001_Node000028"><a xlink:title=" ">
<path fill="none" stroke="#63b8ff" d="M907.6,-510.44C917.4,-501.88 929.46,-491.35 939.46,-482.62"/>
<polygon fill="#63b8ff" stroke="#63b8ff" points="941.56,-485.43 946.79,-476.21 936.96,-480.15 941.56,-485.43"/>
</a>
</g>
</g>
<!-- Node30 -->
<g id="Node000030" class="node">
<title>Node30</title>
<g id="a_Node000030"><a xlink:href="pthread__mutex_8h.html" target="_top" xlink:title="Mutual exclusion.">
<polygon fill="white" stroke="#666666" points="281.83,-474.75 182.58,-474.75 182.58,-454 281.83,-454 281.83,-474.75"/>
<text text-anchor="middle" x="232.2" y="-461.25" font-family="Helvetica,sans-Serif" font-size="10.00">pthread_mutex.h</text>
</a>
</g>
</g>
<!-- Node1&#45;&gt;Node30 -->
<g id="edge49_Node000001_Node000030" class="edge">
<title>Node1&#45;&gt;Node30</title>
<g id="a_edge49_Node000001_Node000030"><a xlink:title=" ">
<path fill="none" stroke="#63b8ff" d="M818.61,-522.03C708.71,-514.7 489.8,-498.67 293.47,-474.94"/>
<polygon fill="#63b8ff" stroke="#63b8ff" points="293.91,-471.47 283.56,-473.74 293.07,-478.42 293.91,-471.47"/>
</a>
</g>
</g>
<!-- Node31 -->
<g id="Node000031" class="node">
<title>Node31</title>
<g id="a_Node000031"><a xlink:href="pthread__rwlock__attr_8h.html" target="_top" xlink:title="Implementation of a fair, POSIX conforming reader/writer lock (attribute set).">
<polygon fill="white" stroke="#666666" points="880.45,-474.75 757.95,-474.75 757.95,-454 880.45,-454 880.45,-474.75"/>
<text text-anchor="middle" x="819.2" y="-461.25" font-family="Helvetica,sans-Serif" font-size="10.00">pthread_rwlock_attr.h</text>
</a>
</g>
</g>
<!-- Node1&#45;&gt;Node31 -->
<g id="edge51_Node000001_Node000031" class="edge">
<title>Node1&#45;&gt;Node31</title>
<g id="a_edge51_Node000001_Node000031"><a xlink:title=" ">
<path fill="none" stroke="#63b8ff" d="M870.81,-510.44C861.01,-501.88 848.95,-491.35 838.95,-482.62"/>
<polygon fill="#63b8ff" stroke="#63b8ff" points="841.45,-480.15 831.62,-476.21 836.85,-485.43 841.45,-480.15"/>
</a>
</g>
</g>
<!-- Node32 -->
<g id="Node000032" class="node">
<title>Node32</title>
<g id="a_Node000032"><a xlink:href="pthread__rwlock_8h.html" target="_top" xlink:title="Implementation of a fair, POSIX conforming reader/writer lock.">
<polygon fill="white" stroke="#666666" points="1138.2,-474.75 1038.2,-474.75 1038.2,-454 1138.2,-454 1138.2,-474.75"/>
<text text-anchor="middle" x="1088.2" y="-461.25" font-family="Helvetica,sans-Serif" font-size="10.00">pthread_rwlock.h</text>
</a>
</g>
</g>
<!-- Node1&#45;&gt;Node32 -->
<g id="edge53_Node000001_Node000032" class="edge">
<title>Node1&#45;&gt;Node32</title>
<g id="a_edge53_Node000001_Node000032"><a xlink:title=" ">
<path fill="none" stroke="#63b8ff" d="M942.01,-510.28C974.42,-500.33 1015.37,-487.75 1045.68,-478.44"/>
<polygon fill="#63b8ff" stroke="#63b8ff" points="1046.35,-481.89 1054.88,-475.61 1044.3,-475.2 1046.35,-481.89"/>
</a>
</g>
</g>
<!-- Node35 -->
<g id="Node000035" class="node">
<title>Node35</title>
<g id="a_Node000035"><a xlink:href="pthread__spin_8h.html" target="_top" xlink:title="Spin locks.">
<polygon fill="white" stroke="#666666" points="1762.2,-474.75 1674.2,-474.75 1674.2,-454 1762.2,-454 1762.2,-474.75"/>
<text text-anchor="middle" x="1718.2" y="-461.25" font-family="Helvetica,sans-Serif" font-size="10.00">pthread_spin.h</text>
</a>
</g>
</g>
<!-- Node1&#45;&gt;Node35 -->
<g id="edge60_Node000001_Node000035" class="edge">
<title>Node1&#45;&gt;Node35</title>
<g id="a_edge60_Node000001_Node000035"><a xlink:title=" ">
<path fill="none" stroke="#63b8ff" d="M959.8,-524.36C1094.49,-519.71 1397.6,-506.56 1662.34,-474.98"/>
<polygon fill="#63b8ff" stroke="#63b8ff" points="1662.71,-478.46 1672.22,-473.79 1661.87,-471.51 1662.71,-478.46"/>
</a>
</g>
</g>
<!-- Node37 -->
<g id="Node000037" class="node">
<title>Node37</title>
<g id="a_Node000037"><a xlink:href="pthread__barrier_8h.html" target="_top" xlink:title="Synchronization barriers.">
<polygon fill="white" stroke="#666666" points="554.2,-474.75 454.2,-474.75 454.2,-454 554.2,-454 554.2,-474.75"/>
<text text-anchor="middle" x="504.2" y="-461.25" font-family="Helvetica,sans-Serif" font-size="10.00">pthread_barrier.h</text>
</a>
</g>
</g>
<!-- Node1&#45;&gt;Node37 -->
<g id="edge62_Node000001_Node000037" class="edge">
<title>Node1&#45;&gt;Node37</title>
<g id="a_edge62_Node000001_Node000037"><a xlink:title=" ">
<path fill="none" stroke="#63b8ff" d="M818.59,-515.29C746.1,-503.78 634.45,-486.05 565.54,-475.11"/>
<polygon fill="#63b8ff" stroke="#63b8ff" points="566.37,-471.7 555.94,-473.59 565.27,-478.61 566.37,-471.7"/>
</a>
</g>
</g>
<!-- Node38 -->
<g id="Node000038" class="node">
<title>Node38</title>
<g id="a_Node000038"><a xlink:href="pthread__cleanup_8h.html" target="_top" xlink:title="Cleanup primitives for pthread threads.">
<polygon fill="white" stroke="#666666" points="1262.2,-474.75 1156.2,-474.75 1156.2,-454 1262.2,-454 1262.2,-474.75"/>
<text text-anchor="middle" x="1209.2" y="-461.25" font-family="Helvetica,sans-Serif" font-size="10.00">pthread_cleanup.h</text>
</a>
</g>
</g>
<!-- Node1&#45;&gt;Node38 -->
<g id="edge64_Node000001_Node000038" class="edge">
<title>Node1&#45;&gt;Node38</title>
<g id="a_edge64_Node000001_Node000038"><a xlink:title=" ">
<path fill="none" stroke="#63b8ff" d="M959.83,-513.01C1015.67,-502.34 1092.91,-487.59 1146.57,-477.34"/>
<polygon fill="#63b8ff" stroke="#63b8ff" points="1146.99,-480.82 1156.16,-475.51 1145.68,-473.95 1146.99,-480.82"/>
</a>
</g>
</g>
<!-- Node39 -->
<g id="Node000039" class="node">
<title>Node39</title>
<g id="a_Node000039"><a xlink:href="pthread__once_8h.html" target="_top" xlink:title="Singletons features / single&#45;shot execution.">
<polygon fill="white" stroke="#666666" points="1371.7,-474.75 1280.7,-474.75 1280.7,-454 1371.7,-454 1371.7,-474.75"/>
<text text-anchor="middle" x="1326.2" y="-461.25" font-family="Helvetica,sans-Serif" font-size="10.00">pthread_once.h</text>
</a>
</g>
</g>
<!-- Node1&#45;&gt;Node39 -->
<g id="edge65_Node000001_Node000039" class="edge">
<title>Node1&#45;&gt;Node39</title>
<g id="a_edge65_Node000001_Node000039"><a xlink:title=" ">
<path fill="none" stroke="#63b8ff" d="M959.71,-517.68C1034.05,-508.22 1154.87,-492.37 1269.26,-475"/>
<polygon fill="#63b8ff" stroke="#63b8ff" points="1269.45,-478.52 1278.81,-473.55 1268.4,-471.6 1269.45,-478.52"/>
</a>
</g>
</g>
<!-- Node40 -->
<g id="Node000040" class="node">
<title>Node40</title>
<g id="a_Node000040"><a xlink:href="pthread__scheduling_8h.html" target="_top" xlink:title="Scheduling parameters and policies of pthreads.">
<polygon fill="white" stroke="#666666" points="1510.33,-474.75 1390.08,-474.75 1390.08,-454 1510.33,-454 1510.33,-474.75"/>
<text text-anchor="middle" x="1450.2" y="-461.25" font-family="Helvetica,sans-Serif" font-size="10.00">pthread_scheduling.h</text>
</a>
</g>
</g>
<!-- Node1&#45;&gt;Node40 -->
<g id="edge66_Node000001_Node000040" class="edge">
<title>Node1&#45;&gt;Node40</title>
<g id="a_edge66_Node000001_Node000040"><a xlink:title=" ">
<path fill="none" stroke="#63b8ff" d="M959.76,-519.76C1053.12,-510.68 1223.14,-493.63 1378.48,-475.05"/>
<polygon fill="#63b8ff" stroke="#63b8ff" points="1378.62,-478.56 1388.13,-473.89 1377.79,-471.61 1378.62,-478.56"/>
</a>
</g>
</g>
<!-- Node41 -->
<g id="Node000041" class="node">
<title>Node41</title>
<g id="a_Node000041"><a xlink:href="pthread__cancellation_8h.html" target="_top" xlink:title="Thread cancellation features.">
<polygon fill="white" stroke="#666666" points="1655.7,-474.75 1528.7,-474.75 1528.7,-454 1655.7,-454 1655.7,-474.75"/>
<text text-anchor="middle" x="1592.2" y="-461.25" font-family="Helvetica,sans-Serif" font-size="10.00">pthread_cancellation.h</text>
</a>
</g>
</g>
<!-- Node1&#45;&gt;Node41 -->
<g id="edge67_Node000001_Node000041" class="edge">
<title>Node1&#45;&gt;Node41</title>
<g id="a_edge67_Node000001_Node000041"><a xlink:title=" ">
<path fill="none" stroke="#63b8ff" d="M959.69,-521.77C1074.21,-513.84 1308.07,-496.7 1517.32,-474.9"/>
<polygon fill="#63b8ff" stroke="#63b8ff" points="1517.44,-478.41 1527.02,-473.89 1516.71,-471.45 1517.44,-478.41"/>
</a>
</g>
</g>
<!-- Node42 -->
<g id="Node000042" class="node">
<title>Node42</title>
<g id="a_Node000042"><a xlink:href="pthread__cond_8h.html" target="_top" xlink:title="RIOT POSIX condition variable API.">
<polygon fill="white" stroke="#666666" points="701.7,-474.75 610.7,-474.75 610.7,-454 701.7,-454 701.7,-474.75"/>
<text text-anchor="middle" x="656.2" y="-461.25" font-family="Helvetica,sans-Serif" font-size="10.00">pthread_cond.h</text>
</a>
</g>
</g>
<!-- Node1&#45;&gt;Node42 -->
<g id="edge68_Node000001_Node000042" class="edge">
<title>Node1&#45;&gt;Node42</title>
<g id="a_edge68_Node000001_Node000042"><a xlink:title=" ">
<path fill="none" stroke="#63b8ff" d="M827.38,-510.28C788.93,-500.2 740.22,-487.42 704.6,-478.07"/>
<polygon fill="#63b8ff" stroke="#63b8ff" points="705.55,-474.7 694.99,-475.55 703.77,-481.47 705.55,-474.7"/>
</a>
</g>
</g>
<!-- Node43 -->
<g id="Node000043" class="node">
<title>Node43</title>
<g id="a_Node000043"><a xlink:href="pthread__tls_8h.html" target="_top" xlink:title="RIOT POSIX thread local storage.">
<polygon fill="white" stroke="#666666" points="1860.08,-474.75 1780.33,-474.75 1780.33,-454 1860.08,-454 1860.08,-474.75"/>
<text text-anchor="middle" x="1820.2" y="-461.25" font-family="Helvetica,sans-Serif" font-size="10.00">pthread_tls.h</text>
</a>
</g>
</g>
<!-- Node1&#45;&gt;Node43 -->
<g id="edge71_Node000001_Node000043" class="edge">
<title>Node1&#45;&gt;Node43</title>
<g id="a_edge71_Node000001_Node000043"><a xlink:title=" ">
<path fill="none" stroke="#63b8ff" d="M959.8,-525.48C1107.94,-522.66 1462.18,-512.37 1768.56,-474.92"/>
<polygon fill="#63b8ff" stroke="#63b8ff" points="1768.9,-478.41 1778.39,-473.7 1768.04,-471.46 1768.9,-478.41"/>
</a>
</g>
</g>
<!-- Node3 -->
<g id="Node000003" class="node">
<title>Node3</title>
<g id="a_Node000003"><a xlink:title=" ">
<polygon fill="#e0e0e0" stroke="#999999" points="716.7,-77.5 661.7,-77.5 661.7,-56.75 716.7,-56.75 716.7,-77.5"/>
<text text-anchor="middle" x="689.2" y="-64" font-family="Helvetica,sans-Serif" font-size="10.00">stddef.h</text>
</a>
</g>
</g>
<!-- Node2&#45;&gt;Node3 -->
<g id="edge2_Node000002_Node000003" class="edge">
<title>Node2&#45;&gt;Node3</title>
<g id="a_edge2_Node000002_Node000003"><a xlink:title=" ">
<path fill="none" stroke="#63b8ff" d="M488.87,-396.83C448.29,-369.7 344.14,-291.33 387.2,-227 402.25,-204.53 589.16,-148.39 612.2,-134.25 634.8,-120.39 657.44,-99.97 672.26,-85.5"/>
<polygon fill="#63b8ff" stroke="#63b8ff" points="674.34,-88.37 678.95,-78.83 669.4,-83.41 674.34,-88.37"/>
</a>
</g>
</g>
<!-- Node4 -->
<g id="Node000004" class="node">
<title>Node4</title>
<g id="a_Node000004"><a xlink:title=" ">
<polygon fill="#e0e0e0" stroke="#999999" points="420.58,-20.75 367.83,-20.75 367.83,0 420.58,0 420.58,-20.75"/>
<text text-anchor="middle" x="394.2" y="-7.25" font-family="Helvetica,sans-Serif" font-size="10.00">stdint.h</text>
</a>
</g>
</g>
<!-- Node2&#45;&gt;Node4 -->
<g id="edge3_Node000002_Node000004" class="edge">
<title>Node2&#45;&gt;Node4</title>
<g id="a_edge3_Node000002_Node000004"><a xlink:title=" ">
<path fill="none" stroke="#63b8ff" d="M475.78,-403.31C434.5,-397.87 356.06,-385.19 293.2,-361.25 156.39,-309.13 79.16,-320.68 11.2,-191 -60.75,-53.7 246.28,-20.7 356.29,-13.34"/>
<polygon fill="#63b8ff" stroke="#63b8ff" points="356.23,-16.86 365.99,-12.73 355.79,-9.87 356.23,-16.86"/>
</a>
</g>
</g>
<!-- Node5 -->
<g id="Node000005" class="node">
<title>Node5</title>
<g id="a_Node000005"><a xlink:title=" ">
<polygon fill="#e0e0e0" stroke="#999999" points="878.7,-134.25 817.7,-134.25 817.7,-113.5 878.7,-113.5 878.7,-134.25"/>
<text text-anchor="middle" x="848.2" y="-120.75" font-family="Helvetica,sans-Serif" font-size="10.00">stdbool.h</text>
</a>
</g>
</g>
<!-- Node2&#45;&gt;Node5 -->
<g id="edge4_Node000002_Node000005" class="edge">
<title>Node2&#45;&gt;Node5</title>
<g id="a_edge4_Node000002_Node000005"><a xlink:title=" ">
<path fill="none" stroke="#63b8ff" d="M532.58,-406.14C583.65,-404.36 693.6,-396.39 778.2,-361.25 824.71,-341.94 870.2,-345.48 870.2,-295.12 870.2,-295.12 870.2,-295.12 870.2,-236.38 870.2,-204.08 861.21,-167.5 854.72,-145.32"/>
<polygon fill="#63b8ff" stroke="#63b8ff" points="858.16,-144.58 851.89,-136.04 851.46,-146.63 858.16,-144.58"/>
</a>
</g>
</g>
<!-- Node6 -->
<g id="Node000006" class="node">
<title>Node6</title>
<g id="a_Node000006"><a xlink:href="architecture_8h.html" target="_top" xlink:title="Platform&#45;independent access to architecture details.">
<polygon fill="white" stroke="#666666" points="185.95,-247.75 102.45,-247.75 102.45,-227 185.95,-227 185.95,-247.75"/>
<text text-anchor="middle" x="144.2" y="-234.25" font-family="Helvetica,sans-Serif" font-size="10.00">architecture.h</text>
</a>
</g>
</g>
<!-- Node2&#45;&gt;Node6 -->
<g id="edge5_Node000002_Node000006" class="edge">
<title>Node2&#45;&gt;Node6</title>
<g id="a_edge5_Node000002_Node000006"><a xlink:title=" ">
<path fill="none" stroke="#63b8ff" d="M475.56,-405.91C436.36,-403.64 365.27,-394.78 316.2,-361.25 281.54,-337.56 295.25,-309.64 262.2,-283.75 243.21,-268.87 218.77,-258.4 197.07,-251.3"/>
<polygon fill="#63b8ff" stroke="#63b8ff" points="198.37,-248.04 187.78,-248.43 196.31,-254.73 198.37,-248.04"/>
</a>
</g>
</g>
<!-- Node10 -->
<g id="Node000010" class="node">
<title>Node10</title>
<g id="a_Node000010"><a xlink:href="kernel__defines_8h.html" target="_top" xlink:title="Common macros and compiler attributes/pragmas configuration.">
<polygon fill="white" stroke="#666666" points="435.33,-191 339.08,-191 339.08,-170.25 435.33,-170.25 435.33,-191"/>
<text text-anchor="middle" x="387.2" y="-177.5" font-family="Helvetica,sans-Serif" font-size="10.00">kernel_defines.h</text>
</a>
</g>
</g>
<!-- Node2&#45;&gt;Node10 -->
<g id="edge10_Node000002_Node000010" class="edge">
<title>Node2&#45;&gt;Node10</title>
<g id="a_edge10_Node000002_Node000010"><a xlink:title=" ">
<path fill="none" stroke="#63b8ff" d="M475.67,-407.32C440.56,-406.44 382.18,-398.94 354.2,-361.25 318.64,-313.34 335.75,-283.74 354.2,-227 357.42,-217.12 363.68,-207.6 369.89,-199.85"/>
<polygon fill="#63b8ff" stroke="#63b8ff" points="372.34,-202.37 376.25,-192.52 367.05,-197.78 372.34,-202.37"/>
</a>
</g>
</g>
<!-- Node16 -->
<g id="Node000016" class="node">
<title>Node16</title>
<g id="a_Node000016"><a xlink:href="list_8h.html" target="_top" xlink:title="Intrusive linked list.">
<polygon fill="white" stroke="#666666" points="798.2,-134.25 758.2,-134.25 758.2,-113.5 798.2,-113.5 798.2,-134.25"/>
<text text-anchor="middle" x="778.2" y="-120.75" font-family="Helvetica,sans-Serif" font-size="10.00">list.h</text>
</a>
</g>
</g>
<!-- Node2&#45;&gt;Node16 -->
<g id="edge21_Node000002_Node000016" class="edge">
<title>Node2&#45;&gt;Node16</title>
<g id="a_edge21_Node000002_Node000016"><a xlink:title=" ">
<path fill="none" stroke="#63b8ff" d="M532.74,-403.16C612.54,-392.69 832.2,-358.13 832.2,-295.12 832.2,-295.12 832.2,-295.12 832.2,-236.38 832.2,-200.72 809.57,-164.5 793.61,-143.39"/>
<polygon fill="#63b8ff" stroke="#63b8ff" points="796.52,-141.43 787.58,-135.74 791.02,-145.76 796.52,-141.43"/>
</a>
</g>
</g>
<!-- Node17 -->
<g id="Node000017" class="node">
<title>Node17</title>
<g id="a_Node000017"><a xlink:href="core_2include_2thread_8h.html" target="_top" xlink:title="Threading API.">
<polygon fill="white" stroke="#666666" points="613.45,-361.25 556.95,-361.25 556.95,-340.5 613.45,-340.5 613.45,-361.25"/>
<text text-anchor="middle" x="585.2" y="-347.75" font-family="Helvetica,sans-Serif" font-size="10.00">thread.h</text>
</a>
</g>
</g>
<!-- Node2&#45;&gt;Node17 -->
<g id="edge22_Node000002_Node000017" class="edge">
<title>Node2&#45;&gt;Node17</title>
<g id="a_edge22_Node000002_Node000017"><a xlink:title=" ">
<path fill="none" stroke="#63b8ff" d="M518.69,-396.84C530.55,-388.82 547.58,-377.31 561.44,-367.94"/>
<polygon fill="#63b8ff" stroke="#63b8ff" points="563.27,-370.93 569.59,-362.43 559.35,-365.13 563.27,-370.93"/>
</a>
</g>
</g>
<!-- Node6&#45;&gt;Node4 -->
<g id="edge6_Node000006_Node000004" class="edge">
<title>Node6&#45;&gt;Node4</title>
<g id="a_edge6_Node000006_Node000004"><a xlink:title=" ">
<path fill="none" stroke="#63b8ff" d="M165.27,-226.54C179.64,-218.8 198.03,-206.7 209.2,-191 245.16,-140.48 203.88,-101.11 247.2,-56.75 275.92,-27.35 323.22,-16.9 356.39,-13.24"/>
<polygon fill="#63b8ff" stroke="#63b8ff" points="356.34,-16.76 365.97,-12.35 355.69,-9.79 356.34,-16.76"/>
</a>
</g>
</g>
<!-- Node7 -->
<g id="Node000007" class="node">
<title>Node7</title>
<g id="a_Node000007"><a xlink:href="inttypes_8h.html" target="_top" xlink:title="Adds include for missing inttype definitions.">
<polygon fill="white" stroke="#666666" points="320.58,-191 255.83,-191 255.83,-170.25 320.58,-170.25 320.58,-191"/>
<text text-anchor="middle" x="288.2" y="-177.5" font-family="Helvetica,sans-Serif" font-size="10.00">inttypes.h</text>
</a>
</g>
</g>
<!-- Node6&#45;&gt;Node7 -->
<g id="edge7_Node000006_Node000007" class="edge">
<title>Node6&#45;&gt;Node7</title>
<g id="a_edge7_Node000006_Node000007"><a xlink:title=" ">
<path fill="none" stroke="#63b8ff" d="M169.95,-226.59C192.78,-217.91 226.37,-205.13 251.93,-195.42"/>
<polygon fill="#63b8ff" stroke="#63b8ff" points="253.16,-198.69 261.27,-191.87 250.68,-192.15 253.16,-198.69"/>
</a>
</g>
</g>
<!-- Node8 -->
<g id="Node000008" class="node">
<title>Node8</title>
<g id="a_Node000008"><a xlink:title=" ">
<polygon fill="#e0e0e0" stroke="#999999" points="72.58,-191 19.83,-191 19.83,-170.25 72.58,-170.25 72.58,-191"/>
<text text-anchor="middle" x="46.2" y="-177.5" font-family="Helvetica,sans-Serif" font-size="10.00">limits.h</text>
</a>
</g>
</g>
<!-- Node6&#45;&gt;Node8 -->
<g id="edge8_Node000006_Node000008" class="edge">
<title>Node6&#45;&gt;Node8</title>
<g id="a_edge8_Node000006_Node000008"><a xlink:title=" ">
<path fill="none" stroke="#63b8ff" d="M126.68,-226.59C111.91,-218.33 90.52,-206.38 73.5,-196.88"/>
<polygon fill="#63b8ff" stroke="#63b8ff" points="75.33,-193.89 64.89,-192.07 71.92,-200 75.33,-193.89"/>
</a>
</g>
</g>
<!-- Node9 -->
<g id="Node000009" class="node">
<title>Node9</title>
<g id="a_Node000009"><a xlink:title=" ">
<polygon fill="#e0e0e0" stroke="#999999" points="200.08,-191 90.33,-191 90.33,-170.25 200.08,-170.25 200.08,-191"/>
<text text-anchor="middle" x="145.2" y="-177.5" font-family="Helvetica,sans-Serif" font-size="10.00">architecture_arch.h</text>
</a>
</g>
</g>
<!-- Node6&#45;&gt;Node9 -->
<g id="edge9_Node000006_Node000009" class="edge">
<title>Node6&#45;&gt;Node9</title>
<g id="a_edge9_Node000006_Node000009"><a xlink:title=" ">
<path fill="none" stroke="#63b8ff" d="M144.38,-226.59C144.5,-219.97 144.67,-210.97 144.82,-202.77"/>
<polygon fill="#63b8ff" stroke="#63b8ff" points="148.32,-202.9 145,-192.84 141.32,-202.78 148.32,-202.9"/>
</a>
</g>
</g>
<!-- Node11 -->
<g id="Node000011" class="node">
<title>Node11</title>
<g id="a_Node000011"><a xlink:href="modules_8h.html" target="_top" xlink:title="Common macros and compiler attributes/pragmas configuration.">
<polygon fill="white" stroke="#666666" points="476.7,-134.25 409.7,-134.25 409.7,-113.5 476.7,-113.5 476.7,-134.25"/>
<text text-anchor="middle" x="443.2" y="-120.75" font-family="Helvetica,sans-Serif" font-size="10.00">modules.h</text>
</a>
</g>
</g>
<!-- Node10&#45;&gt;Node11 -->
<g id="edge11_Node000010_Node000011" class="edge">
<title>Node10&#45;&gt;Node11</title>
<g id="a_edge11_Node000010_Node000011"><a xlink:title=" ">
<path fill="none" stroke="#63b8ff" d="M397.22,-169.84C404.94,-162.28 415.83,-151.64 425.08,-142.6"/>
<polygon fill="#63b8ff" stroke="#63b8ff" points="427.49,-145.13 432.2,-135.64 422.6,-140.12 427.49,-145.13"/>
</a>
</g>
</g>
<!-- Node12 -->
<g id="Node000012" class="node">
<title>Node12</title>
<g id="a_Node000012"><a xlink:href="riot__version_8h.html" target="_top" xlink:title="Common macros and compiler attributes/pragmas configuration.">
<polygon fill="white" stroke="#666666" points="338.58,-77.5 255.83,-77.5 255.83,-56.75 338.58,-56.75 338.58,-77.5"/>
<text text-anchor="middle" x="297.2" y="-64" font-family="Helvetica,sans-Serif" font-size="10.00">riot_version.h</text>
</a>
</g>
</g>
<!-- Node10&#45;&gt;Node12 -->
<g id="edge12_Node000010_Node000012" class="edge">
<title>Node10&#45;&gt;Node12</title>
<g id="a_edge12_Node000010_Node000012"><a xlink:title=" ">
<path fill="none" stroke="#63b8ff" d="M338.71,-170.25C318.6,-163.71 297.19,-152.7 285.2,-134.25 276.28,-120.51 280.76,-101.94 286.62,-87.98"/>
<polygon fill="#63b8ff" stroke="#63b8ff" points="289.61,-89.85 290.74,-79.32 283.28,-86.84 289.61,-89.85"/>
</a>
</g>
</g>
<!-- Node13 -->
<g id="Node000013" class="node">
<title>Node13</title>
<g id="a_Node000013"><a xlink:href="compiler__hints_8h.html" target="_top" xlink:title="Common macros and compiler attributes/pragmas configuration.">
<polygon fill="white" stroke="#666666" points="391.7,-134.25 294.7,-134.25 294.7,-113.5 391.7,-113.5 391.7,-134.25"/>
<text text-anchor="middle" x="343.2" y="-120.75" font-family="Helvetica,sans-Serif" font-size="10.00">compiler_hints.h</text>
</a>
</g>
</g>
<!-- Node10&#45;&gt;Node13 -->
<g id="edge14_Node000010_Node000013" class="edge">
<title>Node10&#45;&gt;Node13</title>
<g id="a_edge14_Node000010_Node000013"><a xlink:title=" ">
<path fill="none" stroke="#63b8ff" d="M379.34,-169.84C373.46,-162.52 365.24,-152.29 358.12,-143.44"/>
<polygon fill="#63b8ff" stroke="#63b8ff" points="360.94,-141.36 351.95,-135.76 355.49,-145.75 360.94,-141.36"/>
</a>
</g>
</g>
<!-- Node15 -->
<g id="Node000015" class="node">
<title>Node15</title>
<g id="a_Node000015"><a xlink:href="container_8h.html" target="_top" xlink:title="Common macros and compiler attributes/pragmas configuration.">
<polygon fill="white" stroke="#666666" points="603.58,-134.25 532.83,-134.25 532.83,-113.5 603.58,-113.5 603.58,-134.25"/>
<text text-anchor="middle" x="568.2" y="-120.75" font-family="Helvetica,sans-Serif" font-size="10.00">container.h</text>
</a>
</g>
</g>
<!-- Node10&#45;&gt;Node15 -->
<g id="edge18_Node000010_Node000015" class="edge">
<title>Node10&#45;&gt;Node15</title>
<g id="a_edge18_Node000010_Node000015"><a xlink:title=" ">
<path fill="none" stroke="#63b8ff" d="M419.56,-169.84C448.94,-160.95 492.5,-147.77 524.88,-137.98"/>
<polygon fill="#63b8ff" stroke="#63b8ff" points="525.81,-141.35 534.37,-135.11 523.79,-134.65 525.81,-141.35"/>
</a>
</g>
</g>
<!-- Node12&#45;&gt;Node4 -->
<g id="edge13_Node000012_Node000004" class="edge">
<title>Node12&#45;&gt;Node4</title>
<g id="a_edge13_Node000012_Node000004"><a xlink:title=" ">
<path fill="none" stroke="#63b8ff" d="M314.55,-56.34C329.17,-48.08 350.34,-36.13 367.18,-26.63"/>
<polygon fill="#63b8ff" stroke="#63b8ff" points="368.71,-29.79 375.69,-21.82 365.27,-23.69 368.71,-29.79"/>
</a>
</g>
</g>
<!-- Node13&#45;&gt;Node4 -->
<g id="edge17_Node000013_Node000004" class="edge">
<title>Node13&#45;&gt;Node4</title>
<g id="a_edge17_Node000013_Node000004"><a xlink:title=" ">
<path fill="none" stroke="#63b8ff" d="M347.55,-113.37C355.83,-95.27 374.01,-55.53 385.07,-31.35"/>
<polygon fill="#63b8ff" stroke="#63b8ff" points="388.12,-33.1 389.09,-22.55 381.75,-30.19 388.12,-33.1"/>
</a>
</g>
</g>
<!-- Node14 -->
<g id="Node000014" class="node">
<title>Node14</title>
<g id="a_Node000014"><a xlink:href="assert_8h.html" target="_top" xlink:title="POSIX.1&#45;2008 compliant version of the assert macro.">
<polygon fill="white" stroke="#666666" points="449.7,-77.5 394.7,-77.5 394.7,-56.75 449.7,-56.75 449.7,-77.5"/>
<text text-anchor="middle" x="422.2" y="-64" font-family="Helvetica,sans-Serif" font-size="10.00">assert.h</text>
</a>
</g>
</g>
<!-- Node13&#45;&gt;Node14 -->
<g id="edge15_Node000013_Node000014" class="edge">
<title>Node13&#45;&gt;Node14</title>
<g id="a_edge15_Node000013_Node000014"><a xlink:title=" ">
<path fill="none" stroke="#63b8ff" d="M357.33,-113.09C368.9,-105.07 385.51,-93.56 399.02,-84.19"/>
<polygon fill="#63b8ff" stroke="#63b8ff" points="400.73,-87.26 406.96,-78.69 396.75,-81.51 400.73,-87.26"/>
</a>
</g>
</g>
<!-- Node14&#45;&gt;Node4 -->
<g id="edge16_Node000014_Node000004" class="edge">
<title>Node14&#45;&gt;Node4</title>
<g id="a_edge16_Node000014_Node000004"><a xlink:title=" ">
<path fill="none" stroke="#63b8ff" d="M417.2,-56.34C413.61,-49.33 408.67,-39.66 404.28,-31.08"/>
<polygon fill="#63b8ff" stroke="#63b8ff" points="407.53,-29.74 399.86,-22.43 401.29,-32.92 407.53,-29.74"/>
</a>
</g>
</g>
<!-- Node15&#45;&gt;Node3 -->
<g id="edge19_Node000015_Node000003" class="edge">
<title>Node15&#45;&gt;Node3</title>
<g id="a_edge19_Node000015_Node000003"><a xlink:title=" ">
<path fill="none" stroke="#63b8ff" d="M589.84,-113.09C608.68,-104.56 636.24,-92.09 657.56,-82.44"/>
<polygon fill="#63b8ff" stroke="#63b8ff" points="658.71,-85.76 666.38,-78.45 655.83,-79.39 658.71,-85.76"/>
</a>
</g>
</g>
<!-- Node15&#45;&gt;Node4 -->
<g id="edge20_Node000015_Node000004" class="edge">
<title>Node15&#45;&gt;Node4</title>
<g id="a_edge20_Node000015_Node000004"><a xlink:title=" ">
<path fill="none" stroke="#63b8ff" d="M553.07,-113.18C522.99,-93.9 455.45,-50.62 418.87,-27.18"/>
<polygon fill="#63b8ff" stroke="#63b8ff" points="421.01,-24.4 410.7,-21.95 417.24,-30.29 421.01,-24.4"/>
</a>
</g>
</g>
<!-- Node18 -->
<g id="Node000018" class="node">
<title>Node18</title>
<g id="a_Node000018"><a xlink:href="clist_8h.html" target="_top" xlink:title="Circular linked list.">
<polygon fill="white" stroke="#666666" points="762.83,-191 717.58,-191 717.58,-170.25 762.83,-170.25 762.83,-191"/>
<text text-anchor="middle" x="740.2" y="-177.5" font-family="Helvetica,sans-Serif" font-size="10.00">clist.h</text>
</a>
</g>
</g>
<!-- Node17&#45;&gt;Node18 -->
<g id="edge23_Node000017_Node000018" class="edge">
<title>Node17&#45;&gt;Node18</title>
<g id="a_edge23_Node000017_Node000018"><a xlink:title=" ">
<path fill="none" stroke="#63b8ff" d="M603.25,-340.04C617.52,-331.73 637.41,-318.91 652.2,-304.5 685.1,-272.46 714.14,-226.8 729.23,-201.12"/>
<polygon fill="#63b8ff" stroke="#63b8ff" points="732.09,-203.16 734.05,-192.75 726.03,-199.66 732.09,-203.16"/>
</a>
</g>
</g>
<!-- Node19 -->
<g id="Node000019" class="node">
<title>Node19</title>
<g id="a_Node000019"><a xlink:href="cib_8h.html" target="_top" xlink:title="Circular integer buffer interface.">
<polygon fill="white" stroke="#666666" points="435.83,-247.75 396.58,-247.75 396.58,-227 435.83,-227 435.83,-247.75"/>
<text text-anchor="middle" x="416.2" y="-234.25" font-family="Helvetica,sans-Serif" font-size="10.00">cib.h</text>
</a>
</g>
</g>
<!-- Node17&#45;&gt;Node19 -->
<g id="edge27_Node000017_Node000019" class="edge">
<title>Node17&#45;&gt;Node19</title>
<g id="a_edge27_Node000017_Node000019"><a xlink:title=" ">
<path fill="none" stroke="#63b8ff" d="M556.61,-350.57C520.22,-349.77 458.14,-342.44 425.2,-304.5 414.63,-292.32 412.9,-273.83 413.51,-259.5"/>
<polygon fill="#63b8ff" stroke="#63b8ff" points="416.98,-260.01 414.37,-249.74 410.01,-259.4 416.98,-260.01"/>
</a>
</g>
</g>
<!-- Node20 -->
<g id="Node000020" class="node">
<title>Node20</title>
<g id="a_Node000020"><a xlink:href="core_2include_2msg_8h.html" target="_top" xlink:title="Messaging API for inter process communication.">
<polygon fill="white" stroke="#666666" points="804.2,-304.5 758.2,-304.5 758.2,-283.75 804.2,-283.75 804.2,-304.5"/>
<text text-anchor="middle" x="781.2" y="-291" font-family="Helvetica,sans-Serif" font-size="10.00">msg.h</text>
</a>
</g>
</g>
<!-- Node17&#45;&gt;Node20 -->
<g id="edge29_Node000017_Node000020" class="edge">
<title>Node17&#45;&gt;Node20</title>
<g id="a_edge29_Node000017_Node000020"><a xlink:title=" ">
<path fill="none" stroke="#63b8ff" d="M613.7,-341.91C649.02,-332.05 709.13,-315.26 746.93,-304.7"/>
<polygon fill="#63b8ff" stroke="#63b8ff" points="747.74,-308.11 756.43,-302.05 745.86,-301.37 747.74,-308.11"/>
</a>
</g>
</g>
<!-- Node17&#45;&gt;Node21 -->
<g id="edge38_Node000017_Node000021" class="edge">
<title>Node17&#45;&gt;Node21</title>
<g id="a_edge38_Node000017_Node000021"><a xlink:title=" ">
<path fill="none" stroke="#63b8ff" d="M601.48,-340.22C613.2,-332.27 628.14,-319.83 635.2,-304.5 641.76,-290.29 641.9,-272.47 640.6,-258.91"/>
<polygon fill="#63b8ff" stroke="#63b8ff" points="644.12,-258.84 639.34,-249.38 637.18,-259.75 644.12,-258.84"/>
</a>
</g>
</g>
<!-- Node23 -->
<g id="Node000023" class="node">
<title>Node23</title>
<g id="a_Node000023"><a xlink:href="thread__config_8h.html" target="_top" xlink:title="Thread configuration defines.">
<polygon fill="white" stroke="#666666" points="526.08,-304.5 434.33,-304.5 434.33,-283.75 526.08,-283.75 526.08,-304.5"/>
<text text-anchor="middle" x="480.2" y="-291" font-family="Helvetica,sans-Serif" font-size="10.00">thread_config.h</text>
</a>
</g>
</g>
<!-- Node17&#45;&gt;Node23 -->
<g id="edge39_Node000017_Node000023" class="edge">
<title>Node17&#45;&gt;Node23</title>
<g id="a_edge39_Node000017_Node000023"><a xlink:title=" ">
<path fill="none" stroke="#63b8ff" d="M566.43,-340.09C550.46,-331.76 527.25,-319.66 508.94,-310.11"/>
<polygon fill="#63b8ff" stroke="#63b8ff" points="510.64,-307.05 500.16,-305.53 507.4,-313.26 510.64,-307.05"/>
</a>
</g>
</g>
<!-- Node25 -->
<g id="Node000025" class="node">
<title>Node25</title>
<g id="a_Node000025"><a xlink:title=" ">
<polygon fill="#e0e0e0" stroke="#999999" points="626.58,-304.5 543.83,-304.5 543.83,-283.75 626.58,-283.75 626.58,-304.5"/>
<text text-anchor="middle" x="585.2" y="-291" font-family="Helvetica,sans-Serif" font-size="10.00">thread_arch.h</text>
</a>
</g>
</g>
<!-- Node17&#45;&gt;Node25 -->
<g id="edge42_Node000017_Node000025" class="edge">
<title>Node17&#45;&gt;Node25</title>
<g id="a_edge42_Node000017_Node000025"><a xlink:title=" ">
<path fill="none" stroke="#63b8ff" d="M585.2,-340.09C585.2,-333.47 585.2,-324.47 585.2,-316.27"/>
<polygon fill="#63b8ff" stroke="#63b8ff" points="588.7,-316.34 585.2,-306.34 581.7,-316.34 588.7,-316.34"/>
</a>
</g>
</g>
<!-- Node18&#45;&gt;Node3 -->
<g id="edge25_Node000018_Node000003" class="edge">
<title>Node18&#45;&gt;Node3</title>
<g id="a_edge25_Node000018_Node000003"><a xlink:title=" ">
<path fill="none" stroke="#63b8ff" d="M735.86,-170.12C727.58,-152.02 709.4,-112.28 698.34,-88.1"/>
<polygon fill="#63b8ff" stroke="#63b8ff" points="701.66,-86.94 694.32,-79.3 695.29,-89.85 701.66,-86.94"/>
</a>
</g>
</g>
<!-- Node18&#45;&gt;Node5 -->
<g id="edge24_Node000018_Node000005" class="edge">
<title>Node18&#45;&gt;Node5</title>
<g id="a_edge24_Node000018_Node000005"><a xlink:title=" ">
<path fill="none" stroke="#63b8ff" d="M759.51,-169.84C776.02,-161.47 800.03,-149.29 818.91,-139.72"/>
<polygon fill="#63b8ff" stroke="#63b8ff" points="820.38,-142.91 827.71,-135.26 817.21,-136.66 820.38,-142.91"/>
</a>
</g>
</g>
<!-- Node18&#45;&gt;Node16 -->
<g id="edge26_Node000018_Node000016" class="edge">
<title>Node18&#45;&gt;Node16</title>
<g id="a_edge26_Node000018_Node000016"><a xlink:title=" ">
<path fill="none" stroke="#63b8ff" d="M747,-169.84C751.97,-162.67 758.87,-152.73 764.93,-144.01"/>
<polygon fill="#63b8ff" stroke="#63b8ff" points="767.78,-146.03 770.61,-135.82 762.03,-142.04 767.78,-146.03"/>
</a>
</g>
</g>
<!-- Node19&#45;&gt;Node14 -->
<g id="edge28_Node000019_Node000014" class="edge">
<title>Node19&#45;&gt;Node14</title>
<g id="a_edge28_Node000019_Node000014"><a xlink:title=" ">
<path fill="none" stroke="#63b8ff" d="M425.73,-226.73C441.74,-209.76 473.43,-172.72 485.2,-134.25 487.9,-125.43 489.41,-121.71 485.2,-113.5 478.68,-100.75 466.71,-90.77 454.95,-83.45"/>
<polygon fill="#63b8ff" stroke="#63b8ff" points="456.99,-80.58 446.56,-78.68 453.52,-86.67 456.99,-80.58"/>
</a>
</g>
</g>
<!-- Node20&#45;&gt;Node4 -->
<g id="edge30_Node000020_Node000004" class="edge">
<title>Node20&#45;&gt;Node4</title>
<g id="a_edge30_Node000020_Node000004"><a xlink:title=" ">
<path fill="none" stroke="#63b8ff" d="M804.5,-284.92C841.16,-270.33 908.2,-236.2 908.2,-181.62 908.2,-181.62 908.2,-181.62 908.2,-122.88 908.2,-25.44 550.97,-12.97 432.13,-11.52"/>
<polygon fill="#63b8ff" stroke="#63b8ff" points="432.3,-8.02 422.27,-11.42 432.23,-15.02 432.3,-8.02"/>
</a>
</g>
</g>
<!-- Node20&#45;&gt;Node5 -->
<g id="edge31_Node000020_Node000005" class="edge">
<title>Node20&#45;&gt;Node5</title>
<g id="a_edge31_Node000020_Node000005"><a xlink:title=" ">
<path fill="none" stroke="#63b8ff" d="M785,-283.6C795.59,-257 825.65,-181.52 840.16,-145.07"/>
<polygon fill="#63b8ff" stroke="#63b8ff" points="843.28,-146.71 843.72,-136.12 836.77,-144.12 843.28,-146.71"/>
</a>
</g>
</g>
<!-- Node20&#45;&gt;Node21 -->
<g id="edge32_Node000020_Node000021" class="edge">
<title>Node20&#45;&gt;Node21</title>
<g id="a_edge32_Node000020_Node000021"><a xlink:title=" ">
<path fill="none" stroke="#63b8ff" d="M757.75,-284.21C735.01,-275.56 700.2,-262.33 673.81,-252.29"/>
<polygon fill="#63b8ff" stroke="#63b8ff" points="675.09,-249.04 664.5,-248.75 672.6,-255.58 675.09,-249.04"/>
</a>
</g>
</g>
<!-- Node21&#45;&gt;Node3 -->
<g id="edge33_Node000021_Node000003" class="edge">
<title>Node21&#45;&gt;Node3</title>
<g id="a_edge33_Node000021_Node000003"><a xlink:title=" ">
<path fill="none" stroke="#63b8ff" d="M646.32,-226.77C653.98,-218.12 664.56,-204.69 670.2,-191 684.15,-157.18 687.96,-114.29 688.94,-89.16"/>
<polygon fill="#63b8ff" stroke="#63b8ff" points="692.43,-89.38 689.19,-79.29 685.44,-89.2 692.43,-89.38"/>
</a>
</g>
</g>
<!-- Node21&#45;&gt;Node7 -->
<g id="edge34_Node000021_Node000007" class="edge">
<title>Node21&#45;&gt;Node7</title>
<g id="a_edge34_Node000021_Node000007"><a xlink:title=" ">
<path fill="none" stroke="#63b8ff" d="M609.99,-233.03C558.07,-226.5 441.09,-211.11 331.93,-191.19"/>
<polygon fill="#63b8ff" stroke="#63b8ff" points="332.67,-187.77 322.2,-189.4 331.4,-194.66 332.67,-187.77"/>
</a>
</g>
</g>
<!-- Node21&#45;&gt;Node10 -->
<g id="edge35_Node000021_Node000010" class="edge">
<title>Node21&#45;&gt;Node10</title>
<g id="a_edge35_Node000021_Node000010"><a xlink:title=" ">
<path fill="none" stroke="#63b8ff" d="M609.97,-230.41C570.12,-221.68 495.03,-205.24 443.11,-193.87"/>
<polygon fill="#63b8ff" stroke="#63b8ff" points="444.08,-190.5 433.56,-191.78 442.58,-197.34 444.08,-190.5"/>
</a>
</g>
</g>
<!-- Node21&#45;&gt;Node18 -->
<g id="edge37_Node000021_Node000018" class="edge">
<title>Node21&#45;&gt;Node18</title>
<g id="a_edge37_Node000021_Node000018"><a xlink:title=" ">
<path fill="none" stroke="#63b8ff" d="M655.62,-226.59C671.29,-218.26 694.05,-206.16 712.02,-196.61"/>
<polygon fill="#63b8ff" stroke="#63b8ff" points="713.43,-199.82 720.61,-192.04 710.14,-193.64 713.43,-199.82"/>
</a>
</g>
</g>
<!-- Node22 -->
<g id="Node000022" class="node">
<title>Node22</title>
<g id="a_Node000022"><a xlink:href="native__sched_8h.html" target="_top" xlink:title="Add definitions required on the native board.">
<polygon fill="white" stroke="#666666" points="660.95,-191 571.45,-191 571.45,-170.25 660.95,-170.25 660.95,-191"/>
<text text-anchor="middle" x="616.2" y="-177.5" font-family="Helvetica,sans-Serif" font-size="10.00">native_sched.h</text>
</a>
</g>
</g>
<!-- Node21&#45;&gt;Node22 -->
<g id="edge36_Node000021_Node000022" class="edge">
<title>Node21&#45;&gt;Node22</title>
<g id="a_edge36_Node000021_Node000022"><a xlink:title=" ">
<path fill="none" stroke="#63b8ff" d="M633.45,-226.59C630.82,-219.74 627.22,-210.34 623.98,-201.9"/>
<polygon fill="#63b8ff" stroke="#63b8ff" points="627.32,-200.82 620.47,-192.74 620.78,-203.33 627.32,-200.82"/>
</a>
</g>
</g>
<!-- Node23&#45;&gt;Node21 -->
<g id="edge41_Node000023_Node000021" class="edge">
<title>Node23&#45;&gt;Node21</title>
<g id="a_edge41_Node000023_Node000021"><a xlink:title=" ">
<path fill="none" stroke="#63b8ff" d="M508.27,-283.34C533.73,-274.46 571.47,-261.3 599.55,-251.51"/>
<polygon fill="#63b8ff" stroke="#63b8ff" points="600.45,-254.9 608.74,-248.3 598.14,-248.29 600.45,-254.9"/>
</a>
</g>
</g>
<!-- Node24 -->
<g id="Node000024" class="node">
<title>Node24</title>
<g id="a_Node000024"><a xlink:title=" ">
<polygon fill="#e0e0e0" stroke="#999999" points="522.08,-247.75 454.33,-247.75 454.33,-227 522.08,-227 522.08,-247.75"/>
<text text-anchor="middle" x="488.2" y="-234.25" font-family="Helvetica,sans-Serif" font-size="10.00">cpu_conf.h</text>
</a>
</g>
</g>
<!-- Node23&#45;&gt;Node24 -->
<g id="edge40_Node000023_Node000024" class="edge">
<title>Node23&#45;&gt;Node24</title>
<g id="a_edge40_Node000023_Node000024"><a xlink:title=" ">
<path fill="none" stroke="#63b8ff" d="M481.63,-283.34C482.61,-276.64 483.95,-267.51 485.16,-259.23"/>
<polygon fill="#63b8ff" stroke="#63b8ff" points="488.58,-259.98 486.57,-249.58 481.66,-258.96 488.58,-259.98"/>
</a>
</g>
</g>
<!-- Node27&#45;&gt;Node10 -->
<g id="edge46_Node000027_Node000010" class="edge">
<title>Node27&#45;&gt;Node10</title>
<g id="a_edge46_Node000027_Node000010"><a xlink:title=" ">
<path fill="none" stroke="#63b8ff" d="M167.98,-340.27C194.11,-319.07 259.15,-267.03 316.2,-227 330.9,-216.69 347.82,-205.84 361.46,-197.33"/>
<polygon fill="#63b8ff" stroke="#63b8ff" points="363.21,-200.37 369.87,-192.13 359.52,-194.41 363.21,-200.37"/>
</a>
</g>
</g>
<!-- Node29 -->
<g id="Node000029" class="node">
<title>Node29</title>
<g id="a_Node000029"><a xlink:href="errno_8h.html" target="_top" xlink:title=" ">
<polygon fill="white" stroke="#666666" points="977.45,-418 926.95,-418 926.95,-397.25 977.45,-397.25 977.45,-418"/>
<text text-anchor="middle" x="952.2" y="-404.5" font-family="Helvetica,sans-Serif" font-size="10.00">errno.h</text>
</a>
</g>
</g>
<!-- Node28&#45;&gt;Node29 -->
<g id="edge48_Node000028_Node000029" class="edge">
<title>Node28&#45;&gt;Node29</title>
<g id="a_edge48_Node000028_Node000029"><a xlink:title=" ">
<path fill="none" stroke="#63b8ff" d="M957.95,-453.59C957.1,-446.89 955.93,-437.76 954.87,-429.48"/>
<polygon fill="#63b8ff" stroke="#63b8ff" points="958.38,-429.31 953.64,-419.83 951.43,-430.19 958.38,-429.31"/>
</a>
</g>
</g>
<!-- Node30&#45;&gt;Node2 -->
<g id="edge50_Node000030_Node000002" class="edge">
<title>Node30&#45;&gt;Node2</title>
<g id="a_edge50_Node000030_Node000002"><a xlink:title=" ">
<path fill="none" stroke="#63b8ff" d="M281.15,-453.52C333.68,-442.95 416.11,-426.36 464.69,-416.58"/>
<polygon fill="#63b8ff" stroke="#63b8ff" points="465.09,-420.07 474.2,-414.66 463.7,-413.21 465.09,-420.07"/>
</a>
</g>
</g>
<!-- Node31&#45;&gt;Node29 -->
<g id="edge52_Node000031_Node000029" class="edge">
<title>Node31&#45;&gt;Node29</title>
<g id="a_edge52_Node000031_Node000029"><a xlink:title=" ">
<path fill="none" stroke="#63b8ff" d="M842.98,-453.59C863.88,-444.98 894.54,-432.36 918.06,-422.68"/>
<polygon fill="#63b8ff" stroke="#63b8ff" points="919.32,-425.95 927.23,-418.9 916.65,-419.47 919.32,-425.95"/>
</a>
</g>
</g>
<!-- Node32&#45;&gt;Node5 -->
<g id="edge59_Node000032_Node000005" class="edge">
<title>Node32&#45;&gt;Node5</title>
<g id="a_edge59_Node000032_Node000005"><a xlink:title=" ">
<path fill="none" stroke="#63b8ff" d="M1081.37,-453.76C1068.78,-435.08 1043.2,-392.16 1043.2,-351.88 1043.2,-351.88 1043.2,-351.88 1043.2,-293.12 1043.2,-212.05 945.39,-161.42 888.31,-138.78"/>
<polygon fill="#63b8ff" stroke="#63b8ff" points="889.82,-135.61 879.23,-135.29 887.31,-142.15 889.82,-135.61"/>
</a>
</g>
</g>
<!-- Node32&#45;&gt;Node29 -->
<g id="edge58_Node000032_Node000029" class="edge">
<title>Node32&#45;&gt;Node29</title>
<g id="a_edge58_Node000032_Node000029"><a xlink:title=" ">
<path fill="none" stroke="#63b8ff" d="M1063.89,-453.59C1042.42,-444.94 1010.88,-432.25 986.79,-422.55"/>
<polygon fill="#63b8ff" stroke="#63b8ff" points="988.3,-419.38 977.71,-418.89 985.68,-425.88 988.3,-419.38"/>
</a>
</g>
</g>
<!-- Node33 -->
<g id="Node000033" class="node">
<title>Node33</title>
<g id="a_Node000033"><a xlink:href="priority__queue_8h.html" target="_top" xlink:title="A simple priority queue.">
<polygon fill="white" stroke="#666666" points="1000.95,-361.25 905.45,-361.25 905.45,-340.5 1000.95,-340.5 1000.95,-361.25"/>
<text text-anchor="middle" x="953.2" y="-347.75" font-family="Helvetica,sans-Serif" font-size="10.00">priority_queue.h</text>
</a>
</g>
</g>
<!-- Node32&#45;&gt;Node33 -->
<g id="edge54_Node000032_Node000033" class="edge">
<title>Node32&#45;&gt;Node33</title>
<g id="a_edge54_Node000032_Node000033"><a xlink:title=" ">
<path fill="none" stroke="#63b8ff" d="M1074.9,-453.51C1062.83,-444.46 1044.6,-430.6 1029.2,-418 1009.59,-401.95 987.83,-382.88 972.63,-369.35"/>
<polygon fill="#63b8ff" stroke="#63b8ff" points="975.02,-366.79 965.23,-362.73 970.35,-372.01 975.02,-366.79"/>
</a>
</g>
</g>
<!-- Node34 -->
<g id="Node000034" class="node">
<title>Node34</title>
<g id="a_Node000034"><a xlink:title=" ">
<polygon fill="#e0e0e0" stroke="#999999" points="1127.45,-418 1070.95,-418 1070.95,-397.25 1127.45,-397.25 1127.45,-418"/>
<text text-anchor="middle" x="1099.2" y="-404.5" font-family="Helvetica,sans-Serif" font-size="10.00">thread.h</text>
</a>
</g>
</g>
<!-- Node32&#45;&gt;Node34 -->
<g id="edge57_Node000032_Node000034" class="edge">
<title>Node32&#45;&gt;Node34</title>
<g id="a_edge57_Node000032_Node000034"><a xlink:title=" ">
<path fill="none" stroke="#63b8ff" d="M1090.17,-453.59C1091.52,-446.89 1093.35,-437.76 1095.01,-429.48"/>
<polygon fill="#63b8ff" stroke="#63b8ff" points="1098.42,-430.31 1096.96,-419.81 1091.56,-428.93 1098.42,-430.31"/>
</a>
</g>
</g>
<!-- Node33&#45;&gt;Node3 -->
<g id="edge55_Node000033_Node000003" class="edge">
<title>Node33&#45;&gt;Node3</title>
<g id="a_edge55_Node000033_Node000003"><a xlink:title=" ">
<path fill="none" stroke="#63b8ff" d="M952.17,-340.04C950.22,-320.63 946.2,-276 946.2,-238.38 946.2,-238.38 946.2,-238.38 946.2,-179.62 946.2,-85.87 800.48,-70.09 728.5,-68.01"/>
<polygon fill="#63b8ff" stroke="#63b8ff" points="728.78,-64.52 718.71,-67.81 728.64,-71.52 728.78,-64.52"/>
</a>
</g>
</g>
<!-- Node33&#45;&gt;Node4 -->
<g id="edge56_Node000033_Node000004" class="edge">
<title>Node33&#45;&gt;Node4</title>
<g id="a_edge56_Node000033_Node000004"><a xlink:title=" ">
<path fill="none" stroke="#63b8ff" d="M955.69,-340.22C957.91,-331.09 960.98,-316.97 962.2,-304.5 965.67,-269.17 976.36,-243.78 960.2,-170.25 946.21,-106.55 927.38,-81.88 867.2,-56.75 788.83,-24.02 530.52,-14.59 432.44,-12.15"/>
<polygon fill="#63b8ff" stroke="#63b8ff" points="432.62,-8.65 422.54,-11.91 432.46,-15.65 432.62,-8.65"/>
</a>
</g>
</g>
<!-- Node36 -->
<g id="Node000036" class="node">
<title>Node36</title>
<g id="a_Node000036"><a xlink:title=" ">
<polygon fill="#e0e0e0" stroke="#999999" points="1755.08,-418 1681.33,-418 1681.33,-397.25 1755.08,-397.25 1755.08,-418"/>
<text text-anchor="middle" x="1718.2" y="-404.5" font-family="Helvetica,sans-Serif" font-size="10.00">stdatomic.h</text>
</a>
</g>
</g>
<!-- Node35&#45;&gt;Node36 -->
<g id="edge61_Node000035_Node000036" class="edge">
<title>Node35&#45;&gt;Node36</title>
<g id="a_edge61_Node000035_Node000036"><a xlink:title=" ">
<path fill="none" stroke="#63b8ff" d="M1718.2,-453.59C1718.2,-446.97 1718.2,-437.97 1718.2,-429.77"/>
<polygon fill="#63b8ff" stroke="#63b8ff" points="1721.7,-429.84 1718.2,-419.84 1714.7,-429.84 1721.7,-429.84"/>
</a>
</g>
</g>
<!-- Node37&#45;&gt;Node2 -->
<g id="edge63_Node000037_Node000002" class="edge">
<title>Node37&#45;&gt;Node2</title>
<g id="a_edge63_Node000037_Node000002"><a xlink:title=" ">
<path fill="none" stroke="#63b8ff" d="M504.2,-453.59C504.2,-446.97 504.2,-437.97 504.2,-429.77"/>
<polygon fill="#63b8ff" stroke="#63b8ff" points="507.7,-429.84 504.2,-419.84 500.7,-429.84 507.7,-429.84"/>
</a>
</g>
</g>
<!-- Node42&#45;&gt;Node2 -->
<g id="edge69_Node000042_Node000002" class="edge">
<title>Node42&#45;&gt;Node2</title>
<g id="a_edge69_Node000042_Node000002"><a xlink:title=" ">
<path fill="none" stroke="#63b8ff" d="M629.03,-453.59C604.79,-444.86 569.05,-431.98 542.02,-422.25"/>
<polygon fill="#63b8ff" stroke="#63b8ff" points="543.42,-419.03 532.82,-418.93 541.05,-425.62 543.42,-419.03"/>
</a>
</g>
</g>
<!-- Node42&#45;&gt;Node33 -->
<g id="edge70_Node000042_Node000033" class="edge">
<title>Node42&#45;&gt;Node33</title>
<g id="a_edge70_Node000042_Node000033"><a xlink:title=" ">
<path fill="none" stroke="#63b8ff" d="M682.3,-453.58C735.34,-433.67 855.83,-388.43 916.64,-365.6"/>
<polygon fill="#63b8ff" stroke="#63b8ff" points="917.72,-368.93 925.86,-362.14 915.26,-362.38 917.72,-368.93"/>
</a>
</g>
</g>
</g>
</svg>
