<?xml version="1.0" encoding="UTF-8" standalone="no"?>
<!DOCTYPE svg PUBLIC "-//W3C//DTD SVG 1.1//EN"
 "http://www.w3.org/Graphics/SVG/1.1/DTD/svg11.dtd">
<!-- Generated by graphviz version 12.1.2 (0)
 -->
<!-- Title: sys/include/random.h Pages: 1 -->
<svg width="614pt" height="181pt"
 viewBox="0.00 0.00 613.62 180.50" xmlns="http://www.w3.org/2000/svg" xmlns:xlink="http://www.w3.org/1999/xlink">
<g id="graph0" class="graph" transform="scale(1 1) rotate(0) translate(4 176.5)">
<title>sys/include/random.h</title>
<!-- Node1 -->
<g id="Node000001" class="node">
<title>Node1</title>
<g id="a_Node000001"><a xlink:title="Common interface to the software PRNG.">
<polygon fill="#999999" stroke="#666666" points="355.88,-172.5 235.62,-172.5 235.62,-151.75 355.88,-151.75 355.88,-172.5"/>
<text text-anchor="middle" x="295.75" y="-159" font-family="Helvetica,sans-Serif" font-size="10.00">sys/include/random.h</text>
</a>
</g>
</g>
<!-- Node2 -->
<g id="Node000002" class="node">
<title>Node2</title>
<g id="a_Node000002"><a xlink:href="sys__arch_8h.html" target="_top" xlink:title="OS abstraction layer.">
<polygon fill="white" stroke="#666666" points="119.5,-109.38 0,-109.38 0,-75.88 119.5,-75.88 119.5,-109.38"/>
<text text-anchor="start" x="8" y="-95.88" font-family="Helvetica,sans-Serif" font-size="10.00">pkg/lwip/include/arch</text>
<text text-anchor="middle" x="59.75" y="-83.12" font-family="Helvetica,sans-Serif" font-size="10.00">/sys_arch.h</text>
</a>
</g>
</g>
<!-- Node1&#45;&gt;Node2 -->
<g id="edge1_Node000001_Node000002" class="edge">
<title>Node1&#45;&gt;Node2</title>
<g id="a_edge1_Node000001_Node000002"><a xlink:title=" ">
<path fill="none" stroke="#63b8ff" d="M246.96,-148.49C213.57,-139.69 168.35,-127.47 128.75,-115.75 122.48,-113.89 115.91,-111.88 109.42,-109.85"/>
<polygon fill="#63b8ff" stroke="#63b8ff" points="245.78,-151.8 256.34,-150.95 247.56,-145.03 245.78,-151.8"/>
</a>
</g>
</g>
<!-- Node3 -->
<g id="Node000003" class="node">
<title>Node3</title>
<g id="a_Node000003"><a xlink:href="DSMEPlatform_8h.html" target="_top" xlink:title="DSME Platform interface implementation.">
<polygon fill="white" stroke="#666666" points="290,-109.38 137.5,-109.38 137.5,-75.88 290,-75.88 290,-109.38"/>
<text text-anchor="start" x="145.5" y="-95.88" font-family="Helvetica,sans-Serif" font-size="10.00">pkg/opendsme/include</text>
<text text-anchor="middle" x="213.75" y="-83.12" font-family="Helvetica,sans-Serif" font-size="10.00">/opendsme/DSMEPlatform.h</text>
</a>
</g>
</g>
<!-- Node1&#45;&gt;Node3 -->
<g id="edge2_Node000001_Node000003" class="edge">
<title>Node1&#45;&gt;Node3</title>
<g id="a_edge2_Node000001_Node000003"><a xlink:title=" ">
<path fill="none" stroke="#63b8ff" d="M275.41,-144.38C262.58,-133.82 246.09,-120.25 233.39,-109.79"/>
<polygon fill="#63b8ff" stroke="#63b8ff" points="272.89,-146.84 282.83,-150.49 277.34,-141.43 272.89,-146.84"/>
</a>
</g>
</g>
<!-- Node4 -->
<g id="Node000004" class="node">
<title>Node4</title>
<g id="a_Node000004"><a xlink:href="nanocoap__sock_8h.html" target="_top" xlink:title="nanocoap high&#45;level API">
<polygon fill="white" stroke="#666666" points="447.62,-109.38 307.88,-109.38 307.88,-75.88 447.62,-75.88 447.62,-109.38"/>
<text text-anchor="start" x="315.88" y="-95.88" font-family="Helvetica,sans-Serif" font-size="10.00">sys/include/net/nanocoap</text>
<text text-anchor="middle" x="377.75" y="-83.12" font-family="Helvetica,sans-Serif" font-size="10.00">_sock.h</text>
</a>
</g>
</g>
<!-- Node1&#45;&gt;Node4 -->
<g id="edge3_Node000001_Node000004" class="edge">
<title>Node1&#45;&gt;Node4</title>
<g id="a_edge3_Node000001_Node000004"><a xlink:title=" ">
<path fill="none" stroke="#63b8ff" d="M316.09,-144.38C328.92,-133.82 345.41,-120.25 358.11,-109.79"/>
<polygon fill="#63b8ff" stroke="#63b8ff" points="314.16,-141.43 308.67,-150.49 318.61,-146.84 314.16,-141.43"/>
</a>
</g>
</g>
<!-- Node8 -->
<g id="Node000008" class="node">
<title>Node8</title>
<g id="a_Node000008"><a xlink:href="gnrc__ipv6__auto__subnets_8c.html" target="_top" xlink:title=" ">
<polygon fill="white" stroke="#666666" points="600,-115.75 465.5,-115.75 465.5,-69.5 600,-69.5 600,-115.75"/>
<text text-anchor="start" x="473.5" y="-102.25" font-family="Helvetica,sans-Serif" font-size="10.00">sys/net/gnrc/routing</text>
<text text-anchor="start" x="473.5" y="-89.5" font-family="Helvetica,sans-Serif" font-size="10.00">/ipv6_auto_subnets/gnrc</text>
<text text-anchor="middle" x="532.75" y="-76.75" font-family="Helvetica,sans-Serif" font-size="10.00">_ipv6_auto_subnets.c</text>
</a>
</g>
</g>
<!-- Node1&#45;&gt;Node8 -->
<g id="edge7_Node000001_Node000008" class="edge">
<title>Node1&#45;&gt;Node8</title>
<g id="a_edge7_Node000001_Node000008"><a xlink:title=" ">
<path fill="none" stroke="#63b8ff" d="M341.82,-148.25C374.04,-139.23 418.04,-126.84 456.75,-115.75 459.52,-114.96 462.35,-114.14 465.21,-113.32"/>
<polygon fill="#63b8ff" stroke="#63b8ff" points="341.09,-144.82 332.41,-150.89 342.98,-151.56 341.09,-144.82"/>
</a>
</g>
</g>
<!-- Node5 -->
<g id="Node000005" class="node">
<title>Node5</title>
<g id="a_Node000005"><a xlink:href="fs_8h.html" target="_top" xlink:title="nanoCoAP virtual file system">
<polygon fill="white" stroke="#666666" points="290.12,-27.12 129.38,-27.12 129.38,-6.38 290.12,-6.38 290.12,-27.12"/>
<text text-anchor="middle" x="209.75" y="-13.62" font-family="Helvetica,sans-Serif" font-size="10.00">sys/include/net/nanocoap/fs.h</text>
</a>
</g>
</g>
<!-- Node4&#45;&gt;Node5 -->
<g id="edge4_Node000004_Node000005" class="edge">
<title>Node4&#45;&gt;Node5</title>
<g id="a_edge4_Node000004_Node000005"><a xlink:title=" ">
<path fill="none" stroke="#63b8ff" d="M330.34,-70.78C298.16,-56.63 257.06,-38.55 232.11,-27.58"/>
<polygon fill="#63b8ff" stroke="#63b8ff" points="328.93,-73.98 339.5,-74.8 331.75,-67.57 328.93,-73.98"/>
</a>
</g>
</g>
<!-- Node6 -->
<g id="Node000006" class="node">
<title>Node6</title>
<g id="a_Node000006"><a xlink:href="link__format_8h.html" target="_top" xlink:title="NanoCoAP Link Format helper functions.">
<polygon fill="white" stroke="#666666" points="447.62,-33.5 307.88,-33.5 307.88,0 447.62,0 447.62,-33.5"/>
<text text-anchor="start" x="315.88" y="-20" font-family="Helvetica,sans-Serif" font-size="10.00">sys/include/net/nanocoap</text>
<text text-anchor="middle" x="377.75" y="-7.25" font-family="Helvetica,sans-Serif" font-size="10.00">/link_format.h</text>
</a>
</g>
</g>
<!-- Node4&#45;&gt;Node6 -->
<g id="edge5_Node000004_Node000006" class="edge">
<title>Node4&#45;&gt;Node6</title>
<g id="a_edge5_Node000004_Node000006"><a xlink:title=" ">
<path fill="none" stroke="#63b8ff" d="M377.75,-64.24C377.75,-53.97 377.75,-42.65 377.75,-33.75"/>
<polygon fill="#63b8ff" stroke="#63b8ff" points="374.25,-64.08 377.75,-74.08 381.25,-64.08 374.25,-64.08"/>
</a>
</g>
</g>
<!-- Node7 -->
<g id="Node000007" class="node">
<title>Node7</title>
<g id="a_Node000007"><a xlink:href="nanocoap__vfs_8h.html" target="_top" xlink:title="VFS NanoCoAP helper functions.">
<polygon fill="white" stroke="#666666" points="605.62,-33.5 465.88,-33.5 465.88,0 605.62,0 605.62,-33.5"/>
<text text-anchor="start" x="473.88" y="-20" font-family="Helvetica,sans-Serif" font-size="10.00">sys/include/net/nanocoap</text>
<text text-anchor="middle" x="535.75" y="-7.25" font-family="Helvetica,sans-Serif" font-size="10.00">_vfs.h</text>
</a>
</g>
</g>
<!-- Node4&#45;&gt;Node7 -->
<g id="edge6_Node000004_Node000007" class="edge">
<title>Node4&#45;&gt;Node7</title>
<g id="a_edge6_Node000004_Node000007"><a xlink:title=" ">
<path fill="none" stroke="#63b8ff" d="M422.72,-70.6C447.63,-58.95 478.12,-44.69 501.16,-33.92"/>
<polygon fill="#63b8ff" stroke="#63b8ff" points="421.37,-67.37 413.79,-74.77 424.34,-73.71 421.37,-67.37"/>
</a>
</g>
</g>
</g>
</svg>
