<?xml version="1.0" encoding="UTF-8" standalone="no"?>
<!DOCTYPE svg PUBLIC "-//W3C//DTD SVG 1.1//EN"
 "http://www.w3.org/Graphics/SVG/1.1/DTD/svg11.dtd">
<!-- Generated by graphviz version 12.1.2 (0)
 -->
<!-- Title: sys/include/riotboot/hdr.h Pages: 1 -->
<svg width="380pt" height="250pt"
 viewBox="0.00 0.00 380.00 250.00" xmlns="http://www.w3.org/2000/svg" xmlns:xlink="http://www.w3.org/1999/xlink">
<g id="graph0" class="graph" transform="scale(1 1) rotate(0) translate(4 246)">
<title>sys/include/riotboot/hdr.h</title>
<!-- Node1 -->
<g id="Node000001" class="node">
<title>Node1</title>
<g id="a_Node000001"><a xlink:title="RIOT &quot;partition&quot; header and tools.">
<polygon fill="#999999" stroke="#666666" points="242,-242 130,-242 130,-208.5 242,-208.5 242,-242"/>
<text text-anchor="start" x="138" y="-228.5" font-family="Helvetica,sans-Serif" font-size="10.00">sys/include/riotboot</text>
<text text-anchor="middle" x="186" y="-215.75" font-family="Helvetica,sans-Serif" font-size="10.00">/hdr.h</text>
</a>
</g>
</g>
<!-- Node2 -->
<g id="Node000002" class="node">
<title>Node2</title>
<g id="a_Node000002"><a xlink:href="magic_8h.html" target="_top" xlink:title="USB DFU/serial initialization constants for riotboot.">
<polygon fill="white" stroke="#666666" points="112,-172.5 0,-172.5 0,-139 112,-139 112,-172.5"/>
<text text-anchor="start" x="8" y="-159" font-family="Helvetica,sans-Serif" font-size="10.00">sys/include/riotboot</text>
<text text-anchor="middle" x="56" y="-146.25" font-family="Helvetica,sans-Serif" font-size="10.00">/magic.h</text>
</a>
</g>
</g>
<!-- Node1&#45;&gt;Node2 -->
<g id="edge1_Node000001_Node000002" class="edge">
<title>Node1&#45;&gt;Node2</title>
<g id="a_edge1_Node000001_Node000002"><a xlink:title=" ">
<path fill="none" stroke="#63b8ff" d="M144.8,-202.86C126.04,-193.12 104.21,-181.78 86.88,-172.79"/>
<polygon fill="#63b8ff" stroke="#63b8ff" points="143.03,-205.88 153.52,-207.38 146.26,-199.67 143.03,-205.88"/>
</a>
</g>
</g>
<!-- Node3 -->
<g id="Node000003" class="node">
<title>Node3</title>
<g id="a_Node000003"><a xlink:href="slot_8h.html" target="_top" xlink:title="Slot management tools.">
<polygon fill="white" stroke="#666666" points="242,-172.5 130,-172.5 130,-139 242,-139 242,-172.5"/>
<text text-anchor="start" x="138" y="-159" font-family="Helvetica,sans-Serif" font-size="10.00">sys/include/riotboot</text>
<text text-anchor="middle" x="186" y="-146.25" font-family="Helvetica,sans-Serif" font-size="10.00">/slot.h</text>
</a>
</g>
</g>
<!-- Node1&#45;&gt;Node3 -->
<g id="edge2_Node000001_Node000003" class="edge">
<title>Node1&#45;&gt;Node3</title>
<g id="a_edge2_Node000001_Node000003"><a xlink:title=" ">
<path fill="none" stroke="#63b8ff" d="M186,-196.81C186,-188.59 186,-179.84 186,-172.63"/>
<polygon fill="#63b8ff" stroke="#63b8ff" points="182.5,-196.74 186,-206.74 189.5,-196.74 182.5,-196.74"/>
</a>
</g>
</g>
<!-- Node6 -->
<g id="Node000006" class="node">
<title>Node6</title>
<g id="a_Node000006"><a xlink:href="usb__dfu_8h.html" target="_top" xlink:title="USB DFU initialization for riotboot.">
<polygon fill="white" stroke="#666666" points="372,-172.5 260,-172.5 260,-139 372,-139 372,-172.5"/>
<text text-anchor="start" x="268" y="-159" font-family="Helvetica,sans-Serif" font-size="10.00">sys/include/riotboot</text>
<text text-anchor="middle" x="316" y="-146.25" font-family="Helvetica,sans-Serif" font-size="10.00">/usb_dfu.h</text>
</a>
</g>
</g>
<!-- Node1&#45;&gt;Node6 -->
<g id="edge5_Node000001_Node000006" class="edge">
<title>Node1&#45;&gt;Node6</title>
<g id="a_edge5_Node000001_Node000006"><a xlink:title=" ">
<path fill="none" stroke="#63b8ff" d="M227.2,-202.86C245.96,-193.12 267.79,-181.78 285.12,-172.79"/>
<polygon fill="#63b8ff" stroke="#63b8ff" points="225.74,-199.67 218.48,-207.38 228.97,-205.88 225.74,-199.67"/>
</a>
</g>
</g>
<!-- Node4 -->
<g id="Node000004" class="node">
<title>Node4</title>
<g id="a_Node000004"><a xlink:href="riotboot_2flashwrite_8h.html" target="_top" xlink:title="riotboot flash writing module">
<polygon fill="white" stroke="#666666" points="242,-103 130,-103 130,-69.5 242,-69.5 242,-103"/>
<text text-anchor="start" x="138" y="-89.5" font-family="Helvetica,sans-Serif" font-size="10.00">sys/include/riotboot</text>
<text text-anchor="middle" x="186" y="-76.75" font-family="Helvetica,sans-Serif" font-size="10.00">/flashwrite.h</text>
</a>
</g>
</g>
<!-- Node3&#45;&gt;Node4 -->
<g id="edge3_Node000003_Node000004" class="edge">
<title>Node3&#45;&gt;Node4</title>
<g id="a_edge3_Node000003_Node000004"><a xlink:title=" ">
<path fill="none" stroke="#63b8ff" d="M186,-127.31C186,-119.09 186,-110.34 186,-103.13"/>
<polygon fill="#63b8ff" stroke="#63b8ff" points="182.5,-127.24 186,-137.24 189.5,-127.24 182.5,-127.24"/>
</a>
</g>
</g>
<!-- Node5 -->
<g id="Node000005" class="node">
<title>Node5</title>
<g id="a_Node000005"><a xlink:href="tinyusb__dfu_8h.html" target="_top" xlink:title="TinyUSB specific DFU definitions.">
<polygon fill="white" stroke="#666666" points="251,-33.5 121,-33.5 121,0 251,0 251,-33.5"/>
<text text-anchor="start" x="129" y="-20" font-family="Helvetica,sans-Serif" font-size="10.00">pkg/tinyusb/dfu/include</text>
<text text-anchor="middle" x="186" y="-7.25" font-family="Helvetica,sans-Serif" font-size="10.00">/tinyusb_dfu.h</text>
</a>
</g>
</g>
<!-- Node4&#45;&gt;Node5 -->
<g id="edge4_Node000004_Node000005" class="edge">
<title>Node4&#45;&gt;Node5</title>
<g id="a_edge4_Node000004_Node000005"><a xlink:title=" ">
<path fill="none" stroke="#63b8ff" d="M186,-57.81C186,-49.59 186,-40.84 186,-33.63"/>
<polygon fill="#63b8ff" stroke="#63b8ff" points="182.5,-57.74 186,-67.74 189.5,-57.74 182.5,-57.74"/>
</a>
</g>
</g>
</g>
</svg>
