<?xml version="1.0" encoding="UTF-8" standalone="no"?>
<!DOCTYPE svg PUBLIC "-//W3C//DTD SVG 1.1//EN"
 "http://www.w3.org/Graphics/SVG/1.1/DTD/svg11.dtd">
<!-- Generated by graphviz version 12.1.2 (0)
 -->
<!-- Title: drivers/include/rn2xx3.h Pages: 1 -->
<svg width="1713pt" height="596pt"
 viewBox="0.00 0.00 1712.62 596.25" xmlns="http://www.w3.org/2000/svg" xmlns:xlink="http://www.w3.org/1999/xlink">
<g id="graph0" class="graph" transform="scale(1 1) rotate(0) translate(4 592.25)">
<title>drivers/include/rn2xx3.h</title>
<!-- Node1 -->
<g id="Node000001" class="node">
<title>Node1</title>
<g id="a_Node000001"><a xlink:title="High&#45;level driver for the RN2483/RN2903 LoRa modules.">
<polygon fill="#999999" stroke="#666666" points="1332.88,-588.25 1199.12,-588.25 1199.12,-567.5 1332.88,-567.5 1332.88,-588.25"/>
<text text-anchor="middle" x="1266" y="-574.75" font-family="Helvetica,sans-Serif" font-size="10.00">drivers/include/rn2xx3.h</text>
</a>
</g>
</g>
<!-- Node2 -->
<g id="Node000002" class="node">
<title>Node2</title>
<g id="a_Node000002"><a xlink:title=" ">
<polygon fill="#e0e0e0" stroke="#999999" points="918.38,-20.75 865.62,-20.75 865.62,0 918.38,0 918.38,-20.75"/>
<text text-anchor="middle" x="892" y="-7.25" font-family="Helvetica,sans-Serif" font-size="10.00">stdint.h</text>
</a>
</g>
</g>
<!-- Node1&#45;&gt;Node2 -->
<g id="edge1_Node000001_Node000002" class="edge">
<title>Node1&#45;&gt;Node2</title>
<g id="a_edge1_Node000001_Node000002"><a xlink:title=" ">
<path fill="none" stroke="#63b8ff" d="M1268.8,-567.13C1274.09,-547.86 1285,-503.47 1285,-465.38 1285,-465.38 1285,-465.38 1285,-122.88 1285,-49.53 1028.44,-21.92 929.91,-14.02"/>
<polygon fill="#63b8ff" stroke="#63b8ff" points="930.45,-10.55 920.21,-13.27 929.91,-17.53 930.45,-10.55"/>
</a>
</g>
</g>
<!-- Node3 -->
<g id="Node000003" class="node">
<title>Node3</title>
<g id="a_Node000003"><a xlink:href="ztimer_8h.html" target="_top" xlink:title="ztimer API">
<polygon fill="white" stroke="#666666" points="576.25,-531.5 519.75,-531.5 519.75,-510.75 576.25,-510.75 576.25,-531.5"/>
<text text-anchor="middle" x="548" y="-518" font-family="Helvetica,sans-Serif" font-size="10.00">ztimer.h</text>
</a>
</g>
</g>
<!-- Node1&#45;&gt;Node3 -->
<g id="edge2_Node000001_Node000003" class="edge">
<title>Node1&#45;&gt;Node3</title>
<g id="a_edge2_Node000001_Node000003"><a xlink:title=" ">
<path fill="none" stroke="#63b8ff" d="M1198.78,-571.75C1051.83,-560.54 705.74,-534.15 588.02,-525.18"/>
<polygon fill="#63b8ff" stroke="#63b8ff" points="588.46,-521.7 578.22,-524.43 587.93,-528.68 588.46,-521.7"/>
</a>
</g>
</g>
<!-- Node29 -->
<g id="Node000029" class="node">
<title>Node29</title>
<g id="a_Node000029"><a xlink:href="drivers_2include_2periph_2uart_8h.html" target="_top" xlink:title="Low&#45;level UART peripheral driver interface definition.">
<polygon fill="white" stroke="#666666" points="1484.12,-247.75 1405.88,-247.75 1405.88,-227 1484.12,-227 1484.12,-247.75"/>
<text text-anchor="middle" x="1445" y="-234.25" font-family="Helvetica,sans-Serif" font-size="10.00">periph/uart.h</text>
</a>
</g>
</g>
<!-- Node1&#45;&gt;Node29 -->
<g id="edge52_Node000001_Node000029" class="edge">
<title>Node1&#45;&gt;Node29</title>
<g id="a_edge52_Node000001_Node000029"><a xlink:title=" ">
<path fill="none" stroke="#63b8ff" d="M1290.16,-567.04C1324.69,-551.2 1384,-516.53 1384,-465.38 1384,-465.38 1384,-465.38 1384,-349.88 1384,-313.33 1409.54,-277.4 1427.56,-256.59"/>
<polygon fill="#63b8ff" stroke="#63b8ff" points="1430.07,-259.03 1434.18,-249.26 1424.88,-254.33 1430.07,-259.03"/>
</a>
</g>
</g>
<!-- Node33 -->
<g id="Node000033" class="node">
<title>Node33</title>
<g id="a_Node000033"><a xlink:href="drivers_2include_2periph_2gpio_8h.html" target="_top" xlink:title="Low&#45;level GPIO peripheral driver interface definitions.">
<polygon fill="white" stroke="#666666" points="1593.88,-247.75 1514.12,-247.75 1514.12,-227 1593.88,-227 1593.88,-247.75"/>
<text text-anchor="middle" x="1554" y="-234.25" font-family="Helvetica,sans-Serif" font-size="10.00">periph/gpio.h</text>
</a>
</g>
</g>
<!-- Node1&#45;&gt;Node33 -->
<g id="edge59_Node000001_Node000033" class="edge">
<title>Node1&#45;&gt;Node33</title>
<g id="a_edge59_Node000001_Node000033"><a xlink:title=" ">
<path fill="none" stroke="#63b8ff" d="M1333.21,-571.17C1398.55,-561.5 1488,-535.46 1488,-465.38 1488,-465.38 1488,-465.38 1488,-349.88 1488,-312.45 1515.88,-276.57 1535.4,-256.04"/>
<polygon fill="#63b8ff" stroke="#63b8ff" points="1537.77,-258.62 1542.33,-249.05 1532.8,-253.69 1537.77,-258.62"/>
</a>
</g>
</g>
<!-- Node34 -->
<g id="Node000034" class="node">
<title>Node34</title>
<g id="a_Node000034"><a xlink:href="drivers_2include_2net_2netdev_8h.html" target="_top" xlink:title="Definitions low&#45;level network driver interface.">
<polygon fill="white" stroke="#666666" points="1234.38,-247.75 1157.62,-247.75 1157.62,-227 1234.38,-227 1234.38,-247.75"/>
<text text-anchor="middle" x="1196" y="-234.25" font-family="Helvetica,sans-Serif" font-size="10.00">net/netdev.h</text>
</a>
</g>
</g>
<!-- Node1&#45;&gt;Node34 -->
<g id="edge63_Node000001_Node000034" class="edge">
<title>Node1&#45;&gt;Node34</title>
<g id="a_edge63_Node000001_Node000034"><a xlink:title=" ">
<path fill="none" stroke="#63b8ff" d="M1260.53,-567.07C1250.46,-548.07 1230,-504.63 1230,-465.38 1230,-465.38 1230,-465.38 1230,-349.88 1230,-316.77 1216.11,-280.44 1206.09,-258.53"/>
<polygon fill="#63b8ff" stroke="#63b8ff" points="1209.28,-257.09 1201.82,-249.58 1202.97,-260.11 1209.28,-257.09"/>
</a>
</g>
</g>
<!-- Node37 -->
<g id="Node000037" class="node">
<title>Node37</title>
<g id="a_Node000037"><a xlink:href="loramac_8h.html" target="_top" xlink:title="LoRaMAC header definitions.">
<polygon fill="white" stroke="#666666" points="1057.75,-191 974.25,-191 974.25,-170.25 1057.75,-170.25 1057.75,-191"/>
<text text-anchor="middle" x="1016" y="-177.5" font-family="Helvetica,sans-Serif" font-size="10.00">net/loramac.h</text>
</a>
</g>
</g>
<!-- Node1&#45;&gt;Node37 -->
<g id="edge71_Node000001_Node000037" class="edge">
<title>Node1&#45;&gt;Node37</title>
<g id="a_edge71_Node000001_Node000037"><a xlink:title=" ">
<path fill="none" stroke="#63b8ff" d="M1208.79,-567.05C1154.78,-554.11 1082,-525.51 1082,-465.38 1082,-465.38 1082,-465.38 1082,-293.12 1082,-255.7 1054.12,-219.82 1034.6,-199.29"/>
<polygon fill="#63b8ff" stroke="#63b8ff" points="1037.2,-196.94 1027.67,-192.3 1032.23,-201.87 1037.2,-196.94"/>
</a>
</g>
</g>
<!-- Node3&#45;&gt;Node2 -->
<g id="edge3_Node000003_Node000002" class="edge">
<title>Node3&#45;&gt;Node2</title>
<g id="a_edge3_Node000003_Node000002"><a xlink:title=" ">
<path fill="none" stroke="#63b8ff" d="M576.62,-518.31C667.88,-511.73 946,-485.41 946,-408.62 946,-408.62 946,-408.62 946,-122.88 946,-87.22 923.36,-51 907.4,-29.89"/>
<polygon fill="#63b8ff" stroke="#63b8ff" points="910.32,-27.93 901.37,-22.24 904.82,-32.26 910.32,-27.93"/>
</a>
</g>
</g>
<!-- Node4 -->
<g id="Node000004" class="node">
<title>Node4</title>
<g id="a_Node000004"><a xlink:href="sched_8h.html" target="_top" xlink:title="Scheduler API definition.">
<polygon fill="white" stroke="#666666" points="352.75,-247.75 299.25,-247.75 299.25,-227 352.75,-227 352.75,-247.75"/>
<text text-anchor="middle" x="326" y="-234.25" font-family="Helvetica,sans-Serif" font-size="10.00">sched.h</text>
</a>
</g>
</g>
<!-- Node3&#45;&gt;Node4 -->
<g id="edge4_Node000003_Node000004" class="edge">
<title>Node3&#45;&gt;Node4</title>
<g id="a_edge4_Node000003_Node000004"><a xlink:title=" ">
<path fill="none" stroke="#63b8ff" d="M519.27,-517.71C432.34,-509.61 178,-479.82 178,-408.62 178,-408.62 178,-408.62 178,-349.88 178,-294.83 244.12,-263.56 287.97,-248.87"/>
<polygon fill="#63b8ff" stroke="#63b8ff" points="288.94,-252.23 297.41,-245.86 286.82,-245.56 288.94,-252.23"/>
</a>
</g>
</g>
<!-- Node17 -->
<g id="Node000017" class="node">
<title>Node17</title>
<g id="a_Node000017"><a xlink:title=" ">
<polygon fill="#e0e0e0" stroke="#999999" points="596,-474.75 550,-474.75 550,-454 596,-454 596,-474.75"/>
<text text-anchor="middle" x="573" y="-461.25" font-family="Helvetica,sans-Serif" font-size="10.00">msg.h</text>
</a>
</g>
</g>
<!-- Node3&#45;&gt;Node17 -->
<g id="edge23_Node000003_Node000017" class="edge">
<title>Node3&#45;&gt;Node17</title>
<g id="a_edge23_Node000003_Node000017"><a xlink:title=" ">
<path fill="none" stroke="#63b8ff" d="M552.47,-510.34C555.63,-503.41 559.99,-493.87 563.87,-485.36"/>
<polygon fill="#63b8ff" stroke="#63b8ff" points="566.97,-487.01 567.94,-476.46 560.6,-484.1 566.97,-487.01"/>
</a>
</g>
</g>
<!-- Node18 -->
<g id="Node000018" class="node">
<title>Node18</title>
<g id="a_Node000018"><a xlink:href="mutex_8h.html" target="_top" xlink:title="Mutex for thread synchronization.">
<polygon fill="white" stroke="#666666" points="550.25,-418 493.75,-418 493.75,-397.25 550.25,-397.25 550.25,-418"/>
<text text-anchor="middle" x="522" y="-404.5" font-family="Helvetica,sans-Serif" font-size="10.00">mutex.h</text>
</a>
</g>
</g>
<!-- Node3&#45;&gt;Node18 -->
<g id="edge24_Node000003_Node000018" class="edge">
<title>Node3&#45;&gt;Node18</title>
<g id="a_edge24_Node000003_Node000018"><a xlink:title=" ">
<path fill="none" stroke="#63b8ff" d="M545.78,-510.62C541.62,-492.77 532.55,-453.86 526.89,-429.59"/>
<polygon fill="#63b8ff" stroke="#63b8ff" points="530.31,-428.84 524.63,-419.9 523.49,-430.43 530.31,-428.84"/>
</a>
</g>
</g>
<!-- Node28 -->
<g id="Node000028" class="node">
<title>Node28</title>
<g id="a_Node000028"><a xlink:href="rmutex_8h.html" target="_top" xlink:title="Recursive Mutex for thread synchronization.">
<polygon fill="white" stroke="#666666" points="418.12,-474.75 357.88,-474.75 357.88,-454 418.12,-454 418.12,-474.75"/>
<text text-anchor="middle" x="388" y="-461.25" font-family="Helvetica,sans-Serif" font-size="10.00">rmutex.h</text>
</a>
</g>
</g>
<!-- Node3&#45;&gt;Node28 -->
<g id="edge48_Node000003_Node000028" class="edge">
<title>Node3&#45;&gt;Node28</title>
<g id="a_edge48_Node000003_Node000028"><a xlink:title=" ">
<path fill="none" stroke="#63b8ff" d="M519.4,-510.34C493.76,-501.57 455.93,-488.62 427.43,-478.87"/>
<polygon fill="#63b8ff" stroke="#63b8ff" points="428.65,-475.59 418.06,-475.66 426.39,-482.21 428.65,-475.59"/>
</a>
</g>
</g>
<!-- Node5 -->
<g id="Node000005" class="node">
<title>Node5</title>
<g id="a_Node000005"><a xlink:title=" ">
<polygon fill="#e0e0e0" stroke="#999999" points="532.5,-77.5 477.5,-77.5 477.5,-56.75 532.5,-56.75 532.5,-77.5"/>
<text text-anchor="middle" x="505" y="-64" font-family="Helvetica,sans-Serif" font-size="10.00">stddef.h</text>
</a>
</g>
</g>
<!-- Node4&#45;&gt;Node5 -->
<g id="edge5_Node000004_Node000005" class="edge">
<title>Node4&#45;&gt;Node5</title>
<g id="a_edge5_Node000004_Node000005"><a xlink:title=" ">
<path fill="none" stroke="#63b8ff" d="M320.56,-226.82C308.56,-204.36 282.98,-147.53 310,-113.5 329.1,-89.45 414.77,-76.98 465.98,-71.56"/>
<polygon fill="#63b8ff" stroke="#63b8ff" points="466.17,-75.06 475.77,-70.58 465.47,-68.1 466.17,-75.06"/>
</a>
</g>
</g>
<!-- Node6 -->
<g id="Node000006" class="node">
<title>Node6</title>
<g id="a_Node000006"><a xlink:href="inttypes_8h.html" target="_top" xlink:title="Adds include for missing inttype definitions.">
<polygon fill="white" stroke="#666666" points="508.38,-191 443.62,-191 443.62,-170.25 508.38,-170.25 508.38,-191"/>
<text text-anchor="middle" x="476" y="-177.5" font-family="Helvetica,sans-Serif" font-size="10.00">inttypes.h</text>
</a>
</g>
</g>
<!-- Node4&#45;&gt;Node6 -->
<g id="edge6_Node000004_Node000006" class="edge">
<title>Node4&#45;&gt;Node6</title>
<g id="a_edge6_Node000004_Node000006"><a xlink:title=" ">
<path fill="none" stroke="#63b8ff" d="M352.82,-226.59C376.74,-217.86 412,-204.98 438.68,-195.25"/>
<polygon fill="#63b8ff" stroke="#63b8ff" points="439.55,-198.66 447.74,-191.94 437.15,-192.08 439.55,-198.66"/>
</a>
</g>
</g>
<!-- Node7 -->
<g id="Node000007" class="node">
<title>Node7</title>
<g id="a_Node000007"><a xlink:href="kernel__defines_8h.html" target="_top" xlink:title="Common macros and compiler attributes/pragmas configuration.">
<polygon fill="white" stroke="#666666" points="752.12,-191 655.88,-191 655.88,-170.25 752.12,-170.25 752.12,-191"/>
<text text-anchor="middle" x="704" y="-177.5" font-family="Helvetica,sans-Serif" font-size="10.00">kernel_defines.h</text>
</a>
</g>
</g>
<!-- Node4&#45;&gt;Node7 -->
<g id="edge7_Node000004_Node000007" class="edge">
<title>Node4&#45;&gt;Node7</title>
<g id="a_edge7_Node000004_Node000007"><a xlink:title=" ">
<path fill="none" stroke="#63b8ff" d="M353.01,-231.99C363.05,-230.38 374.54,-228.58 385,-227 475.41,-213.39 580.4,-198.66 644.5,-189.79"/>
<polygon fill="#63b8ff" stroke="#63b8ff" points="644.67,-193.3 654.1,-188.47 643.71,-186.37 644.67,-193.3"/>
</a>
</g>
</g>
<!-- Node13 -->
<g id="Node000013" class="node">
<title>Node13</title>
<g id="a_Node000013"><a xlink:href="native__sched_8h.html" target="_top" xlink:title="Add definitions required on the native board.">
<polygon fill="white" stroke="#666666" points="275.75,-191 186.25,-191 186.25,-170.25 275.75,-170.25 275.75,-191"/>
<text text-anchor="middle" x="231" y="-177.5" font-family="Helvetica,sans-Serif" font-size="10.00">native_sched.h</text>
</a>
</g>
</g>
<!-- Node4&#45;&gt;Node13 -->
<g id="edge18_Node000004_Node000013" class="edge">
<title>Node4&#45;&gt;Node13</title>
<g id="a_edge18_Node000004_Node000013"><a xlink:title=" ">
<path fill="none" stroke="#63b8ff" d="M309.02,-226.59C294.7,-218.33 273.96,-206.38 257.46,-196.88"/>
<polygon fill="#63b8ff" stroke="#63b8ff" points="259.56,-194.05 249.15,-192.08 256.06,-200.11 259.56,-194.05"/>
</a>
</g>
</g>
<!-- Node14 -->
<g id="Node000014" class="node">
<title>Node14</title>
<g id="a_Node000014"><a xlink:href="clist_8h.html" target="_top" xlink:title="Circular linked list.">
<polygon fill="white" stroke="#666666" points="409.62,-191 364.38,-191 364.38,-170.25 409.62,-170.25 409.62,-191"/>
<text text-anchor="middle" x="387" y="-177.5" font-family="Helvetica,sans-Serif" font-size="10.00">clist.h</text>
</a>
</g>
</g>
<!-- Node4&#45;&gt;Node14 -->
<g id="edge19_Node000004_Node000014" class="edge">
<title>Node4&#45;&gt;Node14</title>
<g id="a_edge19_Node000004_Node000014"><a xlink:title=" ">
<path fill="none" stroke="#63b8ff" d="M336.91,-226.59C345.49,-218.88 357.67,-207.95 367.88,-198.79"/>
<polygon fill="#63b8ff" stroke="#63b8ff" points="369.96,-201.62 375.06,-192.34 365.28,-196.41 369.96,-201.62"/>
</a>
</g>
</g>
<!-- Node8 -->
<g id="Node000008" class="node">
<title>Node8</title>
<g id="a_Node000008"><a xlink:href="modules_8h.html" target="_top" xlink:title="Common macros and compiler attributes/pragmas configuration.">
<polygon fill="white" stroke="#666666" points="879.5,-134.25 812.5,-134.25 812.5,-113.5 879.5,-113.5 879.5,-134.25"/>
<text text-anchor="middle" x="846" y="-120.75" font-family="Helvetica,sans-Serif" font-size="10.00">modules.h</text>
</a>
</g>
</g>
<!-- Node7&#45;&gt;Node8 -->
<g id="edge8_Node000007_Node000008" class="edge">
<title>Node7&#45;&gt;Node8</title>
<g id="a_edge8_Node000007_Node000008"><a xlink:title=" ">
<path fill="none" stroke="#63b8ff" d="M729.39,-169.84C751.9,-161.16 785.03,-148.38 810.23,-138.67"/>
<polygon fill="#63b8ff" stroke="#63b8ff" points="811.35,-141.99 819.42,-135.12 808.83,-135.45 811.35,-141.99"/>
</a>
</g>
</g>
<!-- Node9 -->
<g id="Node000009" class="node">
<title>Node9</title>
<g id="a_Node000009"><a xlink:href="riot__version_8h.html" target="_top" xlink:title="Common macros and compiler attributes/pragmas configuration.">
<polygon fill="white" stroke="#666666" points="710.38,-77.5 627.62,-77.5 627.62,-56.75 710.38,-56.75 710.38,-77.5"/>
<text text-anchor="middle" x="669" y="-64" font-family="Helvetica,sans-Serif" font-size="10.00">riot_version.h</text>
</a>
</g>
</g>
<!-- Node7&#45;&gt;Node9 -->
<g id="edge9_Node000007_Node000009" class="edge">
<title>Node7&#45;&gt;Node9</title>
<g id="a_edge9_Node000007_Node000009"><a xlink:title=" ">
<path fill="none" stroke="#63b8ff" d="M700.71,-169.91C697.62,-160.74 692.91,-146.59 689,-134.25 684.12,-118.84 678.84,-101.33 674.93,-88.21"/>
<polygon fill="#63b8ff" stroke="#63b8ff" points="678.4,-87.61 672.2,-79.02 671.69,-89.6 678.4,-87.61"/>
</a>
</g>
</g>
<!-- Node10 -->
<g id="Node000010" class="node">
<title>Node10</title>
<g id="a_Node000010"><a xlink:href="compiler__hints_8h.html" target="_top" xlink:title="Common macros and compiler attributes/pragmas configuration.">
<polygon fill="white" stroke="#666666" points="794.5,-134.25 697.5,-134.25 697.5,-113.5 794.5,-113.5 794.5,-134.25"/>
<text text-anchor="middle" x="746" y="-120.75" font-family="Helvetica,sans-Serif" font-size="10.00">compiler_hints.h</text>
</a>
</g>
</g>
<!-- Node7&#45;&gt;Node10 -->
<g id="edge11_Node000007_Node000010" class="edge">
<title>Node7&#45;&gt;Node10</title>
<g id="a_edge11_Node000007_Node000010"><a xlink:title=" ">
<path fill="none" stroke="#63b8ff" d="M711.51,-169.84C717.12,-162.52 724.97,-152.29 731.76,-143.44"/>
<polygon fill="#63b8ff" stroke="#63b8ff" points="734.33,-145.84 737.64,-135.78 728.77,-141.58 734.33,-145.84"/>
</a>
</g>
</g>
<!-- Node12 -->
<g id="Node000012" class="node">
<title>Node12</title>
<g id="a_Node000012"><a xlink:href="container_8h.html" target="_top" xlink:title="Common macros and compiler attributes/pragmas configuration.">
<polygon fill="white" stroke="#666666" points="603.38,-134.25 532.62,-134.25 532.62,-113.5 603.38,-113.5 603.38,-134.25"/>
<text text-anchor="middle" x="568" y="-120.75" font-family="Helvetica,sans-Serif" font-size="10.00">container.h</text>
</a>
</g>
</g>
<!-- Node7&#45;&gt;Node12 -->
<g id="edge15_Node000007_Node000012" class="edge">
<title>Node7&#45;&gt;Node12</title>
<g id="a_edge15_Node000007_Node000012"><a xlink:title=" ">
<path fill="none" stroke="#63b8ff" d="M679.69,-169.84C658.22,-161.19 626.68,-148.5 602.59,-138.8"/>
<polygon fill="#63b8ff" stroke="#63b8ff" points="604.09,-135.63 593.51,-135.14 601.48,-142.13 604.09,-135.63"/>
</a>
</g>
</g>
<!-- Node9&#45;&gt;Node2 -->
<g id="edge10_Node000009_Node000002" class="edge">
<title>Node9&#45;&gt;Node2</title>
<g id="a_edge10_Node000009_Node000002"><a xlink:title=" ">
<path fill="none" stroke="#63b8ff" d="M709.13,-56.27C750.3,-46.16 813.88,-30.56 854.19,-20.66"/>
<polygon fill="#63b8ff" stroke="#63b8ff" points="854.81,-24.11 863.68,-18.33 853.14,-17.31 854.81,-24.11"/>
</a>
</g>
</g>
<!-- Node10&#45;&gt;Node2 -->
<g id="edge14_Node000010_Node000002" class="edge">
<title>Node10&#45;&gt;Node2</title>
<g id="a_edge14_Node000010_Node000002"><a xlink:title=" ">
<path fill="none" stroke="#63b8ff" d="M752.41,-113.31C762.08,-99.44 781.54,-73.59 803,-56.75 819.16,-44.07 839.41,-33.41 856.51,-25.62"/>
<polygon fill="#63b8ff" stroke="#63b8ff" points="857.56,-28.98 865.3,-21.75 854.74,-22.57 857.56,-28.98"/>
</a>
</g>
</g>
<!-- Node11 -->
<g id="Node000011" class="node">
<title>Node11</title>
<g id="a_Node000011"><a xlink:href="assert_8h.html" target="_top" xlink:title="POSIX.1&#45;2008 compliant version of the assert macro.">
<polygon fill="white" stroke="#666666" points="866.5,-77.5 811.5,-77.5 811.5,-56.75 866.5,-56.75 866.5,-77.5"/>
<text text-anchor="middle" x="839" y="-64" font-family="Helvetica,sans-Serif" font-size="10.00">assert.h</text>
</a>
</g>
</g>
<!-- Node10&#45;&gt;Node11 -->
<g id="edge12_Node000010_Node000011" class="edge">
<title>Node10&#45;&gt;Node11</title>
<g id="a_edge12_Node000010_Node000011"><a xlink:title=" ">
<path fill="none" stroke="#63b8ff" d="M762.63,-113.09C776.51,-104.91 796.56,-93.11 812.63,-83.65"/>
<polygon fill="#63b8ff" stroke="#63b8ff" points="814.37,-86.69 821.21,-78.6 810.82,-80.65 814.37,-86.69"/>
</a>
</g>
</g>
<!-- Node11&#45;&gt;Node2 -->
<g id="edge13_Node000011_Node000002" class="edge">
<title>Node11&#45;&gt;Node2</title>
<g id="a_edge13_Node000011_Node000002"><a xlink:title=" ">
<path fill="none" stroke="#63b8ff" d="M848.48,-56.34C855.79,-48.78 866.09,-38.14 874.84,-29.1"/>
<polygon fill="#63b8ff" stroke="#63b8ff" points="877.11,-31.79 881.55,-22.17 872.08,-26.92 877.11,-31.79"/>
</a>
</g>
</g>
<!-- Node12&#45;&gt;Node2 -->
<g id="edge17_Node000012_Node000002" class="edge">
<title>Node12&#45;&gt;Node2</title>
<g id="a_edge17_Node000012_Node000002"><a xlink:title=" ">
<path fill="none" stroke="#63b8ff" d="M572.4,-113.38C579.78,-98.62 596.11,-70.45 619,-56.75 658.01,-33.41 788.5,-19.78 853.93,-14.26"/>
<polygon fill="#63b8ff" stroke="#63b8ff" points="854.16,-17.75 863.84,-13.45 853.59,-10.78 854.16,-17.75"/>
</a>
</g>
</g>
<!-- Node12&#45;&gt;Node5 -->
<g id="edge16_Node000012_Node000005" class="edge">
<title>Node12&#45;&gt;Node5</title>
<g id="a_edge16_Node000012_Node000005"><a xlink:title=" ">
<path fill="none" stroke="#63b8ff" d="M556.74,-113.09C547.87,-105.38 535.29,-94.45 524.75,-85.29"/>
<polygon fill="#63b8ff" stroke="#63b8ff" points="527.15,-82.74 517.31,-78.82 522.56,-88.02 527.15,-82.74"/>
</a>
</g>
</g>
<!-- Node14&#45;&gt;Node5 -->
<g id="edge21_Node000014_Node000005" class="edge">
<title>Node14&#45;&gt;Node5</title>
<g id="a_edge21_Node000014_Node000005"><a xlink:title=" ">
<path fill="none" stroke="#63b8ff" d="M387.32,-169.91C388.28,-155.87 391.98,-129.8 406,-113.5 421.5,-95.48 445.65,-84.22 466.22,-77.42"/>
<polygon fill="#63b8ff" stroke="#63b8ff" points="467.2,-80.78 475.75,-74.53 465.17,-74.08 467.2,-80.78"/>
</a>
</g>
</g>
<!-- Node15 -->
<g id="Node000015" class="node">
<title>Node15</title>
<g id="a_Node000015"><a xlink:title=" ">
<polygon fill="#e0e0e0" stroke="#999999" points="476.5,-134.25 415.5,-134.25 415.5,-113.5 476.5,-113.5 476.5,-134.25"/>
<text text-anchor="middle" x="446" y="-120.75" font-family="Helvetica,sans-Serif" font-size="10.00">stdbool.h</text>
</a>
</g>
</g>
<!-- Node14&#45;&gt;Node15 -->
<g id="edge20_Node000014_Node000015" class="edge">
<title>Node14&#45;&gt;Node15</title>
<g id="a_edge20_Node000014_Node000015"><a xlink:title=" ">
<path fill="none" stroke="#63b8ff" d="M397.55,-169.84C405.77,-162.21 417.4,-151.42 427.2,-142.32"/>
<polygon fill="#63b8ff" stroke="#63b8ff" points="429.48,-144.98 434.43,-135.61 424.72,-139.84 429.48,-144.98"/>
</a>
</g>
</g>
<!-- Node16 -->
<g id="Node000016" class="node">
<title>Node16</title>
<g id="a_Node000016"><a xlink:href="list_8h.html" target="_top" xlink:title="Intrusive linked list.">
<polygon fill="white" stroke="#666666" points="359,-134.25 319,-134.25 319,-113.5 359,-113.5 359,-134.25"/>
<text text-anchor="middle" x="339" y="-120.75" font-family="Helvetica,sans-Serif" font-size="10.00">list.h</text>
</a>
</g>
</g>
<!-- Node14&#45;&gt;Node16 -->
<g id="edge22_Node000014_Node000016" class="edge">
<title>Node14&#45;&gt;Node16</title>
<g id="a_edge22_Node000014_Node000016"><a xlink:title=" ">
<path fill="none" stroke="#63b8ff" d="M378.42,-169.84C371.93,-162.44 362.85,-152.07 355.03,-143.16"/>
<polygon fill="#63b8ff" stroke="#63b8ff" points="357.73,-140.93 348.5,-135.72 352.47,-145.54 357.73,-140.93"/>
</a>
</g>
</g>
<!-- Node18&#45;&gt;Node2 -->
<g id="edge26_Node000018_Node000002" class="edge">
<title>Node18&#45;&gt;Node2</title>
<g id="a_edge26_Node000018_Node000002"><a xlink:title=" ">
<path fill="none" stroke="#63b8ff" d="M493.53,-406.2C389.78,-403.92 38,-389.22 38,-295.12 38,-295.12 38,-295.12 38,-122.88 38,-40.15 131.17,-74.39 212,-56.75 336.02,-29.68 729.88,-16.11 854.09,-12.43"/>
<polygon fill="#63b8ff" stroke="#63b8ff" points="853.85,-15.94 863.74,-12.15 853.64,-8.94 853.85,-15.94"/>
</a>
</g>
</g>
<!-- Node18&#45;&gt;Node5 -->
<g id="edge25_Node000018_Node000005" class="edge">
<title>Node18&#45;&gt;Node5</title>
<g id="a_edge25_Node000018_Node000005"><a xlink:title=" ">
<path fill="none" stroke="#63b8ff" d="M540.12,-396.88C553.13,-388.96 570.07,-376.6 580,-361.25 599.02,-331.87 599.35,-318.34 594,-283.75 582.78,-211.25 552.26,-201.96 524,-134.25 517.8,-119.4 512.86,-101.86 509.58,-88.58"/>
<polygon fill="#63b8ff" stroke="#63b8ff" points="513.08,-88.18 507.38,-79.25 506.27,-89.79 513.08,-88.18"/>
</a>
</g>
</g>
<!-- Node18&#45;&gt;Node7 -->
<g id="edge33_Node000018_Node000007" class="edge">
<title>Node18&#45;&gt;Node7</title>
<g id="a_edge33_Node000018_Node000007"><a xlink:title=" ">
<path fill="none" stroke="#63b8ff" d="M550.71,-403.91C579.67,-399.66 623.74,-388.82 650,-361.25 692.59,-316.53 701.71,-239.5 703.58,-202.56"/>
<polygon fill="#63b8ff" stroke="#63b8ff" points="707.07,-202.92 703.93,-192.8 700.08,-202.67 707.07,-202.92"/>
</a>
</g>
</g>
<!-- Node18&#45;&gt;Node15 -->
<g id="edge27_Node000018_Node000015" class="edge">
<title>Node18&#45;&gt;Node15</title>
<g id="a_edge27_Node000018_Node000015"><a xlink:title=" ">
<path fill="none" stroke="#63b8ff" d="M531.8,-396.9C550.93,-376.71 590.4,-328.41 579,-283.75 564.78,-228.06 556.22,-212.27 517,-170.25 505.62,-158.06 490.31,-147.74 476.81,-140.03"/>
<polygon fill="#63b8ff" stroke="#63b8ff" points="478.73,-137.09 468.27,-135.38 475.38,-143.23 478.73,-137.09"/>
</a>
</g>
</g>
<!-- Node18&#45;&gt;Node16 -->
<g id="edge34_Node000018_Node000016" class="edge">
<title>Node18&#45;&gt;Node16</title>
<g id="a_edge34_Node000018_Node000016"><a xlink:title=" ">
<path fill="none" stroke="#63b8ff" d="M493.55,-404.29C406.26,-396.47 145.17,-368.08 95,-304.5 61.29,-261.78 29.1,-268.39 154,-170.25 198.89,-134.98 267.37,-126.64 307.21,-124.96"/>
<polygon fill="#63b8ff" stroke="#63b8ff" points="307.19,-128.46 317.08,-124.67 306.98,-121.46 307.19,-128.46"/>
</a>
</g>
</g>
<!-- Node19 -->
<g id="Node000019" class="node">
<title>Node19</title>
<g id="a_Node000019"><a xlink:href="architecture_8h.html" target="_top" xlink:title="Platform&#45;independent access to architecture details.">
<polygon fill="white" stroke="#666666" points="866.75,-247.75 783.25,-247.75 783.25,-227 866.75,-227 866.75,-247.75"/>
<text text-anchor="middle" x="825" y="-234.25" font-family="Helvetica,sans-Serif" font-size="10.00">architecture.h</text>
</a>
</g>
</g>
<!-- Node18&#45;&gt;Node19 -->
<g id="edge28_Node000018_Node000019" class="edge">
<title>Node18&#45;&gt;Node19</title>
<g id="a_edge28_Node000018_Node000019"><a xlink:title=" ">
<path fill="none" stroke="#63b8ff" d="M550.62,-403.72C586.71,-399.07 649.73,-387.65 697,-361.25 745.62,-334.09 789.41,-284.01 810.94,-256.93"/>
<polygon fill="#63b8ff" stroke="#63b8ff" points="813.52,-259.31 816.9,-249.27 808,-255.01 813.52,-259.31"/>
</a>
</g>
</g>
<!-- Node22 -->
<g id="Node000022" class="node">
<title>Node22</title>
<g id="a_Node000022"><a xlink:href="core_2include_2thread_8h.html" target="_top" xlink:title="Threading API.">
<polygon fill="white" stroke="#666666" points="456.25,-361.25 399.75,-361.25 399.75,-340.5 456.25,-340.5 456.25,-361.25"/>
<text text-anchor="middle" x="428" y="-347.75" font-family="Helvetica,sans-Serif" font-size="10.00">thread.h</text>
</a>
</g>
</g>
<!-- Node18&#45;&gt;Node22 -->
<g id="edge35_Node000018_Node000022" class="edge">
<title>Node18&#45;&gt;Node22</title>
<g id="a_edge35_Node000018_Node000022"><a xlink:title=" ">
<path fill="none" stroke="#63b8ff" d="M505.19,-396.84C491.03,-388.58 470.51,-376.63 454.19,-367.13"/>
<polygon fill="#63b8ff" stroke="#63b8ff" points="456.37,-364.35 445.97,-362.34 452.85,-370.4 456.37,-364.35"/>
</a>
</g>
</g>
<!-- Node19&#45;&gt;Node2 -->
<g id="edge29_Node000019_Node000002" class="edge">
<title>Node19&#45;&gt;Node2</title>
<g id="a_edge29_Node000019_Node000002"><a xlink:title=" ">
<path fill="none" stroke="#63b8ff" d="M848.31,-226.61C862.84,-219.17 880.36,-207.38 889,-191 916.22,-139.4 905.27,-67.32 897.39,-32.23"/>
<polygon fill="#63b8ff" stroke="#63b8ff" points="900.8,-31.45 895.06,-22.55 894,-33.09 900.8,-31.45"/>
</a>
</g>
</g>
<!-- Node19&#45;&gt;Node6 -->
<g id="edge30_Node000019_Node000006" class="edge">
<title>Node19&#45;&gt;Node6</title>
<g id="a_edge30_Node000019_Node000006"><a xlink:title=" ">
<path fill="none" stroke="#63b8ff" d="M782.9,-229.77C716.24,-219.31 587.02,-199.04 519.49,-188.45"/>
<polygon fill="#63b8ff" stroke="#63b8ff" points="520.33,-185.04 509.91,-186.94 519.25,-191.95 520.33,-185.04"/>
</a>
</g>
</g>
<!-- Node20 -->
<g id="Node000020" class="node">
<title>Node20</title>
<g id="a_Node000020"><a xlink:title=" ">
<polygon fill="#e0e0e0" stroke="#999999" points="1471.38,-191 1418.62,-191 1418.62,-170.25 1471.38,-170.25 1471.38,-191"/>
<text text-anchor="middle" x="1445" y="-177.5" font-family="Helvetica,sans-Serif" font-size="10.00">limits.h</text>
</a>
</g>
</g>
<!-- Node19&#45;&gt;Node20 -->
<g id="edge31_Node000019_Node000020" class="edge">
<title>Node19&#45;&gt;Node20</title>
<g id="a_edge31_Node000019_Node000020"><a xlink:title=" ">
<path fill="none" stroke="#63b8ff" d="M866.92,-233.54C958.63,-227.21 1183.89,-210.87 1372,-191 1383.41,-189.79 1395.8,-188.28 1407.08,-186.82"/>
<polygon fill="#63b8ff" stroke="#63b8ff" points="1407.38,-190.31 1416.84,-185.54 1406.46,-183.37 1407.38,-190.31"/>
</a>
</g>
</g>
<!-- Node21 -->
<g id="Node000021" class="node">
<title>Node21</title>
<g id="a_Node000021"><a xlink:title=" ">
<polygon fill="#e0e0e0" stroke="#999999" points="879.88,-191 770.12,-191 770.12,-170.25 879.88,-170.25 879.88,-191"/>
<text text-anchor="middle" x="825" y="-177.5" font-family="Helvetica,sans-Serif" font-size="10.00">architecture_arch.h</text>
</a>
</g>
</g>
<!-- Node19&#45;&gt;Node21 -->
<g id="edge32_Node000019_Node000021" class="edge">
<title>Node19&#45;&gt;Node21</title>
<g id="a_edge32_Node000019_Node000021"><a xlink:title=" ">
<path fill="none" stroke="#63b8ff" d="M825,-226.59C825,-219.97 825,-210.97 825,-202.77"/>
<polygon fill="#63b8ff" stroke="#63b8ff" points="828.5,-202.84 825,-192.84 821.5,-202.84 828.5,-202.84"/>
</a>
</g>
</g>
<!-- Node22&#45;&gt;Node4 -->
<g id="edge43_Node000022_Node000004" class="edge">
<title>Node22&#45;&gt;Node4</title>
<g id="a_edge43_Node000022_Node000004"><a xlink:title=" ">
<path fill="none" stroke="#63b8ff" d="M414.49,-340.31C402.8,-331.69 385.82,-318.27 373,-304.5 359.39,-289.87 346.43,-271.16 337.58,-257.37"/>
<polygon fill="#63b8ff" stroke="#63b8ff" points="340.75,-255.84 332.48,-249.22 334.82,-259.55 340.75,-255.84"/>
</a>
</g>
</g>
<!-- Node22&#45;&gt;Node14 -->
<g id="edge36_Node000022_Node000014" class="edge">
<title>Node22&#45;&gt;Node14</title>
<g id="a_edge36_Node000022_Node000014"><a xlink:title=" ">
<path fill="none" stroke="#63b8ff" d="M447.09,-340.02C459.85,-332.28 475.61,-320.18 483,-304.5 492.17,-285.05 478.73,-237.34 471,-227 458.51,-210.29 437.99,-199.04 420.36,-191.93"/>
<polygon fill="#63b8ff" stroke="#63b8ff" points="421.87,-188.75 411.28,-188.54 419.43,-195.31 421.87,-188.75"/>
</a>
</g>
</g>
<!-- Node23 -->
<g id="Node000023" class="node">
<title>Node23</title>
<g id="a_Node000023"><a xlink:href="cib_8h.html" target="_top" xlink:title="Circular integer buffer interface.">
<polygon fill="white" stroke="#666666" points="569.62,-304.5 530.38,-304.5 530.38,-283.75 569.62,-283.75 569.62,-304.5"/>
<text text-anchor="middle" x="550" y="-291" font-family="Helvetica,sans-Serif" font-size="10.00">cib.h</text>
</a>
</g>
</g>
<!-- Node22&#45;&gt;Node23 -->
<g id="edge37_Node000022_Node000023" class="edge">
<title>Node22&#45;&gt;Node23</title>
<g id="a_edge37_Node000022_Node000023"><a xlink:title=" ">
<path fill="none" stroke="#63b8ff" d="M449.81,-340.09C469.28,-331.35 497.98,-318.47 519.67,-308.73"/>
<polygon fill="#63b8ff" stroke="#63b8ff" points="520.92,-312.01 528.61,-304.72 518.06,-305.62 520.92,-312.01"/>
</a>
</g>
</g>
<!-- Node24 -->
<g id="Node000024" class="node">
<title>Node24</title>
<g id="a_Node000024"><a xlink:href="core_2include_2msg_8h.html" target="_top" xlink:title="Messaging API for inter process communication.">
<polygon fill="white" stroke="#666666" points="150,-304.5 104,-304.5 104,-283.75 150,-283.75 150,-304.5"/>
<text text-anchor="middle" x="127" y="-291" font-family="Helvetica,sans-Serif" font-size="10.00">msg.h</text>
</a>
</g>
</g>
<!-- Node22&#45;&gt;Node24 -->
<g id="edge39_Node000022_Node000024" class="edge">
<title>Node22&#45;&gt;Node24</title>
<g id="a_edge39_Node000022_Node000024"><a xlink:title=" ">
<path fill="none" stroke="#63b8ff" d="M399.41,-344.67C343.83,-334.57 221.41,-312.3 161.46,-301.39"/>
<polygon fill="#63b8ff" stroke="#63b8ff" points="162.29,-297.99 151.82,-299.64 161.04,-304.87 162.29,-297.99"/>
</a>
</g>
</g>
<!-- Node25 -->
<g id="Node000025" class="node">
<title>Node25</title>
<g id="a_Node000025"><a xlink:href="thread__config_8h.html" target="_top" xlink:title="Thread configuration defines.">
<polygon fill="white" stroke="#666666" points="473.88,-304.5 382.12,-304.5 382.12,-283.75 473.88,-283.75 473.88,-304.5"/>
<text text-anchor="middle" x="428" y="-291" font-family="Helvetica,sans-Serif" font-size="10.00">thread_config.h</text>
</a>
</g>
</g>
<!-- Node22&#45;&gt;Node25 -->
<g id="edge44_Node000022_Node000025" class="edge">
<title>Node22&#45;&gt;Node25</title>
<g id="a_edge44_Node000022_Node000025"><a xlink:title=" ">
<path fill="none" stroke="#63b8ff" d="M428,-340.09C428,-333.47 428,-324.47 428,-316.27"/>
<polygon fill="#63b8ff" stroke="#63b8ff" points="431.5,-316.34 428,-306.34 424.5,-316.34 431.5,-316.34"/>
</a>
</g>
</g>
<!-- Node27 -->
<g id="Node000027" class="node">
<title>Node27</title>
<g id="a_Node000027"><a xlink:title=" ">
<polygon fill="#e0e0e0" stroke="#999999" points="326.38,-304.5 243.62,-304.5 243.62,-283.75 326.38,-283.75 326.38,-304.5"/>
<text text-anchor="middle" x="285" y="-291" font-family="Helvetica,sans-Serif" font-size="10.00">thread_arch.h</text>
</a>
</g>
</g>
<!-- Node22&#45;&gt;Node27 -->
<g id="edge47_Node000022_Node000027" class="edge">
<title>Node22&#45;&gt;Node27</title>
<g id="a_edge47_Node000022_Node000027"><a xlink:title=" ">
<path fill="none" stroke="#63b8ff" d="M402.43,-340.09C379.76,-331.41 346.4,-318.63 321.02,-308.92"/>
<polygon fill="#63b8ff" stroke="#63b8ff" points="322.35,-305.68 311.76,-305.37 319.85,-312.21 322.35,-305.68"/>
</a>
</g>
</g>
<!-- Node23&#45;&gt;Node11 -->
<g id="edge38_Node000023_Node000011" class="edge">
<title>Node23&#45;&gt;Node11</title>
<g id="a_edge38_Node000023_Node000011"><a xlink:title=" ">
<path fill="none" stroke="#63b8ff" d="M554.59,-283.66C569.53,-253.85 619.82,-161.13 689,-113.5 722.43,-90.48 767.83,-78.88 799.91,-73.21"/>
<polygon fill="#63b8ff" stroke="#63b8ff" points="800.28,-76.7 809.58,-71.62 799.14,-69.79 800.28,-76.7"/>
</a>
</g>
</g>
<!-- Node24&#45;&gt;Node2 -->
<g id="edge40_Node000024_Node000002" class="edge">
<title>Node24&#45;&gt;Node2</title>
<g id="a_edge40_Node000024_Node000002"><a xlink:title=" ">
<path fill="none" stroke="#63b8ff" d="M125.97,-283.29C124.02,-263.88 120,-219.25 120,-181.62 120,-181.62 120,-181.62 120,-122.88 120,-47.81 699.11,-19.13 854.19,-12.8"/>
<polygon fill="#63b8ff" stroke="#63b8ff" points="854.06,-16.31 863.91,-12.41 853.78,-9.31 854.06,-16.31"/>
</a>
</g>
</g>
<!-- Node24&#45;&gt;Node4 -->
<g id="edge42_Node000024_Node000004" class="edge">
<title>Node24&#45;&gt;Node4</title>
<g id="a_edge42_Node000024_Node000004"><a xlink:title=" ">
<path fill="none" stroke="#63b8ff" d="M150.22,-286.74C183.98,-277.45 247.02,-260.11 287.71,-248.91"/>
<polygon fill="#63b8ff" stroke="#63b8ff" points="288.64,-252.29 297.35,-246.26 286.78,-245.54 288.64,-252.29"/>
</a>
</g>
</g>
<!-- Node24&#45;&gt;Node15 -->
<g id="edge41_Node000024_Node000015" class="edge">
<title>Node24&#45;&gt;Node15</title>
<g id="a_edge41_Node000024_Node000015"><a xlink:title=" ">
<path fill="none" stroke="#63b8ff" d="M127.85,-283.27C130.46,-259.62 140.52,-199.49 177,-170.25 185.8,-163.19 330.54,-141.5 403.97,-130.87"/>
<polygon fill="#63b8ff" stroke="#63b8ff" points="404.22,-134.37 413.62,-129.48 403.22,-127.44 404.22,-134.37"/>
</a>
</g>
</g>
<!-- Node25&#45;&gt;Node4 -->
<g id="edge46_Node000025_Node000004" class="edge">
<title>Node25&#45;&gt;Node4</title>
<g id="a_edge46_Node000025_Node000004"><a xlink:title=" ">
<path fill="none" stroke="#63b8ff" d="M409.76,-283.34C394.32,-275.05 371.91,-263.02 354.16,-253.49"/>
<polygon fill="#63b8ff" stroke="#63b8ff" points="355.88,-250.44 345.41,-248.79 352.57,-256.61 355.88,-250.44"/>
</a>
</g>
</g>
<!-- Node26 -->
<g id="Node000026" class="node">
<title>Node26</title>
<g id="a_Node000026"><a xlink:title=" ">
<polygon fill="#e0e0e0" stroke="#999999" points="461.88,-247.75 394.12,-247.75 394.12,-227 461.88,-227 461.88,-247.75"/>
<text text-anchor="middle" x="428" y="-234.25" font-family="Helvetica,sans-Serif" font-size="10.00">cpu_conf.h</text>
</a>
</g>
</g>
<!-- Node25&#45;&gt;Node26 -->
<g id="edge45_Node000025_Node000026" class="edge">
<title>Node25&#45;&gt;Node26</title>
<g id="a_edge45_Node000025_Node000026"><a xlink:title=" ">
<path fill="none" stroke="#63b8ff" d="M428,-283.34C428,-276.72 428,-267.72 428,-259.52"/>
<polygon fill="#63b8ff" stroke="#63b8ff" points="431.5,-259.59 428,-249.59 424.5,-259.59 431.5,-259.59"/>
</a>
</g>
</g>
<!-- Node28&#45;&gt;Node2 -->
<g id="edge49_Node000028_Node000002" class="edge">
<title>Node28&#45;&gt;Node2</title>
<g id="a_edge49_Node000028_Node000002"><a xlink:title=" ">
<path fill="none" stroke="#63b8ff" d="M357.55,-461.21C266.09,-453.88 0,-426.17 0,-351.88 0,-351.88 0,-351.88 0,-122.88 0,-84.93 20.17,-73.94 54,-56.75 125.92,-20.21 700.64,-12.93 854.32,-11.63"/>
<polygon fill="#63b8ff" stroke="#63b8ff" points="853.97,-15.14 863.95,-11.56 853.92,-8.14 853.97,-15.14"/>
</a>
</g>
</g>
<!-- Node28&#45;&gt;Node4 -->
<g id="edge51_Node000028_Node000004" class="edge">
<title>Node28&#45;&gt;Node4</title>
<g id="a_edge51_Node000028_Node000004"><a xlink:title=" ">
<path fill="none" stroke="#63b8ff" d="M372.86,-453.76C340.14,-431.97 263.5,-375.17 235,-304.5 231.55,-295.95 230.15,-291.59 235,-283.75 246.62,-264.96 268.63,-253.7 288.09,-247.1"/>
<polygon fill="#63b8ff" stroke="#63b8ff" points="288.86,-250.52 297.4,-244.25 286.82,-243.83 288.86,-250.52"/>
</a>
</g>
</g>
<!-- Node28&#45;&gt;Node18 -->
<g id="edge50_Node000028_Node000018" class="edge">
<title>Node28&#45;&gt;Node18</title>
<g id="a_edge50_Node000028_Node000018"><a xlink:title=" ">
<path fill="none" stroke="#63b8ff" d="M411.96,-453.59C433.01,-444.98 463.9,-432.36 487.6,-422.68"/>
<polygon fill="#63b8ff" stroke="#63b8ff" points="488.92,-425.92 496.85,-418.9 486.27,-419.44 488.92,-425.92"/>
</a>
</g>
</g>
<!-- Node29&#45;&gt;Node2 -->
<g id="edge56_Node000029_Node000002" class="edge">
<title>Node29&#45;&gt;Node2</title>
<g id="a_edge56_Node000029_Node000002"><a xlink:title=" ">
<path fill="none" stroke="#63b8ff" d="M1456.36,-226.9C1470.37,-214.01 1491.07,-190.25 1480,-170.25 1434.03,-87.17 1388.66,-88.02 1299,-56.75 1231.29,-33.14 1017.57,-18.56 929.99,-13.44"/>
<polygon fill="#63b8ff" stroke="#63b8ff" points="930.44,-9.96 920.25,-12.89 930.04,-16.95 930.44,-9.96"/>
</a>
</g>
</g>
<!-- Node29&#45;&gt;Node5 -->
<g id="edge55_Node000029_Node000005" class="edge">
<title>Node29&#45;&gt;Node5</title>
<g id="a_edge55_Node000029_Node000005"><a xlink:title=" ">
<path fill="none" stroke="#63b8ff" d="M1437.61,-226.95C1425.56,-212.3 1400.17,-184.27 1372,-170.25 1070.12,-20.01 955.1,-104.65 619,-77.5 594,-75.48 565.92,-73.17 543.88,-71.35"/>
<polygon fill="#63b8ff" stroke="#63b8ff" points="544.4,-67.88 534.15,-70.55 543.83,-74.86 544.4,-67.88"/>
</a>
</g>
</g>
<!-- Node29&#45;&gt;Node20 -->
<g id="edge54_Node000029_Node000020" class="edge">
<title>Node29&#45;&gt;Node20</title>
<g id="a_edge54_Node000029_Node000020"><a xlink:title=" ">
<path fill="none" stroke="#63b8ff" d="M1445,-226.59C1445,-219.97 1445,-210.97 1445,-202.77"/>
<polygon fill="#63b8ff" stroke="#63b8ff" points="1448.5,-202.84 1445,-192.84 1441.5,-202.84 1448.5,-202.84"/>
</a>
</g>
</g>
<!-- Node30 -->
<g id="Node000030" class="node">
<title>Node30</title>
<g id="a_Node000030"><a xlink:href="errno_8h.html" target="_top" xlink:title=" ">
<polygon fill="white" stroke="#666666" points="1363.25,-191 1312.75,-191 1312.75,-170.25 1363.25,-170.25 1363.25,-191"/>
<text text-anchor="middle" x="1338" y="-177.5" font-family="Helvetica,sans-Serif" font-size="10.00">errno.h</text>
</a>
</g>
</g>
<!-- Node29&#45;&gt;Node30 -->
<g id="edge53_Node000029_Node000030" class="edge">
<title>Node29&#45;&gt;Node30</title>
<g id="a_edge53_Node000029_Node000030"><a xlink:title=" ">
<path fill="none" stroke="#63b8ff" d="M1425.87,-226.59C1409.51,-218.22 1385.72,-206.04 1367.02,-196.47"/>
<polygon fill="#63b8ff" stroke="#63b8ff" points="1368.81,-193.46 1358.31,-192.02 1365.62,-199.69 1368.81,-193.46"/>
</a>
</g>
</g>
<!-- Node31 -->
<g id="Node000031" class="node">
<title>Node31</title>
<g id="a_Node000031"><a xlink:title=" ">
<polygon fill="#e0e0e0" stroke="#999999" points="1605.12,-191 1526.88,-191 1526.88,-170.25 1605.12,-170.25 1605.12,-191"/>
<text text-anchor="middle" x="1566" y="-177.5" font-family="Helvetica,sans-Serif" font-size="10.00">periph_cpu.h</text>
</a>
</g>
</g>
<!-- Node29&#45;&gt;Node31 -->
<g id="edge57_Node000029_Node000031" class="edge">
<title>Node29&#45;&gt;Node31</title>
<g id="a_edge57_Node000029_Node000031"><a xlink:title=" ">
<path fill="none" stroke="#63b8ff" d="M1466.63,-226.59C1485.47,-218.06 1513.04,-205.59 1534.36,-195.94"/>
<polygon fill="#63b8ff" stroke="#63b8ff" points="1535.51,-199.26 1543.18,-191.95 1532.62,-192.89 1535.51,-199.26"/>
</a>
</g>
</g>
<!-- Node32 -->
<g id="Node000032" class="node">
<title>Node32</title>
<g id="a_Node000032"><a xlink:title=" ">
<polygon fill="#e0e0e0" stroke="#999999" points="1704.62,-191 1623.38,-191 1623.38,-170.25 1704.62,-170.25 1704.62,-191"/>
<text text-anchor="middle" x="1664" y="-177.5" font-family="Helvetica,sans-Serif" font-size="10.00">periph_conf.h</text>
</a>
</g>
</g>
<!-- Node29&#45;&gt;Node32 -->
<g id="edge58_Node000029_Node000032" class="edge">
<title>Node29&#45;&gt;Node32</title>
<g id="a_edge58_Node000029_Node000032"><a xlink:title=" ">
<path fill="none" stroke="#63b8ff" d="M1484.41,-226.52C1520.57,-217.48 1574.34,-204.04 1613.62,-194.22"/>
<polygon fill="#63b8ff" stroke="#63b8ff" points="1614.22,-197.68 1623.07,-191.86 1612.52,-190.89 1614.22,-197.68"/>
</a>
</g>
</g>
<!-- Node33&#45;&gt;Node20 -->
<g id="edge60_Node000033_Node000020" class="edge">
<title>Node33&#45;&gt;Node20</title>
<g id="a_edge60_Node000033_Node000020"><a xlink:title=" ">
<path fill="none" stroke="#63b8ff" d="M1534.51,-226.59C1517.85,-218.22 1493.62,-206.04 1474.56,-196.47"/>
<polygon fill="#63b8ff" stroke="#63b8ff" points="1476.18,-193.37 1465.67,-192.01 1473.04,-199.62 1476.18,-193.37"/>
</a>
</g>
</g>
<!-- Node33&#45;&gt;Node31 -->
<g id="edge61_Node000033_Node000031" class="edge">
<title>Node33&#45;&gt;Node31</title>
<g id="a_edge61_Node000033_Node000031"><a xlink:title=" ">
<path fill="none" stroke="#63b8ff" d="M1556.15,-226.59C1557.61,-219.89 1559.61,-210.76 1561.43,-202.48"/>
<polygon fill="#63b8ff" stroke="#63b8ff" points="1564.83,-203.32 1563.55,-192.81 1557.99,-201.83 1564.83,-203.32"/>
</a>
</g>
</g>
<!-- Node33&#45;&gt;Node32 -->
<g id="edge62_Node000033_Node000032" class="edge">
<title>Node33&#45;&gt;Node32</title>
<g id="a_edge62_Node000033_Node000032"><a xlink:title=" ">
<path fill="none" stroke="#63b8ff" d="M1573.67,-226.59C1590.56,-218.18 1615.17,-205.93 1634.43,-196.34"/>
<polygon fill="#63b8ff" stroke="#63b8ff" points="1635.76,-199.59 1643.15,-192 1632.64,-193.33 1635.76,-199.59"/>
</a>
</g>
</g>
<!-- Node34&#45;&gt;Node2 -->
<g id="edge64_Node000034_Node000002" class="edge">
<title>Node34&#45;&gt;Node2</title>
<g id="a_edge64_Node000034_Node000002"><a xlink:title=" ">
<path fill="none" stroke="#63b8ff" d="M1192.24,-226.61C1179.88,-195.92 1137.36,-100.85 1069,-56.75 1026.24,-29.16 967.57,-18.33 929.72,-14.09"/>
<polygon fill="#63b8ff" stroke="#63b8ff" points="930.49,-10.65 920.19,-13.13 929.79,-17.62 930.49,-10.65"/>
</a>
</g>
</g>
<!-- Node34&#45;&gt;Node7 -->
<g id="edge70_Node000034_Node000007" class="edge">
<title>Node34&#45;&gt;Node7</title>
<g id="a_edge70_Node000034_Node000007"><a xlink:title=" ">
<path fill="none" stroke="#63b8ff" d="M1157.21,-233.1C1082.94,-226.67 915.26,-211.35 763.82,-191.31"/>
<polygon fill="#63b8ff" stroke="#63b8ff" points="764.36,-187.85 753.98,-190 763.43,-194.79 764.36,-187.85"/>
</a>
</g>
</g>
<!-- Node34&#45;&gt;Node30 -->
<g id="edge65_Node000034_Node000030" class="edge">
<title>Node34&#45;&gt;Node30</title>
<g id="a_edge65_Node000034_Node000030"><a xlink:title=" ">
<path fill="none" stroke="#63b8ff" d="M1221.39,-226.59C1243.9,-217.91 1277.03,-205.13 1302.23,-195.42"/>
<polygon fill="#63b8ff" stroke="#63b8ff" points="1303.35,-198.74 1311.42,-191.87 1300.83,-192.2 1303.35,-198.74"/>
</a>
</g>
</g>
<!-- Node35 -->
<g id="Node000035" class="node">
<title>Node35</title>
<g id="a_Node000035"><a xlink:href="iolist_8h.html" target="_top" xlink:title="iolist scatter / gather IO">
<polygon fill="white" stroke="#666666" points="1256.5,-191 1207.5,-191 1207.5,-170.25 1256.5,-170.25 1256.5,-191"/>
<text text-anchor="middle" x="1232" y="-177.5" font-family="Helvetica,sans-Serif" font-size="10.00">iolist.h</text>
</a>
</g>
</g>
<!-- Node34&#45;&gt;Node35 -->
<g id="edge66_Node000034_Node000035" class="edge">
<title>Node34&#45;&gt;Node35</title>
<g id="a_edge66_Node000034_Node000035"><a xlink:title=" ">
<path fill="none" stroke="#63b8ff" d="M1202.44,-226.59C1207.15,-219.42 1213.69,-209.48 1219.42,-200.76"/>
<polygon fill="#63b8ff" stroke="#63b8ff" points="1222.22,-202.87 1224.79,-192.59 1216.37,-199.03 1222.22,-202.87"/>
</a>
</g>
</g>
<!-- Node36 -->
<g id="Node000036" class="node">
<title>Node36</title>
<g id="a_Node000036"><a xlink:href="netopt_8h.html" target="_top" xlink:title="Definition of global configuration options.">
<polygon fill="white" stroke="#666666" points="1150.62,-191 1075.38,-191 1075.38,-170.25 1150.62,-170.25 1150.62,-191"/>
<text text-anchor="middle" x="1113" y="-177.5" font-family="Helvetica,sans-Serif" font-size="10.00">net/netopt.h</text>
</a>
</g>
</g>
<!-- Node34&#45;&gt;Node36 -->
<g id="edge67_Node000034_Node000036" class="edge">
<title>Node34&#45;&gt;Node36</title>
<g id="a_edge67_Node000034_Node000036"><a xlink:title=" ">
<path fill="none" stroke="#63b8ff" d="M1181.16,-226.59C1168.89,-218.49 1151.21,-206.83 1136.94,-197.42"/>
<polygon fill="#63b8ff" stroke="#63b8ff" points="1139.25,-194.75 1128.97,-192.16 1135.39,-200.59 1139.25,-194.75"/>
</a>
</g>
</g>
<!-- Node36&#45;&gt;Node2 -->
<g id="edge68_Node000036_Node000002" class="edge">
<title>Node36&#45;&gt;Node2</title>
<g id="a_edge68_Node000036_Node000002"><a xlink:title=" ">
<path fill="none" stroke="#63b8ff" d="M1110.73,-169.94C1104.6,-146.15 1085.33,-84.73 1044,-56.75 1009.47,-33.37 962.62,-21.77 930.1,-16.2"/>
<polygon fill="#63b8ff" stroke="#63b8ff" points="930.73,-12.76 920.31,-14.65 929.63,-19.67 930.73,-12.76"/>
</a>
</g>
</g>
<!-- Node36&#45;&gt;Node15 -->
<g id="edge69_Node000036_Node000015" class="edge">
<title>Node36&#45;&gt;Node15</title>
<g id="a_edge69_Node000036_Node000015"><a xlink:title=" ">
<path fill="none" stroke="#63b8ff" d="M1074.91,-171.45C1072.24,-171 1069.58,-170.6 1067,-170.25 827.29,-138.03 764.82,-156.69 524,-134.25 512.29,-133.16 499.61,-131.74 487.95,-130.33"/>
<polygon fill="#63b8ff" stroke="#63b8ff" points="488.56,-126.88 478.21,-129.13 487.71,-133.83 488.56,-126.88"/>
</a>
</g>
</g>
<!-- Node37&#45;&gt;Node2 -->
<g id="edge73_Node000037_Node000002" class="edge">
<title>Node37&#45;&gt;Node2</title>
<g id="a_edge73_Node000037_Node000002"><a xlink:title=" ">
<path fill="none" stroke="#63b8ff" d="M1035.38,-169.78C1056.59,-157.61 1085.99,-135.75 1073,-113.5 1042.18,-60.73 972.92,-33.08 929.57,-20.42"/>
<polygon fill="#63b8ff" stroke="#63b8ff" points="930.65,-17.08 920.07,-17.78 928.77,-23.83 930.65,-17.08"/>
</a>
</g>
</g>
<!-- Node37&#45;&gt;Node8 -->
<g id="edge75_Node000037_Node000008" class="edge">
<title>Node37&#45;&gt;Node8</title>
<g id="a_edge75_Node000037_Node000008"><a xlink:title=" ">
<path fill="none" stroke="#63b8ff" d="M985.61,-169.84C958.13,-160.99 917.46,-147.89 887.09,-138.11"/>
<polygon fill="#63b8ff" stroke="#63b8ff" points="888.45,-134.87 877.86,-135.13 886.3,-141.53 888.45,-134.87"/>
</a>
</g>
</g>
<!-- Node37&#45;&gt;Node11 -->
<g id="edge72_Node000037_Node000011" class="edge">
<title>Node37&#45;&gt;Node11</title>
<g id="a_edge72_Node000037_Node000011"><a xlink:title=" ">
<path fill="none" stroke="#63b8ff" d="M1000.6,-169.93C970,-150.65 901.3,-107.37 864.09,-83.93"/>
<polygon fill="#63b8ff" stroke="#63b8ff" points="866.1,-81.06 855.77,-78.69 862.36,-86.98 866.1,-81.06"/>
</a>
</g>
</g>
<!-- Node38 -->
<g id="Node000038" class="node">
<title>Node38</title>
<g id="a_Node000038"><a xlink:title=" ">
<polygon fill="#e0e0e0" stroke="#999999" points="1064,-134.25 1012,-134.25 1012,-113.5 1064,-113.5 1064,-134.25"/>
<text text-anchor="middle" x="1038" y="-120.75" font-family="Helvetica,sans-Serif" font-size="10.00">stdlib.h</text>
</a>
</g>
</g>
<!-- Node37&#45;&gt;Node38 -->
<g id="edge74_Node000037_Node000038" class="edge">
<title>Node37&#45;&gt;Node38</title>
<g id="a_edge74_Node000037_Node000038"><a xlink:title=" ">
<path fill="none" stroke="#63b8ff" d="M1019.93,-169.84C1022.69,-162.99 1026.46,-153.59 1029.85,-145.15"/>
<polygon fill="#63b8ff" stroke="#63b8ff" points="1033.06,-146.57 1033.54,-135.98 1026.56,-143.96 1033.06,-146.57"/>
</a>
</g>
</g>
</g>
</svg>
