<?xml version="1.0" encoding="UTF-8" standalone="no"?>
<!DOCTYPE svg PUBLIC "-//W3C//DTD SVG 1.1//EN"
 "http://www.w3.org/Graphics/SVG/1.1/DTD/svg11.dtd">
<!-- Generated by graphviz version 12.1.2 (0)
 -->
<!-- Title: drivers/include/periph/rtc.h Pages: 1 -->
<svg width="246pt" height="155pt"
 viewBox="0.00 0.00 246.12 155.00" xmlns="http://www.w3.org/2000/svg" xmlns:xlink="http://www.w3.org/1999/xlink">
<g id="graph0" class="graph" transform="scale(1 1) rotate(0) translate(4 151)">
<title>drivers/include/periph/rtc.h</title>
<!-- Node1 -->
<g id="Node000001" class="node">
<title>Node1</title>
<g id="a_Node000001"><a xlink:title="Low&#45;level RTC peripheral driver interface definitions.">
<polygon fill="#999999" stroke="#666666" points="159.38,-147 37.62,-147 37.62,-113.5 159.38,-113.5 159.38,-147"/>
<text text-anchor="start" x="45.62" y="-133.5" font-family="Helvetica,sans-Serif" font-size="10.00">drivers/include/periph</text>
<text text-anchor="middle" x="98.5" y="-120.75" font-family="Helvetica,sans-Serif" font-size="10.00">/rtc.h</text>
</a>
</g>
</g>
<!-- Node2 -->
<g id="Node000002" class="node">
<title>Node2</title>
<g id="a_Node000002"><a xlink:title=" ">
<polygon fill="#e0e0e0" stroke="#999999" points="61,-20.75 0,-20.75 0,0 61,0 61,-20.75"/>
<text text-anchor="middle" x="30.5" y="-7.25" font-family="Helvetica,sans-Serif" font-size="10.00">stdbool.h</text>
</a>
</g>
</g>
<!-- Node1&#45;&gt;Node2 -->
<g id="edge1_Node000001_Node000002" class="edge">
<title>Node1&#45;&gt;Node2</title>
<g id="a_edge1_Node000001_Node000002"><a xlink:title=" ">
<path fill="none" stroke="#63b8ff" d="M63.73,-113C49.8,-104.54 35.24,-92.73 27.5,-77.5 20.4,-63.54 21.71,-45.7 24.49,-32.07"/>
<polygon fill="#63b8ff" stroke="#63b8ff" points="27.87,-32.99 26.89,-22.44 21.07,-31.3 27.87,-32.99"/>
</a>
</g>
</g>
<!-- Node3 -->
<g id="Node000003" class="node">
<title>Node3</title>
<g id="a_Node000003"><a xlink:title=" ">
<polygon fill="#e0e0e0" stroke="#999999" points="142.88,-20.75 90.12,-20.75 90.12,0 142.88,0 142.88,-20.75"/>
<text text-anchor="middle" x="116.5" y="-7.25" font-family="Helvetica,sans-Serif" font-size="10.00">stdint.h</text>
</a>
</g>
</g>
<!-- Node1&#45;&gt;Node3 -->
<g id="edge2_Node000001_Node000003" class="edge">
<title>Node1&#45;&gt;Node3</title>
<g id="a_edge2_Node000001_Node000003"><a xlink:title=" ">
<path fill="none" stroke="#63b8ff" d="M102.4,-113.02C104.73,-102.86 107.6,-89.47 109.5,-77.5 111.89,-62.45 113.68,-45.34 114.85,-32.3"/>
<polygon fill="#63b8ff" stroke="#63b8ff" points="118.33,-32.6 115.68,-22.34 111.36,-32.01 118.33,-32.6"/>
</a>
</g>
</g>
<!-- Node4 -->
<g id="Node000004" class="node">
<title>Node4</title>
<g id="a_Node000004"><a xlink:href="rtc__utils_8h.html" target="_top" xlink:title=" ">
<polygon fill="white" stroke="#666666" points="100.5,-77.5 36.5,-77.5 36.5,-56.75 100.5,-56.75 100.5,-77.5"/>
<text text-anchor="middle" x="68.5" y="-64" font-family="Helvetica,sans-Serif" font-size="10.00">rtc_utils.h</text>
</a>
</g>
</g>
<!-- Node1&#45;&gt;Node4 -->
<g id="edge3_Node000001_Node000004" class="edge">
<title>Node1&#45;&gt;Node4</title>
<g id="a_edge3_Node000001_Node000004"><a xlink:title=" ">
<path fill="none" stroke="#63b8ff" d="M90.62,-113.19C86.85,-105.51 82.29,-96.23 78.3,-88.09"/>
<polygon fill="#63b8ff" stroke="#63b8ff" points="81.55,-86.76 74,-79.33 75.26,-89.84 81.55,-86.76"/>
</a>
</g>
</g>
<!-- Node5 -->
<g id="Node000005" class="node">
<title>Node5</title>
<g id="a_Node000005"><a xlink:title=" ">
<polygon fill="#e0e0e0" stroke="#999999" points="238.12,-77.5 156.88,-77.5 156.88,-56.75 238.12,-56.75 238.12,-77.5"/>
<text text-anchor="middle" x="197.5" y="-64" font-family="Helvetica,sans-Serif" font-size="10.00">periph_conf.h</text>
</a>
</g>
</g>
<!-- Node1&#45;&gt;Node5 -->
<g id="edge6_Node000001_Node000005" class="edge">
<title>Node1&#45;&gt;Node5</title>
<g id="a_edge6_Node000001_Node000005"><a xlink:title=" ">
<path fill="none" stroke="#63b8ff" d="M124.77,-113.03C139.48,-103.95 157.72,-92.68 172.26,-83.71"/>
<polygon fill="#63b8ff" stroke="#63b8ff" points="173.69,-86.94 180.36,-78.71 170.01,-80.99 173.69,-86.94"/>
</a>
</g>
</g>
<!-- Node4&#45;&gt;Node2 -->
<g id="edge4_Node000004_Node000002" class="edge">
<title>Node4&#45;&gt;Node2</title>
<g id="a_edge4_Node000004_Node000002"><a xlink:title=" ">
<path fill="none" stroke="#63b8ff" d="M61.71,-56.34C56.73,-49.17 49.83,-39.23 43.78,-30.51"/>
<polygon fill="#63b8ff" stroke="#63b8ff" points="46.68,-28.54 38.1,-22.32 40.92,-32.53 46.68,-28.54"/>
</a>
</g>
</g>
<!-- Node4&#45;&gt;Node3 -->
<g id="edge5_Node000004_Node000003" class="edge">
<title>Node4&#45;&gt;Node3</title>
<g id="a_edge5_Node000004_Node000003"><a xlink:title=" ">
<path fill="none" stroke="#63b8ff" d="M77.08,-56.34C83.57,-48.94 92.65,-38.57 100.47,-29.66"/>
<polygon fill="#63b8ff" stroke="#63b8ff" points="103.03,-32.04 107,-22.22 97.77,-27.43 103.03,-32.04"/>
</a>
</g>
</g>
</g>
</svg>
