<?xml version="1.0" encoding="UTF-8" standalone="no"?>
<!DOCTYPE svg PUBLIC "-//W3C//DTD SVG 1.1//EN"
 "http://www.w3.org/Graphics/SVG/1.1/DTD/svg11.dtd">
<!-- Generated by graphviz version 12.1.2 (0)
 -->
<!-- Title: cpu/sam0_common/sam0_eth/sam0_eth_netdev.h Pages: 1 -->
<svg width="800pt" height="325pt"
 viewBox="0.00 0.00 799.94 325.25" xmlns="http://www.w3.org/2000/svg" xmlns:xlink="http://www.w3.org/1999/xlink">
<g id="graph0" class="graph" transform="scale(1 1) rotate(0) translate(4 321.25)">
<title>cpu/sam0_common/sam0_eth/sam0_eth_netdev.h</title>
<!-- Node1 -->
<g id="Node000001" class="node">
<title>Node1</title>
<g id="a_Node000001"><a xlink:title="Netdev interface for the SAM0 Ethernet GMAC peripheral.">
<polygon fill="#999999" stroke="#666666" points="321.07,-317.25 179.82,-317.25 179.82,-283.75 321.07,-283.75 321.07,-317.25"/>
<text text-anchor="start" x="187.82" y="-303.75" font-family="Helvetica,sans-Serif" font-size="10.00">cpu/sam0_common/sam0</text>
<text text-anchor="middle" x="250.44" y="-291" font-family="Helvetica,sans-Serif" font-size="10.00">_eth/sam0_eth_netdev.h</text>
</a>
</g>
</g>
<!-- Node2 -->
<g id="Node000002" class="node">
<title>Node2</title>
<g id="a_Node000002"><a xlink:title=" ">
<polygon fill="#e0e0e0" stroke="#999999" points="378.94,-134.25 317.94,-134.25 317.94,-113.5 378.94,-113.5 378.94,-134.25"/>
<text text-anchor="middle" x="348.44" y="-120.75" font-family="Helvetica,sans-Serif" font-size="10.00">stdbool.h</text>
</a>
</g>
</g>
<!-- Node1&#45;&gt;Node2 -->
<g id="edge1_Node000001_Node000002" class="edge">
<title>Node1&#45;&gt;Node2</title>
<g id="a_edge1_Node000001_Node000002"><a xlink:title=" ">
<path fill="none" stroke="#63b8ff" d="M248.6,-283.62C246.43,-257.55 245.7,-205.12 269.44,-170.25 278.75,-156.57 293.65,-146.5 308.01,-139.36"/>
<polygon fill="#63b8ff" stroke="#63b8ff" points="309.25,-142.64 316.9,-135.31 306.35,-136.27 309.25,-142.64"/>
</a>
</g>
</g>
<!-- Node3 -->
<g id="Node000003" class="node">
<title>Node3</title>
<g id="a_Node000003"><a xlink:href="ethernet_8h.html" target="_top" xlink:title="Definitions for Ethernet.">
<polygon fill="white" stroke="#666666" points="160.94,-247.75 75.94,-247.75 75.94,-227 160.94,-227 160.94,-247.75"/>
<text text-anchor="middle" x="118.44" y="-234.25" font-family="Helvetica,sans-Serif" font-size="10.00">net/ethernet.h</text>
</a>
</g>
</g>
<!-- Node1&#45;&gt;Node3 -->
<g id="edge2_Node000001_Node000003" class="edge">
<title>Node1&#45;&gt;Node3</title>
<g id="a_edge2_Node000001_Node000003"><a xlink:title=" ">
<path fill="none" stroke="#63b8ff" d="M215.42,-283.28C195.05,-273.85 169.6,-262.06 149.88,-252.93"/>
<polygon fill="#63b8ff" stroke="#63b8ff" points="151.5,-249.83 140.96,-248.8 148.56,-256.18 151.5,-249.83"/>
</a>
</g>
</g>
<!-- Node12 -->
<g id="Node000012" class="node">
<title>Node12</title>
<g id="a_Node000012"><a xlink:href="drivers_2include_2net_2netdev_8h.html" target="_top" xlink:title="Definitions low&#45;level network driver interface.">
<polygon fill="white" stroke="#666666" points="449.82,-247.75 373.07,-247.75 373.07,-227 449.82,-227 449.82,-247.75"/>
<text text-anchor="middle" x="411.44" y="-234.25" font-family="Helvetica,sans-Serif" font-size="10.00">net/netdev.h</text>
</a>
</g>
</g>
<!-- Node1&#45;&gt;Node12 -->
<g id="edge16_Node000001_Node000012" class="edge">
<title>Node1&#45;&gt;Node12</title>
<g id="a_edge16_Node000001_Node000012"><a xlink:title=" ">
<path fill="none" stroke="#63b8ff" d="M293.17,-283.28C318.69,-273.59 350.78,-261.41 375.09,-252.18"/>
<polygon fill="#63b8ff" stroke="#63b8ff" points="376.14,-255.52 384.24,-248.7 373.65,-248.98 376.14,-255.52"/>
</a>
</g>
</g>
<!-- Node4 -->
<g id="Node000004" class="node">
<title>Node4</title>
<g id="a_Node000004"><a xlink:title=" ">
<polygon fill="#e0e0e0" stroke="#999999" points="442.82,-20.75 390.07,-20.75 390.07,0 442.82,0 442.82,-20.75"/>
<text text-anchor="middle" x="416.44" y="-7.25" font-family="Helvetica,sans-Serif" font-size="10.00">stdint.h</text>
</a>
</g>
</g>
<!-- Node3&#45;&gt;Node4 -->
<g id="edge3_Node000003_Node000004" class="edge">
<title>Node3&#45;&gt;Node4</title>
<g id="a_edge3_Node000003_Node000004"><a xlink:title=" ">
<path fill="none" stroke="#63b8ff" d="M75.54,-227.5C55.48,-220.97 33.42,-209.82 21.44,-191 -12.37,-137.86 -18.65,-129.7 97.44,-56.75 143.64,-27.72 304.65,-16.59 378.68,-12.93"/>
<polygon fill="#63b8ff" stroke="#63b8ff" points="378.45,-16.44 388.27,-12.48 378.12,-9.45 378.45,-16.44"/>
</a>
</g>
</g>
<!-- Node5 -->
<g id="Node000005" class="node">
<title>Node5</title>
<g id="a_Node000005"><a xlink:href="net_2ethernet_2hdr_8h.html" target="_top" xlink:title="Ethernet header definitions.">
<polygon fill="white" stroke="#666666" points="222.32,-191 118.57,-191 118.57,-170.25 222.32,-170.25 222.32,-191"/>
<text text-anchor="middle" x="170.44" y="-177.5" font-family="Helvetica,sans-Serif" font-size="10.00">net/ethernet/hdr.h</text>
</a>
</g>
</g>
<!-- Node3&#45;&gt;Node5 -->
<g id="edge4_Node000003_Node000005" class="edge">
<title>Node3&#45;&gt;Node5</title>
<g id="a_edge4_Node000003_Node000005"><a xlink:title=" ">
<path fill="none" stroke="#63b8ff" d="M127.74,-226.59C134.84,-219.11 144.82,-208.61 153.35,-199.63"/>
<polygon fill="#63b8ff" stroke="#63b8ff" points="155.84,-202.09 160.19,-192.43 150.76,-197.27 155.84,-202.09"/>
</a>
</g>
</g>
<!-- Node11 -->
<g id="Node000011" class="node">
<title>Node11</title>
<g id="a_Node000011"><a xlink:href="eui64_8h.html" target="_top" xlink:title="EUI&#45;64 data type definition.">
<polygon fill="white" stroke="#666666" points="100.82,-191 30.07,-191 30.07,-170.25 100.82,-170.25 100.82,-191"/>
<text text-anchor="middle" x="65.44" y="-177.5" font-family="Helvetica,sans-Serif" font-size="10.00">net/eui64.h</text>
</a>
</g>
</g>
<!-- Node3&#45;&gt;Node11 -->
<g id="edge13_Node000003_Node000011" class="edge">
<title>Node3&#45;&gt;Node11</title>
<g id="a_edge13_Node000003_Node000011"><a xlink:title=" ">
<path fill="none" stroke="#63b8ff" d="M108.97,-226.59C101.66,-219.03 91.35,-208.39 82.6,-199.35"/>
<polygon fill="#63b8ff" stroke="#63b8ff" points="85.36,-197.17 75.89,-192.42 80.33,-202.04 85.36,-197.17"/>
</a>
</g>
</g>
<!-- Node6 -->
<g id="Node000006" class="node">
<title>Node6</title>
<g id="a_Node000006"><a xlink:href="inttypes_8h.html" target="_top" xlink:title="Adds include for missing inttype definitions.">
<polygon fill="white" stroke="#666666" points="289.82,-134.25 225.07,-134.25 225.07,-113.5 289.82,-113.5 289.82,-134.25"/>
<text text-anchor="middle" x="257.44" y="-120.75" font-family="Helvetica,sans-Serif" font-size="10.00">inttypes.h</text>
</a>
</g>
</g>
<!-- Node5&#45;&gt;Node6 -->
<g id="edge5_Node000005_Node000006" class="edge">
<title>Node5&#45;&gt;Node6</title>
<g id="a_edge5_Node000005_Node000006"><a xlink:title=" ">
<path fill="none" stroke="#63b8ff" d="M186,-169.84C198.86,-161.74 217.39,-150.08 232.35,-140.67"/>
<polygon fill="#63b8ff" stroke="#63b8ff" points="234.14,-143.67 240.74,-135.38 230.42,-137.75 234.14,-143.67"/>
</a>
</g>
</g>
<!-- Node7 -->
<g id="Node000007" class="node">
<title>Node7</title>
<g id="a_Node000007"><a xlink:href="byteorder_8h.html" target="_top" xlink:title="Functions to work with different byte orders.">
<polygon fill="white" stroke="#666666" points="206.57,-134.25 134.32,-134.25 134.32,-113.5 206.57,-113.5 206.57,-134.25"/>
<text text-anchor="middle" x="170.44" y="-120.75" font-family="Helvetica,sans-Serif" font-size="10.00">byteorder.h</text>
</a>
</g>
</g>
<!-- Node5&#45;&gt;Node7 -->
<g id="edge6_Node000005_Node000007" class="edge">
<title>Node5&#45;&gt;Node7</title>
<g id="a_edge6_Node000005_Node000007"><a xlink:title=" ">
<path fill="none" stroke="#63b8ff" d="M170.44,-169.84C170.44,-163.22 170.44,-154.22 170.44,-146.02"/>
<polygon fill="#63b8ff" stroke="#63b8ff" points="173.94,-146.09 170.44,-136.09 166.94,-146.09 173.94,-146.09"/>
</a>
</g>
</g>
<!-- Node7&#45;&gt;Node4 -->
<g id="edge8_Node000007_Node000004" class="edge">
<title>Node7&#45;&gt;Node4</title>
<g id="a_edge8_Node000007_Node000004"><a xlink:title=" ">
<path fill="none" stroke="#63b8ff" d="M206.67,-115.43C257.82,-104.73 346.44,-85.43 359.44,-77.5 378.58,-65.83 394.63,-45.58 404.77,-30.55"/>
<polygon fill="#63b8ff" stroke="#63b8ff" points="407.53,-32.73 409.99,-22.43 401.64,-28.95 407.53,-32.73"/>
</a>
</g>
</g>
<!-- Node8 -->
<g id="Node000008" class="node">
<title>Node8</title>
<g id="a_Node000008"><a xlink:title=" ">
<polygon fill="#e0e0e0" stroke="#999999" points="350.82,-77.5 298.07,-77.5 298.07,-56.75 350.82,-56.75 350.82,-77.5"/>
<text text-anchor="middle" x="324.44" y="-64" font-family="Helvetica,sans-Serif" font-size="10.00">string.h</text>
</a>
</g>
</g>
<!-- Node7&#45;&gt;Node8 -->
<g id="edge7_Node000007_Node000008" class="edge">
<title>Node7&#45;&gt;Node8</title>
<g id="a_edge7_Node000007_Node000008"><a xlink:title=" ">
<path fill="none" stroke="#63b8ff" d="M197.98,-113.09C222.76,-104.27 259.41,-91.24 286.89,-81.48"/>
<polygon fill="#63b8ff" stroke="#63b8ff" points="287.99,-84.8 296.24,-78.15 285.64,-78.2 287.99,-84.8"/>
</a>
</g>
</g>
<!-- Node9 -->
<g id="Node000009" class="node">
<title>Node9</title>
<g id="a_Node000009"><a xlink:href="endian_8h.html" target="_top" xlink:title="libc header for endian conversion">
<polygon fill="white" stroke="#666666" points="188.44,-77.5 130.44,-77.5 130.44,-56.75 188.44,-56.75 188.44,-77.5"/>
<text text-anchor="middle" x="159.44" y="-64" font-family="Helvetica,sans-Serif" font-size="10.00">endian.h</text>
</a>
</g>
</g>
<!-- Node7&#45;&gt;Node9 -->
<g id="edge9_Node000007_Node000009" class="edge">
<title>Node7&#45;&gt;Node9</title>
<g id="a_edge9_Node000007_Node000009"><a xlink:title=" ">
<path fill="none" stroke="#63b8ff" d="M168.48,-113.09C167.13,-106.39 165.3,-97.26 163.63,-88.98"/>
<polygon fill="#63b8ff" stroke="#63b8ff" points="167.09,-88.43 161.69,-79.31 160.23,-89.81 167.09,-88.43"/>
</a>
</g>
</g>
<!-- Node10 -->
<g id="Node000010" class="node">
<title>Node10</title>
<g id="a_Node000010"><a xlink:href="unaligned_8h.html" target="_top" xlink:title="Unaligned but safe memory access functions.">
<polygon fill="white" stroke="#666666" points="279.94,-77.5 206.94,-77.5 206.94,-56.75 279.94,-56.75 279.94,-77.5"/>
<text text-anchor="middle" x="243.44" y="-64" font-family="Helvetica,sans-Serif" font-size="10.00">unaligned.h</text>
</a>
</g>
</g>
<!-- Node7&#45;&gt;Node10 -->
<g id="edge11_Node000007_Node000010" class="edge">
<title>Node7&#45;&gt;Node10</title>
<g id="a_edge11_Node000007_Node000010"><a xlink:title=" ">
<path fill="none" stroke="#63b8ff" d="M183.49,-113.09C194.08,-105.15 209.24,-93.78 221.66,-84.46"/>
<polygon fill="#63b8ff" stroke="#63b8ff" points="223.39,-87.54 229.29,-78.74 219.19,-81.94 223.39,-87.54"/>
</a>
</g>
</g>
<!-- Node9&#45;&gt;Node4 -->
<g id="edge10_Node000009_Node000004" class="edge">
<title>Node9&#45;&gt;Node4</title>
<g id="a_edge10_Node000009_Node000004"><a xlink:title=" ">
<path fill="none" stroke="#63b8ff" d="M188.88,-58.75C191.77,-58.06 194.66,-57.38 197.44,-56.75 260.75,-42.39 334.76,-27.43 378.5,-18.79"/>
<polygon fill="#63b8ff" stroke="#63b8ff" points="379.12,-22.23 388.26,-16.86 377.77,-15.36 379.12,-22.23"/>
</a>
</g>
</g>
<!-- Node10&#45;&gt;Node4 -->
<g id="edge12_Node000010_Node000004" class="edge">
<title>Node10&#45;&gt;Node4</title>
<g id="a_edge12_Node000010_Node000004"><a xlink:title=" ">
<path fill="none" stroke="#63b8ff" d="M274.37,-56.34C303.63,-47.08 347.6,-33.16 378.86,-23.27"/>
<polygon fill="#63b8ff" stroke="#63b8ff" points="379.83,-26.63 388.31,-20.28 377.72,-19.96 379.83,-26.63"/>
</a>
</g>
</g>
<!-- Node11&#45;&gt;Node4 -->
<g id="edge14_Node000011_Node000004" class="edge">
<title>Node11&#45;&gt;Node4</title>
<g id="a_edge14_Node000011_Node000004"><a xlink:title=" ">
<path fill="none" stroke="#63b8ff" d="M66.72,-170.05C70.39,-146.5 83.31,-85.61 121.44,-56.75 161.18,-26.67 307.78,-16.18 378.2,-12.82"/>
<polygon fill="#63b8ff" stroke="#63b8ff" points="378.27,-16.32 388.1,-12.37 377.96,-9.32 378.27,-16.32"/>
</a>
</g>
</g>
<!-- Node11&#45;&gt;Node7 -->
<g id="edge15_Node000011_Node000007" class="edge">
<title>Node11&#45;&gt;Node7</title>
<g id="a_edge15_Node000011_Node000007"><a xlink:title=" ">
<path fill="none" stroke="#63b8ff" d="M84.22,-169.84C100.19,-161.51 123.39,-149.41 141.71,-139.86"/>
<polygon fill="#63b8ff" stroke="#63b8ff" points="143.24,-143.01 150.49,-135.28 140.01,-136.8 143.24,-143.01"/>
</a>
</g>
</g>
<!-- Node12&#45;&gt;Node4 -->
<g id="edge17_Node000012_Node000004" class="edge">
<title>Node12&#45;&gt;Node4</title>
<g id="a_edge17_Node000012_Node000004"><a xlink:title=" ">
<path fill="none" stroke="#63b8ff" d="M449.59,-226.53C467.74,-219.73 487.76,-208.63 498.44,-191 503.22,-183.11 501.2,-179.05 498.44,-170.25 492.62,-151.66 482.86,-151.3 473.44,-134.25 455.34,-101.48 456.54,-90.55 440.44,-56.75 436.38,-48.22 431.57,-38.97 427.32,-31.06"/>
<polygon fill="#63b8ff" stroke="#63b8ff" points="430.41,-29.43 422.56,-22.32 424.27,-32.78 430.41,-29.43"/>
</a>
</g>
</g>
<!-- Node13 -->
<g id="Node000013" class="node">
<title>Node13</title>
<g id="a_Node000013"><a xlink:href="errno_8h.html" target="_top" xlink:title=" ">
<polygon fill="white" stroke="#666666" points="328.69,-191 278.19,-191 278.19,-170.25 328.69,-170.25 328.69,-191"/>
<text text-anchor="middle" x="303.44" y="-177.5" font-family="Helvetica,sans-Serif" font-size="10.00">errno.h</text>
</a>
</g>
</g>
<!-- Node12&#45;&gt;Node13 -->
<g id="edge18_Node000012_Node000013" class="edge">
<title>Node12&#45;&gt;Node13</title>
<g id="a_edge18_Node000012_Node000013"><a xlink:title=" ">
<path fill="none" stroke="#63b8ff" d="M392.14,-226.59C375.63,-218.22 351.61,-206.04 332.74,-196.47"/>
<polygon fill="#63b8ff" stroke="#63b8ff" points="334.44,-193.41 323.93,-192.01 331.27,-199.66 334.44,-193.41"/>
</a>
</g>
</g>
<!-- Node14 -->
<g id="Node000014" class="node">
<title>Node14</title>
<g id="a_Node000014"><a xlink:href="iolist_8h.html" target="_top" xlink:title="iolist scatter / gather IO">
<polygon fill="white" stroke="#666666" points="395.94,-191 346.94,-191 346.94,-170.25 395.94,-170.25 395.94,-191"/>
<text text-anchor="middle" x="371.44" y="-177.5" font-family="Helvetica,sans-Serif" font-size="10.00">iolist.h</text>
</a>
</g>
</g>
<!-- Node12&#45;&gt;Node14 -->
<g id="edge19_Node000012_Node000014" class="edge">
<title>Node12&#45;&gt;Node14</title>
<g id="a_edge19_Node000012_Node000014"><a xlink:title=" ">
<path fill="none" stroke="#63b8ff" d="M404.29,-226.59C399,-219.35 391.63,-209.26 385.21,-200.47"/>
<polygon fill="#63b8ff" stroke="#63b8ff" points="388.15,-198.56 379.43,-192.55 382.5,-202.69 388.15,-198.56"/>
</a>
</g>
</g>
<!-- Node15 -->
<g id="Node000015" class="node">
<title>Node15</title>
<g id="a_Node000015"><a xlink:href="netopt_8h.html" target="_top" xlink:title="Definition of global configuration options.">
<polygon fill="white" stroke="#666666" points="489.07,-191 413.82,-191 413.82,-170.25 489.07,-170.25 489.07,-191"/>
<text text-anchor="middle" x="451.44" y="-177.5" font-family="Helvetica,sans-Serif" font-size="10.00">net/netopt.h</text>
</a>
</g>
</g>
<!-- Node12&#45;&gt;Node15 -->
<g id="edge20_Node000012_Node000015" class="edge">
<title>Node12&#45;&gt;Node15</title>
<g id="a_edge20_Node000012_Node000015"><a xlink:title=" ">
<path fill="none" stroke="#63b8ff" d="M418.59,-226.59C423.88,-219.35 431.25,-209.26 437.67,-200.47"/>
<polygon fill="#63b8ff" stroke="#63b8ff" points="440.39,-202.69 443.46,-192.55 434.74,-198.56 440.39,-202.69"/>
</a>
</g>
</g>
<!-- Node16 -->
<g id="Node000016" class="node">
<title>Node16</title>
<g id="a_Node000016"><a xlink:href="kernel__defines_8h.html" target="_top" xlink:title="Common macros and compiler attributes/pragmas configuration.">
<polygon fill="white" stroke="#666666" points="652.57,-191 556.32,-191 556.32,-170.25 652.57,-170.25 652.57,-191"/>
<text text-anchor="middle" x="604.44" y="-177.5" font-family="Helvetica,sans-Serif" font-size="10.00">kernel_defines.h</text>
</a>
</g>
</g>
<!-- Node12&#45;&gt;Node16 -->
<g id="edge23_Node000012_Node000016" class="edge">
<title>Node12&#45;&gt;Node16</title>
<g id="a_edge23_Node000012_Node000016"><a xlink:title=" ">
<path fill="none" stroke="#63b8ff" d="M445.95,-226.59C477.55,-217.62 524.53,-204.29 559.14,-194.48"/>
<polygon fill="#63b8ff" stroke="#63b8ff" points="559.79,-197.93 568.46,-191.83 557.88,-191.2 559.79,-197.93"/>
</a>
</g>
</g>
<!-- Node15&#45;&gt;Node2 -->
<g id="edge22_Node000015_Node000002" class="edge">
<title>Node15&#45;&gt;Node2</title>
<g id="a_edge22_Node000015_Node000002"><a xlink:title=" ">
<path fill="none" stroke="#63b8ff" d="M433.03,-169.84C417.36,-161.51 394.6,-149.41 376.63,-139.86"/>
<polygon fill="#63b8ff" stroke="#63b8ff" points="378.51,-136.89 368.03,-135.29 375.22,-143.07 378.51,-136.89"/>
</a>
</g>
</g>
<!-- Node15&#45;&gt;Node4 -->
<g id="edge21_Node000015_Node000004" class="edge">
<title>Node15&#45;&gt;Node4</title>
<g id="a_edge21_Node000015_Node000004"><a xlink:title=" ">
<path fill="none" stroke="#63b8ff" d="M448.96,-169.92C446.64,-160.75 443.15,-146.6 440.44,-134.25 432.61,-98.45 424.69,-56.5 420.19,-32.04"/>
<polygon fill="#63b8ff" stroke="#63b8ff" points="423.68,-31.66 418.44,-22.45 416.79,-32.92 423.68,-31.66"/>
</a>
</g>
</g>
<!-- Node17 -->
<g id="Node000017" class="node">
<title>Node17</title>
<g id="a_Node000017"><a xlink:href="modules_8h.html" target="_top" xlink:title="Common macros and compiler attributes/pragmas configuration.">
<polygon fill="white" stroke="#666666" points="637.94,-134.25 570.94,-134.25 570.94,-113.5 637.94,-113.5 637.94,-134.25"/>
<text text-anchor="middle" x="604.44" y="-120.75" font-family="Helvetica,sans-Serif" font-size="10.00">modules.h</text>
</a>
</g>
</g>
<!-- Node16&#45;&gt;Node17 -->
<g id="edge24_Node000016_Node000017" class="edge">
<title>Node16&#45;&gt;Node17</title>
<g id="a_edge24_Node000016_Node000017"><a xlink:title=" ">
<path fill="none" stroke="#63b8ff" d="M604.44,-169.84C604.44,-163.22 604.44,-154.22 604.44,-146.02"/>
<polygon fill="#63b8ff" stroke="#63b8ff" points="607.94,-146.09 604.44,-136.09 600.94,-146.09 607.94,-146.09"/>
</a>
</g>
</g>
<!-- Node18 -->
<g id="Node000018" class="node">
<title>Node18</title>
<g id="a_Node000018"><a xlink:href="riot__version_8h.html" target="_top" xlink:title="Common macros and compiler attributes/pragmas configuration.">
<polygon fill="white" stroke="#666666" points="676.82,-77.5 594.07,-77.5 594.07,-56.75 676.82,-56.75 676.82,-77.5"/>
<text text-anchor="middle" x="635.44" y="-64" font-family="Helvetica,sans-Serif" font-size="10.00">riot_version.h</text>
</a>
</g>
</g>
<!-- Node16&#45;&gt;Node18 -->
<g id="edge25_Node000016_Node000018" class="edge">
<title>Node16&#45;&gt;Node18</title>
<g id="a_edge25_Node000016_Node000018"><a xlink:title=" ">
<path fill="none" stroke="#63b8ff" d="M618.19,-169.84C628.42,-161.66 641.58,-148.97 647.44,-134.25 653.32,-119.5 649.56,-101.74 644.74,-88.34"/>
<polygon fill="#63b8ff" stroke="#63b8ff" points="648.06,-87.2 641.03,-79.27 641.58,-89.85 648.06,-87.2"/>
</a>
</g>
</g>
<!-- Node19 -->
<g id="Node000019" class="node">
<title>Node19</title>
<g id="a_Node000019"><a xlink:href="compiler__hints_8h.html" target="_top" xlink:title="Common macros and compiler attributes/pragmas configuration.">
<polygon fill="white" stroke="#666666" points="791.94,-134.25 694.94,-134.25 694.94,-113.5 791.94,-113.5 791.94,-134.25"/>
<text text-anchor="middle" x="743.44" y="-120.75" font-family="Helvetica,sans-Serif" font-size="10.00">compiler_hints.h</text>
</a>
</g>
</g>
<!-- Node16&#45;&gt;Node19 -->
<g id="edge27_Node000016_Node000019" class="edge">
<title>Node16&#45;&gt;Node19</title>
<g id="a_edge27_Node000016_Node000019"><a xlink:title=" ">
<path fill="none" stroke="#63b8ff" d="M629.29,-169.84C651.33,-161.16 683.76,-148.38 708.43,-138.67"/>
<polygon fill="#63b8ff" stroke="#63b8ff" points="709.38,-142.05 717.4,-135.13 706.81,-135.54 709.38,-142.05"/>
</a>
</g>
</g>
<!-- Node21 -->
<g id="Node000021" class="node">
<title>Node21</title>
<g id="a_Node000021"><a xlink:href="container_8h.html" target="_top" xlink:title="Common macros and compiler attributes/pragmas configuration.">
<polygon fill="white" stroke="#666666" points="552.82,-134.25 482.07,-134.25 482.07,-113.5 552.82,-113.5 552.82,-134.25"/>
<text text-anchor="middle" x="517.44" y="-120.75" font-family="Helvetica,sans-Serif" font-size="10.00">container.h</text>
</a>
</g>
</g>
<!-- Node16&#45;&gt;Node21 -->
<g id="edge31_Node000016_Node000021" class="edge">
<title>Node16&#45;&gt;Node21</title>
<g id="a_edge31_Node000016_Node000021"><a xlink:title=" ">
<path fill="none" stroke="#63b8ff" d="M588.89,-169.84C576.02,-161.74 557.5,-150.08 542.54,-140.67"/>
<polygon fill="#63b8ff" stroke="#63b8ff" points="544.47,-137.75 534.14,-135.38 540.74,-143.67 544.47,-137.75"/>
</a>
</g>
</g>
<!-- Node18&#45;&gt;Node4 -->
<g id="edge26_Node000018_Node000004" class="edge">
<title>Node18&#45;&gt;Node4</title>
<g id="a_edge26_Node000018_Node000004"><a xlink:title=" ">
<path fill="none" stroke="#63b8ff" d="M596.04,-56.27C555.8,-46.21 493.78,-30.71 454.16,-20.8"/>
<polygon fill="#63b8ff" stroke="#63b8ff" points="455.15,-17.44 444.6,-18.41 453.45,-24.23 455.15,-17.44"/>
</a>
</g>
</g>
<!-- Node19&#45;&gt;Node4 -->
<g id="edge30_Node000019_Node000004" class="edge">
<title>Node19&#45;&gt;Node4</title>
<g id="a_edge30_Node000019_Node000004"><a xlink:title=" ">
<path fill="none" stroke="#63b8ff" d="M738.08,-113.37C729.21,-98.61 709.98,-70.44 685.44,-56.75 646.41,-34.97 518.7,-20.64 454.3,-14.61"/>
<polygon fill="#63b8ff" stroke="#63b8ff" points="454.83,-11.15 444.55,-13.72 454.19,-18.12 454.83,-11.15"/>
</a>
</g>
</g>
<!-- Node20 -->
<g id="Node000020" class="node">
<title>Node20</title>
<g id="a_Node000020"><a xlink:href="assert_8h.html" target="_top" xlink:title="POSIX.1&#45;2008 compliant version of the assert macro.">
<polygon fill="white" stroke="#666666" points="787.94,-77.5 732.94,-77.5 732.94,-56.75 787.94,-56.75 787.94,-77.5"/>
<text text-anchor="middle" x="760.44" y="-64" font-family="Helvetica,sans-Serif" font-size="10.00">assert.h</text>
</a>
</g>
</g>
<!-- Node19&#45;&gt;Node20 -->
<g id="edge28_Node000019_Node000020" class="edge">
<title>Node19&#45;&gt;Node20</title>
<g id="a_edge28_Node000019_Node000020"><a xlink:title=" ">
<path fill="none" stroke="#63b8ff" d="M746.48,-113.09C748.59,-106.31 751.46,-97.05 754.06,-88.69"/>
<polygon fill="#63b8ff" stroke="#63b8ff" points="757.36,-89.86 756.98,-79.27 750.67,-87.79 757.36,-89.86"/>
</a>
</g>
</g>
<!-- Node20&#45;&gt;Node4 -->
<g id="edge29_Node000020_Node000004" class="edge">
<title>Node20&#45;&gt;Node4</title>
<g id="a_edge29_Node000020_Node000004"><a xlink:title=" ">
<path fill="none" stroke="#63b8ff" d="M732.49,-59.6C727.81,-58.59 723,-57.6 718.44,-56.75 624.04,-39.15 512.05,-23.74 454.62,-16.23"/>
<polygon fill="#63b8ff" stroke="#63b8ff" points="455.08,-12.76 444.71,-14.95 454.18,-19.7 455.08,-12.76"/>
</a>
</g>
</g>
<!-- Node21&#45;&gt;Node4 -->
<g id="edge33_Node000021_Node000004" class="edge">
<title>Node21&#45;&gt;Node4</title>
<g id="a_edge33_Node000021_Node000004"><a xlink:title=" ">
<path fill="none" stroke="#63b8ff" d="M527.73,-113.29C540.87,-99.86 560.46,-75.03 547.44,-56.75 526.46,-27.28 484.96,-16.77 454.27,-13.12"/>
<polygon fill="#63b8ff" stroke="#63b8ff" points="454.9,-9.67 444.61,-12.18 454.22,-16.63 454.9,-9.67"/>
</a>
</g>
</g>
<!-- Node22 -->
<g id="Node000022" class="node">
<title>Node22</title>
<g id="a_Node000022"><a xlink:title=" ">
<polygon fill="#e0e0e0" stroke="#999999" points="537.94,-77.5 482.94,-77.5 482.94,-56.75 537.94,-56.75 537.94,-77.5"/>
<text text-anchor="middle" x="510.44" y="-64" font-family="Helvetica,sans-Serif" font-size="10.00">stddef.h</text>
</a>
</g>
</g>
<!-- Node21&#45;&gt;Node22 -->
<g id="edge32_Node000021_Node000022" class="edge">
<title>Node21&#45;&gt;Node22</title>
<g id="a_edge32_Node000021_Node000022"><a xlink:title=" ">
<path fill="none" stroke="#63b8ff" d="M516.19,-113.09C515.34,-106.39 514.17,-97.26 513.11,-88.98"/>
<polygon fill="#63b8ff" stroke="#63b8ff" points="516.62,-88.81 511.88,-79.33 509.67,-89.69 516.62,-88.81"/>
</a>
</g>
</g>
</g>
</svg>
