<?xml version="1.0" encoding="UTF-8" standalone="no"?>
<!DOCTYPE svg PUBLIC "-//W3C//DTD SVG 1.1//EN"
 "http://www.w3.org/Graphics/SVG/1.1/DTD/svg11.dtd">
<!-- Generated by graphviz version 12.1.2 (0)
 -->
<!-- Title: pkg/openwsn/scheduler/scheduler_types.h Pages: 1 -->
<svg width="282pt" height="155pt"
 viewBox="0.00 0.00 282.12 155.00" xmlns="http://www.w3.org/2000/svg" xmlns:xlink="http://www.w3.org/1999/xlink">
<g id="graph0" class="graph" transform="scale(1 1) rotate(0) translate(4 151)">
<title>pkg/openwsn/scheduler/scheduler_types.h</title>
<!-- Node1 -->
<g id="Node000001" class="node">
<title>Node1</title>
<g id="a_Node000001"><a xlink:title="RIOT scheduler types variable declaration.">
<polygon fill="#999999" stroke="#666666" points="189.38,-147 58.62,-147 58.62,-113.5 189.38,-113.5 189.38,-147"/>
<text text-anchor="start" x="66.62" y="-133.5" font-family="Helvetica,sans-Serif" font-size="10.00">pkg/openwsn/scheduler</text>
<text text-anchor="middle" x="124" y="-120.75" font-family="Helvetica,sans-Serif" font-size="10.00">/scheduler_types.h</text>
</a>
</g>
</g>
<!-- Node2 -->
<g id="Node000002" class="node">
<title>Node2</title>
<g id="a_Node000002"><a xlink:title=" ">
<polygon fill="#e0e0e0" stroke="#999999" points="70,-77.5 0,-77.5 0,-56.75 70,-56.75 70,-77.5"/>
<text text-anchor="middle" x="35" y="-64" font-family="Helvetica,sans-Serif" font-size="10.00">opendefs.h</text>
</a>
</g>
</g>
<!-- Node1&#45;&gt;Node2 -->
<g id="edge1_Node000001_Node000002" class="edge">
<title>Node1&#45;&gt;Node2</title>
<g id="a_edge1_Node000001_Node000002"><a xlink:title=" ">
<path fill="none" stroke="#63b8ff" d="M100.62,-113.19C87.65,-104.28 71.56,-93.24 58.57,-84.31"/>
<polygon fill="#63b8ff" stroke="#63b8ff" points="60.8,-81.6 50.58,-78.82 56.84,-87.37 60.8,-81.6"/>
</a>
</g>
</g>
<!-- Node3 -->
<g id="Node000003" class="node">
<title>Node3</title>
<g id="a_Node000003"><a xlink:title=" ">
<polygon fill="#e0e0e0" stroke="#999999" points="160.12,-77.5 87.88,-77.5 87.88,-56.75 160.12,-56.75 160.12,-77.5"/>
<text text-anchor="middle" x="124" y="-64" font-family="Helvetica,sans-Serif" font-size="10.00">scheduler.h</text>
</a>
</g>
</g>
<!-- Node1&#45;&gt;Node3 -->
<g id="edge2_Node000001_Node000003" class="edge">
<title>Node1&#45;&gt;Node3</title>
<g id="a_edge2_Node000001_Node000003"><a xlink:title=" ">
<path fill="none" stroke="#63b8ff" d="M124,-113.19C124,-105.85 124,-97.07 124,-89.21"/>
<polygon fill="#63b8ff" stroke="#63b8ff" points="127.5,-89.48 124,-79.48 120.5,-89.48 127.5,-89.48"/>
</a>
</g>
</g>
<!-- Node4 -->
<g id="Node000004" class="node">
<title>Node4</title>
<g id="a_Node000004"><a xlink:href="callback_8h.html" target="_top" xlink:title="Provides a callback&#45;with&#45;argument event type.">
<polygon fill="white" stroke="#666666" points="274.12,-77.5 177.88,-77.5 177.88,-56.75 274.12,-56.75 274.12,-77.5"/>
<text text-anchor="middle" x="226" y="-64" font-family="Helvetica,sans-Serif" font-size="10.00">event/callback.h</text>
</a>
</g>
</g>
<!-- Node1&#45;&gt;Node4 -->
<g id="edge3_Node000001_Node000004" class="edge">
<title>Node1&#45;&gt;Node4</title>
<g id="a_edge3_Node000001_Node000004"><a xlink:title=" ">
<path fill="none" stroke="#63b8ff" d="M151.07,-113.03C166.22,-103.95 185.02,-92.68 200,-83.71"/>
<polygon fill="#63b8ff" stroke="#63b8ff" points="201.59,-86.84 208.36,-78.69 197.99,-80.83 201.59,-86.84"/>
</a>
</g>
</g>
<!-- Node5 -->
<g id="Node000005" class="node">
<title>Node5</title>
<g id="a_Node000005"><a xlink:title=" ">
<polygon fill="#e0e0e0" stroke="#999999" points="252.38,-20.75 199.62,-20.75 199.62,0 252.38,0 252.38,-20.75"/>
<text text-anchor="middle" x="226" y="-7.25" font-family="Helvetica,sans-Serif" font-size="10.00">event.h</text>
</a>
</g>
</g>
<!-- Node4&#45;&gt;Node5 -->
<g id="edge4_Node000004_Node000005" class="edge">
<title>Node4&#45;&gt;Node5</title>
<g id="a_edge4_Node000004_Node000005"><a xlink:title=" ">
<path fill="none" stroke="#63b8ff" d="M226,-56.34C226,-49.72 226,-40.72 226,-32.52"/>
<polygon fill="#63b8ff" stroke="#63b8ff" points="229.5,-32.59 226,-22.59 222.5,-32.59 229.5,-32.59"/>
</a>
</g>
</g>
</g>
</svg>
