<?xml version="1.0" encoding="UTF-8" standalone="no"?>
<!DOCTYPE svg PUBLIC "-//W3C//DTD SVG 1.1//EN"
 "http://www.w3.org/Graphics/SVG/1.1/DTD/svg11.dtd">
<!-- Generated by graphviz version 12.1.2 (0)
 -->
<!-- Title: pkg/wakaama/include/objects/security.h Pages: 1 -->
<svg width="1165pt" height="439pt"
 viewBox="0.00 0.00 1165.12 438.75" xmlns="http://www.w3.org/2000/svg" xmlns:xlink="http://www.w3.org/1999/xlink">
<g id="graph0" class="graph" transform="scale(1 1) rotate(0) translate(4 434.75)">
<title>pkg/wakaama/include/objects/security.h</title>
<!-- Node1 -->
<g id="Node000001" class="node">
<title>Node1</title>
<g id="a_Node000001"><a xlink:title=" ">
<polygon fill="#999999" stroke="#666666" points="458.62,-430.75 335.38,-430.75 335.38,-397.25 458.62,-397.25 458.62,-430.75"/>
<text text-anchor="start" x="343.38" y="-417.25" font-family="Helvetica,sans-Serif" font-size="10.00">pkg/wakaama/include</text>
<text text-anchor="middle" x="397" y="-404.5" font-family="Helvetica,sans-Serif" font-size="10.00">/objects/security.h</text>
</a>
</g>
</g>
<!-- Node2 -->
<g id="Node000002" class="node">
<title>Node2</title>
<g id="a_Node000002"><a xlink:href="stdio_8h.html" target="_top" xlink:title="stdio wrapper to extend the C libs stdio">
<polygon fill="white" stroke="#666666" points="342.5,-304.5 293.5,-304.5 293.5,-283.75 342.5,-283.75 342.5,-304.5"/>
<text text-anchor="middle" x="318" y="-291" font-family="Helvetica,sans-Serif" font-size="10.00">stdio.h</text>
</a>
</g>
</g>
<!-- Node1&#45;&gt;Node2 -->
<g id="edge1_Node000001_Node000002" class="edge">
<title>Node1&#45;&gt;Node2</title>
<g id="a_edge1_Node000001_Node000002"><a xlink:title=" ">
<path fill="none" stroke="#63b8ff" d="M386.35,-397.1C371.96,-375.63 346.34,-337.4 330.88,-314.35"/>
<polygon fill="#63b8ff" stroke="#63b8ff" points="333.89,-312.55 325.42,-306.19 328.08,-316.45 333.89,-312.55"/>
</a>
</g>
</g>
<!-- Node4 -->
<g id="Node000004" class="node">
<title>Node4</title>
<g id="a_Node000004"><a xlink:title=" ">
<polygon fill="#e0e0e0" stroke="#999999" points="444.38,-77.5 391.62,-77.5 391.62,-56.75 444.38,-56.75 444.38,-77.5"/>
<text text-anchor="middle" x="418" y="-64" font-family="Helvetica,sans-Serif" font-size="10.00">string.h</text>
</a>
</g>
</g>
<!-- Node1&#45;&gt;Node4 -->
<g id="edge18_Node000001_Node000004" class="edge">
<title>Node1&#45;&gt;Node4</title>
<g id="a_edge18_Node000001_Node000004"><a xlink:title=" ">
<path fill="none" stroke="#63b8ff" d="M396.3,-397.05C395.03,-364.86 392.87,-289.83 397,-227 400.28,-177.2 409.27,-119.19 414.36,-88.92"/>
<polygon fill="#63b8ff" stroke="#63b8ff" points="417.78,-89.69 416.02,-79.24 410.88,-88.51 417.78,-89.69"/>
</a>
</g>
</g>
<!-- Node11 -->
<g id="Node000011" class="node">
<title>Node11</title>
<g id="a_Node000011"><a xlink:href="assert_8h.html" target="_top" xlink:title="POSIX.1&#45;2008 compliant version of the assert macro.">
<polygon fill="white" stroke="#666666" points="208.5,-77.5 153.5,-77.5 153.5,-56.75 208.5,-56.75 208.5,-77.5"/>
<text text-anchor="middle" x="181" y="-64" font-family="Helvetica,sans-Serif" font-size="10.00">assert.h</text>
</a>
</g>
</g>
<!-- Node1&#45;&gt;Node11 -->
<g id="edge19_Node000001_Node000011" class="edge">
<title>Node1&#45;&gt;Node11</title>
<g id="a_edge19_Node000001_Node000011"><a xlink:title=" ">
<path fill="none" stroke="#63b8ff" d="M334.97,-407.52C223.31,-395.94 0,-364.15 0,-295.12 0,-295.12 0,-295.12 0,-179.62 0,-113.43 88.83,-85.26 142.03,-74.33"/>
<polygon fill="#63b8ff" stroke="#63b8ff" points="142.47,-77.8 151.63,-72.48 141.15,-70.93 142.47,-77.8"/>
</a>
</g>
</g>
<!-- Node14 -->
<g id="Node000014" class="node">
<title>Node14</title>
<g id="a_Node000014"><a xlink:title=" ">
<polygon fill="#e0e0e0" stroke="#999999" points="458,-247.75 406,-247.75 406,-227 458,-227 458,-247.75"/>
<text text-anchor="middle" x="432" y="-234.25" font-family="Helvetica,sans-Serif" font-size="10.00">stdlib.h</text>
</a>
</g>
</g>
<!-- Node1&#45;&gt;Node14 -->
<g id="edge17_Node000001_Node000014" class="edge">
<title>Node1&#45;&gt;Node14</title>
<g id="a_edge17_Node000001_Node000014"><a xlink:title=" ">
<path fill="none" stroke="#63b8ff" d="M400.23,-396.88C406.59,-365.15 420.73,-294.59 427.8,-259.31"/>
<polygon fill="#63b8ff" stroke="#63b8ff" points="431.23,-260.02 429.76,-249.53 424.37,-258.64 431.23,-260.02"/>
</a>
</g>
</g>
<!-- Node15 -->
<g id="Node000015" class="node">
<title>Node15</title>
<g id="a_Node000015"><a xlink:title=" ">
<polygon fill="#e0e0e0" stroke="#999999" points="997.88,-304.5 924.12,-304.5 924.12,-283.75 997.88,-283.75 997.88,-304.5"/>
<text text-anchor="middle" x="961" y="-291" font-family="Helvetica,sans-Serif" font-size="10.00">liblwm2m.h</text>
</a>
</g>
</g>
<!-- Node1&#45;&gt;Node15 -->
<g id="edge20_Node000001_Node000015" class="edge">
<title>Node1&#45;&gt;Node15</title>
<g id="a_edge20_Node000001_Node000015"><a xlink:title=" ">
<path fill="none" stroke="#63b8ff" d="M458.81,-407.05C530.08,-399.49 650.47,-384.55 752,-361.25 813.33,-347.18 882.62,-323.7 924.01,-308.83"/>
<polygon fill="#63b8ff" stroke="#63b8ff" points="925.02,-312.19 933.23,-305.49 922.64,-305.61 925.02,-312.19"/>
</a>
</g>
</g>
<!-- Node16 -->
<g id="Node000016" class="node">
<title>Node16</title>
<g id="a_Node000016"><a xlink:href="credman_8h.html" target="_top" xlink:title="(D)TLS credentials management module definitions">
<polygon fill="white" stroke="#666666" points="114.25,-191 27.75,-191 27.75,-170.25 114.25,-170.25 114.25,-191"/>
<text text-anchor="middle" x="71" y="-177.5" font-family="Helvetica,sans-Serif" font-size="10.00">net/credman.h</text>
</a>
</g>
</g>
<!-- Node1&#45;&gt;Node16 -->
<g id="edge21_Node000001_Node000016" class="edge">
<title>Node1&#45;&gt;Node16</title>
<g id="a_edge21_Node000001_Node000016"><a xlink:title=" ">
<path fill="none" stroke="#63b8ff" d="M363.79,-396.87C310.74,-370.19 205.01,-313.29 128,-247.75 111.47,-233.68 95.59,-214.65 84.81,-200.62"/>
<polygon fill="#63b8ff" stroke="#63b8ff" points="87.63,-198.55 78.84,-192.64 82.03,-202.74 87.63,-198.55"/>
</a>
</g>
</g>
<!-- Node17 -->
<g id="Node000017" class="node">
<title>Node17</title>
<g id="a_Node000017"><a xlink:href="lwm2m__client_8h.html" target="_top" xlink:title="Definitions and public API for a LwM2M client using Wakaama.">
<polygon fill="white" stroke="#666666" points="743,-361.25 649,-361.25 649,-340.5 743,-340.5 743,-361.25"/>
<text text-anchor="middle" x="696" y="-347.75" font-family="Helvetica,sans-Serif" font-size="10.00">lwm2m_client.h</text>
</a>
</g>
</g>
<!-- Node1&#45;&gt;Node17 -->
<g id="edge24_Node000001_Node000017" class="edge">
<title>Node1&#45;&gt;Node17</title>
<g id="a_edge24_Node000001_Node000017"><a xlink:title=" ">
<path fill="none" stroke="#63b8ff" d="M458.95,-400.33C511.43,-389.61 586.13,-374.34 637.58,-363.82"/>
<polygon fill="#63b8ff" stroke="#63b8ff" points="638.25,-367.25 647.35,-361.82 636.85,-360.39 638.25,-367.25"/>
</a>
</g>
</g>
<!-- Node34 -->
<g id="Node000034" class="node">
<title>Node34</title>
<g id="a_Node000034"><a xlink:href="lwm2m__client__config_8h.html" target="_top" xlink:title="LwM2M client configurations.">
<polygon fill="white" stroke="#666666" points="1145.62,-304.5 1016.38,-304.5 1016.38,-283.75 1145.62,-283.75 1145.62,-304.5"/>
<text text-anchor="middle" x="1081" y="-291" font-family="Helvetica,sans-Serif" font-size="10.00">lwm2m_client_config.h</text>
</a>
</g>
</g>
<!-- Node1&#45;&gt;Node34 -->
<g id="edge63_Node000001_Node000034" class="edge">
<title>Node1&#45;&gt;Node34</title>
<g id="a_edge63_Node000001_Node000034"><a xlink:title=" ">
<path fill="none" stroke="#63b8ff" d="M459.03,-407.21C539.11,-399.27 682.6,-383.39 804,-361.25 885.74,-346.34 979.52,-322.51 1034.32,-307.9"/>
<polygon fill="#63b8ff" stroke="#63b8ff" points="1035.19,-311.29 1043.94,-305.32 1033.38,-304.53 1035.19,-311.29"/>
</a>
</g>
</g>
<!-- Node3 -->
<g id="Node000003" class="node">
<title>Node3</title>
<g id="a_Node000003"><a xlink:href="flash__utils_8h.html" target="_top" xlink:title="Utility functions, macros, and types for read&#45;only memory.">
<polygon fill="white" stroke="#666666" points="349.62,-247.75 274.38,-247.75 274.38,-227 349.62,-227 349.62,-247.75"/>
<text text-anchor="middle" x="312" y="-234.25" font-family="Helvetica,sans-Serif" font-size="10.00">flash_utils.h</text>
</a>
</g>
</g>
<!-- Node2&#45;&gt;Node3 -->
<g id="edge2_Node000002_Node000003" class="edge">
<title>Node2&#45;&gt;Node3</title>
<g id="a_edge2_Node000002_Node000003"><a xlink:title=" ">
<path fill="none" stroke="#63b8ff" d="M311.61,-283.34C309.61,-276.72 308.2,-267.72 307.72,-259.52"/>
<polygon fill="#63b8ff" stroke="#63b8ff" points="311.22,-259.6 307.76,-249.59 304.22,-259.58 311.22,-259.6"/>
</a>
</g>
</g>
<!-- Node3&#45;&gt;Node2 -->
<g id="edge3_Node000003_Node000002" class="edge">
<title>Node3&#45;&gt;Node2</title>
<g id="a_edge3_Node000003_Node000002"><a xlink:title=" ">
<path fill="none" stroke="#63b8ff" d="M318.36,-248.08C320.37,-254.68 321.78,-263.66 322.27,-271.88"/>
<polygon fill="#63b8ff" stroke="#63b8ff" points="318.77,-271.82 322.25,-281.82 325.77,-271.83 318.77,-271.82"/>
</a>
</g>
</g>
<!-- Node3&#45;&gt;Node4 -->
<g id="edge4_Node000003_Node000004" class="edge">
<title>Node3&#45;&gt;Node4</title>
<g id="a_edge4_Node000003_Node000004"><a xlink:title=" ">
<path fill="none" stroke="#63b8ff" d="M324.98,-226.71C335.7,-218.22 350.77,-205.06 361,-191 384.78,-158.32 402.32,-114.13 411.28,-88.62"/>
<polygon fill="#63b8ff" stroke="#63b8ff" points="414.59,-89.76 414.5,-79.17 407.97,-87.51 414.59,-89.76"/>
</a>
</g>
</g>
<!-- Node5 -->
<g id="Node000005" class="node">
<title>Node5</title>
<g id="a_Node000005"><a xlink:title=" ">
<polygon fill="#e0e0e0" stroke="#999999" points="237.88,-191 170.12,-191 170.12,-170.25 237.88,-170.25 237.88,-191"/>
<text text-anchor="middle" x="204" y="-177.5" font-family="Helvetica,sans-Serif" font-size="10.00">cpu_conf.h</text>
</a>
</g>
</g>
<!-- Node3&#45;&gt;Node5 -->
<g id="edge5_Node000003_Node000005" class="edge">
<title>Node3&#45;&gt;Node5</title>
<g id="a_edge5_Node000003_Node000005"><a xlink:title=" ">
<path fill="none" stroke="#63b8ff" d="M292.69,-226.59C276.18,-218.22 252.17,-206.04 233.29,-196.47"/>
<polygon fill="#63b8ff" stroke="#63b8ff" points="234.99,-193.41 224.49,-192.01 231.83,-199.66 234.99,-193.41"/>
</a>
</g>
</g>
<!-- Node6 -->
<g id="Node000006" class="node">
<title>Node6</title>
<g id="a_Node000006"><a xlink:href="kernel__defines_8h.html" target="_top" xlink:title="Common macros and compiler attributes/pragmas configuration.">
<polygon fill="white" stroke="#666666" points="352.12,-191 255.88,-191 255.88,-170.25 352.12,-170.25 352.12,-191"/>
<text text-anchor="middle" x="304" y="-177.5" font-family="Helvetica,sans-Serif" font-size="10.00">kernel_defines.h</text>
</a>
</g>
</g>
<!-- Node3&#45;&gt;Node6 -->
<g id="edge6_Node000003_Node000006" class="edge">
<title>Node3&#45;&gt;Node6</title>
<g id="a_edge6_Node000003_Node000006"><a xlink:title=" ">
<path fill="none" stroke="#63b8ff" d="M310.57,-226.59C309.59,-219.89 308.26,-210.76 307.05,-202.48"/>
<polygon fill="#63b8ff" stroke="#63b8ff" points="310.55,-202.21 305.64,-192.83 303.62,-203.23 310.55,-202.21"/>
</a>
</g>
</g>
<!-- Node7 -->
<g id="Node000007" class="node">
<title>Node7</title>
<g id="a_Node000007"><a xlink:href="modules_8h.html" target="_top" xlink:title="Common macros and compiler attributes/pragmas configuration.">
<polygon fill="white" stroke="#666666" points="133.5,-134.25 66.5,-134.25 66.5,-113.5 133.5,-113.5 133.5,-134.25"/>
<text text-anchor="middle" x="100" y="-120.75" font-family="Helvetica,sans-Serif" font-size="10.00">modules.h</text>
</a>
</g>
</g>
<!-- Node6&#45;&gt;Node7 -->
<g id="edge7_Node000006_Node000007" class="edge">
<title>Node6&#45;&gt;Node7</title>
<g id="a_edge7_Node000006_Node000007"><a xlink:title=" ">
<path fill="none" stroke="#63b8ff" d="M267.53,-169.84C233.15,-160.61 181.55,-146.76 144.71,-136.87"/>
<polygon fill="#63b8ff" stroke="#63b8ff" points="145.81,-133.55 135.25,-134.33 144,-140.31 145.81,-133.55"/>
</a>
</g>
</g>
<!-- Node8 -->
<g id="Node000008" class="node">
<title>Node8</title>
<g id="a_Node000008"><a xlink:href="riot__version_8h.html" target="_top" xlink:title="Common macros and compiler attributes/pragmas configuration.">
<polygon fill="white" stroke="#666666" points="373.38,-77.5 290.62,-77.5 290.62,-56.75 373.38,-56.75 373.38,-77.5"/>
<text text-anchor="middle" x="332" y="-64" font-family="Helvetica,sans-Serif" font-size="10.00">riot_version.h</text>
</a>
</g>
</g>
<!-- Node6&#45;&gt;Node8 -->
<g id="edge8_Node000006_Node000008" class="edge">
<title>Node6&#45;&gt;Node8</title>
<g id="a_edge8_Node000006_Node000008"><a xlink:title=" ">
<path fill="none" stroke="#63b8ff" d="M306.39,-170.12C310.87,-152.27 320.64,-113.36 326.73,-89.09"/>
<polygon fill="#63b8ff" stroke="#63b8ff" points="330.13,-89.94 329.17,-79.39 323.34,-88.24 330.13,-89.94"/>
</a>
</g>
</g>
<!-- Node10 -->
<g id="Node000010" class="node">
<title>Node10</title>
<g id="a_Node000010"><a xlink:href="compiler__hints_8h.html" target="_top" xlink:title="Common macros and compiler attributes/pragmas configuration.">
<polygon fill="white" stroke="#666666" points="303.5,-134.25 206.5,-134.25 206.5,-113.5 303.5,-113.5 303.5,-134.25"/>
<text text-anchor="middle" x="255" y="-120.75" font-family="Helvetica,sans-Serif" font-size="10.00">compiler_hints.h</text>
</a>
</g>
</g>
<!-- Node6&#45;&gt;Node10 -->
<g id="edge10_Node000006_Node000010" class="edge">
<title>Node6&#45;&gt;Node10</title>
<g id="a_edge10_Node000006_Node000010"><a xlink:title=" ">
<path fill="none" stroke="#63b8ff" d="M295.24,-169.84C288.55,-162.36 279.15,-151.86 271.11,-142.88"/>
<polygon fill="#63b8ff" stroke="#63b8ff" points="273.97,-140.82 264.69,-135.71 268.75,-145.49 273.97,-140.82"/>
</a>
</g>
</g>
<!-- Node12 -->
<g id="Node000012" class="node">
<title>Node12</title>
<g id="a_Node000012"><a xlink:href="container_8h.html" target="_top" xlink:title="Common macros and compiler attributes/pragmas configuration.">
<polygon fill="white" stroke="#666666" points="683.38,-134.25 612.62,-134.25 612.62,-113.5 683.38,-113.5 683.38,-134.25"/>
<text text-anchor="middle" x="648" y="-120.75" font-family="Helvetica,sans-Serif" font-size="10.00">container.h</text>
</a>
</g>
</g>
<!-- Node6&#45;&gt;Node12 -->
<g id="edge14_Node000006_Node000012" class="edge">
<title>Node6&#45;&gt;Node12</title>
<g id="a_edge14_Node000006_Node000012"><a xlink:title=" ">
<path fill="none" stroke="#63b8ff" d="M352.56,-173.09C409.57,-165.23 507.23,-151.2 601.05,-134.52"/>
<polygon fill="#63b8ff" stroke="#63b8ff" points="601.46,-138 610.68,-132.79 600.22,-131.11 601.46,-138"/>
</a>
</g>
</g>
<!-- Node9 -->
<g id="Node000009" class="node">
<title>Node9</title>
<g id="a_Node000009"><a xlink:title=" ">
<polygon fill="#e0e0e0" stroke="#999999" points="590.38,-20.75 537.62,-20.75 537.62,0 590.38,0 590.38,-20.75"/>
<text text-anchor="middle" x="564" y="-7.25" font-family="Helvetica,sans-Serif" font-size="10.00">stdint.h</text>
</a>
</g>
</g>
<!-- Node8&#45;&gt;Node9 -->
<g id="edge9_Node000008_Node000009" class="edge">
<title>Node8&#45;&gt;Node9</title>
<g id="a_edge9_Node000008_Node000009"><a xlink:title=" ">
<path fill="none" stroke="#63b8ff" d="M373.74,-56.27C417.15,-46.03 484.49,-30.14 526.32,-20.27"/>
<polygon fill="#63b8ff" stroke="#63b8ff" points="527,-23.7 535.93,-18 525.39,-16.89 527,-23.7"/>
</a>
</g>
</g>
<!-- Node10&#45;&gt;Node9 -->
<g id="edge13_Node000010_Node000009" class="edge">
<title>Node10&#45;&gt;Node9</title>
<g id="a_edge13_Node000010_Node000009"><a xlink:title=" ">
<path fill="none" stroke="#63b8ff" d="M256.03,-113.01C258.14,-98.29 264.33,-70.79 282,-56.75 319.09,-27.29 457.85,-16.53 525.9,-12.97"/>
<polygon fill="#63b8ff" stroke="#63b8ff" points="526.02,-16.46 535.84,-12.47 525.68,-9.47 526.02,-16.46"/>
</a>
</g>
</g>
<!-- Node10&#45;&gt;Node11 -->
<g id="edge11_Node000010_Node000011" class="edge">
<title>Node10&#45;&gt;Node11</title>
<g id="a_edge11_Node000010_Node000011"><a xlink:title=" ">
<path fill="none" stroke="#63b8ff" d="M241.77,-113.09C231.04,-105.15 215.68,-93.78 203.08,-84.46"/>
<polygon fill="#63b8ff" stroke="#63b8ff" points="205.45,-81.86 195.33,-78.73 201.29,-87.49 205.45,-81.86"/>
</a>
</g>
</g>
<!-- Node11&#45;&gt;Node9 -->
<g id="edge12_Node000011_Node000009" class="edge">
<title>Node11&#45;&gt;Node9</title>
<g id="a_edge12_Node000011_Node000009"><a xlink:title=" ">
<path fill="none" stroke="#63b8ff" d="M208.72,-62.04C219.98,-60.39 233.11,-58.47 245,-56.75 346.73,-42.06 466.77,-25.08 526.43,-16.67"/>
<polygon fill="#63b8ff" stroke="#63b8ff" points="526.62,-20.18 536.03,-15.31 525.64,-13.24 526.62,-20.18"/>
</a>
</g>
</g>
<!-- Node12&#45;&gt;Node9 -->
<g id="edge16_Node000012_Node000009" class="edge">
<title>Node12&#45;&gt;Node9</title>
<g id="a_edge16_Node000012_Node000009"><a xlink:title=" ">
<path fill="none" stroke="#63b8ff" d="M653.52,-113.08C660.42,-99.4 670.05,-74.27 659,-56.75 646.41,-36.79 622.36,-25.42 601.61,-19.06"/>
<polygon fill="#63b8ff" stroke="#63b8ff" points="602.55,-15.68 591.98,-16.41 600.69,-22.43 602.55,-15.68"/>
</a>
</g>
</g>
<!-- Node13 -->
<g id="Node000013" class="node">
<title>Node13</title>
<g id="a_Node000013"><a xlink:title=" ">
<polygon fill="#e0e0e0" stroke="#999999" points="838.5,-77.5 783.5,-77.5 783.5,-56.75 838.5,-56.75 838.5,-77.5"/>
<text text-anchor="middle" x="811" y="-64" font-family="Helvetica,sans-Serif" font-size="10.00">stddef.h</text>
</a>
</g>
</g>
<!-- Node12&#45;&gt;Node13 -->
<g id="edge15_Node000012_Node000013" class="edge">
<title>Node12&#45;&gt;Node13</title>
<g id="a_edge15_Node000012_Node000013"><a xlink:title=" ">
<path fill="none" stroke="#63b8ff" d="M677.14,-113.09C703.77,-104.14 743.34,-90.85 772.56,-81.04"/>
<polygon fill="#63b8ff" stroke="#63b8ff" points="773.4,-84.45 781.76,-77.94 771.17,-77.81 773.4,-84.45"/>
</a>
</g>
</g>
<!-- Node16&#45;&gt;Node7 -->
<g id="edge23_Node000016_Node000007" class="edge">
<title>Node16&#45;&gt;Node7</title>
<g id="a_edge23_Node000016_Node000007"><a xlink:title=" ">
<path fill="none" stroke="#63b8ff" d="M76.18,-169.84C79.9,-162.83 85.02,-153.16 89.56,-144.58"/>
<polygon fill="#63b8ff" stroke="#63b8ff" points="92.56,-146.39 94.15,-135.92 86.38,-143.11 92.56,-146.39"/>
</a>
</g>
</g>
<!-- Node16&#45;&gt;Node9 -->
<g id="edge22_Node000016_Node000009" class="edge">
<title>Node16&#45;&gt;Node9</title>
<g id="a_edge22_Node000016_Node000009"><a xlink:title=" ">
<path fill="none" stroke="#63b8ff" d="M65.12,-170.06C57.71,-156.66 47.05,-131.87 57,-113.5 78.99,-72.91 100.52,-72.27 144,-56.75 213.99,-31.77 436.36,-17.91 526,-13.21"/>
<polygon fill="#63b8ff" stroke="#63b8ff" points="525.93,-16.72 535.74,-12.71 525.57,-9.73 525.93,-16.72"/>
</a>
</g>
</g>
<!-- Node17&#45;&gt;Node2 -->
<g id="edge27_Node000017_Node000002" class="edge">
<title>Node17&#45;&gt;Node2</title>
<g id="a_edge27_Node000017_Node000002"><a xlink:title=" ">
<path fill="none" stroke="#63b8ff" d="M648.51,-343C571.84,-331.89 422.5,-310.26 353.95,-300.33"/>
<polygon fill="#63b8ff" stroke="#63b8ff" points="354.8,-296.92 344.4,-298.95 353.79,-303.85 354.8,-296.92"/>
</a>
</g>
</g>
<!-- Node17&#45;&gt;Node4 -->
<g id="edge29_Node000017_Node000004" class="edge">
<title>Node17&#45;&gt;Node4</title>
<g id="a_edge29_Node000017_Node000004"><a xlink:title=" ">
<path fill="none" stroke="#63b8ff" d="M658.06,-340.01C632.43,-332.43 598.4,-320.53 571,-304.5 537.61,-284.97 528.59,-278.41 505,-247.75 465.31,-196.16 437.02,-123.56 424.77,-88.57"/>
<polygon fill="#63b8ff" stroke="#63b8ff" points="428.15,-87.62 421.61,-79.29 421.52,-89.88 428.15,-87.62"/>
</a>
</g>
</g>
<!-- Node17&#45;&gt;Node14 -->
<g id="edge28_Node000017_Node000014" class="edge">
<title>Node17&#45;&gt;Node14</title>
<g id="a_edge28_Node000017_Node000014"><a xlink:title=" ">
<path fill="none" stroke="#63b8ff" d="M648.79,-349.91C601.86,-347.81 529.6,-338.61 478,-304.5 461.08,-293.32 448.57,-273.58 440.9,-258.57"/>
<polygon fill="#63b8ff" stroke="#63b8ff" points="444.09,-257.13 436.64,-249.61 437.77,-260.14 444.09,-257.13"/>
</a>
</g>
</g>
<!-- Node17&#45;&gt;Node15 -->
<g id="edge62_Node000017_Node000015" class="edge">
<title>Node17&#45;&gt;Node15</title>
<g id="a_edge62_Node000017_Node000015"><a xlink:title=" ">
<path fill="none" stroke="#63b8ff" d="M743.38,-340.09C791.2,-330.21 864.69,-315.02 912.8,-305.08"/>
<polygon fill="#63b8ff" stroke="#63b8ff" points="913.29,-308.56 922.38,-303.1 911.87,-301.7 913.29,-308.56"/>
</a>
</g>
</g>
<!-- Node18 -->
<g id="Node000018" class="node">
<title>Node18</title>
<g id="a_Node000018"><a xlink:title=" ">
<polygon fill="#e0e0e0" stroke="#999999" points="814,-304.5 762,-304.5 762,-283.75 814,-283.75 814,-304.5"/>
<text text-anchor="middle" x="788" y="-291" font-family="Helvetica,sans-Serif" font-size="10.00">ctype.h</text>
</a>
</g>
</g>
<!-- Node17&#45;&gt;Node18 -->
<g id="edge25_Node000017_Node000018" class="edge">
<title>Node17&#45;&gt;Node18</title>
<g id="a_edge25_Node000017_Node000018"><a xlink:title=" ">
<path fill="none" stroke="#63b8ff" d="M712.45,-340.09C726.18,-331.91 746.02,-320.11 761.92,-310.65"/>
<polygon fill="#63b8ff" stroke="#63b8ff" points="763.59,-313.72 770.39,-305.6 760.01,-307.71 763.59,-313.72"/>
</a>
</g>
</g>
<!-- Node19 -->
<g id="Node000019" class="node">
<title>Node19</title>
<g id="a_Node000019"><a xlink:href="errno_8h.html" target="_top" xlink:title=" ">
<polygon fill="white" stroke="#666666" points="971.25,-247.75 920.75,-247.75 920.75,-227 971.25,-227 971.25,-247.75"/>
<text text-anchor="middle" x="946" y="-234.25" font-family="Helvetica,sans-Serif" font-size="10.00">errno.h</text>
</a>
</g>
</g>
<!-- Node17&#45;&gt;Node19 -->
<g id="edge26_Node000017_Node000019" class="edge">
<title>Node17&#45;&gt;Node19</title>
<g id="a_edge26_Node000017_Node000019"><a xlink:title=" ">
<path fill="none" stroke="#63b8ff" d="M696.62,-340.11C698.09,-325.51 703.09,-298.18 720,-283.75 784.38,-228.81 824.28,-265.65 907,-247.75 907.82,-247.57 908.64,-247.39 909.47,-247.21"/>
<polygon fill="#63b8ff" stroke="#63b8ff" points="910,-250.68 918.97,-245.03 908.44,-243.86 910,-250.68"/>
</a>
</g>
</g>
<!-- Node20 -->
<g id="Node000020" class="node">
<title>Node20</title>
<g id="a_Node000020"><a xlink:title=" ">
<polygon fill="#e0e0e0" stroke="#999999" points="1060.75,-247.75 989.25,-247.75 989.25,-227 1060.75,-227 1060.75,-247.75"/>
<text text-anchor="middle" x="1025" y="-234.25" font-family="Helvetica,sans-Serif" font-size="10.00">sys/types.h</text>
</a>
</g>
</g>
<!-- Node17&#45;&gt;Node20 -->
<g id="edge30_Node000017_Node000020" class="edge">
<title>Node17&#45;&gt;Node20</title>
<g id="a_edge30_Node000017_Node000020"><a xlink:title=" ">
<path fill="none" stroke="#63b8ff" d="M701.21,-340.35C709.85,-325.55 728.64,-297.32 753,-283.75 839.1,-235.78 876.84,-264.01 977.87,-247.94"/>
<polygon fill="#63b8ff" stroke="#63b8ff" points="978.41,-251.4 987.68,-246.26 977.23,-244.5 978.41,-251.4"/>
</a>
</g>
</g>
<!-- Node21 -->
<g id="Node000021" class="node">
<title>Node21</title>
<g id="a_Node000021"><a xlink:href="pm_8h.html" target="_top" xlink:title="Power management interface.">
<polygon fill="white" stroke="#666666" points="906.25,-304.5 831.75,-304.5 831.75,-283.75 906.25,-283.75 906.25,-304.5"/>
<text text-anchor="middle" x="869" y="-291" font-family="Helvetica,sans-Serif" font-size="10.00">periph/pm.h</text>
</a>
</g>
</g>
<!-- Node17&#45;&gt;Node21 -->
<g id="edge31_Node000017_Node000021" class="edge">
<title>Node17&#45;&gt;Node21</title>
<g id="a_edge31_Node000017_Node000021"><a xlink:title=" ">
<path fill="none" stroke="#63b8ff" d="M726.93,-340.09C754.89,-331.24 796.28,-318.14 827.18,-308.36"/>
<polygon fill="#63b8ff" stroke="#63b8ff" points="828.13,-311.73 836.6,-305.38 826.01,-305.06 828.13,-311.73"/>
</a>
</g>
</g>
<!-- Node23 -->
<g id="Node000023" class="node">
<title>Node23</title>
<g id="a_Node000023"><a xlink:href="sock_2udp_8h.html" target="_top" xlink:title="UDP sock definitions.">
<polygon fill="white" stroke="#666666" points="667.62,-304.5 580.38,-304.5 580.38,-283.75 667.62,-283.75 667.62,-304.5"/>
<text text-anchor="middle" x="624" y="-291" font-family="Helvetica,sans-Serif" font-size="10.00">net/sock/udp.h</text>
</a>
</g>
</g>
<!-- Node17&#45;&gt;Node23 -->
<g id="edge33_Node000017_Node000023" class="edge">
<title>Node17&#45;&gt;Node23</title>
<g id="a_edge33_Node000017_Node000023"><a xlink:title=" ">
<path fill="none" stroke="#63b8ff" d="M683.13,-340.09C672.79,-332.22 658.03,-321 645.85,-311.74"/>
<polygon fill="#63b8ff" stroke="#63b8ff" points="648.04,-309.01 637.97,-305.74 643.81,-314.58 648.04,-309.01"/>
</a>
</g>
</g>
<!-- Node17&#45;&gt;Node34 -->
<g id="edge61_Node000017_Node000034" class="edge">
<title>Node17&#45;&gt;Node34</title>
<g id="a_edge61_Node000017_Node000034"><a xlink:title=" ">
<path fill="none" stroke="#63b8ff" d="M743.21,-343.16C808.47,-333.88 926.99,-317.03 1004.86,-305.95"/>
<polygon fill="#63b8ff" stroke="#63b8ff" points="1005.14,-309.45 1014.55,-304.58 1004.15,-302.52 1005.14,-309.45"/>
</a>
</g>
</g>
<!-- Node22 -->
<g id="Node000022" class="node">
<title>Node22</title>
<g id="a_Node000022"><a xlink:title=" ">
<polygon fill="#e0e0e0" stroke="#999999" points="1157.12,-247.75 1078.88,-247.75 1078.88,-227 1157.12,-227 1157.12,-247.75"/>
<text text-anchor="middle" x="1118" y="-234.25" font-family="Helvetica,sans-Serif" font-size="10.00">periph_cpu.h</text>
</a>
</g>
</g>
<!-- Node21&#45;&gt;Node22 -->
<g id="edge32_Node000021_Node000022" class="edge">
<title>Node21&#45;&gt;Node22</title>
<g id="a_edge32_Node000021_Node000022"><a xlink:title=" ">
<path fill="none" stroke="#63b8ff" d="M906.55,-284.87C949.44,-275.44 1019.83,-259.96 1067.5,-249.48"/>
<polygon fill="#63b8ff" stroke="#63b8ff" points="1068.01,-252.95 1077.02,-247.39 1066.5,-246.11 1068.01,-252.95"/>
</a>
</g>
</g>
<!-- Node23&#45;&gt;Node9 -->
<g id="edge36_Node000023_Node000009" class="edge">
<title>Node23&#45;&gt;Node9</title>
<g id="a_edge36_Node000023_Node000009"><a xlink:title=" ">
<path fill="none" stroke="#63b8ff" d="M667.87,-285.5C712.56,-277.08 778.17,-262.73 799,-247.75 870.15,-196.59 904.87,-123.43 848,-56.75 816.83,-20.21 672.14,-12.96 602.14,-11.62"/>
<polygon fill="#63b8ff" stroke="#63b8ff" points="602.34,-8.12 592.29,-11.46 602.23,-15.12 602.34,-8.12"/>
</a>
</g>
</g>
<!-- Node23&#45;&gt;Node11 -->
<g id="edge34_Node000023_Node000011" class="edge">
<title>Node23&#45;&gt;Node11</title>
<g id="a_edge34_Node000023_Node000011"><a xlink:title=" ">
<path fill="none" stroke="#63b8ff" d="M580.04,-292.79C511.21,-291.12 374.54,-283.16 265,-247.75 214.9,-231.56 187.88,-236.28 161,-191 141.78,-158.62 157.98,-113.4 170.3,-87.82"/>
<polygon fill="#63b8ff" stroke="#63b8ff" points="173.27,-89.7 174.69,-79.2 167.03,-86.52 173.27,-89.7"/>
</a>
</g>
</g>
<!-- Node23&#45;&gt;Node14 -->
<g id="edge37_Node000023_Node000014" class="edge">
<title>Node23&#45;&gt;Node14</title>
<g id="a_edge37_Node000023_Node000014"><a xlink:title=" ">
<path fill="none" stroke="#63b8ff" d="M589.67,-283.34C555.71,-273.65 503.87,-258.87 469,-248.93"/>
<polygon fill="#63b8ff" stroke="#63b8ff" points="470.35,-245.67 459.78,-246.3 468.43,-252.4 470.35,-245.67"/>
</a>
</g>
</g>
<!-- Node23&#45;&gt;Node19 -->
<g id="edge35_Node000023_Node000019" class="edge">
<title>Node23&#45;&gt;Node19</title>
<g id="a_edge35_Node000023_Node000019"><a xlink:title=" ">
<path fill="none" stroke="#63b8ff" d="M668.02,-286C672.74,-285.24 677.47,-284.48 682,-283.75 781.99,-267.67 807.69,-267.6 907,-247.75 907.82,-247.59 908.65,-247.42 909.48,-247.24"/>
<polygon fill="#63b8ff" stroke="#63b8ff" points="909.98,-250.72 918.99,-245.14 908.47,-243.88 909.98,-250.72"/>
</a>
</g>
</g>
<!-- Node23&#45;&gt;Node20 -->
<g id="edge38_Node000023_Node000020" class="edge">
<title>Node23&#45;&gt;Node20</title>
<g id="a_edge38_Node000023_Node000020"><a xlink:title=" ">
<path fill="none" stroke="#63b8ff" d="M668.01,-288.64C733.37,-281.74 860.19,-267.4 978.17,-247.94"/>
<polygon fill="#63b8ff" stroke="#63b8ff" points="978.41,-251.45 987.69,-246.35 977.25,-244.54 978.41,-251.45"/>
</a>
</g>
</g>
<!-- Node24 -->
<g id="Node000024" class="node">
<title>Node24</title>
<g id="a_Node000024"><a xlink:href="af_8h.html" target="_top" xlink:title="Global UNIX address family definitions.">
<polygon fill="white" stroke="#666666" points="566.38,-247.75 513.62,-247.75 513.62,-227 566.38,-227 566.38,-247.75"/>
<text text-anchor="middle" x="540" y="-234.25" font-family="Helvetica,sans-Serif" font-size="10.00">net/af.h</text>
</a>
</g>
</g>
<!-- Node23&#45;&gt;Node24 -->
<g id="edge39_Node000023_Node000024" class="edge">
<title>Node23&#45;&gt;Node24</title>
<g id="a_edge39_Node000023_Node000024"><a xlink:title=" ">
<path fill="none" stroke="#63b8ff" d="M608.98,-283.34C596.56,-275.24 578.68,-263.58 564.23,-254.17"/>
<polygon fill="#63b8ff" stroke="#63b8ff" points="566.44,-251.43 556.16,-248.9 562.62,-257.3 566.44,-251.43"/>
</a>
</g>
</g>
<!-- Node25 -->
<g id="Node000025" class="node">
<title>Node25</title>
<g id="a_Node000025"><a xlink:href="sock_8h.html" target="_top" xlink:title="Common sock API definitions.">
<polygon fill="white" stroke="#666666" points="961.12,-134.25 894.88,-134.25 894.88,-113.5 961.12,-113.5 961.12,-134.25"/>
<text text-anchor="middle" x="928" y="-120.75" font-family="Helvetica,sans-Serif" font-size="10.00">net/sock.h</text>
</a>
</g>
</g>
<!-- Node23&#45;&gt;Node25 -->
<g id="edge40_Node000023_Node000025" class="edge">
<title>Node23&#45;&gt;Node25</title>
<g id="a_edge40_Node000023_Node000025"><a xlink:title=" ">
<path fill="none" stroke="#63b8ff" d="M668.03,-287.17C734.19,-277.89 853.24,-259.81 869,-247.75 902.08,-222.44 917.57,-173.83 924.01,-145.94"/>
<polygon fill="#63b8ff" stroke="#63b8ff" points="927.42,-146.73 926.05,-136.22 920.57,-145.29 927.42,-146.73"/>
</a>
</g>
</g>
<!-- Node27 -->
<g id="Node000027" class="node">
<title>Node27</title>
<g id="a_Node000027"><a xlink:href="ipv4_2addr_8h.html" target="_top" xlink:title="IPv4 address type and helper functions definitions.">
<polygon fill="white" stroke="#666666" points="826.75,-191 737.25,-191 737.25,-170.25 826.75,-170.25 826.75,-191"/>
<text text-anchor="middle" x="782" y="-177.5" font-family="Helvetica,sans-Serif" font-size="10.00">net/ipv4/addr.h</text>
</a>
</g>
</g>
<!-- Node23&#45;&gt;Node27 -->
<g id="edge44_Node000023_Node000027" class="edge">
<title>Node23&#45;&gt;Node27</title>
<g id="a_edge44_Node000023_Node000027"><a xlink:title=" ">
<path fill="none" stroke="#63b8ff" d="M667.86,-286.38C709.34,-279 767.22,-265.79 781,-247.75 790.7,-235.05 790.15,-216.6 787.62,-202.42"/>
<polygon fill="#63b8ff" stroke="#63b8ff" points="791.06,-201.76 785.44,-192.78 784.23,-203.31 791.06,-201.76"/>
</a>
</g>
</g>
<!-- Node32 -->
<g id="Node000032" class="node">
<title>Node32</title>
<g id="a_Node000032"><a xlink:href="ipv6_2addr_8h.html" target="_top" xlink:title="Definitions for IPv6 addresses.">
<polygon fill="white" stroke="#666666" points="771.75,-247.75 682.25,-247.75 682.25,-227 771.75,-227 771.75,-247.75"/>
<text text-anchor="middle" x="727" y="-234.25" font-family="Helvetica,sans-Serif" font-size="10.00">net/ipv6/addr.h</text>
</a>
</g>
</g>
<!-- Node23&#45;&gt;Node32 -->
<g id="edge55_Node000023_Node000032" class="edge">
<title>Node23&#45;&gt;Node32</title>
<g id="a_edge55_Node000023_Node000032"><a xlink:title=" ">
<path fill="none" stroke="#63b8ff" d="M642.41,-283.34C658.09,-275.01 680.85,-262.91 698.81,-253.36"/>
<polygon fill="#63b8ff" stroke="#63b8ff" points="700.22,-256.57 707.41,-248.79 696.94,-250.39 700.22,-256.57"/>
</a>
</g>
</g>
<!-- Node33 -->
<g id="Node000033" class="node">
<title>Node33</title>
<g id="a_Node000033"><a xlink:title=" ">
<polygon fill="#e0e0e0" stroke="#999999" points="663.88,-247.75 584.12,-247.75 584.12,-227 663.88,-227 663.88,-247.75"/>
<text text-anchor="middle" x="624" y="-234.25" font-family="Helvetica,sans-Serif" font-size="10.00">sock_types.h</text>
</a>
</g>
</g>
<!-- Node23&#45;&gt;Node33 -->
<g id="edge60_Node000023_Node000033" class="edge">
<title>Node23&#45;&gt;Node33</title>
<g id="a_edge60_Node000023_Node000033"><a xlink:title=" ">
<path fill="none" stroke="#63b8ff" d="M624,-283.34C624,-276.72 624,-267.72 624,-259.52"/>
<polygon fill="#63b8ff" stroke="#63b8ff" points="627.5,-259.59 624,-249.59 620.5,-259.59 627.5,-259.59"/>
</a>
</g>
</g>
<!-- Node25&#45;&gt;Node9 -->
<g id="edge41_Node000025_Node000009" class="edge">
<title>Node25&#45;&gt;Node9</title>
<g id="a_edge41_Node000025_Node000009"><a xlink:title=" ">
<path fill="none" stroke="#63b8ff" d="M924.19,-113.33C917.73,-98.5 903.13,-70.24 881,-56.75 834.8,-28.58 675.57,-17.01 601.92,-13.09"/>
<polygon fill="#63b8ff" stroke="#63b8ff" points="602.12,-9.6 591.96,-12.58 601.77,-16.59 602.12,-9.6"/>
</a>
</g>
</g>
<!-- Node25&#45;&gt;Node13 -->
<g id="edge42_Node000025_Node000013" class="edge">
<title>Node25&#45;&gt;Node13</title>
<g id="a_edge42_Node000025_Node000013"><a xlink:title=" ">
<path fill="none" stroke="#63b8ff" d="M907.08,-113.09C889.03,-104.64 862.7,-92.32 842.16,-82.71"/>
<polygon fill="#63b8ff" stroke="#63b8ff" points="843.65,-79.54 833.11,-78.47 840.68,-85.88 843.65,-79.54"/>
</a>
</g>
</g>
<!-- Node26 -->
<g id="Node000026" class="node">
<title>Node26</title>
<g id="a_Node000026"><a xlink:href="iolist_8h.html" target="_top" xlink:title="iolist scatter / gather IO">
<polygon fill="white" stroke="#666666" points="982.5,-77.5 933.5,-77.5 933.5,-56.75 982.5,-56.75 982.5,-77.5"/>
<text text-anchor="middle" x="958" y="-64" font-family="Helvetica,sans-Serif" font-size="10.00">iolist.h</text>
</a>
</g>
</g>
<!-- Node25&#45;&gt;Node26 -->
<g id="edge43_Node000025_Node000026" class="edge">
<title>Node25&#45;&gt;Node26</title>
<g id="a_edge43_Node000025_Node000026"><a xlink:title=" ">
<path fill="none" stroke="#63b8ff" d="M933.36,-113.09C937.2,-106.08 942.5,-96.41 947.2,-87.83"/>
<polygon fill="#63b8ff" stroke="#63b8ff" points="950.22,-89.61 951.96,-79.16 944.08,-86.24 950.22,-89.61"/>
</a>
</g>
</g>
<!-- Node27&#45;&gt;Node9 -->
<g id="edge46_Node000027_Node000009" class="edge">
<title>Node27&#45;&gt;Node9</title>
<g id="a_edge46_Node000027_Node000009"><a xlink:title=" ">
<path fill="none" stroke="#63b8ff" d="M782.97,-170.18C783.88,-156.48 783.69,-130.83 772,-113.5 732.72,-55.27 650.26,-28.96 601.8,-18.12"/>
<polygon fill="#63b8ff" stroke="#63b8ff" points="602.53,-14.7 592.03,-16.06 601.09,-21.55 602.53,-14.7"/>
</a>
</g>
</g>
<!-- Node27&#45;&gt;Node13 -->
<g id="edge47_Node000027_Node000013" class="edge">
<title>Node27&#45;&gt;Node13</title>
<g id="a_edge47_Node000027_Node000013"><a xlink:title=" ">
<path fill="none" stroke="#63b8ff" d="M788.26,-169.98C793.68,-161.09 801.24,-147.32 805,-134.25 809.25,-119.47 810.7,-102.15 811.11,-88.94"/>
<polygon fill="#63b8ff" stroke="#63b8ff" points="814.61,-89.31 811.23,-79.26 807.61,-89.22 814.61,-89.31"/>
</a>
</g>
</g>
<!-- Node28 -->
<g id="Node000028" class="node">
<title>Node28</title>
<g id="a_Node000028"><a xlink:title=" ">
<polygon fill="#e0e0e0" stroke="#999999" points="762.5,-134.25 701.5,-134.25 701.5,-113.5 762.5,-113.5 762.5,-134.25"/>
<text text-anchor="middle" x="732" y="-120.75" font-family="Helvetica,sans-Serif" font-size="10.00">stdbool.h</text>
</a>
</g>
</g>
<!-- Node27&#45;&gt;Node28 -->
<g id="edge45_Node000027_Node000028" class="edge">
<title>Node27&#45;&gt;Node28</title>
<g id="a_edge45_Node000027_Node000028"><a xlink:title=" ">
<path fill="none" stroke="#63b8ff" d="M773.06,-169.84C766.24,-162.36 756.64,-151.86 748.44,-142.88"/>
<polygon fill="#63b8ff" stroke="#63b8ff" points="751.21,-140.72 741.88,-135.7 746.04,-145.44 751.21,-140.72"/>
</a>
</g>
</g>
<!-- Node29 -->
<g id="Node000029" class="node">
<title>Node29</title>
<g id="a_Node000029"><a xlink:href="byteorder_8h.html" target="_top" xlink:title="Functions to work with different byte orders.">
<polygon fill="white" stroke="#666666" points="594.12,-134.25 521.88,-134.25 521.88,-113.5 594.12,-113.5 594.12,-134.25"/>
<text text-anchor="middle" x="558" y="-120.75" font-family="Helvetica,sans-Serif" font-size="10.00">byteorder.h</text>
</a>
</g>
</g>
<!-- Node27&#45;&gt;Node29 -->
<g id="edge48_Node000027_Node000029" class="edge">
<title>Node27&#45;&gt;Node29</title>
<g id="a_edge48_Node000027_Node000029"><a xlink:title=" ">
<path fill="none" stroke="#63b8ff" d="M741.69,-169.77C703.35,-160.4 645.68,-146.31 605.21,-136.41"/>
<polygon fill="#63b8ff" stroke="#63b8ff" points="606.29,-133.08 595.75,-134.1 604.63,-139.88 606.29,-133.08"/>
</a>
</g>
</g>
<!-- Node29&#45;&gt;Node4 -->
<g id="edge49_Node000029_Node000004" class="edge">
<title>Node29&#45;&gt;Node4</title>
<g id="a_edge49_Node000029_Node000004"><a xlink:title=" ">
<path fill="none" stroke="#63b8ff" d="M532.97,-113.09C510.77,-104.41 478.11,-91.63 453.27,-81.92"/>
<polygon fill="#63b8ff" stroke="#63b8ff" points="454.81,-78.76 444.22,-78.38 452.26,-85.28 454.81,-78.76"/>
</a>
</g>
</g>
<!-- Node29&#45;&gt;Node9 -->
<g id="edge50_Node000029_Node000009" class="edge">
<title>Node29&#45;&gt;Node9</title>
<g id="a_edge50_Node000029_Node000009"><a xlink:title=" ">
<path fill="none" stroke="#63b8ff" d="M558.51,-113.37C559.47,-95.52 561.57,-56.61 562.87,-32.34"/>
<polygon fill="#63b8ff" stroke="#63b8ff" points="566.35,-32.86 563.39,-22.69 559.36,-32.48 566.35,-32.86"/>
</a>
</g>
</g>
<!-- Node30 -->
<g id="Node000030" class="node">
<title>Node30</title>
<g id="a_Node000030"><a xlink:href="endian_8h.html" target="_top" xlink:title="libc header for endian conversion">
<polygon fill="white" stroke="#666666" points="650,-77.5 592,-77.5 592,-56.75 650,-56.75 650,-77.5"/>
<text text-anchor="middle" x="621" y="-64" font-family="Helvetica,sans-Serif" font-size="10.00">endian.h</text>
</a>
</g>
</g>
<!-- Node29&#45;&gt;Node30 -->
<g id="edge51_Node000029_Node000030" class="edge">
<title>Node29&#45;&gt;Node30</title>
<g id="a_edge51_Node000029_Node000030"><a xlink:title=" ">
<path fill="none" stroke="#63b8ff" d="M569.26,-113.09C578.13,-105.38 590.71,-94.45 601.25,-85.29"/>
<polygon fill="#63b8ff" stroke="#63b8ff" points="603.44,-88.02 608.69,-78.82 598.85,-82.74 603.44,-88.02"/>
</a>
</g>
</g>
<!-- Node31 -->
<g id="Node000031" class="node">
<title>Node31</title>
<g id="a_Node000031"><a xlink:href="unaligned_8h.html" target="_top" xlink:title="Unaligned but safe memory access functions.">
<polygon fill="white" stroke="#666666" points="535.5,-77.5 462.5,-77.5 462.5,-56.75 535.5,-56.75 535.5,-77.5"/>
<text text-anchor="middle" x="499" y="-64" font-family="Helvetica,sans-Serif" font-size="10.00">unaligned.h</text>
</a>
</g>
</g>
<!-- Node29&#45;&gt;Node31 -->
<g id="edge53_Node000029_Node000031" class="edge">
<title>Node29&#45;&gt;Node31</title>
<g id="a_edge53_Node000029_Node000031"><a xlink:title=" ">
<path fill="none" stroke="#63b8ff" d="M547.45,-113.09C539.23,-105.46 527.6,-94.67 517.8,-85.57"/>
<polygon fill="#63b8ff" stroke="#63b8ff" points="520.28,-83.09 510.57,-78.86 515.52,-88.23 520.28,-83.09"/>
</a>
</g>
</g>
<!-- Node30&#45;&gt;Node9 -->
<g id="edge52_Node000030_Node000009" class="edge">
<title>Node30&#45;&gt;Node9</title>
<g id="a_edge52_Node000030_Node000009"><a xlink:title=" ">
<path fill="none" stroke="#63b8ff" d="M610.81,-56.34C602.87,-48.71 591.63,-37.92 582.16,-28.82"/>
<polygon fill="#63b8ff" stroke="#63b8ff" points="584.83,-26.53 575.19,-22.13 579.98,-31.58 584.83,-26.53"/>
</a>
</g>
</g>
<!-- Node31&#45;&gt;Node9 -->
<g id="edge54_Node000031_Node000009" class="edge">
<title>Node31&#45;&gt;Node9</title>
<g id="a_edge54_Node000031_Node000009"><a xlink:title=" ">
<path fill="none" stroke="#63b8ff" d="M510.62,-56.34C519.86,-48.55 533.01,-37.47 543.95,-28.26"/>
<polygon fill="#63b8ff" stroke="#63b8ff" points="545.93,-31.17 551.32,-22.05 541.42,-25.82 545.93,-31.17"/>
</a>
</g>
</g>
<!-- Node32&#45;&gt;Node4 -->
<g id="edge57_Node000032_Node000004" class="edge">
<title>Node32&#45;&gt;Node4</title>
<g id="a_edge57_Node000032_Node000004"><a xlink:title=" ">
<path fill="none" stroke="#63b8ff" d="M702.46,-226.51C661.84,-209.77 578.59,-173.76 513,-134.25 487.17,-118.69 458.99,-98.66 440.08,-84.74"/>
<polygon fill="#63b8ff" stroke="#63b8ff" points="442.18,-81.94 432.07,-78.79 438.01,-87.56 442.18,-81.94"/>
</a>
</g>
</g>
<!-- Node32&#45;&gt;Node27 -->
<g id="edge59_Node000032_Node000027" class="edge">
<title>Node32&#45;&gt;Node27</title>
<g id="a_edge59_Node000032_Node000027"><a xlink:title=" ">
<path fill="none" stroke="#63b8ff" d="M736.83,-226.59C744.42,-219.03 755.12,-208.39 764.2,-199.35"/>
<polygon fill="#63b8ff" stroke="#63b8ff" points="766.56,-201.93 771.18,-192.4 761.62,-196.97 766.56,-201.93"/>
</a>
</g>
</g>
<!-- Node32&#45;&gt;Node28 -->
<g id="edge56_Node000032_Node000028" class="edge">
<title>Node32&#45;&gt;Node28</title>
<g id="a_edge56_Node000032_Node000028"><a xlink:title=" ">
<path fill="none" stroke="#63b8ff" d="M726.93,-226.51C726.88,-213.58 726.97,-190.2 728,-170.25 728.41,-162.26 729.12,-153.5 729.83,-145.83"/>
<polygon fill="#63b8ff" stroke="#63b8ff" points="733.29,-146.4 730.79,-136.1 726.33,-145.71 733.29,-146.4"/>
</a>
</g>
</g>
<!-- Node32&#45;&gt;Node29 -->
<g id="edge58_Node000032_Node000029" class="edge">
<title>Node32&#45;&gt;Node29</title>
<g id="a_edge58_Node000032_Node000029"><a xlink:title=" ">
<path fill="none" stroke="#63b8ff" d="M712.3,-226.68C683.08,-207.4 617.48,-164.12 581.96,-140.68"/>
<polygon fill="#63b8ff" stroke="#63b8ff" points="584.33,-138.05 574.05,-135.47 580.47,-143.89 584.33,-138.05"/>
</a>
</g>
</g>
</g>
</svg>
