<?xml version="1.0" encoding="UTF-8" standalone="no"?>
<!DOCTYPE svg PUBLIC "-//W3C//DTD SVG 1.1//EN"
 "http://www.w3.org/Graphics/SVG/1.1/DTD/svg11.dtd">
<!-- Generated by graphviz version 12.1.2 (0)
 -->
<!-- Title: sys/posix/include/sys/select.h Pages: 1 -->
<svg width="313pt" height="212pt"
 viewBox="0.00 0.00 313.25 211.75" xmlns="http://www.w3.org/2000/svg" xmlns:xlink="http://www.w3.org/1999/xlink">
<g id="graph0" class="graph" transform="scale(1 1) rotate(0) translate(4 207.75)">
<title>sys/posix/include/sys/select.h</title>
<!-- Node1 -->
<g id="Node000001" class="node">
<title>Node1</title>
<g id="a_Node000001"><a xlink:title="Select types.">
<polygon fill="#999999" stroke="#666666" points="149.12,-203.75 29.62,-203.75 29.62,-170.25 149.12,-170.25 149.12,-203.75"/>
<text text-anchor="start" x="37.62" y="-190.25" font-family="Helvetica,sans-Serif" font-size="10.00">sys/posix/include/sys</text>
<text text-anchor="middle" x="89.38" y="-177.5" font-family="Helvetica,sans-Serif" font-size="10.00">/select.h</text>
</a>
</g>
</g>
<!-- Node2 -->
<g id="Node000002" class="node">
<title>Node2</title>
<g id="a_Node000002"><a xlink:title=" ">
<polygon fill="#e0e0e0" stroke="#999999" points="52.75,-77.5 0,-77.5 0,-56.75 52.75,-56.75 52.75,-77.5"/>
<text text-anchor="middle" x="26.38" y="-64" font-family="Helvetica,sans-Serif" font-size="10.00">string.h</text>
</a>
</g>
</g>
<!-- Node1&#45;&gt;Node2 -->
<g id="edge1_Node000001_Node000002" class="edge">
<title>Node1&#45;&gt;Node2</title>
<g id="a_edge1_Node000001_Node000002"><a xlink:title=" ">
<path fill="none" stroke="#63b8ff" d="M80.88,-170.1C69.51,-148.83 49.34,-111.09 36.98,-87.97"/>
<polygon fill="#63b8ff" stroke="#63b8ff" points="40.13,-86.44 32.33,-79.27 33.96,-89.74 40.13,-86.44"/>
</a>
</g>
</g>
<!-- Node3 -->
<g id="Node000003" class="node">
<title>Node3</title>
<g id="a_Node000003"><a xlink:href="bitfield_8h.html" target="_top" xlink:title="bitfields operations on bitfields of arbitrary length">
<polygon fill="white" stroke="#666666" points="154.12,-134.25 94.62,-134.25 94.62,-113.5 154.12,-113.5 154.12,-134.25"/>
<text text-anchor="middle" x="124.38" y="-120.75" font-family="Helvetica,sans-Serif" font-size="10.00">bitfield.h</text>
</a>
</g>
</g>
<!-- Node1&#45;&gt;Node3 -->
<g id="edge2_Node000001_Node000003" class="edge">
<title>Node1&#45;&gt;Node3</title>
<g id="a_edge2_Node000001_Node000003"><a xlink:title=" ">
<path fill="none" stroke="#63b8ff" d="M98.57,-169.94C103.02,-162.17 108.4,-152.77 113.1,-144.57"/>
<polygon fill="#63b8ff" stroke="#63b8ff" points="116.06,-146.45 117.99,-136.03 109.98,-142.97 116.06,-146.45"/>
</a>
</g>
</g>
<!-- Node3&#45;&gt;Node2 -->
<g id="edge6_Node000003_Node000002" class="edge">
<title>Node3&#45;&gt;Node2</title>
<g id="a_edge6_Node000003_Node000002"><a xlink:title=" ">
<path fill="none" stroke="#63b8ff" d="M106.85,-113.09C92.08,-104.83 70.69,-92.88 53.68,-83.38"/>
<polygon fill="#63b8ff" stroke="#63b8ff" points="55.5,-80.39 45.07,-78.57 52.09,-86.5 55.5,-80.39"/>
</a>
</g>
</g>
<!-- Node4 -->
<g id="Node000004" class="node">
<title>Node4</title>
<g id="a_Node000004"><a xlink:title=" ">
<polygon fill="#e0e0e0" stroke="#999999" points="123.75,-77.5 71,-77.5 71,-56.75 123.75,-56.75 123.75,-77.5"/>
<text text-anchor="middle" x="97.38" y="-64" font-family="Helvetica,sans-Serif" font-size="10.00">stdint.h</text>
</a>
</g>
</g>
<!-- Node3&#45;&gt;Node4 -->
<g id="edge3_Node000003_Node000004" class="edge">
<title>Node3&#45;&gt;Node4</title>
<g id="a_edge3_Node000003_Node000004"><a xlink:title=" ">
<path fill="none" stroke="#63b8ff" d="M119.55,-113.09C116.13,-106.16 111.43,-96.62 107.23,-88.11"/>
<polygon fill="#63b8ff" stroke="#63b8ff" points="110.39,-86.61 102.83,-79.19 104.11,-89.7 110.39,-86.61"/>
</a>
</g>
</g>
<!-- Node5 -->
<g id="Node000005" class="node">
<title>Node5</title>
<g id="a_Node000005"><a xlink:title=" ">
<polygon fill="#e0e0e0" stroke="#999999" points="200.88,-20.75 139.88,-20.75 139.88,0 200.88,0 200.88,-20.75"/>
<text text-anchor="middle" x="170.38" y="-7.25" font-family="Helvetica,sans-Serif" font-size="10.00">stdbool.h</text>
</a>
</g>
</g>
<!-- Node3&#45;&gt;Node5 -->
<g id="edge4_Node000003_Node000005" class="edge">
<title>Node3&#45;&gt;Node5</title>
<g id="a_edge4_Node000003_Node000005"><a xlink:title=" ">
<path fill="none" stroke="#63b8ff" d="M128.3,-113.37C135.73,-95.36 152.01,-55.89 162,-31.68"/>
<polygon fill="#63b8ff" stroke="#63b8ff" points="165.18,-33.15 165.75,-22.57 158.71,-30.48 165.18,-33.15"/>
</a>
</g>
</g>
<!-- Node6 -->
<g id="Node000006" class="node">
<title>Node6</title>
<g id="a_Node000006"><a xlink:title=" ">
<polygon fill="#e0e0e0" stroke="#999999" points="234.88,-77.5 179.88,-77.5 179.88,-56.75 234.88,-56.75 234.88,-77.5"/>
<text text-anchor="middle" x="207.38" y="-64" font-family="Helvetica,sans-Serif" font-size="10.00">stddef.h</text>
</a>
</g>
</g>
<!-- Node3&#45;&gt;Node6 -->
<g id="edge5_Node000003_Node000006" class="edge">
<title>Node3&#45;&gt;Node6</title>
<g id="a_edge5_Node000003_Node000006"><a xlink:title=" ">
<path fill="none" stroke="#63b8ff" d="M139.21,-113.09C151.49,-104.99 169.16,-93.33 183.43,-83.92"/>
<polygon fill="#63b8ff" stroke="#63b8ff" points="184.98,-87.09 191.4,-78.66 181.13,-81.25 184.98,-87.09"/>
</a>
</g>
</g>
<!-- Node7 -->
<g id="Node000007" class="node">
<title>Node7</title>
<g id="a_Node000007"><a xlink:href="irq_8h.html" target="_top" xlink:title="IRQ driver interface.">
<polygon fill="white" stroke="#666666" points="290.25,-77.5 252.5,-77.5 252.5,-56.75 290.25,-56.75 290.25,-77.5"/>
<text text-anchor="middle" x="271.38" y="-64" font-family="Helvetica,sans-Serif" font-size="10.00">irq.h</text>
</a>
</g>
</g>
<!-- Node3&#45;&gt;Node7 -->
<g id="edge7_Node000003_Node000007" class="edge">
<title>Node3&#45;&gt;Node7</title>
<g id="a_edge7_Node000003_Node000007"><a xlink:title=" ">
<path fill="none" stroke="#63b8ff" d="M150.66,-113.09C176.24,-103.56 215.05,-89.1 241.72,-79.17"/>
<polygon fill="#63b8ff" stroke="#63b8ff" points="242.77,-82.52 250.92,-75.75 240.32,-75.96 242.77,-82.52"/>
</a>
</g>
</g>
<!-- Node7&#45;&gt;Node5 -->
<g id="edge8_Node000007_Node000005" class="edge">
<title>Node7&#45;&gt;Node5</title>
<g id="a_edge8_Node000007_Node000005"><a xlink:title=" ">
<path fill="none" stroke="#63b8ff" d="M253.32,-56.34C237.95,-48.01 215.63,-35.91 198.02,-26.36"/>
<polygon fill="#63b8ff" stroke="#63b8ff" points="200.07,-23.49 189.61,-21.8 196.73,-29.64 200.07,-23.49"/>
</a>
</g>
</g>
<!-- Node8 -->
<g id="Node000008" class="node">
<title>Node8</title>
<g id="a_Node000008"><a xlink:title=" ">
<polygon fill="#e0e0e0" stroke="#999999" points="305.25,-20.75 237.5,-20.75 237.5,0 305.25,0 305.25,-20.75"/>
<text text-anchor="middle" x="271.38" y="-7.25" font-family="Helvetica,sans-Serif" font-size="10.00">cpu_conf.h</text>
</a>
</g>
</g>
<!-- Node7&#45;&gt;Node8 -->
<g id="edge9_Node000007_Node000008" class="edge">
<title>Node7&#45;&gt;Node8</title>
<g id="a_edge9_Node000007_Node000008"><a xlink:title=" ">
<path fill="none" stroke="#63b8ff" d="M271.38,-56.34C271.38,-49.72 271.38,-40.72 271.38,-32.52"/>
<polygon fill="#63b8ff" stroke="#63b8ff" points="274.88,-32.59 271.38,-22.59 267.88,-32.59 274.88,-32.59"/>
</a>
</g>
</g>
</g>
</svg>
