<?xml version="1.0" encoding="UTF-8" standalone="no"?>
<!DOCTYPE svg PUBLIC "-//W3C//DTD SVG 1.1//EN"
 "http://www.w3.org/Graphics/SVG/1.1/DTD/svg11.dtd">
<!-- Generated by graphviz version 12.1.2 (0)
 -->
<!-- Title: pkg/semtech&#45;loramac/include/semtech_loramac.h Pages: 1 -->
<svg width="1380pt" height="496pt"
 viewBox="0.00 0.00 1379.50 495.50" xmlns="http://www.w3.org/2000/svg" xmlns:xlink="http://www.w3.org/1999/xlink">
<g id="graph0" class="graph" transform="scale(1 1) rotate(0) translate(4 491.5)">
<title>pkg/semtech&#45;loramac/include/semtech_loramac.h</title>
<!-- Node1 -->
<g id="Node000001" class="node">
<title>Node1</title>
<g id="a_Node000001"><a xlink:title="Public API and definitions of the Semtech LoRaMAC.">
<polygon fill="#999999" stroke="#666666" points="765.62,-487.5 612.38,-487.5 612.38,-454 765.62,-454 765.62,-487.5"/>
<text text-anchor="start" x="620.38" y="-474" font-family="Helvetica,sans-Serif" font-size="10.00">pkg/semtech&#45;loramac</text>
<text text-anchor="middle" x="689" y="-461.25" font-family="Helvetica,sans-Serif" font-size="10.00">/include/semtech_loramac.h</text>
</a>
</g>
</g>
<!-- Node2 -->
<g id="Node000002" class="node">
<title>Node2</title>
<g id="a_Node000002"><a xlink:href="inttypes_8h.html" target="_top" xlink:title="Adds include for missing inttype definitions.">
<polygon fill="white" stroke="#666666" points="366.38,-191 301.62,-191 301.62,-170.25 366.38,-170.25 366.38,-191"/>
<text text-anchor="middle" x="334" y="-177.5" font-family="Helvetica,sans-Serif" font-size="10.00">inttypes.h</text>
</a>
</g>
</g>
<!-- Node1&#45;&gt;Node2 -->
<g id="edge1_Node000001_Node000002" class="edge">
<title>Node1&#45;&gt;Node2</title>
<g id="a_edge1_Node000001_Node000002"><a xlink:title=" ">
<path fill="none" stroke="#63b8ff" d="M611.91,-465.18C550.29,-459.46 462.67,-446.65 391,-418 348.82,-401.14 327.42,-401.31 306,-361.25 277.86,-308.63 289.71,-284.4 306,-227 308.67,-217.59 313.91,-208.21 319.14,-200.45"/>
<polygon fill="#63b8ff" stroke="#63b8ff" points="321.85,-202.67 324.9,-192.53 316.19,-198.56 321.85,-202.67"/>
</a>
</g>
</g>
<!-- Node3 -->
<g id="Node000003" class="node">
<title>Node3</title>
<g id="a_Node000003"><a xlink:href="mutex_8h.html" target="_top" xlink:title="Mutex for thread synchronization.">
<polygon fill="white" stroke="#666666" points="456.25,-418 399.75,-418 399.75,-397.25 456.25,-397.25 456.25,-418"/>
<text text-anchor="middle" x="428" y="-404.5" font-family="Helvetica,sans-Serif" font-size="10.00">mutex.h</text>
</a>
</g>
</g>
<!-- Node1&#45;&gt;Node3 -->
<g id="edge2_Node000001_Node000003" class="edge">
<title>Node1&#45;&gt;Node3</title>
<g id="a_edge2_Node000001_Node000003"><a xlink:title=" ">
<path fill="none" stroke="#63b8ff" d="M619.74,-453.53C571.12,-442.14 507.82,-427.32 467.54,-417.88"/>
<polygon fill="#63b8ff" stroke="#63b8ff" points="468.57,-414.53 458.04,-415.66 466.98,-421.35 468.57,-414.53"/>
</a>
</g>
</g>
<!-- Node26 -->
<g id="Node000026" class="node">
<title>Node26</title>
<g id="a_Node000026"><a xlink:href="drivers_2include_2net_2netdev_8h.html" target="_top" xlink:title="Definitions low&#45;level network driver interface.">
<polygon fill="white" stroke="#666666" points="1231.38,-247.75 1154.62,-247.75 1154.62,-227 1231.38,-227 1231.38,-247.75"/>
<text text-anchor="middle" x="1193" y="-234.25" font-family="Helvetica,sans-Serif" font-size="10.00">net/netdev.h</text>
</a>
</g>
</g>
<!-- Node1&#45;&gt;Node26 -->
<g id="edge44_Node000001_Node000026" class="edge">
<title>Node1&#45;&gt;Node26</title>
<g id="a_edge44_Node000001_Node000026"><a xlink:title=" ">
<path fill="none" stroke="#63b8ff" d="M766,-461.73C815.99,-454.59 881.71,-441.48 936,-418 1034.73,-375.29 1134.17,-291.49 1174.4,-255.48"/>
<polygon fill="#63b8ff" stroke="#63b8ff" points="1176.5,-258.3 1181.57,-249 1171.8,-253.11 1176.5,-258.3"/>
</a>
</g>
</g>
<!-- Node30 -->
<g id="Node000030" class="node">
<title>Node30</title>
<g id="a_Node000030"><a xlink:href="loramac_8h.html" target="_top" xlink:title="LoRaMAC header definitions.">
<polygon fill="white" stroke="#666666" points="1083.75,-191 1000.25,-191 1000.25,-170.25 1083.75,-170.25 1083.75,-191"/>
<text text-anchor="middle" x="1042" y="-177.5" font-family="Helvetica,sans-Serif" font-size="10.00">net/loramac.h</text>
</a>
</g>
</g>
<!-- Node1&#45;&gt;Node30 -->
<g id="edge52_Node000001_Node000030" class="edge">
<title>Node1&#45;&gt;Node30</title>
<g id="a_edge52_Node000001_Node000030"><a xlink:title=" ">
<path fill="none" stroke="#63b8ff" d="M765.94,-462.54C833.81,-451.44 922,-423.27 922,-351.88 922,-351.88 922,-351.88 922,-293.12 922,-246.28 971.69,-213.55 1007.12,-196.17"/>
<polygon fill="#63b8ff" stroke="#63b8ff" points="1008.2,-199.53 1015.77,-192.12 1005.23,-193.19 1008.2,-199.53"/>
</a>
</g>
</g>
<!-- Node4 -->
<g id="Node000004" class="node">
<title>Node4</title>
<g id="a_Node000004"><a xlink:title=" ">
<polygon fill="#e0e0e0" stroke="#999999" points="500.5,-77.5 445.5,-77.5 445.5,-56.75 500.5,-56.75 500.5,-77.5"/>
<text text-anchor="middle" x="473" y="-64" font-family="Helvetica,sans-Serif" font-size="10.00">stddef.h</text>
</a>
</g>
</g>
<!-- Node3&#45;&gt;Node4 -->
<g id="edge3_Node000003_Node000004" class="edge">
<title>Node3&#45;&gt;Node4</title>
<g id="a_edge3_Node000003_Node000004"><a xlink:title=" ">
<path fill="none" stroke="#63b8ff" d="M419.92,-397.01C406.04,-379.79 378.2,-342 368,-304.5 365.58,-295.6 367.43,-292.95 368,-283.75 369.56,-258.38 366.58,-250.98 375,-227 394.5,-171.47 435.64,-114.78 457.92,-86.52"/>
<polygon fill="#63b8ff" stroke="#63b8ff" points="460.47,-88.93 463.99,-78.93 455.01,-84.55 460.47,-88.93"/>
</a>
</g>
</g>
<!-- Node5 -->
<g id="Node000005" class="node">
<title>Node5</title>
<g id="a_Node000005"><a xlink:title=" ">
<polygon fill="#e0e0e0" stroke="#999999" points="841.38,-20.75 788.62,-20.75 788.62,0 841.38,0 841.38,-20.75"/>
<text text-anchor="middle" x="815" y="-7.25" font-family="Helvetica,sans-Serif" font-size="10.00">stdint.h</text>
</a>
</g>
</g>
<!-- Node3&#45;&gt;Node5 -->
<g id="edge4_Node000003_Node000005" class="edge">
<title>Node3&#45;&gt;Node5</title>
<g id="a_edge4_Node000003_Node000005"><a xlink:title=" ">
<path fill="none" stroke="#63b8ff" d="M399.3,-400.78C392.65,-399.52 385.59,-398.27 379,-397.25 244.54,-376.45 199.22,-416.76 75,-361.25 34.43,-343.12 0,-339.56 0,-295.12 0,-295.12 0,-295.12 0,-122.88 0,-43.37 616.64,-17.82 777.17,-12.51"/>
<polygon fill="#63b8ff" stroke="#63b8ff" points="776.95,-16.02 786.83,-12.2 776.73,-9.02 776.95,-16.02"/>
</a>
</g>
</g>
<!-- Node6 -->
<g id="Node000006" class="node">
<title>Node6</title>
<g id="a_Node000006"><a xlink:title=" ">
<polygon fill="#e0e0e0" stroke="#999999" points="647.5,-134.25 586.5,-134.25 586.5,-113.5 647.5,-113.5 647.5,-134.25"/>
<text text-anchor="middle" x="617" y="-120.75" font-family="Helvetica,sans-Serif" font-size="10.00">stdbool.h</text>
</a>
</g>
</g>
<!-- Node3&#45;&gt;Node6 -->
<g id="edge5_Node000003_Node000006" class="edge">
<title>Node3&#45;&gt;Node6</title>
<g id="a_edge5_Node000003_Node000006"><a xlink:title=" ">
<path fill="none" stroke="#63b8ff" d="M456.51,-401.87C528.06,-389.31 711.99,-352.83 747,-304.5 790.85,-243.96 693.38,-171.91 643.75,-140.65"/>
<polygon fill="#63b8ff" stroke="#63b8ff" points="645.59,-137.67 635.24,-135.41 641.92,-143.63 645.59,-137.67"/>
</a>
</g>
</g>
<!-- Node7 -->
<g id="Node000007" class="node">
<title>Node7</title>
<g id="a_Node000007"><a xlink:href="architecture_8h.html" target="_top" xlink:title="Platform&#45;independent access to architecture details.">
<polygon fill="white" stroke="#666666" points="191.75,-247.75 108.25,-247.75 108.25,-227 191.75,-227 191.75,-247.75"/>
<text text-anchor="middle" x="150" y="-234.25" font-family="Helvetica,sans-Serif" font-size="10.00">architecture.h</text>
</a>
</g>
</g>
<!-- Node3&#45;&gt;Node7 -->
<g id="edge6_Node000003_Node000007" class="edge">
<title>Node3&#45;&gt;Node7</title>
<g id="a_edge6_Node000003_Node000007"><a xlink:title=" ">
<path fill="none" stroke="#63b8ff" d="M399.28,-398.72C373.84,-391.08 336.15,-378.18 306,-361.25 251.44,-330.62 195.84,-281.66 168.09,-255.76"/>
<polygon fill="#63b8ff" stroke="#63b8ff" points="170.56,-253.28 160.89,-248.96 165.76,-258.37 170.56,-253.28"/>
</a>
</g>
</g>
<!-- Node10 -->
<g id="Node000010" class="node">
<title>Node10</title>
<g id="a_Node000010"><a xlink:href="kernel__defines_8h.html" target="_top" xlink:title="Common macros and compiler attributes/pragmas configuration.">
<polygon fill="white" stroke="#666666" points="889.12,-191 792.88,-191 792.88,-170.25 889.12,-170.25 889.12,-191"/>
<text text-anchor="middle" x="841" y="-177.5" font-family="Helvetica,sans-Serif" font-size="10.00">kernel_defines.h</text>
</a>
</g>
</g>
<!-- Node3&#45;&gt;Node10 -->
<g id="edge11_Node000003_Node000010" class="edge">
<title>Node3&#45;&gt;Node10</title>
<g id="a_edge11_Node000003_Node000010"><a xlink:title=" ">
<path fill="none" stroke="#63b8ff" d="M456.6,-406.71C531.44,-406.37 730.7,-401.59 780,-361.25 828.67,-321.42 838.67,-241.07 840.61,-202.81"/>
<polygon fill="#63b8ff" stroke="#63b8ff" points="844.11,-202.99 840.96,-192.88 837.11,-202.75 844.11,-202.99"/>
</a>
</g>
</g>
<!-- Node16 -->
<g id="Node000016" class="node">
<title>Node16</title>
<g id="a_Node000016"><a xlink:href="list_8h.html" target="_top" xlink:title="Intrusive linked list.">
<polygon fill="white" stroke="#666666" points="157,-134.25 117,-134.25 117,-113.5 157,-113.5 157,-134.25"/>
<text text-anchor="middle" x="137" y="-120.75" font-family="Helvetica,sans-Serif" font-size="10.00">list.h</text>
</a>
</g>
</g>
<!-- Node3&#45;&gt;Node16 -->
<g id="edge22_Node000003_Node000016" class="edge">
<title>Node3&#45;&gt;Node16</title>
<g id="a_edge22_Node000003_Node000016"><a xlink:title=" ">
<path fill="none" stroke="#63b8ff" d="M399.32,-404.64C309.26,-397.64 38,-370.3 38,-295.12 38,-295.12 38,-295.12 38,-236.38 38,-205.8 38.08,-194.27 57,-170.25 69.56,-154.3 89.38,-143 106.15,-135.67"/>
<polygon fill="#63b8ff" stroke="#63b8ff" points="107.27,-138.99 115.22,-131.98 104.64,-132.51 107.27,-138.99"/>
</a>
</g>
</g>
<!-- Node17 -->
<g id="Node000017" class="node">
<title>Node17</title>
<g id="a_Node000017"><a xlink:href="core_2include_2thread_8h.html" target="_top" xlink:title="Threading API.">
<polygon fill="white" stroke="#666666" points="565.25,-361.25 508.75,-361.25 508.75,-340.5 565.25,-340.5 565.25,-361.25"/>
<text text-anchor="middle" x="537" y="-347.75" font-family="Helvetica,sans-Serif" font-size="10.00">thread.h</text>
</a>
</g>
</g>
<!-- Node3&#45;&gt;Node17 -->
<g id="edge23_Node000003_Node000017" class="edge">
<title>Node3&#45;&gt;Node17</title>
<g id="a_edge23_Node000003_Node000017"><a xlink:title=" ">
<path fill="none" stroke="#63b8ff" d="M447.49,-396.84C464.15,-388.47 488.38,-376.29 507.44,-366.72"/>
<polygon fill="#63b8ff" stroke="#63b8ff" points="508.96,-369.87 516.33,-362.26 505.82,-363.62 508.96,-369.87"/>
</a>
</g>
</g>
<!-- Node7&#45;&gt;Node2 -->
<g id="edge8_Node000007_Node000002" class="edge">
<title>Node7&#45;&gt;Node2</title>
<g id="a_edge8_Node000007_Node000002"><a xlink:title=" ">
<path fill="none" stroke="#63b8ff" d="M182.9,-226.59C212.99,-217.63 257.7,-204.33 290.69,-194.51"/>
<polygon fill="#63b8ff" stroke="#63b8ff" points="291.35,-197.97 299.94,-191.76 289.36,-191.26 291.35,-197.97"/>
</a>
</g>
</g>
<!-- Node7&#45;&gt;Node5 -->
<g id="edge7_Node000007_Node000005" class="edge">
<title>Node7&#45;&gt;Node5</title>
<g id="a_edge7_Node000007_Node000005"><a xlink:title=" ">
<path fill="none" stroke="#63b8ff" d="M177.13,-226.61C198.83,-218.35 229.69,-205.55 255,-191 342.14,-140.91 343.56,-93.8 437,-56.75 498.27,-32.45 693.5,-18.47 776.77,-13.48"/>
<polygon fill="#63b8ff" stroke="#63b8ff" points="776.93,-16.98 786.71,-12.9 776.52,-9.99 776.93,-16.98"/>
</a>
</g>
</g>
<!-- Node8 -->
<g id="Node000008" class="node">
<title>Node8</title>
<g id="a_Node000008"><a xlink:title=" ">
<polygon fill="#e0e0e0" stroke="#999999" points="118.38,-191 65.62,-191 65.62,-170.25 118.38,-170.25 118.38,-191"/>
<text text-anchor="middle" x="92" y="-177.5" font-family="Helvetica,sans-Serif" font-size="10.00">limits.h</text>
</a>
</g>
</g>
<!-- Node7&#45;&gt;Node8 -->
<g id="edge9_Node000007_Node000008" class="edge">
<title>Node7&#45;&gt;Node8</title>
<g id="a_edge9_Node000007_Node000008"><a xlink:title=" ">
<path fill="none" stroke="#63b8ff" d="M139.63,-226.59C131.55,-218.96 120.12,-208.17 110.48,-199.07"/>
<polygon fill="#63b8ff" stroke="#63b8ff" points="113.05,-196.69 103.38,-192.37 108.25,-201.78 113.05,-196.69"/>
</a>
</g>
</g>
<!-- Node9 -->
<g id="Node000009" class="node">
<title>Node9</title>
<g id="a_Node000009"><a xlink:title=" ">
<polygon fill="#e0e0e0" stroke="#999999" points="245.88,-191 136.12,-191 136.12,-170.25 245.88,-170.25 245.88,-191"/>
<text text-anchor="middle" x="191" y="-177.5" font-family="Helvetica,sans-Serif" font-size="10.00">architecture_arch.h</text>
</a>
</g>
</g>
<!-- Node7&#45;&gt;Node9 -->
<g id="edge10_Node000007_Node000009" class="edge">
<title>Node7&#45;&gt;Node9</title>
<g id="a_edge10_Node000007_Node000009"><a xlink:title=" ">
<path fill="none" stroke="#63b8ff" d="M157.33,-226.59C162.75,-219.35 170.31,-209.26 176.89,-200.47"/>
<polygon fill="#63b8ff" stroke="#63b8ff" points="179.63,-202.64 182.83,-192.54 174.03,-198.45 179.63,-202.64"/>
</a>
</g>
</g>
<!-- Node11 -->
<g id="Node000011" class="node">
<title>Node11</title>
<g id="a_Node000011"><a xlink:href="modules_8h.html" target="_top" xlink:title="Common macros and compiler attributes/pragmas configuration.">
<polygon fill="white" stroke="#666666" points="1013.5,-134.25 946.5,-134.25 946.5,-113.5 1013.5,-113.5 1013.5,-134.25"/>
<text text-anchor="middle" x="980" y="-120.75" font-family="Helvetica,sans-Serif" font-size="10.00">modules.h</text>
</a>
</g>
</g>
<!-- Node10&#45;&gt;Node11 -->
<g id="edge12_Node000010_Node000011" class="edge">
<title>Node10&#45;&gt;Node11</title>
<g id="a_edge12_Node000010_Node000011"><a xlink:title=" ">
<path fill="none" stroke="#63b8ff" d="M865.85,-169.84C887.89,-161.16 920.32,-148.38 944.98,-138.67"/>
<polygon fill="#63b8ff" stroke="#63b8ff" points="945.93,-142.05 953.96,-135.13 943.37,-135.54 945.93,-142.05"/>
</a>
</g>
</g>
<!-- Node12 -->
<g id="Node000012" class="node">
<title>Node12</title>
<g id="a_Node000012"><a xlink:href="riot__version_8h.html" target="_top" xlink:title="Common macros and compiler attributes/pragmas configuration.">
<polygon fill="white" stroke="#666666" points="955.38,-77.5 872.62,-77.5 872.62,-56.75 955.38,-56.75 955.38,-77.5"/>
<text text-anchor="middle" x="914" y="-64" font-family="Helvetica,sans-Serif" font-size="10.00">riot_version.h</text>
</a>
</g>
</g>
<!-- Node10&#45;&gt;Node12 -->
<g id="edge13_Node000010_Node000012" class="edge">
<title>Node10&#45;&gt;Node12</title>
<g id="a_edge13_Node000010_Node000012"><a xlink:title=" ">
<path fill="none" stroke="#63b8ff" d="M859.48,-169.77C872.5,-161.87 889.28,-149.58 899,-134.25 907.59,-120.7 911.28,-102.84 912.86,-89.09"/>
<polygon fill="#63b8ff" stroke="#63b8ff" points="916.33,-89.64 913.67,-79.38 909.35,-89.06 916.33,-89.64"/>
</a>
</g>
</g>
<!-- Node13 -->
<g id="Node000013" class="node">
<title>Node13</title>
<g id="a_Node000013"><a xlink:href="compiler__hints_8h.html" target="_top" xlink:title="Common macros and compiler attributes/pragmas configuration.">
<polygon fill="white" stroke="#666666" points="889.5,-134.25 792.5,-134.25 792.5,-113.5 889.5,-113.5 889.5,-134.25"/>
<text text-anchor="middle" x="841" y="-120.75" font-family="Helvetica,sans-Serif" font-size="10.00">compiler_hints.h</text>
</a>
</g>
</g>
<!-- Node10&#45;&gt;Node13 -->
<g id="edge15_Node000010_Node000013" class="edge">
<title>Node10&#45;&gt;Node13</title>
<g id="a_edge15_Node000010_Node000013"><a xlink:title=" ">
<path fill="none" stroke="#63b8ff" d="M841,-169.84C841,-163.22 841,-154.22 841,-146.02"/>
<polygon fill="#63b8ff" stroke="#63b8ff" points="844.5,-146.09 841,-136.09 837.5,-146.09 844.5,-146.09"/>
</a>
</g>
</g>
<!-- Node15 -->
<g id="Node000015" class="node">
<title>Node15</title>
<g id="a_Node000015"><a xlink:href="container_8h.html" target="_top" xlink:title="Common macros and compiler attributes/pragmas configuration.">
<polygon fill="white" stroke="#666666" points="736.38,-134.25 665.62,-134.25 665.62,-113.5 736.38,-113.5 736.38,-134.25"/>
<text text-anchor="middle" x="701" y="-120.75" font-family="Helvetica,sans-Serif" font-size="10.00">container.h</text>
</a>
</g>
</g>
<!-- Node10&#45;&gt;Node15 -->
<g id="edge19_Node000010_Node000015" class="edge">
<title>Node10&#45;&gt;Node15</title>
<g id="a_edge19_Node000010_Node000015"><a xlink:title=" ">
<path fill="none" stroke="#63b8ff" d="M815.97,-169.84C793.77,-161.16 761.11,-148.38 736.27,-138.67"/>
<polygon fill="#63b8ff" stroke="#63b8ff" points="737.81,-135.51 727.22,-135.13 735.26,-142.03 737.81,-135.51"/>
</a>
</g>
</g>
<!-- Node12&#45;&gt;Node5 -->
<g id="edge14_Node000012_Node000005" class="edge">
<title>Node12&#45;&gt;Node5</title>
<g id="a_edge14_Node000012_Node000005"><a xlink:title=" ">
<path fill="none" stroke="#63b8ff" d="M896.3,-56.34C881.38,-48.08 859.77,-36.13 842.58,-26.63"/>
<polygon fill="#63b8ff" stroke="#63b8ff" points="844.32,-23.59 833.87,-21.81 840.93,-29.71 844.32,-23.59"/>
</a>
</g>
</g>
<!-- Node13&#45;&gt;Node5 -->
<g id="edge18_Node000013_Node000005" class="edge">
<title>Node13&#45;&gt;Node5</title>
<g id="a_edge18_Node000013_Node000005"><a xlink:title=" ">
<path fill="none" stroke="#63b8ff" d="M838.78,-113.37C834.62,-95.52 825.55,-56.61 819.89,-32.34"/>
<polygon fill="#63b8ff" stroke="#63b8ff" points="823.31,-31.59 817.63,-22.65 816.49,-33.18 823.31,-31.59"/>
</a>
</g>
</g>
<!-- Node14 -->
<g id="Node000014" class="node">
<title>Node14</title>
<g id="a_Node000014"><a xlink:href="assert_8h.html" target="_top" xlink:title="POSIX.1&#45;2008 compliant version of the assert macro.">
<polygon fill="white" stroke="#666666" points="814.5,-77.5 759.5,-77.5 759.5,-56.75 814.5,-56.75 814.5,-77.5"/>
<text text-anchor="middle" x="787" y="-64" font-family="Helvetica,sans-Serif" font-size="10.00">assert.h</text>
</a>
</g>
</g>
<!-- Node13&#45;&gt;Node14 -->
<g id="edge16_Node000013_Node000014" class="edge">
<title>Node13&#45;&gt;Node14</title>
<g id="a_edge16_Node000013_Node000014"><a xlink:title=" ">
<path fill="none" stroke="#63b8ff" d="M831.35,-113.09C823.9,-105.53 813.39,-94.89 804.48,-85.85"/>
<polygon fill="#63b8ff" stroke="#63b8ff" points="807.15,-83.57 797.63,-78.91 802.16,-88.48 807.15,-83.57"/>
</a>
</g>
</g>
<!-- Node14&#45;&gt;Node5 -->
<g id="edge17_Node000014_Node000005" class="edge">
<title>Node14&#45;&gt;Node5</title>
<g id="a_edge17_Node000014_Node000005"><a xlink:title=" ">
<path fill="none" stroke="#63b8ff" d="M792.01,-56.34C795.59,-49.33 800.54,-39.66 804.92,-31.08"/>
<polygon fill="#63b8ff" stroke="#63b8ff" points="807.91,-32.92 809.35,-22.43 801.68,-29.74 807.91,-32.92"/>
</a>
</g>
</g>
<!-- Node15&#45;&gt;Node4 -->
<g id="edge20_Node000015_Node000004" class="edge">
<title>Node15&#45;&gt;Node4</title>
<g id="a_edge20_Node000015_Node000004"><a xlink:title=" ">
<path fill="none" stroke="#63b8ff" d="M665.38,-114.32C623.73,-104.32 555.04,-87.82 511.99,-77.49"/>
<polygon fill="#63b8ff" stroke="#63b8ff" points="512.86,-74.1 502.31,-75.16 511.22,-80.9 512.86,-74.1"/>
</a>
</g>
</g>
<!-- Node15&#45;&gt;Node5 -->
<g id="edge21_Node000015_Node000005" class="edge">
<title>Node15&#45;&gt;Node5</title>
<g id="a_edge21_Node000015_Node000005"><a xlink:title=" ">
<path fill="none" stroke="#63b8ff" d="M706.97,-113.17C715.62,-99.59 732.61,-74.58 751,-56.75 762.38,-45.71 776.65,-35.33 788.82,-27.29"/>
<polygon fill="#63b8ff" stroke="#63b8ff" points="790.63,-30.28 797.17,-21.94 786.86,-24.39 790.63,-30.28"/>
</a>
</g>
</g>
<!-- Node18 -->
<g id="Node000018" class="node">
<title>Node18</title>
<g id="a_Node000018"><a xlink:href="clist_8h.html" target="_top" xlink:title="Circular linked list.">
<polygon fill="white" stroke="#666666" points="467.62,-191 422.38,-191 422.38,-170.25 467.62,-170.25 467.62,-191"/>
<text text-anchor="middle" x="445" y="-177.5" font-family="Helvetica,sans-Serif" font-size="10.00">clist.h</text>
</a>
</g>
</g>
<!-- Node17&#45;&gt;Node18 -->
<g id="edge24_Node000017_Node000018" class="edge">
<title>Node17&#45;&gt;Node18</title>
<g id="a_edge24_Node000017_Node000018"><a xlink:title=" ">
<path fill="none" stroke="#63b8ff" d="M508.59,-345.95C467.03,-339.55 392.84,-325.46 377,-304.5 365.63,-289.46 375.13,-249.67 389,-227 396.15,-215.31 407.43,-205.32 417.99,-197.72"/>
<polygon fill="#63b8ff" stroke="#63b8ff" points="419.76,-200.75 426.1,-192.27 415.85,-194.94 419.76,-200.75"/>
</a>
</g>
</g>
<!-- Node19 -->
<g id="Node000019" class="node">
<title>Node19</title>
<g id="a_Node000019"><a xlink:href="cib_8h.html" target="_top" xlink:title="Circular integer buffer interface.">
<polygon fill="white" stroke="#666666" points="737.62,-304.5 698.38,-304.5 698.38,-283.75 737.62,-283.75 737.62,-304.5"/>
<text text-anchor="middle" x="718" y="-291" font-family="Helvetica,sans-Serif" font-size="10.00">cib.h</text>
</a>
</g>
</g>
<!-- Node17&#45;&gt;Node19 -->
<g id="edge28_Node000017_Node000019" class="edge">
<title>Node17&#45;&gt;Node19</title>
<g id="a_edge28_Node000017_Node000019"><a xlink:title=" ">
<path fill="none" stroke="#63b8ff" d="M565.63,-341.54C594.08,-333.21 639.21,-319.87 687.14,-305.03"/>
<polygon fill="#63b8ff" stroke="#63b8ff" points="688.09,-308.4 696.61,-302.09 686.02,-301.71 688.09,-308.4"/>
</a>
</g>
</g>
<!-- Node20 -->
<g id="Node000020" class="node">
<title>Node20</title>
<g id="a_Node000020"><a xlink:href="core_2include_2msg_8h.html" target="_top" xlink:title="Messaging API for inter process communication.">
<polygon fill="white" stroke="#666666" points="680,-304.5 634,-304.5 634,-283.75 680,-283.75 680,-304.5"/>
<text text-anchor="middle" x="657" y="-291" font-family="Helvetica,sans-Serif" font-size="10.00">msg.h</text>
</a>
</g>
</g>
<!-- Node17&#45;&gt;Node20 -->
<g id="edge30_Node000017_Node000020" class="edge">
<title>Node17&#45;&gt;Node20</title>
<g id="a_edge30_Node000017_Node000020"><a xlink:title=" ">
<path fill="none" stroke="#63b8ff" d="M558.45,-340.09C577.05,-331.6 604.22,-319.2 625.33,-309.58"/>
<polygon fill="#63b8ff" stroke="#63b8ff" points="626.71,-312.79 634.36,-305.46 623.8,-306.42 626.71,-312.79"/>
</a>
</g>
</g>
<!-- Node21 -->
<g id="Node000021" class="node">
<title>Node21</title>
<g id="a_Node000021"><a xlink:href="sched_8h.html" target="_top" xlink:title="Scheduler API definition.">
<polygon fill="white" stroke="#666666" points="566.75,-247.75 513.25,-247.75 513.25,-227 566.75,-227 566.75,-247.75"/>
<text text-anchor="middle" x="540" y="-234.25" font-family="Helvetica,sans-Serif" font-size="10.00">sched.h</text>
</a>
</g>
</g>
<!-- Node17&#45;&gt;Node21 -->
<g id="edge39_Node000017_Node000021" class="edge">
<title>Node17&#45;&gt;Node21</title>
<g id="a_edge39_Node000017_Node000021"><a xlink:title=" ">
<path fill="none" stroke="#63b8ff" d="M553.41,-340.28C565.2,-332.36 580.16,-319.93 587,-304.5 595.15,-286.09 579.55,-267.62 564.17,-254.9"/>
<polygon fill="#63b8ff" stroke="#63b8ff" points="566.6,-252.35 556.53,-249.04 562.34,-257.9 566.6,-252.35"/>
</a>
</g>
</g>
<!-- Node23 -->
<g id="Node000023" class="node">
<title>Node23</title>
<g id="a_Node000023"><a xlink:href="thread__config_8h.html" target="_top" xlink:title="Thread configuration defines.">
<polygon fill="white" stroke="#666666" points="477.88,-304.5 386.12,-304.5 386.12,-283.75 477.88,-283.75 477.88,-304.5"/>
<text text-anchor="middle" x="432" y="-291" font-family="Helvetica,sans-Serif" font-size="10.00">thread_config.h</text>
</a>
</g>
</g>
<!-- Node17&#45;&gt;Node23 -->
<g id="edge40_Node000017_Node000023" class="edge">
<title>Node17&#45;&gt;Node23</title>
<g id="a_edge40_Node000017_Node000023"><a xlink:title=" ">
<path fill="none" stroke="#63b8ff" d="M518.23,-340.09C502.25,-331.76 479.05,-319.66 460.74,-310.11"/>
<polygon fill="#63b8ff" stroke="#63b8ff" points="462.44,-307.05 451.95,-305.53 459.2,-313.26 462.44,-307.05"/>
</a>
</g>
</g>
<!-- Node25 -->
<g id="Node000025" class="node">
<title>Node25</title>
<g id="a_Node000025"><a xlink:title=" ">
<polygon fill="#e0e0e0" stroke="#999999" points="578.38,-304.5 495.62,-304.5 495.62,-283.75 578.38,-283.75 578.38,-304.5"/>
<text text-anchor="middle" x="537" y="-291" font-family="Helvetica,sans-Serif" font-size="10.00">thread_arch.h</text>
</a>
</g>
</g>
<!-- Node17&#45;&gt;Node25 -->
<g id="edge43_Node000017_Node000025" class="edge">
<title>Node17&#45;&gt;Node25</title>
<g id="a_edge43_Node000017_Node000025"><a xlink:title=" ">
<path fill="none" stroke="#63b8ff" d="M537,-340.09C537,-333.47 537,-324.47 537,-316.27"/>
<polygon fill="#63b8ff" stroke="#63b8ff" points="540.5,-316.34 537,-306.34 533.5,-316.34 540.5,-316.34"/>
</a>
</g>
</g>
<!-- Node18&#45;&gt;Node4 -->
<g id="edge26_Node000018_Node000004" class="edge">
<title>Node18&#45;&gt;Node4</title>
<g id="a_edge26_Node000018_Node000004"><a xlink:title=" ">
<path fill="none" stroke="#63b8ff" d="M447.39,-170.12C451.87,-152.27 461.64,-113.36 467.73,-89.09"/>
<polygon fill="#63b8ff" stroke="#63b8ff" points="471.13,-89.94 470.17,-79.39 464.34,-88.24 471.13,-89.94"/>
</a>
</g>
</g>
<!-- Node18&#45;&gt;Node6 -->
<g id="edge25_Node000018_Node000006" class="edge">
<title>Node18&#45;&gt;Node6</title>
<g id="a_edge25_Node000018_Node000006"><a xlink:title=" ">
<path fill="none" stroke="#63b8ff" d="M467.84,-172.35C495.18,-163.65 541.5,-148.91 575.28,-138.15"/>
<polygon fill="#63b8ff" stroke="#63b8ff" points="576.3,-141.5 584.77,-135.13 574.18,-134.83 576.3,-141.5"/>
</a>
</g>
</g>
<!-- Node18&#45;&gt;Node16 -->
<g id="edge27_Node000018_Node000016" class="edge">
<title>Node18&#45;&gt;Node16</title>
<g id="a_edge27_Node000018_Node000016"><a xlink:title=" ">
<path fill="none" stroke="#63b8ff" d="M422.1,-175.55C367.62,-165.87 230.2,-141.44 168.2,-130.42"/>
<polygon fill="#63b8ff" stroke="#63b8ff" points="169.14,-127.03 158.68,-128.73 167.92,-133.93 169.14,-127.03"/>
</a>
</g>
</g>
<!-- Node19&#45;&gt;Node14 -->
<g id="edge29_Node000019_Node000014" class="edge">
<title>Node19&#45;&gt;Node14</title>
<g id="a_edge29_Node000019_Node000014"><a xlink:title=" ">
<path fill="none" stroke="#63b8ff" d="M720.96,-283.46C731.36,-249.56 766.3,-135.62 780.71,-88.64"/>
<polygon fill="#63b8ff" stroke="#63b8ff" points="784.02,-89.79 783.6,-79.2 777.32,-87.74 784.02,-89.79"/>
</a>
</g>
</g>
<!-- Node20&#45;&gt;Node5 -->
<g id="edge31_Node000020_Node000005" class="edge">
<title>Node20&#45;&gt;Node5</title>
<g id="a_edge31_Node000020_Node000005"><a xlink:title=" ">
<path fill="none" stroke="#63b8ff" d="M656.33,-283.36C654.41,-261.42 647.37,-207.21 623,-170.25 605.28,-143.38 560.31,-140.39 578,-113.5 622.51,-45.85 722.3,-22.82 777.13,-15.13"/>
<polygon fill="#63b8ff" stroke="#63b8ff" points="777.47,-18.61 786.94,-13.86 776.57,-11.67 777.47,-18.61"/>
</a>
</g>
</g>
<!-- Node20&#45;&gt;Node6 -->
<g id="edge32_Node000020_Node000006" class="edge">
<title>Node20&#45;&gt;Node6</title>
<g id="a_edge32_Node000020_Node000006"><a xlink:title=" ">
<path fill="none" stroke="#63b8ff" d="M659.09,-283.47C663.25,-262.2 670.92,-210 656,-170.25 652.03,-159.68 644.4,-149.91 636.94,-142.16"/>
<polygon fill="#63b8ff" stroke="#63b8ff" points="639.81,-140.06 630.17,-135.65 634.96,-145.11 639.81,-140.06"/>
</a>
</g>
</g>
<!-- Node20&#45;&gt;Node21 -->
<g id="edge33_Node000020_Node000021" class="edge">
<title>Node20&#45;&gt;Node21</title>
<g id="a_edge33_Node000020_Node000021"><a xlink:title=" ">
<path fill="none" stroke="#63b8ff" d="M636.08,-283.34C618.03,-274.89 591.7,-262.57 571.16,-252.96"/>
<polygon fill="#63b8ff" stroke="#63b8ff" points="572.65,-249.79 562.11,-248.72 569.68,-256.13 572.65,-249.79"/>
</a>
</g>
</g>
<!-- Node21&#45;&gt;Node2 -->
<g id="edge35_Node000021_Node000002" class="edge">
<title>Node21&#45;&gt;Node2</title>
<g id="a_edge35_Node000021_Node000002"><a xlink:title=" ">
<path fill="none" stroke="#63b8ff" d="M513.07,-229.22C478.68,-220.08 418.72,-204.14 377.74,-193.25"/>
<polygon fill="#63b8ff" stroke="#63b8ff" points="378.74,-189.9 368.18,-190.71 376.94,-196.66 378.74,-189.9"/>
</a>
</g>
</g>
<!-- Node21&#45;&gt;Node4 -->
<g id="edge34_Node000021_Node000004" class="edge">
<title>Node21&#45;&gt;Node4</title>
<g id="a_edge34_Node000021_Node000004"><a xlink:title=" ">
<path fill="none" stroke="#63b8ff" d="M533.92,-226.54C528.51,-217.51 520.6,-203.67 515,-191 499.55,-156.08 486.16,-113.58 478.87,-88.81"/>
<polygon fill="#63b8ff" stroke="#63b8ff" points="482.27,-87.99 476.13,-79.36 475.55,-89.94 482.27,-87.99"/>
</a>
</g>
</g>
<!-- Node21&#45;&gt;Node10 -->
<g id="edge36_Node000021_Node000010" class="edge">
<title>Node21&#45;&gt;Node10</title>
<g id="a_edge36_Node000021_Node000010"><a xlink:title=" ">
<path fill="none" stroke="#63b8ff" d="M567.24,-231.42C615.3,-222.68 716.17,-204.33 781.14,-192.51"/>
<polygon fill="#63b8ff" stroke="#63b8ff" points="781.73,-195.96 790.94,-190.73 780.48,-189.08 781.73,-195.96"/>
</a>
</g>
</g>
<!-- Node21&#45;&gt;Node18 -->
<g id="edge38_Node000021_Node000018" class="edge">
<title>Node21&#45;&gt;Node18</title>
<g id="a_edge38_Node000021_Node000018"><a xlink:title=" ">
<path fill="none" stroke="#63b8ff" d="M523.02,-226.59C508.7,-218.33 487.96,-206.38 471.46,-196.88"/>
<polygon fill="#63b8ff" stroke="#63b8ff" points="473.56,-194.05 463.15,-192.08 470.06,-200.11 473.56,-194.05"/>
</a>
</g>
</g>
<!-- Node22 -->
<g id="Node000022" class="node">
<title>Node22</title>
<g id="a_Node000022"><a xlink:href="native__sched_8h.html" target="_top" xlink:title="Add definitions required on the native board.">
<polygon fill="white" stroke="#666666" points="613.75,-191 524.25,-191 524.25,-170.25 613.75,-170.25 613.75,-191"/>
<text text-anchor="middle" x="569" y="-177.5" font-family="Helvetica,sans-Serif" font-size="10.00">native_sched.h</text>
</a>
</g>
</g>
<!-- Node21&#45;&gt;Node22 -->
<g id="edge37_Node000021_Node000022" class="edge">
<title>Node21&#45;&gt;Node22</title>
<g id="a_edge37_Node000021_Node000022"><a xlink:title=" ">
<path fill="none" stroke="#63b8ff" d="M545.18,-226.59C548.9,-219.58 554.02,-209.91 558.56,-201.33"/>
<polygon fill="#63b8ff" stroke="#63b8ff" points="561.56,-203.14 563.15,-192.67 555.38,-199.86 561.56,-203.14"/>
</a>
</g>
</g>
<!-- Node23&#45;&gt;Node21 -->
<g id="edge42_Node000023_Node000021" class="edge">
<title>Node23&#45;&gt;Node21</title>
<g id="a_edge42_Node000023_Node000021"><a xlink:title=" ">
<path fill="none" stroke="#63b8ff" d="M451.31,-283.34C467.82,-274.97 491.83,-262.79 510.71,-253.22"/>
<polygon fill="#63b8ff" stroke="#63b8ff" points="512.17,-256.41 519.51,-248.76 509.01,-250.16 512.17,-256.41"/>
</a>
</g>
</g>
<!-- Node24 -->
<g id="Node000024" class="node">
<title>Node24</title>
<g id="a_Node000024"><a xlink:title=" ">
<polygon fill="#e0e0e0" stroke="#999999" points="465.88,-247.75 398.12,-247.75 398.12,-227 465.88,-227 465.88,-247.75"/>
<text text-anchor="middle" x="432" y="-234.25" font-family="Helvetica,sans-Serif" font-size="10.00">cpu_conf.h</text>
</a>
</g>
</g>
<!-- Node23&#45;&gt;Node24 -->
<g id="edge41_Node000023_Node000024" class="edge">
<title>Node23&#45;&gt;Node24</title>
<g id="a_edge41_Node000023_Node000024"><a xlink:title=" ">
<path fill="none" stroke="#63b8ff" d="M432,-283.34C432,-276.72 432,-267.72 432,-259.52"/>
<polygon fill="#63b8ff" stroke="#63b8ff" points="435.5,-259.59 432,-249.59 428.5,-259.59 435.5,-259.59"/>
</a>
</g>
</g>
<!-- Node26&#45;&gt;Node5 -->
<g id="edge45_Node000026_Node000005" class="edge">
<title>Node26&#45;&gt;Node5</title>
<g id="a_edge45_Node000026_Node000005"><a xlink:title=" ">
<path fill="none" stroke="#63b8ff" d="M1196.86,-226.83C1200.3,-217.78 1205.08,-203.72 1207,-191 1212.32,-155.71 1208.19,-141.45 1186,-113.5 1157.53,-77.63 1142.69,-73.33 1100,-56.75 1015.81,-24.04 908.87,-14.9 852.96,-12.35"/>
<polygon fill="#63b8ff" stroke="#63b8ff" points="853.15,-8.86 843.02,-11.95 852.87,-15.85 853.15,-8.86"/>
</a>
</g>
</g>
<!-- Node26&#45;&gt;Node10 -->
<g id="edge51_Node000026_Node000010" class="edge">
<title>Node26&#45;&gt;Node10</title>
<g id="a_edge51_Node000026_Node000010"><a xlink:title=" ">
<path fill="none" stroke="#63b8ff" d="M1154.32,-230.36C1093.04,-220.83 973.17,-202.18 900.76,-190.92"/>
<polygon fill="#63b8ff" stroke="#63b8ff" points="901.48,-187.49 891.06,-189.41 900.41,-194.41 901.48,-187.49"/>
</a>
</g>
</g>
<!-- Node27 -->
<g id="Node000027" class="node">
<title>Node27</title>
<g id="a_Node000027"><a xlink:href="errno_8h.html" target="_top" xlink:title=" ">
<polygon fill="white" stroke="#666666" points="1304.25,-191 1253.75,-191 1253.75,-170.25 1304.25,-170.25 1304.25,-191"/>
<text text-anchor="middle" x="1279" y="-177.5" font-family="Helvetica,sans-Serif" font-size="10.00">errno.h</text>
</a>
</g>
</g>
<!-- Node26&#45;&gt;Node27 -->
<g id="edge46_Node000026_Node000027" class="edge">
<title>Node26&#45;&gt;Node27</title>
<g id="a_edge46_Node000026_Node000027"><a xlink:title=" ">
<path fill="none" stroke="#63b8ff" d="M1208.38,-226.59C1221.09,-218.49 1239.4,-206.83 1254.19,-197.42"/>
<polygon fill="#63b8ff" stroke="#63b8ff" points="1255.93,-200.46 1262.48,-192.14 1252.17,-194.56 1255.93,-200.46"/>
</a>
</g>
</g>
<!-- Node28 -->
<g id="Node000028" class="node">
<title>Node28</title>
<g id="a_Node000028"><a xlink:href="iolist_8h.html" target="_top" xlink:title="iolist scatter / gather IO">
<polygon fill="white" stroke="#666666" points="1371.5,-191 1322.5,-191 1322.5,-170.25 1371.5,-170.25 1371.5,-191"/>
<text text-anchor="middle" x="1347" y="-177.5" font-family="Helvetica,sans-Serif" font-size="10.00">iolist.h</text>
</a>
</g>
</g>
<!-- Node26&#45;&gt;Node28 -->
<g id="edge47_Node000026_Node000028" class="edge">
<title>Node26&#45;&gt;Node28</title>
<g id="a_edge47_Node000026_Node000028"><a xlink:title=" ">
<path fill="none" stroke="#63b8ff" d="M1220.53,-226.59C1245.93,-217.56 1283.78,-204.1 1311.45,-194.26"/>
<polygon fill="#63b8ff" stroke="#63b8ff" points="1312.57,-197.58 1320.82,-190.93 1310.23,-190.98 1312.57,-197.58"/>
</a>
</g>
</g>
<!-- Node29 -->
<g id="Node000029" class="node">
<title>Node29</title>
<g id="a_Node000029"><a xlink:href="netopt_8h.html" target="_top" xlink:title="Definition of global configuration options.">
<polygon fill="white" stroke="#666666" points="1197.62,-191 1122.38,-191 1122.38,-170.25 1197.62,-170.25 1197.62,-191"/>
<text text-anchor="middle" x="1160" y="-177.5" font-family="Helvetica,sans-Serif" font-size="10.00">net/netopt.h</text>
</a>
</g>
</g>
<!-- Node26&#45;&gt;Node29 -->
<g id="edge48_Node000026_Node000029" class="edge">
<title>Node26&#45;&gt;Node29</title>
<g id="a_edge48_Node000026_Node000029"><a xlink:title=" ">
<path fill="none" stroke="#63b8ff" d="M1187.1,-226.59C1182.83,-219.5 1176.92,-209.69 1171.7,-201.04"/>
<polygon fill="#63b8ff" stroke="#63b8ff" points="1174.79,-199.38 1166.63,-192.62 1168.79,-203 1174.79,-199.38"/>
</a>
</g>
</g>
<!-- Node29&#45;&gt;Node5 -->
<g id="edge49_Node000029_Node000005" class="edge">
<title>Node29&#45;&gt;Node5</title>
<g id="a_edge49_Node000029_Node000005"><a xlink:title=" ">
<path fill="none" stroke="#63b8ff" d="M1165.06,-170.12C1171.63,-156.35 1180.93,-130.61 1169,-113.5 1132.39,-61 936.69,-28.17 853,-16.34"/>
<polygon fill="#63b8ff" stroke="#63b8ff" points="853.62,-12.9 843.23,-14.99 852.66,-19.83 853.62,-12.9"/>
</a>
</g>
</g>
<!-- Node29&#45;&gt;Node6 -->
<g id="edge50_Node000029_Node000006" class="edge">
<title>Node29&#45;&gt;Node6</title>
<g id="a_edge50_Node000029_Node000006"><a xlink:title=" ">
<path fill="none" stroke="#63b8ff" d="M1122.13,-173.95C1112.63,-172.63 1102.46,-171.3 1093,-170.25 903.43,-149.18 851.05,-163.93 659.25,-134.37"/>
<polygon fill="#63b8ff" stroke="#63b8ff" points="659.84,-130.92 649.42,-132.83 658.75,-137.84 659.84,-130.92"/>
</a>
</g>
</g>
<!-- Node30&#45;&gt;Node5 -->
<g id="edge54_Node000030_Node000005" class="edge">
<title>Node30&#45;&gt;Node5</title>
<g id="a_edge54_Node000030_Node000005"><a xlink:title=" ">
<path fill="none" stroke="#63b8ff" d="M1044.82,-170.01C1048.2,-156.55 1052.33,-131.68 1043,-113.5 1007.13,-43.57 907.81,-21.47 852.83,-14.53"/>
<polygon fill="#63b8ff" stroke="#63b8ff" points="853.32,-11.06 842.99,-13.4 852.53,-18.01 853.32,-11.06"/>
</a>
</g>
</g>
<!-- Node30&#45;&gt;Node11 -->
<g id="edge56_Node000030_Node000011" class="edge">
<title>Node30&#45;&gt;Node11</title>
<g id="a_edge56_Node000030_Node000011"><a xlink:title=" ">
<path fill="none" stroke="#63b8ff" d="M1030.92,-169.84C1022.19,-162.13 1009.81,-151.2 999.44,-142.04"/>
<polygon fill="#63b8ff" stroke="#63b8ff" points="1001.94,-139.58 992.12,-135.58 997.3,-144.82 1001.94,-139.58"/>
</a>
</g>
</g>
<!-- Node30&#45;&gt;Node14 -->
<g id="edge53_Node000030_Node000014" class="edge">
<title>Node30&#45;&gt;Node14</title>
<g id="a_edge53_Node000030_Node000014"><a xlink:title=" ">
<path fill="none" stroke="#63b8ff" d="M1042.18,-169.92C1041.88,-155.4 1039.05,-128.17 1023,-113.5 1008.58,-100.32 888.88,-82.13 825.71,-73.32"/>
<polygon fill="#63b8ff" stroke="#63b8ff" points="826.49,-69.9 816.11,-72 825.54,-76.83 826.49,-69.9"/>
</a>
</g>
</g>
<!-- Node31 -->
<g id="Node000031" class="node">
<title>Node31</title>
<g id="a_Node000031"><a xlink:title=" ">
<polygon fill="#e0e0e0" stroke="#999999" points="1160,-134.25 1108,-134.25 1108,-113.5 1160,-113.5 1160,-134.25"/>
<text text-anchor="middle" x="1134" y="-120.75" font-family="Helvetica,sans-Serif" font-size="10.00">stdlib.h</text>
</a>
</g>
</g>
<!-- Node30&#45;&gt;Node31 -->
<g id="edge55_Node000030_Node000031" class="edge">
<title>Node30&#45;&gt;Node31</title>
<g id="a_edge55_Node000030_Node000031"><a xlink:title=" ">
<path fill="none" stroke="#63b8ff" d="M1058.45,-169.84C1072.18,-161.66 1092.02,-149.86 1107.92,-140.4"/>
<polygon fill="#63b8ff" stroke="#63b8ff" points="1109.59,-143.47 1116.39,-135.35 1106.01,-137.46 1109.59,-143.47"/>
</a>
</g>
</g>
</g>
</svg>
