<?xml version="1.0" encoding="UTF-8" standalone="no"?>
<!DOCTYPE svg PUBLIC "-//W3C//DTD SVG 1.1//EN"
 "http://www.w3.org/Graphics/SVG/1.1/DTD/svg11.dtd">
<!-- Generated by graphviz version 12.1.2 (0)
 -->
<!-- Title: sys/include/net/skald/eddystone.h Pages: 1 -->
<svg width="1431pt" height="666pt"
 viewBox="0.00 0.00 1431.38 665.75" xmlns="http://www.w3.org/2000/svg" xmlns:xlink="http://www.w3.org/1999/xlink">
<g id="graph0" class="graph" transform="scale(1 1) rotate(0) translate(4 661.75)">
<title>sys/include/net/skald/eddystone.h</title>
<!-- Node1 -->
<g id="Node000001" class="node">
<title>Node1</title>
<g id="a_Node000001"><a xlink:title="Skald&#39;s basic interface.">
<polygon fill="#999999" stroke="#666666" points="1297.38,-657.75 1178.62,-657.75 1178.62,-624.25 1297.38,-624.25 1297.38,-657.75"/>
<text text-anchor="start" x="1186.62" y="-644.25" font-family="Helvetica,sans-Serif" font-size="10.00">sys/include/net/skald</text>
<text text-anchor="middle" x="1238" y="-631.5" font-family="Helvetica,sans-Serif" font-size="10.00">/eddystone.h</text>
</a>
</g>
</g>
<!-- Node2 -->
<g id="Node000002" class="node">
<title>Node2</title>
<g id="a_Node000002"><a xlink:href="eddystone_8h.html" target="_top" xlink:title="Constants defined by the Eddystone specification.">
<polygon fill="white" stroke="#666666" points="1235.38,-588.25 1140.62,-588.25 1140.62,-567.5 1235.38,-567.5 1235.38,-588.25"/>
<text text-anchor="middle" x="1188" y="-574.75" font-family="Helvetica,sans-Serif" font-size="10.00">net/eddystone.h</text>
</a>
</g>
</g>
<!-- Node1&#45;&gt;Node2 -->
<g id="edge1_Node000001_Node000002" class="edge">
<title>Node1&#45;&gt;Node2</title>
<g id="a_edge1_Node000001_Node000002"><a xlink:title=" ">
<path fill="none" stroke="#63b8ff" d="M1224.86,-623.94C1218.22,-615.82 1210.12,-605.92 1203.21,-597.47"/>
<polygon fill="#63b8ff" stroke="#63b8ff" points="1206.05,-595.41 1197.01,-589.89 1200.63,-599.84 1206.05,-595.41"/>
</a>
</g>
</g>
<!-- Node3 -->
<g id="Node000003" class="node">
<title>Node3</title>
<g id="a_Node000003"><a xlink:href="skald_8h.html" target="_top" xlink:title="Skald&#39;s basic interface.">
<polygon fill="white" stroke="#666666" points="1323,-588.25 1253,-588.25 1253,-567.5 1323,-567.5 1323,-588.25"/>
<text text-anchor="middle" x="1288" y="-574.75" font-family="Helvetica,sans-Serif" font-size="10.00">net/skald.h</text>
</a>
</g>
</g>
<!-- Node1&#45;&gt;Node3 -->
<g id="edge2_Node000001_Node000003" class="edge">
<title>Node1&#45;&gt;Node3</title>
<g id="a_edge2_Node000001_Node000003"><a xlink:title=" ">
<path fill="none" stroke="#63b8ff" d="M1251.14,-623.94C1257.78,-615.82 1265.88,-605.92 1272.79,-597.47"/>
<polygon fill="#63b8ff" stroke="#63b8ff" points="1275.37,-599.84 1278.99,-589.89 1269.95,-595.41 1275.37,-599.84"/>
</a>
</g>
</g>
<!-- Node4 -->
<g id="Node000004" class="node">
<title>Node4</title>
<g id="a_Node000004"><a xlink:title=" ">
<polygon fill="#e0e0e0" stroke="#999999" points="911.38,-20.75 858.62,-20.75 858.62,0 911.38,0 911.38,-20.75"/>
<text text-anchor="middle" x="885" y="-7.25" font-family="Helvetica,sans-Serif" font-size="10.00">stdint.h</text>
</a>
</g>
</g>
<!-- Node3&#45;&gt;Node4 -->
<g id="edge3_Node000003_Node000004" class="edge">
<title>Node3&#45;&gt;Node4</title>
<g id="a_edge3_Node000003_Node000004"><a xlink:title=" ">
<path fill="none" stroke="#63b8ff" d="M1295.66,-567.07C1309.44,-548.39 1337,-505.97 1337,-465.38 1337,-465.38 1337,-465.38 1337,-122.88 1337,-37.86 1031.79,-17.28 922.97,-12.64"/>
<polygon fill="#63b8ff" stroke="#63b8ff" points="923.23,-9.14 913.1,-12.24 922.95,-16.14 923.23,-9.14"/>
</a>
</g>
</g>
<!-- Node5 -->
<g id="Node000005" class="node">
<title>Node5</title>
<g id="a_Node000005"><a xlink:href="ztimer_8h.html" target="_top" xlink:title="ztimer API">
<polygon fill="white" stroke="#666666" points="909.25,-531.5 852.75,-531.5 852.75,-510.75 909.25,-510.75 909.25,-531.5"/>
<text text-anchor="middle" x="881" y="-518" font-family="Helvetica,sans-Serif" font-size="10.00">ztimer.h</text>
</a>
</g>
</g>
<!-- Node3&#45;&gt;Node5 -->
<g id="edge4_Node000003_Node000005" class="edge">
<title>Node3&#45;&gt;Node5</title>
<g id="a_edge4_Node000003_Node000005"><a xlink:title=" ">
<path fill="none" stroke="#63b8ff" d="M1252.51,-569.04C1249.64,-568.49 1246.77,-567.97 1244,-567.5 1127.02,-547.76 987.5,-532.67 920.6,-525.95"/>
<polygon fill="#63b8ff" stroke="#63b8ff" points="921.16,-522.49 910.87,-524.99 920.47,-529.46 921.16,-522.49"/>
</a>
</g>
</g>
<!-- Node31 -->
<g id="Node000031" class="node">
<title>Node31</title>
<g id="a_Node000031"><a xlink:href="sys_2include_2net_2ble_8h.html" target="_top" xlink:title="General BLE values as defined by the BT standard.">
<polygon fill="white" stroke="#666666" points="1423.38,-531.5 1364.62,-531.5 1364.62,-510.75 1423.38,-510.75 1423.38,-531.5"/>
<text text-anchor="middle" x="1394" y="-518" font-family="Helvetica,sans-Serif" font-size="10.00">net/ble.h</text>
</a>
</g>
</g>
<!-- Node3&#45;&gt;Node31 -->
<g id="edge54_Node000003_Node000031" class="edge">
<title>Node3&#45;&gt;Node31</title>
<g id="a_edge54_Node000003_Node000031"><a xlink:title=" ">
<path fill="none" stroke="#63b8ff" d="M1306.95,-567.09C1323.08,-558.76 1346.5,-546.66 1364.99,-537.11"/>
<polygon fill="#63b8ff" stroke="#63b8ff" points="1366.59,-540.22 1373.87,-532.52 1363.38,-534 1366.59,-540.22"/>
</a>
</g>
</g>
<!-- Node32 -->
<g id="Node000032" class="node">
<title>Node32</title>
<g id="a_Node000032"><a xlink:href="drivers_2include_2net_2netdev_2ble_8h.html" target="_top" xlink:title="BLE specific adaption for the Netdev API.">
<polygon fill="white" stroke="#666666" points="1267.75,-418 1172.25,-418 1172.25,-397.25 1267.75,-397.25 1267.75,-418"/>
<text text-anchor="middle" x="1220" y="-404.5" font-family="Helvetica,sans-Serif" font-size="10.00">net/netdev/ble.h</text>
</a>
</g>
</g>
<!-- Node3&#45;&gt;Node32 -->
<g id="edge55_Node000003_Node000032" class="edge">
<title>Node3&#45;&gt;Node32</title>
<g id="a_edge55_Node000003_Node000032"><a xlink:title=" ">
<path fill="none" stroke="#63b8ff" d="M1284.15,-567.35C1273.4,-540.75 1242.9,-465.27 1228.16,-428.82"/>
<polygon fill="#63b8ff" stroke="#63b8ff" points="1231.54,-427.83 1224.55,-419.87 1225.05,-430.45 1231.54,-427.83"/>
</a>
</g>
</g>
<!-- Node5&#45;&gt;Node4 -->
<g id="edge5_Node000005_Node000004" class="edge">
<title>Node5&#45;&gt;Node4</title>
<g id="a_edge5_Node000005_Node000004"><a xlink:title=" ">
<path fill="none" stroke="#63b8ff" d="M909.4,-513.06C953.14,-500.29 1032,-468.91 1032,-408.62 1032,-408.62 1032,-408.62 1032,-236.38 1032,-153.01 1036.23,-116.41 978,-56.75 962.76,-41.13 941.04,-30.12 922.42,-22.86"/>
<polygon fill="#63b8ff" stroke="#63b8ff" points="923.62,-19.57 913.03,-19.43 921.23,-26.15 923.62,-19.57"/>
</a>
</g>
</g>
<!-- Node6 -->
<g id="Node000006" class="node">
<title>Node6</title>
<g id="a_Node000006"><a xlink:href="sched_8h.html" target="_top" xlink:title="Scheduler API definition.">
<polygon fill="white" stroke="#666666" points="664.75,-247.75 611.25,-247.75 611.25,-227 664.75,-227 664.75,-247.75"/>
<text text-anchor="middle" x="638" y="-234.25" font-family="Helvetica,sans-Serif" font-size="10.00">sched.h</text>
</a>
</g>
</g>
<!-- Node5&#45;&gt;Node6 -->
<g id="edge6_Node000005_Node000006" class="edge">
<title>Node5&#45;&gt;Node6</title>
<g id="a_edge6_Node000005_Node000006"><a xlink:title=" ">
<path fill="none" stroke="#63b8ff" d="M876.72,-510.5C868.65,-491.45 852,-447.43 852,-408.62 852,-408.62 852,-408.62 852,-349.88 852,-271.56 737.87,-248.16 676.31,-241.24"/>
<polygon fill="#63b8ff" stroke="#63b8ff" points="676.91,-237.78 666.61,-240.25 676.2,-244.75 676.91,-237.78"/>
</a>
</g>
</g>
<!-- Node19 -->
<g id="Node000019" class="node">
<title>Node19</title>
<g id="a_Node000019"><a xlink:title=" ">
<polygon fill="#e0e0e0" stroke="#999999" points="824,-474.75 778,-474.75 778,-454 824,-454 824,-474.75"/>
<text text-anchor="middle" x="801" y="-461.25" font-family="Helvetica,sans-Serif" font-size="10.00">msg.h</text>
</a>
</g>
</g>
<!-- Node5&#45;&gt;Node19 -->
<g id="edge25_Node000005_Node000019" class="edge">
<title>Node5&#45;&gt;Node19</title>
<g id="a_edge25_Node000005_Node000019"><a xlink:title=" ">
<path fill="none" stroke="#63b8ff" d="M866.7,-510.34C854.98,-502.32 838.16,-490.81 824.47,-481.44"/>
<polygon fill="#63b8ff" stroke="#63b8ff" points="826.66,-478.69 816.43,-475.93 822.7,-484.47 826.66,-478.69"/>
</a>
</g>
</g>
<!-- Node20 -->
<g id="Node000020" class="node">
<title>Node20</title>
<g id="a_Node000020"><a xlink:href="mutex_8h.html" target="_top" xlink:title="Mutex for thread synchronization.">
<polygon fill="white" stroke="#666666" points="555.25,-418 498.75,-418 498.75,-397.25 555.25,-397.25 555.25,-418"/>
<text text-anchor="middle" x="527" y="-404.5" font-family="Helvetica,sans-Serif" font-size="10.00">mutex.h</text>
</a>
</g>
</g>
<!-- Node5&#45;&gt;Node20 -->
<g id="edge26_Node000005_Node000020" class="edge">
<title>Node5&#45;&gt;Node20</title>
<g id="a_edge26_Node000005_Node000020"><a xlink:title=" ">
<path fill="none" stroke="#63b8ff" d="M852.33,-511.09C789.21,-491.21 638.14,-443.63 566.27,-420.99"/>
<polygon fill="#63b8ff" stroke="#63b8ff" points="567.48,-417.7 556.89,-418.04 565.37,-424.38 567.48,-417.7"/>
</a>
</g>
</g>
<!-- Node30 -->
<g id="Node000030" class="node">
<title>Node30</title>
<g id="a_Node000030"><a xlink:href="rmutex_8h.html" target="_top" xlink:title="Recursive Mutex for thread synchronization.">
<polygon fill="white" stroke="#666666" points="940.12,-474.75 879.88,-474.75 879.88,-454 940.12,-454 940.12,-474.75"/>
<text text-anchor="middle" x="910" y="-461.25" font-family="Helvetica,sans-Serif" font-size="10.00">rmutex.h</text>
</a>
</g>
</g>
<!-- Node5&#45;&gt;Node30 -->
<g id="edge50_Node000005_Node000030" class="edge">
<title>Node5&#45;&gt;Node30</title>
<g id="a_edge50_Node000005_Node000030"><a xlink:title=" ">
<path fill="none" stroke="#63b8ff" d="M886.18,-510.34C889.9,-503.33 895.02,-493.66 899.56,-485.08"/>
<polygon fill="#63b8ff" stroke="#63b8ff" points="902.56,-486.89 904.15,-476.42 896.38,-483.61 902.56,-486.89"/>
</a>
</g>
</g>
<!-- Node7 -->
<g id="Node000007" class="node">
<title>Node7</title>
<g id="a_Node000007"><a xlink:title=" ">
<polygon fill="#e0e0e0" stroke="#999999" points="643.5,-77.5 588.5,-77.5 588.5,-56.75 643.5,-56.75 643.5,-77.5"/>
<text text-anchor="middle" x="616" y="-64" font-family="Helvetica,sans-Serif" font-size="10.00">stddef.h</text>
</a>
</g>
</g>
<!-- Node6&#45;&gt;Node7 -->
<g id="edge7_Node000006_Node000007" class="edge">
<title>Node6&#45;&gt;Node7</title>
<g id="a_edge7_Node000006_Node000007"><a xlink:title=" ">
<path fill="none" stroke="#63b8ff" d="M635.91,-226.67C633.98,-217.5 631.09,-203.35 629,-191 624.74,-165.89 623.74,-159.57 621,-134.25 619.37,-119.14 618.09,-102.03 617.23,-89"/>
<polygon fill="#63b8ff" stroke="#63b8ff" points="620.73,-88.83 616.62,-79.07 613.74,-89.27 620.73,-88.83"/>
</a>
</g>
</g>
<!-- Node8 -->
<g id="Node000008" class="node">
<title>Node8</title>
<g id="a_Node000008"><a xlink:href="inttypes_8h.html" target="_top" xlink:title="Adds include for missing inttype definitions.">
<polygon fill="white" stroke="#666666" points="480.38,-191 415.62,-191 415.62,-170.25 480.38,-170.25 480.38,-191"/>
<text text-anchor="middle" x="448" y="-177.5" font-family="Helvetica,sans-Serif" font-size="10.00">inttypes.h</text>
</a>
</g>
</g>
<!-- Node6&#45;&gt;Node8 -->
<g id="edge8_Node000006_Node000008" class="edge">
<title>Node6&#45;&gt;Node8</title>
<g id="a_edge8_Node000006_Node000008"><a xlink:title=" ">
<path fill="none" stroke="#63b8ff" d="M610.78,-228.53C579.63,-219.55 528.19,-204.73 491.47,-194.15"/>
<polygon fill="#63b8ff" stroke="#63b8ff" points="492.62,-190.84 482.04,-191.43 490.68,-197.57 492.62,-190.84"/>
</a>
</g>
</g>
<!-- Node9 -->
<g id="Node000009" class="node">
<title>Node9</title>
<g id="a_Node000009"><a xlink:href="kernel__defines_8h.html" target="_top" xlink:title="Common macros and compiler attributes/pragmas configuration.">
<polygon fill="white" stroke="#666666" points="880.12,-191 783.88,-191 783.88,-170.25 880.12,-170.25 880.12,-191"/>
<text text-anchor="middle" x="832" y="-177.5" font-family="Helvetica,sans-Serif" font-size="10.00">kernel_defines.h</text>
</a>
</g>
</g>
<!-- Node6&#45;&gt;Node9 -->
<g id="edge9_Node000006_Node000009" class="edge">
<title>Node6&#45;&gt;Node9</title>
<g id="a_edge9_Node000006_Node000009"><a xlink:title=" ">
<path fill="none" stroke="#63b8ff" d="M664.97,-228.76C696.34,-219.91 748.62,-205.16 786.35,-194.51"/>
<polygon fill="#63b8ff" stroke="#63b8ff" points="786.93,-197.98 795.6,-191.9 785.03,-191.25 786.93,-197.98"/>
</a>
</g>
</g>
<!-- Node15 -->
<g id="Node000015" class="node">
<title>Node15</title>
<g id="a_Node000015"><a xlink:href="native__sched_8h.html" target="_top" xlink:title="Add definitions required on the native board.">
<polygon fill="white" stroke="#666666" points="727.75,-191 638.25,-191 638.25,-170.25 727.75,-170.25 727.75,-191"/>
<text text-anchor="middle" x="683" y="-177.5" font-family="Helvetica,sans-Serif" font-size="10.00">native_sched.h</text>
</a>
</g>
</g>
<!-- Node6&#45;&gt;Node15 -->
<g id="edge20_Node000006_Node000015" class="edge">
<title>Node6&#45;&gt;Node15</title>
<g id="a_edge20_Node000006_Node000015"><a xlink:title=" ">
<path fill="none" stroke="#63b8ff" d="M646.05,-226.59C652.06,-219.27 660.47,-209.04 667.74,-200.19"/>
<polygon fill="#63b8ff" stroke="#63b8ff" points="670.42,-202.45 674.06,-192.5 665.01,-198 670.42,-202.45"/>
</a>
</g>
</g>
<!-- Node16 -->
<g id="Node000016" class="node">
<title>Node16</title>
<g id="a_Node000016"><a xlink:href="clist_8h.html" target="_top" xlink:title="Circular linked list.">
<polygon fill="white" stroke="#666666" points="581.62,-191 536.38,-191 536.38,-170.25 581.62,-170.25 581.62,-191"/>
<text text-anchor="middle" x="559" y="-177.5" font-family="Helvetica,sans-Serif" font-size="10.00">clist.h</text>
</a>
</g>
</g>
<!-- Node6&#45;&gt;Node16 -->
<g id="edge21_Node000006_Node000016" class="edge">
<title>Node6&#45;&gt;Node16</title>
<g id="a_edge21_Node000006_Node000016"><a xlink:title=" ">
<path fill="none" stroke="#63b8ff" d="M623.88,-226.59C612.31,-218.57 595.7,-207.06 582.18,-197.69"/>
<polygon fill="#63b8ff" stroke="#63b8ff" points="584.46,-195.01 574.25,-192.19 580.47,-200.76 584.46,-195.01"/>
</a>
</g>
</g>
<!-- Node10 -->
<g id="Node000010" class="node">
<title>Node10</title>
<g id="a_Node000010"><a xlink:href="modules_8h.html" target="_top" xlink:title="Common macros and compiler attributes/pragmas configuration.">
<polygon fill="white" stroke="#666666" points="934.5,-134.25 867.5,-134.25 867.5,-113.5 934.5,-113.5 934.5,-134.25"/>
<text text-anchor="middle" x="901" y="-120.75" font-family="Helvetica,sans-Serif" font-size="10.00">modules.h</text>
</a>
</g>
</g>
<!-- Node9&#45;&gt;Node10 -->
<g id="edge10_Node000009_Node000010" class="edge">
<title>Node9&#45;&gt;Node10</title>
<g id="a_edge10_Node000009_Node000010"><a xlink:title=" ">
<path fill="none" stroke="#63b8ff" d="M844.34,-169.84C854.25,-161.97 868.39,-150.75 880.06,-141.49"/>
<polygon fill="#63b8ff" stroke="#63b8ff" points="881.93,-144.48 887.59,-135.52 877.58,-138.99 881.93,-144.48"/>
</a>
</g>
</g>
<!-- Node11 -->
<g id="Node000011" class="node">
<title>Node11</title>
<g id="a_Node000011"><a xlink:href="riot__version_8h.html" target="_top" xlink:title="Common macros and compiler attributes/pragmas configuration.">
<polygon fill="white" stroke="#666666" points="949.38,-77.5 866.62,-77.5 866.62,-56.75 949.38,-56.75 949.38,-77.5"/>
<text text-anchor="middle" x="908" y="-64" font-family="Helvetica,sans-Serif" font-size="10.00">riot_version.h</text>
</a>
</g>
</g>
<!-- Node9&#45;&gt;Node11 -->
<g id="edge11_Node000009_Node000011" class="edge">
<title>Node9&#45;&gt;Node11</title>
<g id="a_edge11_Node000009_Node000011"><a xlink:title=" ">
<path fill="none" stroke="#63b8ff" d="M880.47,-172.72C903.8,-166.68 929.76,-155.39 944,-134.25 954.65,-118.45 941.5,-99.21 928.2,-85.56"/>
<polygon fill="#63b8ff" stroke="#63b8ff" points="930.87,-83.27 921.21,-78.92 926.05,-88.34 930.87,-83.27"/>
</a>
</g>
</g>
<!-- Node12 -->
<g id="Node000012" class="node">
<title>Node12</title>
<g id="a_Node000012"><a xlink:href="compiler__hints_8h.html" target="_top" xlink:title="Common macros and compiler attributes/pragmas configuration.">
<polygon fill="white" stroke="#666666" points="760.5,-134.25 663.5,-134.25 663.5,-113.5 760.5,-113.5 760.5,-134.25"/>
<text text-anchor="middle" x="712" y="-120.75" font-family="Helvetica,sans-Serif" font-size="10.00">compiler_hints.h</text>
</a>
</g>
</g>
<!-- Node9&#45;&gt;Node12 -->
<g id="edge13_Node000009_Node000012" class="edge">
<title>Node9&#45;&gt;Node12</title>
<g id="a_edge13_Node000009_Node000012"><a xlink:title=" ">
<path fill="none" stroke="#63b8ff" d="M810.55,-169.84C791.95,-161.35 764.78,-148.95 743.67,-139.33"/>
<polygon fill="#63b8ff" stroke="#63b8ff" points="745.2,-136.17 734.64,-135.21 742.29,-142.54 745.2,-136.17"/>
</a>
</g>
</g>
<!-- Node14 -->
<g id="Node000014" class="node">
<title>Node14</title>
<g id="a_Node000014"><a xlink:href="container_8h.html" target="_top" xlink:title="Common macros and compiler attributes/pragmas configuration.">
<polygon fill="white" stroke="#666666" points="849.38,-134.25 778.62,-134.25 778.62,-113.5 849.38,-113.5 849.38,-134.25"/>
<text text-anchor="middle" x="814" y="-120.75" font-family="Helvetica,sans-Serif" font-size="10.00">container.h</text>
</a>
</g>
</g>
<!-- Node9&#45;&gt;Node14 -->
<g id="edge17_Node000009_Node000014" class="edge">
<title>Node9&#45;&gt;Node14</title>
<g id="a_edge17_Node000009_Node000014"><a xlink:title=" ">
<path fill="none" stroke="#63b8ff" d="M828.78,-169.84C826.56,-163.06 823.51,-153.8 820.76,-145.44"/>
<polygon fill="#63b8ff" stroke="#63b8ff" points="824.11,-144.42 817.66,-136.02 817.46,-146.61 824.11,-144.42"/>
</a>
</g>
</g>
<!-- Node11&#45;&gt;Node4 -->
<g id="edge12_Node000011_Node000004" class="edge">
<title>Node11&#45;&gt;Node4</title>
<g id="a_edge12_Node000011_Node000004"><a xlink:title=" ">
<path fill="none" stroke="#63b8ff" d="M903.89,-56.34C901.01,-49.49 897.06,-40.09 893.52,-31.65"/>
<polygon fill="#63b8ff" stroke="#63b8ff" points="896.76,-30.34 889.66,-22.47 890.31,-33.05 896.76,-30.34"/>
</a>
</g>
</g>
<!-- Node12&#45;&gt;Node4 -->
<g id="edge16_Node000012_Node000004" class="edge">
<title>Node12&#45;&gt;Node4</title>
<g id="a_edge16_Node000012_Node000004"><a xlink:title=" ">
<path fill="none" stroke="#63b8ff" d="M727.05,-113.18C756.96,-93.9 824.11,-50.62 860.48,-27.18"/>
<polygon fill="#63b8ff" stroke="#63b8ff" points="862.08,-30.31 868.59,-21.95 858.29,-24.43 862.08,-30.31"/>
</a>
</g>
</g>
<!-- Node13 -->
<g id="Node000013" class="node">
<title>Node13</title>
<g id="a_Node000013"><a xlink:href="assert_8h.html" target="_top" xlink:title="POSIX.1&#45;2008 compliant version of the assert macro.">
<polygon fill="white" stroke="#666666" points="341.5,-77.5 286.5,-77.5 286.5,-56.75 341.5,-56.75 341.5,-77.5"/>
<text text-anchor="middle" x="314" y="-64" font-family="Helvetica,sans-Serif" font-size="10.00">assert.h</text>
</a>
</g>
</g>
<!-- Node12&#45;&gt;Node13 -->
<g id="edge14_Node000012_Node000013" class="edge">
<title>Node12&#45;&gt;Node13</title>
<g id="a_edge14_Node000012_Node000013"><a xlink:title=" ">
<path fill="none" stroke="#63b8ff" d="M663.2,-116.16C583.2,-105.16 425.79,-83.5 352.83,-73.47"/>
<polygon fill="#63b8ff" stroke="#63b8ff" points="353.75,-70.06 343.37,-72.16 352.8,-77 353.75,-70.06"/>
</a>
</g>
</g>
<!-- Node13&#45;&gt;Node4 -->
<g id="edge15_Node000013_Node000004" class="edge">
<title>Node13&#45;&gt;Node4</title>
<g id="a_edge15_Node000013_Node000004"><a xlink:title=" ">
<path fill="none" stroke="#63b8ff" d="M341.92,-59.35C346.6,-58.37 351.42,-57.45 356,-56.75 538.51,-28.68 759.32,-16.76 846.72,-12.9"/>
<polygon fill="#63b8ff" stroke="#63b8ff" points="846.8,-16.4 856.64,-12.47 846.5,-9.4 846.8,-16.4"/>
</a>
</g>
</g>
<!-- Node14&#45;&gt;Node4 -->
<g id="edge19_Node000014_Node000004" class="edge">
<title>Node14&#45;&gt;Node4</title>
<g id="a_edge19_Node000014_Node000004"><a xlink:title=" ">
<path fill="none" stroke="#63b8ff" d="M820.05,-113.37C831.68,-95.11 857.34,-54.81 872.7,-30.7"/>
<polygon fill="#63b8ff" stroke="#63b8ff" points="875.53,-32.77 877.95,-22.45 869.62,-29.01 875.53,-32.77"/>
</a>
</g>
</g>
<!-- Node14&#45;&gt;Node7 -->
<g id="edge18_Node000014_Node000007" class="edge">
<title>Node14&#45;&gt;Node7</title>
<g id="a_edge18_Node000014_Node000007"><a xlink:title=" ">
<path fill="none" stroke="#63b8ff" d="M778.6,-113.09C743.77,-103.46 690.73,-88.79 654.78,-78.85"/>
<polygon fill="#63b8ff" stroke="#63b8ff" points="655.78,-75.49 645.21,-76.2 653.92,-82.24 655.78,-75.49"/>
</a>
</g>
</g>
<!-- Node16&#45;&gt;Node7 -->
<g id="edge23_Node000016_Node000007" class="edge">
<title>Node16&#45;&gt;Node7</title>
<g id="a_edge23_Node000016_Node000007"><a xlink:title=" ">
<path fill="none" stroke="#63b8ff" d="M561.61,-169.85C565.35,-156.62 572.91,-132.48 583,-113.5 587.95,-104.19 594.62,-94.63 600.66,-86.71"/>
<polygon fill="#63b8ff" stroke="#63b8ff" points="603.4,-88.88 606.87,-78.87 597.92,-84.54 603.4,-88.88"/>
</a>
</g>
</g>
<!-- Node17 -->
<g id="Node000017" class="node">
<title>Node17</title>
<g id="a_Node000017"><a xlink:title=" ">
<polygon fill="#e0e0e0" stroke="#999999" points="530.5,-134.25 469.5,-134.25 469.5,-113.5 530.5,-113.5 530.5,-134.25"/>
<text text-anchor="middle" x="500" y="-120.75" font-family="Helvetica,sans-Serif" font-size="10.00">stdbool.h</text>
</a>
</g>
</g>
<!-- Node16&#45;&gt;Node17 -->
<g id="edge22_Node000016_Node000017" class="edge">
<title>Node16&#45;&gt;Node17</title>
<g id="a_edge22_Node000016_Node000017"><a xlink:title=" ">
<path fill="none" stroke="#63b8ff" d="M548.45,-169.84C540.23,-162.21 528.6,-151.42 518.8,-142.32"/>
<polygon fill="#63b8ff" stroke="#63b8ff" points="521.28,-139.84 511.57,-135.61 516.52,-144.98 521.28,-139.84"/>
</a>
</g>
</g>
<!-- Node18 -->
<g id="Node000018" class="node">
<title>Node18</title>
<g id="a_Node000018"><a xlink:href="list_8h.html" target="_top" xlink:title="Intrusive linked list.">
<polygon fill="white" stroke="#666666" points="342,-134.25 302,-134.25 302,-113.5 342,-113.5 342,-134.25"/>
<text text-anchor="middle" x="322" y="-120.75" font-family="Helvetica,sans-Serif" font-size="10.00">list.h</text>
</a>
</g>
</g>
<!-- Node16&#45;&gt;Node18 -->
<g id="edge24_Node000016_Node000018" class="edge">
<title>Node16&#45;&gt;Node18</title>
<g id="a_edge24_Node000016_Node000018"><a xlink:title=" ">
<path fill="none" stroke="#63b8ff" d="M536.28,-174.38C493.68,-164.53 401.76,-143.3 353.32,-132.11"/>
<polygon fill="#63b8ff" stroke="#63b8ff" points="354.29,-128.74 343.75,-129.9 352.71,-135.56 354.29,-128.74"/>
</a>
</g>
</g>
<!-- Node20&#45;&gt;Node4 -->
<g id="edge28_Node000020_Node000004" class="edge">
<title>Node20&#45;&gt;Node4</title>
<g id="a_edge28_Node000020_Node000004"><a xlink:title=" ">
<path fill="none" stroke="#63b8ff" d="M498.29,-406.73C388.32,-406.38 0,-397.88 0,-295.12 0,-295.12 0,-295.12 0,-122.88 0,-36.11 678.31,-15.81 847.25,-12.09"/>
<polygon fill="#63b8ff" stroke="#63b8ff" points="847.08,-15.6 857,-11.89 846.93,-8.6 847.08,-15.6"/>
</a>
</g>
</g>
<!-- Node20&#45;&gt;Node7 -->
<g id="edge27_Node000020_Node000007" class="edge">
<title>Node20&#45;&gt;Node7</title>
<g id="a_edge27_Node000020_Node000007"><a xlink:title=" ">
<path fill="none" stroke="#63b8ff" d="M555.56,-403.69C606.42,-396.76 711.63,-374.28 757,-304.5 777.09,-273.6 820.32,-276.34 737,-170.25 712.42,-138.95 684.77,-160.67 655,-134.25 640.84,-121.69 630.39,-102.71 623.89,-88.3"/>
<polygon fill="#63b8ff" stroke="#63b8ff" points="627.22,-87.19 620.11,-79.33 620.77,-89.91 627.22,-87.19"/>
</a>
</g>
</g>
<!-- Node20&#45;&gt;Node9 -->
<g id="edge35_Node000020_Node000009" class="edge">
<title>Node20&#45;&gt;Node9</title>
<g id="a_edge35_Node000020_Node000009"><a xlink:title=" ">
<path fill="none" stroke="#63b8ff" d="M555.32,-405.58C616.14,-402.75 756.46,-392.88 790,-361.25 834.4,-319.39 835.97,-240.34 833.88,-202.64"/>
<polygon fill="#63b8ff" stroke="#63b8ff" points="837.37,-202.4 833.15,-192.67 830.38,-202.9 837.37,-202.4"/>
</a>
</g>
</g>
<!-- Node20&#45;&gt;Node17 -->
<g id="edge29_Node000020_Node000017" class="edge">
<title>Node20&#45;&gt;Node17</title>
<g id="a_edge29_Node000020_Node000017"><a xlink:title=" ">
<path fill="none" stroke="#63b8ff" d="M498.54,-398.06C457.87,-383.85 388,-351.27 388,-295.12 388,-295.12 388,-295.12 388,-236.38 388,-205.8 387.34,-193.67 407,-170.25 420.26,-154.45 440.34,-143.7 458.44,-136.64"/>
<polygon fill="#63b8ff" stroke="#63b8ff" points="459.45,-140 467.67,-133.32 457.08,-133.41 459.45,-140"/>
</a>
</g>
</g>
<!-- Node20&#45;&gt;Node18 -->
<g id="edge36_Node000020_Node000018" class="edge">
<title>Node20&#45;&gt;Node18</title>
<g id="a_edge36_Node000020_Node000018"><a xlink:title=" ">
<path fill="none" stroke="#63b8ff" d="M498.57,-399.86C441.49,-384.46 314.82,-340.72 273,-247.75 256.53,-211.14 285.4,-167.24 305.37,-143.07"/>
<polygon fill="#63b8ff" stroke="#63b8ff" points="307.85,-145.55 311.73,-135.7 302.55,-140.98 307.85,-145.55"/>
</a>
</g>
</g>
<!-- Node21 -->
<g id="Node000021" class="node">
<title>Node21</title>
<g id="a_Node000021"><a xlink:href="architecture_8h.html" target="_top" xlink:title="Platform&#45;independent access to architecture details.">
<polygon fill="white" stroke="#666666" points="225.75,-247.75 142.25,-247.75 142.25,-227 225.75,-227 225.75,-247.75"/>
<text text-anchor="middle" x="184" y="-234.25" font-family="Helvetica,sans-Serif" font-size="10.00">architecture.h</text>
</a>
</g>
</g>
<!-- Node20&#45;&gt;Node21 -->
<g id="edge30_Node000020_Node000021" class="edge">
<title>Node20&#45;&gt;Node21</title>
<g id="a_edge30_Node000020_Node000021"><a xlink:title=" ">
<path fill="none" stroke="#63b8ff" d="M498.54,-405.49C434.27,-402.41 280.36,-391.93 240,-361.25 206.98,-336.15 192.86,-287.06 187.28,-259.13"/>
<polygon fill="#63b8ff" stroke="#63b8ff" points="190.75,-258.66 185.55,-249.43 183.86,-259.89 190.75,-258.66"/>
</a>
</g>
</g>
<!-- Node24 -->
<g id="Node000024" class="node">
<title>Node24</title>
<g id="a_Node000024"><a xlink:href="core_2include_2thread_8h.html" target="_top" xlink:title="Threading API.">
<polygon fill="white" stroke="#666666" points="555.25,-361.25 498.75,-361.25 498.75,-340.5 555.25,-340.5 555.25,-361.25"/>
<text text-anchor="middle" x="527" y="-347.75" font-family="Helvetica,sans-Serif" font-size="10.00">thread.h</text>
</a>
</g>
</g>
<!-- Node20&#45;&gt;Node24 -->
<g id="edge37_Node000020_Node000024" class="edge">
<title>Node20&#45;&gt;Node24</title>
<g id="a_edge37_Node000020_Node000024"><a xlink:title=" ">
<path fill="none" stroke="#63b8ff" d="M527,-396.84C527,-390.22 527,-381.22 527,-373.02"/>
<polygon fill="#63b8ff" stroke="#63b8ff" points="530.5,-373.09 527,-363.09 523.5,-373.09 530.5,-373.09"/>
</a>
</g>
</g>
<!-- Node21&#45;&gt;Node4 -->
<g id="edge31_Node000021_Node000004" class="edge">
<title>Node21&#45;&gt;Node4</title>
<g id="a_edge31_Node000021_Node000004"><a xlink:title=" ">
<path fill="none" stroke="#63b8ff" d="M141.98,-231.01C97.1,-223.34 35.17,-206 57,-170.25 114.54,-76.01 171.72,-86.68 278,-56.75 385.82,-26.38 731.33,-15.19 846.92,-12.24"/>
<polygon fill="#63b8ff" stroke="#63b8ff" points="846.89,-15.75 856.8,-12 846.71,-8.75 846.89,-15.75"/>
</a>
</g>
</g>
<!-- Node21&#45;&gt;Node8 -->
<g id="edge32_Node000021_Node000008" class="edge">
<title>Node21&#45;&gt;Node8</title>
<g id="a_edge32_Node000021_Node000008"><a xlink:title=" ">
<path fill="none" stroke="#63b8ff" d="M226.12,-227.64C274.88,-217.53 354.79,-200.96 404.23,-190.7"/>
<polygon fill="#63b8ff" stroke="#63b8ff" points="404.64,-194.19 413.72,-188.73 403.22,-187.34 404.64,-194.19"/>
</a>
</g>
</g>
<!-- Node22 -->
<g id="Node000022" class="node">
<title>Node22</title>
<g id="a_Node000022"><a xlink:title=" ">
<polygon fill="#e0e0e0" stroke="#999999" points="246.38,-191 193.62,-191 193.62,-170.25 246.38,-170.25 246.38,-191"/>
<text text-anchor="middle" x="220" y="-177.5" font-family="Helvetica,sans-Serif" font-size="10.00">limits.h</text>
</a>
</g>
</g>
<!-- Node21&#45;&gt;Node22 -->
<g id="edge33_Node000021_Node000022" class="edge">
<title>Node21&#45;&gt;Node22</title>
<g id="a_edge33_Node000021_Node000022"><a xlink:title=" ">
<path fill="none" stroke="#63b8ff" d="M190.44,-226.59C195.15,-219.42 201.69,-209.48 207.42,-200.76"/>
<polygon fill="#63b8ff" stroke="#63b8ff" points="210.22,-202.87 212.79,-192.59 204.37,-199.03 210.22,-202.87"/>
</a>
</g>
</g>
<!-- Node23 -->
<g id="Node000023" class="node">
<title>Node23</title>
<g id="a_Node000023"><a xlink:title=" ">
<polygon fill="#e0e0e0" stroke="#999999" points="175.88,-191 66.12,-191 66.12,-170.25 175.88,-170.25 175.88,-191"/>
<text text-anchor="middle" x="121" y="-177.5" font-family="Helvetica,sans-Serif" font-size="10.00">architecture_arch.h</text>
</a>
</g>
</g>
<!-- Node21&#45;&gt;Node23 -->
<g id="edge34_Node000021_Node000023" class="edge">
<title>Node21&#45;&gt;Node23</title>
<g id="a_edge34_Node000021_Node000023"><a xlink:title=" ">
<path fill="none" stroke="#63b8ff" d="M172.74,-226.59C163.87,-218.88 151.29,-207.95 140.75,-198.79"/>
<polygon fill="#63b8ff" stroke="#63b8ff" points="143.15,-196.24 133.31,-192.32 138.56,-201.52 143.15,-196.24"/>
</a>
</g>
</g>
<!-- Node24&#45;&gt;Node6 -->
<g id="edge45_Node000024_Node000006" class="edge">
<title>Node24&#45;&gt;Node6</title>
<g id="a_edge45_Node000024_Node000006"><a xlink:title=" ">
<path fill="none" stroke="#63b8ff" d="M555.4,-342.58C575.88,-335.91 602.67,-324.04 619,-304.5 629.66,-291.74 634.35,-273.3 636.4,-259.14"/>
<polygon fill="#63b8ff" stroke="#63b8ff" points="639.84,-259.86 637.45,-249.54 632.89,-259.1 639.84,-259.86"/>
</a>
</g>
</g>
<!-- Node24&#45;&gt;Node16 -->
<g id="edge38_Node000024_Node000016" class="edge">
<title>Node24&#45;&gt;Node16</title>
<g id="a_edge38_Node000024_Node000016"><a xlink:title=" ">
<path fill="none" stroke="#63b8ff" d="M521.87,-340.11C517.47,-331.14 511.45,-317.32 509,-304.5 504.87,-282.9 515.09,-228.93 516,-227 521.03,-216.33 529.54,-206.54 537.67,-198.81"/>
<polygon fill="#63b8ff" stroke="#63b8ff" points="539.87,-201.54 545.02,-192.29 535.22,-196.3 539.87,-201.54"/>
</a>
</g>
</g>
<!-- Node25 -->
<g id="Node000025" class="node">
<title>Node25</title>
<g id="a_Node000025"><a xlink:href="cib_8h.html" target="_top" xlink:title="Circular integer buffer interface.">
<polygon fill="white" stroke="#666666" points="321.62,-247.75 282.38,-247.75 282.38,-227 321.62,-227 321.62,-247.75"/>
<text text-anchor="middle" x="302" y="-234.25" font-family="Helvetica,sans-Serif" font-size="10.00">cib.h</text>
</a>
</g>
</g>
<!-- Node24&#45;&gt;Node25 -->
<g id="edge39_Node000024_Node000025" class="edge">
<title>Node24&#45;&gt;Node25</title>
<g id="a_edge39_Node000024_Node000025"><a xlink:title=" ">
<path fill="none" stroke="#63b8ff" d="M498.68,-340.96C473.93,-332.75 437.31,-319.58 407,-304.5 377.33,-289.74 345.41,-268.84 324.65,-254.51"/>
<polygon fill="#63b8ff" stroke="#63b8ff" points="326.86,-251.78 316.65,-248.93 322.85,-257.52 326.86,-251.78"/>
</a>
</g>
</g>
<!-- Node26 -->
<g id="Node000026" class="node">
<title>Node26</title>
<g id="a_Node000026"><a xlink:href="core_2include_2msg_8h.html" target="_top" xlink:title="Messaging API for inter process communication.">
<polygon fill="white" stroke="#666666" points="462,-304.5 416,-304.5 416,-283.75 462,-283.75 462,-304.5"/>
<text text-anchor="middle" x="439" y="-291" font-family="Helvetica,sans-Serif" font-size="10.00">msg.h</text>
</a>
</g>
</g>
<!-- Node24&#45;&gt;Node26 -->
<g id="edge41_Node000024_Node000026" class="edge">
<title>Node24&#45;&gt;Node26</title>
<g id="a_edge41_Node000024_Node000026"><a xlink:title=" ">
<path fill="none" stroke="#63b8ff" d="M511.27,-340.09C498.13,-331.91 479.16,-320.11 463.95,-310.65"/>
<polygon fill="#63b8ff" stroke="#63b8ff" points="466.22,-307.94 455.88,-305.63 462.52,-313.88 466.22,-307.94"/>
</a>
</g>
</g>
<!-- Node27 -->
<g id="Node000027" class="node">
<title>Node27</title>
<g id="a_Node000027"><a xlink:href="thread__config_8h.html" target="_top" xlink:title="Thread configuration defines.">
<polygon fill="white" stroke="#666666" points="609.88,-304.5 518.12,-304.5 518.12,-283.75 609.88,-283.75 609.88,-304.5"/>
<text text-anchor="middle" x="564" y="-291" font-family="Helvetica,sans-Serif" font-size="10.00">thread_config.h</text>
</a>
</g>
</g>
<!-- Node24&#45;&gt;Node27 -->
<g id="edge46_Node000024_Node000027" class="edge">
<title>Node24&#45;&gt;Node27</title>
<g id="a_edge46_Node000024_Node000027"><a xlink:title=" ">
<path fill="none" stroke="#63b8ff" d="M533.61,-340.09C538.46,-332.92 545.18,-322.98 551.07,-314.26"/>
<polygon fill="#63b8ff" stroke="#63b8ff" points="553.9,-316.33 556.59,-306.08 548.1,-312.41 553.9,-316.33"/>
</a>
</g>
</g>
<!-- Node29 -->
<g id="Node000029" class="node">
<title>Node29</title>
<g id="a_Node000029"><a xlink:title=" ">
<polygon fill="#e0e0e0" stroke="#999999" points="748.38,-304.5 665.62,-304.5 665.62,-283.75 748.38,-283.75 748.38,-304.5"/>
<text text-anchor="middle" x="707" y="-291" font-family="Helvetica,sans-Serif" font-size="10.00">thread_arch.h</text>
</a>
</g>
</g>
<!-- Node24&#45;&gt;Node29 -->
<g id="edge49_Node000024_Node000029" class="edge">
<title>Node24&#45;&gt;Node29</title>
<g id="a_edge49_Node000024_Node000029"><a xlink:title=" ">
<path fill="none" stroke="#63b8ff" d="M555.52,-341.2C584.65,-332.34 630.22,-318.48 663.78,-308.27"/>
<polygon fill="#63b8ff" stroke="#63b8ff" points="664.66,-311.66 673.21,-305.4 662.62,-304.96 664.66,-311.66"/>
</a>
</g>
</g>
<!-- Node25&#45;&gt;Node13 -->
<g id="edge40_Node000025_Node000013" class="edge">
<title>Node25&#45;&gt;Node13</title>
<g id="a_edge40_Node000025_Node000013"><a xlink:title=" ">
<path fill="none" stroke="#63b8ff" d="M299.42,-226.68C294.26,-205.75 283.89,-154.86 293,-113.5 294.93,-104.73 298.73,-95.64 302.58,-87.91"/>
<polygon fill="#63b8ff" stroke="#63b8ff" points="305.66,-89.58 307.31,-79.11 299.49,-86.26 305.66,-89.58"/>
</a>
</g>
</g>
<!-- Node26&#45;&gt;Node4 -->
<g id="edge42_Node000026_Node000004" class="edge">
<title>Node26&#45;&gt;Node4</title>
<g id="a_edge42_Node000026_Node000004"><a xlink:title=" ">
<path fill="none" stroke="#63b8ff" d="M432.32,-283.3C418.8,-262.12 390.8,-210.78 407,-170.25 419.92,-137.92 432.82,-133.94 461,-113.5 581.67,-25.96 767.53,-12.67 846.93,-11.19"/>
<polygon fill="#63b8ff" stroke="#63b8ff" points="846.82,-14.7 856.78,-11.07 846.73,-7.7 846.82,-14.7"/>
</a>
</g>
</g>
<!-- Node26&#45;&gt;Node6 -->
<g id="edge44_Node000026_Node000006" class="edge">
<title>Node26&#45;&gt;Node6</title>
<g id="a_edge44_Node000026_Node000006"><a xlink:title=" ">
<path fill="none" stroke="#63b8ff" d="M462.22,-286.74C495.98,-277.45 559.02,-260.11 599.71,-248.91"/>
<polygon fill="#63b8ff" stroke="#63b8ff" points="600.64,-252.29 609.35,-246.26 598.78,-245.54 600.64,-252.29"/>
</a>
</g>
</g>
<!-- Node26&#45;&gt;Node17 -->
<g id="edge43_Node000026_Node000017" class="edge">
<title>Node26&#45;&gt;Node17</title>
<g id="a_edge43_Node000026_Node000017"><a xlink:title=" ">
<path fill="none" stroke="#63b8ff" d="M444.97,-283.38C455.56,-265.67 477.56,-226.72 489,-191 493.74,-176.22 496.52,-158.89 498.11,-145.68"/>
<polygon fill="#63b8ff" stroke="#63b8ff" points="501.56,-146.31 499.12,-136 494.6,-145.58 501.56,-146.31"/>
</a>
</g>
</g>
<!-- Node27&#45;&gt;Node6 -->
<g id="edge48_Node000027_Node000006" class="edge">
<title>Node27&#45;&gt;Node6</title>
<g id="a_edge48_Node000027_Node000006"><a xlink:title=" ">
<path fill="none" stroke="#63b8ff" d="M577.23,-283.34C587.96,-275.4 603.32,-264.03 615.92,-254.71"/>
<polygon fill="#63b8ff" stroke="#63b8ff" points="617.71,-257.74 623.67,-248.98 613.55,-252.11 617.71,-257.74"/>
</a>
</g>
</g>
<!-- Node28 -->
<g id="Node000028" class="node">
<title>Node28</title>
<g id="a_Node000028"><a xlink:title=" ">
<polygon fill="#e0e0e0" stroke="#999999" points="592.88,-247.75 525.12,-247.75 525.12,-227 592.88,-227 592.88,-247.75"/>
<text text-anchor="middle" x="559" y="-234.25" font-family="Helvetica,sans-Serif" font-size="10.00">cpu_conf.h</text>
</a>
</g>
</g>
<!-- Node27&#45;&gt;Node28 -->
<g id="edge47_Node000027_Node000028" class="edge">
<title>Node27&#45;&gt;Node28</title>
<g id="a_edge47_Node000027_Node000028"><a xlink:title=" ">
<path fill="none" stroke="#63b8ff" d="M563.11,-283.34C562.5,-276.72 561.68,-267.72 560.93,-259.52"/>
<polygon fill="#63b8ff" stroke="#63b8ff" points="564.42,-259.23 560.02,-249.59 557.45,-259.86 564.42,-259.23"/>
</a>
</g>
</g>
<!-- Node30&#45;&gt;Node4 -->
<g id="edge51_Node000030_Node000004" class="edge">
<title>Node30&#45;&gt;Node4</title>
<g id="a_edge51_Node000030_Node000004"><a xlink:title=" ">
<path fill="none" stroke="#63b8ff" d="M924.63,-453.6C948.7,-436.21 994,-397.44 994,-351.88 994,-351.88 994,-351.88 994,-236.38 994,-154.95 1004.39,-123.66 958,-56.75 948.85,-43.56 934.5,-33.44 920.94,-26.14"/>
<polygon fill="#63b8ff" stroke="#63b8ff" points="922.68,-23.1 912.17,-21.78 919.57,-29.37 922.68,-23.1"/>
</a>
</g>
</g>
<!-- Node30&#45;&gt;Node6 -->
<g id="edge53_Node000030_Node000006" class="edge">
<title>Node30&#45;&gt;Node6</title>
<g id="a_edge53_Node000030_Node000006"><a xlink:title=" ">
<path fill="none" stroke="#63b8ff" d="M910.87,-453.88C913.06,-423.99 915.4,-331.04 866,-283.75 839.27,-258.16 733.85,-245.95 676.19,-241.08"/>
<polygon fill="#63b8ff" stroke="#63b8ff" points="676.75,-237.62 666.5,-240.3 676.19,-244.59 676.75,-237.62"/>
</a>
</g>
</g>
<!-- Node30&#45;&gt;Node20 -->
<g id="edge52_Node000030_Node000020" class="edge">
<title>Node30&#45;&gt;Node20</title>
<g id="a_edge52_Node000030_Node000020"><a xlink:title=" ">
<path fill="none" stroke="#63b8ff" d="M879.63,-459.03C810.88,-449.21 643.39,-425.26 566.62,-414.29"/>
<polygon fill="#63b8ff" stroke="#63b8ff" points="567.44,-410.87 557.04,-412.92 566.45,-417.8 567.44,-410.87"/>
</a>
</g>
</g>
<!-- Node33 -->
<g id="Node000033" class="node">
<title>Node33</title>
<g id="a_Node000033"><a xlink:href="drivers_2include_2net_2netdev_8h.html" target="_top" xlink:title="Definitions low&#45;level network driver interface.">
<polygon fill="white" stroke="#666666" points="1237.38,-247.75 1160.62,-247.75 1160.62,-227 1237.38,-227 1237.38,-247.75"/>
<text text-anchor="middle" x="1199" y="-234.25" font-family="Helvetica,sans-Serif" font-size="10.00">net/netdev.h</text>
</a>
</g>
</g>
<!-- Node32&#45;&gt;Node33 -->
<g id="edge56_Node000032_Node000033" class="edge">
<title>Node32&#45;&gt;Node33</title>
<g id="a_edge56_Node000032_Node000033"><a xlink:title=" ">
<path fill="none" stroke="#63b8ff" d="M1218.81,-397.1C1215.52,-370.73 1206.23,-296.33 1201.64,-259.53"/>
<polygon fill="#63b8ff" stroke="#63b8ff" points="1205.13,-259.21 1200.42,-249.72 1198.18,-260.08 1205.13,-259.21"/>
</a>
</g>
</g>
<!-- Node33&#45;&gt;Node4 -->
<g id="edge57_Node000033_Node000004" class="edge">
<title>Node33&#45;&gt;Node4</title>
<g id="a_edge57_Node000033_Node000004"><a xlink:title=" ">
<path fill="none" stroke="#63b8ff" d="M1204.35,-226.95C1211.11,-213.7 1220.86,-189.1 1212,-170.25 1178.36,-98.69 1145.74,-92.08 1075,-56.75 1025.81,-32.19 962.73,-20.54 923.07,-15.3"/>
<polygon fill="#63b8ff" stroke="#63b8ff" points="923.66,-11.84 913.31,-14.08 922.8,-18.79 923.66,-11.84"/>
</a>
</g>
</g>
<!-- Node33&#45;&gt;Node9 -->
<g id="edge63_Node000033_Node000009" class="edge">
<title>Node33&#45;&gt;Node9</title>
<g id="a_edge63_Node000033_Node000009"><a xlink:title=" ">
<path fill="none" stroke="#63b8ff" d="M1160.42,-230.62C1096.35,-221.06 967.57,-201.85 891.7,-190.53"/>
<polygon fill="#63b8ff" stroke="#63b8ff" points="892.36,-187.09 881.95,-189.08 891.32,-194.01 892.36,-187.09"/>
</a>
</g>
</g>
<!-- Node34 -->
<g id="Node000034" class="node">
<title>Node34</title>
<g id="a_Node000034"><a xlink:href="errno_8h.html" target="_top" xlink:title=" ">
<polygon fill="white" stroke="#666666" points="1309.25,-191 1258.75,-191 1258.75,-170.25 1309.25,-170.25 1309.25,-191"/>
<text text-anchor="middle" x="1284" y="-177.5" font-family="Helvetica,sans-Serif" font-size="10.00">errno.h</text>
</a>
</g>
</g>
<!-- Node33&#45;&gt;Node34 -->
<g id="edge58_Node000033_Node000034" class="edge">
<title>Node33&#45;&gt;Node34</title>
<g id="a_edge58_Node000033_Node000034"><a xlink:title=" ">
<path fill="none" stroke="#63b8ff" d="M1214.2,-226.59C1226.77,-218.49 1244.86,-206.83 1259.48,-197.42"/>
<polygon fill="#63b8ff" stroke="#63b8ff" points="1261.15,-200.51 1267.66,-192.15 1257.36,-194.62 1261.15,-200.51"/>
</a>
</g>
</g>
<!-- Node35 -->
<g id="Node000035" class="node">
<title>Node35</title>
<g id="a_Node000035"><a xlink:href="iolist_8h.html" target="_top" xlink:title="iolist scatter / gather IO">
<polygon fill="white" stroke="#666666" points="1202.5,-191 1153.5,-191 1153.5,-170.25 1202.5,-170.25 1202.5,-191"/>
<text text-anchor="middle" x="1178" y="-177.5" font-family="Helvetica,sans-Serif" font-size="10.00">iolist.h</text>
</a>
</g>
</g>
<!-- Node33&#45;&gt;Node35 -->
<g id="edge59_Node000033_Node000035" class="edge">
<title>Node33&#45;&gt;Node35</title>
<g id="a_edge59_Node000033_Node000035"><a xlink:title=" ">
<path fill="none" stroke="#63b8ff" d="M1195.25,-226.59C1192.62,-219.74 1189.01,-210.34 1185.78,-201.9"/>
<polygon fill="#63b8ff" stroke="#63b8ff" points="1189.11,-200.82 1182.26,-192.74 1182.58,-203.33 1189.11,-200.82"/>
</a>
</g>
</g>
<!-- Node36 -->
<g id="Node000036" class="node">
<title>Node36</title>
<g id="a_Node000036"><a xlink:href="netopt_8h.html" target="_top" xlink:title="Definition of global configuration options.">
<polygon fill="white" stroke="#666666" points="1135.62,-191 1060.38,-191 1060.38,-170.25 1135.62,-170.25 1135.62,-191"/>
<text text-anchor="middle" x="1098" y="-177.5" font-family="Helvetica,sans-Serif" font-size="10.00">net/netopt.h</text>
</a>
</g>
</g>
<!-- Node33&#45;&gt;Node36 -->
<g id="edge60_Node000033_Node000036" class="edge">
<title>Node33&#45;&gt;Node36</title>
<g id="a_edge60_Node000033_Node000036"><a xlink:title=" ">
<path fill="none" stroke="#63b8ff" d="M1180.94,-226.59C1165.58,-218.26 1143.26,-206.16 1125.64,-196.61"/>
<polygon fill="#63b8ff" stroke="#63b8ff" points="1127.69,-193.74 1117.23,-192.05 1124.35,-199.89 1127.69,-193.74"/>
</a>
</g>
</g>
<!-- Node36&#45;&gt;Node4 -->
<g id="edge61_Node000036_Node000004" class="edge">
<title>Node36&#45;&gt;Node4</title>
<g id="a_edge61_Node000036_Node000004"><a xlink:title=" ">
<path fill="none" stroke="#63b8ff" d="M1097.38,-170.01C1095.37,-146.91 1087,-87.91 1053,-56.75 1017.42,-24.15 960.85,-14.57 923.32,-11.97"/>
<polygon fill="#63b8ff" stroke="#63b8ff" points="923.54,-8.48 913.37,-11.43 923.17,-15.47 923.54,-8.48"/>
</a>
</g>
</g>
<!-- Node36&#45;&gt;Node17 -->
<g id="edge62_Node000036_Node000017" class="edge">
<title>Node36&#45;&gt;Node17</title>
<g id="a_edge62_Node000036_Node000017"><a xlink:title=" ">
<path fill="none" stroke="#63b8ff" d="M1060.14,-176.16C953.87,-166.43 653.34,-138.91 542.09,-128.73"/>
<polygon fill="#63b8ff" stroke="#63b8ff" points="542.49,-125.25 532.21,-127.82 541.85,-132.22 542.49,-125.25"/>
</a>
</g>
</g>
</g>
</svg>
