<?xml version="1.0" encoding="UTF-8" standalone="no"?>
<!DOCTYPE svg PUBLIC "-//W3C//DTD SVG 1.1//EN"
 "http://www.w3.org/Graphics/SVG/1.1/DTD/svg11.dtd">
<!-- Generated by graphviz version 12.1.2 (0)
 -->
<!-- Title: sys/include/net/skald.h Pages: 1 -->
<svg width="1431pt" height="596pt"
 viewBox="0.00 0.00 1431.38 596.25" xmlns="http://www.w3.org/2000/svg" xmlns:xlink="http://www.w3.org/1999/xlink">
<g id="graph0" class="graph" transform="scale(1 1) rotate(0) translate(4 592.25)">
<title>sys/include/net/skald.h</title>
<!-- Node1 -->
<g id="Node000001" class="node">
<title>Node1</title>
<g id="a_Node000001"><a xlink:title="Skald&#39;s basic interface.">
<polygon fill="#999999" stroke="#666666" points="1395.88,-588.25 1268.12,-588.25 1268.12,-567.5 1395.88,-567.5 1395.88,-588.25"/>
<text text-anchor="middle" x="1332" y="-574.75" font-family="Helvetica,sans-Serif" font-size="10.00">sys/include/net/skald.h</text>
</a>
</g>
</g>
<!-- Node2 -->
<g id="Node000002" class="node">
<title>Node2</title>
<g id="a_Node000002"><a xlink:title=" ">
<polygon fill="#e0e0e0" stroke="#999999" points="923.38,-20.75 870.62,-20.75 870.62,0 923.38,0 923.38,-20.75"/>
<text text-anchor="middle" x="897" y="-7.25" font-family="Helvetica,sans-Serif" font-size="10.00">stdint.h</text>
</a>
</g>
</g>
<!-- Node1&#45;&gt;Node2 -->
<g id="edge1_Node000001_Node000002" class="edge">
<title>Node1&#45;&gt;Node2</title>
<g id="a_edge1_Node000001_Node000002"><a xlink:title=" ">
<path fill="none" stroke="#63b8ff" d="M1332.74,-567.04C1334.13,-547.62 1337,-502.97 1337,-465.38 1337,-465.38 1337,-465.38 1337,-122.88 1337,-40.27 1041.93,-18.18 935.06,-12.89"/>
<polygon fill="#63b8ff" stroke="#63b8ff" points="935.53,-9.41 925.37,-12.44 935.2,-16.4 935.53,-9.41"/>
</a>
</g>
</g>
<!-- Node3 -->
<g id="Node000003" class="node">
<title>Node3</title>
<g id="a_Node000003"><a xlink:href="ztimer_8h.html" target="_top" xlink:title="ztimer API">
<polygon fill="white" stroke="#666666" points="909.25,-531.5 852.75,-531.5 852.75,-510.75 909.25,-510.75 909.25,-531.5"/>
<text text-anchor="middle" x="881" y="-518" font-family="Helvetica,sans-Serif" font-size="10.00">ztimer.h</text>
</a>
</g>
</g>
<!-- Node1&#45;&gt;Node3 -->
<g id="edge2_Node000001_Node000003" class="edge">
<title>Node1&#45;&gt;Node3</title>
<g id="a_edge2_Node000001_Node000003"><a xlink:title=" ">
<path fill="none" stroke="#63b8ff" d="M1267.86,-569.09C1173.25,-557.6 999.07,-536.46 920.86,-526.96"/>
<polygon fill="#63b8ff" stroke="#63b8ff" points="921.45,-523.51 911.1,-525.78 920.6,-530.46 921.45,-523.51"/>
</a>
</g>
</g>
<!-- Node29 -->
<g id="Node000029" class="node">
<title>Node29</title>
<g id="a_Node000029"><a xlink:href="sys_2include_2net_2ble_8h.html" target="_top" xlink:title="General BLE values as defined by the BT standard.">
<polygon fill="white" stroke="#666666" points="1423.38,-531.5 1364.62,-531.5 1364.62,-510.75 1423.38,-510.75 1423.38,-531.5"/>
<text text-anchor="middle" x="1394" y="-518" font-family="Helvetica,sans-Serif" font-size="10.00">net/ble.h</text>
</a>
</g>
</g>
<!-- Node1&#45;&gt;Node29 -->
<g id="edge52_Node000001_Node000029" class="edge">
<title>Node1&#45;&gt;Node29</title>
<g id="a_edge52_Node000001_Node000029"><a xlink:title=" ">
<path fill="none" stroke="#63b8ff" d="M1343.08,-567.09C1351.81,-559.38 1364.19,-548.45 1374.56,-539.29"/>
<polygon fill="#63b8ff" stroke="#63b8ff" points="1376.7,-542.07 1381.88,-532.83 1372.06,-536.83 1376.7,-542.07"/>
</a>
</g>
</g>
<!-- Node30 -->
<g id="Node000030" class="node">
<title>Node30</title>
<g id="a_Node000030"><a xlink:href="drivers_2include_2net_2netdev_2ble_8h.html" target="_top" xlink:title="BLE specific adaption for the Netdev API.">
<polygon fill="white" stroke="#666666" points="1260.75,-418 1165.25,-418 1165.25,-397.25 1260.75,-397.25 1260.75,-418"/>
<text text-anchor="middle" x="1213" y="-404.5" font-family="Helvetica,sans-Serif" font-size="10.00">net/netdev/ble.h</text>
</a>
</g>
</g>
<!-- Node1&#45;&gt;Node30 -->
<g id="edge53_Node000001_Node000030" class="edge">
<title>Node1&#45;&gt;Node30</title>
<g id="a_edge53_Node000001_Node000030"><a xlink:title=" ">
<path fill="none" stroke="#63b8ff" d="M1325.26,-567.35C1306.21,-540.41 1251.67,-463.31 1226.29,-427.42"/>
<polygon fill="#63b8ff" stroke="#63b8ff" points="1229.47,-425.85 1220.84,-419.7 1223.75,-429.89 1229.47,-425.85"/>
</a>
</g>
</g>
<!-- Node3&#45;&gt;Node2 -->
<g id="edge3_Node000003_Node000002" class="edge">
<title>Node3&#45;&gt;Node2</title>
<g id="a_edge3_Node000003_Node000002"><a xlink:title=" ">
<path fill="none" stroke="#63b8ff" d="M909.4,-513.06C953.14,-500.29 1032,-468.91 1032,-408.62 1032,-408.62 1032,-408.62 1032,-236.38 1032,-154.39 1045.02,-117.53 990,-56.75 975.19,-40.38 953.17,-29.27 934.27,-22.15"/>
<polygon fill="#63b8ff" stroke="#63b8ff" points="935.61,-18.91 925.01,-18.9 933.29,-25.51 935.61,-18.91"/>
</a>
</g>
</g>
<!-- Node4 -->
<g id="Node000004" class="node">
<title>Node4</title>
<g id="a_Node000004"><a xlink:href="sched_8h.html" target="_top" xlink:title="Scheduler API definition.">
<polygon fill="white" stroke="#666666" points="664.75,-247.75 611.25,-247.75 611.25,-227 664.75,-227 664.75,-247.75"/>
<text text-anchor="middle" x="638" y="-234.25" font-family="Helvetica,sans-Serif" font-size="10.00">sched.h</text>
</a>
</g>
</g>
<!-- Node3&#45;&gt;Node4 -->
<g id="edge4_Node000003_Node000004" class="edge">
<title>Node3&#45;&gt;Node4</title>
<g id="a_edge4_Node000003_Node000004"><a xlink:title=" ">
<path fill="none" stroke="#63b8ff" d="M876.72,-510.5C868.65,-491.45 852,-447.43 852,-408.62 852,-408.62 852,-408.62 852,-349.88 852,-271.56 737.87,-248.16 676.31,-241.24"/>
<polygon fill="#63b8ff" stroke="#63b8ff" points="676.91,-237.78 666.61,-240.25 676.2,-244.75 676.91,-237.78"/>
</a>
</g>
</g>
<!-- Node17 -->
<g id="Node000017" class="node">
<title>Node17</title>
<g id="a_Node000017"><a xlink:title=" ">
<polygon fill="#e0e0e0" stroke="#999999" points="824,-474.75 778,-474.75 778,-454 824,-454 824,-474.75"/>
<text text-anchor="middle" x="801" y="-461.25" font-family="Helvetica,sans-Serif" font-size="10.00">msg.h</text>
</a>
</g>
</g>
<!-- Node3&#45;&gt;Node17 -->
<g id="edge23_Node000003_Node000017" class="edge">
<title>Node3&#45;&gt;Node17</title>
<g id="a_edge23_Node000003_Node000017"><a xlink:title=" ">
<path fill="none" stroke="#63b8ff" d="M866.7,-510.34C854.98,-502.32 838.16,-490.81 824.47,-481.44"/>
<polygon fill="#63b8ff" stroke="#63b8ff" points="826.66,-478.69 816.43,-475.93 822.7,-484.47 826.66,-478.69"/>
</a>
</g>
</g>
<!-- Node18 -->
<g id="Node000018" class="node">
<title>Node18</title>
<g id="a_Node000018"><a xlink:href="mutex_8h.html" target="_top" xlink:title="Mutex for thread synchronization.">
<polygon fill="white" stroke="#666666" points="555.25,-418 498.75,-418 498.75,-397.25 555.25,-397.25 555.25,-418"/>
<text text-anchor="middle" x="527" y="-404.5" font-family="Helvetica,sans-Serif" font-size="10.00">mutex.h</text>
</a>
</g>
</g>
<!-- Node3&#45;&gt;Node18 -->
<g id="edge24_Node000003_Node000018" class="edge">
<title>Node3&#45;&gt;Node18</title>
<g id="a_edge24_Node000003_Node000018"><a xlink:title=" ">
<path fill="none" stroke="#63b8ff" d="M852.33,-511.09C789.21,-491.21 638.14,-443.63 566.27,-420.99"/>
<polygon fill="#63b8ff" stroke="#63b8ff" points="567.48,-417.7 556.89,-418.04 565.37,-424.38 567.48,-417.7"/>
</a>
</g>
</g>
<!-- Node28 -->
<g id="Node000028" class="node">
<title>Node28</title>
<g id="a_Node000028"><a xlink:href="rmutex_8h.html" target="_top" xlink:title="Recursive Mutex for thread synchronization.">
<polygon fill="white" stroke="#666666" points="940.12,-474.75 879.88,-474.75 879.88,-454 940.12,-454 940.12,-474.75"/>
<text text-anchor="middle" x="910" y="-461.25" font-family="Helvetica,sans-Serif" font-size="10.00">rmutex.h</text>
</a>
</g>
</g>
<!-- Node3&#45;&gt;Node28 -->
<g id="edge48_Node000003_Node000028" class="edge">
<title>Node3&#45;&gt;Node28</title>
<g id="a_edge48_Node000003_Node000028"><a xlink:title=" ">
<path fill="none" stroke="#63b8ff" d="M886.18,-510.34C889.9,-503.33 895.02,-493.66 899.56,-485.08"/>
<polygon fill="#63b8ff" stroke="#63b8ff" points="902.56,-486.89 904.15,-476.42 896.38,-483.61 902.56,-486.89"/>
</a>
</g>
</g>
<!-- Node5 -->
<g id="Node000005" class="node">
<title>Node5</title>
<g id="a_Node000005"><a xlink:title=" ">
<polygon fill="#e0e0e0" stroke="#999999" points="643.5,-77.5 588.5,-77.5 588.5,-56.75 643.5,-56.75 643.5,-77.5"/>
<text text-anchor="middle" x="616" y="-64" font-family="Helvetica,sans-Serif" font-size="10.00">stddef.h</text>
</a>
</g>
</g>
<!-- Node4&#45;&gt;Node5 -->
<g id="edge5_Node000004_Node000005" class="edge">
<title>Node4&#45;&gt;Node5</title>
<g id="a_edge5_Node000004_Node000005"><a xlink:title=" ">
<path fill="none" stroke="#63b8ff" d="M635.91,-226.67C633.98,-217.5 631.09,-203.35 629,-191 624.74,-165.89 623.74,-159.57 621,-134.25 619.37,-119.14 618.09,-102.03 617.23,-89"/>
<polygon fill="#63b8ff" stroke="#63b8ff" points="620.73,-88.83 616.62,-79.07 613.74,-89.27 620.73,-88.83"/>
</a>
</g>
</g>
<!-- Node6 -->
<g id="Node000006" class="node">
<title>Node6</title>
<g id="a_Node000006"><a xlink:href="inttypes_8h.html" target="_top" xlink:title="Adds include for missing inttype definitions.">
<polygon fill="white" stroke="#666666" points="480.38,-191 415.62,-191 415.62,-170.25 480.38,-170.25 480.38,-191"/>
<text text-anchor="middle" x="448" y="-177.5" font-family="Helvetica,sans-Serif" font-size="10.00">inttypes.h</text>
</a>
</g>
</g>
<!-- Node4&#45;&gt;Node6 -->
<g id="edge6_Node000004_Node000006" class="edge">
<title>Node4&#45;&gt;Node6</title>
<g id="a_edge6_Node000004_Node000006"><a xlink:title=" ">
<path fill="none" stroke="#63b8ff" d="M610.78,-228.53C579.63,-219.55 528.19,-204.73 491.47,-194.15"/>
<polygon fill="#63b8ff" stroke="#63b8ff" points="492.62,-190.84 482.04,-191.43 490.68,-197.57 492.62,-190.84"/>
</a>
</g>
</g>
<!-- Node7 -->
<g id="Node000007" class="node">
<title>Node7</title>
<g id="a_Node000007"><a xlink:href="kernel__defines_8h.html" target="_top" xlink:title="Common macros and compiler attributes/pragmas configuration.">
<polygon fill="white" stroke="#666666" points="880.12,-191 783.88,-191 783.88,-170.25 880.12,-170.25 880.12,-191"/>
<text text-anchor="middle" x="832" y="-177.5" font-family="Helvetica,sans-Serif" font-size="10.00">kernel_defines.h</text>
</a>
</g>
</g>
<!-- Node4&#45;&gt;Node7 -->
<g id="edge7_Node000004_Node000007" class="edge">
<title>Node4&#45;&gt;Node7</title>
<g id="a_edge7_Node000004_Node000007"><a xlink:title=" ">
<path fill="none" stroke="#63b8ff" d="M664.97,-228.76C696.34,-219.91 748.62,-205.16 786.35,-194.51"/>
<polygon fill="#63b8ff" stroke="#63b8ff" points="786.93,-197.98 795.6,-191.9 785.03,-191.25 786.93,-197.98"/>
</a>
</g>
</g>
<!-- Node13 -->
<g id="Node000013" class="node">
<title>Node13</title>
<g id="a_Node000013"><a xlink:href="native__sched_8h.html" target="_top" xlink:title="Add definitions required on the native board.">
<polygon fill="white" stroke="#666666" points="727.75,-191 638.25,-191 638.25,-170.25 727.75,-170.25 727.75,-191"/>
<text text-anchor="middle" x="683" y="-177.5" font-family="Helvetica,sans-Serif" font-size="10.00">native_sched.h</text>
</a>
</g>
</g>
<!-- Node4&#45;&gt;Node13 -->
<g id="edge18_Node000004_Node000013" class="edge">
<title>Node4&#45;&gt;Node13</title>
<g id="a_edge18_Node000004_Node000013"><a xlink:title=" ">
<path fill="none" stroke="#63b8ff" d="M646.05,-226.59C652.06,-219.27 660.47,-209.04 667.74,-200.19"/>
<polygon fill="#63b8ff" stroke="#63b8ff" points="670.42,-202.45 674.06,-192.5 665.01,-198 670.42,-202.45"/>
</a>
</g>
</g>
<!-- Node14 -->
<g id="Node000014" class="node">
<title>Node14</title>
<g id="a_Node000014"><a xlink:href="clist_8h.html" target="_top" xlink:title="Circular linked list.">
<polygon fill="white" stroke="#666666" points="581.62,-191 536.38,-191 536.38,-170.25 581.62,-170.25 581.62,-191"/>
<text text-anchor="middle" x="559" y="-177.5" font-family="Helvetica,sans-Serif" font-size="10.00">clist.h</text>
</a>
</g>
</g>
<!-- Node4&#45;&gt;Node14 -->
<g id="edge19_Node000004_Node000014" class="edge">
<title>Node4&#45;&gt;Node14</title>
<g id="a_edge19_Node000004_Node000014"><a xlink:title=" ">
<path fill="none" stroke="#63b8ff" d="M623.88,-226.59C612.31,-218.57 595.7,-207.06 582.18,-197.69"/>
<polygon fill="#63b8ff" stroke="#63b8ff" points="584.46,-195.01 574.25,-192.19 580.47,-200.76 584.46,-195.01"/>
</a>
</g>
</g>
<!-- Node8 -->
<g id="Node000008" class="node">
<title>Node8</title>
<g id="a_Node000008"><a xlink:href="modules_8h.html" target="_top" xlink:title="Common macros and compiler attributes/pragmas configuration.">
<polygon fill="white" stroke="#666666" points="934.5,-134.25 867.5,-134.25 867.5,-113.5 934.5,-113.5 934.5,-134.25"/>
<text text-anchor="middle" x="901" y="-120.75" font-family="Helvetica,sans-Serif" font-size="10.00">modules.h</text>
</a>
</g>
</g>
<!-- Node7&#45;&gt;Node8 -->
<g id="edge8_Node000007_Node000008" class="edge">
<title>Node7&#45;&gt;Node8</title>
<g id="a_edge8_Node000007_Node000008"><a xlink:title=" ">
<path fill="none" stroke="#63b8ff" d="M844.34,-169.84C854.25,-161.97 868.39,-150.75 880.06,-141.49"/>
<polygon fill="#63b8ff" stroke="#63b8ff" points="881.93,-144.48 887.59,-135.52 877.58,-138.99 881.93,-144.48"/>
</a>
</g>
</g>
<!-- Node9 -->
<g id="Node000009" class="node">
<title>Node9</title>
<g id="a_Node000009"><a xlink:href="riot__version_8h.html" target="_top" xlink:title="Common macros and compiler attributes/pragmas configuration.">
<polygon fill="white" stroke="#666666" points="961.38,-77.5 878.62,-77.5 878.62,-56.75 961.38,-56.75 961.38,-77.5"/>
<text text-anchor="middle" x="920" y="-64" font-family="Helvetica,sans-Serif" font-size="10.00">riot_version.h</text>
</a>
</g>
</g>
<!-- Node7&#45;&gt;Node9 -->
<g id="edge9_Node000007_Node000009" class="edge">
<title>Node7&#45;&gt;Node9</title>
<g id="a_edge9_Node000007_Node000009"><a xlink:title=" ">
<path fill="none" stroke="#63b8ff" d="M880.47,-172.72C903.8,-166.68 929.76,-155.39 944,-134.25 953.78,-119.74 945.1,-100.77 935.56,-86.87"/>
<polygon fill="#63b8ff" stroke="#63b8ff" points="938.43,-84.87 929.62,-78.99 932.84,-89.08 938.43,-84.87"/>
</a>
</g>
</g>
<!-- Node10 -->
<g id="Node000010" class="node">
<title>Node10</title>
<g id="a_Node000010"><a xlink:href="compiler__hints_8h.html" target="_top" xlink:title="Common macros and compiler attributes/pragmas configuration.">
<polygon fill="white" stroke="#666666" points="760.5,-134.25 663.5,-134.25 663.5,-113.5 760.5,-113.5 760.5,-134.25"/>
<text text-anchor="middle" x="712" y="-120.75" font-family="Helvetica,sans-Serif" font-size="10.00">compiler_hints.h</text>
</a>
</g>
</g>
<!-- Node7&#45;&gt;Node10 -->
<g id="edge11_Node000007_Node000010" class="edge">
<title>Node7&#45;&gt;Node10</title>
<g id="a_edge11_Node000007_Node000010"><a xlink:title=" ">
<path fill="none" stroke="#63b8ff" d="M810.55,-169.84C791.95,-161.35 764.78,-148.95 743.67,-139.33"/>
<polygon fill="#63b8ff" stroke="#63b8ff" points="745.2,-136.17 734.64,-135.21 742.29,-142.54 745.2,-136.17"/>
</a>
</g>
</g>
<!-- Node12 -->
<g id="Node000012" class="node">
<title>Node12</title>
<g id="a_Node000012"><a xlink:href="container_8h.html" target="_top" xlink:title="Common macros and compiler attributes/pragmas configuration.">
<polygon fill="white" stroke="#666666" points="849.38,-134.25 778.62,-134.25 778.62,-113.5 849.38,-113.5 849.38,-134.25"/>
<text text-anchor="middle" x="814" y="-120.75" font-family="Helvetica,sans-Serif" font-size="10.00">container.h</text>
</a>
</g>
</g>
<!-- Node7&#45;&gt;Node12 -->
<g id="edge15_Node000007_Node000012" class="edge">
<title>Node7&#45;&gt;Node12</title>
<g id="a_edge15_Node000007_Node000012"><a xlink:title=" ">
<path fill="none" stroke="#63b8ff" d="M828.78,-169.84C826.56,-163.06 823.51,-153.8 820.76,-145.44"/>
<polygon fill="#63b8ff" stroke="#63b8ff" points="824.11,-144.42 817.66,-136.02 817.46,-146.61 824.11,-144.42"/>
</a>
</g>
</g>
<!-- Node9&#45;&gt;Node2 -->
<g id="edge10_Node000009_Node000002" class="edge">
<title>Node9&#45;&gt;Node2</title>
<g id="a_edge10_Node000009_Node000002"><a xlink:title=" ">
<path fill="none" stroke="#63b8ff" d="M915.89,-56.34C913.01,-49.49 909.06,-40.09 905.52,-31.65"/>
<polygon fill="#63b8ff" stroke="#63b8ff" points="908.76,-30.34 901.66,-22.47 902.31,-33.05 908.76,-30.34"/>
</a>
</g>
</g>
<!-- Node10&#45;&gt;Node2 -->
<g id="edge14_Node000010_Node000002" class="edge">
<title>Node10&#45;&gt;Node2</title>
<g id="a_edge14_Node000010_Node000002"><a xlink:title=" ">
<path fill="none" stroke="#63b8ff" d="M728.09,-113.18C760.21,-93.82 832.5,-50.25 871.27,-26.88"/>
<polygon fill="#63b8ff" stroke="#63b8ff" points="872.76,-30.07 879.52,-21.91 869.14,-24.08 872.76,-30.07"/>
</a>
</g>
</g>
<!-- Node11 -->
<g id="Node000011" class="node">
<title>Node11</title>
<g id="a_Node000011"><a xlink:href="assert_8h.html" target="_top" xlink:title="POSIX.1&#45;2008 compliant version of the assert macro.">
<polygon fill="white" stroke="#666666" points="341.5,-77.5 286.5,-77.5 286.5,-56.75 341.5,-56.75 341.5,-77.5"/>
<text text-anchor="middle" x="314" y="-64" font-family="Helvetica,sans-Serif" font-size="10.00">assert.h</text>
</a>
</g>
</g>
<!-- Node10&#45;&gt;Node11 -->
<g id="edge12_Node000010_Node000011" class="edge">
<title>Node10&#45;&gt;Node11</title>
<g id="a_edge12_Node000010_Node000011"><a xlink:title=" ">
<path fill="none" stroke="#63b8ff" d="M663.2,-116.16C583.2,-105.16 425.79,-83.5 352.83,-73.47"/>
<polygon fill="#63b8ff" stroke="#63b8ff" points="353.75,-70.06 343.37,-72.16 352.8,-77 353.75,-70.06"/>
</a>
</g>
</g>
<!-- Node11&#45;&gt;Node2 -->
<g id="edge13_Node000011_Node000002" class="edge">
<title>Node11&#45;&gt;Node2</title>
<g id="a_edge13_Node000011_Node000002"><a xlink:title=" ">
<path fill="none" stroke="#63b8ff" d="M341.91,-59.34C346.6,-58.36 351.42,-57.45 356,-56.75 543.51,-28.1 770.54,-16.45 859.08,-12.78"/>
<polygon fill="#63b8ff" stroke="#63b8ff" points="859.03,-16.29 868.88,-12.39 858.75,-9.29 859.03,-16.29"/>
</a>
</g>
</g>
<!-- Node12&#45;&gt;Node2 -->
<g id="edge17_Node000012_Node000002" class="edge">
<title>Node12&#45;&gt;Node2</title>
<g id="a_edge17_Node000012_Node000002"><a xlink:title=" ">
<path fill="none" stroke="#63b8ff" d="M821.08,-113.37C834.73,-95.03 864.93,-54.45 882.86,-30.37"/>
<polygon fill="#63b8ff" stroke="#63b8ff" points="885.64,-32.5 888.8,-22.39 880.02,-28.32 885.64,-32.5"/>
</a>
</g>
</g>
<!-- Node12&#45;&gt;Node5 -->
<g id="edge16_Node000012_Node000005" class="edge">
<title>Node12&#45;&gt;Node5</title>
<g id="a_edge16_Node000012_Node000005"><a xlink:title=" ">
<path fill="none" stroke="#63b8ff" d="M778.6,-113.09C743.77,-103.46 690.73,-88.79 654.78,-78.85"/>
<polygon fill="#63b8ff" stroke="#63b8ff" points="655.78,-75.49 645.21,-76.2 653.92,-82.24 655.78,-75.49"/>
</a>
</g>
</g>
<!-- Node14&#45;&gt;Node5 -->
<g id="edge21_Node000014_Node000005" class="edge">
<title>Node14&#45;&gt;Node5</title>
<g id="a_edge21_Node000014_Node000005"><a xlink:title=" ">
<path fill="none" stroke="#63b8ff" d="M561.61,-169.85C565.35,-156.62 572.91,-132.48 583,-113.5 587.95,-104.19 594.62,-94.63 600.66,-86.71"/>
<polygon fill="#63b8ff" stroke="#63b8ff" points="603.4,-88.88 606.87,-78.87 597.92,-84.54 603.4,-88.88"/>
</a>
</g>
</g>
<!-- Node15 -->
<g id="Node000015" class="node">
<title>Node15</title>
<g id="a_Node000015"><a xlink:title=" ">
<polygon fill="#e0e0e0" stroke="#999999" points="530.5,-134.25 469.5,-134.25 469.5,-113.5 530.5,-113.5 530.5,-134.25"/>
<text text-anchor="middle" x="500" y="-120.75" font-family="Helvetica,sans-Serif" font-size="10.00">stdbool.h</text>
</a>
</g>
</g>
<!-- Node14&#45;&gt;Node15 -->
<g id="edge20_Node000014_Node000015" class="edge">
<title>Node14&#45;&gt;Node15</title>
<g id="a_edge20_Node000014_Node000015"><a xlink:title=" ">
<path fill="none" stroke="#63b8ff" d="M548.45,-169.84C540.23,-162.21 528.6,-151.42 518.8,-142.32"/>
<polygon fill="#63b8ff" stroke="#63b8ff" points="521.28,-139.84 511.57,-135.61 516.52,-144.98 521.28,-139.84"/>
</a>
</g>
</g>
<!-- Node16 -->
<g id="Node000016" class="node">
<title>Node16</title>
<g id="a_Node000016"><a xlink:href="list_8h.html" target="_top" xlink:title="Intrusive linked list.">
<polygon fill="white" stroke="#666666" points="342,-134.25 302,-134.25 302,-113.5 342,-113.5 342,-134.25"/>
<text text-anchor="middle" x="322" y="-120.75" font-family="Helvetica,sans-Serif" font-size="10.00">list.h</text>
</a>
</g>
</g>
<!-- Node14&#45;&gt;Node16 -->
<g id="edge22_Node000014_Node000016" class="edge">
<title>Node14&#45;&gt;Node16</title>
<g id="a_edge22_Node000014_Node000016"><a xlink:title=" ">
<path fill="none" stroke="#63b8ff" d="M536.28,-174.38C493.68,-164.53 401.76,-143.3 353.32,-132.11"/>
<polygon fill="#63b8ff" stroke="#63b8ff" points="354.29,-128.74 343.75,-129.9 352.71,-135.56 354.29,-128.74"/>
</a>
</g>
</g>
<!-- Node18&#45;&gt;Node2 -->
<g id="edge26_Node000018_Node000002" class="edge">
<title>Node18&#45;&gt;Node2</title>
<g id="a_edge26_Node000018_Node000002"><a xlink:title=" ">
<path fill="none" stroke="#63b8ff" d="M498.29,-406.73C388.32,-406.38 0,-397.88 0,-295.12 0,-295.12 0,-295.12 0,-122.88 0,-34.95 687.51,-15.52 858.74,-12.04"/>
<polygon fill="#63b8ff" stroke="#63b8ff" points="858.71,-15.54 868.64,-11.85 858.57,-8.54 858.71,-15.54"/>
</a>
</g>
</g>
<!-- Node18&#45;&gt;Node5 -->
<g id="edge25_Node000018_Node000005" class="edge">
<title>Node18&#45;&gt;Node5</title>
<g id="a_edge25_Node000018_Node000005"><a xlink:title=" ">
<path fill="none" stroke="#63b8ff" d="M555.56,-403.69C606.42,-396.76 711.63,-374.28 757,-304.5 777.09,-273.6 820.32,-276.34 737,-170.25 712.42,-138.95 684.77,-160.67 655,-134.25 640.84,-121.69 630.39,-102.71 623.89,-88.3"/>
<polygon fill="#63b8ff" stroke="#63b8ff" points="627.22,-87.19 620.11,-79.33 620.77,-89.91 627.22,-87.19"/>
</a>
</g>
</g>
<!-- Node18&#45;&gt;Node7 -->
<g id="edge33_Node000018_Node000007" class="edge">
<title>Node18&#45;&gt;Node7</title>
<g id="a_edge33_Node000018_Node000007"><a xlink:title=" ">
<path fill="none" stroke="#63b8ff" d="M555.32,-405.58C616.14,-402.75 756.46,-392.88 790,-361.25 834.4,-319.39 835.97,-240.34 833.88,-202.64"/>
<polygon fill="#63b8ff" stroke="#63b8ff" points="837.37,-202.4 833.15,-192.67 830.38,-202.9 837.37,-202.4"/>
</a>
</g>
</g>
<!-- Node18&#45;&gt;Node15 -->
<g id="edge27_Node000018_Node000015" class="edge">
<title>Node18&#45;&gt;Node15</title>
<g id="a_edge27_Node000018_Node000015"><a xlink:title=" ">
<path fill="none" stroke="#63b8ff" d="M498.54,-398.06C457.87,-383.85 388,-351.27 388,-295.12 388,-295.12 388,-295.12 388,-236.38 388,-205.8 387.34,-193.67 407,-170.25 420.26,-154.45 440.34,-143.7 458.44,-136.64"/>
<polygon fill="#63b8ff" stroke="#63b8ff" points="459.45,-140 467.67,-133.32 457.08,-133.41 459.45,-140"/>
</a>
</g>
</g>
<!-- Node18&#45;&gt;Node16 -->
<g id="edge34_Node000018_Node000016" class="edge">
<title>Node18&#45;&gt;Node16</title>
<g id="a_edge34_Node000018_Node000016"><a xlink:title=" ">
<path fill="none" stroke="#63b8ff" d="M498.57,-399.86C441.49,-384.46 314.82,-340.72 273,-247.75 256.53,-211.14 285.4,-167.24 305.37,-143.07"/>
<polygon fill="#63b8ff" stroke="#63b8ff" points="307.85,-145.55 311.73,-135.7 302.55,-140.98 307.85,-145.55"/>
</a>
</g>
</g>
<!-- Node19 -->
<g id="Node000019" class="node">
<title>Node19</title>
<g id="a_Node000019"><a xlink:href="architecture_8h.html" target="_top" xlink:title="Platform&#45;independent access to architecture details.">
<polygon fill="white" stroke="#666666" points="225.75,-247.75 142.25,-247.75 142.25,-227 225.75,-227 225.75,-247.75"/>
<text text-anchor="middle" x="184" y="-234.25" font-family="Helvetica,sans-Serif" font-size="10.00">architecture.h</text>
</a>
</g>
</g>
<!-- Node18&#45;&gt;Node19 -->
<g id="edge28_Node000018_Node000019" class="edge">
<title>Node18&#45;&gt;Node19</title>
<g id="a_edge28_Node000018_Node000019"><a xlink:title=" ">
<path fill="none" stroke="#63b8ff" d="M498.54,-405.49C434.27,-402.41 280.36,-391.93 240,-361.25 206.98,-336.15 192.86,-287.06 187.28,-259.13"/>
<polygon fill="#63b8ff" stroke="#63b8ff" points="190.75,-258.66 185.55,-249.43 183.86,-259.89 190.75,-258.66"/>
</a>
</g>
</g>
<!-- Node22 -->
<g id="Node000022" class="node">
<title>Node22</title>
<g id="a_Node000022"><a xlink:href="core_2include_2thread_8h.html" target="_top" xlink:title="Threading API.">
<polygon fill="white" stroke="#666666" points="555.25,-361.25 498.75,-361.25 498.75,-340.5 555.25,-340.5 555.25,-361.25"/>
<text text-anchor="middle" x="527" y="-347.75" font-family="Helvetica,sans-Serif" font-size="10.00">thread.h</text>
</a>
</g>
</g>
<!-- Node18&#45;&gt;Node22 -->
<g id="edge35_Node000018_Node000022" class="edge">
<title>Node18&#45;&gt;Node22</title>
<g id="a_edge35_Node000018_Node000022"><a xlink:title=" ">
<path fill="none" stroke="#63b8ff" d="M527,-396.84C527,-390.22 527,-381.22 527,-373.02"/>
<polygon fill="#63b8ff" stroke="#63b8ff" points="530.5,-373.09 527,-363.09 523.5,-373.09 530.5,-373.09"/>
</a>
</g>
</g>
<!-- Node19&#45;&gt;Node2 -->
<g id="edge29_Node000019_Node000002" class="edge">
<title>Node19&#45;&gt;Node2</title>
<g id="a_edge29_Node000019_Node000002"><a xlink:title=" ">
<path fill="none" stroke="#63b8ff" d="M141.98,-231.01C97.1,-223.34 35.17,-206 57,-170.25 114.54,-76.01 171.69,-86.61 278,-56.75 388.2,-25.8 741.81,-14.97 858.93,-12.18"/>
<polygon fill="#63b8ff" stroke="#63b8ff" points="858.71,-15.69 868.62,-11.96 858.55,-8.69 858.71,-15.69"/>
</a>
</g>
</g>
<!-- Node19&#45;&gt;Node6 -->
<g id="edge30_Node000019_Node000006" class="edge">
<title>Node19&#45;&gt;Node6</title>
<g id="a_edge30_Node000019_Node000006"><a xlink:title=" ">
<path fill="none" stroke="#63b8ff" d="M226.12,-227.64C274.88,-217.53 354.79,-200.96 404.23,-190.7"/>
<polygon fill="#63b8ff" stroke="#63b8ff" points="404.64,-194.19 413.72,-188.73 403.22,-187.34 404.64,-194.19"/>
</a>
</g>
</g>
<!-- Node20 -->
<g id="Node000020" class="node">
<title>Node20</title>
<g id="a_Node000020"><a xlink:title=" ">
<polygon fill="#e0e0e0" stroke="#999999" points="246.38,-191 193.62,-191 193.62,-170.25 246.38,-170.25 246.38,-191"/>
<text text-anchor="middle" x="220" y="-177.5" font-family="Helvetica,sans-Serif" font-size="10.00">limits.h</text>
</a>
</g>
</g>
<!-- Node19&#45;&gt;Node20 -->
<g id="edge31_Node000019_Node000020" class="edge">
<title>Node19&#45;&gt;Node20</title>
<g id="a_edge31_Node000019_Node000020"><a xlink:title=" ">
<path fill="none" stroke="#63b8ff" d="M190.44,-226.59C195.15,-219.42 201.69,-209.48 207.42,-200.76"/>
<polygon fill="#63b8ff" stroke="#63b8ff" points="210.22,-202.87 212.79,-192.59 204.37,-199.03 210.22,-202.87"/>
</a>
</g>
</g>
<!-- Node21 -->
<g id="Node000021" class="node">
<title>Node21</title>
<g id="a_Node000021"><a xlink:title=" ">
<polygon fill="#e0e0e0" stroke="#999999" points="175.88,-191 66.12,-191 66.12,-170.25 175.88,-170.25 175.88,-191"/>
<text text-anchor="middle" x="121" y="-177.5" font-family="Helvetica,sans-Serif" font-size="10.00">architecture_arch.h</text>
</a>
</g>
</g>
<!-- Node19&#45;&gt;Node21 -->
<g id="edge32_Node000019_Node000021" class="edge">
<title>Node19&#45;&gt;Node21</title>
<g id="a_edge32_Node000019_Node000021"><a xlink:title=" ">
<path fill="none" stroke="#63b8ff" d="M172.74,-226.59C163.87,-218.88 151.29,-207.95 140.75,-198.79"/>
<polygon fill="#63b8ff" stroke="#63b8ff" points="143.15,-196.24 133.31,-192.32 138.56,-201.52 143.15,-196.24"/>
</a>
</g>
</g>
<!-- Node22&#45;&gt;Node4 -->
<g id="edge43_Node000022_Node000004" class="edge">
<title>Node22&#45;&gt;Node4</title>
<g id="a_edge43_Node000022_Node000004"><a xlink:title=" ">
<path fill="none" stroke="#63b8ff" d="M555.4,-342.58C575.88,-335.91 602.67,-324.04 619,-304.5 629.66,-291.74 634.35,-273.3 636.4,-259.14"/>
<polygon fill="#63b8ff" stroke="#63b8ff" points="639.84,-259.86 637.45,-249.54 632.89,-259.1 639.84,-259.86"/>
</a>
</g>
</g>
<!-- Node22&#45;&gt;Node14 -->
<g id="edge36_Node000022_Node000014" class="edge">
<title>Node22&#45;&gt;Node14</title>
<g id="a_edge36_Node000022_Node000014"><a xlink:title=" ">
<path fill="none" stroke="#63b8ff" d="M521.87,-340.11C517.47,-331.14 511.45,-317.32 509,-304.5 504.87,-282.9 515.09,-228.93 516,-227 521.03,-216.33 529.54,-206.54 537.67,-198.81"/>
<polygon fill="#63b8ff" stroke="#63b8ff" points="539.87,-201.54 545.02,-192.29 535.22,-196.3 539.87,-201.54"/>
</a>
</g>
</g>
<!-- Node23 -->
<g id="Node000023" class="node">
<title>Node23</title>
<g id="a_Node000023"><a xlink:href="cib_8h.html" target="_top" xlink:title="Circular integer buffer interface.">
<polygon fill="white" stroke="#666666" points="321.62,-247.75 282.38,-247.75 282.38,-227 321.62,-227 321.62,-247.75"/>
<text text-anchor="middle" x="302" y="-234.25" font-family="Helvetica,sans-Serif" font-size="10.00">cib.h</text>
</a>
</g>
</g>
<!-- Node22&#45;&gt;Node23 -->
<g id="edge37_Node000022_Node000023" class="edge">
<title>Node22&#45;&gt;Node23</title>
<g id="a_edge37_Node000022_Node000023"><a xlink:title=" ">
<path fill="none" stroke="#63b8ff" d="M498.68,-340.96C473.93,-332.75 437.31,-319.58 407,-304.5 377.33,-289.74 345.41,-268.84 324.65,-254.51"/>
<polygon fill="#63b8ff" stroke="#63b8ff" points="326.86,-251.78 316.65,-248.93 322.85,-257.52 326.86,-251.78"/>
</a>
</g>
</g>
<!-- Node24 -->
<g id="Node000024" class="node">
<title>Node24</title>
<g id="a_Node000024"><a xlink:href="core_2include_2msg_8h.html" target="_top" xlink:title="Messaging API for inter process communication.">
<polygon fill="white" stroke="#666666" points="462,-304.5 416,-304.5 416,-283.75 462,-283.75 462,-304.5"/>
<text text-anchor="middle" x="439" y="-291" font-family="Helvetica,sans-Serif" font-size="10.00">msg.h</text>
</a>
</g>
</g>
<!-- Node22&#45;&gt;Node24 -->
<g id="edge39_Node000022_Node000024" class="edge">
<title>Node22&#45;&gt;Node24</title>
<g id="a_edge39_Node000022_Node000024"><a xlink:title=" ">
<path fill="none" stroke="#63b8ff" d="M511.27,-340.09C498.13,-331.91 479.16,-320.11 463.95,-310.65"/>
<polygon fill="#63b8ff" stroke="#63b8ff" points="466.22,-307.94 455.88,-305.63 462.52,-313.88 466.22,-307.94"/>
</a>
</g>
</g>
<!-- Node25 -->
<g id="Node000025" class="node">
<title>Node25</title>
<g id="a_Node000025"><a xlink:href="thread__config_8h.html" target="_top" xlink:title="Thread configuration defines.">
<polygon fill="white" stroke="#666666" points="609.88,-304.5 518.12,-304.5 518.12,-283.75 609.88,-283.75 609.88,-304.5"/>
<text text-anchor="middle" x="564" y="-291" font-family="Helvetica,sans-Serif" font-size="10.00">thread_config.h</text>
</a>
</g>
</g>
<!-- Node22&#45;&gt;Node25 -->
<g id="edge44_Node000022_Node000025" class="edge">
<title>Node22&#45;&gt;Node25</title>
<g id="a_edge44_Node000022_Node000025"><a xlink:title=" ">
<path fill="none" stroke="#63b8ff" d="M533.61,-340.09C538.46,-332.92 545.18,-322.98 551.07,-314.26"/>
<polygon fill="#63b8ff" stroke="#63b8ff" points="553.9,-316.33 556.59,-306.08 548.1,-312.41 553.9,-316.33"/>
</a>
</g>
</g>
<!-- Node27 -->
<g id="Node000027" class="node">
<title>Node27</title>
<g id="a_Node000027"><a xlink:title=" ">
<polygon fill="#e0e0e0" stroke="#999999" points="748.38,-304.5 665.62,-304.5 665.62,-283.75 748.38,-283.75 748.38,-304.5"/>
<text text-anchor="middle" x="707" y="-291" font-family="Helvetica,sans-Serif" font-size="10.00">thread_arch.h</text>
</a>
</g>
</g>
<!-- Node22&#45;&gt;Node27 -->
<g id="edge47_Node000022_Node000027" class="edge">
<title>Node22&#45;&gt;Node27</title>
<g id="a_edge47_Node000022_Node000027"><a xlink:title=" ">
<path fill="none" stroke="#63b8ff" d="M555.52,-341.2C584.65,-332.34 630.22,-318.48 663.78,-308.27"/>
<polygon fill="#63b8ff" stroke="#63b8ff" points="664.66,-311.66 673.21,-305.4 662.62,-304.96 664.66,-311.66"/>
</a>
</g>
</g>
<!-- Node23&#45;&gt;Node11 -->
<g id="edge38_Node000023_Node000011" class="edge">
<title>Node23&#45;&gt;Node11</title>
<g id="a_edge38_Node000023_Node000011"><a xlink:title=" ">
<path fill="none" stroke="#63b8ff" d="M299.42,-226.68C294.26,-205.75 283.89,-154.86 293,-113.5 294.93,-104.73 298.73,-95.64 302.58,-87.91"/>
<polygon fill="#63b8ff" stroke="#63b8ff" points="305.66,-89.58 307.31,-79.11 299.49,-86.26 305.66,-89.58"/>
</a>
</g>
</g>
<!-- Node24&#45;&gt;Node2 -->
<g id="edge40_Node000024_Node000002" class="edge">
<title>Node24&#45;&gt;Node2</title>
<g id="a_edge40_Node000024_Node000002"><a xlink:title=" ">
<path fill="none" stroke="#63b8ff" d="M432.32,-283.3C418.8,-262.12 390.8,-210.78 407,-170.25 419.92,-137.92 432.82,-133.94 461,-113.5 585.48,-23.2 777.9,-11.47 858.95,-10.81"/>
<polygon fill="#63b8ff" stroke="#63b8ff" points="858.8,-14.31 868.79,-10.79 858.78,-7.31 858.8,-14.31"/>
</a>
</g>
</g>
<!-- Node24&#45;&gt;Node4 -->
<g id="edge42_Node000024_Node000004" class="edge">
<title>Node24&#45;&gt;Node4</title>
<g id="a_edge42_Node000024_Node000004"><a xlink:title=" ">
<path fill="none" stroke="#63b8ff" d="M462.22,-286.74C495.98,-277.45 559.02,-260.11 599.71,-248.91"/>
<polygon fill="#63b8ff" stroke="#63b8ff" points="600.64,-252.29 609.35,-246.26 598.78,-245.54 600.64,-252.29"/>
</a>
</g>
</g>
<!-- Node24&#45;&gt;Node15 -->
<g id="edge41_Node000024_Node000015" class="edge">
<title>Node24&#45;&gt;Node15</title>
<g id="a_edge41_Node000024_Node000015"><a xlink:title=" ">
<path fill="none" stroke="#63b8ff" d="M444.97,-283.38C455.56,-265.67 477.56,-226.72 489,-191 493.74,-176.22 496.52,-158.89 498.11,-145.68"/>
<polygon fill="#63b8ff" stroke="#63b8ff" points="501.56,-146.31 499.12,-136 494.6,-145.58 501.56,-146.31"/>
</a>
</g>
</g>
<!-- Node25&#45;&gt;Node4 -->
<g id="edge46_Node000025_Node000004" class="edge">
<title>Node25&#45;&gt;Node4</title>
<g id="a_edge46_Node000025_Node000004"><a xlink:title=" ">
<path fill="none" stroke="#63b8ff" d="M577.23,-283.34C587.96,-275.4 603.32,-264.03 615.92,-254.71"/>
<polygon fill="#63b8ff" stroke="#63b8ff" points="617.71,-257.74 623.67,-248.98 613.55,-252.11 617.71,-257.74"/>
</a>
</g>
</g>
<!-- Node26 -->
<g id="Node000026" class="node">
<title>Node26</title>
<g id="a_Node000026"><a xlink:title=" ">
<polygon fill="#e0e0e0" stroke="#999999" points="592.88,-247.75 525.12,-247.75 525.12,-227 592.88,-227 592.88,-247.75"/>
<text text-anchor="middle" x="559" y="-234.25" font-family="Helvetica,sans-Serif" font-size="10.00">cpu_conf.h</text>
</a>
</g>
</g>
<!-- Node25&#45;&gt;Node26 -->
<g id="edge45_Node000025_Node000026" class="edge">
<title>Node25&#45;&gt;Node26</title>
<g id="a_edge45_Node000025_Node000026"><a xlink:title=" ">
<path fill="none" stroke="#63b8ff" d="M563.11,-283.34C562.5,-276.72 561.68,-267.72 560.93,-259.52"/>
<polygon fill="#63b8ff" stroke="#63b8ff" points="564.42,-259.23 560.02,-249.59 557.45,-259.86 564.42,-259.23"/>
</a>
</g>
</g>
<!-- Node28&#45;&gt;Node2 -->
<g id="edge49_Node000028_Node000002" class="edge">
<title>Node28&#45;&gt;Node2</title>
<g id="a_edge49_Node000028_Node000002"><a xlink:title=" ">
<path fill="none" stroke="#63b8ff" d="M924.63,-453.6C948.7,-436.21 994,-397.44 994,-351.88 994,-351.88 994,-351.88 994,-236.38 994,-155.83 1013.72,-124.4 970,-56.75 961.35,-43.37 947.22,-33.25 933.68,-26.01"/>
<polygon fill="#63b8ff" stroke="#63b8ff" points="935.42,-22.97 924.9,-21.69 932.33,-29.25 935.42,-22.97"/>
</a>
</g>
</g>
<!-- Node28&#45;&gt;Node4 -->
<g id="edge51_Node000028_Node000004" class="edge">
<title>Node28&#45;&gt;Node4</title>
<g id="a_edge51_Node000028_Node000004"><a xlink:title=" ">
<path fill="none" stroke="#63b8ff" d="M910.87,-453.88C913.06,-423.99 915.4,-331.04 866,-283.75 839.27,-258.16 733.85,-245.95 676.19,-241.08"/>
<polygon fill="#63b8ff" stroke="#63b8ff" points="676.75,-237.62 666.5,-240.3 676.19,-244.59 676.75,-237.62"/>
</a>
</g>
</g>
<!-- Node28&#45;&gt;Node18 -->
<g id="edge50_Node000028_Node000018" class="edge">
<title>Node28&#45;&gt;Node18</title>
<g id="a_edge50_Node000028_Node000018"><a xlink:title=" ">
<path fill="none" stroke="#63b8ff" d="M879.63,-459.03C810.88,-449.21 643.39,-425.26 566.62,-414.29"/>
<polygon fill="#63b8ff" stroke="#63b8ff" points="567.44,-410.87 557.04,-412.92 566.45,-417.8 567.44,-410.87"/>
</a>
</g>
</g>
<!-- Node31 -->
<g id="Node000031" class="node">
<title>Node31</title>
<g id="a_Node000031"><a xlink:href="drivers_2include_2net_2netdev_8h.html" target="_top" xlink:title="Definitions low&#45;level network driver interface.">
<polygon fill="white" stroke="#666666" points="1226.38,-247.75 1149.62,-247.75 1149.62,-227 1226.38,-227 1226.38,-247.75"/>
<text text-anchor="middle" x="1188" y="-234.25" font-family="Helvetica,sans-Serif" font-size="10.00">net/netdev.h</text>
</a>
</g>
</g>
<!-- Node30&#45;&gt;Node31 -->
<g id="edge54_Node000030_Node000031" class="edge">
<title>Node30&#45;&gt;Node31</title>
<g id="a_edge54_Node000030_Node000031"><a xlink:title=" ">
<path fill="none" stroke="#63b8ff" d="M1211.58,-397.1C1207.67,-370.73 1196.61,-296.33 1191.14,-259.53"/>
<polygon fill="#63b8ff" stroke="#63b8ff" points="1194.62,-259.09 1189.68,-249.71 1187.69,-260.12 1194.62,-259.09"/>
</a>
</g>
</g>
<!-- Node31&#45;&gt;Node2 -->
<g id="edge55_Node000031_Node000002" class="edge">
<title>Node31&#45;&gt;Node2</title>
<g id="a_edge55_Node000031_Node000002"><a xlink:title=" ">
<path fill="none" stroke="#63b8ff" d="M1196.25,-226.74C1206.37,-213.66 1221.15,-189.7 1212,-170.25 1178.36,-98.69 1145.47,-92.61 1075,-56.75 1029.86,-33.78 972.22,-21.85 934.97,-16.1"/>
<polygon fill="#63b8ff" stroke="#63b8ff" points="935.53,-12.64 925.13,-14.66 934.52,-19.57 935.53,-12.64"/>
</a>
</g>
</g>
<!-- Node31&#45;&gt;Node7 -->
<g id="edge61_Node000031_Node000007" class="edge">
<title>Node31&#45;&gt;Node7</title>
<g id="a_edge61_Node000031_Node000007"><a xlink:title=" ">
<path fill="none" stroke="#63b8ff" d="M1149.22,-230.41C1087.13,-220.86 964.94,-202.07 891.66,-190.8"/>
<polygon fill="#63b8ff" stroke="#63b8ff" points="892.25,-187.35 881.84,-189.29 891.19,-194.27 892.25,-187.35"/>
</a>
</g>
</g>
<!-- Node32 -->
<g id="Node000032" class="node">
<title>Node32</title>
<g id="a_Node000032"><a xlink:href="errno_8h.html" target="_top" xlink:title=" ">
<polygon fill="white" stroke="#666666" points="1309.25,-191 1258.75,-191 1258.75,-170.25 1309.25,-170.25 1309.25,-191"/>
<text text-anchor="middle" x="1284" y="-177.5" font-family="Helvetica,sans-Serif" font-size="10.00">errno.h</text>
</a>
</g>
</g>
<!-- Node31&#45;&gt;Node32 -->
<g id="edge56_Node000031_Node000032" class="edge">
<title>Node31&#45;&gt;Node32</title>
<g id="a_edge56_Node000031_Node000032"><a xlink:title=" ">
<path fill="none" stroke="#63b8ff" d="M1205.16,-226.59C1219.63,-218.33 1240.59,-206.38 1257.26,-196.88"/>
<polygon fill="#63b8ff" stroke="#63b8ff" points="1258.72,-200.07 1265.67,-192.08 1255.25,-193.99 1258.72,-200.07"/>
</a>
</g>
</g>
<!-- Node33 -->
<g id="Node000033" class="node">
<title>Node33</title>
<g id="a_Node000033"><a xlink:href="iolist_8h.html" target="_top" xlink:title="iolist scatter / gather IO">
<polygon fill="white" stroke="#666666" points="1202.5,-191 1153.5,-191 1153.5,-170.25 1202.5,-170.25 1202.5,-191"/>
<text text-anchor="middle" x="1178" y="-177.5" font-family="Helvetica,sans-Serif" font-size="10.00">iolist.h</text>
</a>
</g>
</g>
<!-- Node31&#45;&gt;Node33 -->
<g id="edge57_Node000031_Node000033" class="edge">
<title>Node31&#45;&gt;Node33</title>
<g id="a_edge57_Node000031_Node000033"><a xlink:title=" ">
<path fill="none" stroke="#63b8ff" d="M1186.21,-226.59C1184.99,-219.89 1183.32,-210.76 1181.81,-202.48"/>
<polygon fill="#63b8ff" stroke="#63b8ff" points="1185.28,-202.03 1180.04,-192.82 1178.4,-203.28 1185.28,-202.03"/>
</a>
</g>
</g>
<!-- Node34 -->
<g id="Node000034" class="node">
<title>Node34</title>
<g id="a_Node000034"><a xlink:href="netopt_8h.html" target="_top" xlink:title="Definition of global configuration options.">
<polygon fill="white" stroke="#666666" points="1135.62,-191 1060.38,-191 1060.38,-170.25 1135.62,-170.25 1135.62,-191"/>
<text text-anchor="middle" x="1098" y="-177.5" font-family="Helvetica,sans-Serif" font-size="10.00">net/netopt.h</text>
</a>
</g>
</g>
<!-- Node31&#45;&gt;Node34 -->
<g id="edge58_Node000031_Node000034" class="edge">
<title>Node31&#45;&gt;Node34</title>
<g id="a_edge58_Node000031_Node000034"><a xlink:title=" ">
<path fill="none" stroke="#63b8ff" d="M1171.91,-226.59C1158.47,-218.41 1139.07,-206.61 1123.51,-197.15"/>
<polygon fill="#63b8ff" stroke="#63b8ff" points="1125.61,-194.32 1115.24,-192.12 1121.97,-200.3 1125.61,-194.32"/>
</a>
</g>
</g>
<!-- Node34&#45;&gt;Node2 -->
<g id="edge59_Node000034_Node000002" class="edge">
<title>Node34&#45;&gt;Node2</title>
<g id="a_edge59_Node000034_Node000002"><a xlink:title=" ">
<path fill="none" stroke="#63b8ff" d="M1097.35,-170.05C1095.25,-147.05 1086.7,-88.23 1053,-56.75 1020.78,-26.65 969.74,-16.39 934.88,-12.97"/>
<polygon fill="#63b8ff" stroke="#63b8ff" points="935.49,-9.5 925.23,-12.17 934.91,-16.48 935.49,-9.5"/>
</a>
</g>
</g>
<!-- Node34&#45;&gt;Node15 -->
<g id="edge60_Node000034_Node000015" class="edge">
<title>Node34&#45;&gt;Node15</title>
<g id="a_edge60_Node000034_Node000015"><a xlink:title=" ">
<path fill="none" stroke="#63b8ff" d="M1060.14,-176.16C953.87,-166.43 653.34,-138.91 542.09,-128.73"/>
<polygon fill="#63b8ff" stroke="#63b8ff" points="542.49,-125.25 532.21,-127.82 541.85,-132.22 542.49,-125.25"/>
</a>
</g>
</g>
</g>
</svg>
