<?xml version="1.0" encoding="UTF-8" standalone="no"?>
<!DOCTYPE svg PUBLIC "-//W3C//DTD SVG 1.1//EN"
 "http://www.w3.org/Graphics/SVG/1.1/DTD/svg11.dtd">
<!-- Generated by graphviz version 12.1.2 (0)
 -->
<!-- Title: drivers/slipdev/include/slipdev_params.h Pages: 1 -->
<svg width="940pt" height="382pt"
 viewBox="0.00 0.00 940.15 382.00" xmlns="http://www.w3.org/2000/svg" xmlns:xlink="http://www.w3.org/1999/xlink">
<g id="graph0" class="graph" transform="scale(1 1) rotate(0) translate(4 378)">
<title>drivers/slipdev/include/slipdev_params.h</title>
<!-- Node1 -->
<g id="Node000001" class="node">
<title>Node1</title>
<g id="a_Node000001"><a xlink:title="Default configuration for the SLIP device driver.">
<polygon fill="#999999" stroke="#666666" points="457.28,-374 331.03,-374 331.03,-340.5 457.28,-340.5 457.28,-374"/>
<text text-anchor="start" x="339.03" y="-360.5" font-family="Helvetica,sans-Serif" font-size="10.00">drivers/slipdev/include</text>
<text text-anchor="middle" x="394.15" y="-347.75" font-family="Helvetica,sans-Serif" font-size="10.00">/slipdev_params.h</text>
</a>
</g>
</g>
<!-- Node2 -->
<g id="Node000002" class="node">
<title>Node2</title>
<g id="a_Node000002"><a xlink:title=" ">
<polygon fill="#e0e0e0" stroke="#999999" points="383.53,-304.5 330.78,-304.5 330.78,-283.75 383.53,-283.75 383.53,-304.5"/>
<text text-anchor="middle" x="357.15" y="-291" font-family="Helvetica,sans-Serif" font-size="10.00">board.h</text>
</a>
</g>
</g>
<!-- Node1&#45;&gt;Node2 -->
<g id="edge1_Node000001_Node000002" class="edge">
<title>Node1&#45;&gt;Node2</title>
<g id="a_edge1_Node000001_Node000002"><a xlink:title=" ">
<path fill="none" stroke="#63b8ff" d="M384.43,-340.19C379.67,-332.33 373.91,-322.81 368.91,-314.54"/>
<polygon fill="#63b8ff" stroke="#63b8ff" points="372.07,-313 363.89,-306.26 366.08,-316.63 372.07,-313"/>
</a>
</g>
</g>
<!-- Node3 -->
<g id="Node000003" class="node">
<title>Node3</title>
<g id="a_Node000003"><a xlink:href="slipdev_8h.html" target="_top" xlink:title="SLIP device definitions.">
<polygon fill="white" stroke="#666666" points="460.9,-304.5 401.4,-304.5 401.4,-283.75 460.9,-283.75 460.9,-304.5"/>
<text text-anchor="middle" x="431.15" y="-291" font-family="Helvetica,sans-Serif" font-size="10.00">slipdev.h</text>
</a>
</g>
</g>
<!-- Node1&#45;&gt;Node3 -->
<g id="edge2_Node000001_Node000003" class="edge">
<title>Node1&#45;&gt;Node3</title>
<g id="a_edge2_Node000001_Node000003"><a xlink:title=" ">
<path fill="none" stroke="#63b8ff" d="M403.87,-340.19C408.63,-332.33 414.4,-322.81 419.4,-314.54"/>
<polygon fill="#63b8ff" stroke="#63b8ff" points="422.23,-316.63 424.41,-306.26 416.24,-313 422.23,-316.63"/>
</a>
</g>
</g>
<!-- Node4 -->
<g id="Node000004" class="node">
<title>Node4</title>
<g id="a_Node000004"><a xlink:title=" ">
<polygon fill="#e0e0e0" stroke="#999999" points="271.53,-20.75 218.78,-20.75 218.78,0 271.53,0 271.53,-20.75"/>
<text text-anchor="middle" x="245.15" y="-7.25" font-family="Helvetica,sans-Serif" font-size="10.00">stdint.h</text>
</a>
</g>
</g>
<!-- Node3&#45;&gt;Node4 -->
<g id="edge3_Node000003_Node000004" class="edge">
<title>Node3&#45;&gt;Node4</title>
<g id="a_edge3_Node000003_Node000004"><a xlink:title=" ">
<path fill="none" stroke="#63b8ff" d="M461.36,-292.9C569.68,-291.29 932.15,-278.64 932.15,-181.62 932.15,-181.62 932.15,-181.62 932.15,-122.88 932.15,-56.55 426.73,-21.97 282.92,-13.48"/>
<polygon fill="#63b8ff" stroke="#63b8ff" points="283.36,-10 273.17,-12.91 282.95,-16.98 283.36,-10"/>
</a>
</g>
</g>
<!-- Node5 -->
<g id="Node000005" class="node">
<title>Node5</title>
<g id="a_Node000005"><a xlink:href="cib_8h.html" target="_top" xlink:title="Circular integer buffer interface.">
<polygon fill="white" stroke="#666666" points="125.78,-247.75 86.53,-247.75 86.53,-227 125.78,-227 125.78,-247.75"/>
<text text-anchor="middle" x="106.15" y="-234.25" font-family="Helvetica,sans-Serif" font-size="10.00">cib.h</text>
</a>
</g>
</g>
<!-- Node3&#45;&gt;Node5 -->
<g id="edge4_Node000003_Node000005" class="edge">
<title>Node3&#45;&gt;Node5</title>
<g id="a_edge4_Node000003_Node000005"><a xlink:title=" ">
<path fill="none" stroke="#63b8ff" d="M400.97,-285.62C398,-284.96 395.02,-284.32 392.15,-283.75 299.98,-265.39 189.92,-249.65 137.24,-242.49"/>
<polygon fill="#63b8ff" stroke="#63b8ff" points="137.89,-239.05 127.51,-241.18 136.95,-245.98 137.89,-239.05"/>
</a>
</g>
</g>
<!-- Node7 -->
<g id="Node000007" class="node">
<title>Node7</title>
<g id="a_Node000007"><a xlink:href="drivers_2include_2net_2netdev_8h.html" target="_top" xlink:title="Definitions low&#45;level network driver interface.">
<polygon fill="white" stroke="#666666" points="469.53,-247.75 392.78,-247.75 392.78,-227 469.53,-227 469.53,-247.75"/>
<text text-anchor="middle" x="431.15" y="-234.25" font-family="Helvetica,sans-Serif" font-size="10.00">net/netdev.h</text>
</a>
</g>
</g>
<!-- Node3&#45;&gt;Node7 -->
<g id="edge7_Node000003_Node000007" class="edge">
<title>Node3&#45;&gt;Node7</title>
<g id="a_edge7_Node000003_Node000007"><a xlink:title=" ">
<path fill="none" stroke="#63b8ff" d="M431.15,-283.34C431.15,-276.72 431.15,-267.72 431.15,-259.52"/>
<polygon fill="#63b8ff" stroke="#63b8ff" points="434.65,-259.59 431.15,-249.59 427.65,-259.59 434.65,-259.59"/>
</a>
</g>
</g>
<!-- Node18 -->
<g id="Node000018" class="node">
<title>Node18</title>
<g id="a_Node000018"><a xlink:href="drivers_2include_2periph_2uart_8h.html" target="_top" xlink:title="Low&#45;level UART peripheral driver interface definition.">
<polygon fill="white" stroke="#666666" points="696.28,-247.75 618.03,-247.75 618.03,-227 696.28,-227 696.28,-247.75"/>
<text text-anchor="middle" x="657.15" y="-234.25" font-family="Helvetica,sans-Serif" font-size="10.00">periph/uart.h</text>
</a>
</g>
</g>
<!-- Node3&#45;&gt;Node18 -->
<g id="edge24_Node000003_Node000018" class="edge">
<title>Node3&#45;&gt;Node18</title>
<g id="a_edge24_Node000003_Node000018"><a xlink:title=" ">
<path fill="none" stroke="#63b8ff" d="M461.16,-285.85C498.36,-276.84 562.28,-261.36 606.98,-250.53"/>
<polygon fill="#63b8ff" stroke="#63b8ff" points="607.53,-254 616.43,-248.24 605.89,-247.19 607.53,-254"/>
</a>
</g>
</g>
<!-- Node22 -->
<g id="Node000022" class="node">
<title>Node22</title>
<g id="a_Node000022"><a xlink:href="chunked__ringbuffer_8h.html" target="_top" xlink:title="Chunked Ringbuffer.">
<polygon fill="white" stroke="#666666" points="302.53,-134.25 183.78,-134.25 183.78,-113.5 302.53,-113.5 302.53,-134.25"/>
<text text-anchor="middle" x="243.15" y="-120.75" font-family="Helvetica,sans-Serif" font-size="10.00">chunked_ringbuffer.h</text>
</a>
</g>
</g>
<!-- Node3&#45;&gt;Node22 -->
<g id="edge31_Node000003_Node000022" class="edge">
<title>Node3&#45;&gt;Node22</title>
<g id="a_edge31_Node000003_Node000022"><a xlink:title=" ">
<path fill="none" stroke="#63b8ff" d="M411.96,-283.36C381.76,-267.28 322.53,-232.82 283.15,-191 270.23,-177.28 259.45,-158.71 252.35,-144.74"/>
<polygon fill="#63b8ff" stroke="#63b8ff" points="255.65,-143.53 248.13,-136.07 249.35,-146.59 255.65,-143.53"/>
</a>
</g>
</g>
<!-- Node6 -->
<g id="Node000006" class="node">
<title>Node6</title>
<g id="a_Node000006"><a xlink:href="assert_8h.html" target="_top" xlink:title="POSIX.1&#45;2008 compliant version of the assert macro.">
<polygon fill="white" stroke="#666666" points="78.65,-77.5 23.65,-77.5 23.65,-56.75 78.65,-56.75 78.65,-77.5"/>
<text text-anchor="middle" x="51.15" y="-64" font-family="Helvetica,sans-Serif" font-size="10.00">assert.h</text>
</a>
</g>
</g>
<!-- Node5&#45;&gt;Node6 -->
<g id="edge5_Node000005_Node000006" class="edge">
<title>Node5&#45;&gt;Node6</title>
<g id="a_edge5_Node000005_Node000006"><a xlink:title=" ">
<path fill="none" stroke="#63b8ff" d="M93.84,-226.69C74,-210.23 35.75,-174.6 21.15,-134.25 15.15,-117.65 24.69,-99.43 34.56,-86.32"/>
<polygon fill="#63b8ff" stroke="#63b8ff" points="36.98,-88.9 40.63,-78.95 31.57,-84.45 36.98,-88.9"/>
</a>
</g>
</g>
<!-- Node6&#45;&gt;Node4 -->
<g id="edge6_Node000006_Node000004" class="edge">
<title>Node6&#45;&gt;Node4</title>
<g id="a_edge6_Node000006_Node000004"><a xlink:title=" ">
<path fill="none" stroke="#63b8ff" d="M78.95,-58.28C112.65,-48.77 169.62,-32.69 207.31,-22.05"/>
<polygon fill="#63b8ff" stroke="#63b8ff" points="208.21,-25.44 216.89,-19.35 206.31,-18.7 208.21,-25.44"/>
</a>
</g>
</g>
<!-- Node7&#45;&gt;Node4 -->
<g id="edge8_Node000007_Node000004" class="edge">
<title>Node7&#45;&gt;Node4</title>
<g id="a_edge8_Node000007_Node000004"><a xlink:title=" ">
<path fill="none" stroke="#63b8ff" d="M392.4,-232.26C299.96,-221.63 70.57,-190.06 21.15,-134.25 -1.77,-108.36 -7.82,-83.46 14.15,-56.75 38.14,-27.59 147.84,-16.89 207.03,-13.19"/>
<polygon fill="#63b8ff" stroke="#63b8ff" points="207.2,-16.68 216.98,-12.61 206.8,-9.69 207.2,-16.68"/>
</a>
</g>
</g>
<!-- Node8 -->
<g id="Node000008" class="node">
<title>Node8</title>
<g id="a_Node000008"><a xlink:href="errno_8h.html" target="_top" xlink:title=" ">
<polygon fill="white" stroke="#666666" points="562.4,-191 511.9,-191 511.9,-170.25 562.4,-170.25 562.4,-191"/>
<text text-anchor="middle" x="537.15" y="-177.5" font-family="Helvetica,sans-Serif" font-size="10.00">errno.h</text>
</a>
</g>
</g>
<!-- Node7&#45;&gt;Node8 -->
<g id="edge9_Node000007_Node000008" class="edge">
<title>Node7&#45;&gt;Node8</title>
<g id="a_edge9_Node000007_Node000008"><a xlink:title=" ">
<path fill="none" stroke="#63b8ff" d="M450.1,-226.59C466.23,-218.26 489.66,-206.16 508.14,-196.61"/>
<polygon fill="#63b8ff" stroke="#63b8ff" points="509.74,-199.72 517.02,-192.02 506.53,-193.5 509.74,-199.72"/>
</a>
</g>
</g>
<!-- Node9 -->
<g id="Node000009" class="node">
<title>Node9</title>
<g id="a_Node000009"><a xlink:href="iolist_8h.html" target="_top" xlink:title="iolist scatter / gather IO">
<polygon fill="white" stroke="#666666" points="455.65,-191 406.65,-191 406.65,-170.25 455.65,-170.25 455.65,-191"/>
<text text-anchor="middle" x="431.15" y="-177.5" font-family="Helvetica,sans-Serif" font-size="10.00">iolist.h</text>
</a>
</g>
</g>
<!-- Node7&#45;&gt;Node9 -->
<g id="edge10_Node000007_Node000009" class="edge">
<title>Node7&#45;&gt;Node9</title>
<g id="a_edge10_Node000007_Node000009"><a xlink:title=" ">
<path fill="none" stroke="#63b8ff" d="M431.15,-226.59C431.15,-219.97 431.15,-210.97 431.15,-202.77"/>
<polygon fill="#63b8ff" stroke="#63b8ff" points="434.65,-202.84 431.15,-192.84 427.65,-202.84 434.65,-202.84"/>
</a>
</g>
</g>
<!-- Node10 -->
<g id="Node000010" class="node">
<title>Node10</title>
<g id="a_Node000010"><a xlink:href="netopt_8h.html" target="_top" xlink:title="Definition of global configuration options.">
<polygon fill="white" stroke="#666666" points="569.78,-134.25 494.53,-134.25 494.53,-113.5 569.78,-113.5 569.78,-134.25"/>
<text text-anchor="middle" x="532.15" y="-120.75" font-family="Helvetica,sans-Serif" font-size="10.00">net/netopt.h</text>
</a>
</g>
</g>
<!-- Node7&#45;&gt;Node10 -->
<g id="edge11_Node000007_Node000010" class="edge">
<title>Node7&#45;&gt;Node10</title>
<g id="a_edge11_Node000007_Node000010"><a xlink:title=" ">
<path fill="none" stroke="#63b8ff" d="M439.76,-226.87C456.6,-208.28 494.12,-166.86 515.81,-142.91"/>
<polygon fill="#63b8ff" stroke="#63b8ff" points="518.14,-145.56 522.26,-135.8 512.95,-140.86 518.14,-145.56"/>
</a>
</g>
</g>
<!-- Node12 -->
<g id="Node000012" class="node">
<title>Node12</title>
<g id="a_Node000012"><a xlink:href="kernel__defines_8h.html" target="_top" xlink:title="Common macros and compiler attributes/pragmas configuration.">
<polygon fill="white" stroke="#666666" points="388.28,-191 292.03,-191 292.03,-170.25 388.28,-170.25 388.28,-191"/>
<text text-anchor="middle" x="340.15" y="-177.5" font-family="Helvetica,sans-Serif" font-size="10.00">kernel_defines.h</text>
</a>
</g>
</g>
<!-- Node7&#45;&gt;Node12 -->
<g id="edge14_Node000007_Node000012" class="edge">
<title>Node7&#45;&gt;Node12</title>
<g id="a_edge14_Node000007_Node000012"><a xlink:title=" ">
<path fill="none" stroke="#63b8ff" d="M414.88,-226.59C401.3,-218.41 381.68,-206.61 365.95,-197.15"/>
<polygon fill="#63b8ff" stroke="#63b8ff" points="367.95,-194.27 357.58,-192.11 364.34,-200.26 367.95,-194.27"/>
</a>
</g>
</g>
<!-- Node10&#45;&gt;Node4 -->
<g id="edge12_Node000010_Node000004" class="edge">
<title>Node10&#45;&gt;Node4</title>
<g id="a_edge12_Node000010_Node000004"><a xlink:title=" ">
<path fill="none" stroke="#63b8ff" d="M521.98,-113.18C506.18,-98.68 474.23,-71.46 442.15,-56.75 389.89,-32.78 323.84,-20.91 283.05,-15.46"/>
<polygon fill="#63b8ff" stroke="#63b8ff" points="283.61,-12.01 273.25,-14.22 282.73,-18.95 283.61,-12.01"/>
</a>
</g>
</g>
<!-- Node11 -->
<g id="Node000011" class="node">
<title>Node11</title>
<g id="a_Node000011"><a xlink:title=" ">
<polygon fill="#e0e0e0" stroke="#999999" points="336.65,-77.5 275.65,-77.5 275.65,-56.75 336.65,-56.75 336.65,-77.5"/>
<text text-anchor="middle" x="306.15" y="-64" font-family="Helvetica,sans-Serif" font-size="10.00">stdbool.h</text>
</a>
</g>
</g>
<!-- Node10&#45;&gt;Node11 -->
<g id="edge13_Node000010_Node000011" class="edge">
<title>Node10&#45;&gt;Node11</title>
<g id="a_edge13_Node000010_Node000011"><a xlink:title=" ">
<path fill="none" stroke="#63b8ff" d="M494.07,-113.65C453.71,-103.87 390.14,-88.47 348.3,-78.34"/>
<polygon fill="#63b8ff" stroke="#63b8ff" points="349.13,-74.93 338.58,-75.98 347.48,-81.74 349.13,-74.93"/>
</a>
</g>
</g>
<!-- Node13 -->
<g id="Node000013" class="node">
<title>Node13</title>
<g id="a_Node000013"><a xlink:href="modules_8h.html" target="_top" xlink:title="Common macros and compiler attributes/pragmas configuration.">
<polygon fill="white" stroke="#666666" points="387.65,-134.25 320.65,-134.25 320.65,-113.5 387.65,-113.5 387.65,-134.25"/>
<text text-anchor="middle" x="354.15" y="-120.75" font-family="Helvetica,sans-Serif" font-size="10.00">modules.h</text>
</a>
</g>
</g>
<!-- Node12&#45;&gt;Node13 -->
<g id="edge15_Node000012_Node000013" class="edge">
<title>Node12&#45;&gt;Node13</title>
<g id="a_edge15_Node000012_Node000013"><a xlink:title=" ">
<path fill="none" stroke="#63b8ff" d="M342.66,-169.84C344.37,-163.14 346.7,-154.01 348.82,-145.73"/>
<polygon fill="#63b8ff" stroke="#63b8ff" points="352.21,-146.6 351.3,-136.04 345.43,-144.87 352.21,-146.6"/>
</a>
</g>
</g>
<!-- Node14 -->
<g id="Node000014" class="node">
<title>Node14</title>
<g id="a_Node000014"><a xlink:href="riot__version_8h.html" target="_top" xlink:title="Common macros and compiler attributes/pragmas configuration.">
<polygon fill="white" stroke="#666666" points="217.53,-77.5 134.78,-77.5 134.78,-56.75 217.53,-56.75 217.53,-77.5"/>
<text text-anchor="middle" x="176.15" y="-64" font-family="Helvetica,sans-Serif" font-size="10.00">riot_version.h</text>
</a>
</g>
</g>
<!-- Node12&#45;&gt;Node14 -->
<g id="edge16_Node000012_Node000014" class="edge">
<title>Node12&#45;&gt;Node14</title>
<g id="a_edge16_Node000012_Node000014"><a xlink:title=" ">
<path fill="none" stroke="#63b8ff" d="M291.55,-172.84C248.14,-165.66 189.29,-152.8 175.15,-134.25 165.46,-121.54 166.61,-103.1 169.67,-88.92"/>
<polygon fill="#63b8ff" stroke="#63b8ff" points="173.05,-89.83 172.24,-79.26 166.28,-88.03 173.05,-89.83"/>
</a>
</g>
</g>
<!-- Node15 -->
<g id="Node000015" class="node">
<title>Node15</title>
<g id="a_Node000015"><a xlink:href="compiler__hints_8h.html" target="_top" xlink:title="Common macros and compiler attributes/pragmas configuration.">
<polygon fill="white" stroke="#666666" points="127.65,-134.25 30.65,-134.25 30.65,-113.5 127.65,-113.5 127.65,-134.25"/>
<text text-anchor="middle" x="79.15" y="-120.75" font-family="Helvetica,sans-Serif" font-size="10.00">compiler_hints.h</text>
</a>
</g>
</g>
<!-- Node12&#45;&gt;Node15 -->
<g id="edge18_Node000012_Node000015" class="edge">
<title>Node12&#45;&gt;Node15</title>
<g id="a_edge18_Node000012_Node000015"><a xlink:title=" ">
<path fill="none" stroke="#63b8ff" d="M293.19,-169.77C249.53,-160.62 184.35,-146.94 137.4,-137.09"/>
<polygon fill="#63b8ff" stroke="#63b8ff" points="138.16,-133.68 127.66,-135.05 136.73,-140.53 138.16,-133.68"/>
</a>
</g>
</g>
<!-- Node16 -->
<g id="Node000016" class="node">
<title>Node16</title>
<g id="a_Node000016"><a xlink:href="container_8h.html" target="_top" xlink:title="Common macros and compiler attributes/pragmas configuration.">
<polygon fill="white" stroke="#666666" points="476.53,-134.25 405.78,-134.25 405.78,-113.5 476.53,-113.5 476.53,-134.25"/>
<text text-anchor="middle" x="441.15" y="-120.75" font-family="Helvetica,sans-Serif" font-size="10.00">container.h</text>
</a>
</g>
</g>
<!-- Node12&#45;&gt;Node16 -->
<g id="edge21_Node000012_Node000016" class="edge">
<title>Node12&#45;&gt;Node16</title>
<g id="a_edge21_Node000012_Node000016"><a xlink:title=" ">
<path fill="none" stroke="#63b8ff" d="M358.21,-169.84C373.58,-161.51 395.9,-149.41 413.51,-139.86"/>
<polygon fill="#63b8ff" stroke="#63b8ff" points="414.8,-143.14 421.92,-135.3 411.46,-136.99 414.8,-143.14"/>
</a>
</g>
</g>
<!-- Node14&#45;&gt;Node4 -->
<g id="edge17_Node000014_Node000004" class="edge">
<title>Node14&#45;&gt;Node4</title>
<g id="a_edge17_Node000014_Node000004"><a xlink:title=" ">
<path fill="none" stroke="#63b8ff" d="M188.49,-56.34C198.4,-48.47 212.54,-37.25 224.22,-27.99"/>
<polygon fill="#63b8ff" stroke="#63b8ff" points="226.08,-30.98 231.74,-22.02 221.73,-25.49 226.08,-30.98"/>
</a>
</g>
</g>
<!-- Node15&#45;&gt;Node4 -->
<g id="edge20_Node000015_Node000004" class="edge">
<title>Node15&#45;&gt;Node4</title>
<g id="a_edge20_Node000015_Node000004"><a xlink:title=" ">
<path fill="none" stroke="#63b8ff" d="M83.58,-113.43C90.68,-99.24 105.88,-72.44 126.15,-56.75 150.11,-38.21 182.51,-26.52 207.46,-19.65"/>
<polygon fill="#63b8ff" stroke="#63b8ff" points="208.07,-23.11 216.87,-17.21 206.31,-16.34 208.07,-23.11"/>
</a>
</g>
</g>
<!-- Node15&#45;&gt;Node6 -->
<g id="edge19_Node000015_Node000006" class="edge">
<title>Node15&#45;&gt;Node6</title>
<g id="a_edge19_Node000015_Node000006"><a xlink:title=" ">
<path fill="none" stroke="#63b8ff" d="M74.15,-113.09C70.56,-106.08 65.62,-96.41 61.23,-87.83"/>
<polygon fill="#63b8ff" stroke="#63b8ff" points="64.47,-86.49 56.8,-79.18 58.24,-89.67 64.47,-86.49"/>
</a>
</g>
</g>
<!-- Node16&#45;&gt;Node4 -->
<g id="edge23_Node000016_Node000004" class="edge">
<title>Node16&#45;&gt;Node4</title>
<g id="a_edge23_Node000016_Node000004"><a xlink:title=" ">
<path fill="none" stroke="#63b8ff" d="M441.22,-113.29C440.77,-98.93 437.74,-71.9 422.15,-56.75 384.96,-20.61 323.09,-12.13 283.23,-10.71"/>
<polygon fill="#63b8ff" stroke="#63b8ff" points="283.44,-7.21 273.37,-10.51 283.3,-14.21 283.44,-7.21"/>
</a>
</g>
</g>
<!-- Node17 -->
<g id="Node000017" class="node">
<title>Node17</title>
<g id="a_Node000017"><a xlink:title=" ">
<polygon fill="#e0e0e0" stroke="#999999" points="412.65,-77.5 357.65,-77.5 357.65,-56.75 412.65,-56.75 412.65,-77.5"/>
<text text-anchor="middle" x="385.15" y="-64" font-family="Helvetica,sans-Serif" font-size="10.00">stddef.h</text>
</a>
</g>
</g>
<!-- Node16&#45;&gt;Node17 -->
<g id="edge22_Node000016_Node000017" class="edge">
<title>Node16&#45;&gt;Node17</title>
<g id="a_edge22_Node000016_Node000017"><a xlink:title=" ">
<path fill="none" stroke="#63b8ff" d="M431.14,-113.09C423.42,-105.53 412.52,-94.89 403.28,-85.85"/>
<polygon fill="#63b8ff" stroke="#63b8ff" points="405.76,-83.37 396.16,-78.89 400.86,-88.38 405.76,-83.37"/>
</a>
</g>
</g>
<!-- Node18&#45;&gt;Node4 -->
<g id="edge28_Node000018_Node000004" class="edge">
<title>Node18&#45;&gt;Node4</title>
<g id="a_edge28_Node000018_Node000004"><a xlink:title=" ">
<path fill="none" stroke="#63b8ff" d="M696.77,-233.2C749.95,-227.32 834.53,-211.34 805.15,-170.25 742.78,-83.01 398.92,-31.22 283.18,-16.07"/>
<polygon fill="#63b8ff" stroke="#63b8ff" points="283.64,-12.6 273.27,-14.79 282.74,-19.54 283.64,-12.6"/>
</a>
</g>
</g>
<!-- Node18&#45;&gt;Node8 -->
<g id="edge25_Node000018_Node000008" class="edge">
<title>Node18&#45;&gt;Node8</title>
<g id="a_edge25_Node000018_Node000008"><a xlink:title=" ">
<path fill="none" stroke="#63b8ff" d="M635.7,-226.59C617.1,-218.1 589.93,-205.7 568.83,-196.08"/>
<polygon fill="#63b8ff" stroke="#63b8ff" points="570.35,-192.92 559.8,-191.96 567.44,-199.29 570.35,-192.92"/>
</a>
</g>
</g>
<!-- Node18&#45;&gt;Node17 -->
<g id="edge27_Node000018_Node000017" class="edge">
<title>Node18&#45;&gt;Node17</title>
<g id="a_edge27_Node000018_Node000017"><a xlink:title=" ">
<path fill="none" stroke="#63b8ff" d="M644.21,-226.82C633.57,-218.4 618.74,-205.28 609.15,-191 588.56,-160.34 607.03,-137.73 579.15,-113.5 556.31,-93.65 474.07,-79.73 424.29,-72.92"/>
<polygon fill="#63b8ff" stroke="#63b8ff" points="424.87,-69.46 414.49,-71.61 423.94,-76.4 424.87,-69.46"/>
</a>
</g>
</g>
<!-- Node19 -->
<g id="Node000019" class="node">
<title>Node19</title>
<g id="a_Node000019"><a xlink:title=" ">
<polygon fill="#e0e0e0" stroke="#999999" points="904.53,-191 851.78,-191 851.78,-170.25 904.53,-170.25 904.53,-191"/>
<text text-anchor="middle" x="878.15" y="-177.5" font-family="Helvetica,sans-Serif" font-size="10.00">limits.h</text>
</a>
</g>
</g>
<!-- Node18&#45;&gt;Node19 -->
<g id="edge26_Node000018_Node000019" class="edge">
<title>Node18&#45;&gt;Node19</title>
<g id="a_edge26_Node000018_Node000019"><a xlink:title=" ">
<path fill="none" stroke="#63b8ff" d="M696.66,-226.59C737.34,-216.51 800.28,-200.92 840.33,-190.99"/>
<polygon fill="#63b8ff" stroke="#63b8ff" points="841.15,-194.4 850.01,-188.6 839.46,-187.6 841.15,-194.4"/>
</a>
</g>
</g>
<!-- Node20 -->
<g id="Node000020" class="node">
<title>Node20</title>
<g id="a_Node000020"><a xlink:title=" ">
<polygon fill="#e0e0e0" stroke="#999999" points="696.28,-191 618.03,-191 618.03,-170.25 696.28,-170.25 696.28,-191"/>
<text text-anchor="middle" x="657.15" y="-177.5" font-family="Helvetica,sans-Serif" font-size="10.00">periph_cpu.h</text>
</a>
</g>
</g>
<!-- Node18&#45;&gt;Node20 -->
<g id="edge29_Node000018_Node000020" class="edge">
<title>Node18&#45;&gt;Node20</title>
<g id="a_edge29_Node000018_Node000020"><a xlink:title=" ">
<path fill="none" stroke="#63b8ff" d="M657.15,-226.59C657.15,-219.97 657.15,-210.97 657.15,-202.77"/>
<polygon fill="#63b8ff" stroke="#63b8ff" points="660.65,-202.84 657.15,-192.84 653.65,-202.84 660.65,-202.84"/>
</a>
</g>
</g>
<!-- Node21 -->
<g id="Node000021" class="node">
<title>Node21</title>
<g id="a_Node000021"><a xlink:title=" ">
<polygon fill="#e0e0e0" stroke="#999999" points="795.78,-191 714.53,-191 714.53,-170.25 795.78,-170.25 795.78,-191"/>
<text text-anchor="middle" x="755.15" y="-177.5" font-family="Helvetica,sans-Serif" font-size="10.00">periph_conf.h</text>
</a>
</g>
</g>
<!-- Node18&#45;&gt;Node21 -->
<g id="edge30_Node000018_Node000021" class="edge">
<title>Node18&#45;&gt;Node21</title>
<g id="a_edge30_Node000018_Node000021"><a xlink:title=" ">
<path fill="none" stroke="#63b8ff" d="M674.67,-226.59C689.44,-218.33 710.84,-206.38 727.85,-196.88"/>
<polygon fill="#63b8ff" stroke="#63b8ff" points="729.44,-200 736.46,-192.07 726.03,-193.89 729.44,-200"/>
</a>
</g>
</g>
<!-- Node22&#45;&gt;Node4 -->
<g id="edge33_Node000022_Node000004" class="edge">
<title>Node22&#45;&gt;Node4</title>
<g id="a_edge33_Node000022_Node000004"><a xlink:title=" ">
<path fill="none" stroke="#63b8ff" d="M243.32,-113.37C243.64,-95.6 244.33,-56.97 244.77,-32.68"/>
<polygon fill="#63b8ff" stroke="#63b8ff" points="248.27,-32.75 244.95,-22.69 241.27,-32.62 248.27,-32.75"/>
</a>
</g>
</g>
<!-- Node22&#45;&gt;Node11 -->
<g id="edge32_Node000022_Node000011" class="edge">
<title>Node22&#45;&gt;Node11</title>
<g id="a_edge32_Node000022_Node000011"><a xlink:title=" ">
<path fill="none" stroke="#63b8ff" d="M254.42,-113.09C263.28,-105.38 275.87,-94.45 286.4,-85.29"/>
<polygon fill="#63b8ff" stroke="#63b8ff" points="288.59,-88.02 293.84,-78.82 284,-82.74 288.59,-88.02"/>
</a>
</g>
</g>
<!-- Node22&#45;&gt;Node17 -->
<g id="edge34_Node000022_Node000017" class="edge">
<title>Node22&#45;&gt;Node17</title>
<g id="a_edge34_Node000022_Node000017"><a xlink:title=" ">
<path fill="none" stroke="#63b8ff" d="M268.54,-113.09C291.05,-104.41 324.18,-91.63 349.38,-81.92"/>
<polygon fill="#63b8ff" stroke="#63b8ff" points="350.5,-85.24 358.57,-78.37 347.98,-78.7 350.5,-85.24"/>
</a>
</g>
</g>
</g>
</svg>
