<?xml version="1.0" encoding="UTF-8" standalone="no"?>
<!DOCTYPE svg PUBLIC "-//W3C//DTD SVG 1.1//EN"
 "http://www.w3.org/Graphics/SVG/1.1/DTD/svg11.dtd">
<!-- Generated by graphviz version 12.1.2 (0)
 -->
<!-- Title: cpu/native/include/socket_zep.h Pages: 1 -->
<svg width="1024pt" height="439pt"
 viewBox="0.00 0.00 1023.88 438.75" xmlns="http://www.w3.org/2000/svg" xmlns:xlink="http://www.w3.org/1999/xlink">
<g id="graph0" class="graph" transform="scale(1 1) rotate(0) translate(4 434.75)">
<title>cpu/native/include/socket_zep.h</title>
<!-- Node1 -->
<g id="Node000001" class="node">
<title>Node1</title>
<g id="a_Node000001"><a xlink:title="Socket ZEP definitions.">
<polygon fill="#999999" stroke="#666666" points="482,-430.75 376.75,-430.75 376.75,-397.25 482,-397.25 482,-430.75"/>
<text text-anchor="start" x="384.75" y="-417.25" font-family="Helvetica,sans-Serif" font-size="10.00">cpu/native/include</text>
<text text-anchor="middle" x="429.38" y="-404.5" font-family="Helvetica,sans-Serif" font-size="10.00">/socket_zep.h</text>
</a>
</g>
</g>
<!-- Node2 -->
<g id="Node000002" class="node">
<title>Node2</title>
<g id="a_Node000002"><a xlink:href="drivers_2include_2net_2netdev_8h.html" target="_top" xlink:title="Definitions low&#45;level network driver interface.">
<polygon fill="white" stroke="#666666" points="320.75,-247.75 244,-247.75 244,-227 320.75,-227 320.75,-247.75"/>
<text text-anchor="middle" x="282.38" y="-234.25" font-family="Helvetica,sans-Serif" font-size="10.00">net/netdev.h</text>
</a>
</g>
</g>
<!-- Node1&#45;&gt;Node2 -->
<g id="edge1_Node000001_Node000002" class="edge">
<title>Node1&#45;&gt;Node2</title>
<g id="a_edge1_Node000001_Node000002"><a xlink:title=" ">
<path fill="none" stroke="#63b8ff" d="M399.7,-396.89C384.27,-387.67 365.71,-375.18 351.38,-361.25 320.8,-331.52 299.87,-285.31 289.63,-258.85"/>
<polygon fill="#63b8ff" stroke="#63b8ff" points="292.97,-257.78 286.21,-249.63 286.4,-260.22 292.97,-257.78"/>
</a>
</g>
</g>
<!-- Node15 -->
<g id="Node000015" class="node">
<title>Node15</title>
<g id="a_Node000015"><a xlink:href="drivers_2include_2net_2netdev_2ieee802154_8h.html" target="_top" xlink:title="Definitions for netdev common IEEE 802.15.4 code.">
<polygon fill="white" stroke="#666666" points="498.12,-361.25 360.62,-361.25 360.62,-340.5 498.12,-340.5 498.12,-361.25"/>
<text text-anchor="middle" x="429.38" y="-347.75" font-family="Helvetica,sans-Serif" font-size="10.00">net/netdev/ieee802154.h</text>
</a>
</g>
</g>
<!-- Node1&#45;&gt;Node15 -->
<g id="edge19_Node000001_Node000015" class="edge">
<title>Node1&#45;&gt;Node15</title>
<g id="a_edge19_Node000001_Node000015"><a xlink:title=" ">
<path fill="none" stroke="#63b8ff" d="M429.38,-396.94C429.38,-389.6 429.38,-380.82 429.38,-372.96"/>
<polygon fill="#63b8ff" stroke="#63b8ff" points="432.88,-373.23 429.38,-363.23 425.88,-373.23 432.88,-373.23"/>
</a>
</g>
</g>
<!-- Node29 -->
<g id="Node000029" class="node">
<title>Node29</title>
<g id="a_Node000029"><a xlink:href="zep_8h.html" target="_top" xlink:title="Definitions for the ZigBee Encapsulation Protocol.">
<polygon fill="white" stroke="#666666" points="1015.88,-247.75 954.88,-247.75 954.88,-227 1015.88,-227 1015.88,-247.75"/>
<text text-anchor="middle" x="985.38" y="-234.25" font-family="Helvetica,sans-Serif" font-size="10.00">net/zep.h</text>
</a>
</g>
</g>
<!-- Node1&#45;&gt;Node29 -->
<g id="edge47_Node000001_Node000029" class="edge">
<title>Node1&#45;&gt;Node29</title>
<g id="a_edge47_Node000001_Node000029"><a xlink:title=" ">
<path fill="none" stroke="#63b8ff" d="M480.69,-396.88C589.92,-362.58 843.65,-282.89 943.72,-251.46"/>
<polygon fill="#63b8ff" stroke="#63b8ff" points="944.65,-254.83 953.15,-248.5 942.56,-248.15 944.65,-254.83"/>
</a>
</g>
</g>
<!-- Node3 -->
<g id="Node000003" class="node">
<title>Node3</title>
<g id="a_Node000003"><a xlink:title=" ">
<polygon fill="#e0e0e0" stroke="#999999" points="578.75,-20.75 526,-20.75 526,0 578.75,0 578.75,-20.75"/>
<text text-anchor="middle" x="552.38" y="-7.25" font-family="Helvetica,sans-Serif" font-size="10.00">stdint.h</text>
</a>
</g>
</g>
<!-- Node2&#45;&gt;Node3 -->
<g id="edge2_Node000002_Node000003" class="edge">
<title>Node2&#45;&gt;Node3</title>
<g id="a_edge2_Node000002_Node000003"><a xlink:title=" ">
<path fill="none" stroke="#63b8ff" d="M289.48,-226.59C316.08,-190.01 408.72,-63 417.38,-56.75 446.36,-35.83 485.67,-24.06 514.39,-17.79"/>
<polygon fill="#63b8ff" stroke="#63b8ff" points="515.02,-21.23 524.12,-15.8 513.62,-14.37 515.02,-21.23"/>
</a>
</g>
</g>
<!-- Node4 -->
<g id="Node000004" class="node">
<title>Node4</title>
<g id="a_Node000004"><a xlink:href="errno_8h.html" target="_top" xlink:title=" ">
<polygon fill="white" stroke="#666666" points="238.62,-191 188.12,-191 188.12,-170.25 238.62,-170.25 238.62,-191"/>
<text text-anchor="middle" x="213.38" y="-177.5" font-family="Helvetica,sans-Serif" font-size="10.00">errno.h</text>
</a>
</g>
</g>
<!-- Node2&#45;&gt;Node4 -->
<g id="edge3_Node000002_Node000004" class="edge">
<title>Node2&#45;&gt;Node4</title>
<g id="a_edge3_Node000002_Node000004"><a xlink:title=" ">
<path fill="none" stroke="#63b8ff" d="M270.04,-226.59C260.13,-218.72 245.99,-207.5 234.31,-198.24"/>
<polygon fill="#63b8ff" stroke="#63b8ff" points="236.8,-195.74 226.79,-192.27 232.45,-201.23 236.8,-195.74"/>
</a>
</g>
</g>
<!-- Node5 -->
<g id="Node000005" class="node">
<title>Node5</title>
<g id="a_Node000005"><a xlink:href="iolist_8h.html" target="_top" xlink:title="iolist scatter / gather IO">
<polygon fill="white" stroke="#666666" points="305.88,-191 256.88,-191 256.88,-170.25 305.88,-170.25 305.88,-191"/>
<text text-anchor="middle" x="281.38" y="-177.5" font-family="Helvetica,sans-Serif" font-size="10.00">iolist.h</text>
</a>
</g>
</g>
<!-- Node2&#45;&gt;Node5 -->
<g id="edge4_Node000002_Node000005" class="edge">
<title>Node2&#45;&gt;Node5</title>
<g id="a_edge4_Node000002_Node000005"><a xlink:title=" ">
<path fill="none" stroke="#63b8ff" d="M282.2,-226.59C282.08,-219.97 281.91,-210.97 281.76,-202.77"/>
<polygon fill="#63b8ff" stroke="#63b8ff" points="285.26,-202.78 281.58,-192.84 278.26,-202.9 285.26,-202.78"/>
</a>
</g>
</g>
<!-- Node6 -->
<g id="Node000006" class="node">
<title>Node6</title>
<g id="a_Node000006"><a xlink:href="netopt_8h.html" target="_top" xlink:title="Definition of global configuration options.">
<polygon fill="white" stroke="#666666" points="438,-191 362.75,-191 362.75,-170.25 438,-170.25 438,-191"/>
<text text-anchor="middle" x="400.38" y="-177.5" font-family="Helvetica,sans-Serif" font-size="10.00">net/netopt.h</text>
</a>
</g>
</g>
<!-- Node2&#45;&gt;Node6 -->
<g id="edge5_Node000002_Node000006" class="edge">
<title>Node2&#45;&gt;Node6</title>
<g id="a_edge5_Node000002_Node000006"><a xlink:title=" ">
<path fill="none" stroke="#63b8ff" d="M303.47,-226.59C321.76,-218.1 348.48,-205.7 369.23,-196.08"/>
<polygon fill="#63b8ff" stroke="#63b8ff" points="370.49,-199.35 378.09,-191.97 367.54,-193 370.49,-199.35"/>
</a>
</g>
</g>
<!-- Node8 -->
<g id="Node000008" class="node">
<title>Node8</title>
<g id="a_Node000008"><a xlink:href="kernel__defines_8h.html" target="_top" xlink:title="Common macros and compiler attributes/pragmas configuration.">
<polygon fill="white" stroke="#666666" points="170.5,-191 74.25,-191 74.25,-170.25 170.5,-170.25 170.5,-191"/>
<text text-anchor="middle" x="122.38" y="-177.5" font-family="Helvetica,sans-Serif" font-size="10.00">kernel_defines.h</text>
</a>
</g>
</g>
<!-- Node2&#45;&gt;Node8 -->
<g id="edge8_Node000002_Node000008" class="edge">
<title>Node2&#45;&gt;Node8</title>
<g id="a_edge8_Node000002_Node000008"><a xlink:title=" ">
<path fill="none" stroke="#63b8ff" d="M253.77,-226.59C228.14,-217.82 190.3,-204.87 161.81,-195.12"/>
<polygon fill="#63b8ff" stroke="#63b8ff" points="163.03,-191.84 152.43,-191.91 160.76,-198.46 163.03,-191.84"/>
</a>
</g>
</g>
<!-- Node6&#45;&gt;Node3 -->
<g id="edge6_Node000006_Node000003" class="edge">
<title>Node6&#45;&gt;Node3</title>
<g id="a_edge6_Node000006_Node000003"><a xlink:title=" ">
<path fill="none" stroke="#63b8ff" d="M395.91,-170.01C390.36,-156.55 382.72,-131.68 392.38,-113.5 417.81,-65.62 476.64,-37.1 515.44,-22.83"/>
<polygon fill="#63b8ff" stroke="#63b8ff" points="516.1,-26.31 524.37,-19.69 513.78,-19.71 516.1,-26.31"/>
</a>
</g>
</g>
<!-- Node7 -->
<g id="Node000007" class="node">
<title>Node7</title>
<g id="a_Node000007"><a xlink:title=" ">
<polygon fill="#e0e0e0" stroke="#999999" points="461.88,-134.25 400.88,-134.25 400.88,-113.5 461.88,-113.5 461.88,-134.25"/>
<text text-anchor="middle" x="431.38" y="-120.75" font-family="Helvetica,sans-Serif" font-size="10.00">stdbool.h</text>
</a>
</g>
</g>
<!-- Node6&#45;&gt;Node7 -->
<g id="edge7_Node000006_Node000007" class="edge">
<title>Node6&#45;&gt;Node7</title>
<g id="a_edge7_Node000006_Node000007"><a xlink:title=" ">
<path fill="none" stroke="#63b8ff" d="M405.92,-169.84C409.88,-162.83 415.36,-153.16 420.22,-144.58"/>
<polygon fill="#63b8ff" stroke="#63b8ff" points="423.25,-146.32 425.14,-135.9 417.16,-142.87 423.25,-146.32"/>
</a>
</g>
</g>
<!-- Node9 -->
<g id="Node000009" class="node">
<title>Node9</title>
<g id="a_Node000009"><a xlink:href="modules_8h.html" target="_top" xlink:title="Common macros and compiler attributes/pragmas configuration.">
<polygon fill="white" stroke="#666666" points="585.88,-134.25 518.88,-134.25 518.88,-113.5 585.88,-113.5 585.88,-134.25"/>
<text text-anchor="middle" x="552.38" y="-120.75" font-family="Helvetica,sans-Serif" font-size="10.00">modules.h</text>
</a>
</g>
</g>
<!-- Node8&#45;&gt;Node9 -->
<g id="edge9_Node000008_Node000009" class="edge">
<title>Node8&#45;&gt;Node9</title>
<g id="a_edge9_Node000008_Node000009"><a xlink:title=" ">
<path fill="none" stroke="#63b8ff" d="M170.86,-171.51C173.74,-171.07 176.6,-170.65 179.38,-170.25 241.75,-161.33 422.36,-140.04 507.26,-130.12"/>
<polygon fill="#63b8ff" stroke="#63b8ff" points="507.56,-133.61 517.08,-128.98 506.75,-126.66 507.56,-133.61"/>
</a>
</g>
</g>
<!-- Node10 -->
<g id="Node000010" class="node">
<title>Node10</title>
<g id="a_Node000010"><a xlink:href="riot__version_8h.html" target="_top" xlink:title="Common macros and compiler attributes/pragmas configuration.">
<polygon fill="white" stroke="#666666" points="82.75,-77.5 0,-77.5 0,-56.75 82.75,-56.75 82.75,-77.5"/>
<text text-anchor="middle" x="41.38" y="-64" font-family="Helvetica,sans-Serif" font-size="10.00">riot_version.h</text>
</a>
</g>
</g>
<!-- Node8&#45;&gt;Node10 -->
<g id="edge10_Node000008_Node000010" class="edge">
<title>Node8&#45;&gt;Node10</title>
<g id="a_edge10_Node000008_Node000010"><a xlink:title=" ">
<path fill="none" stroke="#63b8ff" d="M108.02,-169.84C96.61,-161.48 80.87,-148.54 70.38,-134.25 60.16,-120.34 52.55,-102.27 47.69,-88.53"/>
<polygon fill="#63b8ff" stroke="#63b8ff" points="51.07,-87.62 44.61,-79.23 44.43,-89.82 51.07,-87.62"/>
</a>
</g>
</g>
<!-- Node11 -->
<g id="Node000011" class="node">
<title>Node11</title>
<g id="a_Node000011"><a xlink:href="compiler__hints_8h.html" target="_top" xlink:title="Common macros and compiler attributes/pragmas configuration.">
<polygon fill="white" stroke="#666666" points="176.88,-134.25 79.88,-134.25 79.88,-113.5 176.88,-113.5 176.88,-134.25"/>
<text text-anchor="middle" x="128.38" y="-120.75" font-family="Helvetica,sans-Serif" font-size="10.00">compiler_hints.h</text>
</a>
</g>
</g>
<!-- Node8&#45;&gt;Node11 -->
<g id="edge12_Node000008_Node000011" class="edge">
<title>Node8&#45;&gt;Node11</title>
<g id="a_edge12_Node000008_Node000011"><a xlink:title=" ">
<path fill="none" stroke="#63b8ff" d="M123.45,-169.84C124.17,-163.22 125.16,-154.22 126.06,-146.02"/>
<polygon fill="#63b8ff" stroke="#63b8ff" points="129.54,-146.4 127.15,-136.08 122.58,-145.64 129.54,-146.4"/>
</a>
</g>
</g>
<!-- Node13 -->
<g id="Node000013" class="node">
<title>Node13</title>
<g id="a_Node000013"><a xlink:href="container_8h.html" target="_top" xlink:title="Common macros and compiler attributes/pragmas configuration.">
<polygon fill="white" stroke="#666666" points="275.75,-134.25 205,-134.25 205,-113.5 275.75,-113.5 275.75,-134.25"/>
<text text-anchor="middle" x="240.38" y="-120.75" font-family="Helvetica,sans-Serif" font-size="10.00">container.h</text>
</a>
</g>
</g>
<!-- Node8&#45;&gt;Node13 -->
<g id="edge16_Node000008_Node000013" class="edge">
<title>Node8&#45;&gt;Node13</title>
<g id="a_edge16_Node000008_Node000013"><a xlink:title=" ">
<path fill="none" stroke="#63b8ff" d="M143.47,-169.84C161.76,-161.35 188.48,-148.95 209.23,-139.33"/>
<polygon fill="#63b8ff" stroke="#63b8ff" points="210.49,-142.6 218.09,-135.22 207.54,-136.25 210.49,-142.6"/>
</a>
</g>
</g>
<!-- Node10&#45;&gt;Node3 -->
<g id="edge11_Node000010_Node000003" class="edge">
<title>Node10&#45;&gt;Node3</title>
<g id="a_edge11_Node000010_Node000003"><a xlink:title=" ">
<path fill="none" stroke="#63b8ff" d="M83.07,-58.03C85.88,-57.57 88.66,-57.14 91.38,-56.75 247.56,-34.46 435.09,-19.69 514.21,-14"/>
<polygon fill="#63b8ff" stroke="#63b8ff" points="514.28,-17.5 524.01,-13.3 513.78,-10.52 514.28,-17.5"/>
</a>
</g>
</g>
<!-- Node11&#45;&gt;Node3 -->
<g id="edge15_Node000011_Node000003" class="edge">
<title>Node11&#45;&gt;Node3</title>
<g id="a_edge15_Node000011_Node000003"><a xlink:title=" ">
<path fill="none" stroke="#63b8ff" d="M136.14,-113.01C148.55,-98.03 174.45,-69.88 203.38,-56.75 258.28,-31.84 435.97,-18.37 514.48,-13.5"/>
<polygon fill="#63b8ff" stroke="#63b8ff" points="514.48,-17.01 524.25,-12.91 514.05,-10.02 514.48,-17.01"/>
</a>
</g>
</g>
<!-- Node12 -->
<g id="Node000012" class="node">
<title>Node12</title>
<g id="a_Node000012"><a xlink:href="assert_8h.html" target="_top" xlink:title="POSIX.1&#45;2008 compliant version of the assert macro.">
<polygon fill="white" stroke="#666666" points="155.88,-77.5 100.88,-77.5 100.88,-56.75 155.88,-56.75 155.88,-77.5"/>
<text text-anchor="middle" x="128.38" y="-64" font-family="Helvetica,sans-Serif" font-size="10.00">assert.h</text>
</a>
</g>
</g>
<!-- Node11&#45;&gt;Node12 -->
<g id="edge13_Node000011_Node000012" class="edge">
<title>Node11&#45;&gt;Node12</title>
<g id="a_edge13_Node000011_Node000012"><a xlink:title=" ">
<path fill="none" stroke="#63b8ff" d="M128.38,-113.09C128.38,-106.47 128.38,-97.47 128.38,-89.27"/>
<polygon fill="#63b8ff" stroke="#63b8ff" points="131.88,-89.34 128.38,-79.34 124.88,-89.34 131.88,-89.34"/>
</a>
</g>
</g>
<!-- Node12&#45;&gt;Node3 -->
<g id="edge14_Node000012_Node000003" class="edge">
<title>Node12&#45;&gt;Node3</title>
<g id="a_edge14_Node000012_Node000003"><a xlink:title=" ">
<path fill="none" stroke="#63b8ff" d="M156.31,-59.47C160.99,-58.48 165.81,-57.53 170.38,-56.75 295.78,-35.36 446.05,-20.68 514.76,-14.57"/>
<polygon fill="#63b8ff" stroke="#63b8ff" points="514.68,-18.09 524.34,-13.73 514.07,-11.11 514.68,-18.09"/>
</a>
</g>
</g>
<!-- Node13&#45;&gt;Node3 -->
<g id="edge18_Node000013_Node000003" class="edge">
<title>Node13&#45;&gt;Node3</title>
<g id="a_edge18_Node000013_Node000003"><a xlink:title=" ">
<path fill="none" stroke="#63b8ff" d="M249.13,-113.01C262.8,-98.28 290.73,-70.78 320.38,-56.75 384.16,-26.57 466.91,-16.46 514.38,-13.08"/>
<polygon fill="#63b8ff" stroke="#63b8ff" points="514.39,-16.58 524.15,-12.45 513.95,-9.6 514.39,-16.58"/>
</a>
</g>
</g>
<!-- Node14 -->
<g id="Node000014" class="node">
<title>Node14</title>
<g id="a_Node000014"><a xlink:title=" ">
<polygon fill="#e0e0e0" stroke="#999999" points="267.88,-77.5 212.88,-77.5 212.88,-56.75 267.88,-56.75 267.88,-77.5"/>
<text text-anchor="middle" x="240.38" y="-64" font-family="Helvetica,sans-Serif" font-size="10.00">stddef.h</text>
</a>
</g>
</g>
<!-- Node13&#45;&gt;Node14 -->
<g id="edge17_Node000013_Node000014" class="edge">
<title>Node13&#45;&gt;Node14</title>
<g id="a_edge17_Node000013_Node000014"><a xlink:title=" ">
<path fill="none" stroke="#63b8ff" d="M240.38,-113.09C240.38,-106.47 240.38,-97.47 240.38,-89.27"/>
<polygon fill="#63b8ff" stroke="#63b8ff" points="243.88,-89.34 240.38,-79.34 236.88,-89.34 243.88,-89.34"/>
</a>
</g>
</g>
<!-- Node15&#45;&gt;Node2 -->
<g id="edge46_Node000015_Node000002" class="edge">
<title>Node15&#45;&gt;Node2</title>
<g id="a_edge46_Node000015_Node000002"><a xlink:title=" ">
<path fill="none" stroke="#63b8ff" d="M401.19,-340.1C381.47,-332.39 355.22,-320.3 335.38,-304.5 318.7,-291.23 303.93,-271.8 294.25,-257.44"/>
<polygon fill="#63b8ff" stroke="#63b8ff" points="297.34,-255.79 288.96,-249.31 291.47,-259.6 297.34,-255.79"/>
</a>
</g>
</g>
<!-- Node15&#45;&gt;Node6 -->
<g id="edge45_Node000015_Node000006" class="edge">
<title>Node15&#45;&gt;Node6</title>
<g id="a_edge45_Node000015_Node000006"><a xlink:title=" ">
<path fill="none" stroke="#63b8ff" d="M407.35,-340.05C393.39,-332.52 376.49,-320.66 368.38,-304.5 352.91,-273.72 357.96,-259.83 368.38,-227 371.45,-217.31 377.42,-207.9 383.38,-200.19"/>
<polygon fill="#63b8ff" stroke="#63b8ff" points="386,-202.51 389.74,-192.59 380.64,-198.02 386,-202.51"/>
</a>
</g>
</g>
<!-- Node16 -->
<g id="Node000016" class="node">
<title>Node16</title>
<g id="a_Node000016"><a xlink:href="eui__provider_8h.html" target="_top" xlink:title="EUI&#45;48 and EUI&#45;64 address provider.">
<polygon fill="white" stroke="#666666" points="481.62,-304.5 377.12,-304.5 377.12,-283.75 481.62,-283.75 481.62,-304.5"/>
<text text-anchor="middle" x="429.38" y="-291" font-family="Helvetica,sans-Serif" font-size="10.00">net/eui_provider.h</text>
</a>
</g>
</g>
<!-- Node15&#45;&gt;Node16 -->
<g id="edge20_Node000015_Node000016" class="edge">
<title>Node15&#45;&gt;Node16</title>
<g id="a_edge20_Node000015_Node000016"><a xlink:title=" ">
<path fill="none" stroke="#63b8ff" d="M429.38,-340.09C429.38,-333.47 429.38,-324.47 429.38,-316.27"/>
<polygon fill="#63b8ff" stroke="#63b8ff" points="432.88,-316.34 429.38,-306.34 425.88,-316.34 432.88,-316.34"/>
</a>
</g>
</g>
<!-- Node23 -->
<g id="Node000023" class="node">
<title>Node23</title>
<g id="a_Node000023"><a xlink:href="sys_2include_2net_2ieee802154_8h.html" target="_top" xlink:title="IEEE 802.15.4 header definitions.">
<polygon fill="white" stroke="#666666" points="936.75,-247.75 836,-247.75 836,-227 936.75,-227 936.75,-247.75"/>
<text text-anchor="middle" x="886.38" y="-234.25" font-family="Helvetica,sans-Serif" font-size="10.00">net/ieee802154.h</text>
</a>
</g>
</g>
<!-- Node15&#45;&gt;Node23 -->
<g id="edge34_Node000015_Node000023" class="edge">
<title>Node15&#45;&gt;Node23</title>
<g id="a_edge34_Node000015_Node000023"><a xlink:title=" ">
<path fill="none" stroke="#63b8ff" d="M476.54,-340.06C518.38,-331.21 581.09,-317.62 635.38,-304.5 707.25,-287.12 790.11,-264.86 840.34,-251.11"/>
<polygon fill="#63b8ff" stroke="#63b8ff" points="840.98,-254.56 849.7,-248.54 839.13,-247.81 840.98,-254.56"/>
</a>
</g>
</g>
<!-- Node25 -->
<g id="Node000025" class="node">
<title>Node25</title>
<g id="a_Node000025"><a xlink:href="nettype_8h.html" target="_top" xlink:title="Protocol type definitions.">
<polygon fill="white" stroke="#666666" points="626,-304.5 520.75,-304.5 520.75,-283.75 626,-283.75 626,-304.5"/>
<text text-anchor="middle" x="573.38" y="-291" font-family="Helvetica,sans-Serif" font-size="10.00">net/gnrc/nettype.h</text>
</a>
</g>
</g>
<!-- Node15&#45;&gt;Node25 -->
<g id="edge40_Node000015_Node000025" class="edge">
<title>Node15&#45;&gt;Node25</title>
<g id="a_edge40_Node000015_Node000025"><a xlink:title=" ">
<path fill="none" stroke="#63b8ff" d="M455.12,-340.09C477.95,-331.41 511.55,-318.63 537.1,-308.92"/>
<polygon fill="#63b8ff" stroke="#63b8ff" points="538.34,-312.19 546.44,-305.37 535.85,-305.65 538.34,-312.19"/>
</a>
</g>
</g>
<!-- Node16&#45;&gt;Node2 -->
<g id="edge33_Node000016_Node000002" class="edge">
<title>Node16&#45;&gt;Node2</title>
<g id="a_edge33_Node000016_Node000002"><a xlink:title=" ">
<path fill="none" stroke="#63b8ff" d="M403.09,-283.34C379.68,-274.62 345.19,-261.77 319.06,-252.04"/>
<polygon fill="#63b8ff" stroke="#63b8ff" points="320.44,-248.82 309.85,-248.61 318,-255.38 320.44,-248.82"/>
</a>
</g>
</g>
<!-- Node17 -->
<g id="Node000017" class="node">
<title>Node17</title>
<g id="a_Node000017"><a xlink:href="eui48_8h.html" target="_top" xlink:title="Definition and IPv6 IID conversion for IEEE EUI&#45;48 identifiers.">
<polygon fill="white" stroke="#666666" points="447.75,-247.75 377,-247.75 377,-227 447.75,-227 447.75,-247.75"/>
<text text-anchor="middle" x="412.38" y="-234.25" font-family="Helvetica,sans-Serif" font-size="10.00">net/eui48.h</text>
</a>
</g>
</g>
<!-- Node16&#45;&gt;Node17 -->
<g id="edge21_Node000016_Node000017" class="edge">
<title>Node16&#45;&gt;Node17</title>
<g id="a_edge21_Node000016_Node000017"><a xlink:title=" ">
<path fill="none" stroke="#63b8ff" d="M426.34,-283.34C424.23,-276.56 421.36,-267.3 418.76,-258.94"/>
<polygon fill="#63b8ff" stroke="#63b8ff" points="422.14,-258.04 415.84,-249.52 415.46,-260.11 422.14,-258.04"/>
</a>
</g>
</g>
<!-- Node18 -->
<g id="Node000018" class="node">
<title>Node18</title>
<g id="a_Node000018"><a xlink:href="eui64_8h.html" target="_top" xlink:title="EUI&#45;64 data type definition.">
<polygon fill="white" stroke="#666666" points="649.75,-191 579,-191 579,-170.25 649.75,-170.25 649.75,-191"/>
<text text-anchor="middle" x="614.38" y="-177.5" font-family="Helvetica,sans-Serif" font-size="10.00">net/eui64.h</text>
</a>
</g>
</g>
<!-- Node16&#45;&gt;Node18 -->
<g id="edge32_Node000016_Node000018" class="edge">
<title>Node16&#45;&gt;Node18</title>
<g id="a_edge32_Node000016_Node000018"><a xlink:title=" ">
<path fill="none" stroke="#63b8ff" d="M443.86,-283.4C463.62,-270.23 500.26,-246.17 532.38,-227 550.02,-216.47 570.22,-205.28 586.16,-196.65"/>
<polygon fill="#63b8ff" stroke="#63b8ff" points="587.46,-199.92 594.61,-192.1 584.15,-193.76 587.46,-199.92"/>
</a>
</g>
</g>
<!-- Node17&#45;&gt;Node3 -->
<g id="edge22_Node000017_Node000003" class="edge">
<title>Node17&#45;&gt;Node3</title>
<g id="a_edge22_Node000017_Node000003"><a xlink:title=" ">
<path fill="none" stroke="#63b8ff" d="M420.54,-226.56C427.89,-217.54 438.81,-203.71 447.38,-191 485.28,-134.75 524.07,-64.38 542.05,-30.86"/>
<polygon fill="#63b8ff" stroke="#63b8ff" points="544.99,-32.79 546.61,-22.32 538.82,-29.5 544.99,-32.79"/>
</a>
</g>
</g>
<!-- Node17&#45;&gt;Node18 -->
<g id="edge23_Node000017_Node000018" class="edge">
<title>Node17&#45;&gt;Node18</title>
<g id="a_edge23_Node000017_Node000018"><a xlink:title=" ">
<path fill="none" stroke="#63b8ff" d="M448.02,-226.71C481.38,-217.67 531.41,-204.11 567.89,-194.22"/>
<polygon fill="#63b8ff" stroke="#63b8ff" points="568.55,-197.67 577.28,-191.68 566.72,-190.92 568.55,-197.67"/>
</a>
</g>
</g>
<!-- Node18&#45;&gt;Node3 -->
<g id="edge24_Node000018_Node000003" class="edge">
<title>Node18&#45;&gt;Node3</title>
<g id="a_edge24_Node000018_Node000003"><a xlink:title=" ">
<path fill="none" stroke="#63b8ff" d="M612.02,-170.1C608.73,-157.14 602.37,-133.32 595.38,-113.5 585.11,-84.4 570.82,-51.67 561.59,-31.29"/>
<polygon fill="#63b8ff" stroke="#63b8ff" points="564.89,-30.09 557.55,-22.46 558.53,-33.01 564.89,-30.09"/>
</a>
</g>
</g>
<!-- Node19 -->
<g id="Node000019" class="node">
<title>Node19</title>
<g id="a_Node000019"><a xlink:href="byteorder_8h.html" target="_top" xlink:title="Functions to work with different byte orders.">
<polygon fill="white" stroke="#666666" points="867.5,-134.25 795.25,-134.25 795.25,-113.5 867.5,-113.5 867.5,-134.25"/>
<text text-anchor="middle" x="831.38" y="-120.75" font-family="Helvetica,sans-Serif" font-size="10.00">byteorder.h</text>
</a>
</g>
</g>
<!-- Node18&#45;&gt;Node19 -->
<g id="edge25_Node000018_Node000019" class="edge">
<title>Node18&#45;&gt;Node19</title>
<g id="a_edge25_Node000018_Node000019"><a xlink:title=" ">
<path fill="none" stroke="#63b8ff" d="M650.21,-170.58C686.66,-161.39 743.37,-147.08 783.62,-136.92"/>
<polygon fill="#63b8ff" stroke="#63b8ff" points="784.46,-140.32 793.3,-134.48 782.74,-133.54 784.46,-140.32"/>
</a>
</g>
</g>
<!-- Node19&#45;&gt;Node3 -->
<g id="edge27_Node000019_Node000003" class="edge">
<title>Node19&#45;&gt;Node3</title>
<g id="a_edge27_Node000019_Node000003"><a xlink:title=" ">
<path fill="none" stroke="#63b8ff" d="M802.98,-113.16C778.06,-104.44 740.97,-90.97 709.38,-77.5 689.85,-69.18 685.8,-65.29 666.38,-56.75 640.73,-45.48 611.36,-33.81 588.85,-25.14"/>
<polygon fill="#63b8ff" stroke="#63b8ff" points="590.4,-21.98 579.81,-21.67 587.9,-28.52 590.4,-21.98"/>
</a>
</g>
</g>
<!-- Node20 -->
<g id="Node000020" class="node">
<title>Node20</title>
<g id="a_Node000020"><a xlink:title=" ">
<polygon fill="#e0e0e0" stroke="#999999" points="938.75,-77.5 886,-77.5 886,-56.75 938.75,-56.75 938.75,-77.5"/>
<text text-anchor="middle" x="912.38" y="-64" font-family="Helvetica,sans-Serif" font-size="10.00">string.h</text>
</a>
</g>
</g>
<!-- Node19&#45;&gt;Node20 -->
<g id="edge26_Node000019_Node000020" class="edge">
<title>Node19&#45;&gt;Node20</title>
<g id="a_edge26_Node000019_Node000020"><a xlink:title=" ">
<path fill="none" stroke="#63b8ff" d="M845.86,-113.09C857.72,-105.07 874.75,-93.56 888.61,-84.19"/>
<polygon fill="#63b8ff" stroke="#63b8ff" points="890.44,-87.18 896.77,-78.68 886.52,-81.38 890.44,-87.18"/>
</a>
</g>
</g>
<!-- Node21 -->
<g id="Node000021" class="node">
<title>Node21</title>
<g id="a_Node000021"><a xlink:href="endian_8h.html" target="_top" xlink:title="libc header for endian conversion">
<polygon fill="white" stroke="#666666" points="776.38,-77.5 718.38,-77.5 718.38,-56.75 776.38,-56.75 776.38,-77.5"/>
<text text-anchor="middle" x="747.38" y="-64" font-family="Helvetica,sans-Serif" font-size="10.00">endian.h</text>
</a>
</g>
</g>
<!-- Node19&#45;&gt;Node21 -->
<g id="edge28_Node000019_Node000021" class="edge">
<title>Node19&#45;&gt;Node21</title>
<g id="a_edge28_Node000019_Node000021"><a xlink:title=" ">
<path fill="none" stroke="#63b8ff" d="M816.36,-113.09C803.93,-104.99 786.05,-93.33 771.6,-83.92"/>
<polygon fill="#63b8ff" stroke="#63b8ff" points="773.82,-81.18 763.53,-78.65 770,-87.05 773.82,-81.18"/>
</a>
</g>
</g>
<!-- Node22 -->
<g id="Node000022" class="node">
<title>Node22</title>
<g id="a_Node000022"><a xlink:href="unaligned_8h.html" target="_top" xlink:title="Unaligned but safe memory access functions.">
<polygon fill="white" stroke="#666666" points="867.88,-77.5 794.88,-77.5 794.88,-56.75 867.88,-56.75 867.88,-77.5"/>
<text text-anchor="middle" x="831.38" y="-64" font-family="Helvetica,sans-Serif" font-size="10.00">unaligned.h</text>
</a>
</g>
</g>
<!-- Node19&#45;&gt;Node22 -->
<g id="edge30_Node000019_Node000022" class="edge">
<title>Node19&#45;&gt;Node22</title>
<g id="a_edge30_Node000019_Node000022"><a xlink:title=" ">
<path fill="none" stroke="#63b8ff" d="M831.38,-113.09C831.38,-106.47 831.38,-97.47 831.38,-89.27"/>
<polygon fill="#63b8ff" stroke="#63b8ff" points="834.88,-89.34 831.38,-79.34 827.88,-89.34 834.88,-89.34"/>
</a>
</g>
</g>
<!-- Node21&#45;&gt;Node3 -->
<g id="edge29_Node000021_Node000003" class="edge">
<title>Node21&#45;&gt;Node3</title>
<g id="a_edge29_Node000021_Node000003"><a xlink:title=" ">
<path fill="none" stroke="#63b8ff" d="M718.18,-57.93C684,-48.33 627.31,-32.41 589.89,-21.91"/>
<polygon fill="#63b8ff" stroke="#63b8ff" points="590.98,-18.58 580.4,-19.24 589.08,-25.32 590.98,-18.58"/>
</a>
</g>
</g>
<!-- Node22&#45;&gt;Node3 -->
<g id="edge31_Node000022_Node000003" class="edge">
<title>Node22&#45;&gt;Node3</title>
<g id="a_edge31_Node000022_Node000003"><a xlink:title=" ">
<path fill="none" stroke="#63b8ff" d="M794.72,-58.63C791.56,-57.99 788.41,-57.36 785.38,-56.75 716.59,-43.04 636.29,-27.51 590.18,-18.63"/>
<polygon fill="#63b8ff" stroke="#63b8ff" points="590.91,-15.21 580.43,-16.76 589.59,-22.08 590.91,-15.21"/>
</a>
</g>
</g>
<!-- Node23&#45;&gt;Node3 -->
<g id="edge35_Node000023_Node000003" class="edge">
<title>Node23&#45;&gt;Node3</title>
<g id="a_edge35_Node000023_Node000003"><a xlink:title=" ">
<path fill="none" stroke="#63b8ff" d="M872.02,-226.71C819.99,-191.66 640.92,-71.02 576.06,-27.33"/>
<polygon fill="#63b8ff" stroke="#63b8ff" points="578.18,-24.54 567.93,-21.85 574.27,-30.34 578.18,-24.54"/>
</a>
</g>
</g>
<!-- Node23&#45;&gt;Node9 -->
<g id="edge39_Node000023_Node000009" class="edge">
<title>Node23&#45;&gt;Node9</title>
<g id="a_edge39_Node000023_Node000009"><a xlink:title=" ">
<path fill="none" stroke="#63b8ff" d="M835.54,-228.24C832.78,-227.81 830.04,-227.4 827.38,-227 770.34,-218.47 613.65,-229.12 570.38,-191 557.68,-179.82 553.53,-160.66 552.36,-145.83"/>
<polygon fill="#63b8ff" stroke="#63b8ff" points="555.87,-146.04 552,-136.18 548.87,-146.3 555.87,-146.04"/>
</a>
</g>
</g>
<!-- Node23&#45;&gt;Node18 -->
<g id="edge38_Node000023_Node000018" class="edge">
<title>Node23&#45;&gt;Node18</title>
<g id="a_edge38_Node000023_Node000018"><a xlink:title=" ">
<path fill="none" stroke="#63b8ff" d="M836.07,-226.57C792.29,-217.98 726.81,-205.04 660.91,-191.5"/>
<polygon fill="#63b8ff" stroke="#63b8ff" points="661.89,-188.13 651.39,-189.54 660.48,-194.99 661.89,-188.13"/>
</a>
</g>
</g>
<!-- Node23&#45;&gt;Node19 -->
<g id="edge37_Node000023_Node000019" class="edge">
<title>Node23&#45;&gt;Node19</title>
<g id="a_edge37_Node000023_Node000019"><a xlink:title=" ">
<path fill="none" stroke="#63b8ff" d="M878.73,-226.73C871.93,-217.84 862.08,-204.07 855.38,-191 847.87,-176.36 841.61,-158.81 837.37,-145.47"/>
<polygon fill="#63b8ff" stroke="#63b8ff" points="840.77,-144.6 834.51,-136.06 834.07,-146.64 840.77,-144.6"/>
</a>
</g>
</g>
<!-- Node24 -->
<g id="Node000024" class="node">
<title>Node24</title>
<g id="a_Node000024"><a xlink:title=" ">
<polygon fill="#e0e0e0" stroke="#999999" points="719.38,-191 667.38,-191 667.38,-170.25 719.38,-170.25 719.38,-191"/>
<text text-anchor="middle" x="693.38" y="-177.5" font-family="Helvetica,sans-Serif" font-size="10.00">stdlib.h</text>
</a>
</g>
</g>
<!-- Node23&#45;&gt;Node24 -->
<g id="edge36_Node000023_Node000024" class="edge">
<title>Node23&#45;&gt;Node24</title>
<g id="a_edge36_Node000023_Node000024"><a xlink:title=" ">
<path fill="none" stroke="#63b8ff" d="M851.87,-226.59C817.73,-216.9 765.62,-202.12 730.57,-192.18"/>
<polygon fill="#63b8ff" stroke="#63b8ff" points="731.86,-188.91 721.29,-189.54 729.95,-195.64 731.86,-188.91"/>
</a>
</g>
</g>
<!-- Node25&#45;&gt;Node9 -->
<g id="edge42_Node000025_Node000009" class="edge">
<title>Node25&#45;&gt;Node9</title>
<g id="a_edge42_Node000025_Node000009"><a xlink:title=" ">
<path fill="none" stroke="#63b8ff" d="M560.65,-283.54C550.84,-275.29 538.02,-262.41 532.38,-247.75 519.04,-213.1 532.61,-169.62 542.98,-144.77"/>
<polygon fill="#63b8ff" stroke="#63b8ff" points="546.08,-146.41 546.93,-135.85 539.68,-143.57 546.08,-146.41"/>
</a>
</g>
</g>
<!-- Node26 -->
<g id="Node000026" class="node">
<title>Node26</title>
<g id="a_Node000026"><a xlink:href="inttypes_8h.html" target="_top" xlink:title="Adds include for missing inttype definitions.">
<polygon fill="white" stroke="#666666" points="605.75,-247.75 541,-247.75 541,-227 605.75,-227 605.75,-247.75"/>
<text text-anchor="middle" x="573.38" y="-234.25" font-family="Helvetica,sans-Serif" font-size="10.00">inttypes.h</text>
</a>
</g>
</g>
<!-- Node25&#45;&gt;Node26 -->
<g id="edge41_Node000025_Node000026" class="edge">
<title>Node25&#45;&gt;Node26</title>
<g id="a_edge41_Node000025_Node000026"><a xlink:title=" ">
<path fill="none" stroke="#63b8ff" d="M573.38,-283.34C573.38,-276.72 573.38,-267.72 573.38,-259.52"/>
<polygon fill="#63b8ff" stroke="#63b8ff" points="576.88,-259.59 573.38,-249.59 569.88,-259.59 576.88,-259.59"/>
</a>
</g>
</g>
<!-- Node27 -->
<g id="Node000027" class="node">
<title>Node27</title>
<g id="a_Node000027"><a xlink:href="ethertype_8h.html" target="_top" xlink:title="Ether type definitions.">
<polygon fill="white" stroke="#666666" points="714.88,-247.75 623.88,-247.75 623.88,-227 714.88,-227 714.88,-247.75"/>
<text text-anchor="middle" x="669.38" y="-234.25" font-family="Helvetica,sans-Serif" font-size="10.00">net/ethertype.h</text>
</a>
</g>
</g>
<!-- Node25&#45;&gt;Node27 -->
<g id="edge43_Node000025_Node000027" class="edge">
<title>Node25&#45;&gt;Node27</title>
<g id="a_edge43_Node000025_Node000027"><a xlink:title=" ">
<path fill="none" stroke="#63b8ff" d="M590.54,-283.34C605.01,-275.08 625.96,-263.13 642.63,-253.63"/>
<polygon fill="#63b8ff" stroke="#63b8ff" points="644.09,-256.82 651.05,-248.83 640.63,-250.74 644.09,-256.82"/>
</a>
</g>
</g>
<!-- Node28 -->
<g id="Node000028" class="node">
<title>Node28</title>
<g id="a_Node000028"><a xlink:href="protnum_8h.html" target="_top" xlink:title="Protocol number definitions.">
<polygon fill="white" stroke="#666666" points="817.88,-247.75 732.88,-247.75 732.88,-227 817.88,-227 817.88,-247.75"/>
<text text-anchor="middle" x="775.38" y="-234.25" font-family="Helvetica,sans-Serif" font-size="10.00">net/protnum.h</text>
</a>
</g>
</g>
<!-- Node25&#45;&gt;Node28 -->
<g id="edge44_Node000025_Node000028" class="edge">
<title>Node25&#45;&gt;Node28</title>
<g id="a_edge44_Node000025_Node000028"><a xlink:title=" ">
<path fill="none" stroke="#63b8ff" d="M609.49,-283.34C642.71,-274.33 692.16,-260.93 728.43,-251.1"/>
<polygon fill="#63b8ff" stroke="#63b8ff" points="729.04,-254.56 737.77,-248.57 727.21,-247.8 729.04,-254.56"/>
</a>
</g>
</g>
<!-- Node29&#45;&gt;Node3 -->
<g id="edge48_Node000029_Node000003" class="edge">
<title>Node29&#45;&gt;Node3</title>
<g id="a_edge48_Node000029_Node000003"><a xlink:title=" ">
<path fill="none" stroke="#63b8ff" d="M990.79,-226.65C995.43,-217.7 1001.78,-203.89 1004.38,-191 1014.78,-139.19 975.07,-63 967.38,-56.75 938.42,-33.22 687.55,-18.19 590.49,-13.2"/>
<polygon fill="#63b8ff" stroke="#63b8ff" points="590.85,-9.72 580.69,-12.71 590.5,-16.71 590.85,-9.72"/>
</a>
</g>
</g>
<!-- Node29&#45;&gt;Node19 -->
<g id="edge49_Node000029_Node000019" class="edge">
<title>Node29&#45;&gt;Node19</title>
<g id="a_edge49_Node000029_Node000019"><a xlink:title=" ">
<path fill="none" stroke="#63b8ff" d="M957.23,-226.61C937.14,-218.83 910.13,-206.65 889.38,-191 871.54,-177.55 855.16,-157.89 844.38,-143.5"/>
<polygon fill="#63b8ff" stroke="#63b8ff" points="847.47,-141.79 838.76,-135.75 841.8,-145.9 847.47,-141.79"/>
</a>
</g>
</g>
<!-- Node30 -->
<g id="Node000030" class="node">
<title>Node30</title>
<g id="a_Node000030"><a xlink:href="ntp__packet_8h.html" target="_top" xlink:title="NTP packet definitions.">
<polygon fill="white" stroke="#666666" points="994.88,-191 897.88,-191 897.88,-170.25 994.88,-170.25 994.88,-191"/>
<text text-anchor="middle" x="946.38" y="-177.5" font-family="Helvetica,sans-Serif" font-size="10.00">net/ntp_packet.h</text>
</a>
</g>
</g>
<!-- Node29&#45;&gt;Node30 -->
<g id="edge50_Node000029_Node000030" class="edge">
<title>Node29&#45;&gt;Node30</title>
<g id="a_edge50_Node000029_Node000030"><a xlink:title=" ">
<path fill="none" stroke="#63b8ff" d="M978.4,-226.59C973.24,-219.35 966.06,-209.26 959.8,-200.47"/>
<polygon fill="#63b8ff" stroke="#63b8ff" points="962.82,-198.68 954.17,-192.56 957.12,-202.74 962.82,-198.68"/>
</a>
</g>
</g>
<!-- Node30&#45;&gt;Node3 -->
<g id="edge51_Node000030_Node000003" class="edge">
<title>Node30&#45;&gt;Node3</title>
<g id="a_edge51_Node000030_Node000003"><a xlink:title=" ">
<path fill="none" stroke="#63b8ff" d="M950.32,-169.82C958.85,-146.82 976.05,-88.91 947.38,-56.75 923.83,-30.35 684.74,-17.14 590.38,-12.92"/>
<polygon fill="#63b8ff" stroke="#63b8ff" points="590.75,-9.43 580.61,-12.49 590.44,-16.42 590.75,-9.43"/>
</a>
</g>
</g>
<!-- Node30&#45;&gt;Node19 -->
<g id="edge52_Node000030_Node000019" class="edge">
<title>Node30&#45;&gt;Node19</title>
<g id="a_edge52_Node000030_Node000019"><a xlink:title=" ">
<path fill="none" stroke="#63b8ff" d="M925.82,-169.84C908.07,-161.39 882.19,-149.07 862.01,-139.46"/>
<polygon fill="#63b8ff" stroke="#63b8ff" points="863.66,-136.37 853.12,-135.23 860.65,-142.69 863.66,-136.37"/>
</a>
</g>
</g>
</g>
</svg>
