<?xml version="1.0" encoding="UTF-8" standalone="no"?>
<!DOCTYPE svg PUBLIC "-//W3C//DTD SVG 1.1//EN"
 "http://www.w3.org/Graphics/SVG/1.1/DTD/svg11.dtd">
<!-- Generated by graphviz version 12.1.2 (0)
 -->
<!-- Title: sys/include/net/sock/dtls.h Pages: 1 -->
<svg width="892pt" height="382pt"
 viewBox="0.00 0.00 891.50 382.00" xmlns="http://www.w3.org/2000/svg" xmlns:xlink="http://www.w3.org/1999/xlink">
<g id="graph0" class="graph" transform="scale(1 1) rotate(0) translate(4 378)">
<title>sys/include/net/sock/dtls.h</title>
<!-- Node1 -->
<g id="Node000001" class="node">
<title>Node1</title>
<g id="a_Node000001"><a xlink:title="DTLS sock definitions.">
<polygon fill="#999999" stroke="#666666" points="647,-374 532,-374 532,-340.5 647,-340.5 647,-374"/>
<text text-anchor="start" x="540" y="-360.5" font-family="Helvetica,sans-Serif" font-size="10.00">sys/include/net/sock</text>
<text text-anchor="middle" x="589.5" y="-347.75" font-family="Helvetica,sans-Serif" font-size="10.00">/dtls.h</text>
</a>
</g>
</g>
<!-- Node2 -->
<g id="Node000002" class="node">
<title>Node2</title>
<g id="a_Node000002"><a xlink:href="assert_8h.html" target="_top" xlink:title="POSIX.1&#45;2008 compliant version of the assert macro.">
<polygon fill="white" stroke="#666666" points="55,-247.75 0,-247.75 0,-227 55,-227 55,-247.75"/>
<text text-anchor="middle" x="27.5" y="-234.25" font-family="Helvetica,sans-Serif" font-size="10.00">assert.h</text>
</a>
</g>
</g>
<!-- Node1&#45;&gt;Node2 -->
<g id="edge1_Node000001_Node000002" class="edge">
<title>Node1&#45;&gt;Node2</title>
<g id="a_edge1_Node000001_Node000002"><a xlink:title=" ">
<path fill="none" stroke="#63b8ff" d="M531.77,-349.88C463.95,-341.83 348.26,-326.35 250.5,-304.5 184.88,-289.83 110.28,-266.27 66.15,-251.59"/>
<polygon fill="#63b8ff" stroke="#63b8ff" points="67.37,-248.31 56.77,-248.45 65.14,-254.95 67.37,-248.31"/>
</a>
</g>
</g>
<!-- Node3 -->
<g id="Node000003" class="node">
<title>Node3</title>
<g id="a_Node000003"><a xlink:title=" ">
<polygon fill="#e0e0e0" stroke="#999999" points="236.88,-20.75 184.12,-20.75 184.12,0 236.88,0 236.88,-20.75"/>
<text text-anchor="middle" x="210.5" y="-7.25" font-family="Helvetica,sans-Serif" font-size="10.00">stdint.h</text>
</a>
</g>
</g>
<!-- Node1&#45;&gt;Node3 -->
<g id="edge4_Node000001_Node000003" class="edge">
<title>Node1&#45;&gt;Node3</title>
<g id="a_edge4_Node000001_Node000003"><a xlink:title=" ">
<path fill="none" stroke="#63b8ff" d="M647.4,-355.64C700.28,-352.54 778.64,-341.35 835.5,-304.5 865.97,-284.75 883.5,-274.69 883.5,-238.38 883.5,-238.38 883.5,-238.38 883.5,-122.88 883.5,-44.28 795.91,-75.13 719.5,-56.75 547.29,-15.32 334.11,-10.91 248.6,-10.98"/>
<polygon fill="#63b8ff" stroke="#63b8ff" points="248.67,-7.48 238.68,-11.01 248.69,-14.48 248.67,-7.48"/>
</a>
</g>
</g>
<!-- Node4 -->
<g id="Node000004" class="node">
<title>Node4</title>
<g id="a_Node000004"><a xlink:href="errno_8h.html" target="_top" xlink:title=" ">
<polygon fill="white" stroke="#666666" points="572.75,-247.75 522.25,-247.75 522.25,-227 572.75,-227 572.75,-247.75"/>
<text text-anchor="middle" x="547.5" y="-234.25" font-family="Helvetica,sans-Serif" font-size="10.00">errno.h</text>
</a>
</g>
</g>
<!-- Node1&#45;&gt;Node4 -->
<g id="edge3_Node000001_Node000004" class="edge">
<title>Node1&#45;&gt;Node4</title>
<g id="a_edge3_Node000001_Node000004"><a xlink:title=" ">
<path fill="none" stroke="#63b8ff" d="M583.84,-340.35C576.32,-319.27 563.05,-282.03 554.8,-258.86"/>
<polygon fill="#63b8ff" stroke="#63b8ff" points="558.16,-257.85 551.5,-249.61 551.56,-260.2 558.16,-257.85"/>
</a>
</g>
</g>
<!-- Node5 -->
<g id="Node000005" class="node">
<title>Node5</title>
<g id="a_Node000005"><a xlink:title=" ">
<polygon fill="#e0e0e0" stroke="#999999" points="642.5,-247.75 590.5,-247.75 590.5,-227 642.5,-227 642.5,-247.75"/>
<text text-anchor="middle" x="616.5" y="-234.25" font-family="Helvetica,sans-Serif" font-size="10.00">stdlib.h</text>
</a>
</g>
</g>
<!-- Node1&#45;&gt;Node5 -->
<g id="edge5_Node000001_Node000005" class="edge">
<title>Node1&#45;&gt;Node5</title>
<g id="a_edge5_Node000001_Node000005"><a xlink:title=" ">
<path fill="none" stroke="#63b8ff" d="M593.14,-340.35C597.95,-319.37 606.42,-282.37 611.74,-259.18"/>
<polygon fill="#63b8ff" stroke="#63b8ff" points="615.09,-260.19 613.92,-249.66 608.27,-258.62 615.09,-260.19"/>
</a>
</g>
</g>
<!-- Node6 -->
<g id="Node000006" class="node">
<title>Node6</title>
<g id="a_Node000006"><a xlink:title=" ">
<polygon fill="#e0e0e0" stroke="#999999" points="732.25,-247.75 660.75,-247.75 660.75,-227 732.25,-227 732.25,-247.75"/>
<text text-anchor="middle" x="696.5" y="-234.25" font-family="Helvetica,sans-Serif" font-size="10.00">sys/types.h</text>
</a>
</g>
</g>
<!-- Node1&#45;&gt;Node6 -->
<g id="edge6_Node000001_Node000006" class="edge">
<title>Node1&#45;&gt;Node6</title>
<g id="a_edge6_Node000001_Node000006"><a xlink:title=" ">
<path fill="none" stroke="#63b8ff" d="M603.93,-340.35C623.68,-318.59 659.06,-279.62 679.89,-256.67"/>
<polygon fill="#63b8ff" stroke="#63b8ff" points="682.45,-259.06 686.58,-249.3 677.27,-254.36 682.45,-259.06"/>
</a>
</g>
</g>
<!-- Node7 -->
<g id="Node000007" class="node">
<title>Node7</title>
<g id="a_Node000007"><a xlink:href="sock_8h.html" target="_top" xlink:title="Common sock API definitions.">
<polygon fill="white" stroke="#666666" points="139.62,-247.75 73.38,-247.75 73.38,-227 139.62,-227 139.62,-247.75"/>
<text text-anchor="middle" x="106.5" y="-234.25" font-family="Helvetica,sans-Serif" font-size="10.00">net/sock.h</text>
</a>
</g>
</g>
<!-- Node1&#45;&gt;Node7 -->
<g id="edge7_Node000001_Node000007" class="edge">
<title>Node1&#45;&gt;Node7</title>
<g id="a_edge7_Node000001_Node000007"><a xlink:title=" ">
<path fill="none" stroke="#63b8ff" d="M531.65,-346.47C478.33,-337.06 397.14,-321.76 327.5,-304.5 263.67,-288.68 190.8,-265.95 146.75,-251.68"/>
<polygon fill="#63b8ff" stroke="#63b8ff" points="147.95,-248.4 137.36,-248.63 145.79,-255.05 147.95,-248.4"/>
</a>
</g>
</g>
<!-- Node10 -->
<g id="Node000010" class="node">
<title>Node10</title>
<g id="a_Node000010"><a xlink:href="sock_2udp_8h.html" target="_top" xlink:title="UDP sock definitions.">
<polygon fill="white" stroke="#666666" points="424.12,-304.5 336.88,-304.5 336.88,-283.75 424.12,-283.75 424.12,-304.5"/>
<text text-anchor="middle" x="380.5" y="-291" font-family="Helvetica,sans-Serif" font-size="10.00">net/sock/udp.h</text>
</a>
</g>
</g>
<!-- Node1&#45;&gt;Node10 -->
<g id="edge11_Node000001_Node000010" class="edge">
<title>Node1&#45;&gt;Node10</title>
<g id="a_edge11_Node000001_Node000010"><a xlink:title=" ">
<path fill="none" stroke="#63b8ff" d="M534.04,-340.03C499.86,-330.03 456.62,-317.39 424.74,-308.06"/>
<polygon fill="#63b8ff" stroke="#63b8ff" points="426.01,-304.79 415.43,-305.34 424.04,-311.51 426.01,-304.79"/>
</a>
</g>
</g>
<!-- Node20 -->
<g id="Node000020" class="node">
<title>Node20</title>
<g id="a_Node000020"><a xlink:href="credman_8h.html" target="_top" xlink:title="(D)TLS credentials management module definitions">
<polygon fill="white" stroke="#666666" points="826.75,-304.5 740.25,-304.5 740.25,-283.75 826.75,-283.75 826.75,-304.5"/>
<text text-anchor="middle" x="783.5" y="-291" font-family="Helvetica,sans-Serif" font-size="10.00">net/credman.h</text>
</a>
</g>
</g>
<!-- Node1&#45;&gt;Node20 -->
<g id="edge36_Node000001_Node000020" class="edge">
<title>Node1&#45;&gt;Node20</title>
<g id="a_edge36_Node000001_Node000020"><a xlink:title=" ">
<path fill="none" stroke="#63b8ff" d="M640.98,-340.03C672.43,-330.12 712.14,-317.61 741.66,-308.31"/>
<polygon fill="#63b8ff" stroke="#63b8ff" points="742.5,-311.71 750.98,-305.37 740.39,-305.04 742.5,-311.71"/>
</a>
</g>
</g>
<!-- Node2&#45;&gt;Node3 -->
<g id="edge2_Node000002_Node000003" class="edge">
<title>Node2&#45;&gt;Node3</title>
<g id="a_edge2_Node000002_Node000003"><a xlink:title=" ">
<path fill="none" stroke="#63b8ff" d="M24.33,-226.89C14.74,-196.21 -10.24,-99.22 41.5,-56.75 78.9,-26.05 135.17,-15.99 172.36,-12.76"/>
<polygon fill="#63b8ff" stroke="#63b8ff" points="172.49,-16.26 182.21,-12.05 171.98,-9.28 172.49,-16.26"/>
</a>
</g>
</g>
<!-- Node7&#45;&gt;Node3 -->
<g id="edge8_Node000007_Node000003" class="edge">
<title>Node7&#45;&gt;Node3</title>
<g id="a_edge8_Node000007_Node000003"><a xlink:title=" ">
<path fill="none" stroke="#63b8ff" d="M91.05,-226.74C61.67,-207.09 2.3,-160.3 21.5,-113.5 46.22,-53.25 125.14,-27.68 172.83,-17.51"/>
<polygon fill="#63b8ff" stroke="#63b8ff" points="173.33,-20.98 182.45,-15.59 171.96,-14.11 173.33,-20.98"/>
</a>
</g>
</g>
<!-- Node8 -->
<g id="Node000008" class="node">
<title>Node8</title>
<g id="a_Node000008"><a xlink:title=" ">
<polygon fill="#e0e0e0" stroke="#999999" points="86,-134.25 31,-134.25 31,-113.5 86,-113.5 86,-134.25"/>
<text text-anchor="middle" x="58.5" y="-120.75" font-family="Helvetica,sans-Serif" font-size="10.00">stddef.h</text>
</a>
</g>
</g>
<!-- Node7&#45;&gt;Node8 -->
<g id="edge9_Node000007_Node000008" class="edge">
<title>Node7&#45;&gt;Node8</title>
<g id="a_edge9_Node000007_Node000008"><a xlink:title=" ">
<path fill="none" stroke="#63b8ff" d="M91.11,-226.52C80.06,-218.47 66,-205.98 59.5,-191 53.28,-176.64 53.4,-158.83 54.87,-145.31"/>
<polygon fill="#63b8ff" stroke="#63b8ff" points="58.27,-146.22 56.24,-135.83 51.35,-145.22 58.27,-146.22"/>
</a>
</g>
</g>
<!-- Node9 -->
<g id="Node000009" class="node">
<title>Node9</title>
<g id="a_Node000009"><a xlink:href="iolist_8h.html" target="_top" xlink:title="iolist scatter / gather IO">
<polygon fill="white" stroke="#666666" points="118,-191 69,-191 69,-170.25 118,-170.25 118,-191"/>
<text text-anchor="middle" x="93.5" y="-177.5" font-family="Helvetica,sans-Serif" font-size="10.00">iolist.h</text>
</a>
</g>
</g>
<!-- Node7&#45;&gt;Node9 -->
<g id="edge10_Node000007_Node000009" class="edge">
<title>Node7&#45;&gt;Node9</title>
<g id="a_edge10_Node000007_Node000009"><a xlink:title=" ">
<path fill="none" stroke="#63b8ff" d="M104.18,-226.59C102.59,-219.89 100.42,-210.76 98.45,-202.48"/>
<polygon fill="#63b8ff" stroke="#63b8ff" points="101.87,-201.72 96.15,-192.8 95.06,-203.34 101.87,-201.72"/>
</a>
</g>
</g>
<!-- Node10&#45;&gt;Node2 -->
<g id="edge12_Node000010_Node000002" class="edge">
<title>Node10&#45;&gt;Node2</title>
<g id="a_edge12_Node000010_Node000002"><a xlink:title=" ">
<path fill="none" stroke="#63b8ff" d="M336.55,-288.3C277.43,-281.48 168.85,-267.83 66.47,-247.95"/>
<polygon fill="#63b8ff" stroke="#63b8ff" points="67.28,-244.55 56.79,-246.05 65.93,-251.41 67.28,-244.55"/>
</a>
</g>
</g>
<!-- Node10&#45;&gt;Node3 -->
<g id="edge14_Node000010_Node000003" class="edge">
<title>Node10&#45;&gt;Node3</title>
<g id="a_edge14_Node000010_Node000003"><a xlink:title=" ">
<path fill="none" stroke="#63b8ff" d="M369.94,-283.49C361.5,-275.03 350.31,-261.88 345.5,-247.75 317.98,-167 415.59,-125.07 364.5,-56.75 350.57,-38.12 289.33,-24.5 248.41,-17.27"/>
<polygon fill="#63b8ff" stroke="#63b8ff" points="249.14,-13.84 238.69,-15.61 247.96,-20.74 249.14,-13.84"/>
</a>
</g>
</g>
<!-- Node10&#45;&gt;Node4 -->
<g id="edge13_Node000010_Node000004" class="edge">
<title>Node10&#45;&gt;Node4</title>
<g id="a_edge13_Node000010_Node000004"><a xlink:title=" ">
<path fill="none" stroke="#63b8ff" d="M410.36,-283.34C438.56,-274.09 480.92,-260.2 511.09,-250.31"/>
<polygon fill="#63b8ff" stroke="#63b8ff" points="512.15,-253.65 520.56,-247.21 509.97,-247 512.15,-253.65"/>
</a>
</g>
</g>
<!-- Node10&#45;&gt;Node5 -->
<g id="edge15_Node000010_Node000005" class="edge">
<title>Node10&#45;&gt;Node5</title>
<g id="a_edge15_Node000010_Node000005"><a xlink:title=" ">
<path fill="none" stroke="#63b8ff" d="M424.53,-283.71C462.94,-275.38 520.43,-262.64 579.18,-248.25"/>
<polygon fill="#63b8ff" stroke="#63b8ff" points="579.81,-251.7 588.69,-245.91 578.14,-244.91 579.81,-251.7"/>
</a>
</g>
</g>
<!-- Node10&#45;&gt;Node6 -->
<g id="edge16_Node000010_Node000006" class="edge">
<title>Node10&#45;&gt;Node6</title>
<g id="a_edge16_Node000010_Node000006"><a xlink:title=" ">
<path fill="none" stroke="#63b8ff" d="M424.24,-286.35C475.64,-278.26 563.77,-264.02 649.42,-248.08"/>
<polygon fill="#63b8ff" stroke="#63b8ff" points="649.99,-251.53 659.18,-246.25 648.7,-244.65 649.99,-251.53"/>
</a>
</g>
</g>
<!-- Node10&#45;&gt;Node7 -->
<g id="edge18_Node000010_Node000007" class="edge">
<title>Node10&#45;&gt;Node7</title>
<g id="a_edge18_Node000010_Node000007"><a xlink:title=" ">
<path fill="none" stroke="#63b8ff" d="M336.48,-284.33C285.57,-274.16 202.22,-257.5 151.07,-247.28"/>
<polygon fill="#63b8ff" stroke="#63b8ff" points="152.03,-243.9 141.53,-245.38 150.66,-250.77 152.03,-243.9"/>
</a>
</g>
</g>
<!-- Node11 -->
<g id="Node000011" class="node">
<title>Node11</title>
<g id="a_Node000011"><a xlink:href="af_8h.html" target="_top" xlink:title="Global UNIX address family definitions.">
<polygon fill="white" stroke="#666666" points="406.88,-247.75 354.12,-247.75 354.12,-227 406.88,-227 406.88,-247.75"/>
<text text-anchor="middle" x="380.5" y="-234.25" font-family="Helvetica,sans-Serif" font-size="10.00">net/af.h</text>
</a>
</g>
</g>
<!-- Node10&#45;&gt;Node11 -->
<g id="edge17_Node000010_Node000011" class="edge">
<title>Node10&#45;&gt;Node11</title>
<g id="a_edge17_Node000010_Node000011"><a xlink:title=" ">
<path fill="none" stroke="#63b8ff" d="M380.5,-283.34C380.5,-276.72 380.5,-267.72 380.5,-259.52"/>
<polygon fill="#63b8ff" stroke="#63b8ff" points="384,-259.59 380.5,-249.59 377,-259.59 384,-259.59"/>
</a>
</g>
</g>
<!-- Node12 -->
<g id="Node000012" class="node">
<title>Node12</title>
<g id="a_Node000012"><a xlink:href="ipv4_2addr_8h.html" target="_top" xlink:title="IPv4 address type and helper functions definitions.">
<polygon fill="white" stroke="#666666" points="225.25,-191 135.75,-191 135.75,-170.25 225.25,-170.25 225.25,-191"/>
<text text-anchor="middle" x="180.5" y="-177.5" font-family="Helvetica,sans-Serif" font-size="10.00">net/ipv4/addr.h</text>
</a>
</g>
</g>
<!-- Node10&#45;&gt;Node12 -->
<g id="edge19_Node000010_Node000012" class="edge">
<title>Node10&#45;&gt;Node12</title>
<g id="a_edge19_Node000010_Node000012"><a xlink:title=" ">
<path fill="none" stroke="#63b8ff" d="M336.71,-287.24C289.62,-280.05 218.89,-266.49 199.5,-247.75 187.41,-236.07 182.87,-217.24 181.23,-202.66"/>
<polygon fill="#63b8ff" stroke="#63b8ff" points="184.73,-202.46 180.53,-192.73 177.75,-202.95 184.73,-202.46"/>
</a>
</g>
</g>
<!-- Node18 -->
<g id="Node000018" class="node">
<title>Node18</title>
<g id="a_Node000018"><a xlink:href="ipv6_2addr_8h.html" target="_top" xlink:title="Definitions for IPv6 addresses.">
<polygon fill="white" stroke="#666666" points="298.25,-247.75 208.75,-247.75 208.75,-227 298.25,-227 298.25,-247.75"/>
<text text-anchor="middle" x="253.5" y="-234.25" font-family="Helvetica,sans-Serif" font-size="10.00">net/ipv6/addr.h</text>
</a>
</g>
</g>
<!-- Node10&#45;&gt;Node18 -->
<g id="edge30_Node000010_Node000018" class="edge">
<title>Node10&#45;&gt;Node18</title>
<g id="a_edge30_Node000010_Node000018"><a xlink:title=" ">
<path fill="none" stroke="#63b8ff" d="M357.79,-283.34C337.93,-274.77 308.83,-262.23 286.41,-252.56"/>
<polygon fill="#63b8ff" stroke="#63b8ff" points="287.97,-249.42 277.4,-248.68 285.2,-255.85 287.97,-249.42"/>
</a>
</g>
</g>
<!-- Node19 -->
<g id="Node000019" class="node">
<title>Node19</title>
<g id="a_Node000019"><a xlink:title=" ">
<polygon fill="#e0e0e0" stroke="#999999" points="504.38,-247.75 424.62,-247.75 424.62,-227 504.38,-227 504.38,-247.75"/>
<text text-anchor="middle" x="464.5" y="-234.25" font-family="Helvetica,sans-Serif" font-size="10.00">sock_types.h</text>
</a>
</g>
</g>
<!-- Node10&#45;&gt;Node19 -->
<g id="edge35_Node000010_Node000019" class="edge">
<title>Node10&#45;&gt;Node19</title>
<g id="a_edge35_Node000010_Node000019"><a xlink:title=" ">
<path fill="none" stroke="#63b8ff" d="M395.52,-283.34C407.94,-275.24 425.82,-263.58 440.27,-254.17"/>
<polygon fill="#63b8ff" stroke="#63b8ff" points="441.88,-257.3 448.34,-248.9 438.06,-251.43 441.88,-257.3"/>
</a>
</g>
</g>
<!-- Node12&#45;&gt;Node3 -->
<g id="edge21_Node000012_Node000003" class="edge">
<title>Node12&#45;&gt;Node3</title>
<g id="a_edge21_Node000012_Node000003"><a xlink:title=" ">
<path fill="none" stroke="#63b8ff" d="M163.06,-169.77C128.81,-149.13 58.61,-99.75 88.5,-56.75 107.32,-29.68 144.31,-18.72 172.65,-14.31"/>
<polygon fill="#63b8ff" stroke="#63b8ff" points="172.85,-17.82 182.3,-13.03 171.93,-10.88 172.85,-17.82"/>
</a>
</g>
</g>
<!-- Node12&#45;&gt;Node8 -->
<g id="edge22_Node000012_Node000008" class="edge">
<title>Node12&#45;&gt;Node8</title>
<g id="a_edge22_Node000012_Node000008"><a xlink:title=" ">
<path fill="none" stroke="#63b8ff" d="M158.69,-169.84C139.69,-161.31 111.9,-148.84 90.41,-139.19"/>
<polygon fill="#63b8ff" stroke="#63b8ff" points="92.06,-136.1 81.5,-135.2 89.19,-142.49 92.06,-136.1"/>
</a>
</g>
</g>
<!-- Node13 -->
<g id="Node000013" class="node">
<title>Node13</title>
<g id="a_Node000013"><a xlink:title=" ">
<polygon fill="#e0e0e0" stroke="#999999" points="211,-134.25 150,-134.25 150,-113.5 211,-113.5 211,-134.25"/>
<text text-anchor="middle" x="180.5" y="-120.75" font-family="Helvetica,sans-Serif" font-size="10.00">stdbool.h</text>
</a>
</g>
</g>
<!-- Node12&#45;&gt;Node13 -->
<g id="edge20_Node000012_Node000013" class="edge">
<title>Node12&#45;&gt;Node13</title>
<g id="a_edge20_Node000012_Node000013"><a xlink:title=" ">
<path fill="none" stroke="#63b8ff" d="M180.5,-169.84C180.5,-163.22 180.5,-154.22 180.5,-146.02"/>
<polygon fill="#63b8ff" stroke="#63b8ff" points="184,-146.09 180.5,-136.09 177,-146.09 184,-146.09"/>
</a>
</g>
</g>
<!-- Node14 -->
<g id="Node000014" class="node">
<title>Node14</title>
<g id="a_Node000014"><a xlink:href="byteorder_8h.html" target="_top" xlink:title="Functions to work with different byte orders.">
<polygon fill="white" stroke="#666666" points="301.62,-134.25 229.38,-134.25 229.38,-113.5 301.62,-113.5 301.62,-134.25"/>
<text text-anchor="middle" x="265.5" y="-120.75" font-family="Helvetica,sans-Serif" font-size="10.00">byteorder.h</text>
</a>
</g>
</g>
<!-- Node12&#45;&gt;Node14 -->
<g id="edge23_Node000012_Node000014" class="edge">
<title>Node12&#45;&gt;Node14</title>
<g id="a_edge23_Node000012_Node000014"><a xlink:title=" ">
<path fill="none" stroke="#63b8ff" d="M195.7,-169.84C208.27,-161.74 226.36,-150.08 240.98,-140.67"/>
<polygon fill="#63b8ff" stroke="#63b8ff" points="242.65,-143.76 249.16,-135.4 238.86,-137.87 242.65,-143.76"/>
</a>
</g>
</g>
<!-- Node14&#45;&gt;Node3 -->
<g id="edge25_Node000014_Node000003" class="edge">
<title>Node14&#45;&gt;Node3</title>
<g id="a_edge25_Node000014_Node000003"><a xlink:title=" ">
<path fill="none" stroke="#63b8ff" d="M265.87,-113.34C265.99,-99.97 264.78,-75.22 255.5,-56.75 250.03,-45.86 240.97,-35.96 232.4,-28.21"/>
<polygon fill="#63b8ff" stroke="#63b8ff" points="234.88,-25.72 224.99,-21.93 230.36,-31.06 234.88,-25.72"/>
</a>
</g>
</g>
<!-- Node15 -->
<g id="Node000015" class="node">
<title>Node15</title>
<g id="a_Node000015"><a xlink:title=" ">
<polygon fill="#e0e0e0" stroke="#999999" points="355.88,-77.5 303.12,-77.5 303.12,-56.75 355.88,-56.75 355.88,-77.5"/>
<text text-anchor="middle" x="329.5" y="-64" font-family="Helvetica,sans-Serif" font-size="10.00">string.h</text>
</a>
</g>
</g>
<!-- Node14&#45;&gt;Node15 -->
<g id="edge24_Node000014_Node000015" class="edge">
<title>Node14&#45;&gt;Node15</title>
<g id="a_edge24_Node000014_Node000015"><a xlink:title=" ">
<path fill="none" stroke="#63b8ff" d="M276.94,-113.09C285.95,-105.38 298.73,-94.45 309.43,-85.29"/>
<polygon fill="#63b8ff" stroke="#63b8ff" points="311.68,-87.97 317.01,-78.81 307.13,-82.65 311.68,-87.97"/>
</a>
</g>
</g>
<!-- Node16 -->
<g id="Node000016" class="node">
<title>Node16</title>
<g id="a_Node000016"><a xlink:href="endian_8h.html" target="_top" xlink:title="libc header for endian conversion">
<polygon fill="white" stroke="#666666" points="155.5,-77.5 97.5,-77.5 97.5,-56.75 155.5,-56.75 155.5,-77.5"/>
<text text-anchor="middle" x="126.5" y="-64" font-family="Helvetica,sans-Serif" font-size="10.00">endian.h</text>
</a>
</g>
</g>
<!-- Node14&#45;&gt;Node16 -->
<g id="edge26_Node000014_Node000016" class="edge">
<title>Node14&#45;&gt;Node16</title>
<g id="a_edge26_Node000014_Node000016"><a xlink:title=" ">
<path fill="none" stroke="#63b8ff" d="M240.65,-113.09C218.61,-104.41 186.18,-91.63 161.52,-81.92"/>
<polygon fill="#63b8ff" stroke="#63b8ff" points="163.13,-78.79 152.54,-78.38 160.57,-85.3 163.13,-78.79"/>
</a>
</g>
</g>
<!-- Node17 -->
<g id="Node000017" class="node">
<title>Node17</title>
<g id="a_Node000017"><a xlink:href="unaligned_8h.html" target="_top" xlink:title="Unaligned but safe memory access functions.">
<polygon fill="white" stroke="#666666" points="247,-77.5 174,-77.5 174,-56.75 247,-56.75 247,-77.5"/>
<text text-anchor="middle" x="210.5" y="-64" font-family="Helvetica,sans-Serif" font-size="10.00">unaligned.h</text>
</a>
</g>
</g>
<!-- Node14&#45;&gt;Node17 -->
<g id="edge28_Node000014_Node000017" class="edge">
<title>Node14&#45;&gt;Node17</title>
<g id="a_edge28_Node000014_Node000017"><a xlink:title=" ">
<path fill="none" stroke="#63b8ff" d="M255.67,-113.09C248.08,-105.53 237.38,-94.89 228.3,-85.85"/>
<polygon fill="#63b8ff" stroke="#63b8ff" points="230.88,-83.47 221.32,-78.9 225.94,-88.43 230.88,-83.47"/>
</a>
</g>
</g>
<!-- Node16&#45;&gt;Node3 -->
<g id="edge27_Node000016_Node000003" class="edge">
<title>Node16&#45;&gt;Node3</title>
<g id="a_edge27_Node000016_Node000003"><a xlink:title=" ">
<path fill="none" stroke="#63b8ff" d="M141.52,-56.34C153.94,-48.24 171.82,-36.58 186.27,-27.17"/>
<polygon fill="#63b8ff" stroke="#63b8ff" points="187.88,-30.3 194.34,-21.9 184.06,-24.43 187.88,-30.3"/>
</a>
</g>
</g>
<!-- Node17&#45;&gt;Node3 -->
<g id="edge29_Node000017_Node000003" class="edge">
<title>Node17&#45;&gt;Node3</title>
<g id="a_edge29_Node000017_Node000003"><a xlink:title=" ">
<path fill="none" stroke="#63b8ff" d="M210.5,-56.34C210.5,-49.72 210.5,-40.72 210.5,-32.52"/>
<polygon fill="#63b8ff" stroke="#63b8ff" points="214,-32.59 210.5,-22.59 207,-32.59 214,-32.59"/>
</a>
</g>
</g>
<!-- Node18&#45;&gt;Node12 -->
<g id="edge34_Node000018_Node000012" class="edge">
<title>Node18&#45;&gt;Node12</title>
<g id="a_edge34_Node000018_Node000012"><a xlink:title=" ">
<path fill="none" stroke="#63b8ff" d="M240.45,-226.59C229.86,-218.65 214.71,-207.28 202.28,-197.96"/>
<polygon fill="#63b8ff" stroke="#63b8ff" points="204.75,-195.44 194.65,-192.24 200.55,-201.04 204.75,-195.44"/>
</a>
</g>
</g>
<!-- Node18&#45;&gt;Node13 -->
<g id="edge31_Node000018_Node000013" class="edge">
<title>Node18&#45;&gt;Node13</title>
<g id="a_edge31_Node000018_Node000013"><a xlink:title=" ">
<path fill="none" stroke="#63b8ff" d="M252.51,-226.67C250.74,-213.09 246.08,-188.08 234.5,-170.25 227.12,-158.89 216.03,-148.87 205.82,-141.16"/>
<polygon fill="#63b8ff" stroke="#63b8ff" points="207.86,-138.32 197.68,-135.38 203.81,-144.02 207.86,-138.32"/>
</a>
</g>
</g>
<!-- Node18&#45;&gt;Node14 -->
<g id="edge33_Node000018_Node000014" class="edge">
<title>Node18&#45;&gt;Node14</title>
<g id="a_edge33_Node000018_Node000014"><a xlink:title=" ">
<path fill="none" stroke="#63b8ff" d="M257.36,-226.83C260.8,-217.78 265.58,-203.72 267.5,-191 269.78,-175.85 269.14,-158.54 268.01,-145.43"/>
<polygon fill="#63b8ff" stroke="#63b8ff" points="271.53,-145.44 267,-135.86 264.57,-146.17 271.53,-145.44"/>
</a>
</g>
</g>
<!-- Node18&#45;&gt;Node15 -->
<g id="edge32_Node000018_Node000015" class="edge">
<title>Node18&#45;&gt;Node15</title>
<g id="a_edge32_Node000018_Node000015"><a xlink:title=" ">
<path fill="none" stroke="#63b8ff" d="M260.04,-226.83C266.13,-217.77 275.34,-203.7 282.5,-191 296.32,-166.5 300.35,-160.48 310.5,-134.25 316.25,-119.39 321.16,-102.07 324.55,-88.88"/>
<polygon fill="#63b8ff" stroke="#63b8ff" points="327.95,-89.73 326.95,-79.19 321.15,-88.05 327.95,-89.73"/>
</a>
</g>
</g>
<!-- Node20&#45;&gt;Node3 -->
<g id="edge37_Node000020_Node000003" class="edge">
<title>Node20&#45;&gt;Node3</title>
<g id="a_edge37_Node000020_Node000003"><a xlink:title=" ">
<path fill="none" stroke="#63b8ff" d="M795.36,-283.5C805.05,-275.03 818.42,-261.88 826.5,-247.75 841.67,-221.2 845.5,-212.2 845.5,-181.62 845.5,-181.62 845.5,-181.62 845.5,-122.88 845.5,-61.83 384.42,-23.86 248.05,-13.96"/>
<polygon fill="#63b8ff" stroke="#63b8ff" points="248.71,-10.5 238.49,-13.28 248.21,-17.48 248.71,-10.5"/>
</a>
</g>
</g>
<!-- Node21 -->
<g id="Node000021" class="node">
<title>Node21</title>
<g id="a_Node000021"><a xlink:href="modules_8h.html" target="_top" xlink:title="Common macros and compiler attributes/pragmas configuration.">
<polygon fill="white" stroke="#666666" points="817,-247.75 750,-247.75 750,-227 817,-227 817,-247.75"/>
<text text-anchor="middle" x="783.5" y="-234.25" font-family="Helvetica,sans-Serif" font-size="10.00">modules.h</text>
</a>
</g>
</g>
<!-- Node20&#45;&gt;Node21 -->
<g id="edge38_Node000020_Node000021" class="edge">
<title>Node20&#45;&gt;Node21</title>
<g id="a_edge38_Node000020_Node000021"><a xlink:title=" ">
<path fill="none" stroke="#63b8ff" d="M783.5,-283.34C783.5,-276.72 783.5,-267.72 783.5,-259.52"/>
<polygon fill="#63b8ff" stroke="#63b8ff" points="787,-259.59 783.5,-249.59 780,-259.59 787,-259.59"/>
</a>
</g>
</g>
</g>
</svg>
