<?xml version="1.0" encoding="UTF-8" standalone="no"?>
<!DOCTYPE svg PUBLIC "-//W3C//DTD SVG 1.1//EN"
 "http://www.w3.org/Graphics/SVG/1.1/DTD/svg11.dtd">
<!-- Generated by graphviz version 12.1.2 (0)
 -->
<!-- Title: sys/include/net/sock/dns.h Pages: 1 -->
<svg width="712pt" height="382pt"
 viewBox="0.00 0.00 712.25 382.00" xmlns="http://www.w3.org/2000/svg" xmlns:xlink="http://www.w3.org/1999/xlink">
<g id="graph0" class="graph" transform="scale(1 1) rotate(0) translate(4 378)">
<title>sys/include/net/sock/dns.h</title>
<!-- Node1 -->
<g id="Node000001" class="node">
<title>Node1</title>
<g id="a_Node000001"><a xlink:title="DNS sock definitions.">
<polygon fill="#999999" stroke="#666666" points="542.75,-374 427.75,-374 427.75,-340.5 542.75,-340.5 542.75,-374"/>
<text text-anchor="start" x="435.75" y="-360.5" font-family="Helvetica,sans-Serif" font-size="10.00">sys/include/net/sock</text>
<text text-anchor="middle" x="485.25" y="-347.75" font-family="Helvetica,sans-Serif" font-size="10.00">/dns.h</text>
</a>
</g>
</g>
<!-- Node2 -->
<g id="Node000002" class="node">
<title>Node2</title>
<g id="a_Node000002"><a xlink:href="errno_8h.html" target="_top" xlink:title=" ">
<polygon fill="white" stroke="#666666" points="50.5,-247.75 0,-247.75 0,-227 50.5,-227 50.5,-247.75"/>
<text text-anchor="middle" x="25.25" y="-234.25" font-family="Helvetica,sans-Serif" font-size="10.00">errno.h</text>
</a>
</g>
</g>
<!-- Node1&#45;&gt;Node2 -->
<g id="edge1_Node000001_Node000002" class="edge">
<title>Node1&#45;&gt;Node2</title>
<g id="a_edge1_Node000001_Node000002"><a xlink:title=" ">
<path fill="none" stroke="#63b8ff" d="M427.46,-341.44C331.32,-316.81 141.26,-268.1 61.66,-247.71"/>
<polygon fill="#63b8ff" stroke="#63b8ff" points="62.77,-244.38 52.21,-245.28 61.03,-251.16 62.77,-244.38"/>
</a>
</g>
</g>
<!-- Node3 -->
<g id="Node000003" class="node">
<title>Node3</title>
<g id="a_Node000003"><a xlink:title=" ">
<polygon fill="#e0e0e0" stroke="#999999" points="384.62,-20.75 331.88,-20.75 331.88,0 384.62,0 384.62,-20.75"/>
<text text-anchor="middle" x="358.25" y="-7.25" font-family="Helvetica,sans-Serif" font-size="10.00">stdint.h</text>
</a>
</g>
</g>
<!-- Node1&#45;&gt;Node3 -->
<g id="edge2_Node000001_Node000003" class="edge">
<title>Node1&#45;&gt;Node3</title>
<g id="a_edge2_Node000001_Node000003"><a xlink:title=" ">
<path fill="none" stroke="#63b8ff" d="M543.08,-350.09C607.96,-339.59 704.25,-311.67 704.25,-238.38 704.25,-238.38 704.25,-238.38 704.25,-122.88 704.25,-75.71 664.28,-76.06 621.25,-56.75 546.34,-23.14 449.13,-14.32 396.38,-12.07"/>
<polygon fill="#63b8ff" stroke="#63b8ff" points="396.52,-8.57 386.4,-11.71 396.27,-15.57 396.52,-8.57"/>
</a>
</g>
</g>
<!-- Node4 -->
<g id="Node000004" class="node">
<title>Node4</title>
<g id="a_Node000004"><a xlink:href="sys_2include_2net_2dns_2msg_8h.html" target="_top" xlink:title="Definitions for parsing and composition of DNS messages.">
<polygon fill="white" stroke="#666666" points="654.75,-304.5 569.75,-304.5 569.75,-283.75 654.75,-283.75 654.75,-304.5"/>
<text text-anchor="middle" x="612.25" y="-291" font-family="Helvetica,sans-Serif" font-size="10.00">net/dns/msg.h</text>
</a>
</g>
</g>
<!-- Node1&#45;&gt;Node4 -->
<g id="edge3_Node000001_Node000004" class="edge">
<title>Node1&#45;&gt;Node4</title>
<g id="a_edge3_Node000001_Node000004"><a xlink:title=" ">
<path fill="none" stroke="#63b8ff" d="M518.95,-340.03C538.45,-330.64 562.8,-318.92 581.74,-309.81"/>
<polygon fill="#63b8ff" stroke="#63b8ff" points="583.05,-313.06 590.55,-305.57 580.02,-306.75 583.05,-313.06"/>
</a>
</g>
</g>
<!-- Node6 -->
<g id="Node000006" class="node">
<title>Node6</title>
<g id="a_Node000006"><a xlink:href="sock_2udp_8h.html" target="_top" xlink:title="UDP sock definitions.">
<polygon fill="white" stroke="#666666" points="401.88,-304.5 314.62,-304.5 314.62,-283.75 401.88,-283.75 401.88,-304.5"/>
<text text-anchor="middle" x="358.25" y="-291" font-family="Helvetica,sans-Serif" font-size="10.00">net/sock/udp.h</text>
</a>
</g>
</g>
<!-- Node1&#45;&gt;Node6 -->
<g id="edge6_Node000001_Node000006" class="edge">
<title>Node1&#45;&gt;Node6</title>
<g id="a_edge6_Node000001_Node000006"><a xlink:title=" ">
<path fill="none" stroke="#63b8ff" d="M451.55,-340.03C432.05,-330.64 407.7,-318.92 388.76,-309.81"/>
<polygon fill="#63b8ff" stroke="#63b8ff" points="390.48,-306.75 379.95,-305.57 387.45,-313.06 390.48,-306.75"/>
</a>
</g>
</g>
<!-- Node4&#45;&gt;Node3 -->
<g id="edge4_Node000004_Node000003" class="edge">
<title>Node4&#45;&gt;Node3</title>
<g id="a_edge4_Node000004_Node000003"><a xlink:title=" ">
<path fill="none" stroke="#63b8ff" d="M621.51,-283.42C629.36,-274.71 640.42,-261.24 647.25,-247.75 661.06,-220.47 666.25,-212.2 666.25,-181.62 666.25,-181.62 666.25,-181.62 666.25,-122.88 666.25,-74.31 623.47,-76.83 579.25,-56.75 518.85,-29.32 441.64,-18.33 396.3,-14.02"/>
<polygon fill="#63b8ff" stroke="#63b8ff" points="396.72,-10.55 386.45,-13.16 396.1,-17.52 396.72,-10.55"/>
</a>
</g>
</g>
<!-- Node5 -->
<g id="Node000005" class="node">
<title>Node5</title>
<g id="a_Node000005"><a xlink:title=" ">
<polygon fill="#e0e0e0" stroke="#999999" points="638.25,-247.75 586.25,-247.75 586.25,-227 638.25,-227 638.25,-247.75"/>
<text text-anchor="middle" x="612.25" y="-234.25" font-family="Helvetica,sans-Serif" font-size="10.00">stdlib.h</text>
</a>
</g>
</g>
<!-- Node4&#45;&gt;Node5 -->
<g id="edge5_Node000004_Node000005" class="edge">
<title>Node4&#45;&gt;Node5</title>
<g id="a_edge5_Node000004_Node000005"><a xlink:title=" ">
<path fill="none" stroke="#63b8ff" d="M612.25,-283.34C612.25,-276.72 612.25,-267.72 612.25,-259.52"/>
<polygon fill="#63b8ff" stroke="#63b8ff" points="615.75,-259.59 612.25,-249.59 608.75,-259.59 615.75,-259.59"/>
</a>
</g>
</g>
<!-- Node6&#45;&gt;Node2 -->
<g id="edge9_Node000006_Node000002" class="edge">
<title>Node6&#45;&gt;Node2</title>
<g id="a_edge9_Node000006_Node000002"><a xlink:title=" ">
<path fill="none" stroke="#63b8ff" d="M314.22,-287.49C256.55,-279.84 152.42,-265.12 64.25,-247.75 63.43,-247.59 62.6,-247.42 61.77,-247.25"/>
<polygon fill="#63b8ff" stroke="#63b8ff" points="62.77,-243.89 52.26,-245.16 61.27,-250.72 62.77,-243.89"/>
</a>
</g>
</g>
<!-- Node6&#45;&gt;Node3 -->
<g id="edge10_Node000006_Node000003" class="edge">
<title>Node6&#45;&gt;Node3</title>
<g id="a_edge10_Node000006_Node000003"><a xlink:title=" ">
<path fill="none" stroke="#63b8ff" d="M402.21,-287.87C449.85,-281.22 521.45,-268.12 539.25,-247.75 595.38,-183.51 611.48,-123.41 558.25,-56.75 538.37,-31.85 448.54,-19.59 396.28,-14.47"/>
<polygon fill="#63b8ff" stroke="#63b8ff" points="396.9,-11.01 386.62,-13.56 396.25,-17.98 396.9,-11.01"/>
</a>
</g>
</g>
<!-- Node6&#45;&gt;Node5 -->
<g id="edge11_Node000006_Node000005" class="edge">
<title>Node6&#45;&gt;Node5</title>
<g id="a_edge11_Node000006_Node000005"><a xlink:title=" ">
<path fill="none" stroke="#63b8ff" d="M402.16,-284.1C445.46,-275.13 513.5,-260.86 572.25,-247.75 573.22,-247.53 574.21,-247.31 575.21,-247.09"/>
<polygon fill="#63b8ff" stroke="#63b8ff" points="575.58,-250.59 584.54,-244.95 574.01,-243.77 575.58,-250.59"/>
</a>
</g>
</g>
<!-- Node7 -->
<g id="Node000007" class="node">
<title>Node7</title>
<g id="a_Node000007"><a xlink:href="assert_8h.html" target="_top" xlink:title="POSIX.1&#45;2008 compliant version of the assert macro.">
<polygon fill="white" stroke="#666666" points="115.75,-191 60.75,-191 60.75,-170.25 115.75,-170.25 115.75,-191"/>
<text text-anchor="middle" x="88.25" y="-177.5" font-family="Helvetica,sans-Serif" font-size="10.00">assert.h</text>
</a>
</g>
</g>
<!-- Node6&#45;&gt;Node7 -->
<g id="edge7_Node000006_Node000007" class="edge">
<title>Node6&#45;&gt;Node7</title>
<g id="a_edge7_Node000006_Node000007"><a xlink:title=" ">
<path fill="none" stroke="#63b8ff" d="M314.35,-291.58C247.94,-288.27 126.53,-278.13 97.25,-247.75 85.93,-236.01 84.34,-217.19 85.2,-202.62"/>
<polygon fill="#63b8ff" stroke="#63b8ff" points="88.68,-203.02 86.24,-192.71 81.72,-202.28 88.68,-203.02"/>
</a>
</g>
</g>
<!-- Node8 -->
<g id="Node000008" class="node">
<title>Node8</title>
<g id="a_Node000008"><a xlink:title=" ">
<polygon fill="#e0e0e0" stroke="#999999" points="314,-247.75 242.5,-247.75 242.5,-227 314,-227 314,-247.75"/>
<text text-anchor="middle" x="278.25" y="-234.25" font-family="Helvetica,sans-Serif" font-size="10.00">sys/types.h</text>
</a>
</g>
</g>
<!-- Node6&#45;&gt;Node8 -->
<g id="edge12_Node000006_Node000008" class="edge">
<title>Node6&#45;&gt;Node8</title>
<g id="a_edge12_Node000006_Node000008"><a xlink:title=" ">
<path fill="none" stroke="#63b8ff" d="M343.95,-283.34C332.23,-275.32 315.41,-263.81 301.72,-254.44"/>
<polygon fill="#63b8ff" stroke="#63b8ff" points="303.91,-251.69 293.68,-248.93 299.95,-257.47 303.91,-251.69"/>
</a>
</g>
</g>
<!-- Node9 -->
<g id="Node000009" class="node">
<title>Node9</title>
<g id="a_Node000009"><a xlink:href="af_8h.html" target="_top" xlink:title="Global UNIX address family definitions.">
<polygon fill="white" stroke="#666666" points="384.62,-247.75 331.88,-247.75 331.88,-227 384.62,-227 384.62,-247.75"/>
<text text-anchor="middle" x="358.25" y="-234.25" font-family="Helvetica,sans-Serif" font-size="10.00">net/af.h</text>
</a>
</g>
</g>
<!-- Node6&#45;&gt;Node9 -->
<g id="edge13_Node000006_Node000009" class="edge">
<title>Node6&#45;&gt;Node9</title>
<g id="a_edge13_Node000006_Node000009"><a xlink:title=" ">
<path fill="none" stroke="#63b8ff" d="M358.25,-283.34C358.25,-276.72 358.25,-267.72 358.25,-259.52"/>
<polygon fill="#63b8ff" stroke="#63b8ff" points="361.75,-259.59 358.25,-249.59 354.75,-259.59 361.75,-259.59"/>
</a>
</g>
</g>
<!-- Node10 -->
<g id="Node000010" class="node">
<title>Node10</title>
<g id="a_Node000010"><a xlink:href="sock_8h.html" target="_top" xlink:title="Common sock API definitions.">
<polygon fill="white" stroke="#666666" points="230.38,-191 164.12,-191 164.12,-170.25 230.38,-170.25 230.38,-191"/>
<text text-anchor="middle" x="197.25" y="-177.5" font-family="Helvetica,sans-Serif" font-size="10.00">net/sock.h</text>
</a>
</g>
</g>
<!-- Node6&#45;&gt;Node10 -->
<g id="edge14_Node000006_Node000010" class="edge">
<title>Node6&#45;&gt;Node10</title>
<g id="a_edge14_Node000006_Node000010"><a xlink:title=" ">
<path fill="none" stroke="#63b8ff" d="M314.35,-285.34C288.38,-278.89 256.18,-267.47 233.25,-247.75 219.02,-235.51 209.42,-216.19 203.74,-201.59"/>
<polygon fill="#63b8ff" stroke="#63b8ff" points="207.17,-200.79 200.52,-192.54 200.58,-203.14 207.17,-200.79"/>
</a>
</g>
</g>
<!-- Node13 -->
<g id="Node000013" class="node">
<title>Node13</title>
<g id="a_Node000013"><a xlink:href="ipv4_2addr_8h.html" target="_top" xlink:title="IPv4 address type and helper functions definitions.">
<polygon fill="white" stroke="#666666" points="419,-191 329.5,-191 329.5,-170.25 419,-170.25 419,-191"/>
<text text-anchor="middle" x="374.25" y="-177.5" font-family="Helvetica,sans-Serif" font-size="10.00">net/ipv4/addr.h</text>
</a>
</g>
</g>
<!-- Node6&#45;&gt;Node13 -->
<g id="edge18_Node000006_Node000013" class="edge">
<title>Node6&#45;&gt;Node13</title>
<g id="a_edge18_Node000006_Node000013"><a xlink:title=" ">
<path fill="none" stroke="#63b8ff" d="M368.81,-283.49C377.25,-275.03 388.44,-261.88 393.25,-247.75 398.55,-232.2 392.67,-214.28 386.1,-201.02"/>
<polygon fill="#63b8ff" stroke="#63b8ff" points="389.27,-199.52 381.38,-192.46 383.14,-202.9 389.27,-199.52"/>
</a>
</g>
</g>
<!-- Node19 -->
<g id="Node000019" class="node">
<title>Node19</title>
<g id="a_Node000019"><a xlink:href="ipv6_2addr_8h.html" target="_top" xlink:title="Definitions for IPv6 addresses.">
<polygon fill="white" stroke="#666666" points="530,-247.75 440.5,-247.75 440.5,-227 530,-227 530,-247.75"/>
<text text-anchor="middle" x="485.25" y="-234.25" font-family="Helvetica,sans-Serif" font-size="10.00">net/ipv6/addr.h</text>
</a>
</g>
</g>
<!-- Node6&#45;&gt;Node19 -->
<g id="edge29_Node000006_Node000019" class="edge">
<title>Node6&#45;&gt;Node19</title>
<g id="a_edge29_Node000006_Node000019"><a xlink:title=" ">
<path fill="none" stroke="#63b8ff" d="M380.96,-283.34C400.82,-274.77 429.92,-262.23 452.34,-252.56"/>
<polygon fill="#63b8ff" stroke="#63b8ff" points="453.55,-255.85 461.35,-248.68 450.78,-249.42 453.55,-255.85"/>
</a>
</g>
</g>
<!-- Node20 -->
<g id="Node000020" class="node">
<title>Node20</title>
<g id="a_Node000020"><a xlink:title=" ">
<polygon fill="#e0e0e0" stroke="#999999" points="186.12,-247.75 106.38,-247.75 106.38,-227 186.12,-227 186.12,-247.75"/>
<text text-anchor="middle" x="146.25" y="-234.25" font-family="Helvetica,sans-Serif" font-size="10.00">sock_types.h</text>
</a>
</g>
</g>
<!-- Node6&#45;&gt;Node20 -->
<g id="edge34_Node000006_Node000020" class="edge">
<title>Node6&#45;&gt;Node20</title>
<g id="a_edge34_Node000006_Node000020"><a xlink:title=" ">
<path fill="none" stroke="#63b8ff" d="M320.35,-283.34C285.34,-274.29 233.13,-260.81 195.02,-250.97"/>
<polygon fill="#63b8ff" stroke="#63b8ff" points="196.2,-247.66 185.65,-248.55 194.45,-254.44 196.2,-247.66"/>
</a>
</g>
</g>
<!-- Node7&#45;&gt;Node3 -->
<g id="edge8_Node000007_Node000003" class="edge">
<title>Node7&#45;&gt;Node3</title>
<g id="a_edge8_Node000007_Node000003"><a xlink:title=" ">
<path fill="none" stroke="#63b8ff" d="M92.34,-169.86C102.67,-146.41 132.19,-86.69 176.25,-56.75 219.82,-27.14 281,-16.84 320.13,-13.26"/>
<polygon fill="#63b8ff" stroke="#63b8ff" points="320.33,-16.75 330.02,-12.47 319.77,-9.78 320.33,-16.75"/>
</a>
</g>
</g>
<!-- Node10&#45;&gt;Node3 -->
<g id="edge15_Node000010_Node000003" class="edge">
<title>Node10&#45;&gt;Node3</title>
<g id="a_edge15_Node000010_Node000003"><a xlink:title=" ">
<path fill="none" stroke="#63b8ff" d="M181,-169.89C162.13,-157.29 135.14,-134.46 148.25,-113.5 186.07,-53.05 271.06,-27.45 320.55,-17.36"/>
<polygon fill="#63b8ff" stroke="#63b8ff" points="321.07,-20.82 330.23,-15.5 319.75,-13.95 321.07,-20.82"/>
</a>
</g>
</g>
<!-- Node11 -->
<g id="Node000011" class="node">
<title>Node11</title>
<g id="a_Node000011"><a xlink:title=" ">
<polygon fill="#e0e0e0" stroke="#999999" points="278.75,-134.25 223.75,-134.25 223.75,-113.5 278.75,-113.5 278.75,-134.25"/>
<text text-anchor="middle" x="251.25" y="-120.75" font-family="Helvetica,sans-Serif" font-size="10.00">stddef.h</text>
</a>
</g>
</g>
<!-- Node10&#45;&gt;Node11 -->
<g id="edge16_Node000010_Node000011" class="edge">
<title>Node10&#45;&gt;Node11</title>
<g id="a_edge16_Node000010_Node000011"><a xlink:title=" ">
<path fill="none" stroke="#63b8ff" d="M206.9,-169.84C214.35,-162.28 224.86,-151.64 233.77,-142.6"/>
<polygon fill="#63b8ff" stroke="#63b8ff" points="236.09,-145.23 240.62,-135.66 231.1,-140.32 236.09,-145.23"/>
</a>
</g>
</g>
<!-- Node12 -->
<g id="Node000012" class="node">
<title>Node12</title>
<g id="a_Node000012"><a xlink:href="iolist_8h.html" target="_top" xlink:title="iolist scatter / gather IO">
<polygon fill="white" stroke="#666666" points="205.75,-134.25 156.75,-134.25 156.75,-113.5 205.75,-113.5 205.75,-134.25"/>
<text text-anchor="middle" x="181.25" y="-120.75" font-family="Helvetica,sans-Serif" font-size="10.00">iolist.h</text>
</a>
</g>
</g>
<!-- Node10&#45;&gt;Node12 -->
<g id="edge17_Node000010_Node000012" class="edge">
<title>Node10&#45;&gt;Node12</title>
<g id="a_edge17_Node000010_Node000012"><a xlink:title=" ">
<path fill="none" stroke="#63b8ff" d="M194.39,-169.84C192.41,-163.06 189.7,-153.8 187.26,-145.44"/>
<polygon fill="#63b8ff" stroke="#63b8ff" points="190.67,-144.65 184.51,-136.03 183.96,-146.61 190.67,-144.65"/>
</a>
</g>
</g>
<!-- Node13&#45;&gt;Node3 -->
<g id="edge20_Node000013_Node000003" class="edge">
<title>Node13&#45;&gt;Node3</title>
<g id="a_edge20_Node000013_Node000003"><a xlink:title=" ">
<path fill="none" stroke="#63b8ff" d="M362.49,-169.94C352.86,-161.44 339.52,-148.27 331.25,-134.25 317.81,-111.46 317.3,-103.65 313.25,-77.5 311.84,-68.39 309.74,-65.28 313.25,-56.75 317.83,-45.63 326.59,-35.8 335.18,-28.15"/>
<polygon fill="#63b8ff" stroke="#63b8ff" points="337.2,-31.02 342.71,-21.97 332.76,-25.61 337.2,-31.02"/>
</a>
</g>
</g>
<!-- Node13&#45;&gt;Node11 -->
<g id="edge21_Node000013_Node000011" class="edge">
<title>Node13&#45;&gt;Node11</title>
<g id="a_edge21_Node000013_Node000011"><a xlink:title=" ">
<path fill="none" stroke="#63b8ff" d="M352.26,-169.84C333.11,-161.31 305.09,-148.84 283.42,-139.19"/>
<polygon fill="#63b8ff" stroke="#63b8ff" points="284.99,-136.06 274.43,-135.19 282.14,-142.46 284.99,-136.06"/>
</a>
</g>
</g>
<!-- Node14 -->
<g id="Node000014" class="node">
<title>Node14</title>
<g id="a_Node000014"><a xlink:title=" ">
<polygon fill="#e0e0e0" stroke="#999999" points="493.75,-134.25 432.75,-134.25 432.75,-113.5 493.75,-113.5 493.75,-134.25"/>
<text text-anchor="middle" x="463.25" y="-120.75" font-family="Helvetica,sans-Serif" font-size="10.00">stdbool.h</text>
</a>
</g>
</g>
<!-- Node13&#45;&gt;Node14 -->
<g id="edge19_Node000013_Node000014" class="edge">
<title>Node13&#45;&gt;Node14</title>
<g id="a_edge19_Node000013_Node000014"><a xlink:title=" ">
<path fill="none" stroke="#63b8ff" d="M390.16,-169.84C403.45,-161.66 422.64,-149.86 438.02,-140.4"/>
<polygon fill="#63b8ff" stroke="#63b8ff" points="439.5,-143.59 446.19,-135.37 435.84,-137.63 439.5,-143.59"/>
</a>
</g>
</g>
<!-- Node15 -->
<g id="Node000015" class="node">
<title>Node15</title>
<g id="a_Node000015"><a xlink:href="byteorder_8h.html" target="_top" xlink:title="Functions to work with different byte orders.">
<polygon fill="white" stroke="#666666" points="412.38,-134.25 340.12,-134.25 340.12,-113.5 412.38,-113.5 412.38,-134.25"/>
<text text-anchor="middle" x="376.25" y="-120.75" font-family="Helvetica,sans-Serif" font-size="10.00">byteorder.h</text>
</a>
</g>
</g>
<!-- Node13&#45;&gt;Node15 -->
<g id="edge22_Node000013_Node000015" class="edge">
<title>Node13&#45;&gt;Node15</title>
<g id="a_edge22_Node000013_Node000015"><a xlink:title=" ">
<path fill="none" stroke="#63b8ff" d="M374.61,-169.84C374.85,-163.22 375.18,-154.22 375.48,-146.02"/>
<polygon fill="#63b8ff" stroke="#63b8ff" points="378.97,-146.21 375.84,-136.09 371.98,-145.96 378.97,-146.21"/>
</a>
</g>
</g>
<!-- Node15&#45;&gt;Node3 -->
<g id="edge24_Node000015_Node000003" class="edge">
<title>Node15&#45;&gt;Node3</title>
<g id="a_edge24_Node000015_Node000003"><a xlink:title=" ">
<path fill="none" stroke="#63b8ff" d="M356.82,-113.11C343.83,-105.4 327.79,-93.31 320.25,-77.5 312.16,-60.54 324.72,-42.06 337.52,-28.96"/>
<polygon fill="#63b8ff" stroke="#63b8ff" points="339.77,-31.65 344.65,-22.24 334.97,-26.55 339.77,-31.65"/>
</a>
</g>
</g>
<!-- Node16 -->
<g id="Node000016" class="node">
<title>Node16</title>
<g id="a_Node000016"><a xlink:title=" ">
<polygon fill="#e0e0e0" stroke="#999999" points="549.62,-77.5 496.88,-77.5 496.88,-56.75 549.62,-56.75 549.62,-77.5"/>
<text text-anchor="middle" x="523.25" y="-64" font-family="Helvetica,sans-Serif" font-size="10.00">string.h</text>
</a>
</g>
</g>
<!-- Node15&#45;&gt;Node16 -->
<g id="edge23_Node000015_Node000016" class="edge">
<title>Node15&#45;&gt;Node16</title>
<g id="a_edge23_Node000015_Node000016"><a xlink:title=" ">
<path fill="none" stroke="#63b8ff" d="M402.53,-113.09C425.94,-104.37 460.44,-91.52 486.57,-81.79"/>
<polygon fill="#63b8ff" stroke="#63b8ff" points="487.63,-85.13 495.78,-78.36 485.19,-78.57 487.63,-85.13"/>
</a>
</g>
</g>
<!-- Node17 -->
<g id="Node000017" class="node">
<title>Node17</title>
<g id="a_Node000017"><a xlink:href="endian_8h.html" target="_top" xlink:title="libc header for endian conversion">
<polygon fill="white" stroke="#666666" points="387.25,-77.5 329.25,-77.5 329.25,-56.75 387.25,-56.75 387.25,-77.5"/>
<text text-anchor="middle" x="358.25" y="-64" font-family="Helvetica,sans-Serif" font-size="10.00">endian.h</text>
</a>
</g>
</g>
<!-- Node15&#45;&gt;Node17 -->
<g id="edge25_Node000015_Node000017" class="edge">
<title>Node15&#45;&gt;Node17</title>
<g id="a_edge25_Node000015_Node000017"><a xlink:title=" ">
<path fill="none" stroke="#63b8ff" d="M373.03,-113.09C370.81,-106.31 367.76,-97.05 365.01,-88.69"/>
<polygon fill="#63b8ff" stroke="#63b8ff" points="368.36,-87.67 361.91,-79.27 361.71,-89.86 368.36,-87.67"/>
</a>
</g>
</g>
<!-- Node18 -->
<g id="Node000018" class="node">
<title>Node18</title>
<g id="a_Node000018"><a xlink:href="unaligned_8h.html" target="_top" xlink:title="Unaligned but safe memory access functions.">
<polygon fill="white" stroke="#666666" points="478.75,-77.5 405.75,-77.5 405.75,-56.75 478.75,-56.75 478.75,-77.5"/>
<text text-anchor="middle" x="442.25" y="-64" font-family="Helvetica,sans-Serif" font-size="10.00">unaligned.h</text>
</a>
</g>
</g>
<!-- Node15&#45;&gt;Node18 -->
<g id="edge27_Node000015_Node000018" class="edge">
<title>Node15&#45;&gt;Node18</title>
<g id="a_edge27_Node000015_Node000018"><a xlink:title=" ">
<path fill="none" stroke="#63b8ff" d="M388.05,-113.09C397.43,-105.3 410.79,-94.22 421.89,-85.01"/>
<polygon fill="#63b8ff" stroke="#63b8ff" points="423.93,-87.87 429.39,-78.79 419.46,-82.49 423.93,-87.87"/>
</a>
</g>
</g>
<!-- Node17&#45;&gt;Node3 -->
<g id="edge26_Node000017_Node000003" class="edge">
<title>Node17&#45;&gt;Node3</title>
<g id="a_edge26_Node000017_Node000003"><a xlink:title=" ">
<path fill="none" stroke="#63b8ff" d="M358.25,-56.34C358.25,-49.72 358.25,-40.72 358.25,-32.52"/>
<polygon fill="#63b8ff" stroke="#63b8ff" points="361.75,-32.59 358.25,-22.59 354.75,-32.59 361.75,-32.59"/>
</a>
</g>
</g>
<!-- Node18&#45;&gt;Node3 -->
<g id="edge28_Node000018_Node000003" class="edge">
<title>Node18&#45;&gt;Node3</title>
<g id="a_edge28_Node000018_Node000003"><a xlink:title=" ">
<path fill="none" stroke="#63b8ff" d="M427.23,-56.34C414.81,-48.24 396.93,-36.58 382.48,-27.17"/>
<polygon fill="#63b8ff" stroke="#63b8ff" points="384.69,-24.43 374.41,-21.9 380.87,-30.3 384.69,-24.43"/>
</a>
</g>
</g>
<!-- Node19&#45;&gt;Node13 -->
<g id="edge33_Node000019_Node000013" class="edge">
<title>Node19&#45;&gt;Node13</title>
<g id="a_edge33_Node000019_Node000013"><a xlink:title=" ">
<path fill="none" stroke="#63b8ff" d="M465.41,-226.59C448.36,-218.18 423.53,-205.93 404.09,-196.34"/>
<polygon fill="#63b8ff" stroke="#63b8ff" points="405.8,-193.28 395.28,-192 402.7,-199.56 405.8,-193.28"/>
</a>
</g>
</g>
<!-- Node19&#45;&gt;Node14 -->
<g id="edge30_Node000019_Node000014" class="edge">
<title>Node19&#45;&gt;Node14</title>
<g id="a_edge30_Node000019_Node000014"><a xlink:title=" ">
<path fill="none" stroke="#63b8ff" d="M483.37,-226.87C479.85,-209.02 472.18,-170.11 467.39,-145.84"/>
<polygon fill="#63b8ff" stroke="#63b8ff" points="470.85,-145.29 465.48,-136.16 463.98,-146.65 470.85,-145.29"/>
</a>
</g>
</g>
<!-- Node19&#45;&gt;Node15 -->
<g id="edge32_Node000019_Node000015" class="edge">
<title>Node19&#45;&gt;Node15</title>
<g id="a_edge32_Node000019_Node000015"><a xlink:title=" ">
<path fill="none" stroke="#63b8ff" d="M477.54,-226.58C466.94,-213.33 447.06,-189.17 428.25,-170.25 418.39,-160.33 406.72,-150.03 396.93,-141.75"/>
<polygon fill="#63b8ff" stroke="#63b8ff" points="399.33,-139.19 389.4,-135.48 394.85,-144.57 399.33,-139.19"/>
</a>
</g>
</g>
<!-- Node19&#45;&gt;Node16 -->
<g id="edge31_Node000019_Node000016" class="edge">
<title>Node19&#45;&gt;Node16</title>
<g id="a_edge31_Node000019_Node000016"><a xlink:title=" ">
<path fill="none" stroke="#63b8ff" d="M487.4,-226.85C493.38,-200.37 510.31,-125.43 518.58,-88.8"/>
<polygon fill="#63b8ff" stroke="#63b8ff" points="521.9,-89.97 520.69,-79.44 515.08,-88.43 521.9,-89.97"/>
</a>
</g>
</g>
</g>
</svg>
