<?xml version="1.0" encoding="UTF-8" standalone="no"?>
<!DOCTYPE svg PUBLIC "-//W3C//DTD SVG 1.1//EN"
 "http://www.w3.org/Graphics/SVG/1.1/DTD/svg11.dtd">
<!-- Generated by graphviz version 12.1.2 (0)
 -->
<!-- Title: sys/include/net/sock/udp.h Pages: 1 -->
<svg width="924pt" height="325pt"
 viewBox="0.00 0.00 924.38 325.25" xmlns="http://www.w3.org/2000/svg" xmlns:xlink="http://www.w3.org/1999/xlink">
<g id="graph0" class="graph" transform="scale(1 1) rotate(0) translate(4 321.25)">
<title>sys/include/net/sock/udp.h</title>
<!-- Node1 -->
<g id="Node000001" class="node">
<title>Node1</title>
<g id="a_Node000001"><a xlink:title="UDP sock definitions.">
<polygon fill="#999999" stroke="#666666" points="594,-317.25 479,-317.25 479,-283.75 594,-283.75 594,-317.25"/>
<text text-anchor="start" x="487" y="-303.75" font-family="Helvetica,sans-Serif" font-size="10.00">sys/include/net/sock</text>
<text text-anchor="middle" x="536.5" y="-291" font-family="Helvetica,sans-Serif" font-size="10.00">/udp.h</text>
</a>
</g>
</g>
<!-- Node2 -->
<g id="Node000002" class="node">
<title>Node2</title>
<g id="a_Node000002"><a xlink:href="assert_8h.html" target="_top" xlink:title="POSIX.1&#45;2008 compliant version of the assert macro.">
<polygon fill="white" stroke="#666666" points="556,-191 501,-191 501,-170.25 556,-170.25 556,-191"/>
<text text-anchor="middle" x="528.5" y="-177.5" font-family="Helvetica,sans-Serif" font-size="10.00">assert.h</text>
</a>
</g>
</g>
<!-- Node1&#45;&gt;Node2 -->
<g id="edge1_Node000001_Node000002" class="edge">
<title>Node1&#45;&gt;Node2</title>
<g id="a_edge1_Node000001_Node000002"><a xlink:title=" ">
<path fill="none" stroke="#63b8ff" d="M533.86,-283.7C532.28,-273.48 530.41,-259.86 529.5,-247.75 528.37,-232.64 528.14,-215.53 528.18,-202.5"/>
<polygon fill="#63b8ff" stroke="#63b8ff" points="531.68,-202.6 528.28,-192.57 524.68,-202.54 531.68,-202.6"/>
</a>
</g>
</g>
<!-- Node3 -->
<g id="Node000003" class="node">
<title>Node3</title>
<g id="a_Node000003"><a xlink:title=" ">
<polygon fill="#e0e0e0" stroke="#999999" points="287.88,-20.75 235.12,-20.75 235.12,0 287.88,0 287.88,-20.75"/>
<text text-anchor="middle" x="261.5" y="-7.25" font-family="Helvetica,sans-Serif" font-size="10.00">stdint.h</text>
</a>
</g>
</g>
<!-- Node1&#45;&gt;Node3 -->
<g id="edge4_Node000001_Node000003" class="edge">
<title>Node1&#45;&gt;Node3</title>
<g id="a_edge4_Node000001_Node000003"><a xlink:title=" ">
<path fill="none" stroke="#63b8ff" d="M528.97,-283.25C519.47,-262.29 503.1,-224.53 492.5,-191 474.05,-132.61 504.88,-99.97 461.5,-56.75 439.03,-34.37 351,-21.17 299.53,-15.2"/>
<polygon fill="#63b8ff" stroke="#63b8ff" points="300.04,-11.74 289.71,-14.11 299.26,-18.7 300.04,-11.74"/>
</a>
</g>
</g>
<!-- Node4 -->
<g id="Node000004" class="node">
<title>Node4</title>
<g id="a_Node000004"><a xlink:href="errno_8h.html" target="_top" xlink:title=" ">
<polygon fill="white" stroke="#666666" points="588.75,-247.75 538.25,-247.75 538.25,-227 588.75,-227 588.75,-247.75"/>
<text text-anchor="middle" x="563.5" y="-234.25" font-family="Helvetica,sans-Serif" font-size="10.00">errno.h</text>
</a>
</g>
</g>
<!-- Node1&#45;&gt;Node4 -->
<g id="edge3_Node000001_Node000004" class="edge">
<title>Node1&#45;&gt;Node4</title>
<g id="a_edge3_Node000001_Node000004"><a xlink:title=" ">
<path fill="none" stroke="#63b8ff" d="M543.59,-283.44C546.95,-275.84 550.99,-266.69 554.56,-258.62"/>
<polygon fill="#63b8ff" stroke="#63b8ff" points="557.7,-260.16 558.54,-249.6 551.3,-257.33 557.7,-260.16"/>
</a>
</g>
</g>
<!-- Node5 -->
<g id="Node000005" class="node">
<title>Node5</title>
<g id="a_Node000005"><a xlink:title=" ">
<polygon fill="#e0e0e0" stroke="#999999" points="658.5,-247.75 606.5,-247.75 606.5,-227 658.5,-227 658.5,-247.75"/>
<text text-anchor="middle" x="632.5" y="-234.25" font-family="Helvetica,sans-Serif" font-size="10.00">stdlib.h</text>
</a>
</g>
</g>
<!-- Node1&#45;&gt;Node5 -->
<g id="edge5_Node000001_Node000005" class="edge">
<title>Node1&#45;&gt;Node5</title>
<g id="a_edge5_Node000001_Node000005"><a xlink:title=" ">
<path fill="none" stroke="#63b8ff" d="M561.97,-283.28C576.1,-274.29 593.59,-263.15 607.62,-254.22"/>
<polygon fill="#63b8ff" stroke="#63b8ff" points="609.29,-257.3 615.85,-248.98 605.53,-251.4 609.29,-257.3"/>
</a>
</g>
</g>
<!-- Node6 -->
<g id="Node000006" class="node">
<title>Node6</title>
<g id="a_Node000006"><a xlink:title=" ">
<polygon fill="#e0e0e0" stroke="#999999" points="748.25,-247.75 676.75,-247.75 676.75,-227 748.25,-227 748.25,-247.75"/>
<text text-anchor="middle" x="712.5" y="-234.25" font-family="Helvetica,sans-Serif" font-size="10.00">sys/types.h</text>
</a>
</g>
</g>
<!-- Node1&#45;&gt;Node6 -->
<g id="edge6_Node000001_Node000006" class="edge">
<title>Node1&#45;&gt;Node6</title>
<g id="a_edge6_Node000001_Node000006"><a xlink:title=" ">
<path fill="none" stroke="#63b8ff" d="M583.2,-283.28C611.36,-273.5 646.81,-261.19 673.47,-251.93"/>
<polygon fill="#63b8ff" stroke="#63b8ff" points="674.58,-255.25 682.88,-248.66 672.29,-248.64 674.58,-255.25"/>
</a>
</g>
</g>
<!-- Node7 -->
<g id="Node000007" class="node">
<title>Node7</title>
<g id="a_Node000007"><a xlink:href="af_8h.html" target="_top" xlink:title="Global UNIX address family definitions.">
<polygon fill="white" stroke="#666666" points="818.88,-247.75 766.12,-247.75 766.12,-227 818.88,-227 818.88,-247.75"/>
<text text-anchor="middle" x="792.5" y="-234.25" font-family="Helvetica,sans-Serif" font-size="10.00">net/af.h</text>
</a>
</g>
</g>
<!-- Node1&#45;&gt;Node7 -->
<g id="edge7_Node000001_Node000007" class="edge">
<title>Node1&#45;&gt;Node7</title>
<g id="a_edge7_Node000001_Node000007"><a xlink:title=" ">
<path fill="none" stroke="#63b8ff" d="M594.32,-286.49C636.36,-276.91 694.92,-263.32 754.61,-248.42"/>
<polygon fill="#63b8ff" stroke="#63b8ff" points="755.45,-251.82 764.3,-246 753.75,-245.03 755.45,-251.82"/>
</a>
</g>
</g>
<!-- Node8 -->
<g id="Node000008" class="node">
<title>Node8</title>
<g id="a_Node000008"><a xlink:href="sock_8h.html" target="_top" xlink:title="Common sock API definitions.">
<polygon fill="white" stroke="#666666" points="138.62,-191 72.38,-191 72.38,-170.25 138.62,-170.25 138.62,-191"/>
<text text-anchor="middle" x="105.5" y="-177.5" font-family="Helvetica,sans-Serif" font-size="10.00">net/sock.h</text>
</a>
</g>
</g>
<!-- Node1&#45;&gt;Node8 -->
<g id="edge8_Node000001_Node000008" class="edge">
<title>Node1&#45;&gt;Node8</title>
<g id="a_edge8_Node000001_Node000008"><a xlink:title=" ">
<path fill="none" stroke="#63b8ff" d="M478.93,-288.16C432.18,-278.56 364.69,-263.83 306.5,-247.75 248.89,-231.83 183.32,-209.44 143.17,-195.23"/>
<polygon fill="#63b8ff" stroke="#63b8ff" points="144.58,-192.01 133.98,-191.96 142.23,-198.61 144.58,-192.01"/>
</a>
</g>
</g>
<!-- Node11 -->
<g id="Node000011" class="node">
<title>Node11</title>
<g id="a_Node000011"><a xlink:href="ipv4_2addr_8h.html" target="_top" xlink:title="IPv4 address type and helper functions definitions.">
<polygon fill="white" stroke="#666666" points="322.25,-191 232.75,-191 232.75,-170.25 322.25,-170.25 322.25,-191"/>
<text text-anchor="middle" x="277.5" y="-177.5" font-family="Helvetica,sans-Serif" font-size="10.00">net/ipv4/addr.h</text>
</a>
</g>
</g>
<!-- Node1&#45;&gt;Node11 -->
<g id="edge12_Node000001_Node000011" class="edge">
<title>Node1&#45;&gt;Node11</title>
<g id="a_edge12_Node000001_Node000011"><a xlink:title=" ">
<path fill="none" stroke="#63b8ff" d="M478.89,-294.1C436.37,-287.98 378.5,-275.03 334.5,-247.75 315.45,-235.94 299.39,-215.71 289.22,-200.73"/>
<polygon fill="#63b8ff" stroke="#63b8ff" points="292.35,-199.12 283.98,-192.63 286.48,-202.93 292.35,-199.12"/>
</a>
</g>
</g>
<!-- Node17 -->
<g id="Node000017" class="node">
<title>Node17</title>
<g id="a_Node000017"><a xlink:href="ipv6_2addr_8h.html" target="_top" xlink:title="Definitions for IPv6 addresses.">
<polygon fill="white" stroke="#666666" points="433.25,-247.75 343.75,-247.75 343.75,-227 433.25,-227 433.25,-247.75"/>
<text text-anchor="middle" x="388.5" y="-234.25" font-family="Helvetica,sans-Serif" font-size="10.00">net/ipv6/addr.h</text>
</a>
</g>
</g>
<!-- Node1&#45;&gt;Node17 -->
<g id="edge23_Node000001_Node000017" class="edge">
<title>Node1&#45;&gt;Node17</title>
<g id="a_edge23_Node000001_Node000017"><a xlink:title=" ">
<path fill="none" stroke="#63b8ff" d="M497.23,-283.28C474.08,-273.72 445.06,-261.74 422.83,-252.55"/>
<polygon fill="#63b8ff" stroke="#63b8ff" points="424.18,-249.33 413.6,-248.74 421.51,-255.8 424.18,-249.33"/>
</a>
</g>
</g>
<!-- Node18 -->
<g id="Node000018" class="node">
<title>Node18</title>
<g id="a_Node000018"><a xlink:title=" ">
<polygon fill="#e0e0e0" stroke="#999999" points="916.38,-247.75 836.62,-247.75 836.62,-227 916.38,-227 916.38,-247.75"/>
<text text-anchor="middle" x="876.5" y="-234.25" font-family="Helvetica,sans-Serif" font-size="10.00">sock_types.h</text>
</a>
</g>
</g>
<!-- Node1&#45;&gt;Node18 -->
<g id="edge28_Node000001_Node000018" class="edge">
<title>Node1&#45;&gt;Node18</title>
<g id="a_edge28_Node000001_Node000018"><a xlink:title=" ">
<path fill="none" stroke="#63b8ff" d="M594.24,-289.46C650.52,-279.62 738.83,-264.05 824.84,-248.22"/>
<polygon fill="#63b8ff" stroke="#63b8ff" points="825.44,-251.67 834.64,-246.42 824.17,-244.79 825.44,-251.67"/>
</a>
</g>
</g>
<!-- Node2&#45;&gt;Node3 -->
<g id="edge2_Node000002_Node000003" class="edge">
<title>Node2&#45;&gt;Node3</title>
<g id="a_edge2_Node000002_Node000003"><a xlink:title=" ">
<path fill="none" stroke="#63b8ff" d="M528.97,-169.93C529.54,-146.65 527.48,-87.27 494.5,-56.75 466.62,-30.96 358.12,-18.79 299.53,-13.99"/>
<polygon fill="#63b8ff" stroke="#63b8ff" points="299.93,-10.51 289.68,-13.22 299.38,-17.49 299.93,-10.51"/>
</a>
</g>
</g>
<!-- Node8&#45;&gt;Node3 -->
<g id="edge9_Node000008_Node000003" class="edge">
<title>Node8&#45;&gt;Node3</title>
<g id="a_edge9_Node000008_Node000003"><a xlink:title=" ">
<path fill="none" stroke="#63b8ff" d="M100.71,-169.97C94.74,-156.45 86.46,-131.52 96.5,-113.5 123.49,-65.05 184.01,-36.68 223.77,-22.6"/>
<polygon fill="#63b8ff" stroke="#63b8ff" points="224.85,-25.93 233.2,-19.41 222.6,-19.3 224.85,-25.93"/>
</a>
</g>
</g>
<!-- Node9 -->
<g id="Node000009" class="node">
<title>Node9</title>
<g id="a_Node000009"><a xlink:title=" ">
<polygon fill="#e0e0e0" stroke="#999999" points="161,-134.25 106,-134.25 106,-113.5 161,-113.5 161,-134.25"/>
<text text-anchor="middle" x="133.5" y="-120.75" font-family="Helvetica,sans-Serif" font-size="10.00">stddef.h</text>
</a>
</g>
</g>
<!-- Node8&#45;&gt;Node9 -->
<g id="edge10_Node000008_Node000009" class="edge">
<title>Node8&#45;&gt;Node9</title>
<g id="a_edge10_Node000008_Node000009"><a xlink:title=" ">
<path fill="none" stroke="#63b8ff" d="M110.51,-169.84C114.09,-162.83 119.04,-153.16 123.42,-144.58"/>
<polygon fill="#63b8ff" stroke="#63b8ff" points="126.41,-146.42 127.85,-135.93 120.18,-143.24 126.41,-146.42"/>
</a>
</g>
</g>
<!-- Node10 -->
<g id="Node000010" class="node">
<title>Node10</title>
<g id="a_Node000010"><a xlink:href="iolist_8h.html" target="_top" xlink:title="iolist scatter / gather IO">
<polygon fill="white" stroke="#666666" points="49,-134.25 0,-134.25 0,-113.5 49,-113.5 49,-134.25"/>
<text text-anchor="middle" x="24.5" y="-120.75" font-family="Helvetica,sans-Serif" font-size="10.00">iolist.h</text>
</a>
</g>
</g>
<!-- Node8&#45;&gt;Node10 -->
<g id="edge11_Node000008_Node000010" class="edge">
<title>Node8&#45;&gt;Node10</title>
<g id="a_edge11_Node000008_Node000010"><a xlink:title=" ">
<path fill="none" stroke="#63b8ff" d="M91.02,-169.84C79.15,-161.82 62.13,-150.31 48.27,-140.94"/>
<polygon fill="#63b8ff" stroke="#63b8ff" points="50.35,-138.13 40.11,-135.43 46.43,-143.93 50.35,-138.13"/>
</a>
</g>
</g>
<!-- Node11&#45;&gt;Node3 -->
<g id="edge14_Node000011_Node000003" class="edge">
<title>Node11&#45;&gt;Node3</title>
<g id="a_edge14_Node000011_Node000003"><a xlink:title=" ">
<path fill="none" stroke="#63b8ff" d="M265.74,-169.94C256.11,-161.44 242.77,-148.27 234.5,-134.25 221.06,-111.46 220.55,-103.65 216.5,-77.5 215.09,-68.39 212.99,-65.28 216.5,-56.75 221.08,-45.63 229.84,-35.8 238.43,-28.15"/>
<polygon fill="#63b8ff" stroke="#63b8ff" points="240.45,-31.02 245.96,-21.97 236.01,-25.61 240.45,-31.02"/>
</a>
</g>
</g>
<!-- Node11&#45;&gt;Node9 -->
<g id="edge15_Node000011_Node000009" class="edge">
<title>Node11&#45;&gt;Node9</title>
<g id="a_edge15_Node000011_Node000009"><a xlink:title=" ">
<path fill="none" stroke="#63b8ff" d="M251.76,-169.84C228.92,-161.16 195.33,-148.38 169.78,-138.67"/>
<polygon fill="#63b8ff" stroke="#63b8ff" points="171.03,-135.4 160.44,-135.12 168.54,-141.94 171.03,-135.4"/>
</a>
</g>
</g>
<!-- Node12 -->
<g id="Node000012" class="node">
<title>Node12</title>
<g id="a_Node000012"><a xlink:title=" ">
<polygon fill="#e0e0e0" stroke="#999999" points="397,-134.25 336,-134.25 336,-113.5 397,-113.5 397,-134.25"/>
<text text-anchor="middle" x="366.5" y="-120.75" font-family="Helvetica,sans-Serif" font-size="10.00">stdbool.h</text>
</a>
</g>
</g>
<!-- Node11&#45;&gt;Node12 -->
<g id="edge13_Node000011_Node000012" class="edge">
<title>Node11&#45;&gt;Node12</title>
<g id="a_edge13_Node000011_Node000012"><a xlink:title=" ">
<path fill="none" stroke="#63b8ff" d="M293.41,-169.84C306.7,-161.66 325.89,-149.86 341.27,-140.4"/>
<polygon fill="#63b8ff" stroke="#63b8ff" points="342.75,-143.59 349.44,-135.37 339.09,-137.63 342.75,-143.59"/>
</a>
</g>
</g>
<!-- Node13 -->
<g id="Node000013" class="node">
<title>Node13</title>
<g id="a_Node000013"><a xlink:href="byteorder_8h.html" target="_top" xlink:title="Functions to work with different byte orders.">
<polygon fill="white" stroke="#666666" points="315.62,-134.25 243.38,-134.25 243.38,-113.5 315.62,-113.5 315.62,-134.25"/>
<text text-anchor="middle" x="279.5" y="-120.75" font-family="Helvetica,sans-Serif" font-size="10.00">byteorder.h</text>
</a>
</g>
</g>
<!-- Node11&#45;&gt;Node13 -->
<g id="edge16_Node000011_Node000013" class="edge">
<title>Node11&#45;&gt;Node13</title>
<g id="a_edge16_Node000011_Node000013"><a xlink:title=" ">
<path fill="none" stroke="#63b8ff" d="M277.86,-169.84C278.1,-163.22 278.43,-154.22 278.73,-146.02"/>
<polygon fill="#63b8ff" stroke="#63b8ff" points="282.22,-146.21 279.09,-136.09 275.23,-145.96 282.22,-146.21"/>
</a>
</g>
</g>
<!-- Node13&#45;&gt;Node3 -->
<g id="edge18_Node000013_Node000003" class="edge">
<title>Node13&#45;&gt;Node3</title>
<g id="a_edge18_Node000013_Node000003"><a xlink:title=" ">
<path fill="none" stroke="#63b8ff" d="M260.07,-113.11C247.08,-105.4 231.04,-93.31 223.5,-77.5 215.41,-60.54 227.97,-42.06 240.77,-28.96"/>
<polygon fill="#63b8ff" stroke="#63b8ff" points="243.02,-31.65 247.9,-22.24 238.22,-26.55 243.02,-31.65"/>
</a>
</g>
</g>
<!-- Node14 -->
<g id="Node000014" class="node">
<title>Node14</title>
<g id="a_Node000014"><a xlink:title=" ">
<polygon fill="#e0e0e0" stroke="#999999" points="452.88,-77.5 400.12,-77.5 400.12,-56.75 452.88,-56.75 452.88,-77.5"/>
<text text-anchor="middle" x="426.5" y="-64" font-family="Helvetica,sans-Serif" font-size="10.00">string.h</text>
</a>
</g>
</g>
<!-- Node13&#45;&gt;Node14 -->
<g id="edge17_Node000013_Node000014" class="edge">
<title>Node13&#45;&gt;Node14</title>
<g id="a_edge17_Node000013_Node000014"><a xlink:title=" ">
<path fill="none" stroke="#63b8ff" d="M305.78,-113.09C329.19,-104.37 363.69,-91.52 389.82,-81.79"/>
<polygon fill="#63b8ff" stroke="#63b8ff" points="390.88,-85.13 399.03,-78.36 388.44,-78.57 390.88,-85.13"/>
</a>
</g>
</g>
<!-- Node15 -->
<g id="Node000015" class="node">
<title>Node15</title>
<g id="a_Node000015"><a xlink:href="endian_8h.html" target="_top" xlink:title="libc header for endian conversion">
<polygon fill="white" stroke="#666666" points="290.5,-77.5 232.5,-77.5 232.5,-56.75 290.5,-56.75 290.5,-77.5"/>
<text text-anchor="middle" x="261.5" y="-64" font-family="Helvetica,sans-Serif" font-size="10.00">endian.h</text>
</a>
</g>
</g>
<!-- Node13&#45;&gt;Node15 -->
<g id="edge19_Node000013_Node000015" class="edge">
<title>Node13&#45;&gt;Node15</title>
<g id="a_edge19_Node000013_Node000015"><a xlink:title=" ">
<path fill="none" stroke="#63b8ff" d="M276.28,-113.09C274.06,-106.31 271.01,-97.05 268.26,-88.69"/>
<polygon fill="#63b8ff" stroke="#63b8ff" points="271.61,-87.67 265.16,-79.27 264.96,-89.86 271.61,-87.67"/>
</a>
</g>
</g>
<!-- Node16 -->
<g id="Node000016" class="node">
<title>Node16</title>
<g id="a_Node000016"><a xlink:href="unaligned_8h.html" target="_top" xlink:title="Unaligned but safe memory access functions.">
<polygon fill="white" stroke="#666666" points="382,-77.5 309,-77.5 309,-56.75 382,-56.75 382,-77.5"/>
<text text-anchor="middle" x="345.5" y="-64" font-family="Helvetica,sans-Serif" font-size="10.00">unaligned.h</text>
</a>
</g>
</g>
<!-- Node13&#45;&gt;Node16 -->
<g id="edge21_Node000013_Node000016" class="edge">
<title>Node13&#45;&gt;Node16</title>
<g id="a_edge21_Node000013_Node000016"><a xlink:title=" ">
<path fill="none" stroke="#63b8ff" d="M291.3,-113.09C300.68,-105.3 314.04,-94.22 325.14,-85.01"/>
<polygon fill="#63b8ff" stroke="#63b8ff" points="327.18,-87.87 332.64,-78.79 322.71,-82.49 327.18,-87.87"/>
</a>
</g>
</g>
<!-- Node15&#45;&gt;Node3 -->
<g id="edge20_Node000015_Node000003" class="edge">
<title>Node15&#45;&gt;Node3</title>
<g id="a_edge20_Node000015_Node000003"><a xlink:title=" ">
<path fill="none" stroke="#63b8ff" d="M261.5,-56.34C261.5,-49.72 261.5,-40.72 261.5,-32.52"/>
<polygon fill="#63b8ff" stroke="#63b8ff" points="265,-32.59 261.5,-22.59 258,-32.59 265,-32.59"/>
</a>
</g>
</g>
<!-- Node16&#45;&gt;Node3 -->
<g id="edge22_Node000016_Node000003" class="edge">
<title>Node16&#45;&gt;Node3</title>
<g id="a_edge22_Node000016_Node000003"><a xlink:title=" ">
<path fill="none" stroke="#63b8ff" d="M330.48,-56.34C318.06,-48.24 300.18,-36.58 285.73,-27.17"/>
<polygon fill="#63b8ff" stroke="#63b8ff" points="287.94,-24.43 277.66,-21.9 284.12,-30.3 287.94,-24.43"/>
</a>
</g>
</g>
<!-- Node17&#45;&gt;Node11 -->
<g id="edge27_Node000017_Node000011" class="edge">
<title>Node17&#45;&gt;Node11</title>
<g id="a_edge27_Node000017_Node000011"><a xlink:title=" ">
<path fill="none" stroke="#63b8ff" d="M368.66,-226.59C351.61,-218.18 326.78,-205.93 307.34,-196.34"/>
<polygon fill="#63b8ff" stroke="#63b8ff" points="309.05,-193.28 298.53,-192 305.95,-199.56 309.05,-193.28"/>
</a>
</g>
</g>
<!-- Node17&#45;&gt;Node12 -->
<g id="edge24_Node000017_Node000012" class="edge">
<title>Node17&#45;&gt;Node12</title>
<g id="a_edge24_Node000017_Node000012"><a xlink:title=" ">
<path fill="none" stroke="#63b8ff" d="M386.62,-226.87C383.1,-209.02 375.43,-170.11 370.64,-145.84"/>
<polygon fill="#63b8ff" stroke="#63b8ff" points="374.1,-145.29 368.73,-136.16 367.23,-146.65 374.1,-145.29"/>
</a>
</g>
</g>
<!-- Node17&#45;&gt;Node13 -->
<g id="edge26_Node000017_Node000013" class="edge">
<title>Node17&#45;&gt;Node13</title>
<g id="a_edge26_Node000017_Node000013"><a xlink:title=" ">
<path fill="none" stroke="#63b8ff" d="M380.79,-226.58C370.19,-213.33 350.31,-189.17 331.5,-170.25 321.64,-160.33 309.97,-150.03 300.18,-141.75"/>
<polygon fill="#63b8ff" stroke="#63b8ff" points="302.58,-139.19 292.65,-135.48 298.1,-144.57 302.58,-139.19"/>
</a>
</g>
</g>
<!-- Node17&#45;&gt;Node14 -->
<g id="edge25_Node000017_Node000014" class="edge">
<title>Node17&#45;&gt;Node14</title>
<g id="a_edge25_Node000017_Node000014"><a xlink:title=" ">
<path fill="none" stroke="#63b8ff" d="M390.65,-226.85C396.63,-200.37 413.56,-125.43 421.83,-88.8"/>
<polygon fill="#63b8ff" stroke="#63b8ff" points="425.15,-89.97 423.94,-79.44 418.33,-88.43 425.15,-89.97"/>
</a>
</g>
</g>
</g>
</svg>
