<?xml version="1.0" encoding="UTF-8" standalone="no"?>
<!DOCTYPE svg PUBLIC "-//W3C//DTD SVG 1.1//EN"
 "http://www.w3.org/Graphics/SVG/1.1/DTD/svg11.dtd">
<!-- Generated by graphviz version 12.1.2 (0)
 -->
<!-- Title: pkg/tinydtls/include/sock_dtls_types.h Pages: 1 -->
<svg width="858pt" height="439pt"
 viewBox="0.00 0.00 857.88 438.75" xmlns="http://www.w3.org/2000/svg" xmlns:xlink="http://www.w3.org/1999/xlink">
<g id="graph0" class="graph" transform="scale(1 1) rotate(0) translate(4 434.75)">
<title>pkg/tinydtls/include/sock_dtls_types.h</title>
<!-- Node1 -->
<g id="Node000001" class="node">
<title>Node1</title>
<g id="a_Node000001"><a xlink:title="tinydtls&#45;specific types and functions definitions">
<polygon fill="#999999" stroke="#666666" points="598.88,-430.75 486.88,-430.75 486.88,-397.25 598.88,-397.25 598.88,-430.75"/>
<text text-anchor="start" x="494.88" y="-417.25" font-family="Helvetica,sans-Serif" font-size="10.00">pkg/tinydtls/include</text>
<text text-anchor="middle" x="542.88" y="-404.5" font-family="Helvetica,sans-Serif" font-size="10.00">/sock_dtls_types.h</text>
</a>
</g>
</g>
<!-- Node2 -->
<g id="Node000002" class="node">
<title>Node2</title>
<g id="a_Node000002"><a xlink:title=" ">
<polygon fill="#e0e0e0" stroke="#999999" points="471.38,-361.25 428.38,-361.25 428.38,-340.5 471.38,-340.5 471.38,-361.25"/>
<text text-anchor="middle" x="449.88" y="-347.75" font-family="Helvetica,sans-Serif" font-size="10.00">dtls.h</text>
</a>
</g>
</g>
<!-- Node1&#45;&gt;Node2 -->
<g id="edge1_Node000001_Node000002" class="edge">
<title>Node1&#45;&gt;Node2</title>
<g id="a_edge1_Node000001_Node000002"><a xlink:title=" ">
<path fill="none" stroke="#63b8ff" d="M518.44,-396.94C504.76,-387.95 487.76,-376.77 474.11,-367.8"/>
<polygon fill="#63b8ff" stroke="#63b8ff" points="476.4,-365.12 466.12,-362.55 472.55,-370.97 476.4,-365.12"/>
</a>
</g>
</g>
<!-- Node3 -->
<g id="Node000003" class="node">
<title>Node3</title>
<g id="a_Node000003"><a xlink:href="sock_2udp_8h.html" target="_top" xlink:title="UDP sock definitions.">
<polygon fill="white" stroke="#666666" points="543.5,-304.5 456.25,-304.5 456.25,-283.75 543.5,-283.75 543.5,-304.5"/>
<text text-anchor="middle" x="499.88" y="-291" font-family="Helvetica,sans-Serif" font-size="10.00">net/sock/udp.h</text>
</a>
</g>
</g>
<!-- Node1&#45;&gt;Node3 -->
<g id="edge2_Node000001_Node000003" class="edge">
<title>Node1&#45;&gt;Node3</title>
<g id="a_edge2_Node000001_Node000003"><a xlink:title=" ">
<path fill="none" stroke="#63b8ff" d="M534.66,-396.96C529.69,-386.87 523.45,-373.5 518.88,-361.25 513.31,-346.32 508.39,-329 504.95,-315.83"/>
<polygon fill="#63b8ff" stroke="#63b8ff" points="508.35,-315 502.5,-306.16 501.56,-316.71 508.35,-315"/>
</a>
</g>
</g>
<!-- Node21 -->
<g id="Node000021" class="node">
<title>Node21</title>
<g id="a_Node000021"><a xlink:href="credman_8h.html" target="_top" xlink:title="(D)TLS credentials management module definitions">
<polygon fill="white" stroke="#666666" points="790.13,-361.25 703.63,-361.25 703.63,-340.5 790.13,-340.5 790.13,-361.25"/>
<text text-anchor="middle" x="746.88" y="-347.75" font-family="Helvetica,sans-Serif" font-size="10.00">net/credman.h</text>
</a>
</g>
</g>
<!-- Node1&#45;&gt;Node21 -->
<g id="edge31_Node000001_Node000021" class="edge">
<title>Node1&#45;&gt;Node21</title>
<g id="a_edge31_Node000001_Node000021"><a xlink:title=" ">
<path fill="none" stroke="#63b8ff" d="M597.01,-396.78C630.23,-386.83 672.21,-374.25 703.29,-364.94"/>
<polygon fill="#63b8ff" stroke="#63b8ff" points="704.18,-368.32 712.76,-362.1 702.17,-361.62 704.18,-368.32"/>
</a>
</g>
</g>
<!-- Node23 -->
<g id="Node000023" class="node">
<title>Node23</title>
<g id="a_Node000023"><a xlink:href="creds_8h.html" target="_top" xlink:title="DTLS sock definitions.">
<polygon fill="white" stroke="#666666" points="644.13,-361.25 527.63,-361.25 527.63,-340.5 644.13,-340.5 644.13,-361.25"/>
<text text-anchor="middle" x="585.88" y="-347.75" font-family="Helvetica,sans-Serif" font-size="10.00">net/sock/dtls/creds.h</text>
</a>
</g>
</g>
<!-- Node1&#45;&gt;Node23 -->
<g id="edge34_Node000001_Node000023" class="edge">
<title>Node1&#45;&gt;Node23</title>
<g id="a_edge34_Node000001_Node000023"><a xlink:title=" ">
<path fill="none" stroke="#63b8ff" d="M554.18,-396.94C559.77,-388.99 566.56,-379.34 572.41,-371.02"/>
<polygon fill="#63b8ff" stroke="#63b8ff" points="575.19,-373.15 578.08,-362.95 569.47,-369.12 575.19,-373.15"/>
</a>
</g>
</g>
<!-- Node4 -->
<g id="Node000004" class="node">
<title>Node4</title>
<g id="a_Node000004"><a xlink:href="assert_8h.html" target="_top" xlink:title="POSIX.1&#45;2008 compliant version of the assert macro.">
<polygon fill="white" stroke="#666666" points="673.38,-191 618.38,-191 618.38,-170.25 673.38,-170.25 673.38,-191"/>
<text text-anchor="middle" x="645.88" y="-177.5" font-family="Helvetica,sans-Serif" font-size="10.00">assert.h</text>
</a>
</g>
</g>
<!-- Node3&#45;&gt;Node4 -->
<g id="edge3_Node000003_Node000004" class="edge">
<title>Node3&#45;&gt;Node4</title>
<g id="a_edge3_Node000003_Node000004"><a xlink:title=" ">
<path fill="none" stroke="#63b8ff" d="M543.96,-293C617.75,-291.76 761.35,-284.54 792.88,-247.75 825.79,-209.35 738.96,-192.21 685.06,-185.45"/>
<polygon fill="#63b8ff" stroke="#63b8ff" points="685.63,-182 675.29,-184.31 684.81,-188.95 685.63,-182"/>
</a>
</g>
</g>
<!-- Node5 -->
<g id="Node000005" class="node">
<title>Node5</title>
<g id="a_Node000005"><a xlink:title=" ">
<polygon fill="#e0e0e0" stroke="#999999" points="290.25,-20.75 237.5,-20.75 237.5,0 290.25,0 290.25,-20.75"/>
<text text-anchor="middle" x="263.88" y="-7.25" font-family="Helvetica,sans-Serif" font-size="10.00">stdint.h</text>
</a>
</g>
</g>
<!-- Node3&#45;&gt;Node5 -->
<g id="edge6_Node000003_Node000005" class="edge">
<title>Node3&#45;&gt;Node5</title>
<g id="a_edge6_Node000003_Node000005"><a xlink:title=" ">
<path fill="none" stroke="#63b8ff" d="M455.99,-285.41C434.3,-279.14 410.01,-267.88 396.88,-247.75 350.5,-176.63 450.59,-125.58 400.88,-56.75 378.47,-25.73 334.03,-15.57 301.83,-12.42"/>
<polygon fill="#63b8ff" stroke="#63b8ff" points="302.33,-8.95 292.09,-11.67 301.79,-15.93 302.33,-8.95"/>
</a>
</g>
</g>
<!-- Node6 -->
<g id="Node000006" class="node">
<title>Node6</title>
<g id="a_Node000006"><a xlink:href="errno_8h.html" target="_top" xlink:title=" ">
<polygon fill="white" stroke="#666666" points="456.13,-247.75 405.63,-247.75 405.63,-227 456.13,-227 456.13,-247.75"/>
<text text-anchor="middle" x="430.88" y="-234.25" font-family="Helvetica,sans-Serif" font-size="10.00">errno.h</text>
</a>
</g>
</g>
<!-- Node3&#45;&gt;Node6 -->
<g id="edge5_Node000003_Node000006" class="edge">
<title>Node3&#45;&gt;Node6</title>
<g id="a_edge5_Node000003_Node000006"><a xlink:title=" ">
<path fill="none" stroke="#63b8ff" d="M487.54,-283.34C477.63,-275.47 463.49,-264.25 451.82,-254.99"/>
<polygon fill="#63b8ff" stroke="#63b8ff" points="454.3,-252.49 444.29,-249.02 449.95,-257.98 454.3,-252.49"/>
</a>
</g>
</g>
<!-- Node7 -->
<g id="Node000007" class="node">
<title>Node7</title>
<g id="a_Node000007"><a xlink:title=" ">
<polygon fill="#e0e0e0" stroke="#999999" points="525.88,-247.75 473.88,-247.75 473.88,-227 525.88,-227 525.88,-247.75"/>
<text text-anchor="middle" x="499.88" y="-234.25" font-family="Helvetica,sans-Serif" font-size="10.00">stdlib.h</text>
</a>
</g>
</g>
<!-- Node3&#45;&gt;Node7 -->
<g id="edge7_Node000003_Node000007" class="edge">
<title>Node3&#45;&gt;Node7</title>
<g id="a_edge7_Node000003_Node000007"><a xlink:title=" ">
<path fill="none" stroke="#63b8ff" d="M499.88,-283.34C499.88,-276.72 499.88,-267.72 499.88,-259.52"/>
<polygon fill="#63b8ff" stroke="#63b8ff" points="503.38,-259.59 499.88,-249.59 496.38,-259.59 503.38,-259.59"/>
</a>
</g>
</g>
<!-- Node8 -->
<g id="Node000008" class="node">
<title>Node8</title>
<g id="a_Node000008"><a xlink:title=" ">
<polygon fill="#e0e0e0" stroke="#999999" points="615.63,-247.75 544.13,-247.75 544.13,-227 615.63,-227 615.63,-247.75"/>
<text text-anchor="middle" x="579.88" y="-234.25" font-family="Helvetica,sans-Serif" font-size="10.00">sys/types.h</text>
</a>
</g>
</g>
<!-- Node3&#45;&gt;Node8 -->
<g id="edge8_Node000003_Node000008" class="edge">
<title>Node3&#45;&gt;Node8</title>
<g id="a_edge8_Node000003_Node000008"><a xlink:title=" ">
<path fill="none" stroke="#63b8ff" d="M514.18,-283.34C525.9,-275.32 542.72,-263.81 556.41,-254.44"/>
<polygon fill="#63b8ff" stroke="#63b8ff" points="558.18,-257.47 564.45,-248.93 554.22,-251.69 558.18,-257.47"/>
</a>
</g>
</g>
<!-- Node9 -->
<g id="Node000009" class="node">
<title>Node9</title>
<g id="a_Node000009"><a xlink:href="af_8h.html" target="_top" xlink:title="Global UNIX address family definitions.">
<polygon fill="white" stroke="#666666" points="686.25,-247.75 633.5,-247.75 633.5,-227 686.25,-227 686.25,-247.75"/>
<text text-anchor="middle" x="659.88" y="-234.25" font-family="Helvetica,sans-Serif" font-size="10.00">net/af.h</text>
</a>
</g>
</g>
<!-- Node3&#45;&gt;Node9 -->
<g id="edge9_Node000003_Node000009" class="edge">
<title>Node3&#45;&gt;Node9</title>
<g id="a_edge9_Node000003_Node000009"><a xlink:title=" ">
<path fill="none" stroke="#63b8ff" d="M528.48,-283.34C554.67,-274.38 593.6,-261.06 622.29,-251.24"/>
<polygon fill="#63b8ff" stroke="#63b8ff" points="623.36,-254.57 631.69,-248.02 621.09,-247.95 623.36,-254.57"/>
</a>
</g>
</g>
<!-- Node10 -->
<g id="Node000010" class="node">
<title>Node10</title>
<g id="a_Node000010"><a xlink:href="sock_8h.html" target="_top" xlink:title="Common sock API definitions.">
<polygon fill="white" stroke="#666666" points="116,-191 49.75,-191 49.75,-170.25 116,-170.25 116,-191"/>
<text text-anchor="middle" x="82.88" y="-177.5" font-family="Helvetica,sans-Serif" font-size="10.00">net/sock.h</text>
</a>
</g>
</g>
<!-- Node3&#45;&gt;Node10 -->
<g id="edge10_Node000003_Node000010" class="edge">
<title>Node3&#45;&gt;Node10</title>
<g id="a_edge10_Node000003_Node000010"><a xlink:title=" ">
<path fill="none" stroke="#63b8ff" d="M455.9,-289.3C401.62,-283.78 306.91,-271.51 228.88,-247.75 185.92,-234.67 139.1,-211.8 110.36,-196.69"/>
<polygon fill="#63b8ff" stroke="#63b8ff" points="112.09,-193.64 101.62,-192.02 108.79,-199.81 112.09,-193.64"/>
</a>
</g>
</g>
<!-- Node13 -->
<g id="Node000013" class="node">
<title>Node13</title>
<g id="a_Node000013"><a xlink:href="ipv4_2addr_8h.html" target="_top" xlink:title="IPv4 address type and helper functions definitions.">
<polygon fill="white" stroke="#666666" points="257.63,-191 168.13,-191 168.13,-170.25 257.63,-170.25 257.63,-191"/>
<text text-anchor="middle" x="212.88" y="-177.5" font-family="Helvetica,sans-Serif" font-size="10.00">net/ipv4/addr.h</text>
</a>
</g>
</g>
<!-- Node3&#45;&gt;Node13 -->
<g id="edge14_Node000003_Node000013" class="edge">
<title>Node3&#45;&gt;Node13</title>
<g id="a_edge14_Node000003_Node000013"><a xlink:title=" ">
<path fill="none" stroke="#63b8ff" d="M455.87,-289.56C393.47,-283.76 283.23,-270.59 250.88,-247.75 235.17,-236.66 225.06,-216.88 219.25,-201.84"/>
<polygon fill="#63b8ff" stroke="#63b8ff" points="222.58,-200.76 215.98,-192.47 215.97,-203.06 222.58,-200.76"/>
</a>
</g>
</g>
<!-- Node19 -->
<g id="Node000019" class="node">
<title>Node19</title>
<g id="a_Node000019"><a xlink:href="ipv6_2addr_8h.html" target="_top" xlink:title="Definitions for IPv6 addresses.">
<polygon fill="white" stroke="#666666" points="349.63,-247.75 260.13,-247.75 260.13,-227 349.63,-227 349.63,-247.75"/>
<text text-anchor="middle" x="304.88" y="-234.25" font-family="Helvetica,sans-Serif" font-size="10.00">net/ipv6/addr.h</text>
</a>
</g>
</g>
<!-- Node3&#45;&gt;Node19 -->
<g id="edge25_Node000003_Node000019" class="edge">
<title>Node3&#45;&gt;Node19</title>
<g id="a_edge25_Node000003_Node000019"><a xlink:title=" ">
<path fill="none" stroke="#63b8ff" d="M465.02,-283.34C433.09,-274.37 385.62,-261.04 350.65,-251.23"/>
<polygon fill="#63b8ff" stroke="#63b8ff" points="351.8,-247.91 341.22,-248.58 349.91,-254.65 351.8,-247.91"/>
</a>
</g>
</g>
<!-- Node20 -->
<g id="Node000020" class="node">
<title>Node20</title>
<g id="a_Node000020"><a xlink:title=" ">
<polygon fill="#e0e0e0" stroke="#999999" points="783.75,-247.75 704,-247.75 704,-227 783.75,-227 783.75,-247.75"/>
<text text-anchor="middle" x="743.88" y="-234.25" font-family="Helvetica,sans-Serif" font-size="10.00">sock_types.h</text>
</a>
</g>
</g>
<!-- Node3&#45;&gt;Node20 -->
<g id="edge30_Node000003_Node000020" class="edge">
<title>Node3&#45;&gt;Node20</title>
<g id="a_edge30_Node000003_Node000020"><a xlink:title=" ">
<path fill="none" stroke="#63b8ff" d="M543.78,-283.27C585.56,-273.9 648.42,-259.79 692.51,-249.9"/>
<polygon fill="#63b8ff" stroke="#63b8ff" points="693.1,-253.36 702.09,-247.75 691.57,-246.53 693.1,-253.36"/>
</a>
</g>
</g>
<!-- Node4&#45;&gt;Node5 -->
<g id="edge4_Node000004_Node000005" class="edge">
<title>Node4&#45;&gt;Node5</title>
<g id="a_edge4_Node000004_Node000005"><a xlink:title=" ">
<path fill="none" stroke="#63b8ff" d="M632.16,-169.92C599.36,-147.14 513.26,-89.66 433.88,-56.75 390.02,-38.56 336.75,-25.74 301.67,-18.46"/>
<polygon fill="#63b8ff" stroke="#63b8ff" points="302.49,-15.06 291.99,-16.51 301.1,-21.92 302.49,-15.06"/>
</a>
</g>
</g>
<!-- Node10&#45;&gt;Node5 -->
<g id="edge11_Node000010_Node000005" class="edge">
<title>Node10&#45;&gt;Node5</title>
<g id="a_edge11_Node000010_Node000005"><a xlink:title=" ">
<path fill="none" stroke="#63b8ff" d="M53.62,-169.81C25.2,-158.56 -11.56,-138.44 3.88,-113.5 51.15,-37.16 166.05,-17.82 226.03,-12.97"/>
<polygon fill="#63b8ff" stroke="#63b8ff" points="226.01,-16.48 235.74,-12.29 225.52,-9.5 226.01,-16.48"/>
</a>
</g>
</g>
<!-- Node11 -->
<g id="Node000011" class="node">
<title>Node11</title>
<g id="a_Node000011"><a xlink:title=" ">
<polygon fill="#e0e0e0" stroke="#999999" points="135.38,-134.25 80.38,-134.25 80.38,-113.5 135.38,-113.5 135.38,-134.25"/>
<text text-anchor="middle" x="107.88" y="-120.75" font-family="Helvetica,sans-Serif" font-size="10.00">stddef.h</text>
</a>
</g>
</g>
<!-- Node10&#45;&gt;Node11 -->
<g id="edge12_Node000010_Node000011" class="edge">
<title>Node10&#45;&gt;Node11</title>
<g id="a_edge12_Node000010_Node000011"><a xlink:title=" ">
<path fill="none" stroke="#63b8ff" d="M87.35,-169.84C90.51,-162.91 94.87,-153.37 98.75,-144.86"/>
<polygon fill="#63b8ff" stroke="#63b8ff" points="101.85,-146.51 102.82,-135.96 95.48,-143.6 101.85,-146.51"/>
</a>
</g>
</g>
<!-- Node12 -->
<g id="Node000012" class="node">
<title>Node12</title>
<g id="a_Node000012"><a xlink:href="iolist_8h.html" target="_top" xlink:title="iolist scatter / gather IO">
<polygon fill="white" stroke="#666666" points="62.38,-134.25 13.38,-134.25 13.38,-113.5 62.38,-113.5 62.38,-134.25"/>
<text text-anchor="middle" x="37.88" y="-120.75" font-family="Helvetica,sans-Serif" font-size="10.00">iolist.h</text>
</a>
</g>
</g>
<!-- Node10&#45;&gt;Node12 -->
<g id="edge13_Node000010_Node000012" class="edge">
<title>Node10&#45;&gt;Node12</title>
<g id="a_edge13_Node000010_Node000012"><a xlink:title=" ">
<path fill="none" stroke="#63b8ff" d="M74.83,-169.84C68.82,-162.52 60.41,-152.29 53.14,-143.44"/>
<polygon fill="#63b8ff" stroke="#63b8ff" points="55.87,-141.25 46.82,-135.75 50.46,-145.7 55.87,-141.25"/>
</a>
</g>
</g>
<!-- Node13&#45;&gt;Node5 -->
<g id="edge16_Node000013_Node000005" class="edge">
<title>Node13&#45;&gt;Node5</title>
<g id="a_edge16_Node000013_Node000005"><a xlink:title=" ">
<path fill="none" stroke="#63b8ff" d="M199.81,-169.78C179.2,-153.35 139.95,-118.09 124.88,-77.5 121.67,-68.85 119.46,-64.21 124.88,-56.75 147.71,-25.27 192.99,-15.22 225.68,-12.22"/>
<polygon fill="#63b8ff" stroke="#63b8ff" points="225.85,-15.72 235.58,-11.52 225.35,-8.74 225.85,-15.72"/>
</a>
</g>
</g>
<!-- Node13&#45;&gt;Node11 -->
<g id="edge17_Node000013_Node000011" class="edge">
<title>Node13&#45;&gt;Node11</title>
<g id="a_edge17_Node000013_Node000011"><a xlink:title=" ">
<path fill="none" stroke="#63b8ff" d="M194.11,-169.84C178.13,-161.51 154.93,-149.41 136.61,-139.86"/>
<polygon fill="#63b8ff" stroke="#63b8ff" points="138.32,-136.8 127.83,-135.28 135.08,-143.01 138.32,-136.8"/>
</a>
</g>
</g>
<!-- Node14 -->
<g id="Node000014" class="node">
<title>Node14</title>
<g id="a_Node000014"><a xlink:title=" ">
<polygon fill="#e0e0e0" stroke="#999999" points="344.38,-134.25 283.38,-134.25 283.38,-113.5 344.38,-113.5 344.38,-134.25"/>
<text text-anchor="middle" x="313.88" y="-120.75" font-family="Helvetica,sans-Serif" font-size="10.00">stdbool.h</text>
</a>
</g>
</g>
<!-- Node13&#45;&gt;Node14 -->
<g id="edge15_Node000013_Node000014" class="edge">
<title>Node13&#45;&gt;Node14</title>
<g id="a_edge15_Node000013_Node000014"><a xlink:title=" ">
<path fill="none" stroke="#63b8ff" d="M230.94,-169.84C246.3,-161.51 268.62,-149.41 286.24,-139.86"/>
<polygon fill="#63b8ff" stroke="#63b8ff" points="287.52,-143.14 294.65,-135.3 284.19,-136.99 287.52,-143.14"/>
</a>
</g>
</g>
<!-- Node15 -->
<g id="Node000015" class="node">
<title>Node15</title>
<g id="a_Node000015"><a xlink:href="byteorder_8h.html" target="_top" xlink:title="Functions to work with different byte orders.">
<polygon fill="white" stroke="#666666" points="265,-134.25 192.75,-134.25 192.75,-113.5 265,-113.5 265,-134.25"/>
<text text-anchor="middle" x="228.88" y="-120.75" font-family="Helvetica,sans-Serif" font-size="10.00">byteorder.h</text>
</a>
</g>
</g>
<!-- Node13&#45;&gt;Node15 -->
<g id="edge18_Node000013_Node000015" class="edge">
<title>Node13&#45;&gt;Node15</title>
<g id="a_edge18_Node000013_Node000015"><a xlink:title=" ">
<path fill="none" stroke="#63b8ff" d="M215.74,-169.84C217.72,-163.06 220.43,-153.8 222.87,-145.44"/>
<polygon fill="#63b8ff" stroke="#63b8ff" points="226.17,-146.61 225.62,-136.03 219.45,-144.65 226.17,-146.61"/>
</a>
</g>
</g>
<!-- Node15&#45;&gt;Node5 -->
<g id="edge20_Node000015_Node000005" class="edge">
<title>Node15&#45;&gt;Node5</title>
<g id="a_edge20_Node000015_Node000005"><a xlink:title=" ">
<path fill="none" stroke="#63b8ff" d="M231.86,-113.37C237.49,-95.44 249.79,-56.25 257.4,-32.01"/>
<polygon fill="#63b8ff" stroke="#63b8ff" points="260.69,-33.21 260.35,-22.62 254.02,-31.11 260.69,-33.21"/>
</a>
</g>
</g>
<!-- Node16 -->
<g id="Node000016" class="node">
<title>Node16</title>
<g id="a_Node000016"><a xlink:title=" ">
<polygon fill="#e0e0e0" stroke="#999999" points="392.25,-77.5 339.5,-77.5 339.5,-56.75 392.25,-56.75 392.25,-77.5"/>
<text text-anchor="middle" x="365.88" y="-64" font-family="Helvetica,sans-Serif" font-size="10.00">string.h</text>
</a>
</g>
</g>
<!-- Node15&#45;&gt;Node16 -->
<g id="edge19_Node000015_Node000016" class="edge">
<title>Node15&#45;&gt;Node16</title>
<g id="a_edge19_Node000015_Node000016"><a xlink:title=" ">
<path fill="none" stroke="#63b8ff" d="M253.37,-113.09C275,-104.44 306.77,-91.75 331.04,-82.05"/>
<polygon fill="#63b8ff" stroke="#63b8ff" points="332.21,-85.35 340.19,-78.39 329.61,-78.85 332.21,-85.35"/>
</a>
</g>
</g>
<!-- Node17 -->
<g id="Node000017" class="node">
<title>Node17</title>
<g id="a_Node000017"><a xlink:href="endian_8h.html" target="_top" xlink:title="libc header for endian conversion">
<polygon fill="white" stroke="#666666" points="321.88,-77.5 263.88,-77.5 263.88,-56.75 321.88,-56.75 321.88,-77.5"/>
<text text-anchor="middle" x="292.88" y="-64" font-family="Helvetica,sans-Serif" font-size="10.00">endian.h</text>
</a>
</g>
</g>
<!-- Node15&#45;&gt;Node17 -->
<g id="edge21_Node000015_Node000017" class="edge">
<title>Node15&#45;&gt;Node17</title>
<g id="a_edge21_Node000015_Node000017"><a xlink:title=" ">
<path fill="none" stroke="#63b8ff" d="M240.32,-113.09C249.33,-105.38 262.11,-94.45 272.81,-85.29"/>
<polygon fill="#63b8ff" stroke="#63b8ff" points="275.06,-87.97 280.39,-78.81 270.51,-82.65 275.06,-87.97"/>
</a>
</g>
</g>
<!-- Node18 -->
<g id="Node000018" class="node">
<title>Node18</title>
<g id="a_Node000018"><a xlink:href="unaligned_8h.html" target="_top" xlink:title="Unaligned but safe memory access functions.">
<polygon fill="white" stroke="#666666" points="207.38,-77.5 134.38,-77.5 134.38,-56.75 207.38,-56.75 207.38,-77.5"/>
<text text-anchor="middle" x="170.88" y="-64" font-family="Helvetica,sans-Serif" font-size="10.00">unaligned.h</text>
</a>
</g>
</g>
<!-- Node15&#45;&gt;Node18 -->
<g id="edge23_Node000015_Node000018" class="edge">
<title>Node15&#45;&gt;Node18</title>
<g id="a_edge23_Node000015_Node000018"><a xlink:title=" ">
<path fill="none" stroke="#63b8ff" d="M218.51,-113.09C210.43,-105.46 199,-94.67 189.36,-85.57"/>
<polygon fill="#63b8ff" stroke="#63b8ff" points="191.93,-83.19 182.26,-78.87 187.13,-88.28 191.93,-83.19"/>
</a>
</g>
</g>
<!-- Node17&#45;&gt;Node5 -->
<g id="edge22_Node000017_Node000005" class="edge">
<title>Node17&#45;&gt;Node5</title>
<g id="a_edge22_Node000017_Node000005"><a xlink:title=" ">
<path fill="none" stroke="#63b8ff" d="M287.69,-56.34C283.98,-49.33 278.86,-39.66 274.32,-31.08"/>
<polygon fill="#63b8ff" stroke="#63b8ff" points="277.5,-29.61 269.73,-22.42 271.32,-32.89 277.5,-29.61"/>
</a>
</g>
</g>
<!-- Node18&#45;&gt;Node5 -->
<g id="edge24_Node000018_Node000005" class="edge">
<title>Node18&#45;&gt;Node5</title>
<g id="a_edge24_Node000018_Node000005"><a xlink:title=" ">
<path fill="none" stroke="#63b8ff" d="M187.51,-56.34C201.39,-48.16 221.44,-36.36 237.51,-26.9"/>
<polygon fill="#63b8ff" stroke="#63b8ff" points="239.25,-29.94 246.09,-21.85 235.7,-23.9 239.25,-29.94"/>
</a>
</g>
</g>
<!-- Node19&#45;&gt;Node13 -->
<g id="edge29_Node000019_Node000013" class="edge">
<title>Node19&#45;&gt;Node13</title>
<g id="a_edge29_Node000019_Node000013"><a xlink:title=" ">
<path fill="none" stroke="#63b8ff" d="M288.43,-226.59C274.69,-218.41 254.86,-206.61 238.96,-197.15"/>
<polygon fill="#63b8ff" stroke="#63b8ff" points="240.87,-194.21 230.49,-192.1 237.29,-200.22 240.87,-194.21"/>
</a>
</g>
</g>
<!-- Node19&#45;&gt;Node14 -->
<g id="edge26_Node000019_Node000014" class="edge">
<title>Node19&#45;&gt;Node14</title>
<g id="a_edge26_Node000019_Node000014"><a xlink:title=" ">
<path fill="none" stroke="#63b8ff" d="M305.65,-226.87C307.09,-209.02 310.23,-170.11 312.19,-145.84"/>
<polygon fill="#63b8ff" stroke="#63b8ff" points="315.65,-146.43 312.97,-136.18 308.67,-145.87 315.65,-146.43"/>
</a>
</g>
</g>
<!-- Node19&#45;&gt;Node15 -->
<g id="edge28_Node000019_Node000015" class="edge">
<title>Node19&#45;&gt;Node15</title>
<g id="a_edge28_Node000019_Node000015"><a xlink:title=" ">
<path fill="none" stroke="#63b8ff" d="M299.97,-226.64C293.18,-213.45 280.22,-189.36 266.88,-170.25 260.37,-160.92 252.39,-151.18 245.42,-143.12"/>
<polygon fill="#63b8ff" stroke="#63b8ff" points="248.1,-140.88 238.86,-135.7 242.86,-145.51 248.1,-140.88"/>
</a>
</g>
</g>
<!-- Node19&#45;&gt;Node16 -->
<g id="edge27_Node000019_Node000016" class="edge">
<title>Node19&#45;&gt;Node16</title>
<g id="a_edge27_Node000019_Node000016"><a xlink:title=" ">
<path fill="none" stroke="#63b8ff" d="M310.49,-226.56C320.46,-208.74 341.29,-169.62 352.88,-134.25 357.74,-119.42 361.06,-102.1 363.13,-88.9"/>
<polygon fill="#63b8ff" stroke="#63b8ff" points="366.57,-89.62 364.53,-79.23 359.64,-88.63 366.57,-89.62"/>
</a>
</g>
</g>
<!-- Node21&#45;&gt;Node5 -->
<g id="edge32_Node000021_Node000005" class="edge">
<title>Node21&#45;&gt;Node5</title>
<g id="a_edge32_Node000021_Node000005"><a xlink:title=" ">
<path fill="none" stroke="#63b8ff" d="M766.25,-340.15C796.09,-323.65 849.88,-287.13 849.88,-238.38 849.88,-238.38 849.88,-238.38 849.88,-122.88 849.88,-66.89 431.74,-25.93 301.88,-14.56"/>
<polygon fill="#63b8ff" stroke="#63b8ff" points="302.35,-11.08 292.09,-13.71 301.75,-18.06 302.35,-11.08"/>
</a>
</g>
</g>
<!-- Node22 -->
<g id="Node000022" class="node">
<title>Node22</title>
<g id="a_Node000022"><a xlink:href="modules_8h.html" target="_top" xlink:title="Common macros and compiler attributes/pragmas configuration.">
<polygon fill="white" stroke="#666666" points="780.38,-304.5 713.38,-304.5 713.38,-283.75 780.38,-283.75 780.38,-304.5"/>
<text text-anchor="middle" x="746.88" y="-291" font-family="Helvetica,sans-Serif" font-size="10.00">modules.h</text>
</a>
</g>
</g>
<!-- Node21&#45;&gt;Node22 -->
<g id="edge33_Node000021_Node000022" class="edge">
<title>Node21&#45;&gt;Node22</title>
<g id="a_edge33_Node000021_Node000022"><a xlink:title=" ">
<path fill="none" stroke="#63b8ff" d="M746.88,-340.09C746.88,-333.47 746.88,-324.47 746.88,-316.27"/>
<polygon fill="#63b8ff" stroke="#63b8ff" points="750.38,-316.34 746.88,-306.34 743.38,-316.34 750.38,-316.34"/>
</a>
</g>
</g>
<!-- Node23&#45;&gt;Node3 -->
<g id="edge35_Node000023_Node000003" class="edge">
<title>Node23&#45;&gt;Node3</title>
<g id="a_edge35_Node000023_Node000003"><a xlink:title=" ">
<path fill="none" stroke="#63b8ff" d="M570.5,-340.09C557.79,-331.99 539.48,-320.33 524.69,-310.92"/>
<polygon fill="#63b8ff" stroke="#63b8ff" points="526.71,-308.06 516.4,-305.64 522.95,-313.96 526.71,-308.06"/>
</a>
</g>
</g>
</g>
</svg>
