<?xml version="1.0" encoding="UTF-8" standalone="no"?>
<!DOCTYPE svg PUBLIC "-//W3C//DTD SVG 1.1//EN"
 "http://www.w3.org/Graphics/SVG/1.1/DTD/svg11.dtd">
<!-- Generated by graphviz version 12.1.2 (0)
 -->
<!-- Title: sys/posix/include/sys/socket.h Pages: 1 -->
<svg width="873pt" height="503pt"
 viewBox="0.00 0.00 872.75 502.50" xmlns="http://www.w3.org/2000/svg" xmlns:xlink="http://www.w3.org/1999/xlink">
<g id="graph0" class="graph" transform="scale(1 1) rotate(0) translate(4 498.5)">
<title>sys/posix/include/sys/socket.h</title>
<!-- Node1 -->
<g id="Node000001" class="node">
<title>Node1</title>
<g id="a_Node000001"><a xlink:title="Main socket header.">
<polygon fill="#999999" stroke="#666666" points="448.62,-494.5 329.12,-494.5 329.12,-461 448.62,-461 448.62,-494.5"/>
<text text-anchor="start" x="337.12" y="-481" font-family="Helvetica,sans-Serif" font-size="10.00">sys/posix/include/sys</text>
<text text-anchor="middle" x="388.88" y="-468.25" font-family="Helvetica,sans-Serif" font-size="10.00">/socket.h</text>
</a>
</g>
</g>
<!-- Node2 -->
<g id="Node000002" class="node">
<title>Node2</title>
<g id="a_Node000002"><a xlink:href="in_8h.html" target="_top" xlink:title="Main socket header.">
<polygon fill="white" stroke="#666666" points="468.12,-425 309.62,-425 309.62,-404.25 468.12,-404.25 468.12,-425"/>
<text text-anchor="middle" x="388.88" y="-411.5" font-family="Helvetica,sans-Serif" font-size="10.00">sys/posix/include/netinet/in.h</text>
</a>
</g>
</g>
<!-- Node1&#45;&gt;Node2 -->
<g id="edge1_Node000001_Node000002" class="edge">
<title>Node1&#45;&gt;Node2</title>
<g id="a_edge1_Node000001_Node000002"><a xlink:title=" ">
<path fill="none" stroke="#63b8ff" d="M388.88,-449.19C388.88,-440.71 388.88,-431.92 388.88,-425.47"/>
<polygon fill="#63b8ff" stroke="#63b8ff" points="385.38,-449.18 388.88,-459.18 392.38,-449.18 385.38,-449.18"/>
</a>
</g>
</g>
<!-- Node3 -->
<g id="Node000003" class="node">
<title>Node3</title>
<g id="a_Node000003"><a xlink:href="inet_8h.html" target="_top" xlink:title="Definitions for internet operations.">
<polygon fill="white" stroke="#666666" points="451.25,-368.25 326.5,-368.25 326.5,-334.75 451.25,-334.75 451.25,-368.25"/>
<text text-anchor="start" x="334.5" y="-354.75" font-family="Helvetica,sans-Serif" font-size="10.00">sys/posix/include/arpa</text>
<text text-anchor="middle" x="388.88" y="-342" font-family="Helvetica,sans-Serif" font-size="10.00">/inet.h</text>
</a>
</g>
</g>
<!-- Node2&#45;&gt;Node3 -->
<g id="edge2_Node000002_Node000003" class="edge">
<title>Node2&#45;&gt;Node3</title>
<g id="a_edge2_Node000002_Node000003"><a xlink:title=" ">
<path fill="none" stroke="#63b8ff" d="M388.88,-392.34C388.88,-384.6 388.88,-375.97 388.88,-368.73"/>
<polygon fill="#63b8ff" stroke="#63b8ff" points="385.38,-392.29 388.88,-402.29 392.38,-392.29 385.38,-392.29"/>
</a>
</g>
</g>
<!-- Node4 -->
<g id="Node000004" class="node">
<title>Node4</title>
<g id="a_Node000004"><a xlink:href="nanocoap_8h.html" target="_top" xlink:title="nanocoap API">
<polygon fill="white" stroke="#666666" points="386.25,-298.75 237.5,-298.75 237.5,-278 386.25,-278 386.25,-298.75"/>
<text text-anchor="middle" x="311.88" y="-285.25" font-family="Helvetica,sans-Serif" font-size="10.00">sys/include/net/nanocoap.h</text>
</a>
</g>
</g>
<!-- Node3&#45;&gt;Node4 -->
<g id="edge3_Node000003_Node000004" class="edge">
<title>Node3&#45;&gt;Node4</title>
<g id="a_edge3_Node000003_Node000004"><a xlink:title=" ">
<path fill="none" stroke="#63b8ff" d="M359.63,-327.28C347.38,-317.56 333.81,-306.79 324.27,-299.22"/>
<polygon fill="#63b8ff" stroke="#63b8ff" points="357.45,-330.02 367.46,-333.5 361.8,-324.54 357.45,-330.02"/>
</a>
</g>
</g>
<!-- Node17 -->
<g id="Node000017" class="node">
<title>Node17</title>
<g id="a_Node000017"><a xlink:href="uhcp_8h.html" target="_top" xlink:title="UHCP header.">
<polygon fill="white" stroke="#666666" points="529.25,-298.75 404.5,-298.75 404.5,-278 529.25,-278 529.25,-298.75"/>
<text text-anchor="middle" x="466.88" y="-285.25" font-family="Helvetica,sans-Serif" font-size="10.00">sys/include/net/uhcp.h</text>
</a>
</g>
</g>
<!-- Node3&#45;&gt;Node17 -->
<g id="edge18_Node000003_Node000017" class="edge">
<title>Node3&#45;&gt;Node17</title>
<g id="a_edge18_Node000003_Node000017"><a xlink:title=" ">
<path fill="none" stroke="#63b8ff" d="M418.14,-327.57C430.64,-317.77 444.56,-306.86 454.32,-299.22"/>
<polygon fill="#63b8ff" stroke="#63b8ff" points="416.27,-324.58 410.56,-333.51 420.59,-330.09 416.27,-324.58"/>
</a>
</g>
</g>
<!-- Node5 -->
<g id="Node000005" class="node">
<title>Node5</title>
<g id="a_Node000005"><a xlink:href="lc_8h.html" target="_top" xlink:title="CoRE Resource Directory lookup interface.">
<polygon fill="white" stroke="#666666" points="136.75,-235.62 3,-235.62 3,-214.88 136.75,-214.88 136.75,-235.62"/>
<text text-anchor="middle" x="69.88" y="-222.12" font-family="Helvetica,sans-Serif" font-size="10.00">sys/include/net/cord/lc.h</text>
</a>
</g>
</g>
<!-- Node4&#45;&gt;Node5 -->
<g id="edge4_Node000004_Node000005" class="edge">
<title>Node4&#45;&gt;Node5</title>
<g id="a_edge4_Node000004_Node000005"><a xlink:title=" ">
<path fill="none" stroke="#63b8ff" d="M261.91,-274.75C216.44,-263.27 150.25,-246.55 108.66,-236.05"/>
<polygon fill="#63b8ff" stroke="#63b8ff" points="260.97,-278.13 271.53,-277.18 262.69,-271.34 260.97,-278.13"/>
</a>
</g>
</g>
<!-- Node6 -->
<g id="Node000006" class="node">
<title>Node6</title>
<g id="a_Node000006"><a xlink:href="gcoap_8h.html" target="_top" xlink:title="gcoap definition">
<polygon fill="white" stroke="#666666" points="276.25,-166.12 145.5,-166.12 145.5,-145.38 276.25,-145.38 276.25,-166.12"/>
<text text-anchor="middle" x="210.88" y="-152.62" font-family="Helvetica,sans-Serif" font-size="10.00">sys/include/net/gcoap.h</text>
</a>
</g>
</g>
<!-- Node4&#45;&gt;Node6 -->
<g id="edge5_Node000004_Node000006" class="edge">
<title>Node4&#45;&gt;Node6</title>
<g id="a_edge5_Node000004_Node000006"><a xlink:title=" ">
<path fill="none" stroke="#63b8ff" d="M227.3,-273.71C210.28,-266.95 194.41,-256.91 183.88,-242 167.03,-218.16 189.49,-183.36 202.61,-166.55"/>
<polygon fill="#63b8ff" stroke="#63b8ff" points="225.98,-276.95 236.58,-277 228.32,-270.36 225.98,-276.95"/>
</a>
</g>
</g>
<!-- Node9 -->
<g id="Node000009" class="node">
<title>Node9</title>
<g id="a_Node000009"><a xlink:href="forward__proxy_8h.html" target="_top" xlink:title="Definitions for the GCoAP forward proxy.">
<polygon fill="white" stroke="#666666" points="421.75,-96.62 300,-96.62 300,-63.12 421.75,-63.12 421.75,-96.62"/>
<text text-anchor="start" x="308" y="-83.12" font-family="Helvetica,sans-Serif" font-size="10.00">sys/include/net/gcoap</text>
<text text-anchor="middle" x="360.88" y="-70.38" font-family="Helvetica,sans-Serif" font-size="10.00">/forward_proxy.h</text>
</a>
</g>
</g>
<!-- Node4&#45;&gt;Node9 -->
<g id="edge10_Node000004_Node000009" class="edge">
<title>Node4&#45;&gt;Node9</title>
<g id="a_edge10_Node000004_Node000009"><a xlink:title=" ">
<path fill="none" stroke="#63b8ff" d="M327.21,-268.51C332.73,-260.74 338.45,-251.37 341.88,-242 360.36,-191.48 361.84,-126.65 361.4,-96.99"/>
<polygon fill="#63b8ff" stroke="#63b8ff" points="324.43,-266.38 321.18,-276.46 330.01,-270.61 324.43,-266.38"/>
</a>
</g>
</g>
<!-- Node11 -->
<g id="Node000011" class="node">
<title>Node11</title>
<g id="a_Node000011"><a xlink:href="nanocoap_2cache_8h.html" target="_top" xlink:title="nanocoap&#45;cache API">
<polygon fill="white" stroke="#666666" points="332.75,-242 193,-242 193,-208.5 332.75,-208.5 332.75,-242"/>
<text text-anchor="start" x="201" y="-228.5" font-family="Helvetica,sans-Serif" font-size="10.00">sys/include/net/nanocoap</text>
<text text-anchor="middle" x="262.88" y="-215.75" font-family="Helvetica,sans-Serif" font-size="10.00">/cache.h</text>
</a>
</g>
</g>
<!-- Node4&#45;&gt;Node11 -->
<g id="edge11_Node000004_Node000011" class="edge">
<title>Node4&#45;&gt;Node11</title>
<g id="a_edge11_Node000004_Node000011"><a xlink:title=" ">
<path fill="none" stroke="#63b8ff" d="M296.81,-268.58C290.12,-260.23 282.32,-250.51 275.89,-242.48"/>
<polygon fill="#63b8ff" stroke="#63b8ff" points="294.07,-270.76 303.06,-276.37 299.53,-266.38 294.07,-270.76"/>
</a>
</g>
</g>
<!-- Node12 -->
<g id="Node000012" class="node">
<title>Node12</title>
<g id="a_Node000012"><a xlink:href="fileserver_8h.html" target="_top" xlink:title="Resource handler for the CoAP file system server.">
<polygon fill="white" stroke="#666666" points="528.75,-242 389,-242 389,-208.5 528.75,-208.5 528.75,-242"/>
<text text-anchor="start" x="397" y="-228.5" font-family="Helvetica,sans-Serif" font-size="10.00">sys/include/net/nanocoap</text>
<text text-anchor="middle" x="458.88" y="-215.75" font-family="Helvetica,sans-Serif" font-size="10.00">/fileserver.h</text>
</a>
</g>
</g>
<!-- Node4&#45;&gt;Node12 -->
<g id="edge13_Node000004_Node000012" class="edge">
<title>Node4&#45;&gt;Node12</title>
<g id="a_edge13_Node000004_Node000012"><a xlink:title=" ">
<path fill="none" stroke="#63b8ff" d="M346.04,-273.17C368.1,-263.99 396.87,-252.03 419.83,-242.48"/>
<polygon fill="#63b8ff" stroke="#63b8ff" points="344.78,-269.9 336.89,-276.97 347.47,-276.37 344.78,-269.9"/>
</a>
</g>
</g>
<!-- Node13 -->
<g id="Node000013" class="node">
<title>Node13</title>
<g id="a_Node000013"><a xlink:href="nanocoap__sock_8h.html" target="_top" xlink:title="nanocoap high&#45;level API">
<polygon fill="white" stroke="#666666" points="696.75,-242 557,-242 557,-208.5 696.75,-208.5 696.75,-242"/>
<text text-anchor="start" x="565" y="-228.5" font-family="Helvetica,sans-Serif" font-size="10.00">sys/include/net/nanocoap</text>
<text text-anchor="middle" x="626.88" y="-215.75" font-family="Helvetica,sans-Serif" font-size="10.00">_sock.h</text>
</a>
</g>
</g>
<!-- Node4&#45;&gt;Node13 -->
<g id="edge14_Node000004_Node000013" class="edge">
<title>Node4&#45;&gt;Node13</title>
<g id="a_edge14_Node000004_Node000013"><a xlink:title=" ">
<path fill="none" stroke="#63b8ff" d="M373.68,-275.38C426.29,-265.17 501.85,-250.51 556.73,-239.86"/>
<polygon fill="#63b8ff" stroke="#63b8ff" points="373.12,-271.92 363.97,-277.27 374.45,-278.8 373.12,-271.92"/>
</a>
</g>
</g>
<!-- Node7 -->
<g id="Node000007" class="node">
<title>Node7</title>
<g id="a_Node000007"><a xlink:href="gcoap_2dns_8h.html" target="_top" xlink:title="gcoap_dns definitions">
<polygon fill="white" stroke="#666666" points="121.75,-96.62 0,-96.62 0,-63.12 121.75,-63.12 121.75,-96.62"/>
<text text-anchor="start" x="8" y="-83.12" font-family="Helvetica,sans-Serif" font-size="10.00">sys/include/net/gcoap</text>
<text text-anchor="middle" x="60.88" y="-70.38" font-family="Helvetica,sans-Serif" font-size="10.00">/dns.h</text>
</a>
</g>
</g>
<!-- Node6&#45;&gt;Node7 -->
<g id="edge6_Node000006_Node000007" class="edge">
<title>Node6&#45;&gt;Node7</title>
<g id="a_edge6_Node000006_Node000007"><a xlink:title=" ">
<path fill="none" stroke="#63b8ff" d="M180.88,-139.98C155.71,-127.58 119.79,-109.89 93.82,-97.1"/>
<polygon fill="#63b8ff" stroke="#63b8ff" points="179.08,-142.99 189.6,-144.27 182.17,-136.71 179.08,-142.99"/>
</a>
</g>
</g>
<!-- Node6&#45;&gt;Node9 -->
<g id="edge8_Node000006_Node000009" class="edge">
<title>Node6&#45;&gt;Node9</title>
<g id="a_edge8_Node000006_Node000009"><a xlink:title=" ">
<path fill="none" stroke="#63b8ff" d="M240.87,-139.98C266.04,-127.58 301.96,-109.89 327.93,-97.1"/>
<polygon fill="#63b8ff" stroke="#63b8ff" points="239.58,-136.71 232.15,-144.27 242.67,-142.99 239.58,-136.71"/>
</a>
</g>
</g>
<!-- Node10 -->
<g id="Node000010" class="node">
<title>Node10</title>
<g id="a_Node000010"><a xlink:href="forward__proxy__internal_8h.html" target="_top" xlink:title="Definitions for the GCoAP forward proxy internal communication.">
<polygon fill="white" stroke="#666666" points="281.5,-103 140.25,-103 140.25,-56.75 281.5,-56.75 281.5,-103"/>
<text text-anchor="start" x="148.25" y="-89.5" font-family="Helvetica,sans-Serif" font-size="10.00">sys/net/application</text>
<text text-anchor="start" x="148.25" y="-76.75" font-family="Helvetica,sans-Serif" font-size="10.00">_layer/gcoap/include</text>
<text text-anchor="middle" x="210.88" y="-64" font-family="Helvetica,sans-Serif" font-size="10.00">/forward_proxy_internal.h</text>
</a>
</g>
</g>
<!-- Node6&#45;&gt;Node10 -->
<g id="edge9_Node000006_Node000010" class="edge">
<title>Node6&#45;&gt;Node10</title>
<g id="a_edge9_Node000006_Node000010"><a xlink:title=" ">
<path fill="none" stroke="#63b8ff" d="M210.88,-133.85C210.88,-124.31 210.88,-112.99 210.88,-103.27"/>
<polygon fill="#63b8ff" stroke="#63b8ff" points="207.38,-133.58 210.88,-143.58 214.38,-133.58 207.38,-133.58"/>
</a>
</g>
</g>
<!-- Node8 -->
<g id="Node000008" class="node">
<title>Node8</title>
<g id="a_Node000008"><a xlink:href="dns_8h.html" target="_top" xlink:title="Generic DNS values.">
<polygon fill="white" stroke="#666666" points="120.25,-20.75 1.5,-20.75 1.5,0 120.25,0 120.25,-20.75"/>
<text text-anchor="middle" x="60.88" y="-7.25" font-family="Helvetica,sans-Serif" font-size="10.00">sys/include/net/dns.h</text>
</a>
</g>
</g>
<!-- Node7&#45;&gt;Node8 -->
<g id="edge7_Node000007_Node000008" class="edge">
<title>Node7&#45;&gt;Node8</title>
<g id="a_edge7_Node000007_Node000008"><a xlink:title=" ">
<path fill="none" stroke="#63b8ff" d="M60.88,-51.41C60.88,-40.71 60.88,-29.13 60.88,-21.2"/>
<polygon fill="#63b8ff" stroke="#63b8ff" points="57.38,-51.36 60.88,-61.36 64.38,-51.36 57.38,-51.36"/>
</a>
</g>
</g>
<!-- Node11&#45;&gt;Node6 -->
<g id="edge12_Node000011_Node000006" class="edge">
<title>Node11&#45;&gt;Node6</title>
<g id="a_edge12_Node000011_Node000006"><a xlink:title=" ">
<path fill="none" stroke="#63b8ff" d="M243.56,-199.18C234.83,-187.85 225.02,-175.11 218.44,-166.57"/>
<polygon fill="#63b8ff" stroke="#63b8ff" points="240.75,-201.27 249.63,-207.05 246.3,-197 240.75,-201.27"/>
</a>
</g>
</g>
<!-- Node14 -->
<g id="Node000014" class="node">
<title>Node14</title>
<g id="a_Node000014"><a xlink:href="fs_8h.html" target="_top" xlink:title="nanoCoAP virtual file system">
<polygon fill="white" stroke="#666666" points="549.25,-166.12 388.5,-166.12 388.5,-145.38 549.25,-145.38 549.25,-166.12"/>
<text text-anchor="middle" x="468.88" y="-152.62" font-family="Helvetica,sans-Serif" font-size="10.00">sys/include/net/nanocoap/fs.h</text>
</a>
</g>
</g>
<!-- Node13&#45;&gt;Node14 -->
<g id="edge15_Node000013_Node000014" class="edge">
<title>Node13&#45;&gt;Node14</title>
<g id="a_edge15_Node000013_Node000014"><a xlink:title=" ">
<path fill="none" stroke="#63b8ff" d="M578.72,-203.68C549.83,-191.33 514.41,-176.2 491.75,-166.52"/>
<polygon fill="#63b8ff" stroke="#63b8ff" points="577.07,-206.78 587.64,-207.49 579.82,-200.34 577.07,-206.78"/>
</a>
</g>
</g>
<!-- Node15 -->
<g id="Node000015" class="node">
<title>Node15</title>
<g id="a_Node000015"><a xlink:href="link__format_8h.html" target="_top" xlink:title="NanoCoAP Link Format helper functions.">
<polygon fill="white" stroke="#666666" points="706.75,-172.5 567,-172.5 567,-139 706.75,-139 706.75,-172.5"/>
<text text-anchor="start" x="575" y="-159" font-family="Helvetica,sans-Serif" font-size="10.00">sys/include/net/nanocoap</text>
<text text-anchor="middle" x="636.88" y="-146.25" font-family="Helvetica,sans-Serif" font-size="10.00">/link_format.h</text>
</a>
</g>
</g>
<!-- Node13&#45;&gt;Node15 -->
<g id="edge16_Node000013_Node000015" class="edge">
<title>Node13&#45;&gt;Node15</title>
<g id="a_edge16_Node000013_Node000015"><a xlink:title=" ">
<path fill="none" stroke="#63b8ff" d="M630.9,-197.1C632.13,-188.79 633.44,-179.93 634.52,-172.63"/>
<polygon fill="#63b8ff" stroke="#63b8ff" points="627.47,-196.35 629.47,-206.76 634.39,-197.38 627.47,-196.35"/>
</a>
</g>
</g>
<!-- Node16 -->
<g id="Node000016" class="node">
<title>Node16</title>
<g id="a_Node000016"><a xlink:href="nanocoap__vfs_8h.html" target="_top" xlink:title="VFS NanoCoAP helper functions.">
<polygon fill="white" stroke="#666666" points="864.75,-172.5 725,-172.5 725,-139 864.75,-139 864.75,-172.5"/>
<text text-anchor="start" x="733" y="-159" font-family="Helvetica,sans-Serif" font-size="10.00">sys/include/net/nanocoap</text>
<text text-anchor="middle" x="794.88" y="-146.25" font-family="Helvetica,sans-Serif" font-size="10.00">_vfs.h</text>
</a>
</g>
</g>
<!-- Node13&#45;&gt;Node16 -->
<g id="edge17_Node000013_Node000016" class="edge">
<title>Node13&#45;&gt;Node16</title>
<g id="a_edge17_Node000013_Node000016"><a xlink:title=" ">
<path fill="none" stroke="#63b8ff" d="M677.73,-203.82C702.39,-193.91 731.59,-182.18 754.67,-172.9"/>
<polygon fill="#63b8ff" stroke="#63b8ff" points="676.49,-200.54 668.52,-207.52 679.1,-207.04 676.49,-200.54"/>
</a>
</g>
</g>
</g>
</svg>
