<?xml version="1.0" encoding="UTF-8" standalone="no"?>
<!DOCTYPE svg PUBLIC "-//W3C//DTD SVG 1.1//EN"
 "http://www.w3.org/Graphics/SVG/1.1/DTD/svg11.dtd">
<!-- Generated by graphviz version 12.1.2 (0)
 -->
<!-- Title: sys/posix/include/sys/statvfs.h Pages: 1 -->
<svg width="146pt" height="155pt"
 viewBox="0.00 0.00 145.50 155.00" xmlns="http://www.w3.org/2000/svg" xmlns:xlink="http://www.w3.org/1999/xlink">
<g id="graph0" class="graph" transform="scale(1 1) rotate(0) translate(4 151)">
<title>sys/posix/include/sys/statvfs.h</title>
<!-- Node1 -->
<g id="Node000001" class="node">
<title>Node1</title>
<g id="a_Node000001"><a xlink:title="POSIX compatible sys/statvfs.h definitions.">
<polygon fill="#999999" stroke="#666666" points="128.5,-147 9,-147 9,-113.5 128.5,-113.5 128.5,-147"/>
<text text-anchor="start" x="17" y="-133.5" font-family="Helvetica,sans-Serif" font-size="10.00">sys/posix/include/sys</text>
<text text-anchor="middle" x="68.75" y="-120.75" font-family="Helvetica,sans-Serif" font-size="10.00">/statvfs.h</text>
</a>
</g>
</g>
<!-- Node2 -->
<g id="Node000002" class="node">
<title>Node2</title>
<g id="a_Node000002"><a xlink:href="vfs_8h.html" target="_top" xlink:title="VFS layer API declarations.">
<polygon fill="white" stroke="#666666" points="117.62,-77.5 19.88,-77.5 19.88,-56.75 117.62,-56.75 117.62,-77.5"/>
<text text-anchor="middle" x="68.75" y="-64" font-family="Helvetica,sans-Serif" font-size="10.00">sys/include/vfs.h</text>
</a>
</g>
</g>
<!-- Node1&#45;&gt;Node2 -->
<g id="edge1_Node000001_Node000002" class="edge">
<title>Node1&#45;&gt;Node2</title>
<g id="a_edge1_Node000001_Node000002"><a xlink:title=" ">
<path fill="none" stroke="#63b8ff" d="M68.75,-101.69C68.75,-93.21 68.75,-84.42 68.75,-77.97"/>
<polygon fill="#63b8ff" stroke="#63b8ff" points="65.25,-101.68 68.75,-111.68 72.25,-101.68 65.25,-101.68"/>
</a>
</g>
</g>
<!-- Node3 -->
<g id="Node000003" class="node">
<title>Node3</title>
<g id="a_Node000003"><a xlink:href="vfs__default_8h.html" target="_top" xlink:title="VFS default mount points.">
<polygon fill="white" stroke="#666666" points="137.5,-20.75 0,-20.75 0,0 137.5,0 137.5,-20.75"/>
<text text-anchor="middle" x="68.75" y="-7.25" font-family="Helvetica,sans-Serif" font-size="10.00">sys/include/vfs_default.h</text>
</a>
</g>
</g>
<!-- Node2&#45;&gt;Node3 -->
<g id="edge2_Node000002_Node000003" class="edge">
<title>Node2&#45;&gt;Node3</title>
<g id="a_edge2_Node000002_Node000003"><a xlink:title=" ">
<path fill="none" stroke="#63b8ff" d="M68.75,-44.88C68.75,-36.66 68.75,-27.68 68.75,-21.08"/>
<polygon fill="#63b8ff" stroke="#63b8ff" points="65.25,-44.82 68.75,-54.82 72.25,-44.82 65.25,-44.82"/>
</a>
</g>
</g>
</g>
</svg>
