<?xml version="1.0" encoding="UTF-8" standalone="no"?>
<!DOCTYPE svg PUBLIC "-//W3C//DTD SVG 1.1//EN"
 "http://www.w3.org/Graphics/SVG/1.1/DTD/svg11.dtd">
<!-- Generated by graphviz version 12.1.2 (0)
 -->
<!-- Title: sys/include/stdio_nimble.h Pages: 1 -->
<svg width="1186pt" height="596pt"
 viewBox="0.00 0.00 1185.57 596.25" xmlns="http://www.w3.org/2000/svg" xmlns:xlink="http://www.w3.org/1999/xlink">
<g id="graph0" class="graph" transform="scale(1 1) rotate(0) translate(4 592.25)">
<title>sys/include/stdio_nimble.h</title>
<!-- Node1 -->
<g id="Node000001" class="node">
<title>Node1</title>
<g id="a_Node000001"><a xlink:title=" ">
<polygon fill="#999999" stroke="#666666" points="946.88,-588.25 801.12,-588.25 801.12,-567.5 946.88,-567.5 946.88,-588.25"/>
<text text-anchor="middle" x="874" y="-574.75" font-family="Helvetica,sans-Serif" font-size="10.00">sys/include/stdio_nimble.h</text>
</a>
</g>
</g>
<!-- Node2 -->
<g id="Node000002" class="node">
<title>Node2</title>
<g id="a_Node000002"><a xlink:href="stdio__base_8h.html" target="_top" xlink:title=" ">
<polygon fill="white" stroke="#666666" points="912.75,-531.5 835.25,-531.5 835.25,-510.75 912.75,-510.75 912.75,-531.5"/>
<text text-anchor="middle" x="874" y="-518" font-family="Helvetica,sans-Serif" font-size="10.00">stdio_base.h</text>
</a>
</g>
</g>
<!-- Node1&#45;&gt;Node2 -->
<g id="edge1_Node000001_Node000002" class="edge">
<title>Node1&#45;&gt;Node2</title>
<g id="a_edge1_Node000001_Node000002"><a xlink:title=" ">
<path fill="none" stroke="#63b8ff" d="M874,-567.09C874,-560.47 874,-551.47 874,-543.27"/>
<polygon fill="#63b8ff" stroke="#63b8ff" points="877.5,-543.34 874,-533.34 870.5,-543.34 877.5,-543.34"/>
</a>
</g>
</g>
<!-- Node3 -->
<g id="Node000003" class="node">
<title>Node3</title>
<g id="a_Node000003"><a xlink:href="modules_8h.html" target="_top" xlink:title="Common macros and compiler attributes/pragmas configuration.">
<polygon fill="white" stroke="#666666" points="786.5,-134.25 719.5,-134.25 719.5,-113.5 786.5,-113.5 786.5,-134.25"/>
<text text-anchor="middle" x="753" y="-120.75" font-family="Helvetica,sans-Serif" font-size="10.00">modules.h</text>
</a>
</g>
</g>
<!-- Node2&#45;&gt;Node3 -->
<g id="edge2_Node000002_Node000003" class="edge">
<title>Node2&#45;&gt;Node3</title>
<g id="a_edge2_Node000002_Node000003"><a xlink:title=" ">
<path fill="none" stroke="#63b8ff" d="M871.01,-510.35C855.22,-458.77 781.44,-217.77 759.3,-145.45"/>
<polygon fill="#63b8ff" stroke="#63b8ff" points="762.71,-144.64 756.44,-136.1 756.02,-146.69 762.71,-144.64"/>
</a>
</g>
</g>
<!-- Node4 -->
<g id="Node000004" class="node">
<title>Node4</title>
<g id="a_Node000004"><a xlink:href="isrpipe_8h.html" target="_top" xlink:title="isrpipe Interface">
<polygon fill="white" stroke="#666666" points="350,-474.75 292,-474.75 292,-454 350,-454 350,-474.75"/>
<text text-anchor="middle" x="321" y="-461.25" font-family="Helvetica,sans-Serif" font-size="10.00">isrpipe.h</text>
</a>
</g>
</g>
<!-- Node2&#45;&gt;Node4 -->
<g id="edge3_Node000002_Node000004" class="edge">
<title>Node2&#45;&gt;Node4</title>
<g id="a_edge3_Node000002_Node000004"><a xlink:title=" ">
<path fill="none" stroke="#63b8ff" d="M835.11,-516.28C734.25,-506.29 464.94,-479.63 361.89,-469.42"/>
<polygon fill="#63b8ff" stroke="#63b8ff" points="362.25,-465.94 351.96,-468.44 361.56,-472.91 362.25,-465.94"/>
</a>
</g>
</g>
<!-- Node30 -->
<g id="Node000030" class="node">
<title>Node30</title>
<g id="a_Node000030"><a xlink:href="xfa_8h.html" target="_top" xlink:title="Cross File Arrays.">
<polygon fill="white" stroke="#666666" points="1142.38,-247.75 1101.62,-247.75 1101.62,-227 1142.38,-227 1142.38,-247.75"/>
<text text-anchor="middle" x="1122" y="-234.25" font-family="Helvetica,sans-Serif" font-size="10.00">xfa.h</text>
</a>
</g>
</g>
<!-- Node2&#45;&gt;Node30 -->
<g id="edge54_Node000002_Node000030" class="edge">
<title>Node2&#45;&gt;Node30</title>
<g id="a_edge54_Node000002_Node000030"><a xlink:title=" ">
<path fill="none" stroke="#63b8ff" d="M913.18,-517.82C976.91,-511.72 1096,-489.49 1096,-408.62 1096,-408.62 1096,-408.62 1096,-349.88 1096,-317.34 1106.63,-280.82 1114.3,-258.72"/>
<polygon fill="#63b8ff" stroke="#63b8ff" points="1117.53,-260.06 1117.65,-249.46 1110.95,-257.68 1117.53,-260.06"/>
</a>
</g>
</g>
<!-- Node5 -->
<g id="Node000005" class="node">
<title>Node5</title>
<g id="a_Node000005"><a xlink:title=" ">
<polygon fill="#e0e0e0" stroke="#999999" points="710.38,-20.75 657.62,-20.75 657.62,0 710.38,0 710.38,-20.75"/>
<text text-anchor="middle" x="684" y="-7.25" font-family="Helvetica,sans-Serif" font-size="10.00">stdint.h</text>
</a>
</g>
</g>
<!-- Node4&#45;&gt;Node5 -->
<g id="edge4_Node000004_Node000005" class="edge">
<title>Node4&#45;&gt;Node5</title>
<g id="a_edge4_Node000004_Node000005"><a xlink:title=" ">
<path fill="none" stroke="#63b8ff" d="M291.66,-459.6C212.42,-448.58 0,-413.3 0,-351.88 0,-351.88 0,-351.88 0,-122.88 0,-83.19 24.32,-74.13 60,-56.75 112.56,-31.15 518.09,-16.51 645.69,-12.51"/>
<polygon fill="#63b8ff" stroke="#63b8ff" points="645.75,-16.01 655.64,-12.2 645.54,-9.01 645.75,-16.01"/>
</a>
</g>
</g>
<!-- Node6 -->
<g id="Node000006" class="node">
<title>Node6</title>
<g id="a_Node000006"><a xlink:href="mutex_8h.html" target="_top" xlink:title="Mutex for thread synchronization.">
<polygon fill="white" stroke="#666666" points="609.25,-418 552.75,-418 552.75,-397.25 609.25,-397.25 609.25,-418"/>
<text text-anchor="middle" x="581" y="-404.5" font-family="Helvetica,sans-Serif" font-size="10.00">mutex.h</text>
</a>
</g>
</g>
<!-- Node4&#45;&gt;Node6 -->
<g id="edge5_Node000004_Node000006" class="edge">
<title>Node4&#45;&gt;Node6</title>
<g id="a_edge5_Node000004_Node000006"><a xlink:title=" ">
<path fill="none" stroke="#63b8ff" d="M350.32,-457.2C397.11,-447.35 488.75,-428.05 541.35,-416.97"/>
<polygon fill="#63b8ff" stroke="#63b8ff" points="542.03,-420.41 551.1,-414.92 540.59,-413.56 542.03,-420.41"/>
</a>
</g>
</g>
<!-- Node28 -->
<g id="Node000028" class="node">
<title>Node28</title>
<g id="a_Node000028"><a xlink:href="tsrb_8h.html" target="_top" xlink:title="Thread&#45;safe ringbuffer interface definition.">
<polygon fill="white" stroke="#666666" points="129.88,-247.75 86.12,-247.75 86.12,-227 129.88,-227 129.88,-247.75"/>
<text text-anchor="middle" x="108" y="-234.25" font-family="Helvetica,sans-Serif" font-size="10.00">tsrb.h</text>
</a>
</g>
</g>
<!-- Node4&#45;&gt;Node28 -->
<g id="edge47_Node000004_Node000028" class="edge">
<title>Node4&#45;&gt;Node28</title>
<g id="a_edge47_Node000004_Node000028"><a xlink:title=" ">
<path fill="none" stroke="#63b8ff" d="M291.59,-454.19C252.17,-440.37 182.7,-410.48 144,-361.25 120.27,-331.06 112.17,-285.67 109.42,-259.34"/>
<polygon fill="#63b8ff" stroke="#63b8ff" points="112.92,-259.26 108.58,-249.6 105.95,-259.86 112.92,-259.26"/>
</a>
</g>
</g>
<!-- Node6&#45;&gt;Node5 -->
<g id="edge7_Node000006_Node000005" class="edge">
<title>Node6&#45;&gt;Node5</title>
<g id="a_edge7_Node000006_Node000005"><a xlink:title=" ">
<path fill="none" stroke="#63b8ff" d="M609.64,-403.07C715.42,-389.32 1081.56,-335.92 1151,-247.75 1187.93,-200.85 1183.57,-165.91 1155,-113.5 1132.73,-72.64 1110.79,-72.5 1067,-56.75 1004.03,-34.1 805.9,-19.16 722.06,-13.69"/>
<polygon fill="#63b8ff" stroke="#63b8ff" points="722.5,-10.22 712.3,-13.07 722.05,-17.2 722.5,-10.22"/>
</a>
</g>
</g>
<!-- Node7 -->
<g id="Node000007" class="node">
<title>Node7</title>
<g id="a_Node000007"><a xlink:title=" ">
<polygon fill="#e0e0e0" stroke="#999999" points="400.5,-77.5 345.5,-77.5 345.5,-56.75 400.5,-56.75 400.5,-77.5"/>
<text text-anchor="middle" x="373" y="-64" font-family="Helvetica,sans-Serif" font-size="10.00">stddef.h</text>
</a>
</g>
</g>
<!-- Node6&#45;&gt;Node7 -->
<g id="edge6_Node000006_Node000007" class="edge">
<title>Node6&#45;&gt;Node7</title>
<g id="a_edge6_Node000006_Node000007"><a xlink:title=" ">
<path fill="none" stroke="#63b8ff" d="M552.32,-404.65C488.25,-399.84 335.66,-386.05 291,-361.25 210.07,-316.31 196.54,-279.98 171,-191 165.56,-172.04 168.54,-122.07 176,-113.5 196.36,-90.1 282.5,-77.39 333.89,-71.75"/>
<polygon fill="#63b8ff" stroke="#63b8ff" points="334.13,-75.25 343.71,-70.72 333.4,-68.28 334.13,-75.25"/>
</a>
</g>
</g>
<!-- Node8 -->
<g id="Node000008" class="node">
<title>Node8</title>
<g id="a_Node000008"><a xlink:title=" ">
<polygon fill="#e0e0e0" stroke="#999999" points="340.5,-134.25 279.5,-134.25 279.5,-113.5 340.5,-113.5 340.5,-134.25"/>
<text text-anchor="middle" x="310" y="-120.75" font-family="Helvetica,sans-Serif" font-size="10.00">stdbool.h</text>
</a>
</g>
</g>
<!-- Node6&#45;&gt;Node8 -->
<g id="edge8_Node000006_Node000008" class="edge">
<title>Node6&#45;&gt;Node8</title>
<g id="a_edge8_Node000006_Node000008"><a xlink:title=" ">
<path fill="none" stroke="#63b8ff" d="M552.44,-403.35C471.43,-393.28 246,-359.49 246,-295.12 246,-295.12 246,-295.12 246,-236.38 246,-199.24 273.03,-163.28 291.96,-142.65"/>
<polygon fill="#63b8ff" stroke="#63b8ff" points="294.29,-145.28 298.67,-135.64 289.23,-140.44 294.29,-145.28"/>
</a>
</g>
</g>
<!-- Node9 -->
<g id="Node000009" class="node">
<title>Node9</title>
<g id="a_Node000009"><a xlink:href="architecture_8h.html" target="_top" xlink:title="Platform&#45;independent access to architecture details.">
<polygon fill="white" stroke="#666666" points="932.75,-247.75 849.25,-247.75 849.25,-227 932.75,-227 932.75,-247.75"/>
<text text-anchor="middle" x="891" y="-234.25" font-family="Helvetica,sans-Serif" font-size="10.00">architecture.h</text>
</a>
</g>
</g>
<!-- Node6&#45;&gt;Node9 -->
<g id="edge9_Node000006_Node000009" class="edge">
<title>Node6&#45;&gt;Node9</title>
<g id="a_edge9_Node000006_Node000009"><a xlink:title=" ">
<path fill="none" stroke="#63b8ff" d="M608.47,-396.84C631.29,-388.38 664.35,-375.32 692,-361.25 758.16,-327.59 831.31,-279.34 867.73,-254.51"/>
<polygon fill="#63b8ff" stroke="#63b8ff" points="869.47,-257.55 875.74,-249.01 865.51,-251.78 869.47,-257.55"/>
</a>
</g>
</g>
<!-- Node13 -->
<g id="Node000013" class="node">
<title>Node13</title>
<g id="a_Node000013"><a xlink:href="kernel__defines_8h.html" target="_top" xlink:title="Common macros and compiler attributes/pragmas configuration.">
<polygon fill="white" stroke="#666666" points="732.12,-191 635.88,-191 635.88,-170.25 732.12,-170.25 732.12,-191"/>
<text text-anchor="middle" x="684" y="-177.5" font-family="Helvetica,sans-Serif" font-size="10.00">kernel_defines.h</text>
</a>
</g>
</g>
<!-- Node6&#45;&gt;Node13 -->
<g id="edge14_Node000006_Node000013" class="edge">
<title>Node6&#45;&gt;Node13</title>
<g id="a_edge14_Node000006_Node000013"><a xlink:title=" ">
<path fill="none" stroke="#63b8ff" d="M603.74,-396.88C618.64,-389.32 637.27,-377.4 648,-361.25 681.09,-311.47 685,-237.98 684.74,-202.42"/>
<polygon fill="#63b8ff" stroke="#63b8ff" points="688.24,-202.58 684.53,-192.66 681.24,-202.73 688.24,-202.58"/>
</a>
</g>
</g>
<!-- Node18 -->
<g id="Node000018" class="node">
<title>Node18</title>
<g id="a_Node000018"><a xlink:href="list_8h.html" target="_top" xlink:title="Intrusive linked list.">
<polygon fill="white" stroke="#666666" points="492,-134.25 452,-134.25 452,-113.5 492,-113.5 492,-134.25"/>
<text text-anchor="middle" x="472" y="-120.75" font-family="Helvetica,sans-Serif" font-size="10.00">list.h</text>
</a>
</g>
</g>
<!-- Node6&#45;&gt;Node18 -->
<g id="edge25_Node000006_Node000018" class="edge">
<title>Node6&#45;&gt;Node18</title>
<g id="a_edge25_Node000006_Node000018"><a xlink:title=" ">
<path fill="none" stroke="#63b8ff" d="M585.07,-396.91C598.88,-362.29 640.31,-243.1 589,-170.25 583.8,-162.86 536.18,-145.99 503.32,-135.03"/>
<polygon fill="#63b8ff" stroke="#63b8ff" points="504.44,-131.71 493.85,-131.9 502.24,-138.36 504.44,-131.71"/>
</a>
</g>
</g>
<!-- Node19 -->
<g id="Node000019" class="node">
<title>Node19</title>
<g id="a_Node000019"><a xlink:href="core_2include_2thread_8h.html" target="_top" xlink:title="Threading API.">
<polygon fill="white" stroke="#666666" points="555.25,-361.25 498.75,-361.25 498.75,-340.5 555.25,-340.5 555.25,-361.25"/>
<text text-anchor="middle" x="527" y="-347.75" font-family="Helvetica,sans-Serif" font-size="10.00">thread.h</text>
</a>
</g>
</g>
<!-- Node6&#45;&gt;Node19 -->
<g id="edge26_Node000006_Node000019" class="edge">
<title>Node6&#45;&gt;Node19</title>
<g id="a_edge26_Node000006_Node000019"><a xlink:title=" ">
<path fill="none" stroke="#63b8ff" d="M571.35,-396.84C563.9,-389.28 553.39,-378.64 544.48,-369.6"/>
<polygon fill="#63b8ff" stroke="#63b8ff" points="547.15,-367.32 537.63,-362.66 542.16,-372.23 547.15,-367.32"/>
</a>
</g>
</g>
<!-- Node9&#45;&gt;Node5 -->
<g id="edge10_Node000009_Node000005" class="edge">
<title>Node9&#45;&gt;Node5</title>
<g id="a_edge10_Node000009_Node000005"><a xlink:title=" ">
<path fill="none" stroke="#63b8ff" d="M933.1,-231.88C1016.65,-221.22 1190.79,-189.41 1136,-113.5 1087.31,-46.03 822.22,-20.92 722.21,-13.76"/>
<polygon fill="#63b8ff" stroke="#63b8ff" points="722.59,-10.28 712.37,-13.08 722.11,-17.26 722.59,-10.28"/>
</a>
</g>
</g>
<!-- Node10 -->
<g id="Node000010" class="node">
<title>Node10</title>
<g id="a_Node000010"><a xlink:href="inttypes_8h.html" target="_top" xlink:title="Adds include for missing inttype definitions.">
<polygon fill="white" stroke="#666666" points="923.38,-191 858.62,-191 858.62,-170.25 923.38,-170.25 923.38,-191"/>
<text text-anchor="middle" x="891" y="-177.5" font-family="Helvetica,sans-Serif" font-size="10.00">inttypes.h</text>
</a>
</g>
</g>
<!-- Node9&#45;&gt;Node10 -->
<g id="edge11_Node000009_Node000010" class="edge">
<title>Node9&#45;&gt;Node10</title>
<g id="a_edge11_Node000009_Node000010"><a xlink:title=" ">
<path fill="none" stroke="#63b8ff" d="M891,-226.59C891,-219.97 891,-210.97 891,-202.77"/>
<polygon fill="#63b8ff" stroke="#63b8ff" points="894.5,-202.84 891,-192.84 887.5,-202.84 894.5,-202.84"/>
</a>
</g>
</g>
<!-- Node11 -->
<g id="Node000011" class="node">
<title>Node11</title>
<g id="a_Node000011"><a xlink:title=" ">
<polygon fill="#e0e0e0" stroke="#999999" points="840.38,-191 787.62,-191 787.62,-170.25 840.38,-170.25 840.38,-191"/>
<text text-anchor="middle" x="814" y="-177.5" font-family="Helvetica,sans-Serif" font-size="10.00">limits.h</text>
</a>
</g>
</g>
<!-- Node9&#45;&gt;Node11 -->
<g id="edge12_Node000009_Node000011" class="edge">
<title>Node9&#45;&gt;Node11</title>
<g id="a_edge12_Node000009_Node000011"><a xlink:title=" ">
<path fill="none" stroke="#63b8ff" d="M877.23,-226.59C866.07,-218.65 850.08,-207.28 836.98,-197.96"/>
<polygon fill="#63b8ff" stroke="#63b8ff" points="839.06,-195.15 828.88,-192.21 835,-200.85 839.06,-195.15"/>
</a>
</g>
</g>
<!-- Node12 -->
<g id="Node000012" class="node">
<title>Node12</title>
<g id="a_Node000012"><a xlink:title=" ">
<polygon fill="#e0e0e0" stroke="#999999" points="1050.88,-191 941.12,-191 941.12,-170.25 1050.88,-170.25 1050.88,-191"/>
<text text-anchor="middle" x="996" y="-177.5" font-family="Helvetica,sans-Serif" font-size="10.00">architecture_arch.h</text>
</a>
</g>
</g>
<!-- Node9&#45;&gt;Node12 -->
<g id="edge13_Node000009_Node000012" class="edge">
<title>Node9&#45;&gt;Node12</title>
<g id="a_edge13_Node000009_Node000012"><a xlink:title=" ">
<path fill="none" stroke="#63b8ff" d="M909.77,-226.59C925.75,-218.26 948.95,-206.16 967.26,-196.61"/>
<polygon fill="#63b8ff" stroke="#63b8ff" points="968.8,-199.76 976.05,-192.03 965.56,-193.55 968.8,-199.76"/>
</a>
</g>
</g>
<!-- Node13&#45;&gt;Node3 -->
<g id="edge15_Node000013_Node000003" class="edge">
<title>Node13&#45;&gt;Node3</title>
<g id="a_edge15_Node000013_Node000003"><a xlink:title=" ">
<path fill="none" stroke="#63b8ff" d="M696.34,-169.84C706.25,-161.97 720.39,-150.75 732.06,-141.49"/>
<polygon fill="#63b8ff" stroke="#63b8ff" points="733.93,-144.48 739.59,-135.52 729.58,-138.99 733.93,-144.48"/>
</a>
</g>
</g>
<!-- Node14 -->
<g id="Node000014" class="node">
<title>Node14</title>
<g id="a_Node000014"><a xlink:href="riot__version_8h.html" target="_top" xlink:title="Common macros and compiler attributes/pragmas configuration.">
<polygon fill="white" stroke="#666666" points="725.38,-77.5 642.62,-77.5 642.62,-56.75 725.38,-56.75 725.38,-77.5"/>
<text text-anchor="middle" x="684" y="-64" font-family="Helvetica,sans-Serif" font-size="10.00">riot_version.h</text>
</a>
</g>
</g>
<!-- Node13&#45;&gt;Node14 -->
<g id="edge16_Node000013_Node000014" class="edge">
<title>Node13&#45;&gt;Node14</title>
<g id="a_edge16_Node000013_Node000014"><a xlink:title=" ">
<path fill="none" stroke="#63b8ff" d="M684,-170.12C684,-152.35 684,-113.72 684,-89.43"/>
<polygon fill="#63b8ff" stroke="#63b8ff" points="687.5,-89.44 684,-79.44 680.5,-89.44 687.5,-89.44"/>
</a>
</g>
</g>
<!-- Node15 -->
<g id="Node000015" class="node">
<title>Node15</title>
<g id="a_Node000015"><a xlink:href="compiler__hints_8h.html" target="_top" xlink:title="Common macros and compiler attributes/pragmas configuration.">
<polygon fill="white" stroke="#666666" points="1126.5,-134.25 1029.5,-134.25 1029.5,-113.5 1126.5,-113.5 1126.5,-134.25"/>
<text text-anchor="middle" x="1078" y="-120.75" font-family="Helvetica,sans-Serif" font-size="10.00">compiler_hints.h</text>
</a>
</g>
</g>
<!-- Node13&#45;&gt;Node15 -->
<g id="edge18_Node000013_Node000015" class="edge">
<title>Node13&#45;&gt;Node15</title>
<g id="a_edge18_Node000013_Node000015"><a xlink:title=" ">
<path fill="none" stroke="#63b8ff" d="M732.31,-172.91C804.39,-162.9 939.94,-144.06 1018.18,-133.19"/>
<polygon fill="#63b8ff" stroke="#63b8ff" points="1018.37,-136.69 1027.79,-131.85 1017.41,-129.76 1018.37,-136.69"/>
</a>
</g>
</g>
<!-- Node17 -->
<g id="Node000017" class="node">
<title>Node17</title>
<g id="a_Node000017"><a xlink:href="container_8h.html" target="_top" xlink:title="Common macros and compiler attributes/pragmas configuration.">
<polygon fill="white" stroke="#666666" points="580.38,-134.25 509.62,-134.25 509.62,-113.5 580.38,-113.5 580.38,-134.25"/>
<text text-anchor="middle" x="545" y="-120.75" font-family="Helvetica,sans-Serif" font-size="10.00">container.h</text>
</a>
</g>
</g>
<!-- Node13&#45;&gt;Node17 -->
<g id="edge22_Node000013_Node000017" class="edge">
<title>Node13&#45;&gt;Node17</title>
<g id="a_edge22_Node000013_Node000017"><a xlink:title=" ">
<path fill="none" stroke="#63b8ff" d="M659.15,-169.84C637.11,-161.16 604.68,-148.38 580.02,-138.67"/>
<polygon fill="#63b8ff" stroke="#63b8ff" points="581.63,-135.54 571.04,-135.13 579.07,-142.05 581.63,-135.54"/>
</a>
</g>
</g>
<!-- Node14&#45;&gt;Node5 -->
<g id="edge17_Node000014_Node000005" class="edge">
<title>Node14&#45;&gt;Node5</title>
<g id="a_edge17_Node000014_Node000005"><a xlink:title=" ">
<path fill="none" stroke="#63b8ff" d="M684,-56.34C684,-49.72 684,-40.72 684,-32.52"/>
<polygon fill="#63b8ff" stroke="#63b8ff" points="687.5,-32.59 684,-22.59 680.5,-32.59 687.5,-32.59"/>
</a>
</g>
</g>
<!-- Node15&#45;&gt;Node5 -->
<g id="edge21_Node000015_Node000005" class="edge">
<title>Node15&#45;&gt;Node5</title>
<g id="a_edge21_Node000015_Node000005"><a xlink:title=" ">
<path fill="none" stroke="#63b8ff" d="M1058.93,-113.14C1030.17,-98.84 973.66,-72.17 923,-56.75 853.53,-35.61 769.57,-22.4 721.92,-16"/>
<polygon fill="#63b8ff" stroke="#63b8ff" points="722.49,-12.55 712.12,-14.72 721.58,-19.49 722.49,-12.55"/>
</a>
</g>
</g>
<!-- Node16 -->
<g id="Node000016" class="node">
<title>Node16</title>
<g id="a_Node000016"><a xlink:href="assert_8h.html" target="_top" xlink:title="POSIX.1&#45;2008 compliant version of the assert macro.">
<polygon fill="white" stroke="#666666" points="913.5,-77.5 858.5,-77.5 858.5,-56.75 913.5,-56.75 913.5,-77.5"/>
<text text-anchor="middle" x="886" y="-64" font-family="Helvetica,sans-Serif" font-size="10.00">assert.h</text>
</a>
</g>
</g>
<!-- Node15&#45;&gt;Node16 -->
<g id="edge19_Node000015_Node000016" class="edge">
<title>Node15&#45;&gt;Node16</title>
<g id="a_edge19_Node000015_Node000016"><a xlink:title=" ">
<path fill="none" stroke="#63b8ff" d="M1043.67,-113.09C1010.19,-103.54 959.35,-89.04 924.51,-79.11"/>
<polygon fill="#63b8ff" stroke="#63b8ff" points="925.84,-75.84 915.26,-76.47 923.92,-82.58 925.84,-75.84"/>
</a>
</g>
</g>
<!-- Node16&#45;&gt;Node5 -->
<g id="edge20_Node000016_Node000005" class="edge">
<title>Node16&#45;&gt;Node5</title>
<g id="a_edge20_Node000016_Node000005"><a xlink:title=" ">
<path fill="none" stroke="#63b8ff" d="M858.34,-58.63C822.93,-49.03 761.44,-32.37 721.76,-21.61"/>
<polygon fill="#63b8ff" stroke="#63b8ff" points="722.72,-18.24 712.15,-19 720.88,-25 722.72,-18.24"/>
</a>
</g>
</g>
<!-- Node17&#45;&gt;Node5 -->
<g id="edge24_Node000017_Node000005" class="edge">
<title>Node17&#45;&gt;Node5</title>
<g id="a_edge24_Node000017_Node000005"><a xlink:title=" ">
<path fill="none" stroke="#63b8ff" d="M556.85,-113.37C580.43,-94.46 633.49,-51.89 663.07,-28.16"/>
<polygon fill="#63b8ff" stroke="#63b8ff" points="664.99,-31.11 670.6,-22.12 660.61,-25.65 664.99,-31.11"/>
</a>
</g>
</g>
<!-- Node17&#45;&gt;Node7 -->
<g id="edge23_Node000017_Node000007" class="edge">
<title>Node17&#45;&gt;Node7</title>
<g id="a_edge23_Node000017_Node000007"><a xlink:title=" ">
<path fill="none" stroke="#63b8ff" d="M514.25,-113.09C485.59,-103.96 442.74,-90.32 411.75,-80.46"/>
<polygon fill="#63b8ff" stroke="#63b8ff" points="412.96,-77.17 402.37,-77.47 410.83,-83.84 412.96,-77.17"/>
</a>
</g>
</g>
<!-- Node20 -->
<g id="Node000020" class="node">
<title>Node20</title>
<g id="a_Node000020"><a xlink:href="clist_8h.html" target="_top" xlink:title="Circular linked list.">
<polygon fill="white" stroke="#666666" points="395.62,-191 350.38,-191 350.38,-170.25 395.62,-170.25 395.62,-191"/>
<text text-anchor="middle" x="373" y="-177.5" font-family="Helvetica,sans-Serif" font-size="10.00">clist.h</text>
</a>
</g>
</g>
<!-- Node19&#45;&gt;Node20 -->
<g id="edge27_Node000019_Node000020" class="edge">
<title>Node19&#45;&gt;Node20</title>
<g id="a_edge27_Node000019_Node000020"><a xlink:title=" ">
<path fill="none" stroke="#63b8ff" d="M515.49,-340.19C505.09,-331.27 489.54,-317.48 477,-304.5 443.04,-269.34 406.94,-224.87 387.47,-200.22"/>
<polygon fill="#63b8ff" stroke="#63b8ff" points="390.29,-198.14 381.36,-192.43 384.78,-202.46 390.29,-198.14"/>
</a>
</g>
</g>
<!-- Node21 -->
<g id="Node000021" class="node">
<title>Node21</title>
<g id="a_Node000021"><a xlink:href="cib_8h.html" target="_top" xlink:title="Circular integer buffer interface.">
<polygon fill="white" stroke="#666666" points="891.62,-304.5 852.38,-304.5 852.38,-283.75 891.62,-283.75 891.62,-304.5"/>
<text text-anchor="middle" x="872" y="-291" font-family="Helvetica,sans-Serif" font-size="10.00">cib.h</text>
</a>
</g>
</g>
<!-- Node19&#45;&gt;Node21 -->
<g id="edge31_Node000019_Node000021" class="edge">
<title>Node19&#45;&gt;Node21</title>
<g id="a_edge31_Node000019_Node000021"><a xlink:title=" ">
<path fill="none" stroke="#63b8ff" d="M555.53,-345.35C619.51,-335.19 774.07,-310.67 840.64,-300.1"/>
<polygon fill="#63b8ff" stroke="#63b8ff" points="841.18,-303.56 850.51,-298.54 840.08,-296.65 841.18,-303.56"/>
</a>
</g>
</g>
<!-- Node22 -->
<g id="Node000022" class="node">
<title>Node22</title>
<g id="a_Node000022"><a xlink:href="core_2include_2msg_8h.html" target="_top" xlink:title="Messaging API for inter process communication.">
<polygon fill="white" stroke="#666666" points="320,-304.5 274,-304.5 274,-283.75 320,-283.75 320,-304.5"/>
<text text-anchor="middle" x="297" y="-291" font-family="Helvetica,sans-Serif" font-size="10.00">msg.h</text>
</a>
</g>
</g>
<!-- Node19&#45;&gt;Node22 -->
<g id="edge33_Node000019_Node000022" class="edge">
<title>Node19&#45;&gt;Node22</title>
<g id="a_edge33_Node000019_Node000022"><a xlink:title=" ">
<path fill="none" stroke="#63b8ff" d="M498.34,-343.87C461.76,-336.08 396.27,-321.74 331.23,-304.97"/>
<polygon fill="#63b8ff" stroke="#63b8ff" points="332.4,-301.66 321.84,-302.53 330.64,-308.43 332.4,-301.66"/>
</a>
</g>
</g>
<!-- Node23 -->
<g id="Node000023" class="node">
<title>Node23</title>
<g id="a_Node000023"><a xlink:href="sched_8h.html" target="_top" xlink:title="Scheduler API definition.">
<polygon fill="white" stroke="#666666" points="550.75,-247.75 497.25,-247.75 497.25,-227 550.75,-227 550.75,-247.75"/>
<text text-anchor="middle" x="524" y="-234.25" font-family="Helvetica,sans-Serif" font-size="10.00">sched.h</text>
</a>
</g>
</g>
<!-- Node19&#45;&gt;Node23 -->
<g id="edge42_Node000019_Node000023" class="edge">
<title>Node19&#45;&gt;Node23</title>
<g id="a_edge42_Node000019_Node000023"><a xlink:title=" ">
<path fill="none" stroke="#63b8ff" d="M543.6,-340.03C561.82,-327.84 587.23,-305.98 577,-283.75 571.59,-271.99 561.46,-262.15 551.5,-254.66"/>
<polygon fill="#63b8ff" stroke="#63b8ff" points="553.62,-251.87 543.4,-249.08 549.65,-257.64 553.62,-251.87"/>
</a>
</g>
</g>
<!-- Node25 -->
<g id="Node000025" class="node">
<title>Node25</title>
<g id="a_Node000025"><a xlink:href="thread__config_8h.html" target="_top" xlink:title="Thread configuration defines.">
<polygon fill="white" stroke="#666666" points="429.88,-304.5 338.12,-304.5 338.12,-283.75 429.88,-283.75 429.88,-304.5"/>
<text text-anchor="middle" x="384" y="-291" font-family="Helvetica,sans-Serif" font-size="10.00">thread_config.h</text>
</a>
</g>
</g>
<!-- Node19&#45;&gt;Node25 -->
<g id="edge43_Node000019_Node000025" class="edge">
<title>Node19&#45;&gt;Node25</title>
<g id="a_edge43_Node000019_Node000025"><a xlink:title=" ">
<path fill="none" stroke="#63b8ff" d="M501.43,-340.09C478.76,-331.41 445.4,-318.63 420.02,-308.92"/>
<polygon fill="#63b8ff" stroke="#63b8ff" points="421.35,-305.68 410.76,-305.37 418.85,-312.21 421.35,-305.68"/>
</a>
</g>
</g>
<!-- Node27 -->
<g id="Node000027" class="node">
<title>Node27</title>
<g id="a_Node000027"><a xlink:title=" ">
<polygon fill="#e0e0e0" stroke="#999999" points="568.38,-304.5 485.62,-304.5 485.62,-283.75 568.38,-283.75 568.38,-304.5"/>
<text text-anchor="middle" x="527" y="-291" font-family="Helvetica,sans-Serif" font-size="10.00">thread_arch.h</text>
</a>
</g>
</g>
<!-- Node19&#45;&gt;Node27 -->
<g id="edge46_Node000019_Node000027" class="edge">
<title>Node19&#45;&gt;Node27</title>
<g id="a_edge46_Node000019_Node000027"><a xlink:title=" ">
<path fill="none" stroke="#63b8ff" d="M527,-340.09C527,-333.47 527,-324.47 527,-316.27"/>
<polygon fill="#63b8ff" stroke="#63b8ff" points="530.5,-316.34 527,-306.34 523.5,-316.34 530.5,-316.34"/>
</a>
</g>
</g>
<!-- Node20&#45;&gt;Node7 -->
<g id="edge29_Node000020_Node000007" class="edge">
<title>Node20&#45;&gt;Node7</title>
<g id="a_edge29_Node000020_Node000007"><a xlink:title=" ">
<path fill="none" stroke="#63b8ff" d="M373,-170.12C373,-152.35 373,-113.72 373,-89.43"/>
<polygon fill="#63b8ff" stroke="#63b8ff" points="376.5,-89.44 373,-79.44 369.5,-89.44 376.5,-89.44"/>
</a>
</g>
</g>
<!-- Node20&#45;&gt;Node8 -->
<g id="edge28_Node000020_Node000008" class="edge">
<title>Node20&#45;&gt;Node8</title>
<g id="a_edge28_Node000020_Node000008"><a xlink:title=" ">
<path fill="none" stroke="#63b8ff" d="M361.74,-169.84C352.87,-162.13 340.29,-151.2 329.75,-142.04"/>
<polygon fill="#63b8ff" stroke="#63b8ff" points="332.15,-139.49 322.31,-135.57 327.56,-144.77 332.15,-139.49"/>
</a>
</g>
</g>
<!-- Node20&#45;&gt;Node18 -->
<g id="edge30_Node000020_Node000018" class="edge">
<title>Node20&#45;&gt;Node18</title>
<g id="a_edge30_Node000020_Node000018"><a xlink:title=" ">
<path fill="none" stroke="#63b8ff" d="M390.7,-169.84C405.62,-161.58 427.23,-149.63 444.42,-140.13"/>
<polygon fill="#63b8ff" stroke="#63b8ff" points="446.07,-143.21 453.13,-135.31 442.68,-137.09 446.07,-143.21"/>
</a>
</g>
</g>
<!-- Node21&#45;&gt;Node16 -->
<g id="edge32_Node000021_Node000016" class="edge">
<title>Node21&#45;&gt;Node16</title>
<g id="a_edge32_Node000021_Node000016"><a xlink:title=" ">
<path fill="none" stroke="#63b8ff" d="M892.01,-289.24C932.35,-280.19 1022.78,-253.57 1060,-191 1064.71,-183.07 1064.58,-178.25 1060,-170.25 1044.33,-142.88 964.62,-103.49 918.71,-82.53"/>
<polygon fill="#63b8ff" stroke="#63b8ff" points="920.3,-79.41 909.75,-78.48 917.42,-85.79 920.3,-79.41"/>
</a>
</g>
</g>
<!-- Node22&#45;&gt;Node5 -->
<g id="edge34_Node000022_Node000005" class="edge">
<title>Node22&#45;&gt;Node5</title>
<g id="a_edge34_Node000022_Node000005"><a xlink:title=" ">
<path fill="none" stroke="#63b8ff" d="M273.56,-293.58C209.8,-293.46 38,-283.7 38,-181.62 38,-181.62 38,-181.62 38,-122.88 38,-52.05 114.53,-74.9 183,-56.75 270.41,-33.58 544.23,-18.21 645.69,-13.17"/>
<polygon fill="#63b8ff" stroke="#63b8ff" points="645.85,-16.67 655.67,-12.69 645.51,-9.68 645.85,-16.67"/>
</a>
</g>
</g>
<!-- Node22&#45;&gt;Node8 -->
<g id="edge35_Node000022_Node000008" class="edge">
<title>Node22&#45;&gt;Node8</title>
<g id="a_edge35_Node000022_Node000008"><a xlink:title=" ">
<path fill="none" stroke="#63b8ff" d="M297.74,-283.6C299.77,-257.23 305.52,-182.83 308.37,-146.03"/>
<polygon fill="#63b8ff" stroke="#63b8ff" points="311.84,-146.47 309.12,-136.23 304.86,-145.93 311.84,-146.47"/>
</a>
</g>
</g>
<!-- Node22&#45;&gt;Node23 -->
<g id="edge36_Node000022_Node000023" class="edge">
<title>Node22&#45;&gt;Node23</title>
<g id="a_edge36_Node000022_Node000023"><a xlink:title=" ">
<path fill="none" stroke="#63b8ff" d="M320.38,-286.11C323.27,-285.29 326.2,-284.49 329,-283.75 383.04,-269.56 446.1,-255.3 485.55,-246.65"/>
<polygon fill="#63b8ff" stroke="#63b8ff" points="486.25,-250.08 495.27,-244.53 484.76,-243.24 486.25,-250.08"/>
</a>
</g>
</g>
<!-- Node23&#45;&gt;Node7 -->
<g id="edge37_Node000023_Node000007" class="edge">
<title>Node23&#45;&gt;Node7</title>
<g id="a_edge37_Node000023_Node000007"><a xlink:title=" ">
<path fill="none" stroke="#63b8ff" d="M514.67,-226.74C505.88,-217.62 492.41,-203.51 481,-191 447.53,-154.33 409.42,-110.45 388.6,-86.3"/>
<polygon fill="#63b8ff" stroke="#63b8ff" points="391.44,-84.24 382.27,-78.94 386.14,-88.8 391.44,-84.24"/>
</a>
</g>
</g>
<!-- Node23&#45;&gt;Node10 -->
<g id="edge38_Node000023_Node000010" class="edge">
<title>Node23&#45;&gt;Node10</title>
<g id="a_edge38_Node000023_Node000010"><a xlink:title=" ">
<path fill="none" stroke="#63b8ff" d="M551.08,-233.35C605.24,-227.13 730.94,-211.89 847.27,-191.18"/>
<polygon fill="#63b8ff" stroke="#63b8ff" points="847.78,-194.64 857,-189.42 846.54,-187.75 847.78,-194.64"/>
</a>
</g>
</g>
<!-- Node23&#45;&gt;Node13 -->
<g id="edge39_Node000023_Node000013" class="edge">
<title>Node23&#45;&gt;Node13</title>
<g id="a_edge39_Node000023_Node000013"><a xlink:title=" ">
<path fill="none" stroke="#63b8ff" d="M551.14,-227.09C576.84,-218.3 615.7,-205 644.76,-195.05"/>
<polygon fill="#63b8ff" stroke="#63b8ff" points="645.61,-198.46 653.94,-191.91 643.35,-191.84 645.61,-198.46"/>
</a>
</g>
</g>
<!-- Node23&#45;&gt;Node20 -->
<g id="edge41_Node000023_Node000020" class="edge">
<title>Node23&#45;&gt;Node20</title>
<g id="a_edge41_Node000023_Node000020"><a xlink:title=" ">
<path fill="none" stroke="#63b8ff" d="M497,-226.59C471.65,-217.4 433.65,-203.62 406.41,-193.74"/>
<polygon fill="#63b8ff" stroke="#63b8ff" points="407.83,-190.53 397.24,-190.41 405.45,-197.11 407.83,-190.53"/>
</a>
</g>
</g>
<!-- Node24 -->
<g id="Node000024" class="node">
<title>Node24</title>
<g id="a_Node000024"><a xlink:href="native__sched_8h.html" target="_top" xlink:title="Add definitions required on the native board.">
<polygon fill="white" stroke="#666666" points="579.75,-191 490.25,-191 490.25,-170.25 579.75,-170.25 579.75,-191"/>
<text text-anchor="middle" x="535" y="-177.5" font-family="Helvetica,sans-Serif" font-size="10.00">native_sched.h</text>
</a>
</g>
</g>
<!-- Node23&#45;&gt;Node24 -->
<g id="edge40_Node000023_Node000024" class="edge">
<title>Node23&#45;&gt;Node24</title>
<g id="a_edge40_Node000023_Node000024"><a xlink:title=" ">
<path fill="none" stroke="#63b8ff" d="M525.97,-226.59C527.31,-219.89 529.15,-210.76 530.81,-202.48"/>
<polygon fill="#63b8ff" stroke="#63b8ff" points="534.21,-203.31 532.75,-192.81 527.35,-201.93 534.21,-203.31"/>
</a>
</g>
</g>
<!-- Node25&#45;&gt;Node23 -->
<g id="edge45_Node000025_Node000023" class="edge">
<title>Node25&#45;&gt;Node23</title>
<g id="a_edge45_Node000025_Node000023"><a xlink:title=" ">
<path fill="none" stroke="#63b8ff" d="M409.03,-283.34C431.23,-274.66 463.89,-261.88 488.73,-252.17"/>
<polygon fill="#63b8ff" stroke="#63b8ff" points="489.74,-255.53 497.78,-248.63 487.19,-249.01 489.74,-255.53"/>
</a>
</g>
</g>
<!-- Node26 -->
<g id="Node000026" class="node">
<title>Node26</title>
<g id="a_Node000026"><a xlink:title=" ">
<polygon fill="#e0e0e0" stroke="#999999" points="252.88,-134.25 185.12,-134.25 185.12,-113.5 252.88,-113.5 252.88,-134.25"/>
<text text-anchor="middle" x="219" y="-120.75" font-family="Helvetica,sans-Serif" font-size="10.00">cpu_conf.h</text>
</a>
</g>
</g>
<!-- Node25&#45;&gt;Node26 -->
<g id="edge44_Node000025_Node000026" class="edge">
<title>Node25&#45;&gt;Node26</title>
<g id="a_edge44_Node000025_Node000026"><a xlink:title=" ">
<path fill="none" stroke="#63b8ff" d="M374.66,-283.6C348.01,-256.42 271.33,-178.23 236.54,-142.76"/>
<polygon fill="#63b8ff" stroke="#63b8ff" points="239.21,-140.49 229.71,-135.8 234.22,-145.39 239.21,-140.49"/>
</a>
</g>
</g>
<!-- Node28&#45;&gt;Node5 -->
<g id="edge50_Node000028_Node000005" class="edge">
<title>Node28&#45;&gt;Node5</title>
<g id="a_edge50_Node000028_Node000005"><a xlink:title=" ">
<path fill="none" stroke="#63b8ff" d="M105.34,-226.67C99.59,-203.38 88.94,-143.97 120,-113.5 195.2,-39.71 531.89,-18.12 646.02,-12.86"/>
<polygon fill="#63b8ff" stroke="#63b8ff" points="645.93,-16.37 655.77,-12.43 645.63,-9.37 645.93,-16.37"/>
</a>
</g>
</g>
<!-- Node28&#45;&gt;Node7 -->
<g id="edge49_Node000028_Node000007" class="edge">
<title>Node28&#45;&gt;Node7</title>
<g id="a_edge49_Node000028_Node000007"><a xlink:title=" ">
<path fill="none" stroke="#63b8ff" d="M107.17,-226.71C105.77,-203.49 105.72,-144.24 138,-113.5 165.64,-87.17 274.68,-75.26 334.02,-70.64"/>
<polygon fill="#63b8ff" stroke="#63b8ff" points="333.96,-74.15 343.67,-69.92 333.44,-67.17 333.96,-74.15"/>
</a>
</g>
</g>
<!-- Node28&#45;&gt;Node16 -->
<g id="edge48_Node000028_Node000016" class="edge">
<title>Node28&#45;&gt;Node16</title>
<g id="a_edge48_Node000028_Node000016"><a xlink:title=" ">
<path fill="none" stroke="#63b8ff" d="M130.14,-233.88C179.7,-228.09 303.21,-212.6 405,-191 439.25,-183.73 447.13,-179.14 481,-170.25 615.48,-134.94 775.71,-95.23 847.68,-77.52"/>
<polygon fill="#63b8ff" stroke="#63b8ff" points="848.11,-81.02 856.98,-75.24 846.44,-74.22 848.11,-81.02"/>
</a>
</g>
</g>
<!-- Node29 -->
<g id="Node000029" class="node">
<title>Node29</title>
<g id="a_Node000029"><a xlink:href="irq_8h.html" target="_top" xlink:title="IRQ driver interface.">
<polygon fill="white" stroke="#666666" points="217.88,-191 180.12,-191 180.12,-170.25 217.88,-170.25 217.88,-191"/>
<text text-anchor="middle" x="199" y="-177.5" font-family="Helvetica,sans-Serif" font-size="10.00">irq.h</text>
</a>
</g>
</g>
<!-- Node28&#45;&gt;Node29 -->
<g id="edge51_Node000028_Node000029" class="edge">
<title>Node28&#45;&gt;Node29</title>
<g id="a_edge51_Node000028_Node000029"><a xlink:title=" ">
<path fill="none" stroke="#63b8ff" d="M124.27,-226.59C137.86,-218.41 157.47,-206.61 173.2,-197.15"/>
<polygon fill="#63b8ff" stroke="#63b8ff" points="174.81,-200.26 181.57,-192.11 171.2,-194.27 174.81,-200.26"/>
</a>
</g>
</g>
<!-- Node29&#45;&gt;Node8 -->
<g id="edge52_Node000029_Node000008" class="edge">
<title>Node29&#45;&gt;Node8</title>
<g id="a_edge52_Node000029_Node000008"><a xlink:title=" ">
<path fill="none" stroke="#63b8ff" d="M218.33,-170.09C235.32,-161.71 260.3,-149.39 279.89,-139.73"/>
<polygon fill="#63b8ff" stroke="#63b8ff" points="281.36,-142.9 288.78,-135.34 278.27,-136.63 281.36,-142.9"/>
</a>
</g>
</g>
<!-- Node29&#45;&gt;Node26 -->
<g id="edge53_Node000029_Node000026" class="edge">
<title>Node29&#45;&gt;Node26</title>
<g id="a_edge53_Node000029_Node000026"><a xlink:title=" ">
<path fill="none" stroke="#63b8ff" d="M202.58,-169.84C205.08,-162.99 208.51,-153.59 211.59,-145.15"/>
<polygon fill="#63b8ff" stroke="#63b8ff" points="214.79,-146.59 214.94,-136 208.22,-144.19 214.79,-146.59"/>
</a>
</g>
</g>
<!-- Node30&#45;&gt;Node10 -->
<g id="edge55_Node000030_Node000010" class="edge">
<title>Node30&#45;&gt;Node10</title>
<g id="a_edge55_Node000030_Node000010"><a xlink:title=" ">
<path fill="none" stroke="#63b8ff" d="M1101.5,-231.52C1064.21,-222.68 984.54,-203.8 934.61,-191.96"/>
<polygon fill="#63b8ff" stroke="#63b8ff" points="935.53,-188.58 925,-189.68 933.92,-195.39 935.53,-188.58"/>
</a>
</g>
</g>
<!-- Node30&#45;&gt;Node15 -->
<g id="edge56_Node000030_Node000015" class="edge">
<title>Node30&#45;&gt;Node15</title>
<g id="a_edge56_Node000030_Node000015"><a xlink:title=" ">
<path fill="none" stroke="#63b8ff" d="M1118.25,-226.87C1111.14,-208.86 1095.57,-169.39 1086.01,-145.18"/>
<polygon fill="#63b8ff" stroke="#63b8ff" points="1089.35,-144.1 1082.42,-136.08 1082.84,-146.67 1089.35,-144.1"/>
</a>
</g>
</g>
</g>
</svg>
