<?xml version="1.0" encoding="UTF-8" standalone="no"?>
<!DOCTYPE svg PUBLIC "-//W3C//DTD SVG 1.1//EN"
 "http://www.w3.org/Graphics/SVG/1.1/DTD/svg11.dtd">
<!-- Generated by graphviz version 12.1.2 (0)
 -->
<!-- Title: boards/stm32f723e&#45;disco/include/gpio_params.h Pages: 1 -->
<svg width="1149pt" height="382pt"
 viewBox="0.00 0.00 1148.88 382.00" xmlns="http://www.w3.org/2000/svg" xmlns:xlink="http://www.w3.org/1999/xlink">
<g id="graph0" class="graph" transform="scale(1 1) rotate(0) translate(4 378)">
<title>boards/stm32f723e&#45;disco/include/gpio_params.h</title>
<!-- Node1 -->
<g id="Node000001" class="node">
<title>Node1</title>
<g id="a_Node000001"><a xlink:title="Board specific configuration of direct mapped GPIOs.">
<polygon fill="#999999" stroke="#666666" points="946.25,-374 806.5,-374 806.5,-340.5 946.25,-340.5 946.25,-374"/>
<text text-anchor="start" x="814.5" y="-360.5" font-family="Helvetica,sans-Serif" font-size="10.00">boards/stm32f723e&#45;disco</text>
<text text-anchor="middle" x="876.38" y="-347.75" font-family="Helvetica,sans-Serif" font-size="10.00">/include/gpio_params.h</text>
</a>
</g>
</g>
<!-- Node2 -->
<g id="Node000002" class="node">
<title>Node2</title>
<g id="a_Node000002"><a xlink:href="stm32f723e-disco_2include_2board_8h.html" target="_top" xlink:title="Board specific definitions for the STM32F723E&#45;DISCO board.">
<polygon fill="white" stroke="#666666" points="868.75,-304.5 816,-304.5 816,-283.75 868.75,-283.75 868.75,-304.5"/>
<text text-anchor="middle" x="842.38" y="-291" font-family="Helvetica,sans-Serif" font-size="10.00">board.h</text>
</a>
</g>
</g>
<!-- Node1&#45;&gt;Node2 -->
<g id="edge1_Node000001_Node000002" class="edge">
<title>Node1&#45;&gt;Node2</title>
<g id="a_edge1_Node000001_Node000002"><a xlink:title=" ">
<path fill="none" stroke="#63b8ff" d="M867.44,-340.19C863.12,-332.42 857.89,-323.02 853.33,-314.82"/>
<polygon fill="#63b8ff" stroke="#63b8ff" points="856.5,-313.33 848.59,-306.29 850.39,-316.73 856.5,-313.33"/>
</a>
</g>
</g>
<!-- Node28 -->
<g id="Node000028" class="node">
<title>Node28</title>
<g id="a_Node000028"><a xlink:href="periph_8h.html" target="_top" xlink:title="Parameter definitions for mapping peripherals directly to SAUL.">
<polygon fill="white" stroke="#666666" points="1140.88,-134.25 1061.88,-134.25 1061.88,-113.5 1140.88,-113.5 1140.88,-134.25"/>
<text text-anchor="middle" x="1101.38" y="-120.75" font-family="Helvetica,sans-Serif" font-size="10.00">saul/periph.h</text>
</a>
</g>
</g>
<!-- Node1&#45;&gt;Node28 -->
<g id="edge38_Node000001_Node000028" class="edge">
<title>Node1&#45;&gt;Node28</title>
<g id="a_edge38_Node000001_Node000028"><a xlink:title=" ">
<path fill="none" stroke="#63b8ff" d="M891.84,-340.35C932.44,-298.6 1041.84,-186.09 1084.25,-142.48"/>
<polygon fill="#63b8ff" stroke="#63b8ff" points="1086.72,-144.97 1091.18,-135.36 1081.7,-140.09 1086.72,-144.97"/>
</a>
</g>
</g>
<!-- Node3 -->
<g id="Node000003" class="node">
<title>Node3</title>
<g id="a_Node000003"><a xlink:title=" ">
<polygon fill="#e0e0e0" stroke="#999999" points="838.5,-247.75 796.25,-247.75 796.25,-227 838.5,-227 838.5,-247.75"/>
<text text-anchor="middle" x="817.38" y="-234.25" font-family="Helvetica,sans-Serif" font-size="10.00">cpu.h</text>
</a>
</g>
</g>
<!-- Node2&#45;&gt;Node3 -->
<g id="edge2_Node000002_Node000003" class="edge">
<title>Node2&#45;&gt;Node3</title>
<g id="a_edge2_Node000002_Node000003"><a xlink:title=" ">
<path fill="none" stroke="#63b8ff" d="M837.91,-283.34C834.74,-276.41 830.39,-266.87 826.5,-258.36"/>
<polygon fill="#63b8ff" stroke="#63b8ff" points="829.77,-257.1 822.43,-249.46 823.4,-260.01 829.77,-257.1"/>
</a>
</g>
</g>
<!-- Node4 -->
<g id="Node000004" class="node">
<title>Node4</title>
<g id="a_Node000004"><a xlink:href="boards_2stm32f723e-disco_2include_2periph__conf_8h.html" target="_top" xlink:title="Peripheral MCU configuration for the STM32F723E&#45;DISCO board.">
<polygon fill="white" stroke="#666666" points="907,-191 825.75,-191 825.75,-170.25 907,-170.25 907,-191"/>
<text text-anchor="middle" x="866.38" y="-177.5" font-family="Helvetica,sans-Serif" font-size="10.00">periph_conf.h</text>
</a>
</g>
</g>
<!-- Node2&#45;&gt;Node4 -->
<g id="edge3_Node000002_Node000004" class="edge">
<title>Node2&#45;&gt;Node4</title>
<g id="a_edge3_Node000002_Node000004"><a xlink:title=" ">
<path fill="none" stroke="#63b8ff" d="M844.42,-283.62C848.26,-265.77 856.64,-226.86 861.86,-202.59"/>
<polygon fill="#63b8ff" stroke="#63b8ff" points="865.26,-203.42 863.95,-192.9 858.42,-201.94 865.26,-203.42"/>
</a>
</g>
</g>
<!-- Node11 -->
<g id="Node000011" class="node">
<title>Node11</title>
<g id="a_Node000011"><a xlink:href="stm32__leds_8h.html" target="_top" xlink:title="Common LED macros.">
<polygon fill="white" stroke="#666666" points="482,-247.75 400.75,-247.75 400.75,-227 482,-227 482,-247.75"/>
<text text-anchor="middle" x="441.38" y="-234.25" font-family="Helvetica,sans-Serif" font-size="10.00">stm32_leds.h</text>
</a>
</g>
</g>
<!-- Node2&#45;&gt;Node11 -->
<g id="edge11_Node000002_Node000011" class="edge">
<title>Node2&#45;&gt;Node11</title>
<g id="a_edge11_Node000002_Node000011"><a xlink:title=" ">
<path fill="none" stroke="#63b8ff" d="M815.75,-289.49C750.28,-280.55 580.46,-257.36 493.84,-245.54"/>
<polygon fill="#63b8ff" stroke="#63b8ff" points="494.33,-242.07 483.94,-244.19 493.38,-249.01 494.33,-242.07"/>
</a>
</g>
</g>
<!-- Node5 -->
<g id="Node000005" class="node">
<title>Node5</title>
<g id="a_Node000005"><a xlink:title=" ">
<polygon fill="#e0e0e0" stroke="#999999" points="877.5,-20.75 799.25,-20.75 799.25,0 877.5,0 877.5,-20.75"/>
<text text-anchor="middle" x="838.38" y="-7.25" font-family="Helvetica,sans-Serif" font-size="10.00">periph_cpu.h</text>
</a>
</g>
</g>
<!-- Node4&#45;&gt;Node5 -->
<g id="edge4_Node000004_Node000005" class="edge">
<title>Node4&#45;&gt;Node5</title>
<g id="a_edge4_Node000004_Node000005"><a xlink:title=" ">
<path fill="none" stroke="#63b8ff" d="M863.73,-169.95C861.3,-160.8 857.73,-146.67 855.38,-134.25 848.63,-98.74 843.42,-56.98 840.64,-32.42"/>
<polygon fill="#63b8ff" stroke="#63b8ff" points="844.12,-32.05 839.54,-22.49 837.16,-32.82 844.12,-32.05"/>
</a>
</g>
</g>
<!-- Node6 -->
<g id="Node000006" class="node">
<title>Node6</title>
<g id="a_Node000006"><a xlink:title=" ">
<polygon fill="#e0e0e0" stroke="#999999" points="928.75,-134.25 864,-134.25 864,-113.5 928.75,-113.5 928.75,-134.25"/>
<text text-anchor="middle" x="896.38" y="-120.75" font-family="Helvetica,sans-Serif" font-size="10.00">clk_conf.h</text>
</a>
</g>
</g>
<!-- Node4&#45;&gt;Node6 -->
<g id="edge5_Node000004_Node000006" class="edge">
<title>Node4&#45;&gt;Node6</title>
<g id="a_edge5_Node000004_Node000006"><a xlink:title=" ">
<path fill="none" stroke="#63b8ff" d="M871.74,-169.84C875.58,-162.83 880.88,-153.16 885.58,-144.58"/>
<polygon fill="#63b8ff" stroke="#63b8ff" points="888.59,-146.36 890.33,-135.91 882.46,-142.99 888.59,-146.36"/>
</a>
</g>
</g>
<!-- Node7 -->
<g id="Node000007" class="node">
<title>Node7</title>
<g id="a_Node000007"><a xlink:title=" ">
<polygon fill="#e0e0e0" stroke="#999999" points="1043.5,-134.25 947.25,-134.25 947.25,-113.5 1043.5,-113.5 1043.5,-134.25"/>
<text text-anchor="middle" x="995.38" y="-120.75" font-family="Helvetica,sans-Serif" font-size="10.00">cfg_rtt_default.h</text>
</a>
</g>
</g>
<!-- Node4&#45;&gt;Node7 -->
<g id="edge6_Node000004_Node000007" class="edge">
<title>Node4&#45;&gt;Node7</title>
<g id="a_edge6_Node000004_Node000007"><a xlink:title=" ">
<path fill="none" stroke="#63b8ff" d="M889.44,-169.84C909.62,-161.27 939.18,-148.73 961.95,-139.06"/>
<polygon fill="#63b8ff" stroke="#63b8ff" points="963.28,-142.3 971.12,-135.17 960.55,-135.85 963.28,-142.3"/>
</a>
</g>
</g>
<!-- Node8 -->
<g id="Node000008" class="node">
<title>Node8</title>
<g id="a_Node000008"><a xlink:href="cfg__usb__otg__fs_8h.html" target="_top" xlink:title="Common configuration for STM32 OTG FS peripheral.">
<polygon fill="white" stroke="#666666" points="808.25,-134.25 710.5,-134.25 710.5,-113.5 808.25,-113.5 808.25,-134.25"/>
<text text-anchor="middle" x="759.38" y="-120.75" font-family="Helvetica,sans-Serif" font-size="10.00">cfg_usb_otg_fs.h</text>
</a>
</g>
</g>
<!-- Node4&#45;&gt;Node8 -->
<g id="edge7_Node000004_Node000008" class="edge">
<title>Node4&#45;&gt;Node8</title>
<g id="a_edge7_Node000004_Node000008"><a xlink:title=" ">
<path fill="none" stroke="#63b8ff" d="M847.25,-169.84C830.89,-161.47 807.1,-149.29 788.4,-139.72"/>
<polygon fill="#63b8ff" stroke="#63b8ff" points="790.18,-136.71 779.69,-135.27 786.99,-142.94 790.18,-136.71"/>
</a>
</g>
</g>
<!-- Node8&#45;&gt;Node5 -->
<g id="edge8_Node000008_Node000005" class="edge">
<title>Node8&#45;&gt;Node5</title>
<g id="a_edge8_Node000008_Node000005"><a xlink:title=" ">
<path fill="none" stroke="#63b8ff" d="M766.11,-113.37C779.1,-95.03 807.85,-54.45 824.92,-30.37"/>
<polygon fill="#63b8ff" stroke="#63b8ff" points="827.63,-32.59 830.56,-22.41 821.92,-28.55 827.63,-32.59"/>
</a>
</g>
</g>
<!-- Node9 -->
<g id="Node000009" class="node">
<title>Node9</title>
<g id="a_Node000009"><a xlink:href="usbdev__synopsys__dwc2_8h.html" target="_top" xlink:title="Low level USB FS/HS driver definitions for MCUs with Synopsys DWC2 IP core.">
<polygon fill="white" stroke="#666666" points="632.38,-77.5 490.38,-77.5 490.38,-56.75 632.38,-56.75 632.38,-77.5"/>
<text text-anchor="middle" x="561.38" y="-64" font-family="Helvetica,sans-Serif" font-size="10.00">usbdev_synopsys_dwc2.h</text>
</a>
</g>
</g>
<!-- Node8&#45;&gt;Node9 -->
<g id="edge9_Node000008_Node000009" class="edge">
<title>Node8&#45;&gt;Node9</title>
<g id="a_edge9_Node000008_Node000009"><a xlink:title=" ">
<path fill="none" stroke="#63b8ff" d="M723.98,-113.09C691.56,-104.12 643.36,-90.79 607.85,-80.98"/>
<polygon fill="#63b8ff" stroke="#63b8ff" points="608.83,-77.62 598.26,-78.32 606.96,-84.36 608.83,-77.62"/>
</a>
</g>
</g>
<!-- Node10 -->
<g id="Node000010" class="node">
<title>Node10</title>
<g id="a_Node000010"><a xlink:title=" ">
<polygon fill="#e0e0e0" stroke="#999999" points="408.75,-20.75 356,-20.75 356,0 408.75,0 408.75,-20.75"/>
<text text-anchor="middle" x="382.38" y="-7.25" font-family="Helvetica,sans-Serif" font-size="10.00">stdint.h</text>
</a>
</g>
</g>
<!-- Node9&#45;&gt;Node10 -->
<g id="edge10_Node000009_Node000010" class="edge">
<title>Node9&#45;&gt;Node10</title>
<g id="a_edge10_Node000009_Node000010"><a xlink:title=" ">
<path fill="none" stroke="#63b8ff" d="M529.37,-56.34C498.7,-46.95 452.4,-32.79 419.98,-22.88"/>
<polygon fill="#63b8ff" stroke="#63b8ff" points="421.17,-19.58 410.59,-20 419.12,-26.28 421.17,-19.58"/>
</a>
</g>
</g>
<!-- Node12 -->
<g id="Node000012" class="node">
<title>Node12</title>
<g id="a_Node000012"><a xlink:href="gpio__ll_8h.html" target="_top" xlink:title="Peripheral GPIO Low&#45;Level API.">
<polygon fill="white" stroke="#666666" points="486.88,-134.25 395.88,-134.25 395.88,-113.5 486.88,-113.5 486.88,-134.25"/>
<text text-anchor="middle" x="441.38" y="-120.75" font-family="Helvetica,sans-Serif" font-size="10.00">periph/gpio_ll.h</text>
</a>
</g>
</g>
<!-- Node11&#45;&gt;Node12 -->
<g id="edge12_Node000011_Node000012" class="edge">
<title>Node11&#45;&gt;Node12</title>
<g id="a_edge12_Node000011_Node000012"><a xlink:title=" ">
<path fill="none" stroke="#63b8ff" d="M441.38,-226.87C441.38,-209.1 441.38,-170.47 441.38,-146.18"/>
<polygon fill="#63b8ff" stroke="#63b8ff" points="444.88,-146.19 441.38,-136.19 437.88,-146.19 444.88,-146.19"/>
</a>
</g>
</g>
<!-- Node22 -->
<g id="Node000022" class="node">
<title>Node22</title>
<g id="a_Node000022"><a xlink:href="kernel__defines_8h.html" target="_top" xlink:title="Common macros and compiler attributes/pragmas configuration.">
<polygon fill="white" stroke="#666666" points="285.5,-191 189.25,-191 189.25,-170.25 285.5,-170.25 285.5,-191"/>
<text text-anchor="middle" x="237.38" y="-177.5" font-family="Helvetica,sans-Serif" font-size="10.00">kernel_defines.h</text>
</a>
</g>
</g>
<!-- Node11&#45;&gt;Node22 -->
<g id="edge28_Node000011_Node000022" class="edge">
<title>Node11&#45;&gt;Node22</title>
<g id="a_edge28_Node000011_Node000022"><a xlink:title=" ">
<path fill="none" stroke="#63b8ff" d="M404.9,-226.59C371.36,-217.58 321.41,-204.18 284.78,-194.35"/>
<polygon fill="#63b8ff" stroke="#63b8ff" points="285.9,-191.02 275.34,-191.81 284.09,-197.79 285.9,-191.02"/>
</a>
</g>
</g>
<!-- Node12&#45;&gt;Node5 -->
<g id="edge26_Node000012_Node000005" class="edge">
<title>Node12&#45;&gt;Node5</title>
<g id="a_edge26_Node000012_Node000005"><a xlink:title=" ">
<path fill="none" stroke="#63b8ff" d="M487.31,-122.41C548.01,-120.38 657.29,-111.75 743.38,-77.5 772.47,-65.93 801.35,-43.94 819.49,-28.51"/>
<polygon fill="#63b8ff" stroke="#63b8ff" points="821.57,-31.33 826.8,-22.12 816.97,-26.06 821.57,-31.33"/>
</a>
</g>
</g>
<!-- Node12&#45;&gt;Node10 -->
<g id="edge16_Node000012_Node000010" class="edge">
<title>Node12&#45;&gt;Node10</title>
<g id="a_edge16_Node000012_Node000010"><a xlink:title=" ">
<path fill="none" stroke="#63b8ff" d="M430.37,-113.08C421.38,-104.52 408.94,-91.32 401.38,-77.5 393.55,-63.22 388.68,-45.41 385.82,-31.87"/>
<polygon fill="#63b8ff" stroke="#63b8ff" points="389.32,-31.52 384.03,-22.34 382.44,-32.82 389.32,-31.52"/>
</a>
</g>
</g>
<!-- Node13 -->
<g id="Node000013" class="node">
<title>Node13</title>
<g id="a_Node000013"><a xlink:href="assert_8h.html" target="_top" xlink:title="POSIX.1&#45;2008 compliant version of the assert macro.">
<polygon fill="white" stroke="#666666" points="252.88,-77.5 197.88,-77.5 197.88,-56.75 252.88,-56.75 252.88,-77.5"/>
<text text-anchor="middle" x="225.38" y="-64" font-family="Helvetica,sans-Serif" font-size="10.00">assert.h</text>
</a>
</g>
</g>
<!-- Node12&#45;&gt;Node13 -->
<g id="edge13_Node000012_Node000013" class="edge">
<title>Node12&#45;&gt;Node13</title>
<g id="a_edge13_Node000012_Node000013"><a xlink:title=" ">
<path fill="none" stroke="#63b8ff" d="M402.03,-113.05C367.9,-104.51 316.87,-91.69 264.19,-78.21"/>
<polygon fill="#63b8ff" stroke="#63b8ff" points="265.3,-74.88 254.74,-75.79 263.56,-81.66 265.3,-74.88"/>
</a>
</g>
</g>
<!-- Node14 -->
<g id="Node000014" class="node">
<title>Node14</title>
<g id="a_Node000014"><a xlink:title=" ">
<polygon fill="#e0e0e0" stroke="#999999" points="471.88,-77.5 410.88,-77.5 410.88,-56.75 471.88,-56.75 471.88,-77.5"/>
<text text-anchor="middle" x="441.38" y="-64" font-family="Helvetica,sans-Serif" font-size="10.00">stdbool.h</text>
</a>
</g>
</g>
<!-- Node12&#45;&gt;Node14 -->
<g id="edge15_Node000012_Node000014" class="edge">
<title>Node12&#45;&gt;Node14</title>
<g id="a_edge15_Node000012_Node000014"><a xlink:title=" ">
<path fill="none" stroke="#63b8ff" d="M441.38,-113.09C441.38,-106.47 441.38,-97.47 441.38,-89.27"/>
<polygon fill="#63b8ff" stroke="#63b8ff" points="444.88,-89.34 441.38,-79.34 437.88,-89.34 444.88,-89.34"/>
</a>
</g>
</g>
<!-- Node15 -->
<g id="Node000015" class="node">
<title>Node15</title>
<g id="a_Node000015"><a xlink:href="architecture_8h.html" target="_top" xlink:title="Platform&#45;independent access to architecture details.">
<polygon fill="white" stroke="#666666" points="734.12,-77.5 650.62,-77.5 650.62,-56.75 734.12,-56.75 734.12,-77.5"/>
<text text-anchor="middle" x="692.38" y="-64" font-family="Helvetica,sans-Serif" font-size="10.00">architecture.h</text>
</a>
</g>
</g>
<!-- Node12&#45;&gt;Node15 -->
<g id="edge17_Node000012_Node000015" class="edge">
<title>Node12&#45;&gt;Node15</title>
<g id="a_edge17_Node000012_Node000015"><a xlink:title=" ">
<path fill="none" stroke="#63b8ff" d="M486.54,-113.02C529.48,-103.66 594.06,-89.57 639.41,-79.68"/>
<polygon fill="#63b8ff" stroke="#63b8ff" points="639.99,-83.13 649.02,-77.58 638.5,-76.29 639.99,-83.13"/>
</a>
</g>
</g>
<!-- Node19 -->
<g id="Node000019" class="node">
<title>Node19</title>
<g id="a_Node000019"><a xlink:href="drivers_2include_2periph_2gpio_8h.html" target="_top" xlink:title="Low&#45;level GPIO peripheral driver interface definitions.">
<polygon fill="white" stroke="#666666" points="1140.25,-77.5 1060.5,-77.5 1060.5,-56.75 1140.25,-56.75 1140.25,-77.5"/>
<text text-anchor="middle" x="1100.38" y="-64" font-family="Helvetica,sans-Serif" font-size="10.00">periph/gpio.h</text>
</a>
</g>
</g>
<!-- Node12&#45;&gt;Node19 -->
<g id="edge22_Node000012_Node000019" class="edge">
<title>Node12&#45;&gt;Node19</title>
<g id="a_edge22_Node000012_Node000019"><a xlink:title=" ">
<path fill="none" stroke="#63b8ff" d="M487.09,-121.27C587.11,-117.37 833.02,-105.68 1048.83,-77.69"/>
<polygon fill="#63b8ff" stroke="#63b8ff" points="1049.1,-81.19 1058.56,-76.42 1048.19,-74.25 1049.1,-81.19"/>
</a>
</g>
</g>
<!-- Node21 -->
<g id="Node000021" class="node">
<title>Node21</title>
<g id="a_Node000021"><a xlink:title=" ">
<polygon fill="#e0e0e0" stroke="#999999" points="354.12,-77.5 270.62,-77.5 270.62,-56.75 354.12,-56.75 354.12,-77.5"/>
<text text-anchor="middle" x="312.38" y="-64" font-family="Helvetica,sans-Serif" font-size="10.00">gpio_ll_arch.h</text>
</a>
</g>
</g>
<!-- Node12&#45;&gt;Node21 -->
<g id="edge27_Node000012_Node000021" class="edge">
<title>Node12&#45;&gt;Node21</title>
<g id="a_edge27_Node000012_Node000021"><a xlink:title=" ">
<path fill="none" stroke="#63b8ff" d="M418.31,-113.09C398.13,-104.52 368.57,-91.98 345.8,-82.31"/>
<polygon fill="#63b8ff" stroke="#63b8ff" points="347.2,-79.1 336.63,-78.42 344.47,-85.55 347.2,-79.1"/>
</a>
</g>
</g>
<!-- Node13&#45;&gt;Node10 -->
<g id="edge14_Node000013_Node000010" class="edge">
<title>Node13&#45;&gt;Node10</title>
<g id="a_edge14_Node000013_Node000010"><a xlink:title=" ">
<path fill="none" stroke="#63b8ff" d="M253.08,-56.46C278.65,-47.55 316.82,-34.24 345.06,-24.39"/>
<polygon fill="#63b8ff" stroke="#63b8ff" points="346.01,-27.76 354.3,-21.17 343.71,-21.15 346.01,-27.76"/>
</a>
</g>
</g>
<!-- Node15&#45;&gt;Node10 -->
<g id="edge18_Node000015_Node000010" class="edge">
<title>Node15&#45;&gt;Node10</title>
<g id="a_edge18_Node000015_Node000010"><a xlink:title=" ">
<path fill="none" stroke="#63b8ff" d="M650.36,-58.37C647.32,-57.82 644.3,-57.27 641.38,-56.75 562.96,-42.67 471.1,-26.7 420.56,-17.96"/>
<polygon fill="#63b8ff" stroke="#63b8ff" points="421.18,-14.52 410.73,-16.26 419.98,-21.41 421.18,-14.52"/>
</a>
</g>
</g>
<!-- Node16 -->
<g id="Node000016" class="node">
<title>Node16</title>
<g id="a_Node000016"><a xlink:href="inttypes_8h.html" target="_top" xlink:title="Adds include for missing inttype definitions.">
<polygon fill="white" stroke="#666666" points="636.75,-20.75 572,-20.75 572,0 636.75,0 636.75,-20.75"/>
<text text-anchor="middle" x="604.38" y="-7.25" font-family="Helvetica,sans-Serif" font-size="10.00">inttypes.h</text>
</a>
</g>
</g>
<!-- Node15&#45;&gt;Node16 -->
<g id="edge19_Node000015_Node000016" class="edge">
<title>Node15&#45;&gt;Node16</title>
<g id="a_edge19_Node000015_Node000016"><a xlink:title=" ">
<path fill="none" stroke="#63b8ff" d="M676.64,-56.34C663.5,-48.16 644.53,-36.36 629.32,-26.9"/>
<polygon fill="#63b8ff" stroke="#63b8ff" points="631.6,-24.19 621.26,-21.88 627.9,-30.13 631.6,-24.19"/>
</a>
</g>
</g>
<!-- Node17 -->
<g id="Node000017" class="node">
<title>Node17</title>
<g id="a_Node000017"><a xlink:title=" ">
<polygon fill="#e0e0e0" stroke="#999999" points="948.75,-20.75 896,-20.75 896,0 948.75,0 948.75,-20.75"/>
<text text-anchor="middle" x="922.38" y="-7.25" font-family="Helvetica,sans-Serif" font-size="10.00">limits.h</text>
</a>
</g>
</g>
<!-- Node15&#45;&gt;Node17 -->
<g id="edge20_Node000015_Node000017" class="edge">
<title>Node15&#45;&gt;Node17</title>
<g id="a_edge20_Node000015_Node000017"><a xlink:title=" ">
<path fill="none" stroke="#63b8ff" d="M734.45,-56.6C771.42,-48.17 826.93,-35.33 884.5,-21.17"/>
<polygon fill="#63b8ff" stroke="#63b8ff" points="885.32,-24.57 894.19,-18.77 883.64,-17.77 885.32,-24.57"/>
</a>
</g>
</g>
<!-- Node18 -->
<g id="Node000018" class="node">
<title>Node18</title>
<g id="a_Node000018"><a xlink:title=" ">
<polygon fill="#e0e0e0" stroke="#999999" points="764.25,-20.75 654.5,-20.75 654.5,0 764.25,0 764.25,-20.75"/>
<text text-anchor="middle" x="709.38" y="-7.25" font-family="Helvetica,sans-Serif" font-size="10.00">architecture_arch.h</text>
</a>
</g>
</g>
<!-- Node15&#45;&gt;Node18 -->
<g id="edge21_Node000015_Node000018" class="edge">
<title>Node15&#45;&gt;Node18</title>
<g id="a_edge21_Node000015_Node000018"><a xlink:title=" ">
<path fill="none" stroke="#63b8ff" d="M695.41,-56.34C697.52,-49.56 700.39,-40.3 702.99,-31.94"/>
<polygon fill="#63b8ff" stroke="#63b8ff" points="706.29,-33.11 705.91,-22.52 699.61,-31.04 706.29,-33.11"/>
</a>
</g>
</g>
<!-- Node19&#45;&gt;Node5 -->
<g id="edge24_Node000019_Node000005" class="edge">
<title>Node19&#45;&gt;Node5</title>
<g id="a_edge24_Node000019_Node000005"><a xlink:title=" ">
<path fill="none" stroke="#63b8ff" d="M1060.01,-57.69C1014.07,-48.09 938.95,-32.39 889.09,-21.97"/>
<polygon fill="#63b8ff" stroke="#63b8ff" points="889.91,-18.57 879.41,-19.95 888.48,-25.42 889.91,-18.57"/>
</a>
</g>
</g>
<!-- Node19&#45;&gt;Node17 -->
<g id="edge23_Node000019_Node000017" class="edge">
<title>Node19&#45;&gt;Node17</title>
<g id="a_edge23_Node000019_Node000017"><a xlink:title=" ">
<path fill="none" stroke="#63b8ff" d="M1068.55,-56.34C1038.05,-46.95 992.01,-32.79 959.77,-22.88"/>
<polygon fill="#63b8ff" stroke="#63b8ff" points="961.02,-19.6 950.44,-20.01 958.96,-26.29 961.02,-19.6"/>
</a>
</g>
</g>
<!-- Node20 -->
<g id="Node000020" class="node">
<title>Node20</title>
<g id="a_Node000020"><a xlink:title=" ">
<polygon fill="#e0e0e0" stroke="#999999" points="1048,-20.75 966.75,-20.75 966.75,0 1048,0 1048,-20.75"/>
<text text-anchor="middle" x="1007.38" y="-7.25" font-family="Helvetica,sans-Serif" font-size="10.00">periph_conf.h</text>
</a>
</g>
</g>
<!-- Node19&#45;&gt;Node20 -->
<g id="edge25_Node000019_Node000020" class="edge">
<title>Node19&#45;&gt;Node20</title>
<g id="a_edge25_Node000019_Node000020"><a xlink:title=" ">
<path fill="none" stroke="#63b8ff" d="M1083.75,-56.34C1069.86,-48.16 1049.81,-36.36 1033.74,-26.9"/>
<polygon fill="#63b8ff" stroke="#63b8ff" points="1035.56,-23.9 1025.16,-21.85 1032,-29.94 1035.56,-23.9"/>
</a>
</g>
</g>
<!-- Node23 -->
<g id="Node000023" class="node">
<title>Node23</title>
<g id="a_Node000023"><a xlink:href="modules_8h.html" target="_top" xlink:title="Common macros and compiler attributes/pragmas configuration.">
<polygon fill="white" stroke="#666666" points="270.88,-134.25 203.88,-134.25 203.88,-113.5 270.88,-113.5 270.88,-134.25"/>
<text text-anchor="middle" x="237.38" y="-120.75" font-family="Helvetica,sans-Serif" font-size="10.00">modules.h</text>
</a>
</g>
</g>
<!-- Node22&#45;&gt;Node23 -->
<g id="edge29_Node000022_Node000023" class="edge">
<title>Node22&#45;&gt;Node23</title>
<g id="a_edge29_Node000022_Node000023"><a xlink:title=" ">
<path fill="none" stroke="#63b8ff" d="M237.38,-169.84C237.38,-163.22 237.38,-154.22 237.38,-146.02"/>
<polygon fill="#63b8ff" stroke="#63b8ff" points="240.88,-146.09 237.38,-136.09 233.88,-146.09 240.88,-146.09"/>
</a>
</g>
</g>
<!-- Node24 -->
<g id="Node000024" class="node">
<title>Node24</title>
<g id="a_Node000024"><a xlink:href="riot__version_8h.html" target="_top" xlink:title="Common macros and compiler attributes/pragmas configuration.">
<polygon fill="white" stroke="#666666" points="371.75,-134.25 289,-134.25 289,-113.5 371.75,-113.5 371.75,-134.25"/>
<text text-anchor="middle" x="330.38" y="-120.75" font-family="Helvetica,sans-Serif" font-size="10.00">riot_version.h</text>
</a>
</g>
</g>
<!-- Node22&#45;&gt;Node24 -->
<g id="edge30_Node000022_Node000024" class="edge">
<title>Node22&#45;&gt;Node24</title>
<g id="a_edge30_Node000022_Node000024"><a xlink:title=" ">
<path fill="none" stroke="#63b8ff" d="M254,-169.84C267.89,-161.66 287.94,-149.86 304.01,-140.4"/>
<polygon fill="#63b8ff" stroke="#63b8ff" points="305.75,-143.44 312.59,-135.35 302.19,-137.4 305.75,-143.44"/>
</a>
</g>
</g>
<!-- Node25 -->
<g id="Node000025" class="node">
<title>Node25</title>
<g id="a_Node000025"><a xlink:href="compiler__hints_8h.html" target="_top" xlink:title="Common macros and compiler attributes/pragmas configuration.">
<polygon fill="white" stroke="#666666" points="185.88,-134.25 88.88,-134.25 88.88,-113.5 185.88,-113.5 185.88,-134.25"/>
<text text-anchor="middle" x="137.38" y="-120.75" font-family="Helvetica,sans-Serif" font-size="10.00">compiler_hints.h</text>
</a>
</g>
</g>
<!-- Node22&#45;&gt;Node25 -->
<g id="edge32_Node000022_Node000025" class="edge">
<title>Node22&#45;&gt;Node25</title>
<g id="a_edge32_Node000022_Node000025"><a xlink:title=" ">
<path fill="none" stroke="#63b8ff" d="M219.5,-169.84C204.28,-161.51 182.18,-149.41 164.74,-139.86"/>
<polygon fill="#63b8ff" stroke="#63b8ff" points="166.88,-137.04 156.43,-135.31 163.52,-143.18 166.88,-137.04"/>
</a>
</g>
</g>
<!-- Node26 -->
<g id="Node000026" class="node">
<title>Node26</title>
<g id="a_Node000026"><a xlink:href="container_8h.html" target="_top" xlink:title="Common macros and compiler attributes/pragmas configuration.">
<polygon fill="white" stroke="#666666" points="70.75,-134.25 0,-134.25 0,-113.5 70.75,-113.5 70.75,-134.25"/>
<text text-anchor="middle" x="35.38" y="-120.75" font-family="Helvetica,sans-Serif" font-size="10.00">container.h</text>
</a>
</g>
</g>
<!-- Node22&#45;&gt;Node26 -->
<g id="edge35_Node000022_Node000026" class="edge">
<title>Node22&#45;&gt;Node26</title>
<g id="a_edge35_Node000022_Node000026"><a xlink:title=" ">
<path fill="none" stroke="#63b8ff" d="M201.26,-169.84C167.94,-160.81 118.28,-147.35 81.98,-137.51"/>
<polygon fill="#63b8ff" stroke="#63b8ff" points="83.2,-134.21 72.64,-134.97 81.37,-140.97 83.2,-134.21"/>
</a>
</g>
</g>
<!-- Node24&#45;&gt;Node10 -->
<g id="edge31_Node000024_Node000010" class="edge">
<title>Node24&#45;&gt;Node10</title>
<g id="a_edge31_Node000024_Node000010"><a xlink:title=" ">
<path fill="none" stroke="#63b8ff" d="M288.82,-115.2C251.37,-107.34 200.39,-93.96 188.38,-77.5 182.94,-70.05 182.64,-63.98 188.38,-56.75 207.47,-32.68 293.49,-20.16 344.36,-14.76"/>
<polygon fill="#63b8ff" stroke="#63b8ff" points="344.45,-18.27 354.05,-13.78 343.75,-11.3 344.45,-18.27"/>
</a>
</g>
</g>
<!-- Node25&#45;&gt;Node10 -->
<g id="edge34_Node000025_Node000010" class="edge">
<title>Node25&#45;&gt;Node10</title>
<g id="a_edge34_Node000025_Node000010"><a xlink:title=" ">
<path fill="none" stroke="#63b8ff" d="M140.95,-113.06C146.81,-98.4 159.91,-70.98 180.38,-56.75 229.74,-22.43 300.84,-13.58 344.19,-11.58"/>
<polygon fill="#63b8ff" stroke="#63b8ff" points="344.26,-15.08 354.13,-11.23 344.01,-8.08 344.26,-15.08"/>
</a>
</g>
</g>
<!-- Node25&#45;&gt;Node13 -->
<g id="edge33_Node000025_Node000013" class="edge">
<title>Node25&#45;&gt;Node13</title>
<g id="a_edge33_Node000025_Node000013"><a xlink:title=" ">
<path fill="none" stroke="#63b8ff" d="M153.11,-113.09C166.25,-104.91 185.22,-93.11 200.43,-83.65"/>
<polygon fill="#63b8ff" stroke="#63b8ff" points="201.85,-86.88 208.49,-78.63 198.15,-80.94 201.85,-86.88"/>
</a>
</g>
</g>
<!-- Node26&#45;&gt;Node10 -->
<g id="edge37_Node000026_Node000010" class="edge">
<title>Node26&#45;&gt;Node10</title>
<g id="a_edge37_Node000026_Node000010"><a xlink:title=" ">
<path fill="none" stroke="#63b8ff" d="M32.44,-113.36C28.68,-99.08 24.23,-72.16 38.38,-56.75 78.8,-12.69 263.4,-9.68 344.25,-10.55"/>
<polygon fill="#63b8ff" stroke="#63b8ff" points="344.07,-14.05 354.11,-10.68 344.16,-7.05 344.07,-14.05"/>
</a>
</g>
</g>
<!-- Node27 -->
<g id="Node000027" class="node">
<title>Node27</title>
<g id="a_Node000027"><a xlink:title=" ">
<polygon fill="#e0e0e0" stroke="#999999" points="102.88,-77.5 47.88,-77.5 47.88,-56.75 102.88,-56.75 102.88,-77.5"/>
<text text-anchor="middle" x="75.38" y="-64" font-family="Helvetica,sans-Serif" font-size="10.00">stddef.h</text>
</a>
</g>
</g>
<!-- Node26&#45;&gt;Node27 -->
<g id="edge36_Node000026_Node000027" class="edge">
<title>Node26&#45;&gt;Node27</title>
<g id="a_edge36_Node000026_Node000027"><a xlink:title=" ">
<path fill="none" stroke="#63b8ff" d="M42.53,-113.09C47.82,-105.85 55.19,-95.76 61.6,-86.97"/>
<polygon fill="#63b8ff" stroke="#63b8ff" points="64.32,-89.19 67.39,-79.05 58.67,-85.06 64.32,-89.19"/>
</a>
</g>
</g>
<!-- Node28&#45;&gt;Node19 -->
<g id="edge39_Node000028_Node000019" class="edge">
<title>Node28&#45;&gt;Node19</title>
<g id="a_edge39_Node000028_Node000019"><a xlink:title=" ">
<path fill="none" stroke="#63b8ff" d="M1101.2,-113.09C1101.08,-106.47 1100.91,-97.47 1100.76,-89.27"/>
<polygon fill="#63b8ff" stroke="#63b8ff" points="1104.26,-89.28 1100.58,-79.34 1097.26,-89.4 1104.26,-89.28"/>
</a>
</g>
</g>
<!-- Node29 -->
<g id="Node000029" class="node">
<title>Node29</title>
<g id="a_Node000029"><a xlink:href="adc_8h.html" target="_top" xlink:title="Low&#45;level ADC peripheral driver interface definitions.">
<polygon fill="white" stroke="#666666" points="1042.38,-77.5 966.38,-77.5 966.38,-56.75 1042.38,-56.75 1042.38,-77.5"/>
<text text-anchor="middle" x="1004.38" y="-64" font-family="Helvetica,sans-Serif" font-size="10.00">periph/adc.h</text>
</a>
</g>
</g>
<!-- Node28&#45;&gt;Node29 -->
<g id="edge40_Node000028_Node000029" class="edge">
<title>Node28&#45;&gt;Node29</title>
<g id="a_edge40_Node000028_Node000029"><a xlink:title=" ">
<path fill="none" stroke="#63b8ff" d="M1084.03,-113.09C1069.41,-104.83 1048.24,-92.88 1031.4,-83.38"/>
<polygon fill="#63b8ff" stroke="#63b8ff" points="1033.31,-80.44 1022.88,-78.57 1029.87,-86.54 1033.31,-80.44"/>
</a>
</g>
</g>
<!-- Node30 -->
<g id="Node000030" class="node">
<title>Node30</title>
<g id="a_Node000030"><a xlink:href="pwm_8h.html" target="_top" xlink:title="Low&#45;level PWM peripheral driver interface definitions.">
<polygon fill="white" stroke="#666666" points="948.75,-77.5 866,-77.5 866,-56.75 948.75,-56.75 948.75,-77.5"/>
<text text-anchor="middle" x="907.38" y="-64" font-family="Helvetica,sans-Serif" font-size="10.00">periph/pwm.h</text>
</a>
</g>
</g>
<!-- Node28&#45;&gt;Node30 -->
<g id="edge45_Node000028_Node000030" class="edge">
<title>Node28&#45;&gt;Node30</title>
<g id="a_edge45_Node000028_Node000030"><a xlink:title=" ">
<path fill="none" stroke="#63b8ff" d="M1066.69,-113.09C1034.93,-104.12 987.7,-90.79 952.91,-80.98"/>
<polygon fill="#63b8ff" stroke="#63b8ff" points="954.12,-77.68 943.54,-78.33 952.21,-84.42 954.12,-77.68"/>
</a>
</g>
</g>
<!-- Node29&#45;&gt;Node5 -->
<g id="edge43_Node000029_Node000005" class="edge">
<title>Node29&#45;&gt;Node5</title>
<g id="a_edge43_Node000029_Node000005"><a xlink:title=" ">
<path fill="none" stroke="#63b8ff" d="M974.7,-56.34C947.99,-47.53 908.5,-34.5 878.89,-24.74"/>
<polygon fill="#63b8ff" stroke="#63b8ff" points="880.11,-21.45 869.51,-21.64 877.91,-28.1 880.11,-21.45"/>
</a>
</g>
</g>
<!-- Node29&#45;&gt;Node10 -->
<g id="edge42_Node000029_Node000010" class="edge">
<title>Node29&#45;&gt;Node10</title>
<g id="a_edge42_Node000029_Node000010"><a xlink:title=" ">
<path fill="none" stroke="#63b8ff" d="M965.96,-58.08C963.06,-57.59 960.18,-57.14 957.38,-56.75 852.94,-42.27 531.26,-20.91 420.39,-13.79"/>
<polygon fill="#63b8ff" stroke="#63b8ff" points="420.85,-10.31 410.65,-13.16 420.4,-17.29 420.85,-10.31"/>
</a>
</g>
</g>
<!-- Node29&#45;&gt;Node17 -->
<g id="edge41_Node000029_Node000017" class="edge">
<title>Node29&#45;&gt;Node17</title>
<g id="a_edge41_Node000029_Node000017"><a xlink:title=" ">
<path fill="none" stroke="#63b8ff" d="M989.72,-56.34C977.7,-48.32 960.46,-36.81 946.44,-27.44"/>
<polygon fill="#63b8ff" stroke="#63b8ff" points="948.43,-24.56 938.17,-21.92 944.54,-30.38 948.43,-24.56"/>
</a>
</g>
</g>
<!-- Node29&#45;&gt;Node20 -->
<g id="edge44_Node000029_Node000020" class="edge">
<title>Node29&#45;&gt;Node20</title>
<g id="a_edge44_Node000029_Node000020"><a xlink:title=" ">
<path fill="none" stroke="#63b8ff" d="M1004.91,-56.34C1005.27,-49.72 1005.77,-40.72 1006.22,-32.52"/>
<polygon fill="#63b8ff" stroke="#63b8ff" points="1009.71,-32.77 1006.76,-22.59 1002.72,-32.38 1009.71,-32.77"/>
</a>
</g>
</g>
<!-- Node30&#45;&gt;Node5 -->
<g id="edge48_Node000030_Node000005" class="edge">
<title>Node30&#45;&gt;Node5</title>
<g id="a_edge48_Node000030_Node000005"><a xlink:title=" ">
<path fill="none" stroke="#63b8ff" d="M895.04,-56.34C885.13,-48.47 870.99,-37.25 859.31,-27.99"/>
<polygon fill="#63b8ff" stroke="#63b8ff" points="861.8,-25.49 851.79,-22.02 857.45,-30.98 861.8,-25.49"/>
</a>
</g>
</g>
<!-- Node30&#45;&gt;Node10 -->
<g id="edge46_Node000030_Node000010" class="edge">
<title>Node30&#45;&gt;Node10</title>
<g id="a_edge46_Node000030_Node000010"><a xlink:title=" ">
<path fill="none" stroke="#63b8ff" d="M865.74,-61.78C766.31,-51.41 516.2,-25.33 420.47,-15.35"/>
<polygon fill="#63b8ff" stroke="#63b8ff" points="420.87,-11.87 410.56,-14.31 420.14,-18.83 420.87,-11.87"/>
</a>
</g>
</g>
<!-- Node30&#45;&gt;Node17 -->
<g id="edge47_Node000030_Node000017" class="edge">
<title>Node30&#45;&gt;Node17</title>
<g id="a_edge47_Node000030_Node000017"><a xlink:title=" ">
<path fill="none" stroke="#63b8ff" d="M910.06,-56.34C911.91,-49.56 914.45,-40.3 916.74,-31.94"/>
<polygon fill="#63b8ff" stroke="#63b8ff" points="920.05,-33.11 919.32,-22.54 913.3,-31.26 920.05,-33.11"/>
</a>
</g>
</g>
<!-- Node30&#45;&gt;Node20 -->
<g id="edge49_Node000030_Node000020" class="edge">
<title>Node30&#45;&gt;Node20</title>
<g id="a_edge49_Node000030_Node000020"><a xlink:title=" ">
<path fill="none" stroke="#63b8ff" d="M925.25,-56.34C940.47,-48.01 962.57,-35.91 980.01,-26.36"/>
<polygon fill="#63b8ff" stroke="#63b8ff" points="981.23,-29.68 988.32,-21.81 977.87,-23.54 981.23,-29.68"/>
</a>
</g>
</g>
</g>
</svg>
