<?xml version="1.0" encoding="UTF-8" standalone="no"?>
<!DOCTYPE svg PUBLIC "-//W3C//DTD SVG 1.1//EN"
 "http://www.w3.org/Graphics/SVG/1.1/DTD/svg11.dtd">
<!-- Generated by graphviz version 12.1.2 (0)
 -->
<!-- Title: boards/stm32f723e&#45;disco/include/board.h Pages: 1 -->
<svg width="1185pt" height="325pt"
 viewBox="0.00 0.00 1184.50 325.25" xmlns="http://www.w3.org/2000/svg" xmlns:xlink="http://www.w3.org/1999/xlink">
<g id="graph0" class="graph" transform="scale(1 1) rotate(0) translate(4 321.25)">
<title>boards/stm32f723e&#45;disco/include/board.h</title>
<!-- Node1 -->
<g id="Node000001" class="node">
<title>Node1</title>
<g id="a_Node000001"><a xlink:title="Board specific definitions for the STM32F723E&#45;DISCO board.">
<polygon fill="#999999" stroke="#666666" points="471,-317.25 331.25,-317.25 331.25,-283.75 471,-283.75 471,-317.25"/>
<text text-anchor="start" x="339.25" y="-303.75" font-family="Helvetica,sans-Serif" font-size="10.00">boards/stm32f723e&#45;disco</text>
<text text-anchor="middle" x="401.12" y="-291" font-family="Helvetica,sans-Serif" font-size="10.00">/include/board.h</text>
</a>
</g>
</g>
<!-- Node2 -->
<g id="Node000002" class="node">
<title>Node2</title>
<g id="a_Node000002"><a xlink:title=" ">
<polygon fill="#e0e0e0" stroke="#999999" points="373.25,-247.75 331,-247.75 331,-227 373.25,-227 373.25,-247.75"/>
<text text-anchor="middle" x="352.12" y="-234.25" font-family="Helvetica,sans-Serif" font-size="10.00">cpu.h</text>
</a>
</g>
</g>
<!-- Node1&#45;&gt;Node2 -->
<g id="edge1_Node000001_Node000002" class="edge">
<title>Node1&#45;&gt;Node2</title>
<g id="a_edge1_Node000001_Node000002"><a xlink:title=" ">
<path fill="none" stroke="#63b8ff" d="M388.25,-283.44C381.74,-275.32 373.8,-265.42 367.03,-256.97"/>
<polygon fill="#63b8ff" stroke="#63b8ff" points="369.95,-255.01 360.96,-249.4 364.49,-259.39 369.95,-255.01"/>
</a>
</g>
</g>
<!-- Node3 -->
<g id="Node000003" class="node">
<title>Node3</title>
<g id="a_Node000003"><a xlink:href="boards_2stm32f723e-disco_2include_2periph__conf_8h.html" target="_top" xlink:title="Peripheral MCU configuration for the STM32F723E&#45;DISCO board.">
<polygon fill="white" stroke="#666666" points="302.75,-191 221.5,-191 221.5,-170.25 302.75,-170.25 302.75,-191"/>
<text text-anchor="middle" x="262.12" y="-177.5" font-family="Helvetica,sans-Serif" font-size="10.00">periph_conf.h</text>
</a>
</g>
</g>
<!-- Node1&#45;&gt;Node3 -->
<g id="edge2_Node000001_Node000003" class="edge">
<title>Node1&#45;&gt;Node3</title>
<g id="a_edge2_Node000001_Node000003"><a xlink:title=" ">
<path fill="none" stroke="#63b8ff" d="M401.01,-283.39C400.04,-267.23 396.14,-242.57 382.12,-227 364.63,-207.56 337.94,-196.41 314.18,-190.03"/>
<polygon fill="#63b8ff" stroke="#63b8ff" points="315.16,-186.67 304.62,-187.7 313.51,-193.47 315.16,-186.67"/>
</a>
</g>
</g>
<!-- Node10 -->
<g id="Node000010" class="node">
<title>Node10</title>
<g id="a_Node000010"><a xlink:href="stm32__leds_8h.html" target="_top" xlink:title="Common LED macros.">
<polygon fill="white" stroke="#666666" points="649.75,-247.75 568.5,-247.75 568.5,-227 649.75,-227 649.75,-247.75"/>
<text text-anchor="middle" x="609.12" y="-234.25" font-family="Helvetica,sans-Serif" font-size="10.00">stm32_leds.h</text>
</a>
</g>
</g>
<!-- Node1&#45;&gt;Node10 -->
<g id="edge10_Node000001_Node000010" class="edge">
<title>Node1&#45;&gt;Node10</title>
<g id="a_edge10_Node000001_Node000010"><a xlink:title=" ">
<path fill="none" stroke="#63b8ff" d="M456.32,-283.28C490.34,-273.28 533.37,-260.64 565.09,-251.31"/>
<polygon fill="#63b8ff" stroke="#63b8ff" points="565.75,-254.77 574.36,-248.59 563.78,-248.05 565.75,-254.77"/>
</a>
</g>
</g>
<!-- Node4 -->
<g id="Node000004" class="node">
<title>Node4</title>
<g id="a_Node000004"><a xlink:title=" ">
<polygon fill="#e0e0e0" stroke="#999999" points="361.25,-77.5 283,-77.5 283,-56.75 361.25,-56.75 361.25,-77.5"/>
<text text-anchor="middle" x="322.12" y="-64" font-family="Helvetica,sans-Serif" font-size="10.00">periph_cpu.h</text>
</a>
</g>
</g>
<!-- Node3&#45;&gt;Node4 -->
<g id="edge3_Node000003_Node000004" class="edge">
<title>Node3&#45;&gt;Node4</title>
<g id="a_edge3_Node000003_Node000004"><a xlink:title=" ">
<path fill="none" stroke="#63b8ff" d="M273.41,-169.89C282.64,-161.36 295.39,-148.17 303.12,-134.25 311.03,-120.02 315.91,-102.2 318.73,-88.65"/>
<polygon fill="#63b8ff" stroke="#63b8ff" points="322.12,-89.58 320.51,-79.11 315.24,-88.3 322.12,-89.58"/>
</a>
</g>
</g>
<!-- Node5 -->
<g id="Node000005" class="node">
<title>Node5</title>
<g id="a_Node000005"><a xlink:title=" ">
<polygon fill="#e0e0e0" stroke="#999999" points="294.5,-134.25 229.75,-134.25 229.75,-113.5 294.5,-113.5 294.5,-134.25"/>
<text text-anchor="middle" x="262.12" y="-120.75" font-family="Helvetica,sans-Serif" font-size="10.00">clk_conf.h</text>
</a>
</g>
</g>
<!-- Node3&#45;&gt;Node5 -->
<g id="edge4_Node000003_Node000005" class="edge">
<title>Node3&#45;&gt;Node5</title>
<g id="a_edge4_Node000003_Node000005"><a xlink:title=" ">
<path fill="none" stroke="#63b8ff" d="M262.12,-169.84C262.12,-163.22 262.12,-154.22 262.12,-146.02"/>
<polygon fill="#63b8ff" stroke="#63b8ff" points="265.63,-146.09 262.13,-136.09 258.63,-146.09 265.63,-146.09"/>
</a>
</g>
</g>
<!-- Node6 -->
<g id="Node000006" class="node">
<title>Node6</title>
<g id="a_Node000006"><a xlink:title=" ">
<polygon fill="#e0e0e0" stroke="#999999" points="96.25,-134.25 0,-134.25 0,-113.5 96.25,-113.5 96.25,-134.25"/>
<text text-anchor="middle" x="48.12" y="-120.75" font-family="Helvetica,sans-Serif" font-size="10.00">cfg_rtt_default.h</text>
</a>
</g>
</g>
<!-- Node3&#45;&gt;Node6 -->
<g id="edge5_Node000003_Node000006" class="edge">
<title>Node3&#45;&gt;Node6</title>
<g id="a_edge5_Node000003_Node000006"><a xlink:title=" ">
<path fill="none" stroke="#63b8ff" d="M223.87,-169.84C188.52,-160.79 135.83,-147.31 97.36,-137.47"/>
<polygon fill="#63b8ff" stroke="#63b8ff" points="98.43,-134.13 87.88,-135.05 96.7,-140.92 98.43,-134.13"/>
</a>
</g>
</g>
<!-- Node7 -->
<g id="Node000007" class="node">
<title>Node7</title>
<g id="a_Node000007"><a xlink:href="cfg__usb__otg__fs_8h.html" target="_top" xlink:title="Common configuration for STM32 OTG FS peripheral.">
<polygon fill="white" stroke="#666666" points="212,-134.25 114.25,-134.25 114.25,-113.5 212,-113.5 212,-134.25"/>
<text text-anchor="middle" x="163.12" y="-120.75" font-family="Helvetica,sans-Serif" font-size="10.00">cfg_usb_otg_fs.h</text>
</a>
</g>
</g>
<!-- Node3&#45;&gt;Node7 -->
<g id="edge6_Node000003_Node000007" class="edge">
<title>Node3&#45;&gt;Node7</title>
<g id="a_edge6_Node000003_Node000007"><a xlink:title=" ">
<path fill="none" stroke="#63b8ff" d="M244.43,-169.84C229.5,-161.58 207.89,-149.63 190.7,-140.13"/>
<polygon fill="#63b8ff" stroke="#63b8ff" points="192.44,-137.09 182,-135.31 189.05,-143.21 192.44,-137.09"/>
</a>
</g>
</g>
<!-- Node7&#45;&gt;Node4 -->
<g id="edge7_Node000007_Node000004" class="edge">
<title>Node7&#45;&gt;Node4</title>
<g id="a_edge7_Node000007_Node000004"><a xlink:title=" ">
<path fill="none" stroke="#63b8ff" d="M191.55,-113.09C217.02,-104.32 254.62,-91.37 282.94,-81.62"/>
<polygon fill="#63b8ff" stroke="#63b8ff" points="283.93,-84.98 292.25,-78.41 281.65,-78.36 283.93,-84.98"/>
</a>
</g>
</g>
<!-- Node8 -->
<g id="Node000008" class="node">
<title>Node8</title>
<g id="a_Node000008"><a xlink:href="usbdev__synopsys__dwc2_8h.html" target="_top" xlink:title="Low level USB FS/HS driver definitions for MCUs with Synopsys DWC2 IP core.">
<polygon fill="white" stroke="#666666" points="250.12,-77.5 108.12,-77.5 108.12,-56.75 250.12,-56.75 250.12,-77.5"/>
<text text-anchor="middle" x="179.12" y="-64" font-family="Helvetica,sans-Serif" font-size="10.00">usbdev_synopsys_dwc2.h</text>
</a>
</g>
</g>
<!-- Node7&#45;&gt;Node8 -->
<g id="edge8_Node000007_Node000008" class="edge">
<title>Node7&#45;&gt;Node8</title>
<g id="a_edge8_Node000007_Node000008"><a xlink:title=" ">
<path fill="none" stroke="#63b8ff" d="M165.99,-113.09C167.96,-106.31 170.67,-97.05 173.12,-88.69"/>
<polygon fill="#63b8ff" stroke="#63b8ff" points="176.42,-89.86 175.86,-79.28 169.7,-87.9 176.42,-89.86"/>
</a>
</g>
</g>
<!-- Node9 -->
<g id="Node000009" class="node">
<title>Node9</title>
<g id="a_Node000009"><a xlink:title=" ">
<polygon fill="#e0e0e0" stroke="#999999" points="889.5,-20.75 836.75,-20.75 836.75,0 889.5,0 889.5,-20.75"/>
<text text-anchor="middle" x="863.12" y="-7.25" font-family="Helvetica,sans-Serif" font-size="10.00">stdint.h</text>
</a>
</g>
</g>
<!-- Node8&#45;&gt;Node9 -->
<g id="edge9_Node000008_Node000009" class="edge">
<title>Node8&#45;&gt;Node9</title>
<g id="a_edge9_Node000008_Node000009"><a xlink:title=" ">
<path fill="none" stroke="#63b8ff" d="M250.44,-58.92C258.43,-58.16 266.45,-57.42 274.12,-56.75 481.87,-38.5 731.19,-20.61 824.98,-14.03"/>
<polygon fill="#63b8ff" stroke="#63b8ff" points="825.16,-17.52 834.89,-13.33 824.67,-10.54 825.16,-17.52"/>
</a>
</g>
</g>
<!-- Node11 -->
<g id="Node000011" class="node">
<title>Node11</title>
<g id="a_Node000011"><a xlink:href="gpio__ll_8h.html" target="_top" xlink:title="Peripheral GPIO Low&#45;Level API.">
<polygon fill="white" stroke="#666666" points="654.62,-191 563.62,-191 563.62,-170.25 654.62,-170.25 654.62,-191"/>
<text text-anchor="middle" x="609.12" y="-177.5" font-family="Helvetica,sans-Serif" font-size="10.00">periph/gpio_ll.h</text>
</a>
</g>
</g>
<!-- Node10&#45;&gt;Node11 -->
<g id="edge11_Node000010_Node000011" class="edge">
<title>Node10&#45;&gt;Node11</title>
<g id="a_edge11_Node000010_Node000011"><a xlink:title=" ">
<path fill="none" stroke="#63b8ff" d="M609.12,-226.59C609.12,-219.97 609.12,-210.97 609.12,-202.77"/>
<polygon fill="#63b8ff" stroke="#63b8ff" points="612.63,-202.84 609.13,-192.84 605.63,-202.84 612.63,-202.84"/>
</a>
</g>
</g>
<!-- Node21 -->
<g id="Node000021" class="node">
<title>Node21</title>
<g id="a_Node000021"><a xlink:href="kernel__defines_8h.html" target="_top" xlink:title="Common macros and compiler attributes/pragmas configuration.">
<polygon fill="white" stroke="#666666" points="1069.25,-191 973,-191 973,-170.25 1069.25,-170.25 1069.25,-191"/>
<text text-anchor="middle" x="1021.12" y="-177.5" font-family="Helvetica,sans-Serif" font-size="10.00">kernel_defines.h</text>
</a>
</g>
</g>
<!-- Node10&#45;&gt;Node21 -->
<g id="edge27_Node000010_Node000021" class="edge">
<title>Node10&#45;&gt;Node21</title>
<g id="a_edge27_Node000010_Node000021"><a xlink:title=" ">
<path fill="none" stroke="#63b8ff" d="M650.14,-230.93C723.3,-221.2 876.61,-200.83 961.45,-189.55"/>
<polygon fill="#63b8ff" stroke="#63b8ff" points="961.75,-193.05 971.2,-188.26 960.83,-186.11 961.75,-193.05"/>
</a>
</g>
</g>
<!-- Node11&#45;&gt;Node4 -->
<g id="edge25_Node000011_Node000004" class="edge">
<title>Node11&#45;&gt;Node4</title>
<g id="a_edge25_Node000011_Node000004"><a xlink:title=" ">
<path fill="none" stroke="#63b8ff" d="M563.52,-179.1C515.02,-176.69 437.53,-167.36 380.12,-134.25 360.35,-122.84 343.89,-102.21 333.62,-87.01"/>
<polygon fill="#63b8ff" stroke="#63b8ff" points="336.7,-85.34 328.35,-78.82 330.81,-89.12 336.7,-85.34"/>
</a>
</g>
</g>
<!-- Node11&#45;&gt;Node9 -->
<g id="edge15_Node000011_Node000009" class="edge">
<title>Node11&#45;&gt;Node9</title>
<g id="a_edge15_Node000011_Node000009"><a xlink:title=" ">
<path fill="none" stroke="#63b8ff" d="M655.01,-172.97C686.57,-166.76 728.35,-155.18 760.12,-134.25 765.71,-130.57 820.88,-63.27 848.1,-29.86"/>
<polygon fill="#63b8ff" stroke="#63b8ff" points="850.71,-32.19 854.31,-22.23 845.28,-27.78 850.71,-32.19"/>
</a>
</g>
</g>
<!-- Node12 -->
<g id="Node000012" class="node">
<title>Node12</title>
<g id="a_Node000012"><a xlink:href="assert_8h.html" target="_top" xlink:title="POSIX.1&#45;2008 compliant version of the assert macro.">
<polygon fill="white" stroke="#666666" points="890.62,-77.5 835.62,-77.5 835.62,-56.75 890.62,-56.75 890.62,-77.5"/>
<text text-anchor="middle" x="863.12" y="-64" font-family="Helvetica,sans-Serif" font-size="10.00">assert.h</text>
</a>
</g>
</g>
<!-- Node11&#45;&gt;Node12 -->
<g id="edge12_Node000011_Node000012" class="edge">
<title>Node11&#45;&gt;Node12</title>
<g id="a_edge12_Node000011_Node000012"><a xlink:title=" ">
<path fill="none" stroke="#63b8ff" d="M654.9,-179.26C699.98,-176.84 769.03,-167.37 818.12,-134.25 834.82,-122.99 847.04,-103.26 854.5,-88.28"/>
<polygon fill="#63b8ff" stroke="#63b8ff" points="857.61,-89.88 858.63,-79.34 851.26,-86.94 857.61,-89.88"/>
</a>
</g>
</g>
<!-- Node13 -->
<g id="Node000013" class="node">
<title>Node13</title>
<g id="a_Node000013"><a xlink:title=" ">
<polygon fill="#e0e0e0" stroke="#999999" points="449.62,-134.25 388.62,-134.25 388.62,-113.5 449.62,-113.5 449.62,-134.25"/>
<text text-anchor="middle" x="419.12" y="-120.75" font-family="Helvetica,sans-Serif" font-size="10.00">stdbool.h</text>
</a>
</g>
</g>
<!-- Node11&#45;&gt;Node13 -->
<g id="edge14_Node000011_Node000013" class="edge">
<title>Node11&#45;&gt;Node13</title>
<g id="a_edge14_Node000011_Node000013"><a xlink:title=" ">
<path fill="none" stroke="#63b8ff" d="M575.16,-169.84C543.08,-160.59 494.92,-146.71 460.59,-136.82"/>
<polygon fill="#63b8ff" stroke="#63b8ff" points="462,-133.59 451.42,-134.18 460.06,-140.31 462,-133.59"/>
</a>
</g>
</g>
<!-- Node14 -->
<g id="Node000014" class="node">
<title>Node14</title>
<g id="a_Node000014"><a xlink:href="architecture_8h.html" target="_top" xlink:title="Platform&#45;independent access to architecture details.">
<polygon fill="white" stroke="#666666" points="750.88,-134.25 667.38,-134.25 667.38,-113.5 750.88,-113.5 750.88,-134.25"/>
<text text-anchor="middle" x="709.12" y="-120.75" font-family="Helvetica,sans-Serif" font-size="10.00">architecture.h</text>
</a>
</g>
</g>
<!-- Node11&#45;&gt;Node14 -->
<g id="edge16_Node000011_Node000014" class="edge">
<title>Node11&#45;&gt;Node14</title>
<g id="a_edge16_Node000011_Node000014"><a xlink:title=" ">
<path fill="none" stroke="#63b8ff" d="M627,-169.84C642.22,-161.51 664.32,-149.41 681.76,-139.86"/>
<polygon fill="#63b8ff" stroke="#63b8ff" points="682.98,-143.18 690.07,-135.31 679.62,-137.04 682.98,-143.18"/>
</a>
</g>
</g>
<!-- Node18 -->
<g id="Node000018" class="node">
<title>Node18</title>
<g id="a_Node000018"><a xlink:href="drivers_2include_2periph_2gpio_8h.html" target="_top" xlink:title="Low&#45;level GPIO peripheral driver interface definitions.">
<polygon fill="white" stroke="#666666" points="649,-134.25 569.25,-134.25 569.25,-113.5 649,-113.5 649,-134.25"/>
<text text-anchor="middle" x="609.12" y="-120.75" font-family="Helvetica,sans-Serif" font-size="10.00">periph/gpio.h</text>
</a>
</g>
</g>
<!-- Node11&#45;&gt;Node18 -->
<g id="edge21_Node000011_Node000018" class="edge">
<title>Node11&#45;&gt;Node18</title>
<g id="a_edge21_Node000011_Node000018"><a xlink:title=" ">
<path fill="none" stroke="#63b8ff" d="M609.12,-169.84C609.12,-163.22 609.12,-154.22 609.12,-146.02"/>
<polygon fill="#63b8ff" stroke="#63b8ff" points="612.63,-146.09 609.13,-136.09 605.63,-146.09 612.63,-146.09"/>
</a>
</g>
</g>
<!-- Node20 -->
<g id="Node000020" class="node">
<title>Node20</title>
<g id="a_Node000020"><a xlink:title=" ">
<polygon fill="#e0e0e0" stroke="#999999" points="550.88,-134.25 467.38,-134.25 467.38,-113.5 550.88,-113.5 550.88,-134.25"/>
<text text-anchor="middle" x="509.12" y="-120.75" font-family="Helvetica,sans-Serif" font-size="10.00">gpio_ll_arch.h</text>
</a>
</g>
</g>
<!-- Node11&#45;&gt;Node20 -->
<g id="edge26_Node000011_Node000020" class="edge">
<title>Node11&#45;&gt;Node20</title>
<g id="a_edge26_Node000011_Node000020"><a xlink:title=" ">
<path fill="none" stroke="#63b8ff" d="M591.25,-169.84C576.03,-161.51 553.93,-149.41 536.49,-139.86"/>
<polygon fill="#63b8ff" stroke="#63b8ff" points="538.63,-137.04 528.18,-135.31 535.27,-143.18 538.63,-137.04"/>
</a>
</g>
</g>
<!-- Node12&#45;&gt;Node9 -->
<g id="edge13_Node000012_Node000009" class="edge">
<title>Node12&#45;&gt;Node9</title>
<g id="a_edge13_Node000012_Node000009"><a xlink:title=" ">
<path fill="none" stroke="#63b8ff" d="M863.12,-56.34C863.12,-49.72 863.12,-40.72 863.12,-32.52"/>
<polygon fill="#63b8ff" stroke="#63b8ff" points="866.63,-32.59 863.13,-22.59 859.63,-32.59 866.63,-32.59"/>
</a>
</g>
</g>
<!-- Node14&#45;&gt;Node9 -->
<g id="edge17_Node000014_Node000009" class="edge">
<title>Node14&#45;&gt;Node9</title>
<g id="a_edge17_Node000014_Node000009"><a xlink:title=" ">
<path fill="none" stroke="#63b8ff" d="M720.82,-113.11C736.82,-99.88 766.56,-75.76 793.12,-56.75 807.49,-46.48 824.05,-35.7 837.45,-27.22"/>
<polygon fill="#63b8ff" stroke="#63b8ff" points="839.1,-30.32 845.72,-22.04 835.39,-24.39 839.1,-30.32"/>
</a>
</g>
</g>
<!-- Node15 -->
<g id="Node000015" class="node">
<title>Node15</title>
<g id="a_Node000015"><a xlink:href="inttypes_8h.html" target="_top" xlink:title="Adds include for missing inttype definitions.">
<polygon fill="white" stroke="#666666" points="741.5,-77.5 676.75,-77.5 676.75,-56.75 741.5,-56.75 741.5,-77.5"/>
<text text-anchor="middle" x="709.12" y="-64" font-family="Helvetica,sans-Serif" font-size="10.00">inttypes.h</text>
</a>
</g>
</g>
<!-- Node14&#45;&gt;Node15 -->
<g id="edge18_Node000014_Node000015" class="edge">
<title>Node14&#45;&gt;Node15</title>
<g id="a_edge18_Node000014_Node000015"><a xlink:title=" ">
<path fill="none" stroke="#63b8ff" d="M709.12,-113.09C709.12,-106.47 709.12,-97.47 709.12,-89.27"/>
<polygon fill="#63b8ff" stroke="#63b8ff" points="712.63,-89.34 709.13,-79.34 705.63,-89.34 712.63,-89.34"/>
</a>
</g>
</g>
<!-- Node16 -->
<g id="Node000016" class="node">
<title>Node16</title>
<g id="a_Node000016"><a xlink:title=" ">
<polygon fill="#e0e0e0" stroke="#999999" points="531.5,-77.5 478.75,-77.5 478.75,-56.75 531.5,-56.75 531.5,-77.5"/>
<text text-anchor="middle" x="505.12" y="-64" font-family="Helvetica,sans-Serif" font-size="10.00">limits.h</text>
</a>
</g>
</g>
<!-- Node14&#45;&gt;Node16 -->
<g id="edge19_Node000014_Node000016" class="edge">
<title>Node14&#45;&gt;Node16</title>
<g id="a_edge19_Node000014_Node000016"><a xlink:title=" ">
<path fill="none" stroke="#63b8ff" d="M672.65,-113.09C635.99,-103.25 579.74,-88.15 542.69,-78.21"/>
<polygon fill="#63b8ff" stroke="#63b8ff" points="543.88,-74.9 533.32,-75.69 542.07,-81.66 543.88,-74.9"/>
</a>
</g>
</g>
<!-- Node17 -->
<g id="Node000017" class="node">
<title>Node17</title>
<g id="a_Node000017"><a xlink:title=" ">
<polygon fill="#e0e0e0" stroke="#999999" points="659,-77.5 549.25,-77.5 549.25,-56.75 659,-56.75 659,-77.5"/>
<text text-anchor="middle" x="604.12" y="-64" font-family="Helvetica,sans-Serif" font-size="10.00">architecture_arch.h</text>
</a>
</g>
</g>
<!-- Node14&#45;&gt;Node17 -->
<g id="edge20_Node000014_Node000017" class="edge">
<title>Node14&#45;&gt;Node17</title>
<g id="a_edge20_Node000014_Node000017"><a xlink:title=" ">
<path fill="none" stroke="#63b8ff" d="M690.35,-113.09C674.38,-104.76 651.17,-92.66 632.86,-83.11"/>
<polygon fill="#63b8ff" stroke="#63b8ff" points="634.56,-80.05 624.08,-78.53 631.33,-86.26 634.56,-80.05"/>
</a>
</g>
</g>
<!-- Node18&#45;&gt;Node4 -->
<g id="edge23_Node000018_Node000004" class="edge">
<title>Node18&#45;&gt;Node4</title>
<g id="a_edge23_Node000018_Node000004"><a xlink:title=" ">
<path fill="none" stroke="#63b8ff" d="M569.01,-115.19C566.01,-114.62 563.02,-114.05 560.12,-113.5 479.16,-98.08 456.37,-94.06 372.75,-78"/>
<polygon fill="#63b8ff" stroke="#63b8ff" points="373.64,-74.6 363.16,-76.15 372.32,-81.48 373.64,-74.6"/>
</a>
</g>
</g>
<!-- Node18&#45;&gt;Node16 -->
<g id="edge22_Node000018_Node000016" class="edge">
<title>Node18&#45;&gt;Node16</title>
<g id="a_edge22_Node000018_Node000016"><a xlink:title=" ">
<path fill="none" stroke="#63b8ff" d="M590.53,-113.09C574.71,-104.76 551.73,-92.66 533.59,-83.11"/>
<polygon fill="#63b8ff" stroke="#63b8ff" points="535.38,-80.09 524.9,-78.53 532.11,-86.29 535.38,-80.09"/>
</a>
</g>
</g>
<!-- Node19 -->
<g id="Node000019" class="node">
<title>Node19</title>
<g id="a_Node000019"><a xlink:title=" ">
<polygon fill="#e0e0e0" stroke="#999999" points="460.75,-77.5 379.5,-77.5 379.5,-56.75 460.75,-56.75 460.75,-77.5"/>
<text text-anchor="middle" x="420.12" y="-64" font-family="Helvetica,sans-Serif" font-size="10.00">periph_conf.h</text>
</a>
</g>
</g>
<!-- Node18&#45;&gt;Node19 -->
<g id="edge24_Node000018_Node000019" class="edge">
<title>Node18&#45;&gt;Node19</title>
<g id="a_edge24_Node000018_Node000019"><a xlink:title=" ">
<path fill="none" stroke="#63b8ff" d="M575.34,-113.09C544.52,-104.16 498.78,-90.91 464.93,-81.1"/>
<polygon fill="#63b8ff" stroke="#63b8ff" points="465.97,-77.76 455.39,-78.34 464.02,-84.49 465.97,-77.76"/>
</a>
</g>
</g>
<!-- Node22 -->
<g id="Node000022" class="node">
<title>Node22</title>
<g id="a_Node000022"><a xlink:href="modules_8h.html" target="_top" xlink:title="Common macros and compiler attributes/pragmas configuration.">
<polygon fill="white" stroke="#666666" points="1141.62,-134.25 1074.62,-134.25 1074.62,-113.5 1141.62,-113.5 1141.62,-134.25"/>
<text text-anchor="middle" x="1108.12" y="-120.75" font-family="Helvetica,sans-Serif" font-size="10.00">modules.h</text>
</a>
</g>
</g>
<!-- Node21&#45;&gt;Node22 -->
<g id="edge28_Node000021_Node000022" class="edge">
<title>Node21&#45;&gt;Node22</title>
<g id="a_edge28_Node000021_Node000022"><a xlink:title=" ">
<path fill="none" stroke="#63b8ff" d="M1036.68,-169.84C1049.55,-161.74 1068.07,-150.08 1083.03,-140.67"/>
<polygon fill="#63b8ff" stroke="#63b8ff" points="1084.83,-143.67 1091.42,-135.38 1081.1,-137.75 1084.83,-143.67"/>
</a>
</g>
</g>
<!-- Node23 -->
<g id="Node000023" class="node">
<title>Node23</title>
<g id="a_Node000023"><a xlink:href="riot__version_8h.html" target="_top" xlink:title="Common macros and compiler attributes/pragmas configuration.">
<polygon fill="white" stroke="#666666" points="1176.5,-77.5 1093.75,-77.5 1093.75,-56.75 1176.5,-56.75 1176.5,-77.5"/>
<text text-anchor="middle" x="1135.12" y="-64" font-family="Helvetica,sans-Serif" font-size="10.00">riot_version.h</text>
</a>
</g>
</g>
<!-- Node21&#45;&gt;Node23 -->
<g id="edge29_Node000021_Node000023" class="edge">
<title>Node21&#45;&gt;Node23</title>
<g id="a_edge29_Node000021_Node000023"><a xlink:title=" ">
<path fill="none" stroke="#63b8ff" d="M1069.57,-176.22C1098.35,-171.41 1132.72,-160.17 1151.12,-134.25 1160.93,-120.44 1154.73,-101.34 1147.37,-87.22"/>
<polygon fill="#63b8ff" stroke="#63b8ff" points="1150.58,-85.77 1142.53,-78.87 1144.52,-89.28 1150.58,-85.77"/>
</a>
</g>
</g>
<!-- Node24 -->
<g id="Node000024" class="node">
<title>Node24</title>
<g id="a_Node000024"><a xlink:href="compiler__hints_8h.html" target="_top" xlink:title="Common macros and compiler attributes/pragmas configuration.">
<polygon fill="white" stroke="#666666" points="967.62,-134.25 870.62,-134.25 870.62,-113.5 967.62,-113.5 967.62,-134.25"/>
<text text-anchor="middle" x="919.12" y="-120.75" font-family="Helvetica,sans-Serif" font-size="10.00">compiler_hints.h</text>
</a>
</g>
</g>
<!-- Node21&#45;&gt;Node24 -->
<g id="edge31_Node000021_Node000024" class="edge">
<title>Node21&#45;&gt;Node24</title>
<g id="a_edge31_Node000021_Node000024"><a xlink:title=" ">
<path fill="none" stroke="#63b8ff" d="M1002.89,-169.84C987.44,-161.55 965.04,-149.52 947.29,-139.99"/>
<polygon fill="#63b8ff" stroke="#63b8ff" points="949,-136.94 938.54,-135.29 945.69,-143.11 949,-136.94"/>
</a>
</g>
</g>
<!-- Node25 -->
<g id="Node000025" class="node">
<title>Node25</title>
<g id="a_Node000025"><a xlink:href="container_8h.html" target="_top" xlink:title="Common macros and compiler attributes/pragmas configuration.">
<polygon fill="white" stroke="#666666" points="1056.5,-134.25 985.75,-134.25 985.75,-113.5 1056.5,-113.5 1056.5,-134.25"/>
<text text-anchor="middle" x="1021.12" y="-120.75" font-family="Helvetica,sans-Serif" font-size="10.00">container.h</text>
</a>
</g>
</g>
<!-- Node21&#45;&gt;Node25 -->
<g id="edge34_Node000021_Node000025" class="edge">
<title>Node21&#45;&gt;Node25</title>
<g id="a_edge34_Node000021_Node000025"><a xlink:title=" ">
<path fill="none" stroke="#63b8ff" d="M1021.12,-169.84C1021.12,-163.22 1021.12,-154.22 1021.12,-146.02"/>
<polygon fill="#63b8ff" stroke="#63b8ff" points="1024.63,-146.09 1021.13,-136.09 1017.63,-146.09 1024.63,-146.09"/>
</a>
</g>
</g>
<!-- Node23&#45;&gt;Node9 -->
<g id="edge30_Node000023_Node000009" class="edge">
<title>Node23&#45;&gt;Node9</title>
<g id="a_edge30_Node000023_Node000009"><a xlink:title=" ">
<path fill="none" stroke="#63b8ff" d="M1093.52,-57.75C1041.05,-47.19 951.61,-29.19 900.98,-18.99"/>
<polygon fill="#63b8ff" stroke="#63b8ff" points="901.87,-15.6 891.38,-17.06 900.49,-22.47 901.87,-15.6"/>
</a>
</g>
</g>
<!-- Node24&#45;&gt;Node9 -->
<g id="edge33_Node000024_Node000009" class="edge">
<title>Node24&#45;&gt;Node9</title>
<g id="a_edge33_Node000024_Node000009"><a xlink:title=" ">
<path fill="none" stroke="#63b8ff" d="M917.65,-113.45C915.32,-100.2 909.98,-75.59 900.12,-56.75 894.98,-46.91 887.49,-37.2 880.59,-29.31"/>
<polygon fill="#63b8ff" stroke="#63b8ff" points="883.3,-27.09 873.96,-22.09 878.14,-31.83 883.3,-27.09"/>
</a>
</g>
</g>
<!-- Node24&#45;&gt;Node12 -->
<g id="edge32_Node000024_Node000012" class="edge">
<title>Node24&#45;&gt;Node12</title>
<g id="a_edge32_Node000024_Node000012"><a xlink:title=" ">
<path fill="none" stroke="#63b8ff" d="M909.11,-113.09C901.39,-105.53 890.5,-94.89 881.25,-85.85"/>
<polygon fill="#63b8ff" stroke="#63b8ff" points="883.73,-83.37 874.13,-78.89 878.84,-88.38 883.73,-83.37"/>
</a>
</g>
</g>
<!-- Node25&#45;&gt;Node9 -->
<g id="edge36_Node000025_Node000009" class="edge">
<title>Node25&#45;&gt;Node9</title>
<g id="a_edge36_Node000025_Node000009"><a xlink:title=" ">
<path fill="none" stroke="#63b8ff" d="M1022.79,-113.05C1024.6,-98.87 1025.64,-72.63 1012.12,-56.75 984.84,-24.7 935.66,-14.85 901.29,-12.05"/>
<polygon fill="#63b8ff" stroke="#63b8ff" points="901.52,-8.56 891.32,-11.43 901.08,-15.55 901.52,-8.56"/>
</a>
</g>
</g>
<!-- Node26 -->
<g id="Node000026" class="node">
<title>Node26</title>
<g id="a_Node000026"><a xlink:title=" ">
<polygon fill="#e0e0e0" stroke="#999999" points="1002.62,-77.5 947.62,-77.5 947.62,-56.75 1002.62,-56.75 1002.62,-77.5"/>
<text text-anchor="middle" x="975.12" y="-64" font-family="Helvetica,sans-Serif" font-size="10.00">stddef.h</text>
</a>
</g>
</g>
<!-- Node25&#45;&gt;Node26 -->
<g id="edge35_Node000025_Node000026" class="edge">
<title>Node25&#45;&gt;Node26</title>
<g id="a_edge35_Node000025_Node000026"><a xlink:title=" ">
<path fill="none" stroke="#63b8ff" d="M1012.9,-113.09C1006.69,-105.69 997.98,-95.32 990.49,-86.41"/>
<polygon fill="#63b8ff" stroke="#63b8ff" points="993.36,-84.39 984.25,-78.99 988,-88.9 993.36,-84.39"/>
</a>
</g>
</g>
</g>
</svg>
