<?xml version="1.0" encoding="UTF-8" standalone="no"?>
<!DOCTYPE svg PUBLIC "-//W3C//DTD SVG 1.1//EN"
 "http://www.w3.org/Graphics/SVG/1.1/DTD/svg11.dtd">
<!-- Generated by graphviz version 12.1.2 (0)
 -->
<!-- Title: drivers/include/sx126x.h Pages: 1 -->
<svg width="984pt" height="313pt"
 viewBox="0.00 0.00 984.12 312.50" xmlns="http://www.w3.org/2000/svg" xmlns:xlink="http://www.w3.org/1999/xlink">
<g id="graph0" class="graph" transform="scale(1 1) rotate(0) translate(4 308.5)">
<title>drivers/include/sx126x.h</title>
<!-- Node1 -->
<g id="Node000001" class="node">
<title>Node1</title>
<g id="a_Node000001"><a xlink:title=" ">
<polygon fill="#999999" stroke="#666666" points="735.12,-304.5 599.88,-304.5 599.88,-283.75 735.12,-283.75 735.12,-304.5"/>
<text text-anchor="middle" x="667.5" y="-291" font-family="Helvetica,sans-Serif" font-size="10.00">drivers/include/sx126x.h</text>
</a>
</g>
</g>
<!-- Node2 -->
<g id="Node000002" class="node">
<title>Node2</title>
<g id="a_Node000002"><a xlink:href="assert_8h.html" target="_top" xlink:title="POSIX.1&#45;2008 compliant version of the assert macro.">
<polygon fill="white" stroke="#666666" points="55,-77.5 0,-77.5 0,-56.75 55,-56.75 55,-77.5"/>
<text text-anchor="middle" x="27.5" y="-64" font-family="Helvetica,sans-Serif" font-size="10.00">assert.h</text>
</a>
</g>
</g>
<!-- Node1&#45;&gt;Node2 -->
<g id="edge1_Node000001_Node000002" class="edge">
<title>Node1&#45;&gt;Node2</title>
<g id="a_edge1_Node000001_Node000002"><a xlink:title=" ">
<path fill="none" stroke="#63b8ff" d="M599.72,-291C497.19,-285.38 298.77,-264.97 149.5,-191 100.56,-166.75 59.64,-115.03 40,-87.05"/>
<polygon fill="#63b8ff" stroke="#63b8ff" points="43.14,-85.44 34.61,-79.15 37.36,-89.39 43.14,-85.44"/>
</a>
</g>
</g>
<!-- Node4 -->
<g id="Node000004" class="node">
<title>Node4</title>
<g id="a_Node000004"><a xlink:title=" ">
<polygon fill="#e0e0e0" stroke="#999999" points="854.5,-247.75 760.5,-247.75 760.5,-227 854.5,-227 854.5,-247.75"/>
<text text-anchor="middle" x="807.5" y="-234.25" font-family="Helvetica,sans-Serif" font-size="10.00">sx126x_driver.h</text>
</a>
</g>
</g>
<!-- Node1&#45;&gt;Node4 -->
<g id="edge3_Node000001_Node000004" class="edge">
<title>Node1&#45;&gt;Node4</title>
<g id="a_edge3_Node000001_Node000004"><a xlink:title=" ">
<path fill="none" stroke="#63b8ff" d="M692.53,-283.34C714.73,-274.66 747.39,-261.88 772.23,-252.17"/>
<polygon fill="#63b8ff" stroke="#63b8ff" points="773.24,-255.53 781.28,-248.63 770.69,-249.01 773.24,-255.53"/>
</a>
</g>
</g>
<!-- Node5 -->
<g id="Node000005" class="node">
<title>Node5</title>
<g id="a_Node000005"><a xlink:href="drivers_2include_2net_2netdev_8h.html" target="_top" xlink:title="Definitions low&#45;level network driver interface.">
<polygon fill="white" stroke="#666666" points="524.88,-247.75 448.12,-247.75 448.12,-227 524.88,-227 524.88,-247.75"/>
<text text-anchor="middle" x="486.5" y="-234.25" font-family="Helvetica,sans-Serif" font-size="10.00">net/netdev.h</text>
</a>
</g>
</g>
<!-- Node1&#45;&gt;Node5 -->
<g id="edge4_Node000001_Node000005" class="edge">
<title>Node1&#45;&gt;Node5</title>
<g id="a_edge4_Node000001_Node000005"><a xlink:title=" ">
<path fill="none" stroke="#63b8ff" d="M635.14,-283.34C605.76,-274.45 562.2,-261.27 529.83,-251.48"/>
<polygon fill="#63b8ff" stroke="#63b8ff" points="530.92,-248.15 520.33,-248.61 528.89,-254.85 530.92,-248.15"/>
</a>
</g>
</g>
<!-- Node16 -->
<g id="Node000016" class="node">
<title>Node16</title>
<g id="a_Node000016"><a xlink:href="drivers_2include_2periph_2gpio_8h.html" target="_top" xlink:title="Low&#45;level GPIO peripheral driver interface definitions.">
<polygon fill="white" stroke="#666666" points="851.38,-134.25 771.62,-134.25 771.62,-113.5 851.38,-113.5 851.38,-134.25"/>
<text text-anchor="middle" x="811.5" y="-120.75" font-family="Helvetica,sans-Serif" font-size="10.00">periph/gpio.h</text>
</a>
</g>
</g>
<!-- Node1&#45;&gt;Node16 -->
<g id="edge21_Node000001_Node000016" class="edge">
<title>Node1&#45;&gt;Node16</title>
<g id="a_edge21_Node000001_Node000016"><a xlink:title=" ">
<path fill="none" stroke="#63b8ff" d="M675.65,-283.6C698.81,-256.54 765.27,-178.9 795.81,-143.21"/>
<polygon fill="#63b8ff" stroke="#63b8ff" points="798.25,-145.74 802.09,-135.87 792.93,-141.19 798.25,-145.74"/>
</a>
</g>
</g>
<!-- Node20 -->
<g id="Node000020" class="node">
<title>Node20</title>
<g id="a_Node000020"><a xlink:href="spi_8h.html" target="_top" xlink:title="Low&#45;level SPI peripheral driver interface definition.">
<polygon fill="white" stroke="#666666" points="704,-191 631,-191 631,-170.25 704,-170.25 704,-191"/>
<text text-anchor="middle" x="667.5" y="-177.5" font-family="Helvetica,sans-Serif" font-size="10.00">periph/spi.h</text>
</a>
</g>
</g>
<!-- Node1&#45;&gt;Node20 -->
<g id="edge25_Node000001_Node000020" class="edge">
<title>Node1&#45;&gt;Node20</title>
<g id="a_edge25_Node000001_Node000020"><a xlink:title=" ">
<path fill="none" stroke="#63b8ff" d="M667.5,-283.62C667.5,-265.85 667.5,-227.22 667.5,-202.93"/>
<polygon fill="#63b8ff" stroke="#63b8ff" points="671,-202.94 667.5,-192.94 664,-202.94 671,-202.94"/>
</a>
</g>
</g>
<!-- Node3 -->
<g id="Node000003" class="node">
<title>Node3</title>
<g id="a_Node000003"><a xlink:title=" ">
<polygon fill="#e0e0e0" stroke="#999999" points="292.88,-20.75 240.12,-20.75 240.12,0 292.88,0 292.88,-20.75"/>
<text text-anchor="middle" x="266.5" y="-7.25" font-family="Helvetica,sans-Serif" font-size="10.00">stdint.h</text>
</a>
</g>
</g>
<!-- Node2&#45;&gt;Node3 -->
<g id="edge2_Node000002_Node000003" class="edge">
<title>Node2&#45;&gt;Node3</title>
<g id="a_edge2_Node000002_Node000003"><a xlink:title=" ">
<path fill="none" stroke="#63b8ff" d="M55.38,-59.74C98.27,-49.91 180.5,-31.08 228.7,-20.03"/>
<polygon fill="#63b8ff" stroke="#63b8ff" points="229.45,-23.45 238.41,-17.81 227.89,-16.63 229.45,-23.45"/>
</a>
</g>
</g>
<!-- Node5&#45;&gt;Node3 -->
<g id="edge5_Node000005_Node000003" class="edge">
<title>Node5&#45;&gt;Node3</title>
<g id="a_edge5_Node000005_Node000003"><a xlink:title=" ">
<path fill="none" stroke="#63b8ff" d="M447.77,-232.29C357.81,-221.92 139.21,-191.23 97.5,-134.25 57.16,-79.14 167.57,-38.63 228.81,-21.05"/>
<polygon fill="#63b8ff" stroke="#63b8ff" points="229.47,-24.5 238.17,-18.44 227.59,-17.76 229.47,-24.5"/>
</a>
</g>
</g>
<!-- Node6 -->
<g id="Node000006" class="node">
<title>Node6</title>
<g id="a_Node000006"><a xlink:href="errno_8h.html" target="_top" xlink:title=" ">
<polygon fill="white" stroke="#666666" points="601.75,-134.25 551.25,-134.25 551.25,-113.5 601.75,-113.5 601.75,-134.25"/>
<text text-anchor="middle" x="576.5" y="-120.75" font-family="Helvetica,sans-Serif" font-size="10.00">errno.h</text>
</a>
</g>
</g>
<!-- Node5&#45;&gt;Node6 -->
<g id="edge6_Node000005_Node000006" class="edge">
<title>Node5&#45;&gt;Node6</title>
<g id="a_edge6_Node000005_Node000006"><a xlink:title=" ">
<path fill="none" stroke="#63b8ff" d="M494.02,-226.94C504.27,-214.09 523.22,-190.39 539.5,-170.25 546.67,-161.39 554.65,-151.58 561.37,-143.36"/>
<polygon fill="#63b8ff" stroke="#63b8ff" points="563.96,-145.72 567.58,-135.76 558.54,-141.29 563.96,-145.72"/>
</a>
</g>
</g>
<!-- Node7 -->
<g id="Node000007" class="node">
<title>Node7</title>
<g id="a_Node000007"><a xlink:href="iolist_8h.html" target="_top" xlink:title="iolist scatter / gather IO">
<polygon fill="white" stroke="#666666" points="597,-191 548,-191 548,-170.25 597,-170.25 597,-191"/>
<text text-anchor="middle" x="572.5" y="-177.5" font-family="Helvetica,sans-Serif" font-size="10.00">iolist.h</text>
</a>
</g>
</g>
<!-- Node5&#45;&gt;Node7 -->
<g id="edge7_Node000005_Node000007" class="edge">
<title>Node5&#45;&gt;Node7</title>
<g id="a_edge7_Node000005_Node000007"><a xlink:title=" ">
<path fill="none" stroke="#63b8ff" d="M501.88,-226.59C514.59,-218.49 532.9,-206.83 547.69,-197.42"/>
<polygon fill="#63b8ff" stroke="#63b8ff" points="549.43,-200.46 555.98,-192.14 545.67,-194.56 549.43,-200.46"/>
</a>
</g>
</g>
<!-- Node8 -->
<g id="Node000008" class="node">
<title>Node8</title>
<g id="a_Node000008"><a xlink:href="netopt_8h.html" target="_top" xlink:title="Definition of global configuration options.">
<polygon fill="white" stroke="#666666" points="491.12,-191 415.88,-191 415.88,-170.25 491.12,-170.25 491.12,-191"/>
<text text-anchor="middle" x="453.5" y="-177.5" font-family="Helvetica,sans-Serif" font-size="10.00">net/netopt.h</text>
</a>
</g>
</g>
<!-- Node5&#45;&gt;Node8 -->
<g id="edge8_Node000005_Node000008" class="edge">
<title>Node5&#45;&gt;Node8</title>
<g id="a_edge8_Node000005_Node000008"><a xlink:title=" ">
<path fill="none" stroke="#63b8ff" d="M480.6,-226.59C476.33,-219.5 470.42,-209.69 465.2,-201.04"/>
<polygon fill="#63b8ff" stroke="#63b8ff" points="468.29,-199.38 460.13,-192.62 462.29,-203 468.29,-199.38"/>
</a>
</g>
</g>
<!-- Node10 -->
<g id="Node000010" class="node">
<title>Node10</title>
<g id="a_Node000010"><a xlink:href="kernel__defines_8h.html" target="_top" xlink:title="Common macros and compiler attributes/pragmas configuration.">
<polygon fill="white" stroke="#666666" points="381.62,-191 285.38,-191 285.38,-170.25 381.62,-170.25 381.62,-191"/>
<text text-anchor="middle" x="333.5" y="-177.5" font-family="Helvetica,sans-Serif" font-size="10.00">kernel_defines.h</text>
</a>
</g>
</g>
<!-- Node5&#45;&gt;Node10 -->
<g id="edge11_Node000005_Node000010" class="edge">
<title>Node5&#45;&gt;Node10</title>
<g id="a_edge11_Node000005_Node000010"><a xlink:title=" ">
<path fill="none" stroke="#63b8ff" d="M459.15,-226.59C434.75,-217.86 398.78,-204.98 371.57,-195.25"/>
<polygon fill="#63b8ff" stroke="#63b8ff" points="372.89,-192 362.3,-191.93 370.54,-198.6 372.89,-192"/>
</a>
</g>
</g>
<!-- Node8&#45;&gt;Node3 -->
<g id="edge9_Node000008_Node000003" class="edge">
<title>Node8&#45;&gt;Node3</title>
<g id="a_edge9_Node000008_Node000003"><a xlink:title=" ">
<path fill="none" stroke="#63b8ff" d="M415.44,-172.3C373.58,-163.69 309.56,-148.73 289.5,-134.25 264.89,-116.48 260.33,-106.54 251.5,-77.5 246.84,-62.17 251.38,-44.44 256.65,-31.21"/>
<polygon fill="#63b8ff" stroke="#63b8ff" points="259.75,-32.84 260.64,-22.29 253.36,-29.99 259.75,-32.84"/>
</a>
</g>
</g>
<!-- Node9 -->
<g id="Node000009" class="node">
<title>Node9</title>
<g id="a_Node000009"><a xlink:title=" ">
<polygon fill="#e0e0e0" stroke="#999999" points="533,-134.25 472,-134.25 472,-113.5 533,-113.5 533,-134.25"/>
<text text-anchor="middle" x="502.5" y="-120.75" font-family="Helvetica,sans-Serif" font-size="10.00">stdbool.h</text>
</a>
</g>
</g>
<!-- Node8&#45;&gt;Node9 -->
<g id="edge10_Node000008_Node000009" class="edge">
<title>Node8&#45;&gt;Node9</title>
<g id="a_edge10_Node000008_Node000009"><a xlink:title=" ">
<path fill="none" stroke="#63b8ff" d="M462.26,-169.84C468.95,-162.36 478.35,-151.86 486.39,-142.88"/>
<polygon fill="#63b8ff" stroke="#63b8ff" points="488.75,-145.49 492.81,-135.71 483.53,-140.82 488.75,-145.49"/>
</a>
</g>
</g>
<!-- Node11 -->
<g id="Node000011" class="node">
<title>Node11</title>
<g id="a_Node000011"><a xlink:href="modules_8h.html" target="_top" xlink:title="Common macros and compiler attributes/pragmas configuration.">
<polygon fill="white" stroke="#666666" points="454,-134.25 387,-134.25 387,-113.5 454,-113.5 454,-134.25"/>
<text text-anchor="middle" x="420.5" y="-120.75" font-family="Helvetica,sans-Serif" font-size="10.00">modules.h</text>
</a>
</g>
</g>
<!-- Node10&#45;&gt;Node11 -->
<g id="edge12_Node000010_Node000011" class="edge">
<title>Node10&#45;&gt;Node11</title>
<g id="a_edge12_Node000010_Node000011"><a xlink:title=" ">
<path fill="none" stroke="#63b8ff" d="M349.05,-169.84C361.92,-161.74 380.44,-150.08 395.41,-140.67"/>
<polygon fill="#63b8ff" stroke="#63b8ff" points="397.2,-143.67 403.8,-135.38 393.47,-137.75 397.2,-143.67"/>
</a>
</g>
</g>
<!-- Node12 -->
<g id="Node000012" class="node">
<title>Node12</title>
<g id="a_Node000012"><a xlink:href="riot__version_8h.html" target="_top" xlink:title="Common macros and compiler attributes/pragmas configuration.">
<polygon fill="white" stroke="#666666" points="342.88,-77.5 260.12,-77.5 260.12,-56.75 342.88,-56.75 342.88,-77.5"/>
<text text-anchor="middle" x="301.5" y="-64" font-family="Helvetica,sans-Serif" font-size="10.00">riot_version.h</text>
</a>
</g>
</g>
<!-- Node10&#45;&gt;Node12 -->
<g id="edge13_Node000010_Node000012" class="edge">
<title>Node10&#45;&gt;Node12</title>
<g id="a_edge13_Node000010_Node000012"><a xlink:title=" ">
<path fill="none" stroke="#63b8ff" d="M319.44,-169.92C308.98,-161.77 295.52,-149.1 289.5,-134.25 283.54,-119.53 287.31,-101.77 292.15,-88.36"/>
<polygon fill="#63b8ff" stroke="#63b8ff" points="295.31,-89.87 295.88,-79.29 288.84,-87.2 295.31,-89.87"/>
</a>
</g>
</g>
<!-- Node13 -->
<g id="Node000013" class="node">
<title>Node13</title>
<g id="a_Node000013"><a xlink:href="compiler__hints_8h.html" target="_top" xlink:title="Common macros and compiler attributes/pragmas configuration.">
<polygon fill="white" stroke="#666666" points="204,-134.25 107,-134.25 107,-113.5 204,-113.5 204,-134.25"/>
<text text-anchor="middle" x="155.5" y="-120.75" font-family="Helvetica,sans-Serif" font-size="10.00">compiler_hints.h</text>
</a>
</g>
</g>
<!-- Node10&#45;&gt;Node13 -->
<g id="edge15_Node000010_Node000013" class="edge">
<title>Node10&#45;&gt;Node13</title>
<g id="a_edge15_Node000010_Node000013"><a xlink:title=" ">
<path fill="none" stroke="#63b8ff" d="M301.68,-169.84C272.78,-160.95 229.95,-147.77 198.11,-137.98"/>
<polygon fill="#63b8ff" stroke="#63b8ff" points="199.38,-134.71 188.79,-135.12 197.32,-141.4 199.38,-134.71"/>
</a>
</g>
</g>
<!-- Node14 -->
<g id="Node000014" class="node">
<title>Node14</title>
<g id="a_Node000014"><a xlink:href="container_8h.html" target="_top" xlink:title="Common macros and compiler attributes/pragmas configuration.">
<polygon fill="white" stroke="#666666" points="368.88,-134.25 298.12,-134.25 298.12,-113.5 368.88,-113.5 368.88,-134.25"/>
<text text-anchor="middle" x="333.5" y="-120.75" font-family="Helvetica,sans-Serif" font-size="10.00">container.h</text>
</a>
</g>
</g>
<!-- Node10&#45;&gt;Node14 -->
<g id="edge18_Node000010_Node000014" class="edge">
<title>Node10&#45;&gt;Node14</title>
<g id="a_edge18_Node000010_Node000014"><a xlink:title=" ">
<path fill="none" stroke="#63b8ff" d="M333.5,-169.84C333.5,-163.22 333.5,-154.22 333.5,-146.02"/>
<polygon fill="#63b8ff" stroke="#63b8ff" points="337,-146.09 333.5,-136.09 330,-146.09 337,-146.09"/>
</a>
</g>
</g>
<!-- Node12&#45;&gt;Node3 -->
<g id="edge14_Node000012_Node000003" class="edge">
<title>Node12&#45;&gt;Node3</title>
<g id="a_edge14_Node000012_Node000003"><a xlink:title=" ">
<path fill="none" stroke="#63b8ff" d="M295.24,-56.34C290.66,-49.17 284.3,-39.23 278.73,-30.51"/>
<polygon fill="#63b8ff" stroke="#63b8ff" points="281.85,-28.89 273.52,-22.35 275.96,-32.66 281.85,-28.89"/>
</a>
</g>
</g>
<!-- Node13&#45;&gt;Node2 -->
<g id="edge16_Node000013_Node000002" class="edge">
<title>Node13&#45;&gt;Node2</title>
<g id="a_edge16_Node000013_Node000002"><a xlink:title=" ">
<path fill="none" stroke="#63b8ff" d="M132.62,-113.09C112.59,-104.52 83.26,-91.98 60.67,-82.31"/>
<polygon fill="#63b8ff" stroke="#63b8ff" points="62.15,-79.14 51.58,-78.42 59.4,-85.57 62.15,-79.14"/>
</a>
</g>
</g>
<!-- Node13&#45;&gt;Node3 -->
<g id="edge17_Node000013_Node000003" class="edge">
<title>Node13&#45;&gt;Node3</title>
<g id="a_edge17_Node000013_Node000003"><a xlink:title=" ">
<path fill="none" stroke="#63b8ff" d="M164.32,-113.31C176.37,-100.31 198.73,-76.44 218.5,-56.75 228.01,-47.28 238.85,-36.99 247.82,-28.61"/>
<polygon fill="#63b8ff" stroke="#63b8ff" points="250,-31.36 254.94,-21.99 245.23,-26.23 250,-31.36"/>
</a>
</g>
</g>
<!-- Node14&#45;&gt;Node3 -->
<g id="edge20_Node000014_Node000003" class="edge">
<title>Node14&#45;&gt;Node3</title>
<g id="a_edge20_Node000014_Node000003"><a xlink:title=" ">
<path fill="none" stroke="#63b8ff" d="M340.53,-113.26C349.44,-99.79 362.39,-74.91 351.5,-56.75 341.1,-39.41 321.56,-28.32 303.84,-21.46"/>
<polygon fill="#63b8ff" stroke="#63b8ff" points="305.16,-18.21 294.56,-18.21 302.85,-24.82 305.16,-18.21"/>
</a>
</g>
</g>
<!-- Node15 -->
<g id="Node000015" class="node">
<title>Node15</title>
<g id="a_Node000015"><a xlink:title=" ">
<polygon fill="#e0e0e0" stroke="#999999" points="709,-77.5 654,-77.5 654,-56.75 709,-56.75 709,-77.5"/>
<text text-anchor="middle" x="681.5" y="-64" font-family="Helvetica,sans-Serif" font-size="10.00">stddef.h</text>
</a>
</g>
</g>
<!-- Node14&#45;&gt;Node15 -->
<g id="edge19_Node000014_Node000015" class="edge">
<title>Node14&#45;&gt;Node15</title>
<g id="a_edge19_Node000014_Node000015"><a xlink:title=" ">
<path fill="none" stroke="#63b8ff" d="M369,-115.07C371.87,-114.51 374.73,-113.98 377.5,-113.5 491.9,-93.63 524.95,-99.83 642.44,-77.69"/>
<polygon fill="#63b8ff" stroke="#63b8ff" points="643.05,-81.14 652.21,-75.82 641.73,-74.26 643.05,-81.14"/>
</a>
</g>
</g>
<!-- Node17 -->
<g id="Node000017" class="node">
<title>Node17</title>
<g id="a_Node000017"><a xlink:title=" ">
<polygon fill="#e0e0e0" stroke="#999999" points="876.88,-77.5 824.12,-77.5 824.12,-56.75 876.88,-56.75 876.88,-77.5"/>
<text text-anchor="middle" x="850.5" y="-64" font-family="Helvetica,sans-Serif" font-size="10.00">limits.h</text>
</a>
</g>
</g>
<!-- Node16&#45;&gt;Node17 -->
<g id="edge22_Node000016_Node000017" class="edge">
<title>Node16&#45;&gt;Node17</title>
<g id="a_edge22_Node000016_Node000017"><a xlink:title=" ">
<path fill="none" stroke="#63b8ff" d="M818.47,-113.09C823.63,-105.85 830.82,-95.76 837.07,-86.97"/>
<polygon fill="#63b8ff" stroke="#63b8ff" points="839.76,-89.24 842.71,-79.06 834.06,-85.18 839.76,-89.24"/>
</a>
</g>
</g>
<!-- Node18 -->
<g id="Node000018" class="node">
<title>Node18</title>
<g id="a_Node000018"><a xlink:title=" ">
<polygon fill="#e0e0e0" stroke="#999999" points="805.62,-77.5 727.38,-77.5 727.38,-56.75 805.62,-56.75 805.62,-77.5"/>
<text text-anchor="middle" x="766.5" y="-64" font-family="Helvetica,sans-Serif" font-size="10.00">periph_cpu.h</text>
</a>
</g>
</g>
<!-- Node16&#45;&gt;Node18 -->
<g id="edge23_Node000016_Node000018" class="edge">
<title>Node16&#45;&gt;Node18</title>
<g id="a_edge23_Node000016_Node000018"><a xlink:title=" ">
<path fill="none" stroke="#63b8ff" d="M803.45,-113.09C797.44,-105.77 789.03,-95.54 781.76,-86.69"/>
<polygon fill="#63b8ff" stroke="#63b8ff" points="784.49,-84.5 775.44,-79 779.08,-88.95 784.49,-84.5"/>
</a>
</g>
</g>
<!-- Node19 -->
<g id="Node000019" class="node">
<title>Node19</title>
<g id="a_Node000019"><a xlink:title=" ">
<polygon fill="#e0e0e0" stroke="#999999" points="976.12,-77.5 894.88,-77.5 894.88,-56.75 976.12,-56.75 976.12,-77.5"/>
<text text-anchor="middle" x="935.5" y="-64" font-family="Helvetica,sans-Serif" font-size="10.00">periph_conf.h</text>
</a>
</g>
</g>
<!-- Node16&#45;&gt;Node19 -->
<g id="edge24_Node000016_Node000019" class="edge">
<title>Node16&#45;&gt;Node19</title>
<g id="a_edge24_Node000016_Node000019"><a xlink:title=" ">
<path fill="none" stroke="#63b8ff" d="M833.67,-113.09C852.98,-104.56 881.22,-92.09 903.07,-82.44"/>
<polygon fill="#63b8ff" stroke="#63b8ff" points="904.4,-85.68 912.14,-78.44 901.58,-79.28 904.4,-85.68"/>
</a>
</g>
</g>
<!-- Node20&#45;&gt;Node3 -->
<g id="edge31_Node000020_Node000003" class="edge">
<title>Node20&#45;&gt;Node3</title>
<g id="a_edge31_Node000020_Node000003"><a xlink:title=" ">
<path fill="none" stroke="#63b8ff" d="M661.77,-170C652.7,-155.58 633.66,-128.48 610.5,-113.5 511.55,-49.52 371.03,-24.33 304.39,-15.54"/>
<polygon fill="#63b8ff" stroke="#63b8ff" points="305.07,-12.1 294.71,-14.32 304.19,-19.04 305.07,-12.1"/>
</a>
</g>
</g>
<!-- Node20&#45;&gt;Node6 -->
<g id="edge28_Node000020_Node000006" class="edge">
<title>Node20&#45;&gt;Node6</title>
<g id="a_edge28_Node000020_Node000006"><a xlink:title=" ">
<path fill="none" stroke="#63b8ff" d="M651.23,-169.84C637.64,-161.66 618.03,-149.86 602.3,-140.4"/>
<polygon fill="#63b8ff" stroke="#63b8ff" points="604.3,-137.52 593.93,-135.36 600.69,-143.51 604.3,-137.52"/>
</a>
</g>
</g>
<!-- Node20&#45;&gt;Node9 -->
<g id="edge29_Node000020_Node000009" class="edge">
<title>Node20&#45;&gt;Node9</title>
<g id="a_edge29_Node000020_Node000009"><a xlink:title=" ">
<path fill="none" stroke="#63b8ff" d="M638,-169.84C611.45,-161.03 572.2,-148 542.77,-138.24"/>
<polygon fill="#63b8ff" stroke="#63b8ff" points="544.05,-134.97 533.46,-135.15 541.85,-141.62 544.05,-134.97"/>
</a>
</g>
</g>
<!-- Node20&#45;&gt;Node15 -->
<g id="edge30_Node000020_Node000015" class="edge">
<title>Node20&#45;&gt;Node15</title>
<g id="a_edge30_Node000020_Node000015"><a xlink:title=" ">
<path fill="none" stroke="#63b8ff" d="M671.36,-170.08C674.8,-161.03 679.58,-146.97 681.5,-134.25 683.76,-119.27 683.69,-102.15 683.09,-89.09"/>
<polygon fill="#63b8ff" stroke="#63b8ff" points="686.58,-88.88 682.48,-79.12 679.6,-89.32 686.58,-88.88"/>
</a>
</g>
</g>
<!-- Node20&#45;&gt;Node16 -->
<g id="edge34_Node000020_Node000016" class="edge">
<title>Node20&#45;&gt;Node16</title>
<g id="a_edge34_Node000020_Node000016"><a xlink:title=" ">
<path fill="none" stroke="#63b8ff" d="M693.24,-169.84C716.08,-161.16 749.67,-148.38 775.22,-138.67"/>
<polygon fill="#63b8ff" stroke="#63b8ff" points="776.46,-141.94 784.56,-135.12 773.97,-135.4 776.46,-141.94"/>
</a>
</g>
</g>
<!-- Node20&#45;&gt;Node18 -->
<g id="edge32_Node000020_Node000018" class="edge">
<title>Node20&#45;&gt;Node18</title>
<g id="a_edge32_Node000020_Node000018"><a xlink:title=" ">
<path fill="none" stroke="#63b8ff" d="M675.94,-170.12C692.37,-151.61 728.9,-110.47 750.2,-86.48"/>
<polygon fill="#63b8ff" stroke="#63b8ff" points="752.77,-88.86 756.79,-79.06 747.54,-84.21 752.77,-88.86"/>
</a>
</g>
</g>
<!-- Node20&#45;&gt;Node19 -->
<g id="edge33_Node000020_Node000019" class="edge">
<title>Node20&#45;&gt;Node19</title>
<g id="a_edge33_Node000020_Node000019"><a xlink:title=" ">
<path fill="none" stroke="#63b8ff" d="M704.2,-176.38C744.45,-171.63 810.04,-160.31 860.5,-134.25 883.75,-122.24 905.62,-101.45 919.67,-86.39"/>
<polygon fill="#63b8ff" stroke="#63b8ff" points="922.24,-88.76 926.34,-79 917.05,-84.07 922.24,-88.76"/>
</a>
</g>
</g>
<!-- Node21 -->
<g id="Node000021" class="node">
<title>Node21</title>
<g id="a_Node000021"><a xlink:href="endian_8h.html" target="_top" xlink:title="libc header for endian conversion">
<polygon fill="white" stroke="#666666" points="635.5,-77.5 577.5,-77.5 577.5,-56.75 635.5,-56.75 635.5,-77.5"/>
<text text-anchor="middle" x="606.5" y="-64" font-family="Helvetica,sans-Serif" font-size="10.00">endian.h</text>
</a>
</g>
</g>
<!-- Node20&#45;&gt;Node21 -->
<g id="edge26_Node000020_Node000021" class="edge">
<title>Node20&#45;&gt;Node21</title>
<g id="a_edge26_Node000020_Node000021"><a xlink:title=" ">
<path fill="none" stroke="#63b8ff" d="M665.04,-169.77C661.47,-156.44 654.11,-132.19 643.5,-113.5 638.02,-103.84 630.48,-94.16 623.63,-86.24"/>
<polygon fill="#63b8ff" stroke="#63b8ff" points="626.39,-84.07 617.1,-78.98 621.18,-88.75 626.39,-84.07"/>
</a>
</g>
</g>
<!-- Node21&#45;&gt;Node3 -->
<g id="edge27_Node000021_Node000003" class="edge">
<title>Node21&#45;&gt;Node3</title>
<g id="a_edge27_Node000021_Node000003"><a xlink:title=" ">
<path fill="none" stroke="#63b8ff" d="M577.41,-59.52C572.76,-58.54 568.01,-57.58 563.5,-56.75 470.85,-39.59 361.06,-24.05 304.46,-16.39"/>
<polygon fill="#63b8ff" stroke="#63b8ff" points="305.1,-12.95 294.72,-15.08 304.16,-19.89 305.1,-12.95"/>
</a>
</g>
</g>
</g>
</svg>
