<?xml version="1.0" encoding="UTF-8" standalone="no"?>
<!DOCTYPE svg PUBLIC "-//W3C//DTD SVG 1.1//EN"
 "http://www.w3.org/Graphics/SVG/1.1/DTD/svg11.dtd">
<!-- Generated by graphviz version 12.1.2 (0)
 -->
<!-- Title: drivers/sx126x/include/sx126x_params.h Pages: 1 -->
<svg width="1070pt" height="382pt"
 viewBox="0.00 0.00 1070.38 382.00" xmlns="http://www.w3.org/2000/svg" xmlns:xlink="http://www.w3.org/1999/xlink">
<g id="graph0" class="graph" transform="scale(1 1) rotate(0) translate(4 378)">
<title>drivers/sx126x/include/sx126x_params.h</title>
<!-- Node1 -->
<g id="Node000001" class="node">
<title>Node1</title>
<g id="a_Node000001"><a xlink:title="Default configuration.">
<polygon fill="#999999" stroke="#666666" points="875.5,-374 749.25,-374 749.25,-340.5 875.5,-340.5 875.5,-374"/>
<text text-anchor="start" x="757.25" y="-360.5" font-family="Helvetica,sans-Serif" font-size="10.00">drivers/sx126x/include</text>
<text text-anchor="middle" x="812.38" y="-347.75" font-family="Helvetica,sans-Serif" font-size="10.00">/sx126x_params.h</text>
</a>
</g>
</g>
<!-- Node2 -->
<g id="Node000002" class="node">
<title>Node2</title>
<g id="a_Node000002"><a xlink:title=" ">
<polygon fill="#e0e0e0" stroke="#999999" points="763.75,-304.5 711,-304.5 711,-283.75 763.75,-283.75 763.75,-304.5"/>
<text text-anchor="middle" x="737.38" y="-291" font-family="Helvetica,sans-Serif" font-size="10.00">board.h</text>
</a>
</g>
</g>
<!-- Node1&#45;&gt;Node2 -->
<g id="edge1_Node000001_Node000002" class="edge">
<title>Node1&#45;&gt;Node2</title>
<g id="a_edge1_Node000001_Node000002"><a xlink:title=" ">
<path fill="none" stroke="#63b8ff" d="M792.67,-340.19C782.06,-331.55 768.98,-320.88 758.21,-312.1"/>
<polygon fill="#63b8ff" stroke="#63b8ff" points="760.59,-309.53 750.62,-305.92 756.16,-314.95 760.59,-309.53"/>
</a>
</g>
</g>
<!-- Node3 -->
<g id="Node000003" class="node">
<title>Node3</title>
<g id="a_Node000003"><a xlink:href="sx126x_8h.html" target="_top" xlink:title=" ">
<polygon fill="white" stroke="#666666" points="842.5,-304.5 782.25,-304.5 782.25,-283.75 842.5,-283.75 842.5,-304.5"/>
<text text-anchor="middle" x="812.38" y="-291" font-family="Helvetica,sans-Serif" font-size="10.00">sx126x.h</text>
</a>
</g>
</g>
<!-- Node1&#45;&gt;Node3 -->
<g id="edge2_Node000001_Node000003" class="edge">
<title>Node1&#45;&gt;Node3</title>
<g id="a_edge2_Node000001_Node000003"><a xlink:title=" ">
<path fill="none" stroke="#63b8ff" d="M812.38,-340.19C812.38,-332.85 812.38,-324.07 812.38,-316.21"/>
<polygon fill="#63b8ff" stroke="#63b8ff" points="815.88,-316.48 812.38,-306.48 808.88,-316.48 815.88,-316.48"/>
</a>
</g>
</g>
<!-- Node6 -->
<g id="Node000006" class="node">
<title>Node6</title>
<g id="a_Node000006"><a xlink:title=" ">
<polygon fill="#e0e0e0" stroke="#999999" points="1062.38,-247.75 968.38,-247.75 968.38,-227 1062.38,-227 1062.38,-247.75"/>
<text text-anchor="middle" x="1015.38" y="-234.25" font-family="Helvetica,sans-Serif" font-size="10.00">sx126x_driver.h</text>
</a>
</g>
</g>
<!-- Node1&#45;&gt;Node6 -->
<g id="edge37_Node000001_Node000006" class="edge">
<title>Node1&#45;&gt;Node6</title>
<g id="a_edge37_Node000001_Node000006"><a xlink:title=" ">
<path fill="none" stroke="#63b8ff" d="M840.18,-340.11C879.45,-317.3 950.66,-275.95 989.09,-253.64"/>
<polygon fill="#63b8ff" stroke="#63b8ff" points="990.37,-256.94 997.26,-248.9 986.85,-250.89 990.37,-256.94"/>
</a>
</g>
</g>
<!-- Node4 -->
<g id="Node000004" class="node">
<title>Node4</title>
<g id="a_Node000004"><a xlink:href="assert_8h.html" target="_top" xlink:title="POSIX.1&#45;2008 compliant version of the assert macro.">
<polygon fill="white" stroke="#666666" points="852.88,-77.5 797.88,-77.5 797.88,-56.75 852.88,-56.75 852.88,-77.5"/>
<text text-anchor="middle" x="825.38" y="-64" font-family="Helvetica,sans-Serif" font-size="10.00">assert.h</text>
</a>
</g>
</g>
<!-- Node3&#45;&gt;Node4 -->
<g id="edge3_Node000003_Node000004" class="edge">
<title>Node3&#45;&gt;Node4</title>
<g id="a_edge3_Node000003_Node000004"><a xlink:title=" ">
<path fill="none" stroke="#63b8ff" d="M818.38,-283.58C833.07,-259.62 870.52,-194.53 883.38,-134.25 885.3,-125.23 887.42,-121.79 883.38,-113.5 877.41,-101.27 866.39,-91.37 855.53,-83.97"/>
<polygon fill="#63b8ff" stroke="#63b8ff" points="857.39,-81 847.05,-78.69 853.69,-86.94 857.39,-81"/>
</a>
</g>
</g>
<!-- Node3&#45;&gt;Node6 -->
<g id="edge5_Node000003_Node000006" class="edge">
<title>Node3&#45;&gt;Node6</title>
<g id="a_edge5_Node000003_Node000006"><a xlink:title=" ">
<path fill="none" stroke="#63b8ff" d="M842.77,-284.93C875.89,-276 929.31,-261.59 967.95,-251.17"/>
<polygon fill="#63b8ff" stroke="#63b8ff" points="968.73,-254.58 977.47,-248.6 966.9,-247.82 968.73,-254.58"/>
</a>
</g>
</g>
<!-- Node7 -->
<g id="Node000007" class="node">
<title>Node7</title>
<g id="a_Node000007"><a xlink:href="drivers_2include_2net_2netdev_8h.html" target="_top" xlink:title="Definitions low&#45;level network driver interface.">
<polygon fill="white" stroke="#666666" points="792.75,-247.75 716,-247.75 716,-227 792.75,-227 792.75,-247.75"/>
<text text-anchor="middle" x="754.38" y="-234.25" font-family="Helvetica,sans-Serif" font-size="10.00">net/netdev.h</text>
</a>
</g>
</g>
<!-- Node3&#45;&gt;Node7 -->
<g id="edge6_Node000003_Node000007" class="edge">
<title>Node3&#45;&gt;Node7</title>
<g id="a_edge6_Node000003_Node000007"><a xlink:title=" ">
<path fill="none" stroke="#63b8ff" d="M802.01,-283.34C793.92,-275.71 782.49,-264.92 772.85,-255.82"/>
<polygon fill="#63b8ff" stroke="#63b8ff" points="775.43,-253.44 765.76,-249.12 770.62,-258.53 775.43,-253.44"/>
</a>
</g>
</g>
<!-- Node18 -->
<g id="Node000018" class="node">
<title>Node18</title>
<g id="a_Node000018"><a xlink:href="drivers_2include_2periph_2gpio_8h.html" target="_top" xlink:title="Low&#45;level GPIO peripheral driver interface definitions.">
<polygon fill="white" stroke="#666666" points="171.25,-134.25 91.5,-134.25 91.5,-113.5 171.25,-113.5 171.25,-134.25"/>
<text text-anchor="middle" x="131.38" y="-120.75" font-family="Helvetica,sans-Serif" font-size="10.00">periph/gpio.h</text>
</a>
</g>
</g>
<!-- Node3&#45;&gt;Node18 -->
<g id="edge23_Node000003_Node000018" class="edge">
<title>Node3&#45;&gt;Node18</title>
<g id="a_edge23_Node000003_Node000018"><a xlink:title=" ">
<path fill="none" stroke="#63b8ff" d="M781.86,-285.68C778.67,-284.99 775.46,-284.33 772.38,-283.75 548.09,-241.66 482.7,-266.55 267.38,-191 227.79,-177.11 184.64,-154.8 157.79,-139.99"/>
<polygon fill="#63b8ff" stroke="#63b8ff" points="159.77,-137.08 149.33,-135.26 156.35,-143.2 159.77,-137.08"/>
</a>
</g>
</g>
<!-- Node22 -->
<g id="Node000022" class="node">
<title>Node22</title>
<g id="a_Node000022"><a xlink:href="spi_8h.html" target="_top" xlink:title="Low&#45;level SPI peripheral driver interface definition.">
<polygon fill="white" stroke="#666666" points="349.88,-191 276.88,-191 276.88,-170.25 349.88,-170.25 349.88,-191"/>
<text text-anchor="middle" x="313.38" y="-177.5" font-family="Helvetica,sans-Serif" font-size="10.00">periph/spi.h</text>
</a>
</g>
</g>
<!-- Node3&#45;&gt;Node22 -->
<g id="edge27_Node000003_Node000022" class="edge">
<title>Node3&#45;&gt;Node22</title>
<g id="a_edge27_Node000003_Node000022"><a xlink:title=" ">
<path fill="none" stroke="#63b8ff" d="M781.81,-285.92C778.62,-285.18 775.43,-284.45 772.38,-283.75 622.63,-249.54 445.06,-210.45 361.46,-192.14"/>
<polygon fill="#63b8ff" stroke="#63b8ff" points="362.29,-188.74 351.77,-190.01 360.79,-195.57 362.29,-188.74"/>
</a>
</g>
</g>
<!-- Node5 -->
<g id="Node000005" class="node">
<title>Node5</title>
<g id="a_Node000005"><a xlink:title=" ">
<polygon fill="#e0e0e0" stroke="#999999" points="685.75,-20.75 633,-20.75 633,0 685.75,0 685.75,-20.75"/>
<text text-anchor="middle" x="659.38" y="-7.25" font-family="Helvetica,sans-Serif" font-size="10.00">stdint.h</text>
</a>
</g>
</g>
<!-- Node4&#45;&gt;Node5 -->
<g id="edge4_Node000004_Node000005" class="edge">
<title>Node4&#45;&gt;Node5</title>
<g id="a_edge4_Node000004_Node000005"><a xlink:title=" ">
<path fill="none" stroke="#63b8ff" d="M797.59,-56.96C769.97,-47.85 727.42,-33.82 696.83,-23.73"/>
<polygon fill="#63b8ff" stroke="#63b8ff" points="698.18,-20.49 687.59,-20.68 695.99,-27.14 698.18,-20.49"/>
</a>
</g>
</g>
<!-- Node7&#45;&gt;Node5 -->
<g id="edge7_Node000007_Node000005" class="edge">
<title>Node7&#45;&gt;Node5</title>
<g id="a_edge7_Node000007_Node000005"><a xlink:title=" ">
<path fill="none" stroke="#63b8ff" d="M787.06,-226.5C807.11,-219.18 832.32,-207.58 850.38,-191 894.5,-150.48 907.48,-96.17 862.38,-56.75 838.16,-35.59 749.36,-21.91 697.58,-15.54"/>
<polygon fill="#63b8ff" stroke="#63b8ff" points="698.05,-12.07 687.7,-14.37 697.22,-19.02 698.05,-12.07"/>
</a>
</g>
</g>
<!-- Node8 -->
<g id="Node000008" class="node">
<title>Node8</title>
<g id="a_Node000008"><a xlink:href="errno_8h.html" target="_top" xlink:title=" ">
<polygon fill="white" stroke="#666666" points="429.62,-134.25 379.12,-134.25 379.12,-113.5 429.62,-113.5 429.62,-134.25"/>
<text text-anchor="middle" x="404.38" y="-120.75" font-family="Helvetica,sans-Serif" font-size="10.00">errno.h</text>
</a>
</g>
</g>
<!-- Node7&#45;&gt;Node8 -->
<g id="edge8_Node000007_Node000008" class="edge">
<title>Node7&#45;&gt;Node8</title>
<g id="a_edge8_Node000007_Node000008"><a xlink:title=" ">
<path fill="none" stroke="#63b8ff" d="M715.71,-228.09C678.99,-219.88 622.42,-206.34 574.38,-191 525.78,-175.49 471.04,-153.32 437.12,-139.01"/>
<polygon fill="#63b8ff" stroke="#63b8ff" points="438.84,-135.94 428.27,-135.25 436.11,-142.38 438.84,-135.94"/>
</a>
</g>
</g>
<!-- Node9 -->
<g id="Node000009" class="node">
<title>Node9</title>
<g id="a_Node000009"><a xlink:href="iolist_8h.html" target="_top" xlink:title="iolist scatter / gather IO">
<polygon fill="white" stroke="#666666" points="840.88,-191 791.88,-191 791.88,-170.25 840.88,-170.25 840.88,-191"/>
<text text-anchor="middle" x="816.38" y="-177.5" font-family="Helvetica,sans-Serif" font-size="10.00">iolist.h</text>
</a>
</g>
</g>
<!-- Node7&#45;&gt;Node9 -->
<g id="edge9_Node000007_Node000009" class="edge">
<title>Node7&#45;&gt;Node9</title>
<g id="a_edge9_Node000007_Node000009"><a xlink:title=" ">
<path fill="none" stroke="#63b8ff" d="M765.46,-226.59C774.19,-218.88 786.57,-207.95 796.94,-198.79"/>
<polygon fill="#63b8ff" stroke="#63b8ff" points="799.07,-201.57 804.25,-192.33 794.44,-196.33 799.07,-201.57"/>
</a>
</g>
</g>
<!-- Node10 -->
<g id="Node000010" class="node">
<title>Node10</title>
<g id="a_Node000010"><a xlink:href="netopt_8h.html" target="_top" xlink:title="Definition of global configuration options.">
<polygon fill="white" stroke="#666666" points="659,-191 583.75,-191 583.75,-170.25 659,-170.25 659,-191"/>
<text text-anchor="middle" x="621.38" y="-177.5" font-family="Helvetica,sans-Serif" font-size="10.00">net/netopt.h</text>
</a>
</g>
</g>
<!-- Node7&#45;&gt;Node10 -->
<g id="edge10_Node000007_Node000010" class="edge">
<title>Node7&#45;&gt;Node10</title>
<g id="a_edge10_Node000007_Node000010"><a xlink:title=" ">
<path fill="none" stroke="#63b8ff" d="M730.6,-226.59C709.7,-217.98 679.04,-205.36 655.52,-195.68"/>
<polygon fill="#63b8ff" stroke="#63b8ff" points="656.93,-192.47 646.35,-191.9 654.26,-198.95 656.93,-192.47"/>
</a>
</g>
</g>
<!-- Node12 -->
<g id="Node000012" class="node">
<title>Node12</title>
<g id="a_Node000012"><a xlink:href="kernel__defines_8h.html" target="_top" xlink:title="Common macros and compiler attributes/pragmas configuration.">
<polygon fill="white" stroke="#666666" points="773.5,-191 677.25,-191 677.25,-170.25 773.5,-170.25 773.5,-191"/>
<text text-anchor="middle" x="725.38" y="-177.5" font-family="Helvetica,sans-Serif" font-size="10.00">kernel_defines.h</text>
</a>
</g>
</g>
<!-- Node7&#45;&gt;Node12 -->
<g id="edge13_Node000007_Node000012" class="edge">
<title>Node7&#45;&gt;Node12</title>
<g id="a_edge13_Node000007_Node000012"><a xlink:title=" ">
<path fill="none" stroke="#63b8ff" d="M749.19,-226.59C745.48,-219.58 740.36,-209.91 735.81,-201.33"/>
<polygon fill="#63b8ff" stroke="#63b8ff" points="739,-199.86 731.22,-192.67 732.81,-203.14 739,-199.86"/>
</a>
</g>
</g>
<!-- Node10&#45;&gt;Node5 -->
<g id="edge11_Node000010_Node000005" class="edge">
<title>Node10&#45;&gt;Node5</title>
<g id="a_edge11_Node000010_Node000005"><a xlink:title=" ">
<path fill="none" stroke="#63b8ff" d="M622.73,-169.97C625.76,-149.11 633.65,-98.36 644.38,-56.75 646.52,-48.43 649.38,-39.41 652.04,-31.62"/>
<polygon fill="#63b8ff" stroke="#63b8ff" points="655.25,-33.02 655.27,-22.43 648.65,-30.7 655.25,-33.02"/>
</a>
</g>
</g>
<!-- Node11 -->
<g id="Node000011" class="node">
<title>Node11</title>
<g id="a_Node000011"><a xlink:title=" ">
<polygon fill="#e0e0e0" stroke="#999999" points="508.88,-134.25 447.88,-134.25 447.88,-113.5 508.88,-113.5 508.88,-134.25"/>
<text text-anchor="middle" x="478.38" y="-120.75" font-family="Helvetica,sans-Serif" font-size="10.00">stdbool.h</text>
</a>
</g>
</g>
<!-- Node10&#45;&gt;Node11 -->
<g id="edge12_Node000010_Node000011" class="edge">
<title>Node10&#45;&gt;Node11</title>
<g id="a_edge12_Node000010_Node000011"><a xlink:title=" ">
<path fill="none" stroke="#63b8ff" d="M595.81,-169.84C573.14,-161.16 539.78,-148.38 514.4,-138.67"/>
<polygon fill="#63b8ff" stroke="#63b8ff" points="515.72,-135.43 505.13,-135.12 513.22,-141.96 515.72,-135.43"/>
</a>
</g>
</g>
<!-- Node13 -->
<g id="Node000013" class="node">
<title>Node13</title>
<g id="a_Node000013"><a xlink:href="modules_8h.html" target="_top" xlink:title="Common macros and compiler attributes/pragmas configuration.">
<polygon fill="white" stroke="#666666" points="758.88,-134.25 691.88,-134.25 691.88,-113.5 758.88,-113.5 758.88,-134.25"/>
<text text-anchor="middle" x="725.38" y="-120.75" font-family="Helvetica,sans-Serif" font-size="10.00">modules.h</text>
</a>
</g>
</g>
<!-- Node12&#45;&gt;Node13 -->
<g id="edge14_Node000012_Node000013" class="edge">
<title>Node12&#45;&gt;Node13</title>
<g id="a_edge14_Node000012_Node000013"><a xlink:title=" ">
<path fill="none" stroke="#63b8ff" d="M725.38,-169.84C725.38,-163.22 725.38,-154.22 725.38,-146.02"/>
<polygon fill="#63b8ff" stroke="#63b8ff" points="728.88,-146.09 725.38,-136.09 721.88,-146.09 728.88,-146.09"/>
</a>
</g>
</g>
<!-- Node14 -->
<g id="Node000014" class="node">
<title>Node14</title>
<g id="a_Node000014"><a xlink:href="riot__version_8h.html" target="_top" xlink:title="Common macros and compiler attributes/pragmas configuration.">
<polygon fill="white" stroke="#666666" points="735.75,-77.5 653,-77.5 653,-56.75 735.75,-56.75 735.75,-77.5"/>
<text text-anchor="middle" x="694.38" y="-64" font-family="Helvetica,sans-Serif" font-size="10.00">riot_version.h</text>
</a>
</g>
</g>
<!-- Node12&#45;&gt;Node14 -->
<g id="edge15_Node000012_Node000014" class="edge">
<title>Node12&#45;&gt;Node14</title>
<g id="a_edge15_Node000012_Node000014"><a xlink:title=" ">
<path fill="none" stroke="#63b8ff" d="M711.63,-169.84C701.4,-161.66 688.24,-148.97 682.38,-134.25 676.49,-119.5 680.26,-101.74 685.08,-88.34"/>
<polygon fill="#63b8ff" stroke="#63b8ff" points="688.24,-89.85 688.79,-79.27 681.76,-87.2 688.24,-89.85"/>
</a>
</g>
</g>
<!-- Node15 -->
<g id="Node000015" class="node">
<title>Node15</title>
<g id="a_Node000015"><a xlink:href="compiler__hints_8h.html" target="_top" xlink:title="Common macros and compiler attributes/pragmas configuration.">
<polygon fill="white" stroke="#666666" points="873.88,-134.25 776.88,-134.25 776.88,-113.5 873.88,-113.5 873.88,-134.25"/>
<text text-anchor="middle" x="825.38" y="-120.75" font-family="Helvetica,sans-Serif" font-size="10.00">compiler_hints.h</text>
</a>
</g>
</g>
<!-- Node12&#45;&gt;Node15 -->
<g id="edge17_Node000012_Node000015" class="edge">
<title>Node12&#45;&gt;Node15</title>
<g id="a_edge17_Node000012_Node000015"><a xlink:title=" ">
<path fill="none" stroke="#63b8ff" d="M743.25,-169.84C758.47,-161.51 780.57,-149.41 798.01,-139.86"/>
<polygon fill="#63b8ff" stroke="#63b8ff" points="799.23,-143.18 806.32,-135.31 795.87,-137.04 799.23,-143.18"/>
</a>
</g>
</g>
<!-- Node16 -->
<g id="Node000016" class="node">
<title>Node16</title>
<g id="a_Node000016"><a xlink:href="container_8h.html" target="_top" xlink:title="Common macros and compiler attributes/pragmas configuration.">
<polygon fill="white" stroke="#666666" points="597.75,-134.25 527,-134.25 527,-113.5 597.75,-113.5 597.75,-134.25"/>
<text text-anchor="middle" x="562.38" y="-120.75" font-family="Helvetica,sans-Serif" font-size="10.00">container.h</text>
</a>
</g>
</g>
<!-- Node12&#45;&gt;Node16 -->
<g id="edge20_Node000012_Node000016" class="edge">
<title>Node12&#45;&gt;Node16</title>
<g id="a_edge20_Node000012_Node000016"><a xlink:title=" ">
<path fill="none" stroke="#63b8ff" d="M696.23,-169.84C670.01,-161.03 631.23,-148 602.16,-138.24"/>
<polygon fill="#63b8ff" stroke="#63b8ff" points="603.57,-135.02 592.97,-135.15 601.34,-141.65 603.57,-135.02"/>
</a>
</g>
</g>
<!-- Node14&#45;&gt;Node5 -->
<g id="edge16_Node000014_Node000005" class="edge">
<title>Node14&#45;&gt;Node5</title>
<g id="a_edge16_Node000014_Node000005"><a xlink:title=" ">
<path fill="none" stroke="#63b8ff" d="M688.12,-56.34C683.54,-49.17 677.18,-39.23 671.61,-30.51"/>
<polygon fill="#63b8ff" stroke="#63b8ff" points="674.73,-28.89 666.39,-22.35 668.83,-32.66 674.73,-28.89"/>
</a>
</g>
</g>
<!-- Node15&#45;&gt;Node4 -->
<g id="edge18_Node000015_Node000004" class="edge">
<title>Node15&#45;&gt;Node4</title>
<g id="a_edge18_Node000015_Node000004"><a xlink:title=" ">
<path fill="none" stroke="#63b8ff" d="M825.38,-113.09C825.38,-106.47 825.38,-97.47 825.38,-89.27"/>
<polygon fill="#63b8ff" stroke="#63b8ff" points="828.88,-89.34 825.38,-79.34 821.88,-89.34 828.88,-89.34"/>
</a>
</g>
</g>
<!-- Node15&#45;&gt;Node5 -->
<g id="edge19_Node000015_Node000005" class="edge">
<title>Node15&#45;&gt;Node5</title>
<g id="a_edge19_Node000015_Node000005"><a xlink:title=" ">
<path fill="none" stroke="#63b8ff" d="M814.89,-113.19C799.92,-99.63 771.27,-74.66 744.38,-56.75 727.24,-45.34 706.94,-34.42 690.48,-26.15"/>
<polygon fill="#63b8ff" stroke="#63b8ff" points="692.16,-23.07 681.64,-21.79 689.06,-29.35 692.16,-23.07"/>
</a>
</g>
</g>
<!-- Node16&#45;&gt;Node5 -->
<g id="edge22_Node000016_Node000005" class="edge">
<title>Node16&#45;&gt;Node5</title>
<g id="a_edge22_Node000016_Node000005"><a xlink:title=" ">
<path fill="none" stroke="#63b8ff" d="M568.85,-113.05C577.78,-99.76 594.69,-75.56 611.38,-56.75 620.16,-46.84 630.79,-36.64 639.81,-28.42"/>
<polygon fill="#63b8ff" stroke="#63b8ff" points="641.92,-31.24 647.04,-21.96 637.25,-26.02 641.92,-31.24"/>
</a>
</g>
</g>
<!-- Node17 -->
<g id="Node000017" class="node">
<title>Node17</title>
<g id="a_Node000017"><a xlink:title=" ">
<polygon fill="#e0e0e0" stroke="#999999" points="500.88,-77.5 445.88,-77.5 445.88,-56.75 500.88,-56.75 500.88,-77.5"/>
<text text-anchor="middle" x="473.38" y="-64" font-family="Helvetica,sans-Serif" font-size="10.00">stddef.h</text>
</a>
</g>
</g>
<!-- Node16&#45;&gt;Node17 -->
<g id="edge21_Node000016_Node000017" class="edge">
<title>Node16&#45;&gt;Node17</title>
<g id="a_edge21_Node000016_Node000017"><a xlink:title=" ">
<path fill="none" stroke="#63b8ff" d="M546.46,-113.09C533.17,-104.91 513.99,-93.11 498.61,-83.65"/>
<polygon fill="#63b8ff" stroke="#63b8ff" points="500.79,-80.88 490.44,-78.62 497.12,-86.84 500.79,-80.88"/>
</a>
</g>
</g>
<!-- Node19 -->
<g id="Node000019" class="node">
<title>Node19</title>
<g id="a_Node000019"><a xlink:title=" ">
<polygon fill="#e0e0e0" stroke="#999999" points="52.75,-77.5 0,-77.5 0,-56.75 52.75,-56.75 52.75,-77.5"/>
<text text-anchor="middle" x="26.38" y="-64" font-family="Helvetica,sans-Serif" font-size="10.00">limits.h</text>
</a>
</g>
</g>
<!-- Node18&#45;&gt;Node19 -->
<g id="edge24_Node000018_Node000019" class="edge">
<title>Node18&#45;&gt;Node19</title>
<g id="a_edge24_Node000018_Node000019"><a xlink:title=" ">
<path fill="none" stroke="#63b8ff" d="M112.6,-113.09C96.63,-104.76 73.42,-92.66 55.11,-83.11"/>
<polygon fill="#63b8ff" stroke="#63b8ff" points="56.81,-80.05 46.33,-78.53 53.58,-86.26 56.81,-80.05"/>
</a>
</g>
</g>
<!-- Node20 -->
<g id="Node000020" class="node">
<title>Node20</title>
<g id="a_Node000020"><a xlink:title=" ">
<polygon fill="#e0e0e0" stroke="#999999" points="248.5,-77.5 170.25,-77.5 170.25,-56.75 248.5,-56.75 248.5,-77.5"/>
<text text-anchor="middle" x="209.38" y="-64" font-family="Helvetica,sans-Serif" font-size="10.00">periph_cpu.h</text>
</a>
</g>
</g>
<!-- Node18&#45;&gt;Node20 -->
<g id="edge25_Node000018_Node000020" class="edge">
<title>Node18&#45;&gt;Node20</title>
<g id="a_edge25_Node000018_Node000020"><a xlink:title=" ">
<path fill="none" stroke="#63b8ff" d="M145.32,-113.09C156.74,-105.07 173.14,-93.56 186.49,-84.19"/>
<polygon fill="#63b8ff" stroke="#63b8ff" points="188.14,-87.31 194.31,-78.7 184.12,-81.58 188.14,-87.31"/>
</a>
</g>
</g>
<!-- Node21 -->
<g id="Node000021" class="node">
<title>Node21</title>
<g id="a_Node000021"><a xlink:title=" ">
<polygon fill="#e0e0e0" stroke="#999999" points="152,-77.5 70.75,-77.5 70.75,-56.75 152,-56.75 152,-77.5"/>
<text text-anchor="middle" x="111.38" y="-64" font-family="Helvetica,sans-Serif" font-size="10.00">periph_conf.h</text>
</a>
</g>
</g>
<!-- Node18&#45;&gt;Node21 -->
<g id="edge26_Node000018_Node000021" class="edge">
<title>Node18&#45;&gt;Node21</title>
<g id="a_edge26_Node000018_Node000021"><a xlink:title=" ">
<path fill="none" stroke="#63b8ff" d="M127.8,-113.09C125.3,-106.24 121.86,-96.84 118.78,-88.4"/>
<polygon fill="#63b8ff" stroke="#63b8ff" points="122.16,-87.44 115.44,-79.25 115.58,-89.84 122.16,-87.44"/>
</a>
</g>
</g>
<!-- Node22&#45;&gt;Node5 -->
<g id="edge33_Node000022_Node000005" class="edge">
<title>Node22&#45;&gt;Node5</title>
<g id="a_edge33_Node000022_Node000005"><a xlink:title=" ">
<path fill="none" stroke="#63b8ff" d="M316.1,-170.12C320.45,-156.33 330.03,-130.58 345.38,-113.5 377.23,-78.04 392.1,-74.39 436.38,-56.75 498.54,-31.98 576.05,-20.13 621.4,-14.94"/>
<polygon fill="#63b8ff" stroke="#63b8ff" points="621.69,-18.43 631.25,-13.87 620.93,-11.47 621.69,-18.43"/>
</a>
</g>
</g>
<!-- Node22&#45;&gt;Node8 -->
<g id="edge30_Node000022_Node000008" class="edge">
<title>Node22&#45;&gt;Node8</title>
<g id="a_edge30_Node000022_Node000008"><a xlink:title=" ">
<path fill="none" stroke="#63b8ff" d="M329.64,-169.84C343.23,-161.66 362.85,-149.86 378.58,-140.4"/>
<polygon fill="#63b8ff" stroke="#63b8ff" points="380.19,-143.51 386.95,-135.36 376.58,-137.52 380.19,-143.51"/>
</a>
</g>
</g>
<!-- Node22&#45;&gt;Node11 -->
<g id="edge31_Node000022_Node000011" class="edge">
<title>Node22&#45;&gt;Node11</title>
<g id="a_edge31_Node000022_Node000011"><a xlink:title=" ">
<path fill="none" stroke="#63b8ff" d="M342.87,-169.84C369.42,-161.03 408.67,-148 438.1,-138.24"/>
<polygon fill="#63b8ff" stroke="#63b8ff" points="439.03,-141.62 447.42,-135.15 436.82,-134.97 439.03,-141.62"/>
</a>
</g>
</g>
<!-- Node22&#45;&gt;Node17 -->
<g id="edge32_Node000022_Node000017" class="edge">
<title>Node22&#45;&gt;Node17</title>
<g id="a_edge32_Node000022_Node000017"><a xlink:title=" ">
<path fill="none" stroke="#63b8ff" d="M319.67,-169.89C329.17,-155.83 348.45,-129.73 370.38,-113.5 389.86,-99.08 414.64,-87.98 435.01,-80.37"/>
<polygon fill="#63b8ff" stroke="#63b8ff" points="436.15,-83.68 444.39,-77.01 433.79,-77.09 436.15,-83.68"/>
</a>
</g>
</g>
<!-- Node22&#45;&gt;Node18 -->
<g id="edge36_Node000022_Node000018" class="edge">
<title>Node22&#45;&gt;Node18</title>
<g id="a_edge36_Node000022_Node000018"><a xlink:title=" ">
<path fill="none" stroke="#63b8ff" d="M280.84,-169.84C251.29,-160.95 207.5,-147.77 174.94,-137.98"/>
<polygon fill="#63b8ff" stroke="#63b8ff" points="175.97,-134.64 165.39,-135.11 173.95,-141.34 175.97,-134.64"/>
</a>
</g>
</g>
<!-- Node22&#45;&gt;Node20 -->
<g id="edge34_Node000022_Node000020" class="edge">
<title>Node22&#45;&gt;Node20</title>
<g id="a_edge34_Node000022_Node000020"><a xlink:title=" ">
<path fill="none" stroke="#63b8ff" d="M304.51,-170.12C287.17,-151.53 248.54,-110.11 226.2,-86.16"/>
<polygon fill="#63b8ff" stroke="#63b8ff" points="228.93,-83.96 219.55,-79.03 223.81,-88.73 228.93,-83.96"/>
</a>
</g>
</g>
<!-- Node22&#45;&gt;Node21 -->
<g id="edge35_Node000022_Node000021" class="edge">
<title>Node22&#45;&gt;Node21</title>
<g id="a_edge35_Node000022_Node000021"><a xlink:title=" ">
<path fill="none" stroke="#63b8ff" d="M295.8,-169.93C260.58,-150.49 181.13,-106.63 138.93,-83.33"/>
<polygon fill="#63b8ff" stroke="#63b8ff" points="140.82,-80.38 130.38,-78.61 137.44,-86.51 140.82,-80.38"/>
</a>
</g>
</g>
<!-- Node23 -->
<g id="Node000023" class="node">
<title>Node23</title>
<g id="a_Node000023"><a xlink:href="endian_8h.html" target="_top" xlink:title="libc header for endian conversion">
<polygon fill="white" stroke="#666666" points="324.38,-77.5 266.38,-77.5 266.38,-56.75 324.38,-56.75 324.38,-77.5"/>
<text text-anchor="middle" x="295.38" y="-64" font-family="Helvetica,sans-Serif" font-size="10.00">endian.h</text>
</a>
</g>
</g>
<!-- Node22&#45;&gt;Node23 -->
<g id="edge28_Node000022_Node000023" class="edge">
<title>Node22&#45;&gt;Node23</title>
<g id="a_edge28_Node000022_Node000023"><a xlink:title=" ">
<path fill="none" stroke="#63b8ff" d="M309.69,-170.06C306.37,-160.98 301.68,-146.9 299.38,-134.25 296.66,-119.31 295.68,-102.2 295.37,-89.13"/>
<polygon fill="#63b8ff" stroke="#63b8ff" points="298.87,-89.1 295.26,-79.14 291.87,-89.18 298.87,-89.1"/>
</a>
</g>
</g>
<!-- Node23&#45;&gt;Node5 -->
<g id="edge29_Node000023_Node000005" class="edge">
<title>Node23&#45;&gt;Node5</title>
<g id="a_edge29_Node000023_Node000005"><a xlink:title=" ">
<path fill="none" stroke="#63b8ff" d="M324.46,-59.48C329.1,-58.5 333.86,-57.56 338.38,-56.75 440.17,-38.48 561.21,-23.06 621.43,-15.81"/>
<polygon fill="#63b8ff" stroke="#63b8ff" points="621.62,-19.32 631.13,-14.65 620.79,-12.36 621.62,-19.32"/>
</a>
</g>
</g>
</g>
</svg>
