<?xml version="1.0" encoding="UTF-8" standalone="no"?>
<!DOCTYPE svg PUBLIC "-//W3C//DTD SVG 1.1//EN"
 "http://www.w3.org/Graphics/SVG/1.1/DTD/svg11.dtd">
<!-- Generated by graphviz version 12.1.2 (0)
 -->
<!-- Title: drivers/sx126x/include/sx126x_internal.h Pages: 1 -->
<svg width="940pt" height="382pt"
 viewBox="0.00 0.00 940.29 382.00" xmlns="http://www.w3.org/2000/svg" xmlns:xlink="http://www.w3.org/1999/xlink">
<g id="graph0" class="graph" transform="scale(1 1) rotate(0) translate(4 378)">
<title>drivers/sx126x/include/sx126x_internal.h</title>
<!-- Node1 -->
<g id="Node000001" class="node">
<title>Node1</title>
<g id="a_Node000001"><a xlink:title=" ">
<polygon fill="#999999" stroke="#666666" points="138.12,-374 11.88,-374 11.88,-340.5 138.12,-340.5 138.12,-374"/>
<text text-anchor="start" x="19.88" y="-360.5" font-family="Helvetica,sans-Serif" font-size="10.00">drivers/sx126x/include</text>
<text text-anchor="middle" x="75" y="-347.75" font-family="Helvetica,sans-Serif" font-size="10.00">/sx126x_internal.h</text>
</a>
</g>
</g>
<!-- Node2 -->
<g id="Node000002" class="node">
<title>Node2</title>
<g id="a_Node000002"><a xlink:href="assert_8h.html" target="_top" xlink:title="POSIX.1&#45;2008 compliant version of the assert macro.">
<polygon fill="white" stroke="#666666" points="103.5,-77.5 48.5,-77.5 48.5,-56.75 103.5,-56.75 103.5,-77.5"/>
<text text-anchor="middle" x="76" y="-64" font-family="Helvetica,sans-Serif" font-size="10.00">assert.h</text>
</a>
</g>
</g>
<!-- Node1&#45;&gt;Node2 -->
<g id="edge1_Node000001_Node000002" class="edge">
<title>Node1&#45;&gt;Node2</title>
<g id="a_edge1_Node000001_Node000002"><a xlink:title=" ">
<path fill="none" stroke="#63b8ff" d="M56.46,-340.35C34.25,-319.42 0,-280.34 0,-238.38 0,-238.38 0,-238.38 0,-179.62 0,-140.71 32,-105.35 54.47,-85.32"/>
<polygon fill="#63b8ff" stroke="#63b8ff" points="56.63,-88.08 61.96,-78.92 52.08,-82.76 56.63,-88.08"/>
</a>
</g>
</g>
<!-- Node4 -->
<g id="Node000004" class="node">
<title>Node4</title>
<g id="a_Node000004"><a xlink:href="sx126x_8h.html" target="_top" xlink:title=" ">
<polygon fill="white" stroke="#666666" points="282.12,-304.5 221.88,-304.5 221.88,-283.75 282.12,-283.75 282.12,-304.5"/>
<text text-anchor="middle" x="252" y="-291" font-family="Helvetica,sans-Serif" font-size="10.00">sx126x.h</text>
</a>
</g>
</g>
<!-- Node1&#45;&gt;Node4 -->
<g id="edge3_Node000001_Node000004" class="edge">
<title>Node1&#45;&gt;Node4</title>
<g id="a_edge3_Node000001_Node000004"><a xlink:title=" ">
<path fill="none" stroke="#63b8ff" d="M121.97,-340.03C150.41,-330.21 186.26,-317.83 213.11,-308.56"/>
<polygon fill="#63b8ff" stroke="#63b8ff" points="213.91,-311.98 222.22,-305.41 211.63,-305.37 213.91,-311.98"/>
</a>
</g>
</g>
<!-- Node3 -->
<g id="Node000003" class="node">
<title>Node3</title>
<g id="a_Node000003"><a xlink:title=" ">
<polygon fill="#e0e0e0" stroke="#999999" points="400.38,-20.75 347.62,-20.75 347.62,0 400.38,0 400.38,-20.75"/>
<text text-anchor="middle" x="374" y="-7.25" font-family="Helvetica,sans-Serif" font-size="10.00">stdint.h</text>
</a>
</g>
</g>
<!-- Node2&#45;&gt;Node3 -->
<g id="edge2_Node000002_Node000003" class="edge">
<title>Node2&#45;&gt;Node3</title>
<g id="a_edge2_Node000002_Node000003"><a xlink:title=" ">
<path fill="none" stroke="#63b8ff" d="M103.98,-59.7C108.65,-58.68 113.46,-57.66 118,-56.75 195.24,-41.29 286.13,-25.82 336.17,-17.54"/>
<polygon fill="#63b8ff" stroke="#63b8ff" points="336.6,-21.02 345.9,-15.94 335.46,-14.11 336.6,-21.02"/>
</a>
</g>
</g>
<!-- Node4&#45;&gt;Node2 -->
<g id="edge4_Node000004_Node000002" class="edge">
<title>Node4&#45;&gt;Node2</title>
<g id="a_edge4_Node000004_Node000002"><a xlink:title=" ">
<path fill="none" stroke="#63b8ff" d="M241.98,-283.47C223.99,-265.91 185.43,-227.18 157,-191 129.63,-156.18 102.19,-112.17 87.32,-87.39"/>
<polygon fill="#63b8ff" stroke="#63b8ff" points="90.48,-85.85 82.36,-79.04 84.46,-89.43 90.48,-85.85"/>
</a>
</g>
</g>
<!-- Node5 -->
<g id="Node000005" class="node">
<title>Node5</title>
<g id="a_Node000005"><a xlink:title=" ">
<polygon fill="#e0e0e0" stroke="#999999" points="122,-247.75 28,-247.75 28,-227 122,-227 122,-247.75"/>
<text text-anchor="middle" x="75" y="-234.25" font-family="Helvetica,sans-Serif" font-size="10.00">sx126x_driver.h</text>
</a>
</g>
</g>
<!-- Node4&#45;&gt;Node5 -->
<g id="edge5_Node000004_Node000005" class="edge">
<title>Node4&#45;&gt;Node5</title>
<g id="a_edge5_Node000004_Node000005"><a xlink:title=" ">
<path fill="none" stroke="#63b8ff" d="M221.57,-283.71C192.93,-274.85 149.74,-261.49 117.66,-251.57"/>
<polygon fill="#63b8ff" stroke="#63b8ff" points="118.85,-248.28 108.27,-248.66 116.78,-254.96 118.85,-248.28"/>
</a>
</g>
</g>
<!-- Node6 -->
<g id="Node000006" class="node">
<title>Node6</title>
<g id="a_Node000006"><a xlink:href="drivers_2include_2net_2netdev_8h.html" target="_top" xlink:title="Definitions low&#45;level network driver interface.">
<polygon fill="white" stroke="#666666" points="393.38,-247.75 316.62,-247.75 316.62,-227 393.38,-227 393.38,-247.75"/>
<text text-anchor="middle" x="355" y="-234.25" font-family="Helvetica,sans-Serif" font-size="10.00">net/netdev.h</text>
</a>
</g>
</g>
<!-- Node4&#45;&gt;Node6 -->
<g id="edge6_Node000004_Node000006" class="edge">
<title>Node4&#45;&gt;Node6</title>
<g id="a_edge6_Node000004_Node000006"><a xlink:title=" ">
<path fill="none" stroke="#63b8ff" d="M270.41,-283.34C286.09,-275.01 308.85,-262.91 326.81,-253.36"/>
<polygon fill="#63b8ff" stroke="#63b8ff" points="328.22,-256.57 335.41,-248.79 324.94,-250.39 328.22,-256.57"/>
</a>
</g>
</g>
<!-- Node17 -->
<g id="Node000017" class="node">
<title>Node17</title>
<g id="a_Node000017"><a xlink:href="drivers_2include_2periph_2gpio_8h.html" target="_top" xlink:title="Low&#45;level GPIO peripheral driver interface definitions.">
<polygon fill="white" stroke="#666666" points="904.88,-134.25 825.12,-134.25 825.12,-113.5 904.88,-113.5 904.88,-134.25"/>
<text text-anchor="middle" x="865" y="-120.75" font-family="Helvetica,sans-Serif" font-size="10.00">periph/gpio.h</text>
</a>
</g>
</g>
<!-- Node4&#45;&gt;Node17 -->
<g id="edge23_Node000004_Node000017" class="edge">
<title>Node4&#45;&gt;Node17</title>
<g id="a_edge23_Node000004_Node000017"><a xlink:title=" ">
<path fill="none" stroke="#63b8ff" d="M282.59,-291.42C364.36,-285.97 593.56,-264.71 767,-191 796.28,-178.56 826.02,-156.94 844.94,-141.83"/>
<polygon fill="#63b8ff" stroke="#63b8ff" points="847.09,-144.59 852.61,-135.55 842.66,-139.17 847.09,-144.59"/>
</a>
</g>
</g>
<!-- Node21 -->
<g id="Node000021" class="node">
<title>Node21</title>
<g id="a_Node000021"><a xlink:href="spi_8h.html" target="_top" xlink:title="Low&#45;level SPI peripheral driver interface definition.">
<polygon fill="white" stroke="#666666" points="757.5,-191 684.5,-191 684.5,-170.25 757.5,-170.25 757.5,-191"/>
<text text-anchor="middle" x="721" y="-177.5" font-family="Helvetica,sans-Serif" font-size="10.00">periph/spi.h</text>
</a>
</g>
</g>
<!-- Node4&#45;&gt;Node21 -->
<g id="edge27_Node000004_Node000021" class="edge">
<title>Node4&#45;&gt;Node21</title>
<g id="a_edge27_Node000004_Node000021"><a xlink:title=" ">
<path fill="none" stroke="#63b8ff" d="M282.41,-285.9C361.99,-266.98 576.87,-215.89 673.17,-192.99"/>
<polygon fill="#63b8ff" stroke="#63b8ff" points="673.92,-196.41 682.84,-190.7 672.3,-189.6 673.92,-196.41"/>
</a>
</g>
</g>
<!-- Node6&#45;&gt;Node3 -->
<g id="edge7_Node000006_Node000003" class="edge">
<title>Node6&#45;&gt;Node3</title>
<g id="a_edge7_Node000006_Node000003"><a xlink:title=" ">
<path fill="none" stroke="#63b8ff" d="M316.27,-230.08C246.35,-216.9 109.92,-181.79 151,-113.5 190.28,-48.2 283.63,-24.29 336.25,-15.81"/>
<polygon fill="#63b8ff" stroke="#63b8ff" points="336.57,-19.3 345.95,-14.37 335.54,-12.38 336.57,-19.3"/>
</a>
</g>
</g>
<!-- Node7 -->
<g id="Node000007" class="node">
<title>Node7</title>
<g id="a_Node000007"><a xlink:href="errno_8h.html" target="_top" xlink:title=" ">
<polygon fill="white" stroke="#666666" points="655.25,-134.25 604.75,-134.25 604.75,-113.5 655.25,-113.5 655.25,-134.25"/>
<text text-anchor="middle" x="630" y="-120.75" font-family="Helvetica,sans-Serif" font-size="10.00">errno.h</text>
</a>
</g>
</g>
<!-- Node6&#45;&gt;Node7 -->
<g id="edge8_Node000006_Node000007" class="edge">
<title>Node6&#45;&gt;Node7</title>
<g id="a_edge8_Node000006_Node000007"><a xlink:title=" ">
<path fill="none" stroke="#63b8ff" d="M393.73,-229.76C429.37,-222.84 483.18,-210.27 527,-191 557.12,-177.75 588.48,-156.34 608.57,-141.49"/>
<polygon fill="#63b8ff" stroke="#63b8ff" points="610.63,-144.31 616.52,-135.5 606.42,-138.72 610.63,-144.31"/>
</a>
</g>
</g>
<!-- Node8 -->
<g id="Node000008" class="node">
<title>Node8</title>
<g id="a_Node000008"><a xlink:href="iolist_8h.html" target="_top" xlink:title="iolist scatter / gather IO">
<polygon fill="white" stroke="#666666" points="424.5,-191 375.5,-191 375.5,-170.25 424.5,-170.25 424.5,-191"/>
<text text-anchor="middle" x="400" y="-177.5" font-family="Helvetica,sans-Serif" font-size="10.00">iolist.h</text>
</a>
</g>
</g>
<!-- Node6&#45;&gt;Node8 -->
<g id="edge9_Node000006_Node000008" class="edge">
<title>Node6&#45;&gt;Node8</title>
<g id="a_edge9_Node000006_Node000008"><a xlink:title=" ">
<path fill="none" stroke="#63b8ff" d="M363.05,-226.59C369.06,-219.27 377.47,-209.04 384.74,-200.19"/>
<polygon fill="#63b8ff" stroke="#63b8ff" points="387.42,-202.45 391.06,-192.5 382.01,-198 387.42,-202.45"/>
</a>
</g>
</g>
<!-- Node9 -->
<g id="Node000009" class="node">
<title>Node9</title>
<g id="a_Node000009"><a xlink:href="netopt_8h.html" target="_top" xlink:title="Definition of global configuration options.">
<polygon fill="white" stroke="#666666" points="517.62,-191 442.38,-191 442.38,-170.25 517.62,-170.25 517.62,-191"/>
<text text-anchor="middle" x="480" y="-177.5" font-family="Helvetica,sans-Serif" font-size="10.00">net/netopt.h</text>
</a>
</g>
</g>
<!-- Node6&#45;&gt;Node9 -->
<g id="edge10_Node000006_Node000009" class="edge">
<title>Node6&#45;&gt;Node9</title>
<g id="a_edge10_Node000006_Node000009"><a xlink:title=" ">
<path fill="none" stroke="#63b8ff" d="M377.35,-226.59C396.81,-218.06 425.29,-205.59 447.31,-195.94"/>
<polygon fill="#63b8ff" stroke="#63b8ff" points="448.7,-199.15 456.46,-191.94 445.9,-192.74 448.7,-199.15"/>
</a>
</g>
</g>
<!-- Node11 -->
<g id="Node000011" class="node">
<title>Node11</title>
<g id="a_Node000011"><a xlink:href="kernel__defines_8h.html" target="_top" xlink:title="Common macros and compiler attributes/pragmas configuration.">
<polygon fill="white" stroke="#666666" points="357.12,-191 260.88,-191 260.88,-170.25 357.12,-170.25 357.12,-191"/>
<text text-anchor="middle" x="309" y="-177.5" font-family="Helvetica,sans-Serif" font-size="10.00">kernel_defines.h</text>
</a>
</g>
</g>
<!-- Node6&#45;&gt;Node11 -->
<g id="edge13_Node000006_Node000011" class="edge">
<title>Node6&#45;&gt;Node11</title>
<g id="a_edge13_Node000006_Node000011"><a xlink:title=" ">
<path fill="none" stroke="#63b8ff" d="M346.78,-226.59C340.56,-219.19 331.85,-208.82 324.36,-199.91"/>
<polygon fill="#63b8ff" stroke="#63b8ff" points="327.24,-197.89 318.13,-192.49 321.88,-202.4 327.24,-197.89"/>
</a>
</g>
</g>
<!-- Node9&#45;&gt;Node3 -->
<g id="edge11_Node000009_Node000003" class="edge">
<title>Node9&#45;&gt;Node3</title>
<g id="a_edge11_Node000009_Node000003"><a xlink:title=" ">
<path fill="none" stroke="#63b8ff" d="M465.65,-169.84C454.24,-161.47 438.5,-148.54 428,-134.25 415.39,-117.09 393.27,-61.82 381.64,-31.59"/>
<polygon fill="#63b8ff" stroke="#63b8ff" points="384.98,-30.53 378.15,-22.43 378.44,-33.03 384.98,-30.53"/>
</a>
</g>
</g>
<!-- Node10 -->
<g id="Node000010" class="node">
<title>Node10</title>
<g id="a_Node000010"><a xlink:title=" ">
<polygon fill="#e0e0e0" stroke="#999999" points="586.5,-134.25 525.5,-134.25 525.5,-113.5 586.5,-113.5 586.5,-134.25"/>
<text text-anchor="middle" x="556" y="-120.75" font-family="Helvetica,sans-Serif" font-size="10.00">stdbool.h</text>
</a>
</g>
</g>
<!-- Node9&#45;&gt;Node10 -->
<g id="edge12_Node000009_Node000010" class="edge">
<title>Node9&#45;&gt;Node10</title>
<g id="a_edge12_Node000009_Node000010"><a xlink:title=" ">
<path fill="none" stroke="#63b8ff" d="M493.59,-169.84C504.61,-161.9 520.39,-150.53 533.32,-141.21"/>
<polygon fill="#63b8ff" stroke="#63b8ff" points="535.23,-144.15 541.3,-135.46 531.14,-138.47 535.23,-144.15"/>
</a>
</g>
</g>
<!-- Node12 -->
<g id="Node000012" class="node">
<title>Node12</title>
<g id="a_Node000012"><a xlink:href="modules_8h.html" target="_top" xlink:title="Common macros and compiler attributes/pragmas configuration.">
<polygon fill="white" stroke="#666666" points="342.5,-134.25 275.5,-134.25 275.5,-113.5 342.5,-113.5 342.5,-134.25"/>
<text text-anchor="middle" x="309" y="-120.75" font-family="Helvetica,sans-Serif" font-size="10.00">modules.h</text>
</a>
</g>
</g>
<!-- Node11&#45;&gt;Node12 -->
<g id="edge14_Node000011_Node000012" class="edge">
<title>Node11&#45;&gt;Node12</title>
<g id="a_edge14_Node000011_Node000012"><a xlink:title=" ">
<path fill="none" stroke="#63b8ff" d="M309,-169.84C309,-163.22 309,-154.22 309,-146.02"/>
<polygon fill="#63b8ff" stroke="#63b8ff" points="312.5,-146.09 309,-136.09 305.5,-146.09 312.5,-146.09"/>
</a>
</g>
</g>
<!-- Node13 -->
<g id="Node000013" class="node">
<title>Node13</title>
<g id="a_Node000013"><a xlink:href="riot__version_8h.html" target="_top" xlink:title="Common macros and compiler attributes/pragmas configuration.">
<polygon fill="white" stroke="#666666" points="381.38,-77.5 298.62,-77.5 298.62,-56.75 381.38,-56.75 381.38,-77.5"/>
<text text-anchor="middle" x="340" y="-64" font-family="Helvetica,sans-Serif" font-size="10.00">riot_version.h</text>
</a>
</g>
</g>
<!-- Node11&#45;&gt;Node13 -->
<g id="edge15_Node000011_Node000013" class="edge">
<title>Node11&#45;&gt;Node13</title>
<g id="a_edge15_Node000011_Node000013"><a xlink:title=" ">
<path fill="none" stroke="#63b8ff" d="M322.43,-169.77C332.43,-161.55 345.28,-148.84 351,-134.25 356.78,-119.5 353.3,-101.74 348.78,-88.34"/>
<polygon fill="#63b8ff" stroke="#63b8ff" points="352.15,-87.36 345.29,-79.29 345.62,-89.88 352.15,-87.36"/>
</a>
</g>
</g>
<!-- Node14 -->
<g id="Node000014" class="node">
<title>Node14</title>
<g id="a_Node000014"><a xlink:href="compiler__hints_8h.html" target="_top" xlink:title="Common macros and compiler attributes/pragmas configuration.">
<polygon fill="white" stroke="#666666" points="257.5,-134.25 160.5,-134.25 160.5,-113.5 257.5,-113.5 257.5,-134.25"/>
<text text-anchor="middle" x="209" y="-120.75" font-family="Helvetica,sans-Serif" font-size="10.00">compiler_hints.h</text>
</a>
</g>
</g>
<!-- Node11&#45;&gt;Node14 -->
<g id="edge17_Node000011_Node000014" class="edge">
<title>Node11&#45;&gt;Node14</title>
<g id="a_edge17_Node000011_Node000014"><a xlink:title=" ">
<path fill="none" stroke="#63b8ff" d="M291.12,-169.84C275.91,-161.51 253.81,-149.41 236.37,-139.86"/>
<polygon fill="#63b8ff" stroke="#63b8ff" points="238.5,-137.04 228.05,-135.31 235.14,-143.18 238.5,-137.04"/>
</a>
</g>
</g>
<!-- Node15 -->
<g id="Node000015" class="node">
<title>Node15</title>
<g id="a_Node000015"><a xlink:href="container_8h.html" target="_top" xlink:title="Common macros and compiler attributes/pragmas configuration.">
<polygon fill="white" stroke="#666666" points="507.38,-134.25 436.62,-134.25 436.62,-113.5 507.38,-113.5 507.38,-134.25"/>
<text text-anchor="middle" x="472" y="-120.75" font-family="Helvetica,sans-Serif" font-size="10.00">container.h</text>
</a>
</g>
</g>
<!-- Node11&#45;&gt;Node15 -->
<g id="edge20_Node000011_Node000015" class="edge">
<title>Node11&#45;&gt;Node15</title>
<g id="a_edge20_Node000011_Node000015"><a xlink:title=" ">
<path fill="none" stroke="#63b8ff" d="M338.14,-169.84C364.37,-161.03 403.14,-148 432.21,-138.24"/>
<polygon fill="#63b8ff" stroke="#63b8ff" points="433.04,-141.65 441.4,-135.15 430.81,-135.02 433.04,-141.65"/>
</a>
</g>
</g>
<!-- Node13&#45;&gt;Node3 -->
<g id="edge16_Node000013_Node000003" class="edge">
<title>Node13&#45;&gt;Node3</title>
<g id="a_edge16_Node000013_Node000003"><a xlink:title=" ">
<path fill="none" stroke="#63b8ff" d="M346.08,-56.34C350.48,-49.25 356.57,-39.44 361.94,-30.79"/>
<polygon fill="#63b8ff" stroke="#63b8ff" points="364.87,-32.71 367.18,-22.36 358.93,-29.01 364.87,-32.71"/>
</a>
</g>
</g>
<!-- Node14&#45;&gt;Node2 -->
<g id="edge18_Node000014_Node000002" class="edge">
<title>Node14&#45;&gt;Node2</title>
<g id="a_edge18_Node000014_Node000002"><a xlink:title=" ">
<path fill="none" stroke="#63b8ff" d="M185.22,-113.09C164.32,-104.48 133.66,-91.86 110.14,-82.18"/>
<polygon fill="#63b8ff" stroke="#63b8ff" points="111.55,-78.97 100.97,-78.4 108.89,-85.45 111.55,-78.97"/>
</a>
</g>
</g>
<!-- Node14&#45;&gt;Node3 -->
<g id="edge19_Node000014_Node000003" class="edge">
<title>Node14&#45;&gt;Node3</title>
<g id="a_edge19_Node000014_Node000003"><a xlink:title=" ">
<path fill="none" stroke="#63b8ff" d="M219.5,-113.21C234.48,-99.67 263.15,-74.73 290,-56.75 306.95,-45.4 327.01,-34.48 343.28,-26.2"/>
<polygon fill="#63b8ff" stroke="#63b8ff" points="344.62,-29.44 351.99,-21.83 341.49,-23.18 344.62,-29.44"/>
</a>
</g>
</g>
<!-- Node15&#45;&gt;Node3 -->
<g id="edge22_Node000015_Node000003" class="edge">
<title>Node15&#45;&gt;Node3</title>
<g id="a_edge22_Node000015_Node000003"><a xlink:title=" ">
<path fill="none" stroke="#63b8ff" d="M465.55,-113.02C456.65,-99.71 439.78,-75.48 423,-56.75 414.06,-46.78 403.22,-36.57 394,-28.36"/>
<polygon fill="#63b8ff" stroke="#63b8ff" points="396.44,-25.85 386.6,-21.91 391.84,-31.12 396.44,-25.85"/>
</a>
</g>
</g>
<!-- Node16 -->
<g id="Node000016" class="node">
<title>Node16</title>
<g id="a_Node000016"><a xlink:title=" ">
<polygon fill="#e0e0e0" stroke="#999999" points="557.5,-77.5 502.5,-77.5 502.5,-56.75 557.5,-56.75 557.5,-77.5"/>
<text text-anchor="middle" x="530" y="-64" font-family="Helvetica,sans-Serif" font-size="10.00">stddef.h</text>
</a>
</g>
</g>
<!-- Node15&#45;&gt;Node16 -->
<g id="edge21_Node000015_Node000016" class="edge">
<title>Node15&#45;&gt;Node16</title>
<g id="a_edge21_Node000015_Node000016"><a xlink:title=" ">
<path fill="none" stroke="#63b8ff" d="M482.37,-113.09C490.45,-105.46 501.88,-94.67 511.52,-85.57"/>
<polygon fill="#63b8ff" stroke="#63b8ff" points="513.75,-88.28 518.62,-78.87 508.95,-83.19 513.75,-88.28"/>
</a>
</g>
</g>
<!-- Node18 -->
<g id="Node000018" class="node">
<title>Node18</title>
<g id="a_Node000018"><a xlink:title=" ">
<polygon fill="#e0e0e0" stroke="#999999" points="907.38,-77.5 854.62,-77.5 854.62,-56.75 907.38,-56.75 907.38,-77.5"/>
<text text-anchor="middle" x="881" y="-64" font-family="Helvetica,sans-Serif" font-size="10.00">limits.h</text>
</a>
</g>
</g>
<!-- Node17&#45;&gt;Node18 -->
<g id="edge24_Node000017_Node000018" class="edge">
<title>Node17&#45;&gt;Node18</title>
<g id="a_edge24_Node000017_Node000018"><a xlink:title=" ">
<path fill="none" stroke="#63b8ff" d="M867.86,-113.09C869.84,-106.31 872.55,-97.05 874.99,-88.69"/>
<polygon fill="#63b8ff" stroke="#63b8ff" points="878.29,-89.86 877.74,-79.28 871.58,-87.9 878.29,-89.86"/>
</a>
</g>
</g>
<!-- Node19 -->
<g id="Node000019" class="node">
<title>Node19</title>
<g id="a_Node000019"><a xlink:title=" ">
<polygon fill="#e0e0e0" stroke="#999999" points="836.12,-77.5 757.88,-77.5 757.88,-56.75 836.12,-56.75 836.12,-77.5"/>
<text text-anchor="middle" x="797" y="-64" font-family="Helvetica,sans-Serif" font-size="10.00">periph_cpu.h</text>
</a>
</g>
</g>
<!-- Node17&#45;&gt;Node19 -->
<g id="edge25_Node000017_Node000019" class="edge">
<title>Node17&#45;&gt;Node19</title>
<g id="a_edge25_Node000017_Node000019"><a xlink:title=" ">
<path fill="none" stroke="#63b8ff" d="M852.84,-113.09C843.17,-105.3 829.42,-94.22 817.98,-85.01"/>
<polygon fill="#63b8ff" stroke="#63b8ff" points="820.21,-82.32 810.23,-78.78 815.82,-87.78 820.21,-82.32"/>
</a>
</g>
</g>
<!-- Node20 -->
<g id="Node000020" class="node">
<title>Node20</title>
<g id="a_Node000020"><a xlink:title=" ">
<polygon fill="#e0e0e0" stroke="#999999" points="739.62,-77.5 658.38,-77.5 658.38,-56.75 739.62,-56.75 739.62,-77.5"/>
<text text-anchor="middle" x="699" y="-64" font-family="Helvetica,sans-Serif" font-size="10.00">periph_conf.h</text>
</a>
</g>
</g>
<!-- Node17&#45;&gt;Node20 -->
<g id="edge26_Node000017_Node000020" class="edge">
<title>Node17&#45;&gt;Node20</title>
<g id="a_edge26_Node000017_Node000020"><a xlink:title=" ">
<path fill="none" stroke="#63b8ff" d="M835.32,-113.09C808.61,-104.28 769.13,-91.25 739.52,-81.49"/>
<polygon fill="#63b8ff" stroke="#63b8ff" points="740.73,-78.2 730.14,-78.39 738.54,-84.85 740.73,-78.2"/>
</a>
</g>
</g>
<!-- Node21&#45;&gt;Node3 -->
<g id="edge33_Node000021_Node000003" class="edge">
<title>Node21&#45;&gt;Node3</title>
<g id="a_edge33_Node000021_Node000003"><a xlink:title=" ">
<path fill="none" stroke="#63b8ff" d="M757.99,-176.19C808.36,-170.68 894.5,-157.99 914,-134.25 935.87,-107.62 939.33,-82.11 916,-56.75 881.97,-19.75 529.56,-12.91 411.96,-11.65"/>
<polygon fill="#63b8ff" stroke="#63b8ff" points="412.25,-8.16 402.21,-11.56 412.18,-15.16 412.25,-8.16"/>
</a>
</g>
</g>
<!-- Node21&#45;&gt;Node7 -->
<g id="edge30_Node000021_Node000007" class="edge">
<title>Node21&#45;&gt;Node7</title>
<g id="a_edge30_Node000021_Node000007"><a xlink:title=" ">
<path fill="none" stroke="#63b8ff" d="M704.73,-169.84C691.14,-161.66 671.53,-149.86 655.8,-140.4"/>
<polygon fill="#63b8ff" stroke="#63b8ff" points="657.8,-137.52 647.43,-135.36 654.19,-143.51 657.8,-137.52"/>
</a>
</g>
</g>
<!-- Node21&#45;&gt;Node10 -->
<g id="edge31_Node000021_Node000010" class="edge">
<title>Node21&#45;&gt;Node10</title>
<g id="a_edge31_Node000021_Node000010"><a xlink:title=" ">
<path fill="none" stroke="#63b8ff" d="M691.5,-169.84C664.95,-161.03 625.7,-148 596.27,-138.24"/>
<polygon fill="#63b8ff" stroke="#63b8ff" points="597.55,-134.97 586.96,-135.15 595.35,-141.62 597.55,-134.97"/>
</a>
</g>
</g>
<!-- Node21&#45;&gt;Node16 -->
<g id="edge32_Node000021_Node000016" class="edge">
<title>Node21&#45;&gt;Node16</title>
<g id="a_edge32_Node000021_Node000016"><a xlink:title=" ">
<path fill="none" stroke="#63b8ff" d="M715.2,-170.11C706.03,-155.83 686.88,-128.91 664,-113.5 648.22,-102.86 602.43,-88.48 568.76,-78.78"/>
<polygon fill="#63b8ff" stroke="#63b8ff" points="569.89,-75.46 559.32,-76.09 567.98,-82.19 569.89,-75.46"/>
</a>
</g>
</g>
<!-- Node21&#45;&gt;Node17 -->
<g id="edge36_Node000021_Node000017" class="edge">
<title>Node21&#45;&gt;Node17</title>
<g id="a_edge36_Node000021_Node000017"><a xlink:title=" ">
<path fill="none" stroke="#63b8ff" d="M746.74,-169.84C769.58,-161.16 803.17,-148.38 828.72,-138.67"/>
<polygon fill="#63b8ff" stroke="#63b8ff" points="829.96,-141.94 838.06,-135.12 827.47,-135.4 829.96,-141.94"/>
</a>
</g>
</g>
<!-- Node21&#45;&gt;Node19 -->
<g id="edge34_Node000021_Node000019" class="edge">
<title>Node21&#45;&gt;Node19</title>
<g id="a_edge34_Node000021_Node000019"><a xlink:title=" ">
<path fill="none" stroke="#63b8ff" d="M727.48,-170.12C739.98,-151.78 767.64,-111.2 784.05,-87.12"/>
<polygon fill="#63b8ff" stroke="#63b8ff" points="786.73,-89.41 789.47,-79.18 780.94,-85.47 786.73,-89.41"/>
</a>
</g>
</g>
<!-- Node21&#45;&gt;Node20 -->
<g id="edge35_Node000021_Node000020" class="edge">
<title>Node21&#45;&gt;Node20</title>
<g id="a_edge35_Node000021_Node000020"><a xlink:title=" ">
<path fill="none" stroke="#63b8ff" d="M726.24,-170C732.63,-156.94 741.8,-133 735,-113.5 731.43,-103.26 724.48,-93.6 717.64,-85.84"/>
<polygon fill="#63b8ff" stroke="#63b8ff" points="720.34,-83.6 710.9,-78.79 715.27,-88.44 720.34,-83.6"/>
</a>
</g>
</g>
<!-- Node22 -->
<g id="Node000022" class="node">
<title>Node22</title>
<g id="a_Node000022"><a xlink:href="endian_8h.html" target="_top" xlink:title="libc header for endian conversion">
<polygon fill="white" stroke="#666666" points="638,-77.5 580,-77.5 580,-56.75 638,-56.75 638,-77.5"/>
<text text-anchor="middle" x="609" y="-64" font-family="Helvetica,sans-Serif" font-size="10.00">endian.h</text>
</a>
</g>
</g>
<!-- Node21&#45;&gt;Node22 -->
<g id="edge28_Node000021_Node000022" class="edge">
<title>Node21&#45;&gt;Node22</title>
<g id="a_edge28_Node000021_Node000022"><a xlink:title=" ">
<path fill="none" stroke="#63b8ff" d="M719.75,-169.97C717.49,-155.99 711.52,-130.01 697,-113.5 684.24,-99 665.73,-88.48 648.97,-81.25"/>
<polygon fill="#63b8ff" stroke="#63b8ff" points="650.27,-78 639.69,-77.53 647.67,-84.5 650.27,-78"/>
</a>
</g>
</g>
<!-- Node22&#45;&gt;Node3 -->
<g id="edge29_Node000022_Node000003" class="edge">
<title>Node22&#45;&gt;Node3</title>
<g id="a_edge29_Node000022_Node000003"><a xlink:title=" ">
<path fill="none" stroke="#63b8ff" d="M579.71,-59.3C537.29,-49.42 458.72,-31.11 411.92,-20.21"/>
<polygon fill="#63b8ff" stroke="#63b8ff" points="412.76,-16.81 402.22,-17.95 411.17,-23.63 412.76,-16.81"/>
</a>
</g>
</g>
</g>
</svg>
