<?xml version="1.0" encoding="UTF-8" standalone="no"?>
<!DOCTYPE svg PUBLIC "-//W3C//DTD SVG 1.1//EN"
 "http://www.w3.org/Graphics/SVG/1.1/DTD/svg11.dtd">
<!-- Generated by graphviz version 12.1.2 (0)
 -->
<!-- Title: sys/include/net/utils.h Pages: 1 -->
<svg width="854pt" height="483pt"
 viewBox="0.00 0.00 854.00 482.75" xmlns="http://www.w3.org/2000/svg" xmlns:xlink="http://www.w3.org/1999/xlink">
<g id="graph0" class="graph" transform="scale(1 1) rotate(0) translate(4 478.75)">
<title>sys/include/net/utils.h</title>
<!-- Node1 -->
<g id="Node000001" class="node">
<title>Node1</title>
<g id="a_Node000001"><a xlink:title="Common network interface API definitions.">
<polygon fill="#999999" stroke="#666666" points="638.25,-474.75 515.75,-474.75 515.75,-454 638.25,-454 638.25,-474.75"/>
<text text-anchor="middle" x="577" y="-461.25" font-family="Helvetica,sans-Serif" font-size="10.00">sys/include/net/utils.h</text>
</a>
</g>
</g>
<!-- Node2 -->
<g id="Node000002" class="node">
<title>Node2</title>
<g id="a_Node000002"><a xlink:title=" ">
<polygon fill="#e0e0e0" stroke="#999999" points="398.38,-20.75 345.62,-20.75 345.62,0 398.38,0 398.38,-20.75"/>
<text text-anchor="middle" x="372" y="-7.25" font-family="Helvetica,sans-Serif" font-size="10.00">stdint.h</text>
</a>
</g>
</g>
<!-- Node1&#45;&gt;Node2 -->
<g id="edge1_Node000001_Node000002" class="edge">
<title>Node1&#45;&gt;Node2</title>
<g id="a_edge1_Node000001_Node000002"><a xlink:title=" ">
<path fill="none" stroke="#63b8ff" d="M638.71,-463.61C718.13,-460.3 846,-441.1 846,-351.88 846,-351.88 846,-351.88 846,-122.88 846,-33.56 523.08,-15.72 410.31,-12.22"/>
<polygon fill="#63b8ff" stroke="#63b8ff" points="410.45,-8.72 400.36,-11.93 410.25,-15.72 410.45,-8.72"/>
</a>
</g>
</g>
<!-- Node3 -->
<g id="Node000003" class="node">
<title>Node3</title>
<g id="a_Node000003"><a xlink:title=" ">
<polygon fill="#e0e0e0" stroke="#999999" points="797.5,-134.25 742.5,-134.25 742.5,-113.5 797.5,-113.5 797.5,-134.25"/>
<text text-anchor="middle" x="770" y="-120.75" font-family="Helvetica,sans-Serif" font-size="10.00">stddef.h</text>
</a>
</g>
</g>
<!-- Node1&#45;&gt;Node3 -->
<g id="edge2_Node000001_Node000003" class="edge">
<title>Node1&#45;&gt;Node3</title>
<g id="a_edge2_Node000001_Node000003"><a xlink:title=" ">
<path fill="none" stroke="#63b8ff" d="M638.6,-459.61C707.03,-451.69 808,-427.24 808,-351.88 808,-351.88 808,-351.88 808,-236.38 808,-202.76 792.34,-166.35 781.12,-144.59"/>
<polygon fill="#63b8ff" stroke="#63b8ff" points="784.31,-143.12 776.49,-135.97 778.14,-146.44 784.31,-143.12"/>
</a>
</g>
</g>
<!-- Node4 -->
<g id="Node000004" class="node">
<title>Node4</title>
<g id="a_Node000004"><a xlink:href="ipv4_2addr_8h.html" target="_top" xlink:title="IPv4 address type and helper functions definitions.">
<polygon fill="white" stroke="#666666" points="621.75,-191 532.25,-191 532.25,-170.25 621.75,-170.25 621.75,-191"/>
<text text-anchor="middle" x="577" y="-177.5" font-family="Helvetica,sans-Serif" font-size="10.00">net/ipv4/addr.h</text>
</a>
</g>
</g>
<!-- Node1&#45;&gt;Node4 -->
<g id="edge3_Node000001_Node000004" class="edge">
<title>Node1&#45;&gt;Node4</title>
<g id="a_edge3_Node000001_Node000004"><a xlink:title=" ">
<path fill="none" stroke="#63b8ff" d="M577,-453.53C577,-434.1 577,-389.43 577,-351.88 577,-351.88 577,-351.88 577,-293.12 577,-261.73 577,-225.37 577,-202.93"/>
<polygon fill="#63b8ff" stroke="#63b8ff" points="580.5,-202.98 577,-192.98 573.5,-202.98 580.5,-202.98"/>
</a>
</g>
</g>
<!-- Node10 -->
<g id="Node000010" class="node">
<title>Node10</title>
<g id="a_Node000010"><a xlink:href="ipv6_2addr_8h.html" target="_top" xlink:title="Definitions for IPv6 addresses.">
<polygon fill="white" stroke="#666666" points="475.75,-247.75 386.25,-247.75 386.25,-227 475.75,-227 475.75,-247.75"/>
<text text-anchor="middle" x="431" y="-234.25" font-family="Helvetica,sans-Serif" font-size="10.00">net/ipv6/addr.h</text>
</a>
</g>
</g>
<!-- Node1&#45;&gt;Node10 -->
<g id="edge14_Node000001_Node000010" class="edge">
<title>Node1&#45;&gt;Node10</title>
<g id="a_edge14_Node000001_Node000010"><a xlink:title=" ">
<path fill="none" stroke="#63b8ff" d="M567.57,-453.82C544.86,-430.32 486.55,-367.1 453,-304.5 445.3,-290.13 439.61,-272.57 435.95,-259.15"/>
<polygon fill="#63b8ff" stroke="#63b8ff" points="439.39,-258.5 433.53,-249.68 432.61,-260.23 439.39,-258.5"/>
</a>
</g>
</g>
<!-- Node11 -->
<g id="Node000011" class="node">
<title>Node11</title>
<g id="a_Node000011"><a xlink:href="netif_8h.html" target="_top" xlink:title="Common network interface API definitions.">
<polygon fill="white" stroke="#666666" points="284.75,-418 219.25,-418 219.25,-397.25 284.75,-397.25 284.75,-418"/>
<text text-anchor="middle" x="252" y="-404.5" font-family="Helvetica,sans-Serif" font-size="10.00">net/netif.h</text>
</a>
</g>
</g>
<!-- Node1&#45;&gt;Node11 -->
<g id="edge19_Node000001_Node000011" class="edge">
<title>Node1&#45;&gt;Node11</title>
<g id="a_edge19_Node000001_Node000011"><a xlink:title=" ">
<path fill="none" stroke="#63b8ff" d="M518.52,-453.52C454.75,-442.78 354.1,-425.82 296.47,-416.12"/>
<polygon fill="#63b8ff" stroke="#63b8ff" points="297.13,-412.68 286.69,-414.47 295.96,-419.58 297.13,-412.68"/>
</a>
</g>
</g>
<!-- Node4&#45;&gt;Node2 -->
<g id="edge5_Node000004_Node000002" class="edge">
<title>Node4&#45;&gt;Node2</title>
<g id="a_edge5_Node000004_Node000002"><a xlink:title=" ">
<path fill="none" stroke="#63b8ff" d="M575.22,-170.04C570.45,-147.01 555.17,-88.13 519,-56.75 488.36,-30.17 442.35,-19.16 409.98,-14.6"/>
<polygon fill="#63b8ff" stroke="#63b8ff" points="410.59,-11.15 400.23,-13.38 409.72,-18.09 410.59,-11.15"/>
</a>
</g>
</g>
<!-- Node4&#45;&gt;Node3 -->
<g id="edge6_Node000004_Node000003" class="edge">
<title>Node4&#45;&gt;Node3</title>
<g id="a_edge6_Node000004_Node000003"><a xlink:title=" ">
<path fill="none" stroke="#63b8ff" d="M611.5,-169.84C645.16,-160.29 696.26,-145.79 731.29,-135.86"/>
<polygon fill="#63b8ff" stroke="#63b8ff" points="731.93,-139.31 740.6,-133.22 730.02,-132.58 731.93,-139.31"/>
</a>
</g>
</g>
<!-- Node5 -->
<g id="Node000005" class="node">
<title>Node5</title>
<g id="a_Node000005"><a xlink:title=" ">
<polygon fill="#e0e0e0" stroke="#999999" points="377.5,-134.25 316.5,-134.25 316.5,-113.5 377.5,-113.5 377.5,-134.25"/>
<text text-anchor="middle" x="347" y="-120.75" font-family="Helvetica,sans-Serif" font-size="10.00">stdbool.h</text>
</a>
</g>
</g>
<!-- Node4&#45;&gt;Node5 -->
<g id="edge4_Node000004_Node000005" class="edge">
<title>Node4&#45;&gt;Node5</title>
<g id="a_edge4_Node000004_Node000005"><a xlink:title=" ">
<path fill="none" stroke="#63b8ff" d="M535.61,-169.77C494.12,-159.9 430.57,-144.77 388.89,-134.85"/>
<polygon fill="#63b8ff" stroke="#63b8ff" points="389.77,-131.46 379.23,-132.55 388.15,-138.27 389.77,-131.46"/>
</a>
</g>
</g>
<!-- Node6 -->
<g id="Node000006" class="node">
<title>Node6</title>
<g id="a_Node000006"><a xlink:href="byteorder_8h.html" target="_top" xlink:title="Functions to work with different byte orders.">
<polygon fill="white" stroke="#666666" points="528.12,-134.25 455.88,-134.25 455.88,-113.5 528.12,-113.5 528.12,-134.25"/>
<text text-anchor="middle" x="492" y="-120.75" font-family="Helvetica,sans-Serif" font-size="10.00">byteorder.h</text>
</a>
</g>
</g>
<!-- Node4&#45;&gt;Node6 -->
<g id="edge7_Node000004_Node000006" class="edge">
<title>Node4&#45;&gt;Node6</title>
<g id="a_edge7_Node000004_Node000006"><a xlink:title=" ">
<path fill="none" stroke="#63b8ff" d="M561.8,-169.84C549.23,-161.74 531.14,-150.08 516.52,-140.67"/>
<polygon fill="#63b8ff" stroke="#63b8ff" points="518.64,-137.87 508.34,-135.4 514.85,-143.76 518.64,-137.87"/>
</a>
</g>
</g>
<!-- Node6&#45;&gt;Node2 -->
<g id="edge9_Node000006_Node000002" class="edge">
<title>Node6&#45;&gt;Node2</title>
<g id="a_edge9_Node000006_Node000002"><a xlink:title=" ">
<path fill="none" stroke="#63b8ff" d="M497.32,-113.36C504.24,-99.56 514.1,-73.79 502,-56.75 481.26,-27.54 440.25,-16.98 409.82,-13.24"/>
<polygon fill="#63b8ff" stroke="#63b8ff" points="410.54,-9.8 400.24,-12.27 409.84,-16.76 410.54,-9.8"/>
</a>
</g>
</g>
<!-- Node7 -->
<g id="Node000007" class="node">
<title>Node7</title>
<g id="a_Node000007"><a xlink:title=" ">
<polygon fill="#e0e0e0" stroke="#999999" points="325.38,-77.5 272.62,-77.5 272.62,-56.75 325.38,-56.75 325.38,-77.5"/>
<text text-anchor="middle" x="299" y="-64" font-family="Helvetica,sans-Serif" font-size="10.00">string.h</text>
</a>
</g>
</g>
<!-- Node6&#45;&gt;Node7 -->
<g id="edge8_Node000006_Node000007" class="edge">
<title>Node6&#45;&gt;Node7</title>
<g id="a_edge8_Node000006_Node000007"><a xlink:title=" ">
<path fill="none" stroke="#63b8ff" d="M457.5,-113.09C423.45,-103.43 371.55,-88.7 336.5,-78.76"/>
<polygon fill="#63b8ff" stroke="#63b8ff" points="337.79,-75.49 327.21,-76.13 335.87,-82.22 337.79,-75.49"/>
</a>
</g>
</g>
<!-- Node8 -->
<g id="Node000008" class="node">
<title>Node8</title>
<g id="a_Node000008"><a xlink:href="endian_8h.html" target="_top" xlink:title="libc header for endian conversion">
<polygon fill="white" stroke="#666666" points="401,-77.5 343,-77.5 343,-56.75 401,-56.75 401,-77.5"/>
<text text-anchor="middle" x="372" y="-64" font-family="Helvetica,sans-Serif" font-size="10.00">endian.h</text>
</a>
</g>
</g>
<!-- Node6&#45;&gt;Node8 -->
<g id="edge10_Node000006_Node000008" class="edge">
<title>Node6&#45;&gt;Node8</title>
<g id="a_edge10_Node000006_Node000008"><a xlink:title=" ">
<path fill="none" stroke="#63b8ff" d="M470.55,-113.09C451.95,-104.6 424.78,-92.2 403.67,-82.58"/>
<polygon fill="#63b8ff" stroke="#63b8ff" points="405.2,-79.42 394.64,-78.46 402.29,-85.79 405.2,-79.42"/>
</a>
</g>
</g>
<!-- Node9 -->
<g id="Node000009" class="node">
<title>Node9</title>
<g id="a_Node000009"><a xlink:href="unaligned_8h.html" target="_top" xlink:title="Unaligned but safe memory access functions.">
<polygon fill="white" stroke="#666666" points="492.5,-77.5 419.5,-77.5 419.5,-56.75 492.5,-56.75 492.5,-77.5"/>
<text text-anchor="middle" x="456" y="-64" font-family="Helvetica,sans-Serif" font-size="10.00">unaligned.h</text>
</a>
</g>
</g>
<!-- Node6&#45;&gt;Node9 -->
<g id="edge12_Node000006_Node000009" class="edge">
<title>Node6&#45;&gt;Node9</title>
<g id="a_edge12_Node000006_Node000009"><a xlink:title=" ">
<path fill="none" stroke="#63b8ff" d="M485.56,-113.09C480.85,-105.92 474.31,-95.98 468.58,-87.26"/>
<polygon fill="#63b8ff" stroke="#63b8ff" points="471.63,-85.53 463.21,-79.09 465.78,-89.37 471.63,-85.53"/>
</a>
</g>
</g>
<!-- Node8&#45;&gt;Node2 -->
<g id="edge11_Node000008_Node000002" class="edge">
<title>Node8&#45;&gt;Node2</title>
<g id="a_edge11_Node000008_Node000002"><a xlink:title=" ">
<path fill="none" stroke="#63b8ff" d="M372,-56.34C372,-49.72 372,-40.72 372,-32.52"/>
<polygon fill="#63b8ff" stroke="#63b8ff" points="375.5,-32.59 372,-22.59 368.5,-32.59 375.5,-32.59"/>
</a>
</g>
</g>
<!-- Node9&#45;&gt;Node2 -->
<g id="edge13_Node000009_Node000002" class="edge">
<title>Node9&#45;&gt;Node2</title>
<g id="a_edge13_Node000009_Node000002"><a xlink:title=" ">
<path fill="none" stroke="#63b8ff" d="M440.98,-56.34C428.56,-48.24 410.68,-36.58 396.23,-27.17"/>
<polygon fill="#63b8ff" stroke="#63b8ff" points="398.44,-24.43 388.16,-21.9 394.62,-30.3 398.44,-24.43"/>
</a>
</g>
</g>
<!-- Node10&#45;&gt;Node4 -->
<g id="edge18_Node000010_Node000004" class="edge">
<title>Node10&#45;&gt;Node4</title>
<g id="a_edge18_Node000010_Node000004"><a xlink:title=" ">
<path fill="none" stroke="#63b8ff" d="M457.1,-226.59C480.35,-217.87 514.62,-205.02 540.57,-195.29"/>
<polygon fill="#63b8ff" stroke="#63b8ff" points="541.57,-198.65 549.71,-191.86 539.11,-192.09 541.57,-198.65"/>
</a>
</g>
</g>
<!-- Node10&#45;&gt;Node5 -->
<g id="edge15_Node000010_Node000005" class="edge">
<title>Node10&#45;&gt;Node5</title>
<g id="a_edge15_Node000010_Node000005"><a xlink:title=" ">
<path fill="none" stroke="#63b8ff" d="M423.84,-226.87C409.96,-208.45 379.18,-167.59 361.07,-143.55"/>
<polygon fill="#63b8ff" stroke="#63b8ff" points="364.11,-141.77 355.29,-135.88 358.52,-145.98 364.11,-141.77"/>
</a>
</g>
</g>
<!-- Node10&#45;&gt;Node6 -->
<g id="edge17_Node000010_Node000006" class="edge">
<title>Node10&#45;&gt;Node6</title>
<g id="a_edge17_Node000010_Node000006"><a xlink:title=" ">
<path fill="none" stroke="#63b8ff" d="M436.2,-226.87C446.14,-208.69 468.04,-168.67 481.25,-144.52"/>
<polygon fill="#63b8ff" stroke="#63b8ff" points="484.18,-146.46 485.91,-136 478.04,-143.1 484.18,-146.46"/>
</a>
</g>
</g>
<!-- Node10&#45;&gt;Node7 -->
<g id="edge16_Node000010_Node000007" class="edge">
<title>Node10&#45;&gt;Node7</title>
<g id="a_edge16_Node000010_Node000007"><a xlink:title=" ">
<path fill="none" stroke="#63b8ff" d="M429.83,-226.55C426.69,-203.99 416.13,-147.81 386,-113.5 372.69,-98.34 353.08,-87.5 335.84,-80.22"/>
<polygon fill="#63b8ff" stroke="#63b8ff" points="337.49,-77.11 326.9,-76.7 334.92,-83.62 337.49,-77.11"/>
</a>
</g>
</g>
<!-- Node11&#45;&gt;Node2 -->
<g id="edge20_Node000011_Node000002" class="edge">
<title>Node11&#45;&gt;Node2</title>
<g id="a_edge20_Node000011_Node000002"><a xlink:title=" ">
<path fill="none" stroke="#63b8ff" d="M218.8,-406.63C150.37,-404.71 0,-389.73 0,-295.12 0,-295.12 0,-295.12 0,-122.88 0,-53.69 239.06,-23.78 333.9,-14.63"/>
<polygon fill="#63b8ff" stroke="#63b8ff" points="334.11,-18.13 343.74,-13.71 333.46,-11.16 334.11,-18.13"/>
</a>
</g>
</g>
<!-- Node11&#45;&gt;Node7 -->
<g id="edge21_Node000011_Node000007" class="edge">
<title>Node11&#45;&gt;Node7</title>
<g id="a_edge21_Node000011_Node000007"><a xlink:title=" ">
<path fill="none" stroke="#63b8ff" d="M248.46,-396.93C241.78,-377.76 228,-333.54 228,-295.12 228,-295.12 228,-295.12 228,-236.38 228,-178.24 264.43,-117.06 285.1,-87.03"/>
<polygon fill="#63b8ff" stroke="#63b8ff" points="287.87,-89.18 290.79,-78.99 282.16,-85.13 287.87,-89.18"/>
</a>
</g>
</g>
<!-- Node12 -->
<g id="Node000012" class="node">
<title>Node12</title>
<g id="a_Node000012"><a xlink:href="list_8h.html" target="_top" xlink:title="Intrusive linked list.">
<polygon fill="white" stroke="#666666" points="296,-361.25 256,-361.25 256,-340.5 296,-340.5 296,-361.25"/>
<text text-anchor="middle" x="276" y="-347.75" font-family="Helvetica,sans-Serif" font-size="10.00">list.h</text>
</a>
</g>
</g>
<!-- Node11&#45;&gt;Node12 -->
<g id="edge22_Node000011_Node000012" class="edge">
<title>Node11&#45;&gt;Node12</title>
<g id="a_edge22_Node000011_Node000012"><a xlink:title=" ">
<path fill="none" stroke="#63b8ff" d="M256.29,-396.84C259.33,-389.91 263.51,-380.37 267.24,-371.86"/>
<polygon fill="#63b8ff" stroke="#63b8ff" points="270.33,-373.53 271.14,-362.96 263.92,-370.72 270.33,-373.53"/>
</a>
</g>
</g>
<!-- Node13 -->
<g id="Node000013" class="node">
<title>Node13</title>
<g id="a_Node000013"><a xlink:href="netopt_8h.html" target="_top" xlink:title="Definition of global configuration options.">
<polygon fill="white" stroke="#666666" points="161.62,-191 86.38,-191 86.38,-170.25 161.62,-170.25 161.62,-191"/>
<text text-anchor="middle" x="124" y="-177.5" font-family="Helvetica,sans-Serif" font-size="10.00">net/netopt.h</text>
</a>
</g>
</g>
<!-- Node11&#45;&gt;Node13 -->
<g id="edge23_Node000011_Node000013" class="edge">
<title>Node11&#45;&gt;Node13</title>
<g id="a_edge23_Node000011_Node000013"><a xlink:title=" ">
<path fill="none" stroke="#63b8ff" d="M242.84,-397.06C234.67,-388.21 222.68,-374.48 214,-361.25 178.22,-306.73 146.7,-236.04 132.3,-201.88"/>
<polygon fill="#63b8ff" stroke="#63b8ff" points="135.6,-200.69 128.52,-192.8 129.13,-203.38 135.6,-200.69"/>
</a>
</g>
</g>
<!-- Node14 -->
<g id="Node000014" class="node">
<title>Node14</title>
<g id="a_Node000014"><a xlink:href="ipv6_8h.html" target="_top" xlink:title="IPv6 include gathering header.">
<polygon fill="white" stroke="#666666" points="396.38,-361.25 331.62,-361.25 331.62,-340.5 396.38,-340.5 396.38,-361.25"/>
<text text-anchor="middle" x="364" y="-347.75" font-family="Helvetica,sans-Serif" font-size="10.00">net/ipv6.h</text>
</a>
</g>
</g>
<!-- Node11&#45;&gt;Node14 -->
<g id="edge26_Node000011_Node000014" class="edge">
<title>Node11&#45;&gt;Node14</title>
<g id="a_edge26_Node000011_Node000014"><a xlink:title=" ">
<path fill="none" stroke="#63b8ff" d="M272.02,-396.84C289.22,-388.43 314.28,-376.18 333.9,-366.59"/>
<polygon fill="#63b8ff" stroke="#63b8ff" points="335.34,-369.78 342.79,-362.24 332.27,-363.49 335.34,-369.78"/>
</a>
</g>
</g>
<!-- Node13&#45;&gt;Node2 -->
<g id="edge24_Node000013_Node000002" class="edge">
<title>Node13&#45;&gt;Node2</title>
<g id="a_edge24_Node000013_Node000002"><a xlink:title=" ">
<path fill="none" stroke="#63b8ff" d="M126.85,-169.92C134.76,-143.68 157.56,-72.25 176,-56.75 199.64,-36.88 284.13,-22.81 334.14,-16.01"/>
<polygon fill="#63b8ff" stroke="#63b8ff" points="334.49,-19.49 343.95,-14.71 333.57,-12.55 334.49,-19.49"/>
</a>
</g>
</g>
<!-- Node13&#45;&gt;Node5 -->
<g id="edge25_Node000013_Node000005" class="edge">
<title>Node13&#45;&gt;Node5</title>
<g id="a_edge25_Node000013_Node000005"><a xlink:title=" ">
<path fill="none" stroke="#63b8ff" d="M162.08,-170.28C201.88,-160.5 264.14,-145.22 305.25,-135.12"/>
<polygon fill="#63b8ff" stroke="#63b8ff" points="305.91,-138.57 314.78,-132.78 304.24,-131.77 305.91,-138.57"/>
</a>
</g>
</g>
<!-- Node14&#45;&gt;Node10 -->
<g id="edge27_Node000014_Node000010" class="edge">
<title>Node14&#45;&gt;Node10</title>
<g id="a_edge27_Node000014_Node000010"><a xlink:title=" ">
<path fill="none" stroke="#63b8ff" d="M369.71,-340.37C380.63,-322.19 404.68,-282.17 419.19,-258.02"/>
<polygon fill="#63b8ff" stroke="#63b8ff" points="422.18,-259.85 424.33,-249.47 416.18,-256.24 422.18,-259.85"/>
</a>
</g>
</g>
<!-- Node15 -->
<g id="Node000015" class="node">
<title>Node15</title>
<g id="a_Node000015"><a xlink:href="ipv6_2ext_8h.html" target="_top" xlink:title="IPv6 extension header definitions.">
<polygon fill="white" stroke="#666666" points="344.75,-247.75 261.25,-247.75 261.25,-227 344.75,-227 344.75,-247.75"/>
<text text-anchor="middle" x="303" y="-234.25" font-family="Helvetica,sans-Serif" font-size="10.00">net/ipv6/ext.h</text>
</a>
</g>
</g>
<!-- Node14&#45;&gt;Node15 -->
<g id="edge28_Node000014_Node000015" class="edge">
<title>Node14&#45;&gt;Node15</title>
<g id="a_edge28_Node000014_Node000015"><a xlink:title=" ">
<path fill="none" stroke="#63b8ff" d="M358.8,-340.37C348.86,-322.19 326.96,-282.17 313.75,-258.02"/>
<polygon fill="#63b8ff" stroke="#63b8ff" points="316.96,-256.6 309.09,-249.5 310.82,-259.96 316.96,-256.6"/>
</a>
</g>
</g>
<!-- Node18 -->
<g id="Node000018" class="node">
<title>Node18</title>
<g id="a_Node000018"><a xlink:href="net_2ipv6_2hdr_8h.html" target="_top" xlink:title="IPv6 header type and helper function definitions.">
<polygon fill="white" stroke="#666666" points="545.75,-304.5 462.25,-304.5 462.25,-283.75 545.75,-283.75 545.75,-304.5"/>
<text text-anchor="middle" x="504" y="-291" font-family="Helvetica,sans-Serif" font-size="10.00">net/ipv6/hdr.h</text>
</a>
</g>
</g>
<!-- Node14&#45;&gt;Node18 -->
<g id="edge36_Node000014_Node000018" class="edge">
<title>Node14&#45;&gt;Node18</title>
<g id="a_edge36_Node000014_Node000018"><a xlink:title=" ">
<path fill="none" stroke="#63b8ff" d="M389.03,-340.09C411.23,-331.41 443.89,-318.63 468.73,-308.92"/>
<polygon fill="#63b8ff" stroke="#63b8ff" points="469.74,-312.28 477.78,-305.38 467.19,-305.76 469.74,-312.28"/>
</a>
</g>
</g>
<!-- Node15&#45;&gt;Node2 -->
<g id="edge29_Node000015_Node000002" class="edge">
<title>Node15&#45;&gt;Node2</title>
<g id="a_edge29_Node000015_Node000002"><a xlink:title=" ">
<path fill="none" stroke="#63b8ff" d="M283.57,-226.61C270.58,-218.9 254.54,-206.81 247,-191 232.3,-160.17 180.98,-155.6 253,-56.75 271.68,-31.11 306.81,-19.95 334.08,-15.1"/>
<polygon fill="#63b8ff" stroke="#63b8ff" points="334.37,-18.6 343.72,-13.62 333.3,-11.68 334.37,-18.6"/>
</a>
</g>
</g>
<!-- Node16 -->
<g id="Node000016" class="node">
<title>Node16</title>
<g id="a_Node000016"><a xlink:href="ipv6_2ext_2frag_8h.html" target="_top" xlink:title="Fragmentation extension definitions.">
<polygon fill="white" stroke="#666666" points="362,-191 256,-191 256,-170.25 362,-170.25 362,-191"/>
<text text-anchor="middle" x="309" y="-177.5" font-family="Helvetica,sans-Serif" font-size="10.00">net/ipv6/ext/frag.h</text>
</a>
</g>
</g>
<!-- Node15&#45;&gt;Node16 -->
<g id="edge30_Node000015_Node000016" class="edge">
<title>Node15&#45;&gt;Node16</title>
<g id="a_edge30_Node000015_Node000016"><a xlink:title=" ">
<path fill="none" stroke="#63b8ff" d="M304.07,-226.59C304.8,-219.97 305.78,-210.97 306.68,-202.77"/>
<polygon fill="#63b8ff" stroke="#63b8ff" points="310.16,-203.15 307.77,-192.83 303.2,-202.39 310.16,-203.15"/>
</a>
</g>
</g>
<!-- Node17 -->
<g id="Node000017" class="node">
<title>Node17</title>
<g id="a_Node000017"><a xlink:href="ipv6_2ext_2rh_8h.html" target="_top" xlink:title="Routing extension header definitions.">
<polygon fill="white" stroke="#666666" points="124.12,-134.25 27.88,-134.25 27.88,-113.5 124.12,-113.5 124.12,-134.25"/>
<text text-anchor="middle" x="76" y="-120.75" font-family="Helvetica,sans-Serif" font-size="10.00">net/ipv6/ext/rh.h</text>
</a>
</g>
</g>
<!-- Node15&#45;&gt;Node17 -->
<g id="edge34_Node000015_Node000017" class="edge">
<title>Node15&#45;&gt;Node17</title>
<g id="a_edge34_Node000015_Node000017"><a xlink:title=" ">
<path fill="none" stroke="#63b8ff" d="M261.16,-234.07C202.41,-229.87 100.03,-218.69 77,-191 66.67,-178.59 67.39,-159.86 70.13,-145.5"/>
<polygon fill="#63b8ff" stroke="#63b8ff" points="73.44,-146.71 72.37,-136.17 66.64,-145.08 73.44,-146.71"/>
</a>
</g>
</g>
<!-- Node16&#45;&gt;Node2 -->
<g id="edge32_Node000016_Node000002" class="edge">
<title>Node16&#45;&gt;Node2</title>
<g id="a_edge32_Node000016_Node000002"><a xlink:title=" ">
<path fill="none" stroke="#63b8ff" d="M299.87,-169.99C280.46,-148.3 238.85,-94.59 264,-56.75 279.55,-33.35 309.76,-21.99 334.28,-16.5"/>
<polygon fill="#63b8ff" stroke="#63b8ff" points="334.81,-19.96 343.94,-14.59 333.45,-13.09 334.81,-19.96"/>
</a>
</g>
</g>
<!-- Node16&#45;&gt;Node5 -->
<g id="edge31_Node000016_Node000005" class="edge">
<title>Node16&#45;&gt;Node5</title>
<g id="a_edge31_Node000016_Node000005"><a xlink:title=" ">
<path fill="none" stroke="#63b8ff" d="M315.79,-169.84C320.77,-162.67 327.67,-152.73 333.72,-144.01"/>
<polygon fill="#63b8ff" stroke="#63b8ff" points="336.58,-146.03 339.4,-135.82 330.82,-142.04 336.58,-146.03"/>
</a>
</g>
</g>
<!-- Node16&#45;&gt;Node6 -->
<g id="edge33_Node000016_Node000006" class="edge">
<title>Node16&#45;&gt;Node6</title>
<g id="a_edge33_Node000016_Node000006"><a xlink:title=" ">
<path fill="none" stroke="#63b8ff" d="M341.72,-169.84C371.55,-160.91 415.84,-147.66 448.62,-137.85"/>
<polygon fill="#63b8ff" stroke="#63b8ff" points="449.23,-141.32 457.81,-135.1 447.22,-134.62 449.23,-141.32"/>
</a>
</g>
</g>
<!-- Node17&#45;&gt;Node2 -->
<g id="edge35_Node000017_Node000002" class="edge">
<title>Node17&#45;&gt;Node2</title>
<g id="a_edge35_Node000017_Node000002"><a xlink:title=" ">
<path fill="none" stroke="#63b8ff" d="M81.94,-113.45C91.71,-98.78 112.65,-70.75 138,-56.75 200.62,-22.17 285.35,-13.6 333.8,-11.68"/>
<polygon fill="#63b8ff" stroke="#63b8ff" points="333.89,-15.18 343.78,-11.37 333.68,-8.18 333.89,-15.18"/>
</a>
</g>
</g>
<!-- Node18&#45;&gt;Node2 -->
<g id="edge37_Node000018_Node000002" class="edge">
<title>Node18&#45;&gt;Node2</title>
<g id="a_edge37_Node000018_Node000002"><a xlink:title=" ">
<path fill="none" stroke="#63b8ff" d="M538.97,-283.34C582.16,-268.87 650,-237.28 650,-181.62 650,-181.62 650,-181.62 650,-122.88 650,-71.68 485.55,-33.28 409.62,-18.27"/>
<polygon fill="#63b8ff" stroke="#63b8ff" points="410.62,-14.91 400.14,-16.44 409.29,-21.78 410.62,-14.91"/>
</a>
</g>
</g>
<!-- Node18&#45;&gt;Node6 -->
<g id="edge38_Node000018_Node000006" class="edge">
<title>Node18&#45;&gt;Node6</title>
<g id="a_edge38_Node000018_Node000006"><a xlink:title=" ">
<path fill="none" stroke="#63b8ff" d="M503.32,-283.6C501.44,-257.23 496.13,-182.83 493.51,-146.03"/>
<polygon fill="#63b8ff" stroke="#63b8ff" points="497.01,-145.95 492.81,-136.23 490.03,-146.45 497.01,-145.95"/>
</a>
</g>
</g>
<!-- Node18&#45;&gt;Node10 -->
<g id="edge42_Node000018_Node000010" class="edge">
<title>Node18&#45;&gt;Node10</title>
<g id="a_edge42_Node000018_Node000010"><a xlink:title=" ">
<path fill="none" stroke="#63b8ff" d="M490.95,-283.34C480.36,-275.4 465.21,-264.03 452.78,-254.71"/>
<polygon fill="#63b8ff" stroke="#63b8ff" points="455.25,-252.19 445.15,-248.99 451.05,-257.79 455.25,-252.19"/>
</a>
</g>
</g>
<!-- Node19 -->
<g id="Node000019" class="node">
<title>Node19</title>
<g id="a_Node000019"><a xlink:href="inet__csum_8h.html" target="_top" xlink:title="Internet Checksum definitions.">
<polygon fill="white" stroke="#666666" points="772,-247.75 678,-247.75 678,-227 772,-227 772,-247.75"/>
<text text-anchor="middle" x="725" y="-234.25" font-family="Helvetica,sans-Serif" font-size="10.00">net/inet_csum.h</text>
</a>
</g>
</g>
<!-- Node18&#45;&gt;Node19 -->
<g id="edge39_Node000018_Node000019" class="edge">
<title>Node18&#45;&gt;Node19</title>
<g id="a_edge39_Node000018_Node000019"><a xlink:title=" ">
<path fill="none" stroke="#63b8ff" d="M543.77,-283.27C580.26,-274.23 634.53,-260.79 674.16,-250.97"/>
<polygon fill="#63b8ff" stroke="#63b8ff" points="674.85,-254.41 683.71,-248.6 673.16,-247.61 674.85,-254.41"/>
</a>
</g>
</g>
<!-- Node19&#45;&gt;Node3 -->
<g id="edge41_Node000019_Node000003" class="edge">
<title>Node19&#45;&gt;Node3</title>
<g id="a_edge41_Node000019_Node000003"><a xlink:title=" ">
<path fill="none" stroke="#63b8ff" d="M731.5,-226.64C737.25,-217.68 745.55,-203.88 751,-191 757.27,-176.18 762.2,-158.64 765.47,-145.35"/>
<polygon fill="#63b8ff" stroke="#63b8ff" points="768.78,-146.55 767.65,-136.01 761.97,-144.96 768.78,-146.55"/>
</a>
</g>
</g>
<!-- Node20 -->
<g id="Node000020" class="node">
<title>Node20</title>
<g id="a_Node000020"><a xlink:href="inttypes_8h.html" target="_top" xlink:title="Adds include for missing inttype definitions.">
<polygon fill="white" stroke="#666666" points="742.38,-191 677.62,-191 677.62,-170.25 742.38,-170.25 742.38,-191"/>
<text text-anchor="middle" x="710" y="-177.5" font-family="Helvetica,sans-Serif" font-size="10.00">inttypes.h</text>
</a>
</g>
</g>
<!-- Node19&#45;&gt;Node20 -->
<g id="edge40_Node000019_Node000020" class="edge">
<title>Node19&#45;&gt;Node20</title>
<g id="a_edge40_Node000019_Node000020"><a xlink:title=" ">
<path fill="none" stroke="#63b8ff" d="M722.32,-226.59C720.46,-219.81 717.92,-210.55 715.63,-202.19"/>
<polygon fill="#63b8ff" stroke="#63b8ff" points="719.08,-201.51 713.06,-192.79 712.33,-203.36 719.08,-201.51"/>
</a>
</g>
</g>
</g>
</svg>
