<?xml version="1.0" encoding="UTF-8" standalone="no"?>
<!DOCTYPE svg PUBLIC "-//W3C//DTD SVG 1.1//EN"
 "http://www.w3.org/Graphics/SVG/1.1/DTD/svg11.dtd">
<!-- Generated by graphviz version 12.1.2 (0)
 -->
<!-- Title: pkg/tinyusb/netdev/include/tinyusb_netdev.h Pages: 1 -->
<svg width="1351pt" height="496pt"
 viewBox="0.00 0.00 1351.43 495.50" xmlns="http://www.w3.org/2000/svg" xmlns:xlink="http://www.w3.org/1999/xlink">
<g id="graph0" class="graph" transform="scale(1 1) rotate(0) translate(4 491.5)">
<title>pkg/tinyusb/netdev/include/tinyusb_netdev.h</title>
<!-- Node1 -->
<g id="Node000001" class="node">
<title>Node1</title>
<g id="a_Node000001"><a xlink:title="TinyUSB netdev driver for CDC ECM, CDC NCM and RNDIS protocol.">
<polygon fill="#999999" stroke="#666666" points="442.68,-487.5 302.18,-487.5 302.18,-454 442.68,-454 442.68,-487.5"/>
<text text-anchor="start" x="310.18" y="-474" font-family="Helvetica,sans-Serif" font-size="10.00">pkg/tinyusb/netdev</text>
<text text-anchor="middle" x="372.43" y="-461.25" font-family="Helvetica,sans-Serif" font-size="10.00">/include/tinyusb_netdev.h</text>
</a>
</g>
</g>
<!-- Node2 -->
<g id="Node000002" class="node">
<title>Node2</title>
<g id="a_Node000002"><a xlink:href="ethernet_8h.html" target="_top" xlink:title="Definitions for Ethernet.">
<polygon fill="white" stroke="#666666" points="174.93,-247.75 89.93,-247.75 89.93,-227 174.93,-227 174.93,-247.75"/>
<text text-anchor="middle" x="132.43" y="-234.25" font-family="Helvetica,sans-Serif" font-size="10.00">net/ethernet.h</text>
</a>
</g>
</g>
<!-- Node1&#45;&gt;Node2 -->
<g id="edge1_Node000001_Node000002" class="edge">
<title>Node1&#45;&gt;Node2</title>
<g id="a_edge1_Node000001_Node000002"><a xlink:title=" ">
<path fill="none" stroke="#63b8ff" d="M355.93,-453.85C312.54,-412.02 195.49,-299.17 150.44,-255.74"/>
<polygon fill="#63b8ff" stroke="#63b8ff" points="153.15,-253.49 143.52,-249.07 148.29,-258.53 153.15,-253.49"/>
</a>
</g>
</g>
<!-- Node11 -->
<g id="Node000011" class="node">
<title>Node11</title>
<g id="a_Node000011"><a xlink:href="drivers_2include_2net_2netdev_8h.html" target="_top" xlink:title="Definitions low&#45;level network driver interface.">
<polygon fill="white" stroke="#666666" points="410.8,-247.75 334.05,-247.75 334.05,-227 410.8,-227 410.8,-247.75"/>
<text text-anchor="middle" x="372.43" y="-234.25" font-family="Helvetica,sans-Serif" font-size="10.00">net/netdev.h</text>
</a>
</g>
</g>
<!-- Node1&#45;&gt;Node11 -->
<g id="edge15_Node000001_Node000011" class="edge">
<title>Node1&#45;&gt;Node11</title>
<g id="a_edge15_Node000001_Node000011"><a xlink:title=" ">
<path fill="none" stroke="#63b8ff" d="M372.43,-453.85C372.43,-413.06 372.43,-304.74 372.43,-259.1"/>
<polygon fill="#63b8ff" stroke="#63b8ff" points="375.93,-259.29 372.43,-249.29 368.93,-259.29 375.93,-259.29"/>
</a>
</g>
</g>
<!-- Node23 -->
<g id="Node000023" class="node">
<title>Node23</title>
<g id="a_Node000023"><a xlink:href="mutex_8h.html" target="_top" xlink:title="Mutex for thread synchronization.">
<polygon fill="white" stroke="#666666" points="868.68,-418 812.18,-418 812.18,-397.25 868.68,-397.25 868.68,-418"/>
<text text-anchor="middle" x="840.43" y="-404.5" font-family="Helvetica,sans-Serif" font-size="10.00">mutex.h</text>
</a>
</g>
</g>
<!-- Node1&#45;&gt;Node23 -->
<g id="edge33_Node000001_Node000023" class="edge">
<title>Node1&#45;&gt;Node23</title>
<g id="a_edge33_Node000001_Node000023"><a xlink:title=" ">
<path fill="none" stroke="#63b8ff" d="M443,-460.53C542.78,-447.5 721.77,-424.12 800.92,-413.78"/>
<polygon fill="#63b8ff" stroke="#63b8ff" points="800.89,-417.32 810.35,-412.55 799.99,-410.38 800.89,-417.32"/>
</a>
</g>
</g>
<!-- Node3 -->
<g id="Node000003" class="node">
<title>Node3</title>
<g id="a_Node000003"><a xlink:title=" ">
<polygon fill="#e0e0e0" stroke="#999999" points="501.8,-20.75 449.05,-20.75 449.05,0 501.8,0 501.8,-20.75"/>
<text text-anchor="middle" x="475.43" y="-7.25" font-family="Helvetica,sans-Serif" font-size="10.00">stdint.h</text>
</a>
</g>
</g>
<!-- Node2&#45;&gt;Node3 -->
<g id="edge2_Node000002_Node000003" class="edge">
<title>Node2&#45;&gt;Node3</title>
<g id="a_edge2_Node000002_Node000003"><a xlink:title=" ">
<path fill="none" stroke="#63b8ff" d="M89.52,-227.5C69.46,-220.97 47.4,-209.82 35.43,-191 13.96,-157.27 -39.98,-145.59 53.43,-56.75 80.98,-30.55 338.4,-17.1 437.13,-12.87"/>
<polygon fill="#63b8ff" stroke="#63b8ff" points="437.27,-16.37 447.12,-12.46 436.98,-9.38 437.27,-16.37"/>
</a>
</g>
</g>
<!-- Node4 -->
<g id="Node000004" class="node">
<title>Node4</title>
<g id="a_Node000004"><a xlink:href="net_2ethernet_2hdr_8h.html" target="_top" xlink:title="Ethernet header definitions.">
<polygon fill="white" stroke="#666666" points="236.3,-191 132.55,-191 132.55,-170.25 236.3,-170.25 236.3,-191"/>
<text text-anchor="middle" x="184.43" y="-177.5" font-family="Helvetica,sans-Serif" font-size="10.00">net/ethernet/hdr.h</text>
</a>
</g>
</g>
<!-- Node2&#45;&gt;Node4 -->
<g id="edge3_Node000002_Node000004" class="edge">
<title>Node2&#45;&gt;Node4</title>
<g id="a_edge3_Node000002_Node000004"><a xlink:title=" ">
<path fill="none" stroke="#63b8ff" d="M141.72,-226.59C148.82,-219.11 158.8,-208.61 167.33,-199.63"/>
<polygon fill="#63b8ff" stroke="#63b8ff" points="169.82,-202.09 174.17,-192.43 164.74,-197.27 169.82,-202.09"/>
</a>
</g>
</g>
<!-- Node10 -->
<g id="Node000010" class="node">
<title>Node10</title>
<g id="a_Node000010"><a xlink:href="eui64_8h.html" target="_top" xlink:title="EUI&#45;64 data type definition.">
<polygon fill="white" stroke="#666666" points="114.8,-191 44.05,-191 44.05,-170.25 114.8,-170.25 114.8,-191"/>
<text text-anchor="middle" x="79.43" y="-177.5" font-family="Helvetica,sans-Serif" font-size="10.00">net/eui64.h</text>
</a>
</g>
</g>
<!-- Node2&#45;&gt;Node10 -->
<g id="edge12_Node000002_Node000010" class="edge">
<title>Node2&#45;&gt;Node10</title>
<g id="a_edge12_Node000002_Node000010"><a xlink:title=" ">
<path fill="none" stroke="#63b8ff" d="M122.95,-226.59C115.64,-219.03 105.33,-208.39 96.58,-199.35"/>
<polygon fill="#63b8ff" stroke="#63b8ff" points="99.34,-197.17 89.87,-192.42 94.31,-202.04 99.34,-197.17"/>
</a>
</g>
</g>
<!-- Node5 -->
<g id="Node000005" class="node">
<title>Node5</title>
<g id="a_Node000005"><a xlink:href="inttypes_8h.html" target="_top" xlink:title="Adds include for missing inttype definitions.">
<polygon fill="white" stroke="#666666" points="394.8,-134.25 330.05,-134.25 330.05,-113.5 394.8,-113.5 394.8,-134.25"/>
<text text-anchor="middle" x="362.43" y="-120.75" font-family="Helvetica,sans-Serif" font-size="10.00">inttypes.h</text>
</a>
</g>
</g>
<!-- Node4&#45;&gt;Node5 -->
<g id="edge4_Node000004_Node000005" class="edge">
<title>Node4&#45;&gt;Node5</title>
<g id="a_edge4_Node000004_Node000005"><a xlink:title=" ">
<path fill="none" stroke="#63b8ff" d="M216.25,-169.84C245.14,-160.95 287.98,-147.77 319.82,-137.98"/>
<polygon fill="#63b8ff" stroke="#63b8ff" points="320.6,-141.4 329.13,-135.12 318.54,-134.71 320.6,-141.4"/>
</a>
</g>
</g>
<!-- Node6 -->
<g id="Node000006" class="node">
<title>Node6</title>
<g id="a_Node000006"><a xlink:href="byteorder_8h.html" target="_top" xlink:title="Functions to work with different byte orders.">
<polygon fill="white" stroke="#666666" points="220.55,-134.25 148.3,-134.25 148.3,-113.5 220.55,-113.5 220.55,-134.25"/>
<text text-anchor="middle" x="184.43" y="-120.75" font-family="Helvetica,sans-Serif" font-size="10.00">byteorder.h</text>
</a>
</g>
</g>
<!-- Node4&#45;&gt;Node6 -->
<g id="edge5_Node000004_Node000006" class="edge">
<title>Node4&#45;&gt;Node6</title>
<g id="a_edge5_Node000004_Node000006"><a xlink:title=" ">
<path fill="none" stroke="#63b8ff" d="M184.43,-169.84C184.43,-163.22 184.43,-154.22 184.43,-146.02"/>
<polygon fill="#63b8ff" stroke="#63b8ff" points="187.93,-146.09 184.43,-136.09 180.93,-146.09 187.93,-146.09"/>
</a>
</g>
</g>
<!-- Node6&#45;&gt;Node3 -->
<g id="edge7_Node000006_Node000003" class="edge">
<title>Node6&#45;&gt;Node3</title>
<g id="a_edge7_Node000006_Node000003"><a xlink:title=" ">
<path fill="none" stroke="#63b8ff" d="M193.77,-113.11C208.31,-98.51 237.88,-71.18 268.43,-56.75 323.77,-30.61 394.6,-19.28 437.41,-14.55"/>
<polygon fill="#63b8ff" stroke="#63b8ff" points="437.62,-18.05 447.21,-13.54 436.9,-11.09 437.62,-18.05"/>
</a>
</g>
</g>
<!-- Node7 -->
<g id="Node000007" class="node">
<title>Node7</title>
<g id="a_Node000007"><a xlink:title=" ">
<polygon fill="#e0e0e0" stroke="#999999" points="129.8,-77.5 77.05,-77.5 77.05,-56.75 129.8,-56.75 129.8,-77.5"/>
<text text-anchor="middle" x="103.43" y="-64" font-family="Helvetica,sans-Serif" font-size="10.00">string.h</text>
</a>
</g>
</g>
<!-- Node6&#45;&gt;Node7 -->
<g id="edge6_Node000006_Node000007" class="edge">
<title>Node6&#45;&gt;Node7</title>
<g id="a_edge6_Node000006_Node000007"><a xlink:title=" ">
<path fill="none" stroke="#63b8ff" d="M169.94,-113.09C158.08,-105.07 141.05,-93.56 127.19,-84.19"/>
<polygon fill="#63b8ff" stroke="#63b8ff" points="129.28,-81.38 119.03,-78.68 125.36,-87.18 129.28,-81.38"/>
</a>
</g>
</g>
<!-- Node8 -->
<g id="Node000008" class="node">
<title>Node8</title>
<g id="a_Node000008"><a xlink:href="endian_8h.html" target="_top" xlink:title="libc header for endian conversion">
<polygon fill="white" stroke="#666666" points="335.43,-77.5 277.43,-77.5 277.43,-56.75 335.43,-56.75 335.43,-77.5"/>
<text text-anchor="middle" x="306.43" y="-64" font-family="Helvetica,sans-Serif" font-size="10.00">endian.h</text>
</a>
</g>
</g>
<!-- Node6&#45;&gt;Node8 -->
<g id="edge8_Node000006_Node000008" class="edge">
<title>Node6&#45;&gt;Node8</title>
<g id="a_edge8_Node000006_Node000008"><a xlink:title=" ">
<path fill="none" stroke="#63b8ff" d="M206.24,-113.09C225.23,-104.56 253.02,-92.09 274.52,-82.44"/>
<polygon fill="#63b8ff" stroke="#63b8ff" points="275.73,-85.74 283.42,-78.45 272.87,-79.35 275.73,-85.74"/>
</a>
</g>
</g>
<!-- Node9 -->
<g id="Node000009" class="node">
<title>Node9</title>
<g id="a_Node000009"><a xlink:href="unaligned_8h.html" target="_top" xlink:title="Unaligned but safe memory access functions.">
<polygon fill="white" stroke="#666666" points="220.93,-77.5 147.93,-77.5 147.93,-56.75 220.93,-56.75 220.93,-77.5"/>
<text text-anchor="middle" x="184.43" y="-64" font-family="Helvetica,sans-Serif" font-size="10.00">unaligned.h</text>
</a>
</g>
</g>
<!-- Node6&#45;&gt;Node9 -->
<g id="edge10_Node000006_Node000009" class="edge">
<title>Node6&#45;&gt;Node9</title>
<g id="a_edge10_Node000006_Node000009"><a xlink:title=" ">
<path fill="none" stroke="#63b8ff" d="M184.43,-113.09C184.43,-106.47 184.43,-97.47 184.43,-89.27"/>
<polygon fill="#63b8ff" stroke="#63b8ff" points="187.93,-89.34 184.43,-79.34 180.93,-89.34 187.93,-89.34"/>
</a>
</g>
</g>
<!-- Node8&#45;&gt;Node3 -->
<g id="edge9_Node000008_Node000003" class="edge">
<title>Node8&#45;&gt;Node3</title>
<g id="a_edge9_Node000008_Node000003"><a xlink:title=" ">
<path fill="none" stroke="#63b8ff" d="M335.86,-56.59C364.16,-47.42 407.06,-33.52 437.82,-23.56"/>
<polygon fill="#63b8ff" stroke="#63b8ff" points="438.68,-26.96 447.11,-20.55 436.52,-20.3 438.68,-26.96"/>
</a>
</g>
</g>
<!-- Node9&#45;&gt;Node3 -->
<g id="edge11_Node000009_Node000003" class="edge">
<title>Node9&#45;&gt;Node3</title>
<g id="a_edge11_Node000009_Node000003"><a xlink:title=" ">
<path fill="none" stroke="#63b8ff" d="M221.28,-59.19C276.82,-48.74 381.44,-29.06 437.56,-18.5"/>
<polygon fill="#63b8ff" stroke="#63b8ff" points="438.1,-21.96 447.28,-16.67 436.81,-15.08 438.1,-21.96"/>
</a>
</g>
</g>
<!-- Node10&#45;&gt;Node3 -->
<g id="edge13_Node000010_Node000003" class="edge">
<title>Node10&#45;&gt;Node3</title>
<g id="a_edge13_Node000010_Node000003"><a xlink:title=" ">
<path fill="none" stroke="#63b8ff" d="M74.31,-169.83C63.1,-146.86 39.58,-88.99 68.43,-56.75 92.83,-29.47 341.29,-16.72 437.58,-12.77"/>
<polygon fill="#63b8ff" stroke="#63b8ff" points="437.45,-16.28 447.3,-12.39 437.17,-9.29 437.45,-16.28"/>
</a>
</g>
</g>
<!-- Node10&#45;&gt;Node6 -->
<g id="edge14_Node000010_Node000006" class="edge">
<title>Node10&#45;&gt;Node6</title>
<g id="a_edge14_Node000010_Node000006"><a xlink:title=" ">
<path fill="none" stroke="#63b8ff" d="M98.2,-169.84C114.17,-161.51 137.38,-149.41 155.69,-139.86"/>
<polygon fill="#63b8ff" stroke="#63b8ff" points="157.23,-143.01 164.47,-135.28 153.99,-136.8 157.23,-143.01"/>
</a>
</g>
</g>
<!-- Node11&#45;&gt;Node3 -->
<g id="edge16_Node000011_Node000003" class="edge">
<title>Node11&#45;&gt;Node3</title>
<g id="a_edge16_Node000011_Node000003"><a xlink:title=" ">
<path fill="none" stroke="#63b8ff" d="M333.88,-226.92C315.21,-220.19 294.48,-209.04 283.43,-191 275.18,-177.55 273.27,-137.19 288.43,-113.5 295.26,-102.82 376.29,-62.81 387.43,-56.75 406.68,-46.27 428.59,-34.97 445.73,-26.27"/>
<polygon fill="#63b8ff" stroke="#63b8ff" points="447.03,-29.54 454.37,-21.9 443.87,-23.29 447.03,-29.54"/>
</a>
</g>
</g>
<!-- Node12 -->
<g id="Node000012" class="node">
<title>Node12</title>
<g id="a_Node000012"><a xlink:href="errno_8h.html" target="_top" xlink:title=" ">
<polygon fill="white" stroke="#666666" points="342.68,-191 292.18,-191 292.18,-170.25 342.68,-170.25 342.68,-191"/>
<text text-anchor="middle" x="317.43" y="-177.5" font-family="Helvetica,sans-Serif" font-size="10.00">errno.h</text>
</a>
</g>
</g>
<!-- Node11&#45;&gt;Node12 -->
<g id="edge17_Node000011_Node000012" class="edge">
<title>Node11&#45;&gt;Node12</title>
<g id="a_edge17_Node000011_Node000012"><a xlink:title=" ">
<path fill="none" stroke="#63b8ff" d="M362.59,-226.59C355.01,-219.03 344.31,-208.39 335.23,-199.35"/>
<polygon fill="#63b8ff" stroke="#63b8ff" points="337.8,-196.97 328.25,-192.4 332.86,-201.93 337.8,-196.97"/>
</a>
</g>
</g>
<!-- Node13 -->
<g id="Node000013" class="node">
<title>Node13</title>
<g id="a_Node000013"><a xlink:href="iolist_8h.html" target="_top" xlink:title="iolist scatter / gather IO">
<polygon fill="white" stroke="#666666" points="409.93,-191 360.93,-191 360.93,-170.25 409.93,-170.25 409.93,-191"/>
<text text-anchor="middle" x="385.43" y="-177.5" font-family="Helvetica,sans-Serif" font-size="10.00">iolist.h</text>
</a>
</g>
</g>
<!-- Node11&#45;&gt;Node13 -->
<g id="edge18_Node000011_Node000013" class="edge">
<title>Node11&#45;&gt;Node13</title>
<g id="a_edge18_Node000011_Node000013"><a xlink:title=" ">
<path fill="none" stroke="#63b8ff" d="M374.75,-226.59C376.34,-219.89 378.51,-210.76 380.47,-202.48"/>
<polygon fill="#63b8ff" stroke="#63b8ff" points="383.87,-203.34 382.77,-192.8 377.06,-201.72 383.87,-203.34"/>
</a>
</g>
</g>
<!-- Node14 -->
<g id="Node000014" class="node">
<title>Node14</title>
<g id="a_Node000014"><a xlink:href="netopt_8h.html" target="_top" xlink:title="Definition of global configuration options.">
<polygon fill="white" stroke="#666666" points="696.05,-191 620.8,-191 620.8,-170.25 696.05,-170.25 696.05,-191"/>
<text text-anchor="middle" x="658.43" y="-177.5" font-family="Helvetica,sans-Serif" font-size="10.00">net/netopt.h</text>
</a>
</g>
</g>
<!-- Node11&#45;&gt;Node14 -->
<g id="edge19_Node000011_Node000014" class="edge">
<title>Node11&#45;&gt;Node14</title>
<g id="a_edge19_Node000011_Node000014"><a xlink:title=" ">
<path fill="none" stroke="#63b8ff" d="M411.29,-228.93C462.73,-219.09 553.43,-201.72 609.49,-190.99"/>
<polygon fill="#63b8ff" stroke="#63b8ff" points="609.9,-194.48 619.07,-189.16 608.59,-187.6 609.9,-194.48"/>
</a>
</g>
</g>
<!-- Node16 -->
<g id="Node000016" class="node">
<title>Node16</title>
<g id="a_Node000016"><a xlink:href="kernel__defines_8h.html" target="_top" xlink:title="Common macros and compiler attributes/pragmas configuration.">
<polygon fill="white" stroke="#666666" points="869.55,-191 773.3,-191 773.3,-170.25 869.55,-170.25 869.55,-191"/>
<text text-anchor="middle" x="821.43" y="-177.5" font-family="Helvetica,sans-Serif" font-size="10.00">kernel_defines.h</text>
</a>
</g>
</g>
<!-- Node11&#45;&gt;Node16 -->
<g id="edge22_Node000011_Node000016" class="edge">
<title>Node11&#45;&gt;Node16</title>
<g id="a_edge22_Node000011_Node000016"><a xlink:title=" ">
<path fill="none" stroke="#63b8ff" d="M411.1,-231.66C489.61,-222.09 668.17,-200.31 761.73,-188.9"/>
<polygon fill="#63b8ff" stroke="#63b8ff" points="761.97,-192.4 771.47,-187.72 761.12,-185.45 761.97,-192.4"/>
</a>
</g>
</g>
<!-- Node14&#45;&gt;Node3 -->
<g id="edge20_Node000014_Node000003" class="edge">
<title>Node14&#45;&gt;Node3</title>
<g id="a_edge20_Node000014_Node000003"><a xlink:title=" ">
<path fill="none" stroke="#63b8ff" d="M657.82,-170.14C656.51,-156.38 652.38,-130.66 639.43,-113.5 606.77,-70.26 550.02,-40.92 512.59,-25.16"/>
<polygon fill="#63b8ff" stroke="#63b8ff" points="514.09,-22 503.51,-21.46 511.45,-28.48 514.09,-22"/>
</a>
</g>
</g>
<!-- Node15 -->
<g id="Node000015" class="node">
<title>Node15</title>
<g id="a_Node000015"><a xlink:title=" ">
<polygon fill="#e0e0e0" stroke="#999999" points="1113.93,-134.25 1052.93,-134.25 1052.93,-113.5 1113.93,-113.5 1113.93,-134.25"/>
<text text-anchor="middle" x="1083.43" y="-120.75" font-family="Helvetica,sans-Serif" font-size="10.00">stdbool.h</text>
</a>
</g>
</g>
<!-- Node14&#45;&gt;Node15 -->
<g id="edge21_Node000014_Node000015" class="edge">
<title>Node14&#45;&gt;Node15</title>
<g id="a_edge21_Node000014_Node000015"><a xlink:title=" ">
<path fill="none" stroke="#63b8ff" d="M696.52,-174.72C775.92,-164.49 958.64,-140.95 1041.37,-130.29"/>
<polygon fill="#63b8ff" stroke="#63b8ff" points="1041.62,-133.79 1051.09,-129.04 1040.72,-126.85 1041.62,-133.79"/>
</a>
</g>
</g>
<!-- Node17 -->
<g id="Node000017" class="node">
<title>Node17</title>
<g id="a_Node000017"><a xlink:href="modules_8h.html" target="_top" xlink:title="Common macros and compiler attributes/pragmas configuration.">
<polygon fill="white" stroke="#666666" points="995.93,-134.25 928.93,-134.25 928.93,-113.5 995.93,-113.5 995.93,-134.25"/>
<text text-anchor="middle" x="962.43" y="-120.75" font-family="Helvetica,sans-Serif" font-size="10.00">modules.h</text>
</a>
</g>
</g>
<!-- Node16&#45;&gt;Node17 -->
<g id="edge23_Node000016_Node000017" class="edge">
<title>Node16&#45;&gt;Node17</title>
<g id="a_edge23_Node000016_Node000017"><a xlink:title=" ">
<path fill="none" stroke="#63b8ff" d="M846.63,-169.84C868.99,-161.16 901.88,-148.38 926.9,-138.67"/>
<polygon fill="#63b8ff" stroke="#63b8ff" points="927.97,-142.01 936.02,-135.13 925.44,-135.48 927.97,-142.01"/>
</a>
</g>
</g>
<!-- Node18 -->
<g id="Node000018" class="node">
<title>Node18</title>
<g id="a_Node000018"><a xlink:href="riot__version_8h.html" target="_top" xlink:title="Common macros and compiler attributes/pragmas configuration.">
<polygon fill="white" stroke="#666666" points="741.8,-77.5 659.05,-77.5 659.05,-56.75 741.8,-56.75 741.8,-77.5"/>
<text text-anchor="middle" x="700.43" y="-64" font-family="Helvetica,sans-Serif" font-size="10.00">riot_version.h</text>
</a>
</g>
</g>
<!-- Node16&#45;&gt;Node18 -->
<g id="edge24_Node000016_Node000018" class="edge">
<title>Node16&#45;&gt;Node18</title>
<g id="a_edge24_Node000016_Node000018"><a xlink:title=" ">
<path fill="none" stroke="#63b8ff" d="M775.68,-169.82C754.81,-163.12 731.46,-152.09 716.43,-134.25 705.83,-121.67 702.03,-103.22 700.76,-89"/>
<polygon fill="#63b8ff" stroke="#63b8ff" points="704.27,-89.17 700.27,-79.36 697.28,-89.53 704.27,-89.17"/>
</a>
</g>
</g>
<!-- Node19 -->
<g id="Node000019" class="node">
<title>Node19</title>
<g id="a_Node000019"><a xlink:href="compiler__hints_8h.html" target="_top" xlink:title="Common macros and compiler attributes/pragmas configuration.">
<polygon fill="white" stroke="#666666" points="821.93,-134.25 724.93,-134.25 724.93,-113.5 821.93,-113.5 821.93,-134.25"/>
<text text-anchor="middle" x="773.43" y="-120.75" font-family="Helvetica,sans-Serif" font-size="10.00">compiler_hints.h</text>
</a>
</g>
</g>
<!-- Node16&#45;&gt;Node19 -->
<g id="edge26_Node000016_Node000019" class="edge">
<title>Node16&#45;&gt;Node19</title>
<g id="a_edge26_Node000016_Node000019"><a xlink:title=" ">
<path fill="none" stroke="#63b8ff" d="M812.84,-169.84C806.36,-162.44 797.27,-152.07 789.45,-143.16"/>
<polygon fill="#63b8ff" stroke="#63b8ff" points="792.15,-140.93 782.93,-135.72 786.89,-145.54 792.15,-140.93"/>
</a>
</g>
</g>
<!-- Node21 -->
<g id="Node000021" class="node">
<title>Node21</title>
<g id="a_Node000021"><a xlink:href="container_8h.html" target="_top" xlink:title="Common macros and compiler attributes/pragmas configuration.">
<polygon fill="white" stroke="#666666" points="910.8,-134.25 840.05,-134.25 840.05,-113.5 910.8,-113.5 910.8,-134.25"/>
<text text-anchor="middle" x="875.43" y="-120.75" font-family="Helvetica,sans-Serif" font-size="10.00">container.h</text>
</a>
</g>
</g>
<!-- Node16&#45;&gt;Node21 -->
<g id="edge30_Node000016_Node000021" class="edge">
<title>Node16&#45;&gt;Node21</title>
<g id="a_edge30_Node000016_Node000021"><a xlink:title=" ">
<path fill="none" stroke="#63b8ff" d="M831.08,-169.84C838.53,-162.28 849.03,-151.64 857.95,-142.6"/>
<polygon fill="#63b8ff" stroke="#63b8ff" points="860.26,-145.23 864.79,-135.66 855.28,-140.32 860.26,-145.23"/>
</a>
</g>
</g>
<!-- Node18&#45;&gt;Node3 -->
<g id="edge25_Node000018_Node000003" class="edge">
<title>Node18&#45;&gt;Node3</title>
<g id="a_edge25_Node000018_Node000003"><a xlink:title=" ">
<path fill="none" stroke="#63b8ff" d="M659.94,-56.27C618.28,-46.14 553.89,-30.47 513.24,-20.58"/>
<polygon fill="#63b8ff" stroke="#63b8ff" points="514.2,-17.21 503.66,-18.25 512.55,-24.01 514.2,-17.21"/>
</a>
</g>
</g>
<!-- Node19&#45;&gt;Node3 -->
<g id="edge29_Node000019_Node000003" class="edge">
<title>Node19&#45;&gt;Node3</title>
<g id="a_edge29_Node000019_Node000003"><a xlink:title=" ">
<path fill="none" stroke="#63b8ff" d="M773.01,-113.07C771.83,-98.41 767.35,-71 750.43,-56.75 715.16,-27.06 580.02,-16.43 513.23,-12.93"/>
<polygon fill="#63b8ff" stroke="#63b8ff" points="513.65,-9.45 503.49,-12.45 513.31,-16.44 513.65,-9.45"/>
</a>
</g>
</g>
<!-- Node20 -->
<g id="Node000020" class="node">
<title>Node20</title>
<g id="a_Node000020"><a xlink:href="assert_8h.html" target="_top" xlink:title="POSIX.1&#45;2008 compliant version of the assert macro.">
<polygon fill="white" stroke="#666666" points="890.93,-77.5 835.93,-77.5 835.93,-56.75 890.93,-56.75 890.93,-77.5"/>
<text text-anchor="middle" x="863.43" y="-64" font-family="Helvetica,sans-Serif" font-size="10.00">assert.h</text>
</a>
</g>
</g>
<!-- Node19&#45;&gt;Node20 -->
<g id="edge27_Node000019_Node000020" class="edge">
<title>Node19&#45;&gt;Node20</title>
<g id="a_edge27_Node000019_Node000020"><a xlink:title=" ">
<path fill="none" stroke="#63b8ff" d="M789.52,-113.09C802.95,-104.91 822.36,-93.11 837.91,-83.65"/>
<polygon fill="#63b8ff" stroke="#63b8ff" points="839.46,-86.8 846.18,-78.62 835.82,-80.82 839.46,-86.8"/>
</a>
</g>
</g>
<!-- Node20&#45;&gt;Node3 -->
<g id="edge28_Node000020_Node000003" class="edge">
<title>Node20&#45;&gt;Node3</title>
<g id="a_edge28_Node000020_Node000003"><a xlink:title=" ">
<path fill="none" stroke="#63b8ff" d="M835.48,-59.52C830.8,-58.52 825.99,-57.56 821.43,-56.75 709.94,-37.04 576.85,-21.93 513.1,-15.2"/>
<polygon fill="#63b8ff" stroke="#63b8ff" points="513.84,-11.76 503.53,-14.2 513.11,-18.72 513.84,-11.76"/>
</a>
</g>
</g>
<!-- Node21&#45;&gt;Node3 -->
<g id="edge32_Node000021_Node000003" class="edge">
<title>Node21&#45;&gt;Node3</title>
<g id="a_edge32_Node000021_Node000003"><a xlink:title=" ">
<path fill="none" stroke="#63b8ff" d="M863.82,-113.17C845.47,-98.39 808.08,-70.51 771.43,-56.75 683.05,-23.56 571.12,-14.63 513.52,-12.24"/>
<polygon fill="#63b8ff" stroke="#63b8ff" points="513.71,-8.74 503.59,-11.87 513.45,-15.74 513.71,-8.74"/>
</a>
</g>
</g>
<!-- Node22 -->
<g id="Node000022" class="node">
<title>Node22</title>
<g id="a_Node000022"><a xlink:title=" ">
<polygon fill="#e0e0e0" stroke="#999999" points="1188.93,-77.5 1133.93,-77.5 1133.93,-56.75 1188.93,-56.75 1188.93,-77.5"/>
<text text-anchor="middle" x="1161.43" y="-64" font-family="Helvetica,sans-Serif" font-size="10.00">stddef.h</text>
</a>
</g>
</g>
<!-- Node21&#45;&gt;Node22 -->
<g id="edge31_Node000021_Node000022" class="edge">
<title>Node21&#45;&gt;Node22</title>
<g id="a_edge31_Node000021_Node000022"><a xlink:title=" ">
<path fill="none" stroke="#63b8ff" d="M911.27,-115.34C914.37,-114.71 917.45,-114.09 920.43,-113.5 991.61,-99.39 1074.84,-83.95 1122.52,-75.21"/>
<polygon fill="#63b8ff" stroke="#63b8ff" points="1122.86,-78.71 1132.07,-73.46 1121.6,-71.82 1122.86,-78.71"/>
</a>
</g>
</g>
<!-- Node23&#45;&gt;Node3 -->
<g id="edge35_Node000023_Node000003" class="edge">
<title>Node23&#45;&gt;Node3</title>
<g id="a_edge35_Node000023_Node000003"><a xlink:title=" ">
<path fill="none" stroke="#63b8ff" d="M811.84,-404.89C720,-398.53 438.43,-372.71 438.43,-295.12 438.43,-295.12 438.43,-295.12 438.43,-236.38 438.43,-205.8 440.25,-192.64 419.43,-170.25 385.14,-133.4 296.63,-157.3 321.43,-113.5 336.75,-86.44 355.36,-94.46 381.43,-77.5 406.38,-61.27 434.17,-41.5 453.02,-27.83"/>
<polygon fill="#63b8ff" stroke="#63b8ff" points="455,-30.71 461.02,-21.99 450.88,-25.05 455,-30.71"/>
</a>
</g>
</g>
<!-- Node23&#45;&gt;Node15 -->
<g id="edge36_Node000023_Node000015" class="edge">
<title>Node23&#45;&gt;Node15</title>
<g id="a_edge36_Node000023_Node000015"><a xlink:title=" ">
<path fill="none" stroke="#63b8ff" d="M842.22,-396.94C846.43,-375.6 858.14,-323.28 878.43,-283.75 907.32,-227.44 913.79,-208.22 964.43,-170.25 987.26,-153.13 1017.31,-141.74 1041.51,-134.65"/>
<polygon fill="#63b8ff" stroke="#63b8ff" points="1042.35,-138.05 1051.05,-132.01 1040.48,-131.31 1042.35,-138.05"/>
</a>
</g>
</g>
<!-- Node23&#45;&gt;Node16 -->
<g id="edge42_Node000023_Node000016" class="edge">
<title>Node23&#45;&gt;Node16</title>
<g id="a_edge42_Node000023_Node000016"><a xlink:title=" ">
<path fill="none" stroke="#63b8ff" d="M839.61,-396.96C836.75,-363.13 827.17,-249.61 823.18,-202.44"/>
<polygon fill="#63b8ff" stroke="#63b8ff" points="826.7,-202.44 822.37,-192.77 819.72,-203.02 826.7,-202.44"/>
</a>
</g>
</g>
<!-- Node23&#45;&gt;Node22 -->
<g id="edge34_Node000023_Node000022" class="edge">
<title>Node23&#45;&gt;Node22</title>
<g id="a_edge34_Node000023_Node000022"><a xlink:title=" ">
<path fill="none" stroke="#63b8ff" d="M868.91,-406.45C975.32,-405.04 1343.43,-393.07 1343.43,-295.12 1343.43,-295.12 1343.43,-295.12 1343.43,-179.62 1343.43,-142.24 1321.85,-135.23 1291.43,-113.5 1283.69,-107.98 1235.39,-91.8 1199.91,-80.34"/>
<polygon fill="#63b8ff" stroke="#63b8ff" points="1201.4,-77.15 1190.81,-77.42 1199.26,-83.81 1201.4,-77.15"/>
</a>
</g>
</g>
<!-- Node24 -->
<g id="Node000024" class="node">
<title>Node24</title>
<g id="a_Node000024"><a xlink:href="architecture_8h.html" target="_top" xlink:title="Platform&#45;independent access to architecture details.">
<polygon fill="white" stroke="#666666" points="592.18,-191 508.68,-191 508.68,-170.25 592.18,-170.25 592.18,-191"/>
<text text-anchor="middle" x="550.43" y="-177.5" font-family="Helvetica,sans-Serif" font-size="10.00">architecture.h</text>
</a>
</g>
</g>
<!-- Node23&#45;&gt;Node24 -->
<g id="edge37_Node000023_Node000024" class="edge">
<title>Node23&#45;&gt;Node24</title>
<g id="a_edge37_Node000023_Node000024"><a xlink:title=" ">
<path fill="none" stroke="#63b8ff" d="M827.96,-396.96C782.97,-362.05 628.58,-242.26 571.69,-198.13"/>
<polygon fill="#63b8ff" stroke="#63b8ff" points="574.08,-195.55 564.04,-192.18 569.79,-201.08 574.08,-195.55"/>
</a>
</g>
</g>
<!-- Node27 -->
<g id="Node000027" class="node">
<title>Node27</title>
<g id="a_Node000027"><a xlink:href="list_8h.html" target="_top" xlink:title="Intrusive linked list.">
<polygon fill="white" stroke="#666666" points="1282.43,-134.25 1242.43,-134.25 1242.43,-113.5 1282.43,-113.5 1282.43,-134.25"/>
<text text-anchor="middle" x="1262.43" y="-120.75" font-family="Helvetica,sans-Serif" font-size="10.00">list.h</text>
</a>
</g>
</g>
<!-- Node23&#45;&gt;Node27 -->
<g id="edge43_Node000023_Node000027" class="edge">
<title>Node23&#45;&gt;Node27</title>
<g id="a_edge43_Node000023_Node000027"><a xlink:title=" ">
<path fill="none" stroke="#63b8ff" d="M869.16,-405.93C970.54,-402.72 1305.43,-385.3 1305.43,-295.12 1305.43,-295.12 1305.43,-295.12 1305.43,-236.38 1305.43,-202.12 1287.54,-165.67 1274.84,-144.11"/>
<polygon fill="#63b8ff" stroke="#63b8ff" points="1277.97,-142.51 1269.75,-135.82 1272,-146.18 1277.97,-142.51"/>
</a>
</g>
</g>
<!-- Node28 -->
<g id="Node000028" class="node">
<title>Node28</title>
<g id="a_Node000028"><a xlink:href="core_2include_2thread_8h.html" target="_top" xlink:title="Threading API.">
<polygon fill="white" stroke="#666666" points="1093.68,-361.25 1037.18,-361.25 1037.18,-340.5 1093.68,-340.5 1093.68,-361.25"/>
<text text-anchor="middle" x="1065.43" y="-347.75" font-family="Helvetica,sans-Serif" font-size="10.00">thread.h</text>
</a>
</g>
</g>
<!-- Node23&#45;&gt;Node28 -->
<g id="edge44_Node000023_Node000028" class="edge">
<title>Node23&#45;&gt;Node28</title>
<g id="a_edge44_Node000023_Node000028"><a xlink:title=" ">
<path fill="none" stroke="#63b8ff" d="M868.92,-399.69C908.63,-390.03 980.77,-372.48 1025.72,-361.54"/>
<polygon fill="#63b8ff" stroke="#63b8ff" points="1026.45,-364.96 1035.34,-359.2 1024.79,-358.16 1026.45,-364.96"/>
</a>
</g>
</g>
<!-- Node24&#45;&gt;Node3 -->
<g id="edge38_Node000024_Node000003" class="edge">
<title>Node24&#45;&gt;Node3</title>
<g id="a_edge38_Node000024_Node000003"><a xlink:title=" ">
<path fill="none" stroke="#63b8ff" d="M548.36,-169.98C545.41,-156.9 539.43,-132.94 531.43,-113.5 519.02,-83.39 500.06,-50.74 487.7,-30.67"/>
<polygon fill="#63b8ff" stroke="#63b8ff" points="490.83,-29.06 482.56,-22.44 484.89,-32.77 490.83,-29.06"/>
</a>
</g>
</g>
<!-- Node24&#45;&gt;Node5 -->
<g id="edge39_Node000024_Node000005" class="edge">
<title>Node24&#45;&gt;Node5</title>
<g id="a_edge39_Node000024_Node000005"><a xlink:title=" ">
<path fill="none" stroke="#63b8ff" d="M516.81,-169.84C485.88,-160.83 439.82,-147.41 406.05,-137.58"/>
<polygon fill="#63b8ff" stroke="#63b8ff" points="407.15,-134.25 396.57,-134.82 405.19,-140.97 407.15,-134.25"/>
</a>
</g>
</g>
<!-- Node25 -->
<g id="Node000025" class="node">
<title>Node25</title>
<g id="a_Node000025"><a xlink:title=" ">
<polygon fill="#e0e0e0" stroke="#999999" points="630.8,-134.25 578.05,-134.25 578.05,-113.5 630.8,-113.5 630.8,-134.25"/>
<text text-anchor="middle" x="604.43" y="-120.75" font-family="Helvetica,sans-Serif" font-size="10.00">limits.h</text>
</a>
</g>
</g>
<!-- Node24&#45;&gt;Node25 -->
<g id="edge40_Node000024_Node000025" class="edge">
<title>Node24&#45;&gt;Node25</title>
<g id="a_edge40_Node000024_Node000025"><a xlink:title=" ">
<path fill="none" stroke="#63b8ff" d="M560.08,-169.84C567.53,-162.28 578.03,-151.64 586.95,-142.6"/>
<polygon fill="#63b8ff" stroke="#63b8ff" points="589.26,-145.23 593.79,-135.66 584.28,-140.32 589.26,-145.23"/>
</a>
</g>
</g>
<!-- Node26 -->
<g id="Node000026" class="node">
<title>Node26</title>
<g id="a_Node000026"><a xlink:title=" ">
<polygon fill="#e0e0e0" stroke="#999999" points="522.3,-134.25 412.55,-134.25 412.55,-113.5 522.3,-113.5 522.3,-134.25"/>
<text text-anchor="middle" x="467.43" y="-120.75" font-family="Helvetica,sans-Serif" font-size="10.00">architecture_arch.h</text>
</a>
</g>
</g>
<!-- Node24&#45;&gt;Node26 -->
<g id="edge41_Node000024_Node000026" class="edge">
<title>Node24&#45;&gt;Node26</title>
<g id="a_edge41_Node000024_Node000026"><a xlink:title=" ">
<path fill="none" stroke="#63b8ff" d="M535.59,-169.84C523.31,-161.74 505.64,-150.08 491.37,-140.67"/>
<polygon fill="#63b8ff" stroke="#63b8ff" points="493.67,-138 483.4,-135.41 489.82,-143.84 493.67,-138"/>
</a>
</g>
</g>
<!-- Node29 -->
<g id="Node000029" class="node">
<title>Node29</title>
<g id="a_Node000029"><a xlink:href="clist_8h.html" target="_top" xlink:title="Circular linked list.">
<polygon fill="white" stroke="#666666" points="1203.05,-191 1157.8,-191 1157.8,-170.25 1203.05,-170.25 1203.05,-191"/>
<text text-anchor="middle" x="1180.43" y="-177.5" font-family="Helvetica,sans-Serif" font-size="10.00">clist.h</text>
</a>
</g>
</g>
<!-- Node28&#45;&gt;Node29 -->
<g id="edge45_Node000028_Node000029" class="edge">
<title>Node28&#45;&gt;Node29</title>
<g id="a_edge45_Node000028_Node000029"><a xlink:title=" ">
<path fill="none" stroke="#63b8ff" d="M1093.98,-340.92C1112.12,-333.81 1134.69,-322.11 1148.43,-304.5 1171.85,-274.48 1178.23,-229.03 1179.91,-202.64"/>
<polygon fill="#63b8ff" stroke="#63b8ff" points="1183.39,-203.02 1180.34,-192.88 1176.4,-202.71 1183.39,-203.02"/>
</a>
</g>
</g>
<!-- Node30 -->
<g id="Node000030" class="node">
<title>Node30</title>
<g id="a_Node000030"><a xlink:href="cib_8h.html" target="_top" xlink:title="Circular integer buffer interface.">
<polygon fill="white" stroke="#666666" points="927.05,-304.5 887.8,-304.5 887.8,-283.75 927.05,-283.75 927.05,-304.5"/>
<text text-anchor="middle" x="907.43" y="-291" font-family="Helvetica,sans-Serif" font-size="10.00">cib.h</text>
</a>
</g>
</g>
<!-- Node28&#45;&gt;Node30 -->
<g id="edge49_Node000028_Node000030" class="edge">
<title>Node28&#45;&gt;Node30</title>
<g id="a_edge49_Node000028_Node000030"><a xlink:title=" ">
<path fill="none" stroke="#63b8ff" d="M1037.18,-340.09C1009.28,-330.42 966.74,-315.68 938.05,-305.74"/>
<polygon fill="#63b8ff" stroke="#63b8ff" points="939.45,-302.52 928.85,-302.55 937.15,-309.13 939.45,-302.52"/>
</a>
</g>
</g>
<!-- Node31 -->
<g id="Node000031" class="node">
<title>Node31</title>
<g id="a_Node000031"><a xlink:href="core_2include_2msg_8h.html" target="_top" xlink:title="Messaging API for inter process communication.">
<polygon fill="white" stroke="#666666" points="1139.43,-304.5 1093.43,-304.5 1093.43,-283.75 1139.43,-283.75 1139.43,-304.5"/>
<text text-anchor="middle" x="1116.43" y="-291" font-family="Helvetica,sans-Serif" font-size="10.00">msg.h</text>
</a>
</g>
</g>
<!-- Node28&#45;&gt;Node31 -->
<g id="edge51_Node000028_Node000031" class="edge">
<title>Node28&#45;&gt;Node31</title>
<g id="a_edge51_Node000028_Node000031"><a xlink:title=" ">
<path fill="none" stroke="#63b8ff" d="M1074.54,-340.09C1081.51,-332.61 1091.29,-322.11 1099.66,-313.13"/>
<polygon fill="#63b8ff" stroke="#63b8ff" points="1102.1,-315.64 1106.35,-305.94 1096.98,-310.87 1102.1,-315.64"/>
</a>
</g>
</g>
<!-- Node32 -->
<g id="Node000032" class="node">
<title>Node32</title>
<g id="a_Node000032"><a xlink:href="sched_8h.html" target="_top" xlink:title="Scheduler API definition.">
<polygon fill="white" stroke="#666666" points="1092.18,-247.75 1038.68,-247.75 1038.68,-227 1092.18,-227 1092.18,-247.75"/>
<text text-anchor="middle" x="1065.43" y="-234.25" font-family="Helvetica,sans-Serif" font-size="10.00">sched.h</text>
</a>
</g>
</g>
<!-- Node28&#45;&gt;Node32 -->
<g id="edge60_Node000028_Node000032" class="edge">
<title>Node28&#45;&gt;Node32</title>
<g id="a_edge60_Node000028_Node000032"><a xlink:title=" ">
<path fill="none" stroke="#63b8ff" d="M1065.43,-340.37C1065.43,-322.6 1065.43,-283.97 1065.43,-259.68"/>
<polygon fill="#63b8ff" stroke="#63b8ff" points="1068.93,-259.69 1065.43,-249.69 1061.93,-259.69 1068.93,-259.69"/>
</a>
</g>
</g>
<!-- Node34 -->
<g id="Node000034" class="node">
<title>Node34</title>
<g id="a_Node000034"><a xlink:href="thread__config_8h.html" target="_top" xlink:title="Thread configuration defines.">
<polygon fill="white" stroke="#666666" points="1037.3,-304.5 945.55,-304.5 945.55,-283.75 1037.3,-283.75 1037.3,-304.5"/>
<text text-anchor="middle" x="991.43" y="-291" font-family="Helvetica,sans-Serif" font-size="10.00">thread_config.h</text>
</a>
</g>
</g>
<!-- Node28&#45;&gt;Node34 -->
<g id="edge61_Node000028_Node000034" class="edge">
<title>Node28&#45;&gt;Node34</title>
<g id="a_edge61_Node000028_Node000034"><a xlink:title=" ">
<path fill="none" stroke="#63b8ff" d="M1052.2,-340.09C1041.46,-332.15 1026.1,-320.78 1013.51,-311.46"/>
<polygon fill="#63b8ff" stroke="#63b8ff" points="1015.88,-308.86 1005.76,-305.73 1011.71,-314.49 1015.88,-308.86"/>
</a>
</g>
</g>
<!-- Node36 -->
<g id="Node000036" class="node">
<title>Node36</title>
<g id="a_Node000036"><a xlink:title=" ">
<polygon fill="#e0e0e0" stroke="#999999" points="1277.8,-304.5 1195.05,-304.5 1195.05,-283.75 1277.8,-283.75 1277.8,-304.5"/>
<text text-anchor="middle" x="1236.43" y="-291" font-family="Helvetica,sans-Serif" font-size="10.00">thread_arch.h</text>
</a>
</g>
</g>
<!-- Node28&#45;&gt;Node36 -->
<g id="edge64_Node000028_Node000036" class="edge">
<title>Node28&#45;&gt;Node36</title>
<g id="a_edge64_Node000028_Node000036"><a xlink:title=" ">
<path fill="none" stroke="#63b8ff" d="M1094.05,-340.71C1121.69,-331.86 1163.84,-318.36 1195.12,-308.35"/>
<polygon fill="#63b8ff" stroke="#63b8ff" points="1195.79,-311.81 1204.24,-305.43 1193.65,-305.14 1195.79,-311.81"/>
</a>
</g>
</g>
<!-- Node29&#45;&gt;Node15 -->
<g id="edge46_Node000029_Node000015" class="edge">
<title>Node29&#45;&gt;Node15</title>
<g id="a_edge46_Node000029_Node000015"><a xlink:title=" ">
<path fill="none" stroke="#63b8ff" d="M1163.08,-169.84C1148.46,-161.58 1127.29,-149.63 1110.45,-140.13"/>
<polygon fill="#63b8ff" stroke="#63b8ff" points="1112.36,-137.19 1101.93,-135.32 1108.92,-143.29 1112.36,-137.19"/>
</a>
</g>
</g>
<!-- Node29&#45;&gt;Node22 -->
<g id="edge47_Node000029_Node000022" class="edge">
<title>Node29&#45;&gt;Node22</title>
<g id="a_edge47_Node000029_Node000022"><a xlink:title=" ">
<path fill="none" stroke="#63b8ff" d="M1178.81,-170.12C1175.76,-152.27 1169.13,-113.36 1165,-89.09"/>
<polygon fill="#63b8ff" stroke="#63b8ff" points="1168.48,-88.69 1163.35,-79.42 1161.58,-89.86 1168.48,-88.69"/>
</a>
</g>
</g>
<!-- Node29&#45;&gt;Node27 -->
<g id="edge48_Node000029_Node000027" class="edge">
<title>Node29&#45;&gt;Node27</title>
<g id="a_edge48_Node000029_Node000027"><a xlink:title=" ">
<path fill="none" stroke="#63b8ff" d="M1195.09,-169.84C1207.1,-161.82 1224.34,-150.31 1238.36,-140.94"/>
<polygon fill="#63b8ff" stroke="#63b8ff" points="1240.26,-143.88 1246.63,-135.42 1236.37,-138.06 1240.26,-143.88"/>
</a>
</g>
</g>
<!-- Node30&#45;&gt;Node20 -->
<g id="edge50_Node000030_Node000020" class="edge">
<title>Node30&#45;&gt;Node20</title>
<g id="a_edge50_Node000030_Node000020"><a xlink:title=" ">
<path fill="none" stroke="#63b8ff" d="M910.37,-283.46C917.31,-261.72 936.25,-207.91 964.43,-170.25 983.06,-145.33 1023.78,-138.63 1005.43,-113.5 982.08,-81.53 935.93,-71.56 902.57,-68.72"/>
<polygon fill="#63b8ff" stroke="#63b8ff" points="903.08,-65.25 892.87,-68.09 902.62,-72.23 903.08,-65.25"/>
</a>
</g>
</g>
<!-- Node31&#45;&gt;Node3 -->
<g id="edge52_Node000031_Node000003" class="edge">
<title>Node31&#45;&gt;Node3</title>
<g id="a_edge52_Node000031_Node000003"><a xlink:title=" ">
<path fill="none" stroke="#63b8ff" d="M1139.7,-283.85C1196.61,-259.7 1335.11,-191.33 1291.43,-113.5 1267.73,-71.28 1244.61,-71.3 1198.43,-56.75 1068.87,-15.92 643.2,-11.69 513.36,-11.36"/>
<polygon fill="#63b8ff" stroke="#63b8ff" points="513.61,-7.86 503.6,-11.34 513.59,-14.86 513.61,-7.86"/>
</a>
</g>
</g>
<!-- Node31&#45;&gt;Node15 -->
<g id="edge53_Node000031_Node000015" class="edge">
<title>Node31&#45;&gt;Node15</title>
<g id="a_edge53_Node000031_Node000015"><a xlink:title=" ">
<path fill="none" stroke="#63b8ff" d="M1114.56,-283.6C1109.36,-257.12 1094.66,-182.18 1087.48,-145.55"/>
<polygon fill="#63b8ff" stroke="#63b8ff" points="1091.01,-145.34 1085.65,-136.2 1084.14,-146.69 1091.01,-145.34"/>
</a>
</g>
</g>
<!-- Node31&#45;&gt;Node32 -->
<g id="edge54_Node000031_Node000032" class="edge">
<title>Node31&#45;&gt;Node32</title>
<g id="a_edge54_Node000031_Node000032"><a xlink:title=" ">
<path fill="none" stroke="#63b8ff" d="M1107.31,-283.34C1100.35,-275.86 1090.56,-265.36 1082.19,-256.38"/>
<polygon fill="#63b8ff" stroke="#63b8ff" points="1084.87,-254.12 1075.5,-249.19 1079.75,-258.89 1084.87,-254.12"/>
</a>
</g>
</g>
<!-- Node32&#45;&gt;Node5 -->
<g id="edge56_Node000032_Node000005" class="edge">
<title>Node32&#45;&gt;Node5</title>
<g id="a_edge56_Node000032_Node000005"><a xlink:title=" ">
<path fill="none" stroke="#63b8ff" d="M1038.41,-228.76C1035.4,-228.09 1032.36,-227.48 1029.43,-227 796.39,-189.08 727.66,-251.41 499.43,-191 488.3,-188.06 428.82,-158.47 391.98,-139.88"/>
<polygon fill="#63b8ff" stroke="#63b8ff" points="393.66,-136.81 383.16,-135.42 390.5,-143.06 393.66,-136.81"/>
</a>
</g>
</g>
<!-- Node32&#45;&gt;Node16 -->
<g id="edge57_Node000032_Node000016" class="edge">
<title>Node32&#45;&gt;Node16</title>
<g id="a_edge57_Node000032_Node000016"><a xlink:title=" ">
<path fill="none" stroke="#63b8ff" d="M1038.33,-229.19C1035.33,-228.44 1032.31,-227.69 1029.43,-227 979.21,-214.99 921.86,-202.58 880.12,-193.78"/>
<polygon fill="#63b8ff" stroke="#63b8ff" points="881.04,-190.39 870.53,-191.76 879.6,-197.24 881.04,-190.39"/>
</a>
</g>
</g>
<!-- Node32&#45;&gt;Node22 -->
<g id="edge55_Node000032_Node000022" class="edge">
<title>Node32&#45;&gt;Node22</title>
<g id="a_edge55_Node000032_Node000022"><a xlink:title=" ">
<path fill="none" stroke="#63b8ff" d="M1070.86,-226.85C1086.1,-200.14 1129.48,-124.12 1150.17,-87.85"/>
<polygon fill="#63b8ff" stroke="#63b8ff" points="1153.14,-89.7 1155.06,-79.28 1147.06,-86.23 1153.14,-89.7"/>
</a>
</g>
</g>
<!-- Node32&#45;&gt;Node29 -->
<g id="edge59_Node000032_Node000029" class="edge">
<title>Node32&#45;&gt;Node29</title>
<g id="a_edge59_Node000032_Node000029"><a xlink:title=" ">
<path fill="none" stroke="#63b8ff" d="M1085.98,-226.59C1103.73,-218.14 1129.61,-205.82 1149.79,-196.21"/>
<polygon fill="#63b8ff" stroke="#63b8ff" points="1151.15,-199.44 1158.68,-191.98 1148.14,-193.12 1151.15,-199.44"/>
</a>
</g>
</g>
<!-- Node33 -->
<g id="Node000033" class="node">
<title>Node33</title>
<g id="a_Node000033"><a xlink:href="native__sched_8h.html" target="_top" xlink:title="Add definitions required on the native board.">
<polygon fill="white" stroke="#666666" points="1063.18,-191 973.68,-191 973.68,-170.25 1063.18,-170.25 1063.18,-191"/>
<text text-anchor="middle" x="1018.43" y="-177.5" font-family="Helvetica,sans-Serif" font-size="10.00">native_sched.h</text>
</a>
</g>
</g>
<!-- Node32&#45;&gt;Node33 -->
<g id="edge58_Node000032_Node000033" class="edge">
<title>Node32&#45;&gt;Node33</title>
<g id="a_edge58_Node000032_Node000033"><a xlink:title=" ">
<path fill="none" stroke="#63b8ff" d="M1057.02,-226.59C1050.67,-219.19 1041.77,-208.82 1034.12,-199.91"/>
<polygon fill="#63b8ff" stroke="#63b8ff" points="1036.91,-197.78 1027.74,-192.48 1031.6,-202.34 1036.91,-197.78"/>
</a>
</g>
</g>
<!-- Node34&#45;&gt;Node32 -->
<g id="edge63_Node000034_Node000032" class="edge">
<title>Node34&#45;&gt;Node32</title>
<g id="a_edge63_Node000034_Node000032"><a xlink:title=" ">
<path fill="none" stroke="#63b8ff" d="M1004.65,-283.34C1015.39,-275.4 1030.75,-264.03 1043.34,-254.71"/>
<polygon fill="#63b8ff" stroke="#63b8ff" points="1045.14,-257.74 1051.09,-248.98 1040.97,-252.11 1045.14,-257.74"/>
</a>
</g>
</g>
<!-- Node35 -->
<g id="Node000035" class="node">
<title>Node35</title>
<g id="a_Node000035"><a xlink:title=" ">
<polygon fill="#e0e0e0" stroke="#999999" points="1020.3,-247.75 952.55,-247.75 952.55,-227 1020.3,-227 1020.3,-247.75"/>
<text text-anchor="middle" x="986.43" y="-234.25" font-family="Helvetica,sans-Serif" font-size="10.00">cpu_conf.h</text>
</a>
</g>
</g>
<!-- Node34&#45;&gt;Node35 -->
<g id="edge62_Node000034_Node000035" class="edge">
<title>Node34&#45;&gt;Node35</title>
<g id="a_edge62_Node000034_Node000035"><a xlink:title=" ">
<path fill="none" stroke="#63b8ff" d="M990.53,-283.34C989.93,-276.72 989.11,-267.72 988.36,-259.52"/>
<polygon fill="#63b8ff" stroke="#63b8ff" points="991.84,-259.23 987.45,-249.59 984.87,-259.86 991.84,-259.23"/>
</a>
</g>
</g>
</g>
</svg>
