<?xml version="1.0" encoding="UTF-8" standalone="no"?>
<!DOCTYPE svg PUBLIC "-//W3C//DTD SVG 1.1//EN"
 "http://www.w3.org/Graphics/SVG/1.1/DTD/svg11.dtd">
<!-- Generated by graphviz version 12.1.2 (0)
 -->
<!-- Title: sys/libc/include/sys/uio.h Pages: 1 -->
<svg width="1868pt" height="598pt"
 viewBox="0.00 0.00 1868.25 597.50" xmlns="http://www.w3.org/2000/svg" xmlns:xlink="http://www.w3.org/1999/xlink">
<g id="graph0" class="graph" transform="scale(1 1) rotate(0) translate(4 593.5)">
<title>sys/libc/include/sys/uio.h</title>
<!-- Node1 -->
<g id="Node000001" class="node">
<title>Node1</title>
<g id="a_Node000001"><a xlink:title="libc header for scatter/gather I/O">
<polygon fill="#999999" stroke="#666666" points="1306.62,-589.5 1196.12,-589.5 1196.12,-556 1306.62,-556 1306.62,-589.5"/>
<text text-anchor="start" x="1204.12" y="-576" font-family="Helvetica,sans-Serif" font-size="10.00">sys/libc/include/sys</text>
<text text-anchor="middle" x="1251.38" y="-563.25" font-family="Helvetica,sans-Serif" font-size="10.00">/uio.h</text>
</a>
</g>
</g>
<!-- Node2 -->
<g id="Node000002" class="node">
<title>Node2</title>
<g id="a_Node000002"><a xlink:href="sys_2include_2can_2common_8h.html" target="_top" xlink:title="Definitions of high&#45;level CAN interface.">
<polygon fill="white" stroke="#666666" points="1249.25,-513.62 1103.5,-513.62 1103.5,-492.88 1249.25,-492.88 1249.25,-513.62"/>
<text text-anchor="middle" x="1176.38" y="-500.12" font-family="Helvetica,sans-Serif" font-size="10.00">sys/include/can/common.h</text>
</a>
</g>
</g>
<!-- Node1&#45;&gt;Node2 -->
<g id="edge1_Node000001_Node000002" class="edge">
<title>Node1&#45;&gt;Node2</title>
<g id="a_edge1_Node000001_Node000002"><a xlink:title=" ">
<path fill="none" stroke="#63b8ff" d="M1225.4,-548.37C1212.35,-536.63 1197.25,-523.03 1187.29,-514.07"/>
<polygon fill="#63b8ff" stroke="#63b8ff" points="1222.7,-550.65 1232.48,-554.74 1227.38,-545.45 1222.7,-550.65"/>
</a>
</g>
</g>
<!-- Node24 -->
<g id="Node000024" class="node">
<title>Node24</title>
<g id="a_Node000024"><a xlink:href="socket_8h.html" target="_top" xlink:title="Main socket header.">
<polygon fill="white" stroke="#666666" points="1454.12,-520 1334.62,-520 1334.62,-486.5 1454.12,-486.5 1454.12,-520"/>
<text text-anchor="start" x="1342.62" y="-506.5" font-family="Helvetica,sans-Serif" font-size="10.00">sys/posix/include/sys</text>
<text text-anchor="middle" x="1394.38" y="-493.75" font-family="Helvetica,sans-Serif" font-size="10.00">/socket.h</text>
</a>
</g>
</g>
<!-- Node1&#45;&gt;Node24 -->
<g id="edge32_Node000001_Node000024" class="edge">
<title>Node1&#45;&gt;Node24</title>
<g id="a_edge32_Node000001_Node000024"><a xlink:title=" ">
<path fill="none" stroke="#63b8ff" d="M1295.83,-550.76C1316.66,-540.93 1341.08,-529.41 1360.4,-520.29"/>
<polygon fill="#63b8ff" stroke="#63b8ff" points="1294.54,-547.5 1287,-554.94 1297.53,-553.83 1294.54,-547.5"/>
</a>
</g>
</g>
<!-- Node3 -->
<g id="Node000003" class="node">
<title>Node3</title>
<g id="a_Node000003"><a xlink:href="candev_8h.html" target="_top" xlink:title="Definitions for low&#45;level CAN driver interface.">
<polygon fill="white" stroke="#666666" points="888.5,-450.5 780.25,-450.5 780.25,-417 888.5,-417 888.5,-450.5"/>
<text text-anchor="start" x="788.25" y="-437" font-family="Helvetica,sans-Serif" font-size="10.00">drivers/include/can</text>
<text text-anchor="middle" x="834.38" y="-424.25" font-family="Helvetica,sans-Serif" font-size="10.00">/candev.h</text>
</a>
</g>
</g>
<!-- Node2&#45;&gt;Node3 -->
<g id="edge2_Node000002_Node000003" class="edge">
<title>Node2&#45;&gt;Node3</title>
<g id="a_edge2_Node000002_Node000003"><a xlink:title=" ">
<path fill="none" stroke="#63b8ff" d="M1115.47,-490.23C1051.18,-477.54 950.77,-457.72 888.97,-445.53"/>
<polygon fill="#63b8ff" stroke="#63b8ff" points="1114.67,-493.64 1125.16,-492.14 1116.03,-486.77 1114.67,-493.64"/>
</a>
</g>
</g>
<!-- Node17 -->
<g id="Node000017" class="node">
<title>Node17</title>
<g id="a_Node000017"><a xlink:href="dll_8h.html" target="_top" xlink:title="Definitions of low&#45;level CAN DLL interface.">
<polygon fill="white" stroke="#666666" points="1374.88,-305.12 1259.88,-305.12 1259.88,-284.38 1374.88,-284.38 1374.88,-305.12"/>
<text text-anchor="middle" x="1317.38" y="-291.62" font-family="Helvetica,sans-Serif" font-size="10.00">sys/include/can/dll.h</text>
</a>
</g>
</g>
<!-- Node2&#45;&gt;Node17 -->
<g id="edge25_Node000002_Node000017" class="edge">
<title>Node2&#45;&gt;Node17</title>
<g id="a_edge25_Node000002_Node000017"><a xlink:title=" ">
<path fill="none" stroke="#63b8ff" d="M1227.14,-488.82C1249.26,-480.79 1274.04,-468.54 1291.38,-450.5 1330.83,-409.44 1323.19,-332.28 1319.06,-305.33"/>
<polygon fill="#63b8ff" stroke="#63b8ff" points="1226.31,-485.41 1217.97,-491.94 1228.56,-492.03 1226.31,-485.41"/>
</a>
</g>
</g>
<!-- Node18 -->
<g id="Node000018" class="node">
<title>Node18</title>
<g id="a_Node000018"><a xlink:href="can_2raw_8h.html" target="_top" xlink:title="Definitions high&#45;level RAW CAN interface.">
<polygon fill="white" stroke="#666666" points="1190.5,-305.12 1070.25,-305.12 1070.25,-284.38 1190.5,-284.38 1190.5,-305.12"/>
<text text-anchor="middle" x="1130.38" y="-291.62" font-family="Helvetica,sans-Serif" font-size="10.00">sys/include/can/raw.h</text>
</a>
</g>
</g>
<!-- Node2&#45;&gt;Node18 -->
<g id="edge31_Node000002_Node000018" class="edge">
<title>Node2&#45;&gt;Node18</title>
<g id="a_edge31_Node000002_Node000018"><a xlink:title=" ">
<path fill="none" stroke="#63b8ff" d="M1167.03,-482.26C1162.94,-472.81 1158.38,-461.25 1155.38,-450.5 1140.34,-396.77 1133.35,-329.86 1131.17,-305.33"/>
<polygon fill="#63b8ff" stroke="#63b8ff" points="1163.75,-483.5 1171.05,-491.18 1170.14,-480.63 1163.75,-483.5"/>
</a>
</g>
</g>
<!-- Node20 -->
<g id="Node000020" class="node">
<title>Node20</title>
<g id="a_Node000020"><a xlink:href="isotp_8h.html" target="_top" xlink:title="ISO TP high level interface.">
<polygon fill="white" stroke="#666666" points="544.88,-444.12 417.88,-444.12 417.88,-423.38 544.88,-423.38 544.88,-444.12"/>
<text text-anchor="middle" x="481.38" y="-430.62" font-family="Helvetica,sans-Serif" font-size="10.00">sys/include/can/isotp.h</text>
</a>
</g>
</g>
<!-- Node2&#45;&gt;Node20 -->
<g id="edge26_Node000002_Node000020" class="edge">
<title>Node2&#45;&gt;Node20</title>
<g id="a_edge26_Node000002_Node000020"><a xlink:title=" ">
<path fill="none" stroke="#63b8ff" d="M1092.19,-494.07C951.41,-480.4 671.29,-453.2 545.34,-440.96"/>
<polygon fill="#63b8ff" stroke="#63b8ff" points="1091.51,-497.52 1101.8,-495.01 1092.19,-490.56 1091.51,-497.52"/>
</a>
</g>
</g>
<!-- Node22 -->
<g id="Node000022" class="node">
<title>Node22</title>
<g id="a_Node000022"><a xlink:href="can_2pkt_8h.html" target="_top" xlink:title="CAN memory allocation module.">
<polygon fill="white" stroke="#666666" points="1282.75,-444.12 1164,-444.12 1164,-423.38 1282.75,-423.38 1282.75,-444.12"/>
<text text-anchor="middle" x="1223.38" y="-430.62" font-family="Helvetica,sans-Serif" font-size="10.00">sys/include/can/pkt.h</text>
</a>
</g>
</g>
<!-- Node2&#45;&gt;Node22 -->
<g id="edge28_Node000002_Node000022" class="edge">
<title>Node2&#45;&gt;Node22</title>
<g id="a_edge28_Node000002_Node000022"><a xlink:title=" ">
<path fill="none" stroke="#63b8ff" d="M1189.54,-483.35C1198.36,-470.68 1209.61,-454.52 1216.65,-444.4"/>
<polygon fill="#63b8ff" stroke="#63b8ff" points="1186.82,-481.13 1183.97,-491.34 1192.56,-485.13 1186.82,-481.13"/>
</a>
</g>
</g>
<!-- Node4 -->
<g id="Node000004" class="node">
<title>Node4</title>
<g id="a_Node000004"><a xlink:href="can__esp_8h.html" target="_top" xlink:title=" ">
<polygon fill="white" stroke="#666666" points="608.38,-381 484.38,-381 484.38,-347.5 608.38,-347.5 608.38,-381"/>
<text text-anchor="start" x="492.38" y="-367.5" font-family="Helvetica,sans-Serif" font-size="10.00">cpu/esp32/include/can</text>
<text text-anchor="middle" x="546.38" y="-354.75" font-family="Helvetica,sans-Serif" font-size="10.00">_esp.h</text>
</a>
</g>
</g>
<!-- Node3&#45;&gt;Node4 -->
<g id="edge3_Node000003_Node000004" class="edge">
<title>Node3&#45;&gt;Node4</title>
<g id="a_edge3_Node000003_Node000004"><a xlink:title=" ">
<path fill="none" stroke="#63b8ff" d="M768.96,-417.42C720.89,-406.15 655.98,-390.94 608.67,-379.85"/>
<polygon fill="#63b8ff" stroke="#63b8ff" points="767.86,-420.75 778.39,-419.63 769.45,-413.94 767.86,-420.75"/>
</a>
</g>
</g>
<!-- Node6 -->
<g id="Node000006" class="node">
<title>Node6</title>
<g id="a_Node000006"><a xlink:href="candev__linux_8h.html" target="_top" xlink:title="Implementation of simulated CAN controller driver using SocketCAN on Linux.">
<polygon fill="white" stroke="#666666" points="1052,-311.5 946.75,-311.5 946.75,-278 1052,-278 1052,-311.5"/>
<text text-anchor="start" x="954.75" y="-298" font-family="Helvetica,sans-Serif" font-size="10.00">cpu/native/include</text>
<text text-anchor="middle" x="999.38" y="-285.25" font-family="Helvetica,sans-Serif" font-size="10.00">/candev_linux.h</text>
</a>
</g>
</g>
<!-- Node3&#45;&gt;Node6 -->
<g id="edge5_Node000003_Node000006" class="edge">
<title>Node3&#45;&gt;Node6</title>
<g id="a_edge5_Node000003_Node000006"><a xlink:title=" ">
<path fill="none" stroke="#63b8ff" d="M900.4,-427.52C963.18,-421.02 1051.11,-407.38 1072.38,-381 1081.72,-369.41 1079.21,-360.73 1072.38,-347.5 1064.39,-332.04 1049.41,-320.21 1035.1,-311.78"/>
<polygon fill="#63b8ff" stroke="#63b8ff" points="900.1,-424.03 890.5,-428.5 900.8,-431 900.1,-424.03"/>
</a>
</g>
</g>
<!-- Node8 -->
<g id="Node000008" class="node">
<title>Node8</title>
<g id="a_Node000008"><a xlink:href="candev__stm32_8h.html" target="_top" xlink:title="bxCAN specific definitions">
<polygon fill="white" stroke="#666666" points="1063.12,-381 919.62,-381 919.62,-347.5 1063.12,-347.5 1063.12,-381"/>
<text text-anchor="start" x="927.62" y="-367.5" font-family="Helvetica,sans-Serif" font-size="10.00">cpu/stm32/include/candev</text>
<text text-anchor="middle" x="991.38" y="-354.75" font-family="Helvetica,sans-Serif" font-size="10.00">_stm32.h</text>
</a>
</g>
</g>
<!-- Node3&#45;&gt;Node8 -->
<g id="edge7_Node000003_Node000008" class="edge">
<title>Node3&#45;&gt;Node8</title>
<g id="a_edge7_Node000003_Node000008"><a xlink:title=" ">
<path fill="none" stroke="#63b8ff" d="M882.52,-412.05C905.44,-402.2 932.43,-390.59 953.8,-381.4"/>
<polygon fill="#63b8ff" stroke="#63b8ff" points="881.18,-408.82 873.37,-415.98 883.94,-415.25 881.18,-408.82"/>
</a>
</g>
</g>
<!-- Node9 -->
<g id="Node000009" class="node">
<title>Node9</title>
<g id="a_Node000009"><a xlink:href="candev__mcp2515_8h.html" target="_top" xlink:title="Definition of the implementation of the CAN controller driver.">
<polygon fill="white" stroke="#666666" points="466.5,-381 340.25,-381 340.25,-347.5 466.5,-347.5 466.5,-381"/>
<text text-anchor="start" x="348.25" y="-367.5" font-family="Helvetica,sans-Serif" font-size="10.00">drivers/include/candev</text>
<text text-anchor="middle" x="403.38" y="-354.75" font-family="Helvetica,sans-Serif" font-size="10.00">_mcp2515.h</text>
</a>
</g>
</g>
<!-- Node3&#45;&gt;Node9 -->
<g id="edge8_Node000003_Node000009" class="edge">
<title>Node3&#45;&gt;Node9</title>
<g id="a_edge8_Node000003_Node000009"><a xlink:title=" ">
<path fill="none" stroke="#63b8ff" d="M768.88,-424.75C696.74,-415.61 577.42,-399.49 475.38,-381 472.61,-380.5 469.78,-379.97 466.93,-379.41"/>
<polygon fill="#63b8ff" stroke="#63b8ff" points="768.19,-428.19 778.55,-425.97 769.06,-421.25 768.19,-428.19"/>
</a>
</g>
</g>
<!-- Node13 -->
<g id="Node000013" class="node">
<title>Node13</title>
<g id="a_Node000013"><a xlink:href="drivers_2include_2periph_2can_8h.html" target="_top" xlink:title="Low&#45;level CAN peripheral driver interface definitions.">
<polygon fill="white" stroke="#666666" points="748.25,-381 626.5,-381 626.5,-347.5 748.25,-347.5 748.25,-381"/>
<text text-anchor="start" x="634.5" y="-367.5" font-family="Helvetica,sans-Serif" font-size="10.00">drivers/include/periph</text>
<text text-anchor="middle" x="687.38" y="-354.75" font-family="Helvetica,sans-Serif" font-size="10.00">/can.h</text>
</a>
</g>
</g>
<!-- Node3&#45;&gt;Node13 -->
<g id="edge12_Node000003_Node000013" class="edge">
<title>Node3&#45;&gt;Node13</title>
<g id="a_edge12_Node000003_Node000013"><a xlink:title=" ">
<path fill="none" stroke="#63b8ff" d="M788.71,-411.78C767.38,-401.99 742.38,-390.51 722.55,-381.4"/>
<polygon fill="#63b8ff" stroke="#63b8ff" points="787.24,-414.96 797.79,-415.95 790.16,-408.6 787.24,-414.96"/>
</a>
</g>
</g>
<!-- Node15 -->
<g id="Node000015" class="node">
<title>Node15</title>
<g id="a_Node000015"><a xlink:href="sys_2include_2can_2device_8h.html" target="_top" xlink:title="Definitions of CAN device interface.">
<polygon fill="white" stroke="#666666" points="902,-374.62 766.75,-374.62 766.75,-353.88 902,-353.88 902,-374.62"/>
<text text-anchor="middle" x="834.38" y="-361.12" font-family="Helvetica,sans-Serif" font-size="10.00">sys/include/can/device.h</text>
</a>
</g>
</g>
<!-- Node3&#45;&gt;Node15 -->
<g id="edge15_Node000003_Node000015" class="edge">
<title>Node3&#45;&gt;Node15</title>
<g id="a_edge15_Node000003_Node000015"><a xlink:title=" ">
<path fill="none" stroke="#63b8ff" d="M834.38,-405.28C834.38,-394.58 834.38,-383.01 834.38,-375.07"/>
<polygon fill="#63b8ff" stroke="#63b8ff" points="830.88,-405.24 834.38,-415.24 837.88,-405.24 830.88,-405.24"/>
</a>
</g>
</g>
<!-- Node5 -->
<g id="Node000005" class="node">
<title>Node5</title>
<g id="a_Node000005"><a xlink:href="esp32_2include_2can__params_8h.html" target="_top" xlink:title="ESP32 CAN controller driver (esp_can) default parameters.">
<polygon fill="white" stroke="#666666" points="614.38,-311.5 490.38,-311.5 490.38,-278 614.38,-278 614.38,-311.5"/>
<text text-anchor="start" x="498.38" y="-298" font-family="Helvetica,sans-Serif" font-size="10.00">cpu/esp32/include/can</text>
<text text-anchor="middle" x="552.38" y="-285.25" font-family="Helvetica,sans-Serif" font-size="10.00">_params.h</text>
</a>
</g>
</g>
<!-- Node4&#45;&gt;Node5 -->
<g id="edge4_Node000004_Node000005" class="edge">
<title>Node4&#45;&gt;Node5</title>
<g id="a_edge4_Node000004_Node000005"><a xlink:title=" ">
<path fill="none" stroke="#63b8ff" d="M548.81,-335.81C549.54,-327.59 550.32,-318.84 550.96,-311.63"/>
<polygon fill="#63b8ff" stroke="#63b8ff" points="545.33,-335.48 547.93,-345.75 552.3,-336.1 545.33,-335.48"/>
</a>
</g>
</g>
<!-- Node7 -->
<g id="Node000007" class="node">
<title>Node7</title>
<g id="a_Node000007"><a xlink:href="native_2include_2can__params_8h.html" target="_top" xlink:title="Default linux can config.">
<polygon fill="white" stroke="#666666" points="998,-242 892.75,-242 892.75,-208.5 998,-208.5 998,-242"/>
<text text-anchor="start" x="900.75" y="-228.5" font-family="Helvetica,sans-Serif" font-size="10.00">cpu/native/include</text>
<text text-anchor="middle" x="945.38" y="-215.75" font-family="Helvetica,sans-Serif" font-size="10.00">/can_params.h</text>
</a>
</g>
</g>
<!-- Node6&#45;&gt;Node7 -->
<g id="edge6_Node000006_Node000007" class="edge">
<title>Node6&#45;&gt;Node7</title>
<g id="a_edge6_Node000006_Node000007"><a xlink:title=" ">
<path fill="none" stroke="#63b8ff" d="M979.48,-268.88C972.32,-259.94 964.45,-250.1 958.08,-242.13"/>
<polygon fill="#63b8ff" stroke="#63b8ff" points="976.65,-270.95 985.63,-276.57 982.12,-266.58 976.65,-270.95"/>
</a>
</g>
</g>
<!-- Node10 -->
<g id="Node000010" class="node">
<title>Node10</title>
<g id="a_Node000010"><a xlink:href="mcp2515__params_8h.html" target="_top" xlink:title="Parameters for the CAN driver implementation.">
<polygon fill="white" stroke="#666666" points="472.38,-311.5 336.38,-311.5 336.38,-278 472.38,-278 472.38,-311.5"/>
<text text-anchor="start" x="344.38" y="-298" font-family="Helvetica,sans-Serif" font-size="10.00">drivers/mcp2515/include</text>
<text text-anchor="middle" x="404.38" y="-285.25" font-family="Helvetica,sans-Serif" font-size="10.00">/mcp2515_params.h</text>
</a>
</g>
</g>
<!-- Node9&#45;&gt;Node10 -->
<g id="edge9_Node000009_Node000010" class="edge">
<title>Node9&#45;&gt;Node10</title>
<g id="a_edge9_Node000009_Node000010"><a xlink:title=" ">
<path fill="none" stroke="#63b8ff" d="M403.78,-335.81C403.9,-327.59 404.03,-318.84 404.14,-311.63"/>
<polygon fill="#63b8ff" stroke="#63b8ff" points="400.28,-335.69 403.63,-345.74 407.28,-335.79 400.28,-335.69"/>
</a>
</g>
</g>
<!-- Node11 -->
<g id="Node000011" class="node">
<title>Node11</title>
<g id="a_Node000011"><a xlink:href="mcp2515_8h.html" target="_top" xlink:title="Driver for the Microchip MCP2515 can controller.">
<polygon fill="white" stroke="#666666" points="154.75,-305.12 0,-305.12 0,-284.38 154.75,-284.38 154.75,-305.12"/>
<text text-anchor="middle" x="77.38" y="-291.62" font-family="Helvetica,sans-Serif" font-size="10.00">drivers/mcp2515/mcp2515.h</text>
</a>
</g>
</g>
<!-- Node9&#45;&gt;Node11 -->
<g id="edge10_Node000009_Node000011" class="edge">
<title>Node9&#45;&gt;Node11</title>
<g id="a_edge10_Node000009_Node000011"><a xlink:title=" ">
<path fill="none" stroke="#63b8ff" d="M328.58,-346.93C252.6,-330.93 175.39,-315.33 126.59,-305.56"/>
<polygon fill="#63b8ff" stroke="#63b8ff" points="327.79,-350.34 338.3,-348.97 329.24,-343.49 327.79,-350.34"/>
</a>
</g>
</g>
<!-- Node12 -->
<g id="Node000012" class="node">
<title>Node12</title>
<g id="a_Node000012"><a xlink:href="mcp2515__spi_8h.html" target="_top" xlink:title="Driver for the Microchip MCP2515 can controller.">
<polygon fill="white" stroke="#666666" points="318.25,-311.5 172.5,-311.5 172.5,-278 318.25,-278 318.25,-311.5"/>
<text text-anchor="start" x="180.5" y="-298" font-family="Helvetica,sans-Serif" font-size="10.00">drivers/mcp2515/mcp2515</text>
<text text-anchor="middle" x="245.38" y="-285.25" font-family="Helvetica,sans-Serif" font-size="10.00">_spi.h</text>
</a>
</g>
</g>
<!-- Node9&#45;&gt;Node12 -->
<g id="edge11_Node000009_Node000012" class="edge">
<title>Node9&#45;&gt;Node12</title>
<g id="a_edge11_Node000009_Node000012"><a xlink:title=" ">
<path fill="none" stroke="#63b8ff" d="M355.23,-342.68C332.11,-332.8 304.79,-321.13 283.18,-311.9"/>
<polygon fill="#63b8ff" stroke="#63b8ff" points="353.57,-345.78 364.14,-346.49 356.32,-339.34 353.57,-345.78"/>
</a>
</g>
</g>
<!-- Node13&#45;&gt;Node5 -->
<g id="edge13_Node000013_Node000005" class="edge">
<title>Node13&#45;&gt;Node5</title>
<g id="a_edge13_Node000013_Node000005"><a xlink:title=" ">
<path fill="none" stroke="#63b8ff" d="M644.86,-341.99C625.32,-332.22 602.52,-320.82 584.45,-311.79"/>
<polygon fill="#63b8ff" stroke="#63b8ff" points="643.18,-345.06 653.69,-346.41 646.31,-338.8 643.18,-345.06"/>
</a>
</g>
</g>
<!-- Node14 -->
<g id="Node000014" class="node">
<title>Node14</title>
<g id="a_Node000014"><a xlink:href="stm32_2include_2can__params_8h.html" target="_top" xlink:title="STM32 CAN controller driver (bxCAN) default parameters.">
<polygon fill="white" stroke="#666666" points="758.12,-311.5 632.62,-311.5 632.62,-278 758.12,-278 758.12,-311.5"/>
<text text-anchor="start" x="640.62" y="-298" font-family="Helvetica,sans-Serif" font-size="10.00">cpu/stm32/include/can</text>
<text text-anchor="middle" x="695.38" y="-285.25" font-family="Helvetica,sans-Serif" font-size="10.00">_params.h</text>
</a>
</g>
</g>
<!-- Node13&#45;&gt;Node14 -->
<g id="edge14_Node000013_Node000014" class="edge">
<title>Node13&#45;&gt;Node14</title>
<g id="a_edge14_Node000013_Node000014"><a xlink:title=" ">
<path fill="none" stroke="#63b8ff" d="M690.59,-336.1C691.58,-327.79 692.63,-318.93 693.49,-311.63"/>
<polygon fill="#63b8ff" stroke="#63b8ff" points="687.15,-335.41 689.45,-345.75 694.1,-336.23 687.15,-335.41"/>
</a>
</g>
</g>
<!-- Node15&#45;&gt;Node5 -->
<g id="edge16_Node000015_Node000005" class="edge">
<title>Node15&#45;&gt;Node5</title>
<g id="a_edge16_Node000015_Node000005"><a xlink:title=" ">
<path fill="none" stroke="#63b8ff" d="M782.45,-350.82C735.12,-339.49 665.13,-322.74 614.79,-310.69"/>
<polygon fill="#63b8ff" stroke="#63b8ff" points="781.36,-354.16 791.9,-353.08 782.99,-347.35 781.36,-354.16"/>
</a>
</g>
</g>
<!-- Node15&#45;&gt;Node6 -->
<g id="edge18_Node000015_Node000006" class="edge">
<title>Node15&#45;&gt;Node6</title>
<g id="a_edge18_Node000015_Node000006"><a xlink:title=" ">
<path fill="none" stroke="#63b8ff" d="M868.69,-349.21C895.2,-338.37 931.94,-323.34 959.71,-311.98"/>
<polygon fill="#63b8ff" stroke="#63b8ff" points="867.7,-345.84 859.77,-352.86 870.35,-352.31 867.7,-345.84"/>
</a>
</g>
</g>
<!-- Node15&#45;&gt;Node7 -->
<g id="edge17_Node000015_Node000007" class="edge">
<title>Node15&#45;&gt;Node7</title>
<g id="a_edge17_Node000015_Node000007"><a xlink:title=" ">
<path fill="none" stroke="#63b8ff" d="M859.4,-347C872.41,-337.69 887.94,-325.17 899.38,-311.5 917.4,-289.96 931.48,-260.24 939.1,-242.19"/>
<polygon fill="#63b8ff" stroke="#63b8ff" points="857.53,-344.03 851.29,-352.59 861.51,-349.79 857.53,-344.03"/>
</a>
</g>
</g>
<!-- Node15&#45;&gt;Node10 -->
<g id="edge21_Node000015_Node000010" class="edge">
<title>Node15&#45;&gt;Node10</title>
<g id="a_edge21_Node000015_Node000010"><a xlink:title=" ">
<path fill="none" stroke="#63b8ff" d="M778.06,-351.24C771.11,-349.91 764.09,-348.62 757.38,-347.5 635.36,-327.09 603.39,-331.91 481.38,-311.5 478.55,-311.03 475.67,-310.53 472.76,-310"/>
<polygon fill="#63b8ff" stroke="#63b8ff" points="776.9,-354.58 787.39,-353.08 778.26,-347.72 776.9,-354.58"/>
</a>
</g>
</g>
<!-- Node15&#45;&gt;Node14 -->
<g id="edge20_Node000015_Node000014" class="edge">
<title>Node15&#45;&gt;Node14</title>
<g id="a_edge20_Node000015_Node000014"><a xlink:title=" ">
<path fill="none" stroke="#63b8ff" d="M803.96,-348.48C781.76,-337.7 751.67,-323.09 728.79,-311.98"/>
<polygon fill="#63b8ff" stroke="#63b8ff" points="802.28,-351.55 812.8,-352.77 805.34,-345.26 802.28,-351.55"/>
</a>
</g>
</g>
<!-- Node16 -->
<g id="Node000016" class="node">
<title>Node16</title>
<g id="a_Node000016"><a xlink:href="samd5x_2include_2can__params_8h.html" target="_top" xlink:title="CPU specific definitions for CAN controllers.">
<polygon fill="white" stroke="#666666" points="890.12,-311.5 776.62,-311.5 776.62,-278 890.12,-278 890.12,-311.5"/>
<text text-anchor="start" x="784.62" y="-298" font-family="Helvetica,sans-Serif" font-size="10.00">cpu/samd5x/include</text>
<text text-anchor="middle" x="833.38" y="-285.25" font-family="Helvetica,sans-Serif" font-size="10.00">/can_params.h</text>
</a>
</g>
</g>
<!-- Node15&#45;&gt;Node16 -->
<g id="edge19_Node000015_Node000016" class="edge">
<title>Node15&#45;&gt;Node16</title>
<g id="a_edge19_Node000015_Node000016"><a xlink:title=" ">
<path fill="none" stroke="#63b8ff" d="M834.07,-342.38C833.92,-332.57 833.75,-321.05 833.61,-311.92"/>
<polygon fill="#63b8ff" stroke="#63b8ff" points="830.56,-342.12 834.21,-352.07 837.56,-342.01 830.56,-342.12"/>
</a>
</g>
</g>
<!-- Node15&#45;&gt;Node17 -->
<g id="edge22_Node000015_Node000017" class="edge">
<title>Node15&#45;&gt;Node17</title>
<g id="a_edge22_Node000015_Node000017"><a xlink:title=" ">
<path fill="none" stroke="#63b8ff" d="M889.68,-351.25C896.63,-349.9 903.66,-348.61 910.38,-347.5 1038.07,-326.35 1071,-328.06 1199.38,-311.5 1218.95,-308.97 1240.34,-306.14 1259.47,-303.58"/>
<polygon fill="#63b8ff" stroke="#63b8ff" points="889.48,-347.72 880.35,-353.11 890.85,-354.58 889.48,-347.72"/>
</a>
</g>
</g>
<!-- Node15&#45;&gt;Node18 -->
<g id="edge23_Node000015_Node000018" class="edge">
<title>Node15&#45;&gt;Node18</title>
<g id="a_edge23_Node000015_Node000018"><a xlink:title=" ">
<path fill="none" stroke="#63b8ff" d="M888.68,-350.87C934.66,-340.39 1002.34,-324.97 1061.38,-311.5 1069.76,-309.59 1078.72,-307.54 1087.31,-305.58"/>
<polygon fill="#63b8ff" stroke="#63b8ff" points="887.92,-347.46 878.95,-353.09 889.47,-354.28 887.92,-347.46"/>
</a>
</g>
</g>
<!-- Node19 -->
<g id="Node000019" class="node">
<title>Node19</title>
<g id="a_Node000019"><a xlink:href="can_2conn_2raw_8h.html" target="_top" xlink:title="Definitions of generic CAN interface.">
<polygon fill="white" stroke="#666666" points="1158,-242 1040.75,-242 1040.75,-208.5 1158,-208.5 1158,-242"/>
<text text-anchor="start" x="1048.75" y="-228.5" font-family="Helvetica,sans-Serif" font-size="10.00">sys/include/can/conn</text>
<text text-anchor="middle" x="1099.38" y="-215.75" font-family="Helvetica,sans-Serif" font-size="10.00">/raw.h</text>
</a>
</g>
</g>
<!-- Node18&#45;&gt;Node19 -->
<g id="edge24_Node000018_Node000019" class="edge">
<title>Node18&#45;&gt;Node19</title>
<g id="a_edge24_Node000018_Node000019"><a xlink:title=" ">
<path fill="none" stroke="#63b8ff" d="M1121.24,-273.85C1116.64,-263.84 1111.13,-251.86 1106.8,-242.42"/>
<polygon fill="#63b8ff" stroke="#63b8ff" points="1117.95,-275.08 1125.3,-282.7 1124.31,-272.16 1117.95,-275.08"/>
</a>
</g>
</g>
<!-- Node21 -->
<g id="Node000021" class="node">
<title>Node21</title>
<g id="a_Node000021"><a xlink:href="conn_2isotp_8h.html" target="_top" xlink:title="Definitions of generic CAN interface.">
<polygon fill="white" stroke="#666666" points="322,-381 204.75,-381 204.75,-347.5 322,-347.5 322,-381"/>
<text text-anchor="start" x="212.75" y="-367.5" font-family="Helvetica,sans-Serif" font-size="10.00">sys/include/can/conn</text>
<text text-anchor="middle" x="263.38" y="-354.75" font-family="Helvetica,sans-Serif" font-size="10.00">/isotp.h</text>
</a>
</g>
</g>
<!-- Node20&#45;&gt;Node21 -->
<g id="edge27_Node000020_Node000021" class="edge">
<title>Node20&#45;&gt;Node21</title>
<g id="a_edge27_Node000020_Node000021"><a xlink:title=" ">
<path fill="none" stroke="#63b8ff" d="M438.81,-419.57C403.6,-408.67 353.46,-393.14 315.79,-381.48"/>
<polygon fill="#63b8ff" stroke="#63b8ff" points="437.64,-422.87 448.23,-422.49 439.71,-416.19 437.64,-422.87"/>
</a>
</g>
</g>
<!-- Node22&#45;&gt;Node17 -->
<g id="edge29_Node000022_Node000017" class="edge">
<title>Node22&#45;&gt;Node17</title>
<g id="a_edge29_Node000022_Node000017"><a xlink:title=" ">
<path fill="none" stroke="#63b8ff" d="M1255.93,-417.48C1271.01,-408.81 1287.89,-396.56 1298.38,-381 1314.31,-357.36 1317.09,-322.47 1317.44,-305.6"/>
<polygon fill="#63b8ff" stroke="#63b8ff" points="1254.34,-414.36 1247.2,-422.19 1257.66,-420.52 1254.34,-414.36"/>
</a>
</g>
</g>
<!-- Node23 -->
<g id="Node000023" class="node">
<title>Node23</title>
<g id="a_Node000023"><a xlink:href="router_8h.html" target="_top" xlink:title="Functions for routing RX can frames.">
<polygon fill="white" stroke="#666666" points="1289.5,-374.62 1157.25,-374.62 1157.25,-353.88 1289.5,-353.88 1289.5,-374.62"/>
<text text-anchor="middle" x="1223.38" y="-361.12" font-family="Helvetica,sans-Serif" font-size="10.00">sys/include/can/router.h</text>
</a>
</g>
</g>
<!-- Node22&#45;&gt;Node23 -->
<g id="edge30_Node000022_Node000023" class="edge">
<title>Node22&#45;&gt;Node23</title>
<g id="a_edge30_Node000022_Node000023"><a xlink:title=" ">
<path fill="none" stroke="#63b8ff" d="M1223.38,-411.94C1223.38,-399.59 1223.38,-384.52 1223.38,-374.9"/>
<polygon fill="#63b8ff" stroke="#63b8ff" points="1219.88,-411.57 1223.38,-421.57 1226.88,-411.57 1219.88,-411.57"/>
</a>
</g>
</g>
<!-- Node25 -->
<g id="Node000025" class="node">
<title>Node25</title>
<g id="a_Node000025"><a xlink:href="in_8h.html" target="_top" xlink:title="Main socket header.">
<polygon fill="white" stroke="#666666" points="1543.62,-444.12 1385.12,-444.12 1385.12,-423.38 1543.62,-423.38 1543.62,-444.12"/>
<text text-anchor="middle" x="1464.38" y="-430.62" font-family="Helvetica,sans-Serif" font-size="10.00">sys/posix/include/netinet/in.h</text>
</a>
</g>
</g>
<!-- Node24&#45;&gt;Node25 -->
<g id="edge33_Node000024_Node000025" class="edge">
<title>Node24&#45;&gt;Node25</title>
<g id="a_edge33_Node000024_Node000025"><a xlink:title=" ">
<path fill="none" stroke="#63b8ff" d="M1418.97,-478.54C1431.06,-466.87 1444.98,-453.45 1454.19,-444.57"/>
<polygon fill="#63b8ff" stroke="#63b8ff" points="1416.82,-475.74 1412.05,-485.2 1421.68,-480.78 1416.82,-475.74"/>
</a>
</g>
</g>
<!-- Node26 -->
<g id="Node000026" class="node">
<title>Node26</title>
<g id="a_Node000026"><a xlink:href="inet_8h.html" target="_top" xlink:title="Definitions for internet operations.">
<polygon fill="white" stroke="#666666" points="1558.75,-381 1434,-381 1434,-347.5 1558.75,-347.5 1558.75,-381"/>
<text text-anchor="start" x="1442" y="-367.5" font-family="Helvetica,sans-Serif" font-size="10.00">sys/posix/include/arpa</text>
<text text-anchor="middle" x="1496.38" y="-354.75" font-family="Helvetica,sans-Serif" font-size="10.00">/inet.h</text>
</a>
</g>
</g>
<!-- Node25&#45;&gt;Node26 -->
<g id="edge34_Node000025_Node000026" class="edge">
<title>Node25&#45;&gt;Node26</title>
<g id="a_edge34_Node000025_Node000026"><a xlink:title=" ">
<path fill="none" stroke="#63b8ff" d="M1473.81,-412.85C1478.56,-402.84 1484.24,-390.86 1488.71,-381.42"/>
<polygon fill="#63b8ff" stroke="#63b8ff" points="1470.73,-411.18 1469.61,-421.71 1477.05,-414.17 1470.73,-411.18"/>
</a>
</g>
</g>
<!-- Node27 -->
<g id="Node000027" class="node">
<title>Node27</title>
<g id="a_Node000027"><a xlink:href="nanocoap_8h.html" target="_top" xlink:title="nanocoap API">
<polygon fill="white" stroke="#666666" points="1570.75,-305.12 1422,-305.12 1422,-284.38 1570.75,-284.38 1570.75,-305.12"/>
<text text-anchor="middle" x="1496.38" y="-291.62" font-family="Helvetica,sans-Serif" font-size="10.00">sys/include/net/nanocoap.h</text>
</a>
</g>
</g>
<!-- Node26&#45;&gt;Node27 -->
<g id="edge35_Node000026_Node000027" class="edge">
<title>Node26&#45;&gt;Node27</title>
<g id="a_edge35_Node000026_Node000027"><a xlink:title=" ">
<path fill="none" stroke="#63b8ff" d="M1496.38,-335.78C1496.38,-325.08 1496.38,-313.51 1496.38,-305.57"/>
<polygon fill="#63b8ff" stroke="#63b8ff" points="1492.88,-335.74 1496.38,-345.74 1499.88,-335.74 1492.88,-335.74"/>
</a>
</g>
</g>
<!-- Node40 -->
<g id="Node000040" class="node">
<title>Node40</title>
<g id="a_Node000040"><a xlink:href="uhcp_8h.html" target="_top" xlink:title="UHCP header.">
<polygon fill="white" stroke="#666666" points="1713.75,-305.12 1589,-305.12 1589,-284.38 1713.75,-284.38 1713.75,-305.12"/>
<text text-anchor="middle" x="1651.38" y="-291.62" font-family="Helvetica,sans-Serif" font-size="10.00">sys/include/net/uhcp.h</text>
</a>
</g>
</g>
<!-- Node26&#45;&gt;Node40 -->
<g id="edge50_Node000026_Node000040" class="edge">
<title>Node26&#45;&gt;Node40</title>
<g id="a_edge50_Node000026_Node000040"><a xlink:title=" ">
<path fill="none" stroke="#63b8ff" d="M1543.99,-342.51C1572.26,-330.2 1606.8,-315.16 1628.94,-305.52"/>
<polygon fill="#63b8ff" stroke="#63b8ff" points="1542.66,-339.28 1534.89,-346.48 1545.45,-345.69 1542.66,-339.28"/>
</a>
</g>
</g>
<!-- Node28 -->
<g id="Node000028" class="node">
<title>Node28</title>
<g id="a_Node000028"><a xlink:href="lc_8h.html" target="_top" xlink:title="CoRE Resource Directory lookup interface.">
<polygon fill="white" stroke="#666666" points="1310.25,-235.62 1176.5,-235.62 1176.5,-214.88 1310.25,-214.88 1310.25,-235.62"/>
<text text-anchor="middle" x="1243.38" y="-222.12" font-family="Helvetica,sans-Serif" font-size="10.00">sys/include/net/cord/lc.h</text>
</a>
</g>
</g>
<!-- Node27&#45;&gt;Node28 -->
<g id="edge36_Node000027_Node000028" class="edge">
<title>Node27&#45;&gt;Node28</title>
<g id="a_edge36_Node000027_Node000028"><a xlink:title=" ">
<path fill="none" stroke="#63b8ff" d="M1448.66,-281.02C1399.75,-267.97 1324.73,-247.96 1280.21,-236.08"/>
<polygon fill="#63b8ff" stroke="#63b8ff" points="1447.56,-284.35 1458.12,-283.54 1449.36,-277.59 1447.56,-284.35"/>
</a>
</g>
</g>
<!-- Node29 -->
<g id="Node000029" class="node">
<title>Node29</title>
<g id="a_Node000029"><a xlink:href="gcoap_8h.html" target="_top" xlink:title="gcoap definition">
<polygon fill="white" stroke="#666666" points="1701.75,-166.12 1571,-166.12 1571,-145.38 1701.75,-145.38 1701.75,-166.12"/>
<text text-anchor="middle" x="1636.38" y="-152.62" font-family="Helvetica,sans-Serif" font-size="10.00">sys/include/net/gcoap.h</text>
</a>
</g>
</g>
<!-- Node27&#45;&gt;Node29 -->
<g id="edge37_Node000027_Node000029" class="edge">
<title>Node27&#45;&gt;Node29</title>
<g id="a_edge37_Node000027_Node000029"><a xlink:title=" ">
<path fill="none" stroke="#63b8ff" d="M1506.44,-273.92C1516.51,-255.43 1533.36,-227.89 1553.38,-208.5 1571.91,-190.54 1597.7,-175.66 1615.59,-166.54"/>
<polygon fill="#63b8ff" stroke="#63b8ff" points="1503.35,-272.28 1501.78,-282.76 1509.54,-275.54 1503.35,-272.28"/>
</a>
</g>
</g>
<!-- Node32 -->
<g id="Node000032" class="node">
<title>Node32</title>
<g id="a_Node000032"><a xlink:href="forward__proxy_8h.html" target="_top" xlink:title="Definitions for the GCoAP forward proxy.">
<polygon fill="white" stroke="#666666" points="1557.25,-96.62 1435.5,-96.62 1435.5,-63.12 1557.25,-63.12 1557.25,-96.62"/>
<text text-anchor="start" x="1443.5" y="-83.12" font-family="Helvetica,sans-Serif" font-size="10.00">sys/include/net/gcoap</text>
<text text-anchor="middle" x="1496.38" y="-70.38" font-family="Helvetica,sans-Serif" font-size="10.00">/forward_proxy.h</text>
</a>
</g>
</g>
<!-- Node27&#45;&gt;Node32 -->
<g id="edge42_Node000027_Node000032" class="edge">
<title>Node27&#45;&gt;Node32</title>
<g id="a_edge42_Node000027_Node000032"><a xlink:title=" ">
<path fill="none" stroke="#63b8ff" d="M1496.38,-272.67C1496.38,-230.15 1496.38,-134.93 1496.38,-96.96"/>
<polygon fill="#63b8ff" stroke="#63b8ff" points="1492.88,-272.54 1496.38,-282.54 1499.88,-272.54 1492.88,-272.54"/>
</a>
</g>
</g>
<!-- Node34 -->
<g id="Node000034" class="node">
<title>Node34</title>
<g id="a_Node000034"><a xlink:href="nanocoap_2cache_8h.html" target="_top" xlink:title="nanocoap&#45;cache API">
<polygon fill="white" stroke="#666666" points="1860.25,-242 1720.5,-242 1720.5,-208.5 1860.25,-208.5 1860.25,-242"/>
<text text-anchor="start" x="1728.5" y="-228.5" font-family="Helvetica,sans-Serif" font-size="10.00">sys/include/net/nanocoap</text>
<text text-anchor="middle" x="1790.38" y="-215.75" font-family="Helvetica,sans-Serif" font-size="10.00">/cache.h</text>
</a>
</g>
</g>
<!-- Node27&#45;&gt;Node34 -->
<g id="edge43_Node000027_Node000034" class="edge">
<title>Node27&#45;&gt;Node34</title>
<g id="a_edge43_Node000027_Node000034"><a xlink:title=" ">
<path fill="none" stroke="#63b8ff" d="M1550.16,-281.4C1597.95,-270.43 1668.09,-254.32 1720.26,-242.35"/>
<polygon fill="#63b8ff" stroke="#63b8ff" points="1549.56,-277.95 1540.6,-283.6 1551.13,-284.77 1549.56,-277.95"/>
</a>
</g>
</g>
<!-- Node35 -->
<g id="Node000035" class="node">
<title>Node35</title>
<g id="a_Node000035"><a xlink:href="fileserver_8h.html" target="_top" xlink:title="Resource handler for the CoAP file system server.">
<polygon fill="white" stroke="#666666" points="1702.25,-242 1562.5,-242 1562.5,-208.5 1702.25,-208.5 1702.25,-242"/>
<text text-anchor="start" x="1570.5" y="-228.5" font-family="Helvetica,sans-Serif" font-size="10.00">sys/include/net/nanocoap</text>
<text text-anchor="middle" x="1632.38" y="-215.75" font-family="Helvetica,sans-Serif" font-size="10.00">/fileserver.h</text>
</a>
</g>
</g>
<!-- Node27&#45;&gt;Node35 -->
<g id="edge45_Node000027_Node000035" class="edge">
<title>Node27&#45;&gt;Node35</title>
<g id="a_edge45_Node000027_Node000035"><a xlink:title=" ">
<path fill="none" stroke="#63b8ff" d="M1526.43,-278.83C1548.12,-268.07 1577.4,-253.54 1599.68,-242.48"/>
<polygon fill="#63b8ff" stroke="#63b8ff" points="1524.91,-275.68 1517.51,-283.26 1528.02,-281.95 1524.91,-275.68"/>
</a>
</g>
</g>
<!-- Node36 -->
<g id="Node000036" class="node">
<title>Node36</title>
<g id="a_Node000036"><a xlink:href="nanocoap__sock_8h.html" target="_top" xlink:title="nanocoap high&#45;level API">
<polygon fill="white" stroke="#666666" points="1468.25,-242 1328.5,-242 1328.5,-208.5 1468.25,-208.5 1468.25,-242"/>
<text text-anchor="start" x="1336.5" y="-228.5" font-family="Helvetica,sans-Serif" font-size="10.00">sys/include/net/nanocoap</text>
<text text-anchor="middle" x="1398.38" y="-215.75" font-family="Helvetica,sans-Serif" font-size="10.00">_sock.h</text>
</a>
</g>
</g>
<!-- Node27&#45;&gt;Node36 -->
<g id="edge46_Node000027_Node000036" class="edge">
<title>Node27&#45;&gt;Node36</title>
<g id="a_edge46_Node000027_Node000036"><a xlink:title=" ">
<path fill="none" stroke="#63b8ff" d="M1472.95,-277.62C1457.5,-266.97 1437.32,-253.07 1421.85,-242.42"/>
<polygon fill="#63b8ff" stroke="#63b8ff" points="1470.87,-280.43 1481.09,-283.22 1474.84,-274.67 1470.87,-280.43"/>
</a>
</g>
</g>
<!-- Node30 -->
<g id="Node000030" class="node">
<title>Node30</title>
<g id="a_Node000030"><a xlink:href="gcoap_2dns_8h.html" target="_top" xlink:title="gcoap_dns definitions">
<polygon fill="white" stroke="#666666" points="1697.25,-96.62 1575.5,-96.62 1575.5,-63.12 1697.25,-63.12 1697.25,-96.62"/>
<text text-anchor="start" x="1583.5" y="-83.12" font-family="Helvetica,sans-Serif" font-size="10.00">sys/include/net/gcoap</text>
<text text-anchor="middle" x="1636.38" y="-70.38" font-family="Helvetica,sans-Serif" font-size="10.00">/dns.h</text>
</a>
</g>
</g>
<!-- Node29&#45;&gt;Node30 -->
<g id="edge38_Node000029_Node000030" class="edge">
<title>Node29&#45;&gt;Node30</title>
<g id="a_edge38_Node000029_Node000030"><a xlink:title=" ">
<path fill="none" stroke="#63b8ff" d="M1636.38,-133.76C1636.38,-122.1 1636.38,-107.81 1636.38,-97.03"/>
<polygon fill="#63b8ff" stroke="#63b8ff" points="1632.88,-133.58 1636.38,-143.58 1639.88,-133.58 1632.88,-133.58"/>
</a>
</g>
</g>
<!-- Node29&#45;&gt;Node32 -->
<g id="edge40_Node000029_Node000032" class="edge">
<title>Node29&#45;&gt;Node32</title>
<g id="a_edge40_Node000029_Node000032"><a xlink:title=" ">
<path fill="none" stroke="#63b8ff" d="M1607.75,-139.65C1584.29,-127.26 1551.15,-109.78 1527.12,-97.1"/>
<polygon fill="#63b8ff" stroke="#63b8ff" points="1605.97,-142.66 1616.45,-144.23 1609.23,-136.47 1605.97,-142.66"/>
</a>
</g>
</g>
<!-- Node33 -->
<g id="Node000033" class="node">
<title>Node33</title>
<g id="a_Node000033"><a xlink:href="forward__proxy__internal_8h.html" target="_top" xlink:title="Definitions for the GCoAP forward proxy internal communication.">
<polygon fill="white" stroke="#666666" points="1857,-103 1715.75,-103 1715.75,-56.75 1857,-56.75 1857,-103"/>
<text text-anchor="start" x="1723.75" y="-89.5" font-family="Helvetica,sans-Serif" font-size="10.00">sys/net/application</text>
<text text-anchor="start" x="1723.75" y="-76.75" font-family="Helvetica,sans-Serif" font-size="10.00">_layer/gcoap/include</text>
<text text-anchor="middle" x="1786.38" y="-64" font-family="Helvetica,sans-Serif" font-size="10.00">/forward_proxy_internal.h</text>
</a>
</g>
</g>
<!-- Node29&#45;&gt;Node33 -->
<g id="edge41_Node000029_Node000033" class="edge">
<title>Node29&#45;&gt;Node33</title>
<g id="a_edge41_Node000029_Node000033"><a xlink:title=" ">
<path fill="none" stroke="#63b8ff" d="M1666.62,-139.86C1687.79,-129.43 1716.47,-115.3 1740.46,-103.49"/>
<polygon fill="#63b8ff" stroke="#63b8ff" points="1665.08,-136.71 1657.65,-144.27 1668.17,-142.99 1665.08,-136.71"/>
</a>
</g>
</g>
<!-- Node31 -->
<g id="Node000031" class="node">
<title>Node31</title>
<g id="a_Node000031"><a xlink:href="dns_8h.html" target="_top" xlink:title="Generic DNS values.">
<polygon fill="white" stroke="#666666" points="1695.75,-20.75 1577,-20.75 1577,0 1695.75,0 1695.75,-20.75"/>
<text text-anchor="middle" x="1636.38" y="-7.25" font-family="Helvetica,sans-Serif" font-size="10.00">sys/include/net/dns.h</text>
</a>
</g>
</g>
<!-- Node30&#45;&gt;Node31 -->
<g id="edge39_Node000030_Node000031" class="edge">
<title>Node30&#45;&gt;Node31</title>
<g id="a_edge39_Node000030_Node000031"><a xlink:title=" ">
<path fill="none" stroke="#63b8ff" d="M1636.38,-51.41C1636.38,-40.71 1636.38,-29.13 1636.38,-21.2"/>
<polygon fill="#63b8ff" stroke="#63b8ff" points="1632.88,-51.36 1636.38,-61.36 1639.88,-51.36 1632.88,-51.36"/>
</a>
</g>
</g>
<!-- Node34&#45;&gt;Node29 -->
<g id="edge44_Node000034_Node000029" class="edge">
<title>Node34&#45;&gt;Node29</title>
<g id="a_edge44_Node000034_Node000029"><a xlink:title=" ">
<path fill="none" stroke="#63b8ff" d="M1743.07,-203.51C1714.98,-191.2 1680.66,-176.16 1658.67,-166.52"/>
<polygon fill="#63b8ff" stroke="#63b8ff" points="1741.54,-206.67 1752.1,-207.47 1744.35,-200.25 1741.54,-206.67"/>
</a>
</g>
</g>
<!-- Node37 -->
<g id="Node000037" class="node">
<title>Node37</title>
<g id="a_Node000037"><a xlink:href="fs_8h.html" target="_top" xlink:title="nanoCoAP virtual file system">
<polygon fill="white" stroke="#666666" points="1152.75,-166.12 992,-166.12 992,-145.38 1152.75,-145.38 1152.75,-166.12"/>
<text text-anchor="middle" x="1072.38" y="-152.62" font-family="Helvetica,sans-Serif" font-size="10.00">sys/include/net/nanocoap/fs.h</text>
</a>
</g>
</g>
<!-- Node36&#45;&gt;Node37 -->
<g id="edge47_Node000036_Node000037" class="edge">
<title>Node36&#45;&gt;Node37</title>
<g id="a_edge47_Node000036_Node000037"><a xlink:title=" ">
<path fill="none" stroke="#63b8ff" d="M1317.1,-207.42C1255.02,-194.57 1171.59,-177.29 1119.94,-166.6"/>
<polygon fill="#63b8ff" stroke="#63b8ff" points="1316.06,-210.78 1326.56,-209.38 1317.47,-203.92 1316.06,-210.78"/>
</a>
</g>
</g>
<!-- Node38 -->
<g id="Node000038" class="node">
<title>Node38</title>
<g id="a_Node000038"><a xlink:href="link__format_8h.html" target="_top" xlink:title="NanoCoAP Link Format helper functions.">
<polygon fill="white" stroke="#666666" points="1310.25,-172.5 1170.5,-172.5 1170.5,-139 1310.25,-139 1310.25,-172.5"/>
<text text-anchor="start" x="1178.5" y="-159" font-family="Helvetica,sans-Serif" font-size="10.00">sys/include/net/nanocoap</text>
<text text-anchor="middle" x="1240.38" y="-146.25" font-family="Helvetica,sans-Serif" font-size="10.00">/link_format.h</text>
</a>
</g>
</g>
<!-- Node36&#45;&gt;Node38 -->
<g id="edge48_Node000036_Node000038" class="edge">
<title>Node36&#45;&gt;Node38</title>
<g id="a_edge48_Node000036_Node000038"><a xlink:title=" ">
<path fill="none" stroke="#63b8ff" d="M1350.23,-203.68C1327.11,-193.8 1299.79,-182.13 1278.18,-172.9"/>
<polygon fill="#63b8ff" stroke="#63b8ff" points="1348.57,-206.78 1359.14,-207.49 1351.32,-200.34 1348.57,-206.78"/>
</a>
</g>
</g>
<!-- Node39 -->
<g id="Node000039" class="node">
<title>Node39</title>
<g id="a_Node000039"><a xlink:href="nanocoap__vfs_8h.html" target="_top" xlink:title="VFS NanoCoAP helper functions.">
<polygon fill="white" stroke="#666666" points="1468.25,-172.5 1328.5,-172.5 1328.5,-139 1468.25,-139 1468.25,-172.5"/>
<text text-anchor="start" x="1336.5" y="-159" font-family="Helvetica,sans-Serif" font-size="10.00">sys/include/net/nanocoap</text>
<text text-anchor="middle" x="1398.38" y="-146.25" font-family="Helvetica,sans-Serif" font-size="10.00">_vfs.h</text>
</a>
</g>
</g>
<!-- Node36&#45;&gt;Node39 -->
<g id="edge49_Node000036_Node000039" class="edge">
<title>Node36&#45;&gt;Node39</title>
<g id="a_edge49_Node000036_Node000039"><a xlink:title=" ">
<path fill="none" stroke="#63b8ff" d="M1398.38,-196.81C1398.38,-188.59 1398.38,-179.84 1398.38,-172.63"/>
<polygon fill="#63b8ff" stroke="#63b8ff" points="1394.88,-196.74 1398.38,-206.74 1401.88,-196.74 1394.88,-196.74"/>
</a>
</g>
</g>
</g>
</svg>
