<?xml version="1.0" encoding="UTF-8" standalone="no"?>
<!DOCTYPE svg PUBLIC "-//W3C//DTD SVG 1.1//EN"
 "http://www.w3.org/Graphics/SVG/1.1/DTD/svg11.dtd">
<!-- Generated by graphviz version 12.1.2 (0)
 -->
<!-- Title: sys/include/usb.h Pages: 1 -->
<svg width="1055pt" height="307pt"
 viewBox="0.00 0.00 1054.75 306.75" xmlns="http://www.w3.org/2000/svg" xmlns:xlink="http://www.w3.org/1999/xlink">
<g id="graph0" class="graph" transform="scale(1 1) rotate(0) translate(4 302.75)">
<title>sys/include/usb.h</title>
<!-- Node1 -->
<g id="Node000001" class="node">
<title>Node1</title>
<g id="a_Node000001"><a xlink:title="Definition of global compile time configuration options.">
<polygon fill="#999999" stroke="#666666" points="655.75,-298.75 555.75,-298.75 555.75,-278 655.75,-278 655.75,-298.75"/>
<text text-anchor="middle" x="605.75" y="-285.25" font-family="Helvetica,sans-Serif" font-size="10.00">sys/include/usb.h</text>
</a>
</g>
</g>
<!-- Node2 -->
<g id="Node000002" class="node">
<title>Node2</title>
<g id="a_Node000002"><a xlink:href="usbdev_8h.html" target="_top" xlink:title="Definitions low&#45;level USB driver interface.">
<polygon fill="white" stroke="#666666" points="463.62,-242 341.88,-242 341.88,-208.5 463.62,-208.5 463.62,-242"/>
<text text-anchor="start" x="349.88" y="-228.5" font-family="Helvetica,sans-Serif" font-size="10.00">drivers/include/periph</text>
<text text-anchor="middle" x="402.75" y="-215.75" font-family="Helvetica,sans-Serif" font-size="10.00">/usbdev.h</text>
</a>
</g>
</g>
<!-- Node1&#45;&gt;Node2 -->
<g id="edge1_Node000001_Node000002" class="edge">
<title>Node1&#45;&gt;Node2</title>
<g id="a_edge1_Node000001_Node000002"><a xlink:title=" ">
<path fill="none" stroke="#63b8ff" d="M562.28,-274.28C531.38,-264.98 489.68,-252.43 456.67,-242.48"/>
<polygon fill="#63b8ff" stroke="#63b8ff" points="561.1,-277.59 571.69,-277.12 563.12,-270.88 561.1,-277.59"/>
</a>
</g>
</g>
<!-- Node6 -->
<g id="Node000006" class="node">
<title>Node6</title>
<g id="a_Node000006"><a xlink:href="usbus_8h.html" target="_top" xlink:title="USBUS basic interface.">
<polygon fill="white" stroke="#666666" points="627.5,-166.12 496,-166.12 496,-145.38 627.5,-145.38 627.5,-166.12"/>
<text text-anchor="middle" x="561.75" y="-152.62" font-family="Helvetica,sans-Serif" font-size="10.00">sys/include/usb/usbus.h</text>
</a>
</g>
</g>
<!-- Node1&#45;&gt;Node6 -->
<g id="edge20_Node000001_Node000006" class="edge">
<title>Node1&#45;&gt;Node6</title>
<g id="a_edge20_Node000001_Node000006"><a xlink:title=" ">
<path fill="none" stroke="#63b8ff" d="M593.52,-268.05C588.98,-260.21 584.12,-250.91 580.75,-242 570.78,-215.62 565.27,-182.57 563,-166.47"/>
<polygon fill="#63b8ff" stroke="#63b8ff" points="590.38,-269.64 598.56,-276.38 596.37,-266.01 590.38,-269.64"/>
</a>
</g>
</g>
<!-- Node17 -->
<g id="Node000017" class="node">
<title>Node17</title>
<g id="a_Node000017"><a xlink:href="cdc_8h.html" target="_top" xlink:title="Definition for USB CDC interfaces.">
<polygon fill="white" stroke="#666666" points="709.5,-235.62 590,-235.62 590,-214.88 709.5,-214.88 709.5,-235.62"/>
<text text-anchor="middle" x="649.75" y="-222.12" font-family="Helvetica,sans-Serif" font-size="10.00">sys/include/usb/cdc.h</text>
</a>
</g>
</g>
<!-- Node1&#45;&gt;Node17 -->
<g id="edge17_Node000001_Node000017" class="edge">
<title>Node1&#45;&gt;Node17</title>
<g id="a_edge17_Node000001_Node000017"><a xlink:title=" ">
<path fill="none" stroke="#63b8ff" d="M619.37,-268.46C627.15,-257.65 636.57,-244.55 642.84,-235.84"/>
<polygon fill="#63b8ff" stroke="#63b8ff" points="616.71,-266.17 613.7,-276.33 622.39,-270.25 616.71,-266.17"/>
</a>
</g>
</g>
<!-- Node18 -->
<g id="Node000018" class="node">
<title>Node18</title>
<g id="a_Node000018"><a xlink:href="dfu_8h.html" target="_top" xlink:title="Definition for USB DFU interfaces.">
<polygon fill="white" stroke="#666666" points="846.12,-235.62 727.38,-235.62 727.38,-214.88 846.12,-214.88 846.12,-235.62"/>
<text text-anchor="middle" x="786.75" y="-222.12" font-family="Helvetica,sans-Serif" font-size="10.00">sys/include/usb/dfu.h</text>
</a>
</g>
</g>
<!-- Node1&#45;&gt;Node18 -->
<g id="edge19_Node000001_Node000018" class="edge">
<title>Node1&#45;&gt;Node18</title>
<g id="a_edge19_Node000001_Node000018"><a xlink:title=" ">
<path fill="none" stroke="#63b8ff" d="M645.3,-274.02C679.22,-262.56 727.29,-246.33 757.74,-236.05"/>
<polygon fill="#63b8ff" stroke="#63b8ff" points="644.62,-270.55 636.26,-277.07 646.86,-277.19 644.62,-270.55"/>
</a>
</g>
</g>
<!-- Node3 -->
<g id="Node000003" class="node">
<title>Node3</title>
<g id="a_Node000003"><a xlink:href="nrfusb_8h.html" target="_top" xlink:title="USB interface functions for the nrf52840 class devices.">
<polygon fill="white" stroke="#666666" points="309.75,-172.5 161.75,-172.5 161.75,-139 309.75,-139 309.75,-172.5"/>
<text text-anchor="start" x="169.75" y="-159" font-family="Helvetica,sans-Serif" font-size="10.00">cpu/nrf5x_common/include</text>
<text text-anchor="middle" x="235.75" y="-146.25" font-family="Helvetica,sans-Serif" font-size="10.00">/nrfusb.h</text>
</a>
</g>
</g>
<!-- Node2&#45;&gt;Node3 -->
<g id="edge2_Node000002_Node000003" class="edge">
<title>Node2&#45;&gt;Node3</title>
<g id="a_edge2_Node000002_Node000003"><a xlink:title=" ">
<path fill="none" stroke="#63b8ff" d="M352.2,-203.82C327.68,-193.91 298.65,-182.18 275.71,-172.9"/>
<polygon fill="#63b8ff" stroke="#63b8ff" points="350.76,-207.01 361.35,-207.51 353.39,-200.52 350.76,-207.01"/>
</a>
</g>
</g>
<!-- Node4 -->
<g id="Node000004" class="node">
<title>Node4</title>
<g id="a_Node000004"><a xlink:href="sam__usb_8h.html" target="_top" xlink:title="USB interface functions for the sam0 class devices.">
<polygon fill="white" stroke="#666666" points="477.5,-172.5 328,-172.5 328,-139 477.5,-139 477.5,-172.5"/>
<text text-anchor="start" x="336" y="-159" font-family="Helvetica,sans-Serif" font-size="10.00">cpu/sam0_common/include</text>
<text text-anchor="middle" x="402.75" y="-146.25" font-family="Helvetica,sans-Serif" font-size="10.00">/sam_usb.h</text>
</a>
</g>
</g>
<!-- Node2&#45;&gt;Node4 -->
<g id="edge3_Node000002_Node000004" class="edge">
<title>Node2&#45;&gt;Node4</title>
<g id="a_edge3_Node000002_Node000004"><a xlink:title=" ">
<path fill="none" stroke="#63b8ff" d="M402.75,-196.81C402.75,-188.59 402.75,-179.84 402.75,-172.63"/>
<polygon fill="#63b8ff" stroke="#63b8ff" points="399.25,-196.74 402.75,-206.74 406.25,-196.74 399.25,-196.74"/>
</a>
</g>
</g>
<!-- Node5 -->
<g id="Node000005" class="node">
<title>Node5</title>
<g id="a_Node000005"><a xlink:href="usbdev__stm32_8h.html" target="_top" xlink:title="USB interface functions for the stm32 OTG FS/HS class devices.">
<polygon fill="white" stroke="#666666" points="143.5,-172.5 0,-172.5 0,-139 143.5,-139 143.5,-172.5"/>
<text text-anchor="start" x="8" y="-159" font-family="Helvetica,sans-Serif" font-size="10.00">cpu/stm32/include/usbdev</text>
<text text-anchor="middle" x="71.75" y="-146.25" font-family="Helvetica,sans-Serif" font-size="10.00">_stm32.h</text>
</a>
</g>
</g>
<!-- Node2&#45;&gt;Node5 -->
<g id="edge4_Node000002_Node000005" class="edge">
<title>Node2&#45;&gt;Node5</title>
<g id="a_edge4_Node000002_Node000005"><a xlink:title=" ">
<path fill="none" stroke="#63b8ff" d="M330.51,-209.52C275.13,-198.22 199.05,-182.71 143.72,-171.43"/>
<polygon fill="#63b8ff" stroke="#63b8ff" points="329.67,-212.92 340.17,-211.49 331.07,-206.06 329.67,-212.92"/>
</a>
</g>
</g>
<!-- Node2&#45;&gt;Node6 -->
<g id="edge5_Node000002_Node000006" class="edge">
<title>Node2&#45;&gt;Node6</title>
<g id="a_edge5_Node000002_Node000006"><a xlink:title=" ">
<path fill="none" stroke="#63b8ff" d="M451.21,-203.68C480.28,-191.33 515.92,-176.2 538.73,-166.52"/>
<polygon fill="#63b8ff" stroke="#63b8ff" points="450.06,-200.36 442.23,-207.49 452.8,-206.8 450.06,-200.36"/>
</a>
</g>
</g>
<!-- Node7 -->
<g id="Node000007" class="node">
<title>Node7</title>
<g id="a_Node000007"><a xlink:href="msc_8h.html" target="_top" xlink:title="USB Mass Storage Class functions definitions.">
<polygon fill="white" stroke="#666666" points="162.38,-96.62 39.12,-96.62 39.12,-75.88 162.38,-75.88 162.38,-96.62"/>
<text text-anchor="middle" x="100.75" y="-83.12" font-family="Helvetica,sans-Serif" font-size="10.00">sys/include/usb/msc.h</text>
</a>
</g>
</g>
<!-- Node6&#45;&gt;Node7 -->
<g id="edge6_Node000006_Node000007" class="edge">
<title>Node6&#45;&gt;Node7</title>
<g id="a_edge6_Node000006_Node000007"><a xlink:title=" ">
<path fill="none" stroke="#63b8ff" d="M507.45,-142.74C500.5,-141.38 493.47,-140.09 486.75,-139 349.85,-116.72 313.68,-125.09 176.75,-103 166.37,-101.33 155.27,-99.21 144.83,-97.08"/>
<polygon fill="#63b8ff" stroke="#63b8ff" points="506.27,-146.07 516.77,-144.61 507.66,-139.21 506.27,-146.07"/>
</a>
</g>
</g>
<!-- Node8 -->
<g id="Node000008" class="node">
<title>Node8</title>
<g id="a_Node000008"><a xlink:href="acm_8h.html" target="_top" xlink:title="Interface and definitions for USB CDC ACM type interfaces in USBUS.">
<polygon fill="white" stroke="#666666" points="1046,-103 923.5,-103 923.5,-69.5 1046,-69.5 1046,-103"/>
<text text-anchor="start" x="931.5" y="-89.5" font-family="Helvetica,sans-Serif" font-size="10.00">sys/include/usb/usbus</text>
<text text-anchor="middle" x="984.75" y="-76.75" font-family="Helvetica,sans-Serif" font-size="10.00">/cdc/acm.h</text>
</a>
</g>
</g>
<!-- Node6&#45;&gt;Node8 -->
<g id="edge7_Node000006_Node000008" class="edge">
<title>Node6&#45;&gt;Node8</title>
<g id="a_edge7_Node000006_Node000008"><a xlink:title=" ">
<path fill="none" stroke="#63b8ff" d="M638.98,-145.03C710.47,-135.65 819.62,-120.34 913.75,-103 916.85,-102.43 920.03,-101.82 923.23,-101.18"/>
<polygon fill="#63b8ff" stroke="#63b8ff" points="638.8,-141.52 629.33,-146.29 639.7,-148.47 638.8,-141.52"/>
</a>
</g>
</g>
<!-- Node10 -->
<g id="Node000010" class="node">
<title>Node10</title>
<g id="a_Node000010"><a xlink:href="ecm_8h.html" target="_top" xlink:title="Interface and definitions for USB CDC ECM type interfaces.">
<polygon fill="white" stroke="#666666" points="297,-33.5 174.5,-33.5 174.5,0 297,0 297,-33.5"/>
<text text-anchor="start" x="182.5" y="-20" font-family="Helvetica,sans-Serif" font-size="10.00">sys/include/usb/usbus</text>
<text text-anchor="middle" x="235.75" y="-7.25" font-family="Helvetica,sans-Serif" font-size="10.00">/cdc/ecm.h</text>
</a>
</g>
</g>
<!-- Node6&#45;&gt;Node10 -->
<g id="edge9_Node000006_Node000010" class="edge">
<title>Node6&#45;&gt;Node10</title>
<g id="a_edge9_Node000006_Node000010"><a xlink:title=" ">
<path fill="none" stroke="#63b8ff" d="M506.68,-142.68C499.98,-141.36 493.22,-140.1 486.75,-139 425.55,-128.61 250.72,-149.64 209.75,-103 192.49,-83.35 209.35,-52.49 222.8,-33.79"/>
<polygon fill="#63b8ff" stroke="#63b8ff" points="505.86,-146.08 516.35,-144.63 507.25,-139.22 505.86,-146.08"/>
</a>
</g>
</g>
<!-- Node11 -->
<g id="Node000011" class="node">
<title>Node11</title>
<g id="a_Node000011"><a xlink:href="control_8h.html" target="_top" xlink:title="USBUS control endpoint module.">
<polygon fill="white" stroke="#666666" points="341,-103 218.5,-103 218.5,-69.5 341,-69.5 341,-103"/>
<text text-anchor="start" x="226.5" y="-89.5" font-family="Helvetica,sans-Serif" font-size="10.00">sys/include/usb/usbus</text>
<text text-anchor="middle" x="279.75" y="-76.75" font-family="Helvetica,sans-Serif" font-size="10.00">/control.h</text>
</a>
</g>
</g>
<!-- Node6&#45;&gt;Node11 -->
<g id="edge10_Node000006_Node000011" class="edge">
<title>Node6&#45;&gt;Node11</title>
<g id="a_edge10_Node000006_Node000011"><a xlink:title=" ">
<path fill="none" stroke="#63b8ff" d="M509.77,-142.31C462.2,-130.92 391.75,-114.06 341.37,-102"/>
<polygon fill="#63b8ff" stroke="#63b8ff" points="508.73,-145.66 519.27,-144.58 510.36,-138.85 508.73,-145.66"/>
</a>
</g>
</g>
<!-- Node12 -->
<g id="Node000012" class="node">
<title>Node12</title>
<g id="a_Node000012"><a xlink:href="usb_2usbus_2fmt_8h.html" target="_top" xlink:title="USBUS descriptor formatter functions.">
<polygon fill="white" stroke="#666666" points="482,-103 359.5,-103 359.5,-69.5 482,-69.5 482,-103"/>
<text text-anchor="start" x="367.5" y="-89.5" font-family="Helvetica,sans-Serif" font-size="10.00">sys/include/usb/usbus</text>
<text text-anchor="middle" x="420.75" y="-76.75" font-family="Helvetica,sans-Serif" font-size="10.00">/fmt.h</text>
</a>
</g>
</g>
<!-- Node6&#45;&gt;Node12 -->
<g id="edge12_Node000006_Node000012" class="edge">
<title>Node6&#45;&gt;Node12</title>
<g id="a_edge12_Node000006_Node000012"><a xlink:title=" ">
<path fill="none" stroke="#63b8ff" d="M530.9,-139.98C508.38,-129.2 477.85,-114.59 454.65,-103.48"/>
<polygon fill="#63b8ff" stroke="#63b8ff" points="529.35,-143.12 539.88,-144.28 532.37,-136.81 529.35,-143.12"/>
</a>
</g>
</g>
<!-- Node13 -->
<g id="Node000013" class="node">
<title>Node13</title>
<g id="a_Node000013"><a xlink:href="usbus_2hid_8h.html" target="_top" xlink:title="Interface and definitions for USB HID type interfaces in USBUS.">
<polygon fill="white" stroke="#666666" points="623,-103 500.5,-103 500.5,-69.5 623,-69.5 623,-103"/>
<text text-anchor="start" x="508.5" y="-89.5" font-family="Helvetica,sans-Serif" font-size="10.00">sys/include/usb/usbus</text>
<text text-anchor="middle" x="561.75" y="-76.75" font-family="Helvetica,sans-Serif" font-size="10.00">/hid.h</text>
</a>
</g>
</g>
<!-- Node6&#45;&gt;Node13 -->
<g id="edge13_Node000006_Node000013" class="edge">
<title>Node6&#45;&gt;Node13</title>
<g id="a_edge13_Node000006_Node000013"><a xlink:title=" ">
<path fill="none" stroke="#63b8ff" d="M561.75,-133.88C561.75,-124.07 561.75,-112.55 561.75,-103.42"/>
<polygon fill="#63b8ff" stroke="#63b8ff" points="558.25,-133.57 561.75,-143.57 565.25,-133.57 558.25,-133.57"/>
</a>
</g>
</g>
<!-- Node15 -->
<g id="Node000015" class="node">
<title>Node15</title>
<g id="a_Node000015"><a xlink:href="hid__io_8h.html" target="_top" xlink:title="USB HID callback and read/write functions.">
<polygon fill="white" stroke="#666666" points="764,-103 641.5,-103 641.5,-69.5 764,-69.5 764,-103"/>
<text text-anchor="start" x="649.5" y="-89.5" font-family="Helvetica,sans-Serif" font-size="10.00">sys/include/usb/usbus</text>
<text text-anchor="middle" x="702.75" y="-76.75" font-family="Helvetica,sans-Serif" font-size="10.00">/hid_io.h</text>
</a>
</g>
</g>
<!-- Node6&#45;&gt;Node15 -->
<g id="edge15_Node000006_Node000015" class="edge">
<title>Node6&#45;&gt;Node15</title>
<g id="a_edge15_Node000006_Node000015"><a xlink:title=" ">
<path fill="none" stroke="#63b8ff" d="M592.6,-139.98C615.12,-129.2 645.65,-114.59 668.85,-103.48"/>
<polygon fill="#63b8ff" stroke="#63b8ff" points="591.13,-136.81 583.62,-144.28 594.15,-143.12 591.13,-136.81"/>
</a>
</g>
</g>
<!-- Node16 -->
<g id="Node000016" class="node">
<title>Node16</title>
<g id="a_Node000016"><a xlink:href="usbus_2msc_8h.html" target="_top" xlink:title="USBUS Mass Storage Class functions definitions.">
<polygon fill="white" stroke="#666666" points="905,-103 782.5,-103 782.5,-69.5 905,-69.5 905,-103"/>
<text text-anchor="start" x="790.5" y="-89.5" font-family="Helvetica,sans-Serif" font-size="10.00">sys/include/usb/usbus</text>
<text text-anchor="middle" x="843.75" y="-76.75" font-family="Helvetica,sans-Serif" font-size="10.00">/msc.h</text>
</a>
</g>
</g>
<!-- Node6&#45;&gt;Node16 -->
<g id="edge16_Node000006_Node000016" class="edge">
<title>Node6&#45;&gt;Node16</title>
<g id="a_edge16_Node000006_Node000016"><a xlink:title=" ">
<path fill="none" stroke="#63b8ff" d="M613.73,-142.31C661.3,-130.92 731.75,-114.06 782.13,-102"/>
<polygon fill="#63b8ff" stroke="#63b8ff" points="613.14,-138.85 604.23,-144.58 614.77,-145.66 613.14,-138.85"/>
</a>
</g>
</g>
<!-- Node9 -->
<g id="Node000009" class="node">
<title>Node9</title>
<g id="a_Node000009"><a xlink:href="usb__board__reset__internal_8h.html" target="_top" xlink:title=" ">
<polygon fill="white" stroke="#666666" points="1046.75,-33.5 922.75,-33.5 922.75,0 1046.75,0 1046.75,-33.5"/>
<text text-anchor="start" x="930.75" y="-20" font-family="Helvetica,sans-Serif" font-size="10.00">sys/include/usb_board</text>
<text text-anchor="middle" x="984.75" y="-7.25" font-family="Helvetica,sans-Serif" font-size="10.00">_reset_internal.h</text>
</a>
</g>
</g>
<!-- Node8&#45;&gt;Node9 -->
<g id="edge8_Node000008_Node000009" class="edge">
<title>Node8&#45;&gt;Node9</title>
<g id="a_edge8_Node000008_Node000009"><a xlink:title=" ">
<path fill="none" stroke="#63b8ff" d="M984.75,-57.81C984.75,-49.59 984.75,-40.84 984.75,-33.63"/>
<polygon fill="#63b8ff" stroke="#63b8ff" points="981.25,-57.74 984.75,-67.74 988.25,-57.74 981.25,-57.74"/>
</a>
</g>
</g>
<!-- Node11&#45;&gt;Node10 -->
<g id="edge11_Node000011_Node000010" class="edge">
<title>Node11&#45;&gt;Node10</title>
<g id="a_edge11_Node000011_Node000010"><a xlink:title=" ">
<path fill="none" stroke="#63b8ff" d="M263.17,-59.81C257.44,-51.02 251.19,-41.43 246.1,-33.63"/>
<polygon fill="#63b8ff" stroke="#63b8ff" points="260.1,-61.52 268.5,-67.99 265.97,-57.7 260.1,-61.52"/>
</a>
</g>
</g>
<!-- Node14 -->
<g id="Node000014" class="node">
<title>Node14</title>
<g id="a_Node000014"><a xlink:href="ctap__hid_8h.html" target="_top" xlink:title="Definition for CTAPHID helper functions.">
<polygon fill="white" stroke="#666666" points="629,-33.5 494.5,-33.5 494.5,0 629,0 629,-33.5"/>
<text text-anchor="start" x="502.5" y="-20" font-family="Helvetica,sans-Serif" font-size="10.00">sys/include/fido2/ctap</text>
<text text-anchor="middle" x="561.75" y="-7.25" font-family="Helvetica,sans-Serif" font-size="10.00">/transport/hid/ctap_hid.h</text>
</a>
</g>
</g>
<!-- Node13&#45;&gt;Node14 -->
<g id="edge14_Node000013_Node000014" class="edge">
<title>Node13&#45;&gt;Node14</title>
<g id="a_edge14_Node000013_Node000014"><a xlink:title=" ">
<path fill="none" stroke="#63b8ff" d="M561.75,-57.81C561.75,-49.59 561.75,-40.84 561.75,-33.63"/>
<polygon fill="#63b8ff" stroke="#63b8ff" points="558.25,-57.74 561.75,-67.74 565.25,-57.74 558.25,-57.74"/>
</a>
</g>
</g>
<!-- Node17&#45;&gt;Node8 -->
<g id="edge18_Node000017_Node000008" class="edge">
<title>Node17&#45;&gt;Node8</title>
<g id="a_edge18_Node000017_Node000008"><a xlink:title=" ">
<path fill="none" stroke="#63b8ff" d="M684.35,-210.1C747,-184.48 878.85,-130.56 945.05,-103.48"/>
<polygon fill="#63b8ff" stroke="#63b8ff" points="683.17,-206.8 675.24,-213.82 685.82,-213.28 683.17,-206.8"/>
</a>
</g>
</g>
</g>
</svg>
