<?xml version="1.0" encoding="UTF-8" standalone="no"?>
<!DOCTYPE svg PUBLIC "-//W3C//DTD SVG 1.1//EN"
 "http://www.w3.org/Graphics/SVG/1.1/DTD/svg11.dtd">
<!-- Generated by graphviz version 12.1.2 (0)
 -->
<!-- Title: sys/include/net/sock/util.h Pages: 1 -->
<svg width="826pt" height="382pt"
 viewBox="0.00 0.00 825.57 382.00" xmlns="http://www.w3.org/2000/svg" xmlns:xlink="http://www.w3.org/1999/xlink">
<g id="graph0" class="graph" transform="scale(1 1) rotate(0) translate(4 378)">
<title>sys/include/net/sock/util.h</title>
<!-- Node1 -->
<g id="Node000001" class="node">
<title>Node1</title>
<g id="a_Node000001"><a xlink:title="sock utility function definitions">
<polygon fill="#999999" stroke="#666666" points="528.07,-374 413.07,-374 413.07,-340.5 528.07,-340.5 528.07,-374"/>
<text text-anchor="start" x="421.07" y="-360.5" font-family="Helvetica,sans-Serif" font-size="10.00">sys/include/net/sock</text>
<text text-anchor="middle" x="470.57" y="-347.75" font-family="Helvetica,sans-Serif" font-size="10.00">/util.h</text>
</a>
</g>
</g>
<!-- Node2 -->
<g id="Node000002" class="node">
<title>Node2</title>
<g id="a_Node000002"><a xlink:title=" ">
<polygon fill="#e0e0e0" stroke="#999999" points="148.07,-134.25 87.07,-134.25 87.07,-113.5 148.07,-113.5 148.07,-134.25"/>
<text text-anchor="middle" x="117.57" y="-120.75" font-family="Helvetica,sans-Serif" font-size="10.00">stdbool.h</text>
</a>
</g>
</g>
<!-- Node1&#45;&gt;Node2 -->
<g id="edge1_Node000001_Node000002" class="edge">
<title>Node1&#45;&gt;Node2</title>
<g id="a_edge1_Node000001_Node000002"><a xlink:title=" ">
<path fill="none" stroke="#63b8ff" d="M412.75,-347.99C317.57,-333.07 134.64,-298.43 96.57,-247.75 73.71,-217.32 92.18,-170.7 105.97,-144.51"/>
<polygon fill="#63b8ff" stroke="#63b8ff" points="108.92,-146.4 110.73,-135.96 102.81,-143 108.92,-146.4"/>
</a>
</g>
</g>
<!-- Node3 -->
<g id="Node000003" class="node">
<title>Node3</title>
<g id="a_Node000003"><a xlink:title=" ">
<polygon fill="#e0e0e0" stroke="#999999" points="324.95,-20.75 272.2,-20.75 272.2,0 324.95,0 324.95,-20.75"/>
<text text-anchor="middle" x="298.57" y="-7.25" font-family="Helvetica,sans-Serif" font-size="10.00">stdint.h</text>
</a>
</g>
</g>
<!-- Node1&#45;&gt;Node3 -->
<g id="edge2_Node000001_Node000003" class="edge">
<title>Node1&#45;&gt;Node3</title>
<g id="a_edge2_Node000001_Node000003"><a xlink:title=" ">
<path fill="none" stroke="#63b8ff" d="M528.26,-348.78C626.93,-334.38 817.57,-298.74 817.57,-238.38 817.57,-238.38 817.57,-238.38 817.57,-122.88 817.57,-24.53 456.86,-12.67 336.87,-11.44"/>
<polygon fill="#63b8ff" stroke="#63b8ff" points="336.92,-7.94 326.9,-11.36 336.87,-14.94 336.92,-7.94"/>
</a>
</g>
</g>
<!-- Node4 -->
<g id="Node000004" class="node">
<title>Node4</title>
<g id="a_Node000004"><a xlink:href="sock_2udp_8h.html" target="_top" xlink:title="UDP sock definitions.">
<polygon fill="white" stroke="#666666" points="436.2,-304.5 348.95,-304.5 348.95,-283.75 436.2,-283.75 436.2,-304.5"/>
<text text-anchor="middle" x="392.57" y="-291" font-family="Helvetica,sans-Serif" font-size="10.00">net/sock/udp.h</text>
</a>
</g>
</g>
<!-- Node1&#45;&gt;Node4 -->
<g id="edge3_Node000001_Node000004" class="edge">
<title>Node1&#45;&gt;Node4</title>
<g id="a_edge3_Node000001_Node000004"><a xlink:title=" ">
<path fill="none" stroke="#63b8ff" d="M450.08,-340.19C438.94,-331.46 425.17,-320.67 413.9,-311.84"/>
<polygon fill="#63b8ff" stroke="#63b8ff" points="416.35,-309.31 406.32,-305.9 412.04,-314.82 416.35,-309.31"/>
</a>
</g>
</g>
<!-- Node20 -->
<g id="Node000020" class="node">
<title>Node20</title>
<g id="a_Node000020"><a xlink:href="sock_2tcp_8h.html" target="_top" xlink:title="TCP sock definitions.">
<polygon fill="white" stroke="#666666" points="591.7,-304.5 507.45,-304.5 507.45,-283.75 591.7,-283.75 591.7,-304.5"/>
<text text-anchor="middle" x="549.57" y="-291" font-family="Helvetica,sans-Serif" font-size="10.00">net/sock/tcp.h</text>
</a>
</g>
</g>
<!-- Node1&#45;&gt;Node20 -->
<g id="edge32_Node000001_Node000020" class="edge">
<title>Node1&#45;&gt;Node20</title>
<g id="a_edge32_Node000001_Node000020"><a xlink:title=" ">
<path fill="none" stroke="#63b8ff" d="M491.33,-340.19C502.62,-331.46 516.56,-320.67 527.97,-311.84"/>
<polygon fill="#63b8ff" stroke="#63b8ff" points="529.89,-314.78 535.66,-305.89 525.6,-309.24 529.89,-314.78"/>
</a>
</g>
</g>
<!-- Node4&#45;&gt;Node3 -->
<g id="edge7_Node000004_Node000003" class="edge">
<title>Node4&#45;&gt;Node3</title>
<g id="a_edge7_Node000004_Node000003"><a xlink:title=" ">
<path fill="none" stroke="#63b8ff" d="M348.62,-291.11C276.34,-287.03 136.43,-275.69 96.57,-247.75 25.98,-198.25 24.9,-161.04 3.57,-77.5 1.29,-68.56 -2.43,-63.75 3.57,-56.75 36.25,-18.66 188.39,-12.23 260.49,-11.36"/>
<polygon fill="#63b8ff" stroke="#63b8ff" points="260.27,-14.86 270.24,-11.28 260.21,-7.86 260.27,-14.86"/>
</a>
</g>
</g>
<!-- Node5 -->
<g id="Node000005" class="node">
<title>Node5</title>
<g id="a_Node000005"><a xlink:href="assert_8h.html" target="_top" xlink:title="POSIX.1&#45;2008 compliant version of the assert macro.">
<polygon fill="white" stroke="#666666" points="362.07,-191 307.07,-191 307.07,-170.25 362.07,-170.25 362.07,-191"/>
<text text-anchor="middle" x="334.57" y="-177.5" font-family="Helvetica,sans-Serif" font-size="10.00">assert.h</text>
</a>
</g>
</g>
<!-- Node4&#45;&gt;Node5 -->
<g id="edge4_Node000004_Node000005" class="edge">
<title>Node4&#45;&gt;Node5</title>
<g id="a_edge4_Node000004_Node000005"><a xlink:title=" ">
<path fill="none" stroke="#63b8ff" d="M380.85,-283.53C371.29,-275.08 358.18,-261.94 350.57,-247.75 342.97,-233.56 338.93,-215.74 336.81,-202.18"/>
<polygon fill="#63b8ff" stroke="#63b8ff" points="340.33,-202.1 335.55,-192.64 333.39,-203.01 340.33,-202.1"/>
</a>
</g>
</g>
<!-- Node6 -->
<g id="Node000006" class="node">
<title>Node6</title>
<g id="a_Node000006"><a xlink:href="errno_8h.html" target="_top" xlink:title=" ">
<polygon fill="white" stroke="#666666" points="751.82,-247.75 701.32,-247.75 701.32,-227 751.82,-227 751.82,-247.75"/>
<text text-anchor="middle" x="726.57" y="-234.25" font-family="Helvetica,sans-Serif" font-size="10.00">errno.h</text>
</a>
</g>
</g>
<!-- Node4&#45;&gt;Node6 -->
<g id="edge6_Node000004_Node000006" class="edge">
<title>Node4&#45;&gt;Node6</title>
<g id="a_edge6_Node000004_Node000006"><a xlink:title=" ">
<path fill="none" stroke="#63b8ff" d="M436.59,-288.13C493.15,-281.35 594.53,-267.97 690.02,-248.09"/>
<polygon fill="#63b8ff" stroke="#63b8ff" points="690.49,-251.57 699.55,-246.08 689.04,-244.72 690.49,-251.57"/>
</a>
</g>
</g>
<!-- Node7 -->
<g id="Node000007" class="node">
<title>Node7</title>
<g id="a_Node000007"><a xlink:title=" ">
<polygon fill="#e0e0e0" stroke="#999999" points="495.57,-247.75 443.57,-247.75 443.57,-227 495.57,-227 495.57,-247.75"/>
<text text-anchor="middle" x="469.57" y="-234.25" font-family="Helvetica,sans-Serif" font-size="10.00">stdlib.h</text>
</a>
</g>
</g>
<!-- Node4&#45;&gt;Node7 -->
<g id="edge8_Node000004_Node000007" class="edge">
<title>Node4&#45;&gt;Node7</title>
<g id="a_edge8_Node000004_Node000007"><a xlink:title=" ">
<path fill="none" stroke="#63b8ff" d="M406.34,-283.34C417.51,-275.4 433.49,-264.03 446.6,-254.71"/>
<polygon fill="#63b8ff" stroke="#63b8ff" points="448.57,-257.6 454.69,-248.96 444.51,-251.9 448.57,-257.6"/>
</a>
</g>
</g>
<!-- Node8 -->
<g id="Node000008" class="node">
<title>Node8</title>
<g id="a_Node000008"><a xlink:title=" ">
<polygon fill="#e0e0e0" stroke="#999999" points="585.32,-247.75 513.82,-247.75 513.82,-227 585.32,-227 585.32,-247.75"/>
<text text-anchor="middle" x="549.57" y="-234.25" font-family="Helvetica,sans-Serif" font-size="10.00">sys/types.h</text>
</a>
</g>
</g>
<!-- Node4&#45;&gt;Node8 -->
<g id="edge9_Node000004_Node000008" class="edge">
<title>Node4&#45;&gt;Node8</title>
<g id="a_edge9_Node000004_Node000008"><a xlink:title=" ">
<path fill="none" stroke="#63b8ff" d="M420.64,-283.34C445.79,-274.57 482.92,-261.62 510.88,-251.87"/>
<polygon fill="#63b8ff" stroke="#63b8ff" points="511.76,-255.27 520.05,-248.67 509.46,-248.66 511.76,-255.27"/>
</a>
</g>
</g>
<!-- Node9 -->
<g id="Node000009" class="node">
<title>Node9</title>
<g id="a_Node000009"><a xlink:href="af_8h.html" target="_top" xlink:title="Global UNIX address family definitions.">
<polygon fill="white" stroke="#666666" points="303.95,-247.75 251.2,-247.75 251.2,-227 303.95,-227 303.95,-247.75"/>
<text text-anchor="middle" x="277.57" y="-234.25" font-family="Helvetica,sans-Serif" font-size="10.00">net/af.h</text>
</a>
</g>
</g>
<!-- Node4&#45;&gt;Node9 -->
<g id="edge10_Node000004_Node000009" class="edge">
<title>Node4&#45;&gt;Node9</title>
<g id="a_edge10_Node000004_Node000009"><a xlink:title=" ">
<path fill="none" stroke="#63b8ff" d="M372.01,-283.34C354.27,-274.89 328.39,-262.57 308.2,-252.96"/>
<polygon fill="#63b8ff" stroke="#63b8ff" points="309.85,-249.87 299.32,-248.73 306.85,-256.19 309.85,-249.87"/>
</a>
</g>
</g>
<!-- Node10 -->
<g id="Node000010" class="node">
<title>Node10</title>
<g id="a_Node000010"><a xlink:href="sock_8h.html" target="_top" xlink:title="Common sock API definitions.">
<polygon fill="white" stroke="#666666" points="425.7,-247.75 359.45,-247.75 359.45,-227 425.7,-227 425.7,-247.75"/>
<text text-anchor="middle" x="392.57" y="-234.25" font-family="Helvetica,sans-Serif" font-size="10.00">net/sock.h</text>
</a>
</g>
</g>
<!-- Node4&#45;&gt;Node10 -->
<g id="edge11_Node000004_Node000010" class="edge">
<title>Node4&#45;&gt;Node10</title>
<g id="a_edge11_Node000004_Node000010"><a xlink:title=" ">
<path fill="none" stroke="#63b8ff" d="M392.57,-283.34C392.57,-276.72 392.57,-267.72 392.57,-259.52"/>
<polygon fill="#63b8ff" stroke="#63b8ff" points="396.07,-259.59 392.57,-249.59 389.07,-259.59 396.07,-259.59"/>
</a>
</g>
</g>
<!-- Node13 -->
<g id="Node000013" class="node">
<title>Node13</title>
<g id="a_Node000013"><a xlink:href="ipv4_2addr_8h.html" target="_top" xlink:title="IPv4 address type and helper functions definitions.">
<polygon fill="white" stroke="#666666" points="270.32,-191 180.82,-191 180.82,-170.25 270.32,-170.25 270.32,-191"/>
<text text-anchor="middle" x="225.57" y="-177.5" font-family="Helvetica,sans-Serif" font-size="10.00">net/ipv4/addr.h</text>
</a>
</g>
</g>
<!-- Node4&#45;&gt;Node13 -->
<g id="edge15_Node000004_Node000013" class="edge">
<title>Node4&#45;&gt;Node13</title>
<g id="a_edge15_Node000004_Node000013"><a xlink:title=" ">
<path fill="none" stroke="#63b8ff" d="M348.52,-291.07C314.99,-287.15 270.06,-276.42 242.57,-247.75 231.03,-235.71 227.04,-216.91 225.79,-202.44"/>
<polygon fill="#63b8ff" stroke="#63b8ff" points="229.29,-202.45 225.34,-192.61 222.3,-202.76 229.29,-202.45"/>
</a>
</g>
</g>
<!-- Node18 -->
<g id="Node000018" class="node">
<title>Node18</title>
<g id="a_Node000018"><a xlink:href="ipv6_2addr_8h.html" target="_top" xlink:title="Definitions for IPv6 addresses.">
<polygon fill="white" stroke="#666666" points="195.32,-247.75 105.82,-247.75 105.82,-227 195.32,-227 195.32,-247.75"/>
<text text-anchor="middle" x="150.57" y="-234.25" font-family="Helvetica,sans-Serif" font-size="10.00">net/ipv6/addr.h</text>
</a>
</g>
</g>
<!-- Node4&#45;&gt;Node18 -->
<g id="edge26_Node000004_Node000018" class="edge">
<title>Node4&#45;&gt;Node18</title>
<g id="a_edge26_Node000004_Node000018"><a xlink:title=" ">
<path fill="none" stroke="#63b8ff" d="M349.03,-283.27C308.72,-274.15 248.63,-260.56 205.13,-250.72"/>
<polygon fill="#63b8ff" stroke="#63b8ff" points="206.18,-247.37 195.65,-248.57 204.63,-254.19 206.18,-247.37"/>
</a>
</g>
</g>
<!-- Node19 -->
<g id="Node000019" class="node">
<title>Node19</title>
<g id="a_Node000019"><a xlink:title=" ">
<polygon fill="#e0e0e0" stroke="#999999" points="683.45,-247.75 603.7,-247.75 603.7,-227 683.45,-227 683.45,-247.75"/>
<text text-anchor="middle" x="643.57" y="-234.25" font-family="Helvetica,sans-Serif" font-size="10.00">sock_types.h</text>
</a>
</g>
</g>
<!-- Node4&#45;&gt;Node19 -->
<g id="edge31_Node000004_Node000019" class="edge">
<title>Node4&#45;&gt;Node19</title>
<g id="a_edge31_Node000004_Node000019"><a xlink:title=" ">
<path fill="none" stroke="#63b8ff" d="M436.58,-283.53C480,-274.05 546.35,-259.58 592.17,-249.59"/>
<polygon fill="#63b8ff" stroke="#63b8ff" points="592.85,-253.02 601.87,-247.47 591.36,-246.18 592.85,-253.02"/>
</a>
</g>
</g>
<!-- Node5&#45;&gt;Node3 -->
<g id="edge5_Node000005_Node000003" class="edge">
<title>Node5&#45;&gt;Node3</title>
<g id="a_edge5_Node000005_Node000003"><a xlink:title=" ">
<path fill="none" stroke="#63b8ff" d="M333.26,-169.98C330.32,-149.15 322.7,-98.45 312.57,-56.75 310.58,-48.55 307.94,-39.65 305.5,-31.92"/>
<polygon fill="#63b8ff" stroke="#63b8ff" points="308.83,-30.87 302.39,-22.45 302.18,-33.05 308.83,-30.87"/>
</a>
</g>
</g>
<!-- Node10&#45;&gt;Node3 -->
<g id="edge12_Node000010_Node000003" class="edge">
<title>Node10&#45;&gt;Node3</title>
<g id="a_edge12_Node000010_Node000003"><a xlink:title=" ">
<path fill="none" stroke="#63b8ff" d="M400.15,-226.74C415.88,-205.49 449.03,-153.34 429.57,-113.5 409.33,-72.06 363.26,-42.54 331.53,-26.22"/>
<polygon fill="#63b8ff" stroke="#63b8ff" points="333.24,-23.17 322.73,-21.87 330.14,-29.44 333.24,-23.17"/>
</a>
</g>
</g>
<!-- Node11 -->
<g id="Node000011" class="node">
<title>Node11</title>
<g id="a_Node000011"><a xlink:title=" ">
<polygon fill="#e0e0e0" stroke="#999999" points="420.07,-134.25 365.07,-134.25 365.07,-113.5 420.07,-113.5 420.07,-134.25"/>
<text text-anchor="middle" x="392.57" y="-120.75" font-family="Helvetica,sans-Serif" font-size="10.00">stddef.h</text>
</a>
</g>
</g>
<!-- Node10&#45;&gt;Node11 -->
<g id="edge13_Node000010_Node000011" class="edge">
<title>Node10&#45;&gt;Node11</title>
<g id="a_edge13_Node000010_Node000011"><a xlink:title=" ">
<path fill="none" stroke="#63b8ff" d="M392.57,-226.87C392.57,-209.1 392.57,-170.47 392.57,-146.18"/>
<polygon fill="#63b8ff" stroke="#63b8ff" points="396.07,-146.19 392.57,-136.19 389.07,-146.19 396.07,-146.19"/>
</a>
</g>
</g>
<!-- Node12 -->
<g id="Node000012" class="node">
<title>Node12</title>
<g id="a_Node000012"><a xlink:href="iolist_8h.html" target="_top" xlink:title="iolist scatter / gather IO">
<polygon fill="white" stroke="#666666" points="526.07,-191 477.07,-191 477.07,-170.25 526.07,-170.25 526.07,-191"/>
<text text-anchor="middle" x="501.57" y="-177.5" font-family="Helvetica,sans-Serif" font-size="10.00">iolist.h</text>
</a>
</g>
</g>
<!-- Node10&#45;&gt;Node12 -->
<g id="edge14_Node000010_Node000012" class="edge">
<title>Node10&#45;&gt;Node12</title>
<g id="a_edge14_Node000010_Node000012"><a xlink:title=" ">
<path fill="none" stroke="#63b8ff" d="M412.06,-226.59C428.72,-218.22 452.96,-206.04 472.01,-196.47"/>
<polygon fill="#63b8ff" stroke="#63b8ff" points="473.54,-199.62 480.9,-192.01 470.39,-193.37 473.54,-199.62"/>
</a>
</g>
</g>
<!-- Node13&#45;&gt;Node2 -->
<g id="edge16_Node000013_Node000002" class="edge">
<title>Node13&#45;&gt;Node2</title>
<g id="a_edge16_Node000013_Node000002"><a xlink:title=" ">
<path fill="none" stroke="#63b8ff" d="M206.26,-169.84C189.75,-161.47 165.74,-149.29 146.87,-139.72"/>
<polygon fill="#63b8ff" stroke="#63b8ff" points="148.57,-136.66 138.06,-135.26 145.4,-142.91 148.57,-136.66"/>
</a>
</g>
</g>
<!-- Node13&#45;&gt;Node3 -->
<g id="edge17_Node000013_Node000003" class="edge">
<title>Node13&#45;&gt;Node3</title>
<g id="a_edge17_Node000013_Node000003"><a xlink:title=" ">
<path fill="none" stroke="#63b8ff" d="M231.65,-169.81C242.48,-151.98 265.33,-112.84 279.57,-77.5 285.53,-62.72 290.44,-45.4 293.77,-32.19"/>
<polygon fill="#63b8ff" stroke="#63b8ff" points="297.17,-33.01 296.11,-22.47 290.37,-31.37 297.17,-33.01"/>
</a>
</g>
</g>
<!-- Node13&#45;&gt;Node11 -->
<g id="edge18_Node000013_Node000011" class="edge">
<title>Node13&#45;&gt;Node11</title>
<g id="a_edge18_Node000013_Node000011"><a xlink:title=" ">
<path fill="none" stroke="#63b8ff" d="M255.43,-169.84C282.88,-160.84 323.75,-147.44 353.73,-137.61"/>
<polygon fill="#63b8ff" stroke="#63b8ff" points="354.79,-140.94 363.2,-134.5 352.61,-134.29 354.79,-140.94"/>
</a>
</g>
</g>
<!-- Node14 -->
<g id="Node000014" class="node">
<title>Node14</title>
<g id="a_Node000014"><a xlink:href="byteorder_8h.html" target="_top" xlink:title="Functions to work with different byte orders.">
<polygon fill="white" stroke="#666666" points="238.7,-134.25 166.45,-134.25 166.45,-113.5 238.7,-113.5 238.7,-134.25"/>
<text text-anchor="middle" x="202.57" y="-120.75" font-family="Helvetica,sans-Serif" font-size="10.00">byteorder.h</text>
</a>
</g>
</g>
<!-- Node13&#45;&gt;Node14 -->
<g id="edge19_Node000013_Node000014" class="edge">
<title>Node13&#45;&gt;Node14</title>
<g id="a_edge19_Node000013_Node000014"><a xlink:title=" ">
<path fill="none" stroke="#63b8ff" d="M221.46,-169.84C218.58,-162.99 214.63,-153.59 211.09,-145.15"/>
<polygon fill="#63b8ff" stroke="#63b8ff" points="214.34,-143.84 207.24,-135.97 207.88,-146.55 214.34,-143.84"/>
</a>
</g>
</g>
<!-- Node14&#45;&gt;Node3 -->
<g id="edge21_Node000014_Node000003" class="edge">
<title>Node14&#45;&gt;Node3</title>
<g id="a_edge21_Node000014_Node000003"><a xlink:title=" ">
<path fill="none" stroke="#63b8ff" d="M199.84,-113.45C196.46,-99.77 192.42,-74.15 203.57,-56.75 216.23,-37.02 240.04,-25.67 260.66,-19.25"/>
<polygon fill="#63b8ff" stroke="#63b8ff" points="261.55,-22.64 270.24,-16.58 259.67,-15.9 261.55,-22.64"/>
</a>
</g>
</g>
<!-- Node15 -->
<g id="Node000015" class="node">
<title>Node15</title>
<g id="a_Node000015"><a xlink:title=" ">
<polygon fill="#e0e0e0" stroke="#999999" points="64.95,-77.5 12.2,-77.5 12.2,-56.75 64.95,-56.75 64.95,-77.5"/>
<text text-anchor="middle" x="38.57" y="-64" font-family="Helvetica,sans-Serif" font-size="10.00">string.h</text>
</a>
</g>
</g>
<!-- Node14&#45;&gt;Node15 -->
<g id="edge20_Node000014_Node000015" class="edge">
<title>Node14&#45;&gt;Node15</title>
<g id="a_edge20_Node000014_Node000015"><a xlink:title=" ">
<path fill="none" stroke="#63b8ff" d="M173.25,-113.09C146.05,-104 105.43,-90.44 75.91,-80.59"/>
<polygon fill="#63b8ff" stroke="#63b8ff" points="77.23,-77.34 66.63,-77.49 75.01,-83.98 77.23,-77.34"/>
</a>
</g>
</g>
<!-- Node16 -->
<g id="Node000016" class="node">
<title>Node16</title>
<g id="a_Node000016"><a xlink:href="endian_8h.html" target="_top" xlink:title="libc header for endian conversion">
<polygon fill="white" stroke="#666666" points="270.57,-77.5 212.57,-77.5 212.57,-56.75 270.57,-56.75 270.57,-77.5"/>
<text text-anchor="middle" x="241.57" y="-64" font-family="Helvetica,sans-Serif" font-size="10.00">endian.h</text>
</a>
</g>
</g>
<!-- Node14&#45;&gt;Node16 -->
<g id="edge22_Node000014_Node000016" class="edge">
<title>Node14&#45;&gt;Node16</title>
<g id="a_edge22_Node000014_Node000016"><a xlink:title=" ">
<path fill="none" stroke="#63b8ff" d="M209.55,-113.09C214.7,-105.85 221.89,-95.76 228.15,-86.97"/>
<polygon fill="#63b8ff" stroke="#63b8ff" points="230.83,-89.24 233.78,-79.06 225.13,-85.18 230.83,-89.24"/>
</a>
</g>
</g>
<!-- Node17 -->
<g id="Node000017" class="node">
<title>Node17</title>
<g id="a_Node000017"><a xlink:href="unaligned_8h.html" target="_top" xlink:title="Unaligned but safe memory access functions.">
<polygon fill="white" stroke="#666666" points="156.07,-77.5 83.07,-77.5 83.07,-56.75 156.07,-56.75 156.07,-77.5"/>
<text text-anchor="middle" x="119.57" y="-64" font-family="Helvetica,sans-Serif" font-size="10.00">unaligned.h</text>
</a>
</g>
</g>
<!-- Node14&#45;&gt;Node17 -->
<g id="edge24_Node000014_Node000017" class="edge">
<title>Node14&#45;&gt;Node17</title>
<g id="a_edge24_Node000014_Node000017"><a xlink:title=" ">
<path fill="none" stroke="#63b8ff" d="M187.73,-113.09C175.46,-104.99 157.79,-93.33 143.51,-83.92"/>
<polygon fill="#63b8ff" stroke="#63b8ff" points="145.82,-81.25 135.55,-78.66 141.97,-87.09 145.82,-81.25"/>
</a>
</g>
</g>
<!-- Node16&#45;&gt;Node3 -->
<g id="edge23_Node000016_Node000003" class="edge">
<title>Node16&#45;&gt;Node3</title>
<g id="a_edge23_Node000016_Node000003"><a xlink:title=" ">
<path fill="none" stroke="#63b8ff" d="M251.76,-56.34C259.71,-48.71 270.94,-37.92 280.41,-28.82"/>
<polygon fill="#63b8ff" stroke="#63b8ff" points="282.59,-31.58 287.38,-22.13 277.74,-26.53 282.59,-31.58"/>
</a>
</g>
</g>
<!-- Node17&#45;&gt;Node3 -->
<g id="edge25_Node000017_Node000003" class="edge">
<title>Node17&#45;&gt;Node3</title>
<g id="a_edge25_Node000017_Node000003"><a xlink:title=" ">
<path fill="none" stroke="#63b8ff" d="M151.57,-56.34C182.25,-46.95 228.55,-32.79 260.97,-22.88"/>
<polygon fill="#63b8ff" stroke="#63b8ff" points="261.82,-26.28 270.36,-20 259.78,-19.58 261.82,-26.28"/>
</a>
</g>
</g>
<!-- Node18&#45;&gt;Node2 -->
<g id="edge27_Node000018_Node000002" class="edge">
<title>Node18&#45;&gt;Node2</title>
<g id="a_edge27_Node000018_Node000002"><a xlink:title=" ">
<path fill="none" stroke="#63b8ff" d="M147.76,-226.87C142.45,-208.94 130.85,-169.75 123.68,-145.51"/>
<polygon fill="#63b8ff" stroke="#63b8ff" points="127.1,-144.72 120.9,-136.13 120.38,-146.71 127.1,-144.72"/>
</a>
</g>
</g>
<!-- Node18&#45;&gt;Node13 -->
<g id="edge30_Node000018_Node000013" class="edge">
<title>Node18&#45;&gt;Node13</title>
<g id="a_edge30_Node000018_Node000013"><a xlink:title=" ">
<path fill="none" stroke="#63b8ff" d="M163.98,-226.59C174.86,-218.65 190.43,-207.28 203.19,-197.96"/>
<polygon fill="#63b8ff" stroke="#63b8ff" points="205.04,-200.94 211.06,-192.22 200.92,-195.29 205.04,-200.94"/>
</a>
</g>
</g>
<!-- Node18&#45;&gt;Node14 -->
<g id="edge29_Node000018_Node000014" class="edge">
<title>Node18&#45;&gt;Node14</title>
<g id="a_edge29_Node000018_Node000014"><a xlink:title=" ">
<path fill="none" stroke="#63b8ff" d="M152.72,-226.62C155.84,-213.42 162.29,-189.31 171.57,-170.25 176.1,-160.96 182.34,-151.41 188.04,-143.49"/>
<polygon fill="#63b8ff" stroke="#63b8ff" points="190.7,-145.77 193.89,-135.67 185.1,-141.58 190.7,-145.77"/>
</a>
</g>
</g>
<!-- Node18&#45;&gt;Node15 -->
<g id="edge28_Node000018_Node000015" class="edge">
<title>Node18&#45;&gt;Node15</title>
<g id="a_edge28_Node000018_Node000015"><a xlink:title=" ">
<path fill="none" stroke="#63b8ff" d="M143.23,-226.72C129.74,-208.82 100.27,-169.14 77.57,-134.25 67.58,-118.89 57.07,-100.95 49.48,-87.64"/>
<polygon fill="#63b8ff" stroke="#63b8ff" points="52.58,-86.01 44.62,-79.02 46.48,-89.45 52.58,-86.01"/>
</a>
</g>
</g>
<!-- Node20&#45;&gt;Node3 -->
<g id="edge34_Node000020_Node000003" class="edge">
<title>Node20&#45;&gt;Node3</title>
<g id="a_edge34_Node000020_Node000003"><a xlink:title=" ">
<path fill="none" stroke="#63b8ff" d="M591.92,-289.14C646.3,-283.19 736.55,-270.2 760.57,-247.75 782.92,-226.88 779.57,-212.2 779.57,-181.62 779.57,-181.62 779.57,-181.62 779.57,-122.88 779.57,-32.01 449.71,-15.18 336.32,-12.07"/>
<polygon fill="#63b8ff" stroke="#63b8ff" points="336.72,-8.58 326.63,-11.83 336.54,-15.58 336.72,-8.58"/>
</a>
</g>
</g>
<!-- Node20&#45;&gt;Node6 -->
<g id="edge33_Node000020_Node000006" class="edge">
<title>Node20&#45;&gt;Node6</title>
<g id="a_edge33_Node000020_Node000006"><a xlink:title=" ">
<path fill="none" stroke="#63b8ff" d="M581.22,-283.34C611.82,-273.87 658.14,-259.54 690.23,-249.62"/>
<polygon fill="#63b8ff" stroke="#63b8ff" points="690.98,-253.05 699.5,-246.75 688.91,-246.36 690.98,-253.05"/>
</a>
</g>
</g>
<!-- Node20&#45;&gt;Node7 -->
<g id="edge35_Node000020_Node000007" class="edge">
<title>Node20&#45;&gt;Node7</title>
<g id="a_edge35_Node000020_Node000007"><a xlink:title=" ">
<path fill="none" stroke="#63b8ff" d="M535.27,-283.34C523.55,-275.32 506.73,-263.81 493.05,-254.44"/>
<polygon fill="#63b8ff" stroke="#63b8ff" points="495.23,-251.69 485,-248.93 491.28,-257.47 495.23,-251.69"/>
</a>
</g>
</g>
<!-- Node20&#45;&gt;Node8 -->
<g id="edge36_Node000020_Node000008" class="edge">
<title>Node20&#45;&gt;Node8</title>
<g id="a_edge36_Node000020_Node000008"><a xlink:title=" ">
<path fill="none" stroke="#63b8ff" d="M549.57,-283.34C549.57,-276.72 549.57,-267.72 549.57,-259.52"/>
<polygon fill="#63b8ff" stroke="#63b8ff" points="553.07,-259.59 549.57,-249.59 546.07,-259.59 553.07,-259.59"/>
</a>
</g>
</g>
<!-- Node20&#45;&gt;Node10 -->
<g id="edge37_Node000020_Node000010" class="edge">
<title>Node20&#45;&gt;Node10</title>
<g id="a_edge37_Node000020_Node000010"><a xlink:title=" ">
<path fill="none" stroke="#63b8ff" d="M521.5,-283.34C496.35,-274.57 459.23,-261.62 431.26,-251.87"/>
<polygon fill="#63b8ff" stroke="#63b8ff" points="432.69,-248.66 422.09,-248.67 430.38,-255.27 432.69,-248.66"/>
</a>
</g>
</g>
<!-- Node20&#45;&gt;Node19 -->
<g id="edge38_Node000020_Node000019" class="edge">
<title>Node20&#45;&gt;Node19</title>
<g id="a_edge38_Node000020_Node000019"><a xlink:title=" ">
<path fill="none" stroke="#63b8ff" d="M566.38,-283.34C580.55,-275.08 601.07,-263.13 617.39,-253.63"/>
<polygon fill="#63b8ff" stroke="#63b8ff" points="618.73,-256.9 625.61,-248.84 615.2,-250.85 618.73,-256.9"/>
</a>
</g>
</g>
</g>
</svg>
