<?xml version="1.0" encoding="UTF-8" standalone="no"?>
<!DOCTYPE svg PUBLIC "-//W3C//DTD SVG 1.1//EN"
 "http://www.w3.org/Graphics/SVG/1.1/DTD/svg11.dtd">
<!-- Generated by graphviz version 12.1.2 (0)
 -->
<!-- Title: sys/include/vfs_default.h Pages: 1 -->
<svg width="964pt" height="369pt"
 viewBox="0.00 0.00 963.91 369.25" xmlns="http://www.w3.org/2000/svg" xmlns:xlink="http://www.w3.org/1999/xlink">
<g id="graph0" class="graph" transform="scale(1 1) rotate(0) translate(4 365.25)">
<title>sys/include/vfs_default.h</title>
<!-- Node1 -->
<g id="Node000001" class="node">
<title>Node1</title>
<g id="a_Node000001"><a xlink:title="VFS default mount points.">
<polygon fill="#999999" stroke="#666666" points="149.12,-361.25 11.62,-361.25 11.62,-340.5 149.12,-340.5 149.12,-361.25"/>
<text text-anchor="middle" x="80.38" y="-347.75" font-family="Helvetica,sans-Serif" font-size="10.00">sys/include/vfs_default.h</text>
</a>
</g>
</g>
<!-- Node2 -->
<g id="Node000002" class="node">
<title>Node2</title>
<g id="a_Node000002"><a xlink:title=" ">
<polygon fill="#e0e0e0" stroke="#999999" points="52.75,-304.5 0,-304.5 0,-283.75 52.75,-283.75 52.75,-304.5"/>
<text text-anchor="middle" x="26.38" y="-291" font-family="Helvetica,sans-Serif" font-size="10.00">board.h</text>
</a>
</g>
</g>
<!-- Node1&#45;&gt;Node2 -->
<g id="edge1_Node000001_Node000002" class="edge">
<title>Node1&#45;&gt;Node2</title>
<g id="a_edge1_Node000001_Node000002"><a xlink:title=" ">
<path fill="none" stroke="#63b8ff" d="M70.72,-340.09C63.27,-332.53 52.77,-321.89 43.85,-312.85"/>
<polygon fill="#63b8ff" stroke="#63b8ff" points="46.52,-310.57 37.01,-305.91 41.54,-315.48 46.52,-310.57"/>
</a>
</g>
</g>
<!-- Node3 -->
<g id="Node000003" class="node">
<title>Node3</title>
<g id="a_Node000003"><a xlink:href="modules_8h.html" target="_top" xlink:title="Common macros and compiler attributes/pragmas configuration.">
<polygon fill="white" stroke="#666666" points="118.88,-134.25 51.88,-134.25 51.88,-113.5 118.88,-113.5 118.88,-134.25"/>
<text text-anchor="middle" x="85.38" y="-120.75" font-family="Helvetica,sans-Serif" font-size="10.00">modules.h</text>
</a>
</g>
</g>
<!-- Node1&#45;&gt;Node3 -->
<g id="edge2_Node000001_Node000003" class="edge">
<title>Node1&#45;&gt;Node3</title>
<g id="a_edge2_Node000001_Node000003"><a xlink:title=" ">
<path fill="none" stroke="#63b8ff" d="M80.59,-340.21C81.34,-306.45 83.85,-193.34 84.91,-146"/>
<polygon fill="#63b8ff" stroke="#63b8ff" points="88.4,-146.1 85.13,-136.02 81.41,-145.94 88.4,-146.1"/>
</a>
</g>
</g>
<!-- Node4 -->
<g id="Node000004" class="node">
<title>Node4</title>
<g id="a_Node000004"><a xlink:href="vfs_8h.html" target="_top" xlink:title="VFS layer API declarations.">
<polygon fill="white" stroke="#666666" points="623.38,-304.5 583.38,-304.5 583.38,-283.75 623.38,-283.75 623.38,-304.5"/>
<text text-anchor="middle" x="603.38" y="-291" font-family="Helvetica,sans-Serif" font-size="10.00">vfs.h</text>
</a>
</g>
</g>
<!-- Node1&#45;&gt;Node4 -->
<g id="edge3_Node000001_Node000004" class="edge">
<title>Node1&#45;&gt;Node4</title>
<g id="a_edge3_Node000001_Node000004"><a xlink:title=" ">
<path fill="none" stroke="#63b8ff" d="M149.56,-342.63C264.01,-330.65 488.4,-307.16 571.46,-298.47"/>
<polygon fill="#63b8ff" stroke="#63b8ff" points="571.8,-301.95 581.38,-297.43 571.07,-294.99 571.8,-301.95"/>
</a>
</g>
</g>
<!-- Node5 -->
<g id="Node000005" class="node">
<title>Node5</title>
<g id="a_Node000005"><a xlink:title=" ">
<polygon fill="#e0e0e0" stroke="#999999" points="303.75,-20.75 251,-20.75 251,0 303.75,0 303.75,-20.75"/>
<text text-anchor="middle" x="277.38" y="-7.25" font-family="Helvetica,sans-Serif" font-size="10.00">stdint.h</text>
</a>
</g>
</g>
<!-- Node4&#45;&gt;Node5 -->
<g id="edge4_Node000004_Node000005" class="edge">
<title>Node4&#45;&gt;Node5</title>
<g id="a_edge4_Node000004_Node000005"><a xlink:title=" ">
<path fill="none" stroke="#63b8ff" d="M606.75,-283.4C616.15,-254.37 639.53,-167.11 601.38,-113.5 567.63,-66.08 393.33,-31.08 315.27,-17.53"/>
<polygon fill="#63b8ff" stroke="#63b8ff" points="315.97,-14.1 305.53,-15.87 314.8,-21 315.97,-14.1"/>
</a>
</g>
</g>
<!-- Node6 -->
<g id="Node000006" class="node">
<title>Node6</title>
<g id="a_Node000006"><a xlink:title=" ">
<polygon fill="#e0e0e0" stroke="#999999" points="537,-247.75 473.75,-247.75 473.75,-227 537,-227 537,-247.75"/>
<text text-anchor="middle" x="505.38" y="-234.25" font-family="Helvetica,sans-Serif" font-size="10.00">sys/stat.h</text>
</a>
</g>
</g>
<!-- Node4&#45;&gt;Node6 -->
<g id="edge5_Node000004_Node000006" class="edge">
<title>Node4&#45;&gt;Node6</title>
<g id="a_edge5_Node000004_Node000006"><a xlink:title=" ">
<path fill="none" stroke="#63b8ff" d="M585.85,-283.34C571.08,-275.08 549.69,-263.13 532.68,-253.63"/>
<polygon fill="#63b8ff" stroke="#63b8ff" points="534.5,-250.64 524.07,-248.82 531.09,-256.75 534.5,-250.64"/>
</a>
</g>
</g>
<!-- Node7 -->
<g id="Node000007" class="node">
<title>Node7</title>
<g id="a_Node000007"><a xlink:title=" ">
<polygon fill="#e0e0e0" stroke="#999999" points="713.12,-191 641.62,-191 641.62,-170.25 713.12,-170.25 713.12,-191"/>
<text text-anchor="middle" x="677.38" y="-177.5" font-family="Helvetica,sans-Serif" font-size="10.00">sys/types.h</text>
</a>
</g>
</g>
<!-- Node4&#45;&gt;Node7 -->
<g id="edge6_Node000004_Node000007" class="edge">
<title>Node4&#45;&gt;Node7</title>
<g id="a_edge6_Node000004_Node000007"><a xlink:title=" ">
<path fill="none" stroke="#63b8ff" d="M623.63,-292.02C694.68,-287.92 929.57,-272.59 951.38,-247.75 957.46,-240.82 957.34,-234.03 951.38,-227 922.87,-193.38 795.33,-184.64 724.75,-182.39"/>
<polygon fill="#63b8ff" stroke="#63b8ff" points="725.13,-178.9 715.03,-182.11 724.93,-185.89 725.13,-178.9"/>
</a>
</g>
</g>
<!-- Node8 -->
<g id="Node000008" class="node">
<title>Node8</title>
<g id="a_Node000008"><a xlink:href="statvfs_8h.html" target="_top" xlink:title="POSIX compatible sys/statvfs.h definitions.">
<polygon fill="white" stroke="#666666" points="709.5,-247.75 631.25,-247.75 631.25,-227 709.5,-227 709.5,-247.75"/>
<text text-anchor="middle" x="670.38" y="-234.25" font-family="Helvetica,sans-Serif" font-size="10.00">sys/statvfs.h</text>
</a>
</g>
</g>
<!-- Node4&#45;&gt;Node8 -->
<g id="edge7_Node000004_Node000008" class="edge">
<title>Node4&#45;&gt;Node8</title>
<g id="a_edge7_Node000004_Node000008"><a xlink:title=" ">
<path fill="none" stroke="#63b8ff" d="M615.35,-283.34C624.88,-275.55 638.44,-264.47 649.71,-255.26"/>
<polygon fill="#63b8ff" stroke="#63b8ff" points="651.8,-258.07 657.33,-249.04 647.37,-252.65 651.8,-258.07"/>
</a>
</g>
</g>
<!-- Node9 -->
<g id="Node000009" class="node">
<title>Node9</title>
<g id="a_Node000009"><a xlink:href="sched_8h.html" target="_top" xlink:title="Scheduler API definition.">
<polygon fill="white" stroke="#666666" points="430.12,-247.75 376.62,-247.75 376.62,-227 430.12,-227 430.12,-247.75"/>
<text text-anchor="middle" x="403.38" y="-234.25" font-family="Helvetica,sans-Serif" font-size="10.00">sched.h</text>
</a>
</g>
</g>
<!-- Node4&#45;&gt;Node9 -->
<g id="edge9_Node000004_Node000009" class="edge">
<title>Node4&#45;&gt;Node9</title>
<g id="a_edge9_Node000004_Node000009"><a xlink:title=" ">
<path fill="none" stroke="#63b8ff" d="M583.1,-287.57C549.89,-278.48 483.42,-260.29 441.28,-248.75"/>
<polygon fill="#63b8ff" stroke="#63b8ff" points="442.38,-245.42 431.81,-246.16 440.53,-252.17 442.38,-245.42"/>
</a>
</g>
</g>
<!-- Node18 -->
<g id="Node000018" class="node">
<title>Node18</title>
<g id="a_Node000018"><a xlink:href="clist_8h.html" target="_top" xlink:title="Circular linked list.">
<polygon fill="white" stroke="#666666" points="535,-191 489.75,-191 489.75,-170.25 535,-170.25 535,-191"/>
<text text-anchor="middle" x="512.38" y="-177.5" font-family="Helvetica,sans-Serif" font-size="10.00">clist.h</text>
</a>
</g>
</g>
<!-- Node4&#45;&gt;Node18 -->
<g id="edge28_Node000004_Node000018" class="edge">
<title>Node4&#45;&gt;Node18</title>
<g id="a_edge28_Node000004_Node000018"><a xlink:title=" ">
<path fill="none" stroke="#63b8ff" d="M595.62,-283.62C580.58,-265.2 547.24,-224.34 527.62,-200.3"/>
<polygon fill="#63b8ff" stroke="#63b8ff" points="530.36,-198.13 521.33,-192.6 524.94,-202.56 530.36,-198.13"/>
</a>
</g>
</g>
<!-- Node21 -->
<g id="Node000021" class="node">
<title>Node21</title>
<g id="a_Node000021"><a xlink:href="iolist_8h.html" target="_top" xlink:title="iolist scatter / gather IO">
<polygon fill="white" stroke="#666666" points="776.88,-247.75 727.88,-247.75 727.88,-227 776.88,-227 776.88,-247.75"/>
<text text-anchor="middle" x="752.38" y="-234.25" font-family="Helvetica,sans-Serif" font-size="10.00">iolist.h</text>
</a>
</g>
</g>
<!-- Node4&#45;&gt;Node21 -->
<g id="edge29_Node000004_Node000021" class="edge">
<title>Node4&#45;&gt;Node21</title>
<g id="a_edge29_Node000004_Node000021"><a xlink:title=" ">
<path fill="none" stroke="#63b8ff" d="M623.78,-285.63C647.74,-276.82 687.89,-262.07 716.96,-251.39"/>
<polygon fill="#63b8ff" stroke="#63b8ff" points="717.91,-254.77 726.09,-248.04 715.49,-248.2 717.91,-254.77"/>
</a>
</g>
</g>
<!-- Node22 -->
<g id="Node000022" class="node">
<title>Node22</title>
<g id="a_Node000022"><a xlink:href="core_2lib_2include_2macros_2utils_8h.html" target="_top" xlink:title="Various helper macros.">
<polygon fill="white" stroke="#666666" points="879.88,-247.75 794.88,-247.75 794.88,-227 879.88,-227 879.88,-247.75"/>
<text text-anchor="middle" x="837.38" y="-234.25" font-family="Helvetica,sans-Serif" font-size="10.00">macros/utils.h</text>
</a>
</g>
</g>
<!-- Node4&#45;&gt;Node22 -->
<g id="edge30_Node000004_Node000022" class="edge">
<title>Node4&#45;&gt;Node22</title>
<g id="a_edge30_Node000004_Node000022"><a xlink:title=" ">
<path fill="none" stroke="#63b8ff" d="M623.73,-288.36C659.19,-280.07 733.35,-262.71 784.25,-250.8"/>
<polygon fill="#63b8ff" stroke="#63b8ff" points="784.96,-254.23 793.9,-248.55 783.37,-247.42 784.96,-254.23"/>
</a>
</g>
</g>
<!-- Node23 -->
<g id="Node000023" class="node">
<title>Node23</title>
<g id="a_Node000023"><a xlink:title=" ">
<polygon fill="#e0e0e0" stroke="#999999" points="942.62,-247.75 898.12,-247.75 898.12,-227 942.62,-227 942.62,-247.75"/>
<text text-anchor="middle" x="920.38" y="-234.25" font-family="Helvetica,sans-Serif" font-size="10.00">mtd.h</text>
</a>
</g>
</g>
<!-- Node4&#45;&gt;Node23 -->
<g id="edge31_Node000004_Node000023" class="edge">
<title>Node4&#45;&gt;Node23</title>
<g id="a_edge31_Node000004_Node000023"><a xlink:title=" ">
<path fill="none" stroke="#63b8ff" d="M623.67,-290.87C669.13,-285.62 782.76,-271.37 886.78,-248.1"/>
<polygon fill="#63b8ff" stroke="#63b8ff" points="887.33,-251.56 896.31,-245.93 885.78,-244.74 887.33,-251.56"/>
</a>
</g>
</g>
<!-- Node24 -->
<g id="Node000024" class="node">
<title>Node24</title>
<g id="a_Node000024"><a xlink:href="xfa_8h.html" target="_top" xlink:title="Cross File Arrays.">
<polygon fill="white" stroke="#666666" points="198.75,-247.75 158,-247.75 158,-227 198.75,-227 198.75,-247.75"/>
<text text-anchor="middle" x="178.38" y="-234.25" font-family="Helvetica,sans-Serif" font-size="10.00">xfa.h</text>
</a>
</g>
</g>
<!-- Node4&#45;&gt;Node24 -->
<g id="edge32_Node000004_Node000024" class="edge">
<title>Node4&#45;&gt;Node24</title>
<g id="a_edge32_Node000004_Node000024"><a xlink:title=" ">
<path fill="none" stroke="#63b8ff" d="M582.88,-290.48C514.45,-281.67 293.52,-253.21 210.39,-242.5"/>
<polygon fill="#63b8ff" stroke="#63b8ff" points="211.03,-239.05 200.67,-241.25 210.14,-246 211.03,-239.05"/>
</a>
</g>
</g>
<!-- Node8&#45;&gt;Node7 -->
<g id="edge8_Node000008_Node000007" class="edge">
<title>Node8&#45;&gt;Node7</title>
<g id="a_edge8_Node000008_Node000007"><a xlink:title=" ">
<path fill="none" stroke="#63b8ff" d="M671.63,-226.59C672.48,-219.89 673.65,-210.76 674.71,-202.48"/>
<polygon fill="#63b8ff" stroke="#63b8ff" points="678.15,-203.19 675.94,-192.83 671.2,-202.31 678.15,-203.19"/>
</a>
</g>
</g>
<!-- Node10 -->
<g id="Node000010" class="node">
<title>Node10</title>
<g id="a_Node000010"><a xlink:title=" ">
<polygon fill="#e0e0e0" stroke="#999999" points="433.88,-77.5 378.88,-77.5 378.88,-56.75 433.88,-56.75 433.88,-77.5"/>
<text text-anchor="middle" x="406.38" y="-64" font-family="Helvetica,sans-Serif" font-size="10.00">stddef.h</text>
</a>
</g>
</g>
<!-- Node9&#45;&gt;Node10 -->
<g id="edge10_Node000009_Node000010" class="edge">
<title>Node9&#45;&gt;Node10</title>
<g id="a_edge10_Node000009_Node000010"><a xlink:title=" ">
<path fill="none" stroke="#63b8ff" d="M415.49,-226.66C424.83,-218.33 437.03,-205.41 442.38,-191 445.58,-182.35 444.39,-179.25 442.38,-170.25 438.5,-152.98 431.62,-150.81 425.38,-134.25 419.76,-119.34 414.83,-102.02 411.41,-88.85"/>
<polygon fill="#63b8ff" stroke="#63b8ff" points="414.81,-88.01 408.98,-79.17 408.02,-89.72 414.81,-88.01"/>
</a>
</g>
</g>
<!-- Node11 -->
<g id="Node000011" class="node">
<title>Node11</title>
<g id="a_Node000011"><a xlink:href="inttypes_8h.html" target="_top" xlink:title="Adds include for missing inttype definitions.">
<polygon fill="white" stroke="#666666" points="210.75,-191 146,-191 146,-170.25 210.75,-170.25 210.75,-191"/>
<text text-anchor="middle" x="178.38" y="-177.5" font-family="Helvetica,sans-Serif" font-size="10.00">inttypes.h</text>
</a>
</g>
</g>
<!-- Node9&#45;&gt;Node11 -->
<g id="edge11_Node000009_Node000011" class="edge">
<title>Node9&#45;&gt;Node11</title>
<g id="a_edge11_Node000009_Node000011"><a xlink:title=" ">
<path fill="none" stroke="#63b8ff" d="M376.23,-229.77C337.98,-220.46 267.79,-203.38 222.12,-192.27"/>
<polygon fill="#63b8ff" stroke="#63b8ff" points="223.09,-188.9 212.54,-189.94 221.43,-195.7 223.09,-188.9"/>
</a>
</g>
</g>
<!-- Node12 -->
<g id="Node000012" class="node">
<title>Node12</title>
<g id="a_Node000012"><a xlink:href="kernel__defines_8h.html" target="_top" xlink:title="Common macros and compiler attributes/pragmas configuration.">
<polygon fill="white" stroke="#666666" points="325.5,-191 229.25,-191 229.25,-170.25 325.5,-170.25 325.5,-191"/>
<text text-anchor="middle" x="277.38" y="-177.5" font-family="Helvetica,sans-Serif" font-size="10.00">kernel_defines.h</text>
</a>
</g>
</g>
<!-- Node9&#45;&gt;Node12 -->
<g id="edge12_Node000009_Node000012" class="edge">
<title>Node9&#45;&gt;Node12</title>
<g id="a_edge12_Node000009_Node000012"><a xlink:title=" ">
<path fill="none" stroke="#63b8ff" d="M380.85,-226.59C361.14,-218.02 332.27,-205.48 310.02,-195.81"/>
<polygon fill="#63b8ff" stroke="#63b8ff" points="311.66,-192.71 301.09,-191.93 308.87,-199.13 311.66,-192.71"/>
</a>
</g>
</g>
<!-- Node17 -->
<g id="Node000017" class="node">
<title>Node17</title>
<g id="a_Node000017"><a xlink:href="native__sched_8h.html" target="_top" xlink:title="Add definitions required on the native board.">
<polygon fill="white" stroke="#666666" points="433.12,-191 343.62,-191 343.62,-170.25 433.12,-170.25 433.12,-191"/>
<text text-anchor="middle" x="388.38" y="-177.5" font-family="Helvetica,sans-Serif" font-size="10.00">native_sched.h</text>
</a>
</g>
</g>
<!-- Node9&#45;&gt;Node17 -->
<g id="edge23_Node000009_Node000017" class="edge">
<title>Node9&#45;&gt;Node17</title>
<g id="a_edge23_Node000009_Node000017"><a xlink:title=" ">
<path fill="none" stroke="#63b8ff" d="M400.69,-226.59C398.84,-219.81 396.3,-210.55 394.01,-202.19"/>
<polygon fill="#63b8ff" stroke="#63b8ff" points="397.45,-201.51 391.43,-192.79 390.7,-203.36 397.45,-201.51"/>
</a>
</g>
</g>
<!-- Node9&#45;&gt;Node18 -->
<g id="edge24_Node000009_Node000018" class="edge">
<title>Node9&#45;&gt;Node18</title>
<g id="a_edge24_Node000009_Node000018"><a xlink:title=" ">
<path fill="none" stroke="#63b8ff" d="M422.86,-226.59C439.52,-218.22 463.76,-206.04 482.81,-196.47"/>
<polygon fill="#63b8ff" stroke="#63b8ff" points="484.34,-199.62 491.7,-192.01 481.2,-193.37 484.34,-199.62"/>
</a>
</g>
</g>
<!-- Node12&#45;&gt;Node3 -->
<g id="edge13_Node000012_Node000003" class="edge">
<title>Node12&#45;&gt;Node3</title>
<g id="a_edge13_Node000012_Node000003"><a xlink:title=" ">
<path fill="none" stroke="#63b8ff" d="M243.05,-169.84C211.42,-160.82 164.29,-147.38 129.8,-137.54"/>
<polygon fill="#63b8ff" stroke="#63b8ff" points="131.11,-134.28 120.54,-134.9 129.19,-141.01 131.11,-134.28"/>
</a>
</g>
</g>
<!-- Node13 -->
<g id="Node000013" class="node">
<title>Node13</title>
<g id="a_Node000013"><a xlink:href="riot__version_8h.html" target="_top" xlink:title="Common macros and compiler attributes/pragmas configuration.">
<polygon fill="white" stroke="#666666" points="318.75,-77.5 236,-77.5 236,-56.75 318.75,-56.75 318.75,-77.5"/>
<text text-anchor="middle" x="277.38" y="-64" font-family="Helvetica,sans-Serif" font-size="10.00">riot_version.h</text>
</a>
</g>
</g>
<!-- Node12&#45;&gt;Node13 -->
<g id="edge14_Node000012_Node000013" class="edge">
<title>Node12&#45;&gt;Node13</title>
<g id="a_edge14_Node000012_Node000013"><a xlink:title=" ">
<path fill="none" stroke="#63b8ff" d="M277.38,-170.12C277.38,-152.35 277.38,-113.72 277.38,-89.43"/>
<polygon fill="#63b8ff" stroke="#63b8ff" points="280.88,-89.44 277.38,-79.44 273.88,-89.44 280.88,-89.44"/>
</a>
</g>
</g>
<!-- Node14 -->
<g id="Node000014" class="node">
<title>Node14</title>
<g id="a_Node000014"><a xlink:href="compiler__hints_8h.html" target="_top" xlink:title="Common macros and compiler attributes/pragmas configuration.">
<polygon fill="white" stroke="#666666" points="243.88,-134.25 146.88,-134.25 146.88,-113.5 243.88,-113.5 243.88,-134.25"/>
<text text-anchor="middle" x="195.38" y="-120.75" font-family="Helvetica,sans-Serif" font-size="10.00">compiler_hints.h</text>
</a>
</g>
</g>
<!-- Node12&#45;&gt;Node14 -->
<g id="edge16_Node000012_Node000014" class="edge">
<title>Node12&#45;&gt;Node14</title>
<g id="a_edge16_Node000012_Node000014"><a xlink:title=" ">
<path fill="none" stroke="#63b8ff" d="M262.72,-169.84C250.7,-161.82 233.46,-150.31 219.44,-140.94"/>
<polygon fill="#63b8ff" stroke="#63b8ff" points="221.43,-138.06 211.17,-135.42 217.54,-143.88 221.43,-138.06"/>
</a>
</g>
</g>
<!-- Node16 -->
<g id="Node000016" class="node">
<title>Node16</title>
<g id="a_Node000016"><a xlink:href="container_8h.html" target="_top" xlink:title="Common macros and compiler attributes/pragmas configuration.">
<polygon fill="white" stroke="#666666" points="378.75,-134.25 308,-134.25 308,-113.5 378.75,-113.5 378.75,-134.25"/>
<text text-anchor="middle" x="343.38" y="-120.75" font-family="Helvetica,sans-Serif" font-size="10.00">container.h</text>
</a>
</g>
</g>
<!-- Node12&#45;&gt;Node16 -->
<g id="edge20_Node000012_Node000016" class="edge">
<title>Node12&#45;&gt;Node16</title>
<g id="a_edge20_Node000012_Node000016"><a xlink:title=" ">
<path fill="none" stroke="#63b8ff" d="M289.17,-169.84C298.56,-162.05 311.91,-150.97 323.02,-141.76"/>
<polygon fill="#63b8ff" stroke="#63b8ff" points="325.05,-144.62 330.51,-135.54 320.58,-139.24 325.05,-144.62"/>
</a>
</g>
</g>
<!-- Node13&#45;&gt;Node5 -->
<g id="edge15_Node000013_Node000005" class="edge">
<title>Node13&#45;&gt;Node5</title>
<g id="a_edge15_Node000013_Node000005"><a xlink:title=" ">
<path fill="none" stroke="#63b8ff" d="M277.38,-56.34C277.38,-49.72 277.38,-40.72 277.38,-32.52"/>
<polygon fill="#63b8ff" stroke="#63b8ff" points="280.88,-32.59 277.38,-22.59 273.88,-32.59 280.88,-32.59"/>
</a>
</g>
</g>
<!-- Node14&#45;&gt;Node5 -->
<g id="edge19_Node000014_Node000005" class="edge">
<title>Node14&#45;&gt;Node5</title>
<g id="a_edge19_Node000014_Node000005"><a xlink:title=" ">
<path fill="none" stroke="#63b8ff" d="M198.69,-113.26C203.62,-99.8 213.78,-74.93 227.38,-56.75 235.27,-46.19 245.89,-36.15 255.3,-28.21"/>
<polygon fill="#63b8ff" stroke="#63b8ff" points="257.43,-30.99 263,-21.98 253.02,-25.55 257.43,-30.99"/>
</a>
</g>
</g>
<!-- Node15 -->
<g id="Node000015" class="node">
<title>Node15</title>
<g id="a_Node000015"><a xlink:href="assert_8h.html" target="_top" xlink:title="POSIX.1&#45;2008 compliant version of the assert macro.">
<polygon fill="white" stroke="#666666" points="179.88,-77.5 124.88,-77.5 124.88,-56.75 179.88,-56.75 179.88,-77.5"/>
<text text-anchor="middle" x="152.38" y="-64" font-family="Helvetica,sans-Serif" font-size="10.00">assert.h</text>
</a>
</g>
</g>
<!-- Node14&#45;&gt;Node15 -->
<g id="edge17_Node000014_Node000015" class="edge">
<title>Node14&#45;&gt;Node15</title>
<g id="a_edge17_Node000014_Node000015"><a xlink:title=" ">
<path fill="none" stroke="#63b8ff" d="M187.69,-113.09C181.94,-105.77 173.91,-95.54 166.96,-86.69"/>
<polygon fill="#63b8ff" stroke="#63b8ff" points="169.86,-84.72 160.93,-79.02 164.35,-89.05 169.86,-84.72"/>
</a>
</g>
</g>
<!-- Node15&#45;&gt;Node5 -->
<g id="edge18_Node000015_Node000005" class="edge">
<title>Node15&#45;&gt;Node5</title>
<g id="a_edge18_Node000015_Node000005"><a xlink:title=" ">
<path fill="none" stroke="#63b8ff" d="M174.72,-56.34C194.19,-47.81 222.66,-35.34 244.68,-25.69"/>
<polygon fill="#63b8ff" stroke="#63b8ff" points="246.08,-28.9 253.83,-21.69 243.27,-22.49 246.08,-28.9"/>
</a>
</g>
</g>
<!-- Node16&#45;&gt;Node5 -->
<g id="edge22_Node000016_Node000005" class="edge">
<title>Node16&#45;&gt;Node5</title>
<g id="a_edge22_Node000016_Node000005"><a xlink:title=" ">
<path fill="none" stroke="#63b8ff" d="M342.81,-113.23C341.65,-99.74 338.11,-74.83 327.38,-56.75 320.82,-45.71 310.73,-35.81 301.32,-28.1"/>
<polygon fill="#63b8ff" stroke="#63b8ff" points="303.56,-25.41 293.5,-22.08 299.29,-30.95 303.56,-25.41"/>
</a>
</g>
</g>
<!-- Node16&#45;&gt;Node10 -->
<g id="edge21_Node000016_Node000010" class="edge">
<title>Node16&#45;&gt;Node10</title>
<g id="a_edge21_Node000016_Node000010"><a xlink:title=" ">
<path fill="none" stroke="#63b8ff" d="M354.64,-113.09C363.51,-105.38 376.09,-94.45 386.62,-85.29"/>
<polygon fill="#63b8ff" stroke="#63b8ff" points="388.81,-88.02 394.07,-78.82 384.22,-82.74 388.81,-88.02"/>
</a>
</g>
</g>
<!-- Node18&#45;&gt;Node10 -->
<g id="edge26_Node000018_Node000010" class="edge">
<title>Node18&#45;&gt;Node10</title>
<g id="a_edge26_Node000018_Node000010"><a xlink:title=" ">
<path fill="none" stroke="#63b8ff" d="M510.18,-170.06C506.6,-156.21 498.35,-130.38 483.38,-113.5 471.94,-100.61 455.94,-90.37 441.48,-82.9"/>
<polygon fill="#63b8ff" stroke="#63b8ff" points="443.2,-79.84 432.67,-78.61 440.13,-86.14 443.2,-79.84"/>
</a>
</g>
</g>
<!-- Node19 -->
<g id="Node000019" class="node">
<title>Node19</title>
<g id="a_Node000019"><a xlink:title=" ">
<polygon fill="#e0e0e0" stroke="#999999" points="591.88,-134.25 530.88,-134.25 530.88,-113.5 591.88,-113.5 591.88,-134.25"/>
<text text-anchor="middle" x="561.38" y="-120.75" font-family="Helvetica,sans-Serif" font-size="10.00">stdbool.h</text>
</a>
</g>
</g>
<!-- Node18&#45;&gt;Node19 -->
<g id="edge25_Node000018_Node000019" class="edge">
<title>Node18&#45;&gt;Node19</title>
<g id="a_edge25_Node000018_Node000019"><a xlink:title=" ">
<path fill="none" stroke="#63b8ff" d="M521.14,-169.84C527.82,-162.36 537.23,-151.86 545.26,-142.88"/>
<polygon fill="#63b8ff" stroke="#63b8ff" points="547.62,-145.49 551.68,-135.71 542.4,-140.82 547.62,-145.49"/>
</a>
</g>
</g>
<!-- Node20 -->
<g id="Node000020" class="node">
<title>Node20</title>
<g id="a_Node000020"><a xlink:href="list_8h.html" target="_top" xlink:title="Intrusive linked list.">
<polygon fill="white" stroke="#666666" points="474.38,-134.25 434.38,-134.25 434.38,-113.5 474.38,-113.5 474.38,-134.25"/>
<text text-anchor="middle" x="454.38" y="-120.75" font-family="Helvetica,sans-Serif" font-size="10.00">list.h</text>
</a>
</g>
</g>
<!-- Node18&#45;&gt;Node20 -->
<g id="edge27_Node000018_Node000020" class="edge">
<title>Node18&#45;&gt;Node20</title>
<g id="a_edge27_Node000018_Node000020"><a xlink:title=" ">
<path fill="none" stroke="#63b8ff" d="M502.01,-169.84C493.92,-162.21 482.49,-151.42 472.85,-142.32"/>
<polygon fill="#63b8ff" stroke="#63b8ff" points="475.43,-139.94 465.76,-135.62 470.62,-145.03 475.43,-139.94"/>
</a>
</g>
</g>
<!-- Node24&#45;&gt;Node11 -->
<g id="edge33_Node000024_Node000011" class="edge">
<title>Node24&#45;&gt;Node11</title>
<g id="a_edge33_Node000024_Node000011"><a xlink:title=" ">
<path fill="none" stroke="#63b8ff" d="M178.38,-226.59C178.38,-219.97 178.38,-210.97 178.38,-202.77"/>
<polygon fill="#63b8ff" stroke="#63b8ff" points="181.88,-202.84 178.38,-192.84 174.88,-202.84 181.88,-202.84"/>
</a>
</g>
</g>
<!-- Node24&#45;&gt;Node14 -->
<g id="edge34_Node000024_Node000014" class="edge">
<title>Node24&#45;&gt;Node14</title>
<g id="a_edge34_Node000024_Node000014"><a xlink:title=" ">
<path fill="none" stroke="#63b8ff" d="M165.01,-226.65C149.46,-214.07 127.14,-191.26 137.38,-170.25 143.34,-158.02 154.36,-148.12 165.22,-140.72"/>
<polygon fill="#63b8ff" stroke="#63b8ff" points="167.06,-143.69 173.7,-135.44 163.36,-137.75 167.06,-143.69"/>
</a>
</g>
</g>
</g>
</svg>
