<?xml version="1.0" encoding="UTF-8" standalone="no"?>
<!DOCTYPE svg PUBLIC "-//W3C//DTD SVG 1.1//EN"
 "http://www.w3.org/Graphics/SVG/1.1/DTD/svg11.dtd">
<!-- Generated by graphviz version 12.1.2 (0)
 -->
<!-- Title: sys/include/vfs.h Pages: 1 -->
<svg width="829pt" height="313pt"
 viewBox="0.00 0.00 829.41 312.50" xmlns="http://www.w3.org/2000/svg" xmlns:xlink="http://www.w3.org/1999/xlink">
<g id="graph0" class="graph" transform="scale(1 1) rotate(0) translate(4 308.5)">
<title>sys/include/vfs.h</title>
<!-- Node1 -->
<g id="Node000001" class="node">
<title>Node1</title>
<g id="a_Node000001"><a xlink:title="VFS layer API declarations.">
<polygon fill="#999999" stroke="#666666" points="501.04,-304.5 403.29,-304.5 403.29,-283.75 501.04,-283.75 501.04,-304.5"/>
<text text-anchor="middle" x="452.16" y="-291" font-family="Helvetica,sans-Serif" font-size="10.00">sys/include/vfs.h</text>
</a>
</g>
</g>
<!-- Node2 -->
<g id="Node000002" class="node">
<title>Node2</title>
<g id="a_Node000002"><a xlink:title=" ">
<polygon fill="#e0e0e0" stroke="#999999" points="138.54,-20.75 85.79,-20.75 85.79,0 138.54,0 138.54,-20.75"/>
<text text-anchor="middle" x="112.16" y="-7.25" font-family="Helvetica,sans-Serif" font-size="10.00">stdint.h</text>
</a>
</g>
</g>
<!-- Node1&#45;&gt;Node2 -->
<g id="edge1_Node000001_Node000002" class="edge">
<title>Node1&#45;&gt;Node2</title>
<g id="a_edge1_Node000001_Node000002"><a xlink:title=" ">
<path fill="none" stroke="#63b8ff" d="M403.04,-290.45C316.1,-285.17 138.93,-271.77 82.16,-247.75 39.05,-229.5 0.16,-228.44 0.16,-181.62 0.16,-181.62 0.16,-181.62 0.16,-122.88 0.16,-92.3 -0.49,-80.17 19.16,-56.75 33.46,-39.73 55.65,-28.56 74.78,-21.56"/>
<polygon fill="#63b8ff" stroke="#63b8ff" points="75.81,-24.91 84.17,-18.4 73.57,-18.28 75.81,-24.91"/>
</a>
</g>
</g>
<!-- Node3 -->
<g id="Node000003" class="node">
<title>Node3</title>
<g id="a_Node000003"><a xlink:title=" ">
<polygon fill="#e0e0e0" stroke="#999999" points="453.79,-247.75 390.54,-247.75 390.54,-227 453.79,-227 453.79,-247.75"/>
<text text-anchor="middle" x="422.16" y="-234.25" font-family="Helvetica,sans-Serif" font-size="10.00">sys/stat.h</text>
</a>
</g>
</g>
<!-- Node1&#45;&gt;Node3 -->
<g id="edge2_Node000001_Node000003" class="edge">
<title>Node1&#45;&gt;Node3</title>
<g id="a_edge2_Node000001_Node000003"><a xlink:title=" ">
<path fill="none" stroke="#63b8ff" d="M446.8,-283.34C442.96,-276.33 437.66,-266.66 432.96,-258.08"/>
<polygon fill="#63b8ff" stroke="#63b8ff" points="436.08,-256.49 428.21,-249.41 429.95,-259.86 436.08,-256.49"/>
</a>
</g>
</g>
<!-- Node4 -->
<g id="Node000004" class="node">
<title>Node4</title>
<g id="a_Node000004"><a xlink:title=" ">
<polygon fill="#e0e0e0" stroke="#999999" points="574.91,-191 503.41,-191 503.41,-170.25 574.91,-170.25 574.91,-191"/>
<text text-anchor="middle" x="539.16" y="-177.5" font-family="Helvetica,sans-Serif" font-size="10.00">sys/types.h</text>
</a>
</g>
</g>
<!-- Node1&#45;&gt;Node4 -->
<g id="edge3_Node000001_Node000004" class="edge">
<title>Node1&#45;&gt;Node4</title>
<g id="a_edge3_Node000001_Node000004"><a xlink:title=" ">
<path fill="none" stroke="#63b8ff" d="M458.97,-283.57C468.28,-270.6 485.6,-246.75 501.16,-227 508.3,-217.95 516.47,-208.12 523.41,-199.94"/>
<polygon fill="#63b8ff" stroke="#63b8ff" points="526.03,-202.25 529.86,-192.38 520.71,-197.71 526.03,-202.25"/>
</a>
</g>
</g>
<!-- Node5 -->
<g id="Node000005" class="node">
<title>Node5</title>
<g id="a_Node000005"><a xlink:href="statvfs_8h.html" target="_top" xlink:title="POSIX compatible sys/statvfs.h definitions.">
<polygon fill="white" stroke="#666666" points="588.29,-247.75 510.04,-247.75 510.04,-227 588.29,-227 588.29,-247.75"/>
<text text-anchor="middle" x="549.16" y="-234.25" font-family="Helvetica,sans-Serif" font-size="10.00">sys/statvfs.h</text>
</a>
</g>
</g>
<!-- Node1&#45;&gt;Node5 -->
<g id="edge4_Node000001_Node000005" class="edge">
<title>Node1&#45;&gt;Node5</title>
<g id="a_edge4_Node000001_Node000005"><a xlink:title=" ">
<path fill="none" stroke="#63b8ff" d="M469.51,-283.34C484.13,-275.08 505.3,-263.13 522.14,-253.63"/>
<polygon fill="#63b8ff" stroke="#63b8ff" points="523.67,-256.79 530.66,-248.82 520.23,-250.69 523.67,-256.79"/>
</a>
</g>
</g>
<!-- Node6 -->
<g id="Node000006" class="node">
<title>Node6</title>
<g id="a_Node000006"><a xlink:href="sched_8h.html" target="_top" xlink:title="Scheduler API definition.">
<polygon fill="white" stroke="#666666" points="333.91,-247.75 280.41,-247.75 280.41,-227 333.91,-227 333.91,-247.75"/>
<text text-anchor="middle" x="307.16" y="-234.25" font-family="Helvetica,sans-Serif" font-size="10.00">sched.h</text>
</a>
</g>
</g>
<!-- Node1&#45;&gt;Node6 -->
<g id="edge6_Node000001_Node000006" class="edge">
<title>Node1&#45;&gt;Node6</title>
<g id="a_edge6_Node000001_Node000006"><a xlink:title=" ">
<path fill="none" stroke="#63b8ff" d="M426.24,-283.34C403.15,-274.62 369.12,-261.77 343.35,-252.04"/>
<polygon fill="#63b8ff" stroke="#63b8ff" points="344.87,-248.87 334.28,-248.61 342.4,-255.42 344.87,-248.87"/>
</a>
</g>
</g>
<!-- Node16 -->
<g id="Node000016" class="node">
<title>Node16</title>
<g id="a_Node000016"><a xlink:href="clist_8h.html" target="_top" xlink:title="Circular linked list.">
<polygon fill="white" stroke="#666666" points="466.79,-191 421.54,-191 421.54,-170.25 466.79,-170.25 466.79,-191"/>
<text text-anchor="middle" x="444.16" y="-177.5" font-family="Helvetica,sans-Serif" font-size="10.00">clist.h</text>
</a>
</g>
</g>
<!-- Node1&#45;&gt;Node16 -->
<g id="edge25_Node000001_Node000016" class="edge">
<title>Node1&#45;&gt;Node16</title>
<g id="a_edge25_Node000001_Node000016"><a xlink:title=" ">
<path fill="none" stroke="#63b8ff" d="M424.5,-283.26C408.75,-276.05 390.37,-264.56 381.16,-247.75 370.17,-227.67 391.61,-209.21 412.4,-196.93"/>
<polygon fill="#63b8ff" stroke="#63b8ff" points="414.02,-200.03 421.09,-192.14 410.64,-193.9 414.02,-200.03"/>
</a>
</g>
</g>
<!-- Node19 -->
<g id="Node000019" class="node">
<title>Node19</title>
<g id="a_Node000019"><a xlink:href="iolist_8h.html" target="_top" xlink:title="iolist scatter / gather IO">
<polygon fill="white" stroke="#666666" points="655.66,-247.75 606.66,-247.75 606.66,-227 655.66,-227 655.66,-247.75"/>
<text text-anchor="middle" x="631.16" y="-234.25" font-family="Helvetica,sans-Serif" font-size="10.00">iolist.h</text>
</a>
</g>
</g>
<!-- Node1&#45;&gt;Node19 -->
<g id="edge26_Node000001_Node000019" class="edge">
<title>Node1&#45;&gt;Node19</title>
<g id="a_edge26_Node000001_Node000019"><a xlink:title=" ">
<path fill="none" stroke="#63b8ff" d="M484.17,-283.34C515.47,-273.76 563.05,-259.21 595.54,-249.27"/>
<polygon fill="#63b8ff" stroke="#63b8ff" points="596.37,-252.68 604.9,-246.41 594.32,-245.99 596.37,-252.68"/>
</a>
</g>
</g>
<!-- Node20 -->
<g id="Node000020" class="node">
<title>Node20</title>
<g id="a_Node000020"><a xlink:href="core_2lib_2include_2macros_2utils_8h.html" target="_top" xlink:title="Various helper macros.">
<polygon fill="white" stroke="#666666" points="758.66,-247.75 673.66,-247.75 673.66,-227 758.66,-227 758.66,-247.75"/>
<text text-anchor="middle" x="716.16" y="-234.25" font-family="Helvetica,sans-Serif" font-size="10.00">macros/utils.h</text>
</a>
</g>
</g>
<!-- Node1&#45;&gt;Node20 -->
<g id="edge27_Node000001_Node000020" class="edge">
<title>Node1&#45;&gt;Node20</title>
<g id="a_edge27_Node000001_Node000020"><a xlink:title=" ">
<path fill="none" stroke="#63b8ff" d="M499.67,-283.27C545.43,-273.78 614.58,-259.44 662.35,-249.53"/>
<polygon fill="#63b8ff" stroke="#63b8ff" points="662.85,-253.01 671.93,-247.55 661.42,-246.15 662.85,-253.01"/>
</a>
</g>
</g>
<!-- Node21 -->
<g id="Node000021" class="node">
<title>Node21</title>
<g id="a_Node000021"><a xlink:title=" ">
<polygon fill="#e0e0e0" stroke="#999999" points="821.41,-247.75 776.91,-247.75 776.91,-227 821.41,-227 821.41,-247.75"/>
<text text-anchor="middle" x="799.16" y="-234.25" font-family="Helvetica,sans-Serif" font-size="10.00">mtd.h</text>
</a>
</g>
</g>
<!-- Node1&#45;&gt;Node21 -->
<g id="edge28_Node000001_Node000021" class="edge">
<title>Node1&#45;&gt;Node21</title>
<g id="a_edge28_Node000001_Node000021"><a xlink:title=" ">
<path fill="none" stroke="#63b8ff" d="M501.3,-288.4C561.54,-282.09 666.86,-269.4 765.52,-248.07"/>
<polygon fill="#63b8ff" stroke="#63b8ff" points="766.09,-251.53 775.1,-245.96 764.59,-244.69 766.09,-251.53"/>
</a>
</g>
</g>
<!-- Node22 -->
<g id="Node000022" class="node">
<title>Node22</title>
<g id="a_Node000022"><a xlink:href="xfa_8h.html" target="_top" xlink:title="Cross File Arrays.">
<polygon fill="white" stroke="#666666" points="131.54,-247.75 90.79,-247.75 90.79,-227 131.54,-227 131.54,-247.75"/>
<text text-anchor="middle" x="111.16" y="-234.25" font-family="Helvetica,sans-Serif" font-size="10.00">xfa.h</text>
</a>
</g>
</g>
<!-- Node1&#45;&gt;Node22 -->
<g id="edge29_Node000001_Node000022" class="edge">
<title>Node1&#45;&gt;Node22</title>
<g id="a_edge29_Node000001_Node000022"><a xlink:title=" ">
<path fill="none" stroke="#63b8ff" d="M402.94,-285.22C332.03,-273.84 203.06,-253.13 143.24,-243.52"/>
<polygon fill="#63b8ff" stroke="#63b8ff" points="143.82,-240.07 133.39,-241.94 142.71,-246.98 143.82,-240.07"/>
</a>
</g>
</g>
<!-- Node5&#45;&gt;Node4 -->
<g id="edge5_Node000005_Node000004" class="edge">
<title>Node5&#45;&gt;Node4</title>
<g id="a_edge5_Node000005_Node000004"><a xlink:title=" ">
<path fill="none" stroke="#63b8ff" d="M547.38,-226.59C546.15,-219.89 544.49,-210.76 542.97,-202.48"/>
<polygon fill="#63b8ff" stroke="#63b8ff" points="546.45,-202.03 541.21,-192.82 539.56,-203.28 546.45,-202.03"/>
</a>
</g>
</g>
<!-- Node7 -->
<g id="Node000007" class="node">
<title>Node7</title>
<g id="a_Node000007"><a xlink:title=" ">
<polygon fill="#e0e0e0" stroke="#999999" points="420.66,-77.5 365.66,-77.5 365.66,-56.75 420.66,-56.75 420.66,-77.5"/>
<text text-anchor="middle" x="393.16" y="-64" font-family="Helvetica,sans-Serif" font-size="10.00">stddef.h</text>
</a>
</g>
</g>
<!-- Node6&#45;&gt;Node7 -->
<g id="edge7_Node000006_Node000007" class="edge">
<title>Node6&#45;&gt;Node7</title>
<g id="a_edge7_Node000006_Node000007"><a xlink:title=" ">
<path fill="none" stroke="#63b8ff" d="M330.46,-226.62C345.4,-219.11 363.87,-207.26 374.16,-191 393.92,-159.8 395.76,-115.42 394.8,-89.41"/>
<polygon fill="#63b8ff" stroke="#63b8ff" points="398.3,-89.25 394.24,-79.47 391.31,-89.65 398.3,-89.25"/>
</a>
</g>
</g>
<!-- Node8 -->
<g id="Node000008" class="node">
<title>Node8</title>
<g id="a_Node000008"><a xlink:href="inttypes_8h.html" target="_top" xlink:title="Adds include for missing inttype definitions.">
<polygon fill="white" stroke="#666666" points="143.54,-191 78.79,-191 78.79,-170.25 143.54,-170.25 143.54,-191"/>
<text text-anchor="middle" x="111.16" y="-177.5" font-family="Helvetica,sans-Serif" font-size="10.00">inttypes.h</text>
</a>
</g>
</g>
<!-- Node6&#45;&gt;Node8 -->
<g id="edge8_Node000006_Node000008" class="edge">
<title>Node6&#45;&gt;Node8</title>
<g id="a_edge8_Node000006_Node000008"><a xlink:title=" ">
<path fill="none" stroke="#63b8ff" d="M280.32,-228.88C247.97,-219.84 193.18,-204.54 154.75,-193.8"/>
<polygon fill="#63b8ff" stroke="#63b8ff" points="155.91,-190.49 145.34,-191.17 154.03,-197.23 155.91,-190.49"/>
</a>
</g>
</g>
<!-- Node9 -->
<g id="Node000009" class="node">
<title>Node9</title>
<g id="a_Node000009"><a xlink:href="kernel__defines_8h.html" target="_top" xlink:title="Common macros and compiler attributes/pragmas configuration.">
<polygon fill="white" stroke="#666666" points="365.29,-191 269.04,-191 269.04,-170.25 365.29,-170.25 365.29,-191"/>
<text text-anchor="middle" x="317.16" y="-177.5" font-family="Helvetica,sans-Serif" font-size="10.00">kernel_defines.h</text>
</a>
</g>
</g>
<!-- Node6&#45;&gt;Node9 -->
<g id="edge9_Node000006_Node000009" class="edge">
<title>Node6&#45;&gt;Node9</title>
<g id="a_edge9_Node000006_Node000009"><a xlink:title=" ">
<path fill="none" stroke="#63b8ff" d="M308.95,-226.59C310.18,-219.89 311.84,-210.76 313.36,-202.48"/>
<polygon fill="#63b8ff" stroke="#63b8ff" points="316.77,-203.28 315.12,-192.82 309.88,-202.03 316.77,-203.28"/>
</a>
</g>
</g>
<!-- Node15 -->
<g id="Node000015" class="node">
<title>Node15</title>
<g id="a_Node000015"><a xlink:href="native__sched_8h.html" target="_top" xlink:title="Add definitions required on the native board.">
<polygon fill="white" stroke="#666666" points="250.91,-191 161.41,-191 161.41,-170.25 250.91,-170.25 250.91,-191"/>
<text text-anchor="middle" x="206.16" y="-177.5" font-family="Helvetica,sans-Serif" font-size="10.00">native_sched.h</text>
</a>
</g>
</g>
<!-- Node6&#45;&gt;Node15 -->
<g id="edge20_Node000006_Node000015" class="edge">
<title>Node6&#45;&gt;Node15</title>
<g id="a_edge20_Node000006_Node000015"><a xlink:title=" ">
<path fill="none" stroke="#63b8ff" d="M289.11,-226.59C273.74,-218.26 251.42,-206.16 233.81,-196.61"/>
<polygon fill="#63b8ff" stroke="#63b8ff" points="235.86,-193.74 225.4,-192.05 232.52,-199.89 235.86,-193.74"/>
</a>
</g>
</g>
<!-- Node6&#45;&gt;Node16 -->
<g id="edge21_Node000006_Node000016" class="edge">
<title>Node6&#45;&gt;Node16</title>
<g id="a_edge21_Node000006_Node000016"><a xlink:title=" ">
<path fill="none" stroke="#63b8ff" d="M331.66,-226.59C353.68,-217.78 386.23,-204.78 410.66,-195.01"/>
<polygon fill="#63b8ff" stroke="#63b8ff" points="411.86,-198.3 419.85,-191.34 409.26,-191.8 411.86,-198.3"/>
</a>
</g>
</g>
<!-- Node10 -->
<g id="Node000010" class="node">
<title>Node10</title>
<g id="a_Node000010"><a xlink:href="modules_8h.html" target="_top" xlink:title="Common macros and compiler attributes/pragmas configuration.">
<polygon fill="white" stroke="#666666" points="364.66,-134.25 297.66,-134.25 297.66,-113.5 364.66,-113.5 364.66,-134.25"/>
<text text-anchor="middle" x="331.16" y="-120.75" font-family="Helvetica,sans-Serif" font-size="10.00">modules.h</text>
</a>
</g>
</g>
<!-- Node9&#45;&gt;Node10 -->
<g id="edge10_Node000009_Node000010" class="edge">
<title>Node9&#45;&gt;Node10</title>
<g id="a_edge10_Node000009_Node000010"><a xlink:title=" ">
<path fill="none" stroke="#63b8ff" d="M319.67,-169.84C321.38,-163.14 323.71,-154.01 325.83,-145.73"/>
<polygon fill="#63b8ff" stroke="#63b8ff" points="329.22,-146.6 328.31,-136.04 322.44,-144.87 329.22,-146.6"/>
</a>
</g>
</g>
<!-- Node11 -->
<g id="Node000011" class="node">
<title>Node11</title>
<g id="a_Node000011"><a xlink:href="riot__version_8h.html" target="_top" xlink:title="Common macros and compiler attributes/pragmas configuration.">
<polygon fill="white" stroke="#666666" points="222.54,-77.5 139.79,-77.5 139.79,-56.75 222.54,-56.75 222.54,-77.5"/>
<text text-anchor="middle" x="181.16" y="-64" font-family="Helvetica,sans-Serif" font-size="10.00">riot_version.h</text>
</a>
</g>
</g>
<!-- Node9&#45;&gt;Node11 -->
<g id="edge11_Node000009_Node000011" class="edge">
<title>Node9&#45;&gt;Node11</title>
<g id="a_edge11_Node000009_Node000011"><a xlink:title=" ">
<path fill="none" stroke="#63b8ff" d="M268.71,-171.31C245.06,-164.91 217.95,-153.71 200.16,-134.25 188.95,-121.97 184.31,-103.49 182.42,-89.19"/>
<polygon fill="#63b8ff" stroke="#63b8ff" points="185.92,-89.09 181.5,-79.46 178.95,-89.74 185.92,-89.09"/>
</a>
</g>
</g>
<!-- Node12 -->
<g id="Node000012" class="node">
<title>Node12</title>
<g id="a_Node000012"><a xlink:href="compiler__hints_8h.html" target="_top" xlink:title="Common macros and compiler attributes/pragmas configuration.">
<polygon fill="white" stroke="#666666" points="139.66,-134.25 42.66,-134.25 42.66,-113.5 139.66,-113.5 139.66,-134.25"/>
<text text-anchor="middle" x="91.16" y="-120.75" font-family="Helvetica,sans-Serif" font-size="10.00">compiler_hints.h</text>
</a>
</g>
</g>
<!-- Node9&#45;&gt;Node12 -->
<g id="edge13_Node000009_Node000012" class="edge">
<title>Node9&#45;&gt;Node12</title>
<g id="a_edge13_Node000009_Node000012"><a xlink:title=" ">
<path fill="none" stroke="#63b8ff" d="M276.5,-169.77C239.1,-160.71 183.45,-147.23 142.89,-137.41"/>
<polygon fill="#63b8ff" stroke="#63b8ff" points="143.9,-134.05 133.36,-135.1 142.25,-140.85 143.9,-134.05"/>
</a>
</g>
</g>
<!-- Node14 -->
<g id="Node000014" class="node">
<title>Node14</title>
<g id="a_Node000014"><a xlink:href="container_8h.html" target="_top" xlink:title="Common macros and compiler attributes/pragmas configuration.">
<polygon fill="white" stroke="#666666" points="279.54,-134.25 208.79,-134.25 208.79,-113.5 279.54,-113.5 279.54,-134.25"/>
<text text-anchor="middle" x="244.16" y="-120.75" font-family="Helvetica,sans-Serif" font-size="10.00">container.h</text>
</a>
</g>
</g>
<!-- Node9&#45;&gt;Node14 -->
<g id="edge17_Node000009_Node000014" class="edge">
<title>Node9&#45;&gt;Node14</title>
<g id="a_edge17_Node000009_Node000014"><a xlink:title=" ">
<path fill="none" stroke="#63b8ff" d="M304.11,-169.84C293.53,-161.9 278.37,-150.53 265.95,-141.21"/>
<polygon fill="#63b8ff" stroke="#63b8ff" points="268.41,-138.69 258.31,-135.49 264.21,-144.29 268.41,-138.69"/>
</a>
</g>
</g>
<!-- Node11&#45;&gt;Node2 -->
<g id="edge12_Node000011_Node000002" class="edge">
<title>Node11&#45;&gt;Node2</title>
<g id="a_edge12_Node000011_Node000002"><a xlink:title=" ">
<path fill="none" stroke="#63b8ff" d="M168.83,-56.34C158.92,-48.47 144.78,-37.25 133.1,-27.99"/>
<polygon fill="#63b8ff" stroke="#63b8ff" points="135.59,-25.49 125.58,-22.02 131.24,-30.98 135.59,-25.49"/>
</a>
</g>
</g>
<!-- Node12&#45;&gt;Node2 -->
<g id="edge16_Node000012_Node000002" class="edge">
<title>Node12&#45;&gt;Node2</title>
<g id="a_edge16_Node000012_Node000002"><a xlink:title=" ">
<path fill="none" stroke="#63b8ff" d="M92.96,-113.37C96.32,-95.52 103.65,-56.61 108.22,-32.34"/>
<polygon fill="#63b8ff" stroke="#63b8ff" points="111.63,-33.14 110.04,-22.66 104.75,-31.84 111.63,-33.14"/>
</a>
</g>
</g>
<!-- Node13 -->
<g id="Node000013" class="node">
<title>Node13</title>
<g id="a_Node000013"><a xlink:href="assert_8h.html" target="_top" xlink:title="POSIX.1&#45;2008 compliant version of the assert macro.">
<polygon fill="white" stroke="#666666" points="83.66,-77.5 28.66,-77.5 28.66,-56.75 83.66,-56.75 83.66,-77.5"/>
<text text-anchor="middle" x="56.16" y="-64" font-family="Helvetica,sans-Serif" font-size="10.00">assert.h</text>
</a>
</g>
</g>
<!-- Node12&#45;&gt;Node13 -->
<g id="edge14_Node000012_Node000013" class="edge">
<title>Node12&#45;&gt;Node13</title>
<g id="a_edge14_Node000012_Node000013"><a xlink:title=" ">
<path fill="none" stroke="#63b8ff" d="M84.91,-113.09C80.33,-105.92 73.97,-95.98 68.4,-87.26"/>
<polygon fill="#63b8ff" stroke="#63b8ff" points="71.52,-85.64 63.18,-79.1 65.62,-89.41 71.52,-85.64"/>
</a>
</g>
</g>
<!-- Node13&#45;&gt;Node2 -->
<g id="edge15_Node000013_Node000002" class="edge">
<title>Node13&#45;&gt;Node2</title>
<g id="a_edge15_Node000013_Node000002"><a xlink:title=" ">
<path fill="none" stroke="#63b8ff" d="M66.18,-56.34C73.9,-48.78 84.79,-38.14 94.04,-29.1"/>
<polygon fill="#63b8ff" stroke="#63b8ff" points="96.45,-31.63 101.16,-22.14 91.56,-26.62 96.45,-31.63"/>
</a>
</g>
</g>
<!-- Node14&#45;&gt;Node2 -->
<g id="edge19_Node000014_Node000002" class="edge">
<title>Node14&#45;&gt;Node2</title>
<g id="a_edge19_Node000014_Node000002"><a xlink:title=" ">
<path fill="none" stroke="#63b8ff" d="M245,-113.11C245.65,-99 244.74,-72.85 231.16,-56.75 210.99,-32.82 176.75,-21.48 150.16,-16.12"/>
<polygon fill="#63b8ff" stroke="#63b8ff" points="150.87,-12.7 140.42,-14.38 149.64,-19.59 150.87,-12.7"/>
</a>
</g>
</g>
<!-- Node14&#45;&gt;Node7 -->
<g id="edge18_Node000014_Node000007" class="edge">
<title>Node14&#45;&gt;Node7</title>
<g id="a_edge18_Node000014_Node000007"><a xlink:title=" ">
<path fill="none" stroke="#63b8ff" d="M270.8,-113.09C294.46,-104.39 329.28,-91.6 355.74,-81.88"/>
<polygon fill="#63b8ff" stroke="#63b8ff" points="356.91,-85.18 365.09,-78.44 354.49,-78.61 356.91,-85.18"/>
</a>
</g>
</g>
<!-- Node16&#45;&gt;Node7 -->
<g id="edge23_Node000016_Node000007" class="edge">
<title>Node16&#45;&gt;Node7</title>
<g id="a_edge23_Node000016_Node000007"><a xlink:title=" ">
<path fill="none" stroke="#63b8ff" d="M439.82,-170.12C431.54,-152.02 413.36,-112.28 402.3,-88.1"/>
<polygon fill="#63b8ff" stroke="#63b8ff" points="405.62,-86.94 398.28,-79.3 399.25,-89.85 405.62,-86.94"/>
</a>
</g>
</g>
<!-- Node17 -->
<g id="Node000017" class="node">
<title>Node17</title>
<g id="a_Node000017"><a xlink:title=" ">
<polygon fill="#e0e0e0" stroke="#999999" points="520.66,-134.25 459.66,-134.25 459.66,-113.5 520.66,-113.5 520.66,-134.25"/>
<text text-anchor="middle" x="490.16" y="-120.75" font-family="Helvetica,sans-Serif" font-size="10.00">stdbool.h</text>
</a>
</g>
</g>
<!-- Node16&#45;&gt;Node17 -->
<g id="edge22_Node000016_Node000017" class="edge">
<title>Node16&#45;&gt;Node17</title>
<g id="a_edge22_Node000016_Node000017"><a xlink:title=" ">
<path fill="none" stroke="#63b8ff" d="M452.39,-169.84C458.6,-162.44 467.31,-152.07 474.8,-143.16"/>
<polygon fill="#63b8ff" stroke="#63b8ff" points="477.29,-145.65 481.04,-135.74 471.93,-141.14 477.29,-145.65"/>
</a>
</g>
</g>
<!-- Node18 -->
<g id="Node000018" class="node">
<title>Node18</title>
<g id="a_Node000018"><a xlink:href="list_8h.html" target="_top" xlink:title="Intrusive linked list.">
<polygon fill="white" stroke="#666666" points="579.16,-134.25 539.16,-134.25 539.16,-113.5 579.16,-113.5 579.16,-134.25"/>
<text text-anchor="middle" x="559.16" y="-120.75" font-family="Helvetica,sans-Serif" font-size="10.00">list.h</text>
</a>
</g>
</g>
<!-- Node16&#45;&gt;Node18 -->
<g id="edge24_Node000016_Node000018" class="edge">
<title>Node16&#45;&gt;Node18</title>
<g id="a_edge24_Node000016_Node000018"><a xlink:title=" ">
<path fill="none" stroke="#63b8ff" d="M464.72,-169.84C482.47,-161.39 508.35,-149.07 528.53,-139.46"/>
<polygon fill="#63b8ff" stroke="#63b8ff" points="529.89,-142.69 537.42,-135.23 526.88,-136.37 529.89,-142.69"/>
</a>
</g>
</g>
<!-- Node22&#45;&gt;Node8 -->
<g id="edge30_Node000022_Node000008" class="edge">
<title>Node22&#45;&gt;Node8</title>
<g id="a_edge30_Node000022_Node000008"><a xlink:title=" ">
<path fill="none" stroke="#63b8ff" d="M111.16,-226.59C111.16,-219.97 111.16,-210.97 111.16,-202.77"/>
<polygon fill="#63b8ff" stroke="#63b8ff" points="114.67,-202.84 111.16,-192.84 107.67,-202.84 114.67,-202.84"/>
</a>
</g>
</g>
<!-- Node22&#45;&gt;Node12 -->
<g id="edge31_Node000022_Node000012" class="edge">
<title>Node22&#45;&gt;Node12</title>
<g id="a_edge31_Node000022_Node000012"><a xlink:title=" ">
<path fill="none" stroke="#63b8ff" d="M98.44,-226.79C88.63,-218.54 75.81,-205.66 70.16,-191 64.16,-175.39 70.85,-157.26 78.23,-143.93"/>
<polygon fill="#63b8ff" stroke="#63b8ff" points="81.03,-146.06 83.27,-135.71 75.06,-142.4 81.03,-146.06"/>
</a>
</g>
</g>
</g>
</svg>
