<?xml version="1.0" encoding="UTF-8" standalone="no"?>
<!DOCTYPE svg PUBLIC "-//W3C//DTD SVG 1.1//EN"
 "http://www.w3.org/Graphics/SVG/1.1/DTD/svg11.dtd">
<!-- Generated by graphviz version 12.1.2 (0)
 -->
<!-- Title: drivers/include/w5100.h Pages: 1 -->
<svg width="939pt" height="313pt"
 viewBox="0.00 0.00 939.38 312.50" xmlns="http://www.w3.org/2000/svg" xmlns:xlink="http://www.w3.org/1999/xlink">
<g id="graph0" class="graph" transform="scale(1 1) rotate(0) translate(4 308.5)">
<title>drivers/include/w5100.h</title>
<!-- Node1 -->
<g id="Node000001" class="node">
<title>Node1</title>
<g id="a_Node000001"><a xlink:title="Interface definition for the W5100 device driver.">
<polygon fill="#999999" stroke="#666666" points="491.5,-304.5 359.25,-304.5 359.25,-283.75 491.5,-283.75 491.5,-304.5"/>
<text text-anchor="middle" x="425.38" y="-291" font-family="Helvetica,sans-Serif" font-size="10.00">drivers/include/w5100.h</text>
</a>
</g>
</g>
<!-- Node2 -->
<g id="Node000002" class="node">
<title>Node2</title>
<g id="a_Node000002"><a xlink:title=" ">
<polygon fill="#e0e0e0" stroke="#999999" points="701.75,-20.75 649,-20.75 649,0 701.75,0 701.75,-20.75"/>
<text text-anchor="middle" x="675.38" y="-7.25" font-family="Helvetica,sans-Serif" font-size="10.00">stdint.h</text>
</a>
</g>
</g>
<!-- Node1&#45;&gt;Node2 -->
<g id="edge1_Node000001_Node000002" class="edge">
<title>Node1&#45;&gt;Node2</title>
<g id="a_edge1_Node000001_Node000002"><a xlink:title=" ">
<path fill="none" stroke="#63b8ff" d="M491.79,-292.26C629.07,-288.66 931.38,-270.62 931.38,-181.62 931.38,-181.62 931.38,-181.62 931.38,-122.88 931.38,-28.74 784.07,-13.26 712.94,-11.27"/>
<polygon fill="#63b8ff" stroke="#63b8ff" points="713.39,-7.78 703.32,-11.08 713.25,-14.78 713.39,-7.78"/>
</a>
</g>
</g>
<!-- Node3 -->
<g id="Node000003" class="node">
<title>Node3</title>
<g id="a_Node000003"><a xlink:href="spi_8h.html" target="_top" xlink:title="Low&#45;level SPI peripheral driver interface definition.">
<polygon fill="white" stroke="#666666" points="339.88,-191 266.88,-191 266.88,-170.25 339.88,-170.25 339.88,-191"/>
<text text-anchor="middle" x="303.38" y="-177.5" font-family="Helvetica,sans-Serif" font-size="10.00">periph/spi.h</text>
</a>
</g>
</g>
<!-- Node1&#45;&gt;Node3 -->
<g id="edge2_Node000001_Node000003" class="edge">
<title>Node1&#45;&gt;Node3</title>
<g id="a_edge2_Node000001_Node000003"><a xlink:title=" ">
<path fill="none" stroke="#63b8ff" d="M414.97,-283.62C394.46,-264.87 348.51,-222.88 322.42,-199.03"/>
<polygon fill="#63b8ff" stroke="#63b8ff" points="324.96,-196.61 315.22,-192.45 320.24,-201.78 324.96,-196.61"/>
</a>
</g>
</g>
<!-- Node10 -->
<g id="Node000010" class="node">
<title>Node10</title>
<g id="a_Node000010"><a xlink:href="drivers_2include_2periph_2gpio_8h.html" target="_top" xlink:title="Low&#45;level GPIO peripheral driver interface definitions.">
<polygon fill="white" stroke="#666666" points="161.25,-134.25 81.5,-134.25 81.5,-113.5 161.25,-113.5 161.25,-134.25"/>
<text text-anchor="middle" x="121.38" y="-120.75" font-family="Helvetica,sans-Serif" font-size="10.00">periph/gpio.h</text>
</a>
</g>
</g>
<!-- Node1&#45;&gt;Node10 -->
<g id="edge15_Node000001_Node000010" class="edge">
<title>Node1&#45;&gt;Node10</title>
<g id="a_edge15_Node000001_Node000010"><a xlink:title=" ">
<path fill="none" stroke="#63b8ff" d="M407.72,-283.35C356.93,-255.24 210.18,-174.02 148.84,-140.07"/>
<polygon fill="#63b8ff" stroke="#63b8ff" points="150.85,-137.19 140.41,-135.41 147.46,-143.31 150.85,-137.19"/>
</a>
</g>
</g>
<!-- Node12 -->
<g id="Node000012" class="node">
<title>Node12</title>
<g id="a_Node000012"><a xlink:href="drivers_2include_2net_2netdev_8h.html" target="_top" xlink:title="Definitions low&#45;level network driver interface.">
<polygon fill="white" stroke="#666666" points="542.75,-247.75 466,-247.75 466,-227 542.75,-227 542.75,-247.75"/>
<text text-anchor="middle" x="504.38" y="-234.25" font-family="Helvetica,sans-Serif" font-size="10.00">net/netdev.h</text>
</a>
</g>
</g>
<!-- Node1&#45;&gt;Node12 -->
<g id="edge16_Node000001_Node000012" class="edge">
<title>Node1&#45;&gt;Node12</title>
<g id="a_edge16_Node000001_Node000012"><a xlink:title=" ">
<path fill="none" stroke="#63b8ff" d="M439.5,-283.34C451.07,-275.32 467.68,-263.81 481.19,-254.44"/>
<polygon fill="#63b8ff" stroke="#63b8ff" points="482.9,-257.51 489.13,-248.94 478.92,-251.76 482.9,-257.51"/>
</a>
</g>
</g>
<!-- Node3&#45;&gt;Node2 -->
<g id="edge8_Node000003_Node000002" class="edge">
<title>Node3&#45;&gt;Node2</title>
<g id="a_edge8_Node000003_Node000002"><a xlink:title=" ">
<path fill="none" stroke="#63b8ff" d="M300.43,-170.07C294.02,-147.09 281.61,-88.33 311.38,-56.75 333.48,-33.3 548.26,-18.56 637.15,-13.42"/>
<polygon fill="#63b8ff" stroke="#63b8ff" points="637.28,-16.92 647.07,-12.86 636.89,-9.93 637.28,-16.92"/>
</a>
</g>
</g>
<!-- Node4 -->
<g id="Node000004" class="node">
<title>Node4</title>
<g id="a_Node000004"><a xlink:href="endian_8h.html" target="_top" xlink:title="libc header for endian conversion">
<polygon fill="white" stroke="#666666" points="378.38,-77.5 320.38,-77.5 320.38,-56.75 378.38,-56.75 378.38,-77.5"/>
<text text-anchor="middle" x="349.38" y="-64" font-family="Helvetica,sans-Serif" font-size="10.00">endian.h</text>
</a>
</g>
</g>
<!-- Node3&#45;&gt;Node4 -->
<g id="edge3_Node000003_Node000004" class="edge">
<title>Node3&#45;&gt;Node4</title>
<g id="a_edge3_Node000003_Node000004"><a xlink:title=" ">
<path fill="none" stroke="#63b8ff" d="M306.49,-170.09C310.8,-157.13 319.01,-133.3 327.38,-113.5 330.99,-104.95 335.38,-95.7 339.29,-87.79"/>
<polygon fill="#63b8ff" stroke="#63b8ff" points="342.31,-89.59 343.68,-79.08 336.06,-86.44 342.31,-89.59"/>
</a>
</g>
</g>
<!-- Node5 -->
<g id="Node000005" class="node">
<title>Node5</title>
<g id="a_Node000005"><a xlink:href="errno_8h.html" target="_top" xlink:title=" ">
<polygon fill="white" stroke="#666666" points="419.62,-134.25 369.12,-134.25 369.12,-113.5 419.62,-113.5 419.62,-134.25"/>
<text text-anchor="middle" x="394.38" y="-120.75" font-family="Helvetica,sans-Serif" font-size="10.00">errno.h</text>
</a>
</g>
</g>
<!-- Node3&#45;&gt;Node5 -->
<g id="edge5_Node000003_Node000005" class="edge">
<title>Node3&#45;&gt;Node5</title>
<g id="a_edge5_Node000003_Node000005"><a xlink:title=" ">
<path fill="none" stroke="#63b8ff" d="M319.64,-169.84C333.23,-161.66 352.85,-149.86 368.58,-140.4"/>
<polygon fill="#63b8ff" stroke="#63b8ff" points="370.19,-143.51 376.95,-135.36 366.58,-137.52 370.19,-143.51"/>
</a>
</g>
</g>
<!-- Node6 -->
<g id="Node000006" class="node">
<title>Node6</title>
<g id="a_Node000006"><a xlink:title=" ">
<polygon fill="#e0e0e0" stroke="#999999" points="498.88,-134.25 437.88,-134.25 437.88,-113.5 498.88,-113.5 498.88,-134.25"/>
<text text-anchor="middle" x="468.38" y="-120.75" font-family="Helvetica,sans-Serif" font-size="10.00">stdbool.h</text>
</a>
</g>
</g>
<!-- Node3&#45;&gt;Node6 -->
<g id="edge6_Node000003_Node000006" class="edge">
<title>Node3&#45;&gt;Node6</title>
<g id="a_edge6_Node000003_Node000006"><a xlink:title=" ">
<path fill="none" stroke="#63b8ff" d="M332.87,-169.84C359.42,-161.03 398.67,-148 428.1,-138.24"/>
<polygon fill="#63b8ff" stroke="#63b8ff" points="429.03,-141.62 437.42,-135.15 426.82,-134.97 429.03,-141.62"/>
</a>
</g>
</g>
<!-- Node7 -->
<g id="Node000007" class="node">
<title>Node7</title>
<g id="a_Node000007"><a xlink:title=" ">
<polygon fill="#e0e0e0" stroke="#999999" points="509.88,-77.5 454.88,-77.5 454.88,-56.75 509.88,-56.75 509.88,-77.5"/>
<text text-anchor="middle" x="482.38" y="-64" font-family="Helvetica,sans-Serif" font-size="10.00">stddef.h</text>
</a>
</g>
</g>
<!-- Node3&#45;&gt;Node7 -->
<g id="edge7_Node000003_Node000007" class="edge">
<title>Node3&#45;&gt;Node7</title>
<g id="a_edge7_Node000003_Node000007"><a xlink:title=" ">
<path fill="none" stroke="#63b8ff" d="M309.23,-170.19C318.47,-156.03 337.73,-129.25 360.38,-113.5 385.63,-95.93 418.53,-84.22 443.8,-77.1"/>
<polygon fill="#63b8ff" stroke="#63b8ff" points="444.6,-80.51 453.36,-74.54 442.79,-73.74 444.6,-80.51"/>
</a>
</g>
</g>
<!-- Node8 -->
<g id="Node000008" class="node">
<title>Node8</title>
<g id="a_Node000008"><a xlink:title=" ">
<polygon fill="#e0e0e0" stroke="#999999" points="149.5,-77.5 71.25,-77.5 71.25,-56.75 149.5,-56.75 149.5,-77.5"/>
<text text-anchor="middle" x="110.38" y="-64" font-family="Helvetica,sans-Serif" font-size="10.00">periph_cpu.h</text>
</a>
</g>
</g>
<!-- Node3&#45;&gt;Node8 -->
<g id="edge9_Node000003_Node000008" class="edge">
<title>Node3&#45;&gt;Node8</title>
<g id="a_edge9_Node000003_Node000008"><a xlink:title=" ">
<path fill="none" stroke="#63b8ff" d="M286.59,-169.93C253.08,-150.57 177.67,-107 137.22,-83.63"/>
<polygon fill="#63b8ff" stroke="#63b8ff" points="138.98,-80.61 128.57,-78.64 135.48,-86.67 138.98,-80.61"/>
</a>
</g>
</g>
<!-- Node9 -->
<g id="Node000009" class="node">
<title>Node9</title>
<g id="a_Node000009"><a xlink:title=" ">
<polygon fill="#e0e0e0" stroke="#999999" points="249,-77.5 167.75,-77.5 167.75,-56.75 249,-56.75 249,-77.5"/>
<text text-anchor="middle" x="208.38" y="-64" font-family="Helvetica,sans-Serif" font-size="10.00">periph_conf.h</text>
</a>
</g>
</g>
<!-- Node3&#45;&gt;Node9 -->
<g id="edge10_Node000003_Node000009" class="edge">
<title>Node3&#45;&gt;Node9</title>
<g id="a_edge10_Node000003_Node000009"><a xlink:title=" ">
<path fill="none" stroke="#63b8ff" d="M290.51,-170.05C279.41,-161.42 263.31,-148 251.38,-134.25 238.77,-119.73 227.05,-101.23 219.04,-87.5"/>
<polygon fill="#63b8ff" stroke="#63b8ff" points="222.19,-85.96 214.21,-78.99 216.1,-89.42 222.19,-85.96"/>
</a>
</g>
</g>
<!-- Node3&#45;&gt;Node10 -->
<g id="edge11_Node000003_Node000010" class="edge">
<title>Node3&#45;&gt;Node10</title>
<g id="a_edge11_Node000003_Node000010"><a xlink:title=" ">
<path fill="none" stroke="#63b8ff" d="M270.84,-169.84C241.29,-160.95 197.5,-147.77 164.94,-137.98"/>
<polygon fill="#63b8ff" stroke="#63b8ff" points="165.97,-134.64 155.39,-135.11 163.95,-141.34 165.97,-134.64"/>
</a>
</g>
</g>
<!-- Node4&#45;&gt;Node2 -->
<g id="edge4_Node000004_Node000002" class="edge">
<title>Node4&#45;&gt;Node2</title>
<g id="a_edge4_Node000004_Node000002"><a xlink:title=" ">
<path fill="none" stroke="#63b8ff" d="M378.59,-61.22C437.86,-51.26 572.15,-28.71 637.81,-17.68"/>
<polygon fill="#63b8ff" stroke="#63b8ff" points="638.09,-21.19 647.37,-16.08 636.93,-14.28 638.09,-21.19"/>
</a>
</g>
</g>
<!-- Node10&#45;&gt;Node8 -->
<g id="edge13_Node000010_Node000008" class="edge">
<title>Node10&#45;&gt;Node8</title>
<g id="a_edge13_Node000010_Node000008"><a xlink:title=" ">
<path fill="none" stroke="#63b8ff" d="M119.41,-113.09C118.06,-106.39 116.23,-97.26 114.56,-88.98"/>
<polygon fill="#63b8ff" stroke="#63b8ff" points="118.02,-88.43 112.62,-79.31 111.16,-89.81 118.02,-88.43"/>
</a>
</g>
</g>
<!-- Node10&#45;&gt;Node9 -->
<g id="edge14_Node000010_Node000009" class="edge">
<title>Node10&#45;&gt;Node9</title>
<g id="a_edge14_Node000010_Node000009"><a xlink:title=" ">
<path fill="none" stroke="#63b8ff" d="M136.93,-113.09C149.8,-104.99 168.32,-93.33 183.28,-83.92"/>
<polygon fill="#63b8ff" stroke="#63b8ff" points="185.08,-86.92 191.67,-78.63 181.35,-81 185.08,-86.92"/>
</a>
</g>
</g>
<!-- Node11 -->
<g id="Node000011" class="node">
<title>Node11</title>
<g id="a_Node000011"><a xlink:title=" ">
<polygon fill="#e0e0e0" stroke="#999999" points="52.75,-77.5 0,-77.5 0,-56.75 52.75,-56.75 52.75,-77.5"/>
<text text-anchor="middle" x="26.38" y="-64" font-family="Helvetica,sans-Serif" font-size="10.00">limits.h</text>
</a>
</g>
</g>
<!-- Node10&#45;&gt;Node11 -->
<g id="edge12_Node000010_Node000011" class="edge">
<title>Node10&#45;&gt;Node11</title>
<g id="a_edge12_Node000010_Node000011"><a xlink:title=" ">
<path fill="none" stroke="#63b8ff" d="M104.39,-113.09C90.07,-104.83 69.33,-92.88 52.84,-83.38"/>
<polygon fill="#63b8ff" stroke="#63b8ff" points="54.94,-80.55 44.52,-78.58 51.44,-86.61 54.94,-80.55"/>
</a>
</g>
</g>
<!-- Node12&#45;&gt;Node2 -->
<g id="edge17_Node000012_Node000002" class="edge">
<title>Node12&#45;&gt;Node2</title>
<g id="a_edge17_Node000012_Node000002"><a xlink:title=" ">
<path fill="none" stroke="#63b8ff" d="M543.22,-231.78C630.12,-220.58 835.63,-188.77 874.38,-134.25 890.7,-111.28 863.25,-67.87 850.38,-56.75 811.94,-23.57 752.21,-14.2 713.43,-11.81"/>
<polygon fill="#63b8ff" stroke="#63b8ff" points="713.79,-8.32 703.63,-11.34 713.45,-15.31 713.79,-8.32"/>
</a>
</g>
</g>
<!-- Node12&#45;&gt;Node5 -->
<g id="edge18_Node000012_Node000005" class="edge">
<title>Node12&#45;&gt;Node5</title>
<g id="a_edge18_Node000012_Node000005"><a xlink:title=" ">
<path fill="none" stroke="#63b8ff" d="M482.55,-226.51C466.87,-218.61 446.01,-206.32 431.38,-191 418.6,-177.62 408.69,-158.99 402.36,-144.91"/>
<polygon fill="#63b8ff" stroke="#63b8ff" points="405.61,-143.61 398.49,-135.76 399.17,-146.34 405.61,-143.61"/>
</a>
</g>
</g>
<!-- Node13 -->
<g id="Node000013" class="node">
<title>Node13</title>
<g id="a_Node000013"><a xlink:href="iolist_8h.html" target="_top" xlink:title="iolist scatter / gather IO">
<polygon fill="white" stroke="#666666" points="488.88,-191 439.88,-191 439.88,-170.25 488.88,-170.25 488.88,-191"/>
<text text-anchor="middle" x="464.38" y="-177.5" font-family="Helvetica,sans-Serif" font-size="10.00">iolist.h</text>
</a>
</g>
</g>
<!-- Node12&#45;&gt;Node13 -->
<g id="edge19_Node000012_Node000013" class="edge">
<title>Node12&#45;&gt;Node13</title>
<g id="a_edge19_Node000012_Node000013"><a xlink:title=" ">
<path fill="none" stroke="#63b8ff" d="M497.22,-226.59C491.93,-219.35 484.56,-209.26 478.15,-200.47"/>
<polygon fill="#63b8ff" stroke="#63b8ff" points="481.08,-198.56 472.36,-192.55 475.43,-202.69 481.08,-198.56"/>
</a>
</g>
</g>
<!-- Node14 -->
<g id="Node000014" class="node">
<title>Node14</title>
<g id="a_Node000014"><a xlink:href="netopt_8h.html" target="_top" xlink:title="Definition of global configuration options.">
<polygon fill="white" stroke="#666666" points="582,-191 506.75,-191 506.75,-170.25 582,-170.25 582,-191"/>
<text text-anchor="middle" x="544.38" y="-177.5" font-family="Helvetica,sans-Serif" font-size="10.00">net/netopt.h</text>
</a>
</g>
</g>
<!-- Node12&#45;&gt;Node14 -->
<g id="edge20_Node000012_Node000014" class="edge">
<title>Node12&#45;&gt;Node14</title>
<g id="a_edge20_Node000012_Node000014"><a xlink:title=" ">
<path fill="none" stroke="#63b8ff" d="M511.53,-226.59C516.82,-219.35 524.19,-209.26 530.6,-200.47"/>
<polygon fill="#63b8ff" stroke="#63b8ff" points="533.32,-202.69 536.39,-192.55 527.67,-198.56 533.32,-202.69"/>
</a>
</g>
</g>
<!-- Node15 -->
<g id="Node000015" class="node">
<title>Node15</title>
<g id="a_Node000015"><a xlink:href="kernel__defines_8h.html" target="_top" xlink:title="Common macros and compiler attributes/pragmas configuration.">
<polygon fill="white" stroke="#666666" points="702.5,-191 606.25,-191 606.25,-170.25 702.5,-170.25 702.5,-191"/>
<text text-anchor="middle" x="654.38" y="-177.5" font-family="Helvetica,sans-Serif" font-size="10.00">kernel_defines.h</text>
</a>
</g>
</g>
<!-- Node12&#45;&gt;Node15 -->
<g id="edge23_Node000012_Node000015" class="edge">
<title>Node12&#45;&gt;Node15</title>
<g id="a_edge23_Node000012_Node000015"><a xlink:title=" ">
<path fill="none" stroke="#63b8ff" d="M531.19,-226.59C555.11,-217.86 590.38,-204.98 617.05,-195.25"/>
<polygon fill="#63b8ff" stroke="#63b8ff" points="617.92,-198.66 626.12,-191.94 615.52,-192.08 617.92,-198.66"/>
</a>
</g>
</g>
<!-- Node14&#45;&gt;Node2 -->
<g id="edge21_Node000014_Node000002" class="edge">
<title>Node14&#45;&gt;Node2</title>
<g id="a_edge21_Node000014_Node000002"><a xlink:title=" ">
<path fill="none" stroke="#63b8ff" d="M582.18,-171.94C629.21,-162 704.36,-144.71 712.38,-134.25 733.32,-106.9 723.93,-89.2 712.38,-56.75 708.75,-46.56 701.75,-37.01 694.8,-29.32"/>
<polygon fill="#63b8ff" stroke="#63b8ff" points="697.43,-27 687.94,-22.3 692.43,-31.9 697.43,-27"/>
</a>
</g>
</g>
<!-- Node14&#45;&gt;Node6 -->
<g id="edge22_Node000014_Node000006" class="edge">
<title>Node14&#45;&gt;Node6</title>
<g id="a_edge22_Node000014_Node000006"><a xlink:title=" ">
<path fill="none" stroke="#63b8ff" d="M530.79,-169.84C519.76,-161.9 503.99,-150.53 491.05,-141.21"/>
<polygon fill="#63b8ff" stroke="#63b8ff" points="493.23,-138.47 483.07,-135.46 489.14,-144.15 493.23,-138.47"/>
</a>
</g>
</g>
<!-- Node16 -->
<g id="Node000016" class="node">
<title>Node16</title>
<g id="a_Node000016"><a xlink:href="modules_8h.html" target="_top" xlink:title="Common macros and compiler attributes/pragmas configuration.">
<polygon fill="white" stroke="#666666" points="864.88,-134.25 797.88,-134.25 797.88,-113.5 864.88,-113.5 864.88,-134.25"/>
<text text-anchor="middle" x="831.38" y="-120.75" font-family="Helvetica,sans-Serif" font-size="10.00">modules.h</text>
</a>
</g>
</g>
<!-- Node15&#45;&gt;Node16 -->
<g id="edge24_Node000015_Node000016" class="edge">
<title>Node15&#45;&gt;Node16</title>
<g id="a_edge24_Node000015_Node000016"><a xlink:title=" ">
<path fill="none" stroke="#63b8ff" d="M686.02,-169.84C714.75,-160.95 757.34,-147.77 789,-137.98"/>
<polygon fill="#63b8ff" stroke="#63b8ff" points="789.74,-141.42 798.26,-135.12 787.67,-134.73 789.74,-141.42"/>
</a>
</g>
</g>
<!-- Node17 -->
<g id="Node000017" class="node">
<title>Node17</title>
<g id="a_Node000017"><a xlink:href="riot__version_8h.html" target="_top" xlink:title="Common macros and compiler attributes/pragmas configuration.">
<polygon fill="white" stroke="#666666" points="841.75,-77.5 759,-77.5 759,-56.75 841.75,-56.75 841.75,-77.5"/>
<text text-anchor="middle" x="800.38" y="-64" font-family="Helvetica,sans-Serif" font-size="10.00">riot_version.h</text>
</a>
</g>
</g>
<!-- Node15&#45;&gt;Node17 -->
<g id="edge25_Node000015_Node000017" class="edge">
<title>Node15&#45;&gt;Node17</title>
<g id="a_edge25_Node000015_Node000017"><a xlink:title=" ">
<path fill="none" stroke="#63b8ff" d="M680.75,-169.9C699.87,-162.07 725.72,-149.81 745.38,-134.25 762.33,-120.82 777.71,-101.42 787.86,-87.1"/>
<polygon fill="#63b8ff" stroke="#63b8ff" points="790.66,-89.21 793.43,-78.99 784.89,-85.26 790.66,-89.21"/>
</a>
</g>
</g>
<!-- Node18 -->
<g id="Node000018" class="node">
<title>Node18</title>
<g id="a_Node000018"><a xlink:href="compiler__hints_8h.html" target="_top" xlink:title="Common macros and compiler attributes/pragmas configuration.">
<polygon fill="white" stroke="#666666" points="702.88,-134.25 605.88,-134.25 605.88,-113.5 702.88,-113.5 702.88,-134.25"/>
<text text-anchor="middle" x="654.38" y="-120.75" font-family="Helvetica,sans-Serif" font-size="10.00">compiler_hints.h</text>
</a>
</g>
</g>
<!-- Node15&#45;&gt;Node18 -->
<g id="edge27_Node000015_Node000018" class="edge">
<title>Node15&#45;&gt;Node18</title>
<g id="a_edge27_Node000015_Node000018"><a xlink:title=" ">
<path fill="none" stroke="#63b8ff" d="M654.38,-169.84C654.38,-163.22 654.38,-154.22 654.38,-146.02"/>
<polygon fill="#63b8ff" stroke="#63b8ff" points="657.88,-146.09 654.38,-136.09 650.88,-146.09 657.88,-146.09"/>
</a>
</g>
</g>
<!-- Node20 -->
<g id="Node000020" class="node">
<title>Node20</title>
<g id="a_Node000020"><a xlink:href="container_8h.html" target="_top" xlink:title="Common macros and compiler attributes/pragmas configuration.">
<polygon fill="white" stroke="#666666" points="587.75,-134.25 517,-134.25 517,-113.5 587.75,-113.5 587.75,-134.25"/>
<text text-anchor="middle" x="552.38" y="-120.75" font-family="Helvetica,sans-Serif" font-size="10.00">container.h</text>
</a>
</g>
</g>
<!-- Node15&#45;&gt;Node20 -->
<g id="edge31_Node000015_Node000020" class="edge">
<title>Node15&#45;&gt;Node20</title>
<g id="a_edge31_Node000015_Node000020"><a xlink:title=" ">
<path fill="none" stroke="#63b8ff" d="M636.14,-169.84C620.69,-161.55 598.29,-149.52 580.54,-139.99"/>
<polygon fill="#63b8ff" stroke="#63b8ff" points="582.25,-136.94 571.79,-135.29 578.94,-143.11 582.25,-136.94"/>
</a>
</g>
</g>
<!-- Node17&#45;&gt;Node2 -->
<g id="edge26_Node000017_Node000002" class="edge">
<title>Node17&#45;&gt;Node2</title>
<g id="a_edge26_Node000017_Node000002"><a xlink:title=" ">
<path fill="none" stroke="#63b8ff" d="M778.03,-56.34C758.56,-47.81 730.09,-35.34 708.07,-25.69"/>
<polygon fill="#63b8ff" stroke="#63b8ff" points="709.48,-22.49 698.92,-21.69 706.67,-28.9 709.48,-22.49"/>
</a>
</g>
</g>
<!-- Node18&#45;&gt;Node2 -->
<g id="edge30_Node000018_Node000002" class="edge">
<title>Node18&#45;&gt;Node2</title>
<g id="a_edge30_Node000018_Node000002"><a xlink:title=" ">
<path fill="none" stroke="#63b8ff" d="M648.9,-113.27C642.2,-100.23 632.56,-76.31 639.38,-56.75 642.94,-46.51 649.89,-36.85 656.74,-29.09"/>
<polygon fill="#63b8ff" stroke="#63b8ff" points="659.1,-31.69 663.48,-22.04 654.04,-26.85 659.1,-31.69"/>
</a>
</g>
</g>
<!-- Node19 -->
<g id="Node000019" class="node">
<title>Node19</title>
<g id="a_Node000019"><a xlink:href="assert_8h.html" target="_top" xlink:title="POSIX.1&#45;2008 compliant version of the assert macro.">
<polygon fill="white" stroke="#666666" points="702.88,-77.5 647.88,-77.5 647.88,-56.75 702.88,-56.75 702.88,-77.5"/>
<text text-anchor="middle" x="675.38" y="-64" font-family="Helvetica,sans-Serif" font-size="10.00">assert.h</text>
</a>
</g>
</g>
<!-- Node18&#45;&gt;Node19 -->
<g id="edge28_Node000018_Node000019" class="edge">
<title>Node18&#45;&gt;Node19</title>
<g id="a_edge28_Node000018_Node000019"><a xlink:title=" ">
<path fill="none" stroke="#63b8ff" d="M658.13,-113.09C660.76,-106.24 664.36,-96.84 667.6,-88.4"/>
<polygon fill="#63b8ff" stroke="#63b8ff" points="670.8,-89.83 671.11,-79.24 664.26,-87.32 670.8,-89.83"/>
</a>
</g>
</g>
<!-- Node19&#45;&gt;Node2 -->
<g id="edge29_Node000019_Node000002" class="edge">
<title>Node19&#45;&gt;Node2</title>
<g id="a_edge29_Node000019_Node000002"><a xlink:title=" ">
<path fill="none" stroke="#63b8ff" d="M675.38,-56.34C675.38,-49.72 675.38,-40.72 675.38,-32.52"/>
<polygon fill="#63b8ff" stroke="#63b8ff" points="678.88,-32.59 675.38,-22.59 671.88,-32.59 678.88,-32.59"/>
</a>
</g>
</g>
<!-- Node20&#45;&gt;Node2 -->
<g id="edge33_Node000020_Node000002" class="edge">
<title>Node20&#45;&gt;Node2</title>
<g id="a_edge33_Node000020_Node000002"><a xlink:title=" ">
<path fill="none" stroke="#63b8ff" d="M562.86,-113.37C583.55,-94.62 629.87,-52.63 656.17,-28.78"/>
<polygon fill="#63b8ff" stroke="#63b8ff" points="658.38,-31.5 663.44,-22.19 653.68,-26.31 658.38,-31.5"/>
</a>
</g>
</g>
<!-- Node20&#45;&gt;Node7 -->
<g id="edge32_Node000020_Node000007" class="edge">
<title>Node20&#45;&gt;Node7</title>
<g id="a_edge32_Node000020_Node000007"><a xlink:title=" ">
<path fill="none" stroke="#63b8ff" d="M539.86,-113.09C529.81,-105.22 515.46,-94 503.62,-84.74"/>
<polygon fill="#63b8ff" stroke="#63b8ff" points="506.01,-82.16 495.97,-78.76 501.69,-87.68 506.01,-82.16"/>
</a>
</g>
</g>
</g>
</svg>
