<?xml version="1.0" encoding="UTF-8" standalone="no"?>
<!DOCTYPE svg PUBLIC "-//W3C//DTD SVG 1.1//EN"
 "http://www.w3.org/Graphics/SVG/1.1/DTD/svg11.dtd">
<!-- Generated by graphviz version 12.1.2 (0)
 -->
<!-- Title: drivers/include/w5500.h Pages: 1 -->
<svg width="1578pt" height="596pt"
 viewBox="0.00 0.00 1578.31 596.25" xmlns="http://www.w3.org/2000/svg" xmlns:xlink="http://www.w3.org/1999/xlink">
<g id="graph0" class="graph" transform="scale(1 1) rotate(0) translate(4 592.25)">
<title>drivers/include/w5500.h</title>
<!-- Node1 -->
<g id="Node000001" class="node">
<title>Node1</title>
<g id="a_Node000001"><a xlink:title="Interface definition for the W5500 device driver.">
<polygon fill="#999999" stroke="#666666" points="615.43,-588.25 483.18,-588.25 483.18,-567.5 615.43,-567.5 615.43,-588.25"/>
<text text-anchor="middle" x="549.31" y="-574.75" font-family="Helvetica,sans-Serif" font-size="10.00">drivers/include/w5500.h</text>
</a>
</g>
</g>
<!-- Node2 -->
<g id="Node000002" class="node">
<title>Node2</title>
<g id="a_Node000002"><a xlink:title=" ">
<polygon fill="#e0e0e0" stroke="#999999" points="690.68,-20.75 637.93,-20.75 637.93,0 690.68,0 690.68,-20.75"/>
<text text-anchor="middle" x="664.31" y="-7.25" font-family="Helvetica,sans-Serif" font-size="10.00">stdint.h</text>
</a>
</g>
</g>
<!-- Node1&#45;&gt;Node2 -->
<g id="edge1_Node000001_Node000002" class="edge">
<title>Node1&#45;&gt;Node2</title>
<g id="a_edge1_Node000001_Node000002"><a xlink:title=" ">
<path fill="none" stroke="#63b8ff" d="M615.91,-576.61C842.6,-574.86 1570.31,-561.72 1570.31,-465.38 1570.31,-465.38 1570.31,-465.38 1570.31,-122.88 1570.31,-49.2 1489.95,-73.92 1418.31,-56.75 1280.13,-23.63 835.58,-14.07 702.38,-11.91"/>
<polygon fill="#63b8ff" stroke="#63b8ff" points="702.75,-8.42 692.7,-11.76 702.64,-15.42 702.75,-8.42"/>
</a>
</g>
</g>
<!-- Node3 -->
<g id="Node000003" class="node">
<title>Node3</title>
<g id="a_Node000003"><a xlink:href="spi_8h.html" target="_top" xlink:title="Low&#45;level SPI peripheral driver interface definition.">
<polygon fill="white" stroke="#666666" points="261.81,-247.75 188.81,-247.75 188.81,-227 261.81,-227 261.81,-247.75"/>
<text text-anchor="middle" x="225.31" y="-234.25" font-family="Helvetica,sans-Serif" font-size="10.00">periph/spi.h</text>
</a>
</g>
</g>
<!-- Node1&#45;&gt;Node3 -->
<g id="edge2_Node000001_Node000003" class="edge">
<title>Node1&#45;&gt;Node3</title>
<g id="a_edge2_Node000001_Node000003"><a xlink:title=" ">
<path fill="none" stroke="#63b8ff" d="M487.62,-567.05C432.14,-554.29 359.31,-526 359.31,-465.38 359.31,-465.38 359.31,-465.38 359.31,-349.88 359.31,-300.77 305.49,-269.12 266.06,-252.53"/>
<polygon fill="#63b8ff" stroke="#63b8ff" points="267.37,-249.28 256.79,-248.81 264.77,-255.78 267.37,-249.28"/>
</a>
</g>
</g>
<!-- Node10 -->
<g id="Node000010" class="node">
<title>Node10</title>
<g id="a_Node000010"><a xlink:href="drivers_2include_2periph_2gpio_8h.html" target="_top" xlink:title="Low&#45;level GPIO peripheral driver interface definitions.">
<polygon fill="white" stroke="#666666" points="159.18,-191 79.43,-191 79.43,-170.25 159.18,-170.25 159.18,-191"/>
<text text-anchor="middle" x="119.31" y="-177.5" font-family="Helvetica,sans-Serif" font-size="10.00">periph/gpio.h</text>
</a>
</g>
</g>
<!-- Node1&#45;&gt;Node10 -->
<g id="edge15_Node000001_Node000010" class="edge">
<title>Node1&#45;&gt;Node10</title>
<g id="a_edge15_Node000001_Node000010"><a xlink:title=" ">
<path fill="none" stroke="#63b8ff" d="M482.69,-572.48C366.79,-562.99 140.31,-535.48 140.31,-465.38 140.31,-465.38 140.31,-465.38 140.31,-293.12 140.31,-261.03 131.8,-224.62 125.62,-202.4"/>
<polygon fill="#63b8ff" stroke="#63b8ff" points="128.98,-201.43 122.83,-192.81 122.26,-203.39 128.98,-201.43"/>
</a>
</g>
</g>
<!-- Node12 -->
<g id="Node000012" class="node">
<title>Node12</title>
<g id="a_Node000012"><a xlink:href="drivers_2include_2net_2netdev_8h.html" target="_top" xlink:title="Definitions low&#45;level network driver interface.">
<polygon fill="white" stroke="#666666" points="545.68,-247.75 468.93,-247.75 468.93,-227 545.68,-227 545.68,-247.75"/>
<text text-anchor="middle" x="507.31" y="-234.25" font-family="Helvetica,sans-Serif" font-size="10.00">net/netdev.h</text>
</a>
</g>
</g>
<!-- Node1&#45;&gt;Node12 -->
<g id="edge16_Node000001_Node000012" class="edge">
<title>Node1&#45;&gt;Node12</title>
<g id="a_edge16_Node000001_Node000012"><a xlink:title=" ">
<path fill="none" stroke="#63b8ff" d="M552.11,-567.13C557.4,-547.86 568.31,-503.47 568.31,-465.38 568.31,-465.38 568.31,-465.38 568.31,-349.88 568.31,-313.33 542.77,-277.4 524.75,-256.59"/>
<polygon fill="#63b8ff" stroke="#63b8ff" points="527.43,-254.33 518.13,-249.26 522.24,-259.03 527.43,-254.33"/>
</a>
</g>
</g>
<!-- Node15 -->
<g id="Node000015" class="node">
<title>Node15</title>
<g id="a_Node000015"><a xlink:href="kernel__defines_8h.html" target="_top" xlink:title="Common macros and compiler attributes/pragmas configuration.">
<polygon fill="white" stroke="#666666" points="730.43,-191 634.18,-191 634.18,-170.25 730.43,-170.25 730.43,-191"/>
<text text-anchor="middle" x="682.31" y="-177.5" font-family="Helvetica,sans-Serif" font-size="10.00">kernel_defines.h</text>
</a>
</g>
</g>
<!-- Node1&#45;&gt;Node15 -->
<g id="edge34_Node000001_Node000015" class="edge">
<title>Node1&#45;&gt;Node15</title>
<g id="a_edge34_Node000001_Node000015"><a xlink:title=" ">
<path fill="none" stroke="#63b8ff" d="M549.74,-567.33C550.48,-554.35 552.44,-530.51 557.31,-510.75 587.24,-389.35 649.15,-251.81 672.82,-201.44"/>
<polygon fill="#63b8ff" stroke="#63b8ff" points="675.86,-203.21 676.98,-192.68 669.53,-200.21 675.86,-203.21"/>
</a>
</g>
</g>
<!-- Node21 -->
<g id="Node000021" class="node">
<title>Node21</title>
<g id="a_Node000021"><a xlink:href="ztimer_8h.html" target="_top" xlink:title="ztimer API">
<polygon fill="white" stroke="#666666" points="815.56,-531.5 759.06,-531.5 759.06,-510.75 815.56,-510.75 815.56,-531.5"/>
<text text-anchor="middle" x="787.31" y="-518" font-family="Helvetica,sans-Serif" font-size="10.00">ztimer.h</text>
</a>
</g>
</g>
<!-- Node1&#45;&gt;Node21 -->
<g id="edge35_Node000001_Node000021" class="edge">
<title>Node1&#45;&gt;Node21</title>
<g id="a_edge35_Node000001_Node000021"><a xlink:title=" ">
<path fill="none" stroke="#63b8ff" d="M592.13,-567.02C636.27,-556.87 704.52,-541.17 747.51,-531.28"/>
<polygon fill="#63b8ff" stroke="#63b8ff" points="748.22,-534.71 757.18,-529.06 746.65,-527.89 748.22,-534.71"/>
</a>
</g>
</g>
<!-- Node3&#45;&gt;Node2 -->
<g id="edge8_Node000003_Node000002" class="edge">
<title>Node3&#45;&gt;Node2</title>
<g id="a_edge8_Node000003_Node000002"><a xlink:title=" ">
<path fill="none" stroke="#63b8ff" d="M188.46,-230.62C114.48,-217.5 -40.82,-181.16 10.31,-113.5 85.06,-14.59 498.38,-9.86 626.46,-10.82"/>
<polygon fill="#63b8ff" stroke="#63b8ff" points="626.06,-14.32 636.09,-10.91 626.12,-7.32 626.06,-14.32"/>
</a>
</g>
</g>
<!-- Node4 -->
<g id="Node000004" class="node">
<title>Node4</title>
<g id="a_Node000004"><a xlink:href="endian_8h.html" target="_top" xlink:title="libc header for endian conversion">
<polygon fill="white" stroke="#666666" points="277.31,-77.5 219.31,-77.5 219.31,-56.75 277.31,-56.75 277.31,-77.5"/>
<text text-anchor="middle" x="248.31" y="-64" font-family="Helvetica,sans-Serif" font-size="10.00">endian.h</text>
</a>
</g>
</g>
<!-- Node3&#45;&gt;Node4 -->
<g id="edge3_Node000003_Node000004" class="edge">
<title>Node3&#45;&gt;Node4</title>
<g id="a_edge3_Node000003_Node000004"><a xlink:title=" ">
<path fill="none" stroke="#63b8ff" d="M226.61,-226.85C230.22,-200.48 240.39,-126.08 245.42,-89.28"/>
<polygon fill="#63b8ff" stroke="#63b8ff" points="248.87,-89.85 246.76,-79.47 241.94,-88.9 248.87,-89.85"/>
</a>
</g>
</g>
<!-- Node5 -->
<g id="Node000005" class="node">
<title>Node5</title>
<g id="a_Node000005"><a xlink:href="errno_8h.html" target="_top" xlink:title=" ">
<polygon fill="white" stroke="#666666" points="379.56,-191 329.06,-191 329.06,-170.25 379.56,-170.25 379.56,-191"/>
<text text-anchor="middle" x="354.31" y="-177.5" font-family="Helvetica,sans-Serif" font-size="10.00">errno.h</text>
</a>
</g>
</g>
<!-- Node3&#45;&gt;Node5 -->
<g id="edge5_Node000003_Node000005" class="edge">
<title>Node3&#45;&gt;Node5</title>
<g id="a_edge5_Node000003_Node000005"><a xlink:title=" ">
<path fill="none" stroke="#63b8ff" d="M248.37,-226.59C268.55,-218.02 298.11,-205.48 320.88,-195.81"/>
<polygon fill="#63b8ff" stroke="#63b8ff" points="322.22,-199.05 330.05,-191.92 319.48,-192.6 322.22,-199.05"/>
</a>
</g>
</g>
<!-- Node6 -->
<g id="Node000006" class="node">
<title>Node6</title>
<g id="a_Node000006"><a xlink:title=" ">
<polygon fill="#e0e0e0" stroke="#999999" points="1043.81,-134.25 982.81,-134.25 982.81,-113.5 1043.81,-113.5 1043.81,-134.25"/>
<text text-anchor="middle" x="1013.31" y="-120.75" font-family="Helvetica,sans-Serif" font-size="10.00">stdbool.h</text>
</a>
</g>
</g>
<!-- Node3&#45;&gt;Node6 -->
<g id="edge6_Node000003_Node000006" class="edge">
<title>Node3&#45;&gt;Node6</title>
<g id="a_edge6_Node000003_Node000006"><a xlink:title=" ">
<path fill="none" stroke="#63b8ff" d="M235.35,-226.52C251.6,-211.28 285.41,-182.47 320.31,-170.25 328.04,-167.54 822.25,-136.72 971.25,-127.48"/>
<polygon fill="#63b8ff" stroke="#63b8ff" points="971.3,-130.98 981.07,-126.87 970.87,-124 971.3,-130.98"/>
</a>
</g>
</g>
<!-- Node7 -->
<g id="Node000007" class="node">
<title>Node7</title>
<g id="a_Node000007"><a xlink:title=" ">
<polygon fill="#e0e0e0" stroke="#999999" points="1034.81,-77.5 979.81,-77.5 979.81,-56.75 1034.81,-56.75 1034.81,-77.5"/>
<text text-anchor="middle" x="1007.31" y="-64" font-family="Helvetica,sans-Serif" font-size="10.00">stddef.h</text>
</a>
</g>
</g>
<!-- Node3&#45;&gt;Node7 -->
<g id="edge7_Node000003_Node000007" class="edge">
<title>Node3&#45;&gt;Node7</title>
<g id="a_edge7_Node000003_Node000007"><a xlink:title=" ">
<path fill="none" stroke="#63b8ff" d="M229.71,-226.63C237.12,-211.54 253.62,-182.93 277.31,-170.25 367.32,-122.07 637.3,-162.83 735.31,-134.25 754.16,-128.75 755.77,-119.95 774.31,-113.5 855.01,-85.42 882.23,-95.8 968.36,-77.98"/>
<polygon fill="#63b8ff" stroke="#63b8ff" points="968.93,-81.44 977.97,-75.91 967.46,-74.59 968.93,-81.44"/>
</a>
</g>
</g>
<!-- Node8 -->
<g id="Node000008" class="node">
<title>Node8</title>
<g id="a_Node000008"><a xlink:title=" ">
<polygon fill="#e0e0e0" stroke="#999999" points="97.43,-134.25 19.18,-134.25 19.18,-113.5 97.43,-113.5 97.43,-134.25"/>
<text text-anchor="middle" x="58.31" y="-120.75" font-family="Helvetica,sans-Serif" font-size="10.00">periph_cpu.h</text>
</a>
</g>
</g>
<!-- Node3&#45;&gt;Node8 -->
<g id="edge9_Node000003_Node000008" class="edge">
<title>Node3&#45;&gt;Node8</title>
<g id="a_edge9_Node000003_Node000008"><a xlink:title=" ">
<path fill="none" stroke="#63b8ff" d="M188.59,-236.06C153.03,-233.68 100.23,-224.24 70.31,-191 59.32,-178.79 56.79,-160.02 56.74,-145.59"/>
<polygon fill="#63b8ff" stroke="#63b8ff" points="60.23,-145.94 57.12,-135.81 53.23,-145.67 60.23,-145.94"/>
</a>
</g>
</g>
<!-- Node9 -->
<g id="Node000009" class="node">
<title>Node9</title>
<g id="a_Node000009"><a xlink:title=" ">
<polygon fill="#e0e0e0" stroke="#999999" points="196.93,-134.25 115.68,-134.25 115.68,-113.5 196.93,-113.5 196.93,-134.25"/>
<text text-anchor="middle" x="156.31" y="-120.75" font-family="Helvetica,sans-Serif" font-size="10.00">periph_conf.h</text>
</a>
</g>
</g>
<!-- Node3&#45;&gt;Node9 -->
<g id="edge10_Node000003_Node000009" class="edge">
<title>Node3&#45;&gt;Node9</title>
<g id="a_edge10_Node000003_Node000009"><a xlink:title=" ">
<path fill="none" stroke="#63b8ff" d="M219.43,-226.87C208.13,-208.61 183.19,-168.31 168.27,-144.2"/>
<polygon fill="#63b8ff" stroke="#63b8ff" points="171.41,-142.62 163.17,-135.96 165.46,-146.31 171.41,-142.62"/>
</a>
</g>
</g>
<!-- Node3&#45;&gt;Node10 -->
<g id="edge11_Node000003_Node000010" class="edge">
<title>Node3&#45;&gt;Node10</title>
<g id="a_edge11_Node000003_Node000010"><a xlink:title=" ">
<path fill="none" stroke="#63b8ff" d="M206.36,-226.59C190.23,-218.26 166.81,-206.16 148.32,-196.61"/>
<polygon fill="#63b8ff" stroke="#63b8ff" points="149.93,-193.5 139.44,-192.02 146.72,-199.72 149.93,-193.5"/>
</a>
</g>
</g>
<!-- Node4&#45;&gt;Node2 -->
<g id="edge4_Node000004_Node000002" class="edge">
<title>Node4&#45;&gt;Node2</title>
<g id="a_edge4_Node000004_Node000002"><a xlink:title=" ">
<path fill="none" stroke="#63b8ff" d="M277.54,-61.89C289,-60.26 302.27,-58.39 314.31,-56.75 427.77,-41.34 562.08,-24.25 626.35,-16.14"/>
<polygon fill="#63b8ff" stroke="#63b8ff" points="626.52,-19.65 636.01,-14.93 625.65,-12.7 626.52,-19.65"/>
</a>
</g>
</g>
<!-- Node10&#45;&gt;Node8 -->
<g id="edge13_Node000010_Node000008" class="edge">
<title>Node10&#45;&gt;Node8</title>
<g id="a_edge13_Node000010_Node000008"><a xlink:title=" ">
<path fill="none" stroke="#63b8ff" d="M108.4,-169.84C99.82,-162.13 87.64,-151.2 77.43,-142.04"/>
<polygon fill="#63b8ff" stroke="#63b8ff" points="80.03,-139.66 70.25,-135.59 75.35,-144.87 80.03,-139.66"/>
</a>
</g>
</g>
<!-- Node10&#45;&gt;Node9 -->
<g id="edge14_Node000010_Node000009" class="edge">
<title>Node10&#45;&gt;Node9</title>
<g id="a_edge14_Node000010_Node000009"><a xlink:title=" ">
<path fill="none" stroke="#63b8ff" d="M125.92,-169.84C130.77,-162.67 137.49,-152.73 143.38,-144.01"/>
<polygon fill="#63b8ff" stroke="#63b8ff" points="146.21,-146.08 148.9,-135.83 140.41,-142.16 146.21,-146.08"/>
</a>
</g>
</g>
<!-- Node11 -->
<g id="Node000011" class="node">
<title>Node11</title>
<g id="a_Node000011"><a xlink:title=" ">
<polygon fill="#e0e0e0" stroke="#999999" points="408.68,-134.25 355.93,-134.25 355.93,-113.5 408.68,-113.5 408.68,-134.25"/>
<text text-anchor="middle" x="382.31" y="-120.75" font-family="Helvetica,sans-Serif" font-size="10.00">limits.h</text>
</a>
</g>
</g>
<!-- Node10&#45;&gt;Node11 -->
<g id="edge12_Node000010_Node000011" class="edge">
<title>Node10&#45;&gt;Node11</title>
<g id="a_edge12_Node000010_Node000011"><a xlink:title=" ">
<path fill="none" stroke="#63b8ff" d="M159.54,-171.25C209.9,-160.77 295.48,-142.95 344.62,-132.72"/>
<polygon fill="#63b8ff" stroke="#63b8ff" points="345.14,-136.19 354.22,-130.72 343.71,-129.34 345.14,-136.19"/>
</a>
</g>
</g>
<!-- Node12&#45;&gt;Node2 -->
<g id="edge17_Node000012_Node000002" class="edge">
<title>Node12&#45;&gt;Node2</title>
<g id="a_edge17_Node000012_Node000002"><a xlink:title=" ">
<path fill="none" stroke="#63b8ff" d="M488.3,-226.51C471.66,-217.68 446.98,-204.15 426.31,-191 408.07,-179.39 357.18,-153.48 347.31,-134.25 343.1,-126.04 342.69,-121.48 347.31,-113.5 372.74,-69.62 398.9,-74.75 446.31,-56.75 507.06,-33.69 582.02,-21.35 626.33,-15.59"/>
<polygon fill="#63b8ff" stroke="#63b8ff" points="626.73,-19.07 636.22,-14.36 625.86,-12.13 626.73,-19.07"/>
</a>
</g>
</g>
<!-- Node12&#45;&gt;Node5 -->
<g id="edge18_Node000012_Node000005" class="edge">
<title>Node12&#45;&gt;Node5</title>
<g id="a_edge18_Node000012_Node000005"><a xlink:title=" ">
<path fill="none" stroke="#63b8ff" d="M479.96,-226.59C455.03,-217.67 418.02,-204.42 390.62,-194.62"/>
<polygon fill="#63b8ff" stroke="#63b8ff" points="391.92,-191.37 381.32,-191.29 389.56,-197.96 391.92,-191.37"/>
</a>
</g>
</g>
<!-- Node13 -->
<g id="Node000013" class="node">
<title>Node13</title>
<g id="a_Node000013"><a xlink:href="iolist_8h.html" target="_top" xlink:title="iolist scatter / gather IO">
<polygon fill="white" stroke="#666666" points="577.81,-191 528.81,-191 528.81,-170.25 577.81,-170.25 577.81,-191"/>
<text text-anchor="middle" x="553.31" y="-177.5" font-family="Helvetica,sans-Serif" font-size="10.00">iolist.h</text>
</a>
</g>
</g>
<!-- Node12&#45;&gt;Node13 -->
<g id="edge19_Node000012_Node000013" class="edge">
<title>Node12&#45;&gt;Node13</title>
<g id="a_edge19_Node000012_Node000013"><a xlink:title=" ">
<path fill="none" stroke="#63b8ff" d="M515.53,-226.59C521.75,-219.19 530.46,-208.82 537.95,-199.91"/>
<polygon fill="#63b8ff" stroke="#63b8ff" points="540.43,-202.4 544.18,-192.49 535.07,-197.89 540.43,-202.4"/>
</a>
</g>
</g>
<!-- Node14 -->
<g id="Node000014" class="node">
<title>Node14</title>
<g id="a_Node000014"><a xlink:href="netopt_8h.html" target="_top" xlink:title="Definition of global configuration options.">
<polygon fill="white" stroke="#666666" points="510.93,-191 435.68,-191 435.68,-170.25 510.93,-170.25 510.93,-191"/>
<text text-anchor="middle" x="473.31" y="-177.5" font-family="Helvetica,sans-Serif" font-size="10.00">net/netopt.h</text>
</a>
</g>
</g>
<!-- Node12&#45;&gt;Node14 -->
<g id="edge20_Node000012_Node000014" class="edge">
<title>Node12&#45;&gt;Node14</title>
<g id="a_edge20_Node000012_Node000014"><a xlink:title=" ">
<path fill="none" stroke="#63b8ff" d="M501.23,-226.59C496.83,-219.5 490.74,-209.69 485.37,-201.04"/>
<polygon fill="#63b8ff" stroke="#63b8ff" points="488.38,-199.26 480.13,-192.61 482.44,-202.96 488.38,-199.26"/>
</a>
</g>
</g>
<!-- Node12&#45;&gt;Node15 -->
<g id="edge23_Node000012_Node000015" class="edge">
<title>Node12&#45;&gt;Node15</title>
<g id="a_edge23_Node000012_Node000015"><a xlink:title=" ">
<path fill="none" stroke="#63b8ff" d="M538.6,-226.59C567,-217.7 609.12,-204.52 640.42,-194.73"/>
<polygon fill="#63b8ff" stroke="#63b8ff" points="641.06,-198.2 649.56,-191.87 638.97,-191.52 641.06,-198.2"/>
</a>
</g>
</g>
<!-- Node14&#45;&gt;Node2 -->
<g id="edge21_Node000014_Node000002" class="edge">
<title>Node14&#45;&gt;Node2</title>
<g id="a_edge21_Node000014_Node000002"><a xlink:title=" ">
<path fill="none" stroke="#63b8ff" d="M468.2,-170.04C456.97,-147.52 433.2,-90.55 460.31,-56.75 480.73,-31.29 573.19,-19.21 626.36,-14.27"/>
<polygon fill="#63b8ff" stroke="#63b8ff" points="626.53,-17.77 636.19,-13.4 625.92,-10.8 626.53,-17.77"/>
</a>
</g>
</g>
<!-- Node14&#45;&gt;Node6 -->
<g id="edge22_Node000014_Node000006" class="edge">
<title>Node14&#45;&gt;Node6</title>
<g id="a_edge22_Node000014_Node000006"><a xlink:title=" ">
<path fill="none" stroke="#63b8ff" d="M511.22,-171.71C514.29,-171.18 517.35,-170.68 520.31,-170.25 686.24,-146.13 885.55,-132.42 971.03,-127.26"/>
<polygon fill="#63b8ff" stroke="#63b8ff" points="971.03,-130.77 980.8,-126.68 970.61,-123.78 971.03,-130.77"/>
</a>
</g>
</g>
<!-- Node16 -->
<g id="Node000016" class="node">
<title>Node16</title>
<g id="a_Node000016"><a xlink:href="modules_8h.html" target="_top" xlink:title="Common macros and compiler attributes/pragmas configuration.">
<polygon fill="white" stroke="#666666" points="849.81,-134.25 782.81,-134.25 782.81,-113.5 849.81,-113.5 849.81,-134.25"/>
<text text-anchor="middle" x="816.31" y="-120.75" font-family="Helvetica,sans-Serif" font-size="10.00">modules.h</text>
</a>
</g>
</g>
<!-- Node15&#45;&gt;Node16 -->
<g id="edge24_Node000015_Node000016" class="edge">
<title>Node15&#45;&gt;Node16</title>
<g id="a_edge24_Node000015_Node000016"><a xlink:title=" ">
<path fill="none" stroke="#63b8ff" d="M706.27,-169.84C727.32,-161.23 758.21,-148.61 781.91,-138.93"/>
<polygon fill="#63b8ff" stroke="#63b8ff" points="783.23,-142.17 791.16,-135.15 780.58,-135.69 783.23,-142.17"/>
</a>
</g>
</g>
<!-- Node17 -->
<g id="Node000017" class="node">
<title>Node17</title>
<g id="a_Node000017"><a xlink:href="riot__version_8h.html" target="_top" xlink:title="Common macros and compiler attributes/pragmas configuration.">
<polygon fill="white" stroke="#666666" points="604.68,-77.5 521.93,-77.5 521.93,-56.75 604.68,-56.75 604.68,-77.5"/>
<text text-anchor="middle" x="563.31" y="-64" font-family="Helvetica,sans-Serif" font-size="10.00">riot_version.h</text>
</a>
</g>
</g>
<!-- Node15&#45;&gt;Node17 -->
<g id="edge25_Node000015_Node000017" class="edge">
<title>Node15&#45;&gt;Node17</title>
<g id="a_edge25_Node000015_Node000017"><a xlink:title=" ">
<path fill="none" stroke="#63b8ff" d="M633.87,-171.39C594.87,-163.65 544.59,-150.8 532.31,-134.25 521.28,-119.38 532.91,-99.96 544.95,-86.02"/>
<polygon fill="#63b8ff" stroke="#63b8ff" points="547.38,-88.55 551.65,-78.86 542.26,-83.77 547.38,-88.55"/>
</a>
</g>
</g>
<!-- Node18 -->
<g id="Node000018" class="node">
<title>Node18</title>
<g id="a_Node000018"><a xlink:href="compiler__hints_8h.html" target="_top" xlink:title="Common macros and compiler attributes/pragmas configuration.">
<polygon fill="white" stroke="#666666" points="637.81,-134.25 540.81,-134.25 540.81,-113.5 637.81,-113.5 637.81,-134.25"/>
<text text-anchor="middle" x="589.31" y="-120.75" font-family="Helvetica,sans-Serif" font-size="10.00">compiler_hints.h</text>
</a>
</g>
</g>
<!-- Node15&#45;&gt;Node18 -->
<g id="edge27_Node000015_Node000018" class="edge">
<title>Node15&#45;&gt;Node18</title>
<g id="a_edge27_Node000015_Node000018"><a xlink:title=" ">
<path fill="none" stroke="#63b8ff" d="M665.68,-169.84C651.8,-161.66 631.75,-149.86 615.68,-140.4"/>
<polygon fill="#63b8ff" stroke="#63b8ff" points="617.49,-137.4 607.1,-135.35 613.94,-143.44 617.49,-137.4"/>
</a>
</g>
</g>
<!-- Node20 -->
<g id="Node000020" class="node">
<title>Node20</title>
<g id="a_Node000020"><a xlink:href="container_8h.html" target="_top" xlink:title="Common macros and compiler attributes/pragmas configuration.">
<polygon fill="white" stroke="#666666" points="726.68,-134.25 655.93,-134.25 655.93,-113.5 726.68,-113.5 726.68,-134.25"/>
<text text-anchor="middle" x="691.31" y="-120.75" font-family="Helvetica,sans-Serif" font-size="10.00">container.h</text>
</a>
</g>
</g>
<!-- Node15&#45;&gt;Node20 -->
<g id="edge31_Node000015_Node000020" class="edge">
<title>Node15&#45;&gt;Node20</title>
<g id="a_edge31_Node000015_Node000020"><a xlink:title=" ">
<path fill="none" stroke="#63b8ff" d="M683.92,-169.84C685.02,-163.14 686.52,-154.01 687.88,-145.73"/>
<polygon fill="#63b8ff" stroke="#63b8ff" points="691.3,-146.51 689.47,-136.07 684.39,-145.37 691.3,-146.51"/>
</a>
</g>
</g>
<!-- Node17&#45;&gt;Node2 -->
<g id="edge26_Node000017_Node000002" class="edge">
<title>Node17&#45;&gt;Node2</title>
<g id="a_edge26_Node000017_Node000002"><a xlink:title=" ">
<path fill="none" stroke="#63b8ff" d="M581.37,-56.34C596.73,-48.01 619.05,-35.91 636.67,-26.36"/>
<polygon fill="#63b8ff" stroke="#63b8ff" points="637.96,-29.64 645.08,-21.8 634.62,-23.49 637.96,-29.64"/>
</a>
</g>
</g>
<!-- Node18&#45;&gt;Node2 -->
<g id="edge30_Node000018_Node000002" class="edge">
<title>Node18&#45;&gt;Node2</title>
<g id="a_edge30_Node000018_Node000002"><a xlink:title=" ">
<path fill="none" stroke="#63b8ff" d="M595.7,-113.37C607.99,-95.11 635.09,-54.81 651.31,-30.7"/>
<polygon fill="#63b8ff" stroke="#63b8ff" points="654.2,-32.68 656.87,-22.43 648.39,-28.78 654.2,-32.68"/>
</a>
</g>
</g>
<!-- Node19 -->
<g id="Node000019" class="node">
<title>Node19</title>
<g id="a_Node000019"><a xlink:href="assert_8h.html" target="_top" xlink:title="POSIX.1&#45;2008 compliant version of the assert macro.">
<polygon fill="white" stroke="#666666" points="961.81,-77.5 906.81,-77.5 906.81,-56.75 961.81,-56.75 961.81,-77.5"/>
<text text-anchor="middle" x="934.31" y="-64" font-family="Helvetica,sans-Serif" font-size="10.00">assert.h</text>
</a>
</g>
</g>
<!-- Node18&#45;&gt;Node19 -->
<g id="edge28_Node000018_Node000019" class="edge">
<title>Node18&#45;&gt;Node19</title>
<g id="a_edge28_Node000018_Node000019"><a xlink:title=" ">
<path fill="none" stroke="#63b8ff" d="M638.04,-114.99C641.18,-114.48 644.29,-113.98 647.31,-113.5 735.95,-99.33 840.03,-82.94 895.26,-74.26"/>
<polygon fill="#63b8ff" stroke="#63b8ff" points="895.77,-77.72 905.1,-72.71 894.68,-70.8 895.77,-77.72"/>
</a>
</g>
</g>
<!-- Node19&#45;&gt;Node2 -->
<g id="edge29_Node000019_Node000002" class="edge">
<title>Node19&#45;&gt;Node2</title>
<g id="a_edge29_Node000019_Node000002"><a xlink:title=" ">
<path fill="none" stroke="#63b8ff" d="M906.32,-59.78C901.64,-58.75 896.84,-57.71 892.31,-56.75 825.47,-42.64 747.34,-27.35 702.07,-18.61"/>
<polygon fill="#63b8ff" stroke="#63b8ff" points="703,-15.23 692.51,-16.77 701.67,-22.1 703,-15.23"/>
</a>
</g>
</g>
<!-- Node20&#45;&gt;Node2 -->
<g id="edge33_Node000020_Node000002" class="edge">
<title>Node20&#45;&gt;Node2</title>
<g id="a_edge33_Node000020_Node000002"><a xlink:title=" ">
<path fill="none" stroke="#63b8ff" d="M689.01,-113.37C684.69,-95.52 675.26,-56.61 669.39,-32.34"/>
<polygon fill="#63b8ff" stroke="#63b8ff" points="672.79,-31.54 667.04,-22.65 665.99,-33.19 672.79,-31.54"/>
</a>
</g>
</g>
<!-- Node20&#45;&gt;Node7 -->
<g id="edge32_Node000020_Node000007" class="edge">
<title>Node20&#45;&gt;Node7</title>
<g id="a_edge32_Node000020_Node000007"><a xlink:title=" ">
<path fill="none" stroke="#63b8ff" d="M727.14,-115.87C731.57,-115.05 736.04,-114.24 740.31,-113.5 839.19,-96.34 867.65,-98.45 968.48,-77.93"/>
<polygon fill="#63b8ff" stroke="#63b8ff" points="968.9,-81.42 977.98,-75.98 967.48,-74.57 968.9,-81.42"/>
</a>
</g>
</g>
<!-- Node21&#45;&gt;Node2 -->
<g id="edge36_Node000021_Node000002" class="edge">
<title>Node21&#45;&gt;Node2</title>
<g id="a_edge36_Node000021_Node000002"><a xlink:title=" ">
<path fill="none" stroke="#63b8ff" d="M758.63,-515.92C707.59,-506.63 606.31,-479.3 606.31,-408.62 606.31,-408.62 606.31,-408.62 606.31,-236.38 606.31,-205.8 606.2,-194.3 587.31,-170.25 567.39,-144.89 543.09,-160.47 524.31,-134.25 504.05,-105.97 492.55,-84.67 513.31,-56.75 539.14,-22.02 590.67,-12.88 626.3,-10.97"/>
<polygon fill="#63b8ff" stroke="#63b8ff" points="626.33,-14.47 636.2,-10.63 626.08,-7.48 626.33,-14.47"/>
</a>
</g>
</g>
<!-- Node22 -->
<g id="Node000022" class="node">
<title>Node22</title>
<g id="a_Node000022"><a xlink:href="sched_8h.html" target="_top" xlink:title="Scheduler API definition.">
<polygon fill="white" stroke="#666666" points="840.06,-247.75 786.56,-247.75 786.56,-227 840.06,-227 840.06,-247.75"/>
<text text-anchor="middle" x="813.31" y="-234.25" font-family="Helvetica,sans-Serif" font-size="10.00">sched.h</text>
</a>
</g>
</g>
<!-- Node21&#45;&gt;Node22 -->
<g id="edge37_Node000021_Node000022" class="edge">
<title>Node21&#45;&gt;Node22</title>
<g id="a_edge37_Node000021_Node000022"><a xlink:title=" ">
<path fill="none" stroke="#63b8ff" d="M783.03,-510.5C774.96,-491.45 758.31,-447.43 758.31,-408.62 758.31,-408.62 758.31,-408.62 758.31,-349.88 758.31,-314.1 781.37,-277.91 797.62,-256.84"/>
<polygon fill="#63b8ff" stroke="#63b8ff" points="800.22,-259.19 803.77,-249.21 794.77,-254.8 800.22,-259.19"/>
</a>
</g>
</g>
<!-- Node27 -->
<g id="Node000027" class="node">
<title>Node27</title>
<g id="a_Node000027"><a xlink:title=" ">
<polygon fill="#e0e0e0" stroke="#999999" points="910.31,-474.75 864.31,-474.75 864.31,-454 910.31,-454 910.31,-474.75"/>
<text text-anchor="middle" x="887.31" y="-461.25" font-family="Helvetica,sans-Serif" font-size="10.00">msg.h</text>
</a>
</g>
</g>
<!-- Node21&#45;&gt;Node27 -->
<g id="edge46_Node000021_Node000027" class="edge">
<title>Node21&#45;&gt;Node27</title>
<g id="a_edge46_Node000021_Node000027"><a xlink:title=" ">
<path fill="none" stroke="#63b8ff" d="M805.19,-510.34C820.4,-502.01 842.5,-489.91 859.94,-480.36"/>
<polygon fill="#63b8ff" stroke="#63b8ff" points="861.17,-483.68 868.26,-475.81 857.81,-477.54 861.17,-483.68"/>
</a>
</g>
</g>
<!-- Node28 -->
<g id="Node000028" class="node">
<title>Node28</title>
<g id="a_Node000028"><a xlink:href="mutex_8h.html" target="_top" xlink:title="Mutex for thread synchronization.">
<polygon fill="white" stroke="#666666" points="1270.56,-418 1214.06,-418 1214.06,-397.25 1270.56,-397.25 1270.56,-418"/>
<text text-anchor="middle" x="1242.31" y="-404.5" font-family="Helvetica,sans-Serif" font-size="10.00">mutex.h</text>
</a>
</g>
</g>
<!-- Node21&#45;&gt;Node28 -->
<g id="edge47_Node000021_Node000028" class="edge">
<title>Node21&#45;&gt;Node28</title>
<g id="a_edge47_Node000021_Node000028"><a xlink:title=" ">
<path fill="none" stroke="#63b8ff" d="M815.77,-513.15C893.96,-493.99 1112.2,-440.51 1202.46,-418.39"/>
<polygon fill="#63b8ff" stroke="#63b8ff" points="1203.22,-421.81 1212.1,-416.03 1201.55,-415.01 1203.22,-421.81"/>
</a>
</g>
</g>
<!-- Node37 -->
<g id="Node000037" class="node">
<title>Node37</title>
<g id="a_Node000037"><a xlink:href="rmutex_8h.html" target="_top" xlink:title="Recursive Mutex for thread synchronization.">
<polygon fill="white" stroke="#666666" points="846.43,-474.75 786.18,-474.75 786.18,-454 846.43,-454 846.43,-474.75"/>
<text text-anchor="middle" x="816.31" y="-461.25" font-family="Helvetica,sans-Serif" font-size="10.00">rmutex.h</text>
</a>
</g>
</g>
<!-- Node21&#45;&gt;Node37 -->
<g id="edge71_Node000021_Node000037" class="edge">
<title>Node21&#45;&gt;Node37</title>
<g id="a_edge71_Node000021_Node000037"><a xlink:title=" ">
<path fill="none" stroke="#63b8ff" d="M792.49,-510.34C796.21,-503.33 801.33,-493.66 805.87,-485.08"/>
<polygon fill="#63b8ff" stroke="#63b8ff" points="808.87,-486.89 810.46,-476.42 802.69,-483.61 808.87,-486.89"/>
</a>
</g>
</g>
<!-- Node22&#45;&gt;Node7 -->
<g id="edge38_Node000022_Node000007" class="edge">
<title>Node22&#45;&gt;Node7</title>
<g id="a_edge38_Node000022_Node000007"><a xlink:title=" ">
<path fill="none" stroke="#63b8ff" d="M831.23,-226.61C846.27,-218.06 868.02,-204.86 885.31,-191 926.91,-157.66 969.42,-111.54 991.62,-86.35"/>
<polygon fill="#63b8ff" stroke="#63b8ff" points="994.15,-88.77 998.09,-78.93 988.88,-84.17 994.15,-88.77"/>
</a>
</g>
</g>
<!-- Node22&#45;&gt;Node15 -->
<g id="edge40_Node000022_Node000015" class="edge">
<title>Node22&#45;&gt;Node15</title>
<g id="a_edge40_Node000022_Node000015"><a xlink:title=" ">
<path fill="none" stroke="#63b8ff" d="M789.89,-226.59C769.31,-217.98 739.11,-205.36 715.94,-195.68"/>
<polygon fill="#63b8ff" stroke="#63b8ff" points="717.5,-192.54 706.92,-191.91 714.8,-199 717.5,-192.54"/>
</a>
</g>
</g>
<!-- Node23 -->
<g id="Node000023" class="node">
<title>Node23</title>
<g id="a_Node000023"><a xlink:href="inttypes_8h.html" target="_top" xlink:title="Adds include for missing inttype definitions.">
<polygon fill="white" stroke="#666666" points="1186.68,-191 1121.93,-191 1121.93,-170.25 1186.68,-170.25 1186.68,-191"/>
<text text-anchor="middle" x="1154.31" y="-177.5" font-family="Helvetica,sans-Serif" font-size="10.00">inttypes.h</text>
</a>
</g>
</g>
<!-- Node22&#45;&gt;Node23 -->
<g id="edge39_Node000022_Node000023" class="edge">
<title>Node22&#45;&gt;Node23</title>
<g id="a_edge39_Node000022_Node000023"><a xlink:title=" ">
<path fill="none" stroke="#63b8ff" d="M840.36,-228.96C843.37,-228.25 846.4,-227.58 849.31,-227 961.96,-204.73 994.83,-211.75 1110.6,-191.35"/>
<polygon fill="#63b8ff" stroke="#63b8ff" points="1110.98,-194.84 1120.2,-189.63 1109.74,-187.95 1110.98,-194.84"/>
</a>
</g>
</g>
<!-- Node24 -->
<g id="Node000024" class="node">
<title>Node24</title>
<g id="a_Node000024"><a xlink:href="native__sched_8h.html" target="_top" xlink:title="Add definitions required on the native board.">
<polygon fill="white" stroke="#666666" points="876.06,-191 786.56,-191 786.56,-170.25 876.06,-170.25 876.06,-191"/>
<text text-anchor="middle" x="831.31" y="-177.5" font-family="Helvetica,sans-Serif" font-size="10.00">native_sched.h</text>
</a>
</g>
</g>
<!-- Node22&#45;&gt;Node24 -->
<g id="edge41_Node000022_Node000024" class="edge">
<title>Node22&#45;&gt;Node24</title>
<g id="a_edge41_Node000022_Node000024"><a xlink:title=" ">
<path fill="none" stroke="#63b8ff" d="M816.53,-226.59C818.75,-219.81 821.8,-210.55 824.55,-202.19"/>
<polygon fill="#63b8ff" stroke="#63b8ff" points="827.85,-203.36 827.65,-192.77 821.2,-201.17 827.85,-203.36"/>
</a>
</g>
</g>
<!-- Node25 -->
<g id="Node000025" class="node">
<title>Node25</title>
<g id="a_Node000025"><a xlink:href="clist_8h.html" target="_top" xlink:title="Circular linked list.">
<polygon fill="white" stroke="#666666" points="1103.93,-191 1058.68,-191 1058.68,-170.25 1103.93,-170.25 1103.93,-191"/>
<text text-anchor="middle" x="1081.31" y="-177.5" font-family="Helvetica,sans-Serif" font-size="10.00">clist.h</text>
</a>
</g>
</g>
<!-- Node22&#45;&gt;Node25 -->
<g id="edge42_Node000022_Node000025" class="edge">
<title>Node22&#45;&gt;Node25</title>
<g id="a_edge42_Node000022_Node000025"><a xlink:title=" ">
<path fill="none" stroke="#63b8ff" d="M840.39,-229.13C843.4,-228.39 846.41,-227.66 849.31,-227 919.29,-211.06 1001.92,-195.72 1047.26,-187.61"/>
<polygon fill="#63b8ff" stroke="#63b8ff" points="1047.77,-191.07 1057,-185.87 1046.54,-184.18 1047.77,-191.07"/>
</a>
</g>
</g>
<!-- Node25&#45;&gt;Node6 -->
<g id="edge43_Node000025_Node000006" class="edge">
<title>Node25&#45;&gt;Node6</title>
<g id="a_edge43_Node000025_Node000006"><a xlink:title=" ">
<path fill="none" stroke="#63b8ff" d="M1069.15,-169.84C1059.48,-162.05 1045.73,-150.97 1034.29,-141.76"/>
<polygon fill="#63b8ff" stroke="#63b8ff" points="1036.52,-139.07 1026.54,-135.53 1032.13,-144.53 1036.52,-139.07"/>
</a>
</g>
</g>
<!-- Node25&#45;&gt;Node7 -->
<g id="edge44_Node000025_Node000007" class="edge">
<title>Node25&#45;&gt;Node7</title>
<g id="a_edge44_Node000025_Node000007"><a xlink:title=" ">
<path fill="none" stroke="#63b8ff" d="M1078.57,-170.06C1074.44,-156.66 1065.77,-131.86 1053.31,-113.5 1046.3,-103.17 1036.68,-93.24 1028.06,-85.32"/>
<polygon fill="#63b8ff" stroke="#63b8ff" points="1030.53,-82.84 1020.71,-78.86 1025.91,-88.09 1030.53,-82.84"/>
</a>
</g>
</g>
<!-- Node26 -->
<g id="Node000026" class="node">
<title>Node26</title>
<g id="a_Node000026"><a xlink:href="list_8h.html" target="_top" xlink:title="Intrusive linked list.">
<polygon fill="white" stroke="#666666" points="1412.31,-134.25 1372.31,-134.25 1372.31,-113.5 1412.31,-113.5 1412.31,-134.25"/>
<text text-anchor="middle" x="1392.31" y="-120.75" font-family="Helvetica,sans-Serif" font-size="10.00">list.h</text>
</a>
</g>
</g>
<!-- Node25&#45;&gt;Node26 -->
<g id="edge45_Node000025_Node000026" class="edge">
<title>Node25&#45;&gt;Node26</title>
<g id="a_edge45_Node000025_Node000026"><a xlink:title=" ">
<path fill="none" stroke="#63b8ff" d="M1104.29,-172.52C1107.31,-171.7 1110.37,-170.92 1113.31,-170.25 1202.11,-150.1 1308.75,-135.32 1360.72,-128.72"/>
<polygon fill="#63b8ff" stroke="#63b8ff" points="1360.85,-132.23 1370.34,-127.51 1359.98,-125.28 1360.85,-132.23"/>
</a>
</g>
</g>
<!-- Node28&#45;&gt;Node2 -->
<g id="edge49_Node000028_Node000002" class="edge">
<title>Node28&#45;&gt;Node2</title>
<g id="a_edge49_Node000028_Node000002"><a xlink:title=" ">
<path fill="none" stroke="#63b8ff" d="M1270.8,-403.96C1310.87,-399.38 1385.44,-387.82 1443.31,-361.25 1488.09,-340.68 1532.31,-344.4 1532.31,-295.12 1532.31,-295.12 1532.31,-295.12 1532.31,-122.88 1532.31,-37.88 869.14,-16.28 702.13,-12.19"/>
<polygon fill="#63b8ff" stroke="#63b8ff" points="702.35,-8.7 692.27,-11.96 702.19,-15.69 702.35,-8.7"/>
</a>
</g>
</g>
<!-- Node28&#45;&gt;Node6 -->
<g id="edge50_Node000028_Node000006" class="edge">
<title>Node28&#45;&gt;Node6</title>
<g id="a_edge50_Node000028_Node000006"><a xlink:title=" ">
<path fill="none" stroke="#63b8ff" d="M1239.78,-397.04C1233.58,-374.99 1215.88,-319.8 1185.31,-283.75 1137.99,-227.95 1098.39,-245.25 1049.31,-191 1037.12,-177.52 1027.55,-159.17 1021.35,-145.22"/>
<polygon fill="#63b8ff" stroke="#63b8ff" points="1024.63,-144.01 1017.54,-136.14 1018.18,-146.72 1024.63,-144.01"/>
</a>
</g>
</g>
<!-- Node28&#45;&gt;Node7 -->
<g id="edge48_Node000028_Node000007" class="edge">
<title>Node28&#45;&gt;Node7</title>
<g id="a_edge48_Node000028_Node000007"><a xlink:title=" ">
<path fill="none" stroke="#63b8ff" d="M1249.81,-396.79C1263.31,-378.08 1290.31,-335.59 1290.31,-295.12 1290.31,-295.12 1290.31,-295.12 1290.31,-179.62 1290.31,-127.83 1124.12,-89.94 1046.45,-75.06"/>
<polygon fill="#63b8ff" stroke="#63b8ff" points="1047.18,-71.64 1036.71,-73.23 1045.89,-78.52 1047.18,-71.64"/>
</a>
</g>
</g>
<!-- Node28&#45;&gt;Node15 -->
<g id="edge56_Node000028_Node000015" class="edge">
<title>Node28&#45;&gt;Node15</title>
<g id="a_edge56_Node000028_Node000015"><a xlink:title=" ">
<path fill="none" stroke="#63b8ff" d="M1213.59,-404.76C1142.19,-399.1 952.49,-377.72 815.31,-304.5 765.17,-277.74 719.51,-227.49 697.02,-200.28"/>
<polygon fill="#63b8ff" stroke="#63b8ff" points="699.78,-198.12 690.77,-192.56 694.34,-202.53 699.78,-198.12"/>
</a>
</g>
</g>
<!-- Node28&#45;&gt;Node26 -->
<g id="edge57_Node000028_Node000026" class="edge">
<title>Node28&#45;&gt;Node26</title>
<g id="a_edge57_Node000028_Node000026"><a xlink:title=" ">
<path fill="none" stroke="#63b8ff" d="M1270.73,-404.78C1328.94,-399.3 1456.31,-377.86 1456.31,-295.12 1456.31,-295.12 1456.31,-295.12 1456.31,-236.38 1456.31,-205.8 1452.78,-196.62 1437.31,-170.25 1431.14,-159.74 1421.98,-149.89 1413.54,-142.08"/>
<polygon fill="#63b8ff" stroke="#63b8ff" points="1416.11,-139.68 1406.28,-135.72 1411.5,-144.95 1416.11,-139.68"/>
</a>
</g>
</g>
<!-- Node29 -->
<g id="Node000029" class="node">
<title>Node29</title>
<g id="a_Node000029"><a xlink:href="architecture_8h.html" target="_top" xlink:title="Platform&#45;independent access to architecture details.">
<polygon fill="white" stroke="#666666" points="1402.06,-247.75 1318.56,-247.75 1318.56,-227 1402.06,-227 1402.06,-247.75"/>
<text text-anchor="middle" x="1360.31" y="-234.25" font-family="Helvetica,sans-Serif" font-size="10.00">architecture.h</text>
</a>
</g>
</g>
<!-- Node28&#45;&gt;Node29 -->
<g id="edge51_Node000028_Node000029" class="edge">
<title>Node28&#45;&gt;Node29</title>
<g id="a_edge51_Node000028_Node000029"><a xlink:title=" ">
<path fill="none" stroke="#63b8ff" d="M1260.28,-396.89C1273.83,-388.81 1292.1,-376.25 1304.31,-361.25 1329.87,-329.86 1346.42,-284.92 1354.49,-258.98"/>
<polygon fill="#63b8ff" stroke="#63b8ff" points="1357.77,-260.26 1357.26,-249.67 1351.06,-258.26 1357.77,-260.26"/>
</a>
</g>
</g>
<!-- Node31 -->
<g id="Node000031" class="node">
<title>Node31</title>
<g id="a_Node000031"><a xlink:href="core_2include_2thread_8h.html" target="_top" xlink:title="Threading API.">
<polygon fill="white" stroke="#666666" points="1130.56,-361.25 1074.06,-361.25 1074.06,-340.5 1130.56,-340.5 1130.56,-361.25"/>
<text text-anchor="middle" x="1102.31" y="-347.75" font-family="Helvetica,sans-Serif" font-size="10.00">thread.h</text>
</a>
</g>
</g>
<!-- Node28&#45;&gt;Node31 -->
<g id="edge58_Node000028_Node000031" class="edge">
<title>Node28&#45;&gt;Node31</title>
<g id="a_edge58_Node000028_Node000031"><a xlink:title=" ">
<path fill="none" stroke="#63b8ff" d="M1217.28,-396.84C1195.08,-388.16 1162.42,-375.38 1137.58,-365.67"/>
<polygon fill="#63b8ff" stroke="#63b8ff" points="1139.12,-362.51 1128.53,-362.13 1136.57,-369.03 1139.12,-362.51"/>
</a>
</g>
</g>
<!-- Node29&#45;&gt;Node2 -->
<g id="edge52_Node000029_Node000002" class="edge">
<title>Node29&#45;&gt;Node2</title>
<g id="a_edge52_Node000029_Node000002"><a xlink:title=" ">
<path fill="none" stroke="#63b8ff" d="M1391.42,-226.62C1408.21,-219.59 1427.46,-208.24 1437.31,-191 1449.12,-170.34 1431.02,-123.32 1421.31,-113.5 1358.44,-49.93 1316.22,-73.03 1228.31,-56.75 1032.8,-20.54 793.87,-13.22 702.4,-11.75"/>
<polygon fill="#63b8ff" stroke="#63b8ff" points="702.56,-8.25 692.51,-11.6 702.45,-15.25 702.56,-8.25"/>
</a>
</g>
</g>
<!-- Node29&#45;&gt;Node11 -->
<g id="edge54_Node000029_Node000011" class="edge">
<title>Node29&#45;&gt;Node11</title>
<g id="a_edge54_Node000029_Node000011"><a xlink:title=" ">
<path fill="none" stroke="#63b8ff" d="M1341.65,-226.54C1311.74,-211.31 1250.75,-182.51 1195.31,-170.25 907.17,-106.51 826.91,-151.45 532.31,-134.25 494.25,-132.03 450.78,-129.29 420.46,-127.35"/>
<polygon fill="#63b8ff" stroke="#63b8ff" points="420.85,-123.86 410.64,-126.71 420.4,-130.85 420.85,-123.86"/>
</a>
</g>
</g>
<!-- Node29&#45;&gt;Node23 -->
<g id="edge53_Node000029_Node000023" class="edge">
<title>Node29&#45;&gt;Node23</title>
<g id="a_edge53_Node000029_Node000023"><a xlink:title=" ">
<path fill="none" stroke="#63b8ff" d="M1323.48,-226.59C1288.35,-217.25 1235.4,-203.18 1198.12,-193.27"/>
<polygon fill="#63b8ff" stroke="#63b8ff" points="1199.11,-189.91 1188.55,-190.72 1197.31,-196.68 1199.11,-189.91"/>
</a>
</g>
</g>
<!-- Node30 -->
<g id="Node000030" class="node">
<title>Node30</title>
<g id="a_Node000030"><a xlink:title=" ">
<polygon fill="#e0e0e0" stroke="#999999" points="1428.18,-191 1318.43,-191 1318.43,-170.25 1428.18,-170.25 1428.18,-191"/>
<text text-anchor="middle" x="1373.31" y="-177.5" font-family="Helvetica,sans-Serif" font-size="10.00">architecture_arch.h</text>
</a>
</g>
</g>
<!-- Node29&#45;&gt;Node30 -->
<g id="edge55_Node000029_Node000030" class="edge">
<title>Node29&#45;&gt;Node30</title>
<g id="a_edge55_Node000029_Node000030"><a xlink:title=" ">
<path fill="none" stroke="#63b8ff" d="M1362.63,-226.59C1364.22,-219.89 1366.39,-210.76 1368.36,-202.48"/>
<polygon fill="#63b8ff" stroke="#63b8ff" points="1371.75,-203.34 1370.66,-192.8 1364.94,-201.72 1371.75,-203.34"/>
</a>
</g>
</g>
<!-- Node31&#45;&gt;Node22 -->
<g id="edge66_Node000031_Node000022" class="edge">
<title>Node31&#45;&gt;Node22</title>
<g id="a_edge66_Node000031_Node000022"><a xlink:title=" ">
<path fill="none" stroke="#63b8ff" d="M1102.56,-340.09C1102.35,-325.48 1099.63,-298.11 1083.31,-283.75 1046.06,-250.96 916.7,-257.47 851.4,-247.69"/>
<polygon fill="#63b8ff" stroke="#63b8ff" points="852.31,-244.29 841.86,-246 851.1,-251.19 852.31,-244.29"/>
</a>
</g>
</g>
<!-- Node31&#45;&gt;Node25 -->
<g id="edge59_Node000031_Node000025" class="edge">
<title>Node31&#45;&gt;Node25</title>
<g id="a_edge59_Node000031_Node000025"><a xlink:title=" ">
<path fill="none" stroke="#63b8ff" d="M1130.77,-342.55C1149.86,-335.99 1173.58,-324.28 1185.31,-304.5 1190.01,-296.57 1188.88,-292.25 1185.31,-283.75 1169.49,-246.05 1132.22,-215.26 1106.87,-197.68"/>
<polygon fill="#63b8ff" stroke="#63b8ff" points="1109,-194.89 1098.74,-192.23 1105.1,-200.7 1109,-194.89"/>
</a>
</g>
</g>
<!-- Node32 -->
<g id="Node000032" class="node">
<title>Node32</title>
<g id="a_Node000032"><a xlink:href="cib_8h.html" target="_top" xlink:title="Circular integer buffer interface.">
<polygon fill="white" stroke="#666666" points="973.93,-304.5 934.68,-304.5 934.68,-283.75 973.93,-283.75 973.93,-304.5"/>
<text text-anchor="middle" x="954.31" y="-291" font-family="Helvetica,sans-Serif" font-size="10.00">cib.h</text>
</a>
</g>
</g>
<!-- Node31&#45;&gt;Node32 -->
<g id="edge60_Node000031_Node000032" class="edge">
<title>Node31&#45;&gt;Node32</title>
<g id="a_edge60_Node000031_Node000032"><a xlink:title=" ">
<path fill="none" stroke="#63b8ff" d="M1075.85,-340.09C1050.39,-330.67 1011.9,-316.43 985.08,-306.51"/>
<polygon fill="#63b8ff" stroke="#63b8ff" points="986.39,-303.26 975.79,-303.07 983.96,-309.82 986.39,-303.26"/>
</a>
</g>
</g>
<!-- Node33 -->
<g id="Node000033" class="node">
<title>Node33</title>
<g id="a_Node000033"><a xlink:href="core_2include_2msg_8h.html" target="_top" xlink:title="Messaging API for inter process communication.">
<polygon fill="white" stroke="#666666" points="1176.31,-304.5 1130.31,-304.5 1130.31,-283.75 1176.31,-283.75 1176.31,-304.5"/>
<text text-anchor="middle" x="1153.31" y="-291" font-family="Helvetica,sans-Serif" font-size="10.00">msg.h</text>
</a>
</g>
</g>
<!-- Node31&#45;&gt;Node33 -->
<g id="edge62_Node000031_Node000033" class="edge">
<title>Node31&#45;&gt;Node33</title>
<g id="a_edge62_Node000031_Node000033"><a xlink:title=" ">
<path fill="none" stroke="#63b8ff" d="M1111.43,-340.09C1118.39,-332.61 1128.18,-322.11 1136.54,-313.13"/>
<polygon fill="#63b8ff" stroke="#63b8ff" points="1138.98,-315.64 1143.24,-305.94 1133.86,-310.87 1138.98,-315.64"/>
</a>
</g>
</g>
<!-- Node34 -->
<g id="Node000034" class="node">
<title>Node34</title>
<g id="a_Node000034"><a xlink:href="thread__config_8h.html" target="_top" xlink:title="Thread configuration defines.">
<polygon fill="white" stroke="#666666" points="916.18,-304.5 824.43,-304.5 824.43,-283.75 916.18,-283.75 916.18,-304.5"/>
<text text-anchor="middle" x="870.31" y="-291" font-family="Helvetica,sans-Serif" font-size="10.00">thread_config.h</text>
</a>
</g>
</g>
<!-- Node31&#45;&gt;Node34 -->
<g id="edge67_Node000031_Node000034" class="edge">
<title>Node31&#45;&gt;Node34</title>
<g id="a_edge67_Node000031_Node000034"><a xlink:title=" ">
<path fill="none" stroke="#63b8ff" d="M1073.86,-343.16C1036.42,-334.32 969.87,-318.62 923.08,-307.58"/>
<polygon fill="#63b8ff" stroke="#63b8ff" points="923.95,-304.19 913.41,-305.3 922.34,-311 923.95,-304.19"/>
</a>
</g>
</g>
<!-- Node36 -->
<g id="Node000036" class="node">
<title>Node36</title>
<g id="a_Node000036"><a xlink:title=" ">
<polygon fill="#e0e0e0" stroke="#999999" points="1074.68,-304.5 991.93,-304.5 991.93,-283.75 1074.68,-283.75 1074.68,-304.5"/>
<text text-anchor="middle" x="1033.31" y="-291" font-family="Helvetica,sans-Serif" font-size="10.00">thread_arch.h</text>
</a>
</g>
</g>
<!-- Node31&#45;&gt;Node36 -->
<g id="edge70_Node000031_Node000036" class="edge">
<title>Node31&#45;&gt;Node36</title>
<g id="a_edge70_Node000031_Node000036"><a xlink:title=" ">
<path fill="none" stroke="#63b8ff" d="M1089.97,-340.09C1080.06,-332.22 1065.92,-321 1054.25,-311.74"/>
<polygon fill="#63b8ff" stroke="#63b8ff" points="1056.73,-309.24 1046.72,-305.77 1052.38,-314.73 1056.73,-309.24"/>
</a>
</g>
</g>
<!-- Node32&#45;&gt;Node19 -->
<g id="edge61_Node000032_Node000019" class="edge">
<title>Node32&#45;&gt;Node19</title>
<g id="a_edge61_Node000032_Node000019"><a xlink:title=" ">
<path fill="none" stroke="#63b8ff" d="M953.45,-283.46C950.44,-249.63 940.35,-136.11 936.16,-88.94"/>
<polygon fill="#63b8ff" stroke="#63b8ff" points="939.67,-88.92 935.3,-79.26 932.7,-89.54 939.67,-88.92"/>
</a>
</g>
</g>
<!-- Node33&#45;&gt;Node2 -->
<g id="edge63_Node000033_Node000002" class="edge">
<title>Node33&#45;&gt;Node2</title>
<g id="a_edge63_Node000033_Node000002"><a xlink:title=" ">
<path fill="none" stroke="#63b8ff" d="M1163.11,-283.36C1180.35,-265.09 1214.31,-223.77 1214.31,-181.62 1214.31,-181.62 1214.31,-181.62 1214.31,-122.88 1214.31,-18.11 826.15,-10.68 702.01,-10.98"/>
<polygon fill="#63b8ff" stroke="#63b8ff" points="702.34,-7.48 692.35,-11.02 702.37,-14.48 702.34,-7.48"/>
</a>
</g>
</g>
<!-- Node33&#45;&gt;Node6 -->
<g id="edge64_Node000033_Node000006" class="edge">
<title>Node33&#45;&gt;Node6</title>
<g id="a_edge64_Node000033_Node000006"><a xlink:title=" ">
<path fill="none" stroke="#63b8ff" d="M1130.07,-283.57C1097.94,-268.97 1041.13,-237.78 1016.31,-191 1008.97,-177.17 1008.59,-159.32 1009.85,-145.66"/>
<polygon fill="#63b8ff" stroke="#63b8ff" points="1013.28,-146.39 1011.11,-136.02 1006.34,-145.48 1013.28,-146.39"/>
</a>
</g>
</g>
<!-- Node33&#45;&gt;Node22 -->
<g id="edge65_Node000033_Node000022" class="edge">
<title>Node33&#45;&gt;Node22</title>
<g id="a_edge65_Node000033_Node000022"><a xlink:title=" ">
<path fill="none" stroke="#63b8ff" d="M1129.91,-286.77C1125.42,-285.67 1120.73,-284.61 1116.31,-283.75 1002.31,-261.7 968.81,-270.31 851.58,-247.98"/>
<polygon fill="#63b8ff" stroke="#63b8ff" points="852.33,-244.56 841.84,-246.08 850.99,-251.43 852.33,-244.56"/>
</a>
</g>
</g>
<!-- Node34&#45;&gt;Node22 -->
<g id="edge69_Node000034_Node000022" class="edge">
<title>Node34&#45;&gt;Node22</title>
<g id="a_edge69_Node000034_Node000022"><a xlink:title=" ">
<path fill="none" stroke="#63b8ff" d="M860.12,-283.34C852.18,-275.71 840.94,-264.92 831.47,-255.82"/>
<polygon fill="#63b8ff" stroke="#63b8ff" points="834.14,-253.53 824.5,-249.13 829.29,-258.58 834.14,-253.53"/>
</a>
</g>
</g>
<!-- Node35 -->
<g id="Node000035" class="node">
<title>Node35</title>
<g id="a_Node000035"><a xlink:title=" ">
<polygon fill="#e0e0e0" stroke="#999999" points="926.18,-247.75 858.43,-247.75 858.43,-227 926.18,-227 926.18,-247.75"/>
<text text-anchor="middle" x="892.31" y="-234.25" font-family="Helvetica,sans-Serif" font-size="10.00">cpu_conf.h</text>
</a>
</g>
</g>
<!-- Node34&#45;&gt;Node35 -->
<g id="edge68_Node000034_Node000035" class="edge">
<title>Node34&#45;&gt;Node35</title>
<g id="a_edge68_Node000034_Node000035"><a xlink:title=" ">
<path fill="none" stroke="#63b8ff" d="M874.24,-283.34C877,-276.49 880.77,-267.09 884.16,-258.65"/>
<polygon fill="#63b8ff" stroke="#63b8ff" points="887.37,-260.07 887.85,-249.48 880.87,-257.46 887.37,-260.07"/>
</a>
</g>
</g>
<!-- Node37&#45;&gt;Node2 -->
<g id="edge72_Node000037_Node000002" class="edge">
<title>Node37&#45;&gt;Node2</title>
<g id="a_edge72_Node000037_Node000002"><a xlink:title=" ">
<path fill="none" stroke="#63b8ff" d="M811.98,-453.6C801.41,-429.11 774.45,-362.88 765.31,-304.5 763.88,-295.39 764.82,-292.96 765.31,-283.75 767.98,-233.09 747.38,-211.2 777.31,-170.25 800.8,-138.12 837.55,-167.57 859.31,-134.25 864.35,-126.53 864.08,-121.39 859.31,-113.5 825.2,-57.14 748.6,-30.37 702.21,-18.9"/>
<polygon fill="#63b8ff" stroke="#63b8ff" points="703.12,-15.52 692.58,-16.65 701.52,-22.34 703.12,-15.52"/>
</a>
</g>
</g>
<!-- Node37&#45;&gt;Node22 -->
<g id="edge74_Node000037_Node000022" class="edge">
<title>Node37&#45;&gt;Node22</title>
<g id="a_edge74_Node000037_Node000022"><a xlink:title=" ">
<path fill="none" stroke="#63b8ff" d="M816.18,-453.71C815.73,-419.95 814.22,-306.84 813.59,-259.5"/>
<polygon fill="#63b8ff" stroke="#63b8ff" points="817.09,-259.47 813.46,-249.52 810.09,-259.57 817.09,-259.47"/>
</a>
</g>
</g>
<!-- Node37&#45;&gt;Node28 -->
<g id="edge73_Node000037_Node000028" class="edge">
<title>Node37&#45;&gt;Node28</title>
<g id="a_edge73_Node000037_Node000028"><a xlink:title=" ">
<path fill="none" stroke="#63b8ff" d="M846.89,-455.66C849.73,-455.05 852.57,-454.49 855.31,-454 981.22,-431.57 1132.23,-417.52 1202.6,-411.71"/>
<polygon fill="#63b8ff" stroke="#63b8ff" points="1202.79,-415.2 1212.47,-410.9 1202.22,-408.23 1202.79,-415.2"/>
</a>
</g>
</g>
</g>
</svg>
