<?xml version="1.0" encoding="UTF-8" standalone="no"?>
<!DOCTYPE svg PUBLIC "-//W3C//DTD SVG 1.1//EN"
 "http://www.w3.org/Graphics/SVG/1.1/DTD/svg11.dtd">
<!-- Generated by graphviz version 12.1.2 (0)
 -->
<!-- Title: core/lib/include/xfa.h Pages: 1 -->
<svg width="1634pt" height="294pt"
 viewBox="0.00 0.00 1634.00 294.00" xmlns="http://www.w3.org/2000/svg" xmlns:xlink="http://www.w3.org/1999/xlink">
<g id="graph0" class="graph" transform="scale(1 1) rotate(0) translate(4 290)">
<title>core/lib/include/xfa.h</title>
<!-- Node1 -->
<g id="Node000001" class="node">
<title>Node1</title>
<g id="a_Node000001"><a xlink:title="Cross File Arrays.">
<polygon fill="#999999" stroke="#666666" points="883.25,-286 765.25,-286 765.25,-265.25 883.25,-265.25 883.25,-286"/>
<text text-anchor="middle" x="824.25" y="-272.5" font-family="Helvetica,sans-Serif" font-size="10.00">core/lib/include/xfa.h</text>
</a>
</g>
</g>
<!-- Node2 -->
<g id="Node000002" class="node">
<title>Node2</title>
<g id="a_Node000002"><a xlink:href="mtd_8h.html" target="_top" xlink:title=" ">
<polygon fill="white" stroke="#666666" points="432,-222.88 312.5,-222.88 312.5,-202.12 432,-202.12 432,-222.88"/>
<text text-anchor="middle" x="372.25" y="-209.38" font-family="Helvetica,sans-Serif" font-size="10.00">drivers/include/mtd.h</text>
</a>
</g>
</g>
<!-- Node1&#45;&gt;Node2 -->
<g id="edge1_Node000001_Node000002" class="edge">
<title>Node1&#45;&gt;Node2</title>
<g id="a_edge1_Node000001_Node000002"><a xlink:title=" ">
<path fill="none" stroke="#63b8ff" d="M753.63,-265.98C682.89,-257.2 570.93,-242.98 474.25,-229.25 460.68,-227.32 446.11,-225.14 432.35,-223.03"/>
<polygon fill="#63b8ff" stroke="#63b8ff" points="753.19,-269.45 763.55,-267.21 754.05,-262.51 753.19,-269.45"/>
</a>
</g>
</g>
<!-- Node8 -->
<g id="Node000008" class="node">
<title>Node8</title>
<g id="a_Node000008"><a xlink:href="sdmmc_8h.html" target="_top" xlink:title="SDIO/SD/MMC device API using a low&#45;level peripheral driver.">
<polygon fill="white" stroke="#666666" points="610.75,-229.25 483.75,-229.25 483.75,-195.75 610.75,-195.75 610.75,-229.25"/>
<text text-anchor="start" x="491.75" y="-215.75" font-family="Helvetica,sans-Serif" font-size="10.00">drivers/include/sdmmc</text>
<text text-anchor="middle" x="547.25" y="-203" font-family="Helvetica,sans-Serif" font-size="10.00">/sdmmc.h</text>
</a>
</g>
</g>
<!-- Node1&#45;&gt;Node8 -->
<g id="edge7_Node000001_Node000008" class="edge">
<title>Node1&#45;&gt;Node8</title>
<g id="a_edge7_Node000001_Node000008"><a xlink:title=" ">
<path fill="none" stroke="#63b8ff" d="M768.6,-262.34C723.05,-252.29 658.61,-238.07 611,-227.57"/>
<polygon fill="#63b8ff" stroke="#63b8ff" points="767.75,-265.74 778.27,-264.48 769.26,-258.91 767.75,-265.74"/>
</a>
</g>
</g>
<!-- Node9 -->
<g id="Node000009" class="node">
<title>Node9</title>
<g id="a_Node000009"><a xlink:href="lwip__init__devs_8h.html" target="_top" xlink:title="Helpers for simplified network setup.">
<polygon fill="white" stroke="#666666" points="747.62,-229.25 628.88,-229.25 628.88,-195.75 747.62,-195.75 747.62,-229.25"/>
<text text-anchor="start" x="636.88" y="-215.75" font-family="Helvetica,sans-Serif" font-size="10.00">pkg/lwip/include/lwip</text>
<text text-anchor="middle" x="688.25" y="-203" font-family="Helvetica,sans-Serif" font-size="10.00">_init_devs.h</text>
</a>
</g>
</g>
<!-- Node1&#45;&gt;Node9 -->
<g id="edge9_Node000001_Node000009" class="edge">
<title>Node1&#45;&gt;Node9</title>
<g id="a_edge9_Node000001_Node000009"><a xlink:title=" ">
<path fill="none" stroke="#63b8ff" d="M792.08,-260.17C771.74,-251.03 745.42,-239.2 724.37,-229.73"/>
<polygon fill="#63b8ff" stroke="#63b8ff" points="790.46,-263.28 801.02,-264.18 793.33,-256.89 790.46,-263.28"/>
</a>
</g>
</g>
<!-- Node10 -->
<g id="Node000010" class="node">
<title>Node10</title>
<g id="a_Node000010"><a xlink:href="auto__init__utils_8h.html" target="_top" xlink:title="Auto&#45;initialization utilities.">
<polygon fill="white" stroke="#666666" points="882.5,-229.25 766,-229.25 766,-195.75 882.5,-195.75 882.5,-229.25"/>
<text text-anchor="start" x="774" y="-215.75" font-family="Helvetica,sans-Serif" font-size="10.00">sys/include/auto_init</text>
<text text-anchor="middle" x="824.25" y="-203" font-family="Helvetica,sans-Serif" font-size="10.00">_utils.h</text>
</a>
</g>
</g>
<!-- Node1&#45;&gt;Node10 -->
<g id="edge10_Node000001_Node000010" class="edge">
<title>Node1&#45;&gt;Node10</title>
<g id="a_edge10_Node000001_Node000010"><a xlink:title=" ">
<path fill="none" stroke="#63b8ff" d="M824.25,-253.34C824.25,-245.6 824.25,-236.97 824.25,-229.73"/>
<polygon fill="#63b8ff" stroke="#63b8ff" points="820.75,-253.29 824.25,-263.29 827.75,-253.29 820.75,-253.29"/>
</a>
</g>
</g>
<!-- Node11 -->
<g id="Node000011" class="node">
<title>Node11</title>
<g id="a_Node000011"><a xlink:href="shell_8h.html" target="_top" xlink:title="Shell interface definition.">
<polygon fill="white" stroke="#666666" points="1006.25,-222.88 900.25,-222.88 900.25,-202.12 1006.25,-202.12 1006.25,-222.88"/>
<text text-anchor="middle" x="953.25" y="-209.38" font-family="Helvetica,sans-Serif" font-size="10.00">sys/include/shell.h</text>
</a>
</g>
</g>
<!-- Node1&#45;&gt;Node11 -->
<g id="edge11_Node000001_Node000011" class="edge">
<title>Node1&#45;&gt;Node11</title>
<g id="a_edge11_Node000001_Node000011"><a xlink:title=" ">
<path fill="none" stroke="#63b8ff" d="M855.31,-259.91C879.26,-248.56 911.72,-233.18 932.58,-223.3"/>
<polygon fill="#63b8ff" stroke="#63b8ff" points="853.88,-256.71 846.34,-264.16 856.88,-263.04 853.88,-256.71"/>
</a>
</g>
</g>
<!-- Node13 -->
<g id="Node000013" class="node">
<title>Node13</title>
<g id="a_Node000013"><a xlink:href="stdio__base_8h.html" target="_top" xlink:title=" ">
<polygon fill="white" stroke="#666666" points="1159.88,-222.88 1024.62,-222.88 1024.62,-202.12 1159.88,-202.12 1159.88,-222.88"/>
<text text-anchor="middle" x="1092.25" y="-209.38" font-family="Helvetica,sans-Serif" font-size="10.00">sys/include/stdio_base.h</text>
</a>
</g>
</g>
<!-- Node1&#45;&gt;Node13 -->
<g id="edge13_Node000001_Node000013" class="edge">
<title>Node1&#45;&gt;Node13</title>
<g id="a_edge13_Node000001_Node000013"><a xlink:title=" ">
<path fill="none" stroke="#63b8ff" d="M878.31,-262.29C928.69,-250.8 1002.85,-233.89 1049.3,-223.3"/>
<polygon fill="#63b8ff" stroke="#63b8ff" points="877.76,-258.83 868.78,-264.47 879.31,-265.66 877.76,-258.83"/>
</a>
</g>
</g>
<!-- Node20 -->
<g id="Node000020" class="node">
<title>Node20</title>
<g id="a_Node000020"><a xlink:href="vfs_8h.html" target="_top" xlink:title="VFS layer API declarations.">
<polygon fill="white" stroke="#666666" points="1453.12,-222.88 1355.38,-222.88 1355.38,-202.12 1453.12,-202.12 1453.12,-222.88"/>
<text text-anchor="middle" x="1404.25" y="-209.38" font-family="Helvetica,sans-Serif" font-size="10.00">sys/include/vfs.h</text>
</a>
</g>
</g>
<!-- Node1&#45;&gt;Node20 -->
<g id="edge20_Node000001_Node000020" class="edge">
<title>Node1&#45;&gt;Node20</title>
<g id="a_edge20_Node000001_Node000020"><a xlink:title=" ">
<path fill="none" stroke="#63b8ff" d="M894.74,-267.2C1013.87,-254.64 1252.07,-229.54 1355,-218.69"/>
<polygon fill="#63b8ff" stroke="#63b8ff" points="894.68,-263.68 885.1,-268.21 895.41,-270.64 894.68,-263.68"/>
</a>
</g>
</g>
<!-- Node3 -->
<g id="Node000003" class="node">
<title>Node3</title>
<g id="a_Node000003"><a xlink:href="mtd__at24cxxx_8h.html" target="_top" xlink:title="Interface definition for at24cxxx MTD wrapper.">
<polygon fill="white" stroke="#666666" points="110.5,-159.75 0,-159.75 0,-126.25 110.5,-126.25 110.5,-159.75"/>
<text text-anchor="start" x="8" y="-146.25" font-family="Helvetica,sans-Serif" font-size="10.00">drivers/include/mtd</text>
<text text-anchor="middle" x="55.25" y="-133.5" font-family="Helvetica,sans-Serif" font-size="10.00">_at24cxxx.h</text>
</a>
</g>
</g>
<!-- Node2&#45;&gt;Node3 -->
<g id="edge2_Node000002_Node000003" class="edge">
<title>Node2&#45;&gt;Node3</title>
<g id="a_edge2_Node000002_Node000003"><a xlink:title=" ">
<path fill="none" stroke="#63b8ff" d="M310.76,-199.5C259.65,-189.38 185.08,-174.26 120.25,-159.75 117.19,-159.07 114.05,-158.35 110.89,-157.62"/>
<polygon fill="#63b8ff" stroke="#63b8ff" points="309.96,-202.91 320.45,-201.42 311.32,-196.04 309.96,-202.91"/>
</a>
</g>
</g>
<!-- Node4 -->
<g id="Node000004" class="node">
<title>Node4</title>
<g id="a_Node000004"><a xlink:href="mtd__flashpage_8h.html" target="_top" xlink:title="Interface definition for the flashpage memory driver.">
<polygon fill="white" stroke="#666666" points="239.5,-159.75 129,-159.75 129,-126.25 239.5,-126.25 239.5,-159.75"/>
<text text-anchor="start" x="137" y="-146.25" font-family="Helvetica,sans-Serif" font-size="10.00">drivers/include/mtd</text>
<text text-anchor="middle" x="184.25" y="-133.5" font-family="Helvetica,sans-Serif" font-size="10.00">_flashpage.h</text>
</a>
</g>
</g>
<!-- Node2&#45;&gt;Node4 -->
<g id="edge3_Node000002_Node000004" class="edge">
<title>Node2&#45;&gt;Node4</title>
<g id="a_edge3_Node000002_Node000004"><a xlink:title=" ">
<path fill="none" stroke="#63b8ff" d="M334.35,-197.89C304.06,-187.02 261.51,-171.74 229.45,-160.23"/>
<polygon fill="#63b8ff" stroke="#63b8ff" points="332.89,-201.09 343.49,-201.17 335.26,-194.5 332.89,-201.09"/>
</a>
</g>
</g>
<!-- Node5 -->
<g id="Node000005" class="node">
<title>Node5</title>
<g id="a_Node000005"><a xlink:href="mtd__sdcard_8h.html" target="_top" xlink:title="Interface definition for the mtd_sdcard driver.">
<polygon fill="white" stroke="#666666" points="368.5,-159.75 258,-159.75 258,-126.25 368.5,-126.25 368.5,-159.75"/>
<text text-anchor="start" x="266" y="-146.25" font-family="Helvetica,sans-Serif" font-size="10.00">drivers/include/mtd</text>
<text text-anchor="middle" x="313.25" y="-133.5" font-family="Helvetica,sans-Serif" font-size="10.00">_sdcard.h</text>
</a>
</g>
</g>
<!-- Node2&#45;&gt;Node5 -->
<g id="edge4_Node000002_Node000005" class="edge">
<title>Node2&#45;&gt;Node5</title>
<g id="a_edge4_Node000002_Node000005"><a xlink:title=" ">
<path fill="none" stroke="#63b8ff" d="M356.25,-193.2C347.24,-182.88 336.08,-170.11 327.38,-160.17"/>
<polygon fill="#63b8ff" stroke="#63b8ff" points="353.58,-195.46 362.8,-200.69 358.85,-190.86 353.58,-195.46"/>
</a>
</g>
</g>
<!-- Node6 -->
<g id="Node000006" class="node">
<title>Node6</title>
<g id="a_Node000006"><a xlink:href="mtd__sdmmc_8h.html" target="_top" xlink:title="Interface definition for the mtd_sdmmc driver.">
<polygon fill="white" stroke="#666666" points="626.5,-159.75 516,-159.75 516,-126.25 626.5,-126.25 626.5,-159.75"/>
<text text-anchor="start" x="524" y="-146.25" font-family="Helvetica,sans-Serif" font-size="10.00">drivers/include/mtd</text>
<text text-anchor="middle" x="571.25" y="-133.5" font-family="Helvetica,sans-Serif" font-size="10.00">_sdmmc.h</text>
</a>
</g>
</g>
<!-- Node2&#45;&gt;Node6 -->
<g id="edge5_Node000002_Node000006" class="edge">
<title>Node2&#45;&gt;Node6</title>
<g id="a_edge5_Node000002_Node000006"><a xlink:title=" ">
<path fill="none" stroke="#63b8ff" d="M411.95,-198.04C444.04,-187.15 489.32,-171.79 523.41,-160.23"/>
<polygon fill="#63b8ff" stroke="#63b8ff" points="410.97,-194.67 402.62,-201.2 413.21,-201.3 410.97,-194.67"/>
</a>
</g>
</g>
<!-- Node7 -->
<g id="Node000007" class="node">
<title>Node7</title>
<g id="a_Node000007"><a xlink:href="mtd__spi__nor_8h.html" target="_top" xlink:title="Interface definition for the serial flash memory driver.">
<polygon fill="white" stroke="#666666" points="497.5,-159.75 387,-159.75 387,-126.25 497.5,-126.25 497.5,-159.75"/>
<text text-anchor="start" x="395" y="-146.25" font-family="Helvetica,sans-Serif" font-size="10.00">drivers/include/mtd</text>
<text text-anchor="middle" x="442.25" y="-133.5" font-family="Helvetica,sans-Serif" font-size="10.00">_spi_nor.h</text>
</a>
</g>
</g>
<!-- Node2&#45;&gt;Node7 -->
<g id="edge6_Node000002_Node000007" class="edge">
<title>Node2&#45;&gt;Node7</title>
<g id="a_edge6_Node000002_Node000007"><a xlink:title=" ">
<path fill="none" stroke="#63b8ff" d="M390.26,-194.14C401.11,-183.67 414.85,-170.42 425.48,-160.17"/>
<polygon fill="#63b8ff" stroke="#63b8ff" points="388.14,-191.32 383.37,-200.78 393,-196.36 388.14,-191.32"/>
</a>
</g>
</g>
<!-- Node8&#45;&gt;Node6 -->
<g id="edge8_Node000008_Node000006" class="edge">
<title>Node8&#45;&gt;Node6</title>
<g id="a_edge8_Node000008_Node000006"><a xlink:title=" ">
<path fill="none" stroke="#63b8ff" d="M556.7,-184.92C559.71,-176.45 562.95,-167.35 565.6,-159.88"/>
<polygon fill="#63b8ff" stroke="#63b8ff" points="553.5,-183.48 553.44,-194.08 560.09,-185.83 553.5,-183.48"/>
</a>
</g>
</g>
<!-- Node12 -->
<g id="Node000012" class="node">
<title>Node12</title>
<g id="a_Node000012"><a xlink:href="shell__lock_8h.html" target="_top" xlink:title="Shell interface definition.">
<polygon fill="white" stroke="#666666" points="824,-153.38 692.5,-153.38 692.5,-132.62 824,-132.62 824,-153.38"/>
<text text-anchor="middle" x="758.25" y="-139.88" font-family="Helvetica,sans-Serif" font-size="10.00">sys/include/shell_lock.h</text>
</a>
</g>
</g>
<!-- Node11&#45;&gt;Node12 -->
<g id="edge12_Node000011_Node000012" class="edge">
<title>Node11&#45;&gt;Node12</title>
<g id="a_edge12_Node000011_Node000012"><a xlink:title=" ">
<path fill="none" stroke="#63b8ff" d="M914.31,-198.02C876.59,-184.96 820.3,-165.48 786.64,-153.83"/>
<polygon fill="#63b8ff" stroke="#63b8ff" points="912.87,-201.23 923.47,-201.19 915.16,-194.61 912.87,-201.23"/>
</a>
</g>
</g>
<!-- Node14 -->
<g id="Node000014" class="node">
<title>Node14</title>
<g id="a_Node000014"><a xlink:href="stdio__nimble_8h.html" target="_top" xlink:title=" ">
<polygon fill="white" stroke="#666666" points="988.12,-153.38 842.38,-153.38 842.38,-132.62 988.12,-132.62 988.12,-153.38"/>
<text text-anchor="middle" x="915.25" y="-139.88" font-family="Helvetica,sans-Serif" font-size="10.00">sys/include/stdio_nimble.h</text>
</a>
</g>
</g>
<!-- Node13&#45;&gt;Node14 -->
<g id="edge14_Node000013_Node000014" class="edge">
<title>Node13&#45;&gt;Node14</title>
<g id="a_edge14_Node000013_Node000014"><a xlink:title=" ">
<path fill="none" stroke="#63b8ff" d="M1056.02,-197.68C1021.79,-184.63 971.31,-165.38 941.02,-153.83"/>
<polygon fill="#63b8ff" stroke="#63b8ff" points="1054.51,-200.85 1065.1,-201.15 1057,-194.31 1054.51,-200.85"/>
</a>
</g>
</g>
<!-- Node15 -->
<g id="Node000015" class="node">
<title>Node15</title>
<g id="a_Node000015"><a xlink:href="stdio__rtt_8h.html" target="_top" xlink:title=" ">
<polygon fill="white" stroke="#666666" points="1129.88,-153.38 1006.62,-153.38 1006.62,-132.62 1129.88,-132.62 1129.88,-153.38"/>
<text text-anchor="middle" x="1068.25" y="-139.88" font-family="Helvetica,sans-Serif" font-size="10.00">sys/include/stdio_rtt.h</text>
</a>
</g>
</g>
<!-- Node13&#45;&gt;Node15 -->
<g id="edge15_Node000013_Node000015" class="edge">
<title>Node13&#45;&gt;Node15</title>
<g id="a_edge15_Node000013_Node000015"><a xlink:title=" ">
<path fill="none" stroke="#63b8ff" d="M1084.99,-191.08C1080.57,-178.66 1075.14,-163.37 1071.68,-153.65"/>
<polygon fill="#63b8ff" stroke="#63b8ff" points="1081.66,-192.15 1088.3,-200.4 1088.25,-189.81 1081.66,-192.15"/>
</a>
</g>
</g>
<!-- Node16 -->
<g id="Node000016" class="node">
<title>Node16</title>
<g id="a_Node000016"><a xlink:href="stdio__semihosting_8h.html" target="_top" xlink:title=" ">
<polygon fill="white" stroke="#666666" points="1320.25,-153.38 1148.25,-153.38 1148.25,-132.62 1320.25,-132.62 1320.25,-153.38"/>
<text text-anchor="middle" x="1234.25" y="-139.88" font-family="Helvetica,sans-Serif" font-size="10.00">sys/include/stdio_semihosting.h</text>
</a>
</g>
</g>
<!-- Node13&#45;&gt;Node16 -->
<g id="edge16_Node000013_Node000016" class="edge">
<title>Node13&#45;&gt;Node16</title>
<g id="a_edge16_Node000013_Node000016"><a xlink:title=" ">
<path fill="none" stroke="#63b8ff" d="M1123.12,-196.83C1150.52,-183.8 1189.8,-165.13 1213.58,-153.83"/>
<polygon fill="#63b8ff" stroke="#63b8ff" points="1121.79,-193.58 1114.26,-201.04 1124.8,-199.9 1121.79,-193.58"/>
</a>
</g>
</g>
<!-- Node17 -->
<g id="Node000017" class="node">
<title>Node17</title>
<g id="a_Node000017"><a xlink:href="stdio__uart_8h.html" target="_top" xlink:title=" ">
<polygon fill="white" stroke="#666666" points="1470,-153.38 1338.5,-153.38 1338.5,-132.62 1470,-132.62 1470,-153.38"/>
<text text-anchor="middle" x="1404.25" y="-139.88" font-family="Helvetica,sans-Serif" font-size="10.00">sys/include/stdio_uart.h</text>
</a>
</g>
</g>
<!-- Node13&#45;&gt;Node17 -->
<g id="edge17_Node000013_Node000017" class="edge">
<title>Node13&#45;&gt;Node17</title>
<g id="a_edge17_Node000013_Node000017"><a xlink:title=" ">
<path fill="none" stroke="#63b8ff" d="M1148.82,-199.26C1209.07,-186.23 1303.23,-165.86 1358.83,-153.83"/>
<polygon fill="#63b8ff" stroke="#63b8ff" points="1148.13,-195.83 1139.1,-201.36 1149.61,-202.67 1148.13,-195.83"/>
</a>
</g>
</g>
<!-- Node18 -->
<g id="Node000018" class="node">
<title>Node18</title>
<g id="a_Node000018"><a xlink:href="ethos_8h.html" target="_top" xlink:title="Interface definition for the ethernet&#45;over&#45;serial module.">
<polygon fill="white" stroke="#666666" points="1467.75,-90.25 1340.75,-90.25 1340.75,-69.5 1467.75,-69.5 1467.75,-90.25"/>
<text text-anchor="middle" x="1404.25" y="-76.75" font-family="Helvetica,sans-Serif" font-size="10.00">drivers/include/ethos.h</text>
</a>
</g>
</g>
<!-- Node17&#45;&gt;Node18 -->
<g id="edge18_Node000017_Node000018" class="edge">
<title>Node17&#45;&gt;Node18</title>
<g id="a_edge18_Node000017_Node000018"><a xlink:title=" ">
<path fill="none" stroke="#63b8ff" d="M1404.25,-120.74C1404.25,-110.43 1404.25,-98.56 1404.25,-90.47"/>
<polygon fill="#63b8ff" stroke="#63b8ff" points="1400.75,-120.67 1404.25,-130.67 1407.75,-120.67 1400.75,-120.67"/>
</a>
</g>
</g>
<!-- Node19 -->
<g id="Node000019" class="node">
<title>Node19</title>
<g id="a_Node000019"><a xlink:href="ethos__params_8h.html" target="_top" xlink:title="Default configuration for the ethos device driver.">
<polygon fill="white" stroke="#666666" points="1463.25,-33.5 1345.25,-33.5 1345.25,0 1463.25,0 1463.25,-33.5"/>
<text text-anchor="start" x="1353.25" y="-20" font-family="Helvetica,sans-Serif" font-size="10.00">drivers/ethos/include</text>
<text text-anchor="middle" x="1404.25" y="-7.25" font-family="Helvetica,sans-Serif" font-size="10.00">/ethos_params.h</text>
</a>
</g>
</g>
<!-- Node18&#45;&gt;Node19 -->
<g id="edge19_Node000018_Node000019" class="edge">
<title>Node18&#45;&gt;Node19</title>
<g id="a_edge19_Node000018_Node000019"><a xlink:title=" ">
<path fill="none" stroke="#63b8ff" d="M1404.25,-57.59C1404.25,-49.85 1404.25,-41.22 1404.25,-33.98"/>
<polygon fill="#63b8ff" stroke="#63b8ff" points="1400.75,-57.54 1404.25,-67.54 1407.75,-57.54 1400.75,-57.54"/>
</a>
</g>
</g>
<!-- Node21 -->
<g id="Node000021" class="node">
<title>Node21</title>
<g id="a_Node000021"><a xlink:href="vfs__default_8h.html" target="_top" xlink:title="VFS default mount points.">
<polygon fill="white" stroke="#666666" points="1626,-153.38 1488.5,-153.38 1488.5,-132.62 1626,-132.62 1626,-153.38"/>
<text text-anchor="middle" x="1557.25" y="-139.88" font-family="Helvetica,sans-Serif" font-size="10.00">sys/include/vfs_default.h</text>
</a>
</g>
</g>
<!-- Node20&#45;&gt;Node21 -->
<g id="edge21_Node000020_Node000021" class="edge">
<title>Node20&#45;&gt;Node21</title>
<g id="a_edge21_Node000020_Node000021"><a xlink:title=" ">
<path fill="none" stroke="#63b8ff" d="M1436.73,-197.17C1466.28,-184.13 1509.13,-165.23 1534.98,-153.83"/>
<polygon fill="#63b8ff" stroke="#63b8ff" points="1435.62,-193.84 1427.88,-201.07 1438.44,-200.24 1435.62,-193.84"/>
</a>
</g>
</g>
</g>
</svg>
